<svg xmlns="http://www.w3.org/2000/svg" id="Calque_1" data-name="Calque 1" viewBox="0 0 128 128"><defs><style>.cls-1,.cls-2{stroke:#000;fill:none;stroke-linecap:round;stroke-linejoin:round;stroke-width:2px}.cls-2{stroke:#fab0b4}</style></defs><path d="M75.27 83.99c2.7-1.33 6.22-3.64 7.49-7.49 1.38-4.19-.78-7.54-3.54-14.98-3.07-8.28-4.41-15.01-5.41-19.97-2.22-11.09-4.49-31.82-12.56-31.82-8.77 0-10.34 20.73-12.56 31.82-.99 4.96-2.34 11.69-5.41 19.97-2.75 7.43-4.92 10.79-3.54 14.98 1.27 3.85 4.79 6.16 7.49 7.49" class="cls-1"/><path d="M66.81 82.06c-1.27 1.68-3.28 2.76-5.55 2.76s-4.25-1.07-5.53-2.73M53.46 79.37c-4.19.69-7.37.03-7.73-1.46-.24-1.01.47-2.86 2.86-2.55 3.48.45 3.85 3.47 7.13 6.74M69.12 79.37c4.19.69 7.37.03 7.73-1.46.24-1.01-.47-2.86-2.86-2.55-3.48.45-3.85 3.47-7.13 6.74" class="cls-1"/><path d="M74.58 95.87c-6.75 6.75-17.8 6.75-24.55 0" class="cls-2"/><path d="M80.55 102.17c-10.03 10.03-26.45 10.03-36.49 0" class="cls-2"/><path d="M86.69 108.3c-13.46 13.46-35.48 13.46-48.93 0" class="cls-2"/></svg>