<svg xmlns="http://www.w3.org/2000/svg" id="Calque_1" data-name="Calque 1" viewBox="0 0 200 128"><defs><style>.cls-1,.cls-2{stroke:#000;stroke-linecap:round;stroke-linejoin:round}.cls-1{fill:#fff}.cls-2{fill:none}.cls-8{fill:#f6e7d4}.cls-9{fill:#fab0b4}.cls-10{fill:#ff6d75}.cls-11{fill:#dbc5b1}.cls-12{fill:#dfdfe0}</style></defs><path d="M163.33 14.2h.17a6.373 6.373 0 0 1 6.37 6.37v15.41H30.13V20.57c0-.39.05-.77.12-1.15l.07-.31c.07-.29.16-.57.26-.84l.09-.25c.14-.32.31-.63.5-.92l.05-.09.15-.18c.15-.2.3-.39.47-.57l.28-.29c.23-.22.47-.42.73-.6l.09-.07.69-.37c.13-.07.26-.15.4-.21.54-.23 1.11-.38 1.71-.45.25-.03.51-.05.77-.05h.4v.05h3.84v-.05h7.31v.04h3.84v-.04h7.31v.04h3.84v-.04h7.31v.03h3.84v-.03h7.37v.03h3.84v-.03h7.31v.03h3.84v-.03h7.3v.02h3.84v-.02h7.31v.02h3.84v-.02h7.27l3.84.01h0l7.31-.01H163.3Z" style="fill:#bfe6fc;stroke-width:2px;stroke-linecap:round;stroke-linejoin:round;stroke:#000"/><path d="m32.94 15.29-.09.07.09-.07zM30.13 111.4ZM168.81 114.92l-.12.16.12-.16ZM168.12 115.77l-.2.21.2-.21ZM36.5 117.77ZM166.92 116.76l.18-.1.03-.03-.21.13zM166.1 117.21l-.17.08.17-.08ZM31.22 114.97c.41.6.92 1.11 1.51 1.54l.21.18a6.397 6.397 0 0 1-1.72-1.72ZM164.9 117.61l-.25.05.25-.05Z" class="cls-8"/><path d="M90.3 92V76.03H72.21V92H90.3Zm-4.34-6.27c0 2.41-1.95 4.36-4.36 4.36s-4.36-1.95-4.36-4.36 4.36-7.7 4.36-7.7 4.36 5.29 4.36 7.7ZM108.96 92V76.03H90.87V92h18.09Zm-4.44-6.27c0 2.41-1.95 4.36-4.36 4.36s-4.36-1.95-4.36-4.36 4.36-7.7 4.36-7.7 4.36 5.29 4.36 7.7ZM127.63 92V76.03h-18.08V92h18.08Zm-4.4-6.27c0 2.41-1.95 4.36-4.36 4.36s-4.36-1.95-4.36-4.36 4.36-7.7 4.36-7.7 4.36 5.29 4.36 7.7ZM146.29 92V76.03H128.2V92h18.09Zm-4.64-6.27c0 2.41-1.95 4.36-4.36 4.36s-4.36-1.95-4.36-4.36 4.36-7.7 4.36-7.7 4.36 5.29 4.36 7.7ZM146.86 92h17.17V76.03h-17.17V92Zm12.83-6.27c0 2.41-1.95 4.36-4.36 4.36s-4.36-1.95-4.36-4.36 4.36-7.7 4.36-7.7 4.36 5.29 4.36 7.7Z" class="cls-9"/><path d="M30.13 35.98v75.42a6.278 6.278 0 0 0 1.09 3.56c.46.68 1.04 1.26 1.72 1.72a6.278 6.278 0 0 0 3.56 1.09h127c.39 0 .77-.05 1.15-.12l.25-.05c.36-.08.7-.18 1.03-.32l.17-.08c.29-.13.56-.28.82-.45l.21-.13c.28-.2.54-.41.79-.65l.2-.21c.2-.22.39-.44.57-.69l.12-.16.02-.02h0c.66-1 1.05-2.2 1.05-3.5V35.98M35.74 40.62h128.88v70.24H35.73V40.63Z" style="stroke-width:2px;fill:none;stroke-linecap:round;stroke-linejoin:round;stroke:#000"/><path d="M38.83 22.35ZM39.42 22.25c.14-.05.27-.1.39-.18-.12.08-.26.13-.39.18ZM40.53 21.29ZM49.98 22.35ZM50.57 22.25c.14-.05.27-.1.39-.18-.12.08-.26.13-.39.18ZM61.73 22.25c.14-.05.27-.1.39-.18-.12.08-.26.13-.39.18ZM62.84 21.29ZM61.14 22.35ZM72.88 22.25c.14-.05.27-.1.39-.18-.12.08-.26.13-.39.18ZM72.29 22.35ZM71.06 21.89l-.26-.26.26.26ZM83.5 22.35ZM84.1 22.25c.14-.05.27-.1.39-.18-.12.08-.26.13-.39.18ZM93.43 21.89l-.26-.26.26.26ZM95.25 22.25c.14-.05.27-.1.39-.18-.12.08-.26.13-.39.18ZM94.66 22.35ZM105.8 22.35ZM106.39 22.25c.14-.05.27-.1.39-.18-.12.08-.26.13-.39.18ZM117.55 22.25c.14-.05.27-.1.39-.18-.12.08-.26.13-.39.18ZM116.95 22.35ZM128.06 22.35ZM129.77 21.29ZM128.66 22.25c.14-.05.27-.1.39-.18-.12.08-.26.13-.39.18ZM137.99 21.89l-.26-.26.26.26ZM139.22 22.35ZM139.81 22.25c.14-.05.27-.1.39-.18-.12.08-.26.13-.39.18ZM151.96 21.29ZM150.26 22.35ZM150.85 22.25c.14-.05.27-.1.39-.18-.12.08-.26.13-.39.18ZM161.41 22.35ZM160.18 21.89l-.26-.26.26.26ZM162.01 22.25c.14-.05.27-.1.39-.18-.12.08-.26.13-.39.18Z" class="cls-12"/><path d="M38.83 10.23c-.2 0-.39.04-.58.1 0 0 0 0 0 0s-.02 0-.03.01c-.16.06-.31.13-.45.23-.03.02-.05.03-.08.05-.15.11-.28.23-.39.38l-.02.02c-.11.15-.19.31-.26.48l-.03.09c-.05.18-.09.36-.09.55v8.28c0 1.06.86 1.92 1.92 1.92h0c.17 0 .33-.03.48-.07l.11-.03c.14-.05.27-.1.39-.18l.03-.02c.29-.19.53-.45.69-.76.13-.26.22-.55.22-.87v-8.28c0-1.06-.86-1.92-1.92-1.92ZM49.98 10.23c-.2 0-.39.04-.58.1 0 0 0 0 0 0s-.02 0-.03.01c-.16.06-.31.13-.45.23-.03.02-.05.03-.08.05-.15.11-.28.23-.39.38l-.02.02c-.11.15-.19.31-.26.48l-.03.09c-.05.18-.09.36-.09.55v8.28c0 1.06.87 1.92 1.92 1.92h0c.17 0 .33-.03.48-.07l.11-.03c.14-.05.27-.1.39-.18l.03-.02c.14-.09.27-.2.39-.33 0 0 .01-.02.02-.03.1-.12.19-.25.27-.39 0 0 0 0 0 0h0c.14-.26.22-.55.22-.87v-8.28c0-1.06-.87-1.92-1.92-1.92ZM61.13 10.23c-.2 0-.39.04-.58.1 0 0 0 0 0 0s-.02 0-.03.01c-.16.06-.31.13-.45.23-.03.02-.05.03-.08.05-.15.11-.28.23-.39.38l-.02.02c-.11.15-.19.31-.26.48l-.03.09c-.06.18-.09.36-.09.55v8.28c0 1.06.86 1.92 1.92 1.92h0c.17 0 .33-.03.48-.07l.11-.03c.14-.05.27-.1.39-.18l.03-.02c.29-.19.53-.45.69-.76.13-.26.22-.55.22-.87v-8.28c0-1.06-.86-1.92-1.92-1.92ZM72.29 10.23c-.2 0-.39.04-.58.1 0 0 0 0 0 0s-.02.01-.03.01c-.16.06-.31.13-.45.23-.03.02-.05.03-.08.05-.15.11-.28.23-.39.38l-.02.02c-.11.15-.19.31-.26.48l-.03.09c-.05.18-.09.36-.09.55v8.28c0 .46.17.87.44 1.2l.26.26c.33.28.76.46 1.23.46h0c.17 0 .33-.03.48-.07l.11-.03c.14-.05.27-.1.39-.18l.03-.02c.14-.09.27-.2.39-.33 0 0 .01-.02.02-.02.11-.12.2-.25.27-.4 0 0 0 0 0 0s0 0 0 0c.14-.26.22-.55.22-.87v-8.28c0-1.06-.87-1.92-1.92-1.92ZM83.5 10.23c-.2 0-.39.04-.58.1 0 0 0 0 0 0s-.02 0-.03.01c-.16.06-.31.13-.45.23-.03.02-.05.03-.08.05-.15.11-.28.23-.39.38l-.02.02c-.11.15-.19.31-.26.48l-.03.09c-.05.18-.09.36-.09.55v8.28c0 1.06.87 1.92 1.92 1.92h0c.17 0 .33-.03.48-.07l.11-.03c.14-.05.27-.1.39-.18l.03-.02c.14-.09.27-.2.39-.33 0 0 .01-.02.02-.03.1-.12.19-.25.27-.39 0 0 0 0 0 0s0 0 0 0c.14-.26.22-.55.22-.87v-8.28c0-1.06-.87-1.92-1.92-1.92ZM94.65 10.23c-.2 0-.39.04-.58.1 0 0 0 0 0 0s-.02 0-.02.01c-.16.06-.32.13-.46.23-.03.02-.05.03-.08.05-.15.11-.28.23-.39.38l-.02.02c-.11.15-.19.31-.26.48l-.03.09c-.05.18-.09.36-.09.55v8.28c0 .46.17.87.44 1.2l.26.26c.33.28.76.46 1.23.46h0c.17 0 .33-.03.48-.07l.11-.03c.14-.05.27-.1.39-.18l.03-.02c.15-.09.27-.2.39-.33 0 0 .01-.02.02-.02.11-.12.2-.25.27-.39 0 0 0 0 0 0s0 0 0 0c.14-.26.22-.55.22-.87v-8.28c0-1.06-.87-1.92-1.92-1.92ZM105.8 10.23c-.2 0-.39.04-.58.1 0 0 0 0 0 0s-.02 0-.03.01c-.16.06-.31.13-.45.23-.03.02-.05.03-.08.05-.15.11-.28.23-.39.38l-.02.02c-.11.15-.19.31-.26.48l-.03.09c-.05.18-.09.36-.09.56v8.28c0 1.06.87 1.92 1.92 1.92h0c.17 0 .33-.03.48-.07l.11-.03c.14-.05.27-.1.4-.18l.03-.02c.15-.09.27-.2.39-.33 0 0 .01-.02.02-.02.11-.12.2-.25.27-.39 0 0 0 0 0 0s0 0 0 0c.14-.26.22-.55.22-.87v-8.28c0-1.06-.87-1.92-1.92-1.92ZM116.95 10.23c-.2 0-.39.04-.58.1 0 0 0 0 0 0s-.02 0-.02.01c-.16.06-.32.13-.46.23-.03.02-.05.03-.08.05-.15.11-.28.23-.39.38l-.02.02c-.11.15-.19.31-.26.48l-.03.09c-.05.18-.09.36-.09.55v8.28c0 1.06.86 1.92 1.92 1.92h0c.17 0 .33-.03.48-.07l.11-.03c.14-.05.27-.1.39-.18l.03-.02c.14-.09.27-.2.39-.33 0 0 .01-.02.02-.02.11-.12.2-.25.27-.39 0 0 0 0 0 0s0 0 0 0c.14-.26.22-.55.22-.87v-8.28c0-1.06-.86-1.92-1.92-1.92ZM128.06 10.23c-.2 0-.39.04-.58.1 0 0 0 0 0 0s-.02 0-.03.01c-.16.06-.31.13-.45.23-.03.02-.05.03-.08.05-.15.11-.28.23-.39.38l-.02.02c-.11.15-.19.31-.26.48l-.03.09c-.05.18-.09.36-.09.55v8.28c0 1.06.86 1.92 1.92 1.92h0c.17 0 .33-.03.48-.07l.11-.03c.14-.05.27-.1.39-.18l.03-.02c.29-.19.53-.45.69-.76.13-.26.22-.55.22-.87v-8.28c0-1.06-.86-1.92-1.92-1.92ZM139.22 10.23c-.2 0-.39.04-.58.1 0 0 0 0 0 0s-.02 0-.03.01c-.16.06-.31.13-.45.23-.03.02-.05.03-.08.05-.15.11-.28.23-.39.38l-.02.02c-.11.15-.19.31-.26.48l-.03.09c-.05.18-.09.36-.09.55v8.28c0 .46.17.87.44 1.2l.26.26c.33.28.76.46 1.23.46h0c.17 0 .33-.03.48-.07l.11-.03c.14-.05.27-.1.39-.18l.03-.02c.14-.09.27-.2.39-.33 0 0 .01-.02.02-.03.11-.12.2-.25.27-.39 0 0 0 0 0 0s0 0 0 0c.14-.26.22-.55.22-.87v-8.28c0-1.06-.87-1.92-1.92-1.92ZM150.26 10.23c-.2 0-.39.04-.58.1 0 0 0 0 0 0s-.02 0-.02.01c-.16.06-.32.13-.46.23-.03.02-.05.03-.08.05-.15.11-.28.23-.39.38l-.02.02c-.11.15-.19.31-.26.48l-.03.09c-.05.18-.09.36-.09.55v8.28c0 1.06.87 1.92 1.92 1.92h0c.17 0 .33-.03.48-.07l.11-.03c.14-.05.27-.1.39-.18l.03-.02c.29-.19.53-.45.69-.76 0 0 0 0 0 0 .13-.26.22-.55.22-.87v-8.28c0-1.06-.87-1.92-1.92-1.92ZM161.41 10.23c-.2 0-.39.04-.58.1 0 0 0 0 0 0s-.02 0-.03.01c-.16.06-.31.13-.46.23-.03.02-.05.03-.08.05-.15.11-.28.23-.39.38l-.02.02c-.11.15-.19.31-.26.48l-.03.09c-.05.18-.09.36-.09.55v8.28c0 .46.17.87.44 1.2l.26.26c.33.28.76.46 1.23.46h0c.17 0 .33-.03.48-.07l.11-.03c.14-.05.27-.1.4-.18l.03-.02c.14-.09.27-.2.39-.33 0 0 .01-.02.02-.02.11-.12.2-.25.27-.4 0 0 0 0 0 0s0 0 0 0c.14-.26.22-.55.22-.87v-8.28c0-1.06-.86-1.92-1.92-1.92Z" class="cls-1"/><path d="M81.61 90.09c2.41 0 4.36-1.95 4.36-4.36s-4.36-7.7-4.36-7.7-4.36 5.29-4.36 7.7 1.95 4.36 4.36 4.36ZM100.17 90.09c2.41 0 4.36-1.95 4.36-4.36s-4.36-7.7-4.36-7.7-4.36 5.29-4.36 7.7 1.95 4.36 4.36 4.36ZM118.87 90.09c2.41 0 4.36-1.95 4.36-4.36s-4.36-7.7-4.36-7.7-4.36 5.29-4.36 7.7 1.95 4.36 4.36 4.36ZM137.29 90.09c2.41 0 4.36-1.95 4.36-4.36s-4.36-7.7-4.36-7.7-4.36 5.29-4.36 7.7 1.95 4.36 4.36 4.36ZM155.33 90.09c2.41 0 4.36-1.95 4.36-4.36s-4.36-7.7-4.36-7.7-4.36 5.29-4.36 7.7 1.95 4.36 4.36 4.36Z" class="cls-10"/><path d="M146.58 110.87V40.63M109.25 110.87V40.63M127.91 110.87V40.63M90.76 110.87V40.63M72.22 110.87V40.63M54.45 110.87V40.63M164.04 76.04H35.73M164.04 60.07H35.73M164.32 92H36.02M164.32 43.82H36.02M164.15 108.06H35.85" class="cls-2"/><circle cx="39.2" cy="74.01" r="27.15" style="stroke-miterlimit:10;stroke-width:2px;fill:#fff;stroke:#000"/><path d="M27.84 63.34c1.07-2.4 3.08-4.11 6.05-5.14 2.74-.95 5.2-.94 7.39.03 2.19.97 3.7 2.66 4.53 5.06.51 1.46.62 2.74.34 3.86s-1.04 2.87-2.28 5.28c-.9 1.75-1.4 3.13-1.5 4.16-.06.67.02 1.49.25 2.46s-.3 1.96-1.24 2.29a1.95 1.95 0 0 1-2.53-1.38c-.26-1.1-.38-2.08-.35-2.94.05-1.37.61-3.1 1.68-5.22l1.12-2.21c.34-.64.58-1.27.72-1.89.26-1.09.22-2.12-.11-3.08-.47-1.35-1.29-2.37-2.45-3.07-1.16-.7-2.69-.73-4.59-.07-2.34.82-3.67 2.23-3.97 4.25-.12.77-.07 1.7.15 2.79.19.94-.36 1.88-1.27 2.2-1.13.39-2.35-.32-2.56-1.5-.38-2.11-.17-4.07.63-5.86ZM42.9 85.58c1.13-.39 2.37.2 2.76 1.34l.06.19c.39 1.13-.2 2.37-1.34 2.76-1.13.39-2.37-.2-2.76-1.34l-.06-.19c-.39-1.13.2-2.37 1.34-2.76Z" style="stroke-miterlimit:10;stroke-width:2px;stroke:#000"/><path d="M-3421.08-2755.83h6467.34v6437.3h-6467.34z" style="stroke:#fff;stroke-width:8px;fill:none;stroke-linecap:round;stroke-linejoin:round"/></svg>