<svg xmlns="http://www.w3.org/2000/svg" id="Calque_1" viewBox="0 0 200 128"><defs><style>.cls-2{stroke:#000;stroke-linecap:round;stroke-linejoin:round;fill:#fff}</style></defs><path d="M81.24 22.44V9.94l13.04.24V32.9L81.24 22.44z" style="stroke-miterlimit:10;stroke-width:2px;fill:#fff;stroke:#000"/><path d="M107.67 43.63 60.95 6.16 14.23 43.63v76.4h164.78V44.38l-71.34-.75z" style="fill:#d6d6d6;stroke-miterlimit:10;stroke-width:2px;stroke:#000"/><path d="m183.36 44.38-75.69-.75L60.95 6.16l-53 43.75" style="stroke:#ff6d75;stroke-width:5px;stroke-miterlimit:10;fill:none"/><path d="m99.42 81.51 2.37.09c10.45-10.76 25.95-31.14 36.3-29.34 6.21 1.08 6.96 9.31 9.6 16.81 2.64 7.5 3.29 11.71 7.25 19.48l1.89 3.04c1.54 2.47 3.74 4.51 6.41 5.65a13 13 0 0 0 2.38.76c4.54.96 5.45.69 5.39 3.18-.06 2.49-17.04 1.52-19.17 1.47-.87-.02-.99-1.51-.83-3.26.36-4.01-.69-8.03-3.07-11.28-.56-.76-1.18-1.61-1.88-2.54-4.35-5.89-7.89-8.49-10.1-16.75-.71-3.13-.05-4.77-.05-4.77-2.45 2.85-10.93 25.76-29.67 37.92l-6.82-20.46" class="cls-2"/><path d="M82.27 73.61c2.76.28 5.41 1.97 7.73 3.36 2.45 1.47 3.83 4.22 6.67 4.5 2.47.24 2.41.1 2.75.05 2.87-.42 4.49-2.14 4.8-2.47l3.09-3.38 4.75 21.76s-3.55 5.06-9.06 6.23c-3.2.68-13.53 1.26-17.85-1.31l-2.45-1.15h-.03c-.27-.1-.57.09-.77.25-.65.53-1.19 1.34-1.79 1.95-.66.68-1.36 1.35-2.19 1.84-1.51.88-3.36.89-5.05 1.22-1.85.38-3.72.66-5.59.89-.35.05-.69.08-1.05.12-5.5-1.99-12.08-5.1-13.28-8.84-2.12-6.61 7.8-15.67 7.8-15.67.72.06 1.52-.14 2.37-.5l.02-.02c3.12-1.32 5.34-4.03 8.17-5.83.15-.08.29-.18.44-.26 3.12-1.83 6.85-3.13 10.51-2.76Z" style="stroke-linecap:round;stroke-linejoin:round;stroke:#000;fill:#bfe6fc"/><path d="M66.23 107.47h-.06.06ZM41.31 93.45c.12.33.22.67.33 1.02 3.22 1.52 6.4-1.52 6.4-1.52s9.36-10.31 12.72-9.99c0 0-9.89 9.04-7.8 15.65.89.12 3.69.8 7.64.25 4.64-.64 11.04.17 11.04.17 1.55.18 2.34-1.19 3.33-2.12 1.62-1.53 3.46-2.8 5.18-4.21 1.81-1.48 3.6-2.97 5.27-4.61 1.07-1.05 2.53-2.35 2.94-3.86.22-.83.45-1.63.35-2.5-.09-.75-.41-1.45-.33-2.23.08-.9.93-1.89 1.45-2.59.15-.19.23-.3.23-.3s1.15-1.98 1.39-1.07.27 1.49.65 1.04c.37-.45 1.22-.37 1.54.14.32.5 1.07.16 1.55.82.48.67.89.93.94 1.76.05.82 1.06 1.49.66 2.66 0 .02-.02.05-.02.07-.44 1.17-2.12 2.88-2.59 3.53-.48.66-4.59 5.73-7.04 9.63-1.22 1.93-3.15 4.18-4.92 6.06-.55.58-1.06 1.22-1.64 1.78-.69.68-1.49 1.51-2.35 2.07-.03.03-.06.05-.1.06-.04.04-.08.06-.12.08-.15.09-.28.16-.43.23-.06.03-.12.05-.18.08 0 0-.02.02-.03.02-.25.11-.51.18-.77.25-.72.18-1.47.24-2.2.33-.55.07-1.09.16-1.62.34h-.03c-.05 0-.08.02-.12.02l-.26.06s-3.46.61-6.13.89h-.06c-.89.11-1.69.16-2.24.15-2.24-.05-4.93.06-4.93.06s-7.52 1.44-10.96.63c-1.11-.25-2.47-.67-3.8-1.25-.55-.23-1.09-.5-1.6-.79-1.08-.61-2.05-1.34-2.76-2.2-.17-.21-.32-.42-.46-.65-.41-.67-.65-1.42-.65-2.22 0-2.87-.39-6.03 1.12-7.81-3.93-.71-8.03-5.26-8.03-5.26s-6.08-5.28-1.32-7.88c0 0 2.69-.35 6.47 2.05 3.79 2.4 4.48 2.02 5.18 2.02s0 1.48 0 1.48 3.19 3.71 1.89 6.06c-.28.52-.79.96-1.59 1.3-.38.15-.77.25-1.17.28" class="cls-2"/><path d="M58.99 107.68s-7.52 1.43-10.96.63c-1.56-.37-3.62-1.04-5.41-2.05h0c-.28-16.41-12.11-26.03-12.11-26.03s2.69-.35 6.48 2.05c3.79 2.4 4.48 2.03 5.17 2.03s0 1.48 0 1.48 3.19 3.71 1.9 6.06c-.28.52-.79.97-1.59 1.3-.38.16-.77.25-1.17.29.12.33.22.67.33 1.02 3.22 1.52 6.4-1.51 6.4-1.51v-.01c-.11-.29-2.56-6.51-5.22-9.43-2.68-2.94-7.12-8.01-16.28-3.87-.14.06-.28.13-.42.19-4.3 2.04-6.16 7.29-5.79 11.79.63 7.71 7.07 9.19 12.99 11.75 2.93 1.27 5.82 2.67 8.56 4.3.24.14.47.27.71.4 8.1 4.3 16.41-.4 16.41-.4Z" class="cls-2"/><path d="M36.94 87.15s1.47-.24 1.48-1.79" class="cls-2"/><path d="m138.02 98.94 5.73-4.95-5.73-4.95v9.9z" style="stroke-linecap:round;stroke-linejoin:round;stroke:#000"/><path d="M138.02 93.91h-15.73" style="fill:none;stroke-linecap:round;stroke-linejoin:round;stroke:#000"/></svg>