<svg xmlns="http://www.w3.org/2000/svg" id="Calque_1" viewBox="0 0 128 128"><defs><style>.cls-2,.cls-5{fill:#fab0b4;stroke-width:2px;stroke:#000;stroke-miterlimit:10}.cls-5{fill:none}</style></defs><path d="M73.48 80.74v4.87c0 5.95 5.96 12.77 11.92 12.77s11.92-6.81 11.92-12.77v-4.87H73.49Z" style="fill:#fab0b4"/><path d="M85.4 98.56v14.35M84.6 112.91l-5.78 5.01c-.74.64-.29 1.86.69 1.86h11.77c.99 0 1.44-1.24.68-1.87l-5.99-5.01c-.4-.33-.98-.33-1.38.01Z" class="cls-5"/><path d="M59.45 87.65v26.98c0 3.65-1.42 6.08-5.67 6.08H36.63c-4.26 0-5.68-2.43-5.68-6.07l-.03-26.94c12.4 1.48 22.68.78 28.53-.04ZM59.32 54.11c-12.06 2.27-26.51.39-28.44.04-.03-5.92.38-10.77 3.86-13.55 4.73-3.78 4.87-6.07 4.87-9.32v-.13h11.21v.14c0 3.24.14 5.54 4.87 9.32 3.85 3.08 3.75 6.72 3.65 13.51Z" class="cls-2"/><path d="M50.81 5.75v25.4H39.6V5.74h11.21Z" style="fill:#d6d6d6;stroke:#000;stroke-miterlimit:10;stroke-width:2px"/><path d="m30.88 54.15.04 33.55s16.22 2.37 28.53-.04l-.13-33.54s-15.55 1.75-28.44.04Z" style="stroke:#000;stroke-miterlimit:10;stroke-width:2px;fill:#fff"/><path d="M97.07 74.52v11.03c0 6.44-5.22 11.67-11.67 11.67S73.73 92 73.73 85.55V74.52h23.34m2-2H71.73v13.03c0 7.54 6.13 13.67 13.67 13.67s13.67-6.13 13.67-13.67V72.52Z"/><path d="M73.48 80.74h23.83" style="fill:none;stroke:#000;stroke-miterlimit:10"/></svg>