<svg xmlns="http://www.w3.org/2000/svg" id="Calque_1" viewBox="0 0 128 128"><defs><linearGradient id="Dégradé_sans_nom_4" x1="63.84" x2="63.84" y1="33.73" y2="78.72" gradientUnits="userSpaceOnUse"><stop offset="0" stop-color="#cfffd1"/><stop offset="1" stop-color="#bfdadc"/></linearGradient><style>.cls-3,.cls-6,.cls-7{stroke:#000}.cls-3,.cls-7{fill:none}.cls-3,.cls-6,.cls-7{stroke-linejoin:round}.cls-6,.cls-7{stroke-linecap:round}.cls-6,.cls-8{fill:#fff}.cls-10{fill:#175365}.cls-3,.cls-6,.cls-7{stroke-width:1.1px}</style></defs><rect width="113.48" height="79.26" x="7.1" y="24.21" rx="6.45" ry="6.45" style="fill:#e5e5e5;stroke-miterlimit:10;stroke:#000"/><rect width="104.85" height="73.23" x="11.42" y="27.23" class="cls-10" rx="3.79" ry="3.79"/><path d="M11.36 34.14h104.97V81.3H11.36z" style="fill:url(#Dégradé_sans_nom_4)"/><text style="font-family:IBMPlexSans-ExtraLight,&quot;IBM Plex Sans&quot;;font-size:67.56px;font-weight:200;fill:#fff" transform="translate(37.48 81.32)"><tspan x="0" y="0">RF</tspan></text><path d="M11.42 81.31h104.85v15.36c0 2.09-1.7 3.79-3.79 3.79H15.21c-2.09 0-3.79-1.7-3.79-3.79V81.31ZM11.36 39.64h31.03v41.67H11.36zM15.74 32.1h.33v-2.69h-.33v-.2h1.45c.27 0 .49.07.64.21.15.14.23.34.23.61 0 .21-.06.38-.17.53-.12.14-.29.23-.51.27l.52.96c.06.11.13.18.2.23.07.05.17.08.27.08h.04v.2h-.28c-.09 0-.16 0-.21-.03a.36.36 0 0 1-.15-.08.679.679 0 0 1-.12-.12c-.03-.05-.07-.11-.1-.17L17 30.88h-.52v1.22h.33v.2h-1.05v-.2Zm.71-1.44h.7c.16 0 .28-.05.37-.15.09-.1.13-.22.13-.37v-.2a.54.54 0 0 0-.13-.37.468.468 0 0 0-.37-.15h-.7v1.24ZM20.98 32.1h.33v-2.69h-.33v-.2h2.29v.74h-.32v-.53H21.7v1.17h.88v-.35h.27v.93h-.27v-.35h-.88v1.27H23v-.57h.32v.78h-2.33v-.2Zm1.09-3.23.34-.78.34.17-.56.68-.12-.06ZM26.08 32.1h.33v-2.69h-.33v-.2h1.45c.28 0 .5.07.65.21.15.14.22.35.22.62s-.08.48-.23.62-.37.22-.65.22h-.72v1.21h.42v.2h-1.13v-.2Zm.71-1.43h.7c.16 0 .28-.05.37-.15.08-.1.13-.22.13-.37v-.2a.54.54 0 0 0-.13-.37c-.08-.1-.21-.15-.37-.15h-.7v1.24ZM32.53 32.36c-.2 0-.37-.02-.52-.07-.14-.04-.26-.12-.35-.22s-.16-.23-.2-.39c-.04-.16-.06-.35-.06-.58v-1.7h-.33v-.2h1.05v.2h-.33v1.77c0 .16.01.29.04.41s.07.21.13.29.14.13.24.17c.1.04.22.06.36.06.29 0 .49-.08.62-.23.12-.15.18-.38.18-.69v-1.77h-.33v-.2h.91v.2h-.33v1.64c0 .22-.02.42-.05.58-.04.16-.1.3-.18.41-.08.11-.19.19-.33.24-.14.05-.3.08-.5.08ZM36.63 32.1h.33v-2.69h-.33v-.2h1.48c.26 0 .46.07.61.2.15.13.22.31.22.53 0 .11-.02.21-.05.29a.675.675 0 0 1-.32.37c-.07.04-.14.06-.21.08.08.02.16.04.24.07.08.03.16.08.23.14s.12.14.17.23c.04.09.07.2.07.32 0 .13-.02.25-.06.35-.04.11-.1.2-.17.27-.07.08-.16.13-.26.17a.88.88 0 0 1-.33.06h-1.61v-.2Zm.71-1.5h.69c.16 0 .28-.05.37-.14.09-.09.13-.21.13-.35v-.19c0-.14-.04-.26-.13-.35a.497.497 0 0 0-.37-.14h-.69v1.17Zm0 1.49h.76c.17 0 .31-.05.4-.15.1-.1.14-.23.14-.39v-.2c0-.16-.05-.29-.14-.39-.1-.1-.23-.15-.4-.15h-.76v1.27ZM41.86 32.1h.33v-2.69h-.33v-.2h1.05v.2h-.33v2.67h1.13v-.57h.32v.78h-2.17v-.2ZM46.76 32.1h.33v-2.69h-.33v-.2h1.05v.2h-.33v2.69h.33v.2h-1.05v-.2ZM52.59 33.07c-.09 0-.16 0-.22-.02s-.12-.03-.17-.06c-.05-.03-.09-.06-.13-.1s-.08-.09-.12-.14l-.28-.42c-.17-.03-.33-.08-.47-.17-.14-.08-.26-.19-.36-.33-.1-.13-.18-.29-.23-.48a2.31 2.31 0 0 1-.08-.61c0-.25.03-.47.1-.67.06-.2.16-.36.28-.5.12-.14.26-.25.43-.32.17-.07.35-.11.56-.11s.39.04.56.11c.17.07.31.18.43.32s.21.31.28.5c.07.2.1.42.1.67 0 .23-.03.43-.08.62-.06.19-.14.35-.24.48-.1.14-.23.25-.37.33-.15.08-.31.13-.49.16l.2.27s.06.09.09.12.06.06.09.08a.3.3 0 0 0 .1.04c.04 0 .08.01.13.01h.13v.2h-.23Zm-.69-.95c.15 0 .28-.03.4-.08s.21-.13.29-.23c.08-.1.14-.22.18-.35.04-.14.06-.29.06-.45v-.51c0-.16-.02-.31-.06-.45a.968.968 0 0 0-.18-.35.8.8 0 0 0-.29-.23c-.12-.05-.25-.08-.4-.08s-.28.03-.4.08c-.12.06-.21.13-.29.23-.08.1-.14.22-.18.35-.04.14-.06.29-.06.45v.51c0 .16.02.31.06.45.04.14.1.25.18.35.08.1.18.18.29.23s.25.08.4.08ZM57.4 32.36c-.2 0-.37-.02-.52-.07-.14-.04-.26-.12-.35-.22s-.16-.23-.2-.39c-.04-.16-.06-.35-.06-.58v-1.7h-.33v-.2h1.05v.2h-.33v1.77c0 .16.01.29.04.41s.07.21.13.29.14.13.24.17c.1.04.22.06.36.06.29 0 .49-.08.62-.23.12-.15.18-.38.18-.69v-1.77h-.33v-.2h.91v.2h-.33v1.64c0 .22-.02.42-.05.58-.04.16-.1.3-.18.41-.08.11-.19.19-.33.24-.14.05-.3.08-.5.08ZM61.5 32.1h.33v-2.69h-.33v-.2h2.29v.74h-.32v-.53h-1.25v1.17h.88v-.35h.27v.93h-.27v-.35h-.88v1.27h1.3v-.57h.32v.78h-2.33v-.2ZM69.89 32.1h.33v-2.69h-.33v-.2h2.29v.74h-.32v-.53h-1.25v1.24h.88v-.35h.27v.93h-.27v-.35h-.88v1.21h.42v.2H69.9v-.2ZM74.93 32.1h.33v-2.69h-.33v-.2h1.45c.27 0 .49.07.64.21.15.14.23.34.23.61 0 .21-.06.38-.17.53-.12.14-.29.23-.51.27l.52.96c.06.11.13.18.2.23.07.05.17.08.27.08h.04v.2h-.28c-.09 0-.16 0-.21-.03a.36.36 0 0 1-.15-.08.679.679 0 0 1-.12-.12c-.03-.05-.07-.11-.1-.17l-.55-1.02h-.52v1.22H76v.2h-1.05v-.2Zm.71-1.44h.7c.16 0 .28-.05.37-.15.09-.1.13-.22.13-.37v-.2a.54.54 0 0 0-.13-.37.468.468 0 0 0-.37-.15h-.7v1.24ZM80.04 32.1h.23l1.01-2.89h.42l1 2.89h.23v.2h-1.05v-.2h.4l-.27-.8H80.8l-.27.8h.4v.2h-.9v-.2Zm.83-1.02h1.08l-.52-1.55h-.03l-.53 1.55ZM85.52 32.1h.33v-2.69h-.33v-.2h.75l1.66 2.48h.02v-2.28h-.33v-.2h.91v.2h-.33v2.89h-.3l-1.78-2.66h-.02v2.46h.33v.2h-.91v-.2ZM92.55 33.22c-.11 0-.19-.02-.25-.06s-.11-.08-.14-.12l.09-.09s.06.06.11.08c.04.02.09.03.15.03.07 0 .13-.02.17-.05.04-.03.06-.08.06-.14a.21.21 0 0 0-.05-.13c-.03-.04-.11-.07-.22-.08h-.12l.06-.31c-.18-.01-.35-.06-.5-.14-.15-.08-.27-.19-.38-.32-.1-.14-.18-.3-.24-.49s-.09-.41-.09-.64c0-.26.03-.48.09-.68.06-.2.15-.37.26-.5.11-.14.24-.24.4-.31.16-.07.33-.11.52-.11s.35.03.48.1c.13.06.21.14.25.24h.02v-.28h.32v.9h-.32v-.23c0-.15-.06-.27-.2-.36-.13-.09-.3-.13-.51-.13-.16 0-.29.03-.41.09s-.21.14-.28.23a.94.94 0 0 0-.16.35c-.03.13-.05.27-.05.41v.54c0 .16.02.31.06.44s.1.24.19.33c.08.09.18.17.3.22s.25.08.4.08c.21 0 .39-.05.53-.16s.25-.25.31-.42l.17.08c-.03.08-.07.17-.12.25-.05.09-.12.17-.21.24-.08.08-.18.14-.3.19s-.25.08-.39.09l-.04.23h.17c.09 0 .17.02.24.07.06.05.09.12.09.22 0 .06-.01.12-.04.16-.02.04-.06.08-.1.11-.04.03-.1.05-.15.07-.06.01-.12.02-.18.02ZM96.12 32.1h.23l1.01-2.89h.42l1 2.89h.23v.2h-1.05v-.2h.4l-.27-.8h-1.21l-.27.8h.4v.2h-.9v-.2Zm.83-1.02h1.08l-.52-1.55h-.03l-.53 1.55ZM101.6 32.1h.33v-2.69h-.33v-.2h1.05v.2h-.33v2.69h.33v.2h-1.05v-.2ZM106.46 32.36c-.19 0-.34-.03-.45-.09a.564.564 0 0 1-.25-.23h-.02v.27h-.32v-.91h.32v.2c0 .07.01.14.03.21.02.06.06.12.11.17s.12.08.2.11c.08.03.19.04.31.04.26 0 .44-.05.56-.16s.17-.26.17-.44c0-.16-.04-.28-.13-.37a.875.875 0 0 0-.41-.21l-.24-.06c-.27-.07-.49-.18-.64-.32a.768.768 0 0 1-.23-.58c0-.12.02-.24.07-.34.05-.1.11-.19.2-.26.09-.07.19-.13.31-.16.12-.04.25-.06.4-.06.17 0 .31.03.41.08s.18.12.23.22h.03v-.24h.32v.86h-.32v-.2c0-.07-.01-.14-.03-.2-.02-.06-.06-.11-.11-.15s-.12-.07-.21-.1c-.09-.02-.19-.03-.31-.03-.21 0-.36.05-.47.14-.1.09-.16.22-.16.37s.05.28.14.37c.09.09.24.16.44.21l.23.06c.27.07.48.18.62.32.15.14.22.33.22.56 0 .13-.02.26-.07.37a.837.837 0 0 1-.52.48c-.13.04-.27.07-.43.07ZM110.26 32.1h.33v-2.69h-.33v-.2h2.29v.74h-.32v-.53h-1.25v1.17h.88v-.35h.27v.93h-.27v-.35h-.88v1.27h1.3v-.57h.32v.78h-2.33v-.2Z" class="cls-8"/><path d="M58.46 38.28h.17l.6-.83-.58-.89h-.17v-.13h.67v.13h-.21l.45.7h.01l.47-.7h-.19v-.13h.55v.13h-.17l-.58.82.6.9h.17v.13h-.68v-.13h.21l-.46-.71h-.01l-.48.71h.19v.13h-.56v-.13ZM60.36 38.28h.17l.6-.83-.58-.89h-.17v-.13h.67v.13h-.21l.45.7h.01l.47-.7h-.19v-.13h.55v.13h-.17l-.58.82.6.9h.17v.13h-.68v-.13h.21l-.46-.71h-.01l-.48.71h.19v.13h-.56v-.13ZM62.25 38.28h.17l.6-.83-.58-.89h-.17v-.13h.67v.13h-.21l.45.7h.01l.47-.7h-.19v-.13h.55v.13h-.17l-.58.82.6.9h.17v.13h-.68v-.13h.21l-.46-.71h-.01l-.48.71h.19v.13h-.56v-.13ZM64.15 38.28h.17l.6-.83-.58-.89h-.17v-.13h.67v.13h-.21l.45.7h.01l.47-.7h-.19v-.13h.55v.13h-.17l-.58.82.6.9h.17v.13h-.68v-.13h.21l-.46-.71H65l-.48.71h.19v.13h-.56v-.13ZM66.05 38.28h.17l.6-.83-.58-.89h-.17v-.13h.67v.13h-.21l.45.7h.01l.47-.7h-.19v-.13h.55v.13h-.17l-.58.82.6.9h.17v.13h-.68v-.13h.21l-.46-.71h-.01l-.48.71h.19v.13h-.56v-.13ZM67.95 38.28h.17l.6-.83-.58-.89h-.17v-.13h.67v.13h-.21l.45.7h.01l.47-.7h-.19v-.13h.55v.13h-.17l-.58.82.6.9h.17v.13h-.68v-.13h.21l-.46-.71h-.01l-.48.71h.19v.13h-.56v-.13ZM69.85 38.28h.17l.6-.83-.58-.89h-.17v-.13h.67v.13h-.21l.45.7h.01l.47-.7h-.19v-.13h.55v.13h-.17l-.58.82.6.9h.17v.13h-.68v-.13h.21l-.46-.71h-.01l-.48.71h.19v.13h-.56v-.13ZM71.74 38.28h.17l.6-.83-.58-.89h-.17v-.13h.67v.13h-.21l.45.7h.01l.47-.7h-.19v-.13h.55v.13h-.17l-.58.82.6.9h.17v.13h-.68v-.13h.21l-.46-.71h-.01l-.48.71h.19v.13h-.56v-.13ZM73.64 38.28h.17l.6-.83-.58-.89h-.17v-.13h.67v.13h-.21l.45.7h.01l.47-.7h-.19v-.13h.55v.13h-.17l-.58.82.6.9h.17v.13h-.68v-.13h.21l-.46-.71h-.01l-.48.71h.19v.13h-.56v-.13ZM75.54 38.28h.17l.6-.83-.58-.89h-.17v-.13h.67v.13h-.21l.45.7h.01l.47-.7h-.19v-.13h.55v.13h-.17l-.58.82.6.9h.17v.13h-.68v-.13h.21l-.46-.71h-.01l-.48.71h.19v.13h-.56v-.13ZM52.61 43.6h.17l.6-.83-.58-.89h-.17v-.13h.67v.13h-.21l.45.7h.01l.47-.7h-.19v-.13h.55v.13h-.17l-.58.82.6.9h.17v.13h-.68v-.13h.21l-.46-.71h-.01l-.48.71h.19v.13h-.56v-.13ZM54.5 43.6h.17l.6-.83-.58-.89h-.17v-.13h.67v.13h-.21l.45.7h.01l.47-.7h-.19v-.13h.55v.13h-.17l-.58.82.6.9h.17v.13h-.68v-.13h.21l-.46-.71h-.01l-.48.71h.19v.13h-.56v-.13ZM56.4 43.6h.17l.6-.83-.58-.89h-.17v-.13h.67v.13h-.21l.45.7h.01l.47-.7h-.19v-.13h.55v.13H58l-.58.82.6.9h.17v.13h-.68v-.13h.21l-.46-.71h-.01l-.48.71h.19v.13h-.56v-.13ZM58.3 43.6h.17l.6-.83-.58-.89h-.17v-.13h.67v.13h-.21l.45.7h.01l.47-.7h-.19v-.13h.55v.13h-.17l-.58.82.6.9h.17v.13h-.68v-.13h.21l-.46-.71h-.01l-.48.71h.19v.13h-.56v-.13ZM60.2 43.6h.17l.6-.83-.58-.89h-.17v-.13h.67v.13h-.21l.45.7h.01l.47-.7h-.19v-.13h.55v.13h-.17l-.58.82.6.9h.17v.13h-.68v-.13h.21l-.46-.71h-.01l-.48.71h.19v.13h-.56v-.13ZM62.1 43.6h.17l.6-.83-.58-.89h-.17v-.13h.67v.13h-.21l.45.7h.01l.47-.7h-.19v-.13h.55v.13h-.17l-.58.82.6.9h.17v.13h-.68v-.13h.21l-.46-.71h-.01l-.48.71h.19v.13h-.56v-.13ZM63.99 43.6h.17l.6-.83-.58-.89h-.17v-.13h.67v.13h-.21l.45.7h.01l.47-.7h-.19v-.13h.55v.13h-.17l-.58.82.6.9h.17v.13h-.68v-.13h.21l-.46-.71h-.01l-.48.71h.19v.13h-.56v-.13ZM65.89 43.6h.17l.6-.83-.58-.89h-.17v-.13h.67v.13h-.21l.45.7h.01l.47-.7h-.19v-.13h.55v.13h-.17l-.58.82.6.9h.17v.13H67v-.13h.21l-.46-.71h-.01l-.48.71h.19v.13h-.56v-.13ZM67.79 43.6h.17l.6-.83-.58-.89h-.17v-.13h.67v.13h-.21l.45.7h.01l.47-.7h-.19v-.13h.55v.13h-.17l-.58.82.6.9h.17v.13h-.68v-.13h.21l-.46-.71h-.01l-.48.71h.19v.13h-.56v-.13ZM69.69 43.6h.17l.6-.83-.58-.89h-.17v-.13h.67v.13h-.21l.45.7h.01l.47-.7h-.19v-.13h.55v.13h-.17l-.58.82.6.9h.17v.13h-.68v-.13h.21l-.46-.71h-.01l-.48.71h.19v.13h-.56v-.13ZM59.17 51.58h.17l.6-.83-.58-.89h-.17v-.13h.67v.13h-.21l.45.7h.01l.47-.7h-.19v-.13h.55v.13h-.17l-.58.82.6.9h.17v.13h-.68v-.13h.21l-.46-.71h-.01l-.48.71h.19v.13h-.56v-.13ZM61.06 51.58h.17l.6-.83-.58-.89h-.17v-.13h.67v.13h-.21l.45.7H62l.47-.7h-.19v-.13h.55v.13h-.17l-.58.82.6.9h.17v.13h-.68v-.13h.21l-.46-.71h-.01l-.48.71h.19v.13h-.56v-.13ZM62.96 51.58h.17l.6-.83-.58-.89h-.17v-.13h.67v.13h-.21l.45.7h.01l.47-.7h-.19v-.13h.55v.13h-.17l-.58.82.6.9h.17v.13h-.68v-.13h.21l-.46-.71h-.01l-.48.71h.19v.13h-.56v-.13ZM64.86 51.58h.17l.6-.83-.58-.89h-.17v-.13h.67v.13h-.21l.45.7h.01l.47-.7h-.19v-.13h.55v.13h-.17l-.58.82.6.9h.17v.13h-.68v-.13h.21l-.46-.71h-.01l-.48.71h.19v.13h-.56v-.13ZM66.76 51.58h.17l.6-.83-.58-.89h-.17v-.13h.67v.13h-.21l.45.7h.01l.47-.7h-.19v-.13h.55v.13h-.17l-.58.82.6.9h.17v.13h-.68v-.13h.21l-.46-.71h-.01l-.48.71h.19v.13h-.56v-.13ZM68.66 51.58h.17l.6-.83-.58-.89h-.17v-.13h.67v.13h-.21l.45.7h.01l.47-.7h-.19v-.13h.55v.13h-.17l-.58.82.6.9h.17v.13h-.68v-.13h.21l-.46-.71h-.01l-.48.71h.19v.13h-.56v-.13ZM70.55 51.58h.17l.6-.83-.58-.89h-.17v-.13h.67v.13h-.21l.45.7h.01l.47-.7h-.19v-.13h.55v.13h-.17l-.58.82.6.9h.17v.13h-.68v-.13h.21l-.46-.71h-.01l-.48.71h.19v.13h-.56v-.13ZM72.45 51.58h.17l.6-.83-.58-.89h-.17v-.13h.67v.13h-.21l.45.7h.01l.47-.7h-.19v-.13h.55v.13h-.17l-.58.82.6.9h.17v.13h-.68v-.13h.21l-.46-.71h-.01l-.48.71h.19v.13h-.56v-.13ZM74.35 51.58h.17l.6-.83-.58-.89h-.17v-.13h.67v.13h-.21l.45.7h.01l.47-.7h-.19v-.13h.55v.13h-.17l-.58.82.6.9h.17v.13h-.68v-.13h.21l-.46-.71h-.01l-.48.71h.19v.13h-.56v-.13ZM76.25 51.58h.17l.6-.83-.58-.89h-.17v-.13h.67v.13h-.21l.45.7h.01l.47-.7h-.19v-.13h.55v.13h-.17l-.58.82.6.9h.17v.13h-.68v-.13h.21l-.46-.71h-.01l-.48.71h.19v.13h-.56v-.13ZM52.61 59.38h.17l.6-.83-.58-.89h-.17v-.13h.67v.13h-.21l.45.7h.01l.47-.7h-.19v-.13h.55v.13h-.17l-.58.82.6.9h.17v.13h-.68v-.13h.21l-.46-.71h-.01l-.48.71h.19v.13h-.56v-.13ZM54.5 59.38h.17l.6-.83-.58-.89h-.17v-.13h.67v.13h-.21l.45.7h.01l.47-.7h-.19v-.13h.55v.13h-.17l-.58.82.6.9h.17v.13h-.68v-.13h.21l-.46-.71h-.01l-.48.71h.19v.13h-.56v-.13ZM56.4 59.38h.17l.6-.83-.58-.89h-.17v-.13h.67v.13h-.21l.45.7h.01l.47-.7h-.19v-.13h.55v.13H58l-.58.82.6.9h.17v.13h-.68v-.13h.21l-.46-.71h-.01l-.48.71h.19v.13h-.56v-.13ZM58.3 59.38h.17l.6-.83-.58-.89h-.17v-.13h.67v.13h-.21l.45.7h.01l.47-.7h-.19v-.13h.55v.13h-.17l-.58.82.6.9h.17v.13h-.68v-.13h.21l-.46-.71h-.01l-.48.71h.19v.13h-.56v-.13ZM60.2 59.38h.17l.6-.83-.58-.89h-.17v-.13h.67v.13h-.21l.45.7h.01l.47-.7h-.19v-.13h.55v.13h-.17l-.58.82.6.9h.17v.13h-.68v-.13h.21l-.46-.71h-.01l-.48.71h.19v.13h-.56v-.13ZM62.1 59.38h.17l.6-.83-.58-.89h-.17v-.13h.67v.13h-.21l.45.7h.01l.47-.7h-.19v-.13h.55v.13h-.17l-.58.82.6.9h.17v.13h-.68v-.13h.21l-.46-.71h-.01l-.48.71h.19v.13h-.56v-.13ZM63.99 59.38h.17l.6-.83-.58-.89h-.17v-.13h.67v.13h-.21l.45.7h.01l.47-.7h-.19v-.13h.55v.13h-.17l-.58.82.6.9h.17v.13h-.68v-.13h.21l-.46-.71h-.01l-.48.71h.19v.13h-.56v-.13ZM65.89 59.38h.17l.6-.83-.58-.89h-.17v-.13h.67v.13h-.21l.45.7h.01l.47-.7h-.19v-.13h.55v.13h-.17l-.58.82.6.9h.17v.13H67v-.13h.21l-.46-.71h-.01l-.48.71h.19v.13h-.56v-.13ZM67.79 59.38h.17l.6-.83-.58-.89h-.17v-.13h.67v.13h-.21l.45.7h.01l.47-.7h-.19v-.13h.55v.13h-.17l-.58.82.6.9h.17v.13h-.68v-.13h.21l-.46-.71h-.01l-.48.71h.19v.13h-.56v-.13ZM69.69 59.38h.17l.6-.83-.58-.89h-.17v-.13h.67v.13h-.21l.45.7h.01l.47-.7h-.19v-.13h.55v.13h-.17l-.58.82.6.9h.17v.13h-.68v-.13h.21l-.46-.71h-.01l-.48.71h.19v.13h-.56v-.13ZM48.71 63.63h.17l.6-.83-.58-.89h-.17v-.13h.67v.13h-.21l.45.7h.01l.47-.7h-.19v-.13h.55v.13h-.17l-.58.82.6.9h.17v.13h-.68v-.13h.21l-.46-.71h-.01l-.48.71h.19v.13h-.56v-.13ZM50.6 63.63h.17l.6-.83-.58-.89h-.17v-.13h.67v.13h-.21l.45.7h.01l.47-.7h-.19v-.13h.55v.13h-.17l-.58.82.6.9h.17v.13h-.68v-.13h.21l-.46-.71h-.01l-.48.71h.19v.13h-.56v-.13ZM52.5 63.63h.17l.6-.83-.58-.89h-.17v-.13h.67v.13h-.21l.45.7h.01l.47-.7h-.19v-.13h.55v.13h-.17l-.58.82.6.9h.17v.13h-.68v-.13h.21l-.46-.71h-.01l-.48.71h.19v.13h-.56v-.13ZM54.4 63.63h.17l.6-.83-.58-.89h-.17v-.13h.67v.13h-.21l.45.7h.01l.47-.7h-.19v-.13h.55v.13H56l-.58.82.6.9h.17v.13h-.68v-.13h.21l-.46-.71h-.01l-.48.71h.19v.13h-.56v-.13ZM56.3 63.63h.17l.6-.83-.58-.89h-.17v-.13h.67v.13h-.21l.45.7h.01l.47-.7h-.19v-.13h.55v.13h-.17l-.58.82.6.9h.17v.13h-.68v-.13h.21l-.46-.71h-.01l-.48.71h.19v.13h-.56v-.13ZM58.2 63.63h.17l.6-.83-.58-.89h-.17v-.13h.67v.13h-.21l.45.7h.01l.47-.7h-.19v-.13h.55v.13h-.17l-.58.82.6.9h.17v.13h-.68v-.13h.21l-.46-.71h-.01l-.48.71h.19v.13h-.56v-.13ZM60.09 63.63h.17l.6-.83-.58-.89h-.17v-.13h.67v.13h-.21l.45.7h.01l.47-.7h-.19v-.13h.55v.13h-.17l-.58.82.6.9h.17v.13h-.68v-.13h.21l-.46-.71h-.01l-.48.71h.19v.13h-.56v-.13ZM61.99 63.63h.17l.6-.83-.58-.89h-.17v-.13h.67v.13h-.21l.45.7h.01l.47-.7h-.19v-.13h.55v.13h-.17l-.58.82.6.9h.17v.13h-.68v-.13h.21l-.46-.71h-.01l-.48.71h.19v.13h-.56v-.13ZM63.89 63.63h.17l.6-.83-.58-.89h-.17v-.13h.67v.13h-.21l.45.7h.01l.47-.7h-.19v-.13h.55v.13h-.17l-.58.82.6.9h.17v.13H65v-.13h.21l-.46-.71h-.01l-.48.71h.19v.13h-.56v-.13ZM65.79 63.63h.17l.6-.83-.58-.89h-.17v-.13h.67v.13h-.21l.45.7h.01l.47-.7h-.19v-.13h.55v.13h-.17l-.58.82.6.9h.17v.13h-.68v-.13h.21l-.46-.71h-.01l-.48.71h.19v.13h-.56v-.13ZM83.46 59.38h.17l.6-.83-.58-.89h-.17v-.13h.67v.13h-.21l.45.7h.01l.47-.7h-.19v-.13h.55v.13h-.17l-.58.82.6.9h.17v.13h-.68v-.13h.21l-.46-.71h-.01l-.48.71h.19v.13h-.56v-.13ZM85.36 59.38h.17l.6-.83-.58-.89h-.17v-.13h.67v.13h-.21l.45.7h.01l.47-.7h-.19v-.13h.55v.13h-.17l-.58.82.6.9h.17v.13h-.68v-.13h.21l-.46-.71h-.01l-.48.71h.19v.13h-.56v-.13ZM87.25 59.38h.17l.6-.83-.58-.89h-.17v-.13h.67v.13h-.21l.45.7h.01l.47-.7h-.19v-.13h.55v.13h-.17l-.58.82.6.9h.17v.13h-.68v-.13h.21l-.46-.71h-.01l-.48.71h.19v.13h-.56v-.13ZM89.15 59.38h.17l.6-.83-.58-.89h-.17v-.13h.67v.13h-.21l.45.7h.01l.47-.7h-.19v-.13h.55v.13h-.17l-.58.82.6.9h.17v.13h-.68v-.13h.21l-.46-.71H90l-.48.71h.19v.13h-.56v-.13ZM91.05 59.38h.17l.6-.83-.58-.89h-.17v-.13h.67v.13h-.21l.45.7h.01l.47-.7h-.19v-.13h.55v.13h-.17l-.58.82.6.9h.17v.13h-.68v-.13h.21l-.46-.71h-.01l-.48.71h.19v.13h-.56v-.13ZM92.95 59.38h.17l.6-.83-.58-.89h-.17v-.13h.67v.13h-.21l.45.7h.01l.47-.7h-.19v-.13h.55v.13h-.17l-.58.82.6.9h.17v.13h-.68v-.13h.21l-.46-.71h-.01l-.48.71h.19v.13h-.56v-.13ZM94.85 59.38h.17l.6-.83-.58-.89h-.17v-.13h.67v.13h-.21l.45.7h.01l.47-.7h-.19v-.13h.55v.13h-.17l-.58.82.6.9h.17v.13h-.68v-.13h.21l-.46-.71h-.01l-.48.71h.19v.13h-.56v-.13ZM96.74 59.38h.17l.6-.83-.58-.89h-.17v-.13h.67v.13h-.21l.45.7h.01l.47-.7h-.19v-.13h.55v.13h-.17l-.58.82.6.9h.17v.13h-.68v-.13h.21l-.46-.71h-.01l-.48.71h.19v.13h-.56v-.13ZM98.64 59.38h.17l.6-.83-.58-.89h-.17v-.13h.67v.13h-.21l.45.7h.01l.47-.7h-.19v-.13h.55v.13h-.17l-.58.82.6.9h.17v.13h-.68v-.13h.21l-.46-.71h-.01l-.48.71h.19v.13h-.56v-.13ZM100.54 59.38h.17l.6-.83-.58-.89h-.17v-.13h.67v.13h-.21l.45.7h.01l.47-.7h-.19v-.13h.55v.13h-.17l-.58.82.6.9h.17v.13h-.68v-.13h.21l-.46-.71h-.01l-.48.71h.19v.13h-.56v-.13ZM53.85 67.36h.17l.6-.83-.58-.89h-.17v-.13h.67v.13h-.21l.45.7h.01l.47-.7h-.19v-.13h.55v.13h-.17l-.58.82.6.9h.17v.13h-.68v-.13h.21l-.46-.71h-.01l-.48.71h.19v.13h-.56v-.13ZM55.74 67.36h.17l.6-.83-.58-.89h-.17v-.13h.67v.13h-.21l.45.7h.01l.47-.7h-.19v-.13h.55v.13h-.17l-.58.82.6.9h.17v.13h-.68v-.13h.21l-.46-.71h-.01l-.48.71h.19v.13h-.56v-.13ZM57.64 67.36h.17l.6-.83-.58-.89h-.17v-.13h.67v.13h-.21l.45.7h.01l.47-.7h-.19v-.13h.55v.13h-.17l-.58.82.6.9h.17v.13h-.68v-.13h.21l-.46-.71h-.01l-.48.71h.19v.13h-.56v-.13ZM59.54 67.36h.17l.6-.83-.58-.89h-.17v-.13h.67v.13h-.21l.45.7h.01l.47-.7h-.19v-.13h.55v.13h-.17l-.58.82.6.9h.17v.13h-.68v-.13h.21l-.46-.71h-.01l-.48.71h.19v.13h-.56v-.13ZM61.44 67.36h.17l.6-.83-.58-.89h-.17v-.13h.67v.13h-.21l.45.7h.01l.47-.7h-.19v-.13h.55v.13h-.17l-.58.82.6.9h.17v.13h-.68v-.13h.21l-.46-.71h-.01l-.48.71H62v.13h-.56v-.13ZM63.34 67.36h.17l.6-.83-.58-.89h-.17v-.13h.67v.13h-.21l.45.7h.01l.47-.7h-.19v-.13h.55v.13h-.17l-.58.82.6.9h.17v.13h-.68v-.13h.21l-.46-.71h-.01l-.48.71h.19v.13h-.56v-.13ZM65.23 67.36h.17l.6-.83-.58-.89h-.17v-.13h.67v.13h-.21l.45.7h.01l.47-.7h-.19v-.13H67v.13h-.17l-.58.82.6.9h.17v.13h-.68v-.13h.21l-.46-.71h-.01l-.48.71h.19v.13h-.56v-.13ZM67.13 67.36h.17l.6-.83-.58-.89h-.17v-.13h.67v.13h-.21l.45.7h.01l.47-.7h-.19v-.13h.55v.13h-.17l-.58.82.6.9h.17v.13h-.68v-.13h.21l-.46-.71h-.01l-.48.71h.19v.13h-.56v-.13ZM69.03 67.36h.17l.6-.83-.58-.89h-.17v-.13h.67v.13h-.21l.45.7h.01l.47-.7h-.19v-.13h.55v.13h-.17l-.58.82.6.9h.17v.13h-.68v-.13h.21l-.46-.71h-.01l-.48.71h.19v.13h-.56v-.13ZM70.93 67.36h.17l.6-.83-.58-.89h-.17v-.13h.67v.13h-.21l.45.7h.01l.47-.7h-.19v-.13h.55v.13h-.17l-.58.82.6.9h.17v.13h-.68v-.13h.21l-.46-.71h-.01l-.48.71h.19v.13h-.56v-.13Z"/><path d="M14.57 37.72c0-.58.28-.9.73-.9.3 0 .5.13.62.39l-.24.13c-.06-.16-.18-.27-.38-.27-.27 0-.43.19-.43.51v.26c0 .32.16.52.43.52.21 0 .34-.12.4-.29l.23.14c-.12.25-.33.4-.63.4-.45 0-.73-.32-.73-.9ZM17.3 38.59l-.16-.47h-.65l-.15.47h-.29l.59-1.74h.35l.59 1.74h-.29Zm-.48-1.48h-.01l-.25.77h.51l-.25-.77ZM18.14 38.59h-.28v-1.74h.75c.31 0 .5.2.5.52 0 .25-.12.42-.34.48l.38.73h-.31l-.35-.7h-.35v.7Zm.45-.94c.14 0 .23-.08.23-.22v-.12c0-.14-.08-.22-.23-.22h-.45v.55h.45ZM19.79 37.1h-.52v-.25h1.32v.25h-.52v1.49h-.28V37.1ZM20.85 38.59v-1.74h1.11v.25h-.83v.48h.75v.25h-.75v.51h.83v.25h-1.11ZM23.38 37.63l-.19-.37v1.33h-.27v-1.74h.31l.57.96.19.37v-1.33h.27v1.74h-.31l-.57-.96ZM25.77 38.59l-.16-.47h-.65l-.15.47h-.29l.59-1.74h.35l.59 1.74h-.29Zm-.48-1.48h-.01l-.25.77h.51l-.25-.77ZM26.53 37.1h-.52v-.25h1.32v.25h-.52v1.49h-.28V37.1ZM27.51 38.59v-.23h.24v-1.28h-.24v-.23h.76v.23h-.24v1.28h.24v.23h-.76ZM28.54 37.72c0-.58.3-.9.75-.9s.75.31.75.9-.3.9-.75.9-.75-.31-.75-.9Zm1.2.14v-.27c0-.32-.18-.51-.45-.51s-.45.19-.45.51v.27c0 .32.18.51.45.51s.45-.19.45-.51ZM30.85 37.63l-.19-.37v1.33h-.27v-1.74h.31l.57.96.19.37v-1.33h.27v1.74h-.31l-.57-.96ZM33.24 38.59l-.16-.47h-.65l-.15.47h-.29l.59-1.74h.35l.59 1.74h-.29Zm-.48-1.48h-.01l-.25.77h.51l-.25-.77ZM33.8 38.59v-1.74h.28v1.49h.71v.25h-.99ZM35.07 38.59v-1.74h1.11v.25h-.83v.48h.75v.25h-.75v.51h.83v.25h-1.11ZM37.13 36.85h.61c.44 0 .73.29.73.87s-.29.87-.73.87h-.61v-1.74Zm.61 1.49c.26 0 .43-.17.43-.48v-.28c0-.31-.17-.48-.43-.48h-.33v1.24h.33ZM39.11 36.88v.04c0 .16-.1.35-.24.47h-.19c.1-.1.17-.2.21-.31-.08-.02-.13-.08-.13-.15v-.04c0-.09.05-.16.18-.16s.18.07.18.16ZM39.41 38.59v-.23h.24v-1.28h-.24v-.23h.76v.23h-.24v1.28h.24v.23h-.76ZM40.52 36.85h.61c.44 0 .73.29.73.87s-.29.87-.73.87h-.61v-1.74Zm.61 1.49c.26 0 .43-.17.43-.48v-.28c0-.31-.17-.48-.43-.48h-.33v1.24h.33ZM42.21 38.59v-1.74h1.11v.25h-.83v.48h.75v.25h-.75v.51h.83v.25h-1.11ZM44.15 37.63l-.19-.37v1.33h-.27v-1.74H44l.57.96.19.37v-1.33h.27v1.74h-.31l-.57-.96ZM45.82 37.1h-.52v-.25h1.32v.25h-.52v1.49h-.28V37.1ZM46.8 38.59v-.23h.24v-1.28h-.24v-.23h.76v.23h-.24v1.28h.24v.23h-.76ZM48.26 37.1h-.52v-.25h1.32v.25h-.52v1.49h-.28V37.1ZM49.32 38.59v-1.74h1.11v.25h-.83v.48h.75v.25h-.75v.51h.83v.25h-1.11Zm.58-1.86-.17-.08.23-.45.24.11-.29.41ZM51.85 37.63l-.19-.37v1.33h-.27v-1.74h.31l.57.96.19.37v-1.33h.27v1.74h-.31l-.57-.96ZM53.09 37.26c0-.25.19-.45.44-.45s.44.19.44.45-.19.45-.44.45-.44-.19-.44-.45Zm.67 0c0-.14-.09-.25-.23-.25s-.23.11-.23.25.09.25.23.25.23-.11.23-.25ZM54.9 37.47v-.04c0-.1.06-.17.18-.17s.18.07.18.17v.04c0 .1-.06.17-.18.17s-.18-.07-.18-.17Zm0 .98v-.04c0-.1.06-.17.18-.17s.18.07.18.17v.04c0 .1-.06.17-.18.17s-.18-.07-.18-.17Z" class="cls-10"/><path d="M16.23 87.52v-.33h.34v-1.82h-.34v-.33h1.08v.33h-.34v1.82h.34v.33h-1.08ZM17.81 85.05h.87c.63 0 1.04.41 1.04 1.24s-.41 1.24-1.04 1.24h-.87v-2.47Zm.87 2.12c.37 0 .62-.24.62-.68v-.4c0-.45-.25-.68-.62-.68h-.47v1.76h.47ZM20.23 87.52v-2.47h1.54v.35h-1.14v.69h1.02v.35h-1.02v1.08h-.4ZM22.65 87.52h-.4v-2.47h1.07c.44 0 .71.29.71.74 0 .35-.17.59-.48.69l.53 1.04h-.45l-.5-1h-.49v1Zm.64-1.33c.2 0 .32-.11.32-.31v-.17c0-.2-.12-.31-.32-.31h-.64v.79h.64ZM26.12 87.52l-.22-.67h-.92l-.22.67h-.41l.84-2.47h.5l.84 2.47h-.42Zm-.68-2.1h-.02l-.36 1.09h.73l-.35-1.09ZM27.51 86.26l-.77-1.21h.47l.56.92.57-.92h.44l-.78 1.2.81 1.27h-.47l-.6-.98h-.01l-.59.98h-.44l.8-1.26ZM29.78 86.26l-.77-1.21h.47l.56.92.57-.92h.44l-.78 1.2.81 1.27h-.47l-.6-.98H30l-.59.98h-.44l.8-1.26ZM32.04 86.26l-.77-1.21h.47l.56.92.57-.92h.44l-.78 1.2.81 1.27h-.47l-.6-.98h-.01l-.59.98h-.44l.8-1.26ZM34.31 86.26l-.77-1.21h.47l.56.92.57-.92h.44l-.78 1.2.81 1.27h-.47l-.6-.98h-.01l-.59.98h-.44l.8-1.26ZM36.57 86.26l-.77-1.21h.47l.56.92.57-.92h.44l-.78 1.2.81 1.27h-.47l-.6-.98h-.01l-.59.98h-.44l.8-1.26ZM38.84 86.26l-.77-1.21h.47l.56.92.57-.92h.44l-.78 1.2.81 1.27h-.47l-.6-.98h-.01l-.59.98h-.44l.8-1.26ZM41.11 86.26l-.77-1.21h.47l.56.92.57-.92h.44l-.78 1.2.81 1.27h-.47l-.6-.98h-.01l-.59.98h-.44l.8-1.26ZM43.67 86.65v-.29l1.44-.9v.4l-1.06.63v.02l1.06.64v.4l-1.44-.9ZM45.8 86.65v-.29l1.44-.9v.4l-1.06.63v.02l1.06.64v.4l-1.44-.9ZM47.93 86.65v-.29l1.44-.9v.4l-1.06.63v.02l1.06.64v.4l-1.44-.9ZM50.06 86.65v-.29l1.44-.9v.4l-1.06.63v.02l1.06.64v.4l-1.44-.9ZM52.19 86.65v-.29l1.44-.9v.4l-1.06.63v.02l1.06.64v.4l-1.44-.9ZM54.31 86.65v-.29l1.44-.9v.4l-1.06.63v.02l1.06.64v.4l-1.44-.9ZM56.44 86.65v-.29l1.44-.9v.4l-1.06.63v.02l1.06.64v.4l-1.44-.9ZM58.57 86.65v-.29l1.44-.9v.4l-1.06.63v.02l1.06.64v.4l-1.44-.9ZM60.7 86.65v-.29l1.44-.9v.4l-1.06.63v.02l1.06.64v.4l-1.44-.9ZM62.83 86.65v-.29l1.44-.9v.4l-1.06.63v.02l1.06.64v.4l-1.44-.9ZM64.95 86.65v-.29l1.44-.9v.4l-1.06.63v.02l1.06.64v.4l-1.44-.9ZM67.08 86.65v-.29l1.44-.9v.4l-1.06.63v.02l1.06.64v.4l-1.44-.9ZM69.21 86.65v-.29l1.44-.9v.4l-1.06.63v.02l1.06.64v.4l-1.44-.9ZM71.34 86.65v-.29l1.44-.9v.4l-1.06.63v.02l1.06.64v.4l-1.44-.9ZM73.47 86.65v-.29l1.44-.9v.4l-1.06.63v.02l1.06.64v.4l-1.44-.9ZM75.59 86.65v-.29l1.44-.9v.4l-1.06.63v.02l1.06.64v.4l-1.44-.9ZM77.72 86.65v-.29l1.44-.9v.4l-1.06.63v.02l1.06.64v.4l-1.44-.9ZM79.85 86.65v-.29l1.44-.9v.4l-1.06.63v.02l1.06.64v.4l-1.44-.9ZM81.98 86.65v-.29l1.44-.9v.4l-1.06.63v.02l1.06.64v.4l-1.44-.9ZM84.11 86.65v-.29l1.44-.9v.4l-1.06.63v.02l1.06.64v.4l-1.44-.9ZM86.23 86.65v-.29l1.44-.9v.4l-1.06.63v.02l1.06.64v.4l-1.44-.9ZM88.36 86.65v-.29l1.44-.9v.4l-1.06.63v.02l1.06.64v.4l-1.44-.9ZM90.49 86.65v-.29l1.44-.9v.4l-1.06.63v.02l1.06.64v.4l-1.44-.9ZM92.62 86.65v-.29l1.44-.9v.4l-1.06.63v.02l1.06.64v.4l-1.44-.9ZM94.75 86.65v-.29l1.44-.9v.4l-1.06.63v.02l1.06.64v.4l-1.44-.9ZM96.87 86.65v-.29l1.44-.9v.4l-1.06.63v.02l1.06.64v.4l-1.44-.9ZM99 86.65v-.29l1.44-.9v.4l-1.06.63v.02l1.06.64v.4l-1.44-.9ZM101.13 86.65v-.29l1.44-.9v.4l-1.06.63v.02l1.06.64v.4l-1.44-.9ZM103.26 86.65v-.29l1.44-.9v.4l-1.06.63v.02l1.06.64v.4l-1.44-.9ZM105.38 86.65v-.29l1.44-.9v.4l-1.06.63v.02l1.06.64v.4l-1.44-.9ZM107.51 86.65v-.29l1.44-.9v.4l-1.06.63v.02l1.06.64v.4l-1.44-.9ZM16.9 93.17l-.77-1.21h.47l.56.92.57-.92h.44l-.78 1.2.81 1.27h-.47l-.6-.98h-.01l-.59.98h-.44l.8-1.26ZM19.17 93.17l-.77-1.21h.47l.56.92.57-.92h.44l-.78 1.2.81 1.27H20l-.6-.98h-.01l-.59.98h-.44l.8-1.26ZM21.44 93.17l-.77-1.21h.47l.56.92.57-.92h.44l-.78 1.2.81 1.27h-.47l-.6-.98h-.01l-.59.98h-.44l.8-1.26ZM23.7 93.17l-.77-1.21h.47l.56.92.57-.92h.44l-.78 1.2.81 1.27h-.47l-.6-.98h-.01l-.59.98h-.44l.8-1.26ZM25.97 93.17l-.77-1.21h.47l.56.92.57-.92h.44l-.78 1.2.81 1.27h-.47l-.6-.98h-.01l-.59.98h-.44l.8-1.26ZM28.23 93.17l-.77-1.21h.47l.56.92.57-.92h.44l-.78 1.2.81 1.27h-.47l-.6-.98h-.01l-.59.98h-.44l.8-1.26ZM30.5 93.17l-.77-1.21h.47l.56.92.57-.92h.44l-.78 1.2.81 1.27h-.47l-.6-.98h-.01l-.59.98h-.44l.8-1.26ZM32.77 93.17 32 91.96h.47l.56.92.57-.92h.44l-.78 1.2.81 1.27h-.47l-.6-.98h-.01l-.59.98h-.44l.8-1.26ZM35.03 93.17l-.77-1.21h.47l.56.92.57-.92h.44l-.78 1.2.81 1.27h-.47l-.6-.98h-.01l-.59.98h-.44l.8-1.26ZM37.3 93.17l-.77-1.21H37l.56.92.57-.92h.44l-.78 1.2.81 1.27h-.47l-.6-.98h-.01l-.59.98h-.44l.8-1.26ZM39.56 93.17l-.77-1.21h.47l.56.92.57-.92h.44l-.78 1.2.81 1.27h-.47l-.6-.98h-.01l-.59.98h-.44l.8-1.26ZM41.83 93.17l-.77-1.21h.47l.56.92.57-.92h.44l-.78 1.2.81 1.27h-.47l-.6-.98h-.01l-.59.98h-.44l.8-1.26ZM44.1 93.17l-.77-1.21h.47l.56.92.57-.92h.44l-.78 1.2.81 1.27h-.47l-.6-.98h-.01l-.59.98h-.44l.8-1.26ZM45.83 93.57v-.29l1.44-.9v.4l-1.06.63v.02l1.06.64v.4l-1.44-.9ZM47.96 93.57v-.29l1.44-.9v.4l-1.06.63v.02l1.06.64v.4l-1.44-.9ZM50.08 93.57v-.29l1.44-.9v.4l-1.06.63v.02l1.06.64v.4l-1.44-.9ZM52.21 93.57v-.29l1.44-.9v.4l-1.06.63v.02l1.06.64v.4l-1.44-.9ZM54.34 93.57v-.29l1.44-.9v.4l-1.06.63v.02l1.06.64v.4l-1.44-.9ZM56.47 93.57v-.29l1.44-.9v.4l-1.06.63v.02l1.06.64v.4l-1.44-.9ZM58.6 93.57v-.29l1.44-.9v.4l-1.06.63v.02l1.06.64v.4l-1.44-.9ZM60.72 93.57v-.29l1.44-.9v.4l-1.06.63v.02l1.06.64v.4l-1.44-.9ZM62.85 93.57v-.29l1.44-.9v.4l-1.06.63v.02l1.06.64v.4l-1.44-.9ZM64.98 93.57v-.29l1.44-.9v.4l-1.06.63v.02l1.06.64v.4l-1.44-.9ZM67.11 93.57v-.29l1.44-.9v.4l-1.06.63v.02l1.06.64v.4l-1.44-.9ZM69.24 93.57v-.29l1.44-.9v.4l-1.06.63v.02l1.06.64v.4l-1.44-.9ZM71.36 93.57v-.29l1.44-.9v.4l-1.06.63v.02l1.06.64v.4l-1.44-.9ZM73.49 93.57v-.29l1.44-.9v.4l-1.06.63v.02l1.06.64v.4l-1.44-.9ZM75.62 93.57v-.29l1.44-.9v.4l-1.06.63v.02l1.06.64v.4l-1.44-.9ZM77.75 93.57v-.29l1.44-.9v.4l-1.06.63v.02l1.06.64v.4l-1.44-.9ZM79.88 93.57v-.29l1.44-.9v.4l-1.06.63v.02l1.06.64v.4l-1.44-.9ZM82 93.57v-.29l1.44-.9v.4l-1.06.63v.02l1.06.64v.4l-1.44-.9ZM84.13 93.57v-.29l1.44-.9v.4l-1.06.63v.02l1.06.64v.4l-1.44-.9ZM86.26 93.57v-.29l1.44-.9v.4l-1.06.63v.02l1.06.64v.4l-1.44-.9ZM88.92 93.17l-.77-1.21h.47l.56.92.57-.92h.44l-.78 1.2.81 1.27h-.47l-.6-.98h-.01l-.59.98h-.44l.8-1.26ZM91.19 93.17l-.77-1.21h.47l.56.92.57-.92h.44l-.78 1.2.81 1.27h-.47l-.6-.98h-.01l-.59.98h-.44l.8-1.26ZM93.45 93.17l-.77-1.21h.47l.56.92.57-.92h.44l-.78 1.2.81 1.27h-.47l-.6-.98h-.01l-.59.98h-.44l.8-1.26ZM95.72 93.17l-.77-1.21h.47l.56.92.57-.92h.44l-.78 1.2.81 1.27h-.47l-.6-.98h-.01l-.59.98h-.44l.8-1.26ZM97.99 93.17l-.77-1.21h.47l.56.92.57-.92h.44l-.78 1.2.81 1.27h-.47l-.6-.98h-.01l-.59.98h-.44l.8-1.26ZM100.25 93.17l-.77-1.21h.47l.56.92.57-.92h.44l-.78 1.2.81 1.27h-.47l-.6-.98h-.01l-.59.98h-.44l.8-1.26ZM102.52 93.17l-.77-1.21h.47l.56.92.57-.92h.44l-.78 1.2.81 1.27h-.47l-.6-.98h-.01l-.59.98h-.44l.8-1.26ZM104.78 93.17l-.77-1.21h.47l.56.92.57-.92h.44l-.78 1.2.81 1.27h-.47l-.6-.98H105l-.59.98h-.44l.8-1.26ZM107.05 93.17l-.77-1.21h.47l.56.92.57-.92h.44l-.78 1.2.81 1.27h-.47l-.6-.98h-.01l-.59.98h-.44l.8-1.26ZM109.32 93.17l-.77-1.21h.47l.56.92.57-.92h.44l-.78 1.2.81 1.27h-.47l-.6-.98h-.01l-.59.98h-.44l.8-1.26Z"/><path d="m45.61 42.77-.19-.37v1.33h-.27v-1.74h.31l.57.96.19.37v-1.33h.27v1.74h-.31l-.57-.96ZM46.81 43.08c0-.41.23-.68.59-.68s.59.26.59.68-.23.68-.59.68-.59-.26-.59-.68Zm.9.11v-.22c0-.23-.12-.34-.31-.34s-.31.11-.31.34v.22c0 .23.12.34.31.34s.31-.11.31-.34ZM48.3 43.73v-1.29h.27v.21h.01c.05-.13.15-.24.35-.24.17 0 .32.08.38.26.05-.14.18-.26.39-.26.26 0 .41.18.41.5v.82h-.27v-.79c0-.2-.07-.3-.24-.3-.14 0-.26.07-.26.22v.87h-.27v-.79c0-.2-.08-.3-.24-.3-.13 0-.27.07-.27.22v.87h-.27ZM51.08 42.61v-.04c0-.1.06-.17.18-.17s.18.07.18.17v.04c0 .1-.06.17-.18.17s-.18-.07-.18-.17Zm0 .98v-.04c0-.1.06-.17.18-.17s.18.07.18.17v.04c0 .1-.06.17-.18.17s-.18-.07-.18-.17ZM90.47 37.45l-.19-.37v1.33h-.27v-1.74h.31l.57.96.19.37v-1.33h.27v1.74h-.31l-.57-.96ZM92.7 38.41c-.14 0-.22-.09-.23-.22h-.01c-.05.16-.19.25-.38.25-.27 0-.42-.15-.42-.39 0-.26.19-.39.55-.39h.23v-.11c0-.16-.08-.25-.27-.25-.15 0-.24.07-.31.18l-.16-.15c.08-.14.24-.25.49-.25.33 0 .52.16.52.45v.65h.14v.22h-.15Zm-.26-.38v-.19h-.23c-.19 0-.28.06-.28.17v.04c0 .11.08.17.22.17.17 0 .29-.08.29-.21ZM93.47 38.41c-.19 0-.29-.1-.29-.28v-.79h-.2v-.22h.11c.09 0 .12-.04.12-.13v-.23h.24v.35h.27v.22h-.27v.85h.25v.22h-.24ZM93.99 36.74v-.04c0-.08.05-.14.16-.14s.16.06.16.14v.04c0 .08-.05.14-.16.14s-.16-.06-.16-.14Zm.02.37h.27v1.29h-.27v-1.29ZM94.59 37.76c0-.41.23-.68.59-.68s.59.26.59.68-.23.68-.59.68-.59-.26-.59-.68Zm.9.11v-.22c0-.23-.12-.34-.31-.34s-.31.11-.31.34v.22c0 .23.12.34.31.34s.31-.11.31-.34ZM96.08 38.41v-1.29h.27v.21h.01c.05-.14.16-.24.36-.24.26 0 .42.18.42.5v.82h-.27v-.79c0-.2-.08-.3-.24-.3-.14 0-.28.07-.28.22v.87h-.27ZM98.46 38.41c-.14 0-.22-.09-.23-.22h-.01c-.05.16-.19.25-.38.25-.27 0-.42-.15-.42-.39 0-.26.19-.39.55-.39h.23v-.11c0-.16-.08-.25-.27-.25-.15 0-.24.07-.31.18l-.16-.15c.08-.14.24-.25.49-.25.33 0 .52.16.52.45v.65h.14v.22h-.15Zm-.26-.38v-.19h-.23c-.19 0-.28.06-.28.17v.04c0 .11.08.17.22.17.17 0 .29-.08.29-.21ZM99.15 38.41c-.18 0-.28-.1-.28-.27v-1.57h.27v1.62h.18v.22h-.17ZM99.56 36.74v-.04c0-.08.05-.14.16-.14s.16.06.16.14v.04c0 .08-.05.14-.16.14s-.16-.06-.16-.14Zm.02.37h.27v1.29h-.27v-1.29ZM100.6 38.41c-.19 0-.29-.1-.29-.28v-.79h-.2v-.22h.11c.09 0 .12-.04.12-.13v-.23h.24v.35h.27v.22h-.27v.85h.25v.22h-.24ZM101.05 37.76c0-.41.23-.68.59-.68s.57.29.57.64v.1h-.89v.04c0 .2.12.34.34.34.16 0 .27-.07.34-.19l.16.16c-.1.16-.29.26-.53.26-.37 0-.59-.26-.59-.68Zm.28-.13v.02h.6v-.02c0-.2-.11-.33-.29-.33s-.31.14-.31.34Zm.34-.67-.17-.08.23-.45.24.11-.29.42ZM103.13 38.41v-1.74h1.08v.25h-.8v.48h.71v.25h-.71v.76h-.28ZM104.46 38.41v-1.29h.27v.25h.01c.04-.13.15-.25.36-.25h.07v.26h-.11c-.21 0-.33.07-.33.21v.83h-.27ZM106.34 38.41c-.14 0-.22-.09-.23-.22h-.01c-.05.16-.19.25-.38.25-.27 0-.42-.15-.42-.39 0-.26.19-.39.55-.39h.23v-.11c0-.16-.08-.25-.27-.25-.15 0-.24.07-.31.18l-.16-.15c.08-.14.24-.25.49-.25.33 0 .52.16.52.45v.65h.14v.22h-.15Zm-.26-.38v-.19h-.23c-.19 0-.28.06-.28.17v.04c0 .11.08.17.22.17.17 0 .29-.08.29-.21ZM106.75 38.41v-1.29h.27v.21h.01c.05-.14.16-.24.36-.24.26 0 .42.18.42.5v.82h-.27v-.79c0-.2-.08-.3-.24-.3-.14 0-.28.07-.28.22v.87h-.27ZM109.19 37.4l-.22.1a.274.274 0 0 0-.28-.2c-.2 0-.3.14-.3.34v.23c0 .2.1.34.3.34.16 0 .25-.08.3-.21l.21.11c-.08.2-.24.31-.47.33l-.02.11h.11c.1 0 .17.05.17.17 0 .15-.14.21-.3.21s-.23-.06-.27-.1l.1-.12s.08.07.16.07c.06 0 .11-.02.11-.07 0-.04-.03-.08-.18-.1h-.06l.03-.17c-.31-.04-.49-.29-.49-.67 0-.41.21-.68.59-.68.26 0 .42.13.5.32ZM110.41 38.41c-.14 0-.22-.09-.23-.22h-.01c-.05.16-.19.25-.38.25-.27 0-.42-.15-.42-.39 0-.26.19-.39.55-.39h.23v-.11c0-.16-.08-.25-.27-.25-.15 0-.24.07-.31.18l-.16-.15c.08-.14.24-.25.49-.25.33 0 .52.16.52.45v.65h.14v.22h-.15Zm-.26-.38v-.19h-.23c-.19 0-.28.06-.28.17v.04c0 .11.08.17.22.17.17 0 .29-.08.29-.21ZM110.8 36.74v-.04c0-.08.05-.14.16-.14s.16.06.16.14v.04c0 .08-.05.14-.16.14s-.16-.06-.16-.14Zm.02.37h.27v1.29h-.27v-1.29ZM111.37 38.19l.17-.16c.09.11.21.18.37.18s.24-.06.24-.17c0-.08-.05-.14-.18-.16h-.12c-.26-.05-.43-.16-.43-.4 0-.25.2-.4.48-.4.23 0 .37.08.48.21l-.17.16a.425.425 0 0 0-.32-.15c-.15 0-.22.06-.22.16s.06.14.2.17h.12c.28.06.41.18.41.39 0 .25-.2.42-.51.42a.62.62 0 0 1-.52-.24ZM112.62 37.76c0-.41.23-.68.59-.68s.57.29.57.64v.1h-.89v.04c0 .2.12.34.34.34.16 0 .27-.07.34-.19l.16.16c-.1.16-.29.26-.53.26-.37 0-.59-.26-.59-.68Zm.28-.13v.02h.6v-.02c0-.2-.11-.33-.29-.33s-.31.14-.31.34ZM44.79 51.71v-1.74h.75c.32 0 .5.21.5.52s-.19.52-.5.52h-.46v.69h-.28Zm.28-.94h.45c.14 0 .23-.08.23-.22v-.12c0-.14-.08-.22-.23-.22h-.45v.55ZM46.3 51.71v-1.29h.27v.25h.01c.04-.13.15-.25.36-.25h.07v.26h-.11c-.21 0-.33.07-.33.21v.83h-.27ZM47.15 51.06c0-.41.23-.68.59-.68s.57.29.57.64v.1h-.89v.04c0 .2.12.34.34.34.16 0 .27-.07.34-.19l.16.16c-.1.16-.29.26-.53.26-.37 0-.59-.26-.59-.68Zm.28-.13v.02h.6v-.02c0-.2-.11-.33-.29-.33s-.31.14-.31.34Zm.34-.67-.17-.08.23-.45.24.11-.29.42ZM48.62 51.71v-1.29h.27v.21h.01c.05-.14.16-.24.36-.24.26 0 .42.18.42.5v.82h-.27v-.79c0-.2-.08-.3-.24-.3-.14 0-.28.07-.28.22v.87h-.27ZM49.97 51.06c0-.41.23-.68.59-.68s.59.26.59.68-.23.68-.59.68-.59-.26-.59-.68Zm.9.11v-.22c0-.23-.12-.34-.31-.34s-.31.11-.31.34v.22c0 .23.12.34.31.34s.31-.11.31-.34ZM51.46 51.71v-1.29h.27v.21h.01c.05-.13.15-.24.35-.24.17 0 .32.08.38.26.05-.14.18-.26.39-.26.26 0 .41.18.41.5v.82H53v-.79c0-.2-.07-.3-.24-.3-.14 0-.26.07-.26.22v.87h-.27v-.79c0-.2-.08-.3-.24-.3-.13 0-.27.07-.27.22v.87h-.27ZM54.05 49.82h.26c-.27.25-.44.64-.44 1.02v.2c0 .38.17.77.44 1.02h-.26c-.25-.21-.44-.63-.44-1.12s.19-.9.44-1.12ZM54.37 51.49l.17-.16c.09.11.21.18.37.18s.24-.06.24-.17c0-.08-.05-.14-.18-.16h-.12c-.26-.05-.43-.16-.43-.4 0-.25.2-.4.48-.4.23 0 .37.08.48.21l-.17.16a.425.425 0 0 0-.32-.15c-.15 0-.22.06-.22.16s.06.14.2.17h.12c.28.06.41.18.41.39 0 .25-.2.42-.51.42a.62.62 0 0 1-.52-.24ZM55.75 52.05h-.26c.27-.25.44-.64.44-1.02v-.2c0-.38-.17-.77-.44-1.02h.26c.25.21.44.63.44 1.12s-.19.9-.44 1.12ZM57.14 50.59v-.04c0-.1.06-.17.18-.17s.18.07.18.17v.04c0 .1-.06.17-.18.17s-.18-.07-.18-.17Zm0 .98v-.04c0-.1.06-.17.18-.17s.18.07.18.17v.04c0 .1-.06.17-.18.17s-.18-.07-.18-.17ZM44.67 59.42l.19-.18c.12.15.27.23.46.23.22 0 .34-.11.34-.28 0-.13-.07-.21-.27-.25l-.15-.03c-.34-.06-.51-.22-.51-.5 0-.31.24-.5.61-.5.26 0 .45.09.59.27l-.2.17c-.09-.12-.21-.19-.41-.19s-.31.08-.31.23c0 .14.09.21.28.24l.15.03c.35.07.5.22.5.5 0 .32-.23.54-.63.54-.29 0-.49-.11-.63-.29ZM46.17 59.04c0-.41.23-.68.59-.68s.57.29.57.64v.1h-.89v.04c0 .2.12.34.34.34.16 0 .27-.07.34-.19l.16.16c-.1.16-.29.26-.53.26-.37 0-.59-.26-.59-.68Zm.28-.13v.02h.6v-.02c0-.2-.11-.33-.29-.33s-.31.14-.31.34ZM47.91 59.03l-.44-.64h.31l.29.45.3-.45h.29l-.44.64.45.66h-.31l-.3-.47-.31.47h-.29l.46-.65ZM48.79 59.04c0-.41.23-.68.59-.68s.57.29.57.64v.1h-.89v.04c0 .2.12.34.34.34.16 0 .27-.07.34-.19l.16.16c-.1.16-.29.26-.53.26-.37 0-.59-.26-.59-.68Zm.28-.13v.02h.6v-.02c0-.2-.11-.33-.29-.33s-.31.14-.31.34ZM50.86 58.57v-.04c0-.1.06-.17.18-.17s.18.07.18.17v.04c0 .1-.06.17-.18.17s-.18-.07-.18-.17Zm0 .98v-.04c0-.1.06-.17.18-.17s.18.07.18.17v.04c0 .1-.06.17-.18.17s-.18-.07-.18-.17ZM45.15 66h-.52v-.25h1.32V66h-.52v1.49h-.28V66ZM46.98 67.49c-.14 0-.22-.09-.23-.22h-.01c-.05.16-.19.25-.38.25-.27 0-.42-.15-.42-.39 0-.26.19-.39.55-.39h.23v-.11c0-.16-.08-.25-.27-.25-.15 0-.24.07-.31.18l-.16-.15c.08-.14.24-.25.49-.25.33 0 .52.16.52.45v.65h.14v.22h-.15Zm-.26-.38v-.19h-.23c-.19 0-.28.06-.28.17v.04c0 .11.08.17.22.17.17 0 .29-.08.29-.21ZM47.37 65.82v-.04c0-.08.05-.14.16-.14s.16.06.16.14v.04c0 .08-.05.14-.16.14s-.16-.06-.16-.14Zm.02.37h.27v1.29h-.27v-1.29ZM48.32 67.49c-.18 0-.28-.1-.28-.27v-1.57h.27v1.62h.18v.22h-.17ZM49.02 67.49c-.18 0-.28-.1-.28-.27v-1.57h.27v1.62h.18v.22h-.17ZM49.36 66.84c0-.41.23-.68.59-.68s.57.29.57.64v.1h-.89v.04c0 .2.12.34.34.34.16 0 .27-.07.34-.19l.16.16c-.1.16-.29.26-.53.26-.37 0-.59-.26-.59-.68Zm.28-.13v.02h.6v-.02c0-.2-.11-.33-.29-.33s-.31.14-.31.34ZM44.67 71.12l.19-.18c.12.15.27.23.46.23.22 0 .34-.11.34-.28 0-.13-.07-.21-.27-.25l-.15-.03c-.34-.06-.51-.22-.51-.5 0-.31.24-.5.61-.5.26 0 .45.09.59.27l-.2.17c-.09-.12-.21-.19-.41-.19s-.31.08-.31.23c0 .14.09.21.28.24l.15.03c.35.07.5.22.5.5 0 .32-.23.54-.63.54-.29 0-.49-.11-.63-.29ZM46.23 69.72v-.04c0-.08.05-.14.16-.14s.16.06.16.14v.04c0 .08-.05.14-.16.14s-.16-.06-.16-.14Zm.02.37h.27v1.29h-.27v-1.29ZM47.39 71.91c-.42 0-.59-.11-.59-.31 0-.14.08-.22.22-.25v-.03c-.09-.03-.15-.1-.15-.2 0-.13.1-.2.23-.23a.432.432 0 0 1-.24-.39c0-.26.19-.44.51-.44.09 0 .17.01.23.04v-.04c0-.11.05-.18.17-.18h.2v.22h-.26v.05c.12.08.18.2.18.35 0 .26-.19.44-.52.44-.06 0-.12 0-.17-.02-.06.02-.12.06-.12.13s.07.1.18.1h.32c.32 0 .45.13.45.36 0 .27-.19.41-.66.41Zm.17-.52h-.44c-.06.03-.09.09-.09.15 0 .1.08.18.28.18h.17c.21 0 .32-.06.32-.18 0-.09-.06-.15-.24-.15Zm.08-.86v-.05c0-.15-.09-.22-.25-.22s-.25.07-.25.22v.05c0 .15.09.22.25.22s.25-.07.25-.22ZM48.24 71.39V70.1h.27v.21h.01c.05-.14.16-.24.36-.24.26 0 .42.18.42.5v.82h-.27v-.79c0-.2-.08-.3-.24-.3-.14 0-.28.07-.28.22v.87h-.27ZM50.63 71.39c-.14 0-.22-.09-.23-.22h-.01c-.05.16-.19.25-.38.25-.27 0-.42-.15-.42-.39 0-.26.19-.39.55-.39h.23v-.11c0-.16-.08-.25-.27-.25-.15 0-.24.07-.31.18l-.16-.15c.08-.14.24-.25.49-.25.33 0 .52.16.52.45v.65h.14v.22h-.15Zm-.26-.38v-.19h-.23c-.19 0-.28.06-.28.17v.04c0 .11.08.17.22.17.17 0 .29-.08.29-.21ZM51.4 71.39c-.19 0-.29-.1-.29-.28v-.79h-.2v-.22h.11c.09 0 .12-.04.12-.13v-.23h.24v.35h.27v.22h-.27v.85h.25v.22h-.24ZM52.73 71.17h-.01c-.05.13-.15.24-.36.24-.27 0-.42-.18-.42-.5v-.82h.27v.79c0 .2.08.3.25.3.14 0 .28-.07.28-.22v-.87h.27v1.29h-.27v-.21ZM53.39 71.39V70.1h.27v.25h.01c.04-.13.15-.25.36-.25h.07v.26h-.11c-.21 0-.33.07-.33.21v.83h-.27ZM54.24 70.74c0-.41.23-.68.59-.68s.57.29.57.64v.1h-.89v.04c0 .2.12.34.34.34.16 0 .27-.07.34-.19l.16.16c-.1.16-.29.26-.53.26-.37 0-.59-.26-.59-.68Zm.28-.13v.02h.6v-.02c0-.2-.11-.33-.29-.33s-.31.14-.31.34ZM45.58 74.15h-.01a.37.37 0 0 1-.36.24c-.33 0-.52-.25-.52-.68s.19-.68.52-.68c.17 0 .31.09.36.24h.01v-.76h.27v1.84h-.27v-.21Zm0-.21v-.44c0-.13-.13-.22-.29-.22-.19 0-.31.13-.31.33v.22c0 .2.12.33.31.33.16 0 .29-.09.29-.22ZM47.02 74.15h-.01c-.05.13-.15.24-.36.24-.27 0-.42-.18-.42-.5v-.82h.27v.79c0 .2.08.3.25.3.14 0 .28-.07.28-.22v-.87h.27v1.29h-.27v-.21ZM48.62 74.37c-.19 0-.29-.1-.29-.28v-.79h-.2v-.22h.11c.09 0 .12-.04.12-.13v-.23h.24v.35h.27v.22h-.27v.85h.25v.22h-.24ZM49.15 72.7v-.04c0-.08.05-.14.16-.14s.16.06.16.14v.04c0 .08-.05.14-.16.14s-.16-.06-.16-.14Zm.02.37h.27v1.29h-.27v-1.29ZM50.19 74.37c-.19 0-.29-.1-.29-.28v-.79h-.2v-.22h.11c.09 0 .12-.04.12-.13v-.23h.24v.35h.27v.22h-.27v.85h.25v.22h-.24ZM51.52 74.15h-.01c-.05.13-.15.24-.36.24-.27 0-.42-.18-.42-.5v-.82H51v.79c0 .2.08.3.25.3.14 0 .28-.07.28-.22v-.87h.27v1.29h-.27v-.21ZM52.45 74.37c-.18 0-.28-.1-.28-.27v-1.57h.27v1.62h.18v.22h-.17ZM53.83 74.37c-.14 0-.22-.09-.23-.22h-.01c-.05.16-.19.25-.38.25-.27 0-.42-.15-.42-.39 0-.26.19-.39.55-.39h.23v-.11c0-.16-.08-.25-.27-.25-.15 0-.24.07-.31.18l-.16-.15c.08-.14.24-.25.49-.25.33 0 .52.16.52.45v.65h.14v.22h-.15Zm-.26-.38v-.19h-.23c-.19 0-.28.06-.28.17v.04c0 .11.08.17.22.17.17 0 .29-.08.29-.21ZM54.22 72.7v-.04c0-.08.05-.14.16-.14s.16.06.16.14v.04c0 .08-.05.14-.16.14s-.16-.06-.16-.14Zm.02.37h.27v1.29h-.27v-1.29ZM54.9 74.37v-1.29h.27v.25h.01c.04-.13.15-.25.36-.25h.07v.26h-.11c-.21 0-.33.07-.33.21v.83h-.27ZM55.75 73.72c0-.41.23-.68.59-.68s.57.29.57.64v.1h-.89v.04c0 .2.12.34.34.34.16 0 .27-.07.34-.19l.16.16c-.1.16-.29.26-.53.26-.37 0-.59-.26-.59-.68Zm.28-.13v.02h.6v-.02c0-.2-.11-.33-.29-.33s-.31.14-.31.34ZM57.82 73.25v-.04c0-.1.06-.17.18-.17s.18.07.18.17v.04c0 .1-.06.17-.18.17s-.18-.07-.18-.17Zm0 .98v-.04c0-.1.06-.17.18-.17s.18.07.18.17v.04c0 .1-.06.17-.18.17s-.18-.07-.18-.17ZM45.72 63.76c-.14 0-.22-.09-.23-.22h-.01c-.05.16-.19.25-.38.25-.27 0-.42-.15-.42-.39 0-.26.19-.39.55-.39h.23v-.11c0-.16-.08-.25-.27-.25-.15 0-.24.07-.31.18l-.16-.15c.08-.14.24-.25.49-.25.33 0 .52.16.52.45v.65h.14v.22h-.15Zm-.82-1.86.24-.11.23.45-.17.08-.29-.42Zm.56 1.48v-.19h-.23c-.19 0-.28.06-.28.17v.04c0 .11.08.17.22.17.17 0 .29-.08.29-.21ZM46.73 62.65v-.04c0-.1.06-.17.18-.17s.18.07.18.17v.04c0 .1-.06.17-.18.17s-.18-.07-.18-.17Zm0 .98v-.04c0-.1.06-.17.18-.17s.18.07.18.17v.04c0 .1-.06.17-.18.17s-.18-.07-.18-.17ZM72.92 58.55l-.19-.37v1.33h-.27v-1.74h.31l.57.96.19.37v-1.33h.27v1.74h-.31l-.57-.96ZM74.12 58.86c0-.41.23-.68.59-.68s.57.29.57.64v.1h-.89v.04c0 .2.12.34.34.34.16 0 .27-.07.34-.19l.16.16c-.1.16-.29.26-.53.26-.37 0-.59-.26-.59-.68Zm.28-.13v.02h.6v-.02c0-.2-.11-.33-.29-.33s-.31.14-.31.34Zm.34-.67-.17-.08.23-.45.24.11-.29.42ZM75.99 57.62h.26c-.27.25-.44.64-.44 1.02v.2c0 .38.17.77.44 1.02h-.26c-.25-.21-.44-.63-.44-1.12s.19-.9.44-1.12ZM76.33 58.86c0-.41.23-.68.59-.68s.57.29.57.64v.1h-.89v.04c0 .2.12.34.34.34.16 0 .27-.07.34-.19l.16.16c-.1.16-.29.26-.53.26-.37 0-.59-.26-.59-.68Zm.28-.13v.02h.6v-.02c0-.2-.11-.33-.29-.33s-.31.14-.31.34ZM77.84 59.85h-.26c.27-.25.44-.64.44-1.02v-.2c0-.38-.17-.77-.44-1.02h.26c.25.21.44.63.44 1.12s-.19.9-.44 1.12ZM79.49 59.51c-.18 0-.28-.1-.28-.27v-1.57h.27v1.62h.18v.22h-.17ZM79.84 58.86c0-.41.23-.68.59-.68s.57.29.57.64v.1h-.89v.04c0 .2.12.34.34.34.16 0 .27-.07.34-.19l.16.16c-.1.16-.29.26-.53.26-.37 0-.59-.26-.59-.68Zm.28-.13v.02h.6v-.02c0-.2-.11-.33-.29-.33s-.31.14-.31.34ZM81.9 58.39v-.04c0-.1.06-.17.18-.17s.18.07.18.17v.04c0 .1-.06.17-.18.17s-.18-.07-.18-.17Zm0 .98v-.04c0-.1.06-.17.18-.17s.18.07.18.17v.04c0 .1-.06.17-.18.17s-.18-.07-.18-.17Z" class="cls-10"/><path d="M74.13 70.67s2.31 9.57-1.24 7.98c-3.55-1.6-3.19-4.43-1.42-4.79s5.5 3.55 8.16 2.48 4.79-4.26 3.01-4.96c-1.77-.71-.71 5.67 1.95 5.5s-10.28-4.79-18.44-3.72" style="stroke-miterlimit:10;stroke-width:.18px;fill:none;stroke:#000"/><path d="M112.61 100.59H15.18c-2.09 0-3.68-1.7-3.68-3.79l29.72 1.9 43.41-.65 31.76-1.24c0 2.09-1.7 3.79-3.79 3.79Z" class="cls-8"/><path d="m25.75 63.54-.03-.03" style="stroke-width:1.47px;stroke-linecap:round;stroke-linejoin:round;fill:none;stroke:#000"/><path d="M34.13 48.13s-1.31.78-2.77 1.04" style="stroke-linecap:round;stroke-linejoin:round;fill:none;stroke:#000"/><path d="M28.94 79.99c-3.47.74-6.49-2.61-6.49-2.61l.41-5.86.04-.66 9.07-1.75.24 1.88.76 6.38c-.04.12-.07.25-.12.35-.03.07-.04.15-.07.21-.02.03-.02.06-.03.09 0 0-1.39 1.46-3.82 1.98Z" class="cls-6"/><path d="M26.16 45.73s0 1.69-.61 2.83h-.02M22.88 49.28c-1.34-.77-2.24-2.73-2.24-2.73M18.65 64.81h-.02c-.16-.03-1.26-.32-1.9-2.05-.7-1.87-1.5-1.65-1.57-3.59-.05-1.83 1.84-1.04 2.05-.93" class="cls-7"/><path d="M20.12 50.11c.83.04 1.8-.15 2.77-.83.4.25.83.37 1.29.32.64-.07 1.07-.5 1.37-1.03.02.01.03.03.05.03.18.17 1.34 1.19 2.77-.2.75.9 1.92.99 3.01.78.65.5 1.54.45 1.54.45.05.07.12.16.16.23 2.68 3.78 2.94 6.34 2.96 6.62.16-.67.28-1.31.37-1.92-.14 1.13-.36 1.95-.41 2.12v.02l-.01.03H36c.04 1.07.05 3.84-.39 6.71-.37 2.38-1.09 4.84-2.4 6.42-3.02 3.68-4.99 3.76-5.28 3.73-.3.07-2.37.38-5.94-2.8-1.54-1.36-2.62-3.67-3.35-5.97-.88-2.76-1.29-5.5-1.42-6.57h.01c-.02-.12-.03-.24-.03-.38.04.1.07.16.07.16-.03-.44-.04-.89-.02-1.32.29-2.22 2.32-5.9 2.56-6.54l.3-.06Z" class="cls-6"/><path d="M17.24 58.24s0-.02-.02-.03v-.02c-.09-.21-.58-1.29-.91-2.78v-.05c-.66-2.96-.69-7.44 4.24-9.44 0 0 .31-1.62 2.39-1.37 0 0 2.41-2.63 5.32-.47 2.02-.57 2.57.99 2.57.99 5.56 1.31 5.92 6.33 5.6 9.32-.01.06-.02.11-.02.16M35.59 63.43h.02c.15-.06 1.19-.51 1.56-2.32.4-1.95 1.23-1.86 1-3.79-.23-1.81-1.98-.74-2.17-.6" class="cls-7"/><path d="M29.53 46.75c-.36.67-.72 1.18-1.07 1.53-.04.05-.07.1-.11.12" class="cls-7"/><path d="M27.51 56.49s.64 5.76 1.9 8.65c0 0-.24.59-2.12.23" class="cls-6"/><ellipse cx="23.65" cy="59.24" class="cls-6" rx=".2" ry=".58" transform="rotate(-4.42 23.663 59.304)"/><ellipse cx="31.58" cy="58.48" class="cls-6" rx=".2" ry=".58" transform="rotate(-4.42 31.606 58.572)"/><path d="M42.39 78.16s-6.59-.54-9.41-.8M22.38 77.38s-8.64 1.47-11.01 1.47" class="cls-3"/></svg>