<svg xmlns="http://www.w3.org/2000/svg" id="Calque_1" data-name="Calque 1" viewBox="0 0 128 128"><defs><style>.cls-1{fill:#d6d6d6}.cls-1,.cls-2,.cls-4,.cls-6,.cls-8{stroke:#000;stroke-linecap:round;stroke-linejoin:round}.cls-2{fill:#afaff9}.cls-4,.cls-6,.cls-8{fill:#fff}.cls-6{stroke-width:1.06px}.cls-8{stroke-width:.71px}</style></defs><path d="M55.99 24.74c11.9 1.59 7.62-12.41 6.47-14.26-1.15-1.86.13-1.5-2.24-5.21s-6.03-2.38-6.03-2.38c-1.92-.9-8.69-1.04-10.29 2.67-1.6 3.71-3.1 5.8-4.88 9.28 0 0-3.5 8.74 9.62 11.5" class="cls-4"/><path d="M68.75 13.97s-1.36-.65-2.61-2.95c-.8-1.48-3.16-3.37-2.18-3.67.99-.31 2.5 2.19 2.78 1.47.28-.71-2.54-6.11-1.64-6.39.89-.28 3.23 4.97 3.48 4.34.25-.64-2.39-5.23-1.12-5.62 1.26-.39 2.63 5.65 3.3 5.44.68-.21-.31-4.82.71-5.13 1.02-.32.87 5.7 1.24 5.52.2-.09 1.1-3.01 1.65-2.79.62.25-.64 6.06-.31 7.54.6 2.73 3.44 16.46 1.4 18.51-2.23 2.23-13.13 8.58-16.1 7.7-2.97-.88-4.67-3.81-3.96-5.62.71-1.8 14.74-5.86 14.97-6.42.22-.57-1.6-11.93-1.6-11.93ZM80.83 107.73s2.74 11.19 4.79 12.95c2.05 1.76 8.72 5.12 6.97 5.48-1.75.36-14.66.66-14.31-1.49.35-2.15.73-3.53.73-3.53l-3.42-7.99 5.24-5.42ZM50.71 117.11s-.29 2.83-.29 4.08 1.16 4.77.62 5.31c-.54.54-15.92.47-15.92-.03s2.72-2.04 6.41-3.1 4.95-5.15 3.99-7.5l5.18 1.25Z" class="cls-4"/><path d="m67.41 69.8 2.76 2.45s3.11 8.41 3.29 8.97c.25.77 10.31 33.2 10.31 33.2l-7.01 2.52s-6.95-13.54-8.1-18.24C67.51 94 55.99 74.32 55.99 74.32l11.42-4.51ZM55.22 74.79l-3.36 42.97h-7.77s-2.78-32.16-1.82-43.45l12.96.48Z" class="cls-4"/><path d="M41.59 31.51s4.94-1.3 10.56-1.61c2.91-.16 6.81.46 6.81.46s3.55 7.97 4.61 14.49c1.06 6.53 6.81 27.45 6.81 27.45s-11.71 9.02-28.79 3.07V31.51Z" style="fill:#ff6d75;stroke:#000;stroke-linecap:round;stroke-linejoin:round"/><path d="M54.9 24.37s-.15 5.1.32 5.57c.48.48 1.15 1.27.44 2.49-.7 1.22-3.76.44-5.18-.26-1.37-.67-2.25-1.91-2.25-1.91l.71-8.07 5.95 2.18Z" class="cls-4"/><path d="M58.67 21.88c-2.43 4.42-5.53 3.32-6.82 2.88-1.27-.46-3.8-1.44-5.09-5.57-.11-.36-.21-.76-.27-1.2-.09.49-.36.93-.99.99-1.52.15-2.93-4.37-1.09-4.95 1.2-.38 1.67.73 1.87 1.56 0-4.36 1.85-9.59 7.41-8.94 0 0 2.87-.06 4.34 2.17 1.47 2.25 3.07 8.64.64 13.05ZM41.59 31.51s-2.24.19-2.5 4.56c-.1 1.72-4.49 26.71 2.59 32.43l-.09-36.99Z" class="cls-4"/><path d="m43.55 122.33 6.87-1.14M79.01 121.14l5.57-1.98" class="cls-2"/><ellipse cx="44.79" cy="16.32" class="cls-1" rx="2.6" ry="3.28"/><path d="M44.19 13.1s.05-4.88 4.67-6.87c2.91-1.26 7.03-1 8.76 1.99 0 0-9.7-4.2-11.22 5.35 0 0-1.05-.79-2.2-.47Z" class="cls-1"/><path d="M53.72 12.57s.6 3.27 1.78 5.98c0 0-.23.55-1.98.21" class="cls-6"/><ellipse cx="50.71" cy="15.16" class="cls-6" rx=".19" ry=".54" transform="rotate(-4.42 50.797 15.196)"/><ellipse cx="56.93" cy="14.45" class="cls-6" rx=".19" ry=".54" transform="rotate(-4.42 57.056 14.399)"/><path d="M55.74 21.46s-1.51 1-3.48-.32" class="cls-6"/><path d="M42.96 80.52v-2.25l4.45.46-.03 2.71" class="cls-8"/><path d="m43.74 80.92.05-1.62 2.74.24.03 1.85" style="stroke-width:.53px;fill:#fff;stroke:#000;stroke-linecap:round;stroke-linejoin:round"/><path d="M42.08 80.44s3.13 1.66 5.64.84c0 0-.38 6.69-3.18 6.55s-2.39-2.4-2.46-7.39Z" class="cls-8"/><path d="M43.71 78.47s2.6-20.17 1-32.85-1-25.96-1-25.96" style="fill:none;stroke-width:.53px;stroke:#000;stroke-linecap:round;stroke-linejoin:round"/></svg>