<svg xmlns="http://www.w3.org/2000/svg" id="Calque_1" viewBox="0 0 239.01 304.08"><defs><style>.cls-1{fill:#ead6ae}.cls-1,.cls-3,.cls-4,.cls-6,.cls-7,.cls-8,.cls-9{stroke:#fff;stroke-miterlimit:10;stroke-width:.5px}.cls-3{fill:#f3d587}.cls-4{fill:#fab0b4}.cls-6{fill:none}.cls-7{fill:#bbfedb}.cls-8{fill:#87ccf3}.cls-9{fill:#ff6d75}</style></defs><path d="m104.61 28.48-.25-.03-.23.1-.15.04.09.27s.22.01.24.02l.38-.24-.09-.16ZM106.01 29.34h-.2l-.07.14.18.15.09-.06h.11l.08-.02-.02-.11-.17-.1zM108.34 29.26v-.31l-.17.18.07.28.1-.15zM108.19 30.13l-.23.23.17.26h.19l.15-.12-.06-.29-.22-.08zM104.69 28.96l.11.22.16-.12.03-.2-.17-.05-.14.15ZM107.63 32.04l.08.17.2-.07-.16-.2-.12.1zM106.67 31.92l.15.26.01.4.4.08.08-.27-.35-.39-.29-.08zM106.5 29.35l-.12.14.11.16.26-.1-.25-.2z" class="cls-1"/><path d="M-754.76-590.67h6562.35v1176.7H-754.76z" style="fill:none;stroke-linecap:round;stroke-linejoin:round;stroke-width:8px;stroke:#fff"/><path d="m107.1 128.13-.28-.75.28.75zM67.91 133.88l.29-.67-.12.28-.17.39zM28.73 121.66l.41.35-.4-.34-.01-.01zM113.51 159.99l1.43-2.38-1.35 2.26-.08.12zM157.57 170.48l3.68-.02h-1.15l-2.53.02zM103.18 182.46l.68-.62-.09.08-.59.54zM120.85 156.26l.04-.65-.03.49-.01.16zM104.15 160.95l3.86.07-3.84-.07h-.02zM101.92 127.4l.29-.58-.07.14-.22.44zM39.39 81.45l-.02.86.02-.85v-.01zM106.79 127.35l.03.03-.03-.03zM66.37 121.31l.21-.41-.09.18-.12.23zM100.86 127.05l.61.45-.26-.2-.35-.25zM49.25 134.66l.47-.32-.09.06-.38.26zM42.14 135.48l1.13-.64-.88.49-.25.15zM138.9 99.49l-1.04-23.95 1.3 29.88-.26-5.93zM193.41 129.48l-.67.19-.58.18 1.25-.37zM157.67 236.8l-.09-.08-.48-.4.57.48zM139.13 221.32l.43.53v-.01l-.43-.52zM158.44 247.77l.02-1.02-.02 1.02zM194.56 133.56l-.08.12-.18.33.26-.45zM168.61 202.58l-.59 2.14-.15.56.74-2.7zM154.02 171.39l-.8.74.65-.6.15-.14zM175.02 123.35l.15.06.4.17-.55-.23z" class="cls-6"/><path d="m200.48 207.52.57-.91-.37-.48-.35.09.07.49-.12.55.2.26z" class="cls-8"/><path d="m198.72 205.34.25-.29-.29-.62-.26.25-.47.12.39.19.38.35zM195.25 201.94l-.33-.04-.46.74.15.39.08.69.28.12.29-.08.23-.34-.2-.58.23-.31-.27-.59zM195.63 205.33l.53.05-.27-.37-.35-.03-.12.13.21.22zM205.13 197.24l.12-.27-.2.02.08.25zM205.06 195.88l-.45-.19-.33.41.31.15.59-.12.14-.19-.26-.06z" class="cls-3"/><path d="m16.1 64.44-.32-.49-.81.11.17.33.56.23.39-.17Z" style="fill:#f3dfa9;stroke-miterlimit:10;stroke-width:.5px;stroke:#fff"/><path d="m23.19 79.11-.65.81.39.11.63-.18.65-.91-.04-.72-.94.48-.04.41zM19.25 79.7h-.57l-.26.87.57.46.52-.35.35-.13-.11-.7-.5-.15zM24.36 77.43l.66-.37.6-.08-.5-.35-.47.02-.29.78zM15.87 80.26l.96-.69.63.02.16-.81-.61-.13-.24.22-.68.26-.54-.04-.48.37.33.5.47.3zM228.91 128.65l-.4-.21-.6.13-.42.12-.39-.08-.16-.31-.38-.06-.35.3-.06.47-.37.19.39.23.38.29.64.13.9-.14.66-.43.46-.03.22-.27-.04-.23-.48-.1zM222.04 130.15l.78.13.66-.09-.81-.24-.63.2z" class="cls-4"/><path d="m167.26 73.47-.66-1.57-.86-1.29-.31-1.12-.6-.87-.33-.15-.39.52-.82.32-1.93-.32-1.51.41-1.1-.78-.13.52.41.62-.02.39-.41-.62-.62-.34-.14-.53.3-.13-.25-.26-.5.07-.62-.2-1.03-.28-.16.19.43.09.09.2-.57.07-.57-.07-.66.28-.21-.21.02-.14.58-.07.48-.2-.61.08-.85.02-.36.26-.81.44-.39.2-.77.26-.64.61-.12.28h-1l-1.1-.69-.71-.07-1.03.07-.86-.55h-.35l-.36.23-.85-.59-.98-.21-2.35-.18-1.17-.39-1.51.07-.29.09h-.01l-.19.5-.26 1.28.34.81v.67l-.43 1.04-.35.96.38.81.32 1.54 1.04 23.95 36.11-.27.01-.06-.53-.21-.7-.72-.19-.37-.62-.18-.39-.8-.36.17-.57-.02-.94-.61-.47-1.57.11-.42-.04-.75-.19-.4.06-.27.23.19.89.06-.35-.37-.29-.05-.49-.77-.2-.15-.03.21-.34-.41-.27-.81-1.2-1.76-.5-.32-.14-.85-1.89-2.78.02-.64-.32-.51-.11-1.16-.32-.39v-.34l-1.03-1.12-.05-.44.11-.48-.25-.48-1.76-1.48-.13-.48-1.12-1.33v-.68l-.64-.82.07-.42-.05-.41.14-.2.11.18h.3l.21.78.27.32.07.39 1.16.98v.59l.3.6.8.36.18.57 1.44 1.53.8.44.09.18.12-.36.41-.39.23-1.08-.28-.27.37-.91.07-.64.45-1.67.12-.19-.39-1.02.26-.74z" class="cls-9"/><path d="m139.16 105.42-2.89.28v1.1l-.02.01.22 11.95-.47.17-.55.35-.52-.32h-.76l-.55.44v.75l.32.4-.35.7-.98 1.31-.32-.03-.53.52.03.44.35.34-.32.64-.61.38-.11.41.55.32.05.61-.32.49-.95 1.01v.67l.41.41.72-.52.35.08v.44l-.35.23.41.29-.23.38.29.52.02.78.12.59 1.13.28.29.47-.26.44v.4l-.06.14.32.37v.41l-.16.21.64.54.12.31.8 1.08.52 1.18.22.45-.15.64-.2.28-.21.58.04.92.42.36.77.02.22-.3.91.03.29.24-.22.41.09.55.52.41.69.29.51.02.46.28.16.41.6.29.51.05.25.31-.14.44-.39.32-.07.25-.23.26.59.53.53.14.23-.11.49.24.22-.03.99.57.23.38.05.88.29.32.63.19.16.23-.03.58.27.29 1.01.26.46.36-.08.29.1.93.34.25.56.34.23.36v.12l.1.03.09.48.33.38.34.1.35.38.61.51.6.23.34-.1.23-.38.37-.2h.72l.39.02.08.17.26.01.63-.18.26-.32.33-.4.67.04.24.15.38.76.33.4.17.26.79.26.32.29.23.51.18.24.17.44.06.33.12.01.75-.01.22.14.06-.12-.14-.25.03-.44.37-.35.58.24.79.28.46-.14.55.14.06.47.7.23h.35v-.49l.37-.35.38.09.23-.12h.5l.66-.29 1.08-.06.69.2.67-.31.35-.5.72-.47.36-.47.23-.09.29-.4.56-.54.3.11.75-1.14 1.01-1.13-.2-1.05-.29-.35-.14-1.12-.51-.55-.24-.47-.37-.47h-.58l-.22-.23.01-.24-.53-.25-.6-1.04-.21-.14-.1-.42-.54-.55-.3-.36-1.26.02-.54-.2-.2-.4.47-.66.29-.18.04-.66.66.14.58-.14.31.23.37.07.19-.34.4-.31.1-1.42-.07-1.18.23-.84.49-.77-.02-.65-.21-.35.23-.63.65-.79.1-.39.26-.04.33.1.6-2.25.36-.94.86-.62.01-.47.74-1.2.08-.53.58-.12.26.04.33-.96.82-1.4v-1.04l.34-.92.16-.22-.15-.06-.14-.61-.36-1.27.04-.73.32-.35.05-.49.48-.74.25-1.52.34-.93.22-.31-.16-.26-.27-.19.29-.7v-.61l.35-.22h.8l.07-.33-.13-.29.04-.31.6-.13.36-.31.68.07.22-.42.51-.1.5-.27.39-.61h-.2v-.41l-.66-.34-.62-.02v-.57l-1.32-.89-.5-.12-.55-1.03-.41-1.3.18-1.12-.16-1.19-.73-2.17-.08-.55.1-.1.24.29.08.2.15-.01v-.29l-.58-.69-.2-.84-.12-.17.01-.13-.12-.13.08-.16-.16-.23.07-.27.04-.26-36.11.27.26 5.93z" class="cls-7"/><path d="m171.99 150.98.6-.12.46.07v1.82l.53.58.58.12.68-.23.76.19 1.47-.09.56.35 1.27 1.21.74.51.5.57.47.16h1.08l.66.29.81-.12.54.19h.43l.6-.04.8-1.24.29-.4.64-.24.46.03.32-.21 1.42-.19.43.22.36.66.51.29 1.14-.19.76.01.11-.03.26-.43.97-.48.89-.12.79-.44.59-.35.25-.61.76-.39.52-.04.58-.37 1.88-.07 1.84.05 9.45-9.36-3.89.05-8.89-2.73-.76-.64-1.1-.23-.41-.93.12-.87-.82-.41-.52-1.63-.18-1.14.18-.33-.53-.31-.82.14-.71.47-1.13.04-.3-.35.49-.68.05-.55.3-.54-.12-.79.26-.54.19-.72.58-.18-.83-1.08-.43-.01-.19-.37-.07-.58-.59-.83-.55-.12-.86-.84-.71-.47-.2-.28-.59-.05-.08-.21-.88-.13-.23-.46-1.06-.95-.5-.1-.53-.5-.61-.13-.5.1-.08.18-.96-.77-.53-.02-.22.24-.42-.38-.58.07-.55.48h-.57l-1.19-.43-.18-.31-.33-.22-.81 1.72-.48.03-.22.36-.64-.03-.4-.17-.16.22-.34.92v1.04l-.82 1.4-.33.96-.26-.04-.58.12-.08.53-.74 1.2-.01.47-.86.62-.36.94-.6 2.25-.33-.1-.26.04-.1.39-.65.79-.23.63.21.35.02.65-.49.77-.23.84.07 1.18-.1 1.42-.4.31-.19.34-.37-.07-.31-.23-.58.14-.66-.14-.04.66-.29.18-.47.66.2.4.54.2 1.26-.02.3.36.54.55.1.42.21.14.6 1.04.53.25-.01.24.22.23h.58l.37.47.24.47.51.55.14 1.12.29.35.2 1.05.22-.25.32.56z" class="cls-9"/><path d="m179.58 112.6-.51.1-.22.42-.68-.07-.36.31-.6.13-.04.31.13.29-.07.33h-.8l-.35.22v.61l-.29.7.27.19.16.26-.22.31-.34.93-.25 1.52-.48.74-.05.49-.32.35-.04.73.36 1.27.14.61.55.23.64.03.22-.36.48-.03.81-1.72.33.22.18.31 1.19.43h.57l.55-.48.58-.07.42.38.22-.24.53.02.96.77.08-.18.5-.1.61.13.53.5.5.1 1.06.95.23.46.88.13.08.21.59.05.2.28.71.47.86.84.55.12.59.83.07.58.19.37.43.01.83 1.08.67-.19.25-.28.5-.14.55-.62-.15-.07-.11-.17-.24.21-.33-.17h-.32l-.27-.59.12-.18-.44-.56-.37-.1-.51-1.26-.2-.28-.03.18h-.24l-.44-.54-.62-.26-.44-.76-1.02-1.14-.18-.32-.85-.19-.28-.35-.56-.63-.39.13-.19-.11-.45.06-.29.2-.36-.35-.5-.76.21-.23-.55-.78-.23.09-.05.62.14-.02.04.84-.52-.14-.16-.93-.25-.64-.41-.14v-.27l-.16-.8-.23-.07-.41-2.17-1.26-3.32-.71-.75h-.03l-.39.61-.5.27z" class="cls-8"/><path d="m193.66 129.2-.25.28-1.25.37-.19.72-.26.54.12.79-.3.54-.05.55-.49.68.3.35 1.13-.04.71-.47.82-.14.53.31.08-.12.7-1.3-.1-.21-.79.01-.46.19-.21-.04-.33-.42h.65l.31-.45.42-.01.56-.63.31-.12-.11-.94.09-.28h-.19l-.7-.68.02-.23-.02-.01-.55.62-.5.14z" class="cls-3"/><path d="m194.3 134.01.18 1.14.52 1.63.82.41-.12.87.41.93 1.1.23.76.64 8.89 2.73 3.89-.05-9.45 9.36-1.84-.05-1.88.07-.58.37-.52.04-.76.39-.25.61-.59.35-.79.44-.89.12-.97.48-.26.43-.11.03h.04l-2.81 2.67-.06 11.96 2.13 1.93.03-.14 2.5-2.76.27-.64.64-.61.62-.19.25-.45.3-.12 1.69-1.87.45-.14 2.06-2.17 1.07-.82.85-.59 1-.19 1.44-1.23 3.36-2.97 1.6-1.94.91-.94.21-.64 2.06-2.79.04-.5 1.1-1.53.07-.96 1.71-3.27.39-.34-.3-.44.05-.34.67-.72.24.04.43-.53.72-1.51 1.04-1.46-.05-.78.19-.32.12-.72-.24-.4.44-.75.27-.07h.38l.06.12.2-.11-.18-.36-.19-.05.05.15-.41.05.22-.47-.09-.51-.27-.37.27-.63.31-.26-.02-.19-.39-.01-.15-.26.17-.3.04-.49.19-.48.31-.47-.14-.08-.34.02-.78-.26-.36-.25.03.13-.25-.03-.37.36.08.07-.24.44-.1-.08-.54.53-.92.11-.09.25-.25-.22-.89.12-.56.45-1.47.27h-.31l-.29-.17-.95.07-.85.42-.82-.04-.45.15-.59-.26-.59.11-1.84 1.14-.87.1-.61-.28-.29.1-.82.04-.18-.17-.29.01-1.02.81-.49.01-.78.47-.28.34-.87.11-.74-.18-.76-.68-.29-.08-.22-.46-1.83-2.02-.2-.03-.18-.38-.7 1.3-.26.45z" class="cls-7"/><path d="m189.09 157.85 2.81-2.67h-.04l-.76-.01-1.14.19-.51-.29-.36-.66-.43-.22-1.42.19-.32.21-.46-.03-.64.24-.29.4-.8 1.24-.6.04h-.43l-.54-.19-.81.12-.66-.29h-1.08l-.47-.16-.5-.57-.74-.51-1.27-1.21-.56-.35-1.47.09-.76-.19-.68.23-.58-.12-.53-.58v-1.82l-.46-.07-.6.12-.32-.56-.22.25-1.01 1.13-.75 1.14-.3-.11-.56.54-.29.4-.23.09-.36.47.04-.02.29.35.2.78.29.17-.06.53.41.08.2.67v.61l.7.67.37.93.41.17.35.26-.26.38.43.38.21.64-.09.64-.7.81v.43l-.26.73h-1.04l.02.26-.31.32-.24.55-.49.47-.35.69-.58.55-.12.84-.79 2.95.85-.04 11.09 6.47.61 1.02-.15.28.12.38.26.32 3.76 2.65.26.01.64-.26 1.09-1.6.44-.95v-.69l.49-.6.5-.77-.19-.15.03-.37.43-.5.05-.22.38-.12h.89l.55-.76 1.03-.37-.18-.3.35-.38.24-.08.99-1.21.05-.19-2.13-1.93.06-11.96zM160.1 170.46h1.15l1.16-.06-2.23.06h-.08z" class="cls-3"/><path d="M158.03 157.52v.85l-.17 1.03-.07.77.34.24.3.39.23.5-.06.34-1.55 2.07-.96 1.06-.26.46-1.17 2.11-.22.37-.02.79-.09 1.1-.39 1.09.08.7-.15.14.16.07.5-.1.49-.4.34.16.24.24h.44l.22-.21.01-.42.5-.09.09.13.17-.23.28.06.26-.26 2.53-.02h.08l2.23-.06 4.17-.23.79-2.95.12-.84.58-.55.35-.69.49-.47.24-.55.31-.32-.02-.26h1.04l.26-.73v-.43l.7-.81.09-.64-.21-.64-.43-.38.26-.38-.35-.26-.41-.17-.37-.93-.7-.67v-.61l-.2-.67-.41-.08.06-.53-.29-.17-.2-.78-.29-.35-.04.02-.72.47-.35.5-.67.31-.69-.2-1.08.06-.66.29h-.5l-.23.12-.38-.09-.37.35v.49h-.35l-.7-.23-.06-.47-.55-.14-.46.14-.79-.28-.58-.24-.37.35-.03.44.14.25-.06.12-.15.55-.31.4z" class="cls-9"/><path d="m132.37 133.91-.37-.24h-.73l-.55.38-.76.44-.11.4.03.41-.35.14-.55.88-.32.02-.24-.14-.43.49.03.47-.44.29-.11.52.09.44-.15.43-.49.26-.58.43-1.13.15-.85.12-.78-.12-.49-.2-.7.09-.46-.12-.41.26-.06.5.5.63h.34l.12.41-.87.58-.41.46h-.78l-1.8.41-.76.52-.84.35-.78.58-.55.09-.26-.26-.21-.7-.32-.29-.34.35v.58l-.38.7-.81.02-.5.12h-.58l-.11-.61-.33-.36.01.2-.56.77-.43.17-.28.61-.55 1.04-.34.74-.59.83-.34.13-.27.41.08.64.25.8-.13.74.25.79.07.67v1.22l.29.22.87.42.48.6.19.64.74 1.09.46.89.36.35.96.74.08.62-.01.48.13.2.08.07 1.35-2.26.75-.72.52-.12.25-.32 1.3-.52.48.04.32-.22H119.46l.2.25.55.31.3-.12.35-.09.03-.49.16-.44.19-.26-.47-.63v-.35l.41-.02.24-.22v-.32l.28-.35.07-.41.21-.2h.37l.44-.44.52.07.09-.28h.3l.46.34.35.05.87.74.46.17.8.68.18.17.67-.04.61.34.74.05.42.07.38-.17.39.01.55.21.72.14.28.17.71-.16.11-.24-.32-.26-.05-.34.47-.49.43-.55.61.02.57.12.34.37.39-.17 1.3-.15.23-.28.47-.19 1.25-.55.4.04.07.22.22.04.13.35.26.01.37-.26.73-.04.41-.08.35-.01.4-.58-.13-.21.03-.23.46-.03.28.27.64.1.35-.03.3.16.44.07.43.29 1.13.01.18.1.94-.42.68.06.56.33.11.04v-.12l-.23-.36-.56-.34-.34-.25-.1-.93.08-.29-.46-.36-1.01-.26-.27-.29.03-.58-.16-.23-.63-.19-.29-.32-.05-.88-.23-.38-.99-.57-.22.03-.49-.24-.23.11-.53-.14-.59-.53.23-.26.07-.25.39-.32.14-.44-.25-.31-.51-.05-.6-.29-.16-.41-.46-.28-.51-.02-.69-.29-.52-.41-.09-.55.22-.41-.29-.24-.91-.03-.22.3-.77-.02-.42-.36-.04-.92.21-.58.2-.28.15-.64-.22-.45-.52-1.18-.8-1.08-.12-.31-.64-.54.16-.21v-.41l-.32-.37-.11.27-.79.35zM97.98 64.6l.23.23-.66 1.02-1.75 1.1v.41l-.55.69-.69-.03-.44.32-.03.32-.11.41.29.95.08.73-.18.19.02.26-.18.24-.33.57-.47.29-.18.16h-.37v.01l-.26.24.01 1.02.3.21.37.72v1.98l.09 1.1-.04.32.13 1.54.37.89-.29 1.66-.1.28.29.73.12 1.05-.29.42-.68.49-.24.35-.23.18.44.49.71.92.57 1.19.18.16.19.78-.11.37.07.85.36.42.13.54.32.32h1.23l1.12.09.52.35.41.65.59 1.24.32.29.36.45.38.36 5.29 1.32.5.52 2.69-1.12 3.42-1.42 24.35 12.38v.01l.02-.01v-1.1l2.89-.28-1.3-29.88-.32-1.54-.38-.81.35-.96.43-1.04v-.67l-.34-.81.26-1.28.19-.5-.27-.85-.43-.47-.55-.1-.55.1-2.03-.26-.42-.36-.8-.07-1.07-.29-.23-.35.23-.09-.02-.37-1.28-.7h-.66l-1.05-.28-.26-.14-.31.28-.65-.32h-.22l-.94.48-1.49.13-1.28.62-.73.71-.18.82-.39.3-.09 1.55.55.85.36 1.21-.25.69-.78.79-.11.29-1.02.86-.63.24-1.32-.52-1.16-.96-.91-.74-1.4-.72-2.24-.94-.98-.11-.32.18H111l-1-.5-.94-1.81.02-.93-.75-1.01-1.94-.27-1.03-.66-1.67-.05-.94-.36-2.12.38-1.49-.32-.57-.55-.69-.13-.1.26.2 1.16z" class="cls-4"/><path d="m89.06 51.25-.11.92.01.96-.54 1.38.19.81.39.46.05.19-.25.23-.26.44.41.4-.29.32-.19 1.07-.34.25-.27.37-.45.14-.69.81-.36 1.46.21.13.36.78-.13.35.38.57.3.1.86.75.22.74.7.29.29.31.48.11.76.83 1.87 6.04h.37l.18-.16.47-.29.33-.57.18-.24-.02-.26.18-.19-.08-.73-.29-.95.11-.41.03-.32.44-.32.69.03.55-.69v-.41l1.75-1.1.66-1.02-.23-.23-.2-1.16.1-.26-.36-.07-.89-.55-.09-.32-.02-.43-.46-.25-.18.13.04.23-.23.18-.41-.18-.13-.46-.44.1-.96-.67-.48-.87.3-.89 1.51-1.05.87-.86.22-.28-.25-.34.32-.34-.11-.44-.23-.16.02-.98-.89-.34-.73-.99.14-.79.73-.51.04-.55.6-.89v-.59l-.28-.21-1.07.98-.36.39-.3-.18-.46-1.03-.3-.11.07-.53-.39-.34-.66.14-.02.38-.32-.43-.8.16-1.1.55-.77.69-.01-.01-.09.43.11.35z" class="cls-8"/><path d="m59.45 57.1.34.44.08.55.1.22.05.98-.02 1.18.12.47.25 2.24.43.88.15.6.46.13.31.28.33.01.27.21-.34.83.06.19-.41.58h-3.56l-.72.15-.73 1.16-.64.55-.29.7.03.95-.26.58-2.09 1.45-3.22 1.86-2.46 1.45-1.19.27-1.15.02-.53.15h-.91l-1.6.32-.89.61-.58.77-1.4.99-.04 2.58-.01.01-.02.85.01.02v-.03l10.96 7.36v.01l19.78 13.12.35 1.45.64.58 1.11-.06.87.29.54.68.73.2.58.52-.03.47-.29.92.2.47.73.26 1.39-.17 1.12-.36.01.01 4.62-1.11 3.74-3.42 13.56-8.4h.01l-.38-.36-.36-.45-.32-.29-.59-1.24-.41-.65-.52-.35-1.12-.09h-1.23l-.32-.32-.13-.54-.36-.42-.07-.85.11-.37-.19-.78-.18-.16-.57-1.19-.71-.92-.44-.49.23-.18.24-.35.68-.49.29-.42-.12-1.05-.29-.73.1-.28.29-1.66-.37-.89-.13-1.54.04-.32-.09-1.1v-1.98l-.37-.72-.3-.21-.01-1.02.26-.24v-.01l-1.87-6.04-.76-.83-.48-.11-.29-.31-.7-.29-.22-.74-.86-.75-.3-.1-.38-.57.13-.35-.36-.78-.21-.13.36-1.46.69-.81.45-.14.27-.37.34-.25.19-1.07.29-.32-.41-.4.26-.44.25-.23-.05-.19-.39-.46-.19-.81.54-1.38-.01-.96.11-.92-.11-.35.09-.43-.16-.18-.84.16-.46-.09-1.28.37-.66-.57-.82-.3-.02.32-.53.5-1.03-.11-.06-.48-.44-.32-.71.16-.04.41-.62.11-.27.46-.39-.16h-.48l-.62.48h-.69l-.38-.62-.83-.04-.36-.12-.8.14-.64-.09-.3.07-.55-.19-.39.1-.29.61h-.64l-.57-.23-.78.76-.46-.03-.71-.38-.64.22-1.16.05-.66-.09-1.47 1.12-.84.12-.43.01-.71.44-.04.47-.37.49h-.33l-.2-.18-.43.01-.32.23-.17.24-.85.05-.72.37-.38.34-.1.37-.58.62-.92.3-.81.03.2.32.16.36z" class="cls-7"/><path d="m39.39 81.46.01-.01.04-2.58 1.4-.99.58-.77.89-.61 1.6-.32h.91l.53-.15 1.15-.02 1.19-.27 2.46-1.45 3.22-1.86 2.09-1.45.26-.58-.03-.95.29-.7.64-.55.73-1.16.72-.15h3.56l.41-.58-.06-.19.34-.83-.27-.21-.33-.01-.31-.28-.46-.13-.15-.6-.43-.88-.25-2.24-.12-.47.02-1.18-.05-.98-.1-.22-.08-.55-.34-.44-.16-.36-.2-.32-.44.02-1.7-.13-.38-.39-.17-.58-.21-.07-.02.01-.53.58-.97.2-.97-.26-.5-.04-.64.33-.91.14-.66-.14-.83-.89-.33-.25-.14-.48v-.34l.11-.17-.18-.23-.58.21-.26.23-.47-.05-.58.64-.12 1.64-.65.86-.14 1.24-.4.78-1.38 1.28-.31.02-.67.47-1.11.38-.83.88-.32.01-1.2.8-.74.24-.42.65-1.38.99.48 1.05-.08.73-1.21 1.1-.78 1.6-.05.66.51 1.01-.39 1.11.25.25.34.44-.2.87-1.9 2.15-.21.84-.86.94-.96.09-2.11 1.9-2.94.54-.73 1.02 12.17.15v.01z" class="cls-8"/><path d="m26.72 95.76.38-.82.65-.47.75-.1h1.06l.13-7.97 9.58.17.11-4.24-.01-.02.02-.86-12.17-.15-1.17 1.63v1.19l-.55.02-2.1 1.1-.2.6-.83.48.25.77-1.85 2.7-.11.87-1.42 1.32-.43.23-.75 1.64.06.46-1.21 1.6-.04.3.36.27-.52.21-.96 1.76-.37.09-.43.46.04.75-.32.64.06 1 12.1-.11-.11-5.52z" class="cls-3"/><path d="m16.6 117.13.61-.58 1.62-.26 1.57-.61h.52l1.43.47.78.17.64.84v.29l.41.17.52-.2.2.15.49-.06.27.23.11.76.64.55v.69l.67.12.17.64.52.2.82.49.14.47.01.01.72-.56.93-.06.32-.84-.03-.41v-1.13l.93-.32.72.03.09.76.52.98.32.2.73-1.42 1.53-.67.7.27.03.86.35.38.52-.6h.38l.35.46.31.14 10.75-.04.99-2.73-.93-.58-2.32-26.68 3.66-.06.03.02v-.01L39.38 82.3v.03l-.11 4.24-9.58-.17-.13 7.97H28.5l-.75.1-.65.47-.38.82.11 5.52-12.1.11.01.12-.3.66.05 1.17.66-.76.25.74.26.13.36-.29.87 1.3-.39.38.23.65-.21 1.02h-.41l-.34.25.87 1.33.59 3.13-.2 2.17-.73 1.03-.48 1.87-.17 1.23.51-.39h.44z" class="cls-4"/><path d="m49.8 133.67-.26-.46.03-.61.58-.12-.09-.87-.2-.55.55-.43.76-.58.87-1.6.64-.87.02-.44.7-1.18.41-.15.11-.41.9-.03.35.09 1.57-.46.26-.61 1.65-1.11 2.33-1.27.75-.64.93-.52 1.45-.24.76-.08.85.27.54.05.23.23.09-.18.69.18 2.09-.2.7.05.78-.38h1.92l.87-.58.9-.05.9-.47 1.51-.84.2-.66.09-1.05.49-.29.21-2.73.14-5.83-.01-.01-1.12.36-1.39.17-.73-.26-.2-.47.29-.92.03-.47-.58-.52-.73-.2-.54-.68-.87-.29-1.11.06-.64-.58-.35-1.45-19.78-13.12-.03-.02-3.66.06 2.32 26.68.93.58-.99 2.73-10.75.04-.31-.14-.35-.46h-.38l-.52.6-.35-.38-.03-.86-.7-.27-1.53.67-.73 1.42-.32-.2-.52-.98-.09-.76-.72-.03-.93.32v1.13l.03.41-.32.84-.93.06-.72.56.4.34v.55l.2.43-.32 1.22.09.38.72.7.32.75.38.32.32-.06.35.29.14.41.41.46-.03.35-.17.35.02.46.79.44-.03.52-.15.38.01.03.34.17.67-.29.41.18.66.46h.76l.61-.44.4-.02.59-.85.58-.02.81.34.26-.23.55-.17.06.32.67.55.32.64-.21.84.35.23.67.18v.34l-.55.76-.29.78.52-.06.32-.4.38-.03v.58l.23.37v.35l.78.03.29.32.02.41.88-.49.38-.03.72.34 1.22.09.26-.23.04-.26.98-.21.81.12-.17.2.23.35.96.29.55-.84.38-.26.17-.73z" class="cls-3"/><path d="m71.51 128.71.35-.46-.06-.58-.23-.24-.09-.37-.32-.18-1.3.7-1.05-.81-.06-1.22-2.87-1.92v-.87l.38-.61.11-.84.12-.23-.23-.23-.54-.05-.85-.27-.76.08-1.45.24-.93.52-.75.64-2.33 1.27-1.65 1.11-.26.61-1.57.46-.35-.09-.9.03-.11.41-.41.15-.7 1.18-.02.44-.64.87-.87 1.6-.76.58-.55.43.2.55.09.87-.58.12-.03.61.26.46-.17.73.09-.06.87.7 1.13.61h.43l.35.23h.47l.63.29.32.46.96.5.73-.15.57-.39.39.01.44.31.65.11-.02-.91-.35-.84-.32-.26-.2-.96.09-.67 1.04-.05h2.23l.27-.12h1.56l1.14-.18.69-.02.7-.32.23.06v-.01l.23-.04 3.13.79.12-.28.79-.18-.12-.63.49-.35-.05-.55.61-.29.31.14.96-.49.53-.03.66-.78v-.49l-.2.02-.67-.87zM16.83 128.88l2.03.18.56-.73 1.1-.46 2.73.06.76.21-.01-.04.58-.11 1.92.02 1.22.61.52.41.93-.06.96.41.49-.29.58.03.29.32.64.05.05.47.15-.38.03-.52-.79-.44-.02-.46.17-.35.03-.35-.41-.46-.14-.41-.35-.29-.32.06-.38-.32-.32-.75-.72-.7-.09-.38.32-1.22-.2-.43v-.55l-.41-.35-.14-.47-.82-.49-.52-.2-.17-.64-.67-.12v-.69l-.64-.55-.11-.76-.27-.23-.49.06-.2-.15-.52.2-.41-.17v-.29l-.64-.84-.78-.17-1.43-.47h-.52l-1.57.61-1.62.26-.61.58h-.44l-.51.39-.13.99-.78 1.42-1.89 1.73 1.02.83.67 1.16.57.09v.62l-.25.04.75.48-.41.3.08.25 1.38.03.32-.19h.54l1.1-.83.83-.35.51.16.77.03.95.58h.55l1.32.82.26-.04.24.37-.21.4-.67-.03-.99-.41-.76-.26-.65-.02-.71-.46-.3.11-.45.37-.18-.13-.42-.1-.65.43-.57.15-.53.6h-1.84l-.31.3v.69l-.3.31.16.24.69-.37 1.03.37-.67.41-.32-.12-.5-.13.23.2-.02.58.74.24.98-.5z" class="cls-8"/><path d="m16.96 126.66.53-.6.57-.15.65-.43.42.1.18.13.45-.37.3-.11.71.46.65.02.76.26.99.41.67.03.21-.4-.24-.37-.26.04-1.32-.82h-.55l-.95-.58-.77-.03-.51-.16-.83.35-1.1.83h-.54l-.32.19-1.38-.03.15.46.77.39.69-.19-.46.44-.82.02-.62-.78-.52.53.34.43v.23l.31-.3h1.84z" class="cls-9"/><path d="m21.94 132.48.81-.46 1.05-.2.49-.38.03-.55-.32-.35-.03-1.02.15-.46-.11-.92-.76-.21-2.73-.06-1.1.46-.56.73-2.03-.18-.98.5-.74-.24v.02l.25.45 1 .05.42.04-.55.41.55.55.61.05.16.32.34.07.78-.28.73-.16.83.46-.26.18-1.5.03.18.25.5.07.28.29-.19.28.35.02-.71.78 1.28-.14-.05.5.14.19.72-.22.36-.72.61-.15z" class="cls-3"/><path d="m35.01 149.15-1.12-.76 1.12.76zM32.29 146.56l.09.05-.09-.05zM27.4 138.17v-.4l.84-.73.46-.52.79-.32h2.55l.41.78.34.52.73 1.34-.09.49.58.56v.46l-.4.17-.06.53.35.14-.07.28.71-.31.26.09 1.28-.41.58.26.37.7.58.32-.06 1.19-.11.64.78.9.35-.12.9-.67.32.09.46.44.14.32-.11.26.15-.35.52-.18.81-1.77.09-.63-.2-.27-.58-.63v-.41l.37-.2.5.06.05-.41-.37-.61-.32-.24-.12-1.07.18-.43-.12-1.4-.23-.26v-.46l1.13-.43.25-.15-.02-.41-.29-.32-.78-.03v-.35l-.23-.37v-.58l-.38.03-.32.4-.52.06.29-.78.55-.76v-.34l-.67-.18-.35-.23.21-.84-.32-.64-.67-.55-.06-.32-.55.17-.26.23-.81-.34-.58.02-.59.85-.4.02-.61.44h-.76l-.66-.46-.41-.18-.67.29-.34-.17-.01-.03-.05-.47-.64-.05-.29-.32-.58-.03-.49.29-.96-.41-.93.06-.52-.41-1.22-.61-1.92-.02-.58.11.01.04.11.92-.15.46.03 1.02.32.35-.03.55-.49.38-1.05.2-.81.46-.61.15-.36.72.05-.01.48.52-.27 1.12.69.94.68.05.46.18.27-.39.51.23-.23.23-.03.48.28.27.64.02.23.92.82.43.44.36.48-.03.93-.5z" class="cls-9"/><path d="m27.63 144.32-.32-.08-.13.23.08.27.41.25.25.03-.05-.42-.24-.28z" class="cls-3"/><path d="m31.57 145.11.73-.35.64-.72-.09-.47.29-.81.41-.21v-.43l.2-.61.08-.04.07-.28-.35-.14.06-.53.4-.17v-.46l-.58-.56.09-.49-.73-1.34-.34-.52-.41-.78h-2.55l-.79.32-.46.52-.84.73v.4l-.93.5-.48.03.04.03-.32.57-.05.46.44.23-.41.77.22.48.57.09.31.96v.68l.68.73.6-.23.02.14-.25.52.38.37.43.49-.17.36.68.17 1.62.84h.36l.12-.47.31-.78z" class="cls-8"/><path d="m31.92 146.36.37.2-.37-.2z" class="cls-3"/><path d="m42.63 152.77.26-.69-.2-.47.15-.52.26-.38-.21-.38.41-.32-.17-.6-.41-.04-.44-.28-.2-.61-.37-.18-.38.09-.35-.44h-.52l-.24.15-.49-.18-.17-.58.43-.46.5-1.13-.21-.58.11-.26-.14-.32-.46-.44-.32-.09-.9.67-.35.12-.78-.9.11-.64.06-1.19-.58-.32-.37-.7-.58-.26-1.28.41-.26-.09-.71.31-.08.04-.2.61v.43l-.41.21-.29.81.09.47-.64.72-.73.35-.31.78-.12.47h.78l.37.2.09.05-.23.43.5.23.78 1.1.46.02 1.12.76.14.09 1.87 1.87.64.07 2.31 1.72 2.97 1.08-.02-.71-.29-.5z" class="cls-7"/><path d="m57.2 151.44.43-.07.05-.86-.29-.5-.7-.2-.07-.73-.44-1.13-.35-.38.01-.27.27-.17-.04-1.35.29-.41.03-.69.23-.47-.05-.61.95-1.42.61-.38v-.61l.26-.67-.26-.75-.43-.41v-.52l-.26-.64.23-.96-.01-.22-.65-.11-.44-.31-.39-.01-.57.39-.73.15-.96-.5-.32-.46-.63-.29h-.47l-.35-.23h-.43l-1.13-.61-.87-.7-.47.32-.55.84-.96-.29-.23-.35.17-.2-.81-.12-.98.21-.04.26-.26.23-1.22-.09-.72-.34-.38.03-1.13.64-1.13.43v.46l.23.26.12 1.4-.18.43.12 1.07.32.24.37.61-.05.41-.5-.06-.37.2v.41l.58.63.2.27-.09.63-.81 1.77-.52.18-.15.35.21.58-.5 1.13-.43.46.17.58.49.18.24-.15h.52l.35.44.38-.09.37.18.2.61.44.28.41.04.17.6-.41.32.21.38-.26.38-.15.52.2.47-.26.69.29.5.02.71.29.1 1.05-.91h.67l.23-.3 2.07-.77.03-.3 1.14-.16 4-.03 1.51-.47 1.39.66.14-.75.57-.14.44.79.12-.21.61-.05z" class="cls-4"/><path d="m67.87 148.27-.32-.13-.25-.81-.2-.71.16-.81.04-.4.32-.62-.1-1.78-.2-.45.07-1.04-.23-.43.24-.38-.08-.59-.28-.23.04-.43.24-.46-.05-1.03-.26-.09-.3-.23-.03-1.09.17-.83-.64-.47-.26-.38-.65-.6-.08-.44-.26-.28-.24-.81-.23-.06-.7.32-.69.02-1.14.18H60.4l-.27.12H57.9l-1.04.05-.09.67.2.96.32.26.35.84.02.91.01.22-.23.96.26.64v.52l.43.41.26.75-.26.67v.61l-.61.38-.95 1.42.05.61-.23.47-.03.69-.29.41.04 1.35-.27.17-.01.27.35.38.44 1.13.07.73.7.2.29.5-.05.86-.43.07-.61.05-.12.21.15.28 1.62.23 1.19.52 2.61-1.25 1.82-.16 1.58-1.33 1.44-.68 1.64-.22-.33-.5-.32-.32z" class="cls-3"/><path d="m70.41 146.82-.03-.84-.2-.75.08-3.63.03-.52.32-.41v-.72l-.23-.47.03-.84-.26-1.28-.61-1.6-.32-.17-.38-.44-.75-.31-.18-.96.17-.39-3.13-.79-.23.04v.01l.24.81.26.28.08.44.65.6.26.38.64.47-.17.83.03 1.09.3.23.26.09.05 1.03-.24.46-.04.43.28.23.08.59-.24.38.23.43-.07 1.04.2.45.1 1.78-.32.62-.04.4-.16.81.2.71.25.81.32.13.32.32.33.5.26-.03 1.62-1.01.31.04.1-.57-.4-.7z" class="cls-9"/><path d="m74.01 145.43-.09-.5.03-.44-.15-1.28.12-.45-.03-.35-.12-.2.08-.23-.08-.51-.04-.22.06-.66.06-.43-.05-.56.24-.35.48-.19.34-.06.3-.23.26-.55.42-.74.16-.44.42-.38.41.03.16-.28-.64-.7.04-.27.23-.38.66-.05.11-.34-.3-1.08-.02-.75-.82-.65-.14-.48.14-.63.06-.05-.65-.87-.69-.14-.56-.76-.98-.81-.26.55.08.35-.55.17-.32.04v.49l-.66.78-.53.03-.96.49-.31-.14-.61.29.05.55-.49.35.12.63-.79.18-.29.67.18.96.75.31.38.44.32.17.61 1.6.26 1.28-.03.84.23.47v.72l-.32.41-.03.52-.08 3.63.2.75.03.84.4.7-.1.57 1.08.14 2.08-.7.12.02-.11-.59.13-1.53z" class="cls-4"/><path d="m111.9 94.42-3.42 1.42.35.38 1.45 4.19-.06.81-.17.35 2.03 2.44-.06 1.1-.46.47-.82 5.69.12 4.42-5.03 5.12-.14.34-.32.12h-.35l-.07.38.22 3.8.4.16.79 1.02.43.72.03.03 1.5.76.68.64.16.88.24.28.13.53.35.83-.02.41-.14.3-.02.27.34.39-.24.79-.36.38.03.58.54.77.46.22.19.65.8.67.25.11-.34.23-.4-.08-.34-.19-.65-.07-.4.06-.45-.07-.53.08-.31-.11-.51.01-.46.03-.03.54-.18.29v.51l.12.34.3.22.09.33.51.19 1.13.96 1.07 1.18.46.39.45.78.53.8.02.53.33.36.11.61h.58l.5-.12.81-.02.38-.7v-.58l.34-.35.32.29.21.7.26.26.55-.09.78-.58.84-.35.76-.52 1.8-.41h.78l.41-.46.87-.58-.12-.41h-.34l-.5-.63.06-.5.41-.26.46.12.7-.09.49.2.78.12.85-.12 1.13-.15.58-.43.49-.26.15-.43-.09-.44.11-.52.44-.29-.03-.47.43-.49.24.14.32-.02.55-.88.35-.14-.03-.41.11-.4.76-.44.55-.38h.73l.37.24.79-.35.11-.27.06-.14v-.4l.26-.44-.29-.47-1.13-.28-.12-.59-.02-.78-.29-.52.23-.38-.41-.29.35-.23v-.44l-.35-.08-.72.52-.41-.41v-.67l.95-1.01.32-.49-.05-.61-.55-.32.11-.41.61-.38.32-.64-.35-.34-.03-.44.53-.52.32.03.98-1.31.35-.7-.32-.4v-.75l.55-.44h.76l.52.32.55-.35.47-.17-.22-11.95v-.01L111.9 94.42zM101.21 127.3l.26.2.45-.1.22-.44-.93.34z" class="cls-3"/><path d="M105.02 121.27h.35l.32-.12.14-.34 5.03-5.12-.12-4.42.82-5.69.46-.47.06-1.1-2.03-2.44.17-.35.06-.81-1.45-4.19-.35-.38-2.69 1.12-.5-.52-5.29-1.32h-.01l-13.56 8.4-3.74 3.42-4.62 1.11-.14 5.83-.21 2.73-.49.29-.09 1.05-.2.66-1.51.84-.9.47-.9.05-.87.58h-1.92l-.78.38-.7-.05-2.09.2-.69-.18-.21.41-.11.84-.38.61v.87l2.87 1.92.06 1.22 1.05.81 1.3-.7.32.18.09.37.23.24.06.58-.35.46.67.87.2-.02.32-.04.55-.17-.08-.35.26-.55.98.81.56.76.69.14.65.87.47-.38-.03-.33-.33-.01-.36-.86.2-.32-.12-.32.63-.64.55-.01-.03-.42-.21-.25-.13-.55.12-.23.04-.18-.12-.26.09-.31.68-.54.33-.14.24-.14.6-.13.49.03.24-.02.92.02.26-.23.49-.03.34.11.83.13.36.21.5.09.9.33.27.33.67.98.6.36.3-.11.34-.41.42-.04.45-.22.86-.16.11-.13.5.02.54.41v.24l.61.23.97.54.63.09 1.22.45.55.13.74-.5.77-1.08.64-.17 1.59.1.65-.32 1.34.17.97.46.86.03.35.25.93-.34.07-.14.64-.24.18-.36.39-.1.45.18.29-.13.1-.38.35-.55.56.21-.22-3.8.07-.38z" class="cls-9"/><path d="m91.42 151.99.32-.76-.11-.72-.03-.64.34-.23v-.44l.5-.46.52-.35.26-.32.9-.67-.06-.61.15-.32.67-.03.29-.37.14.14.81.26.32-.03.58.29.32.61.52.38.35.14.64-.37.41-.67v-.26l.23-.35.46-.14.35-.55-.03-.44.24-.73.92-.92.12-.5-.15-.43.3-.47.78-.84.61-.4.06-.64.23-.44-.12-.93.44-.4.81-.24.52-.66.12-.7V136l-.09-.47.35-.58.49-1.01.32-.27.09-.26.58-.46.35.03.41-.47.69-.31.06-.38-.22-.79-.03-.34-.21-.5-.54-.14-.26-.54.03-.92-.07-.46-.28-.75-.03-.03-.43-.72-.79-1.02-.4-.16-.56-.21-.35.55-.1.38-.29.13-.45-.18-.39.1-.18.36-.64.24-.29.58-.45.1-.61-.45-.86-.03-.97-.46-1.34-.17-.65.32-1.59-.1-.64.17-.77 1.08-.74.5-.55-.13-1.22-.45-.63-.09-.97-.54-.61-.23v-.24l-.54-.41-.5-.02-.11.13-.86.16-.45.22-.42.04-.34.41-.3.11-.6-.36-.67-.98-.27-.33-.9-.33-.5-.09-.36-.21-.83-.13-.34-.11-.49.03-.26.23-.92-.02-.24.02-.49-.03-.6.13-.24.14-.33.14-.68.54-.09.31.12.26-.04.18-.12.23.13.55.21.25.03.42-.55.01-.63.64.12.32-.2.32.36.86.33.01.03.33-.47.38-.06.05-.14.63.14.48.82.65.02.75.3 1.08-.11.34-.66.05-.23.38-.04.27.64.7-.16.28-.41-.03-.42.38-.16.44-.42.74-.26.55-.3.23-.34.06-.48.19-.24.35.05.56-.06.43-.06.66.04.22.08.51-.08.23.12.2.03.35-.12.45.15 1.28-.03.44.09.5-.13 1.53.11.59 1.18.25.96-.39 2.22 1.17 1.24 1.21.75 1.46-.03.96.42.21.34 1.05.77.7 1.1.3 2.93-.16.59-.36.44.18 1.39-.51.46.21.77-.16.3-.84.55.57.23-.14.02.01.02-.38.78-.9z" class="cls-7"/><path d="m84.03 166.67.08.55.24.05.34-.22.22-.44-.53-.32-.35.38z" class="cls-9"/><path d="m91.32 156.63-.06-.86-.21-.21-.64.66-.23.7-.39.03-.05.46.57.31.57.09.44-1.18z" class="cls-3"/><path d="m94.78 160.88.18.13 3.59-.02v.01l.1-.13.26-.12.3.02.31-.16.85.04.25-.08.94.05.28.1.49-.1h.43l.06.13.76.06.15-.08.25-.02.19.24 3.84.07.34.15.15-.16h.24l.34.35.29-.09.36.1.2.25.31-.06.09-.2.22.06.43.32.26-.09h.66l.24.12.27.08.23-.04.08.18.36-.07.07-.28-.28-.5.13-.23.32-.5.19-.42.08-.12-.08-.07-.13-.2.01-.48-.08-.62-.96-.74-.36-.35-.46-.89-.74-1.09-.19-.64-.48-.6-.87-.42-.29-.22v-1.22l-.07-.67-.25-.79.13-.74-.25-.8-.08-.64.27-.41.34-.13.59-.83.34-.74.55-1.04.28-.61.43-.17.56-.77-.01-.2-.02-.53-.53-.8-.45-.78-.46-.39-1.07-1.18-1.13-.96-.51-.19-.09-.33-.3-.22-.12-.34v-.51l.18-.29.03-.54.46-.03.51-.01.31.11.53-.08.45.07.4-.06.65.07.34.19.4.08.34-.23-.25-.11-.8-.67-.19-.65-.46-.22-.54-.77-.03-.58.36-.38.24-.79-.34-.39.02-.27.14-.3.02-.41-.35-.83-.13-.53-.24-.28-.16-.88-.68-.64-1.5-.76.28.75.07.46-.03.92.26.54.54.14.21.5.03.34.22.79-.06.38-.69.31-.41.47-.35-.03-.58.46-.09.26-.32.27-.49 1.01-.35.58.09.47v.78l-.12.7-.52.66-.81.24-.44.4.12.93-.23.44-.06.64-.61.4-.78.84-.3.47.15.43-.12.5-.92.92-.24.73.03.44-.35.55-.46.14-.23.35v.26l-.41.67-.64.37-.35-.14-.52-.38-.32-.61-.58-.29-.32.03-.81-.26-.14-.14-.29.37-.67.03-.15.32.06.61-.9.67-.26.32-.52.35-.5.46v.44l-.34.23.03.64.11.72-.32.76-.78.9-.02.38.41.2.48-.26.37 1.86.52.06.28.32.89-.38.45.73-.2.38v.85l.55.78.11 1.16-.41 1.05.43.46-.47.48.39-.08h.36z" class="cls-9"/><path d="m98.45 178.34.28-.15.56-.02.17-.32h.23l.84.67.04-.53-.06-1.51-.53-.38-.29-.23-.46.12-.47.15.09-.59-.23-.43.29-.29.64-.09.58.35.29-.23.15-.35h.46l1.07-.06.15-.49-.12-.73.29-.35.58.06.49 1.22.41.49.73-.2.38.09.34-.23.64-.03.61.26.17.41h.3l.02-.56-.14-.55.75-2.21.29-1.21.03-.61-.3-.31-.15-.36-.46-.38-.11-.26-.35-.17-.12-.26-.2-.24v-.22l.34-.14.15-.18.19-.02-.14-.43-.16-.18.04-.41.64-.36.55-.12.09-.57-.19-.32.22-.38-.06-.9-.33-.23-.96-.02-.66.25-.67.18-.42-.12-.48.26-.29-.16.12-.37-.18-.49.08-.75-.21-.59.15-.61h.02l-.19-.24-.25.02-.15.08-.76-.06-.06-.13h-.43l-.49.1-.28-.1-.94-.05-.25.08-.85-.04-.31.16-.3-.02-.26.12-.1.13v3.59l-4.13-.04-.17-.13-.34.07-.38.26-.36-.07-.04.71-.64.1.6.95.93.23-1.32.32-.34-.34-.1.84-.13 1.67-.57.48-.73-.25-.05.32.64 1.33.34.27v.48l.55.71v.91l.46.46.32.71.77.64-.23.16.83.87 1.37 1.09.27.66 1.1.53.09.5.53.21.13.13.44-.62.06-.41z" class="cls-8"/><path d="m93.91 164.49.34-.07.17.13 4.13.04V160.99l-3.59.02-.18-.13h-.36l-.39.08-.12.11.23.53-.96 1.07-.76 1.44.76.39-.01.18.36.07.38-.26z" class="cls-7"/><path d="M101.08 182.07h.2l.48-.26.18-.55.43-.08.51-.42h.27l.32.27.28.4.02.49.09-.08.37.03.44-.22.18.32-.02.27.57.01.35-.4.01-.66.42-.04.41.12.62-.54.94-.31-.05.29-.35.67.15.14.18.51.71.42.72-.31.43-.65 1.25-1.2.19-.46.48-.32.54-.13.51-.81-.03-.54.2-.83.11-1.65-.17-.24-.13-.86.34-.64.91-.96.01-.66.58-.72.71-.49.38.13.53-.41.58-.17.96-1.58.02-1.02.26-1 .44-.2.09-.85-.14-.17.18-.92-.09-.37.09-.89.43-.57.05-.67.17-.65-.26-1.05 1.31-1.67.13-.55.58-.3-.02-1.22-.28-.59.01-.16-.35.09-.3.12-.55-.31-.2-.25H118.56l-.32.22-.48-.04-1.3.52-.25.32-.52.12-.75.72-1.43 2.38-.19.42-.32.5-.13.23.28.5-.07.28-.36.07-.08-.18-.23.04-.27-.08-.24-.12h-.66l-.26.09-.43-.32-.22-.06-.09.2-.31.06-.2-.25-.36-.1-.29.09-.34-.35h-.24l-.15.16-.34-.15-3.86-.07-.15.61.21.59-.08.75.18.49-.12.37.29.16.48-.26.42.12.67-.18.66-.25.96.02.33.23.06.9-.22.38.19.32-.09.57-.55.12-.64.36-.04.41.16.18.14.43-.19.02-.15.18-.34.14v.22l.2.24.12.26.35.17.11.26.46.38.15.36.3.31-.03.61-.29 1.21-.75 2.21.14.55-.02.56h-.3l-.17-.41-.61-.26-.64.03-.34.23-.38-.09-.73.2-.41-.49-.49-1.22-.58-.06-.29.35.12.73-.15.49-1.07.06h-.46l-.15.35-.29.23-.58-.35-.64.09-.29.29.23.43-.09.59.47-.15.46-.12.29.23.53.38.06 1.51-.04.53-.84-.67h-.23l-.17.32-.56.02-.28.15-.06.41-.44.62.6.58.2.38.92.58.02.54.48.53-.02.59.34.38.3-.17.29-.71z" class="cls-4"/><path d="m102.01 184.76.34-.34-.05-1.1.24-.31.64-.55.59-.54-.02-.49-.28-.4-.32-.27h-.27l-.51.42-.43.08-.18.55-.48.26h-.2l-.29.71-.3.17.37.4.2.87-.34.64.16.35.56-.37.57-.08z" class="cls-3"/><path d="m179.1 178.28-.12-.38.15-.28-.61-1.02-11.09-6.47-.85.04-4.17.23-1.16.06-3.68.02-.26.26-.28-.06-.17.23.34.53.38.3.08.37.26.4.24.88.09.6-.17.42-.11.39-.24.25-.32.19-.34-.07-.11-.14v.29l.17.26v.41l.44.23.11.38.38.06.17.9-.05.43-.5.5-.4.43-.35.29-.79.87-.52.75-1.01.27-1.52-.03.39 2.56.72 3.56 2.13 2.94.74 2.39 1 .49h.44l.45.17h.31l.44.31.04.23.37.35.57.02 1.37.48h.32l.27.26.39.07.19.48.55.58h.24l.01.04.14-.1.29.03.18.34.36.05.17.2.18-.12.34.05.2.16.22.05.13.2.33.2.33.32 1.02 1.11.15 1.15-.05 5.08.59-2.14 2.89-.04.5-.11.13-.22.44-.08.02.26.39.11.37.26.4.04.3.33-.09.26.9-.26.65-.46.33-.09.23-.19.35.15.05.19.39.03.37.23.63-.23.85-.07.22-.45-.16-.35.22-.2.55.18.41-.09.41.3.55-.06.28-.24 1.13-.35.44.17.48-.15.21-.26.7-.09.41-.43.64-.09.45-.37.35-.48.57.15.26-.3.1-.05-.08-.05v-.3l-.65-.55-.78-.11-1.07-1.04.1-.45-.31-.9-.28-.34.29-.49-.35-.31-.12-.59-.19-.37.17-.05-.33-.79-.1-.68.41-.33.08-.71-.46-.45-.05-1.11.18-.73.36-.24.25.08.18-.35-.4-1.12-.4.06-.64-.72-.85-.74-.04-.69.51-1.27.64-2.01.21-.3-.06-.46-.15-.17h.12l-3.76-2.65-.26-.32z" class="cls-7"/><path d="m156.27 170.87-.01.42-.22.21h-.44l-.24-.24-.34-.16-.49.4-.5.1-.16-.07-.65.6-.57.67-.45 1.83-.07.47.27-.07h.52l.32.12.23.49.53.2.17-.2.2-.06.29.29.61-.2v-.29l.38-.93-.06-.55h.26l.26.23.35.06.15.46.35.21v.17l.11.14.34.07.32-.19.24-.25.11-.39.17-.42-.09-.6-.24-.88-.26-.4-.08-.37-.38-.3-.34-.53-.09-.13-.5.09z" class="cls-3"/><path d="m156.61 174.65-.15-.46-.35-.06-.26-.23h-.26l.06.55-.38.93v.29l-.61.2-.29-.29-.2.06-.17.2-.53-.2-.23-.49-.32-.12h-.52l-.27.07-.04.34.39.63.07.67v.79l.54 3.54 1.52.03 1.01-.27.52-.75.79-.87.35-.29.4-.43.5-.5.05-.43-.17-.9-.38-.06-.11-.38-.44-.23v-.41l-.17-.26V174.86l-.35-.21z" class="cls-4"/><path d="m102.39 185.84.09-.15h.24l.19-.09.53-.15.48-.11.45.05.42.04h.61l.69-.02.9-.04.47.04.96.04 1.05-.08h2.13l3.15.01v.44l-.07.13.1.35.24.33.06.37-.15.28v.44l.33.54.17.72.11.26.02.35.26.19.26.4.4.56.17 1.09.33.17.8-.04.57-.11.33.11 1.04.07.39-.22 2.29-.15-.02-.83-.09-.59.26-.13.22-.48.08-.87 2.94-.04.02-.29.92.09-.02.35-.2.33.09.3 3.52.26.06.37-.03.46v.44l-.26.49-.11.51.32.47v.44l-.15.22-.07.21.13.38.09 1.08-.24.61.15.26.03.31.26.37v.33l.19.13.2.37.24.04.04.37-.11.39v.33l.4.37v.32l-.16.2.11.61.36.28-.18.46.04.16-.22.18-.01.59.09.22.33-.05.19-.2.26-.09.16-.11h.3l.42.31.33.1.78.03.28.05.32-.07.28-.11.52-.25.48-.19.56-.07v.07l.24.19h.35l.49.15.14.19.03.55.11.19.2.08.32-.31.42-.18.46-.02.19-.2.79-.24.18.06.04.6.15.28.06.43-.04.22.23.01.59.27.29.03.71.43.59.1.71.16.05.18h.48l.92-.31.03-.29.29-.8.39-.07.27-.14.25.08v.86l.45.54.07.33.74.41 1.11.37.67.44.64.85.54.48.59.69.65.59h.37l.5-.13.46-.17.22.04.04.17.5.09.15-.26-.15-3.2-.39-.15-.65.11.06.34.17.29-.15.09-1.24-.03-.28-.37-.17-.47-.81-.88-.39-.3-.05-.79-.04-1.67.07-.42.59-.54.19-.3-.11-.2.24-.13.09-.63-.07-.46.06-.41-.06-.41.2-.2.03-.35-.29-.16-.34-.32-.16-.67 1.23-2.36 4.93-1.19.43.21-.74-2.39-2.13-2.94-.72-3.56-.39-2.56-.54-3.54v-.79l-.07-.67-.39-.63.04-.34.07-.47.45-1.83.57-.67.8-.74-.08-.7.39-1.09.09-1.1.02-.79.22-.37 1.17-2.11.26-.46.96-1.06 1.55-2.07.06-.34-.23-.5-.3-.39-.34-.24.07-.77.17-1.03v-.85l.31-.4.15-.55-.22-.14-.75.01-.12-.01-.06-.33-.17-.44-.18-.24-.23-.51-.32-.29-.79-.26-.17-.26-.33-.4-.38-.76-.24-.15-.67-.04-.33.4-.26.32-.63.18-.26-.01-.08-.17-.39-.02h-.72l-.37.2-.23.38-.34.1-.6-.23-.61-.51-.35-.38-.34-.1-.33-.38-.09-.48-.1-.03-.11-.04-.56-.33-.68-.06-.94.42-.18-.1-1.13-.01-.43-.29-.44-.07-.3-.16-.35.03-.64-.1-.28-.27-.46.03-.03.23.13.21-.4.58-.35.01-.41.08-.73.04-.37.26-.26-.01-.13-.35-.22-.04-.07-.22-.4-.04-1.25.55-.47.19-.23.28-1.3.15-.39.17-.34-.37-.57-.12-.61-.02-.43.55-.47.49.05.34.32.26-.11.24-.71.16-.28-.17-.72-.14-.55-.21-.39-.01-.38.17-.42-.07-.74-.05-.61-.34-.67.04-.18-.17-.8-.68-.46-.17-.87-.74-.35-.05-.46-.34h-.3l-.09.28-.52-.07-.44.44h-.37l-.21.2-.07.41-.28.35v.32l-.24.22-.41.02v.35l.47.63-.19.26-.16.44-.04.65.28.59.02 1.22-.58.3-.13.55-1.31 1.67.26 1.05-.17.65-.05.67-.43.57-.09.89.09.37-.18.92.14.17-.09.85-.44.2-.26 1-.02 1.02-.96 1.58-.58.17-.53.41-.38-.13-.71.49-.58.72-.01.66-.91.96-.34.64.13.86.17.24-.11 1.65-.2.83.03.54-.51.81-.54.13-.48.32-.19.46-1.25 1.2-.43.65-.72.31-.71-.42-.18-.51-.15-.14.35-.67.05-.29-.94.31-.62.54-.41-.12-.42.04-.01.66-.35.4-.57-.01.02-.27-.18-.32-.44.22-.37-.03-.68.62-.64.55-.24.31.05 1.1-.34.34-.57.08-.56.37.16.36.87.02.36.27h.06l.06-.02z" class="cls-8"/><path d="m164.4 196.61.15.42.42.25.37.13-.02.21-.34.77.07.29.51.37.17.45.04.63-.16.21v.18l-.67.7-.1.5.2.52.05.46.11.36-.24.39.27.47-.12.32-.15.14.13.4.04.28.33.21.04.23-.28.07-.16.31-.43.2-.66.49-.13.24.02.42.09.25-.1.32v.43l-.46.53-.32.17.1.28.42.51.26.58.06.29.8-.19.2.32.11.29.26.3.04.37.5.31.24-.14h.37l.27-.28.63-.02.8.19.28.49v.82l-.06.7-.63.67-.16.7-.39.55.07.5.26.67.06.48.52.63.51.48.39.22.35.28.39.55-.2.36.16.44.58-.13.13-.59-.21-.72.3-.52.09-.57.3-.8.61-.18.42-.34.19-.48.02-1.11-.3-.35.06-.28-.15-.22.11-.24.33-.04.13-.31.39-.13-.02-.33-.2-.41-.26-.74-.7-.94-.19-.48-1.02-1.02-.31-.06-.22-.31-.43-.41-.96-.5-.5-2.79.15-.56.05-5.08-.15-1.15-1.02-1.11-.33-.32-.33-.2-.13-.2-.22-.05-.2-.16-.34-.05-.18.12-.17-.2-.36-.05-.18-.34-.29-.03-.14.1.17.44.2.17z" class="cls-9"/><path d="m151.71 193.5-1.23 2.36.16.67.34.32.29.16-.03.35-.2.2.06.41-.06.41.07.46-.09.63-.24.13.11.2-.19.3-.59.54-.07.42.04 1.67.05.79.39.3.81.88.17.47.28.37 1.24.03.15-.09-.17-.29-.06-.34.65-.11.39.15.15 3.2-.15.26-.5-.09-.04-.17-.22-.04-.46.17-.5.13h-.37l-.65-.59-.59-.69-.54-.48-.64-.85-.67-.44-1.11-.37-.74-.41-.07-.33-.45-.54v-.86l-.25-.08-.27.14-.39.07-.29.8-.03.29-.92.31h-.48l-.05-.18-.71-.16-.59-.1-.71-.43-.29-.03-.59-.27-.23-.01.04-.22-.06-.43-.15-.28-.04-.6-.18-.06-.79.24-.19.2-.46.02-.42.18-.32.31-.2-.08-.11-.19-.03-.55-.14-.19-.49-.15h-.35l-.24-.19.01.12-.03.21-.15.23.19 1.26-.04 1.09v.66l.35.56.02.5-.24.24-.15.85.19.33h-6.48l-.2 10.05.13.4.42.5.34.32.27.33.39.22.61.74.39.35.45.17.22.33.37.43.37.18.18.47 2.85-.64.31.03.69-.17.19.1h.14l.2.16.33-.01.16.11.15.05.43.52.31.03.72.08.55.28.29.24.3.02.53-.38.68-.07.3.14.14-.02.18.08.07.04.45.35.57.13.82-.27.89-1.28 1.42-1.78 1.78-1.2 1.03-.36.25-.21.05-.22-.06-.27.15-.3-.09-.28.25-.44.84-.44.48-.14.41-.2.62-.23.83.02.14.18.31-.05.63.09.25-.04.11-.01-.02-.32-.23-.93.26-.46 1.17-.61h.63l3.07-1.28.55-.11 1.8-.73.89-.29.03-.01-.06-.29-.26-.58-.42-.51-.1-.28.32-.17.46-.53v-.43l.1-.32-.09-.25-.02-.42.13-.24.66-.49.43-.2.16-.31.28-.07-.04-.23-.33-.21-.04-.28-.13-.4.15-.14.12-.32-.27-.47.24-.39-.11-.36-.05-.46-.2-.52.1-.5.67-.7v-.18l.16-.21-.04-.63-.17-.45-.51-.37-.07-.29.34-.77.02-.21-.37-.13-.42-.25-.15-.42-.2-.17-.17-.44-.01-.04h-.24l-.55-.58-.19-.48-.39-.07-.27-.26h-.32l-1.37-.48-.57-.02-.37-.35-.04-.23-.44-.31h-.31l-.45-.17h-.44l-1-.49-.43-.21-4.93 1.19z" class="cls-3"/><path d="m99.37 220.59.16.12.26-.1.1-.37.17-.1.76.11.41.24.26-.21.09-.43.87-.61.4-.02.47.21.15.11.18-.17.23-.08.39.21.05.19.34.14-.06.27.19.11.66.58.66.25.5-.26.12.02.41-.28.31-.03.18.12 11.31-.01.19.12.3.58.24.22.6.26.65.15.45-.07.34.14.09.18.41.18.43-.27.53-.14.75.2.41-.06.08-.35.17.09.35.02.66.62.5.22.64.03.23-.12.02-.21.34-.09.3.08.22.16.25-.1.18.22.23.02.15.08.27.02.25-.02h.19l4.75-1.07-.18-.47-.37-.18-.37-.43-.22-.33-.45-.17-.39-.35-.61-.74-.39-.22-.27-.33-.34-.32-.42-.5-.13-.4.2-10.05h6.48l-.19-.33.15-.85.24-.24-.02-.5-.35-.56v-.66l.04-1.09-.19-1.26.15-.23.03-.21-.01-.12v-.07l-.56.07-.48.19-.52.25-.28.11-.32.07-.28-.05-.78-.03-.33-.1-.42-.31h-.3l-.16.11-.26.09-.19.2-.33.05-.09-.22.01-.59.22-.18-.04-.16.18-.46-.36-.28-.11-.61.16-.2v-.32l-.4-.37v-.33l.11-.39-.04-.37-.24-.04-.2-.37-.19-.13v-.33l-.26-.37-.03-.31-.15-.26.24-.61-.09-1.08-.13-.38.07-.21.15-.22v-.44l-.32-.47.11-.51.26-.49v-.44l.03-.46-.06-.37-3.52-.26-.09-.3.2-.33.02-.35-.92-.09-.02.29-2.94.04-.08.87-.22.48-.26.13.09.59.02.83-2.29.15-.39.22-1.04-.07-.33-.11-.57.11-.8.04-.33-.17-.17-1.09-.4-.56-.26-.4-.26-.19-.02-.35-.11-.26-.17-.72-.33-.54v-.44l.15-.28-.06-.37-.24-.33-.1-.35.07-.13v-.44l-3.15-.01h-2.13l-1.05.08-.96-.04-.47-.04-.9.04-.69.02h-.61l-.42-.04-.45-.05-.48.11-.53.15-.19.09h-.24l-.09.15-.06.02h-.06l-.87.48.32.39v.44l1.67 1.87.06 2.35.92 1.29-.14 1.18-.96 1.24.55.27v1.1l.46.73v.78l1.14 1.88-.05.5.37.46v2.65l-1.19 2.25h-.37l-1.32 1-.05.73-1.65 1.47-.04 1-.28.24v2.42l-.73.96-.18 1.15-.83 1v1.1l-.13.96.04 1.47-.13.95.01.31h.01l.47.11z" class="cls-9"/><path d="m155.4 215.38-.63-.09-.31.05-.14-.18-.83-.02-.62.23-.41.2-.48.14-.84.44-.25.44.09.28-.15.3.06.27-.05.22-.25.21-1.03.36-1.78 1.2-1.42 1.78-.89 1.28-.82.27-.57-.13-.45-.35-.07-.04-.18-.08-.14.02-.3-.14-.68.07-.53.38-.3-.02-.29-.24-.55-.28-.72-.08-.31-.03h.02l.12.3-.08.26.07.22.02.32.43.34.21.23.39.25.24.34.08.3.16.11.29.51.13.52.29.3.14.43.34.28.14-.02.24.42.86 1.32.59.36.52.39.3.28.4.24.01.16-.03.2.12.29.52.21.48.35-.15.39.13.7.04.48.2.5.56.43.31.5.67.13.35-.13.78.26.42.03.56.37.39.02.29.24v.32l.22.27.25.3 1.01-.15.7.12.21.41.47-.04.64.31.21.2.43-.18.83-.12 1.02.21.48.4 3.34-3.31.05-1.03.15-.35.02-.91.22-.37-.17-.5.08-.41.42-.05.19-.35.59-.45.39-.55-.15-.43-.35-.29v-.58l.35-.22-.15-.5-.5-.44v-.37l.37-.13.06-.61v-.52l.46-.33.22-.45-.5.08-.24-.28.32-.52.07-.92.24-.43.02-.37-.07-.37.09-.44-.09-.43.29-.46-.05-.52-.67-.05-.33-.39-.54-.43-.94-.11-.54-.07-.52-.72-.85-.45-.83-.22-.2.3-.34.07-.16-.3-.43-.09-1.07-.05-.07-1.07-.11.01-.25.04z" class="cls-4"/><path d="M151.11 234.99v-.32l-.29-.24-.39-.02-.56-.37-.42-.03-.78-.26-.35.13-.67-.13-.31-.5-.56-.43-.2-.5-.04-.48-.13-.7.15-.39-.48-.35-.52-.21-.12-.29.03-.2-.01-.16-.4-.24-.3-.28-.52-.39-.59-.36-.86-1.32-.24-.42-.14.02-.34-.28-.14-.43-.29-.3-.13-.52-.29-.51-.16-.11-.08-.3-.24-.34-.39-.25-.21-.23-.43-.34-.02-.32-.07-.22.08-.26-.12-.3h-.02v.01l-.63.17-.97.35-.38.26-.38-.05-.16-.24-.65.08-.6.62-.58.73-.99.7-.25-.06.05-.41.17-.22-.22-.22-.17-.42-.18-.12-.13.06-.41.05-.89.26-2.91.68-2.27-.1-.54 10.85-2.67.06-.54 9.52-.01.07.02.03v-.04l1 .74.3.83.79 1.7-.02.83-.44.96-.02.58.8-.11.81.15.48-.21.72.11.47-.33.64-.15.58-.46.22-.37 1-.39.55-.59.48-1.2.8-.72.74-.08 1.02.15.31.39.35.02 1.11.63.48-.08.52.17.63-.15h.72l.48-.07.24.31.37.15.67-.43-.17-.24.17-.55v-.37l.28-.3-.04-.81.26-.5.63-.11.42-.28.41-.05.18-.27.2-.14.15-.4.43-.35.32-.09.2-.25.41-.09v-.47l-.15-.24.09-.74.81-1.09.43-.2.31-.08.23-.29.44-.15.13-.28.37-.22.3-.3.66-.55.61-.11.19.13.29-.06.5-.02.41-.4.44-.08.17-.47-.07-.3.32-.27.53-.02.28-.22.37-.05-.25-.3-.22-.27z" class="cls-9"/><path d="M113.17 255.67v-.37l-.2-.17.31-.54.74-.29.34.63.59.02-.26.66.44.89 1.02.22.65.35.48-.11.33.13.52.08.24-.23h.46l.21.41.44-.07.37.09.02-.63.26-.26.37-.13.29-.59.8-.41.96.06h.3l.42-10.91-.02-.03.01-.07.54-9.52 2.67-.06.54-10.85 2.27.1 2.91-.68.89-.26.41-.05.13-.06.18.12.17.42.22.22-.17.22-.05.41.25.06.99-.7.58-.73.6-.62.65-.08.16.24.38.05.38-.26.97-.35.63-.17-.43-.53-.15-.05-.16-.11-.33.01-.2-.16h-.14l-.19-.1-.69.17-.31-.03-2.85.64-4.75 1.07h-.19l-.25.02-.27-.02-.15-.08-.23-.02-.18-.22-.25.1-.22-.16-.3-.08-.34.09-.02.21-.23.12-.64-.03-.5-.22-.66-.62-.35-.02-.17-.09-.08.35-.41.06-.75-.2-.53.14-.43.27-.41-.18-.09-.18-.34-.14-.45.07-.65-.15-.6-.26-.24-.22-.3-.58-.19-.12-11.31.01-.18-.12-.31.03-.41.28-.12-.02-.5.26-.66-.25-.66-.58-.19-.11.06-.27-.34-.14-.05-.19-.39-.21-.23.08-.18.17-.15-.11-.47-.21-.4.02-.87.61-.09.43-.26.21-.41-.24-.76-.11-.17.1-.1.37-.26.1-.16-.12-.47-.11h-.01l.17 2.58 1.78 1.83.97 1.65 1.49 3.35.23 1.35 1.51 2.15v.84l1.6 2.31v1.26l-.39.16.43 1.55.09 2.33.89 2.38-.09 1.28.28.87-.44.27.37.46.22 1.58.41.22.27.53-.32.25v.62l.48.52.06 1.17.55.75.73 1.44.73.73.16.41 1.03.74.44-.26.63-.13z" class="cls-7"/><path d="m210.73 208.36.14-.17-.13-.25-.08.17.07.25zM214.02 218.97l-.17.29-.04.4.01.4.26-.58.2-.35.16-.52-.24.35-.18.01z" class="cls-9"/><path d="m215.23 213.27-.15-.54.17-.28v-.65l-.19-.83.14-.32.07-1.55-.46-.59-.06-1.34-.22-.47-.24.09-.53-.67-.07-.6-.52-.23.3-.62-.21-.6-.77.71.19.4-.52.36-.52-.35-.33.02.49.66.01.39.37.37v.18l-.6.56v.9l-.37.59-.4-.13-.51.57-.07.5-.39.28-.33-.2-.06-.65-.27-.14-.39.38-.05.72.6.6.15.26-.23.22-.3-.09-.68.12.15.58.59.17.08.37-.26.32-.28-.33-.46.17-.1.35-.83.71-.02-.66.14-.19-.21-.36-.56.53.35.2-.12.26-.71.41.27.57.4.13-.03.29-.38.1-.49.34-.07-.39-.28-.06.28-.48-.26-.19-1.11.93-.17.88.14.34-.17.38-.38-.13-.25-.21.01-.79-.28-.04-.71.74-.77-.55-.16.23-.27.04.1.86-.24-.06-.2.08-.02-.46-.29-.16-.33.49-.31-.49-1.2 1.11-.32.03-.24-.23-.61-.01-.28.42.12.94-.9 1.39.03.26-.85.9v.46l.47.38-.4.57.28.87-.03.74.83 1.61-.06.44.53.58.01.26-.41.42.13.41-.28 1.39-.6.39-.16.79-.36.07-.18.51-.54.44-.06 1.13-.37.41-.87.21-.22.28.07.98-.66.69.07.8-.2.48.14.37.03.95.78.95-.12.68.14.44.39.22.2-.05-.19.19-.6.15.03.63.09.98-.09 1.27.22.25.03.41.34.2.4.62.33.18.26.41.4.47.42-.15.15.21.48.11.51.67.38.08.01.27.16.14.39-.25.63.06.72-.43.58-.68 1.89-.18.59.14.99-.39.27-.53.48-.07.32-.95.48-.77.02-.55.6-.36-.05-.92-.15-.12.42-.32.26-1-.07-.16h.22l.57-.89.42-2.04.32-1.1.47-.47.26-1.22.82-1.46.79-2.45.55-.83v-1.1l.6-1.11.1-.42.68-1.1.35-1.68.29-1.23.27-.32.16-.89-.26-.44.16-.77.63-.86-.08-.42.43-.52-.1-.72-.25-.25.27-.51-.05-.74-.22-.16-.01-.72.39-.19.3.23.13.63.51.68.37.09.22-.39.03-.52.16-.19.07-.54.22-.2-.04-.62-.59-.8z" class="cls-9"/><path d="m211.22 206.62.01-.22-.51.52.14.25.36-.55zM210.12 208.73l.12-.57-.33-.2-.1-.12-.11.11-.3.47.41.02.31.29z" class="cls-9"/><path d="m186.57 199.88-.57-.15-.35.48-.45.37-.64.09-.41.43-.7.09-.21.26-.48.15-.44-.17-1.13.35-.28.24-.55.06-.41-.3-.41.09-.55-.18-.22.2.16.35-.22.45-.85.07-.63.23-.37-.23-.39-.03-.05-.19-.35-.15-.23.19-.33.09-.65.46-.9.26.09-.26-.3-.33-.4-.04-.37-.26-.39-.11-.02-.26-.44.08-.13.22-.5.11-2.89.04-.74 2.7.5 2.79.96.5.43.41.22.31.31.06 1.02 1.02.19.48.7.94.26.74.2.41.02.33-.39.13-.13.31-.33.04-.11.24.15.22-.06.28.3.35-.02 1.11-.19.48-.42.34-.61.18-.3.8-.09.57-.3.52.21.72-.13.59-.58.13-.16-.44.2-.36-.39-.55-.35-.28-.39-.22-.51-.48-.52-.63-.06-.48-.26-.67-.07-.5.39-.55.16-.7.63-.67.06-.7v-.82l-.28-.49-.8-.19-.63.02-.27.28h-.37l-.24.14-.5-.31-.04-.37-.26-.3-.11-.29-.2-.32-.8.19-.03.01-.89.29-1.8.73-.55.11-3.07 1.28h-.63l-1.17.61-.26.46.23.93.02.32.07 1.07 1.07.05.43.09.16.3.34-.07.2-.3.83.22.85.45.52.72.54.07.94.11.54.43.33.39.67.05.05.52-.29.46.09.43-.09.44.07.37-.02.37-.24.43-.07.92-.32.52.24.28.5-.08-.22.45-.46.33v.52l-.06.61-.37.13v.37l.5.44.15.5-.35.22v.58l.35.29.15.43-.39.55-.59.45-.19.35-.42.05-.08.41.17.5-.22.37-.02.91-.15.35-.05 1.03-3.34 3.31.09.08.18.83.17.79.36.74.03 1.41-.06.17.02.58.2.58.18.69-.02 2.35-.22.94-.05.87-.02 1.02.05.08.32.18.31.34.29.38-.1.22-.05.4-.14.51.06.23.28-.06 1.05.25.6-.02.02-.47.3-.5.12-.85-.02-.28-.19.03-.14.51-.43-.13-.28.35.04-.53-.3-.56-.12-.16.28-.2.31.01.21-.73.39-.31.23-.37.77-.19 1.02-.97 2.65-.52 1.96-.89 1.11-1.18.18-.77.37-.57-.1-.35-.46.28-.11-.53h.16l.04-.61.28-.35v-.5l.36-.96-.13-.11.04-.82.26-.32.03-.82-.15.02-.04-.64-.35.73v.52l-.21.04-.17-.66.14-1.89-.35-.67-.03-.7-.32-.53-.29-.14.39-.31-.03-.42-.86-1.16.32-.48-.09-.46.22-.29.03-.48-.3-.35v-.25l.32-.05.57.37.3-.39h.73l.52-.39-.09-.68 1.62-1.08.7-.03-.03-.42.28-.09.33-.27.02-.31 1.22-.72.11-.46.35-.09.13-.78.22.48.36-.16.74-.9.01-.38.3.19 1.22-.79.87-.41.04-.16.74.09 1.92-1.02.16-.44.3-.02 2.01-1.1-.05-.57.5-.07.6-.82v-.37l.66-.84.39-.07.07-.62.27-.39-.39-.04-.13.11-.12-.16.44-.43h.39l.09-.3-.2-.27.32-.16.31-.44-.14-1.18-.15-.12-.61-.02-.16-.22.02-.17.46-.07-.01-1.35-.17-.26.12-.01.22-1.49-.11-.8.31-.31-.02-.76-.17-.18v-.78l.18-.18-.34-.64-.14-1.07.23-.23-.04-.19-.12-.22.07-.32.62-.89-.16-.14.16-.37.11-.71-.22-.13-.1.05-.26.3z" class="cls-8"/><path d="m157.94 247.56-.48-.42-.76-.44-.52.27-.13.59-.74 1.37-.26.72.17.36.33.31.35.63.98.55 1.16.06.47-.17.16-.52-.06-.46.36-.25.21-.05-.06-.23.14-.51.05-.4.1-.22-.29-.38-.31-.34-.32-.18-.05-.08-.5-.21z" class="cls-7"/><path d="m159.46 250.05-.28.06-.21.05-.36.25.05.46-.15.52-.47.17-1.16-.05-.98-.55-.35-.63-.33-.31-.17-.37.26-.72.74-1.37.13-.59.52-.26.76.44.48.41.5.22.02-1.02.04-.87.22-.93.03-2.35-.18-.69-.2-.58-.02-.58.06-.18-.02-1.41-.36-.74-.18-.79-.17-.83-.58-.48-1.01-.21-.83.12-.44.17-.21-.19-.64-.31-.47.03-.21-.4-.7-.12-1.01.15-.37.05-.28.22-.53.02-.32.28.07.29-.17.47-.44.09-.41.39-.5.02-.28.06-.2-.13-.61.11-.65.55-.31.3-.37.22-.13.29-.44.15-.24.28-.31.09-.44.2-.81 1.09-.09.74.15.24v.47l-.42.09-.2.25-.33.09-.42.35-.15.41-.2.14-.19.26-.41.06-.41.28-.63.11-.26.5.04.81-.28.31v.37l-.17.54.17.24-.67.43-.37-.15-.24-.31-.48.07h-.72l-.63.15-.52-.17-.48.08-1.11-.63-.35-.02-.31-.39-1.02-.15-.74.08-.8.72-.48 1.2-.54.59-1 .39-.22.37-.59.46-.63.15-.48.33-.72-.11-.48.22-.81-.15-.8.11.02-.57.44-.97.02-.83-.78-1.7-.31-.83-1-.74v.04l-.41 10.91h-.31l-.96-.07-.8.41-.28.59-.37.13-.26.26-.02.63-.37-.09-.44.07-.22-.41h-.46l-.24.24-.52-.08-.33-.13-.48.11-.65-.35-1.02-.22-.44-.89.26-.65-.59-.02-.35-.63-.74.28-.31.54.2.18v.37l-.63.13-.44.26h.02l.16 1 .98.71.64 1.85-.02.84.64 1.67.39 1.76.84 1.1.02.66.87 1.44-.06.46.33 1.01-.18.93-.35.39h-.27l-.3-.31-.32.3v.78l.45.78.54.48.54.97-.41.67.14.76-.21.51.03.62.39.29-.03-.56.5-.45.7.13.16.63-.25.2.28.13.43-.21.57.29.03.73.31-.18 1.5.71.29-.14.32.11.19-.43.55-.1.65-.74.73.16.15-.22.75-.04.89.32.47-.2.72-.05.18-.24.33-.27.38-.11.32.15.15-.5.48-.22h1.62l.71.39.48-.17v-.22l.92-.18 1.39.35.41.31 1.45.31.19-.19-.18-.38.42-.43.49.05.62.32 1.05-.02.04-.16-.45-.38.32-.55.76-.23.92-.03.33.25.68-.06.66-.41 1.16-.31v-.2l.73-.22.44-.49 2.07-1.33.51-.57v-.16l.38-.07 3.15-3.11.14-.24h.31l.54-.65.56-.24.16-.84.97-.92 1.26-2.1.46-.89.57-.02.34-.64v-.3l.59-.69.37-.72.73-.47.29-.35.62-.29.18-.26h.26l.83-.98.14-.54.43-.52.3-1.16.45-.91.09-.94.37-1.1-.18-.07.37-.48v-.15l-.6.01-1.05-.25Zm-9.73 9.55-.54.27.05.36.24.22-.14.48-.54.37-.36-.11-.52.1-.39.26-.53.15-.26.73-.21.25-.16.31-.55.02-.7-.28-.31-.44-.44-.37-.05-.6-.36-.41-.07-.31-.35-.35-.25-.58.41-.28.8-.62.28-.79.68-.59 1.11-.19.26-.29.38-.23.11-.24.42.02.29.21.17-.13.44.32.47-.13.66.5.48 1.17.03.73-.53.47Z" class="cls-3"/><path d="m149.76 257.22-.66-.5-.47.13-.43-.31-.18.13-.29-.21-.42-.02-.11.24-.39.23-.26.29-1.11.19-.68.59-.28.78-.8.63-.4.28.25.58.35.35.08.31.36.41.05.6.44.37.31.44.7.28.55-.02.16-.3.21-.26.26-.73.52-.15.39-.26.53-.1.36.11.54-.37.14-.48-.24-.22-.05-.36.55-.28.53-.47-.03-.73-.48-1.17z" class="cls-7"/></svg>