<svg xmlns="http://www.w3.org/2000/svg" id="Calque_1" data-name="Calque 1" viewBox="0 0 200 128"><defs><style>.cls-1{fill:#d6d6d6}.cls-1,.cls-10,.cls-13,.cls-2,.cls-3,.cls-4,.cls-5{stroke-linecap:round;stroke-linejoin:round;stroke:#000}.cls-2{fill:#b2f0e9}.cls-3{fill:#f3d587}.cls-4{fill:#e9cb61}.cls-5{fill:#fff}.cls-10,.cls-13{fill:none}.cls-10{stroke-width:.86px}.cls-13{stroke-width:.45px}</style></defs><path d="M19.66 119.95c.08-.25.13-.51.13-.78 0-1.5-1.22-2.72-2.72-2.72-1.22 0-2.25.81-2.59 1.93-.43-.02-.87.05-1.29.25a2.719 2.719 0 1 0 2.32 4.92c.04-.02.08-.05.12-.07.48.77 1.33 1.29 2.3 1.29 1.5 0 2.72-1.22 2.72-2.72 0-.84-.39-1.59-.99-2.09ZM141.17 110.79c-.12-.13-3.06-3.13-5.86-7.65-3.77-6.08-5.47-12.02-4.91-17.17.39-3.6 2.19-8.5 4.27-14.16 2.49-6.77 5.31-14.44 6.33-21.64 1.15-8.06-.21-13.98-4.15-18.09-3.73-3.9-7.78-5.87-12.04-5.87h0c-7.22 0-12.71 5.65-12.77 5.71l-1.91-1.83c.26-.27 6.34-6.52 14.68-6.52h0c5.01 0 9.7 2.25 13.95 6.69 4.54 4.74 6.13 11.38 4.86 20.3-1.06 7.47-3.93 15.28-6.47 22.18-2.02 5.5-3.77 10.26-4.12 13.53-1.19 11.1 9.92 22.56 10.03 22.68l-1.89 1.86Z" class="cls-1"/><rect width="6.01" height="14.15" x="140.12" y="103.3" class="cls-1" rx="2.21" ry="2.21" transform="rotate(-45 143.144 110.388)"/><path d="m82.69 62.73-3.92 6.33s-.47-.83-.53-.83l-.23 1.03s-.45-.13-.95-.03c-.41.1-.49-1.12-.46-1.52.09-1.19.92-4.26 1.04-4.78l-.31-4.3v-.03c-.1-.73-.18-1.27-.18-1.27l-1.16-7.02 5.34-1.23c.12 4.93.21 10.18.26 11.43.35.63.55 1.4 1.09 2.22Z" class="cls-4"/><path d="M81.34 49.08 76 50.31c-.8-4.83-1.72-10.45-1.79-10.86l-6.84-8.41 5.16-5.5s8.12 13.24 8.41 14.01c.15.36.28 4.8.4 9.53ZM93.37 108.29s-.49 5.36-.17 7.11c.04.23.14.53.25.86.33.98-.58 3.98-.58 3.98l-12.22.05c-.67 0-.22-.42.32-.81.89-.63 1.6-1.05 4.42-2.37.18-.09.86-.5 1.1-.64.61-.36 1.23-.94 1.77-1.52.89-.96 1.02-5.69 1.02-5.69l4.09-.96Z" class="cls-5"/><path d="M86.49 116.45c3.22.87 5.62.33 6.96-.19.33.98.94 4.69.57 4.69-3.07 0-5.65.18-14.43.04-.31 0-.28-1.09-.07-1.32.57-.66 6.73-3.08 6.97-3.22ZM108.7 44.6s-.17 7.66-2.37 12.56c-2.14 4.78-12.37 16.56-15.09 23.43.84 3.88 3.15 9.33 2.98 13.63-.19 4.87.09 17.76.09 17.76l-5.49.17-7.2-33.26 11.54-30.34 4.23-14.26 11.29 10.31Z" class="cls-3"/><path d="m111.07 112.79.25 4.37c.09.55.45 1.92.45 2.42 0 1.89-8.38-1.6-6.5-2.44.17-.08 1.32-1.08 1.38-1.72.09-.99.04-2.57.04-2.57l4.39-.06Z" class="cls-5"/><path d="M105.28 117.12s1.97.58 2.98.72 2.34-1.07 3.05-.74c.78.36.82 3.92.82 3.92s-10.49.34-13.59-.12c-1.22-.18 2.73-2.43 6.75-3.78Z" class="cls-3"/><path d="M63.55 26.76c-1.14-4.44 1.96-8.62 1.96-8.62s2.07-2.94 3.05-3.59c1.45-.95 3.79-3.11 9.26 1.84 3.91 3.54 20.79 13.31 29.51 23.6L91.96 51.12S78.49 41.09 76.74 39.9c-3.91-2.65-12.45-10.24-13.19-13.13Z" class="cls-2"/><path d="M68.41 23.65c3.39 3.48 14.83 2.85 17.33 2.98 1.24.06 1.63 0 3.63-2.01 6.14 4.35 13.21 9.75 17.91 15.29 0 0 4.77 6.87 4.19 12.44-.58 5.57-2.67 28.9-2.67 28.9l2.67 31.66-5.7.13s-6.21-31.66-6.1-30.85c.12.81-7.76-31.17-7.76-31.17s-13.55-9.68-15.3-10.86c-3.79-2.57-11.87-10.13-13.02-13.22 0 0 1.83-1.67 2.4-4.39s0 0 0 0l2.42 1.09" class="cls-3"/><path d="M39.07 117.81h-4l75.64-88.57 2.35 1.94-73.99 86.63z" class="cls-1"/><path d="M81.62 64.07c.38-.57 1.02-.82 1.48-.58.88.44 2.22 1.39 1.61 2.88-.88 2.15-4.77 5.12-5 4.4-.23-.72.17-5.32.96-5.69.45-.21.67-.6.95-1.02Z" class="cls-4"/><path d="M107.46 39.48c-.27.15-.44.49-.65.73-.35.4-.81.5-1.23.24-.44-.26-.87-.59-1.16-1-.23-.31-.44-.6-.74-.82-.96-.65-.92-1.64-.86-2.62.06-.8.21-1.58.56-2.31.01-.03.01-.04.01-.06-.81-.63-1.5-1.17-1.5-1.17s-2.63-2.84-5.39-5.84l3.35-3.62c2.26 3.13 4.56 6.2 6.04 7.67.1.08 1.98 1.55 2.35 1.84.65.51 2.26 2.47 2.44 2.88.36.81-2.76 3.83-3.21 4.1Z" class="cls-3"/><path d="m99.85 23.01-3.35 3.62c-2.98-3.2-6.13-6.55-6.43-6.78l-13.06.09-.26-7.27s15.49.41 16.22.77c.37.18 3.58 4.96 6.88 9.57Z" class="cls-5"/><path d="M149.88 117.93a2.51 2.51 0 0 1 2.52 2.52c0 1.39-1.13 2.52-2.52 2.52a2.522 2.522 0 0 1-2.14-3.85c.47-.74 1.27-1.19 2.14-1.19Z" class="cls-1"/><path d="M169.71 105.29c-.09.1-.19.2-.28.29.09-.1.19-.2.28-.29ZM164.54 109.52s.02-.01.03-.02h0s-.02.01-.03.02ZM168.28 106.71c-.1.1-.21.19-.32.28.11-.09.22-.19.32-.28ZM167.51 107.38c-.11.09-.23.18-.34.27.11-.09.23-.18.34-.27ZM164.57 109.49c.13-.08.25-.15.38-.23-.12.08-.25.15-.38.23h0ZM166.7 108.04c-.12.09-.24.17-.36.26.12-.09.24-.17.36-.26ZM165.85 108.67c-.12.09-.25.17-.38.26.13-.09.26-.17.38-.26ZM172.1 102.32l-.24.33.24-.33Z" class="cls-5"/><path d="M182.02 123.27c4.96 0 8.99-4.02 8.99-8.99 0-2.04-.68-3.92-1.83-5.43a8.979 8.979 0 0 0-7.16-3.56 9 9 0 0 0-7.61 4.19 8.954 8.954 0 0 0-1.33 5.84v.02c.52 4.47 4.33 7.92 8.93 7.92Z" class="cls-1"/><path d="M168.71 106.3c.1-.1.21-.2.31-.29-.1.1-.2.2-.31.29ZM170.36 104.57l-.27.3.27-.3ZM170.98 103.83c-.08.1-.17.21-.26.31.09-.1.17-.21.26-.31ZM173.09 100.82c-.07.12-.15.23-.22.35.07-.12.15-.23.22-.35ZM172.61 101.57c-.07.11-.15.23-.23.34.08-.11.15-.22.23-.34ZM171.56 103.08c-.08.11-.16.21-.25.32.08-.1.17-.21.25-.32ZM172.39 101.91c-.09.14-.19.28-.28.42.1-.14.19-.28.28-.42ZM171.87 102.65c-.1.14-.2.28-.31.43.11-.14.21-.28.31-.43ZM170.72 104.14c-.12.14-.24.29-.36.43.12-.14.24-.29.36-.43ZM170.09 104.87c-.13.14-.25.29-.39.43.13-.14.26-.29.39-.43ZM172.87 101.16c-.09.14-.17.27-.26.4.09-.14.17-.27.26-.4ZM171.31 103.4c-.11.14-.22.29-.33.43.11-.14.22-.29.33-.43ZM169.02 106.01c.14-.14.27-.28.41-.42-.13.14-.27.28-.41.42ZM166.34 108.3c-.16.12-.33.24-.5.36.17-.12.33-.24.5-.36ZM165.47 108.92c-.17.12-.34.23-.52.34.18-.11.35-.23.52-.34ZM168.71 106.3c-.14.14-.28.27-.42.4.15-.13.28-.27.42-.4ZM167.96 106.99l-.45.39.45-.39ZM167.18 107.66c-.16.13-.31.26-.47.38.16-.13.32-.25.47-.38ZM174.44 119.52h.24l-.05-.1-.14-.23c-.42-.72-.82-1.5-1.09-2.31-.03-.11-.07-.22-.09-.33-.08-.26-.13-.52-.16-.78-.03-.14-.05-.27-.05-.41v-.02a8.954 8.954 0 0 1 1.33-5.84h-25.92c-.83 1.13-1.44 2.11-1.83 2.83-.05.07-.09.16-.12.22-.05.08-.07.15-.11.22-.27.5-.41.83-.44.9v.02l-.66 3.4c0 .02 0 .05.02.06.27 1.03.99 1.72 2.15 2.05l.16.05.09-.14c.12-.19.26-.36.41-.5.15-.15.32-.27.51-.37 0 0 0 0 0 0 .37-.21.78-.32 1.22-.32.35 0 .69.07 1 .21.51.23.95.62 1.22 1.14l.07.12 22.27.12Z" class="cls-5"/><path d="m155.17 109.41 9.78-.14c.18-.11.34-.23.51-.34h0s.05-.03.07-.05c.1-.06.2-.12.3-.2.09-.05.17-.12.25-.18.09-.06.16-.12.25-.18.05-.05.12-.09.18-.13s.12-.09.17-.13c.09-.06.16-.12.24-.19.08-.07.16-.13.23-.2.05-.05.12-.09.17-.13.05-.05.12-.09.17-.14.15-.12.3-.27.45-.39.11-.11.21-.2.31-.29h0c.08-.07.14-.13.21-.2.07-.07.14-.13.21-.2.05-.05.1-.1.16-.14.05-.05.1-.1.15-.16.14-.13.27-.27.41-.41l.29-.3c.13-.14.26-.28.38-.43.09-.1.19-.2.27-.3.12-.14.23-.29.36-.44.09-.1.17-.2.26-.3.11-.15.23-.28.33-.43.08-.1.17-.21.25-.32.11-.14.2-.29.31-.42.08-.12.16-.22.23-.34.09-.13.19-.27.28-.41.04-.05.08-.11.12-.16.04-.05.07-.12.11-.17.09-.14.18-.27.26-.41.08-.12.16-.23.23-.35.07-.12.15-.25.23-.38.07-.12.15-.25.22-.37.06-.11.12-.22.2-.34.07-.14.15-.27.22-.41.03-.05.06-.1.09-.16.03-.05.05-.11.09-.16.07-.13.14-.27.21-.41l.15-.29c.07-.15.15-.29.21-.43.04-.08.07-.16.11-.24.08-.16.15-.32.22-.47.02-.06.05-.12.09-.19.07-.17.14-.34.22-.5.02-.05.03-.09.05-.13l.12-.27c.04-.09.08-.18.11-.27l.05-.14.1-.25h0l-.41.08-.12.02c-1.9.4-3.24.8-3.25.8-.23.03-.47.07-.71.1l-.15.37c-1.85 4.61-6.23 11.69-15.95 12.62ZM149.54 109.49l1.81-.02c-.61-.05-1.24-.1-1.9-.19h-.09c-.17-.03-.35-.05-.53-.08l-.12-.02c-.08.1-.15.2-.21.29-.02 0-.02.02-.02.02h0v.02l1.03-.02h.03ZM151.98 109.49c.14 0 .28.02.42.02h1.02c.15 0 .3 0 .44-.02h.12c.4-.02.8-.05 1.18-.09l-3.82.06c.2 0 .4.02.59.02h.04Z" class="cls-5"/><path d="M149.3 108.09c3.59-4.32 10.21-9.78 21.44-11.6.05 0 .09-.02.13-.02l.39-.06-.15.37c-2.17 5.44-7.88 14.29-21.66 12.5h-.08c-.17-.03-.35-.06-.53-.08l-.12-.02M148.48 109.51v-.02h0v.02ZM164.76 109.38c-.05.03-.12.07-.17.11h9.82c1.6-2.52 4.41-4.2 7.61-4.2 2.93 0 5.52 1.4 7.16 3.57v-9.7c-.07-1.3-.59-2.33-1.54-3.07-2.58-1.97-7.8-1.49-11.87-.69l-.11.25-.05.14c-.03.09-.07.18-.11.27-.04.09-.07.18-.11.27-.02.04-.04.09-.05.13-.08.16-.15.33-.22.5a155.117 155.117 0 0 1-.31.66c-.04.08-.07.16-.11.24-.06.14-.14.28-.21.43l-.15.29c-.07.14-.14.27-.22.41-.03.05-.05.11-.08.16-.02.05-.05.11-.08.16-.08.13-.16.27-.23.41-.07.12-.13.23-.2.34-.07.12-.15.26-.22.37-.08.13-.16.26-.23.38s-.15.23-.23.35c-.08.13-.16.27-.25.41-.04.05-.09.12-.12.17-.04.05-.08.11-.12.16-.09.14-.19.28-.28.41-.08.12-.16.22-.23.34-.11.13-.2.28-.31.42-.08.11-.17.22-.25.32-.1.15-.22.28-.33.43-.09.1-.17.2-.26.3-.12.15-.23.3-.36.44-.09.1-.19.2-.27.3-.12.15-.25.29-.38.43l-.29.3c-.13.14-.27.28-.41.41-.05.05-.1.1-.15.16-.05.05-.11.1-.16.15-.07.06-.14.12-.21.2-.07.07-.13.13-.21.2h0c-.1.11-.21.19-.31.29-.16.12-.3.27-.45.39-.05.05-.12.09-.17.14s-.12.09-.17.14c-.08.06-.16.12-.23.19-.08.06-.16.12-.24.19-.05.05-.11.09-.17.13s-.12.09-.19.12c-.08.06-.16.12-.24.19-.08.06-.16.12-.25.18-.1.08-.2.14-.3.2-.02.02-.05.04-.07.05h0c-.18.12-.34.23-.51.35-.06.03-.12.07-.19.11ZM162.79 109.5h1.81H154h8.8Z" class="cls-5"/><path d="M145.34 117.16s0-.04-.02-.06l.65-3.4v-.02c.04-.08.18-.41.44-.9.04-.07.06-.14.11-.22a25.918 25.918 0 0 1 1.95-3.05v-.02h.02s0-.02.02-.02c.14-.23.71-1.28.79-1.38 0 0-1.83-.26-3.68.23-.83.22-1.65.59-2.31 1.2l-1.34 2.64v.08l-.02.22c-.02.09-.02.2-.03.33-.04.75 0 2.03.59 2.99.08.12.16.24.25.34.05.06.1.12.16.17l2.44.88Z" class="cls-5"/><path d="M146.41 112.78c-.27.5-.41.83-.44.9l2.5-4.17c-.83 1.13-1.44 2.11-1.83 2.83-.05.07-.09.16-.12.22-.05.08-.07.15-.11.22ZM145.34 117.16l.63-3.46-.65 3.4s0 .05.02.06ZM34.82 116.65l1.26 1.83a2.517 2.517 0 0 1 2.27-.2l4.56-5.52-3.34-1.54-4.76 5.43ZM34.84 120.6c0-.89.47-1.68 1.18-2.12l-1.26-1.83s-10.13 1.83-10.27 4.96v1.34h11.37l.1-.26a2.496 2.496 0 0 1-1.11-2.08Z" class="cls-5"/><path d="M36.08 118.48c-.7.44-1.18 1.23-1.18 2.12s.44 1.63 1.11 2.08a2.503 2.503 0 1 0 2.35-4.39c-.29-.12-.61-.18-.94-.18-.49 0-.94.14-1.33.38Z" class="cls-1"/><path d="m96.5 26.63-.02.01" style="fill:none;stroke:#000;stroke-linecap:round;stroke-linejoin:round"/><path d="M47.71 18.44s-1.77.72-3.18-1.15c-1.7-2.26-.03-4.12-.03-4.12-.68-2.5 2.42-7.67 8.31-9.58 5.89-1.91 8.04 4.59 7.7 6.51" class="cls-10"/><path d="M66.07 17.24c-1.38-1.65-3.01-5.65-3.52-7.82-.58-2.48-3.17-3.67-3.17-3.67" class="cls-10"/><path d="M64.94 15.5c-1.36-.66-5.12-1.56-5.12-1.56.28-1.31-1.31-2.69-2.44-2.41-1.14.28-1.18 1.6-1.66 2.74-.52 1.24-3.13 1.13-3.97 1.04-.85-.08-5.58-1.2-5.58-1.2.02.97.18 2.7 1.61 4.27.17.2.36.38.57.57 1.95 1.7 1.38 3.93 1.84 4.32.46.38 1.33-.31 3.23 1.08 1.92 1.4 2.91 2.69 4.52 1.1 1.52-1.5 2.69-3.59 2.82-4.17 0 .35 1.96 1.69 2.78 5.47 0 0 1.42-.39 2.73-5.15" style="stroke-width:.86px;fill:#fff;stroke:#000;stroke-linecap:round;stroke-linejoin:round"/><path d="M50.48 19.43c-.33-.32-.41-.76-.19-.99.22-.23.66-.16.99.16.32.31.41.75.2.98-.22.23-.67.16-.99-.15Z"/><path d="M48.66 17.91s.63-1.42 2.31-.87" class="cls-13"/><path d="M57.93 13.16s-.37.82.06 1.63" style="stroke-width:.6px;fill:none;stroke:#000;stroke-linecap:round;stroke-linejoin:round"/><path d="M55.92 23.38c-.35.61-1.16.41-2.11.2 0 0 1.02-1.3 1.56-2.5.28-.62.93 1.62.54 2.3Z" class="cls-13"/><path d="M59.79 13.14s.35 1.37-.68 2.62" style="stroke-width:.9px;fill:none;stroke:#000;stroke-linecap:round;stroke-linejoin:round"/><path d="M84.55 10.92s.4 2.63.45 4.42c.03 1.2.01 6.51.01 6.51s-8.66 1.98-12.06 2.11c-12.48.48-7.97-8.18-6.67-9.69 2.91-3.38 18.28-3.34 18.28-3.34Z" class="cls-2"/><path d="M73.1 29.8h5.81v3.25H73.1z" style="stroke-width:.45px;fill:#fff;stroke:#000;stroke-linecap:round;stroke-linejoin:round" transform="rotate(-50.28 76.009 31.432)"/><path d="M-185.65-308.58h2179.47v547.09H-185.65z" style="stroke:#fff;stroke-width:8px;fill:none;stroke-linecap:round;stroke-linejoin:round"/></svg>