<svg xmlns="http://www.w3.org/2000/svg" id="Calque_1" data-name="Calque 1" viewBox="0 0 200 128"><defs><style>.cls-1,.cls-10,.cls-13,.cls-14,.cls-2,.cls-3,.cls-4,.cls-5,.cls-7,.cls-9{stroke:#000}.cls-1,.cls-2,.cls-5,.cls-7{stroke-linecap:round}.cls-1,.cls-13,.cls-14,.cls-2,.cls-5,.cls-7{stroke-linejoin:round}.cls-1,.cls-10,.cls-14,.cls-5{fill:#d6d6d6}.cls-2{fill:#87ccf3}.cls-10,.cls-3,.cls-4,.cls-9{stroke-miterlimit:10}.cls-13{fill:#f3d587}.cls-4{fill:#b2f0e9;stroke-width:1.05px}.cls-5,.cls-7{stroke-width:2px}.cls-7,.cls-9{fill:#fff}</style></defs><path d="M56.24 53.89s7.77.29 11.35-9.2c1.78-4.71 3.18-12.76 4.1-19.39.85-5.97-4.04-12.56-5.59-13.25 0 0-2.73-2.51-6.65-2.82-1.75-.13-4.3-.61-7.86.36-5.67 1.53-10.09 6.88-11.03 12.11l-.16.95c-.06-.06-.12-.09-.18-.12-1.87-.7-5.37-1.25-6.4 3.63-1.11 5.27 2.99 6.4 4.8 6.55 0 0-1.42 7.65 1.19 10.86 0 0 2.54 3.84 13.98 9.79" class="cls-7"/><path d="M53.22 40.21c.14-.51.5-.92.91-1.18.83-.52 1.91-.42 2.61.24.7.66.99 1.83.69 2.84h0c-.53.54-1.26.85-2.02.8-.12 0-.23-.02-.35-.04-.56-.1-1.11-.38-1.48-.86-.37-.48-.54-1.18-.36-1.81Z" class="cls-7"/><path d="M68.19 32.93c-.19.13-1-.77-2.35-1.04-1.35-.29-2.49.2-2.6 0-.06-.09.16-.35.66-.58.49-.23 1.28-.38 2.12-.21.84.18 1.49.63 1.83 1.04.35.4.43.73.34.79ZM64.17 27.1c.23-.34 1.29-.13 2.52-.25 1.24-.08 2.25-.46 2.53-.16.12.15 0 .48-.43.82-.42.34-1.14.67-1.99.74-.85.07-1.62-.13-2.08-.41-.47-.27-.65-.58-.55-.74Z" class="cls-3"/><path d="M57.33 42.51c.04.07-.52.52-1.64.65-.28.03-.59.04-.93-.02a1.94 1.94 0 0 1-1.04-.5c-.29-.27-.54-.62-.7-1.01-.16-.4-.26-.85-.19-1.34.09-.47.26-.87.52-1.23.27-.36.61-.63 1.05-.77.48-.1.82 0 1.14.08.32.09.61.21.85.33.48.22.87.43 1.12.61.25.18.36.33.33.36-.03.04-.18-.02-.46-.11-.33-.11-.72-.24-1.18-.38-.25-.09-.5-.16-.79-.22-.27-.05-.61-.09-.82-.03-.22.08-.48.29-.66.54-.18.26-.32.6-.38.92-.09.63.23 1.34.64 1.76.38.41.99.47 1.49.49 1 .02 1.62-.24 1.66-.14ZM74.24 68.21s3.63 4.95 5.78 16.15c2.15 11.2 4.99 24.11-.79 28.08-3.1 2.13-10.84-7.78-10.84-7.78l-2.24-23.28-2.19-6.96 10.28-6.22Z" class="cls-7"/><path d="M19.71 119.18s16.93 7.47 44.65 2.57l7.23-34.54.83 1.25 12.83-4.48s-11.6-24.45-17.39-27.64c-3.9-1.61-9.63-.88-9.63-.88-6.32-2.16-11.44 3.74-18.98-4.22-.64-.14-19.44 3.53-22.62 6.03-7.16 5.65-8.29 33.2-8.29 33.2l13.33-1.68-.6 23.95-1.35 6.43Z" style="fill:#fee4cb;stroke-width:2px;stroke-linejoin:round;stroke-linecap:round;stroke:#000"/><path d="M42.36 50.69S53.28 37.6 54.44 36.77c2.29-1.64 6.89-1.95 8.37-.72.87.73 10.57 9.36 10.57 9.36l-2.9 6.04-10.88 8.33-17.24-9.08Z" class="cls-5"/><path d="M59.28 50.07c.8.9-.89 8.82-.89 8.82s-.1 1.91-.51 5.92c-.34 3.47-2.79 7.45-3.44 8.48l.15.09s-9.34 18.5-13.77 28.04c-4.45 9.54-7.38 15.29-13.13 16.8-1.14.31-2.1.26-2.9 0h-.01c-5.4 0-9.32-8.08-11.03-14.25-.76-2.73-1.97-9.13-2.55-13.8l16.91-2.23.44 4.04s.1.55.25 1.49l16.64-24.7-.28-.15s-1.3-10.53-.8-12.73c.5-2.2 7.12-13.14 7.12-13.14 1.62-2.71 3.41-.39 3.41-.39s1.01-1.6 2.22-1.08c1.06.47.82 1.93.82 1.93s1.08.06 1.59 1.15c.53 1.11-1.52 5.02-1.52 5.02s.5-.2 1.3.7ZM70.04 35.3c.83-3.84 1.06-6.08 1.06-6.08-6.54-.01-8.83-13.71-8.83-13.71-4.73 3.4-10.18 5.19-14.44 6.13l-7.44 9.39c.9-4.58 0-8.37 0-8.37-1.59-1.2-4.14-.22-4.14-.22-2.74-12.81 8.58-13.43 8.58-13.43 11.42-7.99 19.31 0 19.31 0 18.38 6.16 5.89 26.3 5.89 26.3ZM54.87 42.36l-4.22 7.78M57.9 43.2l-4.11 8.43M57.98 49.38l-2.14 5.85" class="cls-7"/><path d="M73.39 40.8s3.84-3.87 5.21-2.11c1.37 1.76-5.21 2.11-5.21 2.11ZM74.72 43.58s4.91.51 4.11 2.57c-.8 2.06-4.11-2.57-4.11-2.57Z" class="cls-2"/><path d="M60.85 35.3V24.77" class="cls-7"/><path d="m39.24 51.24 1.09-7.02" class="cls-5"/><path d="M50.08 29.29c.13.19 1.21-.36 2.57-.13 1.36.21 2.25 1.08 2.42.94.09-.06-.03-.39-.41-.78s-1.06-.82-1.91-.95c-.85-.14-1.62.06-2.08.31-.47.25-.66.53-.6.61ZM56.91 25.74c-.2-.42-1.56-.65-3.07-1.26-1.52-.58-2.68-1.36-3.1-1.18-.19.09-.11.47.33.97.43.5 1.25 1.11 2.28 1.52 1.04.41 2.04.52 2.68.45.65-.07.95-.3.87-.5Z" class="cls-3"/><path d="m28.78 93.47-4.11 6.38M78.34 112.58c-7.51 5.3-14.08-9.82-16.5-15.62-2.42-5.79-6.33-22.45-6.33-22.45l-.58-2.01 2.2-5.32 1.78-6.91-.53-10.08s-.1-2.3 1.5-1.81c0 0-1.27-1.75-.45-3 .48-.76 1.42-.48 1.42-.48s-.83-1.27-.34-2.17a.98.98 0 0 1 .76-.5c.57-.09 1.12.22 1.43.7 1.4 2.17 6.49 10.21 6.84 11.93.39 2.01-1.14 2.57-1.14 2.57s.51 2.84-1.66 4.11c0 0 .47 2.07-1.66 3.24l-.41 5.72 14.72 27.1s6.46 9.69-1.05 15ZM60.85 44.88l4.09 6.75M59.9 48.37l3.33 5.74" class="cls-7"/><path d="m82.65 21.78-3.73 7.44M87.35 27.42l-5.37 4.03M82.65 36.34h6.75" class="cls-5"/><path d="M192.69 107.02c0 .76-.85 2.54-2.2 2.54h-10.08c-1.36 0-2.71-.93-4.62-.93h-55.83c-1.21 0-4.09-.76-5.36-1.61-1.27-.85-1.4-1.06-1.4-1.61v-3.35c0-.51 1.53-1.06 1.53-1.95v-4.92c0-1.27 11.44-9.41 15.09-10.3s19.62-.97 23.9-.59c4.28.38 13.47 4.92 19.28 9.2 6.23 0 12.92 1.56 15.85 3.32 2.92 1.76 3.86 4.77 3.86 6.04v4.15Z" class="cls-10"/><path d="M145.74 94h-17.77c.19-1.07 5.29-7.99 6.69-8.18.44-.06 1.34-.08 2.77-.08s3.09.03 4.56.05c.96.02 1.81.03 2.42.04.09.4.75 3.25 1.33 8.18Z" class="cls-4"/><path d="M146.02 107.34h-8.76c-.84 0-1.7-.61-2.3-1.62-.28-.47-.95-1.37-1.73-2.41-1.03-1.38-2.31-3.09-3.08-4.36l-.05-.08c-1.34-2.2-2.3-3.79-2.12-4.86h17.77c.09.79.18 1.64.27 2.54.61 6.46.08 10.31 0 10.8Z" class="cls-10"/><circle cx="176.71" cy="107.21" r="6.67" class="cls-3"/><circle cx="176.71" cy="107.21" r="4.72" class="cls-9"/><circle cx="126.63" cy="107.21" r="6.67" class="cls-3"/><circle cx="126.63" cy="107.21" r="4.72" class="cls-9"/><path d="M189.33 98.7s.76.93.91 1.38 0 .95-.61.95h-3.6c-.57 0-1.63-.87-2.22-1.57-.59-.7-1.48-1.84-1.23-1.99.25-.15 3.54.28 6.76 1.23Z" style="fill:#f3d587"/><path d="M188.74 106.05c.21-.41.7-.74 1.11-.74h2.84v1.91c0 .2-.06.48-.18.78h-4.01c-.41 0-.57-.33-.37-.74l.61-1.21Z" class="cls-3"/><path d="M125.31 87.06c.49.21 1.16.49 1.31.56.25.11.21.53-.49.93s-2.95 2.29-3.83 3.11c-.89.83-1.48 1.08-2.12 1.08h-3.09c2.15-1.75 5.41-4.02 8.22-5.69Z" class="cls-4"/><path d="M114.72 100.12v-4.53h3.62c.53 0 .81.2.53.96s-1.63 2.79-2.01 3.09c-.38.3-.72.53-1.21.53h-.94v-.04Z" style="fill:#ff6d75;stroke-miterlimit:10;stroke:#000"/><path d="M167.84 94h-20.72c-.56-4.84-1.21-7.68-1.33-8.18h1.04c2.95 0 6.71.13 9.66 1.15 1.7.59 3.98 1.7 6.42 3.11 2.63 1.52 4.28 2.84 4.92 3.92Z" class="cls-4"/><path d="M168.39 104.77v.32c-.02 1.11-.04 2.26-1.11 2.26h-19.87c.08-.56.59-4.4 0-10.81-.08-.9-.17-1.74-.27-2.53h20.72c.16.26.25.5.29.73.25 1.51.28 8.84.25 10.03Z" style="fill:none;stroke-miterlimit:10;stroke:#000"/><rect width="2.67" height=".69" x="149.28" y="95.58" rx=".35" ry=".35"/><rect width="2.67" height=".69" x="130.64" y="95.58" rx=".35" ry=".35"/><path d="M99.72 90.59c.03-.38.1-.76.25-1.14a3.97 3.97 0 0 1 5.17-2.23c1.67.66 2.62 2.32 2.48 4.02.6.2 1.17.54 1.63 1.03a3.983 3.983 0 0 1-.19 5.63 3.983 3.983 0 0 1-5.63-.19c-.05-.05-.08-.11-.12-.16a3.976 3.976 0 0 1-6.07-4.66 3.946 3.946 0 0 1 2.48-2.3ZM104.42 102.5c.01-.15.04-.3.1-.44.32-.8 1.22-1.18 2.01-.87.65.26 1.02.9.97 1.56.23.08.45.21.63.4.58.63.55 1.61-.07 2.19-.63.58-1.61.55-2.19-.08-.02-.02-.03-.04-.05-.06-.42.31-.98.4-1.49.2-.8-.32-1.18-1.22-.87-2.01.18-.45.54-.76.96-.9Z" class="cls-1"/><path d="M103.12 83.58c-.12-.36-.21-.74-.22-1.14a3.973 3.973 0 0 1 7.74-1.39 4 4 0 0 1 1.91.3c2.02.88 2.94 3.23 2.06 5.24a3.979 3.979 0 0 1-5.24 2.06c-.06-.03-.11-.07-.17-.1-.67 1.15-1.89 1.95-3.32 1.99-2.2.07-4.04-1.66-4.1-3.86-.04-1.23.5-2.34 1.36-3.1ZM99.79 77.52c.12.36.21.74.22 1.14a3.973 3.973 0 0 1-7.74 1.39 4 4 0 0 1-1.91-.3 3.979 3.979 0 0 1-2.06-5.24 3.979 3.979 0 0 1 5.24-2.06c.06.03.11.07.17.1.67-1.15 1.89-1.95 3.32-1.99 2.2-.07 4.04 1.66 4.1 3.86.04 1.23-.5 2.34-1.36 3.1Z" class="cls-1"/><path d="M110.7 104.03h2.5v1.77h-2.5z" style="stroke-linejoin:round;stroke-linecap:round;stroke:#000"/><path d="M166.66 19.35h-5.37c-.13 0-.27.05-.36.15-.09.09-.15.23-.15.36v1.42h6.65l-.28-1.51a.514.514 0 0 0-.5-.42ZM160.78 37.62h9.64l-2.83-15.54h-6.81v15.54z" class="cls-14"/><path d="M161.29 22.08h5.79l-.15-.79h-5.64v.79z" style="fill:#e9cb61"/><path d="M170.49 37.62h-9.86L142.47 23.8a.487.487 0 0 0-.53-.05c-.17.09-.29.26-.29.46V36.8l-17.07-12.99a.502.502 0 0 0-.54-.05c-.17.09-.28.26-.28.46v32.32c0 .13.05.27.15.36.09.09.23.15.36.15h49.41c.15 0 .29-.07.39-.18.1-.12.14-.27.11-.42l-3.2-18.4a.497.497 0 0 0-.5-.42Zm-34.5 4.18c0 .12-.05.23-.13.31-.08.08-.19.13-.31.13h-6.63c-.12 0-.23-.05-.31-.13a.457.457 0 0 1-.13-.31v-1.95c0-.12.05-.23.13-.31.08-.08.2-.13.31-.13h6.63c.12 0 .23.05.31.13.08.08.13.19.13.31v1.95Zm17.82 0c0 .12-.05.23-.13.31-.08.08-.19.13-.31.13h-6.63c-.12 0-.23-.05-.31-.13a.457.457 0 0 1-.13-.31v-1.95c0-.12.05-.23.13-.31.08-.08.2-.13.31-.13h6.63c.12 0 .23.05.31.13.08.08.13.19.13.31v1.95Z" class="cls-14"/><path d="M128.92 39.42c-.12 0-.23.05-.31.13-.08.08-.13.2-.13.31v1.95c0 .12.05.23.13.31.08.08.2.13.31.13h6.63c.12 0 .23-.05.31-.13.08-.08.13-.19.13-.31v-1.95c0-.12-.05-.23-.13-.31a.439.439 0 0 0-.31-.13h-6.63ZM146.75 39.42c-.12 0-.23.05-.31.13-.08.08-.13.2-.13.31v1.95c0 .12.05.23.13.31.08.08.2.13.31.13h6.63c.12 0 .23-.05.31-.13.08-.08.13-.19.13-.31v-1.95c0-.12-.05-.23-.13-.31a.439.439 0 0 0-.31-.13h-6.63ZM123.77 24.58l17.88 13.22-.01-1.9-17.88-13.21.01 1.89zM141.64 24.91l19.12 14.58-.01-1.9-19.11-14.58v1.9z" class="cls-13"/><path d="M159.37 11.75c-.87-.52-2.07-.84-3.4-.84-1.48 0-2.8.4-3.68 1.02-.36-.03-.74-.05-1.13-.05-2.65 0-4.81.85-4.81 1.89s2.15 1.89 4.81 1.89c.39 0 .77-.02 1.13-.05.88.62 2.2 1.02 3.68 1.02 1.33 0 2.53-.32 3.4-.84.87.52 2.07.84 3.4.84 2.66 0 4.81-1.28 4.81-2.85s-2.15-2.86-4.81-2.86c-1.33 0-2.53.32-3.4.84Z" class="cls-14"/></svg>