<svg xmlns="http://www.w3.org/2000/svg" id="Calque_1" viewBox="0 0 200 128"><defs><style>.cls-1{fill:#baa584}.cls-1,.cls-2,.cls-3{stroke-linecap:round;stroke-linejoin:round}.cls-1,.cls-2,.cls-3,.cls-5{stroke:#000}.cls-2{fill:#a07637}.cls-3,.cls-5{fill:none}.cls-6{fill:#fab0b4}.cls-7{fill:#ff6d75}.cls-5{stroke-miterlimit:10}</style></defs><path d="M99.64 61.9c-.2.07-.41.28-.74.63-.34.35-1.1 1.04-1.12 1.31h0c-.29-.21-.57-.39-.83-.5.54.08 1.12-1.34 1.31-2.96h0c.02-.21.05-.41.07-.62.2-1.74-.96-3.6-1.64-3.65.28-.14.69-.24 1.25-.27.9-.06 1.83-.08 2.75-.03.15.64.26 1.38.2 2.01-.14 1.45-.75 3.36-1.25 4.09Z" class="cls-1"/><path d="M116.44 67.86s-.91.79-2.32 1.46c-.48.23-1.02.45-1.6.62-.72.21-1.5.35-2.32.35-.47 0-.95-.05-1.44-.16-.25-.06-.5-.12-.75-.19-.69-.19-1.36-.43-1.99-.7a23.08 23.08 0 0 1-2.86-1.45h0c-.04-.15-.08-.31-.13-.47-.16-.52-.37-1.05-.54-1.31-.31-.45-.6-1.12-.94-1.66-.09-.14-.3-.13-.36.02-.09.19-.34.59-.56.72-.28.18-.65.09-.94.05a.195.195 0 0 0-.2.1c-.29-.24-.58-.51-.88-.76.39-.15.91-.43 1.32-.55.5-.15.75-.23.87-.45.23-.42-.08-.96-.12-1.03-.02-.03-.05-.09-.11-.16-.14-.19-.4-.45-.74-.45-.06 0-.12.01-.18.04.49-.72 1.11-2.63 1.25-4.09.06-.63-.05-1.38-.2-2.01.84.04 1.68.13 2.49.28s1.56.33 2.26.52c1.04.28 1.97.6 2.8.95.87.36 1.63.75 2.29 1.15.74.44 1.37.9 1.9 1.34.51.43.93.85 1.29 1.25.05.05.09.1.13.16.49.62.95 1.53 1.33 2.47.78 1.91 1.28 3.94 1.28 3.94ZM96.95 63.33h0c-.89-.13-2.1-.3-2.24-.33-.15-.03-.31-.06-.46-.1.11-.12.13-.31.04-.45l-1.22-1.93a.388.388 0 0 0-.5-.13c-.1.06-.17.15-.2.26v.13l.25 1.62c-.59-.22-1.16-.47-1.73-.74l.04-.46c.01-.17-.1-.32-.27-.35a.322.322 0 0 0-.34.16l-.17.3c-.26-.13-.52-.26-.77-.39.26-.43.42-.82.53-1.09.31-.78.55-1.38.26-1.8a.797.797 0 0 0-.37-.28l.02-.11c.08-.43 2.6-1.13 3-1.24 1.27-.34 2.57-.38 3.86-.29h0c.68.05 1.83 1.91 1.64 3.65-.02.21-.05.41-.07.62h0c-.19 1.62-.77 3.04-1.31 2.96Z" class="cls-1"/><path d="M89.91 59.83c-.11.27-.27.67-.53 1.09-.28.47-.67.97-1.22 1.39h0l-.61.39c-.55.28-1.06.55-1.47.34-.19-.1-.33-.28-.43-.53-.29-.73-.17-1.99.3-2.92.13-.26.72-1.36 1.99-1.77.48-.15 1.32-.3 1.86-.06.15.06.28.15.37.28.29.42.05 1.02-.26 1.8Z" class="cls-1"/><path d="M88.15 62.31c-.18.14-.38.27-.61.38l.61-.38ZM91.15 68.3c.07-.04.08-.14 0-.19-.08-.06-.18-.13-.24-.2-.11-.14-.16-.38-.16-.38s-.99.49-1.27.67c-.18.12-.49.37-.67.52-.09.08-.11.21-.04.3h0c.05.06.13.1.2.09.24-.03.75-.1 1.13-.28.35-.16.81-.41 1.05-.54ZM95.85 81.76l.9-.85-.37-4.98 3.98-5.33h-.84l-3.14 5.33M88.84 78.16l.7-1.06-1.76-4.22 1.24-2.89-.63-.29-.61 3.18M107.87 84.64l-.83-1.51 3.3-3.49-2.41-3.83-.86.31 3.27 3.52" class="cls-3"/><path d="m94.25 62.9-.01.01-.15.16c-.27.29-.67.41-1.06.34a.372.372 0 0 1-.3-.32l-.11-.7-.25-1.62v-.13c.02-.11.09-.21.2-.26.17-.09.39-.03.5.13l1.22 1.93c.09.14.07.33-.04.45ZM93.89 63.96h0l.39-.22c.06-.04.14-.02.18.03.24.29.82 1 1.09 1.47.55.98.71 1.8.66 2.03-.03.19-.03.37-.19.48h0a.46.46 0 0 1-.61-.06c-.32-.34-.83-.93-1.1-1.46-.26-.49-.57-1.21-.78-1.7-.11-.27.07-.57.36-.58ZM107.43 71.2c-.09.2-.31.31-.52.27h-.01a8.44 8.44 0 0 1-1.41-.43c-.08-.03-.15-.07-.22-.1-.46-.24-1.07-.61-1.48-.87-.23-.14-.23-.46 0-.63l.2-.37c.03-.06.1-.09.16-.07.34.1 1.17.33 1.62.55.05.02.1.05.15.07.85.44 1.33.93 1.41 1.12.07.16.16.3.1.46ZM90.74 63.16a.32.32 0 0 1-.28.29l-.19.03c-.11.02-.23.01-.34 0a.999.999 0 0 1-.56-.32.317.317 0 0 1-.04-.37l.81-1.47.17-.3c.07-.12.2-.19.34-.16.17.03.28.18.27.35l-.04.46-.14 1.49ZM90.53 64.36h0l.33-.19c.05-.03.12-.02.16.03.21.25.71.86.93 1.26.47.84.61 1.55.57 1.75-.03.16-.03.32-.16.42h0c-.16.12-.39.09-.53-.05-.27-.29-.71-.8-.95-1.25-.22-.42-.49-1.04-.67-1.46-.1-.23.06-.49.31-.5ZM97.11 67.22c-.12-.06-.25.02-.25.15 0 .16-.02.35-.06.48-.09.26-.36.54-.36.54s1.5.89 1.97 1.11c.31.14.9.33 1.26.44.18.05.37-.04.43-.21h0c.04-.12.02-.25-.06-.35-.24-.29-.78-.9-1.32-1.25-.52-.33-1.23-.72-1.61-.92ZM107.33 75.13c-.04.09-.13.16-.23.17a.289.289 0 0 1-.32-.22c-.05-.3-.14-.78-.15-1.05-.01-.41.08-1.79.08-1.79s.31.08.53.05c.02 0 .05 0 .07-.02.1-.03.21-.08.31-.12.1-.05.21.02.21.12 0 .34-.02.98-.07 1.47-.05.51-.3 1.12-.43 1.4ZM103.27 68.55c-.05.24-.2.45-.42.57-.2.11-.44.13-.65.06-.1-.03-.2-.09-.29-.16-.42-.36-.94-1.15-1.32-1.64-.46-.6-.91-1.31-1.13-1.92a.23.23 0 0 1 .02-.18c.04-.07.12-.11.2-.1.29.04.66.13.94-.05.22-.14.47-.53.56-.72.07-.15.27-.16.36-.02.33.54.63 1.21.94 1.66.17.25.38.79.54 1.31.05.16.1.32.13.47h0c.04.16.08.3.1.43.02.11.02.21 0 .31ZM100.78 63.5c-.12.22-.37.3-.87.45-.41.12-.92.41-1.32.55-.24.09-.43.12-.53.05-.22-.17-.31-.47-.29-.72h0c.02-.27.78-.96 1.12-1.31.33-.34.54-.55.74-.63.06-.02.12-.04.18-.04.34 0 .6.26.74.45.05.07.09.13.11.16.04.07.35.61.12 1.03Z" class="cls-2"/><path d="m87.95 63.45-.4-.75.6-.39h.01l-.21 1.14zM86.61 63.16l.38.63.18-.74-.56.11z" class="cls-5"/><path d="M85.65 62.5s-.98.29-1.71.91c-.73.63-1.27 1.58-1.27 1.58M85.9 62.96s-.86.74-1.31 1.74-.57 2.27-.57 2.27M100.56 62.31c.88-.02 2.06-.37 2.83-.77.28-.15.51-.4.68-.7.43-.69.59-1.56.59-1.56l.76-2.67M104.43 63.12s1.29-.43 2.09-1.11c.23-.2.43-.41.54-.65.31-.66.83-2.54 1.17-3.8M110.51 58.7c-.34 1.27-.88 3.21-1.19 3.89-.12.26-.35.51-.62.72-.54.43-1.26.75-1.67.91M112.41 60.04c-.33 1.22-.77 2.74-1.04 3.32-.07.15-.18.3-.31.44-.56.59-1.57 1.03-2.05 1.22M113.83 61.45c-.3 1.11-.69 2.46-.96 3.13h0c-.03.06-.05.12-.07.17-.25.54-.94.99-1.56 1.3h0M115.16 63.92c-.2.48-.38.88-.51 1.11-.06.1-.13.19-.22.28-.33.35-.86.63-1.35.83" class="cls-3"/><path d="M106.03 69.26c.35-1.19.72-2.6.92-3.64.09-.48.11-.95.08-1.39a7.83 7.83 0 0 0-.51-2.22M104.07 60.84c.21.78.52 2.41-.02 3.96-.26.74-.63 1.66-1.02 2.54M108.7 63.31c.15.49.28 1.08.31 1.71.03.43 0 .87-.08 1.32-.2 1.03-.57 2.43-.92 3.61M111.06 63.8c.17.65.27 1.43.18 2.25h0c-.01.13-.03.26-.06.4-.21 1.1-.62 2.61-.98 3.85M112.87 64.58h0c.13.48.21 1.02.21 1.57 0 .18 0 .36-.03.55-.1.92-.32 2.14-.53 3.24M114.43 65.32c.15.7.22 1.52.06 2.34-.09.49-.23 1.07-.38 1.66M117.16 76.71c17.17 9.48 18.05 29.12 19.36 46.67 0 0 1.84-47.1 20.1-47.1s21.58 47.1 21.58 47.1 3.14-47.02 18.63-47.02" class="cls-3"/><path d="M91.98 120.16c.91-.53 1.79-1.09 2.64-1.68 2.75-1.9 5.33-4.13 7.11-7 1.49-2.4 2.41-5.07 3.16-7.78-8.78-10.2-36.11-41.81-45.08-52.18.42-2.61.32-5.35-.37-8-3.31-12.57-3.48-11.71-5.16-15.93-1.38-3.46-2.32-7.32-3.42-8.95-2.96-4.37-5.15-1.55-5.48.97-.52 3.98 2.61 15.04-.61 12.31-1.15-.97-6.4-5.75-7.62-6.91-3.51-3.35-6.94-6.17-10.74-9.22-1.12-.9-3.87-2.7-5.41-2.7-3.58 0-3.61 3.53-.57 6.21 4.37 3.84 13.47 11.72 16.91 16.26-1.8-1.37-12.17-9-13.98-10.3-1.87-1.35-9.57-7.46-11.8-4.17-1.45 2.13.56 4.68 8.06 9.95 4.64 3.26 9.96 7.69 12.68 10.72-5.86-2.89-10.71-5.96-13.56-7.56-12.85-7.23-11.45 1.34-6.57 3.85 7.95 4.09 10.11 5.37 16.55 9.96-7.13-2.13-16.64-6.31-19.85-5.55-2.81.66-4.64 3.65 7.13 8.04 2.99 1.12 9.35 3.45 12.72 5.3 2.79 1.53 9.85 8.31 12.94 9.02.7.16 1.39.27 2.07.34 7.99 12.1 27.8 42.09 36.94 57.11 2.16.16 4.32.16 6.43-.35 1.68-.4 3.28-1.12 4.88-1.76Z" style="fill:#fff;stroke-width:2px;stroke:#000;stroke-linecap:round;stroke-linejoin:round"/><path d="M37.5 48.61s-3.54 9.15 5.87 11.76c9.41 2.61 6 15.69 15.68 17.74 9.68 2.06 1.27 8.51 11.45 19.97 10.17 11.46 5.34 4.48 15.77 8.08 11.95 4.12 12.4-8.13 12.4-8.13L58.74 51.74s-1.58-16.87-10.68-15.57-14.83 1.24-10.56 12.44Z" class="cls-6"/><path d="M58.23 73.63c-.1 0-.2 0-.3-.02a2.288 2.288 0 0 1-1.97-2.57 2.304 2.304 0 0 1 2.57-1.98c1.25.16 2.14 1.32 1.97 2.57-.15 1.14-1.13 2-2.27 2Z" class="cls-6"/><path d="M58.23 70.04c.06 0 .11 0 .17.01.71.09 1.21.74 1.11 1.45-.09.65-.64 1.12-1.28 1.12-.06 0-.11 0-.17-.01a1.28 1.28 0 0 1-1.11-1.45c.09-.65.64-1.12 1.28-1.12m0-2a3.29 3.29 0 0 0-2.61 5.29 3.292 3.292 0 0 0 2.61 1.29 3.29 3.29 0 0 0 2.61-5.29 3.292 3.292 0 0 0-2.61-1.29Z" class="cls-7"/><path d="M44.51 44.1c-.1 0-.2 0-.3-.02a2.288 2.288 0 0 1-1.97-2.57 2.296 2.296 0 0 1 2.57-1.98c1.25.16 2.14 1.32 1.98 2.57-.15 1.14-1.13 2-2.27 2Z" class="cls-6"/><path d="M44.5 40.51c.06 0 .11 0 .17.01.71.09 1.21.74 1.11 1.45-.09.65-.64 1.12-1.28 1.12-.06 0-.11 0-.17-.01a1.28 1.28 0 0 1-1.11-1.45c.09-.65.64-1.12 1.28-1.12m0-2a3.29 3.29 0 0 0-3.26 2.87c-.11.87.12 1.74.65 2.43a3.292 3.292 0 0 0 2.61 1.29 3.29 3.29 0 0 0 3.26-2.87c.11-.87-.12-1.74-.65-2.43a3.292 3.292 0 0 0-2.61-1.29Z" class="cls-7"/><path d="M91.33 103.11c-.1 0-.2 0-.3-.02a2.303 2.303 0 0 1-1.98-2.57 2.304 2.304 0 0 1 2.57-1.98c1.25.16 2.14 1.32 1.98 2.57-.15 1.14-1.13 2-2.27 2Z" class="cls-6"/><path d="M91.33 99.52c.06 0 .11 0 .17.01.71.09 1.21.74 1.11 1.45-.09.65-.64 1.12-1.28 1.12-.06 0-.11 0-.17-.01a1.28 1.28 0 0 1-1.11-1.45c.09-.65.64-1.12 1.28-1.12m0-2a3.29 3.29 0 0 0-3.26 2.87c-.11.87.12 1.74.65 2.43a3.292 3.292 0 0 0 2.61 1.29 3.29 3.29 0 0 0 3.26-2.87c.11-.87-.12-1.74-.65-2.43a3.292 3.292 0 0 0-2.61-1.29Z" class="cls-7"/><path d="M77.54 97.52c-.1 0-.2 0-.3-.02a2.303 2.303 0 0 1-1.98-2.57 2.304 2.304 0 0 1 2.57-1.98c1.25.17 2.14 1.32 1.98 2.57-.15 1.14-1.13 2-2.27 2Z" class="cls-6"/><path d="M77.53 93.94c.06 0 .11 0 .17.01.71.09 1.21.74 1.11 1.45-.09.65-.64 1.12-1.28 1.12-.06 0-.11 0-.17-.01a1.28 1.28 0 0 1-1.11-1.45c.09-.65.64-1.12 1.28-1.12m0-2a3.29 3.29 0 0 0-2.61 5.29 3.292 3.292 0 0 0 2.61 1.29 3.29 3.29 0 0 0 2.61-5.29 3.292 3.292 0 0 0-2.61-1.29Z" class="cls-7"/><path d="M71.6 82.05c-.1 0-.2 0-.3-.02a2.303 2.303 0 0 1-1.98-2.57 2.304 2.304 0 0 1 2.57-1.98c.61.08 1.15.39 1.52.88a2.287 2.287 0 0 1-1.81 3.69Z" class="cls-6"/><path d="M71.6 78.46c.06 0 .11 0 .17.01.71.09 1.21.74 1.11 1.45-.09.65-.64 1.12-1.28 1.12-.06 0-.11 0-.17-.01a1.28 1.28 0 0 1-1.11-1.45c.09-.65.64-1.12 1.28-1.12m0-2a3.29 3.29 0 0 0-3.26 2.87c-.11.87.12 1.74.65 2.43a3.292 3.292 0 0 0 2.61 1.29 3.29 3.29 0 0 0 3.26-2.87c.11-.87-.12-1.74-.65-2.43a3.292 3.292 0 0 0-2.61-1.29Z" class="cls-7"/><path d="M42.84 56.76c-.1 0-.2 0-.3-.02a2.288 2.288 0 0 1-1.97-2.57 2.304 2.304 0 0 1 2.57-1.98c1.25.16 2.14 1.32 1.97 2.57-.15 1.14-1.13 2-2.27 2Z" class="cls-6"/><path d="M42.84 53.18c.06 0 .11 0 .17.01.71.09 1.21.74 1.11 1.45-.09.65-.64 1.12-1.28 1.12-.06 0-.11 0-.17-.01a1.28 1.28 0 0 1-1.11-1.45c.09-.65.64-1.12 1.28-1.12m0-2a3.29 3.29 0 0 0-3.26 2.87c-.11.87.12 1.74.65 2.43a3.292 3.292 0 0 0 2.61 1.29 3.29 3.29 0 0 0 3.26-2.87c.11-.87-.12-1.74-.65-2.43a3.292 3.292 0 0 0-2.61-1.29Z" class="cls-7"/><path d="M56.42 58.54c-.1 0-.2 0-.3-.02a2.303 2.303 0 0 1-1.98-2.57 2.304 2.304 0 0 1 2.57-1.98c1.25.16 2.14 1.32 1.98 2.57-.15 1.14-1.13 2-2.27 2Z" class="cls-6"/><path d="M56.41 54.96c.06 0 .11 0 .17.01.71.09 1.21.74 1.11 1.45-.09.65-.64 1.12-1.28 1.12-.06 0-.11 0-.17-.01a1.28 1.28 0 0 1-1.11-1.45c.09-.65.64-1.12 1.28-1.12m0-2a3.29 3.29 0 0 0-3.26 2.87c-.11.87.12 1.74.65 2.43a3.292 3.292 0 0 0 2.61 1.29 3.29 3.29 0 0 0 3.26-2.87c.11-.87-.12-1.74-.65-2.43a3.292 3.292 0 0 0-2.61-1.29Z" class="cls-7"/></svg>