<svg xmlns="http://www.w3.org/2000/svg" id="Calque_1" data-name="Calque 1" viewBox="0 0 200 128"><defs><style>.cls-1,.cls-2{fill:#d6d6d6;stroke:#1d1d1b;stroke-miterlimit:10}.cls-2{fill:none}</style></defs><path d="M53.17 28.55h23.41v23.59H53.17zM100 28.55h23.42v23.59H100zM146.83 28.55h23.42v23.59h-23.42zM29.67 99.5h23.5v23.59h-23.5zM29.75 52.2h23.42v23.59H29.75zM76.58 52.2H100v23.59H76.58zM123.42 52.2h23.42v23.59h-23.42zM53.17 75.85h23.41v23.59H53.17zM100 75.85h23.42v23.59H100zM146.83 75.85h23.42v23.59h-23.42zM29.75 4.91h23.42V28.5H29.75zM76.58 4.91H100V28.5H76.58zM123.42 4.91h23.42V28.5h-23.42z" class="cls-1"/><path d="M39.87 9.82h3.21l4.8 13.56h-3.07l-.89-2.79h-4.99l-.92 2.79h-2.96l4.84-13.56Zm-.19 8.44h3.47l-1.71-5.34-1.76 5.34ZM44.92 37.81c-.21-.93-.74-1.57-1.57-1.94-.47-.2-.98-.3-1.56-.3-1.09 0-1.99.41-2.69 1.24s-1.05 2.06-1.05 3.71.38 2.84 1.14 3.54c.76.69 1.63 1.04 2.59 1.04s1.73-.27 2.34-.82.98-1.26 1.12-2.14H42.1v-2.26h5.65v7.28h-1.88l-.28-1.69c-.55.64-1.04 1.09-1.47 1.36-.75.46-1.67.69-2.76.69-1.8 0-3.27-.62-4.42-1.87-1.2-1.25-1.79-2.96-1.79-5.13s.6-3.95 1.81-5.28 2.81-1.99 4.79-1.99c1.72 0 3.11.44 4.15 1.31 1.05.87 1.64 1.96 1.8 3.27h-2.79ZM43.93 57.08h4.08v13.56h-2.64V59.26L42.8 70.64h-2.75L37.5 59.26V70.64h-2.64V57.08h4.12l2.47 10.66 2.45-10.66ZM38.53 90.67c.09.62.26 1.08.52 1.39.47.56 1.27.84 2.41.84.68 0 1.24-.07 1.66-.22.81-.28 1.21-.81 1.21-1.57 0-.45-.2-.79-.59-1.04-.4-.24-1.02-.45-1.88-.63l-1.47-.32c-1.44-.32-2.43-.66-2.97-1.04-.91-.63-1.37-1.6-1.37-2.93 0-1.21.45-2.22 1.34-3.03.89-.8 2.21-1.21 3.94-1.21 1.45 0 2.68.38 3.7 1.14s1.56 1.86 1.61 3.3h-2.72c-.05-.82-.41-1.4-1.09-1.74-.45-.23-1.02-.34-1.69-.34-.75 0-1.35.15-1.79.44-.45.29-.67.71-.67 1.23 0 .48.22.85.66 1.08.28.16.88.35 1.8.56l2.38.56c1.04.24 1.82.57 2.34.98.81.64 1.21 1.56 1.21 2.77s-.48 2.27-1.44 3.09c-.96.82-2.31 1.23-4.06 1.23s-3.19-.4-4.21-1.21c-1.02-.81-1.53-1.91-1.53-3.33h2.7ZM44.27 104.58h3.21l-4.53 8.48v5.08h-2.83v-5.08l-4.69-8.48h3.34l2.81 5.91 2.7-5.91Z"/><path d="M29.75 28.49h23.42V52.2H29.75zM29.75 75.79h23.42v47.3H29.75z" class="cls-2"/><path d="M69.38 11.27c.42.58.62 1.27.62 2.07s-.21 1.49-.63 2c-.23.28-.58.54-1.03.77.69.25 1.21.65 1.57 1.2.35.55.53 1.21.53 1.99a4.04 4.04 0 0 1-1.56 3.23c-.43.33-.94.56-1.53.68-.59.12-1.23.18-1.92.18h-6.11V9.83h6.55c1.65.02 2.83.51 3.51 1.44Zm-7.36.91v2.99h3.3c.59 0 1.07-.11 1.43-.34s.55-.62.55-1.19c0-.63-.24-1.05-.73-1.25-.42-.14-.95-.21-1.6-.21h-2.95Zm0 5.23v3.62h3.29c.59 0 1.05-.08 1.37-.24.59-.29.89-.86.89-1.69 0-.71-.29-1.19-.86-1.45-.32-.15-.77-.22-1.36-.23h-3.34ZM59.42 47.14V33.58h2.81v5.17h5.27v-5.17h2.81v13.56H67.5v-6.05h-5.27v6.05h-2.81ZM59.37 56.8h2.97l5.38 9.45V56.8h2.64v13.56h-2.83l-5.52-9.62v9.62h-2.64V56.8ZM70.36 81.65v2.4H66.3v11.16h-2.85V84.05h-4.07v-2.4h10.98ZM59.64 115.75l6.93-8.77h-6.76v-2.4h10.28v2.27l-7.02 8.9h7.04v2.39H59.64v-2.39Z"/><path d="M53.17 4.91h23.41v23.65H53.17zM53.17 52.15h23.41v23.71H53.17zM53.17 99.44h23.41v.06H53.17z" class="cls-2"/><path d="M84.21 11.24c1.09-1.12 2.48-1.67 4.17-1.67 2.26 0 3.91.75 4.95 2.24.58.84.89 1.68.93 2.53h-2.83c-.18-.65-.41-1.14-.69-1.47-.5-.59-1.25-.88-2.24-.88s-1.81.42-2.39 1.25c-.58.83-.87 2.01-.87 3.53s.31 2.66.92 3.42c.61.76 1.4 1.14 2.34 1.14s1.71-.32 2.22-.97c.28-.35.52-.87.7-1.57h2.81c-.24 1.48-.86 2.68-1.86 3.61-1 .93-2.28 1.39-3.84 1.39-1.93 0-3.45-.63-4.55-1.88-1.1-1.26-1.66-2.98-1.66-5.17 0-2.37.63-4.19 1.88-5.47ZM89.7 47.14h-2.82V33.58h2.82v13.56ZM92.74 69.16c-1.02 1.05-2.5 1.58-4.44 1.58s-3.42-.53-4.44-1.58c-1.37-1.29-2.06-3.16-2.06-5.59s.69-4.35 2.06-5.59c1.02-1.06 2.5-1.58 4.44-1.58s3.42.53 4.44 1.58c1.37 1.24 2.05 3.11 2.05 5.59s-.68 4.3-2.05 5.59Zm-1.77-2.06c.66-.83.99-2.01.99-3.53s-.33-2.7-.99-3.53-1.55-1.25-2.67-1.25-2.02.41-2.69 1.24c-.67.83-1 2-1 3.53s.33 2.7 1 3.53c.67.83 1.56 1.24 2.69 1.24s2.01-.41 2.67-1.24ZM82.85 81.65h2.88v8.33c0 .93.11 1.61.33 2.04.34.76 1.09 1.14 2.24 1.14s1.89-.38 2.23-1.14c.22-.43.33-1.11.33-2.04v-8.33h2.88v8.33c0 1.44-.22 2.56-.67 3.37-.83 1.47-2.42 2.21-4.77 2.21s-3.94-.74-4.78-2.21c-.45-.8-.67-1.93-.67-3.37v-8.33Z"/><path d="M76.58 28.49H100V52.2H76.58zM76.58 75.79H100V99.5H76.58z" class="cls-2"/><path d="M113.91 10.12c.95.31 1.72.89 2.31 1.72.47.67.8 1.4.97 2.19.17.79.26 1.53.26 2.24 0 1.8-.36 3.33-1.09 4.58-.98 1.69-2.5 2.53-4.55 2.53h-5.85V9.82h5.85c.84.01 1.54.11 2.1.29Zm-5.19 2.06v8.85h2.62c1.34 0 2.27-.66 2.8-1.98.29-.72.43-1.59.43-2.59 0-1.38-.22-2.44-.65-3.18-.43-.74-1.29-1.11-2.58-1.11h-2.62ZM110.14 42v.31c.02 1.05.13 1.79.32 2.21s.61.64 1.24.64 1.04-.23 1.24-.7c.12-.28.18-.74.18-1.4v-9.48h2.83v9.44c0 1.15-.2 2.07-.58 2.74-.66 1.14-1.85 1.71-3.57 1.71s-2.88-.46-3.46-1.38c-.59-.92-.88-2.18-.88-3.78V42h2.68ZM115.63 64.49c-.79.66-1.93.99-3.4.99h-2.82v4.88h-2.82V56.8h5.82c1.34 0 2.41.35 3.21 1.05s1.2 1.78 1.2 3.25c0 1.6-.4 2.73-1.19 3.39Zm-2.16-4.89c-.36-.3-.86-.45-1.51-.45h-2.55v3.99h2.55c.65 0 1.15-.16 1.51-.49.36-.32.54-.84.54-1.55s-.18-1.21-.54-1.51ZM114.71 81.65h2.94l-4.62 13.56h-2.68l-4.59-13.56h3.03l2.94 10.29 2.97-10.29Z"/><path d="M100 4.91h23.42v23.65H100zM100 52.15h23.42v23.71H100zM100 99.44h23.42v.06H100z" class="cls-2"/><path d="M139.94 12.22h-7.18v2.88h6.59v2.35h-6.59v3.49h7.51v2.44H130V9.82h9.94v2.4ZM129.14 33.58h2.79v5.59l5.24-5.59h3.66l-5.56 5.58 5.85 7.98h-3.64l-4.18-5.92-1.36 1.38v4.54h-2.79V33.58ZM141.16 66.4c-.24.78-.59 1.42-1.05 1.94l1.56 1.47-1.48 1.54-1.63-1.55c-.5.3-.93.51-1.29.64-.61.2-1.34.3-2.18.3-1.77 0-3.23-.53-4.38-1.58-1.4-1.27-2.1-3.13-2.1-5.59s.72-4.35 2.15-5.62c1.17-1.04 2.63-1.55 4.37-1.55s3.23.55 4.42 1.65c1.37 1.27 2.06 3.04 2.06 5.33 0 1.21-.15 2.22-.44 3.04Zm-5.14 1.82c.17-.04.38-.12.64-.23l-1.37-1.31 1.46-1.52 1.38 1.3c.21-.44.36-.83.45-1.16.14-.5.2-1.08.2-1.74 0-1.52-.31-2.7-.93-3.53s-1.53-1.25-2.73-1.25c-1.12 0-2.02.4-2.69 1.2s-1 1.99-1 3.58c0 1.86.48 3.19 1.44 3.99.62.52 1.36.78 2.23.78.33 0 .64-.04.94-.12ZM129.52 81.65l1.79 7.76.39 2.16.39-2.12 1.53-7.81h2.99l1.61 7.76.41 2.16.42-2.08 1.81-7.85h2.89l-3.81 13.56h-2.71l-1.64-7.93-.48-2.62-.48 2.62-1.64 7.93h-2.63l-3.85-13.56h3.01Z"/><path d="M123.42 28.49h23.42V52.2h-23.42zM123.42 75.79h23.42V99.5h-23.42z" class="cls-2"/><path d="M153.72 9.84h9.67v2.38h-6.85v3.12h6.01v2.35h-6.01v5.68h-2.81V9.83ZM153.75 33.58h2.83V44.7h6.77v2.44h-9.6V33.58ZM161.65 57.15c.5.21.92.53 1.27.95.29.34.51.72.68 1.14.17.42.25.89.25 1.43 0 .64-.16 1.28-.49 1.9-.32.62-.86 1.06-1.61 1.32.63.25 1.07.61 1.33 1.07s.39 1.17.39 2.12v.91c0 .62.03 1.04.08 1.26.07.35.25.61.52.77v.34h-3.13c-.09-.3-.15-.54-.18-.73a7.48 7.48 0 0 1-.12-1.17l-.02-1.26c-.01-.87-.16-1.44-.45-1.73-.29-.29-.83-.43-1.61-.43h-2.77v5.32h-2.77V56.8h6.49c.93.02 1.64.14 2.14.35Zm-5.86 2.01v3.64h3.05c.61 0 1.06-.07 1.36-.22.54-.26.8-.77.8-1.53 0-.82-.26-1.37-.78-1.66-.29-.16-.73-.24-1.31-.24h-3.13ZM155.83 95.2h-3.29l4.36-6.91-4.15-6.65h3.39l2.42 4.42 2.48-4.42h3.27l-4.15 6.54 4.41 7.02h-3.44l-2.58-4.62-2.72 4.62Z"/><path d="M146.83 4.91h23.42v23.65h-23.42zM146.83 52.15h23.42v23.71h-23.42zM146.83 99.44h23.42v.06h-23.42zM29.67 28.55h23.5v23.59h-23.5zM76.58 28.55H100v23.59H76.58z" class="cls-2"/><path d="M123.42 28.55h23.42v23.59h-23.42z" class="cls-2"/><path d="M170.26 28.55h.08v23.59h-.08z" class="cls-1"/><path d="M29.67 4.91h.08V28.5h-.08zM53.17 4.91h23.41V28.5H53.17zM100 4.91h23.42V28.5H100zM146.83 4.91h23.5V28.5h-23.5zM76.58 99.5h93.68v23.59H76.58zM53.17 99.5h23.41v23.59H53.17zM170.26 99.5h.08v23.59h-.08zM53.17 52.2h23.41v23.59H53.17zM100 52.2h23.42v23.59H100zM146.83 52.2h23.5v23.59h-23.5zM29.67 75.85h23.5v23.59h-23.5zM76.58 75.85H100v23.59H76.58zM123.42 75.85h23.42v23.59h-23.42zM170.26 75.85h.08v23.59h-.08z" class="cls-2"/><path d="M-5955.6-119.98H606.75v1176.7H-5955.6z" style="fill:none;stroke:#fff;stroke-linecap:round;stroke-linejoin:round;stroke-width:8px"/></svg>