<svg xmlns="http://www.w3.org/2000/svg" id="Calque_1" data-name="Calque 1" viewBox="0 0 128 128"><defs><style>.cls-3{stroke-linecap:round}.cls-3,.cls-4,.cls-5,.cls-6,.cls-7{stroke:#000;stroke-miterlimit:10;stroke-width:2px}.cls-3,.cls-5{fill:#bfe6fc}.cls-4{fill:#fff}.cls-6{fill:#d6d6d6}.cls-7{fill:none}</style></defs><path d="M15.21 89.6h66.13c.42 0 .76-.34.76-.76V51.25c0-5.25-4.29-9.54-9.54-9.54H24.25c-5.25 0-9.54 4.29-9.54 9.54v37.86c0 .27.22.49.49.49Z" class="cls-7"/><path d="M65.94 34.64h9.59v2.29a4.79 4.79 0 0 1-9.58 0v-2.29Z" style="stroke:#000;stroke-miterlimit:10;stroke-width:2px;fill:#ff6d75" transform="rotate(-180 70.735 38.175)"/><path d="M124.81 89.6H82.1V69.54h22.65c11.07 0 20.06 8.99 20.06 20.06ZM123.97 83.84H82.1M55.73 75.47H13.99" class="cls-7"/><circle cx="34.86" cy="89.6" r="9.18" class="cls-6"/><circle cx="34.86" cy="89.6" r="3.14" class="cls-4"/><circle cx="107.46" cy="89.6" r="9.18" class="cls-6"/><circle cx="107.46" cy="89.6" r="3.14" class="cls-4"/><path d="M60.07 51.32h10.97c2.4 0 4.34 1.94 4.34 4.34V89.6H55.73V55.66c0-2.4 1.94-4.34 4.34-4.34Z" class="cls-7"/><path d="M44.45 54.29h-6.71v-6.72h-7.22v6.72h-6.71v7.2h6.71v6.72h7.22v-6.72h6.71v-7.2z" style="fill:#ff6d75"/><path d="M119.98 76.54s-.32 2.61-1.28 7.3" class="cls-7"/><path d="m62.91 30.2 2.91 2.42M78.56 30.2l-2.91 2.42M70.74 26.49v2.9M5.66 79.57h4.32M3.27 84.46h6.71" class="cls-3"/><path d="M81.88 49.25h14.39c3.36 0 6.09 2.73 6.09 6.09v14.39" class="cls-7"/><path d="M87.02 55.87h10.21V64H87.02zM9.98 98.78h112.59" class="cls-5"/></svg>