<svg xmlns="http://www.w3.org/2000/svg" id="Calque_1" data-name="Calque 1" viewBox="0 0 239.01 304.08"><defs><style>.cls-10,.cls-2,.cls-3,.cls-4,.cls-5,.cls-6,.cls-7{stroke:#fff;stroke-width:.5px;stroke-miterlimit:10}.cls-2{fill:#ead6ae}.cls-3{fill:#f3d587}.cls-4{fill:#ff6d75}.cls-5{fill:#87ccf3}.cls-6{fill:#bbfedb}.cls-7{fill:#fab0b4}.cls-10{fill:none}</style></defs><path d="m104.61 28.48-.25-.03-.23.1-.15.04.09.27s.22.01.24.02l.38-.24-.09-.16ZM106.01 29.34h-.2l-.07.14.18.15.09-.06h.11l.08-.02-.02-.11-.17-.1zM108.34 29.26v-.31l-.17.18.07.28.1-.15zM108.19 30.13l-.23.23.17.26h.19l.15-.12-.06-.29-.22-.08zM104.69 28.96l.11.22.16-.12.03-.2-.17-.05-.14.15ZM107.63 32.04l.08.17.2-.07-.16-.2-.12.1zM106.67 31.92l.15.26.01.4.4.08.08-.27-.35-.39-.29-.08zM106.5 29.35l-.12.14.11.16.26-.1-.25-.2z" class="cls-2"/><path d="m112.56 42.42-.99 1.18-.69.53.69-.53.99-1.18zM97 62.38l.22-1.11-.19-.36.19.36-.22 1.11zM91.76 151.28l-.43-.9h-.01l.44.9zM120.5 139.93l-.3-.35-.37-.43.67.78zM105.37 56.63l-.55-.27.55.27zM98.1 64.62l.27-.3 1.57-.31-1.57.31-.27.3zM78.66 85.98l-.08-.33-.16-.72.24 1.05zM89.86 67.96l1.32 1.03.78.1-.77-.1-1.33-1.03zM86.79 49.65l.54.28.21 1.29-.21-1.3-.54-.27zM73.72 47.21l.54-.27-.54.27zM85.9 55.91l.25-.83-.25.83zM70.73 45.76l.76.63.94.41-.94-.41-.76-.63z" class="cls-10"/><path d="m126.86 268.19-.42-.27-.34.26.32.43.85-.35-.41-.07zM130.46 264.92l-.87.12 1.28.35-.41-.47z" class="cls-4"/><path d="m131.85 266.22-.31-.48-.46.14-.24.41-.36.03-.46-.46-.6.07-.24.7-.65-.1-.65-.55-.24.29.8 1.08.74.1v.31h-.74l-.46.29.12.41-.65.67-.46-.02-.02.31.72.38.36-.38.65.48.38-.63-.72-.33.58-.34.99.1.72-.36.02-.72.84-.63.34-.77zM129.27 265.62l-.8-.32.29.49.51-.17zM136.16 266.34l-.24-.35-.8-.22-.49.18.19.37-.41.2-.46-.64-.02-.49-.97-.19-.1.53-.47.22.19.44-.2.3.61.82-.13.25-.39-.21-.52.11-1.08 1.54.46.13.48.79.45.09.02-.24-.41-.6.2-.22.58.36.31-.13-.28-.35-.05-.44.65.14.62-.15.02-.16-.47-.02-.34-.29.3-.2.53.18.79-.15.59-.5.61-.18-.08-.39-.34-.13-.14-.16.33-.26.46.02z" class="cls-4"/><path d="m143.89 63.03-.1.24.26.84.34.5.36.05.07-.45-.48-.87-.46-.31ZM143.35 71.48l-.24.07-.3-.03-.32.13-.62.64-.39 1.08.26-.07.1-.24.74-.71.35-.03.56-.6-.14-.24zM147.71 71.69l.24-.39-.37-.28-.46.03-.15.29-.5.21.49.19.75-.05zM142.34 73.05l-.26.34.2.05.49-.1.18-.42-.15-.16-.46.29zM145.72 70.95l.26.16.43-.21.13-.42-.37-.3-.94.24-.5.05-.13.29.3.17.82.02zM144.72 69.94l.33-.51.37-.12.28-.47-.3-.05-.45.34-.34.17-.37.42.12.59.36-.37z" class="cls-6"/><path d="m196.35 96.47-.1-1.65-.38-.24-.14-.82-1.16-2.55v-.87l-.19-1.06-2.17-.97-1.25.05-.91.39-.63-.87-.72-.14-.72-.82-.96-.48-.68-.09-1.49-1.59-1.2-1.68-.58-.14-.82-.77-.72.05-2.02-1.44h-.92l-1.01-.43-.63.34h-.96l-.58-.29-.63.29-.29.43-.38-.39-.92-.68-.14.29-.38-.34-.14.43v.34l-.53-.43-.1-.34-.4-.11.12.34-.19.13-.99-.39-.33.06-.83-.15-1.83-.87-.7.05-.04.2.14.37-.16.18-.38-.21-.17.1-.11.27-.64.3-.23.34-.09.78-.34-.58-.19-.5-.34.14.05.63-.55 1.06v.89l-.19-.84.22-.84-.12-.74.34-1.08.29-.27-.24-.21-.53-.02.7-.79-.92-.99-.53-.84-.51.05-.74-.12-.43.55-.43.21-.22-.5-.31-.19-.14-.48-.39-.31-.53.05-.26-.34-.46-.17-.26.33v-.29l-.36-.21-.24-.48-.41.17-.75-.21-.99-.58-.29-.05-.17.29-.6-.41-.43.05-.1.41-.29.02-.17-.46-.77-.02-.65.36-.36.65.05.38-.72.72-.94.55-1.2.69-.58.72-.36.94-.14.91-.31.48-.55.58.04.4.11.69-.12 1.25-.22-.76-.45-.75.02-.55.46-.58.54-.45-.09-.92.28-.77-.06-.41h-.4l-.78.26-.86-.25-.75.05-.6.16-.42-.36.48.06.57-.42.59-.13 1 .18.57-.13.53-.66h.24l.31.23.34-.11.58-.34.98-.34v-.77l.87-1.01v-.72l.34-.48.05-.58-.91-.19-.72-.58h-.67l-.96.58-.82.05-1.16-.48-1.25-.09-.91.96.05.38.3.22.19.32-.43.05-.27.14-.24.58-.17-.5-.31-.12-.72.29-.77 1.08-1.03 1.18.77-1.08-.02-.69.17-.39.07-.48h-.34l-.67.55-.34.77-.34.87-.55.36.53-1.01.1-.79 1.18-1.47.29-.99.43-.6.65-.36.7-.51.51-.22.62-.94 1.56-1.59.09-.38.31-.24-.34-.43.12-.46.22-.19.02-.65-.62-.46-.7.05-.22.24-.31-.53-.43-1.25-.75-1.85-.67-.96-.48-1.28.02-.7-.17-.7-.27-.26-.11-.65-.41-.79-.17.09.05.53-.26.41-.77.5h.01l-.04.03-.25.39-.82 1.01-.87 1.12v.6l-.65 1.39-.54.88-.41.81-.58.1-.35.25-.13.54-.59.44-.4-.13-.03-.88-.24-.11-.09-.28-.37-.04-.47.18-.36.4-.57-.1-.46-.51v-.33l-.17-.16-.21-.54-.12-.32-.45-.09-.65-.62-.87-.04-.64.29-1.38.06-.75-.19-.65.43-.11.6.62.6.16.39.31.73-.12.25-.57.02-.84-.23-.21-.16h-.28l-.06-.02h.02l-1.08.01-.6.1-.26-.29-.98.05-.7.29-.39 1.06-1.37-.05-.7.22-.1.32-.46.55-.77.07-.1-.21-.46.12-.41.53-.53-.21-1.32-1.13-.48-.6-.02-.48-.72-.72-.6-.63-.07-.67.14-.45-.17-.34.1-.6.24-.48-.05-.72.65-1.13.22-.92.6-.75-.02-.36-.63.05-.31-.48-.22-.48-.7.05-.58-.29.29-.41.41-.65v-.89l-.55-.7-.75-.07-.36.24-.26-.29-.33-.05.07.7-.31.79-1.73 1.23-1.08.09-1.49.62-.55-.26-.94.1-1.08.96-1.06.36-.36-.24-1.49.2-1.15.07-1.03-.58-1.04-.17-.96-.29.43.82.7.26.72.68.24.62-.94 1.44.17.31.19.36-.22 1.11 1.54.51 1.06-.12 1.06.22.05.68-.77.36-1.56.31-.28.3-.27.3-.31.86-1.71.89-.55.65-1.15.75-.78.94-1.36.07-.77-.11-1.32-1.03-1.28-.88-.87.1.02-.92-.13-.73-.55-.67-.18-.51-.91.24-.65.72-.43.07-.36-.34h-.65l-.41.46-3.78.02-.22 1.08.31.79 1.27.34.48.89-.36.41.38.41-.17.55-.79-.53-2.24.77.1 1.83.58.74 1.25.96.82 1.44-.05 1.13-.02.5-1.87 6.96-.56 1.84.08.33-.29.48-.72-.19.07-.22-.75-.48-.26.07h-.65l-.29-.12-.24.53-2.28.74-1.71.36-.43.43-.39.12-.69.7-.79.36-.6.38.1.87-.34.5.14.53-.91.91.31 1.16.31.6-.55.53-.48-.1-.94.6-.05.67-.34.36.22.46-.12.74-.27.63.24.55-.17.5.91.92 1.64 2.64-.84 1.06 2.07-.17.98.17.72 1.06.22.94 1.43.05 1.7.11 1.41-1.29 1.19-.69.34.36-.16.74-.24.25-.02 1.19.18 1.97.04.78.41.39.66-.11.64-.18.72-.05.37-.05.33.16.1.05h2.12l.96.04.96-.53h.53l.72-.58h.82l.96-.29.58-1.49 1.59-1.01 1.11-.19 1.06-.53h.72l.68.48.77-.48.39.34-.1.77.39 1.2-.53.96.43 1.54-.29.67.58 1.26.77.34.24 1.01.77.38 1.06.67.72.67.29-.34 1.4-.34 1.15 1.15.87-.24 1.2 1.3.53-.05 1.44.48.92.34.19.96.67.19.87.48 1.93-.19 1.35.77.29.58-.19 1.54.29 1.25-.39.77 1.25 2.12-.1 1.54 5.88.09.29 2.12-.09 1.35 1.73.39 1.73 3.08.09 1.63-1.64 3.28.09.48-.45.61.3.35-.19.72.82.63.05 1.01.67 1.01-.34 2.02.19.82-.24.72.24.72 1.25-.1.53.24 1.54-.1.96.34 1.54-.63.82.58.63.19.24.77.84 3.63.58 1.27.6.17 1.32-.72.75.29.51.46.48.1-.33.54-.08 3.14-.14.37-.09.12v.42l-.08.35-.03.4.58-.38 1.54.22.05.68.63 1.42-.05 1.13.14 1.3.12 1.2-.19.48-.67-.02-.82.43-.12.27-.48.41-.22-.12-1.37.91-.26.43-.53.14-1.25 1.03-.41.14-.05.82-.46.14-.41-.07-1.06 1.3-.19.51.02.74-.48.15-.26.41-.67 1.22-.48.51-.55.91v.31l-.63.43-.09.3h.5l.36.21 1.68-.51.7.46.77 1.06.67.29.41.91.79 1.3h.38l.65-.7.34.05.77 1.25.91.41.79.17.77.77.05.91.65-.14 1.3.57.77.97.82 1.22.74.53-.14.94-.63.86.31 1.01.12.25.09.16.39.52.19.16 1.26-1.05.43-1.01.56-2.33.5-1.59.22-.31-.29-.36-.48-.79.24-.67.48-.24.03-.43.55-.63v-.48l.34.27.46.07.55-.65.07-.67.22-.22.05-.77.24-.31h.34l.24-.65-.17-.48-.36-.38.05-1.01-.29-.26.34.09.38.79.79.87h.31l.34-.19.22.21.07.58-.26.07-.31 1.15-.77 1.33-.7.02-.1.84-.24.45-.22-.07-.7.39-.51.43-.05.36-.55.09-.27.26.03.36.65.19 2.12-1.66 1.08-1.23 1.56-2.67.6-1.35.6-1.73 1.51-2.89 1.49-1.78.24-.53-.14-.19.07-.46.31-.1.24-.75.43-.26-.14-.6.14-.43-.14-.19-.26-.22.05-.67-.65-.91v-.41l.12-.41-.12-.43-.22-.96-.34-1.01.26-.24.84-.17-.22-.55-.41-.24.79-.19.02-.65-.82-.36.67-.19.43-.63.34.26 1.06-.98.62-.41-.03-.34.89-.77 1.03-.67 1.37-1.56 1.2-.14.65-.63.72-.58h.67l.43.36.51.12.02-.48.5-.89 1.42-.89.55-.17v-.26l-.34-.22-.46-.1-.22-.41.5-.12.87-.53.5.14.57-.05.41-.32.57.03-.04.27-.81.46-.84.17-.17.19.28.22 1.29-.48 1.55-.62-.13-.25.41-.35.38.06-.13.38s.04.55.1.58c.06.02.97.14.97.14l.54-.3h.92l1.11.12.67-.46v-.34l-.16-.17.1-.34 1.51-1.02 1.26-.45.65-.4.19-.41-.18-.25-.55-1.27.41-.87.47-.57.03-.65.31-.26.55-.39.12-.67-.17-.1.94-1.51 1.28-1.49.02-.67-.26-2.12-.22-.41.41-1.27.33-.51.07-.43.99-.79.14-.38-.26-1.24.53-1.49-.14-1.15.19-.87-.05-.48.29-1.25-.34-4.52v-.84l.26-.63v-.6l-.28.31-.53-.38v-.39l.48-.75-.12-.75.12-.51.43-.12.1-.79-.46-.75-.89-.41.24-.1.12-.29.17.36.53.31.48.17.19-.72.46.02.19.41.34.17-.36.5-.48.36-.12.41.34.02.65-.6.89-.46 1.13-1.73.5-1.27.17-.77.43-.39.43-1.15.48-.99 1.76-1.2.22-.58.53-.17.38-.63 1.49-1.35 1.32-1.78.34-.48.82-1.8.22-.79.41-.58v-.58l-.43-.65.17-.67.39-.36Z" class="cls-6"/><path d="m143.8 70.9.19.29.33.11.03-.31-.08-.28-.41-.19-.06.38z" class="cls-6"/><path d="m131.2 52.88-.53.71.07.92.25.66-.08.75v.55l.6.37.27.53.37.6.13.69.12.3-.11.58-.53.52.07.84.25.44-.32.73-.8.55-.18-.04.12.31.21.55.18.15v.33l.46.51.57.1.36-.39.47-.19.37.04.09.28.24.11.02.88.4.13.59-.43.13-.55.35-.25.58-.1.41-.81.54-.88.64-1.38.01-.61.87-1.12.82-1.01.25-.39.04-.04.57-.76-.05-.84-.6-.67-.29.31-.41-.36-.07-.53-1.18-1.22-.31-.12-.77-.75-1.88-.48-.84-.51-.98-.09-.6.43-.6.34-.03.02-.26.29z" class="cls-7"/><path d="m121.85 52.33.02.46-.46.55-.61.31-.82.03-.43.82-.02.71-.57 1.4.06.42.6.31.4.47.1.33.38.52.04.43.38.34.44.02.25.21.13.49.27 1.01-.03.67.35.26.55.63.08.58.67.27v.26l.2.44.47.33.05.02h.28l.21.16.84.23.57-.02.12-.25-.32-.73-.15-.38-.62-.6.11-.61.65-.43.75.19 1.38-.06.64-.29.87.04.65.61.45.1.18.04.8-.55.32-.73-.25-.44-.07-.84.53-.52.11-.58-.12-.3-.13-.69-.37-.6-.27-.53-.6-.37v-.55l.08-.75-.25-.66-.07-.92.53-.71.26-.29.03-.02.64-.79-.04-.46-.7-.31-1.16-.2-1.32-.5-.43.05-.6.26-1.03-.1-1.3.27-1.08-.31-1.47.02-.84.31-.15.77.01.07-.17.68z" class="cls-4"/><path d="m111.57 43.6-.69.53-.51-.05-.91 1.08.26.46.24.72.89.05.56.43v.8l-1.09.48-.57-.22-.46.24-.53-.24-.46.53-.14 1.01-.67.62.31.84.86 1.21 1.25 1.03.01.07.33.05.26.29.37-.24.74.07.55.7v.89l-.41.64-.28.42.57.28.7-.04.22.48.31.48.63-.05.02.36-.6.74-.22.92-.65 1.13.05.72-.24.48-.1.6.17.34-.14.45.07.68.6.62.72.73.03.48.48.59 1.32 1.14.53.21.41-.53.45-.11.1.21.77-.07.46-.55.09-.32.7-.22 1.37.06.39-1.06.69-.29.99-.05.26.29.6-.1h1.08l-.01-.01-.47-.33-.2-.44v-.26l-.67-.27-.08-.58-.55-.63-.35-.26.03-.67-.27-1.01-.13-.49-.25-.21-.44-.02-.38-.34-.04-.43-.38-.52-.1-.33-.4-.47-.6-.31-.06-.42.57-1.4.02-.71.43-.82.82-.03.61-.31.46-.55-.02-.46.17-.68-.01-.07-.19-.67v-.82l-.22-.5-1.24-.34-1.09-1.13-.61-.48-.41.21-.67.23-.46.52-.15.62-.12-.79.15-1.04.22-.6-.34-1.1-.51-.39-1.31-.8-.88-.99-.08-.53-.64-.62-.62-.13-.18-.12-.1.31-.99 1.18z" class="cls-5"/><path d="m84.15 29.02.29.55.46.08.38.5.15-.55-.63-.63-.65.05zM78.77 28.01l.43.6.65-.02-.58-.53-.5-.05zM98.65 33.78l.68.18.53-.65-.29-.45-.99.75-.33-.43-.69.51.35.25.74-.16Z" class="cls-3"/><path d="m74.49 30.55-1.71.66-1 1.55-.31.38-.58.15-.52.77-.53.45-1.06 1.52-.2.67.22.58-.09 1.1-.51 1.09-.07.33.43-.05.58.03 1.32 2.41.59.89.17.63-.34.72.05.47-.23.38.03.48.76.63.94.41.59.07.7.34.54-.27.86.02.81.24.24-.21.96-.17 1.06.21.6.25 2.52 2.49.91-.2.25.21.26-.1.68.21.43.24.63-.35.66-.01.91.08.17-.18.58-.02.54.27.21 1.3-.27.53v.59l-.22.41-.79.24-.37.46.19 1.19.07.44-.25.83.02 1.06.36.52.03.39.72 1.78-1.08 1.96.09.49.36.12.33-.24.14.15.15.54.32.19.35.66-.18.38.39.84.66 1.69.06.64h-.04l1.28.88 1.33 1.03.77.1 1.36-.07.78-.94 1.15-.75.55-.65 1.71-.89.31-.86.28-.31.27-.3 1.57-.31.77-.36-.05-.67-1.06-.22-1.06.12-1.54-.5.22-1.11-.19-.36-.17-.31.94-1.45-.24-.62-.73-.68-.69-.26-.44-.82.97.29 1.03.17 1.03.58 1.16-.07 1.49-.2.36.24 1.06-.35 1.08-.97.94-.1.55.27 1.49-.62 1.08-.1 1.73-1.23.32-.79-.07-.7-.01-.07-1.25-1.03-.86-1.21-.31-.84.67-.62.14-1.01.46-.53.53.24.46-.24.57.22 1.09-.48v-.8l-.56-.43-.89-.05-.24-.72-.26-.46.91-1.08.51.05.69-.53.99-1.18.1-.31-.18-.11-1.27-.58-.46-.01-.45.18-.67-.15-.37.02-.55.24-1.07.17-.78-.09-.4-.05.7-.12.38.05.48-.32.29-.53.7-.52.14-.34-.46-.32.05-.21-.19-.53-.91-.48-1.11-.29-.34-.34-.4-.26-.65-.02-.22-.32-.67-.29-.36.03.02.55-.43-.58-.27-.64-.67-.34-.19-.36.36-.29 1.49.05.55-.36.94-.1.1-.55-.87.17-1.49-.31-1.08.14-.72-.05-1.47.53-.5-.21-.61.06-1.22.87-.63.15-.74.38-.29.36-.98.12-.32.19-.5-.17-1.47-.98-.29-.6-.43-.07-1.63.11-3.15.53h-1.54l-.6-.31-.24-.48v-.57l.38-.03-.07-.67-.67-.91-.63-.17-1.59.12-.72-.41-.53-.03-.43.15-.55-.89v-.89l-.24-1.11-.31-.12-.94.39-.92 1.08.22.72.31.29.63-.34.6.05.53.58-.1.41-.57.17-.68-.32-.31-.21-.15.19-.02.26-.77.41-1.46.26-1.47.63-.46.58v.55l.38.69v1.35l.14.92.29.77-.48 1.01-1.16.67-.58-.09v-.97l-.67-.77-.19-.67.62-.53.05-.39 1.25-1.25v-1.06l-.39-.69.05-.31-.03-.41-.53-.39-.26-.55.17-.45.77-.34.79-.19.7-.81-.37-.01-.16.12z" class="cls-3"/><path d="m81.94 28.73-.19.34.31.65.75.17.33-.36-.57-.08-.63-.72z" class="cls-3"/><path d="m50.63 67.61 1.5.98.59.01.78.82-.12.49.13.44 1.02.08 1.17.57.4.28 1.07.24.41-.38-.03-.68.48-.39.24.01 1 .36.52.28.15.44.45.25.07.05.24-.02.39.38 1.2.29.74.17.19.36.8.94.07.62.55 1.04h.44l1.58.53.68.98-.03.8.24.07.56.26.28.85-.21.33.19.48.62.27.7-.17.58.14.82-.02.33-.29 1.06-.48.91.17.8.38 1.15-.5h.6l.27.38.38-.02.75.36.33.46.65-.22.05.46-2.16 3.65.12.41.74-.07.84-.08.51.56.16.72.56-1.84 1.88-6.96.02-.5.05-1.14-.82-1.44-1.25-.96-.58-.74-.09-1.83 2.23-.77.8.53.17-.55-.39-.41.36-.41-.48-.89-1.27-.34-.32-.79.22-1.08 3.78-.03.4-.46h.65l.36.34.44-.07.65-.72.91-.24.18.51.56.68.13.73-.02.92.87-.11h.04l-.06-.64-.66-1.69-.39-.84.18-.38-.35-.66-.32-.19-.15-.54-.14-.15-.33.24-.36-.12-.09-.49 1.08-1.96-.72-1.78-.03-.39-.36-.52-.02-1.06.25-.83-.07-.44-.19-1.19.37-.46.79-.24.22-.41v-.59l.27-.53-.21-1.29-.54-.28-.58.02-.17.18-.91-.08-.66.01-.63.35-.43-.24-.68-.21-.26.1-.25-.21-.91.2-2.52-2.49-.6-.25-1.06-.21-.96.17-.24.21-.81-.24-.86-.02-.54.27-.7-.34-.59-.07-.94-.41-.76-.63-.03-.48.23-.38-.05-.47.34-.72-.17-.63-.59-.89-1.32-2.41-.58-.03-.43.05.07-.33.51-1.09.09-1.1-.22-.58.2-.67 1.06-1.52.53-.45.52-.77.58-.15.31-.38 1-1.55 1.71-.66.16-.12.37.01.09-.11.39-.29.14-.38-.38-.51-1.21-.65-.48-.02-.16.29-.05.31-.51.07-.26.22-.56-.07-.48.19-.26.31.29.34-.22.31-.86.43-1.16.7-.77.56-.89.19-.98.07-1.08-.12-.68.36.05.41.22.53-.07.53-.51.45-.34-.14.12-.53-.07-.17.48-.17-.69-.07-.85-.36-.43.02-1.1.68-.27.45-.74.87-.89 1.68-.12.48.26-.12.24.27.1.55-.19.6-.49.24-.62.05-.48.27-.87.83-.36.2-.65.96-.38.05-.55.02.19.63.58.65v.81l-.34.72-.36-.02-.6-.5.07-.24.21-.39-.5-.21-.22-.63-.73-.65-.14.58.11.44.3.83-.48.86-.23.81-.41.32-.33.02-.43 1.01.14.13.14.77.06.76.66.81.26-.02.32-.17.18.3.09.73-.41.46-.02.29.4.44v.93l-.43.32-.27.48.27.11.26.61-.08 1.13.06 1.55-.46.55-.08.47.39.55.59-.25-.08.37.34.49.35-.04.03.31-.34.43-.29.75-1.25 1.25-.34.69-.93.92-1.25.27-.96.73-.92 1.39-.15 1.11-.14.61.97.37 1.09.75z" class="cls-4"/><path d="m44.85 80.86-.61.54-.36.6.04.24.2.26.39-.12.25-.49-.05-.41.18-.45-.04-.17z" style="stroke-miterlimit:10;stroke-width:.5px;stroke:#fff;fill:#8562a3"/><path d="m45.07 84.59-.69.36-.56.62.1.65.67.03.75-.34.31.51 1.01.21.6.25.96 1.36h.44l.62-.64 2.6-5.39.48-.43 3.41-1.13 1.45-1.01 2.3-2.12.93-2.18.59-.03.14-.31.17-.77-.07-.63-.69-1.3.03-.35-.16-.49-.07-.05-.45-.25-.15-.44-.52-.28-1-.36-.24-.01-.48.39.03.68-.41.38-1.07-.24-.4-.28-1.17-.57-1.02-.08-.13-.44.12-.49-.78-.82-.59-.01-1.5-.98-1.09-.75-.97-.37-.19.79-.97.05-1.58 1.1-.82.05-.87.44.43.76.05.49.29.48-.19.91-1.25 1.35-.1.58.29.38-.63.92-.72.1-.58.81.24.53.26.69-.08.53.12.99-.36.62-.33.31.38.51.72.29.67.69.56.36.26-.19.29-.79.22-.41.48-.48.02.58.07.5.13-.31-.05-.53.21.05.22.86-.17.94.1.5-.34.85-.87.73.31.16.28.91z" class="cls-5"/><path d="m80.61 134.07.43.09.65-.41.24-.55-.6-.58.22-.57.33-.55.47.1-.08-.42-.41-.07-.29-.32.5-1.08.75-.5.67-.89.08-.79-.97-2.21.34-.53-.07-.84-.22-.44-.14-.69.4-.46.25-1.15-.1-2.14-.31-.94.41-1.06-.03-2.31.55-.91-.02-.48-3.08-4.4-.09-.05-.33-.15-.37.05-.72.05-.64.18-.66.11-.41-.39-.04-.78-.18-1.97.03-1.19.24-.26.15-.74-.33-.36-1.2.69-1.41 1.29-1.69-.11-1.44-.05-.21-.94-.72-1.06-.99-.16-2.07.16.85-1.05-1.64-2.65-.91-.91.17-.51-.25-.55.27-.62.12-.75-.22-.46.34-.36.05-.67.94-.6.48.1.55-.53-.31-.6-.31-1.16.91-.91-.15-.53.34-.5-.1-.87.61-.39.79-.36.69-.7.39-.11.43-.44 1.71-.36 2.28-.74.24-.53.29.12h.65l.27-.08.74.49-.07.21.72.2.29-.49-.24-1.05-.51-.56-.84.08-.74.07-.12-.41 2.16-3.65-.05-.46-.65.22-.33-.46-.75-.36-.38.02-.27-.38h-.6l-1.15.5-.8-.38-.91-.17-1.06.48-.33.29-.82.02-.58-.14-.7.17-.62-.27-.19-.48.21-.33-.28-.85-.56-.26-.24-.07.03-.8-.68-.98-1.58-.53h-.44l-.55-1.04-.07-.62-.8-.94-.19-.36-.74-.17-1.2-.29-.39-.38-.24.02.16.49-.03.35.69 1.3.07.63-.17.77-.14.31-.59.03-.93 2.18-2.3 2.12-1.45 1.01-3.41 1.13-.48.43-2.6 5.39-.62.64h-.44l-.96-1.36-.6-.25-1.01-.21-.31-.51-.75.34-.67-.03-.1-.65.56-.62.69-.36-.28-.91-.31-.16-.04.04-1.64.72-.6.55-1.15 1.13-.24.84-.27.65.07.31.53.44.08.48-.41.28v.36l.64.59.51.93-.07.65-.5.02-.53.25-.2.5.56.53.67.26.98.84.92.12 1.37.92.67.17.17.55.75 1.06.09.91.39.67 1.34.7.6.99.2.96.38.64.12 1.09.46.74.53.32.6 1.08.12.79-.2.26.53 1.16 1.06 1.32.41.7-.17.55.12.46.43.14 1.13 1.01.29.6.12.94.32.41.86.31.17.8.96 1.53.24.77 1.11 1.56.02.63-.29.12-.31-.22-.02.34.12.55v.51l.38-.07.43.28.1.44-.14.34 1.1.76 1.06.53.05.46.5.62.63.07.25.33.24.55.42.28 1.01-.05.33-.4-.21.58.58.66 1.07.56.48.44.09.5.5.34.81.29.29-.11.57.16 1.29.78.87.34.63.03.3.16.18.45.92.66.5.31.73.68.44.18.22.42-.05.35.01.47.76.16.76.31.92.95.85.79.58.18.12.12.84-.4.72-.48z" class="cls-7"/><path d="m83.66 113.37.02.48-.55.91.03 2.31-.41 1.06.31.94.1 2.14-.25 1.15-.4.46.14.69.22.44.07.84-.34.53.97 2.21-.08.79-.67.89-.75.5-.5 1.08.29.32.41.07.08.42.16.04.07.84.67.6.36.34.1.62-.14.66.11.35.17 1.13.53.75 1.52 1.23.13.51-.39.97.24.67-.82 1.78.48.68 1.64 1.53 2.46 6.61h.91l.24-.44.53-.09h.01l.42-.53.58-1.21 1.3-1.35.87-.28.82.72.96-.1.58-.14.72.19 1.2-.24.63.1.15.86.48 1.4.24.38.29-.38-.05-.63.38-.62v-.63l.53-.77h1.93l1.68.05.64.59.27-1.12.89-1.83.07-.89-.12-.91-.34-.53 1.06-1.57.43-1.25v-.55l.77-.51 4.57-1.26 3.8.05 2.22 1.64.53.09.37.43.45-.62-.1-.48 1.64-3.27-.1-1.64-1.73-3.08-1.73-.39.09-1.35-.29-2.12-5.87-.09.09-1.54-1.25-2.12.39-.77-.29-1.25.19-1.54-.29-.58-1.35-.77-1.92.19-.87-.48-.67-.19-.2-.96-.91-.34-1.45-.49-.53.05-1.2-1.3-.87.24-1.15-1.15-1.4.34-.29.33-.72-.67-1.06-.68-.77-.38-.24-1.01-.77-.34-.58-1.25.29-.68-.43-1.54.53-.96-.39-1.2.1-.77-.39-.34-.77.48-.67-.48h-.73l-1.05.53-1.11.19-1.59 1.01-.58 1.49-.96.29h-.82l-.72.58h-.53l-.96.53-.97-.05-2.12.01 3.08 4.4z" class="cls-5"/><path d="m119.3 139.06-2.22-1.64-3.8-.05-4.57 1.26-.77.51v.55l-.43 1.25-1.06 1.57.34.53.12.91-.07.89-.89 1.83-.27 1.12.09.08.77.82.62.15.82 1.49 2.07 2.07.82.09.82.73.53.86 2.02.48 1.3.68.6.13 1.47 1.27 1.49.75 1.99.26.8.89.98.82.39.82-.22.72-.5.79-.58.43-.34.56.19.69-.48 1.3-1.03 1.06-.19.75.58-.03 2.35-.36 2 .6 1.39.84.77-.33h.43l.34.36.67-.87.31-.17.73.22.6-.74.26-.87 1.52-1.06.21-.72.46-.82.6-.5.07-1.23-.12-.34.07-.93.19-.13.03-.4.09-.35v-.42l.09-.12.13-.36.09-3.14.32-.54-.48-.09-.5-.46-.75-.29-1.32.72-.6-.17-.58-1.27-.84-3.63-.24-.77-.63-.19-.82-.58-1.54.63-.96-.34-1.54.1-.53-.24-1.25.09-.25-.72.25-.72-.2-.82.34-2.03-.67-1-.05-1.01-.82-.63.19-.72-.67-.78-.53-.09z" class="cls-4"/><path d="m139.5 189.7-.09-.16-.12-.25-.31-1.01.62-.86.15-.94-.75-.53-.81-1.22-.78-.97-1.29-.57-.65.14-.05-.91-.77-.77-.79-.17-.92-.41-.76-1.25-.34-.05-.65.7h-.38l-.8-1.3-.41-.92-.67-.28-.77-1.06-.7-.46-1.68.51-.36-.2-.5-.01-.05.18-.32.75-.6.77.22 1.06-.26.5.19.55-.12 1.49-.24.53.07.58-.41.72.34 1.03-.24.36.17 1.5.28 1.08-.21.49-.49.46-.13.22v.06l.02 1.48.46 1.19.97 1.36.34.07.93.93.49.12 1.47-.15.87.06.79.56.51.08.52.04.17.17-.1.24-.01.36.67.02.73-.44.94-.17.66.23.42.25.35-.07.49.19.49.05.33-.24.08-.4.17-.12.28.24 1.24-.46.81-.92.21-.36-.12-.1.33-.52.64-.6v-.94l.53-.62.28-.23-.19-.16-.39-.52z" class="cls-5"/><path d="m123.25 188.8.49-.46.21-.49-.28-1.08-.17-1.5.24-.36-.34-1.03.41-.72-.07-.58.24-.53.12-1.49-.19-.55.26-.5-.22-1.06.6-.77.32-.75.05-.18.09-.3.63-.43v-.31l.55-.92.48-.5.67-1.23.27-.41.48-.14-.02-.75.19-.5 1.05-1.3.41.07.46-.14.05-.82.41-.14 1.25-1.04.53-.14.26-.43 1.37-.92.22.12.48-.4.12-.27.82-.43.67.02.19-.48-.12-1.2-.14-1.3.05-1.13-.63-1.42-.05-.67-1.54-.22-.58.38-.19.13-.07.93.12.34-.07 1.23-.6.5-.46.82-.21.72-1.52 1.06-.26.87-.6.74-.73-.22-.31.17-.67.87-.34-.36h-.43l-.77.33-1.39-.84-2-.6-2.35.36-.58.03.19-.75 1.03-1.06.48-1.3-.19-.69.34-.56.58-.43.5-.79.22-.72-.39-.82-.98-.82-.8-.89-1.99-.26-1.49-.75-1.47-1.27-.6-.13-1.3-.68-2.02-.48-.53-.86-.82-.73-.82-.09-2.07-2.07-.82-1.49-.62-.15-.77-.82-.09-.08-.64-.59-1.68-.05h-1.93l-.53.77v.63l-.38.62.05.63-.29.38-.24-.38-.48-1.4-.15-.86-.63-.1-1.2.24-.72-.19-.58.14-.96.1-.82-.72-.87.28-1.3 1.35-.58 1.21-.42.53.43.9-.86 3.77-3.99 2.12-.27.87.7.58.17.59-.41.73.19 1.13.72.91v.84l-.6.46-.14.65.4.33.25.48.04.94.32.34-.51.6-.65.33-.86.89-.89 2.24-.63.84-.24 2.48-.46.46.1 2.09.6 1.1-.05 1.47-.52.68-.03 1.65-.94.43-.17 1.28.34 1.63.6.82.12.62.77 1.23.53 1.01.41 1.95.48.45.29 2.58-.17 1.59-.65.21-.55 1.35.19 1.32-.77 1.13.46.38.67 1.13.17 1.2-.79.82-.7 1.4.02 2.31v.96l-.24 1.3 2 3.92-.48.57-.89.43-.19 1.83-1.23 1.64.15 1.15.62 1.04-.22 2.49.12 2.19.29 1.56.63.32.36.67-.22.87-.72.48.14 2.55.32.98 1.06.36-.08 1.13.05.96.63 1.35.31 1.54.63.12.5-.35.45.18.05.81-.74.85-1.5-.01-.24.57.41.4.21-.2h.7l1.11.78.69 1.23.02.76-.86.74-.06.66.44.88.25 1.84.39 1.43-.61.61-.1.77.66 1.58-.67.77-.27 1.52.44 1.3.33 1.75-.33 1.71-1.16 1.2-.69 1.01-.44 2.98.2 1.07 1.47 2.93.68.01.58-.65 1.06-.52.7-.03v.89l.22 1.92.72.66.34 1.17.52 1.4 1.62.12.55.31 2.4-.41h4.31l.23.28.73.11.91.83.78.36.29.02-.07-.63-.68-.52-1.13-.7-.12-.65-.57-.55-.39.12-.36-.36.5-.29.13-.43-.2-.1v-.48l-.55-1.54-.65-1.01-.12-.98.39-1.11.81-.67.29-.53-.24-.26v-.61l-.31-.41.43.24.43.48.51.17.69-.57.1-.53.6-.7.2-.53-.22-1.01-.51-.12-.31.24.14-.43.58-.55.24-.72.15-.75.77-.75.64-.04.24-.77.49-.65.33-.12.12-.53.53-.26.53-.61-.12-.24.07-.43.41-.29-.6-.55h-.38l.57-.55v-.53l-.38-.8v-.35l.24-.27-.22-.36-.53-.17-.29.14-.6-.02-1.1.1-1.32-1.23-.89-.77-.46-.14-.67-.56-.72-1.2v-.72l-.41-.55.04-.41.75-.53.26-.58.25-.79.43-.1.55-.65.75-.09.62-.67.96-.15.6.1 1.06-.19.05-.3-.31-.31-.65-.24.09-.29.12-.5.92-.6-.17-.19.31-.46.03-.31-.8-.87.12-.41v-.45l-.24-.36-.21-.85.52-.55.27-.65-.24-.26.38-.43 1.04-.39.72-.67-.03-.34-.98-.29-.68-.02-.28-.48.12-.36.6-.46.89-.34.81.44v.38l-.11.29.26.65.48.17 1.3-.75.19-.65-.31-.69-.44-.53.27-.12.14-.6-.45-.77-.51-.05-.65.43-.5.03-.31.26.19.15.55.14-.05.36-1.13.33-.5-.19.31-.31.39-.22-.37-.19-1 .08-.77-.44-.22-.6.02-1.59-.26-1.2-.72-.65.02-1.18.67-.67.51-.02-.22.38.2.12.74-.07 1.28.41 1.17.98 1.01.25 1.88-.03 1.13-.77-.1-.21.77-.56.14-.62-.16-.48.19-.36.19-.56-.58-.16-.41-.7v-.6l.25-.46-.15-.31.6-.6-.02-.22.24-.07.1-.43-.12-.58-.56-.05.07-.36-.31-.46v-1.18l-.17-.38v-.55l.22-.22.29.39h.46l.93.31.75.48h.65l1.03-.19 1.11.16 1.39-.07 2.33-.6 2.05-.84.09-.43.27.36 1.41-.48 1.83-1.13.27-.65-.2-.77.34-1.03.24-.22.1.36.24-.34.24-1.05.65-1.06.14-.65v-1.42l-.14-.55-.17-.03-.43.46-.73-.02-.86-.58-.5-.96.04-.48.82-1.64.05-.67-.39-.48-1.73-1.35-1.39-.53-1.4-1.08-.33-.6.21-.22-.02-.57-.42-.44.13-.37-.24-1.21.17-1.36v-.06l.13-.22zM116.15 282.75l-1.23.29-.69-.07-.82-.75-.96-.29-.32-.36-2.59-.84-.72-.24-.05-.77-.84-.7-.87-.12-.38-1.1-.36-.65-.82.14-.73-.27 1.57 6.22.23.06 1.19-.23h.92l.89-.17-.11.22-.55.11-.89.31-1.59.06.32 1.27h.36l1.13-.39 1.39.12.96-.07 1.37.14.75.41.77.27.75-.19.6-.61.14-.57.72-.22.32.27.84-.49-.13-.57-.57-.22zM104.97 276.33l.5-.21.37.35-.34-1.63-1.08-1.08-.51-.75-.13.06.95 3.79.24-.53zM120.05 283.38l-.91.05-.41.25.53.47.74-.47.67-.17.61-.56-.78-.04-.45.47z" class="cls-7"/><path d="m79.06 238.9.12-.27.84-.17.31-.34-1.39-.02-.17.53.29.27ZM79.52 258.88l.57-.9.38-.15-.25-.54-.77-.35-.13-.19-.37.34.35 1.13-.03.51.25.15zM79.22 255.85l-.22-.65-.47-.2-.25-.07.02.9.36.28.05.29.39-.06.12-.49zM79.45 260.59l.31.38-.12.37.35.37.42-.31.16-.55-.4-.65-.72.39zM78.19 236.31l.11.32.35.09.52-.2.07-.28-.33-.36-.49-.02-.23.45zM80.54 237.92l.48.04-.19-.74-.29.7zM80.16 242.7l-.26-.53-.58-.12-.19-.29-.27.39.63.69.67-.14zM81.17 265.47l.34-.25.43-.31h-.77v.56zM79.35 235.86l.12-.35-.29-.21-.13.18.3.38zM84.71 265.82l-.57-.92-.42-.02-.44-.36-.28.01-.04.24.56.8.6.23.82.73-.23-.71zM80.45 239.33l-.48.05-.75.24.32.29.86-.02.05-.56z" class="cls-3"/><path d="m81.6 261.98.32-.22.16-.67.2.58.12.72.36.22.45-.37.03-1-.36-.92.14-.24-.1-1.23-.38-.72-.34-1.46-.43-.32h-.94l-.36.32.03.74.38.41-.19.58.1.36.28-.03.27-.38-.05.46-.48.41-.67.12.67 1.32.21.79.58.53zM83.26 265.82l-.32.08.17.85.71.86.57.02.26-.43-.67-1-.72-.38zM80.52 242.37l.36-.44-.67.03.31.41zM78.31 242.7l.36.02-.1-.57-.29.02.03.53zM79.25 237.58l-.34-.65-.67-.02.14.41-.05.52.41-.16.51-.1zM76.72 233.78l.35.34.84-.31-.43-.32h-.5l-.26.29zM78.8 234.25l.37.36.66-.42-.88-.2-.15.26zM76.12 238.59l.84.36.22-.41-.36-.38h-.63l-.07.43zM77.33 237.83l.25.26.42-.32-.35-.34-.32.4zM79.99 234.69l.43.36.05.4.44-.24-.09-.67-.49-.14-.34.29zM80.33 237.6v-.86l-.65.24.65.62zM79.9 241.11l-.56.05.53.58.03-.63zM80.79 255.83l.64-.07.7.07-.33-1.11-.53-.48-.05-.72-.63-.27-.07-1.06-.53.32-.57.07-.27.38.63.53.79 1.21.14-.25.31.27-.4.36.17.75zM78.39 253.18l-.21.23-.02.39.15.79.68.13.42.34-.07.26.26.98.53.32.22-.35.04-.73-.58-.86-.87-1.35-.55-.15zM82.66 266.04v-.57l-.19-.36-.17.48.19.69.17-.24zM88.08 279.15l-.29.23.71.21s-.45-.41-.42-.43ZM86.75 270.69l-.36-.79-.28.01.01 1 .37.42.8.38.2-.03-.18-.37-.56-.62zM95.22 281.01l-.22-.5-.47-.19-.69.21-.16-.37-.41-.18-.92-.66-.71.03-.6.25-.32-.16-.34-.33-.52.05-.2.27.05.35.62.33.24.59.62.15.66.78.5.09.73-.15.35.22.07.45.41.42.47-.2-.18-.32.51-.48-.04-.34-.26-.2.32-.15.49.04zM87.46 272.67l-.13-.52-.45-.11-.21.16.51.51.28-.04z" class="cls-3"/><path d="m92.51 282.05.17.12.28.2.25-.23-.35-.34-.35.25zM90.84 279.11h.65l.11-.2-.18-.26-.28-.03-.65-.47-.29-.32h-.77l-.53-.29-.56-.21-.56-.03-.45-.27-.7-.82-.39-.26-.18.31.15.65.43.8.69.1.92.4.33.48h.5l.27-.16.89.34.6.24zM85.19 272.45l.03.65-.24.26.09.22.32-.16.3-.75-.17-.33-.33.11zM86.47 271.92l-.15-.37-.67-.35.13.39.51.36.18-.03zM86.53 272.79l.24.41.73.79.26-.1.02-.49-1.07-.84-.18.23zM87.12 274.36l-.51.19.26.21.63-.04.11.35.34.29.29.16.34-.55-.21-.64-.79.13-.46-.1zM110.38 289.69l.29.21.46-.46h-.33s-.41.29-.42.25ZM95.18 282.26l-.39.44.01.44.44-.14.31-.5.13-.19-.31-.13-.19.08zM111.42 288.14l.18.36-.37.48.31.35.39.02.02-.55-.09-.51-.44-.15zM106.05 283.62l-.62-.41-1.16-.44-1.68-.5-.77-.27-.05.27.22.29-.26.21-.28-.11-1.13-.47-.62-.33-.15.16.25.31 1.45.69.08.25h-.42l-.13.06-.03.28-.25.05-.19-.39-.69-.42-.22.18.06.43-.39.08-1.11.08-.24.15.24.24-.1.18-.54-.11-.64.17.11.38.74.13.59-.03.18-.31.18-.13.39.18.64.42.33-.14.19.24v.37l.41.25-.48.24-.29.6.38.43.42-.01.4.15.55.56h.39l.08-.22-.4-.29-.65-.39-.09-.34.17-.04.48.22.39-.28.09-.29-.44-.1-.36-.24 1.41-.55.58-.29 2.65.67.33-.21-.07-.36h.77l-.32-1.27-.38.02zM99.86 279.24l-.13-.69-.4-.25-.09.67-.23.63.3.56-.23.4v.49l.59.34.64.17.22.22.25-.3-.73-.54.44-.44-.29-.38.07-.24-.41-.64zM85.49 271.64l-.01-.59-.34-.33-.27-.3-.21.13-.13.33.12.5.12.18.06.28.28.07.38-.27z" class="cls-3"/><path d="m110.93 286.81.51-.33.33-.34-.33-.33-.13-.58-.62-.17-.96.02-.82.08-1.03-.1-.87.38-1.61.37-.77-.13-.33.08h-.53l-.48.24.36.33.4-.19.54.26-.97.36-.53.27-.02.29.53.38.48-.41-.22.51.46.17.17.33.43-.19.77.36.29-.02.07-.51-.5-.28.07-.32.7-.07.21.6.48.34.51-.27.48.12.74.68.27.04v-.59l-.7-.61-.55-.21.21-.25-.29-.23-.79-.18-.16.08-.63-.48.79-.12h.39l.5-.53.51.02.29.63.28.4.77-.04.63-.43.36.16.31.41zM98.3 286.43l.43.4.38-.42-.27-.23-.54.25zM97.39 282.66l.28-.27.22.33.54.15.39-.29-.16-.38.25-.5-.27-.18-.32.07-.29.29-.29-.43-1.17-.31-.23.2-.9.09.01.32.38.22.3.53.28-.29.6.09.38.36zM98.92 285.43l-.46-.23-.16.4.21.22.38-.01.03-.38zM77.2 227.35l-.15.51.17.41.19.18.28.83.13 2.04-.34.73.78.33 1.1-.11.01-.29-.07-.69.28-.48.66.22.14-.13-.72-.68.28-.28-.74-.75-.05-.38.39-.03.64.36.03-.15-.25-.31-.79-.57.74.22.01-.65-.15-.25.04-.9-.58-.83-.61-.27-.74-.02-.47.45-.02.36.23.32-.05.52-.37.29zM83.65 270.21l.13.26.17.14-.28.25-.18.33.19.5.32.22.4.07-.34-.52.34-.25.02-.63-.24-.43-.53.06zM81.1 240.03h-.72l-.58.34.36.29.22.72.43.22.36-.51-.07-1.06zM81.41 236.11l.17.34.67-.05-.58-.46-.26.17zM81.63 238.42l.04.75.48-.51.34.07.32.17.43-.09.19-.46.36-.53-.53-.58-.14-.48-.63-.12-.67.27-.31.98.12.53zM80.62 227.51l.57.48.24-.36-.33-.34-.48.22zM81.93 234.1l-.59.39.22.41.37-.36v-.44zM84.26 269.13l.08-.21.51-.02.03-.37-.94-.62-.42.03-.46-.42-.42.11.34.55-.33.68-.29.29.3.22.93-.18.67-.06z" class="cls-3"/><path d="m102.07 271.02-.23-.28h-4.31l-2.4.41-.55-.31-1.62-.12-.52-1.4-.34-1.17-.72-.66-.22-1.92v-.89l-.7.03-1.06.52-.58.65-.68-.01-1.47-2.93-.2-1.07.44-2.98.69-1.01 1.16-1.2.33-1.71-.33-1.75-.44-1.3.27-1.52.67-.77-.66-1.58.1-.77.61-.61-.39-1.43-.25-1.84-.44-.88.06-.66.86-.74-.02-.76-.69-1.23-1.11-.78h-.7l-.21.2-.41-.4.24-.57 1.5.01.74-.85-.05-.81-.45-.18-.5.35-.63-.12-.31-1.54-.63-1.35-.05-.96.08-1.13-1.06-.36-.32-.98-.14-2.55.72-.48.22-.87-.36-.67-.63-.32-.29-1.56-.12-2.19.22-2.49-.62-1.04-.15-1.15 1.23-1.64.19-1.83.89-.43.48-.57-2-3.92.24-1.3v-.96l-.02-2.31.7-1.4.79-.82-.17-1.2-.67-1.13-.46-.38.77-1.13-.19-1.32.55-1.35.65-.21.17-1.59-.29-2.58-.48-.45-.41-1.95-.53-1.01-.77-1.23-.12-.62-.6-.82-.34-1.63.17-1.28.94-.43.03-1.65.52-.68.05-1.47-.6-1.1-.1-2.09.46-.46.24-2.48.63-.84.89-2.24.86-.89.65-.33.51-.6-.32-.34-.04-.94-.25-.48-.4-.33.14-.65.6-.46v-.84l-.72-.91-.19-1.13.41-.73-.17-.59-.7-.58.27-.87 3.99-2.12.86-3.77-.44-.9-.53.09-.24.44h-.91l-2.46-6.61-1.64-1.53-.48-.68.82-1.78-.24-.67.39-.97-.13-.51-1.52-1.23-.53-.75-.17-1.13-.11-.35.14-.66-.1-.62-.36-.34-.67-.6-.07-.84-.16-.04-.47-.1-.33.55-.22.57.6.58-.24.55-.65.41-.43-.09-.72.48-.84.4.29.27.07.94-.08.7.15.94.54 2.49v.94l-.2.67-.36.39.27 1.27.41 1.25.43 1.05v1.74l-.19.48-.15.31.12 2.36v.57l-.48.29-.45.32.07 1.32.21.33.44-.31.26.24-.41.39.03 3.48.48 1.33.09 1.03-.12.86-.55.9v.86l.62 1.13-.14.7-.07 1.68-.36.62v.92l.17.48v.41l-.56.84-.04.87-.34.55.19 1.05-.12.46-.55 1.25v.53l.6.94.12.96.38.6-.48.34-.28.74.45.58-.48.57-.46.2-.02.87.14.74.08.7.77 1.99v1.11l-.32.36.07.6.7 1.01.05 1.18-.22.81.03.34.17.58-.1.5-.17.58.19.33.75 1.04.1.58-.37.57-.5.32-.46.93v.29l.27.31-.24.8-.39.43v.55l-.09 1.01-.29.56.05.6-.17.28-.08.82-.38.41.05.36.24.39-.41.6-.02.91-.08.56-.45.31v.62l-.22.41-.04.48.21.55.02.68-.38.55-.39.05-.4-.31-.49.11-.07.41.12.72.03 1.02.45.67.73.6.09.7-.12.89 1.03 1.75.17.48.41.39V215l-.29 1.47-.26.22.12.46-.12.43-.24-.15-.36.05-.22.6.17.63.43.36-.36 1.37.12.6-.31.38.36.32-.14.45-.15.22.22.34 1.03 1.61.31.31.24.51.97.4.93-.24.05-.94.15-.19.6.03.5.6.22-.15.43-.07-.33.51-.73.65v.43l.56.24.38-.24.07.5.07 1.16.32.38-.17.17-.31-.34-.24-.55-.39-.17-.19.34.05.33.62.46.12.34-.43.14-.29.24.05.82.55.53-.5.58-.05.46.24.18-.58.63.1.34.72.45-.19.56-.12.81-.41.51-.02.41.33.33.65.03.41.4.07.51.58.1.26.41-.07 1.05-.48.72-.86.53h-.39l-.07.65.26.72-.24.32.03.41.26.16-.48.58-.36 1.04-.02.74.35.17-.16.39-.05 1.24-.46.24-.12.65-.24-.38.24-.31.2-1.06-.1-.56.12-.33-.29-.1-.87.29-.62.43-.36-.05.02-.28.6-.22.39-.29v-.91l-.24-.17-.67.24-1.18.05-.39-.12-.45.12-.03.38.34.7.24.03.14.52-.41.08-.21.62-.46.34-.24.55-.86.48-.05.51.91 1.01.51.07.31-.34-.05-.41-.6-.17-.07-.33.31-.62.84-.08.17-.22.14.77.63.41.74-.02.32-.34.4.17.25.38.86.44.34.38-.36.07-.17.34.29.39-.39.28-.29.46.27.38.6.39-.1.19-.6-.26-.22-.32-.35.05-.05.53.5.46.22.45.89.15.89-.46.36.37.34-.03.55-.24-.24.43.12.24-.22.15-.6.02-.17.24-.45-.36-1.01.27-.24.47.11.34.65.41.12.55.58.15.48-.27-.07.36-.51.48.03.34.09.29-.19.39-.36.02-.05.43.39 1.61.36.46-.03.74.39.65.53.22v-1.11l.34-1.25.45-.31.17.29-.31.02-.39 1.4.05.36.51.34.43-.03-.17.17-.77.17-.57.53.09.33-.14.6v.58l-.34.24-.27.58.05.43.92.67 1.27.27.51.38-.1.32-.29.02.19.62.24.34.53-.6-.02.51-.14.41-.54.18-.38.53.34.22h.48v.41l.5.6.32-.02.37-.38-.06.65.19.62-.31-.01-.29-.22-.31.05-.15.39.6.73.22.07.22.69.29.39.57.53.46-.08-.31-.88.14-.39-.17-.51.55.39.1.53.39.53.24-.65.41-.41-.03-.44-.43-.14-.79-.12v-.26h.5l1.06.31.16.24.68.02-.17-.55-.65-.33-1.18-.07-.05-.29.37-.15 1.03.39 1.06.6.17.79-.44.48-.02.51.43.88-.05.49-.48.36.24-.77-.45-1.09-.46-.38-.27.41-.04.53.28.41-.26.5-.21-.26-.15-.56h-.36l-.5.36h-.75l-.62.25.57.43.05.79.28.51.11.39-.21.36.11.21.45.09.25-.51.3.19.51.17v.2l-.47.17-.47.42.13.34.79.08.92.51.32-.13.28-.41-.26-.67.17-.51-.2-.52-.25.15-.48-.08.17-.18.37-.26-.01-.39.29-.16.73.26.33-.2.12.34.33.15.16-.33.65-.15.58.19.65-.07.57.04.06.24-.36.17-.29.43-.39-.1-.41-.33-.43.12-1.04.92-.24.04-.3-.06-.4.43.1.4-.22.44-.18.25.03.25.27.18-.24.3v.27l.98.33.7.61.21.01.13-.3-.14-.51.38-.47.44-.11.06-.26-.52-.58.88-.18.54-.48.57-.83.41-.26.11.17.45.26.38-.02.08.17-.46.19-.32.55-.11.39-.58.57v.69l.19.44-.33.39-.53.23.02-.28.28-.2.01-.82-.22-.14-.31.23-.1.44-.24-.09-.37.04-.25.31.34.56 1.07 1.04.95.15.63.35.4-.02.44.23.3-.32.4-.75-.34-1.01.09-.49-.04-.44.11-.88.06-.99-.17-.67.1-.46.82-.48.76-.91.46-.2h.67l.27-.26-.07-.84.38-.36.74-.2.87.51.41-.24.11.05-.91-.83-.73-.11z" class="cls-3"/><path d="m104.68 276.98.05-.12-.95-3.79-.9.38-.29.24-.5-.48-.49-.12-.26.5.14.53-.09.43-.58.56-.17.28-.67-.38-.41-.12-.41.58.41.31.51-.07-.1.48-.55.55.19.41.05.77.65.81.48-.02.48-.55.96-.53.72.02.19.56-.45.77-.65.19-.12.34-1.04.5v.29l.1.3.6.6.73.45.55-.06 1.13.4 1.59 1.07.76.18-1.57-6.22-.09-.04zM82.48 263.08l-.74-.11-.32-.15-.15.14-.03.39-.25.34.4.3.18.5.29.01.37-.3-.03-.56.28-.56z" class="cls-3"/><path d="m109.44 22.87-.79 1.05.12.65.55.27.34-.92-.22-1.05z" class="cls-5"/><path d="m113.65 26.06.43.59.83-.02-.02-.63-.61-.58-.63.64z" class="cls-3"/><path d="M107.93 28.2h0" style="fill:none;stroke-linecap:round;stroke-linejoin:round;stroke-width:.5px;stroke:#fff"/><path d="m108.51 25.22-.22 1.73.51-.98-.29-.75zM106.7 29.45l-.24.79.8.03.4-.55-.26-.41-.7.14zM108.27 28.83l-.33-.62c0 .06-.17.62-.17.62h.51Z" class="cls-7"/><path d="m109.31 33.88-1.22.53-.6-.25-.75.21-.2.4.64.56.04.61-.65.57-.68.26.76.3 1.64-.26.68-.58-.02-.73-.35-.6.76-.76-.05-.26zM110.34 33.03l-.69.31.57.24.12-.55z" class="cls-4"/><path d="M-1467.1-590.67h6562.35v1176.7H-1467.1z" style="stroke-width:8px;fill:none;stroke-linecap:round;stroke-linejoin:round;stroke:#fff"/></svg>