<svg xmlns="http://www.w3.org/2000/svg" id="Calque_1" data-name="Calque 1" viewBox="0 0 200.13 128.13"><defs><style>.cls-1{fill:#ff6d75}.cls-2{fill:#d6d6d6}.cls-2,.cls-3,.cls-4{stroke-width:2px;stroke:#000}.cls-2{stroke-miterlimit:10}.cls-3,.cls-4{stroke-linecap:round;stroke-linejoin:round}.cls-3{fill:none}.cls-4{fill:#fab0b4}</style></defs><path d="M159.3 67.51c-3.5 2.84-5.41 4.8-8.85 5.6l-.06-4.98c1.99-1.85 7.42-5.49 8.89-6.22.06.17-.02 5.34.02 5.6ZM64.88 74.53c-.26.94-.29 8.57-.66 9.48-2.84-.81-5.34-3.25-8.05-4.25.11-.56-.21-3.53-.56-6.21-.03-.23-.41-3.15-.3-3.36l5.17 2.48s1.95 1.14 4.4 1.87Z" class="cls-3"/><path d="m23.4 44.15 9.25 1.51.86 9.25 8.32 8.29-1.67 5.91-8.18-8.45-4.66-6.73-3.92-9.78zM164.44 42.82l1.4 6.85-2.05 7.64-3.63 2.72.25 6.26 6.21-5.83 5.32-9.57 5.12-9.94-12.62 1.87zM42.82 46.75l2.76 4.14.54-3.31 11.02 1.24 2.64 4.62L62 58.82l6.35-7.48 6.48.75 3.5 3.86 1.52 4.71 4.49-6.73 14.32 2.35 2.94 7.55 4.3-7.65 11.62-1.66 4.16 5.04 4.89-6.12 6.31-.91 4.35 4.86 2.91-7.19 9.17-2.69 3.29 2.89 1.3-4.22-16.27 4.71-12.83 2.28-12.64 1.25-12.91.49-13.23-1.29-17.71-3.45-19.59-3.09-5.9-.33z" class="cls-1"/><path d="M47.59 66.61c-.17.97 1.35 7.47 1.09 8.42-2.14-1.05-2.59-1.4-4.6-2.67 0 0-3.12-2.12-3.3-3.03-.38-1.88.25-3.32.59-5.21.11-.61.35-.7.46-.92l5.76 3.41Z" class="cls-3"/><path d="M182.94 39.85c-.26.05-2.26.45-4.54.87-2.06.36-4.34.73-5.78.86-8.73.78-17.6 3.57-26.21 6.17-.11.03-.17.05-.17.05l-3.45 1.03-.89.26h-.02c-1.08.31-2.17.62-3.24.91-2.6.71-5.2 1.38-7.81 1.99h0c-.76.18-1.53.36-2.29.53h-.02c-3.65.79-7.31 1.48-11 1.99h-.09c-.09 0-.18.02-.27.03-.06 0-.12.02-.19.03-.21.02-.46.05-.76.09-.1 0-.2.02-.31.04l-.5.06c-.13.02-.27.04-.4.05-.44.06-.87.1-1.3.14-.13 0-.27.03-.4.04-1.25.13-3.32.27-4.81.36-1.8.08-3.61.12-5.41.1-1.62-.02-3.27-.1-4.93-.23 0 0-.12 0-.33-.03-.1 0-.19-.02-.29-.03-.07 0-.15-.01-.22-.02-.17-.01-.34-.02-.51-.05h-.14c-.04 0-.09-.02-.14-.02-.12 0-.24-.02-.36-.04-.66-.05-1.32-.12-1.99-.21-.26-.02-.52-.06-.78-.09-.26-.02-.52-.06-.79-.09-.33-.04-.62-.08-.83-.11-.05 0-.11-.02-.17-.02a3.98 3.98 0 0 0-.34-.05h0c-.14-.02-.28-.04-.42-.07-.31-.05-.65-.11-1.01-.16-1.26-.17-2.53-.38-3.8-.62-.13 0-.27-.04-.4-.07-.22-.04-.39-.06-.51-.08h-.07c-.06 0-.09-.02-.09-.02h0c-4.17-.75-8.35-1.61-12.45-2.44-4.08-.83-8.06-1.63-11.87-2.22-1.9-.3-3.76-.57-5.56-.83-.04-.01-.09-.01-.14-.02-.1-.02-.23-.03-.38-.05-.14-.02-.31-.05-.49-.07-.1-.02-.21-.03-.32-.05-.19-.02-.39-.05-.59-.08-.67-.09-1.43-.2-2.19-.3-.2-.02-.39-.05-.58-.08-.58-.08-1.14-.16-1.66-.23-.23-.03-.45-.06-.66-.09-.63-.08-1.14-.15-1.46-.2-.1 0-.18-.02-.24-.03h-.08c-1.6-.22-3.19-.43-4.77-.65l-.22-.03-6.71-.96-.31-.05c-3.94-.6-7.96-1.28-12.24-2.14l-2.27-.51-.09-.02-.61-.14-.53-.12-.26-.06-.39-.09-.54-.12-.11-.03c1.7-.49 5.09-1.19 6.68-1.56 3.97-.92 7.89-1.98 11.86-2.88 9.19-2.09 18.5-3.63 27.87-4.63 6.92-.74 13.94-1.15 20.88-.31 6.11.75 12.34 4.87 18.32 4.87 6.3 0 12.4-5.58 18.66-6.63 3.09-.51 6.24-.38 9.36-.18 16.84 1.08 33.08 4.4 49.39 8.6 1.54.4 2.52.66 2.69.72Z" class="cls-4"/><path d="M182.9 41.84c-1.02 9.24-7.96 22.12-13.31 29.43-13.25 18.13-31.52 29.26-53.81 32.67-25.74 3.93-58.66.33-75.33-22.14-9.29-12.52-16.09-26.17-23.31-39.95.07 0 .13 0 .2.03l.54.12.39.09.26.06.53.12.61.14.09.02c2.95 1.01 4.25 4.59 5.39 7.17 1.52 3.43 3.28 6.56 5.6 9.54C44.09 76.3 65.06 87 86.49 89.3c22.87 2.45 46.26-4.12 65.71-16.41 5.92-3.74 11.7-8.16 15.61-14.07 3.81-5.77 5.54-13.15 10.6-18.08 2.28-.42 4.28-.82 4.54-.87.06.51.05 1.17-.04 1.99Z" class="cls-4"/><path d="M17.35 41.87c.85.08 1.65.28 2.42.55l-.09-.02-.61-.14-.53-.12-.26-.06-.39-.09-.54-.12ZM37.33 59.52c.35.38.71.76 1.07 1.14-1.32-1.1-2.59-2.73-3.41-3.67.78.84 1.56 1.68 2.34 2.53ZM151.42 66.66h0s-.04.03-.11.07c.04 0 .08-.04.11-.07ZM61.97 63.67h0c-.03 1.07-.1 2.66-.18 4.24-.12 2.65-.26 5.26-.26 5.26l-3.01-1.46-.62-.3-6.02-2.93-4.68-2.27s-.41-4.17-1.31-9.02c-.91-4.85.39-10.45.39-10.45h.08c.06 0 .14.02.24.03.32.05.83.12 1.46.2.21.03.43.06.66.09.52.07 1.08.15 1.66.23.19.03.38.06.58.08.76.1 1.52.21 2.19.3.2.03.4.06.59.08.11.02.22.03.32.05.18.02.35.05.49.07.15.02.28.04.38.05.05 0 .1 0 .14.02 1.31.18 4.17 2.99 5.97 8.75.62 1.96.87 4.49.93 6.96Z" class="cls-3"/><path d="M61.93 67.95c-.13 2.98-.4 5.22-.4 5.22s.14-2.62.26-5.26c.08-1.58.15-3.17.18-4.23.05 1.48.02 2.95-.04 4.27Z" class="cls-3"/><path d="M79.38 67.45v2.22c-.03 1.34-.07 2.8-.1 4.11-.02.96-.04 1.84-.05 2.51v.37c0 .22 0 .4-.02.55v.44s-1.87-.17-3.9-.4c-.15 0-.29-.03-.44-.05-1.47-.16-2.95-.35-3.83-.53-1.14-.23-3.68-1.17-5.83-2.02-.1-.04-.2-.08-.29-.11-1.85-.73-3.35-1.36-3.35-1.36s.27-2.25.4-5.22c.06-1.32.09-2.79.04-4.27h0c.02-.41.03-.73.03-.95 0-1.74 1.29-5.3 3.02-7.72 1.94-2.72 4.64-4.63 7.48-4.01 3.45.75 5.74 4.48 6.66 10.31.18 1.13.23 3.52.22 6.13Z" class="cls-3"/><path d="M61.93 67.95c-.13 2.98-.4 5.22-.4 5.22s.14-2.62.26-5.26c.08-1.58.15-3.17.18-4.23.05 1.48.02 2.95-.04 4.27ZM79.36 69.05c0 1.66-.05 3.32-.08 4.73-.03.98-.05 1.85-.08 2.5 0-.67.03-1.55.05-2.51.04-1.51.08-3.22.11-4.72Z" class="cls-3"/><path d="M101.16 76.23c-.17 1.86-.33 3.14-.33 3.14s-5.27.37-11.61 0l-.9-.06c-.32-.03-.63-.05-.94-.09-4.62-.47-8.22-1.58-8.22-1.58v-.44c.01-.15.02-.33.02-.55v-.37c.03-.65.05-1.52.08-2.5.03-1.42.07-3.08.08-4.73v-1.6c.04-3.64 1.47-7.19 2.26-9.72.76-2.42 3.11-4.14 3.31-4.29h0s.03.01.09.02h.07c.12.02.29.04.51.08.13.03.27.06.4.07 1.27.24 2.54.45 3.8.62.36.05.7.11 1.01.16.14.03.28.05.42.07h0c.11 0 .23.03.34.05.06 0 .12 0 .17.02.21.03.5.07.83.11.27.03.53.07.79.09.26.03.52.07.78.09.67.09 1.33.16 1.99.21.12.02.24.03.36.04.09 0 .19.03.28.03.17.03.34.04.51.05.07 0 .15.02.22.02.1 0 .19.02.29.03l.33.03s.24.75 1.5 2.57c1.27 1.82 1.76 5.61 1.91 8.36.17 3.11-.13 7.25-.39 10.06Z" class="cls-3"/><path d="M79.36 69.05c0 1.66-.05 3.32-.08 4.73-.03.98-.05 1.85-.08 2.5 0-.67.03-1.55.05-2.51.04-1.51.08-3.22.11-4.72ZM86.02 53.62c.99.16 2.52.41 3.8.62-1.26-.17-2.53-.38-3.8-.62ZM93.39 54.74c1 .11 2.19.24 3.13.34-1.03-.08-2.08-.2-3.13-.34ZM96.51 55.08c.39.04.74.07 1.01.1-.33-.02-.67-.05-1.01-.1ZM122.07 66.49v10.63s-2.5 1.1-7.4 1.92c-.34.05-.68.1-1.04.16-.47.06-.96.13-1.47.19-2.86.34-9.91-.24-9.91-.24V64.98s.59-2.88 1.6-5.4c1.13-2.84 2.79-4.09 2.79-4.09s.78-.04 1.86-.11c1.5-.09 3.57-.23 4.81-.36.13 0 .27-.03.4-.04.43-.04.86-.08 1.3-.14.13 0 .27-.03.4-.05l.5-.06c.11-.02.21-.03.31-.04.3-.04.55-.07.76-.09.07 0 .13-.02.19-.03.09 0 .18-.02.27-.03h.09s2.36 1.3 3.12 3.53c1 2.92 1.43 6 1.43 8.44Z" class="cls-3"/><path d="M137.69 73.28s-4.51 1.96-6.52 2.74c-.82.31-2.51.56-4.21.74-2.44.25-4.9.36-4.9.36V63.93c0-3.69 1.14-6.16 2.49-8.05 1.14-1.59 3.66-3.16 3.97-3.35h.02c.76-.17 1.53-.35 2.29-.53h0c.2.1 3.16 1.57 4.47 2.96 1.36 1.43 2.05 4.51 2.24 6.36.2 1.84.15 11.97.15 11.97Z" class="cls-3"/><path d="M130.83 52c-.76.18-1.53.36-2.29.53h0l2.28-.53ZM152 53.21c-.05 2.21-.56 13.04-.58 13.45h0s-.04.03-.11.07c-.09.06-.24.15-.43.27-.91.55-2.78 1.69-4.13 2.49-.43.25-.8.47-1.08.63-.09.05-.2.11-.32.18-.12.07-.25.14-.38.2-.21.11-.44.23-.68.36-1.55.8-3.67 1.86-4.6 2.33-.3.14-2.08.7-2.08.7l.24-2.23s-.27-9.27-.24-11.35c.03-2.07.68-5.08 1.75-7.53 1.07-2.45 2.53-3.69 2.53-3.69l.89-.26 3.45-1.03s.06-.02.17-.05c.63-.15 2.88-.63 4.03.44.62.57 1.63 2.39 1.57 5.02Z" class="cls-3"/><path d="M155.71 44.99s-1.27 1.69-2.07 3.32c-.63 1.28-1.55 2.57-1.63 4.9-.08 2.33-.54 12.8-.54 12.8s5.77-3.31 7.59-4.76 3.94-3.21 4.74-3.95c.8-.73 1.21-5.31 1.21-5.31s.25-6.01 0-7.39-.56-1.78-.56-1.78l-8.73 2.17ZM45.87 65.16s-5.74-3.05-7.42-4.46c-.02-.01-.03-.03-.05-.04-1.32-1.1-2.59-2.73-3.41-3.67-.03-.03-.06-.06-.08-.09-.16-.18-.29-.33-.41-.44-.72-.69-.89-3.25-.89-3.25s-.22-5.62 0-6.91l.23-1.3.43.06.31.05 6.71.96.22.03s1.5 2.14 2.22 3.67c.56 1.2 1.38 2.41 1.45 4.58.07 2.18.69 10.81.69 10.81ZM101.6 76.25l-1.26 4.43.28 8.61c-4.4.22-8.09.45-12.56.05-.06-.49-.08-6.6-.04-7.33.03-.58.15-1.88.31-2.37l.9.06c6.33.37 11.61 0 11.61 0s.16-1.62.33-3.48h.27l.17.02ZM79.28 73.78c-.03.98-.05 1.85-.08 2.5 0-.67.03-1.55.05-2.51h.03ZM87.38 79.49c-.08.98-.23 8.19-.45 9.16-4.03-.35-8.04-.94-12-1.76 0-.48.05-6.76.23-7.54.08-.35.2-1.25.32-1.55 1.99.2 3.83.34 3.83.34s3.54.95 8.07 1.35ZM74.83 77.19c-.18 1.09-.42 7.75-.72 8.81-3.31-.81-6.22-1.82-9.38-3.02.08-.45-.15-6.56.02-7.17.12-.42.27-.81.42-1.17 2.16.85 4.7 1.79 5.83 2.02.88.18 2.36.37 3.83.53ZM61.93 67.95c-.13 2.98-.4 5.22-.4 5.22s.14-2.62.26-5.26l.14.04ZM55.31 70.19c-.17.97 1.09 7.95.83 8.9-2.14-1.05-5.25-2.33-7.25-3.6 0 0-.16-.78-.34-1.69-.38-1.88-.27-2.4-.68-4.75-.11-.61-.38-2.22-.27-2.44l7.72 3.58Z" class="cls-3"/><path d="M114.67 87.54c-3.49.64-7.7 1.32-11.24 1.58-.66.05-1.31.09-1.98.12l-.03-7.35-.16-5.63h.16l.82-.06v2.96s7.05.58 9.91.24c.51-.06 1.64-.23 2.11-.29.16.51.35.97.38 1.59l.02 6.85ZM127.35 83.24a100.09 100.09 0 0 1-12.13 3.16l.24-7.11c4.9-.82 6.6-2.16 6.6-2.16s2.47-.11 4.9-.36c.07.17.13.35.18.54.08.29.15 5.68.2 5.94ZM138.42 80.36c-3.98 1.31-6.41 3.15-10.51 3.95l-.56-7.36c4.9-.82 6.03-1.54 6.03-1.54s2.22-1.28 4.65-1.53c.07.17.13.35.18.54.08.29.15 5.68.2 5.94ZM149.84 73.89c-4.16 2.84-6.44 4.8-10.53 5.6l-.07-6.08c2.29-.38 8.83-4.39 10.58-5.12.07.17-.03 5.34.02 5.6Z" class="cls-3"/><rect width="13.08" height="10.21" x="105.62" y="63.32" class="cls-2" rx="2.62" ry="2.62" transform="rotate(-3.49 112.248 68.472)"/><rect width="9.22" height="10.21" x="125.27" y="60.91" class="cls-2" rx="2.62" ry="2.62" transform="rotate(-5.31 129.957 65.998)"/><path d="m146.84 65.73-2.71.45a2.3 2.3 0 0 1-2.65-1.88l-.59-3.47c-.21-1.25.63-2.43 1.88-2.63l2.71-.45a2.3 2.3 0 0 1 2.65 1.88l.59 3.47c.21 1.25-.63 2.43-1.88 2.63ZM160.17 56.2l-2.07.57c-.95.26-1.94-.29-2.21-1.24l-.74-2.65c-.27-.95.29-1.93 1.25-2.2l2.07-.57c.95-.26 1.94.29 2.21 1.24l.74 2.65c.27.95-.29 1.93-1.25 2.2Z" class="cls-2"/><rect width="13.08" height="10.21" x="84.12" y="63.32" class="cls-2" rx="2.62" ry="2.62" transform="rotate(-176.51 90.667 68.429)"/><path d="m68.05 70.02 3.34.51c1.54.23 3-.85 3.26-2.42l.73-4.38c.26-1.57-.77-3.03-2.31-3.27l-3.34-.51c-1.54-.23-3 .85-3.26 2.42l-.73 4.38c-.26 1.57.77 3.03 2.31 3.27ZM51.85 63.73l2.72.38c1.26.17 2.42-.7 2.6-1.95l.5-3.49c.18-1.25-.7-2.41-1.95-2.58L53 55.71c-1.26-.17-2.42.7-2.6 1.95l-.5 3.49c-.18 1.25.7 2.41 1.95 2.58ZM37.99 56.31l2.1.44a1.8 1.8 0 0 0 2.13-1.38l.58-2.69c.21-.96-.41-1.91-1.38-2.12l-2.1-.44a1.8 1.8 0 0 0-2.13 1.38l-.58 2.69c-.21.96.41 1.91 1.38 2.12Z" class="cls-2"/><path d="m33.51 50.89 3.41 1.64 21.01 9.2c.28.12.57.23.86.32l13.57 4.14c1.78.54 3.62.88 5.48 1l19.37 1.24 20.73-.89c.47-.02.94-.07 1.41-.14l14.45-2.18c.33-.05.65-.12.97-.22l12.36-3.86c.81-.25 1.59-.58 2.33-.98l9.83-7.53c.66-.36 1.29-.78 1.86-1.27l4.5-3.84" style="fill:none;stroke-miterlimit:10;stroke:#000"/><path d="M-2238.11-1884.29h6467.34v6437.3h-6467.34z" style="stroke:#fff;stroke-width:8px;fill:none;stroke-linecap:round;stroke-linejoin:round"/></svg>