<svg xmlns="http://www.w3.org/2000/svg" id="Calque_1" viewBox="0 0 128 128"><defs><style>.cls-1,.cls-2{fill:#baa584;stroke:#000;stroke-linecap:round;stroke-linejoin:round;stroke-width:2px}.cls-2{fill:none}</style></defs><path d="M78.26 77.56c0 9.74-6.45 17.65-14.42 17.65S49.42 87.3 49.42 77.56c0-2.41.4-4.7 1.11-6.78 1.39-4.07 3.98-7.38 7.24-9.23 1.63 1.71 3.76 2.74 6.08 2.74s4.45-1.03 6.08-2.74c4.93 2.81 8.34 8.92 8.34 16.02Z" class="cls-1"/><path d="M73.23 52.79c0 3.51-1.28 6.64-3.32 8.75-1.63 1.71-3.76 2.74-6.08 2.74s-4.44-1.03-6.08-2.74c-.77-.8-1.45-1.77-1.97-2.83-.54-1.08-.93-2.27-1.14-3.54-.13-.77-.2-1.56-.2-2.37 0-1.63.27-3.17.77-4.56.82-2.33 2.27-4.27 4.08-5.5 1.34-.91 2.88-1.43 4.53-1.43 5.19 0 9.39 5.15 9.39 11.49Z" class="cls-1"/><path d="m42.78 16.65 3.32 25.14 9.13 6.44M23.35 28.3l9.95 19.93 21.36 6.93M21.3 69.1h17.71l5.37-6.63L55.8 58.7M33.18 111.5s.6-15.54 4.46-24.11c5.14-11.43 12.89-16.62 12.89-16.62M59.32 32.87s-1.5 1.87-1.5 4.61c0 3.49 1.5 5.24 1.5 5.24M85.22 16.5 81.9 41.64l-9.13 6.44M104.65 28.15 94.7 48.08l-21.36 6.93M106.7 68.95H88.99l-5.37-6.62-11.42-3.78M94.82 111.35s-.6-15.54-4.46-24.11c-5.14-11.43-12.89-16.62-12.89-16.62M68.68 32.73s1.5 1.87 1.5 4.61c0 3.49-1.5 5.24-1.5 5.24" class="cls-2"/></svg>