<svg xmlns="http://www.w3.org/2000/svg" viewBox="0 0 200.13 128.13"><defs><style>.cls-1,.cls-2,.cls-3{fill:#fff}.cls-3,.cls-5,.cls-6{stroke-linecap:round;stroke-linejoin:round}.cls-6{fill:none}.cls-10,.cls-11,.cls-2,.cls-3,.cls-5,.cls-6{stroke:#000}.cls-10,.cls-11,.cls-2{stroke-miterlimit:10}.cls-10,.cls-11,.cls-12,.cls-2{fill-rule:evenodd}.cls-5{fill:#fafafa}.cls-16{mix-blend-mode:difference}.cls-10{fill:#d6d6d6}.cls-16{fill:#4a3424;opacity:.4}.cls-11{fill:#baa584}</style></defs><g style="isolation:isolate"><g id="Calque_1"><path d="M-519.03-1253.45h2655.08V258.32H-519.03z" style="fill:none;stroke-linecap:round;stroke-linejoin:round;stroke:#e30613;stroke-width:8px"/><path d="M5.38 78.53h189.36v38.49H5.38z" style="stroke-miterlimit:10;stroke:#000;fill:#8987f3"/><path d="M104.09 22.31c-.4-.16-.82-.3-1.26-.34-.67-.06-1.34.1-1.94.37-.6.26-1.13.62-1.65.98-.07.05-.15.1-.23.16-.78 1.79-.94 3.84-.4 5.72l.11.6c-.07.59.07 1.19.3 1.74.23.55.56 1.05.88 1.55h5.5c.32-.5.65-1.01.88-1.55.23-.55.37-1.15.3-1.74l.11-.6c.5-1.76.4-3.68-.26-5.38a7.486 7.486 0 0 0-2.33-1.51Z" class="cls-1"/><path d="M104.09 22.31c-.4-.16-.82-.3-1.26-.34-.67-.06-1.34.1-1.94.37-.6.26-1.13.62-1.65.98-.07.05-.15.1-.23.16-.78 1.79-.94 3.84-.4 5.72l.11.6c-.07.59.07 1.19.3 1.74.23.55.56 1.05.88 1.55h5.5c.32-.5.65-1.01.88-1.55.23-.55.37-1.15.3-1.74l.11-.6c.5-1.76.4-3.68-.26-5.38a7.486 7.486 0 0 0-2.33-1.51Z" class="cls-16"/><path d="M104.09 22.31c-.4-.16-.82-.3-1.26-.34-.67-.06-1.34.1-1.94.37-.6.26-1.13.62-1.65.98-.07.05-.15.1-.23.16-.78 1.79-.94 3.84-.4 5.72l.11.6c-.07.59.07 1.19.3 1.74.23.55.56 1.05.88 1.55h5.5c.32-.5.65-1.01.88-1.55.23-.55.37-1.15.3-1.74l.11-.6c.5-1.76.4-3.68-.26-5.38a7.486 7.486 0 0 0-2.33-1.51Z" class="cls-6"/><path d="M145.76 64.91c-.57-2.12-1.73-4.15-3.52-5.66-.09-.08-.2-.15-.29-.23-1.21-.1-2.44-.07-3.64.04-2.32.22-4.6.73-6.9 1.05-5.37.76-9.35.54-14.78.28-.65 2.49-1.26 5.27.81 7.07.82.72 1.71.94 2.87 1 5.08.52 11.46 2.82 16.78 1.37 2.75 1.26 6.17-1.24 9.15-2-.06-.99-.2-1.96-.46-2.92ZM109.94 63.41c-.08-.08-.16-.15-.24-.23-.98-.1-1.99-.07-2.97.04-1.89.22-3.75.73-5.63 1.05-4.37.76-7.62.54-12.05.28-.53 2.49-1.03 5.27.66 7.07.67.72 1.39.94 2.34 1 4.14.52 9.42.06 13.75-1.39 2.24 1.26 4.95 1.52 7.38.76-.05-.99-.16-1.96-.37-2.92M87.71 69.07c-.47-2.12-1.41-4.15-2.87-5.66-.08-.08-.16-.15-.24-.23-.98-.1-1.99-.07-2.97.04-1.89.22-3.75.73-5.63 1.05-4.37.76-7.62.54-12.05.28-.53 2.49-1.03 5.27.66 7.07.67.72 1.39.94 2.34 1 4.14.52 9.42.06 13.75-1.39 2.24 1.26 4.95 1.52 7.38.76-.05-.99-.16-1.96-.37-2.92ZM50.72 39.47l5.19-2.62 6.52 1.19 1.75 2.63-.39 5.81-1.66 6.73-2.79 2.88-5.38.56-4.71-2.29-.5-5.49.99-5.05.98-4.35z" class="cls-3"/><path d="M70.95 67.95c-.5-2.12-1.52-4.15-3.09-5.66-.08-.08-.17-.15-.26-.23-1.06-.1-2.14-.07-3.19.04-2.04.22-4.03.73-6.06 1.05-4.71.76-9.51.54-14.27.28-.57 2.49.2 5.27 2.02 7.07.72.72 1.5.94 2.51 1 4.46.52 10.13.06 14.8-1.39 2.41 1.26 5.33 1.52 7.94.76-.05-.99-.17-1.96-.4-2.92Z" class="cls-3"/><path d="M64.95 41.56c-.1-1.25-.42-2.5-1.11-3.55a4.966 4.966 0 0 0-1.73-1.62c-1.37.02-2.75-.35-4.01-.93-1.39-.64-2.66-1.53-3.9-2.44a33.653 33.653 0 0 0-6.56 3.89l-.27.45a42.08 42.08 0 0 0-4.44 11.34c-.03 5.15-.02 10.29.02 15.44 3.33 1.14 6.93 1.36 10.46 1.42 2.09.03 4.25 0 6.14-.86l.99-.25c1.19-.49 2.36-1.06 3.49-1.68.42-3.85.1-7.78-.97-11.5 1.47-3.06 2.17-6.69 1.89-9.7Z" class="cls-3"/><path d="M75.47 53.85c-1.98-1.02-3.36-.52-4.67 1.2-3.08.71-6.22 1.91-9.31 2.62.34-2.42.67-5.35.87-7.79.18-2.12.61-4.56.02-6.65-.51-1.82-2.04-3.27-4.03-2.98-1.45.21-2.91 1.51-3.07 3.03-.73 6.79-.46 12.65 1.25 19.72 4.95.17 9.59-2.54 13.61-4.59 1.08-.55 1.99.58 2.89-.43.52-.58.76-1.3 1.15-1.97.88-.17 2.78-.15 3.31-1.03-.66-.41-1.33-.79-2.02-1.14Z" class="cls-3"/><path d="M61.63 41.3c-.13-.23-.27-.46-.47-.65-.2-.19-.46-.31-.72-.42-1.14-.47-2.56-.56-3.64.11-.99.62-1.5 1.73-1.81 2.81-.47 1.58-.64 3.22-.52 4.84 2.67.99 5.57 1.36 8.41 1.08.5-2.66.07-5.45-1.24-7.77Z" class="cls-1"/><path d="M61.63 41.3c-.13-.23-.27-.46-.47-.65-.2-.19-.46-.31-.72-.42-1.14-.47-2.56-.56-3.64.11-.99.62-1.5 1.73-1.81 2.81-.47 1.58-.64 3.22-.52 4.84 2.67.99 5.57 1.36 8.41 1.08.5-2.66.07-5.45-1.24-7.77Z" style="fill:#283154;mix-blend-mode:screen;opacity:.5"/><path d="M61.63 41.3c-.13-.23-.27-.46-.47-.65-.2-.19-.46-.31-.72-.42-1.14-.47-2.56-.56-3.64.11-.99.62-1.5 1.73-1.81 2.81-.47 1.58-.64 3.22-.52 4.84 2.67.99 5.57 1.36 8.41 1.08.5-2.66.07-5.45-1.24-7.77Z" class="cls-6"/><path d="M138.99 26.57c.33-1.53.27-3.13-.16-4.63-.02-.03-.04-.05-.06-.08-.67-.77-1.44-1.46-2.35-1.92-.91-.46-1.96-.69-2.96-.51-1.01.18-1.91.75-2.62 1.49-.32.33-.6.69-.85 1.07-.64 2.53-.55 5.23.22 7.72l-.24.92c-.14.54-.29 1.11-.66 1.54l6.3 1.03c.09-.41.21-.81.33-1.21.22.03.44-.03.63-.14.23-.14.41-.34.59-.55.25-.28.49-.56.74-.83.26-.29.52-.59.65-.96.14-.41.09-.86.07-1.29 0-.09-.01-.19.02-.28.05-.13.17-.21.26-.32.21-.26.17-.64.11-.97 0-.03 0-.05-.01-.08Z" class="cls-3"/><path d="M136.67 27.93a2.12 2.12 0 0 0-.13-.51c-.08-.19-.22-.39-.42-.38-.14 0-.25.12-.33.24-.2.29-.29.64-.37.99-.05.23-.09.45-.13.68-.03.17-.05.36 0 .53.06.17.22.31.4.28.2-.03.31-.25.38-.44M145.3 44.84c0-1.24.23-2.48 0-3.7-.37-1.81-1.45-3.29-2.38-4.38-.28-.33-.57-.67-.91-.95-.37-.3-.79-.52-1.2-.75l-4.08-2.19-.88-.78c-.52-.1-1-.35-1.49-.56-3.13-1.36-6.88-1.3-9.9.31l-.85.37c-1.08 1.21-3.06 1.26-4.13 2.48-.37.42-.6.94-.82 1.45-.31.71-.62 1.43-.93 2.14-2.46 5.91-4.28 14.5-2.54 23.36 1.64.33 3.34.36 4.99.07l18.15-.48c2.62.72 6.08 5.43 9.47 1.32-.75-3.72-1.92-12.55-2.29-15.34-.1-.79-.21-1.58-.21-2.38Z" class="cls-3"/><path d="M139.06 47.28c-1.02-1.76-1.63-3.78-1.83-5.81-.29-3 .23-6.01 1.12-8.91-.52-.34-1.04-.68-1.57-1-.41-.25-.83-.49-1.26-.7-1.25.56-2.53 1.03-3.88 1.14-.62.05-1.24.03-1.86-.01a29.37 29.37 0 0 1-5.01-.8c-.54.24-1.06.51-1.57.79-1.74 3.85-3.43 7.76-4.62 11.78-.24 6.56-.2 13.13.11 19.69 6.97 1.3 14.18 1.26 21.14-.12-.45-5.34-.7-10.7-.75-16.07Z" style="fill:#f3d587;stroke:#000;stroke-linecap:round;stroke-linejoin:round"/><path d="M136.36 33.19c-.99 2.14-1.22 4.56-1.04 6.91.18 2.35.76 4.64 1.33 6.93" class="cls-6"/><path d="M121.51 37.34c4.46.59 9 .58 13.45-.04" class="cls-3"/><path d="M118.83 52.41c4.94 2.06 10.52 1.66 15.85 1.18M98.68 29.14c-.04-.31-.11-.65-.36-.83-.03-.02-.05-.04-.08-.03-.04 0-.08.03-.1.07-.13.18-.14.42-.13.64.01.4.04.8.08 1.2.02.19.06.41.2.54.02.02.05.04.08.05.04 0 .07 0 .1-.02.29-.15.37-.52.41-.84M106.6 29.14c.04-.31.11-.65.36-.83.03-.02.05-.04.08-.03.04 0 .08.03.1.07.13.18.14.42.13.64-.01.4-.04.8-.08 1.2-.02.19-.06.41-.2.54-.02.02-.05.04-.08.05-.04 0-.07 0-.1-.02-.29-.15-.37-.52-.41-.84" class="cls-6"/><path d="M133.55 62.79c-1.42.07-2.84.2-4.25.4-1.29.57-2.57 1.19-3.81 1.85a5.34 5.34 0 0 1-1.73 1.51c.14.24.37.4.61.53.73.42 1.58.69 2.4.54.54-.1 1.03-.37 1.5-.64.75-.42 1.5-.84 2.26-1.26.22-.12.44-.25.69-.32.29-.09.59-.1.89-.12.71-.03 1.41-.07 2.12-.1.61-.03 1.23-.06 1.83-.13a14.12 14.12 0 0 0-2.5-2.26ZM110.53 55.6c-.28-3.57.18-7.14.26-10.72.08-3.58.84-8.99-2.22-11.28-1.24-.62-2.61-1-3.99-1.1-.87-.06-1.75-.02-2.62.02-1.52.08-3.05.15-4.57.23-1.07.05-2.16.11-3.18.46-1.39.48-3.2 1.77-4.25 3.95-1.93 5.77.35 12.07-.1 18.14-.23 3.14-1.19 6.19-1.56 9.32-.17 1.46-.21 2.96.18 4.38.05.2.12.39.19.59 3.8 1.23 7.82 1.78 11.81 1.61 1.14-.05 2.28-.16 3.39-.42 2.58-.62 4.88-2.04 7.12-3.49 1.02-3.73-.15-7.77-.45-11.68Z" class="cls-3"/><path d="M124.68 60.61c-.91-.42-1.82-.85-2.67-1.37-.7-.44-1.35-.94-2.01-1.44-2.18-1.68-5.44-5.43-5.44-5.43s-.71-9.46-2.52-14.4l-.1-.43c-1.22-2.24-4.87-4.1-6.41-1.56-1.45 2.41-1.24 6.19-.23 8.7 1.07 2.65 1.12 6.55 2.26 9.3 1.08 2.59 2.12 4.58 4.23 6.04 3.36 2.83 7.19 5.1 11.27 6.73 1.58-.84 3.14-1.76 4.27-3.13.38-.45.69-.95.99-1.46-1.09-.35-2.66-1.1-3.64-1.55Z" class="cls-1"/><path d="M124.68 60.61c-.91-.42-1.82-.85-2.67-1.37-.7-.44-1.35-.94-2.01-1.44-2.18-1.68-5.44-5.43-5.44-5.43s-.71-9.46-2.52-14.4l-.1-.43c-1.22-2.24-4.87-4.1-6.41-1.56-1.45 2.41-1.24 6.19-.23 8.7 1.07 2.65 1.12 6.55 2.26 9.3 1.08 2.59 2.12 4.58 4.23 6.04 3.36 2.83 7.19 5.1 11.27 6.73 1.58-.84 3.14-1.76 4.27-3.13.38-.45.69-.95.99-1.46-1.09-.35-2.66-1.1-3.64-1.55Z" style="mix-blend-mode:difference;fill:#f29d1d;opacity:.07"/><path d="M124.68 60.61c-.91-.42-1.82-.85-2.67-1.37-.7-.44-1.35-.94-2.01-1.44-2.18-1.68-5.44-5.43-5.44-5.43s-.71-9.46-2.52-14.4l-.1-.43c-1.22-2.24-4.87-4.1-6.41-1.56-1.45 2.41-1.24 6.19-.23 8.7 1.07 2.65 1.12 6.55 2.26 9.3 1.08 2.59 2.12 4.58 4.23 6.04 3.36 2.83 7.19 5.1 11.27 6.73 1.58-.84 3.14-1.76 4.27-3.13.38-.45.69-.95.99-1.46-1.09-.35-2.66-1.1-3.64-1.55Z" class="cls-6"/><path d="M72.23 29.68c-.05-.39-.19-.76-.4-1.09a.348.348 0 0 0-.11-.13c-.1-.06-.24-.02-.33.07s-.12.21-.14.33c-.12.71.16 1.42.43 2.09.04.1.09.21.16.28s.2.12.3.08c.15-.06.17-.27.26-.4" class="cls-3"/><path d="M81.2 28.79c.33-1.53.27-3.13-.16-4.63-.02-.03-.04-.05-.06-.08-.67-.77-1.44-1.46-2.35-1.92-.91-.46-1.96-.69-2.96-.51-1.01.18-1.91.75-2.62 1.49-.32.33-.6.69-.85 1.07-.64 2.53-.55 5.23.22 7.72l-.24.92c-.14.54-.29 1.11-.66 1.54l6.3 1.03c.09-.41.21-.81.33-1.21.22.03.44-.03.63-.14.23-.14.41-.34.59-.55.25-.28.49-.56.74-.83.26-.29.52-.59.65-.96.14-.41.09-.86.07-1.29 0-.09-.01-.19.02-.28.05-.13.17-.21.26-.32.21-.26.17-.64.11-.97 0-.03 0-.05-.01-.08Z" class="cls-3"/><path d="M75.33 31.18c.93.08 1.75.6 2.52 1.11.28-.68.8-1.27 1.47-1.59l1.12-1.11c.51-.69.74-1.52.96-2.35a9.76 9.76 0 0 0-.35-3.09c-.02-.03-.04-.05-.06-.08-.67-.77-1.44-1.46-2.35-1.92-.91-.46-1.96-.69-2.96-.51-1.01.18-1.91.75-2.62 1.49-.32.33-.6.69-.85 1.07-.64 2.53-.55 5.23.22 7.72 0 .02-.01.04-.02.06.38-.3.87-.48 1.35-.61.51-.14 1.05-.24 1.58-.19Z" class="cls-1"/><path d="M75.33 31.18c.93.08 1.75.6 2.52 1.11.28-.68.8-1.27 1.47-1.59l1.12-1.11c.51-.69.74-1.52.96-2.35a9.76 9.76 0 0 0-.35-3.09c-.02-.03-.04-.05-.06-.08-.67-.77-1.44-1.46-2.35-1.92-.91-.46-1.96-.69-2.96-.51-1.01.18-1.91.75-2.62 1.49-.32.33-.6.69-.85 1.07-.64 2.53-.55 5.23.22 7.72 0 .02-.01.04-.02.06.38-.3.87-.48 1.35-.61.51-.14 1.05-.24 1.58-.19Z" class="cls-16"/><path d="M75.33 31.18c.93.08 1.75.6 2.52 1.11.28-.68.8-1.27 1.47-1.59l1.12-1.11c.51-.69.74-1.52.96-2.35a9.76 9.76 0 0 0-.35-3.09c-.02-.03-.04-.05-.06-.08-.67-.77-1.44-1.46-2.35-1.92-.91-.46-1.96-.69-2.96-.51-1.01.18-1.91.75-2.62 1.49-.32.33-.6.69-.85 1.07-.64 2.53-.55 5.23.22 7.72 0 .02-.01.04-.02.06.38-.3.87-.48 1.35-.61.51-.14 1.05-.24 1.58-.19Z" class="cls-6"/><path d="M80.6 29.59a2.12 2.12 0 0 0-.13-.51c-.08-.19-.22-.39-.42-.38-.14 0-.25.12-.33.24-.2.29-.29.64-.37.99-.05.23-.09.45-.13.68-.03.17-.05.36 0 .53s.22.31.4.28c.2-.03.31-.25.38-.44" class="cls-3"/><path d="M82.76 67.57a6.82 6.82 0 0 1-3.91 2.7c-2.66.68-5.39 1.05-8.1 1.04-4.08-.03-7.19-3.56-6.81-7.62 0-.02 0-.05.01-.07.22-2.43.15-4.88-.2-7.3-.41-2.85-1.22-5.7-1.54-8.55-.07-.64-.03-1.29.09-1.92A49.68 49.68 0 0 1 64.84 37a6.946 6.946 0 0 1 2.22-2.99c.55-.43 4.76-.5 5.36-.82 0 0 2.31 1.83 5.72 1.01.9.68 3.61 1.92 4.14 2.93.47.88.91 1.8 1.18 2.76-.87-.78-2.24-1.42-3.52-1.31-1.18-.3-2.31.63-3.07 1.58-.48.59-.92 1.23-1.2 1.94-.63 1.62-.36 3.5.4 5.07.49 1.01 1.16 1.91 1.92 2.74l.05-.02 5.36-2.94c0 .15.01.29 0 .44.07 3.55.02 7.1-.12 10.65-.02.56.03 1.12.14 1.67.19.88.36 1.77.52 2.66.32 1.89-.15 3.75-1.18 5.2Z" class="cls-5"/><path d="m85.56 45.77-2.16 1.18-5.36 2.94-.05.02c-.76-.83-1.43-1.73-1.92-2.74-.76-1.57-1.03-3.45-.4-5.07.28-.71.72-1.35 1.2-1.94.76-.95 1.89-1.88 3.07-1.58 1.28-.11 2.65.53 3.52 1.31.21.19.39.39.53.58.74 1.02 1.1 2.26 1.32 3.5.11.6.19 1.2.25 1.8Z" class="cls-5"/><path d="M88.81 68.4a16.791 16.791 0 0 1-3.57 3.37c-.8-1.41-1.67-2.79-2.48-4.2-.58-.98-1.12-1.98-1.6-3.02-1.03-2.25-1.74-4.73-1.65-7.18-.58-2.47-1.09-4.95-1.52-7.46l.05-.02 5.36-2.94 2.16-1.18c.29 2.86.06 5.77-.17 8.64l-.3 3.77c1.2 3.42 2.44 6.83 3.72 10.22Z" class="cls-3"/><path d="M10.16 79.73c-1.18-.95-1.05-1.81.08-2.56 3.11-2.47 8.76-6.79 11.61-8.97l.8-.61h100.12c19.44 0 19.88 0 24.02-1.54 5.6-2.08 16.16-6.18 26.72-10.29h.02c5-1.93 10.37 1.31 11.99 7.22 1.62 5.91-1.11 12.27-6.11 14.19h-.02c-10.71 4.17-21.43 8.33-26.94 10.38-6.98 2.6-7.49 2.6-29.68 2.6h-99.1l-1.81-1.39c-2.88-2.2-8.6-6.57-11.69-9.03Z" style="fill-rule:evenodd;fill:#ff6d75;stroke-miterlimit:10;stroke:#000"/><path d="M185.43 70.27c-.96 3.16-3.1 5.77-6.01 6.89h-.02c-10.71 4.17-21.43 8.33-26.94 10.38-3.1 1.15-4.92 1.79-7.92 2.15-.12.01-.23.03-.35.04h-.02c-.42.05-.87.09-1.34.12h-.01c-.75.06-1.57.1-2.49.14h-.04c-.15 0-.3.01-.46.02h-.06c-.6.02-1.24.04-1.92.05h-.08c-.16 0-.33 0-.49.01H135.49c-.43 0-.88 0-1.35.01H23.67l-1.81-1.39-.14-.1-.06-.04c3.52 0 9.34.05 19.68.08 21.48.06 62.45.06 84.74-.61 9.8-.3 16-.72 20.43-1.36.41-.18.94-.4 1.62-.66 2.75-1.06 8.02-2.9 14.13-5.4 6.1-2.51 13.04-5.68 17.67-7.83 2.35-1.09 4.11-1.92 5.5-2.56Z" class="cls-11"/><path d="M10.09 79.67c-.29-.25-.5-.49-.62-.72 43.6 0 86.96 0 110.61.02h1.15c21.42.02 21.93.02 28.96-2.56 7.23-2.66 21.2-7.99 35.17-13.33h.01l.19.68h-.01c-14.01 5.35-28.02 10.7-35.17 13.34-7.12 2.62-7.63 2.62-29.15 2.59h-1.15c-20.92-.02-65.27-.02-109.99-.02Z" class="cls-2"/><path d="M9.41 78.06c.1-.25.3-.49.6-.72 43.42 0 86.52 0 110.07.02h1.15c21.42.02 21.93.02 28.96-2.56 7.18-2.64 21-7.92 34.87-13.21.09.22.17.44.25.66-13.93 5.32-27.82 10.62-34.93 13.24-7.12 2.62-7.63 2.62-29.15 2.59h-1.15c-21.03-.02-65.72-.02-110.67-.02Z" class="cls-2"/><path d="M10.16 79.67c-.01-.24-.02-.48-.02-.72 43.38 0 86.42 0 109.94.02h1.15c21.42.02 21.93.02 28.96-2.56 7.23-2.66 21.2-7.99 35.17-13.33h.01l.19.68h-.01c-14.01 5.35-28.02 10.7-35.17 13.34-7.12 2.62-7.63 2.62-29.15 2.59h-1.15c-20.91-.02-65.22-.02-109.92-.02Z" class="cls-12"/><path d="M10.16 78.06c.01-.24.04-.48.06-.72 43.35 0 86.35 0 109.86.02h1.15c21.42.02 21.93.02 28.96-2.56 7.18-2.64 21-7.92 34.87-13.21.09.22.17.44.25.66-13.93 5.32-27.82 10.62-34.93 13.24-7.12 2.62-7.63 2.62-29.15 2.59h-1.15c-20.91-.02-65.22-.02-109.92-.02Z" class="cls-12"/><path d="M29 84.11V71.07h-3.34v17.35l-2 3.82c-.12.23.07.48.42.55.35.08.74-.05.85-.27l.73-1.39v7.96c.81 1.64 1.96 2.57 3.34 3.01v-18Z" class="cls-10"/><path d="M178.76 55.52c.64.19 1.27.46 1.86.8-.01-.09-.02-.18-.02-.27a1.944 1.944 0 0 1 1.94-1.94c.54 0 1.02.22 1.37.57.35.35.57.83.57 1.37s-.22 1.02-.57 1.37c-.31.31-.71.51-1.17.56.35.36.68.76.99 1.18-1.53.09-2.71-.08-3.69-1.17-.54-.6-1.03-1.48-1.27-2.46Zm4.65-.35a1.232 1.232 0 0 0-1.74 0 1.232 1.232 0 0 0 0 1.74 1.232 1.232 0 0 0 1.74 0 1.232 1.232 0 0 0 0-1.74Z" class="cls-12"/><path d="M10.16 79.73c-1.18-.95-1.05-1.81.08-2.56 1.14-.91 2.63-2.07 4.2-3.28.8 1.26 1.27 2.82 1.27 4.52s-.5 3.34-1.33 4.62c-1.58-1.22-3.08-2.39-4.22-3.29Z" class="cls-11"/><path d="M43.85 73.84c.72 0 1.31-.7 1.31-1.55s-.59-1.55-1.31-1.55-1.31.7-1.31 1.55.59 1.55 1.31 1.55ZM75.67 73.84c.72 0 1.31-.7 1.31-1.55s-.59-1.55-1.31-1.55-1.31.7-1.31 1.55.59 1.55 1.31 1.55ZM107.49 73.84c.72 0 1.31-.7 1.31-1.55s-.59-1.55-1.31-1.55-1.31.7-1.31 1.55.59 1.55 1.31 1.55ZM139.3 73.84c.72 0 1.31-.7 1.31-1.55s-.59-1.55-1.31-1.55-1.31.7-1.31 1.55.59 1.55 1.31 1.55ZM171.12 61.06c.72 0 1.31-.7 1.31-1.55s-.59-1.55-1.31-1.55-1.31.7-1.31 1.55.59 1.55 1.31 1.55Z" class="cls-2"/><path d="M43.76 72.63c-.16-.06-.25-.27-.19-.45.05-.19.22-.29.38-.23 1.72.68 3.44 1.35 5.29 1.92 1.84.57 3.8 1.04 6.01 1.31 2.12.26 4.47.32 6.73.25 2.47-.08 4.84-.32 6.69-.67 1.76-.33 3.06-.77 4.02-1.18.95-.41 1.57-.81 1.99-1.07l.84-.54a.27.27 0 0 1 .26-.02l1.19.47c.6.24 1.49.59 2.68.97 1.18.38 2.62.77 4.3 1.09 1.67.32 3.58.56 5.53.71 1.98.15 3.99.22 5.8.18 1.7-.04 3.24-.17 4.6-.37 1.48-.21 2.72-.51 3.71-.84.93-.31 1.63-.66 2.15-.98.52-.32.86-.6 1.1-.8l.48-.4c.1-.09.24-.09.34 0l.62.41c.62.41 1.86 1.23 5.15 1.85 1.58.3 3.63.55 5.77.74 2.38.21 4.85.35 6.92.39 1.97.04 3.58 0 4.95-.14 1.36-.13 2.46-.35 3.41-.66.95-.31 1.77-.71 2.44-1.09.67-.39 1.18-.76 1.52-1l.7-.5s.1-.05.15-.05l2.03-.12c1.01-.06 2.53-.15 4.38-.38 1.84-.23 4.01-.6 6.31-1.21 2.25-.6 4.64-1.44 6.87-2.38 2.33-.98 4.49-2.06 6.15-3.08 3.22-1.98 4.54-3.74 5.86-5.49.11-.15.3-.16.43-.03s.14.36.02.51c-1.36 1.81-2.72 3.61-6.04 5.65-1.68 1.03-3.87 2.13-6.23 3.12-2.25.94-4.66 1.79-6.94 2.4-2.33.62-4.52 1-6.38 1.23-1.86.23-3.39.32-4.41.38l-1.96.12-.63.45c-.35.26-.89.64-1.57 1.04-.69.4-1.54.82-2.55 1.14-1 .32-2.14.55-3.53.68-1.37.13-3.01.18-5.01.14-2.1-.04-4.59-.18-6.96-.39-2.15-.19-4.22-.45-5.82-.75-3.4-.64-4.7-1.5-5.35-1.93s-.47-.31-.47-.31l-.32.27c-.24.2-.61.51-1.17.85-.55.34-1.29.71-2.26 1.03-1.01.34-2.29.64-3.8.86-1.36.2-2.92.33-4.66.37-1.83.04-3.86-.02-5.85-.18-1.96-.15-3.89-.4-5.59-.72-1.71-.32-3.18-.73-4.37-1.11a43.5 43.5 0 0 1-2.71-.98l-1.09-.43-.73.46c-.43.27-1.07.68-2.07 1.11-.99.43-2.32.87-4.13 1.21-1.88.36-4.27.6-6.77.68-2.29.07-4.66 0-6.8-.26-2.25-.27-4.24-.75-6.11-1.33-1.86-.58-3.59-1.26-5.33-1.94Z" class="cls-12"/><path d="M32.22 62.74c-1.18-.48-3.29-1.44-6.22-1.86-2.93-.41-6.67-.28-8.58-.05-1.91.23-2 .56-2.21 1.92s-.53 3.75-.73 5.24c-.2 1.49-.29 2.06 1.34 2.8 1.62.73 4.95 1.63 6.59 2.16.8.26 1.2.44 1.6.53h1.91c.11-.01.24-.02.36-.04v.04h1.92v-.27c1.53-.2 3.22-.44 4.27-.59l1.7-.24v-1.52c0-1.52 0-4.56-.05-6.08-.05-1.52-.14-1.52-.3-1.53-.16 0-.4-.02-1.58-.5Z" class="cls-10"/><path d="M152.97 61.58c-1.18.06-2.36.17-3.53.33-1.07.47-2.13.98-3.16 1.54-.38.51-.87.94-1.44 1.25.11.2.31.33.5.44.6.35 1.31.57 1.99.45.45-.08.85-.31 1.25-.53.62-.35 1.25-.7 1.87-1.05.18-.1.37-.21.57-.27.24-.07.49-.09.74-.1.58-.03 1.17-.06 1.75-.08.51-.02 1.02-.05 1.52-.11-.62-.7-1.31-1.33-2.07-1.87Z" class="cls-3"/><path d="M61.6 21.82s-.13.78-.51 1.24h0M59.81 23.15c-.55-.47-.82-1.45-.82-1.45M56.63 29.88h0c-.07-.03-.55-.26-.71-1.11-.17-.92-.56-.89-.44-1.78.12-.84.93-.31 1.02-.24M65.08 23.63s-.66.24-1.36.23" class="cls-6"/><path d="M58.47 23.28c.38.09.84.09 1.34-.13.17.15.35.24.57.26.3.03.53-.13.71-.35 0 0 .01.02.02.02.07.09.52.66 1.29.16.27.48.81.63 1.33.63.26.29.68.34.68.34.02.04.04.08.05.12.93 1.97.85 3.17.84 3.3.13-.29.23-.58.32-.85-.16.51-.32.86-.35.94h0v.02h0c-.07.5-.28 1.76-.71 3.04-.36 1.06-.88 2.12-1.61 2.72-1.68 1.41-2.6 1.27-2.73 1.23-.14 0-1.12-.04-2.52-1.82-.6-.76-.92-1.92-1.07-3.04-.18-1.34-.16-2.63-.13-3.13h0c0-.06 0-.11.02-.18 0 .05.02.08.02.08.02-.21.05-.41.09-.61.31-.99 1.54-2.49 1.7-2.76h.14Z" class="cls-3"/><path d="M56.63 26.04c-.06.19-.1.36-.11.53" class="cls-6"/><path d="M56.5 26.74v-.02h0c-.03-.11-.16-.65-.2-1.36v-.02c-.07-1.42.28-3.47 2.7-3.94 0 0 .27-.72 1.21-.41 0 0 1.32-.99 2.49.26.97-.08 1.11.68 1.11.68 2.46 1.1 2.23 3.43 1.84 4.77 0 .03-.02.05-.02.07" class="cls-6"/><path d="M64.46 24.47s.99 2.16.8 3.26M56.5 26.53h0s0 .09-.01.19h0v.02M65.26 27.73h0" class="cls-6"/><path d="M65.29 27.52s0 .07-.03.19M63.07 22.59c-.22.28-.43.47-.61.6-.02.02-.04.04-.06.04M61.11 23.08v-.02" class="cls-6"/><path d="m54.2 33.02 2.42-3.14M61.34 34.53l.76 1.85" class="cls-3"/></g></g></svg>