<svg xmlns="http://www.w3.org/2000/svg" id="Calque_1" viewBox="0 0 200 128"><defs><style>.cls-2,.cls-3,.cls-4,.cls-5{stroke-linecap:round;stroke-linejoin:round}.cls-3{fill:none}.cls-2{fill:#fff}.cls-2,.cls-3,.cls-4,.cls-5{stroke:#000}.cls-4{fill:#87ccf3}.cls-5{fill:#8987f3}</style></defs><path d="M195.47 51.71v67.85H6.7V51.72h8.17c1.16 0 2.88.01 5.09.01 4.43 0 10.83.02 18.75.03.99.01 2 0 3.03.01.7 0 1.41 0 2.12-.07H14.87c1.16 0 2.88 0 5.09-.02h18.75c.99 0 2-.01 3.04 0 1.03.02 2.09-.01 3.14-.22a8.02 8.02 0 0 0 1.56-.48c.5-.2.98-.48 1.47-.76.98-.55 2.01-1.08 3.16-1.34.57-.13 1.18-.17 1.77-.07.6.08 1.16.34 1.68.62.54.28 1.07.58 1.66.7.59.13 1.2 0 1.79-.18.58-.19 1.18-.41 1.82-.45.64-.06 1.28 0 1.91.14 1.25.28 2.44.82 3.67 1.23.62.21 1.25.39 1.89.54-.09.03-.18.05-.27.07.35.09.7.17 1.05.23.29.06.58.11.87.16a22.354 22.354 0 0 0 3.28.26c.35 0 .72 0 1.08-.03.69-.04 1.37-.1 2.06-.2.19-.03.39-.06.58-.11.49-.08.98-.19 1.47-.3 1.36-.32 2.72-.73 4.1-1.04 1.39-.32 2.81-.54 4.25-.49 1.45.04 2.89.27 4.35.44 2.93.34 5.91.48 8.92.69.2 0 .4.03.6.04 2.82.19 5.59.36 8.33.55.16 0 .31.02.47.03.21.01.42.03.63.04.18.01.36.03.54.03h14.19c.4 0 .8 0 1.2-.01 1.77.01 3.53.01 5.25 0h30.62c7.92-.01 14.32-.02 18.75-.02 2.21-.01 3.93-.01 5.1-.01h1.32c.3 0 .45-.01.45-.01h9.01Z" class="cls-5"/><path d="M68.75 51.71h-.7c-.35-.06-.7-.14-1.05-.23.09-.02.18-.04.27-.07.49.12.98.22 1.48.3Z" class="cls-4"/><path d="M133.03 51.21c-.49.08-5.57-.58-5.57-.58s1.36.55 2.46 1.02c.02.01.03.01.05.02h-5.22s-.05 0-.08-.02c-.14-.07-.25-.12-.33-.16-.37-.2-.77-.3-.62.16v.03c.01.03.02.06.04.1h-2.5s-.07-.06-.11-.09c-.01 0-.03-.02-.05-.04-.35-.26-.72-.49-1.07-.68-1.06-.56-1.62-2.41-1.81-3.16-.73-.31-7.33-3.13-11.03-4.94-1.19-.58-2.08-1.06-2.39-1.31-1.3-1.1-4.07-2.64-4.07-2.64s-3.34 2.67-5.28 3.35c-.58.2-1.3.57-2.02 1.01.05-.02.08-.03.1-.03-.06.06-.29.22-.64.44-.15.1-.34.23-.53.36.12.12.38.38.75.73 1.38 1.34 4.23 4.1 6.35 6.21.05.05.1.09.14.14-.2 0-.4-.03-.6-.04-3.01-.21-5.99-.35-8.92-.69-1.46-.17-2.9-.4-4.35-.44-1.44-.05-2.86.17-4.25.49-1.38.31-2.74.72-4.1 1.04-.49.11-.98.22-1.47.3-.19.05-.39.08-.58.11-.69.1-1.37.16-2.06.2-.36.02-.72.03-1.08.03s-.7 0-1.04-.03a22.354 22.354 0 0 1-2.24-.23c-.29-.05-.58-.1-.87-.16-.35-.06-.7-.14-1.05-.23.09-.02.18-.04.27-.07 1.5-.33 2.94-.42 2.94-.42l-1.72-4.47 4.32-6.49 3.66 3.67s1.54-1.01 3.2-2.02c.22-.69.5-1.33.9-1.78 1.48-1.69 7.63-4.34 7.63-4.34s4.61-.9 7.71-2.51c1.62-.85 3.5-1.18 4.92-1.3 1.31-.11 2.62.25 3.69 1l9.94 6.91 5.7 3.96s.36.24 1.19.56c.23.09.5.18.81.28.22.07.58.18 1.05.33 2.45.79 7.67 2.5 8.09 2.69.5.22.64.59.64.86s-3.39-.56-3.76-.65c.25.11 2.32.97 3.28 1.33 1.04.4.9.93.9.93s.24.02.63.13c.71.19.65 1.04.04 1.13Z" class="cls-2"/><path d="M-969.74-1253.51h2655.08V258.26H-969.74z" style="fill:none;stroke-linecap:round;stroke-linejoin:round;stroke:#e30613;stroke-width:8px"/><path d="m138.6 51.65-8.63.02h-5.22l-1.02.01h-2.57l-45.24.11h-3.11c2.13-.4 4.2-1.35 6.05-2.48 3.11-1.9 5.87-4.35 9.06-6.09.92-.5 2.14-.91 2.91-.21.33.29.49.72.77 1.05.38.46.93.67 1.52.72.6.05 1.26-.09 1.81-.34 1.08-.51 1.97-1.37 3.01-1.95 1.05-.59 2.44-.85 3.4-.13.42.32.71.8 1.13 1.13.77.61 1.87.64 2.8.35.69-.22 1.32-.59 1.93-.97.22-.13.45-.27.67-.41a24.28 24.28 0 0 1 6.59-2.8c1.11-.3 2.24-.52 3.38-.65 1.24-.14 2.84.04 3.18 1.24.26.92-.45 1.87-.33 2.81.06.46.31.84.66 1.12.49.41 1.19.62 1.86.61h.26c1.21-.12 2.29-.74 3.46-1.07 1.16-.33 2.6-.28 3.34.68.76.98.5 2.59 1.46 3.38 1.26 1.04 3.09-.27 4.72-.18 1.84.1 3.1 2.49 2.15 4.06Z" class="cls-5"/><path d="M91.47 25.4c0 .85-.69 1.53-1.53 1.53s-1.53-.69-1.53-1.53.69-1.53 1.53-1.53 1.53.69 1.53 1.53ZM128.07 36.1c0 .85-.69 1.53-1.53 1.53s-1.53-.69-1.53-1.53.69-1.53 1.53-1.53 1.53.69 1.53 1.53ZM77.09 36.1s-1.28-6.7 1.4-6.69-1.4 6.69-1.4 6.69Z" class="cls-4"/><path d="M141.53 53.7s.03-.03.1-.03.17.03.25.12c.08.08.16.23.13.4s-.21.31-.39.34a.494.494 0 0 1-.48-.18.584.584 0 0 1-.12-.4c.02-.24.15-.34.16-.33.02.01-.07.13-.06.33 0 .1.03.22.12.32.08.1.22.15.37.12.14-.02.26-.12.29-.23a.36.36 0 0 0-.08-.31c-.13-.16-.28-.13-.28-.15Z" style="fill:#1a2e35"/><path d="M56.19 29.14s.97 1.08 2.02 1.43h.01M60.3 29.42c.39-1.29-.17-3.07-.17-3.07M71.96 36.72h.01c.08-.12.6-.96 0-2.44-.64-1.6-.02-1.94-1.09-3.21-1.03-1.19-1.76.45-1.83.64M52.57 35.42s1.27-.29 2.34-.99" class="cls-3"/><path d="M62.52 28.29c-.5.53-1.22.98-2.22 1.13-.11.4-.31.73-.62.97-.44.34-.96.32-1.46.17 0 .02 0 .04-.01.05-.02.22-.15 1.55-1.86 1.53.05 1.01-.63 1.78-1.44 2.3-.12.71-.71 1.21-.71 1.21 0 .08.02.17.04.24.51 3.99 1.83 5.77 1.97 5.96-.49-.33-.94-.66-1.35-.99.75.63 1.35 1.02 1.48 1.1h0l.03.02h-.01c.6.71 2.19 2.47 4.13 4.02 1.61 1.29 3.49 2.41 5.22 2.63 4.03.52 5.31-.61 5.48-.8.23-.14 1.71-1.18 2.11-5.33.18-1.78-.48-3.89-1.35-5.79-1.05-2.27-2.38-4.25-2.91-5h-.01a1.46 1.46 0 0 0-.2-.25c.04.09.05.15.05.15-.24-.3-.49-.59-.75-.85-1.47-1.23-4.88-2.35-5.4-2.6l-.22.14Z" class="cls-2"/><path d="M68.14 30.75c.28.23.51.46.7.7" class="cls-3"/><path d="M69.04 31.71v-.03h0c-.06-.2-.39-1.17-1.04-2.31l-.02-.03c-1.3-2.27-3.88-5.12-8.13-3.44 0 0-1.13-.85-2.29.56 0 0-3.04-.22-3.61 2.88-1.6.85-1.04 2.16-1.04 2.16-2.74 4.16-.06 7.55 1.88 9.25.04.03.08.06.1.09" class="cls-3"/><path d="M54.38 36.1s.61 4.35 2 5.87M68.82 31.38h0s.1.14.2.29h0l.02.03M56.38 41.98l-.02-.02" class="cls-3"/><path d="M56.12 41.68s.08.1.23.27M54.66 31.8c.62.21 1.14.31 1.56.33.06 0 .1.02.14 0M58.21 30.6v-.04" class="cls-3"/><path d="M60.44 38.67s2.93 4.03 3.82 6.61c0 0 .5.23 1.46-1.12" class="cls-2"/><path d="M102.08 53.77c.79.96 2.68 2.04 3.79 2.54v-.03s.5-.17 1.34-.37h0s0 0 0 0c1.94-.47 5.75-1.12 9.63-.28 5.55 1.2 9.71 2.8 9.71 2.8s-.06.12-.17.35l.05-.1s21.46 9.21 23.95 10.08c2.49.87 8.4 1.16 10.76 1.93.19.06.39.13.6.21 1.23-.38 2.52-.84 3.89-1.43h0c1.96-1.31 1.3-2.32 1.74-3.72.22-.72.53-1.36 1.16-1.75.47-.29 1.3-.22 1.81-.02s1.06.42 1.53.71c1.9 1.17 3.83 1.5 5.99 1.01 1.59-.36 3.12-1.17 4.74-1.09.37.02.75.09 1.03.33.28.24.43.68.25 1.01-.22.39-.75.42-1.18.51-.79.16-1.32.91-2.09 1.43-.67.46-2.38 1.47-3.08 1.86-1.86 1.05-4.13 2.2-6.22 3.26h0s-.84.42-2.19 1.11l-.18.09c1.86.94 3.49 1.8 4.3 2.24h0c2.65 1.21 2.88-.07 4.32-.59.69-.25 1.38-.38 2.05-.1.51.21.95.94 1.1 1.48.15.54.31 1.13.36 1.69.23 2.27 1.14 4.06 2.81 5.55 1.23 1.1 2.78 1.87 3.7 3.26.21.31.38.67.37 1.05-.01.38-.27.77-.63.81-.44.05-.77-.37-1.1-.67-.6-.55-1.5-.54-2.36-.86-.76-.28-2.59-1.02-3.3-1.43-2.84-1.61-6.25-3.39-9.1-4.65 0 0-6.73-1.02-10.81-1.99-.57-.14-1.29-.28-2.11-.42-4.92 2.57-9.57 5.07-10.41 5.73-1.89 1.51-4.94 1.2-4.94 1.2l-21.79-3.58h0c-6.44-1.76-12.31-3.63-17.06-6.3l-.88-.43h0l-1.24-.6.14-.76c-3.9-1.27-11.51-3.79-13.33-4.72-2.48-1.26-12.27-6.82-16.57-9.35-.41-.24-.81-.5-1.21-.78h-6.17c-4.83-.01-10.26-1.47-12.24-1.53-1.98-.06-2.97-.06-6.35.24-3.38.3-16.07-1.15-16.07-1.15s-1.45 1.11-2.1 1.83c-.66.72-1.13.68-2.38.83s-2.78.15-3.95.49c-1.17.34-1.68.23-1.98-.27s1.13-1.02 1.87-1.14 2.71-.8 2.71-.8H23.2s-5.01-.72-6.29-.68c-1.28.04-1.39-.64-1.39-.64-1.39 0-1.39-1.25-1.39-1.25s7.76-.27 8.93-.23c1.17.04 3.88-.76 4.68-1.1.8-.34 2.69-.61 2.69-.61s6.85-.9 9.76-1.2c2.91-.3 8.77-1.14 11.57-.64 2.46.44 11.04.24 13.03.18.55-.39 1.35-.67 2.16-.87 0 0 3.35.57 4.61.56 1.26 0 3.38.06 4.93-.43 1.55-.49 6.39-1.69 8.22-1.73 1.83-.04 6.48.6 7.11.6.63 0 7.78.55 7.78.55s1.62 1.6 2.53 2.71Z" style="fill:#d6d6d6;stroke:#000;stroke-linecap:round;stroke-linejoin:round"/><path d="M40.77 44.16c0 .85-.69 1.53-1.53 1.53s-1.53-.69-1.53-1.53.69-1.53 1.53-1.53 1.53.69 1.53 1.53Z" class="cls-4"/></svg>