<svg xmlns="http://www.w3.org/2000/svg" id="Calque_1" data-name="Calque 1" viewBox="0 0 128.13 128"><defs><style>.cls-1{fill:#d6d6d6}.cls-1,.cls-2,.cls-3,.cls-5,.cls-6{stroke:#000;stroke-linecap:round;stroke-linejoin:round}.cls-2{fill:#bfe6fc}.cls-3,.cls-6{fill:none}.cls-5{fill:#fff}.cls-5,.cls-6{stroke-width:2px}</style></defs><circle cx="61.66" cy="56.61" r="4.4" class="cls-1"/><path d="M73.26 68.36v18.98c0 .95-.78 1.73-1.73 1.73s-1.73-.78-1.73-1.73V69.76h-2.43V110c0 .58-.23 1.1-.62 1.48a2.102 2.102 0 0 1-3.59-1.48V86.04h-3.05V110c0 .58-.23 1.1-.62 1.48A2.1 2.1 0 0 1 55.9 110V69.76h-2.39v17.58c0 .95-.79 1.73-1.74 1.73s-1.73-.78-1.73-1.73V68.36c0-2.38 1.94-4.33 4.33-4.33h14.58c2.39 0 4.33 1.95 4.33 4.33Z" class="cls-1"/><path d="M9.9 15.22h111.47v97.56H9.9z" class="cls-6"/><path d="M25.81 35.08h63.9v77.7h-63.9z" class="cls-6"/><path d="M27.11 36.34h61.3v76.44h-61.3z" class="cls-6"/><path d="M45.69 20.8h23.69v9.56H45.69z" class="cls-2"/><circle cx="102.35" cy="61.72" r="5.49" class="cls-2"/><circle cx="102.35" cy="76.31" r="5.49" style="fill:#fab0b4;stroke:#000;stroke-linecap:round;stroke-linejoin:round"/><path d="M50.68 27.05c.17-.36.51-.68 1.01-.97l.75-.43c.34-.2.57-.36.71-.5.21-.22.32-.46.32-.74 0-.33-.1-.58-.29-.78s-.46-.29-.78-.29c-.48 0-.82.18-1 .55-.1.2-.15.47-.16.81h-.71c0-.49.1-.88.27-1.19.3-.54.84-.81 1.61-.81.64 0 1.11.17 1.4.52.29.35.44.73.44 1.16 0 .45-.16.83-.47 1.15-.18.19-.51.41-.98.67l-.54.3c-.26.14-.46.27-.6.4-.26.23-.42.48-.49.75h3.05v.66h-3.84c.03-.48.12-.9.3-1.26Z"/><path d="m57.9 26.66 3.4-2.89M64.7 26.66l-3.4-2.89M99.4 62.42l2.95-2.5M105.3 62.42l-2.95-2.5M105.3 75.54l-2.95 2.5M99.4 75.54l2.95 2.5" class="cls-3"/><path d="M69.77 35.08h19.94v77.7H69.77zM25.81 35.08h19.92v77.7H25.81z" class="cls-5"/></svg>