<svg xmlns="http://www.w3.org/2000/svg" id="Calque_1" data-name="Calque 1" viewBox="0 0 128 128"><defs><style>.cls-1{fill:#d6d6d6}.cls-1,.cls-2,.cls-3,.cls-4{stroke:#000;stroke-width:2px;stroke-linecap:round;stroke-linejoin:round}.cls-2{fill:#8987f3}.cls-3{fill:#ff6d75}.cls-4{fill:none}</style></defs><path d="M100.69 65.13a3.215 3.215 0 0 0 3.23 3.22c1.78 0 3.23-1.45 3.23-3.23s-1.45-3.23-3.23-3.23a3.225 3.225 0 0 0-3.23 3.23Z" class="cls-1"/><path d="M84.5 90.55c.13-.12.25-.24.38-.36-.13.12-.25.24-.38.36Z" class="cls-4"/><path d="M89.91 83.93s-.02.03-.03.04h0s.02-.03.03-.04Z" class="cls-3"/><path d="M86.31 88.73c.12-.13.24-.28.36-.41-.12.14-.24.28-.36.41ZM87.18 87.74c.12-.14.23-.29.35-.43-.12.14-.23.29-.35.43Z" class="cls-4"/><path d="M89.88 83.97c-.1.16-.19.33-.29.48.1-.16.19-.32.29-.48h0Z" class="cls-3"/><path d="M88.02 86.7c.11-.15.22-.31.34-.46-.11.15-.22.31-.34.46ZM88.82 85.6c.11-.16.22-.33.33-.49-.11.16-.22.33-.33.49ZM80.69 93.62l.42-.3-.42.3Z" class="cls-4"/><path d="M76.84 95.99c.17-.09.34-.19.52-.29-.17.1-.35.19-.52.29Z" class="cls-3"/><path d="M75.9 96.49c.17-.09.35-.18.53-.28-.18.09-.36.19-.53.28Z" class="cls-2"/><path d="M107.54 106.33c0 6.36-5.16 11.52-11.52 11.52-2.61 0-5.02-.87-6.96-2.34-2.77-2.1-4.57-5.43-4.57-9.18 0-4.1 2.14-7.7 5.37-9.75a11.435 11.435 0 0 1 7.49-1.7c.01 0 .02.01.03 0 5.72.67 10.16 5.55 10.16 11.45Z" class="cls-1"/><path d="M73.18 97.75c.21-.09.43-.18.64-.28-.22.1-.43.19-.64.28ZM77.79 95.46c.16-.09.32-.19.48-.28-.16.1-.32.19-.48.28Z" class="cls-3"/><path d="M85.79 89.27c-.13.13-.25.27-.38.39.13-.13.25-.26.38-.39Z" class="cls-4"/><path d="M74.06 97.36c.2-.09.4-.18.6-.28-.2.09-.4.19-.6.28Z" class="cls-3"/><path d="M74.97 96.94c.18-.09.37-.18.55-.27-.19.09-.37.18-.55.27Z" class="cls-2"/><path d="M83.56 91.39c.13-.11.26-.23.38-.34-.13.11-.25.23-.38.34ZM82.62 92.18c.13-.11.26-.22.4-.33-.13.11-.26.22-.4.33ZM78.76 94.89c.15-.09.3-.19.45-.28-.15.09-.3.19-.45.28ZM79.72 94.28a10.816 10.816 0 0 0 0 0ZM81.66 92.92c.14-.1.27-.21.41-.32-.13.11-.27.21-.41.32Z" class="cls-4"/><path d="m73.21 91.87-.03.17c0-.06.02-.11.03-.17h0Z" class="cls-3"/><path d="M80.16 93.98c.18-.12.36-.24.53-.36-.18.12-.36.24-.53.36ZM81.11 93.32c.18-.13.36-.26.55-.4-.18.14-.36.27-.55.4ZM83.01 91.85c.18-.15.37-.3.55-.46-.18.16-.37.31-.55.46ZM83.95 91.04c.19-.16.37-.33.55-.5-.18.17-.37.33-.55.5ZM79.2 94.61c.17-.11.35-.22.52-.33-.17.11-.35.22-.52.33ZM82.06 92.61c.19-.14.37-.28.55-.43-.18.15-.37.29-.55.43ZM85.41 89.66c-.18.18-.36.35-.54.52.18-.17.36-.34.54-.52Z" class="cls-4"/><path d="M73.83 97.47c.08-.04.16-.07.24-.1-.08.04-.16.07-.24.1ZM74.66 97.09c.1-.05.21-.09.31-.14-.1.05-.21.1-.31.14ZM73.02 97.82c.06-.02.11-.04.17-.07-.06.02-.11.05-.17.07ZM77.35 95.71c.15-.08.29-.16.44-.25-.15.08-.29.16-.44.25ZM78.27 95.18c.16-.1.32-.19.48-.29-.16.1-.32.19-.48.29Z" class="cls-3"/><path d="M75.52 96.67c.12-.06.25-.12.37-.19-.13.06-.25.12-.37.19Z" class="cls-2"/><path d="M76.43 96.21c.14-.07.27-.14.41-.22-.14.07-.27.14-.41.22Z" class="cls-3"/><path d="M88.35 86.24c.16-.21.31-.42.47-.64-.15.22-.31.43-.47.64Z" class="cls-4"/><path d="M89.15 85.11c.15-.22.3-.44.44-.66-.14.23-.29.44-.44.66Z" class="cls-3"/><path d="M85.79 89.27c.17-.18.35-.36.52-.54-.17.19-.34.36-.52.54ZM86.67 88.31c.17-.19.34-.38.5-.58-.17.2-.34.38-.5.58ZM87.53 87.31c.16-.2.33-.4.49-.61-.16.21-.33.41-.49.61Z" class="cls-4"/><path d="M102.73 96.62v.31l-.13-.07-.3-.18c-.92-.54-1.92-1.05-2.96-1.4-.14-.04-.28-.09-.42-.12-.33-.1-.67-.17-1-.21-.18-.04-.35-.06-.53-.07h-.03a11.435 11.435 0 0 0-7.48 1.7v-26.9c.02-.43.02-.86.01-1.31v-5.03c1.45-1.07 2.7-1.84 3.63-2.35.09-.06.2-.12.28-.16.1-.06.19-.09.28-.14.64-.34 1.06-.52 1.16-.56h.02l4.36-.84c.03.01.06.01.08.02 1.32.35 2.2 1.27 2.63 2.75l.06.21-.18.11c-.24.15-.46.33-.64.53-.19.19-.35.41-.48.65-.01 0 0 .01 0 .01-.27.47-.41 1-.41 1.56 0 .45.09.88.27 1.28.29.66.8 1.22 1.46 1.57l.16.09.15 28.55ZM89.77 71.91l-.18 12.54c-.14.23-.29.44-.44.66h0s-.04.07-.07.1c-.08.13-.16.26-.26.39-.07.11-.15.22-.23.32l-.23.32c-.06.07-.12.15-.17.23s-.11.15-.17.22c-.08.11-.16.21-.24.31-.09.1-.17.2-.25.3-.06.07-.12.15-.17.22-.06.07-.12.15-.18.22-.16.19-.34.38-.5.58-.14.14-.25.27-.37.4h0c-.09.11-.17.19-.26.28-.09.09-.17.18-.26.27-.06.07-.13.13-.18.2-.07.06-.13.13-.2.19-.17.18-.35.35-.53.52l-.38.37c-.18.17-.36.33-.55.49-.13.11-.25.24-.38.35-.18.16-.37.3-.56.46l-.39.33c-.19.14-.36.29-.55.42-.13.1-.27.22-.41.32-.18.14-.37.26-.54.4-.15.1-.28.2-.43.3-.17.12-.35.24-.53.36l-.21.15c-.07.05-.15.09-.22.14-.18.12-.35.23-.52.33-.15.1-.3.2-.45.29-.16.09-.32.19-.49.29-.15.09-.32.19-.48.28-.14.08-.28.16-.43.25-.18.09-.35.19-.52.28-.07.04-.13.08-.2.11-.07.04-.14.07-.21.11-.17.09-.35.18-.53.27l-.37.19c-.19.09-.37.19-.55.27-.1.05-.21.09-.31.14-.21.1-.41.19-.6.28-.08.03-.16.07-.24.11-.22.09-.43.18-.64.28-.06.02-.11.04-.17.06-.12.05-.23.1-.35.15-.12.05-.23.1-.35.14l-.18.07-.32.13h-.01l.11-.52.03-.16c.51-2.43 1.03-4.15 1.03-4.17.04-.29.09-.6.13-.91l.48-.19c5.91-2.37 14.98-7.99 16.18-20.44Z" class="cls-3"/><path d="m89.88 64.7-.03 2.32c-.06-.78-.13-1.59-.24-2.43v-.11c-.04-.22-.07-.45-.1-.68l-.03-.15c.13-.1.25-.19.37-.27.01-.02.02-.02.03-.02h0l.02-.02-.02 1.32v.04ZM89.88 67.83c0 .18.02.36.02.54v1.31c0 .19-.01.38-.02.57v.15c-.02.51-.06 1.02-.11 1.51l.08-4.89.03.76v.05Z" class="cls-2"/><path d="M73.1 92.54h0c.03-.17.05-.33.07-.51l-.08.51ZM88.08 64.39C82.54 69 75.55 77.47 73.22 91.87c0 .06-.02.11-.03.17-.03.17-.05.33-.07.5l.47-.19c6.97-2.79 18.31-10.1 16.03-27.77l-.02-.11-.09-.68-.02-.16M46.83 109.62l1.69 2.45c.52-.32 1.13-.51 1.78-.51.45 0 .87.09 1.26.25l6.1-7.39-4.47-2.07-6.37 7.27ZM46.86 114.91c0-1.2.63-2.25 1.57-2.84l-1.69-2.45s-13.55 2.45-13.74 6.63v1.79h15.21l.13-.35c-.89-.6-1.48-1.62-1.48-2.78Z" class="cls-3"/><path d="M48.53 112.07c-.94.59-1.57 1.64-1.57 2.84s.59 2.18 1.48 2.78a3.359 3.359 0 0 0 5.23-2.78c0-1.41-.86-2.61-2.09-3.11a3.331 3.331 0 0 0-3.04.26ZM93.98 36.56c.03 1.92 3.05 3.76 3.79 4.33 3.26 2.52 6.1 6.64.81 15.29-.07-.07-.14-.14-.22-.2a1.9 1.9 0 0 0-.44-.32c-1.11-.72-2.57-.83-3.73-.76h-.1c-.16.02-.3.03-.42.05l-.28.03c-.07 0-.1.01-.1.01 5.71-6.59 2.49-9.74-1.16-12.98-.55-.49-1.08-.96-1.56-1.44-.99-.98-1.5-2.2-1.5-3.53.02-3.2 3.07-6.17 6.28-9.33 1.31-1.3 3.89-4.04 4.93-5.79 2.97-5 2.45-9.3.84-10.96-2.03-2.11-8.09-2.03-11.27-.67h0l-1.96-1.24-.31-.19-1.88-1.18c2.42-2.51 13.66-5.57 18.94-.13 3.11 3.22 3.58 8.58.19 16.17-.9 2.02-3.58 5.06-6.06 7.49-1.69 1.65-4.82 3.56-4.79 5.35Z" class="cls-1"/><path d="M89.88 63.34h.02-.02Z" class="cls-2"/><path d="m87.88 9.05-.31-.19-1.87-1.17-32.5 94.66 2.13.99 2.34 1.08 32.05-93.77.13-.36v-.01l-1.97-1.23z" class="cls-1"/><path d="M89.74 84.21c.04-.07.09-.15.14-.22v12.59c-3.23 2.05-5.38 5.65-5.38 9.75 0 3.75 1.79 7.08 4.57 9.18H76.64c-1.67-.09-2.99-.75-3.94-1.98-2.53-3.31-1.91-10-.88-15.22l.32-.14.18-.07c.12-.04.23-.09.35-.14.11-.05.23-.09.35-.14.05-.03.11-.05.17-.07.21-.1.42-.19.64-.28.08-.04.16-.08.24-.11.19-.09.39-.18.6-.28.1-.05.21-.09.31-.14.18-.08.36-.18.55-.27l.37-.19c.18-.09.35-.18.53-.28.07-.04.14-.07.21-.1.07-.03.14-.07.2-.1.17-.1.34-.2.52-.29.15-.09.29-.17.43-.25.16-.09.33-.19.48-.28.17-.1.33-.2.49-.29.15-.09.3-.19.45-.29.17-.1.34-.21.52-.32.07-.05.15-.11.22-.15l.21-.15c.18-.12.36-.24.53-.36.15-.1.28-.2.43-.3.17-.14.36-.26.54-.4.14-.1.28-.22.41-.32.19-.13.36-.28.55-.42l.39-.33c.19-.16.38-.3.56-.46.13-.11.25-.24.38-.35.19-.16.37-.32.55-.49l.38-.37c.18-.17.36-.34.53-.52.07-.06.13-.13.2-.19.06-.07.13-.14.19-.2.08-.09.16-.18.25-.27.09-.09.17-.17.26-.27h0c.14-.14.24-.28.37-.41.16-.2.34-.39.5-.58.06-.07.12-.15.18-.22s.12-.15.18-.22l.24-.3c.08-.1.16-.2.24-.31.06-.07.12-.14.17-.22s.11-.16.16-.24c.08-.1.16-.2.24-.31.08-.1.16-.21.23-.32.1-.13.18-.26.26-.39a.55.55 0 0 0 .07-.09h0c.15-.24.3-.44.45-.67.04-.08.09-.16.14-.24ZM89.89 81.68v2.31V70.4v11.28ZM99.71 59.31s-.05-.01-.08-.02l-4.36.83h-.02c-.1.05-.52.23-1.16.57-.09.05-.18.08-.28.14-.08.04-.19.1-.28.16-.93.51-2.18 1.28-3.63 2.35h-.02v.02s-.02 0-.03.02c-.3.18-1.64.91-1.77 1.01 0 0-.33-2.35.29-4.72.28-1.06.76-2.11 1.54-2.96l3.38-1.72s.03-.01.1-.01l.28-.03c.12-.02.26-.03.42-.04.96-.05 2.6 0 3.83.75.16.1.31.2.44.32.08.06.15.13.22.2l1.13 3.13Z" class="cls-3"/><path d="m93.67 54.95-.28.03c.06-.01.16-.02.28-.03ZM94.09 60.69c.64-.34 1.06-.52 1.16-.56l-5.35 3.21c1.45-1.07 2.7-1.84 3.63-2.35.09-.06.2-.12.28-.16.1-.06.19-.09.28-.14ZM99.71 59.31l-4.44.81 4.36-.83s.06.01.08.02Z" class="cls-2"/><path d="M28.15 118.87c.07-.24.12-.49.12-.75 0-1.44-1.17-2.61-2.61-2.61-1.17 0-2.15.78-2.48 1.85-.41-.02-.84.05-1.24.24-1.3.62-1.86 2.17-1.24 3.47.62 1.3 2.17 1.86 3.47 1.24.04-.02.07-.05.11-.07.46.74 1.27 1.24 2.21 1.24 1.44 0 2.61-1.17 2.61-2.61 0-.81-.38-1.52-.95-2Z" class="cls-1"/><path d="M-4431.8-678.71h6562.35v1176.7H-4431.8z" style="stroke:#fff;stroke-width:8px;fill:none;stroke-linecap:round;stroke-linejoin:round"/></svg>