<svg xmlns="http://www.w3.org/2000/svg" id="Calque_1" data-name="Calque 1" viewBox="0 0 200.13 128"><defs><style>.cls-1{fill:#76ac75}.cls-1,.cls-2,.cls-3,.cls-4,.cls-5,.cls-8{stroke:#000;stroke-linecap:round;stroke-linejoin:round}.cls-2{fill:#9fc69e}.cls-3{fill:#f3d587}.cls-4{fill:none}.cls-5,.cls-8{fill:#d6d6d6;stroke-width:2px}.cls-8{fill:#fff}</style></defs><path id="jkvMcz" d="M159.91 20.61c-4.68 6.57-7.81 14.86-5.18 24.48 1.14 4.18 4.23 7.18 7.04 10.26 1.65 1.8 2.5 3.69 2.33 6.19-.52 7.61-.98 15.23-1.33 22.85-.32 6.77-.28 13.54.6 20.27.16 1.24.46 2.49.85 3.68.81 2.48 1.9 3.27 4.23 3.25 2.37-.01 3.41-.81 4.23-3.26.66-1.98.87-4.03 1.02-6.09.85-11.97-.55-23.84-1.51-35.73-.16-1.94-.25-3.89-.45-5.83-.21-1.99.56-3.54 1.8-5.01 1.7-2.01 3.42-4.03 4.92-6.19 3.73-5.37 3.78-11.28 2.16-17.34-1.27-4.76-3.14-9.24-6.73-12.79-4.19-4.15-8.81-4.06-13.98 1.26Z" class="cls-5"/><circle cx="96.03" cy="64" r="53.65" class="cls-8"/><circle cx="96.03" cy="64" r="43.8" class="cls-8"/><path d="M20.42 16.08a.55.55 0 0 0-.11.3c-.12 1.7-.24 3.4-.37 5.1-.14 1.8-.28 3.59-.41 5.39-.11 1.52-.21 3.03-.32 4.55-.13 1.8-.28 3.59-.41 5.39-.09 1.22-.14 2.45-.26 3.67-.13 1.33.12 2.59.65 3.8.58 1.36 1.47 2.51 2.67 3.36 1.45 1.03 2.41 2.36 2.77 4.11.2.95.14 1.91.09 2.86-.06 1.09-.04 2.18-.1 3.28-.08 1.4-.06 2.8-.1 4.2-.09 2.65-.16 5.3-.23 7.95-.04 1.67-.1 3.34-.15 5.01-.08 2.63-.15 5.25-.22 7.88-.04 1.68-.09 3.36-.15 5.04-.08 2.61-.15 5.23-.22 7.84-.05 1.72-.11 3.44-.15 5.15-.05 2.29-.17 4.59-.2 6.88a4.45 4.45 0 0 0 4.04 4.48c2.29.19 4.38-1.42 4.72-3.74.16-1.1.04-2.23 0-3.35-.02-.88-.08-1.76-.11-2.65-.06-2.17-.11-4.34-.17-6.52-.09-3.17-.19-6.33-.29-9.5-.07-2.32-.15-4.64-.22-6.96-.08-2.43-.15-4.86-.22-7.29-.07-2.4-.15-4.81-.22-7.21-.07-2.38-.14-4.76-.22-7.14-.06-1.63-.15-3.26-.14-4.9.02-2.13.88-3.86 2.6-5.11 1.89-1.37 3.16-3.13 3.62-5.44.23-1.12.08-2.25.02-3.38-.05-.91-.13-1.81-.19-2.71-.12-1.65-.24-3.3-.35-4.96l-.24-3.64c-.11-1.66-.23-3.33-.35-4.99l-.24-3.6c-.06-.87-.13-1.74-.16-2.61-.02-.5-.27-.78-.73-.94-.74-.25-13.63 0-13.93.36ZM30.3 16.49v19.87M24.92 16.49v19.87" class="cls-5"/><path d="M102.85 28.47c.05 1.22-.03 2.55-.11 3.66-.05.68-.09 1.33-.15 1.93-.23 2.63-.58 4.4-1.86 5.06-1.81.92-3.2-1.52-6.75-1.29-2.68.17-4.68 1.73-6.32 3.01-1.9 1.49-2.44 2.51-4.51 5.03-1.93 2.34-4.21 5.1-7.12 7.36-2.97 2.3-6.02 4.67-9.94 4.36-4.22-.33-6.98-3.56-8.21-5-.82-.95-5.53-6.7-3.75-14.04 1.44-5.95 6.17-8.95 7.28-9.61 5.87-3.48 12.85-2.25 16.54-1.61 3.27.57 5.6 1.51 10.24 1.63 5.24.13 6.71-.93 7.2-1.34.84-.7 1.56-1.71 3.26-2.41.95-.39 1.96-.81 2.78-.42 1.02.47 1.36 1.99 1.42 3.7Z" style="fill:#baa584;stroke-miterlimit:10;stroke-width:2px;stroke:#000"/><path d="M127.2 27.16c.32 2.54-3.62 7.22-6.87 6.12-3.26-1.1-4.84-3.49-4.84-3.49l-12.91 4.26c.05-.6.1-1.24.15-1.93.08-1.11.17-2.44.11-3.66l11.27-3.67s.32-6.06 4.44-5.82c4.11.24 3.91 5.64 3.91 5.64s4.42-.01 4.74 2.53Z" style="fill:#fff;stroke-miterlimit:10;stroke-width:2px;stroke:#000"/><path d="M53.02 65.57c.48.03.88-.37.87-.85-.02-.61-.49-1.72-.5-2.63-.02-1.72.83-4.26 1.39-5.15.55-.88 1.63 1.02 1.63 1.02l1.6-.43c.37-.1.74.12.84.48l.07.28c.08.28.32.49.61.51l1.82.13c.35.03.63.31.64.66l.03.95c.01.3.22.57.51.64l.92.24c.44.11.65.61.43 1l-.04.07c-.2.36-.05.81.33.97l1.17.5-.8 1.1.82.42c.48.25.5.94.03 1.21-1.01.58-2.59 1.34-3.92 1.37-1.09.02-2.72-.4-3.71-.55-.75-.12-1.36.6-1.14 1.32.27.87.91 2.14.96 2.63.1.98-.29 2.92-.9 3.95-.36.62-1.07 1.45-1.59 2.01-.25.27-.7.15-.78-.21l-.44-1.86-.88.67c-.21.15-.5.11-.65-.1l-.62-.87a.47.47 0 0 0-.42-.19l-1.41.15a.453.453 0 0 1-.5-.41l-.14-1.4a.467.467 0 0 0-.31-.39l-1.22-.41a.459.459 0 0 1-.29-.58l.18-.53a.459.459 0 0 0-.24-.56l-.66-.3a.453.453 0 0 1-.24-.56l.32-.95c.06-.17.01-.36-.12-.48l-1.04-.98c-.22-.21-.19-.58.08-.73.94-.54 2.96-1.58 4.46-1.52 1 .04 2.26.32 2.83.35Z" class="cls-3"/><path d="M60.38 66.01s-2.65.49-3.81 1.56c-1.16 1.07-2.63 4.06-2.63 4.06M49.96 67.43s2.65-.49 3.81-1.56c1.16-1.07 2.63-4.06 2.63-4.06" class="cls-4"/><path d="M55.83 84.39c.34-.35.31-.91-.07-1.21-.48-.39-1.62-.76-2.31-1.35-1.31-1.11-2.67-3.43-2.97-4.43-.3-1 1.84-.55 1.84-.55l.72-1.49c.17-.34.58-.48.92-.32l.26.13c.26.13.58.08.79-.13l1.3-1.29a.69.69 0 0 1 .92-.05l.74.6c.24.19.57.21.82.03l.79-.54c.37-.25.88-.09 1.04.34l.03.07c.14.39.58.57.95.39l1.14-.55.31 1.33.86-.34c.51-.2 1.04.24.93.77-.23 1.14-.69 2.83-1.55 3.85-.7.84-2.09 1.79-2.85 2.44-.58.49-.45 1.42.25 1.73.84.37 2.21.72 2.62 1 .8.57 2 2.14 2.38 3.27.23.68.39 1.76.47 2.52a.46.46 0 0 1-.67.46l-1.69-.89-.08 1.1c-.02.26-.25.45-.5.42l-1.06-.1a.47.47 0 0 0-.42.19l-.81 1.16c-.15.21-.43.26-.64.11l-1.15-.82a.454.454 0 0 0-.5-.02l-1.11.65c-.22.13-.5.05-.63-.16l-.28-.48a.466.466 0 0 0-.58-.19l-.66.3c-.21.1-.47.02-.58-.19l-.5-.86a.456.456 0 0 0-.44-.22l-1.42.14a.457.457 0 0 1-.5-.54c.21-1.06.75-3.27 1.79-4.37.69-.73 1.73-1.49 2.12-1.9Z" class="cls-3"/><path d="M61.01 79.14s-1.37 2.32-1.33 3.89c.04 1.58 1.33 4.65 1.33 4.65M55.23 87.92s1.37-2.32 1.33-3.89c-.04-1.58-1.33-4.65-1.33-4.65" class="cls-4"/><path d="M80.35 68.05c.06.48.52.8.99.7.6-.13 1.6-.8 2.49-.97 1.69-.34 4.35.04 5.31.42s-.7 1.79-.7 1.79l.72 1.49c.16.34.02.75-.32.92l-.26.12c-.26.13-.42.41-.39.7l.2 1.82a.69.69 0 0 1-.53.75l-.93.21a.69.69 0 0 0-.54.62l-.07.95c-.03.45-.48.75-.91.6l-.07-.02c-.39-.13-.8.1-.89.5l-.28 1.24-1.23-.58-.27.89c-.16.52-.83.67-1.18.25-.75-.89-1.79-2.3-2.06-3.6-.22-1.07-.11-2.74-.14-3.75-.02-.76-.84-1.23-1.51-.87-.81.43-1.94 1.29-2.41 1.43-.94.28-2.92.24-4.04-.16-.68-.24-1.62-.79-2.27-1.19a.46.46 0 0 1 .06-.81l1.75-.77-.82-.75a.462.462 0 0 1-.02-.66l.74-.77c.11-.12.16-.29.11-.45l-.4-1.35c-.07-.24.07-.5.31-.57l1.35-.39c.17-.05.3-.2.33-.38l.18-1.27a.46.46 0 0 1 .52-.39l.55.08c.23.03.45-.12.51-.34l.18-.7c.06-.23.28-.38.51-.34l.99.14c.18.02.35-.06.45-.21l.77-1.2a.45.45 0 0 1 .73-.05c.7.82 2.1 2.62 2.32 4.11.14.99.1 2.28.17 2.84Z" class="cls-3"/><path d="M81.26 75.37s-.97-2.51-2.23-3.46-4.47-1.84-4.47-1.84M77.95 65.39s.97 2.51 2.23 3.46 4.47 1.84 4.47 1.84" class="cls-4"/><path d="M76.98 81.54c.06.48.52.8.99.7.6-.13 1.6-.8 2.49-.97 1.69-.34 4.35.04 5.31.42s-.7 1.79-.7 1.79l.72 1.49c.16.34.02.75-.32.92l-.26.12c-.26.13-.42.41-.39.7l.2 1.82a.69.69 0 0 1-.53.75l-.93.21a.69.69 0 0 0-.54.62l-.07.95c-.03.45-.48.75-.91.6l-.07-.02c-.39-.13-.8.1-.89.5l-.28 1.24-1.23-.58-.27.89c-.16.52-.83.67-1.18.25-.75-.89-1.79-2.3-2.06-3.6-.22-1.07-.11-2.74-.14-3.75-.02-.76-.84-1.23-1.51-.87-.81.43-1.94 1.29-2.41 1.43-.94.28-2.92.24-4.04-.16-.68-.24-1.62-.79-2.27-1.19a.46.46 0 0 1 .06-.81l1.75-.77-.82-.75a.462.462 0 0 1-.02-.66l.74-.77c.11-.12.16-.29.11-.45l-.4-1.35c-.07-.24.07-.5.31-.57l1.35-.39c.17-.05.3-.2.33-.38l.18-1.27a.46.46 0 0 1 .52-.39l.55.08c.23.03.45-.12.51-.34l.18-.7c.06-.23.28-.38.51-.34l.99.14c.18.02.35-.06.45-.21l.77-1.2a.45.45 0 0 1 .73-.05c.7.82 2.1 2.62 2.32 4.11.14.99.1 2.28.17 2.84Z" class="cls-3"/><path d="M77.89 88.86s-.97-2.51-2.23-3.46-4.47-1.84-4.47-1.84M74.59 78.88s.97 2.51 2.23 3.46 4.47 1.84 4.47 1.84" class="cls-4"/><path d="M76.38 99.27c.25.42.79.53 1.19.25.5-.36 1.16-1.36 1.9-1.88 1.42-.97 4.01-1.68 5.05-1.71s.06 1.92.06 1.92l1.25 1.09c.29.25.32.68.07.97l-.19.22c-.19.22-.22.54-.08.79l.9 1.59c.17.31.09.69-.2.9l-.77.56c-.25.18-.35.5-.25.78l.31.9c.15.43-.15.88-.6.91h-.08c-.41.04-.7.42-.62.82l.23 1.25-1.36-.05.1.92c.06.54-.5.94-.99.7-1.04-.52-2.55-1.41-3.31-2.5-.63-.89-1.18-2.48-1.61-3.39-.32-.69-1.25-.8-1.73-.21-.57.71-1.27 1.95-1.65 2.26-.76.63-2.59 1.38-3.78 1.45-.72.04-1.8-.09-2.56-.2a.455.455 0 0 1-.26-.77l1.3-1.4-1.04-.37a.46.46 0 0 1-.28-.59l.38-1c.06-.15.03-.33-.08-.46l-.91-1.09a.46.46 0 0 1 .06-.65l1.09-.89c.14-.11.2-.3.15-.48l-.34-1.24c-.07-.24.08-.5.32-.56l.54-.15a.45.45 0 0 0 .33-.52l-.12-.72c-.04-.23.11-.45.33-.52l.96-.26c.17-.05.3-.19.33-.37l.24-1.41c.05-.3.38-.47.65-.34.97.48 2.96 1.58 3.75 2.87.52.86.99 2.06 1.28 2.54Z" class="cls-3"/><path d="M80.1 105.64s-1.88-1.93-3.41-2.3-4.83.07-4.83.07M73.14 97.77s1.88 1.93 3.41 2.3 4.83-.07 4.83-.07" class="cls-4"/><path d="M97.65 95.22c-.21.44 0 .96.46 1.12.58.21 1.78.2 2.62.53 1.6.63 3.63 2.39 4.24 3.24.61.85-1.56 1.12-1.56 1.12l-.21 1.64c-.05.38-.39.64-.77.6l-.28-.04a.672.672 0 0 0-.7.38l-.81 1.64c-.16.31-.53.46-.85.34l-.89-.33a.684.684 0 0 0-.79.23l-.57.76c-.27.36-.81.37-1.09.01l-.05-.06a.684.684 0 0 0-1.02-.06l-.9.89-.72-1.16-.71.6c-.41.35-1.06.11-1.13-.43-.15-1.16-.26-2.9.22-4.14.39-1.02 1.4-2.36 1.92-3.23.39-.65-.03-1.49-.79-1.55-.91-.08-2.33.03-2.8-.11-.94-.28-2.59-1.38-3.31-2.33-.44-.57-.93-1.55-1.26-2.23-.16-.33.12-.71.49-.65l1.89.3-.28-1.07c-.06-.25.09-.5.34-.56l1.04-.25c.16-.04.29-.16.33-.32l.4-1.36c.07-.24.33-.38.57-.31l1.35.41c.17.05.36 0 .48-.14l.84-.97a.47.47 0 0 1 .65-.05l.42.37c.18.15.44.15.61-.01l.53-.5c.17-.16.44-.17.61-.01l.76.65c.14.12.33.14.49.07l1.3-.59c.28-.13.6.05.64.35.14 1.07.34 3.34-.29 4.71-.42.91-1.15 1.97-1.4 2.48Z" class="cls-3"/><path d="M94.44 101.86s.55-2.63 0-4.11-2.76-3.97-2.76-3.97M97.08 91.68s-.55 2.63 0 4.11c.55 1.48 2.76 3.97 2.76 3.97" class="cls-4"/><path d="M102.3 75.77c-.45.19-.63.72-.4 1.14.29.54 1.2 1.33 1.6 2.14.78 1.54 1.13 4.2 1.02 5.23s-1.91-.2-1.91-.2l-1.24 1.09c-.29.25-.72.22-.97-.06l-.19-.22a.697.697 0 0 0-.77-.19l-1.7.68c-.33.13-.7 0-.86-.31l-.45-.84a.684.684 0 0 0-.74-.35l-.94.19a.682.682 0 0 1-.82-.71v-.08a.685.685 0 0 0-.72-.73l-1.27.06.23-1.34-.93-.02a.69.69 0 0 1-.56-1.07c.66-.96 1.74-2.34 2.92-2.95.97-.5 2.62-.84 3.57-1.14.73-.23.96-1.14.44-1.69-.63-.66-1.76-1.52-2.02-1.94-.52-.83-1.02-2.75-.93-3.94.05-.72.33-1.78.54-2.51.1-.35.56-.45.79-.16l1.21 1.48.5-.99c.12-.23.4-.32.63-.2l.94.51c.15.08.32.07.46-.02l1.2-.75c.22-.14.5-.07.63.15l.74 1.2c.09.15.27.24.45.21l1.27-.17c.25-.03.48.14.51.39l.07.55c.03.23.23.4.47.4l.73-.02c.23 0 .44.17.47.4l.13.99c.02.18.15.32.32.38l1.36.42c.29.09.42.44.25.69-.61.9-1.96 2.72-3.34 3.33-.92.4-2.17.71-2.69.93Z" class="cls-3"/><path d="M95.49 78.6s2.16-1.6 2.73-3.07c.57-1.47.58-4.8.58-4.8M104.23 72.75s-2.16 1.6-2.73 3.07c-.57 1.47-.58 4.8-.58 4.8" class="cls-4"/><path d="M92.92 58.07a.822.822 0 0 0-.97.73c-.06.61.26 1.77.16 2.67-.2 1.71-1.38 4.12-2.04 4.92s-1.48-1.22-1.48-1.22l-1.64.22a.68.68 0 0 1-.77-.59l-.04-.28a.692.692 0 0 0-.54-.58l-1.79-.37a.698.698 0 0 1-.55-.74l.09-.95c.03-.3-.14-.59-.43-.7l-.88-.36a.687.687 0 0 1-.29-1.05l.05-.06a.68.68 0 0 0-.2-1l-1.09-.65.93-.99-.76-.53a.684.684 0 0 1 .13-1.2c1.08-.44 2.74-.99 4.06-.85 1.08.12 2.64.75 3.61 1.03.73.21 1.43-.41 1.3-1.17-.16-.9-.63-2.24-.61-2.73.03-.98.67-2.85 1.4-3.8.44-.57 1.25-1.3 1.83-1.79.28-.24.71-.06.75.31l.19 1.9.96-.54c.22-.13.51-.04.63.18l.5.94c.08.15.23.24.39.24l1.41.03c.25 0 .46.22.45.47l-.05 1.41c0 .18.09.35.26.43l1.15.56c.23.11.32.39.21.61l-.24.5c-.1.21-.03.47.17.59l.62.38c.2.12.27.38.17.59l-.44.9c-.08.16-.06.35.06.49l.9 1.11c.19.24.11.59-.17.71-1 .41-3.14 1.19-4.62.93-.99-.17-2.2-.61-2.76-.71Z" class="cls-3"/><path d="M85.68 56.67s2.69-.15 3.98-1.05c1.29-.91 3.13-3.68 3.13-3.68M96.19 56.62s-2.69.15-3.98 1.05-3.13 3.68-3.13 3.68" class="cls-4"/><path d="m117.41 64.76 8.49.93 4.8 2.9-.72 1s.9 2.29 1.79 3.08 1.61 1.36 2.04 1.9.82 1.18.82 1.18 3.15-1.65 3.83-2.51 1-1.5 1.72-2.08 1.68-1.11 1.97-1.5-.93-3.9-1.65-5.08-.75-1.22-.9-2.19c-.14-.97-.32-6.88-.21-8.34.11-1.47 1.22-6.95 1.22-6.95l-4.23 1.47s-.54 4.51-.64 5.37-.64 2.51-.64 2.51l-1.18-7.3-3.01.04-1.25 3.01 1.25 4.99-2.76-3.09-3.12 2.43s1.84 2.79 2.1 3.55.37 1.22.98 2.01 1.69 1.4 1.69 1.4-2.03-1.04-2.66-1.58-.99-1-1.28-1.22-5.26-1.72-5.87-2.43-1.61 1.18-1.61 1.18 2.36 2.33 3.12 2.86c.75.54-.14.33-1.18.29-1.04-.05-2.29-.93-2.29-.93l-.61 3.12Z" class="cls-2"/><path d="M118.7 57.19a.841.841 0 0 1-1.02-.78c-.16 0-.31-.02-.46-.1-.39-.21-.55-.68-.36-1.04.12-.22.34-.35.59-.37a.706.706 0 0 1-.01-.69c.13-.24.38-.37.65-.38-.28-.24-.37-.62-.2-.93.11-.2.31-.33.53-.36-.02 0-.04-.02-.06-.03-.39-.21-.55-.67-.35-1.04.09-.17.23-.28.41-.33-.1 0-.21-.04-.31-.1a.78.78 0 0 1-.43-.68c-.26-.24-.35-.61-.18-.92s.49-.43.82-.36a.74.74 0 0 1-.04-.76c.2-.36.67-.49 1.06-.28.03.02.06.04.09.05 0-.13.02-.25.08-.37.18-.34.61-.46.98-.31 0-.1.03-.19.08-.28.2-.36.67-.49 1.06-.27.07.04.13.08.18.13 0-.08.03-.16.08-.24.19-.36.67-.48 1.06-.27.07.04.13.08.19.14.01-.05.03-.1.06-.15.2-.36.67-.49 1.06-.27.21.12.36.31.41.52.23-.26.63-.33.98-.14.24.13.39.35.43.59.2-.35.67-.46 1.05-.26.29.16.45.45.44.74.23-.17.57-.2.86-.04.39.21.55.67.35 1.03 0 .02-.02.04-.03.06.23-.14.54-.16.82 0 .37.2.53.63.37.98.22-.12.52-.13.77 0 .39.21.55.67.35 1.04-.06.11-.15.2-.25.26h0c.39.21.55.67.35 1.04-.11.2-.29.32-.5.36.25.24.33.6.17.9s-.48.42-.79.37c.15.23.18.52.05.76-.09.17-.25.29-.43.34-.16.09-.35.12-.54.08.1.21.11.45 0 .66-.19.35-.64.48-1.02.29.16.23.19.53.06.78-.19.36-.67.48-1.06.27-.08-.05-.16-.11-.22-.17.08.2.08.43-.02.63-.2.36-.67.49-1.06.28a.806.806 0 0 1-.33-.33c.02.14 0 .29-.08.43-.2.36-.67.48-1.06.27a.657.657 0 0 1-.17-.12c.01.13-.01.27-.08.39-.2.36-.67.49-1.06.28-.08-.05-.16-.1-.22-.17-.21.34-.67.45-1.05.24a.82.82 0 0 1-.37-.39c-.23.19-.59.23-.89.07a.77.77 0 0 1-.4-.49c-.23.23-.61.29-.93.11a.782.782 0 0 1-.43-.66Z" class="cls-1"/><path d="M132.54 36.63c.04.11.06.23.05.34.1-.25.3-.46.57-.55.43-.15.91.06 1.13.45.15-.24.43-.38.71-.34.32.04.57.29.64.6.16-.22.42-.34.7-.31.19.02.36.12.48.27.14.11.24.28.28.47a.72.72 0 0 1 .63-.22c.4.05.69.42.66.83.16-.23.42-.36.71-.33.41.05.71.44.65.87-.01.09-.04.18-.08.26.16-.14.37-.22.6-.2.41.05.71.44.65.87-.02.16-.09.31-.18.42.12-.07.28-.1.43-.08.42.05.71.44.65.87-.01.07-.02.13-.05.19a.68.68 0 0 1 .4-.06c.41.05.71.44.65.87-.01.09-.04.18-.08.26.39.07.67.45.61.87-.02.18-.1.35-.23.47.27.15.44.46.4.79-.03.22-.15.42-.32.54.3.13.5.46.45.81-.04.29-.22.52-.46.63.11.16.16.35.14.56-.04.3-.24.55-.5.64.06.14.1.3.08.46-.06.43-.44.74-.85.69a.74.74 0 0 1-.57-.41c-.16.18-.4.29-.65.26a.792.792 0 0 1-.6-.46c-.12.34-.45.55-.81.51a.748.748 0 0 1-.54-.35v.06c-.05.43-.43.74-.85.69a.751.751 0 0 1-.47-.25c.03.1.04.2.02.32-.04.3-.22.53-.47.63-.13.32-.45.53-.8.49a.743.743 0 0 1-.6-.49c.02.27-.07.54-.24.73.03.43-.22.84-.63.98a.95.95 0 0 1-1.06-.35c-.06.32-.29.61-.62.72-.5.17-1.04-.12-1.21-.63-.02-.04-.02-.08-.03-.12-.1.12-.24.22-.4.27-.46.16-.97-.08-1.17-.53-.09.08-.2.15-.32.19-.5.17-1.04-.12-1.21-.63a.857.857 0 0 1-.05-.27c-.08.06-.18.12-.28.16-.49.16-1.03-.12-1.21-.63a.868.868 0 0 1-.05-.28c-.06.04-.12.06-.19.09-.49.17-1.04-.12-1.21-.63a.99.99 0 0 1 .02-.7c-.18.16-.43.26-.69.24.22.25.3.6.18.93-.18.49-.73.74-1.24.56-.04-.02-.08-.03-.12-.05.03.16.02.32-.04.48-.16.46-.67.7-1.14.59 0 .12-.01.25-.06.37-.18.49-.73.74-1.25.56a.92.92 0 0 1-.24-.13c0 .1-.01.21-.05.32-.04.12-.11.22-.19.31.08.04.15.1.22.18.29.34.26.83-.05 1.09-.19.16-.45.2-.69.13.03.24-.05.49-.24.65-.21.18-.49.21-.74.11.17.32.12.71-.15.94-.18.15-.4.19-.63.14.02.02.03.03.04.05.29.34.26.83-.05 1.09-.14.12-.32.17-.5.16.09.05.18.12.25.2.18.22.24.51.17.75.11.15.17.34.16.55-.02.24-.13.45-.3.59.33.1.56.44.53.83-.02.27-.16.5-.36.63.4.04.7.42.67.85-.02.33-.22.6-.49.71.25.14.41.43.39.76-.03.44-.38.78-.8.75h-.06c.22.15.37.43.34.74-.03.42-.35.75-.74.75.2.15.33.42.31.71-.03.44-.39.78-.8.75-.13 0-.24-.05-.34-.11h0c-.03.45-.39.78-.8.75a.72.72 0 0 1-.54-.31c-.11.32-.41.55-.75.53a.744.744 0 0 1-.66-.57c-.14.23-.39.38-.67.36a.72.72 0 0 1-.49-.24.766.766 0 0 1-.3-.46c-.15.18-.37.28-.61.27-.4-.03-.7-.39-.69-.81-.14.24-.4.4-.69.38-.41-.03-.72-.41-.69-.85 0-.1.03-.19.07-.27-.15.16-.36.25-.58.24-.41-.03-.72-.41-.69-.85.01-.17.07-.32.16-.44-.12.08-.27.12-.42.11-.41-.03-.72-.41-.69-.85 0-.07.02-.14.04-.2-.12.06-.25.1-.39.09-.41-.03-.72-.41-.69-.85 0-.1.03-.18.06-.27-.39-.05-.68-.42-.65-.85a.86.86 0 0 1 .2-.5c-.27-.13-.45-.44-.43-.79.02-.23.12-.44.28-.57-.3-.11-.51-.44-.48-.8.02-.3.19-.55.42-.67a.763.763 0 0 1-.16-.56c.02-.31.21-.57.46-.69a.89.89 0 0 1-.1-.46c.03-.44.39-.78.8-.75.06 0 .12.02.17.04l.02-.02c.02-.01.03-.03.05-.04a.817.817 0 0 1-.77-.29c-.27-.32-.26-.78.01-1.05a.783.783 0 0 1-.71-.29c-.29-.34-.26-.83.05-1.09.1-.08.21-.13.32-.16h0c-.29-.34-.26-.83.05-1.09a.7.7 0 0 1 .6-.16c-.14-.31-.08-.68.17-.9.24-.21.6-.22.87-.05-.06-.27.02-.55.23-.72.15-.13.34-.18.53-.16.08-.01.17 0 .26.01a.923.923 0 0 1 .3-.87h0c-.51-.18-.78-.73-.61-1.22.1-.27.3-.46.55-.55a.963.963 0 0 1-.36-1.09c.14-.38.51-.62.91-.62-.22-.26-.31-.61-.19-.94a.89.89 0 0 1 .46-.51c.18-.14.4-.22.65-.21a.905.905 0 0 1-.1-.83c.17-.48.7-.72 1.19-.57a.934.934 0 0 1-.2-.96c.18-.49.73-.74 1.25-.55.11.04.21.1.3.17a.946.946 0 0 1-.08-.79c.18-.49.74-.74 1.24-.56.2.07.35.19.46.34a.94.94 0 0 1 .02-.55c.18-.49.73-.74 1.24-.56.08.03.16.06.22.11a.895.895 0 0 1 .03-.51c.18-.49.74-.74 1.24-.56.11.04.21.1.3.16.19-.46.73-.69 1.23-.51.22.08.4.22.51.41.25-.29.68-.41 1.07-.26.27.1.47.29.57.53.24-.34.7-.48 1.12-.33.34.12.58.42.64.74.22-.09.47-.1.72-.02a.925.925 0 0 1 1.32-.39c-.02-.42.23-.82.63-.96.38-.13.8.02 1.05.32a.926.926 0 0 1 1.31-.69c.22.05.42.18.57.37.09-.27.3-.5.58-.59.48-.16 1 .1 1.19.58a.95.95 0 0 1 .63-.75c.49-.17 1.03.11 1.21.63Z" class="cls-1"/><path d="M114.82 50.45c.08-.17.23-.32.42-.4.29-.12.6-.08.82.09.09-.13.21-.23.36-.3.41-.18.87-.01 1.03.36.1.23.06.49-.07.69.24.04.45.19.55.42.11.25.06.53-.11.74.36-.07.72.1.86.42.09.21.07.44-.04.64l.06-.03c.41-.18.87 0 1.03.37.07.17.07.36.01.53.07-.08.16-.14.27-.18.28-.12.59-.08.8.08.35-.06.7.11.83.43s.03.65-.23.86c.27.03.51.18.62.44.16.38-.04.83-.44 1l-.1.03c.1.07.19.17.24.29.15.35-.01.77-.37.96.07.07.13.15.17.24.16.38-.04.83-.44 1-.07.03-.15.05-.22.06.06.06.11.13.14.21.16.38-.04.82-.44 1-.07.03-.15.05-.22.06.03.04.06.09.08.14.16.38-.04.83-.44 1a.8.8 0 0 1-.66 0c.06.34-.14.7-.49.85-.25.11-.52.09-.72-.03.15.38-.05.81-.45.98a.81.81 0 0 1-.85-.12c0 .29-.2.57-.5.7-.41.18-.87.01-1.03-.37 0-.02-.02-.04-.02-.06-.03.27-.22.52-.5.64-.39.17-.83.02-1-.32-.04.25-.22.48-.49.6-.41.18-.87 0-1.03-.37-.05-.12-.07-.24-.05-.36h0c-.41.18-.87.02-1.03-.36a.709.709 0 0 1 .03-.62c-.34.05-.68-.12-.81-.43s-.03-.64.21-.85a.745.745 0 0 1-.63-.43.7.7 0 0 1 0-.55c.03-.18.12-.35.27-.47a.736.736 0 0 1-.52-.42c-.16-.37.03-.8.41-.98a.754.754 0 0 1-.65-.44c-.16-.38.04-.82.45-1 .09-.04.18-.06.27-.07a.728.728 0 0 1-.48-.41c-.16-.38.04-.83.44-1 .16-.07.32-.08.46-.06a.675.675 0 0 1-.29-.33c-.16-.38.03-.82.44-1 .06-.03.13-.05.2-.06a.758.758 0 0 1-.26-.3c-.16-.38.04-.83.44-1 .09-.04.18-.06.27-.07-.14-.37.06-.8.46-.97.18-.08.37-.09.54-.05 0-.3.18-.61.5-.74.22-.09.44-.09.64 0-.04-.32.16-.66.49-.8.28-.12.58-.08.79.07Z" class="cls-1"/><path d="M121.97 40.9c.16-.15.36-.24.6-.24.34 0 .64.2.78.48a.88.88 0 0 1 1.37.72c0 .3-.15.56-.37.71.22.16.37.42.37.71 0 .32-.17.6-.43.75.39.09.68.44.68.85 0 .27-.12.51-.32.67h.07c.49 0 .87.39.87.88 0 .22-.08.42-.22.57.1-.05.22-.07.35-.07.33 0 .62.18.77.46.37.1.65.44.65.85s-.25.71-.6.83c.26.15.43.43.43.76 0 .49-.39.88-.87.88h-.11a.877.877 0 0 1-.67 1.3c.04.1.07.22.07.34 0 .48-.39.88-.88.88-.08 0-.17-.01-.24-.04a.87.87 0 0 1-.82 1.16.69.69 0 0 1-.25-.04c.01.06.02.12.02.19 0 .48-.39.88-.88.88-.26 0-.5-.12-.66-.3a.87.87 0 0 1-.86.69c-.3 0-.56-.14-.71-.37-.01.48-.4.85-.88.85a.86.86 0 0 1-.8-.52.86.86 0 0 1-.8.52.87.87 0 0 1-.87-.87v-.08c-.15.28-.44.46-.78.46-.46 0-.84-.36-.87-.81a.874.874 0 0 1-1.62-.46c0-.15.04-.29.1-.41h0a.87.87 0 0 1-.87-.87c0-.26.11-.5.3-.66-.36-.1-.63-.44-.63-.84s.24-.7.57-.82a.874.874 0 0 1-.21-1.35.8.8 0 0 1 .48-.38.87.87 0 0 1 .49-1.56.873.873 0 0 1 .42-1.64c.1 0 .21.02.3.06a.88.88 0 0 1 .57-1.54c.18 0 .35.06.49.15a.87.87 0 0 1 .72-1.36c.08 0 .15 0 .22.03a.847.847 0 0 1-.13-.45c0-.48.39-.88.87-.88.1 0 .2.02.3.05.02-.46.41-.83.88-.83.21 0 .4.07.56.2a.871.871 0 0 1 1.46-.29.874.874 0 0 1 1.6-.2Z" class="cls-1"/><path d="M137.82 41.34a.803.803 0 0 1 .6 1.14c.15.05.29.14.39.27.27.35.21.86-.14 1.13a.78.78 0 0 1-.73.13.8.8 0 0 1-1.09.79.8.8 0 0 1-.24.98c-.2.15-.44.2-.67.15.02.02.03.03.04.05a.809.809 0 0 1-.68 1.3c.09.05.18.12.25.21.19.24.22.56.1.81.14.33.05.72-.25.95s-.66.22-.94.03a.809.809 0 0 1-1.44.6l-.06-.09c-.05.12-.13.24-.25.32a.81.81 0 0 1-1.07-.08.809.809 0 0 1-1.34.1.564.564 0 0 1-.11-.2c-.05.07-.11.14-.18.2-.35.27-.86.21-1.13-.14a.564.564 0 0 1-.11-.2c-.04.04-.08.08-.13.12-.35.27-.86.21-1.13-.14a.773.773 0 0 1-.15-.65c-.34.16-.75.08-.99-.23a.814.814 0 0 1-.14-.73c-.35.26-.85.19-1.12-.15-.2-.26-.22-.6-.08-.88-.3.08-.63-.03-.83-.29a.81.81 0 0 1 .14-1.13c.02-.01.04-.03.06-.04a.825.825 0 0 1-.78-.3.795.795 0 0 1 .1-1.09.784.784 0 0 1-.73-.3.809.809 0 0 1 .49-1.29h0a.807.807 0 0 1 .79-1.29c-.13-.32-.04-.71.25-.93s.65-.22.92-.05c-.04-.28.06-.57.3-.75.17-.13.37-.18.56-.17.19-.03.39.02.55.13 0-.24.11-.48.31-.63.34-.27.83-.21 1.1.11-.05-.28.06-.58.3-.77.35-.27.86-.21 1.13.14.06.08.1.16.13.25a.807.807 0 0 1 1.61-.01c.05-.14.14-.28.27-.38a.81.81 0 0 1 1.13.14c.04.06.08.11.1.18.05-.13.13-.25.25-.35a.809.809 0 0 1 1.26.38c.35-.25.84-.17 1.1.17.12.15.18.33.17.52.31-.1.67 0 .88.27.15.19.2.41.16.63.32-.14.71-.04.94.25.19.24.22.55.11.8Z" class="cls-1"/><path d="M132.47 67.72s-.62.13-.93.34c-.53.35-.99.93-.99.93" class="cls-4"/><path d="m111.58 84.65 2.64 6.4-.2 4.54-.99-.12s-1.28 1.53-1.49 2.47-.34 1.67-.56 2.19-.52 1.05-.52 1.05 2.4 1.6 3.27 1.75 1.46.13 2.15.42 1.44.77 1.84.82 2.41-2.18 2.97-3.15.58-1.01 1.21-1.49 4.76-2.9 5.85-3.4 5.41-1.83 5.41-1.83l-2.69-2.43-4.07 1.63c-.65.26-2.03.52-2.03.52l4.74-3.68-1.19-2.13-2.63.28-3.06 2.83 1.13-3.16-2.94-1.27s-1.27 2.4-1.7 2.87-.72.74-1.05 1.47-.34 1.74-.34 1.74-.05-1.85.09-2.51.33-1.1.37-1.38-.82-4.41-.55-5.12-1.47-.69-1.47-.69-.74 2.59-.83 3.33-.29.03-.66-.73-.23-1.99-.23-1.99l-2.45.78Z" class="cls-2"/><path d="M117.47 82.62a.746.746 0 0 1-.17-.44c0-.25.13-.47.33-.58a.67.67 0 0 1-.11-.37c0-.36.27-.65.6-.66.2 0 .38.11.49.27.11-.17.29-.28.49-.28.22 0 .42.13.52.32.06-.29.3-.51.59-.51.19 0 .35.09.46.23v-.05c0-.36.27-.65.6-.65.15 0 .29.06.4.16a.751.751 0 0 1-.05-.26c0-.25.12-.46.31-.57.07-.28.3-.48.58-.49s.49.18.57.44c.1-.19.3-.32.52-.32.33 0 .61.29.61.65v.08a.61.61 0 0 1 .3-.08c.31 0 .57.25.6.58.07-.03.15-.05.23-.05.33 0 .61.29.61.65 0 .06 0 .13-.02.18.06-.02.13-.04.2-.04.33 0 .6.29.61.65 0 .07 0 .13-.02.18.04 0 .09-.02.13-.02.33 0 .61.29.61.65 0 .2-.08.37-.21.49.27.06.48.32.48.64 0 .22-.1.41-.25.53.33 0 .59.29.59.65 0 .27-.14.5-.36.6.21.1.36.33.36.59 0 .36-.26.65-.6.65h-.05c.19.11.32.33.32.58 0 .34-.24.62-.55.65.17.11.29.32.29.55 0 .36-.27.65-.6.65-.1 0-.2-.03-.28-.07h0c0 .37-.26.66-.6.66-.18 0-.34-.08-.45-.22-.07.27-.3.47-.57.47s-.48-.18-.57-.42c-.1.2-.3.33-.52.33-.16 0-.3-.06-.41-.17a.682.682 0 0 1-.27-.35c-.11.15-.28.25-.47.25-.32 0-.59-.27-.61-.61-.1.21-.3.34-.53.35-.33 0-.6-.29-.61-.65 0-.08.01-.15.04-.22-.11.14-.27.22-.45.23-.33 0-.61-.29-.61-.65 0-.14.04-.26.1-.36-.09.07-.21.11-.34.11-.33 0-.6-.29-.61-.65 0-.06 0-.11.02-.16-.09.06-.2.1-.31.1-.33 0-.61-.29-.61-.65 0-.08.01-.15.03-.22-.32-.02-.58-.3-.58-.65 0-.15.05-.3.14-.41-.23-.09-.39-.33-.4-.61 0-.19.07-.36.19-.48-.25-.07-.44-.33-.44-.62 0-.24.12-.46.3-.57Z" class="cls-1"/><path d="M137.47 84.48c-.07.07-.14.13-.22.17.22-.03.44.03.61.19.27.25.31.67.12.98a.604.604 0 0 1 .34 1.07c.22.03.41.16.49.38.06.15.05.3 0 .45-.03.14-.1.28-.22.38.18.05.33.17.4.36.12.3-.03.65-.33.79.22.02.42.16.51.38a.626.626 0 0 1-.59.84c.16.06.3.18.37.35.12.31-.04.67-.36.8a.59.59 0 0 1-.37.03c.1.06.18.16.23.28.13.32-.04.67-.36.8a.75.75 0 0 1-.16.04c.09.07.16.15.2.26.12.31-.04.67-.36.8-.07.03-.14.04-.21.05.1.31-.06.65-.38.77-.14.05-.29.06-.43.02 0 .25-.16.49-.41.59-.17.07-.35.06-.51-.02.03.27-.13.53-.4.64-.22.09-.46.05-.63-.09a.654.654 0 0 1-.99.21c-.07.1-.17.18-.3.23a.626.626 0 0 1-.82-.34c-.08-.19-.04-.4.07-.56a.582.582 0 0 1-.43-.36.594.594 0 0 1 .1-.6c-.28.05-.57-.1-.68-.38a.596.596 0 0 1 .04-.52c-.02.01-.03.02-.04.02a.626.626 0 0 1-.82-.34.58.58 0 0 1 0-.43c-.06.06-.13.11-.22.14-.22.09-.47.05-.63-.09a.625.625 0 0 1-.66-.38.606.606 0 0 1 .11-.62c-.18.12-.41.16-.61.11-.3.19-.68.17-.94-.07a.747.747 0 0 1-.16-.89.76.76 0 0 1-.75-.16.785.785 0 0 1-.03-1.1c.03-.03.05-.05.08-.07a.694.694 0 0 1-.35-.18.781.781 0 0 1-.08-1.04.657.657 0 0 1-.26-.16c-.31-.29-.32-.78-.02-1.11.05-.05.11-.11.18-.14a.744.744 0 0 1-.22-.14.775.775 0 0 1-.02-1.1c.05-.06.11-.11.18-.14-.05-.03-.09-.06-.14-.1-.31-.29-.32-.78-.02-1.11.14-.15.32-.24.5-.26a.767.767 0 0 1-.44-.39.76.76 0 0 1-.59.49.783.783 0 0 1-.88-.67c0-.04 0-.07-.01-.1-.1.08-.22.14-.35.16-.39.06-.76-.2-.86-.59-.09.05-.18.09-.29.1-.42.07-.81-.23-.88-.67a.81.81 0 0 1 0-.22c-.07.04-.15.07-.25.09-.1.02-.2.01-.3-.02 0 .07-.01.15-.04.22-.13.34-.49.51-.8.39a.58.58 0 0 1-.36-.44c-.16.12-.37.16-.56.08a.593.593 0 0 1-.37-.48c-.16.25-.46.36-.73.26a.618.618 0 0 1-.35-.39c0 .02-.01.04-.02.05-.13.34-.49.51-.8.39a.588.588 0 0 1-.31-.29c0 .08-.02.18-.05.26-.09.22-.26.37-.47.41-.06.14-.18.26-.33.33-.18.08-.37.08-.53.01.06.28-.1.57-.38.7-.2.09-.42.08-.59 0 .13.3-.03.66-.35.81-.24.11-.51.07-.69-.08 0 .23-.15.46-.39.57-.33.15-.7.03-.84-.28 0-.02-.01-.03-.02-.05-.02.22-.16.43-.39.53-.31.14-.67.04-.82-.24-.03.2-.17.4-.38.49-.33.15-.7.03-.84-.28a.576.576 0 0 1-.05-.29h0c-.33.15-.7.03-.84-.27a.583.583 0 0 1 0-.5.598.598 0 0 1-.66-.33.6.6 0 0 1 .15-.69.57.57 0 0 1-.51-.34.562.562 0 0 1-.02-.44c.02-.15.09-.29.21-.39a.602.602 0 0 1-.43-.33c-.13-.29 0-.65.31-.81-.23 0-.44-.13-.53-.34-.14-.3.01-.67.34-.82.07-.03.15-.05.22-.06a.572.572 0 0 1-.39-.32c-.14-.3.01-.67.34-.82.12-.06.26-.07.38-.06a.553.553 0 0 1-.24-.26c-.14-.3.01-.67.34-.82.05-.03.1-.04.16-.05a.542.542 0 0 1-.21-.24c-.14-.3.01-.67.34-.82a.83.83 0 0 1 .21-.06c-.12-.3.03-.65.35-.79.14-.07.3-.08.44-.05-.01-.25.14-.49.39-.61a.65.65 0 0 1 .51-.02c-.04-.26.11-.54.38-.66.22-.1.47-.08.64.04.06-.14.18-.26.33-.33.23-.1.49-.07.67.06.07-.1.17-.19.29-.25.33-.15.71-.03.85.27.02.04.03.09.04.14h.02c.01 0 .03.01.05.02a.667.667 0 0 1-.09-.66c.12-.32.45-.49.75-.4a.645.645 0 0 1-.07-.62c.13-.34.49-.51.8-.39.09.04.18.1.24.17h0c.13-.34.48-.51.8-.39.17.06.29.2.34.37.16-.22.45-.32.71-.23.24.09.39.34.38.6.17-.15.4-.2.6-.12.15.06.26.17.32.31.04.06.07.12.09.19.1-.09.22-.14.36-.17.13-.02.25 0 .37.04h0c-.07-.43.21-.84.63-.9.23-.04.44.03.61.18.04-.34.29-.62.64-.68.32-.05.64.12.79.4.1-.26.31-.45.59-.5.2-.03.39.02.54.13.17.07.31.2.4.38.11-.2.31-.36.55-.4.41-.06.79.22.87.63.09-.27.32-.47.6-.52.42-.06.81.23.88.67.02.09.01.19 0 .28.11-.19.3-.32.53-.36.42-.07.81.24.88.67.03.17 0 .32-.06.46.11-.1.25-.17.4-.2.42-.07.81.23.88.66.01.07.02.14 0 .2.1-.09.23-.15.37-.18.42-.07.81.24.88.67.02.09.01.19 0 .27.41-.04.78.25.84.68.03.19 0 .37-.09.53.3.07.55.32.61.66.04.23-.02.45-.16.61.33.04.61.31.67.67.05.29-.07.58-.28.74.15.12.26.29.29.5.2-.01.4.05.56.2.17.16.25.37.24.59.29-.18.67-.16.93.08.24.22.3.58.18.87.26-.09.55-.04.76.16.14.14.23.32.24.51.05.18.04.37-.05.55.23-.04.47.02.65.18.3.28.32.75.05 1.07.27-.09.57-.04.78.15.31.28.32.78.02 1.1Z" class="cls-1"/><path d="M120.75 77.24c.15 0 .31.04.45.15.2.16.29.4.25.62.13.01.25.06.35.14.28.22.35.62.14.88-.13.16-.32.23-.52.22.06.19.04.4-.08.56-.14.17-.36.25-.57.21.19.23.21.55.03.77-.11.15-.29.22-.47.22.02 0 .03.02.04.03.28.22.34.61.14.88-.09.12-.23.19-.37.21.08.02.16.06.23.12.19.15.29.38.25.6.18.23.19.54.02.76s-.45.27-.7.17c.09.2.07.43-.07.61-.21.26-.6.3-.88.08l-.06-.06c-.01.1-.05.2-.12.28-.19.24-.55.29-.83.11-.02.08-.05.15-.1.22-.21.26-.6.3-.89.07a.8.8 0 0 1-.13-.13c-.02.06-.05.13-.09.18-.2.26-.6.29-.88.07a.797.797 0 0 1-.13-.13c-.02.04-.04.08-.07.11-.21.26-.6.3-.89.07a.7.7 0 0 1-.26-.47c-.22.18-.55.18-.8-.02a.682.682 0 0 1-.26-.53c-.21.25-.6.28-.88.06a.653.653 0 0 1-.25-.65.65.65 0 0 1-.69-.08c-.28-.22-.35-.61-.14-.87.01-.01.02-.03.03-.04-.2.08-.46.05-.65-.1-.27-.21-.34-.58-.16-.84-.19.07-.43.03-.62-.11-.28-.22-.34-.61-.14-.88.06-.08.14-.14.23-.18h0c-.28-.23-.35-.62-.14-.88.11-.14.28-.22.45-.22-.17-.22-.18-.53-.01-.74s.44-.27.68-.18c-.09-.2-.07-.44.06-.61.1-.12.24-.2.39-.22.14-.05.3-.05.44 0a.594.594 0 0 1 .1-.53c.2-.25.58-.29.86-.09-.1-.21-.08-.45.06-.63.2-.26.6-.29.89-.07.06.05.11.11.15.17-.04-.17 0-.35.11-.5.21-.26.6-.3.88-.08.11.08.18.19.22.31 0-.12.04-.23.12-.33.21-.26.6-.3.88-.07.04.03.08.07.12.12 0-.11.05-.21.12-.3.21-.26.6-.3.88-.08.06.05.11.1.15.16.21-.24.59-.26.87-.05.12.1.21.22.24.36.21-.12.5-.1.72.07.15.12.24.28.25.45.22-.15.53-.14.76.04.19.15.28.38.26.59Z" class="cls-1"/><path d="M130.33 78.62a.704.704 0 0 1 .36 1.07c.12.07.23.16.3.29.19.34.06.78-.28.96-.21.12-.45.11-.65.01-.02.22-.15.43-.36.54-.23.12-.49.11-.7-.01.09.31-.05.65-.34.81-.19.1-.41.11-.6.03.01.02.02.03.03.05.19.35.06.77-.28.96-.16.09-.33.11-.49.07a.69.69 0 0 1 .16.94c.07.3-.06.63-.35.79s-.6.1-.82-.1c0 .24-.14.48-.37.6-.35.19-.78.06-.96-.28-.02-.03-.03-.06-.04-.08-.06.1-.15.19-.26.25-.32.17-.72.07-.92-.22a.72.72 0 0 1-1.19-.1.62.62 0 0 1-.07-.19c-.05.06-.11.11-.19.15a.708.708 0 0 1-1.03-.47c-.04.03-.08.06-.13.09a.72.72 0 0 1-.97-.28c-.1-.19-.11-.4-.04-.59a.725.725 0 0 1-.83-.34.712.712 0 0 1-.02-.65.71.71 0 0 1-.89-1.06.69.69 0 0 1-.68-.37.708.708 0 0 1 .28-.96c.02 0 .04-.02.06-.03-.25 0-.5-.13-.63-.37a.702.702 0 0 1 .24-.93c-.24 0-.47-.14-.59-.37a.708.708 0 0 1 .28-.96c.11-.06.22-.09.33-.09h0a.718.718 0 0 1 .28-.97c.19-.1.4-.11.58-.04-.07-.3.07-.62.35-.77s.59-.1.81.09c0-.25.14-.48.37-.61.16-.09.34-.11.51-.07.17 0 .33.07.46.19.03-.21.16-.4.36-.51.33-.18.75-.07.94.25a.708.708 0 0 1 1.41-.11.706.706 0 0 1 1.31-.19c.07.13.1.27.08.41.06-.12.16-.22.29-.3.34-.19.77-.06.96.28.03.05.05.11.07.17a.7.7 0 0 1 1.23.01c.04.07.07.15.08.23.34-.16.75-.03.93.3.08.15.11.32.07.47.28-.04.58.1.72.36.1.18.11.39.05.57.3-.07.62.07.78.35.13.23.11.51-.02.71Z" class="cls-1"/><path d="M136.17 90.06c.06.15.05.32-.02.48-.1.23-.32.38-.56.39.02.13.01.26-.04.38-.14.33-.53.48-.86.34a.665.665 0 0 1-.38-.47c-.17.11-.4.13-.6.04a.67.67 0 0 1-.39-.52c-.18.24-.5.33-.79.21a.653.653 0 0 1-.36-.42c0 .02-.01.03-.02.05-.14.33-.53.48-.86.34a.685.685 0 0 1-.33-.32c0 .09-.02.18-.05.26-.1.23-.31.37-.54.39-.18.23-.49.31-.77.19s-.41-.38-.39-.65a.657.657 0 0 1-.99-.79c.01-.03.03-.05.04-.07a.645.645 0 0 1-.69-.84c-.08 0-.17-.02-.25-.05a.657.657 0 0 1-.24-1.02.63.63 0 0 1-.22-.05.657.657 0 0 1-.34-.86c.03-.06.06-.11.1-.16-.04 0-.09-.02-.13-.04a.657.657 0 0 1-.34-.86c.08-.18.23-.31.4-.36a.65.65 0 0 1-.22-.8c.09-.2.26-.34.46-.38-.32-.15-.47-.53-.32-.85.11-.24.34-.39.59-.39a.641.641 0 0 1-.12-.7c.14-.33.53-.48.86-.34.02 0 .04.02.05.03a.646.646 0 0 1-.09-.67.65.65 0 0 1 .81-.36.661.661 0 0 1-.07-.64.657.657 0 0 1 1.11-.15h0c.14-.34.53-.49.86-.34.18.08.31.22.36.4.18-.22.49-.3.76-.18s.41.37.39.64c.18-.14.43-.17.65-.08.16.07.27.19.34.34.09.12.14.28.12.44.17-.09.38-.11.57-.03.32.14.47.5.35.83.18-.15.44-.18.67-.09.33.14.48.53.34.86a.64.64 0 0 1-.13.19c.16-.08.36-.09.54 0 .33.14.48.53.34.86-.05.13-.14.22-.25.29.12-.02.25-.01.38.04a.657.657 0 0 1 .26 1 .657.657 0 0 1 .69.91.76.76 0 0 1-.12.19c.31.15.45.53.31.85-.06.14-.17.26-.3.32.19.18.26.47.15.73-.08.18-.22.3-.39.35a.648.648 0 0 1-.34 1.15Z" class="cls-1"/><path d="M115.33 96.51s-.33-.39-.6-.53c-.46-.24-1.04-.34-1.04-.34" class="cls-4"/></svg>