<svg xmlns="http://www.w3.org/2000/svg" id="Calque_1" viewBox="0 0 128 128"><defs><style>.cls-2,.cls-4{stroke-width:2px}.cls-2,.cls-4,.cls-5{stroke:#000;stroke-linecap:round;stroke-linejoin:round}.cls-2{fill:#baa584}.cls-4,.cls-5{fill:none}.cls-5{stroke-width:3px}</style></defs><path d="M5.38 18.87h117.24v15.84H5.38z" style="stroke:#000;stroke-linecap:round;stroke-linejoin:round;stroke-width:2px;fill:#ff6d75"/><path d="M5.38 34.7h117.24v81.12H5.38z" style="fill:#fff;stroke:#000;stroke-linecap:round;stroke-linejoin:round;stroke-width:2px"/><path d="M18.29 12.17v12.92M109.7 12.17v12.92M48.76 12.17v12.92M79.23 12.17v12.92" class="cls-5"/><path d="M48.38 69.12s-18.75-1.58-12.67 19.8c6.07 21.39 26.12 17.95 26.12 17.95s-9.22-7.92-5-23.23c4.22-15.31-8.45-14.52-8.45-14.52Z" class="cls-2"/><path d="M61.83 106.88s-26.89-17.36-8.14-50.9" class="cls-4"/><path d="m44.23 102.39 4.68-12.61 6.86 3.16M35.71 88.93l11.36-11.41 9.76 6.13" class="cls-4"/><path d="M74.79 53.7s18.75-1.58 12.67 19.8c-6.07 21.39-26.12 17.95-26.12 17.95s9.22-7.92 5-23.23 8.45-14.52 8.45-14.52Z" class="cls-2"/><path d="M61.35 91.46s26.89-17.36 8.14-50.9" class="cls-4"/><path d="m78.95 86.97-4.68-12.61-6.86 3.16M87.47 73.51 76.1 62.1l-9.75 6.13" class="cls-4"/></svg>