<svg xmlns="http://www.w3.org/2000/svg" id="Calque_1" data-name="Calque 1" viewBox="0 0 128.13 200.13"><defs><style>.cls-1{stroke-width:.5px}.cls-1,.cls-2,.cls-3,.cls-4,.cls-5,.cls-7,.cls-8{stroke:#000}.cls-1,.cls-2,.cls-4,.cls-5,.cls-7,.cls-8{stroke-linecap:round}.cls-1,.cls-3{stroke-miterlimit:10}.cls-1,.cls-5,.cls-7{fill:none}.cls-2,.cls-3{fill:#d6d6d6}.cls-2,.cls-4,.cls-5,.cls-7,.cls-8{stroke-linejoin:round}.cls-2,.cls-4,.cls-5,.cls-8{stroke-width:.86px}.cls-4{fill:#fff}.cls-7{stroke-width:.45px}.cls-8{fill:#fab0b4}</style></defs><path d="m80.38 127.26-10.12 34.61s1.84 2.54 11.15 1.71l16.04-39.85-2.53-40.26" class="cls-5"/><path d="M47.96 174.62s13.8 8.1 9.51 9.64c-4.29 1.53-4.36 2.28-11.27-1.86-6.9-4.14-9.18-.74-9.11-7.95M24.79 174.54s1.08 4.5 2.31 6.5 3.06 5.06-1.15 5.37-10.5 1.23-10.66-3.53 2.28-5.57 1.98-8.84" class="cls-2"/><path d="M54.61 93.72s-3.86 68.91-6.02 80.72c0 0-5.49 1.84-11.49 0 0 0 .13-34.97 1.97-40.8 0 0-2.1-16.72-1.97-19.63l-10.54 60.43s-9.27.77-11.26-1.38l6.46-79.34h32.85Z" class="cls-8"/><path d="M83.79 29.67s-11.46 4.37-12.63 6.44-12.31 25.24-9.86 33.65" class="cls-5"/><path d="m59.06 54.36 1.38.98s7.5-15.3 10.73-21.86c.81-1.65 2.3-2.11 2.3-2.11s1.24-2.26 2.55-2.19 4.42 4.72 3.12 4.91c-1.01.15-2.37-1.88-3.7-2.44l.16 1.54-3.85 2.28s-2.03 2.85-4.54 9.21c-2.51 6.36-6.33 17.08-6.25 21.68l-.52.4s-1.74 2.99-6.95-4.45" class="cls-4"/><path d="m54 59.53.81 20.32L56 93.12s-13.96 13.35-34.89 0c0 0 4.75-17.16 3.15-26.59v-.02c-8.7-21.01-2.36-22.49-.31-22.85 2.14-.39 8.02-4.42 8.02-4.42s9.46 7.97 11.89 7.56c0 0 1.61-5.72 1-7.26 0 0 7.66-1.48 9.91 3.43s6.19 9.81 6.19 9.81-5.16 6.68-6.96 6.75Z" class="cls-8"/><path d="M49.84 21.66s2.12-.96 1.66-3.76a3.906 3.906 0 0 0-3.62-3.47c-1.64-2.69-8.82-4.28-15.46-.68-6.64 3.6-2.71 10.94-.73 12.25" class="cls-5"/><path d="M28.79 21.36s-1.13 3.28.58 5.87c1.49 2.26 4.99 6.29 5.28 8.89M44.33 39.42c-2.1-.97-2.66-3.55-2.97-3.84.62.37 3.46 1.08 6.06.99 2.76-.1 2.46-2.05 2.83-4.92.37-2.85 1.71-3.03 1.76-3.76.05-.73-2.4-2.1-2.27-5.24.02-.34.01-.66-.02-.98-.19-2.58-1.58-4.17-2.42-5 0 0-3 5.12-3.63 5.94-.63.82-2.72 3.22-4.26 2.64-1.4-.53-2.61-1.6-3.82-.83-1.21.76-1.32 3.32.08 4.17" class="cls-5"/><path d="M48.39 24.94c0-.56-.32-1-.72-1-.39 0-.7.45-.69 1.01 0 .55.32.99.7.99.39 0 .71-.45.71-1Z"/><path d="M48.57 22.06s-1.79-.63-2.72 1.31M48.85 33.2c.84 0 1.74-.62 1.33-2.16 0 0-1.92.29-3.5.12-.81-.09 1.23 2.03 2.17 2.04Z" class="cls-7"/><path d="M34.99 27.9s.92 1.45 2.89 1.59" style="stroke-width:.9px;stroke-linejoin:round;fill:none;stroke-linecap:round;stroke:#000"/><path d="m53.02 48.06.92 25" class="cls-5"/><path d="m32.59 52.84 8.62-.41.39 3.37-7.36.5M63.5 72.04s2.35-3.58 5.01-2.76 3.27 1.84 2.05 2.05-2.4-1.79-4.09.05-3.99 10.07-14.42 8.03c-7.98-1.56-16.29-2.11-19.75-2.28a3.167 3.167 0 0 1-2.56-1.52l-3.73-6.11s8.85-2.96 10.4-4.47l.68 3.59 20.76 5.67s6.25-8.67 7.76-8.82 8.62.28 8.19 2.3" class="cls-4"/><path d="M60.44 55.34 60 57.8M75.31 36.86s8.1 3.29-4.59 29M72.53 70.99l4.01 14.03-8.69 3.38-4.86-12.03M100.85 32.37s3.5 3.16 6.77 4.49 7.06 39.78 5.32 45.2l-8.08 1.12-.61-14.03s-2.24-6.77-3.06-8.56" class="cls-5"/><path d="M105.68 46.58s-5.73 19.48-8.38 23.19l-.61 13.42s-12.71 2.86-20.67 0M79.94 113.66s-11.99 49.28-11.63 56.02c0 0-8.33 2.3-11.35-1.07 0 0 1.52-44.72 5.27-49.39s-5.52-26.53.77-42.03M86.15 21.36c-.08-4.23 2.3-7.65 2.3-7.65l-.92-.61c12.81-9.74 16.64-.38 16.64-.38s10.12 9.59-1.84 17.56c0 0-.31-1.63-2.15-2.58s.69-7.02.69-7.02" class="cls-5"/><path d="M102.72 18.07s-1.98-1.76-5.55-1c-3.57.77-6.87-2.53-6.87-2.53" class="cls-5"/><path d="M90.68 14.9s-4 3.4-4.26 6.51c0 0-5.29 4.95-1.11 12.81 0 0 5.67 2.34 10.62-.73" class="cls-5"/><path d="M102.33 30.27s.04 3.41-4.68 1.86c0 0 .04 4.16-2.76 5.77s-2.8 2.8-2.8 2.8-.65-1.96-2.49-2.65-2.08-3.23-2.08-3.23M96.5 24.98s-.84-1.43-2.68-1.85M90.71 21.1s-.38-1.45-2.34-1.96M90.91 22.75s-.54 2.97-1.73 3.25-.81 1.51-.81 1.51M90.71 31.19s-3.34-.12-4.41-1.79" class="cls-5"/><path d="M91.37 28.05s-.46.91.42 1.99.61 2.07.61 2.07M86.77 27.16s-.81 1.05-1.8.89" class="cls-1"/><ellipse cx="93.51" cy="26.08" rx="1.04" ry=".7" transform="rotate(-70.44 93.497 26.08)"/><ellipse cx="88.19" cy="22.7" rx=".97" ry=".65" transform="rotate(-62.87 88.185 22.699)"/><path d="M94.93 21.1s-.5-.69-1.36-.98-2.32-1.3-2.32-1.3M96.5 19.97s-1.19-1.13-2.68-1.36-2.22-1.27-2.22-1.27M96.2 26.82l-.88-.23M95.76 27.89l-.83-.38M87.3 21.72l-.38-.62M86.92 22.67l-.77-.34" class="cls-1"/><path d="m92.1 40.7-7.14 43.75M76.54 85.02s2.97 1.69 2.61 3.68M77 92.79l1.64-2.6M93.97 70.99s-8.64.35-12.32-2.78M110.39 67.88s-4.5.49-4.7.33M79.94 163.63V167s-7.05 1.76-8.59.38l.24-4.45" class="cls-5"/><path d="M79.94 167s6.67 5.24 11.43 7.03 2.3 6.38.54 5.92-21.7-3.83-21.7-3.83-2.91-3.91.77-8.59M67.08 169.97l.59 4.93s-2.76-.54-4.83 1.61-3.68-1.25-3.68-1.25M67.67 174.9s9.13 9.53 5.44 11.78-12.61.26-14.82-7.26M76.19 29.24s1.53-1.79 3.02 1.06c1.5 2.85 1.81 2.58.24 2.62" class="cls-5"/><path d="M78.43 29.19s3.7 1.62 3.08 2.46-1.28.47-1.28.47" class="cls-5"/><path d="m79.73 114.72-13.01 2.16.23-2.08 12.71-2.11.07 2.03zM114.67 113.82l-11.52.25-2.03.04-19.4.41-.06-2 19.74-.42 2.03-.04 11.15-.24.09 2z" class="cls-3"/><path d="M119.67 181.14c.02.56-.4 1.02-.95 1.05-.55 0-1.02-.41-1.05-.96l-3-67.41-.09-2-.95-21.24c-.03-.67-.58-1.18-1.24-1.18H82.18c-.28 0-.55.09-.76.26a.87.87 0 0 1-.14.12c-.23.24-.35.55-.34.89l.72 21.85.06 2 2.52 76.91a.99.99 0 0 1-.97 1.03c0 .01-.02.01-.03.01-.54 0-.98-.43-1-.97l-2.51-76.78-.07-2.03-.72-21.95v-.02l-9.7 3.72-2.29 20.36-.23 2.08-7.43 66.11c-.05.51-.49.89-.99.89-.04 0-.07-.01-.11-.01-.55-.06-.94-.56-.88-1.11l7.5-66.75.02-.18 2.49-22.22c.04-.37.28-.69.63-.82l12.21-4.69c.57-.45 1.27-.7 2.02-.7h30.21c1.74 0 3.16 1.35 3.23 3.09l.99 22.2v.13l3.06 68.32Z" class="cls-3"/><path d="m101.12 114.11 2.03-.04-8.18 59.28a1 1 0 0 1-.99.86c-.05 0-.09 0-.14-.01a.986.986 0 0 1-.85-1.12l8.13-58.97ZM106.56 89.4l-3.13 22.66-2.03.04 3.13-22.7h2.03z" class="cls-3"/><path d="M67.85 88.4s-.6 5.98 2.87 6.9c0 0 6.59-1.28 6.28-2.51s-2.91-2.2-2.25-4.09" class="cls-4"/><path d="M31.97 39.24s2.75-2.7 4.47-5.26M24.26 66.51l1.75 2.98M37.09 65.52l-5.12-14.16M68.31 66.77s6.86.6 5.52 2.88" class="cls-5"/><path d="M64.12 69.38s.87-1.99 4.19-1.38 6.8 1.84 5.06 2.86c0 0-1.36.33-2.21-.01" class="cls-5"/><path d="M114.12 88.4c1.02-3.43-2.09-6.21-2.09-6.21l-7.17 1s-.51 3.07.36 3.99c0 0 .29 2.09 1.89 2.6s5.31.72 6.16 0 .84-1.38.84-1.38Z" class="cls-4"/><path d="M-1802.45-68.12H377.02v547.09h-2179.47z" style="stroke:#fff;stroke-width:8px;stroke-linejoin:round;fill:none;stroke-linecap:round"/></svg>