<svg xmlns="http://www.w3.org/2000/svg" id="Calque_1" viewBox="0 0 128.13 128"><defs><style>.cls-1,.cls-3,.cls-4,.cls-5,.cls-6,.cls-7{stroke:#000;stroke-linecap:round;stroke-linejoin:round}.cls-1,.cls-5{fill:#87ccf3}.cls-8{fill:#bfe6fc}.cls-3,.cls-6{fill:#fff}.cls-4,.cls-7{fill:none}.cls-5,.cls-6,.cls-7{stroke-width:2px}</style></defs><circle cx="26.48" cy="95.02" r="2.69" class="cls-8"/><circle cx="56.15" cy="100.9" r="2.69" class="cls-8"/><circle cx="112.28" cy="79.41" r="2.69" class="cls-8"/><circle cx="120.81" cy="62.21" r="2.69" class="cls-8"/><path d="M20.07 15.94 32.8 27.49M10.62 16.61l12.73 11.55M7.99 23.47l12.73 11.55" class="cls-4"/><path d="m56.63 50.85-8.86-8.47-5.78-22.34 2.89 3.27 9.05 19.07 1.23 3.87.18.55 1.29 4.05zM49.5 49.54l-23.72-.08-1.18-2.05 23.38-1.16 1.52 3.29z" class="cls-5"/><path d="m51.36 53.58-24.78-2.73-.8-1.39 23.72.08 1.86 4.04z" class="cls-6"/><path d="m68.2 36.05-13.04 10.2-1.24-3.87 13.03-6.93 1.25.6z" class="cls-5"/><path d="M69.62 36.72 59.38 49.16l-4.22-2.91 13.04-10.2 1.42.67z" class="cls-6"/><path d="M112.01 111.34c-3.19 3.56-16.29-2.06-20.04-4.87-3.74-2.81-10.23-10.4-11.92-11.15-1.68-.75-5.8-1.98-8.72-2.33-.97-.12-8.59-1.2-18.31-2.58-.98-.14-1.98-.28-2.99-.42-8.44-1.21-18.03-2.58-26.11-3.74-1.08-.15-2.13-.3-3.15-.45-8.64-1.23-14.89-2.13-14.89-2.13L3.2 78.7l61.43.5-1.19-4.82L51.37 59.4v-5.82l-3.38-7.33-.22-3.87 8.86 8.47-1.29-4.05 4.05 2.36 24.55 22.1h.01l.22.2 6.87 6.18s3.8 3 7.07 5.71l.17.14c1.89 1.57 3.57 3.02 4.18 3.7 1.68 1.87 8.8 13.1 9.55 15.54.74 2.43 3.18 5.05 0 8.61Z" class="cls-5"/><path d="m56.63 50.85-8.86-8.47 7.57 4.42 1.29 4.05z" class="cls-7"/><path d="m124.93 42.3-9 13.91-2.27 3.51-6.78 10.47-2.08 3.22-6.52 10.08-.17-.14-13.94-11.89-.22-.2c.44-.27 12.17-7.37 14.98-9.35 2.87-2.01 20.09-21.63 20.09-21.63l5.91 2.02Z" class="cls-5"/><path d="M53.38 101.91c-.17-.37-.27-.79-.27-1.22a2.913 2.913 0 0 1 4.4-2.5" class="cls-7"/><path d="M57.51 98.19c.4.23.73.56.97.95.28.45.45.98.45 1.55 0 1.6-1.3 2.91-2.91 2.91-.84 0-1.59-.35-2.12-.93l-.52-.76M53.9 102.67c-.21-.22-.39-.48-.52-.76l.52.76Z" class="cls-7"/><path d="m53.38 101.91-2.8-4.11a2.19 2.19 0 0 1-.76-1.12c-.07-.21-.1-.43-.1-.66 0-1.27 1.02-2.29 2.28-2.29.64 0 1.21.26 1.62.67l3.89 3.79M50.58 97.8l-.38-.56" class="cls-7"/><path d="m54.34 97.07-3.33-3.12-.81-.76-.17-3.2c1.01.14 2.01.28 2.99.42l.84 4.22.48 2.44Z" class="cls-1"/><path d="M24.06 96.65c-.17-.37-.27-.79-.27-1.22a2.913 2.913 0 0 1 4.4-2.5" class="cls-7"/><path d="M28.19 92.93c.4.23.73.56.97.95.28.45.45.98.45 1.55 0 1.6-1.3 2.91-2.91 2.91-.84 0-1.59-.35-2.12-.93l-.52-.76" class="cls-7"/><path d="M24.58 97.41c-.21-.22-.39-.48-.52-.76l.52.76Z" class="cls-7"/><path d="m24.06 96.65-2.8-4.11a2.19 2.19 0 0 1-.76-1.12c-.07-.21-.1-.43-.1-.66 0-1.27 1.02-2.29 2.28-2.29.64 0 1.21.26 1.62.67l3.89 3.79M21.26 92.54l-.38-.56" class="cls-7"/><path d="m25.02 91.8-3.32-3.11-.82-.77-.11-2.12c1.02.15 2.07.3 3.15.45l.62 3.12.48 2.43Z" class="cls-1"/><path d="M109.68 81.11c-.25-.32-.44-.71-.53-1.13-.36-1.57.63-3.13 2.19-3.48.53-.12 1.06-.09 1.54.07" class="cls-7"/><path d="M112.88 76.57c.44.14.84.38 1.16.71.37.38.66.86.78 1.41.35 1.56-.62 3.13-2.19 3.48-.82.19-1.63.01-2.27-.44l-.68-.63M110.35 81.74c-.25-.17-.49-.38-.68-.63l.68.63Z" class="cls-7"/><path d="m109.68 81.11-3.64-3.39a2.2 2.2 0 0 1-.99-.92 2.285 2.285 0 0 1 1.48-3.36c.62-.14 1.24-.01 1.73.29l4.63 2.83M106.04 77.73l-.5-.47" class="cls-7"/><path d="m109.54 76.18-3.93-2.3-.81-.47 2.08-3.22 1.65 3.72 1.01 2.27z" class="cls-1"/><path d="M118.2 63.91c-.25-.32-.44-.71-.53-1.13-.36-1.57.63-3.13 2.19-3.48.53-.12 1.06-.09 1.54.07M121.41 59.37c.44.14.84.38 1.16.71.37.38.66.86.78 1.41.35 1.56-.62 3.13-2.19 3.48-.82.19-1.63.01-2.27-.44l-.68-.63" class="cls-7"/><path d="M118.88 64.53c-.25-.17-.49-.38-.68-.63l.68.63ZM115.93 56.21c.31.05.6.16.85.32l4.63 2.83" class="cls-7"/><path d="M113.66 59.72c.22.35.54.63.91.8l3.64 3.39M114.56 60.52l-.49-.46" class="cls-7"/><path d="M112.28 103.77s-.7 1.23-2.27 1.68-2.74-.19-3.52.78-.84 2.52 0 3.56 1.7 2.52 3.18 2.62 2.98-1.48 3.4-2.6.78-2.41.26-3.76-1.04-2.27-1.04-2.27Z" style="fill:#bfe6fc;stroke:#000;stroke-linecap:round;stroke-linejoin:round"/><path d="m51.37 56.21 38.27 41.65c1.85 2.01 4.02 3.7 6.43 4.98l9.83 5.25" class="cls-4"/><path d="m51.01 59.72 37.48 40.13c1.85 2.01 2.89 3.07 5.3 4.35l13.39 7.03" class="cls-4"/><path d="m77.62 94.44-6.45-6.48-62.93-6.22-1.77-3.01-3.27-.03 2.68 4.97 39.11 5.13 32.63 5.64zM117.17 42.38l3.64.75-26.5 36.28 3.5 3.18 26.66-40.21-5.35-1.79-1.95 1.79zM94.06 91.91l1.46 1.46-1.91 4.1-1.85-1.91 2.3-3.65zM97.83 93.37l1.46.84-1.07 2.47-1.8-.9 1.41-2.41zM100.52 94.44h2.98l2.04-2.2 1.63 2.45-2.73 2.27-5.15.79 1.23-3.31z" class="cls-3"/></svg>