<svg xmlns="http://www.w3.org/2000/svg" id="Calque_1" data-name="Calque 1" viewBox="0 0 128 128"><defs><style>.cls-1,.cls-2,.cls-6{stroke:#000;stroke-linecap:round;stroke-linejoin:round}.cls-1{fill:#fff}.cls-2,.cls-6{fill:none}.cls-6{stroke-width:2px}</style></defs><path d="M58.03 40.66h35.12v59.41c0 8.04-6.53 14.57-14.57 14.57H58.03c-8.04 0-14.57-6.53-14.57-14.57V55.23c0-8.04 6.53-14.57 14.57-14.57Z" style="stroke-width:2px;fill:#fce9b9;stroke:#000;stroke-linecap:round;stroke-linejoin:round"/><path d="M36.66 48.89c0-8.01 6.56-14.57 14.57-14.57" class="cls-6"/><path d="M29.38 48.7c0-11.91 9.75-21.66 21.66-21.66" class="cls-6"/><path d="M22.1 48.7c0-15.98 13.07-29.05 29.05-29.05" class="cls-6"/><path d="M87.68 13.36h.75c2.61 0 4.72 2.12 4.72 4.72v22.57H82.96V18.08c0-2.61 2.12-4.72 4.72-4.72Z" style="fill:#b2f0e9;stroke-width:2px;stroke:#000;stroke-linecap:round;stroke-linejoin:round"/><circle cx="68.31" cy="86.8" r="4.66" class="cls-1"/><circle cx="68.31" cy="104.8" r="4.66" class="cls-1"/><circle cx="59.31" cy="95.8" r="4.66" class="cls-1"/><circle cx="77.31" cy="95.8" r="4.66" class="cls-1"/><rect width="35.28" height="28.65" x="50.84" y="48.05" rx="6.7" ry="6.7" style="stroke-width:2px;fill:#fff;stroke:#000;stroke-linecap:round;stroke-linejoin:round"/><path d="M70.6 55.71h4.52l-4.52 5.44h4.52M65.75 61.66h3.52l-3.52 4.25h3.52M61.83 66.29h2.29l-2.29 2.76h2.29" class="cls-2"/></svg>