<svg xmlns="http://www.w3.org/2000/svg" id="Calque_1" viewBox="0 0 128 128"><defs><style>.cls-1,.cls-2,.cls-3,.cls-4{stroke:#000;stroke-linecap:round;stroke-linejoin:round}.cls-1,.cls-3,.cls-4{fill:none}.cls-2{fill:#bfe6fc}.cls-2,.cls-3{stroke-width:2px}.cls-4{stroke-dasharray:0 0 5.45 5.45}</style></defs><path d="M18.84 80.89v11.64c0 6.14 2.86 11.6 7.34 15.12a19.17 19.17 0 0 0 11.92 4.14h51.71c2.51 0 4.91-.48 7.11-1.37 1.36-.53 2.64-1.22 3.82-2.04 5.03-3.48 8.32-9.28 8.32-15.85V80.89H18.83Z" class="cls-2"/><path d="M24.75 90.54c0 8.82 7.15 15.96 15.96 15.96" class="cls-3"/><rect width="100.8" height="6.69" x="13.6" y="74.2" class="cls-2" rx="3.34" ry="3.34" transform="rotate(180 64 77.545)"/><path d="M57.27 36.38c0-4.88-5.12-8.84-11.45-8.84-6.33 0-11.46 3.96-11.46 8.84h22.9ZM96.93 110.42l5.25 7.71c.67.98 2.02 1.24 2.99.56a2.154 2.154 0 0 0 .57-2.99l-4.99-7.32c-1.18.82-2.46 1.51-3.82 2.04ZM20.31 116.91c0 .69.33 1.36.94 1.78.99.68 2.32.42 2.99-.56l5.6-8.2c-1.31-.62-2.54-1.39-3.66-2.28l-5.5 8.05c-.25.37-.37.79-.37 1.21Z" class="cls-2"/><path d="M46.37 64.44v-4" class="cls-1"/><path d="M46.37 54.99v-8.17" class="cls-4"/><path d="M46.37 44.09v-4M36.48 64.44v-4" class="cls-1"/><path d="M36.48 54.99v-8.17" class="cls-4"/><path d="M36.48 44.09v-4M55.59 64.44v-4" class="cls-1"/><path d="M55.59 54.99v-8.17" class="cls-4"/><path d="M55.59 44.09v-4M50.98 70.78v-4" class="cls-1"/><path d="M50.98 61.33v-8.17" class="cls-4"/><path d="M50.98 50.43v-4M41.57 70.78v-4" class="cls-1"/><path d="M41.57 61.33v-8.17" class="cls-4"/><path d="M41.57 50.43v-4" class="cls-1"/><path d="M18.83 22.94V74.2M45.82 22.94v3.82M45.82 22.94c0-5.27-4.32-9.59-9.59-9.59h-7.81c-2.63 0-5.03 1.08-6.77 2.82s-2.82 4.13-2.82 6.77" class="cls-3"/></svg>