<svg xmlns="http://www.w3.org/2000/svg" id="Calque_1" data-name="Calque 1" viewBox="0 0 128 128"><defs><style>.cls-1{fill:#f3d587;stroke-linecap:round;stroke-linejoin:round;stroke:#000}.cls-4{stroke:#000;stroke-miterlimit:10;fill:none}</style></defs><path d="M32.35 100.84h52.89c1.62 0 3.1-.9 3.85-2.33 3.13-5.94 12.31-21.83 25.37-31 3.29-2.31 2.08-7.44-1.91-7.91-13.07-1.55-33.44-1.46-48.35 10.21-14.29 11.2-29.09 10.98-38.59 9.04-3.68-.75-6.54 3.14-4.68 6.4l7.64 13.39a4.328 4.328 0 0 0 3.78 2.19Z" style="stroke-miterlimit:10;stroke-width:2px;fill:#b2f0e9;stroke:#000"/><path d="M30.64 85.68c-7.2 0-12.56-1-13.8-1.25a4.644 4.644 0 1 1 1.86-9.1c9.17 1.87 28.04 2.42 40.61-7.43 17.77-13.92 48.24-11.56 57.16-10.5 2.55.3 4.37 2.61 4.07 5.16a4.646 4.646 0 0 1-5.16 4.07c-16.53-1.95-38.44-.73-50.34 8.59-10.9 8.54-24.41 10.47-34.4 10.47Z" style="fill:#77eddf;stroke-miterlimit:10;stroke-width:2px;stroke:#000"/><path d="M20.36 75.63s1.2-6.08 9.71-5.23c0 0 6.13-7.15 13.28-3.23 0 0 6.47-7.85 14.47-3.16 0 0 4.41-6.55 14.55-3.06" class="cls-4"/><circle cx="49.01" cy="50.58" r="2.65" class="cls-4"/><circle cx="59" cy="44.52" r="1.33" class="cls-4"/><circle cx="50.33" cy="35.33" r="1.33" class="cls-4"/><path d="M105.8 49.12H94.84l-.08.05c.07-.24.12-.49.12-.75 0-1.42-1.15-2.57-2.57-2.57s-2.5 1.09-2.56 2.46l-1.51 1 1.93.52c.46.7 1.24 1.16 2.14 1.16-.02 1.05.26 5.43 6.28 5.43 8.53 0 7.22-7.3 7.22-7.3Z" class="cls-1"/><path d="M95.98 51.41h5.74s.13 2.64-2.87 2.72" class="cls-1"/></svg>