<svg xmlns="http://www.w3.org/2000/svg" id="Calque_1" data-name="Calque 1" viewBox="0 0 200 128"><defs><style>.cls-1{fill:#fab0b4}.cls-2{fill:#ff6d75}.cls-4{fill:#b4eac3}.cls-5{fill:#b2f0e9}.cls-6,.cls-7{fill:#d6d6d6}.cls-8{fill:#e1e1e1}.cls-10,.cls-9{fill:#87ccf3}.cls-10{stroke:#87ccf3;stroke-width:.5px;stroke-miterlimit:10}.cls-11,.cls-7{stroke-miterlimit:10;stroke:#000}.cls-11{fill:#8987f3}</style></defs><path d="M129.99 42.11h4.21v4.21h-4.21zM135.56 42.11h4.21v4.21h-4.21zM141.14 42.11h4.21v4.21h-4.21zM146.71 42.11h4.21v4.21h-4.21zM152.28 42.11h4.21v4.21h-4.21zM157.86 42.11h4.21v4.21h-4.21zM163.43 42.11h4.21v4.21h-4.21zM169.01 42.11h4.21v4.21h-4.21zM174.58 42.11h4.21v4.21h-4.21zM180.16 42.11h4.21v4.21h-4.21zM129.99 47.49h4.21v4.21h-4.21zM135.56 47.49h4.21v4.21h-4.21zM141.14 47.49h4.21v4.21h-4.21zM146.71 47.49h4.21v4.21h-4.21zM152.28 47.49h4.21v4.21h-4.21zM157.86 47.49h4.21v4.21h-4.21zM163.43 47.49h4.21v4.21h-4.21zM169.01 47.49h4.21v4.21h-4.21zM174.58 47.49h4.21v4.21h-4.21zM180.16 47.49h4.21v4.21h-4.21zM129.99 52.86h4.21v4.21h-4.21zM135.56 52.86h4.21v4.21h-4.21zM141.14 52.86h4.21v4.21h-4.21zM146.71 52.86h4.21v4.21h-4.21zM152.28 52.86h4.21v4.21h-4.21zM157.86 52.86h4.21v4.21h-4.21zM163.43 52.86h4.21v4.21h-4.21zM169.01 52.86h4.21v4.21h-4.21zM174.58 52.86h4.21v4.21h-4.21zM180.16 52.86h4.21v4.21h-4.21zM129.99 58.23h4.21v4.21h-4.21zM135.56 58.23h4.21v4.21h-4.21zM141.14 58.23h4.21v4.21h-4.21zM146.71 58.23h4.21v4.21h-4.21zM152.28 58.23h4.21v4.21h-4.21zM157.86 58.23h4.21v4.21h-4.21zM163.43 58.23h4.21v4.21h-4.21zM169.01 58.23h4.21v4.21h-4.21zM174.58 58.23h4.21v4.21h-4.21zM180.16 58.23h4.21v4.21h-4.21zM129.99 63.6h4.21v4.21h-4.21zM135.56 63.6h4.21v4.21h-4.21zM141.14 63.6h4.21v4.21h-4.21zM146.71 63.6h4.21v4.21h-4.21zM152.28 63.6h4.21v4.21h-4.21zM157.86 63.6h4.21v4.21h-4.21zM163.43 63.6h4.21v4.21h-4.21zM169.01 63.6h4.21v4.21h-4.21zM174.58 63.6h4.21v4.21h-4.21zM180.16 63.6h4.21v4.21h-4.21zM129.99 68.98h4.21v4.21h-4.21zM135.56 68.98h4.21v4.21h-4.21zM141.14 68.98h4.21v4.21h-4.21zM146.71 68.98h4.21v4.21h-4.21zM152.28 68.98h4.21v4.21h-4.21zM157.86 68.98h4.21v4.21h-4.21zM163.43 68.98h4.21v4.21h-4.21zM169.01 68.98h4.21v4.21h-4.21zM174.58 68.98h4.21v4.21h-4.21zM180.16 68.98h4.21v4.21h-4.21zM129.99 74.35h4.21v4.21h-4.21zM135.56 74.35h4.21v4.21h-4.21zM141.14 74.35h4.21v4.21h-4.21zM146.71 74.35h4.21v4.21h-4.21zM152.28 74.35h4.21v4.21h-4.21zM157.86 74.35h4.21v4.21h-4.21zM163.43 74.35h4.21v4.21h-4.21zM169.01 74.35h4.21v4.21h-4.21zM174.58 74.35h4.21v4.21h-4.21zM180.16 74.35h4.21v4.21h-4.21zM129.99 79.72h4.21v4.21h-4.21zM135.56 79.72h4.21v4.21h-4.21zM141.14 79.72h4.21v4.21h-4.21zM146.71 79.72h4.21v4.21h-4.21zM152.28 79.72h4.21v4.21h-4.21zM157.86 79.72h4.21v4.21h-4.21zM163.43 79.72h4.21v4.21h-4.21zM169.01 79.72h4.21v4.21h-4.21zM174.58 79.72h4.21v4.21h-4.21zM180.16 79.72h4.21v4.21h-4.21zM129.99 85.09h4.21v4.21h-4.21zM135.56 85.09h4.21v4.21h-4.21zM141.14 85.09h4.21v4.21h-4.21zM146.71 85.09h4.21v4.21h-4.21zM152.28 85.09h4.21v4.21h-4.21zM157.86 85.09h4.21v4.21h-4.21zM163.43 85.09h4.21v4.21h-4.21zM169.01 85.09h4.21v4.21h-4.21zM174.58 85.09h4.21v4.21h-4.21zM180.16 85.09h4.21v4.21h-4.21z" class="cls-4"/><path d="M139.31 63.82c-.08 0-.15-.02-.23-.05a.494.494 0 0 1-.27-.44l-.09-4.07c0-.2.11-.38.29-.46a.497.497 0 0 1 .54.07l1.33 1.17c.11.1.17.23.17.38v2.03c0 .16-.08.32-.21.41l-1.24.87c-.09.06-.19.09-.29.09Z" class="cls-2"/><path d="m139.22 59.25 1.33 1.17v2.03l-1.24.87-.09-4.07m0-1c-.14 0-.29.03-.42.09a1 1 0 0 0-.58.93l.09 4.07c0 .37.22.7.55.87a.988.988 0 0 0 1.02-.07l1.24-.87c.27-.19.43-.49.43-.82v-2.03a.98.98 0 0 0-.34-.75l-1.33-1.17c-.19-.16-.42-.25-.66-.25Z"/><path d="M134.95 65.35c-.07 0-.15-.02-.22-.05a.482.482 0 0 1-.28-.46l.16-7.38c0-.2.13-.38.32-.46a.523.523 0 0 1 .55.13c.78.84 1.3 1.65 1.57 2.47l1.98-.81c.06-.03.13-.04.19-.04a.503.503 0 0 1 .5.49l.09 4.07c0 .17-.08.33-.21.42-.08.06-.19.09-.29.09-.06 0-.12-.01-.18-.03l-2.22-.87c-.34.9-.9 1.71-1.63 2.32a.49.49 0 0 1-.32.12Z" class="cls-6"/><path d="M135.11 57.47c.76.82 1.4 1.76 1.6 2.81l2.51-1.03.09 4.07-2.72-1.07c-.27 1-.84 1.92-1.64 2.6.05-2.45.11-4.92.16-7.38m0-1a1.008 1.008 0 0 0-1 .98l-.08 3.69-.08 3.69a1.005 1.005 0 0 0 1 1.02c.23 0 .46-.08.65-.24.66-.56 1.2-1.27 1.57-2.06l1.77.7a.988.988 0 0 0 .93-.11c.27-.19.43-.51.43-.84l-.09-4.07a.985.985 0 0 0-1-.97c-.13 0-.26.02-.38.08l-1.51.62c-.32-.72-.81-1.43-1.49-2.16a.985.985 0 0 0-.73-.32Z"/><path d="M139.31 53.51c-.08 0-.15-.02-.23-.05a.494.494 0 0 1-.27-.44l-.09-4.07c0-.2.11-.38.29-.46a.497.497 0 0 1 .54.07l1.33 1.17c.11.1.17.23.17.38v2.03c0 .16-.08.32-.21.41l-1.24.87c-.09.06-.19.09-.29.09Z" class="cls-9"/><path d="m139.22 48.93 1.33 1.17v2.03l-1.24.87-.09-4.07m0-1c-.14 0-.29.03-.42.09a1 1 0 0 0-.58.93l.09 4.07c0 .37.22.7.55.87a.988.988 0 0 0 1.02-.07l1.24-.87c.27-.19.43-.49.43-.82V50.1a.98.98 0 0 0-.34-.75l-1.33-1.17c-.19-.16-.42-.25-.66-.25Z"/><path d="M134.95 55.03c-.07 0-.15-.02-.22-.05a.482.482 0 0 1-.28-.46l.16-7.4c0-.2.13-.39.32-.46a.523.523 0 0 1 .55.13c.8.87 1.31 1.67 1.57 2.48l1.98-.81c.06-.03.13-.04.19-.04a.503.503 0 0 1 .5.49l.09 4.07c0 .17-.08.33-.21.42-.08.06-.19.09-.29.09-.06 0-.12-.01-.18-.03l-2.22-.87c-.34.9-.9 1.71-1.63 2.32a.49.49 0 0 1-.32.12Z" class="cls-6"/><path d="M135.11 47.14c.76.84 1.4 1.76 1.6 2.83l2.51-1.03.09 4.07-2.72-1.07c-.27 1-.84 1.92-1.64 2.6.05-2.45.11-4.92.16-7.4m0-1c-.12 0-.24.02-.35.06-.38.14-.64.51-.65.91l-.16 7.4a1.005 1.005 0 0 0 1 1.02c.23 0 .46-.08.65-.24.66-.56 1.2-1.27 1.57-2.06l1.77.7a.988.988 0 0 0 .93-.11c.27-.19.43-.51.43-.84l-.09-4.07a.985.985 0 0 0-1-.97c-.13 0-.26.02-.38.08l-1.5.62c-.31-.71-.8-1.42-1.49-2.16a.991.991 0 0 0-.74-.32Z"/><path d="M133.41 114.76V10.71c0-.58.47-1.05 1.05-1.05h21.61c.88 0 1.59.72 1.59 1.59v3.78h-2.09v-3.24h-20.03v102.96h-2.12Z" class="cls-8"/><path d="M156.07 10.16c.6 0 1.09.49 1.09 1.09v3.28h-1.09v-3.24h-21.03v102.96h-1.12V10.71c0-.3.25-.55.55-.55h21.61m0-1h-21.61c-.85 0-1.55.69-1.55 1.55v104.55h3.12V12.3h19.03v3.24h3.09V11.3c0-1.2-.94-2.14-2.09-2.14Z"/><path d="M149.64 13.96h14.55v2.06h-14.55z" class="cls-8"/><path d="M163.69 14.46v1.07h-13.55v-1.07h13.55m1-1h-15.55v3.07h15.55v-3.07Z"/><path d="M156.81 19.23s-.07-.37-.07-.82.03-.82.07-.82.07.37.07.82-.03.82-.07.82ZM150.71 19.69s-.07-.5-.07-1.12.03-1.12.07-1.12.07.5.07 1.12-.03 1.12-.07 1.12ZM152.86 21.03s-.07-.38-.07-.86.03-.86.07-.86.07.38.07.86-.03.86-.07.86ZM150.86 25.47s-.07-.28-.07-.62.03-.62.07-.62.07.28.07.62-.03.62-.07.62ZM154.25 24.47s-.07-.41-.07-.91.03-.91.07-.91.07.41.07.91-.03.91-.07.91ZM159.69 20.46s-.07-.37-.07-.84.03-.84.07-.84.07.37.07.84-.03.84-.07.84ZM162.32 19.74s-.07-.47-.07-1.05.03-1.05.07-1.05.07.47.07 1.05-.03 1.05-.07 1.05ZM156.22 30.64s.07-.37.07-.82-.03-.82-.07-.82-.07.37-.07.82.03.82.07.82ZM162.32 31.1s.07-.5.07-1.12c0-.62-.03-1.12-.07-1.12s-.07.5-.07 1.12.03 1.12.07 1.12ZM160.17 32.44s.07-.38.07-.86-.03-.86-.07-.86-.07.38-.07.86.03.86.07.86ZM162.18 36.88s.07-.28.07-.62c0-.34-.03-.62-.07-.62s-.07.28-.07.62.03.62.07.62ZM158.78 35.88s.07-.41.07-.91-.03-.91-.07-.91-.07.41-.07.91.03.91.07.91ZM153.34 31.87s.07-.37.07-.84-.03-.84-.07-.84-.07.37-.07.84.03.84.07.84ZM150.71 31.15s.07-.47.07-1.05-.03-1.05-.07-1.05-.07.47-.07 1.05c0 .58.03 1.05.07 1.05Z" class="cls-10"/><path d="M127.23 8.8h2.38v105.91h-2.38z" style="stroke:#000;stroke-miterlimit:10;fill:#ff6d75"/><path d="M14.17 41.77h4.21v4.21h-4.21zM19.74 41.77h4.21v4.21h-4.21zM25.32 41.77h4.21v4.21h-4.21zM30.89 41.77h4.21v4.21h-4.21zM36.47 41.77h4.21v4.21h-4.21zM42.04 41.77h4.21v4.21h-4.21zM47.62 41.77h4.21v4.21h-4.21zM53.19 41.77h4.21v4.21h-4.21zM58.76 41.77h4.21v4.21h-4.21zM64.34 41.77h4.21v4.21h-4.21zM14.17 47.15h4.21v4.21h-4.21zM19.74 47.15h4.21v4.21h-4.21zM25.32 47.15h4.21v4.21h-4.21zM30.89 47.15h4.21v4.21h-4.21zM36.47 47.15h4.21v4.21h-4.21zM42.04 47.15h4.21v4.21h-4.21zM47.62 47.15h4.21v4.21h-4.21zM53.19 47.15h4.21v4.21h-4.21zM58.76 47.15h4.21v4.21h-4.21zM64.34 47.15h4.21v4.21h-4.21zM14.17 52.52h4.21v4.21h-4.21zM19.74 52.52h4.21v4.21h-4.21zM25.32 52.52h4.21v4.21h-4.21zM30.89 52.52h4.21v4.21h-4.21zM36.47 52.52h4.21v4.21h-4.21zM42.04 52.52h4.21v4.21h-4.21zM47.62 52.52h4.21v4.21h-4.21zM53.19 52.52h4.21v4.21h-4.21zM58.76 52.52h4.21v4.21h-4.21zM64.34 52.52h4.21v4.21h-4.21zM14.17 57.89h4.21v4.21h-4.21zM19.74 57.89h4.21v4.21h-4.21zM25.32 57.89h4.21v4.21h-4.21zM30.89 57.89h4.21v4.21h-4.21zM36.47 57.89h4.21v4.21h-4.21zM42.04 57.89h4.21v4.21h-4.21zM47.62 57.89h4.21v4.21h-4.21zM53.19 57.89h4.21v4.21h-4.21zM58.76 57.89h4.21v4.21h-4.21zM64.34 57.89h4.21v4.21h-4.21zM14.17 63.26h4.21v4.21h-4.21zM19.74 63.26h4.21v4.21h-4.21zM25.32 63.26h4.21v4.21h-4.21zM30.89 63.26h4.21v4.21h-4.21zM36.47 63.26h4.21v4.21h-4.21zM42.04 63.26h4.21v4.21h-4.21zM47.62 63.26h4.21v4.21h-4.21zM53.19 63.26h4.21v4.21h-4.21zM58.76 63.26h4.21v4.21h-4.21zM64.34 63.26h4.21v4.21h-4.21zM14.17 68.63h4.21v4.21h-4.21zM19.74 68.63h4.21v4.21h-4.21zM25.32 68.63h4.21v4.21h-4.21zM30.89 68.63h4.21v4.21h-4.21zM36.47 68.63h4.21v4.21h-4.21zM42.04 68.63h4.21v4.21h-4.21zM47.62 68.63h4.21v4.21h-4.21zM53.19 68.63h4.21v4.21h-4.21zM58.76 68.63h4.21v4.21h-4.21zM64.34 68.63h4.21v4.21h-4.21zM14.17 74.01h4.21v4.21h-4.21zM19.74 74.01h4.21v4.21h-4.21zM25.32 74.01h4.21v4.21h-4.21zM30.89 74.01h4.21v4.21h-4.21zM36.47 74.01h4.21v4.21h-4.21zM42.04 74.01h4.21v4.21h-4.21zM47.62 74.01h4.21v4.21h-4.21zM53.19 74.01h4.21v4.21h-4.21zM58.76 74.01h4.21v4.21h-4.21zM64.34 74.01h4.21v4.21h-4.21zM14.17 79.38h4.21v4.21h-4.21zM19.74 79.38h4.21v4.21h-4.21zM25.32 79.38h4.21v4.21h-4.21zM30.89 79.38h4.21v4.21h-4.21zM36.47 79.38h4.21v4.21h-4.21zM42.04 79.38h4.21v4.21h-4.21zM47.62 79.38h4.21v4.21h-4.21zM53.19 79.38h4.21v4.21h-4.21zM58.76 79.38h4.21v4.21h-4.21zM64.34 79.38h4.21v4.21h-4.21zM14.17 84.75h4.21v4.21h-4.21zM19.74 84.75h4.21v4.21h-4.21zM25.32 84.75h4.21v4.21h-4.21zM30.89 84.75h4.21v4.21h-4.21zM36.47 84.75h4.21v4.21h-4.21zM42.04 84.75h4.21v4.21h-4.21zM47.62 84.75h4.21v4.21h-4.21zM53.19 84.75h4.21v4.21h-4.21zM58.76 84.75h4.21v4.21h-4.21zM64.34 84.75h4.21v4.21h-4.21z" class="cls-5"/><path d="M23.49 63.48c-.08 0-.15-.02-.23-.05a.494.494 0 0 1-.27-.44l-.09-4.07c0-.2.11-.38.29-.46a.497.497 0 0 1 .54.07l1.33 1.17c.11.1.17.23.17.38v2.03c0 .16-.08.32-.21.41l-1.24.87c-.09.06-.19.09-.29.09Z" class="cls-2"/><path d="m23.4 58.9 1.33 1.17v2.03l-1.24.87-.09-4.07m0-1c-.14 0-.29.03-.42.09a1 1 0 0 0-.58.93l.09 4.07c0 .37.22.7.55.87a.988.988 0 0 0 1.02-.07l1.24-.87c.27-.19.43-.49.43-.82v-2.03a.98.98 0 0 0-.34-.75l-1.33-1.17c-.19-.16-.42-.25-.66-.25Z"/><path d="M19.14 65c-.07 0-.15-.02-.22-.05a.482.482 0 0 1-.28-.46l.16-7.38c0-.2.13-.38.32-.46a.523.523 0 0 1 .55.13c.78.84 1.3 1.65 1.57 2.47l1.98-.81c.06-.03.13-.04.19-.04a.503.503 0 0 1 .5.49l.09 4.07c0 .17-.08.33-.21.42-.08.06-.19.09-.29.09-.06 0-.12-.01-.18-.03l-2.22-.87c-.34.9-.9 1.71-1.63 2.32a.49.49 0 0 1-.32.12Z" class="cls-6"/><path d="M19.3 57.13c.76.82 1.4 1.76 1.6 2.81l2.51-1.03.09 4.07-2.72-1.07c-.27 1-.84 1.92-1.64 2.6.05-2.45.11-4.92.16-7.38m0-1a1.008 1.008 0 0 0-1 .98l-.08 3.69-.08 3.69a1.005 1.005 0 0 0 1 1.02c.23 0 .46-.08.65-.24.66-.56 1.2-1.27 1.57-2.06l1.77.7a.988.988 0 0 0 .93-.11c.27-.19.43-.51.43-.84l-.09-4.07a.985.985 0 0 0-1-.97c-.13 0-.26.02-.38.08l-1.51.62c-.32-.72-.81-1.43-1.49-2.16a.985.985 0 0 0-.73-.32Z"/><path d="M23.49 53.16c-.08 0-.15-.02-.23-.05a.494.494 0 0 1-.27-.44l-.09-4.07c0-.2.11-.38.29-.46a.497.497 0 0 1 .54.07l1.33 1.17c.11.1.17.23.17.38v2.03c0 .16-.08.32-.21.41l-1.24.87c-.09.06-.19.09-.29.09Z" class="cls-9"/><path d="m23.4 48.59 1.33 1.17v2.03l-1.24.87-.09-4.07m0-1c-.14 0-.29.03-.42.09a1 1 0 0 0-.58.93l.09 4.07c0 .37.22.7.55.87a.988.988 0 0 0 1.02-.07l1.24-.87c.27-.19.43-.49.43-.82v-2.03a.98.98 0 0 0-.34-.75l-1.33-1.17c-.19-.16-.42-.25-.66-.25Z"/><path d="M19.14 54.69c-.07 0-.15-.02-.22-.05a.482.482 0 0 1-.28-.46l.16-7.4c0-.2.13-.39.32-.46a.523.523 0 0 1 .55.13c.8.87 1.31 1.67 1.57 2.48l1.98-.81c.06-.03.13-.04.19-.04a.503.503 0 0 1 .5.49l.09 4.07c0 .17-.08.33-.21.42-.08.06-.19.09-.29.09-.06 0-.12-.01-.18-.03l-2.23-.87c-.34.9-.9 1.71-1.62 2.32a.49.49 0 0 1-.32.12Z" class="cls-6"/><path d="M19.3 46.8c.76.84 1.4 1.76 1.6 2.83l2.51-1.03.09 4.07-2.72-1.07c-.27 1-.84 1.92-1.64 2.6.05-2.45.11-4.92.16-7.4m0-1c-.12 0-.24.02-.35.06-.38.14-.64.51-.65.91l-.16 7.4a1.005 1.005 0 0 0 1 1.02c.23 0 .46-.08.65-.24.66-.56 1.2-1.27 1.57-2.06l1.77.7a.988.988 0 0 0 .93-.11c.27-.19.43-.51.43-.84l-.09-4.07a.985.985 0 0 0-1-.97c-.13 0-.26.02-.38.08l-1.5.62c-.31-.71-.8-1.42-1.49-2.16a1 1 0 0 0-.74-.33Z"/><path d="M17.59 114.42V10.37c0-.58.47-1.05 1.05-1.05h21.61c.88 0 1.59.72 1.59 1.59v3.78h-2.09v-3.24H19.72v102.96H17.6Z" class="cls-8"/><path d="M40.25 9.82c.6 0 1.09.49 1.09 1.09v3.28h-1.09v-3.24H19.22v102.96H18.1V10.37c0-.3.25-.55.55-.55h21.61m0-1H18.65c-.85 0-1.55.69-1.55 1.55v104.55h3.12V11.96h19.03v3.24h3.09v-4.24c0-1.2-.94-2.14-2.09-2.14Z"/><path d="M33.82 13.62h14.55v2.07H33.82z" class="cls-8"/><path d="M47.87 14.12v1.07H34.32v-1.07h13.55m1-1H33.32v3.07h15.55v-3.07Z"/><path d="M40.99 18.89s-.07-.37-.07-.82.03-.82.07-.82.07.37.07.82-.03.82-.07.82ZM34.9 19.35s-.07-.5-.07-1.12.03-1.12.07-1.12.07.5.07 1.12-.03 1.12-.07 1.12ZM37.04 20.69s-.07-.38-.07-.86.03-.86.07-.86.07.38.07.86-.03.86-.07.86ZM35.04 25.13s-.07-.28-.07-.62.03-.62.07-.62.07.28.07.62-.03.62-.07.62ZM38.43 24.13s-.07-.41-.07-.91.03-.91.07-.91.07.41.07.91-.03.91-.07.91ZM43.87 20.12s-.07-.37-.07-.84.03-.84.07-.84.07.37.07.84-.03.84-.07.84ZM46.5 19.4s-.07-.47-.07-1.05.03-1.05.07-1.05.07.47.07 1.05-.03 1.05-.07 1.05ZM40.41 30.3s.07-.37.07-.82-.03-.82-.07-.82-.07.37-.07.82.03.82.07.82ZM46.5 30.76s.07-.5.07-1.12c0-.62-.03-1.12-.07-1.12s-.07.5-.07 1.12c0 .62.03 1.12.07 1.12ZM44.35 32.1s.07-.38.07-.86c0-.47-.03-.86-.07-.86s-.07.38-.07.86.03.86.07.86ZM46.36 36.54s.07-.28.07-.62c0-.34-.03-.62-.07-.62s-.07.28-.07.62c0 .34.03.62.07.62ZM42.97 35.54s.07-.41.07-.91-.03-.91-.07-.91-.07.41-.07.91.03.91.07.91ZM37.52 31.53s.07-.37.07-.84c0-.46-.03-.84-.07-.84s-.07.37-.07.84.03.84.07.84ZM34.9 30.81s.07-.47.07-1.05c0-.58-.03-1.05-.07-1.05s-.07.47-.07 1.05c0 .58.03 1.05.07 1.05Z" class="cls-10"/><path d="M72.13 42.11h4.21v4.21h-4.21zM77.7 42.11h4.21v4.21H77.7zM83.28 42.11h4.21v4.21h-4.21zM88.85 42.11h4.21v4.21h-4.21zM94.43 42.11h4.21v4.21h-4.21zM100 42.11h4.21v4.21H100zM105.57 42.11h4.21v4.21h-4.21zM111.15 42.11h4.21v4.21h-4.21zM116.72 42.11h4.21v4.21h-4.21zM122.3 42.11h4.21v4.21h-4.21zM72.13 47.49h4.21v4.21h-4.21zM77.7 47.49h4.21v4.21H77.7zM83.28 47.49h4.21v4.21h-4.21zM88.85 47.49h4.21v4.21h-4.21zM94.43 47.49h4.21v4.21h-4.21zM100 47.49h4.21v4.21H100zM105.57 47.49h4.21v4.21h-4.21zM111.15 47.49h4.21v4.21h-4.21zM116.72 47.49h4.21v4.21h-4.21zM122.3 47.49h4.21v4.21h-4.21zM72.13 52.86h4.21v4.21h-4.21zM77.7 52.86h4.21v4.21H77.7zM83.28 52.86h4.21v4.21h-4.21zM88.85 52.86h4.21v4.21h-4.21zM94.43 52.86h4.21v4.21h-4.21zM100 52.86h4.21v4.21H100zM105.57 52.86h4.21v4.21h-4.21zM111.15 52.86h4.21v4.21h-4.21zM116.72 52.86h4.21v4.21h-4.21zM122.3 52.86h4.21v4.21h-4.21zM72.13 58.23h4.21v4.21h-4.21zM77.7 58.23h4.21v4.21H77.7zM83.28 58.23h4.21v4.21h-4.21zM88.85 58.23h4.21v4.21h-4.21zM94.43 58.23h4.21v4.21h-4.21zM100 58.23h4.21v4.21H100zM105.57 58.23h4.21v4.21h-4.21zM111.15 58.23h4.21v4.21h-4.21zM116.72 58.23h4.21v4.21h-4.21zM122.3 58.23h4.21v4.21h-4.21zM72.13 63.6h4.21v4.21h-4.21zM77.7 63.6h4.21v4.21H77.7zM83.28 63.6h4.21v4.21h-4.21zM88.85 63.6h4.21v4.21h-4.21zM94.43 63.6h4.21v4.21h-4.21zM100 63.6h4.21v4.21H100zM105.57 63.6h4.21v4.21h-4.21zM111.15 63.6h4.21v4.21h-4.21zM116.72 63.6h4.21v4.21h-4.21zM122.3 63.6h4.21v4.21h-4.21zM72.13 68.98h4.21v4.21h-4.21zM77.7 68.98h4.21v4.21H77.7zM83.28 68.98h4.21v4.21h-4.21zM88.85 68.98h4.21v4.21h-4.21zM94.43 68.98h4.21v4.21h-4.21zM100 68.98h4.21v4.21H100zM105.57 68.98h4.21v4.21h-4.21zM111.15 68.98h4.21v4.21h-4.21zM116.72 68.98h4.21v4.21h-4.21zM122.3 68.98h4.21v4.21h-4.21zM72.13 74.35h4.21v4.21h-4.21zM77.7 74.35h4.21v4.21H77.7zM83.28 74.35h4.21v4.21h-4.21zM88.85 74.35h4.21v4.21h-4.21zM94.43 74.35h4.21v4.21h-4.21zM100 74.35h4.21v4.21H100zM105.57 74.35h4.21v4.21h-4.21zM111.15 74.35h4.21v4.21h-4.21zM116.72 74.35h4.21v4.21h-4.21zM122.3 74.35h4.21v4.21h-4.21zM72.13 79.72h4.21v4.21h-4.21zM77.7 79.72h4.21v4.21H77.7zM83.28 79.72h4.21v4.21h-4.21zM88.85 79.72h4.21v4.21h-4.21zM94.43 79.72h4.21v4.21h-4.21zM100 79.72h4.21v4.21H100zM105.57 79.72h4.21v4.21h-4.21zM111.15 79.72h4.21v4.21h-4.21zM116.72 79.72h4.21v4.21h-4.21zM122.3 79.72h4.21v4.21h-4.21zM72.13 85.09h4.21v4.21h-4.21zM77.7 85.09h4.21v4.21H77.7zM83.28 85.09h4.21v4.21h-4.21zM88.85 85.09h4.21v4.21h-4.21zM94.43 85.09h4.21v4.21h-4.21zM100 85.09h4.21v4.21H100zM105.57 85.09h4.21v4.21h-4.21zM111.15 85.09h4.21v4.21h-4.21zM116.72 85.09h4.21v4.21h-4.21zM122.3 85.09h4.21v4.21h-4.21z" class="cls-1"/><path d="M81.45 63.82c-.08 0-.15-.02-.23-.05a.494.494 0 0 1-.27-.44l-.09-4.07c0-.2.11-.38.29-.46a.497.497 0 0 1 .54.07l1.33 1.17c.11.1.17.23.17.38v2.03c0 .16-.08.32-.21.41l-1.24.87c-.09.06-.19.09-.29.09Z" class="cls-2"/><path d="m81.36 59.25 1.33 1.17v2.03l-1.24.87-.09-4.07m0-1c-.14 0-.29.03-.42.09a1 1 0 0 0-.58.93l.09 4.07c0 .37.22.7.55.87a.988.988 0 0 0 1.02-.07l1.24-.87c.27-.19.43-.49.43-.82v-2.03a.98.98 0 0 0-.34-.75l-1.33-1.17c-.19-.16-.42-.25-.66-.25Z"/><path d="M77.09 65.35c-.07 0-.15-.02-.22-.05a.482.482 0 0 1-.28-.46l.16-7.38c0-.2.13-.38.32-.46a.523.523 0 0 1 .55.13c.78.84 1.3 1.65 1.57 2.47l1.98-.81c.06-.03.13-.04.19-.04a.503.503 0 0 1 .5.49l.09 4.07c0 .17-.08.33-.21.42-.08.06-.19.09-.29.09-.06 0-.12-.01-.18-.03l-2.23-.87c-.34.9-.9 1.71-1.62 2.32a.49.49 0 0 1-.32.12Z" class="cls-6"/><path d="M77.25 57.47c.76.82 1.4 1.76 1.6 2.81l2.51-1.03.09 4.07-2.72-1.07c-.27 1-.84 1.92-1.64 2.6.05-2.45.11-4.92.16-7.38m0-1a1.008 1.008 0 0 0-1 .98l-.08 3.69-.08 3.69a1.005 1.005 0 0 0 1 1.02c.23 0 .46-.08.65-.24.66-.56 1.2-1.27 1.57-2.06l1.77.7a.988.988 0 0 0 .93-.11c.27-.19.43-.51.43-.84l-.09-4.07a.985.985 0 0 0-1-.97c-.13 0-.26.02-.38.08l-1.51.62c-.32-.72-.81-1.43-1.49-2.16a.985.985 0 0 0-.73-.32Z"/><path d="M81.45 53.51c-.08 0-.15-.02-.23-.05a.494.494 0 0 1-.27-.44l-.09-4.07c0-.2.11-.38.29-.46a.497.497 0 0 1 .54.07l1.33 1.17c.11.1.17.23.17.38v2.03c0 .16-.08.32-.21.41l-1.24.87c-.09.06-.19.09-.29.09Z" class="cls-9"/><path d="m81.36 48.93 1.33 1.17v2.03l-1.24.87-.09-4.07m0-1c-.14 0-.29.03-.42.09a1 1 0 0 0-.58.93l.09 4.07c0 .37.22.7.55.87a.988.988 0 0 0 1.02-.07l1.24-.87c.27-.19.43-.49.43-.82V50.1a.98.98 0 0 0-.34-.75l-1.33-1.17c-.19-.16-.42-.25-.66-.25Z"/><path d="M77.09 55.03c-.07 0-.15-.02-.22-.05a.482.482 0 0 1-.28-.46l.16-7.4c0-.2.13-.39.32-.46a.523.523 0 0 1 .55.13c.8.87 1.31 1.67 1.57 2.48l1.98-.81c.06-.03.13-.04.19-.04a.503.503 0 0 1 .5.49l.09 4.07c0 .17-.08.33-.21.42-.08.06-.19.09-.29.09-.06 0-.12-.01-.18-.03l-2.23-.87c-.34.9-.9 1.71-1.62 2.32a.49.49 0 0 1-.32.12Z" class="cls-6"/><path d="M77.25 47.14c.76.84 1.4 1.76 1.6 2.83l2.51-1.03.09 4.07-2.72-1.07c-.27 1-.84 1.92-1.64 2.6.05-2.45.11-4.92.16-7.4m0-1c-.12 0-.24.02-.35.06-.38.14-.64.51-.65.91v.18l-.16 7.21a1.005 1.005 0 0 0 1 1.02c.23 0 .46-.08.65-.24.66-.56 1.2-1.27 1.57-2.06l1.77.7a.988.988 0 0 0 .93-.11c.27-.19.43-.51.43-.84l-.09-4.07a.985.985 0 0 0-1-.97c-.13 0-.26.02-.38.08l-1.5.62c-.31-.71-.8-1.42-1.49-2.16a.991.991 0 0 0-.74-.32Z"/><path d="M75.55 114.76V10.71c0-.58.47-1.05 1.05-1.05h21.61c.88 0 1.59.72 1.59 1.59v3.78h-2.09v-3.24H77.68v102.96h-2.12Z" class="cls-8"/><path d="M98.21 10.16c.6 0 1.09.49 1.09 1.09v3.28h-1.09v-3.24H77.18v102.96h-1.12V10.71c0-.3.25-.55.55-.55h21.61m0-1H76.61c-.85 0-1.55.69-1.55 1.55v104.55h3.12V12.3h19.03v3.24h3.09V11.3c0-1.2-.94-2.14-2.09-2.14Z"/><path d="M91.78 13.96h14.55v2.06H91.78z" class="cls-8"/><path d="M105.83 14.46v1.07H92.28v-1.07h13.55m1-1H91.28v3.07h15.55v-3.07Z"/><path d="M98.95 19.23s-.07-.37-.07-.82.03-.82.07-.82.07.37.07.82-.03.82-.07.82ZM92.85 19.69s-.07-.5-.07-1.12.03-1.12.07-1.12.07.5.07 1.12-.03 1.12-.07 1.12ZM95 21.03s-.07-.38-.07-.86.03-.86.07-.86.07.38.07.86-.03.86-.07.86ZM93 25.47s-.07-.28-.07-.62.03-.62.07-.62.07.28.07.62-.03.62-.07.62ZM96.39 24.47s-.07-.41-.07-.91.03-.91.07-.91.07.41.07.91-.03.91-.07.91ZM101.83 20.46s-.07-.37-.07-.84.03-.84.07-.84.07.37.07.84-.03.84-.07.84ZM104.46 19.74s-.07-.47-.07-1.05.03-1.05.07-1.05.07.47.07 1.05-.03 1.05-.07 1.05ZM98.37 30.64s.07-.37.07-.82-.03-.82-.07-.82-.07.37-.07.82.03.82.07.82ZM104.46 31.1s.07-.5.07-1.12-.03-1.12-.07-1.12-.07.5-.07 1.12c0 .62.03 1.12.07 1.12ZM102.31 32.44s.07-.38.07-.86c0-.47-.03-.86-.07-.86s-.07.38-.07.86c0 .47.03.86.07.86ZM104.32 36.88s.07-.28.07-.62c0-.34-.03-.62-.07-.62s-.07.28-.07.62c0 .34.03.62.07.62ZM100.93 35.88s.07-.41.07-.91-.03-.91-.07-.91-.07.41-.07.91.03.91.07.91ZM95.48 31.87s.07-.37.07-.84-.03-.84-.07-.84-.07.37-.07.84c0 .46.03.84.07.84ZM92.85 31.15s.07-.47.07-1.05c0-.58-.03-1.05-.07-1.05s-.07.47-.07 1.05c0 .58.03 1.05.07 1.05Z" class="cls-10"/><path d="M11.55 8.8h2.38v105.91h-2.38z" class="cls-7"/><path d="M69.27 8.8h2.38v105.91h-2.38zM184.37 8.8h2.38v105.91h-2.38z" class="cls-11"/><path d="M8.09 111.71h183.83v7.49H8.09z" class="cls-7"/><path d="M-1485.61-55.49H465.44v522.43h-1951.05z" style="fill:none;stroke:#fff;stroke-linecap:round;stroke-linejoin:round;stroke-width:8px"/></svg>