<svg xmlns="http://www.w3.org/2000/svg" id="Calque_1" data-name="Calque 1" viewBox="0 0 128 128"><defs><style>.cls-1{fill:#bfe6fc}.cls-1,.cls-2,.cls-3,.cls-4{stroke:#000;stroke-linecap:round;stroke-linejoin:round}.cls-2,.cls-4{fill:none}.cls-3{fill:#d6d6d6;stroke-width:2px}.cls-4{stroke-dasharray:0 0 5.45 5.45}</style></defs><circle cx="110.54" cy="73.81" r="5.87" class="cls-3"/><path d="M69.79 27.59c0-4.88-5.12-8.84-11.45-8.84-6.33 0-11.46 3.96-11.46 8.84h22.9Z" class="cls-1"/><path d="M58.89 59.65v-4" class="cls-2"/><path d="M58.89 50.21v-8.18" class="cls-4"/><path d="M58.89 39.31v-4M49 59.65v-4" class="cls-2"/><path d="M49 50.21v-8.18" class="cls-4"/><path d="M49 39.31v-4M68.11 59.65v-4" class="cls-2"/><path d="M68.11 50.21v-8.18" class="cls-4"/><path d="M68.11 39.31v-4M63.5 65.99v-4" class="cls-2"/><path d="M63.5 56.54v-8.17" class="cls-4"/><path d="M63.5 45.65v-4M54.09 65.99v-4" class="cls-2"/><path d="M54.09 56.54v-8.17" class="cls-4"/><path d="M54.09 45.65v-4M58.89 89.33v-4" class="cls-2"/><path d="M58.89 79.88v-8.17" class="cls-4"/><path d="M58.89 68.99v-4M49 89.33v-4" class="cls-2"/><path d="M49 79.88v-8.17" class="cls-4"/><path d="M49 68.99v-4M68.11 89.33v-4" class="cls-2"/><path d="M68.11 79.88v-8.17" class="cls-4"/><path d="M68.11 68.99v-4M63.5 95.67v-4" class="cls-2"/><path d="M63.5 86.22v-8.17" class="cls-4"/><path d="M63.5 75.32v-4M54.09 95.67v-4" class="cls-2"/><path d="M54.09 86.22v-8.17" class="cls-4"/><path d="M54.09 75.32v-4M19.9 114.25V14.16M58.34 14.16v3.81M58.34 14.16c0-5.27-4.32-9.59-9.59-9.59H29.49c-2.63 0-5.03 1.08-6.77 2.82s-2.82 4.13-2.82 6.77" class="cls-2"/><path d="M19.89 114.25h65.42v7.03H19.89zM19.89 110.71h63.22v3.53H19.89z" class="cls-1"/><path d="M46.88 31.06h22.91" class="cls-2"/><path d="M19.9 62.08h6.4v3.04h-6.4z" class="cls-1"/><path d="M19.9 62.08h6.4v3.04h-6.4z" class="cls-1"/><path d="M26.29 69.56V57.64h3.04v11.92z" class="cls-1"/><circle cx="82.86" cy="56.1" r="5.87" class="cls-3"/><rect width="4.53" height="35.53" x="94.22" y="47.29" class="cls-3" rx="1.74" ry="1.74" transform="rotate(-57.13 96.49 65.057)"/><path d="m113.99 31.06-11.06 21.95" class="cls-2"/><path d="m100.77 48.21.96-.28 1.37 4.74 4.63-1.72.35.94-5.64 2.09-1.67-5.77z"/><path d="M-1045.68-2207.29h2244.45v5948.74h-2244.45z" style="stroke:#fff;stroke-width:8px;fill:none;stroke-linecap:round;stroke-linejoin:round"/></svg>