<?xml version="1.0" encoding="UTF-8"?><svg id="Calque_1" xmlns="http://www.w3.org/2000/svg" viewBox="0 0 128.13 128.13"><defs><style>.cls-1{fill:#bfe6fc;}.cls-1,.cls-2,.cls-3{stroke:#000;stroke-linecap:round;stroke-linejoin:round;}.cls-1,.cls-3{stroke-width:2px;}.cls-2{fill:#d6d6d6;stroke-width:.5px;}.cls-3{fill:none;}</style></defs><path class="cls-1" d="M74.55,73.31l-1.96,25.94-1.35,17.77c-.13,1.83-1.65,3.23-3.48,3.23h-24.54c-1.83,0-3.35-1.41-3.49-3.23l-1.34-17.77-1.96-25.94h38.1Z"/><polyline class="cls-3" points="36.44 73.31 35.23 57.27 75.75 57.27 74.55 73.31"/><polygon class="cls-3" points="38.4 99.25 38.39 99.25 36.44 73.31 38.4 99.25"/><polygon class="cls-3" points="95.59 11.64 99.24 39.96 67.59 44.04 60.74 39.33 57.8 16.51 95.59 11.64"/><rect class="cls-3" x="97.39" y="11.31" width="3.28" height="28.55" transform="translate(200.53 38.31) rotate(172.66)"/><polygon class="cls-3" points="57.8 16.51 60.74 39.33 57.11 36.83 54.54 16.93 57.8 16.51"/><circle class="cls-2" cx="53.06" cy="46.63" r=".27"/><circle class="cls-2" cx="59.59" cy="58.37" r=".27"/><circle class="cls-2" cx="52.31" cy="65.96" r=".27"/><circle class="cls-2" cx="62.33" cy="55.95" r=".27"/><circle class="cls-2" cx="59.32" cy="66.92" r=".27"/><circle class="cls-2" cx="54.67" cy="63.45" r=".27"/><circle class="cls-2" cx="58.12" cy="64.89" r=".27"/><circle class="cls-2" cx="57.68" cy="63.62" r=".27"/><circle class="cls-2" cx="56.47" cy="61.4" r=".27"/><circle class="cls-2" cx="61.6" cy="65.16" r=".27"/><circle class="cls-2" cx="51.15" cy="63.34" r=".27"/><circle class="cls-2" cx="48.86" cy="65.43" r=".27"/><circle class="cls-2" cx="50.88" cy="58.37" r=".27"/><circle class="cls-2" cx="54.24" cy="56.84" r=".27"/><circle class="cls-2" cx="60.78" cy="61.4" r=".27"/><circle class="cls-2" cx="56.75" cy="57.6" r=".27"/><circle class="cls-2" cx="57.84" cy="55.67" r=".27"/><circle class="cls-2" cx="52.86" cy="60.85" r=".27"/><circle class="cls-2" cx="55.96" cy="59.2" r=".27"/><circle class="cls-2" cx="57.32" cy="44.04" r=".27"/><circle class="cls-2" cx="57.32" cy="48.57" r=".27"/><circle class="cls-2" cx="55.49" cy="49.12" r=".27"/><circle class="cls-2" cx="53.96" cy="54.2" r=".27"/><circle class="cls-2" cx="60.3" cy="42.79" r=".27"/><circle class="cls-2" cx="59.32" cy="45.81" r=".27"/><circle class="cls-2" cx="63.36" cy="42.89" r=".27"/><circle class="cls-2" cx="62.32" cy="45.3" r=".27"/><circle class="cls-2" cx="62.55" cy="47.57" r=".27"/><circle class="cls-2" cx="65.21" cy="46.09" r=".27"/><circle class="cls-2" cx="66.05" cy="44.04" r=".27"/><circle class="cls-2" cx="59.32" cy="51.87" r=".27"/><circle class="cls-2" cx="60.5" cy="48.85" r=".27"/><circle class="cls-2" cx="55.77" cy="52.14" r=".27"/></svg>