<?xml version="1.0" encoding="UTF-8"?><svg id="Calque_1" xmlns="http://www.w3.org/2000/svg" viewBox="0 0 128 128.13"><defs><style>.cls-1,.cls-2,.cls-3,.cls-4,.cls-5{stroke:#000;stroke-linejoin:round;}.cls-1,.cls-2,.cls-5{fill:none;}.cls-1,.cls-3,.cls-4,.cls-5{stroke-linecap:round;}.cls-6,.cls-3{fill:#f387d5;}.cls-3,.cls-4,.cls-5{stroke-width:2px;}.cls-4{fill:#fff;}</style></defs><path class="cls-5" d="M57.57,57.91c-.2-.68-.42-1.36-.65-2.03-1.09-3.19-2.48-6.29-4.35-9.1-2.41-3.63-5.59-5.88-8.74-8.75l-.95-5.86H26.22l-.93,5.85c-5.98,5.43-10.47,10.25-13.09,17.85-.24,.66-.46,1.34-.67,2.04v49.47c0,4.73,10.31,8.56,23.02,8.56s23.03-3.83,23.03-8.56c0,0,0-49.47,0-49.47Zm-5.01,47.54c-1.63,.76-3.59,1.42-5.81,1.93-3.54,.82-7.72,1.3-12.2,1.3s-8.66-.48-12.19-1.3c-2.37-.55-4.46-1.26-6.14-2.08v-39.48c4.2,1.49,10.85,2.44,18.33,2.44s13.79-.9,18.01-2.32v39.51Z"/><path class="cls-3" d="M52.72,65.94v39.51c-1.63,.76-3.59,1.42-5.81,1.93-3.54,.82-7.72,1.3-12.2,1.3s-8.66-.48-12.19-1.3c-2.37-.55-4.46-1.26-6.14-2.08v-39.48c4.2,1.49,10.85,2.44,18.33,2.44s13.79-.9,18.01-2.32Z"/><path class="cls-3" d="M23.79,9.91h21.53c1.89,0,3.43,1.54,3.43,3.43v18.83H20.36V13.34c0-1.89,1.54-3.43,3.43-3.43Z"/><line class="cls-2" x1="23.04" y1="9.91" x2="23.04" y2="24.99"/><line class="cls-2" x1="25.35" y1="9.91" x2="25.35" y2="24.99"/><line class="cls-2" x1="27.66" y1="9.91" x2="27.66" y2="24.99"/><line class="cls-2" x1="29.97" y1="9.91" x2="29.97" y2="24.99"/><line class="cls-2" x1="32.28" y1="9.91" x2="32.28" y2="24.99"/><line class="cls-2" x1="34.59" y1="9.91" x2="34.59" y2="24.99"/><line class="cls-2" x1="36.9" y1="9.91" x2="36.9" y2="24.99"/><line class="cls-2" x1="39.21" y1="9.91" x2="39.21" y2="24.99"/><line class="cls-2" x1="41.52" y1="9.91" x2="41.52" y2="24.99"/><line class="cls-2" x1="43.83" y1="9.91" x2="43.83" y2="24.99"/><line class="cls-2" x1="46.14" y1="9.91" x2="46.14" y2="24.99"/><path d="M29.31,81.02c1-.15,2.2-.26,3.51-.26,2.37,0,4.06,.55,5.18,1.59,1.14,1.04,1.8,2.52,1.8,4.59s-.65,3.79-1.84,4.97c-1.2,1.2-3.17,1.84-5.65,1.84-1.18,0-2.16-.06-3-.15v-12.57Zm1.65,11.3c.42,.08,1.02,.1,1.67,.1,3.53,0,5.44-1.97,5.44-5.42,.02-3.01-1.69-4.93-5.18-4.93-.85,0-1.5,.08-1.93,.17v10.09Z"/><g><rect class="cls-6" x="63.73" y="64.12" width="6.71" height="67.91" transform="translate(97.12 -16.89) rotate(49.01)"/><rect class="cls-5" x="71.61" y="46.44" width="7.27" height="89.32" transform="translate(95.63 -25.28) rotate(49.49)"/><path class="cls-1" d="M46.86,111.12l-3.21,2.71c-1.04,.89-.94,2.71,.22,4.07h0c1.16,1.36,2.95,1.74,3.99,.85l3.21-2.71"/><rect class="cls-4" x="109.36" y="56.09" width="5.21" height="7.27" transform="translate(84.64 -64.19) rotate(49.49)"/><rect class="cls-4" x="110.1" y="55.41" width="11.06" height="2.37" transform="translate(83.54 -68.08) rotate(49.49)"/><line class="cls-5" x1="114.89" y1="68.75" x2="103.51" y2="55.43"/><line class="cls-1" x1="105.35" y1="66.72" x2="102.12" y2="62.95"/><line class="cls-1" x1="101.28" y1="68.15" x2="99.07" y2="65.6"/><line class="cls-1" x1="97.81" y1="71.16" x2="95.6" y2="68.62"/><line class="cls-1" x1="94.37" y1="74.15" x2="92.16" y2="71.6"/><line class="cls-1" x1="88.08" y1="79.63" x2="85.86" y2="77.08"/><line class="cls-1" x1="84.61" y1="82.64" x2="82.4" y2="80.09"/><line class="cls-1" x1="81.17" y1="85.62" x2="78.96" y2="83.08"/><line class="cls-1" x1="74.87" y1="91.1" x2="72.66" y2="88.55"/><line class="cls-1" x1="71.41" y1="94.11" x2="69.19" y2="91.56"/><line class="cls-1" x1="67.97" y1="97.1" x2="65.75" y2="94.55"/><line class="cls-1" x1="61.67" y1="102.57" x2="59.45" y2="100.02"/><line class="cls-1" x1="58.2" y1="105.58" x2="55.99" y2="103.03"/><line class="cls-1" x1="54.76" y1="108.57" x2="52.55" y2="106.02"/><line class="cls-1" x1="92.21" y1="78.13" x2="88.99" y2="74.36"/><line class="cls-1" x1="79.08" y1="89.54" x2="75.86" y2="85.77"/><line class="cls-1" x1="65.95" y1="100.95" x2="62.73" y2="97.18"/><line class="cls-1" x1="52.82" y1="112.36" x2="49.59" y2="108.59"/></g></svg>