<?xml version="1.0" encoding="UTF-8"?><svg id="Calque_1" xmlns="http://www.w3.org/2000/svg" viewBox="0 0 128 128"><defs><style>.cls-1,.cls-2,.cls-3,.cls-4{stroke:#000;stroke-miterlimit:10;}.cls-5,.cls-3{fill:#d6d6d6;}.cls-2{fill:#fff;}.cls-4{fill:#a07637;}</style></defs><g><path class="cls-1" d="M59.09,20.37s-.48,.08-1.07,.08h-22.43c-.59,0-1.07-.03-1.07-.08v-2.05s.48-.08,1.07-.08h22.43c.59,0,1.07,.03,1.07,.08v2.05Z"/><path class="cls-1" d="M91.67,20.37s-.48,.08-1.07,.08h-22.43c-.59,0-1.07-.03-1.07-.08v-2.05s.48-.08,1.07-.08h22.43c.59,0,1.07,.03,1.07,.08v2.05Z"/></g><g><path class="cls-1" d="M32.82,109.5h3.43c.89,0,1.62,.73,1.62,1.62v3.76c0,.89-.73,1.62-1.62,1.62h-3.43c-.89,0-1.62-.73-1.62-1.62v-3.76c0-.89,.73-1.62,1.62-1.62Z"/><path class="cls-1" d="M91.11,109.5h3.43c.89,0,1.62,.73,1.62,1.62v3.76c0,.89-.73,1.62-1.62,1.62h-3.43c-.89,0-1.62-.73-1.62-1.62v-3.76c0-.89,.73-1.62,1.62-1.62Z"/></g><path class="cls-3" d="M29.81,20.45H97.55c1.79,0,3.24,1.45,3.24,3.24V109.76c0,1.79-1.45,3.24-3.24,3.24H29.81c-1.79,0-3.24-1.45-3.24-3.24V23.68c0-1.79,1.45-3.24,3.24-3.24Z"/><path class="cls-1" d="M32.26,40.01h62.84c1.79,0,3.24,1.45,3.24,3.24v47.09c0,1.79-1.45,3.24-3.24,3.24H32.26c-1.79,0-3.24-1.45-3.24-3.24V43.25c0-1.79,1.45-3.24,3.24-3.24Z"/><rect class="cls-3" x="36.99" y="50.87" width="53.38" height="31.16"/><rect class="cls-4" x="36.99" y="71.17" width="53.38" height="1.4"/><path class="cls-2" d="M96.16,45.62c0,.77-.63,1.4-1.4,1.4H32.6c-.77,0-1.4-.63-1.4-1.4h0c0-.77,.63-1.4,1.4-1.4h62.15c.77,0,1.4,.63,1.4,1.4h0Z"/><path class="cls-1" d="M42.68,30.21c0,1.84-1.49,3.32-3.33,3.32s-3.32-1.49-3.32-3.32,1.49-3.33,3.32-3.33,3.33,1.49,3.33,3.33Z"/><path class="cls-1" d="M54.84,30.21c0,1.84-1.49,3.32-3.32,3.32s-3.33-1.49-3.33-3.32,1.49-3.33,3.33-3.33,3.32,1.49,3.32,3.33Z"/><path class="cls-1" d="M67.01,30.21c0,1.84-1.49,3.32-3.32,3.32s-3.33-1.49-3.33-3.32,1.49-3.33,3.33-3.33,3.32,1.49,3.32,3.33Z"/><path class="cls-1" d="M79.17,30.21c0,1.84-1.49,3.32-3.33,3.32s-3.32-1.49-3.32-3.32,1.49-3.33,3.32-3.33,3.33,1.49,3.33,3.33Z"/><path class="cls-1" d="M91.33,30.21c0,1.84-1.49,3.32-3.32,3.32s-3.33-1.49-3.33-3.32,1.49-3.33,3.33-3.33,3.32,1.49,3.32,3.33Z"/><path class="cls-5" d="M40.25,32.51c0,.49-.4,.9-.9,.9h0c-.49,0-.9-.4-.9-.9v-4.59c0-.5,.4-.9,.9-.9h0c.49,0,.9,.4,.9,.9v4.59Z"/><path class="cls-5" d="M52.41,32.51c0,.49-.4,.9-.9,.9h0c-.5,0-.9-.4-.9-.9v-4.59c0-.5,.4-.9,.9-.9h0c.49,0,.9,.4,.9,.9v4.59Z"/><path class="cls-5" d="M64.58,32.51c0,.49-.4,.9-.89,.9h0c-.5,0-.9-.4-.9-.9v-4.59c0-.5,.4-.9,.9-.9h0c.49,0,.89,.4,.89,.9v4.59Z"/><path class="cls-5" d="M76.74,32.51c0,.49-.4,.9-.9,.9h0c-.49,0-.9-.4-.9-.9v-4.59c0-.5,.4-.9,.9-.9h0c.49,0,.9,.4,.9,.9v4.59Z"/><path class="cls-5" d="M88.9,32.51c0,.49-.4,.9-.9,.9h0c-.49,0-.9-.4-.9-.9v-4.59c0-.5,.4-.9,.9-.9h0c.49,0,.9,.4,.9,.9v4.59Z"/></svg>