<?xml version="1.0" encoding="UTF-8"?><svg id="Calque_1" xmlns="http://www.w3.org/2000/svg" viewBox="0 0 200.13 128.13"><defs><style>.cls-1{fill:#e60034;}.cls-2{fill:#fce9b9;}.cls-3{fill:#ff6d75;}.cls-4{fill:#d6d6d6;}.cls-5{fill:#76ac75;}.cls-6{fill:none;}.cls-6,.cls-7{stroke:#000;stroke-linecap:round;stroke-linejoin:round;stroke-width:2px;}.cls-7{fill:#fab0b4;}</style></defs><g><g><path class="cls-6" d="M153.84,63.77c-3.17,2.58-4.91,4.36-8.03,5.08l-.06-4.52c1.81-1.68,6.73-4.99,8.07-5.65,.05,.15-.02,4.85,.02,5.08Z"/><path class="cls-6" d="M68.12,70.14c-.24,.85-.26,7.78-.6,8.61-2.58-.73-4.85-2.95-7.3-3.86,.1-.51-.19-3.2-.51-5.64-.03-.21-.37-2.86-.28-3.05l4.69,2.25s1.77,1.03,3.99,1.7Z"/><g><polygon class="cls-3" points="30.46 42.56 38.86 43.93 39.64 52.33 47.2 59.85 45.68 65.22 38.25 57.55 34.02 51.44 30.46 42.56"/><polygon class="cls-3" points="158.51 41.36 159.78 47.57 157.92 54.51 154.62 56.98 154.85 62.66 160.49 57.37 165.32 48.68 169.97 39.65 158.51 41.36"/><polygon class="cls-3" points="48.09 44.92 50.59 48.68 51.09 45.68 61.09 46.8 63.49 51 65.5 55.88 71.27 49.09 77.15 49.77 80.33 53.27 81.71 57.55 85.79 51.44 98.79 53.58 101.46 60.43 105.37 53.49 115.91 51.98 119.69 56.55 124.13 51 129.86 50.17 133.81 54.58 136.45 48.06 144.78 45.62 147.76 48.24 148.94 44.4 134.17 48.68 122.52 50.75 111.04 51.89 99.32 52.33 87.32 51.16 71.24 48.02 53.45 45.22 48.09 44.92"/></g><path class="cls-6" d="M52.42,62.95c-.15,.88,1.23,6.78,.99,7.64-1.94-.95-2.35-1.27-4.18-2.43,0,0-2.83-1.93-3-2.75-.35-1.71,.22-3.01,.54-4.73,.1-.55,.32-.63,.42-.83l5.23,3.1Z"/><path class="cls-7" d="M175.3,38.66c-.24,.05-2.05,.41-4.12,.79-1.87,.33-3.94,.66-5.25,.78-7.93,.71-15.98,3.24-23.8,5.6-.1,.03-.15,.05-.15,.05l-3.13,.93-.81,.24s0,0-.02,0c-.98,.28-1.97,.56-2.94,.83-2.36,.64-4.72,1.25-7.09,1.8h0c-.69,.16-1.39,.33-2.08,.48t-.02,0c-3.31,.72-6.64,1.34-9.98,1.8,0,0-.03,0-.08,0-.08,0-.16,.02-.24,.03-.05,0-.11,.02-.17,.03-.19,.02-.42,.05-.69,.08-.09,0-.18,.02-.28,.04-.15,.02-.3,.04-.45,.05-.12,.02-.24,.04-.36,.05-.4,.05-.79,.09-1.18,.13-.12,0-.24,.03-.36,.04-1.13,.12-3.01,.24-4.37,.33-1.63,.07-3.27,.11-4.92,.09-1.47-.02-2.97-.09-4.48-.21,0,0-.11,0-.3-.03-.09,0-.17-.02-.26-.03-.06,0-.14,0-.2-.02-.15,0-.31-.02-.46-.05-.05,0-.08,0-.13,0-.04,0-.08-.02-.13-.02-.11,0-.22-.02-.33-.04-.6-.05-1.2-.11-1.8-.19-.24-.02-.47-.05-.71-.08-.24-.02-.47-.05-.72-.08-.3-.04-.56-.07-.75-.1-.05,0-.1-.02-.15-.02-.1-.02-.21-.04-.31-.05h0c-.13-.02-.25-.04-.38-.06-.28-.05-.59-.1-.92-.15-1.14-.15-2.29-.34-3.45-.56-.12,0-.24-.04-.36-.06-.2-.04-.35-.05-.46-.07-.03,0-.05,0-.06,0-.05,0-.08-.02-.08-.02h0c-3.78-.68-7.58-1.46-11.3-2.21-3.7-.75-7.32-1.48-10.77-2.01-1.72-.27-3.41-.52-5.05-.75-.04,0-.08,0-.13-.02-.09-.02-.21-.03-.34-.05-.13-.02-.28-.05-.44-.06-.09-.02-.19-.03-.29-.05-.17-.02-.35-.05-.53-.07-.61-.08-1.3-.18-1.99-.27-.18-.02-.35-.05-.53-.07-.53-.07-1.03-.15-1.51-.21-.21-.03-.41-.05-.6-.08-.57-.07-1.03-.14-1.32-.18-.09,0-.16-.02-.22-.03-.05,0-.07,0-.07,0-1.45-.2-2.89-.39-4.33-.59l-.2-.03-6.09-.87-.28-.05c-3.57-.54-7.23-1.16-11.11-1.94l-2.06-.46-.08-.02-.55-.13-.48-.11-.24-.05-.35-.08-.49-.11-.1-.03c1.54-.44,4.63-1.08,6.07-1.41,3.6-.83,7.16-1.8,10.76-2.61,8.34-1.9,16.8-3.29,25.3-4.2,6.28-.67,12.66-1.04,18.95-.28,5.55,.68,11.2,4.43,16.63,4.43,5.72,0,11.25-5.07,16.94-6.02,2.8-.46,5.67-.34,8.5-.16,15.29,.98,30.04,3.99,44.84,7.81,1.4,.36,2.29,.6,2.44,.65Z"/><path class="cls-7" d="M175.27,40.46c-.93,8.39-7.23,20.08-12.08,26.72-12.03,16.46-28.62,26.57-48.85,29.66-23.37,3.57-53.26,.3-68.39-20.1-8.43-11.37-14.61-23.76-21.16-36.27,.06,0,.12,0,.18,.03l.49,.11,.35,.08,.24,.05,.48,.11,.55,.13s.08,.02,.08,.02c2.68,.92,3.85,4.17,4.89,6.51,1.38,3.11,2.98,5.96,5.08,8.66,12.11,15.58,31.15,25.3,50.6,27.38,20.77,2.22,42-3.74,59.65-14.9,5.38-3.4,10.62-7.4,14.17-12.77,3.46-5.24,5.03-11.94,9.63-16.41,2.07-.38,3.88-.74,4.12-.79,.05,.46,.05,1.06-.04,1.8Z"/><path class="cls-6" d="M24.97,40.49c.77,.07,1.5,.25,2.19,.5l-.08-.02-.55-.13-.48-.11-.24-.05-.35-.08-.49-.11Z"/><path class="cls-6" d="M43.11,56.51c.32,.34,.64,.69,.97,1.03-1.2-1-2.35-2.48-3.09-3.33,.71,.76,1.41,1.52,2.12,2.29Z"/><path class="cls-6" d="M146.69,63h0s-.04,.03-.1,.06c.04,0,.07-.04,.1-.06Z"/><path class="cls-6" d="M65.48,60.29h0c-.03,.97-.09,2.41-.16,3.84-.11,2.4-.24,4.78-.24,4.78l-2.73-1.32-.56-.27-5.47-2.66-4.24-2.06s-.37-3.78-1.19-8.19c-.83-4.41,.35-9.49,.35-9.49,0,0,.03,0,.07,0,.05,0,.13,.02,.22,.03,.29,.05,.75,.11,1.32,.18,.19,.03,.39,.05,.6,.08,.47,.06,.98,.14,1.51,.21,.17,.03,.34,.05,.53,.07,.69,.09,1.38,.19,1.99,.27,.18,.03,.36,.05,.53,.07,.1,.02,.2,.03,.29,.05,.16,.02,.32,.05,.44,.06,.14,.02,.25,.04,.34,.05,.05,0,.09,0,.13,.02,1.19,.16,3.78,2.71,5.42,7.94,.56,1.78,.79,4.07,.84,6.32Z"/><path class="cls-6" d="M65.44,64.17c-.12,2.7-.36,4.74-.36,4.74,0,0,.13-2.38,.24-4.78,.07-1.43,.14-2.87,.16-3.84,.05,1.34,.02,2.68-.04,3.87Z"/><path class="cls-6" d="M81.29,63.71c0,.25,0,.53,0,.81,0,.19,0,.39,0,.58v.06c0,.19,0,.38,0,.56-.03,1.22-.06,2.54-.09,3.73-.02,.87-.04,1.67-.05,2.28,0,.09,0,.17,0,.25v.08c0,.2,0,.36-.02,.5,0,.25,0,.4,0,.4,0,0-1.7-.15-3.54-.36-.14,0-.26-.03-.4-.05-1.33-.15-2.68-.32-3.47-.48-1.03-.21-3.34-1.06-5.3-1.83-.09-.04-.18-.07-.26-.1-1.68-.66-3.04-1.23-3.04-1.23,0,0,.24-2.04,.36-4.74,.05-1.2,.08-2.53,.04-3.87h0c.02-.37,.03-.66,.03-.86,0-1.58,1.17-4.82,2.74-7.01,1.76-2.47,4.22-4.21,6.79-3.64,3.13,.68,5.21,4.06,6.05,9.36,.16,1.02,.21,3.19,.2,5.57Z"/><path class="cls-6" d="M65.44,64.17c-.12,2.7-.36,4.74-.36,4.74,0,0,.13-2.38,.24-4.78,.07-1.43,.14-2.87,.16-3.84,.05,1.34,.02,2.68-.04,3.87Z"/><path class="cls-6" d="M81.27,65.17c0,1.51-.05,3.01-.07,4.3-.03,.89-.05,1.68-.07,2.27,0-.61,.03-1.41,.05-2.28,.04-1.37,.07-2.92,.1-4.29Z"/><path class="cls-6" d="M101.06,71.69c-.15,1.69-.3,2.85-.3,2.85,0,0-4.79,.34-10.54,0-.27-.02-.55-.04-.82-.05-.29-.03-.57-.05-.85-.08-4.19-.43-7.46-1.43-7.46-1.43,0,0,0-.15,0-.4,0-.14,.02-.3,.02-.5v-.08c0-.08,0-.16,0-.25,.03-.59,.05-1.38,.07-2.27,.03-1.29,.06-2.79,.07-4.3v-.06c0-.19,0-.39,0-.58,0-.28,0-.55,0-.81,.04-3.3,1.33-6.53,2.05-8.82,.69-2.19,2.82-3.75,3-3.89h0s.03,0,.08,.02c.02,0,.04,0,.06,0,.11,.02,.26,.04,.46,.07,.12,.03,.24,.05,.36,.06,1.15,.22,2.3,.41,3.45,.56,.33,.05,.63,.1,.92,.15,.13,.03,.25,.05,.38,.06h0c.1,0,.21,.03,.31,.05,.05,0,.11,0,.15,.02,.19,.03,.45,.06,.75,.1,.24,.03,.48,.06,.72,.08,.24,.03,.47,.06,.71,.08,.61,.08,1.21,.15,1.8,.19,.11,.02,.22,.03,.33,.04,.08,0,.17,.03,.25,.03,.15,.03,.31,.04,.46,.05,.06,0,.14,.02,.2,.02,.09,0,.17,.02,.26,.03,.19,.02,.3,.03,.3,.03,0,0,.22,.68,1.36,2.33,1.15,1.65,1.6,5.1,1.73,7.59,.15,2.82-.12,6.58-.35,9.13Z"/><path class="cls-6" d="M81.27,65.17c0,1.51-.05,3.01-.07,4.3-.03,.89-.05,1.68-.07,2.27,0-.61,.03-1.41,.05-2.28,.04-1.37,.07-2.92,.1-4.29Z"/><path class="cls-6" d="M87.32,51.16c.9,.15,2.29,.37,3.45,.56-1.14-.15-2.29-.34-3.45-.56Z"/><path class="cls-6" d="M94,52.18c.91,.1,1.99,.22,2.84,.31-.93-.07-1.89-.18-2.84-.31Z"/><path class="cls-6" d="M96.84,52.49c.35,.04,.67,.06,.92,.09-.3-.02-.61-.05-.92-.09Z"/><path class="cls-6" d="M120.04,62.84v9.65s-2.27,1-6.72,1.74c-.31,.05-.62,.09-.94,.15-.43,.05-.87,.12-1.33,.17-2.59,.31-9-.22-9-.22v-12.87s.54-2.61,1.45-4.91c1.02-2.58,2.53-3.71,2.53-3.71,0,0,.71-.04,1.69-.1,1.36-.08,3.24-.21,4.37-.33,.12,0,.24-.03,.36-.04,.39-.04,.78-.07,1.18-.13,.12,0,.24-.03,.36-.05,.15-.02,.31-.04,.45-.05,.1-.02,.19-.03,.28-.04,.27-.04,.5-.06,.69-.08,.06,0,.12-.02,.17-.03,.08,0,.16-.02,.24-.03,.05,0,.08,0,.08,0,0,0,2.14,1.18,2.83,3.2,.91,2.65,1.3,5.45,1.3,7.66Z"/><path class="cls-6" d="M134.23,69.01s-4.09,1.78-5.92,2.49c-.74,.28-2.28,.51-3.82,.67-2.21,.23-4.45,.33-4.45,.33v-11.97c0-3.35,1.03-5.6,2.26-7.31,1.03-1.44,3.32-2.87,3.6-3.04t.02,0c.69-.15,1.39-.32,2.08-.48h0c.18,.09,2.87,1.42,4.05,2.68,1.23,1.3,1.86,4.1,2.03,5.78,.18,1.67,.14,10.86,.14,10.86Z"/><path class="cls-6" d="M127.99,49.68c-.69,.16-1.39,.33-2.08,.48h0s2.07-.48,2.07-.48Z"/><path class="cls-6" d="M147.22,50.79c-.05,2-.51,11.83-.53,12.21h0s-.04,.03-.1,.06c-.08,.05-.22,.14-.39,.24-.83,.5-2.52,1.53-3.75,2.26-.39,.23-.73,.43-.98,.57-.08,.05-.18,.1-.29,.16-.11,.06-.23,.13-.34,.18-.19,.1-.4,.21-.62,.33-1.41,.73-3.33,1.69-4.17,2.11-.27,.13-1.89,.63-1.89,.63l.22-2.02s-.24-8.42-.22-10.3c.03-1.88,.62-4.62,1.59-6.84,.97-2.22,2.29-3.35,2.29-3.35l.81-.24,3.13-.93s.05-.02,.15-.05c.57-.14,2.61-.57,3.65,.4,.56,.52,1.48,2.17,1.42,4.56Z"/><path class="cls-6" d="M150.58,43.33s-1.15,1.53-1.88,3.01c-.58,1.17-1.41,2.34-1.48,4.45s-.49,11.62-.49,11.62c0,0,5.24-3,6.89-4.32,1.65-1.32,3.58-2.92,4.31-3.58s1.1-4.82,1.1-4.82c0,0,.23-5.45,0-6.71-.23-1.25-.51-1.62-.51-1.62l-7.93,1.97Z"/><path class="cls-6" d="M50.86,61.63s-5.21-2.77-6.74-4.05c-.02,0-.03-.03-.05-.04-1.2-1-2.35-2.48-3.09-3.33-.03-.03-.05-.05-.07-.08-.15-.16-.26-.3-.37-.4-.65-.63-.81-2.95-.81-2.95,0,0-.2-5.11,0-6.28l.21-1.18,.39,.05,.28,.05,6.09,.87,.2,.03s1.36,1.94,2.01,3.33c.51,1.09,1.25,2.19,1.32,4.15,.06,1.98,.63,9.82,.63,9.82Z"/><path class="cls-6" d="M101.46,71.7l-1.15,4.03,.25,7.82c-3.99,.2-7.34,.41-11.41,.04-.05-.44-.07-5.99-.04-6.65,.03-.53,.14-1.7,.28-2.15,.26,.02,.54,.04,.82,.05,5.75,.34,10.54,0,10.54,0,0,0,.15-1.47,.3-3.16h.24s.15,.02,.15,.02Z"/><path class="cls-6" d="M81.2,69.46c-.03,.89-.05,1.68-.07,2.27,0-.61,.03-1.41,.05-2.28h.03Z"/><path class="cls-6" d="M88.55,74.65c-.07,.89-.2,7.44-.41,8.32-3.66-.32-7.3-.85-10.89-1.6,0-.44,.04-6.14,.21-6.84,.07-.32,.18-1.14,.29-1.41,1.81,.18,3.47,.31,3.47,.31,0,0,3.21,.86,7.33,1.23Z"/><path class="cls-6" d="M77.15,72.56c-.16,.99-.38,7.03-.65,7.99-3-.73-5.65-1.65-8.52-2.74,.07-.41-.14-5.95,.02-6.51,.11-.38,.24-.73,.38-1.06,1.96,.77,4.26,1.62,5.3,1.83,.8,.16,2.14,.34,3.47,.48Z"/><path class="cls-6" d="M65.44,64.17c-.12,2.7-.36,4.74-.36,4.74,0,0,.13-2.38,.24-4.78l.13,.04Z"/><path class="cls-6" d="M59.43,66.2c-.15,.88,.99,7.22,.75,8.08-1.94-.95-4.76-2.12-6.59-3.27,0,0-.14-.71-.31-1.54-.35-1.71-.25-2.18-.62-4.31-.1-.55-.34-2.01-.25-2.22l7.01,3.25Z"/><path class="cls-6" d="M113.33,81.95c-3.17,.58-6.99,1.2-10.2,1.43-.6,.05-1.19,.08-1.8,.11l-.03-6.67-.15-5.11h.15s.74-.05,.74-.05v2.68s6.4,.53,9,.22c.46-.05,1.49-.21,1.92-.26,.15,.46,.32,.88,.35,1.44,0,.19,.02,6.05,.02,6.22Z"/><path class="cls-6" d="M124.84,78.05c-3.61,1.19-7.29,2.14-11.01,2.87l.22-6.46c4.45-.74,5.99-1.96,5.99-1.96,0,0,2.24-.1,4.45-.33,.06,.15,.12,.32,.16,.49,.07,.26,.14,5.16,.18,5.39Z"/><path class="cls-6" d="M134.88,75.43c-3.61,1.19-5.82,2.86-9.54,3.59l-.51-6.68c4.45-.74,5.48-1.4,5.48-1.4,0,0,2.01-1.17,4.23-1.39,.06,.15,.12,.32,.16,.49,.07,.26,.14,5.16,.18,5.39Z"/><path class="cls-6" d="M145.26,69.56c-3.78,2.58-5.84,4.36-9.56,5.08l-.07-5.52c2.08-.35,8.01-3.99,9.61-4.65,.06,.15-.02,4.85,.02,5.08Z"/></g><g><path class="cls-2" d="M111.61,65.93c-.16,.47-.45,.89-.64,1.35s-.29,1.01-.06,1.45,.89,.67,1.25,.33c.13-.12,.2-.28,.27-.45,.39-1.01,.38-2.17-.03-3.18-.37,.78-.52,1.66-.44,2.52,.05,.49,.18,.99,.51,1.34s.92,.51,1.33,.25c.31-.2,.46-.59,.56-.95,.43-1.54,.47-3.19,.13-4.75-.19,.39-.38,.8-.37,1.24s.32,.89,.75,.92c.41,.03,.77-.33,.87-.73s.03-.82-.05-1.22c-.04-.2-.12-.43-.32-.46-.18-.02-.31,.16-.4,.32-.46,.88-.74,1.86-.81,2.85-.02,.29-.02,.59,.1,.86,.19,.45,.73,.71,1.21,.59s.82-.6,.79-1.09"/><path class="cls-2" d="M109.2,65.26c-.02,.07-.05,.13-.08,.2l.25-.6c-.49,1.13-1.21,2.19-1.08,3.49,.09,.92,.39,1.79,1.09,2.43,.67,.6,1.52,.96,2.43,.93,3.31-.08,3.95-4.5,3-6.94-.16-.4-.33-.79-.64-1.1-.39-.39-.89-.61-1.44-.69-.46-.06-.87,0-1.3,.17-.46,.19-.98,.55-1.2,1.02-.52,1.14-.87,2.35-.79,3.63,.1,1.55,.64,2.97,1.98,3.84,.79,.51,1.75,.6,2.66,.44,.9-.16,1.68-.82,2.16-1.58,.64-1.02,.8-2.39,.91-3.55,.13-1.26,0-2.54-.27-3.77-.08-.39-.37-.83-.64-1.1-.39-.39-.89-.61-1.44-.69-.46-.06-.87,0-1.3,.17-.47,.2-.97,.55-1.2,1.02-.51,1.07-.88,2.13-.6,3.33s1.25,2.26,2.44,2.5c1.45,.3,2.91-.34,3.64-1.64,.59-1.04,.56-2.28,.28-3.41-.19-.76-.66-1.45-1.33-1.86-.86-.53-2-.5-2.86,.02-.99,.6-1.45,1.78-1.8,2.83-.25,.77-.37,1.59-.43,2.39-.08,1.1,.26,2.22,1.06,3,1.1,1.08,2.8,1.32,4.16,.61,1.14-.6,1.91-1.9,1.87-3.2-.02-.65-.26-1.3-.73-1.77-.43-.43-1.15-.76-1.77-.73s-1.32,.24-1.77,.73-.75,1.1-.73,1.77c0,.05,0,.11,0,.16l.09-.66c-.02,.11-.04,.21-.08,.31l.25-.6c-.04,.08-.07,.14-.12,.21l.39-.51c-.07,.09-.14,.16-.22,.23l.51-.39c-.07,.05-.13,.09-.21,.12l.6-.25c-.08,.03-.15,.05-.23,.07l.66-.09c-.11,.01-.21,.01-.32,0l.66,.09c-.08-.02-.15-.04-.23-.07l.6,.25c-.1-.05-.19-.1-.28-.16l.51,.39c-.06-.05-.12-.11-.17-.17l.39,.51c-.05-.07-.09-.13-.12-.21l.25,.6c-.05-.12-.08-.24-.09-.37l.09,.66c-.03-.3,0-.61,.04-.91l-.09,.66c.09-.64,.25-1.25,.49-1.85l-.25,.6c.1-.24,.21-.49,.35-.72l-.39,.51s.07-.08,.11-.12l-.51,.39,.06-.04-.6,.25,.07-.02-.66,.09h.07c-.22-.03-.44-.06-.66-.09l.07,.02-.6-.25,.06,.03-.51-.39,.05,.05-.39-.51s.06,.08,.08,.13l-.25-.6c.08,.21,.11,.44,.14,.67l-.09-.66c.02,.19,.03,.37,.02,.56l.09-.66c-.02,.13-.05,.25-.1,.37l.25-.6c-.04,.08-.08,.15-.13,.22l.39-.51c-.05,.07-.11,.12-.17,.18l.51-.39c-.07,.05-.13,.09-.21,.12l.6-.25s-.1,.04-.15,.04l.66-.09c-.05,0-.11,.01-.16,0l.66,.09c-.08-.01-.15-.03-.23-.06l.6,.25s-.09-.05-.13-.08l.51,.39c-.06-.05-.12-.11-.17-.17l.39,.51c-.05-.07-.09-.14-.13-.21l.25,.6c-.04-.11-.07-.21-.09-.32l.09,.66c0-.13,0-.25,.01-.38l-.09,.66c.04-.2,.1-.39,.18-.57l-.25,.6c.05-.12,.11-.25,.17-.37-1.52-.2-3.05-.4-4.57-.6,.05,.25,.1,.51,.14,.77l-.09-.66c.12,.89,.12,1.78,0,2.67l.09-.66c-.08,.58-.19,1.18-.41,1.72l.25-.6c-.05,.11-.1,.2-.17,.3l.39-.51c-.06,.07-.11,.12-.18,.18l.51-.39c-.07,.05-.13,.09-.21,.12l.6-.25c-.08,.03-.15,.04-.23,.05l.66-.09c-.08,0-.16,0-.24,0l.66,.09c-.11-.02-.21-.05-.31-.09l.6,.25c-.1-.05-.19-.1-.28-.17l.51,.39c-.09-.08-.16-.16-.24-.25l.39,.51c-.09-.13-.16-.26-.22-.4l.25,.6c-.08-.2-.12-.41-.16-.62l.09,.66c-.06-.44-.05-.88,0-1.32l-.09,.66c.06-.41,.17-.81,.33-1.2l-.25,.6c.03-.06,.05-.13,.08-.19-1.52-.2-3.05-.4-4.57-.6,.13,.33,.21,.66,.27,1.01l-.09-.66c.05,.42,.05,.83,0,1.25l.09-.66c-.05,.34-.14,.67-.27,.99l.25-.6c-.05,.11-.1,.21-.17,.3l.39-.51s-.07,.08-.12,.11l.51-.39s-.08,.05-.13,.07l.6-.25s-.09,.03-.14,.04l.66-.09c-.07,0-.14,0-.22,0l.66,.09c-.08-.01-.14-.03-.22-.05l.6,.25c-.1-.04-.18-.09-.26-.15l.51,.39c-.06-.05-.11-.1-.16-.16l.39,.51c-.05-.07-.09-.14-.12-.22l.25,.6c-.03-.1-.06-.18-.08-.28l.09,.66c-.02-.17-.02-.33,0-.49l-.09,.66c.04-.2,.09-.39,.17-.58l-.25,.6c.29-.66,.65-1.27,.89-1.95,.21-.58,.05-1.41-.25-1.93s-.9-1.01-1.49-1.15c-.64-.15-1.36-.11-1.93,.25s-.92,.85-1.15,1.49h0Z"/></g><path class="cls-5" d="M84.14,65.31c1.96,2.22,4.45,4.05,7.18,5.2,.62,.26,1.25,.47,1.93,.25,.53-.17,.96-.46,1.3-.9s.56-.97,.54-1.51c-.03-.71-.3-1.22-.73-1.77-.81-1.04-1.62-2.08-2.43-3.12-.35-.45-1.22-.76-1.77-.73s-1.07,.19-1.51,.54c-1.05,.81-1.17,2.07-.64,3.23,.47,1.03,.99,1.96,1.7,2.85,.83,1.04,2.22,2.09,3.61,2.09s2.49-.86,2.87-2.15c.19-.66,.22-1.4,.29-2.08,.12-1.25,.13-2.5,.04-3.75s-1.08-2.56-2.5-2.5c-1.29,.06-2.58,1.1-2.5,2.5,.06,1.01,.12,2.03,.18,3.04,.08,1.25,.89,2.28,2.17,2.46,1.1,.15,2.57-.56,2.74-1.79,.14-1,.29-2,.43-2.99h-4.82l.53,1.36c.26,.67,.46,1.38,.98,1.9,.99,1,2.63,1.05,3.65,.06,.82-.8,1.05-2.18,.4-3.17-.58-.88-1.75-1.52-2.82-1.15h-.04c-1.23,.44-2.18,1.75-1.75,3.09,.4,1.22,1.75,2.2,3.08,1.75h.04c-.94-.4-1.88-.78-2.82-1.16l.03,.04-.34-1.26v.06c.25-.59,.49-1.18,.73-1.77l-.04,.03c.81-.21,1.62-.43,2.43-.64l-.08-.02,1.1,.64c.44,.83,.59,1.06,.44,.7l-.1-.25-.2-.51-.4-1.02c-.39-1-1.24-1.89-2.41-1.84-.44,.02-.87,.13-1.26,.34-.48,.25-1.07,.94-1.15,1.49-.14,1-.29,2-.43,2.99,1.64,.22,3.27,.44,4.91,.66-.06-1.01-.12-2.03-.18-3.04h-5c.06,.88,.08,1.77,.04,2.65-.02,.43-.05,.85-.1,1.28,0,.09-.02,.18-.03,.27-.04,.28-.03,.24,.02-.12-.01,.1-.03,.2-.05,.3-.12,.42,.02,.18,.41-.71l1.1-.64h.94c.11,.06,.23,.11,.34,.16-.07-.05-.17-.08-.24-.13-.07-.04-.15-.12-.23-.15,.07,.02,.43,.37,.18,.14-.13-.12-.27-.25-.39-.38-.06-.07-.11-.15-.18-.21,.13,.11,.33,.45,.1,.12-.44-.64-.78-1.35-1.1-2.06-1.31,1.01-2.62,2.02-3.93,3.03,.81,1.04,1.62,2.08,2.43,3.12,1.01-1.31,2.02-2.62,3.03-3.93-1.25-.53-2.44-1.19-3.54-1.98-.13-.09-.26-.19-.39-.28-.15-.11-.09-.06,.19,.15-.08-.07-.17-.13-.25-.2-.25-.2-.49-.41-.72-.63-.51-.47-.99-.96-1.45-1.48-.87-.98-2.66-.95-3.54,0-.96,1.05-.93,2.49,0,3.54h0Z"/><path class="cls-5" d="M137.23,59.3c0,.3-.03,.6-.07,.89l.09-.66c-.08,.59-.22,1.17-.42,1.74,1.64,.22,3.27,.44,4.91,.66,0-.39,.03-.77,.08-1.16l-.09,.66c.11-.77,.31-1.52,.61-2.24l-.25,.6s.04-.09,.06-.13c-1.52-.2-3.05-.4-4.57-.6,.38,.93,.76,1.85,1.14,2.78l.25,.6c.16,.29,.37,.53,.64,.7,.42,.33,.97,.56,1.51,.54,.44-.02,.87-.13,1.26-.34,.29-.16,.53-.37,.7-.64,.22-.24,.37-.52,.45-.85,.2-.88,.4-1.76,.6-2.63-1.39,.37-2.79,.74-4.18,1.1,.05,.04,.08,.07,.12,.12l-.39-.51s.04,.06,.06,.1l-.25-.6c.02,.05,.04,.1,.05,.16l-.09-.66s0,.07,0,.11h5c-.02-.19-.02-.37,0-.56l-.09,.66c.03-.16,.07-.32,.13-.47l-.25,.6,.03-.06c.18-.29,.28-.6,.3-.93,.07-.33,.06-.66-.04-1-.16-.58-.61-1.21-1.15-1.49-.58-.31-1.28-.46-1.93-.25l-.6,.25c-.38,.22-.67,.52-.9,.9-.16,.37-.34,.73-.41,1.14s-.14,.82-.09,1.23c-.01,.34,.06,.67,.22,.96,.1,.31,.27,.58,.52,.8,.43,.43,1.15,.76,1.77,.73s1.32-.24,1.77-.73,.74-1.09,.73-1.77c0-.45-.1-.83-.27-1.24-.14-.33-.16-.37-.38-.65-.1-.13-.19-.27-.31-.37-.31-.31-.68-.52-1.1-.64-.44-.12-.89-.12-1.33,0-.81,.22-1.56,.91-1.75,1.75s-.4,1.76-.6,2.63h4.82c-.38-.93-.76-1.85-1.14-2.78-.16-.4-.33-.79-.64-1.1l-.51-.39c-.29-.18-.6-.28-.93-.3-.22-.06-.44-.06-.66,0-.23,0-.44,.06-.63,.17-.45,.19-.99,.55-1.2,1.02-.33,.76-.64,1.51-.81,2.32s-.28,1.64-.28,2.47c0,.61,.27,1.35,.73,1.77l.51,.39c.29,.18,.6,.28,.93,.3,.22,.06,.44,.06,.66,0,.33-.02,.64-.11,.93-.3l.51-.39c.31-.31,.52-.68,.64-1.1,.37-1.05,.55-2.19,.58-3.3,.02-.63-.29-1.33-.73-1.77s-1.15-.76-1.77-.73-1.32,.24-1.77,.73-.71,1.08-.73,1.77h0Z"/><path class="cls-4" d="M57.47,61.27c1.29-1.15,2.4-2.54,3.26-4.04l-4.66-1.26c.03,.29,.03,.58-.01,.87l.09-.66c-.24,1.5-1.34,2.99-.8,4.55,.32,.92,1.02,1.68,1.99,1.92,.78,.19,1.6,.05,2.3-.35s1.17-1.1,1.44-1.86c.1-.28,.12-.59,.23-.87l-.25,.6,.04-.1-4.66-1.26c-.02,.4-.05,.8-.11,1.2l.09-.66c-.03,.2-.06,.4-.1,.6-.16,.9-.03,1.76,.64,2.43s1.53,.81,2.43,.64c.58-.11,1.18-.48,1.59-.89s.78-1.01,.89-1.59h-4.82c.22,1.1,.62,2.15,1.12,3.15,.26,.54,.93,.99,1.49,1.15,.6,.16,1.4,.09,1.93-.25s1-.86,1.15-1.49c.16-.68,.06-1.3-.25-1.93-.09-.18-.17-.35-.25-.53l.25,.6c-.27-.65-.48-1.33-.62-2.02l-.25-.6c-.16-.29-.37-.53-.64-.7-.42-.33-.97-.56-1.51-.54-.44,.02-.87,.13-1.26,.34-.49,.26-1.05,.93-1.15,1.49-.02,.09-.04,.16-.07,.25l.25-.6c-.02,.05-.05,.1-.09,.15l.39-.51c-.06,.07-.11,.13-.18,.18l.51-.39s-.09,.06-.15,.09l.6-.25c-.08,.04-.16,.06-.25,.07,1.03,1.03,2.05,2.05,3.08,3.08,.15-.81,.25-1.64,.29-2.46,.05-1.05-.81-2.18-1.84-2.41-.44-.1-.89-.1-1.33,0-.54,.12-1.25,.63-1.49,1.15-.16,.34-.32,.68-.4,1.05-.04,.19-.08,.38-.15,.56l.25-.6c-.02,.05-.05,.1-.09,.14l.39-.51s-.07,.09-.12,.12l.51-.39c-.07,.05-.13,.09-.21,.12l.6-.25-.08,.02,.66-.09s-.1,.01-.15,0l.66,.09-.07-.02,.6,.25-.06-.03,.51,.39-.06-.05,.39,.51-.05-.07,.25,.6c-.03-.05-.05-.11-.05-.17l.09,.66c0-.06,0-.13,0-.19l-.09,.66c.1-.65,.4-1.27,.6-1.89,.26-.79,.44-1.67,.34-2.5-.07-.57-.17-1.04-.54-1.51-.32-.41-.78-.78-1.3-.9-1.08-.25-2.26,.16-2.82,1.15-.33,.58-.7,1.14-1.11,1.67l.39-.51c-.53,.67-1.11,1.3-1.75,1.87-.98,.87-.96,2.66,0,3.54,1.04,.96,2.49,.93,3.54,0h0Z"/></g><path class="cls-1" d="M148.18,53.57c3.22,0,3.22-5,0-5s-3.22,5,0,5h0Z"/></svg>