<?xml version="1.0" encoding="UTF-8"?><svg id="Calque_1" xmlns="http://www.w3.org/2000/svg" viewBox="0 0 128 128"><defs><style>.cls-1{stroke-dasharray:0 0 13.12 13.12;}.cls-1,.cls-2,.cls-3,.cls-4,.cls-5,.cls-6,.cls-7,.cls-8{stroke-miterlimit:10;}.cls-1,.cls-7{stroke:#f3d587;stroke-width:2px;}.cls-1,.cls-7,.cls-8{fill:none;}.cls-9,.cls-3{fill:#f3d587;}.cls-10{fill:#d6d6d6;}.cls-2{fill:#fff;}.cls-2,.cls-3,.cls-4,.cls-5,.cls-6{stroke:#000;}.cls-4{fill:#afaff9;}.cls-5{fill:#baa584;}.cls-6{fill:#8987f3;}.cls-8{stroke:#d6d6d6;}</style></defs><rect class="cls-2" x="8.52" y="21.94" width="111.88" height="53.93" transform="translate(-9.12 15.25) rotate(-12.61)"/><g><path class="cls-9" d="M15.18,41.69c.06,.27,.06,.52,0,.74-.06,.23-.17,.43-.33,.61-.16,.18-.35,.33-.58,.46-.23,.13-.49,.22-.77,.28l-3.07,.69-1.42-6.35,3.4-.76c.22-.05,.43-.05,.63,0,.2,.06,.38,.15,.54,.27,.16,.12,.29,.28,.41,.45,.11,.18,.19,.37,.23,.56,.07,.31,.06,.62-.04,.92-.09,.31-.28,.56-.54,.76,.39,.03,.72,.15,.99,.38s.46,.55,.55,.97Zm-1.3,.05c-.03-.11-.07-.22-.13-.31-.06-.1-.13-.18-.22-.24s-.17-.11-.27-.13c-.1-.02-.2-.02-.31,0l-1.9,.42,.37,1.67,1.83-.41c.11-.03,.21-.07,.3-.13s.16-.14,.22-.23c.05-.09,.09-.19,.11-.3,.02-.11,.02-.22,0-.34Zm-3.4-2.84l.36,1.6,1.65-.37c.21-.05,.37-.16,.48-.33,.11-.18,.14-.39,.09-.64-.05-.24-.17-.42-.33-.54-.17-.11-.35-.15-.54-.1l-1.7,.38Z"/><path class="cls-9" d="M16.77,36.39l1.09-.24,3.84,5.81-1.27,.28-.94-1.45-2.22,.5-.23,1.71-1.27,.28,1-6.89Zm2.29,3.58l-1.43-2.3-.35,2.7,1.79-.4Z"/><path class="cls-9" d="M22.71,37.46l.91,4.07-1.23,.28-1.42-6.35,.96-.21,4.24,3.43-.93-4.16,1.23-.28,1.42,6.34-1,.22-4.18-3.34Z"/><path class="cls-9" d="M29.21,40.28l-1.42-6.34,1.23-.28,.67,3.01,1.99-3.62,1.36-.3-1.8,3.36,3.37,2.96-1.39,.31-2.59-2.3-.62,1.03,.42,1.9-1.23,.28Z"/></g><rect class="cls-10" x="10.05" y="41.02" width="70.35" height="2.34" transform="translate(-8.12 10.89) rotate(-12.61)"/><rect class="cls-10" x="87.27" y="44.51" width="29.85" height="13" transform="translate(-8.67 23.53) rotate(-12.61)"/><rect class="cls-10" x="11.01" y="44.85" width="70.35" height="2.34" transform="translate(-8.93 11.19) rotate(-12.61)"/><path d="M111.18,34.49c-.26,.27-.74,.59-1.39,.72-.8,.16-1.58,0-2.2-.47-.46-.34-.83-.87-1.07-1.56l-.62,.13-.1-.49,.57-.12-.03-.15c-.03-.16-.05-.31-.07-.45l-.59,.12-.1-.5,.65-.13c-.02-.72,.15-1.36,.47-1.85,.4-.63,.98-1.06,1.79-1.23,.59-.12,1.08-.04,1.39,.05l-.06,.7c-.28-.1-.72-.14-1.17-.05-.54,.11-.93,.39-1.2,.81-.24,.35-.34,.84-.33,1.39l2.77-.57,.1,.5-2.86,.58c.02,.13,.04,.28,.07,.42l.04,.18,2.88-.59,.1,.49-2.81,.57c.2,.56,.49,.95,.82,1.19,.45,.31,.98,.4,1.52,.29s.94-.4,1.14-.58l.3,.59Z"/><rect class="cls-10" x="11.83" y="48.87" width="70.35" height="2.34" transform="translate(-9.79 11.47) rotate(-12.61)"/><rect class="cls-8" x="14.93" y="58.78" width="26.78" height="13.97" transform="translate(-13.83 7.88) rotate(-12.76)"/><rect class="cls-10" x="42.04" y="54.22" width="11.67" height="2.34" transform="translate(-10.93 11.79) rotate(-12.61)"/><rect class="cls-10" x="42.93" y="58.23" width="11.67" height="2.34" transform="translate(-11.79 12.08) rotate(-12.61)"/><rect class="cls-8" x="83.59" y="28.99" width="29.85" height="10.54" transform="translate(-5.1 22.33) rotate(-12.61)"/><rect class="cls-10" x="16.93" y="72.79" width="38.22" height="2.34" transform="translate(-15.27 9.65) rotate(-12.61)"/><g><line class="cls-7" x1="18.2" y1="82.14" x2="24.05" y2="80.81"/><line class="cls-1" x1="36.85" y1="77.91" x2="107.23" y2="61.97"/><line class="cls-7" x1="113.63" y1="60.52" x2="119.48" y2="59.19"/></g><path class="cls-3" d="M93.8,89.8c-.06-.06-.11-.13-.15-.21-1.46-2.7,3.61-6.97,13.48-13.9,1.05-.74,1.88-1.32,2.26-1.62,1.4-1.11-.25-3.38-.27-3.4-.35-.47-.25-1.13,.22-1.48,.47-.35,1.14-.25,1.48,.22,1,1.36,2.27,4.43-.12,6.32-.43,.34-1.24,.91-2.36,1.69-2.26,1.59-5.68,3.99-8.44,6.28-4.34,3.61-4.4,4.77-4.39,4.89,.26,.51,.07,1.14-.44,1.42-.44,.24-.97,.13-1.29-.22Z"/><path class="cls-5" d="M56.08,113.93l-3.34,3.05-.36,.33c-.37,.35-.96,.32-1.3-.05-.17-.18-.25-.4-.25-.63,0-.25,.1-.5,.3-.68l.36-.33,3.34-3.06c.37-.34,.96-.31,1.3,.06,.35,.38,.32,.96-.05,1.31Z"/><path class="cls-4" d="M82.34,80.88l-27.37,27.14c-2.32,2.12-3.5,4.61-1.37,6.93,2.12,2.32,4.7,1.36,7.02-.77l29.41-24.9-7.7-8.39Z"/><path class="cls-6" d="M90.04,89.27l19.46-17.84c2.32-2.12,2.48-5.73,.35-8.04-2.12-2.32-5.73-2.47-8.05-.35l-19.46,17.84,7.7,8.39Z"/><path class="cls-3" d="M90.91,90.22c-.58,.53-1.47,.49-2-.09l-7.52-8.21c-.53-.58-.49-1.47,.09-2h0c.58-.53,1.47-.49,2,.09l7.52,8.21c.53,.58,.49,1.47-.09,2h0Z"/></svg>