<?xml version="1.0" encoding="UTF-8"?><svg id="Calque_1" xmlns="http://www.w3.org/2000/svg" viewBox="0 0 490.33 313.61"><defs><style>.cls-1,.cls-2,.cls-3,.cls-4,.cls-5,.cls-6,.cls-7,.cls-8,.cls-9,.cls-10,.cls-11,.cls-12,.cls-13,.cls-14,.cls-15,.cls-16,.cls-17,.cls-18,.cls-19,.cls-20,.cls-21,.cls-22,.cls-23,.cls-24,.cls-25,.cls-26,.cls-27,.cls-28,.cls-29,.cls-30,.cls-31,.cls-32,.cls-33,.cls-34,.cls-35{stroke:#000;}.cls-1,.cls-2,.cls-3,.cls-5,.cls-6,.cls-7,.cls-8,.cls-13,.cls-14,.cls-15,.cls-16,.cls-17,.cls-18,.cls-19,.cls-20,.cls-21,.cls-22,.cls-23,.cls-24,.cls-25,.cls-26,.cls-27,.cls-30,.cls-31,.cls-32,.cls-33,.cls-34,.cls-35{stroke-linecap:round;}.cls-1,.cls-2,.cls-3,.cls-5,.cls-6,.cls-7,.cls-8,.cls-13,.cls-14,.cls-15,.cls-16,.cls-17,.cls-18,.cls-19,.cls-20,.cls-21,.cls-22,.cls-26,.cls-30,.cls-31,.cls-32,.cls-33,.cls-34,.cls-35{stroke-linejoin:round;}.cls-1,.cls-9,.cls-18,.cls-19,.cls-26,.cls-31,.cls-32,.cls-34{fill:#fff;}.cls-2,.cls-3,.cls-4,.cls-5,.cls-21,.cls-22,.cls-27,.cls-28,.cls-30,.cls-33,.cls-35{fill:none;}.cls-3{stroke-width:.72px;}.cls-4,.cls-9,.cls-10,.cls-11,.cls-12,.cls-23,.cls-24,.cls-25,.cls-27,.cls-28,.cls-29{stroke-miterlimit:10;}.cls-4,.cls-31,.cls-33{stroke-width:1.5px;}.cls-5,.cls-34{stroke-width:.75px;}.cls-6{fill:#76ac75;}.cls-6,.cls-7,.cls-8,.cls-9,.cls-10,.cls-11,.cls-12,.cls-13,.cls-14,.cls-15,.cls-17,.cls-18,.cls-20,.cls-22,.cls-23,.cls-24,.cls-25,.cls-27,.cls-28,.cls-29{stroke-width:2px;}.cls-36{fill:#fab0b4;}.cls-37,.cls-11,.cls-14,.cls-24{fill:#ff6d75;}.cls-38,.cls-8,.cls-16{fill:#d6d6d6;}.cls-39{fill:#1d1d1b;}.cls-40,.cls-12,.cls-25{fill:#1a2e35;}.cls-7{fill:#afaff9;}.cls-10{fill:#ff735d;}.cls-13{fill:#87ccf3;}.cls-15,.cls-23{fill:#fce9b9;}.cls-16{stroke-width:1.58px;}.cls-17{fill:#baa584;}.cls-19,.cls-21{stroke-width:1.61px;}.cls-20{fill:#f3d587;}.cls-26,.cls-30{stroke-width:2.15px;}.cls-32,.cls-35{stroke-width:1.07px;}</style></defs><path class="cls-18" d="M96.24,240.82l-1.8-1.33-1.34-11.6s-10.26,1.64-10.26,1.78,1.04,10.85,1.04,10.85l-.74,2.97,7.58,.59,4.31-1.04,1.21-2.24Z"/><polygon class="cls-18" points="44.34 243.72 43.88 232.48 55.66 232.34 53.48 243.22 49.62 246.86 44.34 243.72"/><path class="cls-17" d="M57.78,251.16c-.3-.95-3.46-6.54-4.22-7.95-1.54,.66-3.05,1.03-4.73,1.03-1.54,0-3.26-.15-4.49-1.08-.79,1.11-1.74,2.62-2.47,3.85-.66,1.11-1.58,2.27-2.05,3.52-.47,1.26-.26,2.7,.74,3.53,3.32,2.74,12.63,3.42,16.63,.37,1.2-.91,.8-2.63,.6-3.28Z"/><path class="cls-17" d="M108.84,251.02c-1.91,.33-3.95,.18-5.88,.18-5.52,0-11.04-.27-16.55-.53-.88-.04-1.78-.09-2.58-.45-.63-.28-1.18-.75-1.55-1.34-.23-.36-.39-.76-.44-1.18-.02-.15-.02-.29,0-.44,.03-.58,.26-1.16,.47-1.71,.39-1.01,.58-1.75,.97-2.76,4.38,0,8.74-.82,12.97-1.97,.42,.21,.85,.43,1.27,.64l7.32,3.69c.99,.5,1.98,1,2.97,1.5,.24,.12,.47,.24,.71,.36,.7,.35,1.7,.57,2.21,1.22,.12,.15,.21,.32,.26,.51,.42,1.47-.95,2.08-2.15,2.28Z"/><path class="cls-13" d="M95.18,233.98s-3.73,1.51-8.18,2.16c-4.43,.62-4.76,.08-4.76,.08l-8.08-53.39s-2.27-5.87-5.3-13.79c-.23-.62-.49-1.24-.72-1.9-1.05-2.7-2.16-5.59-3.28-8.53,.12,8.64,.21,17.21,.31,25.48l-9.09,54.66c-3.54,1.26-3.79,1.2-7.59,1.2-3.52,0-3.5-.08-6.68-1.34,1.44-19.01,3.98-54.03,3.98-54.03,0,0-7.98-36.96-6.06-56.13,.93-9.25,5.05-16.8,7.89-21.85,1.79,1.5,4.76,2.72,6.97,3.26,3.67,.91,5.17,1.05,8.86,.91,.58-.06,1.19-.1,1.71-.16,5.34-.6,8.76-1.2,8.76-1.2,0,0,7.42,16.45,10.41,26.32,2.97,9.81,7.73,48.01,7.73,48.01l3.13,50.25Z"/><path class="cls-18" d="M71.06,59.31c-.52,.23-1.07,.41-1.61,.54-4.56,1.09-9.75-.85-11.52-1.59l.54-7.75,.06-.87,11.98-2.31,.31,2.49,1.01,8.43c-.06,.16-.1,.33-.16,.47-.04,.1-.06,.19-.1,.27-.02,.04-.02,.08-.04,.12h-.02l-.47,.21Z"/><g><path class="cls-18" d="M101.33,136.41c.03,.38,.03,.75,.03,1.13-.02,1.01-.07,2.02-.08,3.04,0,.44,0,.88,.13,1.3,.13,.42,.39,.82,.78,1.01s.92,.13,1.2-.21c.24-.3,.24-.72,.23-1.11-.02-.51-.03-1.01-.05-1.52-.02-.68-.05-1.37-.1-2.05-.11-1.38-.38-2.82-1.24-3.91-.27-.34-1.58-1.23-1.58-.23,0,.39,.31,.82,.43,1.18,.14,.44,.23,.89,.27,1.35Z"/><path class="cls-18" d="M102.13,137.05c.03,.38,.03,.75,.03,1.13-.02,1.01-.07,2.02-.08,3.04,0,.44,0,.88,.13,1.3s.39,.82,.78,1.01,.92,.13,1.2-.21c.24-.3,.24-.72,.23-1.11-.02-.51-.03-1.01-.05-1.52-.02-.68-.05-1.37-.1-2.05-.11-1.38-.38-2.82-1.24-3.91-.27-.34-1.58-1.23-1.58-.23,0,.39,.31,.82,.43,1.18,.14,.44,.23,.89,.27,1.35Z"/><path class="cls-31" d="M92.21,123.1c.12-.58,1.88-1.02,2.67-2.16,2.49,1.46,6.68,9.42,7.71,11.52,.7,1.42,1.43,2.89,1.73,4.45,.32,1.66,.38,3.34,.46,5.02,.01,.26,.03,.53-.06,.78-.15,.45-.74,.74-1.15,.43-.89-.67-.95-2.06-1.03-3.08-.08-.95-.1-1.91-.33-2.84-.23-.91-.71-1.65-1.32-2.36-.44-.51-.85-1.03-1.3-1.54-.17-.19-.35-.39-.55-.55-.27-.23-.57-.4-.92-.45-.29-.04-.73,0-.96,.22-.24,.24-.11,.61-.05,.89,.07,.34,.21,.65,.36,.96,.26,.53,.57,1.06,.67,1.64,.02,.1,.03,.2,.03,.3,.04,1.08-1.04,2.39-1.96,1.21-.2-.25-.33-.55-.47-.84-.65-1.39-1.6-2.64-1.99-4.13-.25-.95-.4-1.92-.54-2.89-.55-3.65-1.36-4.89-1.02-6.6Z"/><path class="cls-18" d="M99.05,132.78c-.13-.19-.27-.37-.42-.55-.27-.31-.58-.6-.97-.73-.39-.13-.86-.07-1.13,.24-.22,.26-.26,.64-.21,.98,.12,.83,.68,1.53,1.17,2.21,.25,.35,.5,.72,.66,1.12-.1-.58-.42-1.11-.67-1.64-.15-.31-.29-.62-.36-.96-.06-.28-.19-.65,.05-.89,.22-.22,.67-.26,.96-.22,.35,.05,.65,.23,.92,.45Z"/></g><path class="cls-22" d="M62.83,16.44s.01,2.24-.81,3.74h-.02"/><path class="cls-22" d="M58.49,21.12c-1.77-1.02-2.96-3.61-2.96-3.61"/><path class="cls-22" d="M52.9,41.64h-.02c-.21-.04-1.66-.42-2.51-2.71-.92-2.47-1.98-2.19-2.07-4.74-.06-2.41,2.44-1.37,2.71-1.23"/><path class="cls-22" d="M73.36,19.61s-1.73,1.03-3.65,1.38"/><path class="cls-18" d="M54.84,22.22c1.1,.06,2.38-.2,3.66-1.1,.53,.32,1.09,.48,1.7,.42,.85-.09,1.41-.66,1.81-1.36,.02,.02,.04,.04,.06,.04,.24,.23,1.77,1.57,3.66-.26,.99,1.18,2.54,1.31,3.98,1.03,.86,.67,2.04,.59,2.04,.59,.07,.1,.16,.21,.21,.31,3.54,4.99,3.88,8.38,3.91,8.75,.22-.89,.37-1.74,.49-2.54-.19,1.5-.47,2.58-.54,2.81v.02s-.02,.04-.02,.04h.02c.05,1.42,.07,5.08-.51,8.86-.49,3.15-1.44,6.39-3.17,8.48-4,4.86-6.59,4.96-6.98,4.93-.4,.09-3.13,.51-7.85-3.7-2.03-1.79-3.47-4.86-4.43-7.89-1.16-3.65-1.7-7.27-1.87-8.68h.02c-.03-.16-.04-.32-.04-.51,.05,.14,.1,.22,.1,.22-.05-.59-.05-1.18-.03-1.75,.38-2.94,3.06-7.8,3.39-8.64l.39-.07Z"/><path class="cls-22" d="M51.06,30.93c-.08,.56-.1,1.07-.06,1.53"/><path class="cls-22" d="M51.03,32.96s0-.02-.02-.04v-.02c-.12-.28-.76-1.71-1.2-3.67v-.06c-.88-3.92-.91-9.83,5.6-12.47,0,0,.4-2.15,3.15-1.81,0,0,3.19-3.48,7.03-.63,2.67-.76,3.39,1.3,3.39,1.3,7.35,1.73,7.82,8.36,7.4,12.32-.01,.08-.03,.14-.02,.21"/><path class="cls-22" d="M72.02,22.29s3.78,5.5,3.78,8.67"/><path class="cls-22" d="M50.95,32.36v.02c0,.06,.02,.24,.06,.52v.02s0,.04,0,.04"/><path class="cls-22" d="M75.83,30.96v-.04"/><path class="cls-22" d="M75.8,30.36s.02,.2,.02,.55"/><path class="cls-22" d="M75.29,39.83h.02c.2-.08,1.57-.67,2.06-3.07,.53-2.58,1.62-2.46,1.32-5-.31-2.4-2.62-.98-2.87-.79"/><path class="cls-22" d="M67.28,17.78c-.48,.89-.96,1.56-1.41,2.02-.06,.07-.09,.13-.15,.15"/><path class="cls-22" d="M62.06,20.22l-.04-.04"/><path class="cls-18" d="M64.62,30.65s.85,7.61,2.5,11.43c0,0-.32,.78-2.8,.3"/><ellipse class="cls-18" cx="59.51" cy="34.29" rx=".26" ry=".76" transform="translate(-2.47 4.69) rotate(-4.42)"/><ellipse class="cls-18" cx="69.99" cy="33.29" rx=".26" ry=".76" transform="translate(-2.36 5.5) rotate(-4.42)"/><line class="cls-18" x1="64.87" y1="158.59" x2="64.32" y2="135.22"/><path class="cls-6" d="M40.1,92.13c1.75-1.85,3.38-3.79,4.86-5.81,.08,.87,.04,2.76-.08,5.15-.19,4.8-.64,11.61-.91,15.95,1.03,1.5,1.98,3.05,2.87,4.6,.56,.97,.64,2.16,.19,3.19-.06,.14-.12,.29-.19,.43,.08,.04,.14,.06,.21,.08,8.33,2.66,17.4,2.97,25.93,1.01,1.73-.39,3.54-.95,4.6-2.45,.17-.25,.35-.52,.47-.82,2.21,2.78,4.56,5.48,7.07,8.02,2.14,2.16,5.46,2.64,8.14,1.2,2-1.07,3.15-3.11,3.15-5.21,0-.99-.25-2-.8-2.93-1.5-2.56-3.05-4.97-4.78-7.44-.95-1.36-2.72-3.65-3.69-4.89-.43-.54-.64-1.24-.6-1.94,.29-4.8,2.77-25.83-3.09-33.83-.2-.27-.35-.6-.58-.85-2.5-2.54-7.52-5.59-10.68-6.86-.21,.14-.43,.25-.64,.37h-.02l-.47,.21c-.52,.23-1.07,.41-1.61,.54-4.56,1.09-9.75-.85-11.52-1.59-.41-.17-.62-.29-.62-.29-2.86,.37-5.67,.99-8.41,1.9-2.99,1.01-5.61,2.19-8.1,4.18-2.51,2.04-4.74,4.41-6.86,6.86-1.03,1.18-2.02,2.39-3.01,3.61-.49,.58-.97,1.17-1.46,1.77"/><path class="cls-18" d="M72.19,58.73c-.21,.14-.43,.25-.64,.37h-.02c-.16,.08-.31,.16-.47,.21-.52,.23-1.07,.41-1.61,.54l1.71-.7,.43-.17,.6-.25Z"/><path class="cls-22" d="M81.34,86.42c-.1,2.78-1.79,20.37-2.25,23.13-.27,1.61-.52,3.36-1.5,4.72-1.07,1.5-2.87,2.06-4.6,2.45"/><path class="cls-31" d="M63.97,125.36s-5.66-2.68-5.66-2.68c-.84-.39-1.7-.73-2.52-1.16-.41-.22-.82-.46-1.19-.74-.34-.26-.79-.61-.16-.69,.41-.05,.86,.02,1.28,.05,.65,.05,1.37,.1,2-.05,.36-.09,.71-.31,.86-.65,.18-.45-.05-.97-.43-1.28-.01-.01-.03-.02-.04-.03-.4-.3-.91-.41-1.4-.49-1.58-.29-3.22-.37-4.77-.76-.9-.23-1.69-.61-2.61-.75-.75-.11-1.51-.15-2.27-.11l-1.02-1.13c.03-.05,.05-.09,.05-.09-.31-.36-.63-.71-.94-1.07-1.28,2.02-2.57,4.04-3.86,6.05,.81,.63,1.32,1.01,1.33,.99,0,0,0-.01,.02-.03,.56,2.82,2.55,5.74,4.85,7.17,.23,.15,.48,.28,.67,.48,.15,.15,.26,.34,.37,.52,.63,1.08,1.22,2.18,1.77,3.3,.35,.7,.78,2.38,1.76,2.4,.68,.02,1.15-.73,.85-1.32-.55-1.09-1.11-2.17-1.7-3.24-.22-.4-.48-.78-.64-1.21-.05-.13-.21-.45-.13-.6,.42-.75,1.46,.66,1.72,.96,.5,.57,.99,1.13,1.5,1.69,.71,.8,1.43,1.58,2.16,2.36,.46,.49,1.04,1.43,1.84,1.09,.55-.24,.73-1,.31-1.44-.23-.24-.46-.49-.69-.74-.04-.09-.09-.18-.16-.26-.78-.9-1.53-1.81-2.26-2.75-.36-.47-.73-.94-1.08-1.41-.15-.2-1.05-.92-.74-1.21,.35-.33,1.34,.71,1.59,.88,.72,.48,1.44,.97,2.16,1.45,.96,.65,1.9,1.33,2.87,1.97,.6,.4,1.62,1.4,2.34,.72,.38-.36,.36-1.04-.04-1.38-.04-.05-.08-.1-.13-.15-1.21-1.18-2.58-2.18-3.92-3.2-.66-.5-1.32-1-1.95-1.53-.33-.28-.65-.55-.96-.85-.13-.12-.52-.36-.36-.57,.15-.2,.6,0,.76,.06,.44,.17,.84,.49,1.27,.65,.75,.27,1.5,.54,2.24,.81,1.04,.38,2.08,.77,3.11,1.16,.62,.23,1.55,.9,2.17,.34,.45-.4,.35-1.27-.2-1.54Z"/><path class="cls-6" d="M40.1,92.13c-1.53,1.63-3.13,3.19-4.74,4.72,3.28,3.44,6.16,6.93,8.6,10.57,1.03,1.5,1.98,3.05,2.87,4.6,.56,.97,.64,2.16,.19,3.19-.06,.14-.12,.29-.19,.43-.66,1.55-1.4,3.07-2.29,4.53-.72,1.18-2.21,1.63-3.48,1.05-4.49-2.08-8.68-4.88-12.49-7.98-3.2-2.62-6.47-5.48-8.45-9.17-3.32-6.18-.83-13.23,2.6-18.76,1.96-3.19,4.35-6.12,6.74-9.01"/><line class="cls-22" x1="35.36" y1="96.85" x2="29.48" y2="91.63"/><line class="cls-8" x1="66.5" y1="60.25" x2="64.88" y2="117.51"/><line class="cls-8" x1="63.67" y1="66.34" x2="69.99" y2="66.34"/><path class="cls-22" d="M67.44,47.48s-2.14,1.41-4.9-.45"/><path class="cls-18" d="M152.59,159.73c16.77,2.24,10.75-17.49,9.12-20.11-1.62-2.62,.18-2.12-3.16-7.35-3.34-5.23-8.5-3.36-8.5-3.36-2.71-1.26-12.24-1.47-14.5,3.77-2.25,5.23-4.38,8.18-6.88,13.08,0,0-4.94,12.32,13.56,16.21"/><path class="cls-18" d="M170.58,144.54s-1.92-.92-3.67-4.16c-1.12-2.08-4.46-4.74-3.07-5.18,1.39-.43,3.52,3.08,3.92,2.08,.4-1.01-3.58-8.62-2.32-9.01,1.26-.39,4.55,7.01,4.91,6.11,.36-.9-3.36-7.37-1.59-7.92,1.78-.55,3.7,7.96,4.66,7.67,.95-.3-.44-6.79,1-7.24,1.43-.44,1.23,8.03,1.74,7.79,.28-.13,1.55-4.24,2.33-3.93,.88,.35-.9,8.55-.44,10.63,.84,3.85,4.85,23.21,1.97,26.09-3.14,3.14-18.51,12.1-22.69,10.86-4.19-1.24-6.58-5.38-5.58-7.92,1.01-2.54,20.78-8.26,21.1-9.06,.32-.8-2.26-16.82-2.26-16.82Z"/><path class="cls-18" d="M187.61,276.73s3.87,15.78,6.75,18.25c2.88,2.48,12.29,7.22,9.83,7.73-2.46,.51-20.67,.93-20.17-2.1,.5-3.04,1.02-4.97,1.02-4.97l-4.82-11.27,7.39-7.63Z"/><path class="cls-18" d="M145.15,289.95s-.41,3.99-.41,5.75,1.64,6.72,.88,7.48c-.76,.76-22.45,.67-22.45-.05s3.83-2.88,9.04-4.37c5.21-1.49,6.98-7.26,5.63-10.57l7.31,1.76Z"/><path class="cls-18" d="M168.69,223.25l3.89,3.45s4.38,11.86,4.63,12.64c.35,1.09,14.54,46.8,14.54,46.8l-9.88,3.56s-9.8-19.09-11.42-25.72c-1.62-6.63-17.86-34.37-17.86-34.37l16.1-6.36Z"/><path class="cls-18" d="M151.51,230.29l-4.74,60.58h-10.96s-3.92-45.34-2.57-61.26l18.26,.68Z"/><path class="cls-14" d="M132.3,169.27s6.97-1.83,14.88-2.27c4.1-.23,9.61,.64,9.61,.64,0,0,5.01,11.23,6.49,20.43,1.49,9.2,9.61,38.69,9.61,38.69,0,0-16.51,12.72-40.59,4.33v-61.83Z"/><path class="cls-18" d="M151.06,159.21s-.22,7.18,.46,7.86c.67,.67,1.62,1.79,.62,3.51-.99,1.71-5.3,.62-7.31-.36-1.93-.94-3.17-2.69-3.17-2.69l1-11.38,8.39,3.07Z"/><path class="cls-18" d="M156.38,155.69c-3.42,6.23-7.79,4.69-9.61,4.07-1.8-.64-5.35-2.03-7.17-7.85-.15-.51-.3-1.07-.39-1.69-.13,.68-.51,1.31-1.39,1.39-2.14,.21-4.13-6.16-1.54-6.98,1.69-.53,2.35,1.03,2.63,2.2,0-6.14,2.61-13.52,10.44-12.6,0,0,4.04-.09,6.12,3.06,2.08,3.17,4.32,12.18,.9,18.4Z"/><path class="cls-18" d="M132.3,169.27s-3.16,.27-3.52,6.43c-.14,2.43-6.33,37.65,3.65,45.72l-.13-52.15Z"/><line class="cls-7" x1="135.06" y1="297.31" x2="144.75" y2="295.7"/><line class="cls-7" x1="185.05" y1="295.63" x2="192.9" y2="292.84"/><ellipse class="cls-16" cx="136.81" cy="147.87" rx="3.66" ry="4.62"/><path class="cls-16" d="M135.96,143.32s.07-6.87,6.58-9.68c4.1-1.77,9.91-1.41,12.35,2.81,0,0-13.68-5.92-15.82,7.54,0,0-1.48-1.11-3.11-.67Z"/><g><path class="cls-8" d="M229.83,42.71s0-.02-.02-.04v-.02c-.13-.29-.8-1.79-1.26-3.85v-.06c-.92-4.11-.95-10.32,5.87-13.08,0,0,.42-2.25,3.31-1.9,0,0,3.34-3.65,7.37-.66,2.8-.79,3.56,1.37,3.56,1.37,7.71,1.81,8.21,8.77,7.76,12.92-.01,.09-.03,.15-.03,.22"/><path class="cls-18" d="M277.26,260.79l-1.89-1.39-1.4-12.17s-10.76,1.72-10.76,1.87,1.09,11.39,1.09,11.39l-.78,3.12,7.95,.62,4.52-1.09,1.27-2.35Z"/><polygon class="cls-18" points="222.81 263.83 222.33 252.04 234.68 251.89 232.4 263.31 228.35 267.13 222.81 263.83"/><path class="cls-17" d="M236.91,271.64c-.32-1-3.63-6.87-4.43-8.34-1.62,.69-3.2,1.08-4.97,1.08-1.62,0-3.42-.15-4.72-1.13-.83,1.16-1.83,2.75-2.59,4.04-.69,1.17-1.66,2.39-2.15,3.69-.5,1.32-.28,2.84,.78,3.71,3.48,2.88,13.25,3.59,17.45,.39,1.26-.96,.84-2.76,.63-3.44Z"/><path class="cls-17" d="M290.48,271.49c-2,.35-4.14,.19-6.17,.19-5.79,0-11.58-.28-17.37-.56-.92-.05-1.87-.1-2.71-.47-.66-.3-1.24-.79-1.62-1.4-.24-.37-.41-.8-.46-1.24-.02-.16-.02-.31,0-.46,.04-.61,.27-1.21,.49-1.79,.41-1.06,.61-1.84,1.02-2.9,4.6,0,9.17-.86,13.61-2.07,.44,.22,.89,.45,1.33,.67l7.68,3.87c1.04,.52,2.08,1.05,3.12,1.57,.25,.13,.5,.25,.75,.38,.73,.37,1.78,.6,2.32,1.28,.12,.15,.22,.33,.28,.54,.44,1.54-.99,2.18-2.26,2.39Z"/><path class="cls-13" d="M276.15,253.61s-3.91,1.59-8.58,2.26c-4.65,.65-4.99,.08-4.99,.08l-8.48-56.02s-2.39-6.15-5.56-14.47c-.24-.65-.51-1.3-.75-2-1.1-2.83-2.26-5.87-3.44-8.95,.12,9.07,.22,18.06,.33,26.74l-9.54,57.34c-3.71,1.32-3.97,1.26-7.97,1.26-3.69,0-3.67-.08-7.01-1.41,1.51-19.95,4.18-56.69,4.18-56.69,0,0-8.38-38.78-6.36-58.89,.98-9.7,5.3-17.63,8.27-22.93,1.88,1.57,4.99,2.85,7.32,3.42,3.85,.96,5.42,1.1,9.29,.96,.61-.06,1.24-.1,1.79-.16,5.6-.63,9.19-1.26,9.19-1.26,0,0,7.79,17.26,10.92,27.61,3.12,10.29,8.11,50.37,8.11,50.37l3.28,52.72Z"/><path class="cls-18" d="M250.84,70.35c-.55,.24-1.12,.43-1.69,.57-4.79,1.14-10.23-.9-12.08-1.67l.57-8.13,.06-.92,12.57-2.43,.33,2.61,1.06,8.84c-.06,.16-.1,.35-.16,.49-.04,.1-.06,.2-.1,.29-.02,.04-.02,.08-.04,.12h-.02l-.49,.22Z"/><g><path class="cls-31" d="M282.6,151.24c.03,.39,.03,.79,.03,1.19-.02,1.06-.08,2.12-.09,3.19,0,.46,0,.93,.13,1.37,.13,.44,.41,.86,.82,1.06s.97,.13,1.26-.22c.25-.32,.25-.76,.24-1.16-.02-.53-.04-1.06-.05-1.59-.02-.72-.05-1.43-.11-2.15-.12-1.45-.4-2.96-1.3-4.1-.29-.36-1.66-1.29-1.66-.24,0,.41,.33,.86,.45,1.24,.15,.46,.24,.94,.29,1.42Z"/><path class="cls-31" d="M283.44,151.92c.03,.39,.03,.79,.03,1.19-.02,1.06-.08,2.12-.09,3.19,0,.46,0,.93,.13,1.37,.13,.44,.41,.86,.82,1.06s.97,.13,1.26-.22c.25-.32,.25-.76,.24-1.16-.02-.53-.04-1.06-.05-1.59-.02-.72-.05-1.43-.11-2.15-.12-1.45-.4-2.96-1.3-4.1-.29-.36-1.66-1.29-1.66-.24,0,.41,.33,.86,.45,1.24,.15,.46,.24,.94,.29,1.42Z"/><path class="cls-31" d="M273.04,137.28c.12-.61,1.98-1.07,2.81-2.27,2.61,1.53,7.01,9.88,8.09,12.09,.73,1.49,1.5,3.03,1.81,4.67,.34,1.74,.39,3.5,.48,5.27,.01,.28,.03,.56-.06,.82-.16,.47-.77,.77-1.2,.45-.93-.7-.99-2.16-1.08-3.23-.08-1-.11-2.01-.35-2.98-.24-.96-.75-1.73-1.38-2.47-.46-.53-.89-1.08-1.37-1.61-.18-.2-.37-.41-.58-.58-.28-.24-.6-.42-.96-.47-.3-.04-.77,0-1,.24-.25,.25-.12,.64-.05,.93,.08,.35,.22,.68,.38,1.01,.27,.55,.6,1.11,.71,1.72,.02,.1,.03,.21,.04,.31,.04,1.14-1.09,2.5-2.06,1.27-.21-.26-.35-.58-.49-.88-.68-1.45-1.67-2.77-2.09-4.33-.26-1-.42-2.01-.57-3.03-.57-3.83-1.43-5.13-1.07-6.92Z"/><path class="cls-18" d="M280.21,147.43c-.14-.2-.28-.39-.44-.58-.28-.33-.61-.63-1.01-.77-.41-.14-.91-.07-1.19,.25-.23,.27-.27,.67-.22,1.02,.13,.87,.71,1.6,1.23,2.32,.27,.37,.52,.75,.7,1.17-.1-.61-.44-1.17-.71-1.72-.16-.32-.31-.65-.38-1.01-.06-.3-.2-.69,.05-.93,.23-.23,.7-.28,1-.24,.36,.05,.68,.24,.96,.47Z"/></g><path class="cls-22" d="M242.21,25.37s.01,2.35-.85,3.93h-.02"/><path class="cls-22" d="M237.66,30.29c-1.85-1.07-3.11-3.79-3.11-3.79"/><path class="cls-22" d="M231.79,51.82h-.02c-.22-.05-1.74-.44-2.63-2.85-.97-2.59-2.08-2.29-2.18-4.97-.07-2.53,2.38-1.44,2.67-1.29"/><path class="cls-22" d="M253.26,28.7s-1.82,1.08-3.83,1.45"/><path class="cls-18" d="M233.82,31.44c1.16,.06,2.5-.21,3.84-1.15,.56,.34,1.15,.51,1.78,.44,.89-.09,1.48-.69,1.9-1.43,.02,.02,.04,.04,.07,.04,.25,.24,1.86,1.65,3.84-.28,1.03,1.24,2.67,1.37,4.18,1.08,.91,.7,2.14,.62,2.14,.62,.07,.1,.17,.22,.22,.32,3.71,5.24,4.07,8.79,4.1,9.18,.23-.93,.39-1.82,.52-2.66-.2,1.57-.49,2.7-.56,2.94v.02s-.02,.04-.02,.04h.02c.05,1.49,.07,5.33-.54,9.3-.51,3.3-1.51,6.71-3.32,8.9-4.19,5.1-6.91,5.21-7.32,5.17-.42,.1-3.29,.53-8.24-3.89-2.13-1.88-3.64-5.09-4.65-8.28-1.21-3.83-1.78-7.63-1.96-9.11h.02c-.03-.17-.05-.34-.04-.53,.05,.15,.05-1.01,.07-1.61,.4-3.08,3.22-8.18,3.55-9.06l.41-.08Z"/><path class="cls-30" d="M229.86,40.58c-.08,.58-.11,1.12-.07,1.61"/><path class="cls-22" d="M251.85,31.52s3.97,5.77,3.97,9.1"/><path class="cls-30" d="M229.74,42.08v.02c0,.06,.02,.25,.07,.55v.02s0,.04,0,.04"/><path class="cls-30" d="M255.84,40.61v-.04"/><path class="cls-30" d="M255.82,39.98s.02,.21,.02,.57"/><path class="cls-22" d="M255.28,49.92h.02c.21-.08,1.65-.71,2.16-3.22,.56-2.71,1.7-2.58,1.39-5.25-.32-2.51-2.75-1.02-3.01-.83"/><path class="cls-22" d="M246.88,26.78c-.5,.93-1,1.64-1.48,2.12-.06,.07-.1,.14-.16,.16"/><path class="cls-22" d="M241.4,29.34l-.05-.04"/><path class="cls-19" d="M244.08,40.28s.89,7.98,2.63,11.99c0,0-.34,.82-2.93,.31"/><ellipse class="cls-32" cx="238.73" cy="44.1" rx=".28" ry=".8" transform="translate(-2.69 18.55) rotate(-4.42)"/><ellipse class="cls-32" cx="249.72" cy="43.05" rx=".28" ry=".8" transform="translate(-2.58 19.39) rotate(-4.42)"/><line class="cls-18" x1="244.34" y1="174.52" x2="243.77" y2="149.99"/><path class="cls-6" d="M218.36,104.79c1.83-1.94,3.55-3.97,5.09-6.09,.08,.92,.04,2.89-.08,5.4-.2,5.03-.67,12.19-.96,16.73,1.08,1.57,2.08,3.2,3.02,4.83,.59,1.02,.67,2.26,.2,3.34-.06,.14-.12,.31-.2,.45,.08,.04,.14,.06,.22,.08,8.74,2.79,18.26,3.12,27.2,1.06,1.81-.41,3.71-1,4.83-2.57,.18-.26,.37-.55,.49-.86,2.32,2.91,4.79,5.75,7.42,8.42,2.24,2.26,5.73,2.77,8.54,1.26,2.1-1.12,3.3-3.26,3.3-5.46,0-1.04-.26-2.1-.83-3.08-1.57-2.69-3.2-5.22-5.01-7.8-1-1.43-2.85-3.83-3.87-5.14-.45-.57-.67-1.3-.63-2.04,.31-5.03,2.91-27.1-3.24-35.5-.21-.29-.37-.63-.61-.9-2.63-2.67-7.89-5.87-11.21-7.19-.22,.14-.45,.26-.67,.39h-.02l-.49,.22c-.55,.24-1.12,.43-1.69,.57-4.79,1.14-10.23-.9-12.08-1.67-.43-.18-.65-.31-.65-.31-3,.39-5.95,1.04-8.82,2-3.14,1.06-5.89,2.3-8.5,4.38-2.63,2.14-4.97,4.63-7.19,7.19-1.08,1.24-2.12,2.51-3.16,3.79-.51,.61-1.02,1.22-1.53,1.85"/><path class="cls-18" d="M252.02,69.74c-.22,.14-.45,.26-.67,.39h-.02c-.16,.08-.33,.16-.49,.22-.55,.24-1.12,.43-1.69,.57l1.79-.73,.45-.18,.63-.26Z"/><path class="cls-22" d="M261.62,98.8c-.1,2.91-1.88,21.38-2.36,24.27-.29,1.69-.55,3.53-1.57,4.95-1.12,1.57-3.02,2.16-4.83,2.57"/><path class="cls-31" d="M243.4,139.65s-5.94-2.81-5.94-2.81c-.88-.41-1.78-.77-2.64-1.22-.43-.23-.86-.48-1.25-.77-.36-.27-.83-.64-.17-.72,.44-.05,.9,.02,1.34,.06,.68,.05,1.43,.11,2.1-.06,.38-.09,.75-.32,.9-.68,.19-.47-.05-1.02-.45-1.34-.01-.01-.03-.02-.04-.03-.42-.31-.95-.43-1.47-.52-1.65-.3-3.38-.39-5.01-.8-.94-.24-1.77-.64-2.74-.79-.79-.12-1.59-.15-2.39-.12l-1.07-1.19c.03-.06,.05-.09,.05-.09-.33-.37-.66-.75-.99-1.12-1.35,2.12-2.7,4.24-4.05,6.35,.85,.66,1.38,1.06,1.39,1.04,0,0,0-.01,.02-.03,.58,2.96,2.67,6.02,5.09,7.52,.24,.15,.5,.3,.7,.5,.16,.16,.27,.36,.39,.55,.66,1.13,1.28,2.29,1.86,3.47,.36,.74,.82,2.5,1.85,2.52,.71,.02,1.21-.76,.89-1.39-.58-1.14-1.17-2.27-1.78-3.4-.23-.42-.5-.82-.67-1.27-.05-.14-.22-.47-.14-.63,.44-.79,1.53,.69,1.81,1.01,.52,.6,1.04,1.19,1.57,1.77,.75,.84,1.5,1.66,2.26,2.47,.48,.51,1.09,1.5,1.93,1.14,.58-.25,.77-1.05,.33-1.51-.25-.26-.49-.51-.73-.77-.04-.1-.1-.19-.17-.28-.82-.94-1.61-1.9-2.38-2.88-.38-.49-.76-.98-1.14-1.48-.16-.21-1.11-.97-.78-1.27,.37-.35,1.4,.74,1.66,.92,.76,.51,1.51,1.01,2.26,1.52,1.01,.68,2,1.39,3.01,2.07,.63,.42,1.7,1.47,2.46,.75,.4-.38,.38-1.09-.04-1.45-.04-.05-.08-.11-.14-.16-1.27-1.23-2.7-2.29-4.11-3.36-.69-.52-1.38-1.05-2.05-1.61-.34-.29-.68-.58-1.01-.89-.13-.13-.54-.38-.38-.6,.16-.21,.63,0,.8,.07,.47,.18,.88,.52,1.34,.68,.78,.28,1.57,.57,2.35,.85,1.09,.4,2.18,.81,3.27,1.22,.65,.24,1.63,.95,2.28,.36,.47-.42,.37-1.34-.21-1.61Z"/><path class="cls-6" d="M218.36,104.79c-1.61,1.71-3.28,3.34-4.97,4.95,3.44,3.61,6.46,7.28,9.03,11.09,1.08,1.57,2.08,3.2,3.02,4.83,.59,1.02,.67,2.26,.2,3.34-.06,.14-.12,.31-.2,.45-.69,1.63-1.47,3.22-2.4,4.75-.75,1.24-2.32,1.71-3.65,1.1-4.71-2.18-9.11-5.11-13.1-8.38-3.36-2.75-6.79-5.75-8.86-9.62-3.48-6.48-.88-13.88,2.73-19.69,2.06-3.34,4.57-6.42,7.07-9.46"/><line class="cls-8" x1="246.06" y1="70.92" x2="244.36" y2="131.42"/><line class="cls-8" x1="243.09" y1="77.73" x2="249.72" y2="77.73"/><circle class="cls-21" cx="238.83" cy="44.29" r="3.83"/><circle class="cls-21" cx="250.16" cy="43.14" r="3.83"/><path class="cls-21" d="M241.72,41.71s2.65-2.08,5.09-.5"/><line class="cls-35" x1="240.13" y1="36.39" x2="246.45" y2="35.54"/><line class="cls-35" x1="239.49" y1="33.88" x2="245.8" y2="33.03"/><path class="cls-21" d="M246.98,57.51c-1.04,.48-2.71,.76-4.83-.53"/><path class="cls-21" d="M239.74,57.73s-.97-1,.38-2.53"/><path class="cls-21" d="M248.75,55.66s1.3,.51,.71,2.46"/><line class="cls-19" x1="234.68" y1="43.82" x2="228.69" y2="42.14"/><line class="cls-26" x1="254.51" y1="41.63" x2="256.44" y2="40.13"/></g><path class="cls-38" d="M430.89,131.46c-1.08,2.94-2.6,7.63-2.96,11.35-.43-.56-.85-1.19-1.25-1.83-1.4-2.3-4.29-5.4-4.29-5.4,1.7-1.69,.66-5.29-1.32-5.96-1.98-.67-3.33,1.25-5.14,2.49-1.99,1.35-5.79-1.35-6.96-2.3-1.19-.95-7.2-7.2-7.2-7.2-.87,1.38-2.19,3.92-1.82,7.34-1.37-.37-3.52-1.38-3.71-4.18-.37-5.01,3.95-6.17,3.95-6.17,1.4-4.39,11.07-9.1,21.74-6.25,5.43,1.45,7.31,5.21,7.52,8.89,0,0,2.97,4.97,1.43,9.22Z"/><path class="cls-20" d="M461.46,212.56s-1.94,2.23-4.69,5.35c-2.11,2.38-4.66,5.27-7.15,8.07-4.69,5.24-9.18,10.11-9.98,10.57-.76,.42-1.19,.21-1.62-.37-.59-.79-1.17-2.27-2.57-3.6-1.12-1.08-2.52-1.53-3.33-2.01-.42-.24-.67-.5-.67-.84,0-.21,.64-1.25,1.72-2.83-3.52-.31-6.2-.88-7.1-1.33-2.49-1.24-9.72-3.95-10.64-4.98-.9-1.01,2.49-4.63,3.29-8.37,.58-2.73-2.15-7.75-4.9-12.5-2.47,4.24-21.15,9.18-22.05,8.49-.26-.19-1.45-7.94-1.54-9.63-.08-.93,13.87-4.6,13.98-4.74,.47-.56,.11-36.77,3.09-39.31,1.83-1.56,8.11-3.4,8.11-3.4,0,0-.5,.83-.53,1.83-.11,2.54,.34,6.93,4.37,7.46,4.63,.59,9.27-3.12,12.04-7.47,1.32-2.07,1.66-2.97,2.04-4.13,.03-.08,.06-.18,.1-.27,0,0,4.4,1.29,11.2,2.49,6.78,1.21,10.29,10.3,13.45,17.98,3.17,7.7,7.36,26.82,8.37,31.79,1.01,4.98-4.98,11.76-4.98,11.76Z"/><path class="cls-27" d="M381.85,194.45s.24-1.53,3.02-1.1c2.78,.43,8.35,2.08,10.23,1.07s.7-3.7-2.34-5c-3.04-1.3-11.37-2.51-13.13-5.08-1.76-2.56-.45-3.03,.47-6.97,.91-3.94-2.66-8.35-1.94-9.62,.73-1.27,6.3-11.97,5.5-18.5-.8-6.53-3.28-8.1-5.05-4.74-1.77,3.37-.97,14.75-1.79,16.77-.82,2.02-1.06,4.96-3.03,4.38s-3.98-.63-5.07-.33-2.03-4.28-1.06-8.17,2.56-12.81,.3-14.37c-2.26-1.55-5.4,3.4-5.82,7.72s1.63,12.06,2.21,14.48,.1,2.37-2.07,5.28c-2.17,2.91-1.98,8.34-.64,10.76,1.34,2.42,.61,4.26-3.33,5.42-3.94,1.16-7.26,2.23-9.81,4.06s-2.13,3.79-.25,4.35,8.39-1.25,12.25-2.97c0,0-1.15,12.48-.3,21.08,.84,8.6,1.44,17.27,4.28,18.87,2.85,1.6,4.89-.56,4.86-3.97s-2.01-13.14,3.02-13.79c5.03-.65,2.66,17.53,8.75,16.6s1.95-18.76,1.52-20.94c-.43-2.18-1.6-11.61-.77-15.3Z"/><path class="cls-18" d="M390.43,200.34c-.08-1.02-5.56-4.72-8.71-5.82-3.05-1.08-3.97-1.93-6.09-1.14-1.9,.69-4,.74-3.79,1.78,.22,1.03,1.43,1.7,3.31,1.54,1.74-.16,1.35-.77,3.26,.1,1.93,.88,2.31,3.05,3.66,4.32l.47,6.11s2.88,1.53,5.22,.59c2.35-.95,3.55-.47,3.55-.47,0,0-.74-5.32-.88-7.02Z"/><path class="cls-22" d="M366.15,185.32s4.03,2.18,9.27-.69"/><ellipse class="cls-39" cx="366.64" cy="173.06" rx=".66" ry=".91" transform="translate(-5.41 11.95) rotate(-1.85)"/><ellipse class="cls-39" cx="372.73" cy="173.14" rx=".66" ry=".91" transform="translate(-5.41 12.15) rotate(-1.85)"/><ellipse cx="369.27" cy="176.37" rx=".99" ry=".72" transform="translate(-13.88 32.62) rotate(-4.96)"/><path class="cls-33" d="M371.74,178.47c-1.56,.25-2.43-1.79-2.43-1.79,0,0-.78,1.93-2.15,1.95"/><path class="cls-22" d="M399.79,130.84s-3.35-.63-3.64-4.79c-.36-5.02,3.96-6.17,3.96-6.17,1.4-4.39,11.08-9.1,21.76-6.25,10.68,2.85,7.6,14.64,5.22,17.17"/><path class="cls-22" d="M429.61,123.2s2.73,4.28,1.19,8.54c-1.34,3.72-3.03,7.73-2.55,11.52"/><path class="cls-22" d="M433.32,148.81c-.39,1.16-.72,2.06-2.04,4.13-2.76,4.36-7.41,8.07-12.04,7.47-4.03-.53-4.48-4.92-4.37-7.46,.02-.05,.03-.1,.05-.14,.79-2.47,1.35-4.56,1.69-5.08-.76,.74-4.55,2.72-8.28,3.49-3.95,.8-4.19-2.07-5.7-6.03-1.49-3.92-3.47-3.73-3.79-4.74-.32-1.03,2.7-3.81,1.43-8.23-.14-.48-.24-.93-.31-1.4-.61-3.73,.82-6.48,1.74-7.94,0,0,6.01,6.25,7.2,7.2,1.17,.95,4.97,3.65,6.96,2.3,1.82-1.24,3.17-3.17,5.14-2.49,1.98,.67,3.02,4.27,1.32,5.96,0,0,2.89,3.1,4.29,5.4,2.76,4.5,6.56,7.38,6.56,7.38l.16,.18Z"/><path d="M402.36,135.11c-.37-.73-.25-1.52,.26-1.78,.51-.26,1.21,.12,1.58,.84,.37,.71,.25,1.5-.24,1.76-.51,.26-1.23-.11-1.59-.82Z"/><path class="cls-22" d="M420.24,132.86s-1.34,.87-1.5,2.49"/><path class="cls-22" d="M408.86,161.33s-.42,13.58-.22,18.33c.11,2.71,2.22,12.29,5.18,20.06"/><path class="cls-22" d="M441.09,162.69s-1.24,6.33,.23,10.63,11.2,28.05,11.2,28.05"/><path class="cls-22" d="M433.15,226.92c4.63-6.36,15.72-21.47,17.79-23.85,3.84-4.4,8.37-1.35,8.37-1.35"/><path class="cls-18" d="M458.74,244.85s1.04,2.07,2.57,4.82c1.12,2.04,1.17,8.02,.5,11.35-.23,1.19-.55,2.04-.95,2.23-1.51,.76-6.04,.76-13.58,5.74-7.54,4.97-17.04,9.05-24.73,12.81-7.7,3.78-16.44,3.17-21.57,1.51-5.13-1.66-5.29-7.09-5.29-7.09-5.13,.61-6.49-.95-9.35-4.82-2.84-3.87-3.62-9.05,4.84-23.99,8.44-14.93,24.23-26.81,24.23-26.81,.92,1.03,8.15,3.74,10.64,4.98,.9,.45,3.58,1.03,7.1,1.33-1.08,1.57-1.72,2.62-1.72,2.83,0,.34,.26,.59,.67,.84,.8,.48,2.2,.93,3.33,2.01,1.4,1.33,1.98,2.81,2.57,3.6,.43,.58,.87,.79,1.62,.37,.8-.47-2.49-7.55,2.2-12.79,1.7-.42,3.33-.95,4.84-1.64,5.05-2.31,12.76-6.04,13.56-8.01,.69,1.41,6.03,8.3,6.35,16.85,.07,1.92-.47,3.91-1.4,5.74-2.28,4.47-6.44,8.15-6.44,8.15Z"/><path class="cls-22" d="M458.74,244.85s-13.26,10.9-19.31,15.38-20.66,11.46-21.87,14.18"/><path class="cls-22" d="M395.7,276.22c-1.51-6.49,4.68-14.93,4.68-14.93,6.33-7.09,16.06-19.08,21.27-24.17"/><path class="cls-22" d="M473.38,267.77c-2.84,4-3.73,5.77-7.09,4.08-3.36-1.69-2.99-2.02-3.47-6.94-.19-1.78-.58-3.02-1.01-3.89,.67-3.33,.63-9.3-.5-11.35-1.53-2.75-2.57-4.82-2.57-4.82,0,0,4.16-3.68,6.44-8.15,.63-.02,3.83,.1,4.27,3.62,.48,3.92,1.66,11.17,4.07,14.78,2.41,3.62,2.68,8.68-.14,12.66Z"/><path class="cls-33" d="M406.21,146.81c-1.12,.49-3.51,.61-3.94-1.87,0,0,3.65-.99,5.67-2.12,1.03-.58-.48,3.44-1.74,3.99Z"/><path class="cls-22" d="M423.05,134.64s-.81,2.37-3.56,3.24"/><path class="cls-18" d="M436.86,234.76c-2.17,2.88-5.34,7.39-6.41,10.54-1.7,4.98-4.87,10.53-5.88,10.08-1.01-.45,2.17-8.12,2.49-9.4,.31-1.27-1.32,.34-3.97,3.41-2.64,3.07-2.81,5.19-5.64,5.99-3.62,1.01,6.33-11.43,6.33-11.43-2.15,1.8-7.81,11.65-9.63,11.54-1.8-.11-.93-1.82,1.03-5.21,1.96-3.41,6.22-8.82,6.22-8.82,0,0-2.15,1.46-3.95,2.94-1.82,1.46-4.53,6.56-5.54,6.22-1.03-.34-.8-2.15,1.12-5.32,1.93-3.17,4.42-5.77,4.42-5.77-.35-3.5,2.94-5.54,6.44-6.78,3.5-1.25,7.01-3.5,7.01-3.5l.06-.1c.8,.48,2.2,.93,3.33,2.01,1.4,1.33,1.98,2.81,2.57,3.6Z"/><path class="cls-24" d="M457.86,275.87c-.82-2.87-2.2-9.34-2.38-10.81-.62-4.97-.78-11.62-2.91-14.75-2.36-3.48-6.82-4.34-8.01-4.02-12.41,3.41-13.41,.33-13.41,.33,0,0-6.13,6.95-7.68,11-1.55,4.06-2,22.55-2,22.55l.7,5.62,28.94,8.09s5.37-2.21,6.76-7.52c1.39-5.31,.7-8.03,0-10.5Z"/><g><path class="cls-11" d="M421.37,275.11c-4.79-2.78-14.27-.02-16.99,2.51-1.05-1.23-2.13-2.48-3.55-3.25-1.42-.76-3.28-.94-4.6,0-1.19,.85-1.67,2.37-1.93,3.81-.45,2.47-.5,5.01-.12,7.5,.35,2.32,1.35,4.89,3.57,5.65,1.26,.43,2.66,.16,3.91-.31,1.25-.47,2.43-1.13,3.71-1.5,3.77-1.1,14.61,3.54,19.46,1.48l-3.45-15.88Z"/><path class="cls-28" d="M396.24,274.4c1.57-.62,2.41,.49,2.98,1.1,.56,.61,.99,1.54,1.2,2.62,.11,.54,.15,1.12,.22,1.72,.07,.6,.13,1.22,.19,1.86,.23,2.55,.33,4.88,.08,6.54-.12,.83-.35,1.48-.63,1.85-.66,.79-1.61,1.32-1.59,1.34"/></g><g><path class="cls-9" d="M416.58,224.54c-3.07-6-3.5-13.29-1.16-19.62,.44-1.2,1.16-2.52,2.42-2.75,1.41-.26,2.63,.98,3.36,2.21,1.63,2.75,2.29,6,2.24,9.2-.06,3.2-.81,6.35-1.84,9.37-.37,1.09-.85,2.24-1.83,2.83"/><path class="cls-9" d="M413.78,224.67c-.71-1.04-1.44-2.08-2.39-2.91s-2.15-1.44-3.4-1.43c-1.82,.02-3.38,1.28-4.61,2.62-4.46,4.88-6.63,11.6-6.71,18.21-.03,2.68,.29,5.46,1.62,7.79,.3,.53,.69,1.06,1.25,1.29,.66,.27,1.42,.08,2.06-.22,1.62-.77,2.85-2.22,3.67-3.82,.82-1.6,1.29-3.35,1.74-5.09,1.3-4.94,2.6-9.88,3.9-14.82"/><path class="cls-9" d="M414.05,224.64c-.43,.09-6.41,1.75-9.12,6.57-2.13,3.8-1.37,8.28-.02,10.23,1.35,1.95,6.14,7.05,9.9,6.83,0,0,7.76-.25,10.32-3.03,2.56-2.78,6.06-9.72,3.21-15.62-2.85-5.89-8.72-6.13-14.29-4.99Z"/><path class="cls-9" d="M409.17,281.51c-.56-3.27-.82-6.59-.77-9.91l-5.01-3.51c-.96,.39-1.67,1.25-2.09,2.2-.42,.95-.57,1.99-.68,3.02-.43,4.19-.15,8.44,.51,12.6,.18,1.14,.44,2.37,1.32,3.11,1.02,.86,2.57,.77,3.82,.28,1.12-.44,2.15-1.2,2.72-2.26,.89-1.66,.5-3.68,.18-5.53Z"/><path class="cls-9" d="M422.69,271.82c-.23-.49-.66-.9-1.2-.99l-6.5,5.45c-1.41,1.23-2.43,2.87-3.15,4.6-.72,1.73-1.15,3.56-1.55,5.39-.35,1.6-.67,3.32-.06,4.84,.6,1.47,2.09,2.53,3.67,2.64,1.59,.11,3.2-.73,4.04-2.07,.82-1.3,.93-2.91,1.13-4.43,.3-2.23,.85-4.43,1.65-6.53,.91-2.4,2.15-4.76,2.21-7.32,.01-.54-.03-1.09-.26-1.58Z"/><path class="cls-9" d="M413.47,246.07c-3.33,3.64-1.77,1.17-4.13,5.61,0,0-.32,.15-1.14,1.05-2.63,2.86-5.19,9.14-5.03,12.79,.13,3.2,1.32,6.28,3.48,8.37,2.21,2.13,5.23,3.33,8.22,2.97,3.64-.43,6.92-3.12,8.83-6.57,1.9-3.45,2.46-7.56,2.35-11.52-.1-3.61-.68-10.57-1.49-12.18"/><path d="M406.44,255.13s-.02,.05-.06,.13c-.05,.1-.12,.21-.2,.35-.09,.15-.19,.34-.31,.55-.12,.22-.25,.46-.39,.74-.57,1.1-1.27,2.68-1.74,4.51-.48,1.83-.56,3.56-.47,4.79,.05,.62,.11,1.12,.18,1.46,.03,.16,.05,.29,.07,.39,.01,.09,.02,.14,.01,.14,0,0-.02-.04-.04-.13-.03-.11-.06-.24-.1-.39-.09-.34-.17-.84-.23-1.46-.12-1.24-.05-2.99,.43-4.84,.47-1.85,1.2-3.43,1.79-4.52,.15-.28,.28-.52,.41-.73,.12-.21,.23-.4,.33-.54,.09-.13,.16-.24,.22-.33,.05-.08,.08-.11,.09-.11Z"/><path class="cls-9" d="M412.63,245.19c-.84-.68-1.95-.93-3.03-1-3.48-.24-6.87,1.07-10.31,1.63-1.33,.21-2.74,.34-3.82,1.15-.95,.71-1.52,1.94-1.37,3.12,.14,1.18,1,2.26,2.14,2.61,1.18,.36,2.44-.04,3.61-.43,3.93-1.33,7.86-2.67,11.79-4l1.86-.18c.44-.99-.04-2.21-.87-2.89Z"/><path class="cls-22" d="M395.47,246.96c.45,.27,1.79,.82,2.32,2.33,.53,1.51,.21,2.76,0,3.25"/><path class="cls-40" d="M412.5,231.39c.14,.38-.06,.8-.45,.94-.38,.14-.8-.06-.94-.45s.06-.8,.45-.94c.38-.14,.8,.06,.94,.45Z"/><path class="cls-40" d="M416.21,230.07c.14,.38-.06,.8-.45,.94-.38,.14-.8-.06-.94-.45-.14-.38,.06-.8,.45-.94,.38-.14,.8,.06,.94,.45Z"/><path class="cls-31" d="M415.49,234.72s.15,.37,.36,.98c.21,.61,.5,1.44,.84,2.36,.34,.92,.66,1.75,.89,2.35,.23,.6,.37,.97,.35,.98"/><path class="cls-29" d="M421.85,224.41s-.03,0-.09,0c-.06,0-.15-.02-.25-.03-.22-.03-.54-.07-.95-.11-.83-.08-2.03-.14-3.51-.03-1.48,.12-3.23,.45-5.06,1.15-1.83,.68-3.72,1.83-5.26,3.48-.77,.83-1.41,1.73-1.89,2.68-.48,.95-.8,1.93-.97,2.89-.35,1.93-.15,3.73,.26,5.14,.22,.71,.49,1.32,.78,1.83,.15,.25,.3,.48,.44,.69,.16,.2,.29,.39,.42,.54,.14,.15,.26,.29,.37,.4,.11,.11,.22,.2,.3,.27,.08,.07,.14,.12,.18,.17,.04,.04,.06,.06,.06,.06,0,0-.03-.01-.07-.05-.05-.04-.11-.09-.19-.16-.08-.07-.19-.15-.31-.26-.11-.12-.24-.25-.39-.4-.14-.15-.28-.34-.44-.54-.15-.21-.3-.44-.45-.69-.3-.51-.58-1.13-.81-1.85-.44-1.43-.64-3.24-.3-5.2,.17-.97,.49-1.97,.98-2.94,.49-.96,1.14-1.88,1.91-2.72,1.56-1.67,3.47-2.83,5.32-3.51,1.85-.7,3.62-1.02,5.1-1.12,1.49-.1,2.7-.02,3.53,.08,.41,.05,.73,.1,.95,.14,.1,.02,.18,.03,.25,.05,.06,.01,.08,.02,.08,.02Z"/><path class="cls-37" d="M413.24,233.46c-.13,.1-.28,.24-.24,.4,.03,.13,.16,.21,.28,.27,.54,.26,1.1,.48,1.67,.65,.19,.06,.4,.11,.59,.04,.14-.05,.25-.16,.35-.28,.46-.53,.82-1.15,1.05-1.82,.08-.24-.12-.48-.37-.44-1.11,.19-2.51,.58-3.32,1.18Z"/><path class="cls-23" d="M405.57,224.76c.97,.47,3.61,1.86,3.59,1.9"/></g><g><path class="cls-9" d="M420.71,250.47c-.24-.17-.34-.37-1.43-.93,.03-.36,.21-1.06,.22-1.42,.01-.45,0-.94-.29-1.27-.23-.26-.61-.37-.95-.3-.34,.08-.63,.33-.77,.65-.13,.29-.07,.61-.18,.91-.06,.18-2.01-.42-2.01-.42-.8-.39-2.13-.83-3-.99-.5-.09-1.19-.15-1.49,.43-.18,.35-.13,.77,.07,1.11,.31,.52,.64,.61,1.15,.88-.22,0-.7,.07-.93,.17-.33,.15-.53,.3-.66,.69-.11,.33,.05,.83,.31,1.06,.26,.23,.56,.39,.88,.51-.72,.09-1.39,.6-1.13,1.47,.2,.7,1.64,.84,2.1,.92,0,0-.42,.31-.85,.67-.59,.49-.57,1.56,.44,1.83,.39,.1,.78,.01,1.18,.07,1.15,.16,2.37,.86,2.89,1.22,1.38,.96,1.69,1.98,3.86,2.47l3.1-8.26c-2.14-1.33-1.7-.89-2.51-1.47Z"/><g><path class="cls-37" d="M449.35,261.39c-3.42,3.25-12.78,5.37-17.96,4.6-5.19-.78-13.99-6.52-13.99-6.52l3.35-9.54s10.51,3.82,10.78,3.78c0,0,13.66-6.44,17.22-4.38"/><path class="cls-27" d="M448.43,249.19c-.2-.08-.52-.16-.94-.22-.42-.03-.95-.05-1.56,0-.61,.06-1.31,.16-2.08,.33-3.09,.67-7.38,2.19-12.3,4.45h-.01s0,0,0,0c-.06,0-.12-.02-.19-.03l-.16-.05-.32-.1c-.21-.07-.42-.14-.63-.21-.42-.14-.85-.29-1.28-.44-.86-.3-1.74-.61-2.64-.93-1.8-.65-3.67-1.32-5.6-2.01,0,0-1.54,4.63-2.4,7.06-.29,.83-.88,2.34-.88,2.34,2.03,1.3,4.07,2.47,6.07,3.51,2.01,1.03,3.99,1.94,5.96,2.55,.99,.31,1.97,.49,2.94,.57,.97,.05,1.92,.07,2.83,0,1.83-.11,3.51-.38,5.02-.72,1.51-.33,2.86-.72,4.01-1.15,.14-.05,.29-.1,.43-.15,.14-.06,.27-.11,.4-.17,.26-.11,.52-.21,.76-.32,.24-.11,.46-.22,.68-.32,.11-.05,.21-.1,.32-.15,.1-.06,.2-.11,.29-.16,.38-.21,.71-.39,.98-.59,.27-.19,.51-.33,.68-.48,.17-.14,.3-.25,.4-.33,.09-.07,.14-.11,.14-.11"/></g></g><g><path class="cls-9" d="M422.35,250.47c1.93,2.74,5.62,8.14,7.55,10.88,.34,.49,.72,1,1.28,1.22,.65,.26,1.39,.04,2.02-.25,.81-.38,1.59-.94,1.97-1.75,.37-.79,.31-1.72,.03-2.54-.28-.82-.78-1.55-1.28-2.26-1.94-2.75-4.07-5.38-6.46-7.75-.8-.79-1.83-1.91-3-1.76-1.17,.15-3.28,1.58-2.11,4.22Z"/><path class="cls-22" d="M434.61,257.33s-1.66,.08-2.94,1.28-1.34,2.52-1.28,3.09"/></g><g><g><path class="cls-24" d="M452.49,293.17c-4.18,2.75-17.86,3.85-20.8,4.35-2.58,.44-5.27,.09-7.82,.7-1.83,.44-3.53,1.37-5.4,1.56-3,.3-5.96-1.47-7.64-3.97-1.68-2.5-2.22-5.63-2.11-8.64,.06-1.83,.48-3.88,2.01-4.89,1.28-.85,3.02-.7,4.39-.02,1.38,.68,2.47,1.81,3.53,2.91,1.91-2.83,6.65-4.98,10.33-6.44,3.17-1.25,11.01-3.18,13.45-.79"/><path class="cls-28" d="M442.35,277.87c-.06-.05-.15-.13-.29-.22-.26-.18-.68-.4-1.28-.55"/></g><path class="cls-12" d="M417.53,299.37s.12-.24,.24-.7c.12-.46,.17-1.16,.04-2-.13-.84-.39-1.83-.69-2.92-.31-1.09-.69-2.28-1.15-3.5-.46-1.22-.95-2.37-1.43-3.39-.47-1.03-.97-1.93-1.57-2.53-.59-.61-1.24-.91-1.7-1.01-.46-.11-.73-.07-.73-.09,0,0,.07-.01,.19-.02,.13,0,.32,0,.55,.05,.47,.09,1.15,.38,1.77,1,.63,.61,1.14,1.52,1.62,2.55,.49,1.02,.99,2.17,1.45,3.4,.46,1.23,.84,2.42,1.14,3.51,.29,1.1,.55,2.09,.66,2.95,.12,.86,.05,1.57-.09,2.03-.07,.23-.14,.4-.2,.52-.06,.11-.09,.17-.1,.17Z"/><path class="cls-25" d="M420.72,290.17c-.4-1.09-2.11-4.97-2.07-4.99"/><g><path class="cls-10" d="M440.18,276.76c1.52-.96,3.49-1.16,5.18-.54"/><path class="cls-25" d="M445.36,276.22s-.29-.07-.77-.16c-.47-.09-1.14-.16-1.87-.08-.73,.08-1.37,.28-1.82,.47-.45,.19-.7,.34-.72,.32,0-.01,.23-.2,.67-.42,.44-.22,1.09-.44,1.85-.52,.75-.08,1.44,0,1.91,.13,.48,.12,.75,.26,.75,.27Z"/></g></g><path class="cls-18" d="M445.01,246.15c-1.13-2.94,1.39-3.04,1.39-3.04,13.05-2.58,17.38-10.81,16.22-18.99-1.15-8.18-8.66-21-24.44-17.14-15.78,3.85-11.13,16.94-11.13,16.94,0,0-.44,2.07-2.4,2.22-1.97,.14-.4,3.21-.4,3.21,0,0-4.77,10.28,3.43,12.55,3,.83,4.34,3.8,4.31,4.87,0,0-.85,3.21,13.02-.62Z"/><path class="cls-22" d="M445.82,231.94s4.41,1.48,1.87,5.11c-2.54,3.63-4.79,.43-4.79,.43"/><circle cx="430.29" cy="226.17" r="1.02"/><path class="cls-33" d="M433.33,223.89s-.28-2.65-3.04-2.48"/><line class="cls-22" x1="445.69" y1="235.36" x2="444.81" y2="234.95"/><circle class="cls-36" cx="435.04" cy="231.55" r="2.15"/><path class="cls-37" d="M425.77,235.11s-.01,.01,0,.02c.14,.83,.87,1.62,2.15,1.72,1.04,.09,1.76-.2,2.26-.57,0,0-.01-.01-.02-.04-.01-.02-.04-.06-.07-.11-.06-.08-.14-.2-.27-.34-.05-.05-.09-.09-.14-.14-.09-.09-.2-.19-.33-.29-.25-.19-.57-.37-.94-.48-.09-.02-.19-.06-.29-.07-.07-.02-.14-.04-.22-.04-.58-.08-1.28-.01-2.11,.33Z"/><polygon class="cls-36" points="428.98 235.54 428.98 235.54 428.98 235.54 428.98 235.54"/><path class="cls-36" d="M425.86,235.35c.77-.32,1.43-.38,1.97-.31,.08,0,.14,.01,.21,.03,.1,.01,.19,.04,.27,.07,.35,.11,.65,.27,.88,.45,.12,.09,.22,.18,.31,.27,.05,.04,.1,.09,.13,.13,.12,.13,.2,.24,.25,.32,.03,.04,.05,.08,.07,.1,.01,.02,.02,.03,.02,.03,.65-.47,.89-1.08,.89-1.08,.35-2-2.98-1.87-2.98-1.87-1.54-.09-2.2,.9-2.02,1.85Z"/><path class="cls-36" d="M424.53,234.37h.04s0-.01,0-.01c-.01,0-.02,.01-.04,.01Z"/><path class="cls-4" d="M427.88,233.61s3.33-.13,2.98,1.87c0,0-.24,.6-.89,1.08-.47,.34-1.14,.62-2.11,.53-1.19-.1-1.87-.83-2-1.6-.01-.01,0-.02,0-.02-.18-.94,.48-1.93,2.02-1.85Z"/><path class="cls-22" d="M429.26,211.82s3.91,8.91,12.31,9.58c0,0-1.71,5.15,4.54,6.84"/><path class="cls-15" d="M354.91,294.83c-7.6-5.16-38.2-.53-43.34-12.21-5.14-11.66,4.59-16.7,4.59-16.7,0,0,1.66,2.2,4.83,4.02,3.18,1.82,5.87,2.87,7.31,4.05,3.63,3.04,8.2,7.14,7.26,4.55-.24-.68-1.41-2.14-1.69-2.59l2.2,1.48s0,0,.02,0c1.27,.83,2.87,1.75,3.39,1.49,1.22,.59,2.47,1.18,3.7,1.74,3.97,1.82,7.87,3.33,10.66,3.44,.29,0,1.23,.57,2.08,1.13,.64,.42,1.23,.82,1.46,.99,.34,.23,.69,.49,1.07,.78,6.94,5.28,4.06,12.97-3.56,7.82Z"/><path class="cls-18" d="M315.92,265.31c-10.79-8.69-2.74-30.5-2.74-30.5,4.43-10.53,12.67-9.24,13.87-12.38,1.2-3.13-.61-3.87-.61-3.87-13.91-2.75-18.52-11.52-17.28-20.23,1.23-8.71,9.23-22.37,26.04-18.26,16.81,4.1,11.86,18.05,11.86,18.05,0,0,.46,2.21,2.55,2.36,2.1,.15,.43,3.42,.43,3.42,0,0,5.08,10.95-3.66,13.38-3.19,.88-4.42,1.92-4.38,3.06,0,.04,0,.09,0,.14,0,.06,.03,.13,.04,.19,.45,1.92,4.14,4.16,7.99,6.63,0,0,0,0,.02,0,.04,.03,.18,.12,.41,.31,.09,.08,.17,.15,.27,.25,1.14,1.14,3.55,4.35,6.3,12.78,2.34,7.2,3.72,11.64,5.6,14.71,1.17,1.93,2.54,3.34,4.48,4.55,5,3.13,7.37,6.74,4.05,7.09"/><path class="cls-22" d="M337.64,272.87c2.62,1.22,3.58,3.31,4.59,4.06"/><path class="cls-22" d="M341.54,272.85s-.02-.02-.04-.02"/><path class="cls-22" d="M323.64,236.26s.82,15.24,.06,21.79c0,0,1.17-.3,5.75,3.97,.14,.13,.28,.27,.42,.41"/><path class="cls-22" d="M336.2,275.01s2.45,1.62,3.22,2.9h.01"/><path class="cls-22" d="M339.43,277.93h-.01"/><line class="cls-22" x1="332.76" y1="265.61" x2="332.75" y2="265.61"/><path class="cls-22" d="M329.87,262.43h-.04"/><path class="cls-15" d="M353.32,254.78s.19,2.7,.81,8.56c0,0,6.82,14.1,1.81,21.9,0,0,0,.02-.02,.03-4.31-2.55-4.54-.1-9.94-3.08-1.11-.61-2.02-1.11-2.78-1.53l-3.55-1.95c.05-.23-.05-.5-.22-.78,.22,.16,3.3,2.29,2.79-1,.46,.34,.92,.4,1.55,0,1.91-1.24-1.85-3.83-2.23-4.08,2.46,1.18,4.24,.35-1.05-1.51-2.37-.83-3.62-2.04-6.37-4.1l-2.13,1.66-5.11,3.91s-6.61-2.9-9.17-5.29c0,0-2.68-2.7-4.33-4.75-7.62-9.44-.54-31.04,2.91-34.31,3.44-3.27,10.76-6.04,10.76-6.04,14.46,3.06,15.22-.36,14.99-1.77,0-.07-.03-.14-.04-.19-.04-.14-.08-.23-.1-.29,.04,.05,.07,.11,.09,.15,1.2,2.17,1.91,2.65,8.04,6.95,0,0,0,0,.02,0,.14,.1,.27,.2,.41,.31,.09,.08,.17,.15,.27,.25,6.11,5.54,12.22,27.11,12.22,27.11-.06,.11-.16,.23-.32,.38-1.41,1.29-6.59,3.8-6.59,3.8l-2.72-4.36Z"/><path class="cls-22" d="M358.13,260s-.97,10.01,1.16,7.41,1.32-6.45,4.16-3.26c2.85,3.2,2.32,5.3,3.43,3.22,1.11-2.08-1.06-4.75-1.06-4.75"/><path class="cls-22" d="M367.07,265.01s5.29,5.81,2.93,.48l-1.86-2.86"/><path class="cls-15" d="M363.27,285.87c-2.23,.67-3.08,2.06-3.08,2.06,1.22,1.4,2.54,4.05,2.37,5.63-.39,3.54,20-1.21,16.13-7.77-1.96-3.32-10.55-1.25-10.55-1.25"/><path class="cls-15" d="M366.4,270.21s-4.07-.91-4.38,7.63c-.08,2.14,0,8.58,0,8.58,0,0,5.43-2.16,10.49-2.47,0,0,4.97-8.25,6.3-18.28,1.33-10.02-10.05-7.07-10.05-7.07l-14.6,4.56s6.41,13.13,1.8,22.08l1.45,.98s2.28-1.91,4.22-4.71"/><path class="cls-22" d="M327.05,206.66s-4.7,1.57-1.99,5.44c2.71,3.87,5.1,.46,5.1,.46"/><circle cx="343.94" cy="201.5" r="1.09"/><path class="cls-33" d="M340.36,199.74s.3-2.82,3.24-2.64"/><line class="cls-22" x1="327.19" y1="210.3" x2="328.13" y2="209.87"/><circle class="cls-36" cx="338.54" cy="206.24" r="2.29"/><path class="cls-37" d="M348.32,210.29s.01,.01,0,.02c-.14,.82-.87,1.6-2.13,1.71-1.03,.09-1.74-.2-2.25-.56,0,0,.01-.01,.02-.04,.01-.02,.03-.06,.07-.11,.06-.08,.14-.2,.27-.34,.05-.05,.09-.09,.14-.14,.09-.09,.2-.19,.33-.29,.25-.19,.56-.36,.94-.48,.09-.02,.19-.06,.29-.07,.07-.02,.14-.04,.22-.04,.57-.08,1.28-.01,2.09,.33Z"/><polygon class="cls-36" points="343.95 211.46 343.95 211.46 343.95 211.46 343.95 211.46"/><path class="cls-36" d="M348.32,210.29c-.82-.34-1.52-.41-2.09-.33-.08,0-.15,.01-.22,.04-.11,.01-.2,.05-.29,.07-.37,.12-.69,.29-.94,.48-.13,.09-.23,.19-.33,.29-.06,.05-.11,.09-.14,.14-.13,.14-.21,.26-.27,.34-.04,.05-.06,.08-.07,.11-.01,.02-.02,.04-.02,.04-.69-.5-.95-1.15-.95-1.15-.37-2.13,3.17-1.99,3.17-1.99,1.64-.09,2.34,.96,2.15,1.97Z"/><path class="cls-36" d="M348.36,210.3h-.04s0-.01,0-.01c.01,0,.02,.01,.04,.01Z"/><path class="cls-4" d="M346.17,208.43s-3.55-.14-3.17,1.99c0,0,.26,.64,.95,1.15,.5,.36,1.22,.66,2.25,.56,1.26-.11,1.99-.89,2.13-1.71,.01-.01,0-.02,0-.02,.19-1.01-.51-2.06-2.15-1.97Z"/><path class="cls-22" d="M344.7,185.22s-4.16,9.5-13.11,10.21c0,0,1.82,5.49-4.83,7.28"/><path class="cls-15" d="M353.32,254.79c-.87-3.49-1.32-6.66-3-11.04"/><path class="cls-15" d="M321.17,251.65c.8,7.64,13.88,14.89,13.88,14.89l-3.07,2.36"/><path class="cls-22" d="M404.2,193.83s1.7,1.36,4.75,.9"/><circle class="cls-33" cx="403.87" cy="134.42" r="3.46"/><line class="cls-22" x1="407.68" y1="133.4" x2="415.85" y2="132.39"/><line class="cls-2" x1="399.83" y1="128.47" x2="402.92" y2="127.65"/><line class="cls-2" x1="399.83" y1="129.65" x2="402.92" y2="128.83"/><path class="cls-33" d="M408.68,141.24s1.08-.2,1.5,1.36"/><path class="cls-31" d="M149.4,142.58s.85,4.61,2.5,8.43c0,0-.32,.78-2.8,.3"/><ellipse class="cls-31" cx="145.15" cy="146.22" rx=".26" ry=".76" transform="translate(-10.85 11.63) rotate(-4.42)"/><ellipse class="cls-31" cx="153.93" cy="145.22" rx=".26" ry=".76" transform="translate(-10.75 12.31) rotate(-4.42)"/><path class="cls-31" d="M152.24,155.11s-2.14,1.41-4.9-.45"/><path class="cls-14" d="M336.79,77.28c-27.91,19.53-28.07,21.79-28.07,28.38,0,1.42,.87,18.16,14.17,20.84,6.73,1.36,9.41-.11,14.47-1.26,12.38-2.81,20.81-17.71,30.48-24.39,13.29-10.76,29.37-17.31,39.14-31.91,15.08-26.61-23.89-51.23-35.89-27.83,.52-.34,.94-.38,1.31-.2,5.6-6.17,12.48-10.16,16.13-.79,1.01,5.12,3.87,12.01,.5,16.51-3.37,6.74-7.36,9.74-16.55,10.42-8.58,.63-10.99-2.76-11.48-8.85-9.31,3.91-16.25,13.39-24.22,19.09Z"/><path class="cls-18" d="M365.46,66.63c1.44,.95,1.49,.54,5.22,.58,.03,0,.07,0,.1,0,.57-.09,1.14-.12,1.72-.15,3.34-.13,6.9,.38,9.8-1.51,2.84-2.52,4.77-5.71,6.75-8.91,.34-.54,.68-1.09,1.02-1.63,.22-.36,.46-.72,.69-1.07-.51-4.54-.72-9.46-2.22-13.81-3.65-9.37-10.53-5.38-16.13,.79-1.74,1.92-3.36,4.05-4.73,6.05-1.1,1.62-6.8,6.17-6.72,10.6,.01,.21,.03,.42,.05,.64,.26,2.48,1.3,5.27,2.98,7.15,.44,.5,.92,.93,1.46,1.28Z"/><path d="M375.69,42.02c-.24,0-.49-.09-.66-.28-.67-.7-1.38-.99-1.87-1.12-.49-.12-.78-.62-.65-1.11,.13-.49,.63-.78,1.12-.66,.71,.19,1.76,.63,2.72,1.63,.35,.37,.34,.95-.03,1.29-.18,.17-.41,.25-.63,.25Z"/><path d="M385.75,49.66c-.32,0-.63-.17-.8-.47-.35-.64-1.85-2.28-2.99-2.59-.49-.12-.78-.63-.65-1.12,.13-.49,.63-.78,1.13-.65,1.84,.49,3.67,2.66,4.12,3.48,.24,.45,.09,1-.36,1.24-.14,.08-.29,.11-.44,.11Z"/><path class="cls-22" d="M354.34,70.08s7.49-2.53,18.16-2.8c4.45-.11,7.15-.43,9.51-1.96,3.29-2.12,5.93-6.59,11.74-16.1"/><path class="cls-22" d="M309.21,105.66s26.11-14.99,72.47-14.58"/><path class="cls-22" d="M358.06,92.24s-1.56-12-13.4-21.67"/><path class="cls-22" d="M379.33,66.71s6.78-.61,12.97,1.18"/><path class="cls-3" d="M371.33,51.97c-.33-.37-.44-.93-.23-1.38,.21-.45,.74-.74,1.22-.62,.26,.06,.49,.23,.7,.4"/><ellipse cx="378.37" cy="52.98" rx="1.43" ry="1.21" transform="translate(184.4 382.14) rotate(-67.46)"/><ellipse cx="370.79" cy="46.39" rx="1.43" ry="1.21" transform="translate(185.82 371.08) rotate(-67.46)"/><polyline class="cls-1" points="134.23 238.36 134.23 235.2 140.5 235.84 140.46 239.67"/><polyline class="cls-34" points="135.32 238.93 135.39 236.64 139.27 236.99 139.3 239.6"/><path class="cls-1" d="M132.99,238.25s4.41,2.35,7.95,1.19c0,0-.54,9.42-4.48,9.23s-3.38-3.38-3.47-10.42Z"/><path class="cls-5" d="M135.29,235.48s3.66-28.44,1.41-46.32-1.41-36.6-1.41-36.6"/></svg>