<?xml version="1.0" encoding="UTF-8"?><svg id="Calque_1" xmlns="http://www.w3.org/2000/svg" viewBox="0 0 128 128"><defs><style>.cls-1{fill:#d6d6d6;}.cls-1,.cls-2,.cls-3,.cls-4,.cls-5,.cls-6{stroke:#000;stroke-linecap:round;stroke-linejoin:round;}.cls-2{fill:#ffbeed;}.cls-3,.cls-6{fill:#fff;}.cls-4,.cls-5{fill:none;}.cls-5,.cls-6{stroke-width:.75px;}</style></defs><path class="cls-3" d="M75.6,77.68c-1.62-2.87-3.98-3.9-6.21-4.07-2.23-.16-4.32,.54-5.39,1.13-2.12,1.15-3.67,3.25-4.86,5.38-4.5,8.01-2.86,28.98,10.13,26.72,.39-.06,.76-.16,1.13-.28,1.9-.6,3.45-1.81,4.66-3.38,2.52-3.2,3.66-7.87,3.79-11.72,.16-4.57-1.01-9.81-3.25-13.78Z"/><g><path class="cls-1" d="M29.83,50.33c0,.44,.04,1.09,.16,2.08,.03,.26,.08,.55,.12,.87,.31,2.14,.47,3.22,.83,4.52,.24,.89,.49,1.63,.7,2.22l.43,.19,1.88,2.8s-3.32,.09-3.61,0c-.3-.1-.62-1.35-.62-1.35,0,0-.98,.1-1.1-.14-.13-.25,.27-.81,.37-1.15,.03-.11,.07-.31,.1-.5-.5-.92-.57-1.77-.88-3.19-.37-1.77-.45-1.24-1.06-3.84-.12-.51-.21-.95-.31-1.38"/><path class="cls-1" d="M51.29,45.51c0,.11-.03,.22-.05,.33-.15,.75-.31,1.4-.31,1.4-.2,.82-.28,1.01-.31,1.4-.05,.64,.2,.9,.18,1.53,0,.41-.1,.7-.37,1.4-.56,1.49-1.04,2.56-1.04,2.56-.35,.92-.65,1.64-.86,2.14-.27,.63-.53,1.19-.28,1.48,.15,.2,.62,.37,.62,.37,0,0,.24,.13,.48,.34,.24,.2,.49,.49,.53,.8,.05,.43-.36,.5-.6,1.4-.18,.66-.05,.91,0,.99,.14,.24,.43,.32,.59,.37,0,0,1.4,.39,3.75,.11-.54-.84-.94-1.46-1.24-1.91-.3-.44-.5-.73-.64-.89-.03-.04-.1-.14-.19-.28-.28-.54-.21-1.09-.2-1.28,.14-1.44-.32-1.92,.03-3.8,.17-.94,.37-1.98,1.11-3.06,.58-.84,1.04-1.05,1.33-1.91,.25-.76,.05-1.06,.09-2.04,.02-.34,.06-.67,.12-.98"/><path class="cls-1" d="M23.56,46.28s-.04,.04-.06,.06c-.03,.03-.04,.04-.07,.08-.63,.71-1.44,1.62-2.18,3.03-1.06,2-1.31,3.72-1.36,4.06-.23,1.68-.04,3.05,.03,3.47,.13,.83,.27,1.49,.27,1.49,.35,1.5,.72,2.36,.4,2.6l1.88,2.81s-3.31,.09-3.6,0c-.3-.1-.62-1.35-.62-1.35,0,0-.99,.1-1.1-.14-.13-.25,.26-.81,.36-1.16,.03-.1,.07-.27,.1-.45h0c.05-.33,.1-.69,.11-.83,.02-.04,.02-.08,.02-.08,.04-.16,.03-.11-.4-6.65-.05-.83-.1-1.57-.54-2.36-.39-.66-.67-.71-.7-1.1-.07-.8,1.18-3.17,1.51-5.03,1.52,1.35,3.75,1.85,5.96,1.56Z"/><path class="cls-1" d="M62.39,63.01s-3.31,.09-3.61,0c-.29-.1-.61-1.35-.61-1.35,0,0-.99,.1-1.11-.14-.13-.25,.26-.81,.37-1.15,0-.03,.02-.05,.02-.09-.38,.1-.57,.34-.74,.26-.17-.08-.16-.43-.15-.53,.03-1.05,.05-1.57,.31-2.43,0,0,.44-1.47,.31-3.19,0-.18-.2-1.06-.59-2.81-.27-1.2-.33-1.48-.38-1.99-.1-.91-.03-1.36,0-2.27,0-.4,0-.71-.02-.98v-.07c1.44,.17,2.44,.19,3.16-.02-.05,.2-.14,.57-.09,1.04,.05,.57,.25,.74,.4,1.25,.23,.74,.14,1.35-.05,2.58-.13,.76-.2,.82-.31,1.47-.29,1.51-.04,2.05,.06,4.87,.02,.59,.03,1,.28,1.47,.15,.28,.27,.36,.25,.54-.02,.13-.09,.25-.22,.37l.86,.37,1.88,2.8Z"/><path class="cls-1" d="M77.58,30.9c-.83,.55-2.11,.08-2.35,0-.83-.31-1.28-.83-1.68-1.21-.92-.89-1.69-1.24-2.37-1.49-.76-.27-1.38-.42-1.93-1.1-1.4-1.71-1.15-5.37,.95-7.03,.91-.71,2.43-1.28,3.74-.77,.66,.26,1.12,.84,1.74,1.88,.2,.35,.43,.75,.68,1.2,.86,1.54,1.45,2.6,1.74,4.18,.21,1.14,.66,3.55-.52,4.34Z"/><path class="cls-4" d="M61.35,18.22c-.86,.67-1.35,.97-2.43,2.23,0,0-1.78,.76-4,1.99-2.73,1.51-5.45,.59-10.87,.23-6.92-.47-10.02,.03-10.85,0-4.24-.09-10.39-.2-13.83,3.3-1.87,1.9-2.67,4.32-3.31,6.25-1.08,3.28-.2,5.91-.16,6.84,.1,2.58,.15,3.86,1.03,4.95,.2,.26,.43,.49,.66,.69,1.52,1.35,3.75,1.85,5.96,1.56,.26-.03,.5-.08,.75-.14h0c.24-.05,.47-.11,.7-.18,.52-.15,1.03-.35,1.51-.59,.18-.09,.52-.26,.94-.46,.37-.18,.83-.39,1.29-.6,.05-.02,.1-.04,.15-.07,.94-.41,1.91-.78,2.47-.87,.33-.05,.66-.07,.98-.03,.36,.03,.7,.09,1.05,.2h.02c.11,.03,.23,.07,.34,.1,.8,.26,1.62,.61,2.54,.88,1.49,.42,3.3,1.76,6.84,1.23,1.54-.24,2.1-.6,3.91-.66,1.58-.06,2.68,.15,3.85,.36,.13,.03,.26,.04,.37,.06,1.01,.18,1.91,.33,2.72,.46,.82,.13,1.53,.23,2.17,.31h0c1.44,.17,2.44,.19,3.16-.02,.13-.03,.25-.08,.36-.13,1.67-.75,2.48-2.27,3.8-4.71,1.11-2.08,.88-2.66,2.58-6.16,.17-.35,.74-1.35,1.88-3.37,1.11-1.97,1.5-2.59,2.32-3.04,.43-.23,.72-.28,.88-.6,0-.02,.02-.03,.03-.06"/><path class="cls-4" d="M68.03,15.13c.48-.05,1-.06,1.57,0,.55,.05,4.08,.44,5.56,3.07,.43,.78,.92,2.15,.54,2.99"/><path class="cls-4" d="M70.02,15.64c-2.79-.91-5.13-.79-6.3-.55-1.84,.39-4.17,1.39-4.09,2.14,.04,.31,.49,.5,1.38,.86,.57,.23,1.51,.6,2.76,.67,2.2,.11,3.92-.81,4.61-1.24"/><polyline class="cls-4" points="76.94 28.48 77.57 29.16 77.25 30.21"/><path class="cls-4" d="M28.77,44.32c-.05,.03-.09,.05-.14,.07"/><path class="cls-4" d="M35.66,36.13s.11,2.92-1.13,4.09c-1.17,1.1-4.06,3.27-5.61,4.02"/><path class="cls-4" d="M51.39,36.14s0,3.92,1.08,5.19c1.08,1.27,2.63,3.05,3.09,3.59s.68,.8,.63,2.41"/><path class="cls-4" d="M15.65,33.98c-.9-.48-.86-1.87-.91-2.6-.06-.88,.44-3.2,1.69-4.39,1.22-1.16,4.59-2.37,4.8-2.43h0"/><circle cx="73.06" cy="22.63" r=".75"/><path class="cls-2" d="M33.77,43.65c-.17,.18-.34,.37-.51,.56h0c-.35,1.45-.88,3.23-1.44,3.88-.34,.4-.67,.81-1,1.2-.15,.18-.3,.35-.47,.52,0,.02-.03,.03-.04,.05-.14,.14-.26,.27-.41,.4l-.07,.07c-.14,.13-.3,.25-.46,.36v1.61s0,.04,0,.06c-.02,.55-.48,1-1.04,1s-1.06-.47-1.06-1.06v-.85c-.1,.02-.2,.02-.31,.02-.04,0-.08,0-.12,0-.31-.03-.6-.21-.88-.49-.65-.66-1.25-1.91-1.97-3.51-.06-.14-.14-.48-.25-.95,.09-.06,.19-.12,.27-.18,.03-.02,.06-.03,.08-.04,.08-.05,.14-.09,.21-.14h0c.24-.05,.47-.11,.7-.18,.52-.15,1.03-.35,1.51-.59,.18-.09,.52-.26,.94-.46,.37-.18,.83-.39,1.29-.6,.05-.02,.1-.04,.15-.07,.94-.41,1.91-.78,2.47-.87,.33-.05,.66-.07,.98-.03l1.05,.2h.02c.11,.03,.23,.07,.34,.1Z"/><g><path class="cls-2" d="M30.85,43.08l1.51,.27c-.32-.03-.65-.02-.98,.03-.56,.09-1.53,.46-2.47,.87-.05,.03-.1,.05-.15,.07-.47,.2-.92,.42-1.29,.6-.43,.2-.77,.37-.94,.46-.49,.24-1,.43-1.51,.59-.23,.07-.46,.13-.7,.18"/><path class="cls-2" d="M30.82,49.29v2.09c0,.51-.35,.93-.83,1.03-.08,.02-.15,.03-.23,.03-.14,0-.27-.03-.4-.08,0-.02,0-.04,0-.06v-1.61c.16-.11,.31-.23,.46-.36l.07-.07c.14-.13,.27-.26,.41-.4,.02-.02,.03-.03,.04-.05,.16-.17,.31-.34,.47-.52Z"/></g></g><path class="cls-1" d="M75.53,77.68c2.28,3.97,3.47,9.2,3.31,13.76-.14,3.85-1.3,8.51-3.86,11.71-1.23,1.56-2.81,2.78-4.74,3.37,3.74-.06,16.69-.29,19.87-.29,4.58-.01,9.18,.5,13.76,.23,6.58-.38,13.16-.95,15.52-8.09,1.74-5.31-.43-14.18-4.74-17.93-.51-.45-1.07-.84-1.66-1.2-.27-.16-.54-.32-.82-.46-.03-.02-.07-.04-.11-.05-.27-.15-.54-.28-.83-.4-.03-.02-.05-.03-.08-.04-4.44-2-10.14-2.49-14.43-3.35-7.25-1.46-20.15-1.35-27.49-1.35v.03c2.27,.17,4.67,1.19,6.32,4.06Z"/><path class="cls-1" d="M24.57,107.44c3.48,.98,9.52,1.74,13.08,1.54,4.92-.28,10.29,.16,13.51-.9,.96-.31,1.67-.84,2.17-1.5-1.85,.37-3.82-.86-5.67-1.69-2.72,.32-5.82-.01-8.02-.01-3.97-.01-8.04,.23-11.98-.28-1.62-.21-4.59-.32-5.46-2.06-.14-.29-.26-.61-.3-.96-.84,2.97,.01,5.13,2.66,5.86Z"/><path class="cls-3" d="M21.91,101.58c.04,.35,.16,.67,.3,.96,.86,1.74,3.84,1.85,5.46,2.06,3.93,.51,8.01,.27,11.98,.28,2.2,0,5.3,.33,8.02,.01-.3-.14-.6-.26-.88-.36-4.36-1.57-8.9-2.45-13.52-2.95-2.01-.22-7.6-.85-8.66-2.81-1.08,.21-1.9,.66-2.24,1.49-.18,.46-.34,.89-.45,1.32Z"/><path class="cls-1" d="M24.49,98.51s.03,.1,.05,.14,.04,.08,.06,.13c1.05,1.96,6.65,2.58,8.66,2.81,4.62,.5,9.16,1.37,13.52,2.95,.29,.11,.58,.22,.88,.36,1.85,.83,3.82,2.06,5.67,1.69h0c.36-.06,.71-.19,1.06-.4,1.71-1.01,1.7-3.47,2.48-4.87-.02-.17-.06-.34-.13-.51-.1,.98-1.12,1.8-2.53,2.07-.43,.09-.89,.13-1.38,.1-.13-.01-.26-.01-.38-.03-4.67-.31-7.6-1.89-10.72-2.51-1.36-.28-2.58-.51-3.75-.73-2.23-.43-4.3-.82-6.88-1.35-.79-.16-1.84-.39-2.84-.71-2.33-.77-4.38-2.03-2.15-4.14-1.54,.94-2.53,2.72-1.62,5.02Z"/><path class="cls-3" d="M28.25,97.62c1,.32,2.05,.55,2.84,.71,2.58,.53,4.65,.93,6.88,1.35,1.17,.22,2.39,.46,3.75,.73,3.12,.62,6.05,2.2,10.72,2.51,.13,.02,.26,.02,.38,.03,.49,.03,.96-.01,1.38-.1,1.41-.28,2.44-1.1,2.53-2.07,.05-.44-.1-.9-.47-1.36-1.31-1.6-4.23-2.92-6.05-3.84-3.39-1.72-7.32-2.74-11.07-3.25-2.77-.37-10.69-.94-13,1.11-.02,.01-.03,.03-.05,.04-2.23,2.11-.18,3.37,2.15,4.14Z"/><path class="cls-6" d="M76.6,91.36c-.12,3.35-1.05,7.42-3.12,10.21-1,1.36-2.27,2.43-3.83,2.95-.3,.1-.61,.18-.93,.23-10.67,1.98-12.02-16.29-8.32-23.27,.98-1.86,2.24-3.69,3.99-4.69,.88-.51,2.61-1.12,4.42-.98"/><path class="cls-6" d="M74.6,90.34c.1-2.96-.66-6.34-2.1-8.91-1.05-1.86-2.58-2.52-4.02-2.63-1.44-.1-2.79,.35-3.49,.73"/><line class="cls-6" x1="81.57" y1="80.21" x2="109.27" y2="83.87"/><line class="cls-6" x1="84.37" y1="97.39" x2="112.17" y2="100.15"/><path class="cls-5" d="M30.14,93.84s-.03,.01-.04,.02c-1.79,.8-.29,1.54,1.43,2.07,.74,.22,1.53,.41,2.12,.54,1.93,.44,3.47,.78,5.14,1.14,.87,.19,1.79,.39,2.81,.62,2.33,.52,4.48,1.47,8,1.97,.1,.02,.19,.03,.29,.04,.37,.05,.72,.07,1.05,.06,1.08-.02,1.89-.32,2.01-.76,.06-.2-.03-.42-.29-.66-.92-.83-3.07-1.67-4.4-2.23"/></svg>