<?xml version="1.0" encoding="UTF-8"?><svg id="Calque_1" xmlns="http://www.w3.org/2000/svg" viewBox="0 0 260 128"><defs><style>.cls-1{fill:#fce9b9;}.cls-1,.cls-2,.cls-3,.cls-4,.cls-5,.cls-6,.cls-7,.cls-8,.cls-9,.cls-10{stroke:#000;}.cls-1,.cls-2,.cls-3,.cls-4,.cls-11,.cls-7,.cls-10{stroke-linecap:round;stroke-linejoin:round;}.cls-2,.cls-12{fill:#ff6d75;}.cls-3,.cls-13,.cls-7,.cls-8{fill:#fff;}.cls-4,.cls-11,.cls-6,.cls-10{fill:none;}.cls-14{fill:#fab0b4;}.cls-15{fill:#222221;}.cls-5{stroke-width:1.19px;}.cls-5,.cls-6,.cls-8,.cls-9{stroke-miterlimit:10;}.cls-5,.cls-9{fill:#87ccf3;}.cls-11{stroke:#222221;stroke-width:.6px;}.cls-6{stroke-width:.75px;}.cls-7{stroke-width:.89px;}.cls-10{stroke-width:.5px;}</style></defs><path class="cls-3" d="M240.47,34.18s5.86,4.85,9.35,11.55,2.55,17.01,2.55,17.01c0,0,1.67,3.53,2.02,5.18,.31,1.46-1.13,.78-2.44-2.61,0,0,1.39,6.01,.35,5.49s-1.67-5.53-1.67-5.53c0,0,.55,6.26-.12,6.23-1-.04-1.18-6.27-1.18-6.27,0,0-.29,5.31-.96,5.01-.87-.39-.36-5.23-.36-5.23,0,0-2.26,2.26-2.79,1.48s2.61-4.09,3.4-5.14c.78-1.05-2.99-12.31-2.99-12.31,0,0-5.23-6.68-5.49-6.68s.32-8.19,.32-8.19Z"/><path class="cls-3" d="M176.48,51.21s-3.92,.87-5.97,1.74c-.7,.3-1.22,1.26-.61,1.44"/><path class="cls-3" d="M196.92,38.24l-20.84,13.24s-5.23,1.97-6.27,3.14,6.29-.62,6.29-.62c0,0-1.2,3.22-1.26,3.74s2.41-1.2,3.11-3c.7-1.8,21.13-9.41,21.13-9.41l-2.15-7.08Z"/><path class="cls-2" d="M19.35,97.8c-10.27,7.19-10.33,8.02-10.33,10.45,0,.52,.32,6.68,5.22,7.67,2.48,.5,3.46-.04,5.33-.46,4.56-1.03,7.66-6.52,11.22-8.98,4.89-3.96,10.81-6.37,14.41-11.75,5.55-9.8-8.79-18.86-13.21-10.25,.19-.13,.35-.14,.48-.07,2.06-2.27,4.59-3.74,5.94-.29,.37,1.88,1.42,4.42,.18,6.08-1.24,2.48-2.71,3.59-6.09,3.83-3.16,.23-4.05-1.02-4.23-3.26-3.43,1.44-5.98,4.93-8.92,7.03Z"/><path class="cls-3" d="M29.9,93.88c.53,.35,.55,.2,1.92,.21,.01,0,.02,0,.04,0,.21-.03,.42-.05,.63-.06,1.23-.05,2.54,.14,3.61-.56,1.05-.93,1.76-2.1,2.48-3.28,.12-.2,.25-.4,.38-.6,.08-.13,.17-.26,.25-.39-.19-1.67-.26-3.48-.82-5.08-1.35-3.45-3.88-1.98-5.94,.29-.64,.71-1.24,1.49-1.74,2.23-.41,.6-2.5,2.27-2.47,3.9,0,.08,.01,.16,.02,.23,.1,.91,.48,1.94,1.1,2.63,.16,.18,.34,.34,.54,.47Z"/><path d="M33.67,84.82c-.09,0-.18-.03-.24-.1-.25-.26-.51-.36-.69-.41-.18-.05-.29-.23-.24-.41,.05-.18,.23-.29,.41-.24,.26,.07,.65,.23,1,.6,.13,.14,.12,.35-.01,.48-.07,.06-.15,.09-.23,.09Z"/><path d="M37.37,87.64c-.12,0-.23-.06-.3-.17-.13-.24-.68-.84-1.1-.95-.18-.05-.29-.23-.24-.41,.05-.18,.23-.29,.41-.24,.68,.18,1.35,.98,1.52,1.28,.09,.16,.03,.37-.13,.46-.05,.03-.11,.04-.16,.04Z"/><path class="cls-4" d="M25.81,95.15s2.76-.93,6.68-1.03c1.64-.04,2.63-.16,3.5-.72,1.21-.78,2.18-2.43,4.32-5.93"/><path class="cls-4" d="M9.2,108.25s9.61-5.52,26.68-5.37"/><path class="cls-4" d="M27.18,103.31s-.58-4.42-4.93-7.98"/><path class="cls-4" d="M35.01,93.91s2.49-.23,4.78,.43"/><g><polygon class="cls-13" points="137.91 104.53 133.67 108.11 138.49 111.83 137.67 109.37 140.7 111.69 141.38 111.63 139.57 109.39 142.1 111.33 143.15 111.96 143.5 111.12 140.58 108.25 140.83 107.95 143.35 110.04 144.33 110.83 144.87 110.29 143.12 108.18 144.58 107.96 144.58 107.39 141.41 107.09 139.27 105.78 137.91 104.53"/><polygon class="cls-13" points="158.09 96.19 154.49 98.22 154.49 100.05 160.93 98.24 158.09 96.19"/><path class="cls-2" d="M152.62,123.41c-5.3-3.6-26.62-.37-30.2-8.51-3.58-8.13,3.2-11.64,3.2-11.64,0,0,1.15,1.54,3.37,2.8,2.21,1.27,4.09,2,5.1,2.82,2.53,2.12,5.72,4.97,5.06,3.17-.17-.47-.36-.86-.55-1.18l.91,.4s0,0,.01,0c.88,.58,2,1.22,2.36,1.04,.85,.41,1.72,.82,2.58,1.21,2.77,1.27,5.49,2.32,7.43,2.4,.2,0,.86,.4,1.45,.79,.44,.29,.86,.57,1.02,.69,.24,.16,.48,.34,.75,.55,4.84,3.68,2.83,9.04-2.48,5.45Z"/><path class="cls-4" d="M138.49,110.71c.07,.03,.16,.07,.24,.11,.09,.05,.19,.09,.28,.13"/><path class="cls-4" d="M144.85,110.94c-.44,.28-.75,.24-1.08,0,.35,2.29-1.79,.81-1.95,.69,.12,.2,.19,.38,.16,.55-.01,.07-.05,.12-.11,.15-.36,.18-1.48-.46-2.36-1.04,0,0-.01,0-.01,0-.18-.11-.34-.23-.49-.33-.36-.24-.62-.44-.67-.47,.05,.07,.1,.14,.15,.23,.03,.05,.07,.11,.1,.17,.2,.32,.38,.71,.55,1.18,.65,1.81-5.22-3.31-5.3-3.38-.24-.2-.5-.41-.76-.61l4.95-4,.09,.12c1.41,1.69,2.67,2.97,4.44,2.86,3.9-.24,2.45,1.87,.73,1.05,.27,.18,2.89,1.98,1.56,2.84Z"/><path class="cls-4" d="M137.49,109.6s.39,.23,.84,.87h0"/><path class="cls-4" d="M153.72,89.11c.66,1.84,1.26,3.25,1.96,4.4,.82,1.35,1.77,2.33,3.12,3.17,3.48,2.18,5.14,4.7,2.82,4.94"/><path class="cls-4" d="M125.44,102.84c-7.52-6.06-1.91-21.26-1.91-21.26,3.09-7.34,8.83-6.44,9.67-8.63"/><path class="cls-4" d="M140.58,108.11c1.83,.85,2.5,2.31,3.2,2.83"/><path class="cls-4" d="M143.29,108.09s-.02-.02-.02-.02"/><path class="cls-4" d="M139.57,109.6s1.7,1.13,2.24,2.02h0"/><path class="cls-4" d="M138.34,110.48h0"/><path class="cls-4" d="M141.83,111.63h0"/><line class="cls-4" x1="137.18" y1="103.05" x2="137.17" y2="103.05"/><path class="cls-4" d="M135.16,100.83h-.02"/><path class="cls-2" d="M151.5,95.5s-1.01,2.28,.57,5.97c0,0,4.75,9.83,1.26,15.26,0,0,0,.01-.01,.02-3.01-1.78-3.16-.07-6.93-2.14-.78-.42-1.41-.78-1.93-1.06l-2.47-1.36c.03-.16-.03-.35-.16-.55,.16,.11,2.3,1.6,1.95-.69,.32,.24,.64,.28,1.08,0,1.33-.86-1.29-2.67-1.56-2.84,1.71,.82,3.17-1.29-.73-1.05-1.77,.11-3.03-1.17-4.44-2.86l-.09-.12-4.95,4s-4.6-2.02-6.39-3.69c0,0-1.87-1.88-3.02-3.31-5.31-6.58-.38-21.63,2.03-23.91,2.4-2.28,7.5-4.21,7.5-4.21,4.92,1.68,9.07,.92,9.9,.13,.03-.03,0,.04,0,0-.03-.09,1.85,.25,6.12,3.25,0,0,0,0,.01,0,.09,.07,.19,.14,.28,.22,.06,.05,.12,.11,.19,.18,4.26,3.86,8.51,18.89,8.51,18.89-.04,.07-.11,.16-.22,.26-.98,.9-4.59,2.65-4.59,2.65l-1.89-3.04Z"/><path class="cls-4" d="M154.28,98.7s-.67,6.98,.81,5.16,.92-4.5,2.9-2.27c1.98,2.23,1.62,3.69,2.39,2.24s-.74-3.31-.74-3.31"/><path class="cls-4" d="M161.09,102.63s3.69,4.05,2.04,.33l-1.29-1.99"/><path class="cls-2" d="M158.44,117.17c-1.56,.46-2.14,1.43-2.14,1.43,.85,.97,1.77,2.82,1.65,3.92-.27,2.47,13.94-.84,11.24-5.42-1.37-2.31-7.35-.87-7.35-.87"/><path class="cls-2" d="M160.62,106.25s-2.83-.64-3.05,5.32c-.05,1.49,0,5.98,0,5.98,0,0,3.79-1.5,7.31-1.72,0,0,3.46-5.75,4.39-12.74,.93-6.99-7.01-4.93-7.01-4.93l-10.39,2.76s4.68,9.57,1.46,15.81l1.01,.68s1.59-1.33,2.94-3.29"/><path class="cls-1" d="M151.5,95.5c-1.39-2.53-3.54-7.84-4.93-10.5"/><path class="cls-4" d="M130.82,82.59s.57,10.62,.04,15.19c0,0,.82-.21,4.01,2.77,.1,.09,1.42,1.36,1.52,1.45l1.73,2.18"/><path class="cls-14" d="M148.33,71.1h-.02s.01-.02,.01-.02c0,0,0,.02,.01,.02Z"/><path class="cls-3" d="M133.46,72.59c.84-2.18,0-8.22,0-8.22-5.5-8.21-3.45-14.8,1.45-18.49,4.9-3.69,15.57-6.48,21.83,3.83,6.26,10.3-3.05,14.74-3.05,14.74,0,0-.86,1.32,.1,2.42,.96,1.11-1.48,1.9-1.48,1.9,0,0-1.3,4.39-4.09,5.79,0,0-1.55,.84-3.31,.37-1.76-.47-3.48-1.96-3.48-1.96"/><path class="cls-4" d="M139.62,58.8s-3.09-1.54-3.66,1.7c-.57,3.24,2.29,2.74,2.29,2.74"/><circle cx="150.48" cy="64.58" r=".76"/><path class="cls-4" d="M149.59,61.95s1.54-1.24,2.9,.3"/><line class="cls-4" x1="137.9" y1="60.66" x2="138.57" y2="60.91"/><circle class="cls-14" cx="145.49" cy="64.26" r="1.6"/><path class="cls-12" d="M148.32,71.07s0,.01-.01,.01c-.47,.33-1.22,.36-1.89-.21-.55-.46-.76-.96-.83-1.38,0,0,.01,0,.03,0,.02,0,.05-.01,.09-.02,.07-.01,.17-.03,.3-.03,.05,0,.09,0,.14,0,.09,0,.19,0,.31,.02,.21,.03,.46,.1,.7,.22,.06,.03,.12,.06,.18,.11,.05,.02,.09,.05,.13,.09,.32,.24,.63,.62,.87,1.19Z"/><polygon class="cls-14" points="145.58 69.49 145.58 69.49 145.58 69.49 145.58 69.49"/><path class="cls-14" d="M148.32,71.07c-.24-.57-.55-.95-.87-1.19-.04-.04-.08-.07-.13-.09-.06-.05-.12-.07-.18-.11-.24-.13-.48-.2-.7-.22-.11-.02-.21-.02-.31-.02-.05,0-.1,0-.14,0-.13,0-.23,.02-.3,.03-.04,0-.07,.01-.09,.02-.02,0-.03,0-.03,0-.09-.59,.1-1.03,.1-1.03,.87-1.23,2.54,.58,2.54,.58,.85,.76,.68,1.63,.09,2.03Z"/><path class="cls-6" d="M148.17,69.1s-1.68-1.82-2.54-.58c0,0-.19,.44-.1,1.03,.07,.43,.28,.92,.83,1.38,.67,.57,1.42,.54,1.89,.21,.01,0,.01-.01,.01-.01,.59-.4,.76-1.27-.09-2.03Z"/><path class="cls-4" d="M158.88,56.93s-6.73,2.63-11.49-1.43c0,0-1.81,3.6-5.97,1.21"/></g><path class="cls-7" d="M102.4,109.2c.37-.05,1.21,.14,1.55,.28,.71,.29,1.45,.73,1.65,1.47,.04,.15,.04,.35-.1,.42-.15,.08-.32-.06-.45-.18-.23-.2-.51-.33-.8-.4,.59,.3,1.11,.73,1.51,1.25,.14,.18,.26,.43,.12,.61-.08,.1-.22,.13-.35,.11-.13-.02-.24-.08-.35-.15-.25-.14-.51-.29-.76-.43-.31-.17-.63-.35-.98-.41,.52,.3,.97,.72,1.3,1.21,.02,.04,.05,.08,.04,.12,0,.04-.04,.06-.08,.08-.32,.16-.69-.06-1-.23-.36-.21-.75-.37-1.15-.49,.28,.19,.53,.41,.76,.66,.09,.1,.18,.21,.2,.34,.02,.13-.04,.29-.17,.32-.08,.02-.15,0-.22-.04-.35-.17-.59-.51-.95-.67-.43-.19-.94-.06-1.41-.12-.36-.04-.72-.2-.96-.47-.25-.27-.38-.65-.33-1.01l2.94-2.28Z"/><path class="cls-7" d="M93.38,112.05c.39-.03,.76,.13,1.11,.3,.71,.35,1.44,.86,1.6,1.64,.03,.16,.01,.37-.14,.43-.17,.07-.33-.09-.46-.22-.22-.22-.5-.38-.8-.47,.59,.35,1.09,.84,1.47,1.41,.13,.19,.24,.47,.08,.64-.09,.1-.24,.12-.37,.09-.13-.03-.24-.11-.36-.18-.25-.17-.5-.33-.75-.5-.31-.2-.62-.41-.98-.49,.52,.34,.95,.81,1.26,1.35,.02,.04,.04,.08,.03,.12-.01,.04-.05,.06-.09,.07-.34,.14-.71-.11-1.01-.32-.36-.24-.75-.44-1.15-.59,.27,.21,.52,.46,.73,.74,.08,.11,.17,.23,.18,.37,.01,.14-.07,.29-.2,.32-.08,.01-.16-.02-.23-.06-.35-.2-.58-.57-.93-.76-.44-.23-.97-.13-1.45-.23-.37-.07-.73-.26-.96-.56-.24-.29-.35-.7-.27-1.07,.01-.06,.05-.13,.11-.12"/><path class="cls-9" d="M95.85,96.44c1.76,4.06,4.45,9.2,7.06,12.77-.96,1-2.41,2.14-3.68,2.69-.44-.47-.98-.97-1.41-1.43-.57-.62-1.15-1.23-1.67-1.89-.73-.93-1.35-1.93-1.85-3,0,0-2.04-4.07-1.24-6.46,.8-2.38,2.78-2.68,2.78-2.68Z"/><path class="cls-5" d="M66.42,105.96c-1.28-.64-2.82-.75-4.18-.3-.34,.11-.68,.27-.9,.55-.18-.62-.96-1-1.6-1.05-.65-.05-1.28,.19-1.85,.51-.57,.32-1.09,.72-1.66,1.02-.63,.33-1.33,.54-2.04,.62-.57,.06-1.2,.07-1.61,.47-.32,.31-.4,.81-.3,1.24,.1,.43,.37,.81,.68,1.14,.86,.91,2.03,1.5,3.26,1.74,1.23,.25,2.51,.17,3.73-.09,.29-.06,.58-.14,.88-.12,.35,.02,.68,.15,1.01,.27,1.83,.65,3.86,.73,5.74,.22,.58-.16,1.16-.38,1.57-.81,.43-.45,.63-1.06,.72-1.68,.15-1.03,0-2.14-.63-2.97-.62-.83-1.84-1.09-2.82-.75Z"/><path class="cls-9" d="M76.92,113.66c3.93,.72,8.12-.06,11.54-2.14,3.42-2.08,6.03-5.44,7.2-9.27,.57-1.86,.79-5.3-.11-7.02l-10.45-.64c-.96,.99-2.27,1.62-3.63,1.77-1.88,.2-3.74-.49-5.63-.62-3.36-.23-6.83,1.54-8.41,4.51-.88,1.66-1.43,3.47-1.07,5.31,.21,1.07,.25,2.24,.68,3.23,.19,.43,.41,.85,.48,1.31,.02,.17,0,.38-.15,.45-.14,.06-.29-.03-.42-.1-1.56-.97-3.64-1.04-5.27-.19-.24-.38-1.01-.64-1.46-.57-.44,.06-.85,.29-1.23,.52-1.55,.9-3.11,1.79-4.66,2.69-.16,.09-.33,.19-.45,.35-.31,.42-.05,1.02,.3,1.4,.94,1.02,2.42,1.34,3.81,1.38,1.07,.03,2.16-.07,3.18-.38,2.7,1.09,5.6,1.51,8.51,1.43,1.31-.04,2.64-.2,3.87-.66,1.23-.46,2.37-1.24,3.1-2.33l.27-.42Z"/><path class="cls-9" d="M86.9,98.79c.7,4.42,3.31,8.31,6.33,11.61,.36,.39,.76,.86,.69,1.39-.04,.37-.3,.67-.57,.94-.91,.92-2,1.66-3.19,2.17-.17,.07-.34,.14-.52,.12-.21-.02-.38-.18-.56-.31-2.56-1.79-4.65-5.56-4.89-6.15-.98-2.36-2.01-4.67-2.57-7.16"/><path class="cls-8" d="M101.5,77.57c-3.51-5.9-10.61-5.16-10.61-5.16-10.81,.18-12.05,9.85-12.16,13.12-.58-.07-1.22,.14-1.51,.64-.1,.17-.15,.35-.2,.54-.07,.26-.13,.52-.14,.79-.03,.9,.56,1.8,1.41,2.12,.46,.18,.98,.17,1.46,.01,1.53,3.29,4.33,6,7.76,7.17,4.44,1.51,9.76,.27,12.89-3.23,1.52-1.7,2.51-3.86,2.81-6.11,.44-3.35,.03-6.99-1.69-9.89Z"/><path class="cls-11" d="M93.23,88.95c.27-.13,.47-.43,.46-.73-.01-.3-.25-.59-.55-.64-.16-.03-.33,.02-.49,.06"/><ellipse class="cls-15" cx="85.91" cy="87.36" rx=".65" ry=".77"/><ellipse class="cls-15" cx="100.73" cy="87.36" rx=".65" ry=".77"/><path class="cls-4" d="M230.94,21.68c-.17-1.46-.82-1.97-1.24-2.14l-.84,.06s-.22-5.75-.88-6.79c0,0-.77,.83-1.74-.43,0,0-.88,.98-2.52,.16-1.65-.82-2.62-1.81-2.62-1.81,0,0,.32,1.69,.88,2.41,0,0-4.55-.99-6.52-3.02,0,0-.16,1.76,1.1,3.23,0,0-4.22-.05-5.53-2.62,0,0-2.3,.27-1.87,8.38l-.12,.02c.01,.26,.01,.41,.01,.41,0,0-1.97-.32-2.13,2.09-.17,2.4,3.17,3.55,3.17,3.55,0,0,.59,2.33,2.26,4.4,.06,.09,.12,.16,.2,.25,1.34,1.56,3.32,2.91,6.14,2.91,3.01,0,5.18-1.48,6.64-3.13,.01-.01,.01-.02,.02-.02,1.77-1.99,2.52-4.18,2.52-4.18,0,0,3.34-1.48,3.07-3.72Zm-12.22,2.31c.32,.17,.44,.29,.93-.2s-.09-1.13-.49-1.52c-.27-.77-.05-1.74-.05-1.74m.45,2.35-6.68-6.35s1.1-1.53,3.01-.32m5.67,10.59c-1.85,1.63-3.78,.93-4.82,.31"/><path class="cls-3" d="M228.86,19.6s-.22-5.75-.88-6.79c0,0-.77,.83-1.74-.43,0,0-.88,.98-2.52,.16-1.65-.82-2.62-1.81-2.62-1.81,0,0,.32,1.69,.88,2.41,0,0-4.55-.99-6.52-3.02,0,0-.16,1.76,1.1,3.23,0,0-4.22-.05-5.53-2.62,0,0-2.3,.27-1.87,8.38l-.12,.02c-.01-1.32-.04-5.53,.12-7.58,.27-3.28,3.34-5.96,11.06-5.63,7.72,.32,8.1,6.46,8.43,7.39,.33,.93,.67,6.14,.67,6.14,0,0,.17,0,.4,.1l-.84,.06Z"/><path class="cls-3" d="M229.79,19.54h-.09l-.84,.06s-.22-5.75-.88-6.79c0,0-.77,.83-1.74-.43,0,0-.88,.98-2.52,.16-1.65-.82-2.62-1.81-2.62-1.81,0,0,.32,1.69,.88,2.41,0,0-4.55-.99-6.52-3.02,0,0-.16,1.76,1.1,3.23,0,0-4.22-.05-5.53-2.62,0,0-2.3,.27-1.87,8.38l-.12,.02-1.14,.25s-1.63-7.16-.27-10.84c1.37-3.66,7.02-7.56,11.49-7.07,4.49,.5,5.53,1.98,5.53,1.98,0,0,6.03,1.14,6.3,6.84,.27,5.69-1.15,9.24-1.15,9.24Z"/><path class="cls-3" d="M213.42,20.53s1.1-1.09,2.46,.06"/><path class="cls-3" d="M226.7,29.58s-1.81,6.5-7.72,6.5-6.57-6.25-6.57-6.25h.14c1.34,1.56,3.32,2.91,6.14,2.91,3.01,0,5.18-1.48,6.64-3.13l1.37-.02Z"/><path class="cls-3" d="M225.35,29.58h1.35l-1.37,.02s.01-.02,.02-.02Z"/><path class="cls-2" d="M234.83,41.16c-.32,1.48-.82,6-.24,10.52,.57,4.52,2.13,16.75,2.13,16.75,0,0-22.28,6.22-30.15,1.09-.17-.11-.33-.22-.48-.35,0,0,.49-6,.17-7.4-.33-1.39-.25-17.68-.34-18.42-.07-.74-4.28,3.75-5.34,3.26,0,0-6.09-5-4.47-11.04,0,0,8.71-4.7,11.79-5.63s4.45-.36,4.45-.36c.06,.09,.12,.16,.2,.25h-.14s.67,6.25,6.57,6.25,7.72-6.5,7.72-6.5c0,0,2.42-.24,4.54,.18,7.26,1.45,13.09,6.42,13.09,6.42,0,0-3.07,5.34-5.4,9.41l-4.1-4.42Z"/><path class="cls-3" d="M213.95,109.78l-1.48,4.39c-.35,.05-4.05,.56-6.69,.31l.24-4.83h.14c1.57,.46,4.24,.88,7.81,.12Z"/><path class="cls-9" d="M238.45,106.7c-.31,.11-.72,.17-1.19,.2-2.55,.2-7.03-.54-8.64-.83-.38-.07-.61-.11-.61-.11-.58-2.71,.48-10.75,.48-10.75-2.87-3.86-5.25-11.17-5.25-11.17-.58,4.02-6.16,13.88-6.16,13.88l-.66,11.17c-.87,.3-1.7,.52-2.49,.69-3.56,.75-6.24,.33-7.81-.14-1.06-.31-1.62-.64-1.62-.64,0,0,1.48-10.59,1.31-17.9-.16-7.31,.58-21.52,.58-21.52l.15-.06c7.87,5.13,30.15-1.09,30.15-1.09,0,0,2.87,12.81,3.7,18.24,.82,5.42,.41,19.22-1.97,20.03Z"/><path class="cls-3" d="M237.26,106.9l-1.23,4.29c-1.67,.11-5.15,.27-6.83-.05l-.58-5.07c1.61,.28,6.09,1.03,8.64,.83Z"/><path class="cls-3" d="M212.25,123.62c-.66,.83-3.7,2.55-8.54,3.04-4.85,.49-5.67-1.15-5.58-2.71,.07-1.56,3.45-2.65,5-3.53,1.56-.89,1.57-6.09,1.57-6.09,.33,.07,.69,.12,1.08,.15,2.65,.25,6.35-.26,6.69-.31h.02s-.82,3.45-.32,4.85c.48,1.4,.73,3.77,.07,4.59Z"/><path class="cls-3" d="M235.98,118.12c-.32-1.08,.99-6.99,.99-6.99,0,0-.36,.02-.93,.06-1.67,.11-5.15,.27-6.83-.05-.14-.02-.26-.05-.37-.09,0,0-.09,1.15,.25,2.62,.32,1.48-1.31,2.64-.83,4.94,.49,2.29,1.91,4.59,3.95,5.09,2.04,.5,6.25,.16,6.66-1.4,.41-1.56-2.55-3.12-2.88-4.18Zm-4.68,.57s2.62-.9,3.53-.16"/><path class="cls-4" d="M229.22,21.51s-.96,.74-.91,1.57"/><path class="cls-4" d="M208.58,21.42s.61,.74,.61,1.7"/><path class="cls-4" d="M222.49,16.28c1.91-1.21,3.01,.32,3.01,.32"/><path class="cls-3" d="M224.95,20.6s-1.1-1.09-2.46,.06"/><path class="cls-10" d="M31.79,89.12c-.11-.12-.15-.31-.08-.47,.07-.15,.25-.25,.41-.21,.09,.02,.16,.08,.24,.13"/><ellipse cx="34.16" cy="89.46" rx=".48" ry=".41" transform="translate(-61.56 86.72) rotate(-67.46)"/><ellipse cx="31.61" cy="87.24" rx=".48" ry=".41" transform="translate(-61.08 83) rotate(-67.46)"/></svg>