<?xml version="1.0" encoding="UTF-8"?><svg id="Calque_1" xmlns="http://www.w3.org/2000/svg" viewBox="0 0 128 128.13"><defs><style>.cls-1,.cls-2,.cls-3,.cls-4{stroke:#000;stroke-linejoin:round;}.cls-1,.cls-2,.cls-4{fill:none;}.cls-1,.cls-3,.cls-4{stroke-linecap:round;}.cls-5{fill:#bfe6fc;}.cls-6{fill:#87ccf3;}.cls-3{fill:#fff;}.cls-3,.cls-4{stroke-width:2px;}</style></defs><path class="cls-5" d="M79.33,109.48l-.13,2.78v6.91c0,1.1-.89,1.99-1.99,1.99h-4.55c0-1.85-1.5-3.35-3.35-3.35s-3.35,1.5-3.35,3.35h-6.47c0-1.85-1.5-3.35-3.35-3.35s-3.35,1.5-3.35,3.35h-4.56c-1.1,0-1.99-.89-1.99-1.99v-6.91l-.13-2.86c-.11-2.59-.17-5.18-.17-7.77,0-9.59,.77-19.17,2.3-28.65l-1-16.74c-.68-3.13-1.01-6.31-1.01-9.49s.3-6.04,.91-9.01l.1-.48-.64-3.92c-.26-1.62-.02-3.27,.69-4.74,.24-.49,.49-.98,.75-1.46h29.38c.24,.46,.48,.93,.71,1.4l.03,.06c.71,1.47,.95,3.13,.69,4.74l-.64,3.92h-.01l.1,.48c1.26,6.1,1.22,12.4-.1,18.5l-1,16.74,.02,.09c1.93,12.03,2.64,24.23,2.11,36.41Z"/><path class="cls-4" d="M78.85,33.34l-.64,3.92h-30.97l-.64-3.92c-.26-1.61-.02-3.27,.69-4.74h0c1.04-2.16,2.29-4.2,3.74-6.09,1.09-1.42,2.28-2.76,3.57-4,.05-.05,.11-.1,.16-.15,.64-.64,1.09-1.48,1.26-2.42,.05-.26,.07-.53,.07-.81,0-.04,0-.08,0-.12l.13-1.74h13.03l.13,1.86c0,.12,0,.25,.02,.37v.13c.12,1.05,.58,1.98,1.28,2.69,.08,.09,.17,.17,.26,.24,2.96,2.88,5.4,6.26,7.2,9.98l.03,.06c.71,1.47,.95,3.13,.69,4.74Z"/><path class="cls-3" d="M78.2,56.24h-30.96c-1.32-6.09-1.35-12.39-.1-18.5l.1-.48h30.96l.1,.48c1.26,6.11,1.22,12.41-.1,18.5h0Z"/><polygon class="cls-4" points="77.2 72.98 48.24 72.98 47.24 56.24 78.2 56.24 77.2 72.98"/><path class="cls-4" d="M79.33,109.48l-.13,2.78v6.91c0,1.1-.89,1.99-1.99,1.99h-4.55c0-1.85-1.5-3.35-3.35-3.35s-3.35,1.5-3.35,3.35h-6.47c0-1.85-1.5-3.35-3.35-3.35s-3.35,1.5-3.35,3.35h-4.56c-1.1,0-1.99-.89-1.99-1.99v-6.91l-.13-2.86c-.11-2.59-.17-5.18-.17-7.77,0-9.59,.77-19.17,2.3-28.65h28.96l.02,.09c1.93,12.03,2.64,24.23,2.11,36.41Z"/><line class="cls-4" x1="54.68" y1="13.27" x2="70.76" y2="13.27"/><rect class="cls-4" x="56.2" y="6.96" width="13.14" height="6.31"/><line class="cls-2" x1="58.58" y1="6.96" x2="58.58" y2="13.52"/><line class="cls-2" x1="60.7" y1="6.96" x2="60.7" y2="13.52"/><line class="cls-2" x1="62.81" y1="6.96" x2="62.81" y2="13.52"/><line class="cls-2" x1="64.93" y1="6.96" x2="64.93" y2="13.52"/><line class="cls-2" x1="67.04" y1="6.96" x2="67.04" y2="13.52"/><g><line class="cls-1" x1="47.02" y1="83.97" x2="65.47" y2="83.97"/><line class="cls-1" x1="70.27" y1="83.97" x2="78.63" y2="83.97"/><line class="cls-1" x1="63.75" y1="100.33" x2="78.63" y2="100.33"/><line class="cls-1" x1="47.02" y1="92.62" x2="63.28" y2="92.62"/><line class="cls-1" x1="47.02" y1="100.33" x2="58.61" y2="100.33"/><line class="cls-1" x1="74.8" y1="92.62" x2="78.63" y2="92.62"/><line class="cls-1" x1="67.13" y1="92.62" x2="70.95" y2="92.62"/></g><path class="cls-6" d="M63.28,52.78c2.41,0,4.36-1.95,4.36-4.36s-4.36-7.7-4.36-7.7c0,0-4.36,5.29-4.36,7.7s1.95,4.36,4.36,4.36Z"/></svg>