<?xml version="1.0" encoding="UTF-8"?><svg id="Calque_1" xmlns="http://www.w3.org/2000/svg" viewBox="0 0 128 128"><defs><style>.cls-1{fill:#f3d587;}.cls-2{fill:#bfe6fc;}.cls-3{fill:#87ccf3;}.cls-4,.cls-5{stroke-linecap:round;stroke-linejoin:round;stroke-width:2px;}.cls-4,.cls-5,.cls-6,.cls-7{stroke:#000;}.cls-4,.cls-6{fill:#fff;}.cls-5{fill:none;}.cls-6,.cls-7{stroke-miterlimit:10;}.cls-7{fill:#8987f3;}.cls-8{font-family:MyriadPro-Regular, 'Myriad Pro';font-size:10.14px;}</style></defs><g><rect class="cls-3" x="9.49" y="30.35" width="108.76" height="68.67" rx="5.67" ry="5.67"/><rect class="cls-5" x="9.49" y="30.35" width="108.76" height="68.67" rx="5.67" ry="5.67"/></g><polygon class="cls-2" points="89.01 31.31 49.8 97.92 58.2 97.92 96.33 31.31 89.01 31.31"/><polygon class="cls-2" points="98.46 31.31 59.24 97.92 67.65 97.92 105.78 31.31 98.46 31.31"/><g><rect class="cls-1" x="16.54" y="57.08" width="14.64" height="14.64" rx="2.83" ry="2.83"/><rect class="cls-5" x="16.54" y="57.08" width="14.64" height="14.64" rx="2.83" ry="2.83"/></g><rect x="16.59" y="87.46" width="66.41" height="2.55"/><rect class="cls-4" x="35.98" y="66.9" width="21.81" height="5.11"/><rect class="cls-4" x="16.18" y="38.52" width="36.57" height="9.53"/><text class="cls-8" transform="translate(34.97 63.59)"><tspan x="0" y="0">0000 000 000 00</tspan></text><rect class="cls-7" x="90.17" y="35.24" width="21.43" height="13.61"/><path class="cls-6" d="M97.16,42.44h3.9c-.18,2.15-1.98,3.83-4.17,3.83-2.31,0-4.18-1.87-4.18-4.19s1.87-4.19,4.18-4.19,4.19,1.87,4.19,4.19h-3.92v.35Z"/><path class="cls-6" d="M102.72,38.58h5.19c.94,0,1.7,.76,1.7,1.7h0c0,.97-.79,1.76-1.76,1.76h-5.13v-3.46h0Z"/><path class="cls-6" d="M102.72,42.44h5.19c.94,0,1.7,.76,1.7,1.7h0c0,.97-.79,1.76-1.76,1.76h-5.13v-3.46h0Z"/></svg>