<?xml version="1.0" encoding="UTF-8"?><svg id="Calque_1" xmlns="http://www.w3.org/2000/svg" viewBox="0 0 128 128"><defs><style>.cls-1,.cls-2{fill:#f3d587;}.cls-1,.cls-3,.cls-4,.cls-5{stroke:#000;}.cls-1,.cls-4,.cls-5{stroke-linecap:round;stroke-linejoin:round;}.cls-3{stroke-miterlimit:10;stroke-width:2px;}.cls-3,.cls-5{fill:#fff;}.cls-4{fill:#ff6d75;}.cls-4,.cls-5{stroke-width:3px;}</style></defs><polygon class="cls-4" points="114.24 34.53 13.77 34.53 64.03 11.89 114.24 34.53"/><rect class="cls-5" x="13.77" y="34.53" width="100.47" height="84.57"/><g><g><g><path class="cls-2" d="M46.33,58.05c-2.07,0-3.76-1.68-3.76-3.76s1.68-3.76,3.76-3.76,3.75,1.69,3.75,3.76-1.68,3.76-3.75,3.76Z"/><path d="M46.33,51.04c1.79,0,3.26,1.46,3.26,3.26s-1.46,3.26-3.26,3.26-3.26-1.46-3.26-3.26,1.46-3.26,3.26-3.26m0-1c-2.35,0-4.26,1.91-4.26,4.26s1.91,4.26,4.26,4.26,4.26-1.91,4.26-4.26-1.9-4.26-4.26-4.26h0Z"/></g><path class="cls-1" d="M38.48,73.98s.16,1.12,1.17,1.09c.05,0,.09,0,.14,0,.7-.03,1.24-.62,1.21-1.32,0,0-.01-.23-.02-.61,0-.39-.01-.94,.02-1.6,.03-.65,.1-1.41,.23-2.2s.33-1.6,.62-2.36c.16-.43,.35-.83,.56-1.2l-.12,8.47c0,.13,0,.26,0,.4l.65,15.97c.04,.75,.64,1.37,1.4,1.4,.82,.04,1.5-.59,1.54-1.4l.47-12.91,.48,12.91c.04,.75,.64,1.37,1.41,1.4,.81,.04,1.5-.59,1.54-1.4l.63-16.01c0-.14,0-.27,0-.41l-.14-8.33c.19,.35,.36,.72,.51,1.12,.28,.75,.48,1.57,.61,2.36,.13,.79,.2,1.55,.23,2.2,.03,.65,.03,1.21,.02,1.6,0,.39-.02,.61-.02,.61-.03,.65,.45,1.23,1.11,1.31,.51,.06,.99-.26,1.22-.72l.19-.38s.03-.24,.07-.66c.04-.42,.09-1.03,.12-1.76,.03-.73,.03-1.6-.05-2.54-.08-.94-.24-1.96-.52-2.97-.29-1.01-.71-2.02-1.26-2.91-.28-.45-.58-.86-.91-1.24-.32-.37-.67-.7-1.02-.98-.69-.57-1.36-.93-1.88-1.14-.26-.11-.48-.18-.66-.23-1.04-.29-2.23-.25-3.23-.06-.08,.02-.15,.03-.24,.06-.18,.05-.4,.12-.66,.23-.52,.21-1.19,.58-1.88,1.14-.35,.28-.69,.61-1.02,.98-.32,.37-.63,.79-.91,1.24-.56,.89-.97,1.9-1.26,2.91-.29,1.01-.45,2.03-.52,2.97-.08,.94-.08,1.81-.05,2.54,.03,.74,.08,1.34,.12,1.76,.05,.42,.08,.66,.08,.66v.02"/></g><g><g><path class="cls-2" d="M83.03,60.16c-2.07,0-3.76-1.68-3.76-3.76s1.68-3.76,3.76-3.76,3.75,1.69,3.75,3.76-1.68,3.76-3.75,3.76Z"/><path d="M83.03,53.15c1.79,0,3.26,1.46,3.26,3.26s-1.46,3.26-3.26,3.26-3.26-1.46-3.26-3.26,1.46-3.26,3.26-3.26m0-1c-2.35,0-4.26,1.91-4.26,4.26s1.91,4.26,4.26,4.26,4.26-1.91,4.26-4.26-1.9-4.26-4.26-4.26h0Z"/></g><path class="cls-1" d="M75.18,76.09s.16,1.12,1.17,1.09c.05,0,.09,0,.14,0,.7-.03,1.24-.62,1.21-1.32,0,0-.01-.23-.02-.61,0-.39-.01-.94,.02-1.6,.03-.65,.1-1.41,.23-2.2s.33-1.6,.62-2.36c.16-.43,.35-.83,.56-1.2l-.12,8.47c0,.13,0,.26,0,.4l.65,15.97c.04,.75,.64,1.37,1.4,1.4,.82,.04,1.5-.59,1.54-1.4l.47-12.91,.48,12.91c.04,.75,.64,1.37,1.41,1.4,.81,.04,1.5-.59,1.54-1.4l.63-16.01c0-.14,0-.27,0-.41l-.14-8.33c.19,.35,.36,.72,.51,1.12,.28,.75,.48,1.57,.61,2.36s.2,1.55,.23,2.2,.03,1.21,.02,1.6c0,.39-.02,.61-.02,.61-.03,.65,.45,1.23,1.11,1.31,.51,.06,.99-.26,1.22-.72l.19-.38s.03-.24,.07-.66c.04-.42,.09-1.03,.12-1.76,.03-.73,.03-1.6-.05-2.54-.08-.94-.24-1.96-.52-2.97-.29-1.01-.71-2.02-1.26-2.91-.28-.45-.58-.86-.91-1.24-.32-.37-.67-.7-1.02-.98-.69-.57-1.36-.93-1.88-1.14-.26-.11-.48-.18-.66-.23-1.04-.29-2.23-.25-3.23-.06-.08,.02-.15,.03-.24,.06-.18,.05-.4,.12-.66,.23-.52,.21-1.19,.58-1.88,1.14-.35,.28-.69,.61-1.02,.98-.32,.37-.63,.79-.91,1.24-.56,.89-.97,1.9-1.26,2.91-.29,1.01-.45,2.03-.52,2.97-.08,.94-.08,1.81-.05,2.54,.03,.74,.08,1.34,.12,1.76,.05,.42,.08,.66,.08,.66v.02"/></g></g><g><g><g><path class="cls-2" d="M30.57,75.83c-2.07,0-3.75-1.68-3.75-3.76s1.68-3.76,3.75-3.76,3.76,1.68,3.76,3.76-1.68,3.76-3.76,3.76Z"/><path d="M30.57,68.82c1.79,0,3.26,1.46,3.26,3.26s-1.46,3.26-3.26,3.26-3.26-1.46-3.26-3.26,1.46-3.26,3.26-3.26m0-1c-2.35,0-4.26,1.91-4.26,4.26s1.91,4.26,4.26,4.26,4.26-1.91,4.26-4.26-1.9-4.26-4.26-4.26h0Z"/></g><path class="cls-1" d="M22.72,91.76s.16,1.12,1.17,1.09c.05,0,.09,0,.14,0,.7-.03,1.24-.62,1.21-1.32,0,0-.01-.23-.02-.61,0-.39-.01-.94,.02-1.6,.03-.65,.1-1.41,.23-2.2s.33-1.6,.62-2.36c.16-.43,.35-.83,.56-1.2l-.12,8.47c0,.13,0,.26,0,.4l.65,15.97c.04,.75,.64,1.37,1.4,1.4,.82,.04,1.5-.59,1.54-1.4l.47-12.91,.48,12.91c.04,.75,.64,1.37,1.41,1.4,.81,.04,1.5-.59,1.54-1.4l.63-16.01c0-.14,0-.27,0-.41l-.14-8.33c.19,.35,.36,.72,.51,1.12,.28,.75,.48,1.57,.61,2.36s.2,1.55,.23,2.2,.03,1.21,.02,1.6c0,.39-.02,.61-.02,.61-.03,.65,.45,1.23,1.11,1.31,.51,.06,.99-.26,1.22-.72l.19-.38s.03-.24,.07-.66c.04-.42,.09-1.03,.12-1.76,.03-.73,.03-1.6-.05-2.54-.08-.94-.24-1.96-.52-2.97-.29-1.01-.71-2.02-1.26-2.91-.28-.45-.58-.86-.91-1.24-.32-.37-.67-.7-1.02-.98-.69-.57-1.36-.93-1.88-1.14-.26-.11-.48-.18-.66-.23-1.04-.29-2.23-.25-3.23-.06-.08,.02-.15,.03-.24,.06-.18,.05-.4,.12-.66,.23-.52,.21-1.19,.58-1.88,1.14-.35,.28-.69,.61-1.02,.98-.32,.37-.63,.79-.91,1.24-.56,.89-.97,1.9-1.26,2.91-.29,1.01-.45,2.03-.52,2.97-.08,.94-.08,1.81-.05,2.54,.03,.74,.08,1.34,.12,1.76,.05,.42,.08,.66,.08,.66v.02"/></g><g><g><path class="cls-2" d="M64.68,75.83c-2.07,0-3.75-1.68-3.75-3.76s1.68-3.76,3.75-3.76,3.76,1.68,3.76,3.76-1.68,3.76-3.76,3.76Z"/><path d="M64.68,68.82c1.8,0,3.26,1.46,3.26,3.26s-1.46,3.26-3.26,3.26-3.26-1.46-3.26-3.26,1.46-3.26,3.26-3.26m0-1c-2.35,0-4.26,1.91-4.26,4.26s1.91,4.26,4.26,4.26,4.26-1.91,4.26-4.26-1.9-4.26-4.26-4.26h0Z"/></g><path class="cls-1" d="M56.83,91.76s.16,1.12,1.17,1.09c.05,0,.09,0,.14,0,.7-.03,1.24-.62,1.21-1.32,0,0-.01-.23-.02-.61,0-.39-.01-.94,.02-1.6,.03-.65,.1-1.41,.23-2.2s.33-1.6,.62-2.36c.16-.43,.35-.83,.56-1.2l-.12,8.47c0,.13,0,.26,0,.4l.65,15.97c.04,.75,.64,1.37,1.4,1.4,.82,.04,1.5-.59,1.54-1.4l.47-12.91,.48,12.91c.04,.75,.64,1.37,1.41,1.4,.81,.04,1.5-.59,1.54-1.4l.63-16.01c0-.14,0-.27,0-.41l-.14-8.33c.19,.35,.36,.72,.51,1.12,.28,.75,.48,1.57,.61,2.36s.2,1.55,.23,2.2,.03,1.21,.02,1.6c0,.39-.02,.61-.02,.61-.03,.65,.45,1.23,1.11,1.31,.51,.06,.99-.26,1.22-.72l.19-.38s.03-.24,.07-.66c.04-.42,.09-1.03,.12-1.76,.03-.73,.03-1.6-.05-2.54-.08-.94-.24-1.96-.52-2.97-.29-1.01-.71-2.02-1.26-2.91-.28-.45-.58-.86-.91-1.24-.32-.37-.67-.7-1.02-.98-.69-.57-1.36-.93-1.88-1.14-.26-.11-.48-.18-.66-.23-1.04-.29-2.23-.25-3.23-.06-.08,.02-.15,.03-.24,.06-.18,.05-.4,.12-.66,.23-.52,.21-1.19,.58-1.88,1.14-.35,.28-.69,.61-1.02,.98-.32,.37-.63,.79-.91,1.24-.56,.89-.97,1.9-1.26,2.91-.29,1.01-.45,2.03-.52,2.97-.08,.94-.08,1.81-.05,2.54,.03,.74,.08,1.34,.12,1.76,.05,.42,.08,.66,.08,.66v.02"/></g><g><g><path class="cls-2" d="M98.79,75.83c-2.07,0-3.75-1.68-3.75-3.76s1.68-3.76,3.75-3.76,3.76,1.68,3.76,3.76-1.68,3.76-3.76,3.76Z"/><path d="M98.79,68.82c1.79,0,3.26,1.46,3.26,3.26s-1.46,3.26-3.26,3.26-3.26-1.46-3.26-3.26,1.46-3.26,3.26-3.26m0-1c-2.35,0-4.26,1.91-4.26,4.26s1.91,4.26,4.26,4.26,4.26-1.91,4.26-4.26-1.9-4.26-4.26-4.26h0Z"/></g><path class="cls-1" d="M90.94,91.76s.16,1.12,1.17,1.09c.05,0,.09,0,.14,0,.7-.03,1.24-.62,1.21-1.32,0,0-.01-.23-.02-.61,0-.39-.01-.94,.02-1.6,.03-.65,.1-1.41,.23-2.2s.33-1.6,.62-2.36c.16-.43,.35-.83,.56-1.2l-.12,8.47c0,.13,0,.26,0,.4l.65,15.97c.04,.75,.64,1.37,1.4,1.4,.82,.04,1.5-.59,1.54-1.4l.47-12.91,.48,12.91c.04,.75,.64,1.37,1.41,1.4,.81,.04,1.5-.59,1.54-1.4l.63-16.01c0-.14,0-.27,0-.41l-.14-8.33c.19,.35,.36,.72,.51,1.12,.28,.75,.48,1.57,.61,2.36s.2,1.55,.23,2.2,.03,1.21,.02,1.6c0,.39-.02,.61-.02,.61-.03,.65,.45,1.23,1.11,1.31,.51,.06,.99-.26,1.22-.72l.19-.38s.03-.24,.07-.66c.04-.42,.09-1.03,.12-1.76,.03-.73,.03-1.6-.05-2.54-.08-.94-.24-1.96-.52-2.97-.29-1.01-.71-2.02-1.26-2.91-.28-.45-.58-.86-.91-1.24-.32-.37-.67-.7-1.02-.98-.69-.57-1.36-.93-1.88-1.14-.26-.11-.48-.18-.66-.23-1.04-.29-2.23-.25-3.23-.06-.08,.02-.15,.03-.24,.06-.18,.05-.4,.12-.66,.23-.52,.21-1.19,.58-1.88,1.14-.35,.28-.69,.61-1.02,.98-.32,.37-.63,.79-.91,1.24-.56,.89-.97,1.9-1.26,2.91-.29,1.01-.45,2.03-.52,2.97-.08,.94-.08,1.81-.05,2.54,.03,.74,.08,1.34,.12,1.76,.05,.42,.08,.66,.08,.66v.02"/></g></g><circle class="cls-3" cx="92.35" cy="27.36" r="18.92" transform="translate(-1.21 4.48) rotate(-2.76)"/><path d="M88.16,18.64c1.03-.66,2.3-1,3.8-1,1.97,0,3.61,.47,4.92,1.41s1.96,2.34,1.96,4.19c0,1.13-.28,2.09-.85,2.87-.33,.47-.97,1.07-1.91,1.81l-.93,.72c-.51,.39-.84,.85-1.01,1.38-.1,.33-.16,.85-.17,1.55h-3.55c.05-1.48,.19-2.49,.42-3.06,.23-.56,.81-1.21,1.75-1.94l.95-.75c.31-.24,.57-.49,.76-.77,.35-.48,.52-1.01,.52-1.58,0-.66-.19-1.27-.58-1.81-.39-.55-1.1-.82-2.12-.82s-1.73,.34-2.15,1.01c-.42,.67-.63,1.37-.63,2.1h-3.78c.1-2.49,.97-4.25,2.61-5.29Zm2.17,14.72h3.92v3.78h-3.92v-3.78Z"/></svg>