<?xml version="1.0" encoding="UTF-8"?><svg id="Calque_1" xmlns="http://www.w3.org/2000/svg" viewBox="0 0 128 128.13"><defs><style>.cls-1{fill:#fff;}.cls-1,.cls-2,.cls-3,.cls-4,.cls-5,.cls-6,.cls-7,.cls-8,.cls-9,.cls-10,.cls-11,.cls-12{stroke-linecap:round;stroke-linejoin:round;}.cls-1,.cls-2,.cls-3,.cls-4,.cls-5,.cls-6,.cls-7,.cls-8,.cls-10,.cls-11,.cls-13,.cls-12{stroke:#000;}.cls-2,.cls-8,.cls-9,.cls-13,.cls-12{fill:none;}.cls-3{fill:#76ac75;}.cls-3,.cls-4,.cls-5,.cls-6,.cls-7,.cls-8,.cls-9,.cls-11{stroke-width:2px;}.cls-4{fill:#d6d6d6;}.cls-5{fill:#8987f3;}.cls-6{fill:#ff6d75;}.cls-7{fill:#f3d587;}.cls-9{stroke:#ff6d75;}.cls-10,.cls-12{stroke-width:3px;}.cls-11{fill:#fab0b4;}.cls-13{stroke-miterlimit:10;}</style></defs><g><line class="cls-13" x1="42.16" y1="87.13" x2="27.13" y2="85.15"/><path class="cls-8" d="M95.67,97.82l-44.02-6.19c.17-.27,.32-.55,.45-.84,.67-1.42,.89-3.01,.64-4.57-.05-.31-.11-.62-.2-.93l44.02,6.19-.89,6.34Z"/><path class="cls-6" d="M66.95,93.78l-15.3-2.15c.17-.27,.32-.55,.45-.84,.67-1.42,.89-3.01,.64-4.57-.05-.31-.11-.62-.2-.93l15.3,2.15-.89,6.34Z"/><path class="cls-8" d="M52.1,90.79l-3.15-.44-2.26-1.35-4.7-1.96,5.06-.58,2.54-.67,3.15,.44c.25,1.55,.02,3.15-.64,4.57Z"/><line class="cls-12" x1="97.31" y1="87.49" x2="95.29" y2="101.85"/><rect class="cls-10" x="71.49" y="91.23" width="15.5" height="2.08" transform="translate(181.65 26.66) rotate(98.01)"/><line class="cls-13" x1="62.08" y1="89.86" x2="61.63" y2="93.03"/><line class="cls-13" x1="58.64" y1="89.38" x2="58.19" y2="92.55"/><line class="cls-13" x1="55.17" y1="88.89" x2="54.73" y2="92.06"/></g><g><path class="cls-8" d="M30.6,24.42c-5.16,2.27-11.74,5.92-16.12,16.36,0,0-6.55,13.74-3.47,28.26,0,1.68,.04,3.3,.19,4.97-1.46,8.51,2.18,15.94,8.42,20.96,0,0,14.39,6.5,20.17,12.33,5.77,5.83,14.68,12.87,13.03,8.29-1.64-4.58-4.05-6.02-4.05-6.02"/><path class="cls-8" d="M64.17,112.84c-1.72-1.28-3.36-4.87-7.85-6.95"/><path class="cls-8" d="M62.99,105.85s-.04-.04-.06-.04"/><path class="cls-8" d="M32.37,43.25s2.57,18.94-.59,25.12c0,1.83,.05,3.13,0,4.83,1.75,2.72,.93,5.32,.69,7.34,0,0,2-.52,9.83,6.79,.24,.22,.48,.46,.72,.7"/><path class="cls-8" d="M53.86,109.55s4.19,2.76,5.51,4.97l.02,.02"/><path class="cls-8" d="M59.77,115.88c-.38,2.1-8.47-3.82-8.93-4.17l-.02-.02"/><path class="cls-8" d="M59.39,114.54l-.02-.02"/><path class="cls-7" d="M47.97,93.47c-1.48-1.78-3.1-3.66-4.95-5.45"/><path class="cls-8" d="M59.77,115.88c.08-.4-.08-.86-.38-1.34,.38,.28,5.65,3.93,4.79-1.7,.78,.58,1.56,.68,2.64,0,3.26-2.12-3.16-6.55-3.83-6.99,4.21,2.02,7.77-3.16-1.8-2.58-5.29,.32-8.73-4.39-13.22-9.79"/></g><polygon class="cls-4" points="31.78 73.2 11.19 74 11 69.04 31.78 68.37 31.78 73.2"/><path class="cls-8" d="M72.65,24.42h9.09V63.82c0,2.51-2.04,4.54-4.54,4.54h0c-2.51,0-4.54-2.04-4.54-4.54V24.42h0Z"/><path class="cls-6" d="M72.65,37.07h9.09v26.75c0,2.51-2.04,4.54-4.54,4.54h0c-2.51,0-4.54-2.04-4.54-4.54v-26.75h0Z"/><path class="cls-6" d="M87.67,37.07h9.09v26.75c0,2.51-2.04,4.54-4.54,4.54h0c-2.51,0-4.54-2.04-4.54-4.54v-26.75h0Z"/><path class="cls-6" d="M102.7,37.07h9.09v26.75c0,2.51-2.04,4.54-4.54,4.54h0c-2.51,0-4.54-2.04-4.54-4.54v-26.75h0Z"/><rect class="cls-11" x="72.22" y="18.13" width="9.94" height="6.29"/><path class="cls-8" d="M87.67,24.42h9.09V63.82c0,2.51-2.04,4.54-4.54,4.54h0c-2.51,0-4.54-2.04-4.54-4.54V24.42h0Z"/><rect class="cls-5" x="87.25" y="18.13" width="9.94" height="6.29"/><line class="cls-2" x1="75.18" y1="18.13" x2="75.18" y2="24.42"/><line class="cls-2" x1="77.19" y1="18.13" x2="77.19" y2="24.42"/><line class="cls-2" x1="79.21" y1="18.13" x2="79.21" y2="24.42"/><line class="cls-2" x1="90.2" y1="18.13" x2="90.2" y2="24.42"/><line class="cls-2" x1="92.22" y1="18.13" x2="92.22" y2="24.42"/><line class="cls-2" x1="94.23" y1="18.13" x2="94.23" y2="24.42"/><path class="cls-8" d="M102.7,24.42h9.09V63.82c0,2.51-2.04,4.54-4.54,4.54h0c-2.51,0-4.54-2.04-4.54-4.54V24.42h0Z"/><rect class="cls-3" x="102.27" y="18.13" width="9.94" height="6.29"/><line class="cls-2" x1="105.23" y1="18.13" x2="105.23" y2="24.42"/><line class="cls-2" x1="107.24" y1="18.13" x2="107.24" y2="24.42"/><line class="cls-2" x1="109.25" y1="18.13" x2="109.25" y2="24.42"/><rect class="cls-1" x="75.23" y="30.47" width="3.92" height="31.02"/><rect class="cls-1" x="90.26" y="30.47" width="3.92" height="31.02"/><rect class="cls-1" x="105.28" y="30.47" width="3.92" height="31.02"/><circle class="cls-9" cx="25.07" cy="84.93" r=".22"/></svg>