<?xml version="1.0" encoding="UTF-8"?><svg id="Calque_1" xmlns="http://www.w3.org/2000/svg" viewBox="0 0 128 128.13"><defs><style>.cls-1{fill:none;}.cls-1,.cls-2,.cls-3{stroke:#000;stroke-linecap:round;stroke-linejoin:round;}.cls-2{fill:#fff;}.cls-2,.cls-3{stroke-width:2px;}.cls-3{fill:#fab0b4;}</style></defs><path class="cls-3" d="M92.91,97.3L17.73,52.12c-1.84-1.1-2.62-3.37-1.86-5.37l1.38-3.6c2.26-5.91,5.54-11.37,9.7-16.14l2.53-2.91c1.41-1.62,3.78-1.99,5.62-.88l75.18,45.17c1.84,1.1,2.62,3.37,1.86,5.37h0c-2.58,8.56-7.26,16.35-13.61,22.64h0c-1.41,1.62-3.78,1.99-5.62,.88Z"/><rect class="cls-2" x="42.14" y="50.02" width="43.83" height="20.55" rx="3.29" ry="3.29" transform="translate(40.2 -24.38) rotate(31)"/><circle class="cls-1" cx="34.25" cy="31.38" r=".42"/><circle class="cls-1" cx="39.24" cy="34.37" r=".42"/><circle class="cls-1" cx="31.12" cy="36.59" r=".42"/><circle class="cls-1" cx="36.1" cy="39.59" r=".42"/><circle class="cls-1" cx="27.98" cy="41.81" r=".42"/><circle class="cls-1" cx="32.97" cy="44.8" r=".42"/><circle class="cls-1" cx="24.85" cy="47.02" r=".42"/><circle class="cls-1" cx="29.84" cy="50.02" r=".42"/><circle class="cls-1" cx="44.18" cy="37.34" r=".42"/><circle class="cls-1" cx="41.04" cy="42.56" r=".42"/><circle class="cls-1" cx="37.91" cy="47.77" r=".42"/><circle class="cls-1" cx="34.78" cy="52.99" r=".42"/><circle class="cls-1" cx="93.44" cy="66.94" r=".42"/><circle class="cls-1" cx="98.43" cy="69.94" r=".42"/><circle class="cls-1" cx="90.31" cy="72.16" r=".42"/><circle class="cls-1" cx="95.3" cy="75.15" r=".42"/><circle class="cls-1" cx="87.18" cy="77.37" r=".42"/><circle class="cls-1" cx="92.16" cy="80.37" r=".42"/><circle class="cls-1" cx="84.04" cy="82.59" r=".42"/><circle class="cls-1" cx="89.03" cy="85.58" r=".42"/><circle class="cls-1" cx="103.37" cy="72.91" r=".42"/><circle class="cls-1" cx="100.24" cy="78.12" r=".42"/><circle class="cls-1" cx="97.1" cy="83.34" r=".42"/><circle class="cls-1" cx="93.97" cy="88.55" r=".42"/></svg>