<?xml version="1.0" encoding="UTF-8"?><svg id="Calque_1" xmlns="http://www.w3.org/2000/svg" viewBox="0 0 128 128"><defs><style>.cls-1{fill:#ff6d75;}.cls-2,.cls-3{stroke-width:2px;}.cls-2,.cls-3,.cls-4{stroke:#000;stroke-linecap:round;stroke-linejoin:round;}.cls-2,.cls-4{fill:none;}.cls-3{fill:#fab0b4;}.cls-4{stroke-width:3px;}</style></defs><path class="cls-3" d="M114.02,38.77v30.41c0,10.36-7.72,18.83-17.15,18.83H62.63l-25.42,20.05v-20.05h-4.43c-9.43,0-17.15-8.46-17.15-18.83v-30.41c0-10.35,7.72-18.83,17.15-18.83H96.87c9.43,0,17.15,8.48,17.15,18.83Z"/><rect class="cls-1" x="42.29" y="31.47" width="45.06" height="45.06" rx="4.14" ry="4.14"/><path class="cls-2" d="M87.36,50.43v19.77c0,3.48-2.85,6.33-6.33,6.33H48.62c-3.48,0-6.33-2.85-6.33-6.33V37.8c0-3.48,2.85-6.33,6.33-6.33h32.41"/><line class="cls-4" x1="78.75" y1="67.95" x2="51.31" y2="40.13"/><line class="cls-4" x1="51.31" y1="67.95" x2="78.75" y2="40.13"/></svg>