<svg xmlns="http://www.w3.org/2000/svg" id="Calque_1" data-name="Calque 1" viewBox="0 0 200 128"><defs><style>.cls-1{fill:#fff}.cls-2{fill:#76ac75}.cls-3{fill:#ff6d75}.cls-3,.cls-5,.cls-6,.cls-7{stroke-width:2px}.cls-3,.cls-5,.cls-6,.cls-8{stroke:#000}.cls-3,.cls-5,.cls-8{stroke-miterlimit:10}.cls-8{fill:#d6d6d6}.cls-5{fill:#fab0b4}.cls-6,.cls-7{fill:none;stroke-linecap:round;stroke-linejoin:round}.cls-7{stroke:#87ccf3}.cls-8{stroke-width:1.13px}</style></defs><path d="m78.46 111.26-.75.38c-.78.39-1.59.72-2.4.99-.89.3-1.8.53-2.71.69-.29.06-.59.1-.88.14-.03 0-.07 0-.1.01-.26.04-.51.06-.77.09l-.52.03h-.3c-.05.01-.09.01-.13.01H69.2c-.52 0-1.03-.02-1.55-.06h-.02c-.29-.03-.58-.07-.88-.11-.06 0-.13-.01-.19-.02-.13-.01-.25-.03-.37-.06-.23-.03-.47-.08-.7-.13-.76-.16-1.51-.36-2.24-.61-.44-.14-.86-.3-1.29-.47-.38-.16-.76-.33-1.13-.52-1.1-.55-2.23-.99-3.39-1.3-.28-.09-.57-.16-.86-.22-.28-.07-.57-.13-.86-.18s-.58-.1-.87-.14c-.3-.04-.59-.07-.88-.09-.17-.02-.35-.03-.52-.04-.14 0-.29-.02-.43-.02h-.66c-.32 0-.64 0-.95.03-.31.01-.61.04-.91.06-.05 0-.11 0-.16.02l-.9.12c-.41.06-.81.14-1.22.23-.03 0-.06.01-.1.02-.77.19-1.54.42-2.29.69-.13.05-.25.1-.38.15-.26.1-.52.21-.78.33-.24.11-.48.22-.72.35-.2.1-.41.2-.63.29l-.09.05c-1.95.87-4.01 1.39-6.09 1.58-.54.04-1.08.06-1.63.06l-1.58-.06c-2.35-.2-4.68-.84-6.85-1.92a18.725 18.725 0 0 0-10.03-1.93c-2.35.2-4.68.83-6.85 1.93l-.68.34" class="cls-7"/><path d="M112.17 111.25s-.06.03-.09.04l-.67.34c-.73.37-1.48.68-2.25.94-.45.16-.9.3-1.36.41-.11.03-.22.06-.34.09-.45.11-.91.2-1.36.28-.25.05-.51.09-.77.12a4.6 4.6 0 0 1-.52.06c-.09.01-.17.01-.26.02-.17.02-.35.03-.52.04-.14 0-.29.02-.43.02H102.9c-.38 0-.76 0-1.15-.04-.13 0-.27-.02-.4-.03h-.02a20.6 20.6 0 0 1-1.07-.12c-.18-.02-.36-.05-.53-.09-.18-.03-.36-.06-.54-.1-.76-.16-1.51-.36-2.25-.61-.82-.27-1.63-.61-2.41-1-1.36-.68-2.79-1.19-4.25-1.51-.29-.07-.57-.13-.86-.18-.58-.11-1.16-.19-1.75-.24-.26-.02-.53-.04-.8-.04-.65-.03-1.3-.02-1.95.02-.24 0-.49.02-.72.05-.06 0-.11 0-.16.02-.13 0-.26.03-.39.05-.22.02-.44.06-.66.1-.15.02-.31.05-.46.08-.41.07-.82.16-1.23.27-.2.06-.39.11-.58.17-.4.12-.8.25-1.19.39-.19.08-.39.15-.58.23a23.372 23.372 0 0 0-1.3.59c-.1.06-.2.1-.31.15l-.31.15-.1.04c-.56.25-1.13.47-1.7.66-1.15.39-2.32.66-3.51.83-.03 0-.07 0-.1.01-.26.03-.52.06-.78.08a21.997 21.997 0 0 1-1.62.07h-.02l-1.57-.07c-.29-.02-.59-.06-.88-.1-.19-.02-.37-.05-.56-.08-.23-.03-.47-.08-.7-.13-.77-.15-1.54-.35-2.29-.61-.42-.13-.83-.29-1.24-.47-.4-.16-.79-.34-1.18-.53-1.08-.54-2.2-.97-3.34-1.29-.28-.08-.57-.16-.86-.22-.28-.07-.57-.13-.86-.18s-.58-.1-.87-.14c-.3-.04-.59-.07-.88-.1l-.52-.03c-.15 0-.29-.02-.43-.02h-.66c-.53 0-1.07.02-1.61.06l-.25.03c-.05 0-.11 0-.16.02-.3.02-.6.06-.9.12-.41.06-.81.13-1.22.23-.03 0-.06.01-.1.02-.77.17-1.54.4-2.29.69-.13.03-.26.08-.38.14-.53.2-1.04.43-1.55.68l-.58.3-.09.04" class="cls-7"/><path d="m76.94 111.97.68-.34c2.17-1.09 4.5-1.73 6.85-1.93 1.07-.09 2.14-.09 3.21 0 2.34.21 4.65.84 6.81 1.93 2.17 1.08 4.5 1.72 6.85 1.92l1.59.07c.54 0 1.08-.02 1.63-.07 2.08-.19 4.14-.71 6.09-1.58l.09-.05c.21-.09.42-.19.63-.29.23-.12.48-.23.72-.34 1.53-.69 3.14-1.17 4.77-1.42.3-.05.6-.09.9-.12.05-.01.1-.02.15-.02.3-.03.6-.05.91-.07.31-.02.64-.03.96-.03.22 0 .44 0 .66.01.14 0 .29 0 .43.02.17 0 .35.02.52.03a18.94 18.94 0 0 1 6.86 1.92c1.49.74 3.06 1.28 4.66 1.61.18.04.35.07.54.1.17.04.35.07.54.09.35.05.72.09 1.07.13h.02c.52.04 1.03.07 1.55.07h.02c.23 0 .45 0 .68-.01.14 0 .29 0 .43-.02.17 0 .35-.02.52-.03.29-.03.58-.05.88-.1.29-.03.58-.08.87-.13a18.6 18.6 0 0 0 5.11-1.69l.75-.38" class="cls-7"/><path d="m187.26 107.41-8.44 4.22c-2.66 1.33-5.55 1.99-8.44 1.99s-5.78-.66-8.44-1.99a18.835 18.835 0 0 0-16.16-.35c-.24.11-.48.22-.72.34a18.996 18.996 0 0 1-6.81 1.92c-.54.05-1.08.07-1.63.07l-1.59-.07c-2.35-.2-4.68-.84-6.85-1.92a19.012 19.012 0 0 0-6.81-1.93c-1.07-.09-2.14-.09-3.21 0-2.35.2-4.68.84-6.85 1.93l-.68.34" class="cls-7"/><path d="m9.53 116.19.68-.34c2.17-1.09 4.5-1.73 6.85-1.93 1.07-.09 2.14-.09 3.21 0 2.34.21 4.65.84 6.81 1.93 2.17 1.08 4.5 1.72 6.85 1.92l1.59.07c.54 0 1.08-.02 1.63-.07 2.08-.19 4.14-.71 6.09-1.58l.09-.05c.21-.09.42-.19.63-.29.23-.12.48-.23.72-.34 1.53-.69 3.14-1.17 4.77-1.42.3-.05.6-.09.9-.12.05-.01.1-.02.15-.02.3-.03.6-.05.91-.07.31-.02.64-.03.96-.03.22 0 .44 0 .66.01.14 0 .29 0 .43.02.17 0 .35.02.52.03a18.94 18.94 0 0 1 6.86 1.92c1.49.74 3.06 1.28 4.66 1.61.18.04.35.07.54.1.17.04.35.07.54.09.35.05.72.09 1.07.13h.02c.52.04 1.03.07 1.55.07h.02c.23 0 .45 0 .68-.01.14 0 .29 0 .43-.02.17 0 .35-.02.52-.03.29-.03.58-.05.88-.1.29-.03.58-.08.87-.13a18.6 18.6 0 0 0 5.11-1.69l.75-.38" class="cls-6"/><path d="m43.23 116.19.68-.34c2.17-1.09 4.5-1.73 6.85-1.93 1.07-.09 2.14-.09 3.21 0 2.34.21 4.65.84 6.81 1.93 2.17 1.08 4.5 1.72 6.85 1.92l1.59.07c.54 0 1.08-.02 1.63-.07 2.08-.19 4.14-.71 6.09-1.58l.09-.05c.21-.09.42-.19.63-.29.23-.12.48-.23.72-.34 1.53-.69 3.14-1.17 4.77-1.42.3-.05.6-.09.9-.12.05-.01.1-.02.15-.02.25-.03.51-.05.77-.05.38-.03.75-.04 1.13-.04.26 0 .52 0 .78.02.27 0 .54.03.8.05a18.94 18.94 0 0 1 6.86 1.92c1.49.74 3.06 1.28 4.66 1.61.18.04.35.07.54.1.17.04.35.07.54.09.35.05.72.09 1.07.13h.02c.52.04 1.03.07 1.55.07h.02c.23 0 .45 0 .68-.01.14 0 .29 0 .43-.02.17 0 .35-.02.52-.03.26-.02.52-.05.78-.09.26-.03.52-.07.78-.11 1.82-.3 3.61-.88 5.3-1.72l.76-.38" class="cls-6"/><path d="m76.94 116.19.68-.34c2.17-1.09 4.5-1.73 6.85-1.93 1.07-.09 2.14-.09 3.21 0 2.34.21 4.65.84 6.81 1.93 2.17 1.08 4.5 1.72 6.85 1.92l1.59.07c.54 0 1.08-.02 1.63-.07 2.08-.19 4.14-.71 6.09-1.58l.09-.05c.21-.09.42-.19.63-.29.23-.12.48-.23.72-.34 1.53-.69 3.14-1.17 4.77-1.42.3-.05.6-.09.9-.12.05-.01.1-.02.15-.02.3-.03.6-.05.91-.07.31-.02.64-.03.96-.03.22 0 .44 0 .66.01.14 0 .29 0 .43.02.17 0 .35.02.52.03a18.94 18.94 0 0 1 6.86 1.92c1.49.74 3.06 1.28 4.66 1.61.18.04.35.07.54.1.17.04.35.07.54.09.35.05.72.09 1.07.13h.02c.52.04 1.03.07 1.55.07h.02c.23 0 .45 0 .68-.01.14 0 .29 0 .43-.02.17 0 .35-.02.52-.03.29-.03.58-.05.88-.1.29-.03.58-.08.87-.13a18.6 18.6 0 0 0 5.11-1.69l.75-.38" class="cls-6"/><path d="m9.53 120.34.68-.34c2.17-1.09 4.5-1.73 6.85-1.93 1.07-.09 2.14-.09 3.21 0 2.34.21 4.65.84 6.81 1.93 2.17 1.08 4.5 1.72 6.85 1.92l1.59.07c.54 0 1.08-.02 1.63-.07 2.08-.19 4.14-.71 6.09-1.58l.09-.05c.21-.09.42-.19.63-.29.23-.12.48-.23.72-.34 1.53-.69 3.14-1.17 4.77-1.42.3-.05.6-.09.9-.12.05-.01.1-.02.15-.02.3-.03.6-.05.91-.07.31-.02.64-.03.96-.03.22 0 .44 0 .66.01.14 0 .29 0 .43.02.17 0 .35.02.52.03a18.94 18.94 0 0 1 6.86 1.92c1.49.74 3.06 1.28 4.66 1.61.18.04.35.07.54.1.17.04.35.07.54.09.35.05.72.09 1.07.13h.02c.52.04 1.03.07 1.55.07h.02c.23 0 .45 0 .68-.01.14 0 .29 0 .43-.02.17 0 .35-.02.52-.03.29-.03.58-.05.88-.1.29-.03.58-.08.87-.13a18.6 18.6 0 0 0 5.11-1.69l.75-.38" class="cls-7"/><path d="m43.23 120.34.68-.34c2.17-1.09 4.5-1.73 6.85-1.93 1.07-.09 2.14-.09 3.21 0 2.34.21 4.65.84 6.81 1.93 2.17 1.08 4.5 1.72 6.85 1.92l1.59.07c.54 0 1.08-.02 1.63-.07 2.08-.19 4.14-.71 6.09-1.58l.09-.05c.21-.09.42-.19.63-.29.23-.12.48-.23.72-.34 1.53-.69 3.14-1.17 4.77-1.42.3-.05.6-.09.9-.12.05-.01.1-.02.15-.02.25-.03.51-.05.77-.05.38-.03.75-.04 1.13-.04.26 0 .52 0 .78.02.27 0 .54.03.8.05a18.94 18.94 0 0 1 6.86 1.92c1.49.74 3.06 1.28 4.66 1.61.18.04.35.07.54.1.17.04.35.07.54.09.35.05.72.09 1.07.13h.02c.52.04 1.03.07 1.55.07h.02c.23 0 .45 0 .68-.01.14 0 .29 0 .43-.02.17 0 .35-.02.52-.03.26-.02.52-.05.78-.09.26-.03.52-.07.78-.11 1.82-.3 3.61-.88 5.3-1.72l.76-.38" class="cls-7"/><path d="m76.94 120.34.68-.34c2.17-1.09 4.5-1.73 6.85-1.93 1.07-.09 2.14-.09 3.21 0 2.34.21 4.65.84 6.81 1.93 2.17 1.08 4.5 1.72 6.85 1.92l1.59.07c.54 0 1.08-.02 1.63-.07 2.08-.19 4.14-.71 6.09-1.58l.09-.05c.21-.09.42-.19.63-.29.23-.12.48-.23.72-.34 1.53-.69 3.14-1.17 4.77-1.42.3-.05.6-.09.9-.12.05-.01.1-.02.15-.02.3-.03.6-.05.91-.07.31-.02.64-.03.96-.03.22 0 .44 0 .66.01.14 0 .29 0 .43.02.17 0 .35.02.52.03a18.94 18.94 0 0 1 6.86 1.92c1.49.74 3.06 1.28 4.66 1.61.18.04.35.07.54.1.17.04.35.07.54.09.35.05.72.09 1.07.13h.02c.52.04 1.03.07 1.55.07h.02c.23 0 .45 0 .68-.01.14 0 .29 0 .43-.02.17 0 .35-.02.52-.03.29-.03.58-.05.88-.1.29-.03.58-.08.87-.13a18.6 18.6 0 0 0 5.11-1.69l.75-.38" class="cls-7"/><path d="m187.26 115.78-8.44 4.22c-2.66 1.33-5.55 1.99-8.44 1.99s-5.78-.66-8.44-1.99a18.835 18.835 0 0 0-16.16-.35c-.24.11-.48.22-.72.34a18.996 18.996 0 0 1-6.81 1.92c-.54.05-1.08.07-1.63.07l-1.59-.07c-2.35-.2-4.68-.84-6.85-1.92a19.012 19.012 0 0 0-6.81-1.93c-1.07-.09-2.14-.09-3.21 0-2.35.2-4.68.84-6.85 1.93l-.68.34" class="cls-7"/><path d="m187.26 111.63-8.44 4.22c-2.66 1.33-5.55 1.99-8.44 1.99s-5.78-.66-8.44-1.99a18.835 18.835 0 0 0-16.16-.35c-.24.11-.48.22-.72.34a18.996 18.996 0 0 1-6.81 1.92c-.54.05-1.08.07-1.63.07l-1.59-.07c-2.35-.2-4.68-.84-6.85-1.92a19.012 19.012 0 0 0-6.81-1.93c-1.07-.09-2.14-.09-3.21 0-2.35.2-4.68.84-6.85 1.93l-.68.34M9.53 107.56l.68-.34c2.17-1.09 4.5-1.73 6.85-1.93 1.07-.09 2.14-.09 3.21 0 2.34.21 4.65.84 6.81 1.93 2.17 1.08 4.5 1.72 6.85 1.92l1.59.07c.54 0 1.08-.02 1.63-.07 2.08-.19 4.14-.71 6.09-1.58l.09-.05c.21-.09.42-.19.63-.29.23-.12.48-.23.72-.34 1.53-.69 3.14-1.17 4.77-1.42.3-.05.6-.09.9-.12.05-.01.1-.02.15-.02.3-.03.6-.05.91-.07.31-.02.64-.03.96-.03.22 0 .44 0 .66.01.14 0 .29 0 .43.02.17 0 .35.02.52.03a18.94 18.94 0 0 1 6.86 1.92c1.49.74 3.06 1.28 4.66 1.61.18.04.35.07.54.1.17.04.35.07.54.09.35.05.72.09 1.07.13h.02c.52.04 1.03.07 1.55.07h.02c.23 0 .45 0 .68-.01.14 0 .29 0 .43-.02.17 0 .35-.02.52-.03.29-.03.58-.05.88-.1.29-.03.58-.08.87-.13a18.6 18.6 0 0 0 5.11-1.69l.75-.38" class="cls-6"/><path d="m43.23 107.55.68-.34c2.17-1.09 4.5-1.73 6.85-1.93 1.07-.09 2.14-.09 3.21 0 2.34.21 4.65.84 6.81 1.93 2.17 1.08 4.5 1.72 6.85 1.92l1.59.07c.54 0 1.08-.02 1.63-.07 2.08-.19 4.14-.71 6.09-1.58l.09-.05c.21-.09.42-.19.63-.29.23-.12.48-.23.72-.34 1.53-.69 3.14-1.17 4.77-1.42.3-.05.6-.09.9-.12.05-.01.1-.02.15-.02.25-.03.51-.05.77-.05.38-.03.75-.04 1.13-.04.26 0 .52 0 .78.02.27 0 .54.03.8.05a18.94 18.94 0 0 1 6.86 1.92c1.49.74 3.06 1.28 4.66 1.61.18.04.35.07.54.1.17.04.35.07.54.09.35.05.72.09 1.07.13h.02c.52.04 1.03.07 1.55.07h.02c.23 0 .45 0 .68-.01.14 0 .29 0 .43-.02.17 0 .35-.02.52-.03.26-.02.52-.05.78-.09.26-.03.52-.07.78-.11 1.82-.3 3.61-.88 5.3-1.72l.76-.38" class="cls-6"/><path d="m76.94 107.56.68-.34c2.17-1.09 4.5-1.73 6.85-1.93 1.07-.09 2.14-.09 3.21 0 2.34.21 4.65.84 6.81 1.93 2.17 1.08 4.5 1.72 6.85 1.92l1.59.07c.54 0 1.08-.02 1.63-.07 2.08-.19 4.14-.71 6.09-1.58l.09-.05c.21-.09.42-.19.63-.29.23-.12.48-.23.72-.34 1.53-.69 3.14-1.17 4.77-1.42.3-.05.6-.09.9-.12.05-.01.1-.02.15-.02.3-.03.6-.05.91-.07.31-.02.64-.03.96-.03.22 0 .44 0 .66.01.14 0 .29 0 .43.02.17 0 .35.02.52.03a18.94 18.94 0 0 1 6.86 1.92c1.49.74 3.06 1.28 4.66 1.61.18.04.35.07.54.1.17.04.35.07.54.09.35.05.72.09 1.07.13h.02c.52.04 1.03.07 1.55.07h.02c.23 0 .45 0 .68-.01.14 0 .29 0 .43-.02.17 0 .35-.02.52-.03.29-.03.58-.05.88-.1.29-.03.58-.08.87-.13a18.6 18.6 0 0 0 5.11-1.69l.75-.38" class="cls-6"/><path d="m187.26 103-8.44 4.22c-2.66 1.33-5.55 1.99-8.44 1.99s-5.78-.66-8.44-1.99a18.835 18.835 0 0 0-16.16-.35c-.24.11-.48.22-.72.34a18.996 18.996 0 0 1-6.81 1.92c-.54.05-1.08.07-1.63.07l-1.59-.07c-2.35-.2-4.68-.84-6.85-1.92a19.012 19.012 0 0 0-6.81-1.93c-1.07-.09-2.14-.09-3.21 0-2.35.2-4.68.84-6.85 1.93l-.68.34" class="cls-6"/><path d="M62.76 95.75h24.8v2.46h-24.8zM69.57 93.74h9.49v2.01h-9.49z" class="cls-2"/><path d="m62.76 18.23.73 82.29h-1.46l.73-82.29zM91.45 16.77l.73 82.29h-1.46l.73-82.29z" class="cls-8"/><path d="M66.33 97.31c0 .57-.46 1.02-1.02 1.02s-1.02-.46-1.02-1.02.46-1.02 1.02-1.02 1.02.46 1.02 1.02ZM70.27 97.31c0 .57-.46 1.02-1.02 1.02s-1.02-.46-1.02-1.02.46-1.02 1.02-1.02 1.02.46 1.02 1.02ZM74.21 97.31c0 .57-.46 1.02-1.02 1.02s-1.02-.46-1.02-1.02.46-1.02 1.02-1.02 1.02.46 1.02 1.02ZM78.15 97.31c0 .57-.45 1.02-1.02 1.02s-1.02-.46-1.02-1.02.46-1.02 1.02-1.02 1.02.46 1.02 1.02ZM82.09 97.31c0 .57-.46 1.02-1.02 1.02s-1.02-.46-1.02-1.02.46-1.02 1.02-1.02 1.02.46 1.02 1.02ZM86.03 97.31c0 .57-.46 1.02-1.02 1.02s-1.03-.46-1.03-1.02.46-1.02 1.03-1.02 1.02.46 1.02 1.02Z" class="cls-1"/><path d="m119.66 13.32.73 82.29h-1.46l.73-82.29zM122.58 16.77l.73 82.29h-1.46l.73-82.29z" class="cls-8"/><path d="M129.87 94.34h-32.1l-2.92 4.01h37.94l-2.92-4.01z" class="cls-2"/><path d="M62.76 18.23v74.9H38.92l23.84-74.9z" class="cls-3"/><path d="M91.45 11.91V90.7h-24.8l8.27-63.71 16.53-15.08z" class="cls-5"/><path d="M119.66 11.91V90.7H95.34l24.32-78.79zM122.58 18.23V90.7h25.78l-25.78-72.47z" class="cls-3"/><path d="m138.14 45.95.73 60.4h-1.45l.72-60.4z" class="cls-8"/><path d="M138.14 45.95V90.7h24.32l-24.32-44.75z" class="cls-5"/><path d="M101.19 96.48c0 .57-.44 1.03-1.01 1.04s-1.03-.44-1.04-1.01.44-1.03 1.01-1.04 1.03.44 1.04 1.01ZM105.13 96.43c0 .57-.44 1.03-1.01 1.04s-1.03-.44-1.04-1.01.44-1.03 1.01-1.04 1.03.44 1.04 1.01ZM109.07 96.38c0 .57-.44 1.03-1.01 1.04s-1.03-.44-1.04-1.01.44-1.03 1.01-1.04 1.03.44 1.04 1.01ZM113.01 96.33c0 .57-.44 1.03-1.01 1.04s-1.03-.44-1.04-1.01c0-.57.44-1.03 1.01-1.04s1.03.44 1.03 1.01ZM116.95 96.27c0 .57-.44 1.03-1.01 1.04s-1.03-.44-1.04-1.01.44-1.03 1.01-1.04 1.03.44 1.04 1.01ZM120.89 96.22c0 .57-.44 1.03-1.01 1.04s-1.03-.44-1.04-1.01.44-1.03 1.01-1.04 1.03.44 1.04 1.01ZM124.83 96.17c0 .57-.44 1.03-1.01 1.04s-1.03-.44-1.04-1.01.44-1.03 1.01-1.04 1.03.44 1.04 1.01ZM128.78 96.11c0 .57-.45 1.03-1.01 1.04s-1.03-.44-1.03-1.01.44-1.03 1.01-1.04 1.03.44 1.04 1.01Z" class="cls-1"/><path d="m35.52 99.46 7.3 10.7h98.73l26.26-12.65-132.29 1.95z" style="fill:#d6d6d6;stroke-miterlimit:10;stroke:#000;stroke-width:2px"/><path d="m40.22 106.35 2.6 3.81h98.73l7.9-3.81H40.22zM154.68 103.83H38.5l.83 1.22h112.82l2.53-1.22zM156.97 100.52c0 .63-.51 1.14-1.14 1.14s-1.15-.51-1.15-1.14.51-1.14 1.15-1.14 1.14.51 1.14 1.14Z"/><path d="M-1499.93-3916.59H744.52v5948.74h-2244.45z" style="stroke:#fff;stroke-width:8px;fill:none;stroke-linecap:round;stroke-linejoin:round"/></svg>