<svg xmlns="http://www.w3.org/2000/svg" id="Calque_1" data-name="Calque 1" viewBox="0 0 128 128.13"><defs><style>.cls-1,.cls-2,.cls-4,.cls-6{stroke:#000}.cls-1,.cls-2{stroke-linecap:round;stroke-linejoin:round}.cls-1,.cls-4,.cls-6{fill:#fff}.cls-2{fill:none}.cls-4{stroke-width:2px}.cls-4,.cls-6{stroke-miterlimit:10}</style></defs><rect width="93.12" height="106.01" x="15.21" y="12.93" rx="20.3" ry="20.3" style="fill:#87ccf3;stroke-width:2px;stroke-linecap:round;stroke-linejoin:round;stroke:#000"/><path d="M59.58 32.98s.16-.24.45-.51c1.26-1.2 3.83-1.49 4.65 1.3.56 1.92-1.89 6.11-1.59 6.94 0 0-6.52-3.31-3.51-7.74ZM92.44 46.5s.02-.29-.02-.68c-.22-1.73-2-3.59-4.42-1.95-1.65 1.12-2.43 5.92-3.19 6.37 0 0 7.14 1.59 7.64-3.74Z" class="cls-6"/><path d="M50.09 60.99c-1.98 2.44-6.59 8.48-6.7 11.86 0 .07-.05.12-.11.12-1.26.06-12.79.97-12.46 13.79 0 .09-.08.16-.17.13-1.06-.4-6.56-2.25-5.53 2.64 0 .02.02.05.03.07.42.45 6.01 6.24 9.66 4.03.02-.01.04-.04.06-.06.31-.67 4.76-9.8 11.84-6.6 0 0 12.3 2.6 6.42 12.06a.12.12 0 0 1-.05.05c-.43.25-5.45 3.27-.68 7.81 0 0 8.3 8.3 6.88 0l-1.12-3.14c-.03-.09.02-.18.11-.18 1.03-.05 6.25-.59 8.6-5.92s2.57-7.49.06-10.84c-.03-.04-.04-.1 0-.14.63-.77 6.64-8.19 6.64-13.18 0-.14.18-.19.25-.06.87 1.72 3.86 5.89 11.32 2.64 8.63-3.76 8.59-6.08 8.54-6.37 0-.02-.01-.04-.02-.05l-3.25-4.88s-.08-.07-.14-.06c-.76.19-6.42 1.64-8.26 3.18-.1.08-.25-.01-.21-.14.49-1.71 1.09-6.88-6.85-12.31 0 0-5.57-5.51-16.64-6.56-1.58-.15-3.22.16-4.52 1.07-.68.47-1.26 1.09-1.49 1.88-.04.14-.23.15-.26 0-.42-2.04-1.7-7.55-3.59-9.15-.04-.03-.08-.04-.13-.03l-5.52 1.38c-.06.01-.1.06-.1.12-.06 1.12-.59 11.89 1.43 14.13 1.9 2.11 3.05 4.42 5.8 2.54.13-.09.29.07.19.19Z" style="stroke-miterlimit:10;stroke-width:2px;fill:#f3d587;stroke:#000"/><path d="M43.57 39.16s-1.5-5.09-1.66-2.09c-.16 3 .07 5.38.78 6.96l5.69-1.42s1.29-2.36.61-3.58c-.2-.35-.72-.31-.88.07-.2.48-.44 1.15-.44 1.61 0 0 1.07-3.83.15-5.12-.26-.36-.83-.24-.94.2-.21.87-.54 2.49-.31 3.49 0 0 .02-2.67-.46-4.08-.14-.41-.73-.41-.86 0-.3.94-.61 2.52.04 3.81 0 0-.78-4.13-1.26-4.08-1.02.1-.46 4.23-.46 4.23ZM96.58 65.46s4.73-2.41 2.66-.23c-2.07 2.18-3.95 3.64-5.59 4.21l-3.2-4.85s1.16-2.83 2.51-3.16c.39-.1.72.32.55.68-.21.48-.54 1.11-.87 1.43 0 0 2.05-3.41 3.62-3.62.44-.06.75.44.5.82-.49.76-1.44 2.1-2.32 2.62 0 0 1.93-1.85 3.28-2.47.4-.18.8.25.58.63-.48.86-1.41 2.18-2.8 2.59 0 0 3.54-2.26 3.83-1.89.63.81-2.76 3.24-2.76 3.24Z" class="cls-1"/><path d="M76.44 54.23s-3.95 6.24-10.12 1.98c0 0-4.98-2.85-1.74-6.96l11.86 4.98Z" class="cls-4"/><path d="M50.27 82.92S62.01 62.6 66.32 56.2" style="stroke:#231f20;stroke-miterlimit:10;fill:none"/><path d="M62.39 32.45c-1.61 6.57-4.93 12.33.23 15.55 4.66 2.91 15.56 9.88 19.06 7.65 5.35-3.4 23.05-23.94 1.08-32.29-.26-.1-7.03-3.09-9.74-2.8-4.57.49-8.76 4.24-10.63 11.88Z" class="cls-4"/><path d="M72.94 45.12a.53.53 0 0 1-.46-.22c-.34-.5-.48-1.06-.38-1.53.07-.34.27-.63.56-.8.3-.18.6-.21.85-.24.27-.03.44-.05.59-.18.23-.18.37-.74.4-1.08a.53.53 0 0 1 .56-.47c.28.02.49.27.47.56-.01.13-.12 1.27-.79 1.8-.4.32-.82.36-1.13.39-.18.02.05.31 0 .42-.01.02-.49-.29-.51-.19-.03.15 0 .42.22.73.16.24.1.56-.13.72-.08.05-.17.09-.25.09Z"/><path d="M66.95 36.32s1.7 2.64 4.01 2.25M83.57 45.1s-3.13-.21-3.92-2.4M68.96 46.85s1 2.39 4.31 1.9M63.48 29.04s4.77 3.36 16.27 1.21" class="cls-2"/><path d="M79.66 26.22s-2.13 11.02 11.92 17.8" class="cls-2"/><path d="m33.88 17.1 5.83-7.37h-5.68V7.71h8.64v1.91l-5.9 7.48h5.92v2.01h-8.8V17.1ZM43.94 16.69V14.9h6.67v1.83l-4.14 4.79h4.28v1.81h-7.11v-1.72l4.18-4.92h-3.88ZM52.1 20.9v-1.79h6.67v1.83l-4.14 4.79h4.28v1.81H51.8v-1.72l4.18-4.92H52.1Z"/><path d="M-4605.96-5566.55h6467.34v6437.3h-6467.34z" style="stroke:#fff;stroke-width:8px;fill:none;stroke-linecap:round;stroke-linejoin:round"/></svg>