<svg xmlns="http://www.w3.org/2000/svg" id="Calque_1" viewBox="0 0 128 128"><defs><style>.cls-4{stroke:#000;stroke-linecap:round;stroke-linejoin:round;fill:none;stroke-width:2px}</style></defs><path d="M45.95 65.2C18.04 84.73 17.88 86.99 17.88 93.58c0 1.42.87 18.16 14.17 20.84 6.73 1.36 9.41-.11 14.47-1.26C58.9 110.35 67.33 95.45 77 88.77c13.29-10.76 29.37-17.31 39.14-31.91 15.08-26.61-23.89-51.23-35.89-27.83.52-.34.94-.38 1.31-.2 5.6-6.17 12.48-10.16 16.13-.79 1.01 5.12 3.87 12.01.5 16.51-3.37 6.74-7.36 9.74-16.55 10.42-8.58.63-10.99-2.76-11.48-8.85-9.31 3.91-16.25 13.39-24.22 19.09Z" style="stroke-width:2px;fill:#ff6d75;stroke:#000;stroke-linecap:round;stroke-linejoin:round"/><path d="M74.61 54.54c1.44.95 1.49.54 5.22.58h.1c.57-.09 1.14-.12 1.72-.15 3.34-.13 6.9.38 9.8-1.51 2.84-2.52 4.77-5.71 6.75-8.91.34-.54.68-1.09 1.02-1.63.22-.36.46-.72.69-1.07-.51-4.54-.72-9.46-2.22-13.81-3.65-9.37-10.53-5.38-16.13.79-1.74 1.92-3.36 4.05-4.73 6.05-1.1 1.62-6.8 6.17-6.72 10.6.01.21.03.42.05.64.26 2.48 1.3 5.27 2.98 7.15.44.5.92.93 1.46 1.28Z" style="fill:#fff;stroke-width:2px;stroke:#000;stroke-linecap:round;stroke-linejoin:round"/><path d="M84.85 29.94c-.24 0-.49-.09-.66-.28-.67-.7-1.38-.99-1.87-1.12a.9.9 0 0 1-.65-1.11c.13-.49.63-.78 1.12-.66.71.19 1.76.63 2.72 1.63.35.37.34.95-.03 1.29-.18.17-.41.25-.63.25ZM94.9 37.58a.92.92 0 0 1-.8-.47c-.35-.64-1.85-2.28-2.99-2.59a.91.91 0 0 1-.65-1.12.92.92 0 0 1 1.13-.65c1.84.49 3.67 2.66 4.12 3.48.24.45.09 1-.36 1.24-.14.08-.29.11-.44.11Z"/><path d="M63.5 58s7.49-2.53 18.16-2.8c4.45-.11 7.15-.43 9.51-1.96 3.29-2.12 5.93-6.59 11.74-16.1M18.36 93.57s26.11-14.99 72.47-14.58" class="cls-4"/><path d="M67.22 80.15s-1.56-12-13.4-21.67M88.48 54.62s6.78-.61 12.97 1.18" class="cls-4"/><path d="M80.49 39.88c-.33-.37-.44-.93-.23-1.38.21-.45.74-.74 1.22-.62.26.06.49.23.7.4" style="fill:none;stroke:#000;stroke-linecap:round;stroke-linejoin:round;stroke-width:.72px"/><ellipse cx="87.52" cy="40.89" rx="1.43" ry="1.21" transform="rotate(-67.46 87.53 40.89)"/><ellipse cx="79.94" cy="34.3" rx="1.43" ry="1.21" transform="rotate(-67.46 79.945 34.3)"/></svg>