<svg xmlns="http://www.w3.org/2000/svg" id="Calque_1" data-name="Calque 1" viewBox="0 0 128 128"><defs><style>.cls-1,.cls-2,.cls-4{fill:#ffd4ad;stroke:#000;stroke-linecap:round;stroke-linejoin:round}.cls-2,.cls-4{fill:#fce9b9;stroke-width:2px}.cls-4{fill:#baa584}</style></defs><path d="M97.01 38.69c-.35.27-.7.62-1 1.06-.38.55-.67 1.02-.89 1.43-.9-.15-1.54-.96-1.48-1.88.07-.97.92-1.71 1.89-1.63.66.05 1.21.45 1.47 1.01ZM106.84 40.28c-.07.92-.82 1.62-1.72 1.64-.16-.44-.37-.95-.67-1.54a4.65 4.65 0 0 0-.85-1.21c.34-.51.94-.83 1.6-.78.97.07 1.71.92 1.63 1.89ZM93.35 51.21c0 .1-.01.21-.01.31h-.09c-.19-.09-.4-.14-.61-.16-.17-.01-.34 0-.51.04-.04 0-.07.02-.11.03l-.34-.03s-.69-.32-.41-2.32c.2-1.43 2.73-2.51 4.16-3.01.07.1.15.21.24.31-1.29 1.28-2.17 3.07-2.3 4.83Z" class="cls-1"/><path d="M93.24 51.52 92 51.43l.11-.03c.17-.04.35-.05.51-.04.21.02.42.07.61.15ZM107.18 52.54l-.3-.02s-.07-.03-.1-.04c-.17-.06-.34-.1-.51-.11-.21-.02-.43 0-.63.06h-.05l.03-.31c.13-1.82-.51-3.78-1.67-5.24.07-.07.14-.13.2-.2 1.31.68 3.78 2.16 3.77 3.64-.01 2.02-.74 2.23-.74 2.23Z" class="cls-1"/><path d="m106.88 52.52-1.24-.09c.2-.06.41-.08.63-.06.17.01.34.05.51.11.04.01.07.03.1.04ZM96.79 56.36l-3.22.9c.86-.29 1.41-1.19 1.24-2.1.54.51 1.22.92 1.98 1.2ZM104.12 57.82l-2.46-1.1.09-.08h0c.66-.17 1.27-.44 1.8-.79-.22.72.02 1.49.57 1.97Z" class="cls-1"/><path d="M105.63 52.12c0 .1-.02.21-.03.31v.02c-.55.16-1.01.57-1.22 1.15l-.43 1.18-.36.98s-.02.06-.03.1c-.53.36-1.13.62-1.8.79h0c-.81.21-1.71.28-2.64.21-.83-.06-1.61-.23-2.32-.49-.76-.29-1.44-.69-1.98-1.2v-.05l-.28-1.35h0l-.19-.9c-.12-.58-.5-1.04-1-1.29v-.04c0-.1 0-.21.01-.31.13-1.76 1.01-3.55 2.3-4.83.12.15.26.29.41.43.41.37.92.7 1.55.93-1 .77-1.71 2.03-1.8 3.27-.15 2.05 1.43 3.26 3.47 3.41 2.05.15 3.78-.81 3.93-2.86.09-1.27-.44-2.65-1.35-3.55.64-.15 1.18-.42 1.62-.74.17-.12.32-.26.47-.39 1.16 1.47 1.8 3.43 1.67 5.24Z" class="cls-1"/><path d="M103.22 51.56c-.15 2.05-1.89 3.01-3.93 2.86-2.04-.15-3.62-1.36-3.47-3.41.09-1.24.8-2.5 1.8-3.27.49.18 1.05.29 1.7.33h.33c.1.02.21.04.33.05.72.07 1.35.02 1.9-.11.91.9 1.44 2.29 1.35 3.55Z" class="cls-1"/><path d="M103.22 51.56c-.15 2.05-1.89 3.01-3.93 2.86-2.04-.15-3.62-1.36-3.47-3.41.09-1.24.8-2.5 1.8-3.27.49.18 1.05.29 1.7.33h.33c.1.02.21.04.33.05.72.07 1.35.02 1.9-.11.91.9 1.44 2.29 1.35 3.55ZM93.57 57.26l-.22.06a1.88 1.88 0 0 1-2.22-1.45l-.47-2.25c-.2-.97.4-1.94 1.35-2.19l1.24.09s.06.03.09.04c.5.25.88.71 1 1.29l.19.9h0l.28 1.35v.05c.17.92-.38 1.81-1.24 2.1Z" class="cls-1"/><path d="M93.24 51.52 92 51.43l.11-.03c.17-.04.35-.05.51-.04.21.02.42.07.61.15ZM107.9 54.89l-.79 2.16a1.878 1.878 0 0 1-2.99.77c-.55-.47-.79-1.24-.57-1.97 0-.03.02-.07.03-.1l.36-.98.43-1.18c.21-.57.67-.98 1.22-1.15.02 0 .03-.01.05-.02l1.24.09c.9.39 1.35 1.43 1.01 2.37Z" class="cls-1"/><path d="m106.88 52.52-1.24-.09c.2-.06.41-.08.63-.06.17.01.34.05.51.11.04.01.07.03.1.04ZM105.12 41.92c-.16-.44-.37-.95-.67-1.54a4.65 4.65 0 0 0-.85-1.21c-1.38-1.42-3.21-1.38-3.21-1.38s-1.81-.31-3.39.91c-.35.27-.7.62-1 1.06-.38.55-.67 1.02-.89 1.43-.76 1.42-.7 2.06-.7 2.06s.06 1.5.99 2.83c.07.1.15.21.24.31.12.15.26.29.41.43.41.37.92.7 1.55.93.49.18 1.05.29 1.7.33h.33c.1.02.21.04.33.05.72.07 1.35.02 1.9-.11.64-.15 1.18-.42 1.62-.74.17-.12.32-.26.47-.39.07-.07.14-.13.2-.2a5.84 5.84 0 0 0 1.36-2.61s.15-.62-.39-2.14Zm-5.16 1.88c-.77-.06-1.37-.4-1.34-.77s.67-.62 1.44-.57 1.37.4 1.34.77-.67.62-1.44.57Z" class="cls-1"/><path d="M97.51 42.04c-.02.29-.27.5-.55.48s-.5-.27-.48-.56.27-.5.56-.48.5.27.48.55ZM103.65 42.49c-.02.29-.27.5-.55.48s-.5-.27-.48-.56.27-.5.56-.48.5.27.48.55Z"/><path d="M101.4 43.23c-.03.37-.67.62-1.44.57s-1.37-.4-1.34-.77.67-.62 1.44-.57 1.37.4 1.34.77ZM99.64 48.07l.32-4.28" class="cls-1"/><path d="M27.07 74.61h4.41v37.41h-4.41zM92.8 74.61h4.41v37.41H92.8z" class="cls-4"/><path d="M92.8 90.17v4.64a106.222 106.222 0 0 0-31.08-4.64c-18.17 0-30.25 4.64-30.25 4.64v-4.64s27.18-10.43 61.32 0ZM19.56 110.87h19.42v4.47H19.56zM85.29 109.79h19.42v4.47H85.29z" class="cls-4"/><path d="m111.92 54.78-1.31 3.01H16.13l-.79-3.01h96.58z" style="fill:#a07637;stroke-width:2px;stroke:#000;stroke-linecap:round;stroke-linejoin:round"/><path d="m110.61 57.79-2.91 11.07-.12.44c-1.35 5.12-4.38 8.41-7.75 8.41H25.81c-3.84 0-7.21-4.29-8.19-10.47l-1.5-9.45h94.48Z" class="cls-4"/><path d="m9.95 39.72 9.08-30.27 34.76 45.33L9.95 39.72z" class="cls-2"/><path d="m9.95 39.72 5.39 15.06h38.45L9.95 39.72z" class="cls-2"/></svg>