<svg xmlns="http://www.w3.org/2000/svg" id="Calque_1" data-name="Calque 1" viewBox="0 0 200.13 128.13"><defs><style>.cls-12,.cls-14,.cls-16,.cls-17,.cls-18,.cls-2,.cls-20,.cls-21,.cls-22,.cls-24,.cls-27,.cls-28,.cls-5,.cls-6,.cls-8,.cls-9{stroke:#000}.cls-12,.cls-21,.cls-22,.cls-24,.cls-28,.cls-30,.cls-9{fill:none}.cls-12,.cls-16,.cls-17,.cls-18,.cls-24,.cls-27,.cls-28,.cls-30{stroke-miterlimit:10}.cls-12,.cls-14,.cls-16,.cls-2,.cls-20,.cls-21,.cls-22,.cls-5,.cls-6,.cls-8,.cls-9{stroke-linecap:round}.cls-14,.cls-2,.cls-20,.cls-21,.cls-22,.cls-5,.cls-6,.cls-8,.cls-9{stroke-linejoin:round}.cls-18,.cls-2{fill:#d6d6d6}.cls-14,.cls-5{fill:#ff6d75}.cls-6{fill:#bfe6fc}.cls-27,.cls-8{fill:#fff}.cls-14,.cls-21,.cls-22,.cls-28{stroke-width:.5px}.cls-16{fill:#fab0b4}.cls-17{fill:#7bd7ff}.cls-20{stroke-width:.25px}.cls-21{stroke-dasharray:0 0 2.56 2.56}.cls-30{stroke:#251f2d}.cls-27{stroke-width:.75px}</style></defs><path id="jkvMcz" d="M119.81 86.93c-1.26 1.77-2.1 4-1.4 6.6.31 1.13 1.14 1.93 1.9 2.76.44.49.67.99.63 1.67-.14 2.05-.26 4.1-.36 6.16-.08 1.82-.07 3.65.16 5.46.04.34.12.67.23.99.22.67.51.88 1.14.88.64 0 .92-.22 1.14-.88.18-.53.23-1.09.27-1.64.23-3.22-.15-6.42-.41-9.63-.04-.52-.07-1.05-.12-1.57-.06-.54.15-.95.49-1.35.46-.54.92-1.09 1.33-1.67 1.01-1.45 1.02-3.04.58-4.67-.34-1.28-.85-2.49-1.81-3.45-1.13-1.12-2.37-1.09-3.77.34Z" class="cls-2"/><circle cx="102.6" cy="98.62" r="14.46" class="cls-8"/><circle cx="102.6" cy="98.62" r="11.8" style="fill:#bbfedb;stroke-linejoin:round;stroke-linecap:round;stroke:#000"/><path d="M82.23 85.7s-.03.05-.03.08c-.03.46-.07.92-.1 1.37-.04.48-.08.97-.11 1.45l-.09 1.23c-.04.48-.08.97-.11 1.45-.02.33-.04.66-.07.99-.03.36.03.7.17 1.02.16.37.4.67.72.91.39.28.65.64.75 1.11.05.26.04.52.02.77-.02.29-.01.59-.03.88-.02.38-.02.75-.03 1.13l-.06 2.14c-.01.45-.03.9-.04 1.35l-.06 2.12c-.01.45-.03.91-.04 1.36l-.06 2.11c-.01.46-.03.93-.04 1.39-.01.62-.04 1.24-.05 1.85 0 .63.47 1.15 1.09 1.21.62.05 1.18-.38 1.27-1.01.04-.3.01-.6 0-.9 0-.24-.02-.48-.03-.71-.02-.59-.03-1.17-.05-1.76-.02-.85-.05-1.71-.08-2.56l-.06-1.87-.06-1.96-.06-1.94-.06-1.92c-.02-.44-.04-.88-.04-1.32 0-.57.24-1.04.7-1.38.51-.37.85-.84.98-1.47.06-.3.02-.61 0-.91-.01-.24-.04-.49-.05-.73l-.09-1.34c-.02-.33-.04-.65-.07-.98l-.09-1.35-.06-.97c-.02-.23-.03-.47-.04-.7 0-.14-.07-.21-.2-.25-.2-.07-3.67 0-3.75.1ZM84.89 85.81v5.36M83.44 85.81v5.36" class="cls-2"/><path d="M111.96 11.87v4.63c0 .95-.43 1.8-1.08 2.31v2.13l-1.4-1.59h-9.89l-1.39 1.58V18.9c-.73-.51-1.22-1.4-1.22-2.41v-4.63c0-1.57 1.18-2.86 2.61-2.86h9.75c1.43 0 2.61 1.29 2.61 2.86Z" style="fill:#b2f0e9;stroke-linejoin:round;stroke-linecap:round;stroke:#000"/><path d="M119.23 29.01c-.3.23-1.73.75-3.08.86-1.43.1-1.39-.92-1.74-2.39-.35-1.45-1.06-1.47-1.12-1.85-.07-.38 1.13-1.22.88-2.84a3 3 0 0 1-.04-.51c-.05-1.34.58-2.25.97-2.73 0 0 1.84 2.48 2.22 2.87.37.39 1.59 1.51 2.35 1.13.7-.35 1.26-.97 1.93-.65.67.33.87 1.65.19 2.17 0 0 .88 1.23 1.27 2.1l1.34 3.11s-3.73 3.06-6.65.17l1.49-1.44Z" class="cls-8"/><path d="M114.16 23.64s-1.26-1.74-1.17-3.22c.1-1.79 1.68-2 1.68-2 .7-1.49 4.33-2.71 7.97-1.22 2.66 1.09 2.51 3.53 1.86 5.07" class="cls-9"/><path d="M124.94 20.94s.77 1.64.03 3.07c-.64 1.25-1.42 2.59-1.43 3.95" class="cls-9"/><path d="m121.11 23.96-.34.19" style="stroke-width:.5px;fill:#fff;stroke-linejoin:round;stroke-linecap:round;stroke:#000"/><path d="M124.69 30.32s-3.91 2.77-6.95.14" class="cls-24"/><path d="m101.25 34.82.68-4.05c.04-.26.13-.51.26-.75.29-.51.89-1.45 1.91-2.31.12-.1.28-.11.41-.05.09.04.15.12.18.2.04.11.04.24-.04.35-.28.42-.73 1.14-1.02 1.72 0 0 .64.23.93.53.29.3.17.72.17.72s1.24.75 1.37 1.67c.08.58-.12 1.4-.77 2.39" class="cls-8"/><path d="m81.04 55.82 12.9-.02-1.09-14.75c.36.68 1.92 3.74 2.53 4.53.9 1.19 2.04 2.25 3.3 2.45 3.05.46 5.98-6.5 6.66-12.04 0 0-1.81-.84-4.46-1.15l-2.2 6.27s-.75-2.64-1.4-4.68c-.38-1.2-.98-2.32-1.77-3.32l-.78-.99s-.95-.65-2.2-1.3c-1.25-.65-2.78-1.3-3.95-1.3-2.33 0-7.46 1.68-7.46 1.68-5.18 2.87-5.15 10.81-3.55 24.66h3.46" class="cls-9"/><path d="M89.8 28.99c.3.23 1.73.75 3.08.86 1.43.1 1.39-.92 1.74-2.39.35-1.45 1.06-1.47 1.12-1.85.07-.38-1.13-1.22-.88-2.84a3 3 0 0 0 .04-.51c.05-1.34-.58-2.25-.97-2.73 0 0-1.84 2.48-2.22 2.87-.37.39-1.59 1.51-2.35 1.13-.7-.35-1.26-.97-1.93-.65-.67.33-.87 1.65-.19 2.17 0 0-.88 1.23-1.27 2.1l-1.34 3.11s3.73 3.06 6.65.17l-1.49-1.44Z" class="cls-8"/><path d="M92.46 27.15c.15.62.53 1.25 1.68 1.15l.16-.72.35.05s-.84-.21-2.19-.48Z" class="cls-14"/><path d="m98.66 40.98-.17 1.7" class="cls-16"/><path d="M94.87 23.62s1.26-1.74 1.17-3.22c-.1-1.79-1.68-2-1.68-2-.7-1.49-4.33-2.71-7.97-1.22-2.66 1.09-2.51 3.53-1.86 5.07" class="cls-9"/><path d="M84.09 20.92s-.77 1.64-.03 3.07c.64 1.25 1.42 2.59 1.43 3.95" style="stroke-linejoin:round;stroke-linecap:round;stroke-width:.78px;fill:none;stroke:#000"/><ellipse cx="92.85" cy="23.89" class="cls-20" rx=".48" ry=".22" transform="rotate(-78.66 92.845 23.896)"/><path d="m87.92 23.94.34.18" style="stroke-width:.5px;fill:#fff;stroke-linecap:round;stroke-miterlimit:10;stroke:#000"/><path d="M84.34 30.3s3.91 2.77 6.95.14" style="stroke-width:.78px;stroke-miterlimit:10;fill:none;stroke:#000"/><path d="M93.5 22.42s-.47-.46-1.44.25" class="cls-22"/><path d="M116.46 27.18c-.15.62-.53 1.25-1.68 1.15l-.16-.72-.35.05s.84-.21 2.19-.48Z" class="cls-14"/><ellipse cx="115.57" cy="23.89" class="cls-20" rx=".22" ry=".48" transform="rotate(-11.34 115.616 23.888)"/><path d="M114.92 22.42s.47-.46 1.44.25" class="cls-22"/><path d="M117.25 30.46c-.48.23-2.4.49-3.75 1.73s-1.94 3.24-2.25 11.05c-.31 7.8-.15 12.58-.15 12.58h13.34l5.83.02c.73-13.82 1.07-21.28-2.92-24.14 0 0-2.73-1.37-2.96-1.41" class="cls-24"/><path d="m114.52 39.29-.5 16.53" style="stroke-width:1.2px;fill:#fab0b4;stroke-linecap:round;stroke-miterlimit:10;stroke:#000"/><path d="m80.93 55.8-.31-14.75M125.96 55.4l.37-15.78" class="cls-16"/><path d="M50.65 21.03H15.47l17.6-11.9 17.58 11.9z" class="cls-5"/><path d="M15.47 21.03h35.18v25.64H15.47z" class="cls-8"/><path d="M30.03 36.69h6.07v9.98h-6.07z" class="cls-9"/><path d="M21.77 26.3h4.72v6.86h-4.72zM39.63 26.3h4.72v6.86h-4.72z" class="cls-24"/><path d="M182.94 28.11h-8.03v-8.04h-8.64v8.04h-8.04v8.63h8.04v8.04h8.64v-8.04h8.03v-8.63z" class="cls-5"/><path d="M54.11 75.25H53.1c-.22 0-.44 0-.65-.02-.28 0-.56-.02-.84-.03-.09 0-.19-.01-.29-.01-.12 0-.24 0-.37-.02-.09 0-.18 0-.26-.02-.53-.03-1.05-.06-1.61-.1l-.65-.05c-.05 0-.11 0-.16-.01-.21-.02-.43-.03-.65-.05-1.1-.09-2.32-.19-3.76-.31-.22.64-.43 1.28-.62 1.92h0c-.03.09-.05.17-.08.25-.04.13-.08.25-.11.38-.02.08-.05.16-.07.24-.36 1.24-.69 2.47-.99 3.7-.01.04-.02.09-.03.14-.05.18-.09.35-.13.54h0c-.01.06-.03.11-.04.17-2.58 11.3-2.41 22.07-3.23 33.25 0 .07 0 .14-.01.21 0 .15-.02.29-.03.44 0 .07 0 .14-.01.21-.03.43-.07.85-.1 1.28 2.59.12 5.16.37 7.73.72.07-.39.15-.81.22-1.25h0c.03-.21.07-.42.11-.64 1.13-6.67 2.7-18.22 3.45-23.59h0c0-.05.01-.1.02-.15.2-1.41.34-2.37.39-2.67.03.28.1 1.16.19 2.44 0 0 0 0 0 0 .02.22.04.46.05.71.4 5.64 1.19 17.22 1.71 23.39v.06c.02.22.04.42.05.63v.02c.04.46.08.89.12 1.27 2.58-.17 5.17-.23 7.76-.17 0-.43-.01-.85-.01-1.28v-.8c-.04-11.23.81-22.46-.64-33.42l-.09-.71h0c-.03-.25-.07-.49-.11-.74h0c-.17-1.1-.35-2.2-.58-3.29-.02-.1-.04-.21-.06-.32-.02-.11-.04-.21-.07-.32-.02-.11-.04-.21-.06-.31-.13-.59-.26-1.17-.4-1.75-1.56.05-2.86.08-4.03.07h-.05Z" class="cls-2"/><path d="M43.46 75.93s6.32 2.12 15.03.5" class="cls-9"/><path d="m50.97 75.17-.64 14.6" style="fill:#87ccf3;stroke-linejoin:round;stroke-linecap:round;stroke:#000"/><path d="M47.65 74.94s-.27 4.49-5.56 5.88M55.54 75.25s-.3 5.89 3.93 6.66" class="cls-9"/><path d="M36.81 94.48c-.07-.2-.18-.29-.4-.14-.75.53-1.9.65-2.73.29-.15-.07-.28.04-.31.23-.03.18.06.33.1.5.06.34-.14 1.22.23 1.38.83.36 1.74.27 2.54-.06.18-.08.39-.12.55-.26.21-.18.19-.36.14-.66-.03-.19 0-.96-.11-1.27ZM6.39 94.48c.07-.2.18-.29.4-.14.75.53 1.9.65 2.73.29.15-.07.28.04.31.23.03.18-.06.33-.1.5-.06.34.14 1.22-.23 1.38-.83.36-1.74.27-2.54-.06-.18-.08-.39-.12-.55-.26-.21-.18-.19-.36-.14-.66.03-.19 0-.96.11-1.27Z" class="cls-17"/><path d="M34.85 79.77c-.8-2.58-1.56-4.81-2.61-7.38-.17-.4-.43-.77-.77-1.04-.89-.7-1.85-1.18-3.13-1.6-1.26-.42-3.78-1.16-6.73-1.16-2.95 0-5.47.74-6.73 1.16-1.28.42-2.25.9-3.13 1.6-.34.27-.6.64-.77 1.04-1.05 2.57-1.82 4.8-2.61 7.38-1.64 5.3-2.59 11.43-2.65 13.47-.01.36.17 1.02.49 1.2 1.4.76 3 .68 3.86.39.38-.13.63-.78.66-1.18.35-5.43 1.72-9.99 2.41-12.09.31 6.08-.05 12.2-.14 13.57-.01.19.06.38.2.51 1.76 1.7 5.73 2.87 8.41 2.97h.02c2.67-.1 6.65-1.27 8.41-2.97a.65.65 0 0 0 .2-.51c-.09-1.37-.45-7.49-.14-13.57.69 2.1 2.06 6.66 2.41 12.09.03.39.28 1.05.66 1.18.86.29 2.46.38 3.86-.39.32-.17.5-.83.49-1.2-.06-2.04-1.02-8.17-2.65-13.47Z" class="cls-17"/><path d="M21.6 71.21c.75-.03 1.44-.75 1.92-1.3.51-.58.98-1.08 1.33-1.78.04-.09.12-.31-.13-.65-.95-.17-2.04-.26-3.13-.26-1.09 0-2.17.09-3.13.26-.24.35-.17.56-.13.65.36.7.82 1.2 1.33 1.78.48.54 1.17 1.27 1.92 1.3Z" style="fill:#8987f3;stroke-miterlimit:10;stroke:#000"/><path d="M21.6 71.3c.2.53 1.02 2.32 1.04 2.34.05.12.21.21.33.09 1.33-1.25 2.32-2.78 2.95-4.53.05-.15.03-.21 0-.26-.28-.53-.64-1-1.06-1.4-.15-.14-.28.02-.35.17-.6 1.41-1.69 2.64-2.92 3.43-1.23-.79-2.32-2.02-2.92-3.43-.06-.14-.2-.31-.35-.17-.43.4-.78.87-1.06 1.4-.03.05-.05.11 0 .26.63 1.76 1.62 3.29 2.95 4.53.12.12.29.03.33-.09.01-.02.83-1.81 1.04-2.34Z" style="fill:#7bd7ff;stroke-linejoin:round;stroke:#000"/><path d="M28.17 78.05c.17 0 .32.14.32.32 0 .11.02 2.76-.03 2.86a.42.42 0 0 1-.09.14c-.33.39-1.6 1.22-1.91 1.35-.09.04-.23.04-.32 0-.3-.13-1.57-.96-1.91-1.35a.55.55 0 0 1-.09-.14c-.05-.1-.03-2.75-.03-2.86 0-.17.14-.32.32-.32h3.74Z" style="fill:#8987f3;stroke-width:.47px;stroke-miterlimit:10;stroke:#000"/><path d="M22.39 74.27a.308.308 0 0 0-.19 0c-.04 0-.08 0-.12.03-.05.04-.08.11-.09.17-.02.1 0 .21.08.29.14.14.37.08.47-.08.1-.15.04-.36-.14-.42ZM22.39 78.04a.308.308 0 0 0-.19 0c-.04 0-.08 0-.12.03-.05.04-.08.11-.09.17-.02.1 0 .21.08.29.14.14.37.08.47-.08.1-.15.04-.36-.14-.42ZM22.39 81.81a.308.308 0 0 0-.19 0c-.04 0-.08 0-.12.03-.05.04-.08.11-.09.17-.02.1 0 .21.08.29.14.14.37.08.47-.08.1-.15.04-.36-.14-.42ZM22.39 85.58a.308.308 0 0 0-.19 0c-.04 0-.08 0-.12.03-.05.04-.08.11-.09.17-.02.1 0 .21.08.29.14.14.37.08.47-.08.1-.15.04-.36-.14-.42ZM22.39 89.36a.308.308 0 0 0-.19 0c-.04 0-.08 0-.12.03-.05.04-.08.11-.09.17-.02.1 0 .21.08.29.14.14.37.08.47-.08.1-.15.04-.36-.14-.42ZM22.39 93.13a.308.308 0 0 0-.19 0c-.04 0-.08 0-.12.03-.05.04-.08.11-.09.17-.02.1 0 .21.08.29.14.14.37.08.47-.08.1-.15.04-.36-.14-.42ZM22.39 96.9a.308.308 0 0 0-.19 0c-.04 0-.08 0-.12.03-.05.04-.08.11-.09.17-.02.1 0 .21.08.29.14.14.37.08.47-.08.1-.15.04-.36-.14-.42Z"/><path d="M11.32 71.79s1.41.65 1.85 4.85M31.89 71.79s-1.67 1.25-1.72 5.29" class="cls-12"/><path d="M21.6 71.13v27.49" style="stroke-width:.5px;fill:#8987f3;stroke-miterlimit:10;stroke:#000"/><path d="M13.09 109.46c-.05.19-.09.37-.13.56.18.06.36.13.54.19 2.55.89 5.13 1.74 7.71 2.55 2.62.81 5.3 1.58 8.05 1.68.16 0 .31.01.47 0 .17.01.35 0 .53 0 .05-.19.07-.39.08-.58 0-.15.01-.31 0-.46 0-.05 0-.11-.01-.16-.01-.15-.04-.29-.07-.44 0-.03-.01-.05-.02-.08 0-.02 0-.04-.02-.06-.69.05-1.36.07-2.02.06-5.27-.06-9.77-1.8-12.38-3.08l-.05-.03c-1.5-.74-2.35-1.32-2.35-1.32l-.33 1.17Z" class="cls-27"/><path d="M22.42 105.32c.07.18.15.35.24.53.01.03.03.07.05.1.1.18.23.4.39.64.06.09.11.18.18.27l.12.18c.16.22.32.43.46.62.17.21.32.38.45.5l.02.02c.19.17.38.32.59.47.2.15.4.28.61.41.11.07.21.13.32.19.12.07.24.14.36.2.23.12.45.24.67.35.24.12.47.23.7.34 1.61.78 2.92 1.4 2.63 2.5-.69.05-1.36.07-2.02.06-5.27-.06-9.77-1.8-12.38-3.08l-.05-.03c-1.5-.74-2.35-1.32-2.35-1.32v-.03c-.08-1.05.3-2.01.73-2.71.08-.13.16-.26.24-.37.08-.1.15-.19.21-.28.24-.29.43-.46.49-.48.17-.04 2.03 2.85 5.72 1.55l1.6-.65Z" class="cls-18"/><path d="M15.82 109.63s-.04-.02-.05-.03" class="cls-30"/><path d="M20.82 105.98s2.09 3.64 4.58 4.61c2.49.96 2.8 2.13 2.8 2.13" class="cls-24"/><path d="m23.28 106.87-1.32.77M23.86 107.68l-.96 1.07M24.92 108.66l-.78 1.2M25.86 109.27l-.46 1.31" class="cls-28"/><path d="M14.32 105.28s1.8 2.2 1.44 4.33" class="cls-24"/><path d="M8.51 110.71c-.07.18-.14.36-.2.54.17.08.34.17.52.25 2.43 1.2 4.87 2.36 7.34 3.47 2.5 1.13 5.07 2.21 7.78 2.66.16.02.31.05.46.06.17.03.35.05.52.06.07-.18.12-.38.16-.57.03-.15.05-.3.05-.45v-.16c0-.15 0-.29-.02-.44v-.14c-.69-.04-1.35-.1-2.01-.19-5.23-.7-9.48-2.99-11.9-4.58l-.05-.03c-1.4-.92-2.17-1.6-2.17-1.6l-.47 1.12Z" class="cls-27"/><path d="M18.28 107.76c.05.19.11.37.17.55 0 .03.02.07.04.11.07.19.18.43.31.69.05.1.09.2.14.29.04.06.07.13.1.2.13.24.26.47.38.67.14.23.27.42.39.55 0 0 0 .01.01.02.16.19.34.36.53.54.18.17.36.33.56.49.1.08.19.16.29.23l.33.24c.21.15.42.29.63.43.22.15.43.29.65.42 1.5.97 2.73 1.75 2.31 2.8-.69-.04-1.35-.1-2.01-.19-5.23-.7-9.48-2.99-11.9-4.58l-.05-.03c-1.4-.92-2.17-1.6-2.17-1.6v-.03c.05-1.05.55-1.96 1.06-2.59.1-.12.19-.23.28-.33l.25-.25c.27-.26.49-.41.55-.41.18-.02 1.67 3.08 5.49 2.24l1.67-.45Z" class="cls-18"/><path d="M11.21 111.22s-.04-.02-.05-.03" class="cls-30"/><path d="M16.62 108.21s1.62 3.87 3.98 5.13c2.35 1.26 2.52 2.46 2.52 2.46" class="cls-24"/><path d="m18.94 109.4-1.4.6M19.43 110.27l-1.09.95M20.35 111.38l-.92 1.09M21.21 112.1l-.62 1.24" class="cls-28"/><path d="M10.25 106.72s1.52 2.4.9 4.47" class="cls-24"/><path d="M178.67 72.97c0-2.29-2.41-4.15-5.38-4.15-2.97 0-5.39 1.86-5.39 4.15h10.77Z" class="cls-6"/><path d="M173.54 88.05v-1.89" class="cls-22"/><path d="M173.54 83.6v-3.84" class="cls-21"/><path d="M173.54 78.48V76.6M168.89 88.05v-1.89" class="cls-22"/><path d="M168.89 83.6v-3.84" class="cls-21"/><path d="M168.89 78.48V76.6M177.88 88.05v-1.89" class="cls-22"/><path d="M177.88 83.6v-3.84" class="cls-21"/><path d="M177.88 78.48V76.6M175.71 91.02v-1.88" class="cls-22"/><path d="M175.71 86.58v-3.84" class="cls-21"/><path d="M175.71 81.46v-1.88M171.29 91.02v-1.88" class="cls-22"/><path d="M171.29 86.58v-3.84" class="cls-21"/><path d="M171.29 81.46v-1.88M173.54 102v-1.88" class="cls-22"/><path d="M173.54 97.55v-3.84" class="cls-21"/><path d="M173.54 92.43v-1.88M168.89 102v-1.88" class="cls-22"/><path d="M168.89 97.55v-3.84" class="cls-21"/><path d="M168.89 92.43v-1.88M177.88 102v-1.88" class="cls-22"/><path d="M177.88 97.55v-3.84" class="cls-21"/><path d="M177.88 92.43v-1.88M175.71 104.97v-1.88" class="cls-22"/><path d="M175.71 100.53v-3.84" class="cls-21"/><path d="M175.71 95.41v-1.88M171.29 104.97v-1.88" class="cls-22"/><path d="M171.29 100.53v-3.84" class="cls-21"/><path d="M171.29 95.41v-1.88" class="cls-22"/><path d="M155.21 113.71V66.66M173.28 66.66v1.79M173.28 66.66c0-2.48-2.03-4.51-4.51-4.51h-9.06c-1.24 0-2.36.51-3.18 1.33s-1.33 1.94-1.33 3.18" class="cls-9"/><path d="M155.21 113.71h30.75v3.3h-30.75zM155.21 112.05h29.72v1.66h-29.72z" class="cls-6"/><path d="M167.9 74.6h10.77" class="cls-9"/><path d="M155.21 89.19h3.01v1.43h-3.01z" class="cls-6"/><path d="M155.21 89.19h3.01v1.43h-3.01zM158.22 92.7v-5.6h1.43v5.6z" class="cls-6"/><path d="M-185.59-68.12h2179.47v547.09H-185.59z" style="stroke:#fff;stroke-width:8px;stroke-linejoin:round;stroke-linecap:round;fill:none"/></svg>