<svg xmlns="http://www.w3.org/2000/svg" id="Calque_1" data-name="Calque 1" viewBox="0 0 128 128.13"><defs><style>.cls-3{fill:#fff;stroke-width:2px;stroke:#000}.cls-6{stroke:#000;stroke-miterlimit:10}.cls-3{stroke-linecap:round;stroke-linejoin:round}.cls-6{fill:none}</style></defs><path d="M77.54 43.98a8.467 8.467 0 0 1 2.25 5.75v64.13c0 5.49-7.04 7.94-15.73 7.94s-15.72-2.45-15.72-7.94V49.73c0-2.13.81-4.19 2.26-5.76l.86-.93a8.483 8.483 0 0 0 2.26-5.76v-4.83h20.71v4.84c0 2.13.81 4.18 2.26 5.74l.86.94Z" style="fill:#bfe6fc;stroke-linecap:round;stroke-linejoin:round;stroke:#000;stroke-width:2px"/><path d="M79.79 58.29v55.92c0 5.24-7.04 7.58-15.73 7.58s-15.72-2.34-15.72-7.58V58.29" style="stroke-miterlimit:10;stroke:#000;stroke-width:2px;fill:#fff"/><path d="M70.8 20.96v4.56H57.34v-4.56c0-.46.12-.88.34-1.25.76-1.27 2.49-2.58 2.85-4.01.33-1.31.49-2.65.49-4 0-.51-.02-1.02-.07-1.54-.02-.22-.05-.44-.07-.66 0-1.72 1.43-3.12 3.19-3.12s3.19 1.4 3.19 3.12c-.03.22-.05.44-.07.66-.18 2.05 0 4.1.57 6.07.35 1.25 2.04 2.36 2.7 3.48.22.36.34.79.34 1.24Z" style="stroke-linecap:round;stroke-linejoin:round;fill:#a07637;stroke:#000;stroke-width:2px"/><path d="m76.56 28.38-2.37-.19c-6.67-.54-13.36-.54-20.03-.01l-2.57.2v6.43l2.51-.2c6.67-.53 13.36-.53 20.03 0l2.44.2v-6.43Z" class="cls-3"/><path d="M75.28 28.28h-.01c-7.42-.67-14.88-.67-22.29-.01h-.11v-3.54H53c7.42-.67 14.88-.67 22.29 0h0v3.55Z" class="cls-3"/><path d="M53.19 53.71h5.66M53.19 62.67h5.66M53.19 71.63h5.66M53.19 80.59h5.66M53.19 89.56h5.66M53.19 98.52h5.66M53.19 107.48h5.66" class="cls-6"/><path d="M67.21 43.82h4.64c.72 0 1.62 3 1.79 3.55.48 1.54.56 3.05.62 4.65 0 .22.24 3.25.08 3.25h-4.18c.11 0-.32-6.06-.4-6.54-.17-1-.46-2.01-.95-2.9-.25-.46-.98-2-1.6-2Z" style="fill:#fff"/><path d="M-4021.16-3880.11h6467.34v6437.3h-6467.34z" style="fill:none;stroke:#fff;stroke-width:8px;stroke-linecap:round;stroke-linejoin:round"/></svg>