<svg xmlns="http://www.w3.org/2000/svg" id="Calque_1" data-name="Calque 1" viewBox="0 0 200 128"><defs><style>.cls-5{fill:none}.cls-5,.cls-6{stroke-width:2px}.cls-5,.cls-6,.cls-7{stroke:#000}.cls-5,.cls-7{stroke-linecap:round;stroke-linejoin:round}.cls-6{stroke-miterlimit:10}</style></defs><path d="M19.73 79.86h160.54" class="cls-6"/><circle cx="19.73" cy="57.25" r="13.48" style="fill:#ff6d75"/><path d="M33.2 57.25c0 7.44-6.03 13.48-13.48 13.48S6.24 64.7 6.24 57.25s6.03-13.48 13.48-13.48c2.31 0 4.49.58 6.39 1.61" class="cls-5"/><path d="M14.17 64.12c1.38-1.51 3.35-2.45 5.55-2.45s4.18.95 5.56 2.45" class="cls-5"/><circle cx="14.45" cy="54.64" r="1.68" class="cls-7"/><circle cx="25" cy="54.64" r="1.68" class="cls-7"/><circle cx="126.76" cy="57.25" r="13.48" style="fill:#b4eac3"/><path d="M140.24 57.25c0 7.44-6.03 13.48-13.48 13.48s-13.48-6.03-13.48-13.48 6.03-13.48 13.48-13.48c2.31 0 4.49.58 6.39 1.61" class="cls-5"/><path d="M132.31 62.32c-1.38 1.51-3.35 2.45-5.55 2.45s-4.18-.95-5.56-2.45" class="cls-5"/><circle cx="121.48" cy="54.64" r="1.68" class="cls-7"/><circle cx="132.03" cy="54.64" r="1.68" class="cls-7"/><circle cx="180.27" cy="57.25" r="13.48" style="fill:#87f3b9"/><path d="M193.75 57.25c0 7.44-6.03 13.48-13.48 13.48s-13.48-6.03-13.48-13.48 6.03-13.48 13.48-13.48c2.31 0 4.49.58 6.39 1.61" class="cls-5"/><circle cx="175.02" cy="54.64" r="1.68" class="cls-7"/><circle cx="185.57" cy="54.64" r="1.68" class="cls-7"/><path d="M185.46 60.81c0 2.85-2.31 5.17-5.17 5.17s-5.17-2.31-5.17-5.17h10.33Z" class="cls-5"/><circle cx="73.24" cy="57.25" r="13.48" style="fill:#f3d587"/><path d="M86.72 57.25c0 7.44-6.03 13.48-13.48 13.48S59.76 64.7 59.76 57.25s6.03-13.48 13.48-13.48c2.31 0 4.49.58 6.39 1.61" class="cls-5"/><circle cx="67.97" cy="54.64" r="1.68" class="cls-7"/><circle cx="78.52" cy="54.64" r="1.68" class="cls-7"/><path d="M66.98 63.23h11.54" class="cls-5"/><path d="M19.73 76.11v8.12M73.24 76.11v8.12M126.76 76.11v8.12M180.27 76.11v8.12" class="cls-6"/></svg>