<svg xmlns="http://www.w3.org/2000/svg" id="Calque_1" data-name="Calque 1" viewBox="0 0 128 128"><defs><style>.cls-2{stroke:#000;fill:#fab0b4;stroke-miterlimit:10}</style></defs><path d="M48.84 10.86s4.67 9.59 14 9.33c9.33-.26 16.59-9.33 16.59-9.33s14.51 4.93 21.51 9.34c7 4.4 12.7 10.1 12.7 10.1l-11.4 14.51-9.85-2.33s-1.04 18.14-.26 25.66 3.89 26.44 2.33 28.51c-1.56 2.07-9.81 2.72-16.33 10.11-3 3.4-5.14 12.44-5.14 12.44H56.95s-3.18-10.37-8.1-14c-4.92-3.63-13.74-6.48-13.74-6.48s-.78-23.07 0-31.62-.35-25.92-.35-25.92l-9.5 5.18-10.89-17.62s10.63-7 16.59-9.85c5.96-2.85 17.88-8.03 17.88-8.03Z" style="stroke:#000;fill:#fce9b9;stroke-linecap:round;stroke-linejoin:round;stroke-width:2px"/><path d="M43.37 13.26S51.33 27.66 64 26.8c12.67-.86 21.97-13.54 21.97-13.54l-6.43-2.02-2.04 1.94a25.639 25.639 0 0 1-5.74 4.12l-2.81 1.48a11.33 11.33 0 0 1-3.72 1.19c-2.33.31-4.7.15-6.96-.49l-.4-.11c-.75-.21-1.47-.54-2.13-.97a21.672 21.672 0 0 1-5.43-5.12l-1.6-2.14-5.34 2.13Z" style="fill:none;stroke-miterlimit:10;stroke:#000"/><path d="M29.93 43.82 19.55 25.43l-4.37 3.23 10.08 17.05 4.67-1.89zM96.66 43.49l12.23-17.45 4.5 4.57L102 44.45l-5.34-.96z" class="cls-2"/><circle cx="60.65" cy="112.57" r="1.85" class="cls-2"/><circle cx="68.56" cy="112.57" r="1.85" class="cls-2"/></svg>