<svg xmlns="http://www.w3.org/2000/svg" id="Calque_1" viewBox="0 0 128 128"><defs><style>.cls-1{fill:#76ac75}.cls-3,.cls-8{fill:#fff;stroke-linecap:round;stroke-linejoin:round;stroke:#000;stroke-width:2px}.cls-8{fill:none}</style></defs><path d="M-2194.9-2047.77h3385.57V523.9H-2194.9z" style="stroke:#fff;stroke-width:8px;fill:none;stroke-linecap:round;stroke-linejoin:round"/><path d="M117.38 85.34Z" style="fill:#e2edf5"/><path d="M113.82 40.97c0 2.47-3.03 4.76-8.24 6.67-4.61-4.41-21.05-7.67-40.63-7.67s-37.18 3.5-41.08 8.14c-6.02-2-9.58-4.46-9.58-7.14 0-6.68 22.28-12.1 49.76-12.1s49.77 5.42 49.77 12.1Z" class="cls-3"/><path d="M113.82 40.97c.3 80.87-47.6 75.13-47.6 75.13-56.83 0-51.93-75.13-51.93-75.13 0 2.68 3.56 5.14 9.58 7.14 9.05 3.02 23.68 4.97 40.18 4.97 17.35 0 32.63-2.16 41.53-5.44 5.21-1.91 8.24-4.2 8.24-6.67Z" class="cls-3"/><path d="M105.58 47.64c-8.9 3.28-24.18 5.44-41.53 5.44s-31.13-1.95-40.18-4.97c3.9-4.64 20.81-8.14 41.08-8.14s36.02 3.26 40.63 7.67Z" style="stroke-width:2px;stroke:#000;stroke-linecap:round;stroke-linejoin:round;fill:#fce9b9"/><path d="M56.92 105.72V72.19l6.6-10.44h14.49l6.6 10.44v33.53H56.92z" style="fill:#f3d587;stroke-width:2px;stroke:#000;stroke-linecap:round;stroke-linejoin:round"/><path d="M70.76 70.54c-1.37 0-2.49-1.12-2.49-2.49s1.12-2.49 2.49-2.49 2.49 1.12 2.49 2.49-1.12 2.49-2.49 2.49Z" style="fill:#fff"/><path d="M70.77 66.56c.82 0 1.49.67 1.49 1.49s-.67 1.49-1.49 1.49-1.49-.67-1.49-1.49.67-1.49 1.49-1.49m0-2c-1.92 0-3.49 1.57-3.49 3.49s1.57 3.49 3.49 3.49 3.49-1.57 3.49-3.49-1.57-3.49-3.49-3.49Z"/><path d="M56.26 52.93s13.02-10.66 14.51 12.7" style="fill:none;stroke:#000;stroke-linecap:round;stroke-linejoin:round"/><path d="M70.33 99.6s-.07 0-.11-.01c-.93-.21-5.66-1.49-8.06-6.29-2.21-4.42-.85-8.58-.39-9.75a.51.51 0 0 1 .46-.31c.06 0 .12 0 .17.03.21.08 5.16 1.93 7.59 6.34 1.94 3.52 1.64 7.57 1.42 9.15a.51.51 0 0 1-.43.43h-.06c-.04 0-.07 0-.1-.01a.43.43 0 0 1-.1.23c-.1.13-.24.2-.4.2Z" class="cls-1"/><path d="M62.24 83.74s4.95 1.82 7.32 6.12c1.88 3.4 1.57 7.34 1.37 8.83-.24-.57-.47-1.15-.7-1.73l-.73-1.93c-.13-.32-.26-.65-.4-.97-.15-.32-.3-.64-.46-.95-.33-.62-.7-1.22-1.1-1.8-.81-1.14-1.75-2.19-2.81-3.08.79 1.14 1.55 2.28 2.22 3.46.33.59.65 1.19.94 1.8.29.61.55 1.23.79 1.86l.38.96c.13.32.26.64.4.96.27.62.57 1.23.89 1.82-.63-.14-5.36-1.29-7.72-6.03-2.23-4.48-.63-8.69-.37-9.34m0-1c-.4 0-.77.24-.93.63-.49 1.22-1.9 5.55.4 10.16 2.5 5 7.43 6.34 8.4 6.56.07.02.15.02.22.02.31 0 .61-.14.8-.4.01-.02.02-.03.03-.05.4-.1.7-.42.76-.84.23-1.63.53-5.8-1.48-9.45-2.52-4.58-7.64-6.49-7.85-6.57-.11-.04-.23-.06-.34-.06Z"/><path d="M72.82 99.77c-.14 0-.27-.06-.37-.16a.353.353 0 0 1-.08-.13c-.06.03-.13.04-.2.04h-.08a.509.509 0 0 1-.42-.44c-.14-1.35-.27-4.79 1.5-7.73 2.2-3.65 6.44-5.05 6.62-5.11.05-.02.1-.02.15-.02a.484.484 0 0 1 .49.41c.03.19.77 4.59-1.44 8.24-1.73 2.86-4.77 4.36-6 4.87-.06.03-.13.04-.19.04Z" class="cls-1"/><path d="M79.96 86.71s.76 4.36-1.37 7.89c-1.64 2.72-4.53 4.15-5.76 4.67l.21-.42c.13-.26.25-.53.37-.79l.35-.79c.23-.53.47-1.04.73-1.54s.54-.99.84-1.48c.6-.97 1.28-1.9 1.98-2.83-.92.71-1.75 1.56-2.46 2.49a14.442 14.442 0 0 0-1.4 2.25c-.13.26-.25.53-.37.8l-.68 1.59c-.07.16-.14.31-.21.47-.13-1.22-.28-4.59 1.43-7.42 2.13-3.53 6.35-4.89 6.35-4.89m0-1c-.1 0-.21.02-.31.05-.19.06-4.6 1.52-6.9 5.32-1.85 3.07-1.72 6.65-1.57 8.04.05.45.39.81.84.88.05 0 .1.01.15.01.18.16.42.25.66.25.13 0 .26-.03.38-.08 1.27-.53 4.43-2.08 6.23-5.07 2.3-3.81 1.54-8.39 1.5-8.58a.959.959 0 0 0-.47-.68.969.969 0 0 0-.52-.14Z"/><path d="M63.8 15.12c0 4.66-6.24 4.66-6.24 9.32s6.24 4.66 6.24 9.32M70.44 15.12c0 4.66-6.24 4.66-6.24 9.32s6.24 4.66 6.24 9.32" class="cls-8"/></svg>