<svg xmlns="http://www.w3.org/2000/svg" id="Calque_1" viewBox="0 0 128 128"><defs><style>.cls-2,.cls-3,.cls-5{stroke-linecap:round;stroke-linejoin:round;stroke:#000}.cls-3,.cls-5{stroke-width:2px}.cls-2{fill:#a07637}.cls-3{fill:#fff}.cls-5{fill:none}</style></defs><path d="M-2471.16-2047.77H914.41V523.9h-3385.57z" style="fill:none;stroke:#fff;stroke-width:8px;stroke-linecap:round;stroke-linejoin:round"/><path d="M117.38 85.34Z" style="fill:#e2edf5"/><path d="M113.82 40.97c0 2.47-3.03 4.76-8.24 6.67-4.61-4.41-21.05-7.67-40.63-7.67s-37.18 3.5-41.08 8.14c-6.02-2-9.58-4.46-9.58-7.14 0-6.68 22.28-12.1 49.76-12.1s49.77 5.42 49.77 12.1Z" class="cls-3"/><path d="M113.82 40.97c.3 80.87-47.6 75.13-47.6 75.13-56.83 0-51.93-75.13-51.93-75.13 0 2.68 3.56 5.14 9.58 7.14 9.05 3.02 23.68 4.97 40.18 4.97 17.35 0 32.63-2.16 41.53-5.44 5.21-1.91 8.24-4.2 8.24-6.67Z" class="cls-3"/><path d="M105.58 47.64c-8.9 3.28-24.18 5.44-41.53 5.44s-31.13-1.95-40.18-4.97c3.9-4.64 20.81-8.14 41.08-8.14s36.02 3.26 40.63 7.67Z" style="stroke-width:2px;stroke:#000;stroke-linecap:round;stroke-linejoin:round;fill:#baa584"/><path d="m53.623 64.977 4.975-2.902 3.699 6.34-4.976 2.902z" class="cls-2"/><path d="m48.656 67.885 4.975-2.902 3.7 6.34-4.976 2.902zM58.603 62.073l4.975-2.903 3.699 6.34-4.976 2.903zM39.97 70.784l4.975-2.902 3.7 6.34-4.976 2.902z" class="cls-2"/><path d="m57.323 71.319 4.975-2.903 3.7 6.34-4.976 2.903zM52.348 74.232l4.975-2.903 3.7 6.34-4.976 2.903zM62.303 68.414l4.976-2.902 3.698 6.34-4.975 2.902z" class="cls-2"/><path d="m47.367 77.121 4.975-2.902 3.699 6.34-4.975 2.902zM61.024 77.66 66 74.758l3.699 6.34L64.723 84zM56.049 80.564l4.975-2.903L64.723 84l-4.975 2.902zM66.004 74.756l4.975-2.903 3.7 6.34-4.976 2.903zM51.068 83.463l4.975-2.903 3.699 6.34-4.976 2.903z" class="cls-2"/><path d="M64.725 83.992 69.7 81.09l3.699 6.34-4.975 2.902zM59.735 86.897l4.975-2.903 3.699 6.34-4.975 2.902zM69.705 81.098l4.975-2.903 3.699 6.34-4.975 2.903zM54.76 89.81l4.975-2.903 3.699 6.34-4.976 2.902z" class="cls-2"/><path d="M68.426 90.334 73.4 87.43l3.699 6.34-4.976 2.903zM63.435 93.238l4.976-2.902 3.698 6.34-4.975 2.902z" class="cls-2"/><path d="m73.392 87.426 4.975-2.903 3.699 6.34-4.975 2.903zM58.46 96.151l4.976-2.902 3.698 6.34-4.975 2.902zM72.126 96.675l4.975-2.902 3.7 6.34-4.976 2.902zM67.136 99.58l4.975-2.903 3.7 6.34-4.976 2.903z" class="cls-2"/><path d="m77.093 93.767 4.975-2.902 3.699 6.34-4.975 2.902zM62.156 102.474l4.975-2.902 3.7 6.34-4.976 2.902z" class="cls-2"/><path d="M63.8 15.12c0 4.66-6.24 4.66-6.24 9.32s6.24 4.66 6.24 9.32M70.44 15.12c0 4.66-6.24 4.66-6.24 9.32s6.24 4.66 6.24 9.32" class="cls-5"/></svg>