<svg xmlns="http://www.w3.org/2000/svg" id="Calque_1" viewBox="0 0 128.13 128"><defs><style>.cls-1{fill:#d6d6d6}.cls-1,.cls-3,.cls-4{stroke:#000;stroke-linecap:round;stroke-linejoin:round;stroke-width:2px}.cls-3{fill:#fce9b9}.cls-4{fill:none}</style></defs><path d="M108.61 32.55v24H75.92V32.52c0-1.22-.16-2.41-.45-3.55-.31-1.21-.79-2.35-1.39-3.41-2.42-4.25-7-7.12-12.24-7.12H94.5c7.8 0 14.11 6.32 14.11 14.11Z" class="cls-1"/><path d="M95.28 22.38c5.68 1.82 9.79 5.37 9.79 13.44" class="cls-4"/><path d="M77.44 56.56h7.98v62.33h-7.98z" class="cls-1"/><path d="M93.51 6.4v5.99c0 1.46-1.18 2.64-2.64 2.64h-4.21v21.72c0 1.78-1.44 3.22-3.22 3.22-.89 0-1.69-.37-2.27-.95-.59-.58-.95-1.39-.95-2.27V6.4H93.5Z" style="fill:#87f3b9;stroke:#000;stroke-linecap:round;stroke-linejoin:round;stroke-width:2px"/><path d="M46.28 52.85h29.64V32.52c0-1.22-.16-2.41-.45-3.55-.31-1.21-.79-2.35-1.39-3.41-2.42-4.25-7-7.12-12.24-7.12h-1.48c-5.24 0-9.82 2.87-12.24 7.12" class="cls-4"/><path d="M75.92 52.86v3.7H32.13a1.852 1.852 0 0 1-1.31-3.16c.34-.33.8-.54 1.31-.54h43.79Z" class="cls-1"/><path d="M75.47 28.98 60.03 41.46" class="cls-4"/><path d="M75.92 32.52v20.34h-35.6v-27.3h33.75c.61 1.06 1.08 2.21 1.39 3.42.29 1.14.45 2.32.45 3.54Z" class="cls-3"/><path d="m40.33 25.56 19.66 15.9M40.33 25.56l19.66 15.9M75.47 28.98 60.03 41.46M75.92 48.66l-12.4-10.02M40.33 51.72 56.5 38.64" class="cls-4"/><path d="m22.97 76.099 31.154-8.144 5.731 21.923-31.153 8.144z" class="cls-3"/><path d="m22.97 76.1 19.13 8.64M22.97 76.1l19.13 8.64M53.56 69.24 42.13 84.73M59.52 88.59l-15.18-6.85M28.46 97.11l10.25-13.9" class="cls-4"/><path d="m37.901 101.106 6.67-12.559 17.84 9.474-6.67 12.56z" class="cls-3"/><path d="m44.57 88.55 5.16 12.11M44.57 88.55l5.16 12.11M61.61 98.37l-11.86 2.3M56.14 109.84l-4.1-9.62M38.18 100.57l10.64-2.06" class="cls-4"/><circle cx="83.36" cy="36.81" r="1.15"/></svg>