<svg xmlns="http://www.w3.org/2000/svg" id="Calque_1" data-name="Calque 1" viewBox="0 0 200 128"><defs><style>.cls-1,.cls-2,.cls-4{stroke:#000;stroke-linecap:round;stroke-linejoin:round}.cls-1,.cls-4{fill:none}.cls-2{fill:#bbfedb}.cls-2,.cls-4{stroke-width:2px}</style></defs><path d="M58.5 79.82H15.26c-2.18 0-3.95 1.77-3.95 3.95v9.42c0 2.18 1.77 3.95 3.95 3.95h43.37" class="cls-2"/><path d="M53.79 97.14h116.18c2.18 0 3.95-1.77 3.95-3.95v-9.42c0-2.18-1.77-3.95-3.95-3.95H53.93" class="cls-2"/><path d="M58.5 82.82H12.25M172.97 82.82H53.93M58.5 85.62H12.25M172.97 85.62H53.93M58.5 88.41H12.25M172.97 88.41H53.93M58.5 91.2H12.25M172.97 91.2H53.93M58.5 93.99H12.25M172.97 93.99H53.93" class="cls-1"/><path d="M59.85 77.9c.43 1.59-.51 3.24-2.11 3.67-1.1.3-2.22-.06-2.95-.84l-2.9 1.33a75.968 75.968 0 0 1-24.29 6.56l-3.12.3a3.02 3.02 0 0 1-2.13 2.2c-1.6.43-3.24-.52-3.67-2.11-.29-1.06.03-2.14.75-2.87a66.198 66.198 0 0 1-5.92-21.94c-.98-.26-1.8-1.04-2.09-2.1a2.994 2.994 0 0 1 5.06-2.84l2.81-1.29a76.244 76.244 0 0 1 24.29-6.57l3.01-.29a2.986 2.986 0 0 1 2.12-2.17c1.6-.43 3.24.52 3.67 2.11.27 1.01 0 2.03-.65 2.76 1.63 3.48 2.94 7.08 3.94 10.78.99 3.66 1.66 7.4 2.01 11.19 1.03.24 1.89 1.03 2.18 2.13Z" style="fill:#fff;stroke-width:2px;stroke:#000;stroke-linecap:round;stroke-linejoin:round"/><path d="M22.23 77.66c-1.38-3.66-2.22-7.5-2.49-11.43M51.38 70.51c.28 2.28-.48 4.39-2.27 6.26" class="cls-4"/><path d="M42.04 34.24h4.52l-4.52 5.44h4.52M37.19 40.19h3.52l-3.52 4.25h3.52M33.27 44.82h2.3l-2.3 2.76h2.3" class="cls-1"/><rect width="29.47" height="29.47" x="144.32" y="14.77" rx="4.14" ry="4.14" style="fill:#bbfedb"/><path d="M173.79 27.17V40.1c0 2.28-1.86 4.14-4.14 4.14h-21.2c-2.28 0-4.14-1.86-4.14-4.14V18.9c0-2.28 1.86-4.14 4.14-4.14h21.2" class="cls-4"/><path d="m148.4 23.47 10.66 15.29 17.99-23.99" style="stroke-width:3px;fill:none;stroke:#000;stroke-linecap:round;stroke-linejoin:round"/><circle cx="98.78" cy="52.85" r="25.81" style="fill:#bfe6fc"/><path d="M98.78 6.54v33.82" class="cls-1"/><path d="m93.8 38.9 4.98 8.64 4.99-8.64H93.8z"/></svg>