<svg xmlns="http://www.w3.org/2000/svg" id="Calque_1" data-name="Calque 1" viewBox="0 0 128 128"><defs><style>.cls-4,.cls-5{stroke:#000;stroke-miterlimit:10}.cls-5{stroke-width:2px}.cls-4{fill:#fff}.cls-5{fill:none}</style></defs><circle cx="53.77" cy="39.64" r="28.13" style="stroke-width:2px;stroke:#000;stroke-miterlimit:10;fill:#ff6d75"/><circle cx="53.77" cy="39.64" r="22.84" class="cls-5"/><circle cx="53.87" cy="33.22" r="2.17" class="cls-4" transform="rotate(-52.66 53.868 33.224)"/><circle cx="53.87" cy="47.5" r="2.17" class="cls-4" transform="rotate(-52.66 53.861 47.496)"/><circle cx="47.2" cy="40.36" r="2.17" class="cls-4" transform="rotate(-52.66 47.192 40.36)"/><circle cx="60.54" cy="40.36" r="2.17" class="cls-4" transform="rotate(-52.66 60.537 40.36)"/><circle cx="92.67" cy="83.64" r="20.66" style="fill:#87ccf3;stroke-width:2px;stroke:#000;stroke-miterlimit:10"/><circle cx="92.67" cy="83.64" r="16.78" class="cls-5"/><circle cx="92.74" cy="78.93" r="1.59" class="cls-4" transform="rotate(-52.66 92.734 78.922)"/><circle cx="92.74" cy="89.42" r="1.59" class="cls-4" transform="rotate(-52.66 92.736 89.413)"/><circle cx="87.84" cy="84.17" r="1.59" class="cls-4" transform="rotate(-52.66 87.835 84.17)"/><circle cx="97.64" cy="84.17" r="1.59" class="cls-4" transform="rotate(-52.66 97.635 84.165)"/><circle cx="43.25" cy="97.21" r="18.28" style="fill:#ffbeed;stroke-width:2px;stroke:#000;stroke-miterlimit:10" transform="rotate(-57.89 43.243 97.196)"/><circle cx="43.25" cy="97.21" r="14.84" class="cls-5" transform="rotate(-57.89 43.243 97.196)"/><circle cx="40.59" cy="93.99" r="1.41" class="cls-4" transform="rotate(-9.6 40.616 94.015)"/><circle cx="46.61" cy="101.05" r="1.41" class="cls-4" transform="rotate(-9.6 46.62 101.055)"/><circle cx="40.3" cy="100.33" r="1.41" class="cls-4" transform="rotate(-9.6 40.324 100.347)"/><circle cx="46.9" cy="94.71" r="1.41" class="cls-4" transform="rotate(-9.6 46.912 94.724)"/><path d="M-3692.03-979.45h6467.34v6437.3h-6467.34z" style="stroke:#fff;stroke-linecap:round;stroke-linejoin:round;stroke-width:8px;fill:none"/></svg>