<svg xmlns="http://www.w3.org/2000/svg" id="Calque_1" viewBox="0 0 128 128"><defs><style>.cls-2,.cls-3{fill:#fff}.cls-3{stroke-linecap:round;stroke-linejoin:round;stroke-width:2px;stroke:#000}.cls-8{stroke:#000;fill:none;stroke-miterlimit:10}</style></defs><path d="M110.49 43.24a8.467 8.467 0 0 1 2.25 5.75v64.13c0 5.49-7.04 7.94-15.73 7.94s-15.72-2.45-15.72-7.94V48.99c0-2.13.81-4.19 2.26-5.76l.86-.93a8.483 8.483 0 0 0 2.26-5.76v-4.83h20.71v4.84c0 2.13.81 4.18 2.26 5.74l.86.94Z" style="fill:#bfe6fc;stroke:#000;stroke-linecap:round;stroke-linejoin:round;stroke-width:2px"/><path d="M103.75 20.22v4.56H90.29v-4.56c0-.46.12-.88.34-1.25.76-1.27 2.49-2.58 2.85-4.01.33-1.31.49-2.65.49-4 0-.51-.02-1.02-.07-1.54-.02-.22-.05-.44-.07-.66 0-1.72 1.43-3.12 3.19-3.12s3.19 1.4 3.19 3.12c-.03.22-.05.44-.07.66-.18 2.05 0 4.1.57 6.07.35 1.25 2.04 2.36 2.7 3.48.22.36.34.79.34 1.24Z" style="stroke:#000;stroke-linecap:round;stroke-linejoin:round;stroke-width:2px;fill:#a07637"/><path d="m109.51 27.64-2.37-.19c-6.67-.54-13.36-.54-20.03-.01l-2.57.2v6.43l2.51-.2c6.67-.53 13.36-.53 20.03 0l2.44.2v-6.43Z" class="cls-3"/><path d="M108.23 27.54h-.01c-7.42-.67-14.88-.67-22.29-.01h-.11v-3.54h.13c7.42-.67 14.88-.67 22.29 0h0v3.55Z" class="cls-3"/><path d="M86.14 52.97h5.66M86.14 61.93h5.66M86.14 70.89h5.66M86.14 79.86h5.66M86.14 88.82h5.66M86.14 97.78h5.66M86.14 106.74h5.66" class="cls-8"/><path d="M100.16 43.08h4.64c.72 0 1.62 3 1.79 3.55.48 1.54.56 3.05.62 4.65 0 .22.24 3.25.08 3.25h-4.18c.11 0-.32-6.06-.4-6.54-.17-1-.46-2.01-.95-2.9-.25-.46-.98-2-1.6-2Z" class="cls-2"/><path d="M44.14 40.22c0-.41.2-.77.45-.77s.45.35.45.77-.2.78-.45.78-.45-.35-.45-.78Z" style="fill:#f3d587"/><path d="M44.14 40.22c0-.41.2-.77.45-.77s.45.35.45.77-.2.78-.45.78-.45-.35-.45-.78Z" class="cls-2"/><path d="M42.53 57.7h4.1c.08 0 .14.06.14.14v52.21c0 .08-.06.14-.14.14h-4.1c-.08 0-.14-.06-.14-.14V57.84c0-.08.06-.14.14-.14Z" style="fill:#d6d6d6"/><path d="M46.27 58.2v51.48h-3.38V58.2h3.38m.36-1h-4.1c-.35 0-.64.29-.64.64v52.21c0 .35.29.64.64.64h4.1c.35 0 .64-.29.64-.64V57.84c0-.35-.29-.64-.64-.64Z"/><path d="M44.58 61.43c-1.85 0-3.36-1.51-3.36-3.36V5.68l6.7-.02.02 52.41c0 1.85-1.5 3.36-3.36 3.36Z" style="fill:#8987f3"/><path d="M47.44 6.17v51.91a2.86 2.86 0 1 1-5.72 0V6.17h5.71m.48-1h-6.68c-.29 0-.52.23-.52.52v52.39c0 2.13 1.73 3.86 3.86 3.86s3.86-1.73 3.86-3.86V5.68c0-.29-.23-.52-.52-.52ZM54.55 111.9H34.6v-.9h19.95zM54.55 108.24H34.6v-.9h19.95zM54.55 104.58H34.6v-.9h19.95zM54.55 100.92H34.6v-.9h19.95zM54.55 97.27H34.6v-.9h19.95zM54.55 93.6H34.6v-.9h19.95zM54.55 86.28H34.6v-.9h19.95zM54.55 89.94H34.6v-.9h19.95zM54.55 82.62H34.6v-.9h19.95zM54.55 78.97H34.6v-.9h19.95zM54.55 75.31H34.6v-.9h19.95zM54.55 110.69H34.6v-.9h19.95zM54.55 107.03H34.6v-.9h19.95zM54.55 103.37H34.6v-.9h19.95zM54.55 99.71H34.6v-.9h19.95zM54.55 96.05H34.6v-.9h19.95zM54.55 92.4H34.6v-.9h19.95zM54.55 85.07H34.6v-.9h19.95zM54.55 88.73H34.6v-.9h19.95zM54.55 81.41H34.6v-.9h19.95zM54.55 77.76H34.6v-.9h19.95zM54.55 74.1H34.6v-.9h19.95zM54.4 71.75H34.45v-.9H54.4zM54.4 68.1H34.45v-.9H54.4zM54.4 64.44H34.45v-.9H54.4zM54.4 70.54H34.45v-.9H54.4zM54.4 66.88H34.45v-.9H54.4zM54.4 63.23H34.45v-.9H54.4z"/><path d="m47.375 111.055 2.585 6.645-.839.326-2.585-6.645zM46.245 111.491l2.585 6.645-.838.326-2.586-6.644z"/><path d="M45.63 111.57v7.12h-.9v-7.12zM44.42 111.57v7.12h-.9v-7.12zM42.847 111.377l-2.585 6.645-.839-.327 2.585-6.644z"/><path d="m43.981 111.801-2.585 6.645-.839-.326 2.585-6.645z"/></svg>