<svg xmlns="http://www.w3.org/2000/svg" data-name="Calque 1" viewBox="0 0 128 128"><path d="M48.75 46.75 37.07 27.3l10-6.01 1.7 2.82-6.01 3.61c-.37.22-.48.7-.26 1.06.22.37.7.49 1.06.27l6.01-3.61 1.7 2.83-6.01 3.61c-.37.22-.48.7-.26 1.06.22.37.7.49 1.06.27l6.01-3.61 1.7 2.83-6.01 3.61c-.37.22-.48.7-.26 1.06.22.37.7.49 1.06.27l6.01-3.61 1.7 2.83-6.01 3.61c-.37.22-.48.7-.26 1.06.22.37.7.49 1.06.27l6.01-3.61 1.7 2.83-10 6.01Z" style="fill:#eff8f6;stroke:#000;stroke-miterlimit:10"/><path d="M91 119.67 58.86 65.22a26.496 26.496 0 0 0-6.64-7.4l-.49-.39a25.143 25.143 0 0 1-6.27-6.98L34.87 32.88c-.9-1.5-.6-3.39.62-4.54l1.28-.87 1.18-.71 12.12 20.09.45.75c1.78 2.95 4.1 5.51 6.89 7.6a25.06 25.06 0 0 1 6.49 7.16l32.06 54.31-4.97 3Z" style="stroke:#000;stroke-miterlimit:10;fill:#ff6d75"/><path d="M93.86 39.75h-.02" style="fill:none;stroke:#000;stroke-miterlimit:10"/><path d="M61.65 38.37 51.56 20.53s-2.14-2.86 2.2-7.7l.39-.23c-1.19 2.83-.96 6.13.63 8.83l7.67 13c.44.73.56 1.58.36 2.4-.11.44-.33.84-.6 1.19l-.55.37Z" style="fill:#77eddf;stroke:#000;stroke-miterlimit:10"/><path d="M60.74 38.99c-.5.15-1.04.17-1.58.05a3.63 3.63 0 0 1-2.22-1.65l-7.5-12.7c-2.25-3.82-1.02-8.72 2.74-10.93l1.58-.93c-4.34 4.84-2.2 7.7-2.2 7.7l10.09 17.84-.91.62Z" style="fill:#fff;stroke:#000;stroke-miterlimit:10"/><path d="M-4594.09-678.71h6562.35v1176.7h-6562.35z" style="fill:none;stroke:#fff;stroke-linecap:round;stroke-linejoin:round;stroke-width:8px"/></svg>