<svg xmlns="http://www.w3.org/2000/svg" id="Calque_1" data-name="Calque 1" viewBox="0 0 128 128"><defs><style>.cls-1,.cls-3{fill:#d6d6d6;stroke:#000;stroke-miterlimit:10}.cls-3{fill:#baa584}</style></defs><path d="M61.85 74.16c3.65 3.37 17.31-5.48 30.51-19.77 13.2-14.29 20.94-28.62 17.29-31.99-3.65-3.37-17.32 5.48-30.52 19.77S58.19 70.79 61.84 74.16Z" class="cls-3"/><path d="M115.25 28.25c-.52-.05-1 .13-1.36.45l-7.83-.82-9.21-.96c-.64-.07-1.22.4-1.29 1.04-.06.64.4 1.22 1.04 1.28l9.21.96 7.82.82c.28.39.72.67 1.23.72a1.76 1.76 0 0 0 .37-3.5ZM113.84 33.42c-.46-.03-.9.12-1.23.4l-7.21-1.41-8.61-1.68c-.6-.12-1.18.27-1.3.88-.12.6.27 1.18.87 1.3l8.61 1.68 7.21 1.41c.28.51.79.87 1.41.91.96.07 1.8-.66 1.86-1.62.07-.96-.66-1.8-1.62-1.86ZM110.79 37.81c-.4-.01-.77.11-1.07.33l-6.62-1.98-8.01-2.4c-.56-.17-1.15.15-1.31.71-.17.56.15 1.15.71 1.32l8.01 2.4 6.62 1.98c.24.63.84 1.09 1.56 1.12a1.742 1.742 0 0 0 .11-3.48ZM107.09 42.7c-.33 0-.63.1-.89.25l-6.06-2.55-7.41-3.12a1.01 1.01 0 0 0-1.33.54c-.22.52.03 1.11.54 1.33l7.42 3.12 6.05 2.55c.18.77.86 1.34 1.68 1.34.96 0 1.73-.78 1.73-1.74 0-.95-.78-1.73-1.73-1.73ZM103.03 47.86c-.25 0-.48.07-.68.17l-5.52-3.11-8.45-5.09a.988.988 0 0 0-1.35.38c-.27.48-.1 1.08.38 1.35l8.46 5.08 5.53 3.11c.09.9.86 1.59 1.78 1.55.95-.04 1.7-.84 1.66-1.79a1.73 1.73 0 0 0-1.79-1.66ZM98.91 52.78c-.15.01-.3.05-.44.1l-5.02-3.68-10.52-7.66a.975.975 0 0 0-1.36.21.966.966 0 0 0 .21 1.36l10.51 7.66 5.03 3.68v.17a1.725 1.725 0 1 0 1.59-1.85ZM96.67 58.78c-.1-.95-.96-1.63-1.9-1.52-.06 0-.12.02-.17.04l-4.54-4.26-7.65-7.31a.978.978 0 0 0-1.38.04.97.97 0 0 0 .05 1.38l7.65 7.31 4.53 4.26c-.02.15-.03.29-.02.45.1.95.95 1.63 1.9 1.52.95-.11 1.63-.96 1.52-1.91ZM92.15 63.14c-.13-.91-.95-1.54-1.86-1.46l-4.07-4.86-5.02-6a.984.984 0 0 0-1.39-.12c-.42.35-.48.97-.12 1.39l5.02 6 4.07 4.86c-.06.22-.08.46-.04.7.14.94 1.01 1.6 1.96 1.46a1.74 1.74 0 0 0 1.46-1.96ZM87.61 67.79c-.15-.81-.84-1.38-1.62-1.41l-3.61-5.49-4.42-6.72a1.017 1.017 0 1 0-1.7 1.12l4.42 6.72 3.62 5.49c-.11.28-.15.6-.09.92.17.94 1.07 1.56 2.02 1.39.94-.17 1.56-1.08 1.39-2.02ZM82.77 71.66a1.73 1.73 0 0 0-1.39-1.33l-3.16-6.14-3.83-7.44c-.27-.52-.9-.72-1.42-.45-.52.27-.72.9-.46 1.42l3.82 7.44 3.16 6.15c-.16.34-.22.72-.13 1.11.21.94 1.14 1.53 2.07 1.32a1.74 1.74 0 0 0 1.32-2.08ZM77.25 75.11c-.16-.6-.61-1.04-1.16-1.22l-2.7-6.83-3.23-8.16c-.22-.57-.87-.85-1.44-.62-.57.23-.85.87-.62 1.44l3.23 8.16 2.7 6.83a1.747 1.747 0 1 0 3.22.4ZM72.59 77.7c-.15-.5-.5-.88-.94-1.08l-2.24-7.54-2.63-8.88a1.167 1.167 0 1 0-2.24.66l2.63 8.88 2.24 7.54c-.25.41-.34.92-.19 1.42a1.75 1.75 0 0 0 2.19 1.18c.93-.28 1.46-1.26 1.19-2.19Z" class="cls-1"/><path d="M104.83 13.69a8.571 8.571 0 0 1 4.86 14.27s-6.8-2.69-25.43 17.5c-18.64 20.2-16.34 27.76-16.34 27.76-3.21 3.48-8.64 3.7-12.12.49-.19-.18-.37-.37-.54-.56l-34.27 37.13c-2.11 2.29-5.11 2.97-6.69 1.51l90.53-98.1Z" style="fill:#a07637;stroke:#000;stroke-miterlimit:10"/><path d="m15.27 104.99 40.06-43.41 3.57-3.87 38.19-41.39c2.04-2.21 4.97-3.1 7.74-2.64l-90.53 98.1c-1.58-1.46-1.15-4.5.96-6.79Z" class="cls-3"/></svg>