<svg xmlns="http://www.w3.org/2000/svg" id="Calque_1" data-name="Calque 1" viewBox="0 0 128 128"><defs><style>.cls-2,.cls-3,.cls-4,.cls-6,.cls-7{stroke:#000;stroke-miterlimit:10}.cls-2{fill:#fff}.cls-3{fill:#eff8f6}.cls-4{fill:#b2f0e9}.cls-6{fill:#77eddf}.cls-7{fill:none}</style></defs><path d="M116.12 111.66H95.66s-3.54.46-5.64-5.75v-.46c1.87 2.44 4.86 3.89 7.99 3.83l15.06-.28c.85-.02 1.65.29 2.26.88.33.32.57.71.74 1.12l.05.67Z" class="cls-6"/><path d="M116.21 112.77c-.11.51-.35 1-.73 1.41-.64.69-1.57 1.11-2.52 1.13l-14.72.28c-4.42.09-8.1-3.43-8.19-7.83l-.04-1.85c2.1 6.21 5.64 5.75 5.64 5.75h20.46l.1 1.11Z" class="cls-2"/><path d="m93.22 105.81-8.21.21-.28-10.91 4.1-.11 4.11-.1.28 10.91z" class="cls-3"/><path d="m100.92 63.14-.83 33.79-6.23.16h-.01l-4.79.12-11.05.28-2.62-34.35h25.53zM102.2 11.54l-.78 31.61H73.89l-2.35-30.84 1.36-.03 29.3-.74z" class="cls-4"/><path d="m101.42 43.15-.5 19.99H75.39l-1.5-19.99h27.53z" style="fill:#8987f3;stroke:#000;stroke-miterlimit:10"/><path d="m105.45 13.34-36.97.94-1.53-7.9 39.61-1.01-1.11 7.97zM28.78 50.16 17.1 30.71l10-6.01 1.7 2.82-6.01 3.61c-.37.22-.48.7-.26 1.06.22.37.7.49 1.06.27l6.01-3.61 1.7 2.83-6.01 3.61c-.37.22-.48.7-.26 1.06.22.37.7.49 1.06.27l6.01-3.61 1.7 2.83-6.01 3.61c-.37.22-.48.7-.26 1.06.22.37.7.49 1.06.27l6.01-3.61L36.3 40l-6.01 3.61c-.37.22-.48.7-.26 1.06.22.37.7.49 1.06.27l6.01-3.61 1.7 2.83-10 6.01Z" class="cls-3"/><path d="M71.03 123.07 38.89 68.62a26.496 26.496 0 0 0-6.64-7.4l-.49-.39a25.143 25.143 0 0 1-6.27-6.98L14.9 36.28c-.9-1.5-.6-3.39.62-4.54l1.28-.87 1.18-.71L30.1 50.25l.45.75c1.78 2.95 4.1 5.51 6.89 7.6a25.06 25.06 0 0 1 6.49 7.16l32.06 54.31-4.97 3Z" style="stroke:#000;stroke-miterlimit:10;fill:#ff6d75"/><path d="M91.69 49.68c-.12-.67-.65-1.16-1.42-1.31-.54-.11-1.07-.04-1.65.21-.66.29-1.32.28-2.01-.01-.29-.12-.59-.2-.93-.23-.74-.07-1.5.26-1.84.81-.18.29-.27.62-.28 1.05-.01.73.18 1.34.58 1.88.07.1.13.19.19.29l.05.08c.13.22.2.46.19.71 0 .22.06 1.76.14 2.3.08.58.22 1.07.44 1.51.19.38.38.61.65.77.11.04.18.02.23-.02.46-.3.68-1.95.7-3.03 0-.51.41-.93.92-.95h.03c.24 0 .47.1.65.28.18.18.28.42.28.68.02 1.08.25 2.73.71 3.03.05.03.12.06.23.01.37-.2.87-1.31 1-1.91.16-.77.23-1.61.2-2.65v-.05c0-.1-.01-.23.05-.35l.02-.04c.1-.23.21-.46.37-.68.5-.7.67-1.47.5-2.37Z" class="cls-3"/><path d="M73.89 43.15h-.02M90.02 105.91s-.01-.01-.01-.02" class="cls-7"/><path d="M41.68 41.77 31.59 23.93s-2.14-2.86 2.2-7.7l.39-.23c-1.19 2.83-.96 6.13.63 8.83l7.67 13c.44.73.56 1.58.36 2.4-.11.44-.33.84-.6 1.19l-.55.37Z" class="cls-6"/><path d="M40.77 42.39c-.5.15-1.04.17-1.58.05a3.63 3.63 0 0 1-2.22-1.65l-7.5-12.7c-2.25-3.82-1.02-8.72 2.74-10.93l1.58-.93c-4.34 4.84-2.2 7.7-2.2 7.7l10.09 17.84-.91.62Z" class="cls-2"/></svg>