<svg xmlns="http://www.w3.org/2000/svg" id="Calque_1" viewBox="0 0 200 128"><defs><style>.cls-1{fill:#fee4cb}.cls-1,.cls-3,.cls-6,.cls-7{stroke:#000;stroke-linecap:round;stroke-linejoin:round}.cls-6{fill:#fff}.cls-3,.cls-7{fill:none}.cls-6,.cls-7{stroke-width:2px}.cls-8{fill:#bfe6fc}</style></defs><circle cx="169.12" cy="96.59" r="10.82" class="cls-7"/><circle cx="169.12" cy="96.59" r="4.39" class="cls-7"/><circle cx="79.39" cy="96.59" r="10.82" class="cls-7"/><circle cx="79.39" cy="96.59" r="4.39" class="cls-7"/><path d="M47.83 36.91H177.3c4.64 0 8.41 3.77 8.41 8.41v42c0 1.12-.91 2.03-2.03 2.03H41.51V43.23a6.32 6.32 0 0 1 6.32-6.32Z" style="stroke-width:2px;fill:#76ac75;stroke:#000;stroke-linecap:round;stroke-linejoin:round"/><path d="M41.51 89.36h144.2v1.42c0 3.83-3.11 6.93-6.93 6.93H48.45c-3.83 0-6.93-3.11-6.93-6.93v-1.42h0Z" style="fill:#d6d6d6;stroke-width:2px;stroke:#000;stroke-linecap:round;stroke-linejoin:round"/><path d="M123.23 45.6h24.76v43.76h-24.76zM156.98 45.6h28.73v23.38H168.2c-6.19 0-11.22-5.03-11.22-11.22V45.6h0Z" class="cls-6"/><path d="M181.29 75.33h4.43v8.85h-4.43c-2.44 0-4.43-1.98-4.43-4.43h0c0-2.44 1.98-4.43 4.43-4.43ZM41.51 72.64h8.85v5.38h-8.85z" class="cls-1"/><path d="M41.51 78.02h8.85v2.28c0 2.92-2.37 5.28-5.28 5.28h-3.57v-7.56h0Z" style="fill:#fff;stroke:#000;stroke-linecap:round;stroke-linejoin:round"/><rect width="15.87" height="15.87" x="99.36" y="45.6" class="cls-6" rx="2.03" ry="2.03"/><rect width="15.87" height="15.87" x="76.18" y="45.6" class="cls-6" rx="2.03" ry="2.03"/><rect width="15.87" height="15.87" x="52.88" y="45.6" class="cls-6" rx="2.03" ry="2.03"/><path d="M185.71 48.36h4.9c1.4 0 2.53 1.13 2.53 2.53v11.44" class="cls-3"/><path d="M158.24 86.89c-5.98 0-10.83 4.85-10.83 10.82s4.85 10.83 10.83 10.83 10.82-4.85 10.82-10.83-4.85-10.82-10.82-10.82Zm0 15.22c-2.43 0-4.4-1.97-4.4-4.4s1.97-4.39 4.4-4.39 4.39 1.97 4.39 4.39-1.97 4.4-4.39 4.4Z" class="cls-6"/><path d="M162.63 97.71c0 2.43-1.97 4.4-4.39 4.4s-4.4-1.97-4.4-4.4 1.97-4.39 4.4-4.39 4.39 1.97 4.39 4.39Z" class="cls-6"/><path d="M162.63 97.71c0 2.43-1.97 4.4-4.39 4.4s-4.4-1.97-4.4-4.4 1.97-4.39 4.4-4.39 4.39 1.97 4.39 4.39ZM68.51 86.89c-5.98 0-10.83 4.85-10.83 10.82s4.85 10.83 10.83 10.83 10.82-4.85 10.82-10.83-4.85-10.82-10.82-10.82Zm0 15.22c-2.43 0-4.4-1.97-4.4-4.4s1.97-4.39 4.4-4.39 4.39 1.97 4.39 4.39-1.96 4.4-4.39 4.4Z" class="cls-6"/><path d="M72.9 97.71c0 2.43-1.96 4.4-4.39 4.4s-4.4-1.97-4.4-4.4 1.97-4.39 4.4-4.39 4.39 1.97 4.39 4.39Z" class="cls-6"/><path d="M72.9 97.71c0 2.43-1.96 4.4-4.39 4.4s-4.4-1.97-4.4-4.4 1.97-4.39 4.4-4.39 4.39 1.97 4.39 4.39Z" class="cls-6"/><path d="M135.61 45.6v43.76" class="cls-7"/><path d="M131.73 65.79v4.8M139.26 65.79v4.8" class="cls-3"/><path d="M189.43 53.38h3.72v11.18h-3.72z" class="cls-7"/><path d="M55.69 54.52v-6.44h8.42v2.13s-3.03-1-4.77.88c-1.74 1.88-1.74 3.43-1.74 3.43h-1.91ZM78.71 54.52v-6.44h8.42v2.13s-3.03-1-4.77.88c-1.74 1.88-1.74 3.43-1.74 3.43h-1.91ZM101.89 54.52v-6.44h8.42v2.13s-3.03-1-4.77.88c-1.74 1.88-1.74 3.43-1.74 3.43h-1.91ZM159.9 60.29V48.08h15.97v4.05s-5.75-1.9-9.05 1.66c-3.3 3.56-3.3 6.5-3.3 6.5h-3.62Z" class="cls-8"/><path d="M10.61 63.13h15.31M4.78 69.23h15.31M7.15 75.33h15.3" class="cls-3"/></svg>