<svg xmlns="http://www.w3.org/2000/svg" id="Calque_1" viewBox="0 0 128 128"><defs><style>.cls-1,.cls-2,.cls-3{stroke:#000;stroke-linecap:round;stroke-linejoin:round}.cls-1,.cls-3{fill:none}.cls-2{fill:#baa584}.cls-2,.cls-3{stroke-width:2px}</style></defs><path d="m51.46 82.12-.66 1.46-14.28-6.44.66-1.46c1.4-3.1 4.93-4.56 7.84-3.25l3.68 1.66c2.91 1.31 4.16 4.93 2.76 8.03Z" class="cls-2"/><path d="m49.96 73.95-.27.59L44 71.98l.27-.59c.56-1.24 1.97-1.84 3.13-1.31l1.47.66c1.16.52 1.65 1.97 1.09 3.22ZM50.79 83.59h0l-14.28-6.45h0c-4.56 6.19-8.09 13.07-10.41 20.4-2.71 8.57-4.54 15.76-4.45 19.33.03 1.31 1.19 2.3 2.49 2.16l2.18-.24 1.3 1.82a2.24 2.24 0 0 0 3.26.42c2.73-2.29 6.91-8.43 11.54-16.14a69.673 69.673 0 0 0 8.38-21.3Z" class="cls-2"/><path d="m57.19 87.98-7.97 1.64.69-2.39 7.28.75-5.08 9.97 6.04 1.99M51.74 118.22l-7.36-5.88 3.41-10.52-2-3.29-1.17 2.39 3.17.9M60.3 64.14s-3.34 3.19-4.2 5.1c-.86 1.91-.38 9.31-.38 9.31l-3.63 2.17.05-1.96 3.57-.22" class="cls-3"/><path d="M48.87 70.74c3.87-.16 7.77-.35 11.55-1.26 3.36-.81 6.61-2.02 9.75-3.44 2.74-1.24 6.01-1.84 8.98-1.09" class="cls-1"/><path d="M48.87 70.74c.49-.17.99-.35 1.48-.49.23-.07.48.06.55.3s-.06.48-.3.55a.41.41 0 0 1-.22 0c-.51-.1-1.01-.24-1.52-.37ZM53.42 69.49l3.06-.31h.06a1 1 0 1 1 .21 1.99l-3.17.32a1 1 0 1 1-.21-1.99s.05 0 .05 0ZM59.49 68.66c.99-.21 1.97-.52 2.96-.77l.07-.02c.53-.14 1.08.19 1.22.72a.986.986 0 0 1-.72 1.21c-1.04.27-2.05.58-3.11.81h-.01c-.54.12-1.07-.23-1.19-.77-.11-.54.23-1.07.77-1.19ZM65.37 66.93l2.87-1.13.05-.02c.51-.2 1.09.05 1.3.56.2.51-.05 1.09-.56 1.3s-2.96 1.17-2.96 1.17c-.51.2-1.09-.05-1.3-.56-.2-.51.05-1.09.56-1.3l.05-.02ZM71.18 64.56c1.05-.37 2.13-.64 3.24-.8.55-.08 1.05.3 1.13.85.08.55-.3 1.05-.85 1.13-.96.14-1.92.38-2.85.7-.52.18-1.09-.09-1.28-.61-.18-.52.09-1.09.61-1.28ZM77.72 64.26c.5.21.98.45 1.43.68-.53.05-1.04.12-1.52.16h-.05a.437.437 0 1 1 .13-.84ZM57.62 99.88c.15-1.18 1.45-1.8 2.53-1.22 1.02.6 1.3 1.72.7 2.68-.49-.25-.81-.46-1.09-.62-.83-.5-1.07-.61-2.14-.84ZM51.13 118.58c.15-1.18 1.45-1.8 2.53-1.22 1.02.6 1.3 1.72.7 2.68-.49-.25-.81-.46-1.09-.62-.83-.5-1.07-.61-2.14-.84ZM61.75 60.92c1.18.15 1.8 1.44 1.22 2.53-.6 1.02-1.72 1.3-2.68.7.25-.49.46-.81.62-1.09.5-.83.61-1.07.84-2.14Z"/><path d="m28.98 75.27 4.05 7.06 1.33-2.11-5.38-4.95-4.1 10.41-5.49-3.21M9.94 99.38l9.28 1.61 5.62-9.51 3.79-.68-1.02 2.46-2.77-1.78M44.78 57.15s-.18 4.62-1.04 6.53-6.72 6.45-6.72 6.45l.77 4.16 1.43-1.34-2.2-2.82" class="cls-3"/><path d="M47.41 70.08c-2.45-3-4.88-6.05-6.71-9.49-1.62-3.05-2.86-6.29-3.88-9.58-.89-2.87-2.61-5.72-5.13-7.45" class="cls-1"/><path d="M47.41 70.08c-.43-.29-.87-.58-1.28-.89-.2-.15-.23-.43-.09-.62s.43-.23.62-.09c.06.04.11.11.14.17.22.47.41.95.61 1.43ZM43.73 67.05l-1.86-2.59a.994.994 0 0 1 .23-1.39.994.994 0 0 1 1.39.23l.03.05 1.79 2.5.03.04c.32.45.22 1.07-.23 1.39-.45.32-1.07.22-1.4-.23ZM40.19 61.73c-.53-.94-.97-1.91-1.45-2.86-.25-.49-.06-1.09.44-1.34s1.09-.06 1.34.44l.03.07c.46.91.89 1.85 1.38 2.73a1 1 0 0 1-1.74.98ZM37.48 55.93l-1.08-2.99a.998.998 0 0 1 .6-1.28.998.998 0 0 1 1.28.6l.02.05 1.05 2.9.02.05a.998.998 0 0 1-.6 1.28.998.998 0 0 1-1.28-.6ZM35.41 50.02c-.37-.91-.82-1.79-1.36-2.6-.3-.46-.18-1.08.28-1.39.46-.3 1.08-.18 1.39.28.62.93 1.13 1.93 1.55 2.95a.998.998 0 1 1-1.85.75ZM32.59 44.79c-.29-.39-.58-.81-.89-1.24.47.19.97.39 1.46.63.22.1.31.37.21.58s-.37.31-.58.21a.509.509 0 0 1-.16-.13l-.03-.04ZM19.78 82.83c-.88-.65-1.12-.76-2.05-1.05-.3-.1-.67-.2-1.18-.41.32-1.09 1.34-1.62 2.47-1.25 1.15.43 1.55 1.81.76 2.71ZM10.07 100.08c-.88-.65-1.12-.76-2.05-1.05-.3-.1-.67-.2-1.18-.41.32-1.09 1.34-1.62 2.47-1.25 1.15.43 1.55 1.81.76 2.71ZM46.24 53.92c-.65.88-.76 1.12-1.05 2.05-.1.3-.2.67-.41 1.18-1.09-.32-1.62-1.34-1.25-2.47.43-1.15 1.81-1.55 2.71-.76Z"/><path d="m101.01 36.18.38 1.56-15.21 3.74-.38-1.56c-.81-3.3 1.07-6.63 4.17-7.39l3.92-.96c3.1-.76 6.31 1.32 7.12 4.62ZM94.8 30.67l.15.63-6.06 1.49-.15-.63c-.33-1.33.42-2.66 1.65-2.97l1.56-.38c1.24-.3 2.52.53 2.84 1.86ZM101.4 37.75h0l-15.21 3.73h0c.22 7.69 1.69 15.28 4.38 22.48 3.15 8.42 6.14 15.2 8.41 17.96.83 1.01 2.35 1.08 3.29.17l1.57-1.53 2.14.63c1.25.37 2.56-.4 2.83-1.68.74-3.49.24-10.89-.88-19.82a69.613 69.613 0 0 0-6.54-21.93Z" class="cls-2"/><path d="m109.14 37.26-5.26 6.21-.93-2.31 6.19-3.9 2.15 10.98 5.98-2.16M123.5 64.43l-9.42-.1-3.8-10.37-3.6-1.36.55 2.6 3.05-1.24M96.89 16.58s-.66 4.57-.16 6.61 5.44 7.56 5.44 7.56l-1.51 3.95-1.17-1.57 2.68-2.38" class="cls-3"/><path d="M91.96 28.82c2.95-2.51 5.9-5.07 8.32-8.12 2.15-2.71 3.95-5.67 5.55-8.72 1.39-2.67 3.6-5.16 6.39-6.4" class="cls-1"/><path d="M91.96 28.82c.28-.44.56-.88.86-1.3.14-.2.42-.25.62-.11a.448.448 0 0 1-.05.76c-.46.23-.94.44-1.42.65ZM94.78 25.03 97 22.9l.04-.04a.996.996 0 1 1 1.38 1.44l-2.3 2.21a.996.996 0 1 1-1.38-1.44s.04-.04.04-.04ZM99.04 20.63c.65-.77 1.23-1.62 1.86-2.43l.05-.06c.34-.44.96-.52 1.4-.18.44.34.52.96.18 1.4-.65.85-1.25 1.72-1.95 2.55-.35.43-.99.49-1.41.13s-.48-.99-.12-1.41ZM102.59 15.65l1.56-2.66.02-.04c.28-.48.89-.64 1.37-.36.48.28.64.89.36 1.37l-1.61 2.75c-.28.48-.89.64-1.37.36s-.64-.89-.36-1.37l.03-.05ZM105.7 10.19c.6-.94 1.28-1.82 2.06-2.62a.996.996 0 1 1 1.44 1.38c-.68.7-1.28 1.48-1.81 2.31-.3.47-.91.6-1.38.31-.47-.3-.6-.91-.31-1.38ZM110.68 5.93c.52-.14 1.05-.25 1.55-.35-.38.37-.74.73-1.1 1.06l-.04.03c-.18.16-.45.15-.62-.03a.441.441 0 0 1 .21-.72ZM116.82 46.36c-.61-1.02.03-2.31 1.24-2.52 1.17-.16 2.08.55 2.2 1.68-.54.11-.92.14-1.24.19-.96.12-1.22.19-2.2.66ZM123.25 65.09c-.61-1.02.03-2.31 1.24-2.52 1.17-.16 2.08.55 2.2 1.68-.54.11-.92.14-1.24.19-.96.12-1.22.19-2.2.66ZM96.04 13.14c1.02-.61 2.31.03 2.52 1.24.16 1.17-.55 2.08-1.68 2.2-.11-.54-.14-.92-.19-1.24-.12-.96-.19-1.22-.66-2.2Z"/><path d="m79.1 44.65 7.54 3.06-.25-2.48-7.29-.58 3.19 10.73-6.3.85M78.98 75.38l8.3-4.46-1.45-10.95 2.57-2.88.72 2.57-3.29.31M80.36 20.65s2.71 3.74 3.21 5.78-1.31 9.22-1.31 9.22l3.17 2.8.3-1.93-3.48-.86" class="cls-3"/><path d="M90.4 29.2c-3.78-.86-7.57-1.75-11.13-3.34-3.16-1.4-6.13-3.19-8.96-5.15-2.47-1.72-5.58-2.9-8.63-2.7" class="cls-1"/><path d="M90.4 29.2c-.52.03-1.04.08-1.56.09a.44.44 0 0 1-.45-.44c0-.25.19-.45.44-.45.07 0 .15.02.21.05.46.23.91.5 1.36.75ZM85.64 29.08l-3.06-.89c-.53-.15-.83-.71-.68-1.24.15-.53.71-.83 1.24-.68l.06.02 2.95.86h.05c.53.17.83.72.68 1.25-.15.53-.71.83-1.24.68ZM79.57 27.08c-1-.41-1.94-.91-2.91-1.36-.5-.23-.72-.83-.49-1.33.23-.5.83-.72 1.33-.49l.07.03c.92.43 1.84.91 2.77 1.29.51.21.75.79.54 1.3-.21.51-.79.75-1.3.55ZM73.86 24.19l-2.7-1.69a1.003 1.003 0 0 1 1.06-1.7l.04.03 2.61 1.63.04.03a1.003 1.003 0 0 1-1.06 1.7ZM68.59 20.81c-.85-.49-1.75-.9-2.67-1.21-.52-.17-.81-.74-.63-1.26s.74-.81 1.26-.63c1.06.35 2.08.82 3.04 1.37.48.28.64.89.37 1.37-.28.48-.89.64-1.37.37ZM63.14 18.44c-.47-.13-.96-.28-1.47-.43.49-.14 1-.29 1.53-.41.24-.05.47.1.52.33.05.24-.1.47-.33.52-.07.02-.14.01-.21 0h-.05ZM76.52 56.28c-1.09.03-1.35.09-2.26.44-.3.11-.65.26-1.18.41-.42-1.05.06-2.11 1.17-2.51 1.17-.37 2.34.47 2.27 1.66ZM79.51 75.85c-1.09.03-1.35.09-2.26.44-.3.11-.65.26-1.18.41-.42-1.05.06-2.11 1.17-2.51 1.17-.37 2.34.47 2.27 1.66ZM79.51 17.21c.03 1.09.09 1.35.44 2.26.11.3.26.65.41 1.18-1.05.42-2.11-.06-2.51-1.17-.37-1.17.47-2.34 1.66-2.27Z"/></svg>