<svg xmlns="http://www.w3.org/2000/svg" id="Calque_1" data-name="Calque 1" viewBox="0 0 128 128"><defs><style>.cls-5{stroke:#000;stroke-linecap:round;stroke-linejoin:round;fill:none;stroke-width:2px}</style></defs><path d="M72.25 69.29h4.65v49.53h-4.65z" style="fill:#baa584;stroke-linecap:round;stroke-linejoin:round;stroke:#000"/><path d="M72.92 118.82h3.27c.74 0 1.34.6 1.34 1.34v4.55h-5.94v-4.55c0-.74.6-1.34 1.34-1.34Z" style="fill:#d6d6d6;stroke-linecap:round;stroke-linejoin:round;stroke:#000"/><path d="M74.84 58.46c-.75.23-1.53.32-2.3.25-.36-.03-.74-.09-1.05-.17-.91-.25-5.31-.76-6.07.84-.76 1.6.28 2.97.57 3.22s3.87-.86 4.3-.89 1.23-.37 1.75.39c.34.5.23 7.2.23 7.2h4.65v-6.47s.1-1.64 1.3-1.71 2.76-.36 3.49 2.66c.73 3.01 2.73 2.5 3.45 2.1s2.62-2.18-.47-5.42c-3.09-3.24-4.73-3.05-6.04-2.94-.87.07-2.69.6-3.81.94Z" style="stroke-miterlimit:10;fill:#d6d6d6;stroke:#000"/><circle cx="68.25" cy="13.26" r="9.4" class="cls-5"/><path d="m58.96 29.25-1.03.22a4.014 4.014 0 0 0-3.08 4.75l1.82 8.56c-1.61 2.95-2.94 6.57-3.24 11.37-.72 11.44-1.2 14.8-3.74 16.92l9.12 18.87c.32.67.48 1.37.49 2.07v.09l3.03 22.82c.36 2.71-1.57 5.22-4.27 5.57-2.71.36-5.22-1.57-5.57-4.27l-3.02-22.77-8.98-20.36-1.92 21.73c-.08.72-.3 1.4-.66 1.99v.02l-9.48 21.07c-1.12 2.49-4.08 3.61-6.57 2.49-2.48-1.12-3.61-4.08-2.48-6.56l9.43-20.95 2.31-22.08c0-.12.03-.23.05-.35-2.99-3.37-2.52-7.12-2.52-7.12s-.75-16.12 4.08-26.37c4.83-10.24 11.07-16.35 15.06-16.94 4.01-.59 13.09-.1 15.64 8.48.33 1.11.33 2.15.08 3.14-.73-1.74-2.63-2.78-4.53-2.38Z" class="cls-5"/><path d="M82.39 59.95c-.04.92-.36 1.84-.97 2.61-.04.05-.1.12-.15.17a4.696 4.696 0 0 1-6.44.66L60.29 52.42c-.47-.36-.85-.79-1.14-1.27a3.89 3.89 0 0 1-1.13-2.04l-1.36-6.34-1.82-8.55c-.46-2.15.93-4.29 3.08-4.75l1.03-.23c1.9-.39 3.81.65 4.53 2.38.1.22.16.46.22.7l2.76 13L80.6 55.96c1.27.98 1.88 2.48 1.79 3.98Z" style="stroke-width:2px;fill:#fff;stroke-linecap:round;stroke-linejoin:round;stroke:#000"/><path d="M115.15 80.83h-25.1" style="fill:none;stroke-linecap:round;stroke-linejoin:round;stroke:#000"/><path d="m91.51 75.84-8.63 4.99 8.63 4.98v-9.97z"/><path d="M-4614.09-1882.55h6467.34v6437.3h-6467.34z" style="stroke:#fff;stroke-width:8px;fill:none;stroke-linecap:round;stroke-linejoin:round"/></svg>