<svg xmlns="http://www.w3.org/2000/svg" id="Calque_1" data-name="Calque 1" viewBox="0 0 128 128"><defs><style>.cls-2,.cls-3,.cls-4,.cls-5{stroke-miterlimit:10;stroke-width:2px}.cls-2,.cls-5{stroke:#000}.cls-4,.cls-5{fill:none}.cls-11{fill:#111}.cls-2,.cls-3{fill:#fff}.cls-3{stroke:#29abe2}.cls-4{stroke:#662d91}</style></defs><path d="M88.75 108.77 27.3 119.25V17.56L87.28 7.37c2.46-.48 4.74 1.49 4.74 4.1v93.2c0 2.01-1.37 3.73-3.26 4.1Z" class="cls-2"/><path d="m95.05 119.03-67.75.66V18.01l68.85-.5c1.98.29 3.45 2.05 3.45 4.13v93.27c0 2.53-2.15 4.48-4.55 4.13Z" class="cls-2"/><path d="M91.03 49.45h7.5M28.35 49.45h7.81" class="cls-3"/><rect width="45.13" height="16.31" x="41.5" y="93.73" rx="2.53" ry="2.53" style="fill:#f4f4f4"/><path d="M56.57 99.8h.79" class="cls-5"/><path d="M58.42 99.8h23.86" style="fill:none;stroke:#000;stroke-miterlimit:10;stroke-width:2px;stroke-dasharray:0 0 1.66 1.05"/><path d="M82.81 99.8h.79M53.12 105.12h.79" class="cls-5"/><path d="M54.9 105.12h27.41" style="stroke-dasharray:0 0 1.55 .99;fill:none;stroke:#000;stroke-miterlimit:10;stroke-width:2px"/><path d="M82.81 105.12h.79" class="cls-5"/><path d="M44.73 103.43h.28l.87 1.42v-1.42h.23v1.75h-.27l-.89-1.42v1.42h-.23v-1.75ZM47.39 104.04c.11.11.17.27.17.48s-.05.38-.15.51c-.1.13-.25.2-.46.2-.17 0-.31-.06-.42-.18-.1-.12-.15-.28-.15-.48 0-.21.05-.39.16-.51.11-.13.25-.19.44-.19.16 0 .3.05.41.17Zm-.13.85c.05-.11.08-.23.08-.36 0-.12-.02-.22-.06-.29-.06-.12-.16-.18-.31-.18-.13 0-.22.05-.28.15-.06.1-.09.22-.09.36s.03.25.09.34c.06.09.15.14.28.14.14 0 .24-.05.29-.16ZM47.83 103.91h.21v.18c.05-.06.1-.11.14-.14.07-.05.15-.07.24-.07.1 0 .18.03.25.08.04.03.07.07.1.13.05-.07.1-.12.17-.15a.51.51 0 0 1 .22-.05c.17 0 .29.06.35.19.03.07.05.16.05.27v.85h-.22v-.89c0-.08-.02-.14-.06-.18a.254.254 0 0 0-.16-.05.35.35 0 0 0-.22.08c-.06.06-.09.15-.09.28v.74h-.22v-.83c0-.09-.01-.15-.03-.19-.03-.06-.09-.09-.18-.09a.31.31 0 0 0-.22.09c-.07.06-.1.18-.1.34v.68h-.21v-1.28ZM50.65 103.92h.25v.26h-.25v-.26Zm0 1h.25v.26h-.25v-.26ZM44.75 98.11h.78c.16 0 .28.04.38.13.09.09.14.21.14.37 0 .14-.04.26-.13.36s-.21.15-.39.15h-.55v.74h-.24v-1.75Zm.92.24a.414.414 0 0 0-.21-.04h-.47v.61h.47c.11 0 .19-.02.26-.07.07-.04.1-.12.1-.24 0-.13-.05-.22-.14-.26ZM46.34 98.59h.2v.22s.06-.09.12-.16c.07-.06.14-.09.23-.09h.07v.23h-.08c-.11 0-.19.04-.25.1-.06.07-.09.15-.09.24v.74h-.21v-1.28ZM47.94 98.62c.08.04.15.1.19.17.04.06.07.14.09.23.01.06.02.15.02.28h-.93c0 .13.03.23.09.31.06.08.14.12.26.12.11 0 .2-.04.27-.11a.36.36 0 0 0 .08-.15h.21s-.02.1-.06.16-.07.1-.1.14c-.07.06-.15.11-.24.13a.88.88 0 0 1-.17.02c-.16 0-.29-.06-.4-.17-.11-.12-.17-.28-.17-.49s.05-.37.17-.5c.11-.13.25-.19.43-.19.09 0 .18.02.26.06Zm.08.5c0-.09-.03-.17-.06-.22a.324.324 0 0 0-.29-.16c-.1 0-.18.04-.25.11s-.1.16-.11.27h.7Zm-.09-1.05-.32.34h-.16l.22-.34h.26ZM48.5 98.59h.2v.18c.06-.08.12-.13.19-.16s.14-.05.23-.05c.18 0 .3.06.37.19.04.07.05.17.05.3v.82h-.22v-.81c0-.08-.01-.14-.03-.19-.04-.08-.11-.12-.21-.12-.05 0-.09 0-.12.02-.06.02-.11.05-.16.1-.04.04-.06.09-.07.13s-.02.11-.02.19v.67h-.21v-1.28ZM50.79 98.72c.11.11.17.27.17.48s-.05.38-.15.51c-.1.13-.25.2-.46.2-.17 0-.31-.06-.42-.18-.1-.12-.15-.28-.15-.48 0-.21.05-.39.16-.51.11-.13.25-.19.44-.19.16 0 .3.05.41.17Zm-.13.85c.05-.11.08-.23.08-.36 0-.12-.02-.22-.06-.29-.06-.12-.16-.18-.31-.18-.13 0-.22.05-.28.15-.06.1-.09.22-.09.36s.03.25.09.34c.06.09.15.14.28.14.14 0 .24-.05.29-.16ZM51.22 98.59h.21v.18c.05-.06.1-.11.14-.14.07-.05.15-.07.24-.07.1 0 .18.03.25.08.04.03.07.07.1.13.05-.07.1-.12.17-.15a.51.51 0 0 1 .22-.05c.17 0 .29.06.35.19.03.07.05.16.05.27v.85h-.22v-.89c0-.08-.02-.14-.06-.18a.254.254 0 0 0-.16-.05.35.35 0 0 0-.22.08c-.06.06-.09.15-.09.28v.74h-.22v-.83c0-.09-.01-.15-.03-.19-.03-.06-.09-.09-.18-.09a.31.31 0 0 0-.22.09c-.07.06-.1.18-.1.34v.68h-.21v-1.28ZM54.05 98.61h.25v.26h-.25v-.26Zm0 1h.25v.26h-.25v-.26ZM43.29 47.89c.25.24.39.51.41.82h-.47a.987.987 0 0 0-.32-.55c-.16-.14-.38-.2-.66-.2-.35 0-.63.12-.84.37-.21.25-.32.63-.32 1.14 0 .42.1.76.29 1.02.19.26.48.39.86.39.35 0 .62-.14.8-.41.1-.15.17-.34.22-.57h.47c-.04.38-.18.69-.42.95-.28.31-.66.46-1.14.46-.41 0-.76-.13-1.04-.38-.37-.33-.55-.85-.55-1.55 0-.53.14-.96.42-1.3.3-.37.71-.55 1.24-.55.45 0 .8.12 1.04.36ZM45.41 47.63h.55l1.3 3.59h-.53l-.36-1.07h-1.42l-.39 1.07h-.5l1.35-3.59Zm.8 2.12-.54-1.58-.58 1.58h1.12ZM47.76 47.63h1.63c.27 0 .49.04.66.12.33.15.5.44.5.85 0 .21-.04.39-.13.53s-.21.25-.37.33c.14.06.25.13.32.22s.11.24.12.45l.02.48c0 .14.02.24.04.31.03.11.08.19.16.22v.08h-.6s-.03-.07-.04-.12-.02-.14-.03-.28l-.03-.6c-.01-.23-.09-.39-.25-.47-.09-.04-.23-.07-.42-.07h-1.07v1.54h-.49v-3.59Zm1.58 1.64c.22 0 .4-.04.53-.14.13-.09.19-.25.19-.49 0-.25-.09-.43-.27-.52a.878.878 0 0 0-.39-.07h-1.15v1.23h1.09ZM51.31 47.63h.57l1.79 2.9v-2.9h.46v3.59h-.54l-1.82-2.89v2.89h-.46v-3.59ZM54.97 47.63h2.6v.44h-2.13v1.09h1.97v.42h-1.97v1.22h2.17v.43h-2.64v-3.59ZM60.87 47.63v.43h-1.21v3.16h-.49v-3.16h-1.21v-.43h2.91ZM62.64 47.63h1.43c.49 0 .86.17 1.13.52.24.32.36.72.36 1.21 0 .38-.07.72-.21 1.03-.25.54-.68.82-1.28.82h-1.43v-3.59Zm1.34 3.17c.16 0 .29-.02.4-.05.18-.06.33-.19.45-.37.09-.15.16-.33.2-.56.02-.14.04-.26.04-.38 0-.44-.09-.79-.26-1.04s-.45-.37-.83-.37h-.84v2.75h.85ZM66.27 47.63h2.6v.44h-2.13v1.09h1.97v.42h-1.97v1.22h2.17v.43h-2.64v-3.59ZM71.27 50.06c.01.2.06.37.14.5.16.24.43.36.82.36.17 0 .33-.03.48-.08.28-.1.42-.28.42-.54 0-.2-.06-.33-.18-.42-.12-.08-.31-.15-.56-.21l-.47-.11c-.31-.07-.53-.15-.65-.24-.22-.15-.33-.37-.33-.67 0-.32.11-.59.33-.79.22-.21.52-.31.92-.31.37 0 .68.09.93.27s.38.47.38.87h-.46c-.02-.19-.07-.34-.15-.44-.14-.19-.38-.28-.72-.28-.27 0-.47.06-.59.18s-.18.26-.18.42c0 .18.07.3.21.39.09.05.3.12.63.2l.49.12c.24.05.42.13.54.23.22.17.33.41.33.73 0 .4-.14.68-.42.85-.28.17-.61.26-.98.26-.43 0-.78-.11-1.02-.34-.25-.23-.37-.53-.36-.92h.46ZM75.33 47.63h.55l1.3 3.59h-.53l-.36-1.07h-1.42l-.39 1.07h-.5l1.35-3.59Zm.8 2.12-.54-1.58-.58 1.58h1.12ZM77.62 47.63h.57l1.79 2.9v-2.9h.46v3.59h-.54l-1.82-2.89v2.89h-.46v-3.59ZM83.84 47.63v.43h-1.21v3.16h-.49v-3.16h-1.21v-.43h2.91ZM84.33 47.63h2.6v.44H84.8v1.09h1.97v.42H84.8v1.22h2.17v.43h-2.64v-3.59Zm1.88-.99-.65.71h-.34l.45-.71h.54Z" class="cls-11"/><path d="M85.11 44.13H42.25l-6.75 5.32 6.75 5.32h42.86l6.75-5.32-6.75-5.32z" style="stroke:#f67e11;fill:none;stroke-miterlimit:10;stroke-width:2px"/><path d="M44.12 44.14h16.19" class="cls-4"/><path d="M67.7 44.14h11.87" style="stroke:#cfe3f0;fill:none;stroke-miterlimit:10;stroke-width:2px"/><path d="M60.51 54.78h11.87" class="cls-4"/><path d="M42.4 54.78h11.87" style="stroke:#aad83a;fill:none;stroke-miterlimit:10;stroke-width:2px"/></svg>