<svg xmlns="http://www.w3.org/2000/svg" id="Calque_1" data-name="Calque 1" viewBox="0 0 200.13 128.13"><defs><style>.cls-1{fill:#d6d6d6}.cls-1,.cls-10,.cls-2,.cls-5,.cls-6{stroke:#000}.cls-1,.cls-2,.cls-5,.cls-6{stroke-linecap:round;stroke-linejoin:round}.cls-2{fill:#87ccf3}.cls-5{fill:#fff}.cls-10,.cls-6{fill:none}.cls-16{fill:#fbc920}.cls-22{fill:#743a80}.cls-31{fill:#24a4e3}.cls-10{stroke-miterlimit:10;stroke-width:.25px}</style></defs><path d="M71.97 20.37v37.34H8.68V20.37c0-3.03 2.45-5.48 5.48-5.48h52.33c3.03 0 5.48 2.45 5.48 5.48Z" style="fill:#00a3e2"/><path d="M71.97 57.71v30c-7.57-9.17-18.94-14.99-31.64-14.99S16.27 78.55 8.69 87.7V57.71h63.28Z" style="fill:#f15d22"/><path d="M71.97 87.71v21.52c0 3.03-2.46 5.49-5.49 5.49h-52.3c-3.03 0-5.49-2.46-5.49-5.49V87.7c7.58-9.16 18.94-14.98 31.64-14.98s24.07 5.83 31.64 14.99Z" style="fill:#fcf5e1"/><rect width="100.09" height="63.48" x="-9.72" y="32.93" rx="6.45" ry="6.45" style="stroke-miterlimit:10;fill:none;stroke:#000" transform="rotate(90 40.325 64.675)"/><rect width="16.76" height="16.76" x="31.93" y="23.63" rx="6.02" ry="6.02" style="stroke-width:.25px;stroke-miterlimit:10;fill:#f3d587;stroke:#000" transform="rotate(90 40.31 32.01)"/><path d="M31.96 29.18h16.76M48.72 34.85H31.96M40.35 40.39V23.63M44.84 23.99v16.07M35.78 40.06V23.99" class="cls-10"/><path d="M27.64 101.06c-.07 1.85-.88 3.33-2.28 4.51-.84.71-1.84 1.07-2.88 1.34h-2.06c-1.04-.27-2.04-.63-2.88-1.34-1.4-1.18-2.22-2.65-2.28-4.5.18-.02.2.15.28.24.5.56 1.17.54 1.63-.05.07-.09.11-.21.24-.26.18.06.16.23.18.37.31 1.8 1.86 3.2 3.66 3.28a3.94 3.94 0 0 0 3.99-2.92c.05-.17.07-.35.16-.51a.19.19 0 0 1 .11-.07c.14 0 .2.1.29.18.6.55 1.1.52 1.62-.09.06-.07.09-.19.22-.18Z" class="cls-16"/><path d="M35.96 104.79c1.47-.2 2.61-.88 3.32-2.21.35-.65.45-1.34.45-2.07V94.8c0-.34.07-.49.44-.46.48.03.96.02 1.43 0 .24 0 .34.06.34.32-.01 2.14.04 4.29-.03 6.43-.08 2.74-2.17 5.13-4.89 5.72-.1.02-.21 0-.29.1h-.63c-.04-.15.09-.2.17-.28.57-.59.5-1.21-.18-1.65-.07-.04-.18-.06-.14-.19Z" class="cls-31"/><path d="M57.18 106.91c-1.03-.26-2.02-.62-2.85-1.31-1.41-1.17-2.24-2.64-2.32-4.49.16 0 .21.14.3.24.44.5 1.12.48 1.55-.03.09-.11.15-.26.3-.32.19.06.16.23.18.37.43 2.54 3.12 4 5.48 2.93 1.08-.49 1.79-1.35 2.15-2.49.07-.21.08-.44.21-.63.05-.03.13-.06.16-.01.28.32.71.44 1 .74.12.74.05 1.49.05 2.24 0 .08-.01.15-.04.22-1 1.45-2.34 2.34-4.12 2.55h-2.06Z" class="cls-16"/><path d="M34.68 106.91c-.28-.08-.57-.16-.85-.25-2.58-.82-4.33-3.18-4.35-5.86-.01-2.01 0-4.01 0-6.02 0-.32.05-.46.41-.43.46.03.93.03 1.39 0 .32-.02.4.1.4.4-.01 1.92 0 3.83 0 5.75 0 1.48.54 2.69 1.77 3.56.61.44 1.32.61 2.04.73-.02.2-.22.21-.34.3-.19.13-.31.3-.38.51a.8.8 0 0 0 0 .57c.04.32.41.43.46.74h-.54ZM63.24 104.4c.01-.06.03-.12.04-.18.47-.9.89-1.82.99-2.84.02-.15.04-.29.04-.44 0-.27-.01-.53-.05-.79-.02-.17-.06-.35.1-.49.35 0 .71-.04 1.06.02v6.96c-.16.15-.36.13-.55.13h-1.25c-.25 0-.45-.11-.46-.38-.02-.66-.12-1.34.09-1.99Z" class="cls-22"/><path d="M34.67 105.57c.07-.46.46-.6.8-.78h.49c.95.3 1.17 1.48.15 2.12h-.9c-.23-.2-.5-.37-.54-.72-.07-.21-.06-.42 0-.63Z" style="fill:#2c3d80"/><path d="M15.26 100.45c.05-1.85.84-3.37 2.27-4.51 1.95-1.55 4.15-1.87 6.43-.86 2.28 1.01 3.49 2.84 3.71 5.32.01.12 0 .24-.01.36-.14.15-.32.14-.49.14-.51 0-1.03.03-1.54-.02-.05 0-.1-.03-.14-.05-.17-.12-.14-.31-.15-.49-.12-1.53-1.26-2.9-2.76-3.33-1.53-.44-3.24.1-4.17 1.32-.45.58-.75 1.21-.81 1.94-.01.13 0 .27-.16.34-.12-.03-.14-.14-.19-.23-.44-.73-1.21-.77-1.75-.09-.06.07-.08.2-.22.18Z" class="cls-31"/><path d="M51.99 100.4c.01-2.56 2.04-5.02 4.69-5.68 3.46-.87 6.98 1.38 7.62 4.88-.7.08-1 .49-1.01 1.16-.33.21-.75.06-1.07.29-.17-.11-.13-.28-.14-.44-.08-1.59-.84-2.74-2.28-3.39-1.37-.63-2.71-.46-3.93.42-.94.68-1.48 1.6-1.54 2.78 0 .17.04.37-.18.46-.12-.07-.12-.19-.14-.31-.08-.38-.3-.65-.68-.73-.4-.09-.77 0-1.04.33-.08.1-.13.24-.29.24Z" style="fill:#03a881"/><path d="M46.07 101.82c0 1.46-.02 2.91-.01 4.37 0 .34-.09.44-.43.42-.45-.03-.9-.03-1.34 0-.35.02-.46-.08-.46-.44.02-1.84 0-3.69 0-5.53v-5.85c0-.35.08-.48.45-.45.45.03.9.03 1.34 0 .32-.02.45.07.43.42-.02.73 0 1.46 0 2.19.05.06.05.13.02.2-.59.87-1 1.82-1.13 2.87-.03.24-.04.47-.02.71.05.67.51.93 1.09 1.04l.05.05Z" style="fill:#6d5952"/><path d="M46.04 97.11c0-.05.02-.11.03-.16.92-1.05 2-1.85 3.38-2.21 1.58-.41 1.58-.42 1.58 1.17q0 .74-.71.88c-1.83.36-3.12 1.76-3.28 3.62-.06.67-.18 1.24-.95 1.41 0-.01-.02-.03-.03-.04-.14-.16-.12-.36-.12-.55v-3.48c0-.23.04-.44.12-.65Z" style="fill:#ed1f39"/><path d="M33.84 90.49c1.16.43 2.51.78 3.73 1.42.44.23.53.82.33 1.27-.2.45-.68.76-1.16.62-1.23-.35-2.42-.81-3.6-1.3-.45-.18-.63-.75-.5-1.22.12-.46.58-.8 1.21-.8Z" style="fill:#f0491c"/><path d="M51.99 100.4c.53-.85 1.35-.99 1.93-.35.21.24.2.51.22.79.05.06.05.13 0 .19-.18.46-.48.77-1.02.8-.55.03-.88-.27-1.12-.72-.04-.24-.04-.48-.01-.71Z" style="fill:#0d9151"/><path d="M15.26 100.45c.28-.58.62-.81 1.16-.77.5.03.8.31.98.88.12.15.11.31 0 .46-.18.49-.5.8-1.05.81-.55.02-.87-.3-1.09-.76a1.44 1.44 0 0 1 0-.62Z" style="fill:#2c8b52"/><path d="M25.53 100.79c.71-.09 1.42-.01 2.13-.04 0 .1-.01.21-.02.31-.49 1-1.44 1.06-2.08.14-.17-.12-.15-.26-.04-.41Z" style="fill:#2d8b52"/><path d="M63.25 100.75s.01-.09.01-.13q.03-1 1.04-1.03s.05.03.06.07c-.02.46.14.9.06 1.36-.04.02-.08.02-.12 0-.28-.26-.64-.09-.96-.19a.254.254 0 0 1-.1-.08Z" style="fill:#24434e"/><path d="M25.46 101.2c0-.14 0-.29.01-.43.02 0 .04 0 .06.01.01.14.03.27.04.41h-.11Z" style="fill:#fbd75c"/><path d="M64.35 101.03h.07c-.11 1.16-.35 2.28-1.14 3.21 0-.79-.01-1.59-.02-2.38.01-.02.02-.04.03-.05.46-.11.79-.4 1.06-.76Z" style="fill:#763b31"/><path d="M62.21 101.19c0-.06 0-.13.01-.19.07-.27.28-.26.49-.25H63.28c.18.35.19.7 0 1.05l-.02.04c-.49 0-.71-.41-1.05-.65Z" style="fill:#0f9152"/><path d="M34.67 105.57v.63a.525.525 0 0 1 0-.63Z" style="fill:#6a679b"/><path d="M46.04 97.11v4.68c-.63.08-1.2-.31-1.22-.93-.05-1.39.32-2.66 1.22-3.75Z" style="fill:#6d121a"/><path d="M63.28 101.8v-1.05h.78c.2 0 .3.07.28.27-.19.57-.48.78-1.07.78Z" style="fill:#263f37"/><path d="M197.18 75.07H82.16M78.85 76.81h118.33M77.35 81.06h118.32M77.35 82.88h118.32" class="cls-6"/><path d="m83.71 81.06 3.39-5.99h2.54l-3.42 5.99h-2.51zM94.83 81.06l3.39-5.99h2.54l-3.42 5.99h-2.51zM105.95 81.06l3.39-5.99h2.54l-3.42 5.99h-2.51zM117.07 81.06l3.39-5.99H123l-3.42 5.99h-2.51zM128.19 81.06l3.39-5.99h2.54l-3.42 5.99h-2.51zM139.31 81.06l3.4-5.99h2.53l-3.42 5.99h-2.51zM150.43 81.06l3.4-5.99h2.53l-3.42 5.99h-2.51zM161.55 81.06l3.4-5.99h2.53l-3.42 5.99h-2.51zM172.67 81.06l3.4-5.99h2.53l-3.42 5.99h-2.51zM183.79 81.06l3.4-5.99h2.53l-3.42 5.99h-2.51z" class="cls-5"/><path d="M119.5 53.21h59.44v18.51H119.5zM163.5 50.74h11.25v2.47H163.5z" class="cls-1"/><path d="M137.82 51.97h22.35v1.24h-22.35z" style="stroke-linecap:round;stroke-linejoin:round;stroke:#000" transform="rotate(180 148.99 52.59)"/><path d="M143.05 53.21h-5.23v-2.47h5.23zM132.77 50.74h2.52v2.47h-2.52z" class="cls-1"/><path d="M133.46 46.77h1.14v3.97h-1.14z" style="fill:#bfe6fc;stroke-linecap:round;stroke-linejoin:round;stroke:#000"/><path d="M107.15 78.39h79.82v-6.67H97.1v6.67h5.6" class="cls-1"/><path d="M119.36 71.72h-18.33V50.73h18.33z" class="cls-2"/><path d="M115.66 61.23h-4.61V54.3h4.61zM109.46 61.23h-2.3V54.3h2.3zM105.48 61.23h-2.3V54.3h2.3z" class="cls-5"/><path d="M120.31 50.73h-20.25v-4.15h20.25z" class="cls-1"/><path d="M119.5 63.49h65.1v8.24h-65.1z" class="cls-2"/><path d="M119.5 63.49h5.32v8.24h-5.32zM135.29 71.72h-10.46v-8.24h10.46zM145.75 71.72h-10.46v-8.24h10.46z" class="cls-2"/><path d="M156.19 71.72h-10.46v-8.24h10.46z" class="cls-2"/><path d="M97.1 73.84h89.87" class="cls-6"/><path d="M187.54 73.37H189v2.42h-1.46zM191.1 76.42h-2.09v-3.69h2.09zM82.56 53.16h7.56v18.51h-7.56zM82.56 50.68h3.52v2.47h-3.52zM82.56 71.67h11.92v6.66H82.56z" class="cls-1"/><path d="M82.56 63.43h9.56v8.24h-9.56z" class="cls-2"/><path d="M82.56 63.43h2.07v8.24h-2.07z" class="cls-2"/><path d="M94.48 73.79H82.56" class="cls-6"/><path d="M95.05 73.31h1.46v2.42h-1.46zM107.16 78.49c0 1.24-1 2.24-2.24 2.24s-2.23-1-2.23-2.24v-.11h4.46v.11Z" class="cls-1"/><path d="M84.38 78.49c0 1.1-.78 2-1.82 2.2v-2.3h1.81v.11Z" style="fill:#baa584;stroke-linecap:round;stroke-linejoin:round;stroke:#000"/><path d="M125.33 78.49c0 1.24-1 2.24-2.24 2.24s-2.23-1-2.23-2.24v-.11h4.46v.11ZM143.49 78.49c0 1.24-1 2.24-2.24 2.24s-2.23-1-2.23-2.24v-.11h4.46v.11ZM161.66 78.49c0 1.24-1 2.24-2.24 2.24s-2.23-1-2.23-2.24v-.11h4.46v.11ZM179.82 78.49c0 1.24-1 2.24-2.24 2.24s-2.23-1-2.23-2.24v-.11h4.46v.11Z" class="cls-1"/><path d="M166.65 71.72h-10.46v-8.24h10.46zM177.12 71.72h-10.46v-8.24h10.46z" class="cls-2"/><path d="M120.1 55.87h58.25v3.08H120.1z" style="fill:#fff"/></svg>