<svg xmlns="http://www.w3.org/2000/svg" id="Calque_1" data-name="Calque 1" viewBox="0 0 128 128"><defs><style>.cls-2{fill:#fff}.cls-5{stroke:#000;stroke-width:.11px;fill:none;stroke-miterlimit:10}</style></defs><path d="M18.98 95.87a3.86 3.86 0 0 1-3.86-3.85V38.59c0-2.13 1.73-3.86 3.86-3.86h88.55c1.97 0 3.61 1.47 3.83 3.42.02.18.03.3.03.44v53.43a3.86 3.86 0 0 1-3.86 3.85H18.98Z" style="fill:#d86f74"/><path d="M107.53 35.73c1.47 0 2.68 1.11 2.84 2.53 0 .11.02.21.02.33v53.43c0 1.57-1.28 2.85-2.86 2.85H18.98c-1.58 0-2.86-1.28-2.86-2.85V38.59a2.86 2.86 0 0 1 2.86-2.86h88.55m0-2H18.98c-2.68 0-4.86 2.18-4.86 4.86v53.43c0 2.67 2.18 4.85 4.86 4.85h88.55c2.68 0 4.86-2.18 4.86-4.85V38.59c0-.17-.01-.32-.03-.48v-.08a4.86 4.86 0 0 0-4.83-4.31Z"/><path d="M110.39 38.59v53.43a2.86 2.86 0 0 1-2.86 2.86H62.9c1.07-3.26 2.43-6.92 4.17-10.78.04-.08.07-.16.11-.24C70 77.62 73.8 70.88 78.85 64.49c12.38-15.65 25.95-23.47 31.52-26.23.01.11.02.22.02.33Z" style="fill:#964f51"/><circle cx="91.12" cy="47.54" r="8.92" style="stroke:#fff;stroke-width:.22px;fill:none;stroke-miterlimit:10"/><path d="M61.51 35.73h-.22c.04.36.07.73.07 1.11 0 4.86-3.95 8.81-8.81 8.81s-8.81-3.95-8.81-8.81c0-.37.02-.74.07-1.11h-.22c-.05.36-.07.73-.07 1.11 0 4.98 4.05 9.03 9.03 9.03s9.03-4.05 9.03-9.03c0-.37-.02-.74-.07-1.11ZM68.37 83.78c-.4 0-.8.03-1.19.08-4.42.58-7.84 4.37-7.84 8.95 0 .69.08 1.38.23 2.04v.03h.24s-.01-.05-.02-.08a8.87 8.87 0 0 1-.23-1.99c0-4.41 3.26-8.08 7.5-8.71.43-.06.86-.1 1.3-.1 4.86 0 8.81 3.95 8.81 8.81 0 .71-.08 1.4-.25 2.07h.23c.16-.66.24-1.36.24-2.07 0-4.98-4.05-9.03-9.03-9.03Z" class="cls-2"/><path d="M48.53 37.51h8.25v1.78h-2.9v4.02h-2.67v-4.02h-2.68v-1.78zM88.77 46.05c-.08-.12-.18-.23-.3-.31.04-.03.07-.06.1-.1.18-.21.27-.49.27-.83s-.09-.61-.26-.84c-.28-.38-.75-.58-1.39-.59h-2.48v5.1h2.33c.25 0 .49-.02.71-.07.23-.05.44-.14.62-.27a1.604 1.604 0 0 0 .63-1.29c0-.32-.07-.58-.22-.8Zm-1.4 1.11c-.06.03-.17.06-.38.06h-.92v-.79h.94c.21 0 .32.03.38.06.09.04.17.1.17.3 0 .26-.1.34-.19.38Zm-1.3-2.53h.8c.2 0 .36.02.47.06.06.02.12.06.12.22s-.06.2-.08.22c-.09.06-.22.08-.38.08h-.92v-.58ZM93.54 43.38v3.08c0 .54-.08.95-.26 1.26-.33.58-.95.87-1.83.87s-1.5-.29-1.83-.87c-.18-.31-.26-.73-.26-1.26v-3.08h1.43v3.08c0 .35.05.52.09.6.06.12.17.27.57.27s.51-.15.56-.26c.04-.09.09-.26.09-.61v-3.08h1.43ZM98.06 46.9c0 .49-.19.9-.56 1.23-.37.32-.88.48-1.53.48s-1.18-.16-1.57-.46c-.4-.32-.6-.76-.6-1.32v-.22h1.35l.02.19c.03.21.08.32.13.37.11.14.33.21.64.21.2 0 .37-.02.49-.06.23-.08.26-.21.26-.33 0-.08-.03-.12-.1-.17-.08-.05-.24-.12-.56-.19l-.49-.11c-.52-.12-.87-.24-1.08-.39-.37-.26-.57-.66-.57-1.19 0-.48.18-.89.53-1.2.34-.31.84-.47 1.48-.47.54 0 1.01.14 1.39.43.4.3.61.74.63 1.3v.23h-1.37v-.21c-.02-.2-.1-.33-.26-.41-.12-.06-.27-.09-.46-.09-.2 0-.36.04-.47.11-.09.06-.12.13-.12.24 0 .08.03.14.1.18.04.02.16.08.55.17l.8.19c.39.09.67.22.88.38.33.26.5.64.5 1.13ZM46.48 56.18l.23-1.08h4.94l-.23 1.08H49.6l-1.06 5.02h-1.28l1.06-5.02h-1.83ZM54.51 60.19c.1-.07.19-.18.29-.31H56c-.09.27-.29.54-.59.81-.48.44-1.07.66-1.76.66-.57 0-1.04-.18-1.4-.55-.36-.37-.45-.97-.28-1.8.17-.78.49-1.38.97-1.8.48-.42 1.04-.62 1.67-.62.37 0 .7.07.97.21.27.14.47.36.6.67.12.27.17.58.14.93-.01.21-.06.5-.15.89h-3.09c-.08.45 0 .77.22.95.14.11.32.17.55.17.24 0 .46-.07.64-.21Zm-.1-2.64c-.27 0-.5.09-.69.26-.19.17-.33.4-.43.7h1.83c.05-.31 0-.55-.13-.71-.14-.16-.33-.24-.58-.24Zm.75-2.7h1.32l-1.52 1.24h-.85l1.06-1.24ZM60.44 59.57h1.2c-.1.36-.3.7-.6 1.02-.48.52-1.08.77-1.81.77s-1.21-.22-1.46-.65c-.25-.43-.3-.99-.16-1.68.16-.77.48-1.38.95-1.81a2.44 2.44 0 0 1 1.7-.65c.57 0 1 .13 1.31.38.31.25.42.7.35 1.34h-1.21a.992.992 0 0 0-.07-.46c-.09-.18-.28-.27-.56-.27-.4 0-.71.2-.94.59-.12.21-.22.49-.29.84-.07.33-.09.6-.05.8.06.38.29.56.67.56.28 0 .49-.07.64-.22.15-.15.26-.34.33-.58ZM65.63 60.19c.1-.07.19-.18.29-.31h1.2c-.09.27-.29.54-.59.81-.48.44-1.07.66-1.76.66-.57 0-1.04-.18-1.4-.55-.36-.37-.45-.97-.28-1.8.17-.78.49-1.38.97-1.8.48-.42 1.04-.62 1.67-.62.37 0 .7.07.97.21.27.14.47.36.6.67.12.27.17.58.14.93-.01.21-.06.5-.15.89H64.2c-.08.45 0 .77.22.95.14.11.32.17.55.17.24 0 .46-.07.64-.21Zm-.1-2.64c-.27 0-.5.09-.69.26-.19.17-.33.4-.43.7h1.83c.05-.31 0-.55-.13-.71-.14-.16-.33-.24-.58-.24Zm.75-2.7h1.32l-1.52 1.24h-.85l1.06-1.24ZM68.56 61.2l1.29-6.1h1.18l-1.29 6.1h-1.18ZM72.88 61.4l-.65-4.71h1.31l.28 3.33 1.64-3.33h1.25l-2.49 4.43c-.48.85-.83 1.39-1.04 1.59-.22.21-.59.31-1.11.31h-.25c-.06 0-.16 0-.28-.01l.2-.94h.15c.11.01.22 0 .33 0 .11-.01.2-.05.29-.1.08-.05.17-.14.26-.29s.13-.24.13-.27Z" class="cls-2"/><rect width="14.67" height="13.11" x="25.34" y="53.8" rx="2.57" ry="2.57" style="fill:#e4c877"/><path d="M25.34 56.45s.5.3 3.72-.32 4.98-.46 6.99 0 3.89.54 3.89.54M25.34 64.42s.5-.3 3.72.32c3.22.63 4.98.46 6.99 0s3.89-.54 3.89-.54" class="cls-5"/><path d="M30.4 53.94s-.42 4.1-.42 6.49.25 6.49.25 6.49M34.9 53.94s.42 4.1.42 6.49-.25 6.49-.25 6.49" class="cls-5"/><path d="M30.06 59.05s-1.3-.08-4.77.13M35.3 59.05s1.3-.08 4.77.13M35.3 61.75s1.3.08 4.77-.13M30.06 61.75s-1.3.08-4.77-.13" class="cls-5"/><path d="M29.46 86.34h-8.94l-.77 1.23h1.94l-1.88 3.72h1.68l1.9-3.7h3.85l-1.32 2.56h-1.87l.51-1.01 1.36-.02.67-1.19h-3.01l-1.72 3.37h6.95l.69-1.17h-2.03l1.99-3.79zM68.43 92l2.67-2.18v3.89h2.45v-6.12h-2.14L68.4 89.8l-3.04-2.2h-2.14v6.12h2.45v-3.89L68.43 92z" class="cls-2"/></svg>