<svg xmlns="http://www.w3.org/2000/svg" id="Calque_1" data-name="Calque 1" viewBox="0 0 128 128"><defs><style>.cls-2{fill:#bfe6fc}.cls-4,.cls-5{stroke-linecap:round;stroke-linejoin:round;stroke-width:2px}.cls-4,.cls-5,.cls-6{stroke:#000}.cls-4,.cls-6{fill:#fff}.cls-5{fill:none}.cls-6{stroke-miterlimit:10}</style></defs><rect width="108.76" height="68.67" x="9.49" y="30.35" rx="5.67" ry="5.67" style="fill:#87ccf3"/><rect width="108.76" height="68.67" x="9.49" y="30.35" class="cls-5" rx="5.67" ry="5.67"/><path d="M89.01 31.31 49.8 97.92h8.4l38.13-66.61h-7.32zM98.46 31.31 59.24 97.92h8.41l38.13-66.61h-7.32z" class="cls-2"/><rect width="14.64" height="14.64" x="16.54" y="57.08" rx="2.83" ry="2.83" style="fill:#f3d587"/><rect width="14.64" height="14.64" x="16.54" y="57.08" class="cls-5" rx="2.83" ry="2.83"/><path d="M16.59 87.46H83v2.55H16.59z"/><path d="M35.98 66.9h21.81v5.11H35.98zM16.18 38.52h36.57v9.53H16.18z" class="cls-4"/><text style="font-family:MyriadPro-Regular,&quot;Myriad Pro&quot;;font-size:10.14px" transform="translate(34.97 63.59)"><tspan x="0" y="0">0000 000 000 00</tspan></text><path d="M90.17 35.24h21.43v13.61H90.17z" style="fill:#8987f3;stroke-miterlimit:10;stroke:#000"/><path d="M97.16 42.44h3.9a4.183 4.183 0 0 1-8.35-.36c0-2.32 1.87-4.19 4.18-4.19s4.19 1.87 4.19 4.19h-3.92v.35ZM102.72 38.58h5.19c.94 0 1.7.76 1.7 1.7 0 .97-.79 1.76-1.76 1.76h-5.13v-3.46ZM102.72 42.44h5.19c.94 0 1.7.76 1.7 1.7 0 .97-.79 1.76-1.76 1.76h-5.13v-3.46Z" class="cls-6"/></svg>