<svg xmlns="http://www.w3.org/2000/svg" id="Calque_1" data-name="Calque 1" viewBox="0 0 128 128"><defs><style>.cls-2,.cls-5,.cls-6,.cls-7{stroke:#000}.cls-2,.cls-6,.cls-7{fill:none}.cls-2,.cls-5,.cls-7{stroke-linejoin:round}.cls-5,.cls-7{stroke-linecap:round}.cls-11,.cls-5{fill:#fff}.cls-13{fill:#fc0}.cls-2,.cls-5,.cls-7{stroke-width:1.1px}.cls-13,.cls-6{stroke-miterlimit:10}.cls-6{stroke-width:.25px}.cls-13{stroke:#fc0}</style></defs><path d="M124.38 34.43v64.12c0 3.26-2.65 5.9-5.91 5.9H38.41L5.19 31.99a5.901 5.901 0 0 1 5.38-3.46h107.9c3.26 0 5.91 2.64 5.91 5.91Z" style="fill:#018935"/><path d="M38.41 104.46H10.57a5.9 5.9 0 0 1-5.91-5.9V34.43c0-.87.18-1.7.53-2.45l33.22 72.47Z" style="fill:#fc0"/><rect width="119.72" height="75.94" x="4.66" y="28.52" rx="6.45" ry="6.45" style="stroke-miterlimit:10;fill:none;stroke:#000"/><rect width="20.05" height="20.05" x="15.42" y="53.42" rx="7.24" ry="7.24" style="stroke-width:.25px;stroke-miterlimit:10;fill:#f3d587;stroke:#000"/><path d="M22.06 73.42V53.37M28.84 53.37v20.05M35.47 63.4H15.42M15.85 58.02h19.22M35.07 68.86H15.85" class="cls-6"/><path d="m17.76 32.95 4.51 13.38 4.46-13.38h2.39l-5.73 15.72h-2.26l-5.72-15.72h2.35ZM32.68 32.95h1.96v2.18h-1.96v-2.18Zm0 4.31h1.96v11.4h-1.96v-11.4ZM40.13 34.01h1.95v3.2h1.83v1.57h-1.83v7.48c0 .4.14.67.41.8.15.08.4.12.75.12h.3c.11 0 .23-.01.37-.03v1.52c-.22.06-.45.11-.69.14-.24.03-.5.04-.78.04-.9 0-1.51-.23-1.83-.69-.32-.46-.48-1.06-.48-1.79v-7.59h-1.55v-1.57h1.55v-3.2ZM54.16 41.73c.44-.06.74-.24.89-.56.09-.17.13-.42.13-.74 0-.66-.23-1.13-.7-1.43-.47-.3-1.14-.44-2.01-.44-1.01 0-1.72.27-2.14.81-.24.3-.39.75-.46 1.34h-1.8c.04-1.41.49-2.39 1.37-2.95.88-.55 1.9-.83 3.07-.83 1.35 0 2.44.26 3.28.77.83.51 1.25 1.31 1.25 2.4v6.6c0 .2.04.36.12.48.08.12.25.18.52.18.09 0 .18 0 .29-.02s.22-.03.34-.05v1.42c-.3.09-.53.14-.68.16-.16.02-.37.03-.64.03-.66 0-1.14-.24-1.44-.71-.16-.25-.27-.6-.33-1.06-.39.51-.96.96-1.69 1.34s-1.54.57-2.43.57c-1.06 0-1.93-.32-2.6-.97-.67-.65-1.01-1.45-1.01-2.42 0-1.06.33-1.89 1-2.47.66-.59 1.53-.95 2.61-1.08l3.07-.39Zm-4.05 5.21c.41.32.89.48 1.44.48.68 0 1.33-.16 1.97-.47 1.07-.52 1.6-1.37 1.6-2.56v-1.55c-.24.15-.54.27-.91.37-.37.1-.73.17-1.09.21l-1.17.15c-.7.09-1.22.24-1.57.44-.59.34-.89.87-.89 1.6 0 .56.2 1 .61 1.32ZM62.45 32.95h1.93v15.72h-1.93V32.95ZM76.59 37.53c.76.38 1.34.88 1.74 1.48.39.58.64 1.25.77 2.02.11.53.17 1.37.17 2.52h-8.4c.04 1.16.31 2.1.82 2.8.51.7 1.31 1.05 2.39 1.05 1.01 0 1.81-.33 2.41-1 .34-.39.58-.83.73-1.34h1.89c-.05.42-.22.89-.5 1.41s-.6.94-.95 1.27c-.59.57-1.31.96-2.17 1.16-.46.11-.99.17-1.57.17-1.43 0-2.64-.52-3.63-1.56-.99-1.04-1.49-2.49-1.49-4.36s.5-3.33 1.5-4.48c1-1.15 2.3-1.72 3.92-1.72.81 0 1.6.19 2.36.57Zm.71 4.5c-.08-.83-.26-1.5-.55-2-.53-.93-1.41-1.39-2.64-1.39-.88 0-1.63.32-2.23.96-.6.64-.92 1.45-.95 2.43h6.37Z" class="cls-13"/><path d="M39.88 51.87c.15.11.24.31.27.59h-.34c-.02-.13-.07-.24-.14-.32s-.19-.13-.36-.13c-.22 0-.38.11-.48.33-.06.14-.09.32-.09.52s.04.38.13.53.23.21.42.21c.15 0 .26-.04.35-.13s.14-.21.18-.36h.34c-.04.28-.14.48-.29.61s-.35.19-.6.19c-.27 0-.49-.1-.65-.3s-.24-.45-.24-.75c0-.37.09-.65.27-.85s.4-.31.68-.31c.23 0 .43.06.57.17ZM41.61 52.58c.08-.01.13-.04.16-.1.02-.03.02-.08.02-.13 0-.12-.04-.21-.13-.26s-.21-.08-.36-.08c-.18 0-.31.05-.39.15-.04.05-.07.14-.08.24h-.33c0-.26.09-.44.25-.54s.35-.15.56-.15c.25 0 .44.05.6.14.15.09.23.24.23.44v1.2s0 .07.02.09.05.03.09.03h.11v.26c-.05.02-.1.03-.12.03h-.12c-.12 0-.21-.04-.26-.13a.473.473 0 0 1-.06-.19c-.07.09-.17.17-.31.24s-.28.1-.44.1c-.19 0-.35-.06-.47-.18s-.18-.26-.18-.44c0-.19.06-.34.18-.45s.28-.17.47-.2l.56-.07Zm-.74.95c.07.06.16.09.26.09.12 0 .24-.03.36-.09.19-.09.29-.25.29-.47v-.28s-.1.05-.17.07-.13.03-.2.04l-.21.03c-.13.02-.22.04-.29.08-.11.06-.16.16-.16.29 0 .1.04.18.11.24ZM42.72 51.76h.33v.36c.03-.07.09-.16.2-.26s.23-.15.37-.15h.11v.37h-.12c-.18 0-.31.06-.41.17s-.14.24-.14.39v1.2h-.35v-2.08ZM44.11 51.17h.35v.58h.33v.29h-.33v1.36c0 .07.02.12.07.15.03.01.07.02.14.02H44.79v.28s-.08.02-.13.03-.09 0-.14 0c-.16 0-.27-.04-.33-.13s-.09-.19-.09-.33v-1.38h-.28v-.29h.28v-.58ZM46.45 51.81c.14.07.24.16.32.27.07.11.12.23.14.37.02.1.03.25.03.46h-1.53c0 .21.06.38.15.51s.24.19.43.19c.18 0 .33-.06.44-.18.06-.07.11-.15.13-.24h.34c0 .08-.04.16-.09.26s-.11.17-.17.23c-.11.1-.24.17-.4.21-.08.02-.18.03-.29.03-.26 0-.48-.09-.66-.28s-.27-.45-.27-.79.09-.61.27-.82.42-.31.71-.31c.15 0 .29.03.43.1Zm.13.82a.855.855 0 0 0-.1-.36c-.1-.17-.26-.25-.48-.25-.16 0-.3.06-.4.17s-.17.26-.17.44h1.16ZM49.62 51.82c.06.04.13.11.21.2v-1.05h.34v2.87h-.32v-.29c-.08.13-.18.22-.29.28a.79.79 0 0 1-.98-.2c-.17-.19-.25-.46-.25-.78 0-.3.08-.57.23-.79s.38-.33.66-.33c.16 0 .29.03.4.1Zm-.79 1.56c.09.15.25.23.46.23.16 0 .3-.07.4-.21s.16-.34.16-.6-.05-.46-.16-.58-.24-.19-.4-.19c-.18 0-.32.07-.43.2s-.16.33-.16.6c0 .22.05.41.14.56ZM50.76 51.81c.07-.01.13-.05.16-.12s.06-.15.06-.24v-.04h-.21v-.42h.42v.39c0 .17-.03.31-.1.42s-.17.18-.31.2v-.18ZM52.69 52.58c.08-.01.13-.04.16-.1.02-.03.02-.08.02-.13 0-.12-.04-.21-.13-.26s-.21-.08-.36-.08c-.18 0-.31.05-.39.15-.04.05-.07.14-.08.24h-.33c0-.26.09-.44.25-.54s.35-.15.56-.15c.25 0 .44.05.6.14.15.09.23.24.23.44v1.2s0 .07.02.09.05.03.09.03h.11v.26c-.05.02-.1.03-.12.03h-.12c-.12 0-.21-.04-.26-.13a.473.473 0 0 1-.06-.19c-.07.09-.17.17-.31.24s-.28.1-.44.1c-.19 0-.35-.06-.47-.18s-.18-.26-.18-.44c0-.19.06-.34.18-.45s.28-.17.47-.2l.56-.07Zm-.74.95c.07.06.16.09.26.09.12 0 .24-.03.36-.09.19-.09.29-.25.29-.47v-.28s-.1.05-.17.07-.13.03-.2.04l-.21.03c-.13.02-.22.04-.29.08-.11.06-.16.16-.16.29 0 .1.04.18.11.24ZM54 53.19c.01.12.04.21.09.27.09.11.24.17.46.17.13 0 .24-.03.34-.08s.15-.14.15-.26a.21.21 0 0 0-.12-.2 1.43 1.43 0 0 0-.3-.1l-.28-.07c-.18-.04-.31-.09-.39-.15a.445.445 0 0 1-.23-.39c0-.2.07-.36.21-.48s.33-.18.57-.18c.31 0 .54.09.68.28.09.12.13.24.13.38h-.33c0-.08-.03-.15-.08-.22-.08-.09-.22-.14-.42-.14-.13 0-.23.03-.3.08s-.1.12-.1.2c0 .09.04.16.13.22.05.03.13.06.23.09l.23.06c.25.06.42.12.51.18.14.09.2.23.2.42s-.07.35-.21.48-.36.2-.64.2c-.31 0-.53-.07-.66-.21s-.2-.31-.21-.52H54ZM55.99 53.19c.01.12.04.21.09.27.09.11.24.17.46.17.13 0 .24-.03.34-.08s.15-.14.15-.26a.21.21 0 0 0-.12-.2 1.43 1.43 0 0 0-.3-.1l-.28-.07c-.18-.04-.31-.09-.39-.15a.445.445 0 0 1-.23-.39c0-.2.07-.36.21-.48s.33-.18.57-.18c.31 0 .54.09.68.28.09.12.13.24.13.38h-.33c0-.08-.03-.15-.08-.22-.08-.09-.22-.14-.42-.14-.13 0-.23.03-.3.08s-.1.12-.1.2c0 .09.04.16.13.22.05.03.13.06.23.09l.23.06c.25.06.42.12.51.18.14.09.2.23.2.42s-.07.35-.21.48-.36.2-.64.2c-.31 0-.53-.07-.66-.21s-.2-.31-.21-.52h.34ZM58.12 51.76v1.38c0 .11.02.19.05.26.06.12.18.19.35.19a.5.5 0 0 0 .5-.33c.05-.12.07-.28.07-.48v-1.02h.35v2.08h-.33v-.31c-.04.08-.1.15-.17.2-.13.11-.3.16-.49.16-.3 0-.5-.1-.61-.3a.886.886 0 0 1-.09-.43v-1.42h.36ZM60 51.76h.33v.36c.03-.07.09-.16.2-.26s.23-.15.37-.15h.11v.37h-.12c-.18 0-.31.06-.41.17s-.14.24-.14.39v1.2h-.35v-2.08ZM62.43 52.58c.08-.01.13-.04.16-.1.02-.03.02-.08.02-.13 0-.12-.04-.21-.13-.26s-.21-.08-.36-.08c-.18 0-.31.05-.39.15-.04.05-.07.14-.08.24h-.33c0-.26.09-.44.25-.54s.35-.15.56-.15c.25 0 .44.05.6.14.15.09.23.24.23.44v1.2s0 .07.02.09.05.03.09.03h.11v.26c-.05.02-.1.03-.12.03h-.12c-.12 0-.21-.04-.26-.13a.473.473 0 0 1-.06-.19c-.07.09-.17.17-.31.24s-.28.1-.44.1c-.19 0-.35-.06-.47-.18s-.18-.26-.18-.44c0-.19.06-.34.18-.45s.28-.17.47-.2l.56-.07Zm-.74.95c.07.06.16.09.26.09.12 0 .24-.03.36-.09.19-.09.29-.25.29-.47v-.28s-.1.05-.17.07-.13.03-.2.04l-.21.03c-.13.02-.22.04-.29.08-.11.06-.16.16-.16.29 0 .1.04.18.11.24ZM63.53 51.76h.33v.3c.1-.12.2-.21.31-.26s.23-.08.37-.08c.3 0 .5.1.6.31.06.11.09.27.09.48v1.34h-.36v-1.31c0-.13-.02-.23-.06-.31-.06-.13-.18-.19-.34-.19-.08 0-.15 0-.2.03-.1.03-.18.09-.25.17-.06.07-.1.14-.11.21s-.03.18-.03.31v1.09h-.35v-2.08ZM67.13 51.87c.15.11.24.31.27.59h-.34c-.02-.13-.07-.24-.14-.32s-.19-.13-.36-.13c-.22 0-.38.11-.48.33-.06.14-.09.32-.09.52s.04.38.13.53.23.21.42.21c.15 0 .26-.04.35-.13s.14-.21.18-.36h.34c-.04.28-.14.48-.29.61s-.35.19-.6.19c-.27 0-.49-.1-.65-.3s-.24-.45-.24-.75c0-.37.09-.65.27-.85s.4-.31.68-.31c.23 0 .43.06.57.17ZM69.04 51.81c.14.07.24.16.32.27.07.11.12.23.14.37.02.1.03.25.03.46H68c0 .21.06.38.15.51s.24.19.43.19c.18 0 .33-.06.44-.18.06-.07.11-.15.13-.24h.34c0 .08-.04.16-.09.26s-.11.17-.17.23c-.11.1-.24.17-.4.21-.08.02-.18.03-.29.03-.26 0-.48-.09-.66-.28s-.27-.45-.27-.79.09-.61.27-.82.42-.31.71-.31c.15 0 .29.03.43.1Zm.13.82a.855.855 0 0 0-.1-.36c-.1-.17-.26-.25-.48-.25-.16 0-.3.06-.4.17s-.17.26-.17.44h1.16ZM71.07 51.76h.35v.3c.08-.1.16-.18.23-.22a.69.69 0 0 1 .39-.12c.17 0 .3.04.4.12.06.05.11.12.16.21.08-.11.17-.19.27-.25s.22-.08.35-.08c.28 0 .47.1.57.3.05.11.08.26.08.44v1.39h-.36V52.4c0-.14-.03-.23-.1-.29s-.15-.08-.25-.08c-.14 0-.26.05-.36.14s-.15.25-.15.46v1.21h-.36v-1.36c0-.14-.02-.24-.05-.31-.05-.1-.15-.15-.3-.15-.13 0-.25.05-.36.15s-.16.29-.16.56v1.11h-.35v-2.08ZM75.5 52.58c.08-.01.13-.04.16-.1.02-.03.02-.08.02-.13 0-.12-.04-.21-.13-.26s-.21-.08-.36-.08c-.18 0-.31.05-.39.15-.04.05-.07.14-.08.24h-.33c0-.26.09-.44.25-.54s.35-.15.56-.15c.25 0 .44.05.6.14.15.09.23.24.23.44v1.2s0 .07.02.09.05.03.09.03h.11v.26c-.05.02-.1.03-.12.03h-.12c-.12 0-.21-.04-.26-.13a.473.473 0 0 1-.06-.19c-.07.09-.17.17-.31.24s-.28.1-.44.1c-.19 0-.35-.06-.47-.18s-.18-.26-.18-.44c0-.19.06-.34.18-.45s.28-.17.47-.2l.56-.07Zm-.74.95c.07.06.16.09.26.09.12 0 .24-.03.36-.09.19-.09.29-.25.29-.47v-.28s-.1.05-.17.07-.13.03-.2.04l-.21.03c-.13.02-.22.04-.29.08-.11.06-.16.16-.16.29 0 .1.04.18.11.24ZM76.61 50.98h.35v2.86h-.35v-2.86ZM78.6 52.58c.08-.01.13-.04.16-.1.02-.03.02-.08.02-.13 0-.12-.04-.21-.13-.26s-.21-.08-.36-.08c-.18 0-.31.05-.39.15-.04.05-.07.14-.08.24h-.33c0-.26.09-.44.25-.54s.35-.15.56-.15c.25 0 .44.05.6.14.15.09.23.24.23.44v1.2s0 .07.02.09.05.03.09.03h.11v.26c-.05.02-.1.03-.12.03h-.12c-.12 0-.21-.04-.26-.13a.473.473 0 0 1-.06-.19c-.07.09-.17.17-.31.24s-.28.1-.44.1c-.19 0-.35-.06-.47-.18s-.18-.26-.18-.44c0-.19.06-.34.18-.45s.28-.17.47-.2l.56-.07Zm-.74.95c.07.06.16.09.26.09.12 0 .24-.03.36-.09.19-.09.29-.25.29-.47v-.28s-.1.05-.17.07-.13.03-.2.04l-.21.03c-.13.02-.22.04-.29.08-.11.06-.16.16-.16.29 0 .1.04.18.11.24ZM80.85 51.82c.06.04.13.11.21.2v-1.05h.34v2.87h-.32v-.29c-.08.13-.18.22-.29.28a.79.79 0 0 1-.98-.2c-.17-.19-.25-.46-.25-.78 0-.3.08-.57.23-.79s.38-.33.66-.33c.16 0 .29.03.4.1Zm-.79 1.56c.09.15.25.23.46.23.16 0 .3-.07.4-.21s.16-.34.16-.6-.05-.46-.16-.58-.24-.19-.4-.19c-.18 0-.32.07-.43.2s-.16.33-.16.6c0 .22.05.41.14.56ZM81.92 50.98h.36v.4h-.36v-.4Zm0 .78h.36v2.07h-.36v-2.07ZM84.1 51.81c.14.07.24.16.32.27.07.11.12.23.14.37.02.1.03.25.03.46h-1.53c0 .21.06.38.15.51s.24.19.43.19c.18 0 .33-.06.44-.18.06-.07.11-.15.13-.24h.34c0 .08-.04.16-.09.26s-.11.17-.17.23c-.11.1-.24.17-.4.21-.08.02-.18.03-.29.03-.26 0-.48-.09-.66-.28s-.27-.45-.27-.79.09-.61.27-.82.42-.31.71-.31c.15 0 .29.03.43.1Zm.13.82a.855.855 0 0 0-.1-.36c-.1-.17-.26-.25-.48-.25-.16 0-.3.06-.4.17s-.17.26-.17.44h1.16ZM86.89 36.12h24.92v33.47H86.89z" class="cls-11"/><path d="M105.18 42.94s-1.05.63-2.22.84" style="stroke-linecap:round;stroke-linejoin:round;fill:none;stroke:#000"/><path d="M101.01 68.53c-2.79.59-5.21-2.1-5.21-2.1l.33-4.71.04-.53 7.28-1.4.19 1.51.61 5.12c-.04.09-.06.2-.09.28-.02.06-.04.12-.06.17-.01.02-.01.05-.02.07 0 0-1.12 1.17-3.07 1.59Z" class="cls-5"/><path d="M98.78 41.01s0 1.36-.49 2.28h-.01M96.14 43.86c-1.07-.62-1.8-2.2-1.8-2.2M92.75 56.34h-.01c-.13-.03-1.01-.25-1.52-1.65-.56-1.5-1.2-1.33-1.26-2.88-.04-1.47 1.48-.83 1.65-.75" class="cls-7"/><path d="M93.92 44.53c.67.03 1.45-.12 2.22-.67.32.2.67.29 1.03.25.51-.05.86-.4 1.1-.83.01.01.03.02.04.02.15.14 1.08.95 2.22-.16.6.72 1.54.8 2.42.63.53.4 1.24.36 1.24.36.04.06.1.13.13.19 2.15 3.03 2.36 5.09 2.38 5.32.13-.54.23-1.06.3-1.54-.11.91-.29 1.57-.33 1.71h0l-.01.04h.01c.03.86.04 3.09-.31 5.39-.3 1.91-.87 3.89-1.92 5.15-2.43 2.96-4.01 3.02-4.24 3-.24.06-1.9.31-4.77-2.25-1.23-1.09-2.11-2.95-2.69-4.8-.7-2.22-1.03-4.42-1.14-5.28h.01c-.02-.1-.03-.2-.02-.31.03.08.06.13.06.13a9.42 9.42 0 0 1-.02-1.06c.23-1.79 1.86-4.74 2.06-5.25l.24-.04Z" class="cls-5"/><path d="M91.61 51.06s0-.01-.01-.02h0c-.07-.18-.46-1.05-.73-2.24v-.04c-.53-2.38-.55-5.98 3.4-7.58 0 0 .25-1.3 1.92-1.1 0 0 1.94-2.12 4.27-.38 1.62-.46 2.06.79 2.06.79 4.47 1.05 4.76 5.08 4.5 7.49 0 .05-.02.09-.02.12M106.36 55.23h.01c.12-.05.96-.41 1.25-1.87.32-1.57.98-1.5.8-3.04-.19-1.46-1.59-.59-1.74-.48" class="cls-7"/><path d="M101.49 41.83c-.29.54-.58.95-.86 1.23-.03.04-.06.08-.09.09" class="cls-7"/><path d="M99.87 49.65s.52 4.62 1.52 6.95c0 0-.2.47-1.7.18" class="cls-5"/><ellipse cx="96.76" cy="51.87" class="cls-5" rx=".16" ry=".46" transform="rotate(-4.42 96.873 51.878)"/><ellipse cx="103.13" cy="51.26" class="cls-5" rx=".16" ry=".46" transform="rotate(-4.42 103.252 51.346)"/><path d="M111.81 67.07s-5.29-.43-7.56-.64M95.74 66.44s-6.94 1.18-8.84 1.18" class="cls-2"/><path d="m39.52 93.39-1.06-1.66h.65l.77 1.27h.01l.78-1.27h.61l-1.07 1.66 1.12 1.74h-.65l-.82-1.35h-.01l-.81 1.35h-.61l1.1-1.74ZM42.64 93.39l-1.06-1.66h.65L43 93h.01l.78-1.27h.61l-1.07 1.66 1.12 1.74h-.65l-.82-1.35h-.01l-.81 1.35h-.61l1.1-1.74ZM45.76 93.39l-1.06-1.66h.65l.77 1.27h.01l.78-1.27h.61l-1.07 1.66 1.12 1.74h-.65l-.82-1.35h-.01l-.81 1.35h-.61l1.1-1.74ZM48.88 93.39l-1.06-1.66h.65l.77 1.27h.01l.78-1.27h.61l-1.07 1.66 1.12 1.74h-.65l-.82-1.35h-.01l-.81 1.35h-.61l1.1-1.74ZM52 93.39l-1.06-1.66h.65l.77 1.27h.01l.78-1.27h.61l-1.07 1.66 1.12 1.74h-.65l-.82-1.35h-.01l-.81 1.35h-.61l1.1-1.74ZM55.11 93.39l-1.06-1.66h.65l.77 1.27h.01l.78-1.27h.61l-1.07 1.66 1.12 1.74h-.65l-.82-1.35h-.01l-.81 1.35h-.61l1.1-1.74ZM58.23 93.39l-1.06-1.66h.65l.77 1.27h.01l.78-1.27h.61l-1.07 1.66 1.12 1.74h-.65l-.82-1.35h-.01l-.81 1.35h-.61l1.1-1.74ZM61.35 93.39l-1.06-1.66h.65l.77 1.27h.01l.78-1.27h.61l-1.07 1.66 1.12 1.74h-.65l-.82-1.35h-.01l-.81 1.35h-.61l1.1-1.74ZM64.47 93.39l-1.06-1.66h.65l.77 1.27h.01l.78-1.27h.61l-1.07 1.66 1.12 1.74h-.65l-.82-1.35h-.01l-.81 1.35h-.61l1.1-1.74ZM67.59 93.39l-1.06-1.66h.65l.77 1.27h.01l.78-1.27h.61l-1.07 1.66 1.12 1.74h-.65l-.82-1.35h-.01l-.81 1.35h-.61l1.1-1.74ZM70.71 93.39l-1.06-1.66h.65l.77 1.27h.01l.78-1.27h.61l-1.07 1.66 1.12 1.74h-.65l-.82-1.35h-.01l-.81 1.35h-.61l1.1-1.74ZM73.83 93.39l-1.06-1.66h.65l.77 1.27h.01l.78-1.27h.61l-1.07 1.66 1.12 1.74h-.65l-.82-1.35h-.01l-.81 1.35h-.61l1.1-1.74ZM76.95 93.39l-1.06-1.66h.65l.77 1.27h.01l.78-1.27h.61l-1.07 1.66 1.12 1.74h-.65l-.82-1.35h-.01l-.81 1.35h-.61l1.1-1.74ZM39.25 80.03h17.67v2.19H39.25zM39.25 84.04h17.67v2.19H39.25zM41.85 62.32h35.11v2.19H41.85z"/><path d="m13.4 95-4.8 2.11 4.8 2.22" style="stroke:#fff;stroke-miterlimit:10;fill:none"/><path d="m119.52 73.44-1.66 1.06v-.65l1.27-.77-1.27-.79v-.61l1.66 1.07 1.74-1.12v.65l-1.35.82 1.35.83v.61l-1.74-1.1ZM119.52 70.32l-1.66 1.06v-.65l1.27-.77-1.27-.79v-.61l1.66 1.07 1.74-1.12v.65l-1.35.82 1.35.83v.61l-1.74-1.1ZM119.52 67.2l-1.66 1.06v-.65l1.27-.77-1.27-.79v-.61l1.66 1.07 1.74-1.12v.65l-1.35.82 1.35.83v.61l-1.74-1.1ZM119.52 64.08l-1.66 1.06v-.65l1.27-.77-1.27-.79v-.61l1.66 1.07 1.74-1.12v.65l-1.35.82 1.35.83v.61l-1.74-1.1ZM119.52 60.96l-1.66 1.06v-.65l1.27-.77-1.27-.79v-.61l1.66 1.07 1.74-1.12v.65l-1.35.82 1.35.83v.61l-1.74-1.1ZM119.52 57.85l-1.66 1.06v-.65l1.27-.77-1.27-.79v-.61l1.66 1.07 1.74-1.12v.65l-1.35.82 1.35.83v.61l-1.74-1.1ZM119.52 54.73l-1.66 1.06v-.65l1.27-.77-1.27-.79v-.61l1.66 1.07 1.74-1.12v.65l-1.35.82 1.35.83v.61l-1.74-1.1ZM119.52 51.61l-1.66 1.06v-.65l1.27-.77-1.27-.79v-.61l1.66 1.07 1.74-1.12v.65l-1.35.82 1.35.83v.61l-1.74-1.1ZM119.52 48.49l-1.66 1.06v-.65l1.27-.77-1.27-.79v-.61l1.66 1.07 1.74-1.12v.65l-1.35.82 1.35.83v.61l-1.74-1.1ZM119.52 45.37l-1.66 1.06v-.65l1.27-.77-1.27-.79v-.61l1.66 1.07 1.74-1.12v.65l-1.35.82 1.35.83v.61l-1.74-1.1ZM119.52 42.25l-1.66 1.06v-.65l1.27-.77-1.27-.79v-.61l1.66 1.07 1.74-1.12v.65l-1.35.82 1.35.83v.61l-1.74-1.1ZM119.52 39.13l-1.66 1.06v-.65l1.27-.77-1.27-.79v-.61l1.66 1.07 1.74-1.12v.65l-1.35.82 1.35.83v.61l-1.74-1.1ZM119.52 36.01l-1.66 1.06v-.65l1.27-.77-1.27-.79v-.61l1.66 1.07 1.74-1.12v.65l-1.35.82 1.35.83v.61l-1.74-1.1Z"/><path d="M-91.58-536.83h1509.9v999.05H-91.58z" style="stroke:#fff;stroke-width:8px;stroke-linecap:round;stroke-linejoin:round;fill:none"/></svg>