<svg xmlns="http://www.w3.org/2000/svg" id="Calque_1" data-name="Calque 1" viewBox="0 0 128 128"><defs><style>.cls-2{fill:#bfe6fc}.cls-4,.cls-5{stroke-width:2px}.cls-4,.cls-5,.cls-6{stroke:#000}.cls-4,.cls-5{stroke-linecap:round;stroke-linejoin:round}.cls-4,.cls-6{fill:#fff}.cls-5{fill:none}.cls-6{stroke-miterlimit:10}</style></defs><rect width="108.76" height="68.67" x="11.85" y="38.56" rx="5.67" ry="5.67" style="fill:#87ccf3"/><rect width="108.76" height="68.67" x="11.85" y="38.56" class="cls-5" rx="5.67" ry="5.67"/><path d="m91.37 39.53-39.21 66.61h8.4l38.13-66.61h-7.32zM100.82 39.53 61.6 106.14h8.41l38.13-66.61h-7.32z" class="cls-2"/><rect width="14.64" height="14.64" x="18.9" y="65.3" rx="2.83" ry="2.83" style="fill:#f3d587"/><rect width="14.64" height="14.64" x="18.9" y="65.3" class="cls-5" rx="2.83" ry="2.83"/><path d="M18.95 95.67h66.41v2.55H18.95z"/><path d="M38.33 75.11h21.81v5.11H38.33zM18.53 46.73H55.1v9.53H18.53z" class="cls-4"/><text style="font-family:MyriadPro-Regular,&quot;Myriad Pro&quot;;font-size:10.14px" transform="translate(37.33 71.81)"><tspan x="0" y="0">0000 000 000 00</tspan></text><path d="M92.53 43.45h21.43v13.61H92.53z" style="fill:#8987f3;stroke-miterlimit:10;stroke:#000"/><path d="M99.52 50.65h3.9a4.183 4.183 0 0 1-8.35-.36c0-2.32 1.87-4.19 4.18-4.19s4.19 1.87 4.19 4.19h-3.92v.35ZM105.08 46.79h5.19c.94 0 1.7.76 1.7 1.7 0 .97-.79 1.76-1.76 1.76h-5.13v-3.46ZM105.08 50.65h5.19c.94 0 1.7.76 1.7 1.7 0 .97-.79 1.76-1.76 1.76h-5.13v-3.46Z" class="cls-6"/><path d="M-301.87-269.82H866.44v629.76H-301.87z" style="stroke:#fff;stroke-width:8px;fill:none;stroke-linecap:round;stroke-linejoin:round"/></svg>