<svg xmlns="http://www.w3.org/2000/svg" id="Calque_1" data-name="Calque 1" viewBox="0 0 200.13 128.13"><defs><linearGradient id="Dégradé_sans_nom_2" x1="8.58" x2="72.07" y1="64.67" y2="64.67" data-name="Dégradé sans nom 2" gradientTransform="rotate(-90 40.325 64.675)" gradientUnits="userSpaceOnUse"><stop offset="0" stop-color="#9800bf"/><stop offset="1" stop-color="red"/></linearGradient><style>.cls-1{fill:#d6d6d6}.cls-1,.cls-10,.cls-2,.cls-5,.cls-6{stroke:#000}.cls-1,.cls-2,.cls-5,.cls-6{stroke-linecap:round;stroke-linejoin:round}.cls-2{fill:#87ccf3}.cls-11,.cls-5{fill:#fff}.cls-10,.cls-6{fill:none}.cls-10{stroke-miterlimit:10;stroke-width:.25px}</style></defs><rect width="100.09" height="63.48" x="-9.72" y="32.93" rx="6.45" ry="6.45" style="fill:url(#Dégradé_sans_nom_2)" transform="rotate(90 40.325 64.675)"/><rect width="100.09" height="63.48" x="-9.72" y="32.93" rx="6.45" ry="6.45" style="stroke-miterlimit:10;fill:none;stroke:#000" transform="rotate(90 40.325 64.675)"/><rect width="16.76" height="16.76" x="31.93" y="23.63" rx="6.02" ry="6.02" style="stroke-width:.25px;stroke-miterlimit:10;fill:#f3d587;stroke:#000" transform="rotate(90 40.31 32.01)"/><path d="M31.96 29.18h16.76M48.72 34.85H31.96M40.35 40.39V23.63M44.84 23.99v16.07M35.78 40.06V23.99" class="cls-10"/><path d="M197.18 75.07H82.16M78.85 76.81h118.33M77.35 81.06h118.32M77.35 82.88h118.32" class="cls-6"/><path d="m83.71 81.06 3.39-5.99h2.54l-3.42 5.99h-2.51zM94.83 81.06l3.39-5.99h2.54l-3.42 5.99h-2.51zM105.95 81.06l3.39-5.99h2.54l-3.42 5.99h-2.51zM117.07 81.06l3.39-5.99H123l-3.42 5.99h-2.51zM128.19 81.06l3.39-5.99h2.54l-3.42 5.99h-2.51zM139.31 81.06l3.4-5.99h2.53l-3.42 5.99h-2.51zM150.43 81.06l3.4-5.99h2.53l-3.42 5.99h-2.51zM161.55 81.06l3.4-5.99h2.53l-3.42 5.99h-2.51zM172.67 81.06l3.4-5.99h2.53l-3.42 5.99h-2.51zM183.79 81.06l3.4-5.99h2.53l-3.42 5.99h-2.51z" class="cls-5"/><path d="M119.5 53.21h59.44v18.51H119.5zM163.5 50.74h11.25v2.47H163.5z" class="cls-1"/><path d="M137.82 51.97h22.35v1.24h-22.35z" style="stroke-linecap:round;stroke-linejoin:round;stroke:#000" transform="rotate(180 148.99 52.59)"/><path d="M143.05 53.21h-5.23v-2.47h5.23zM132.77 50.74h2.52v2.47h-2.52z" class="cls-1"/><path d="M133.46 46.77h1.14v3.97h-1.14z" style="fill:#bfe6fc;stroke-linecap:round;stroke-linejoin:round;stroke:#000"/><path d="M107.15 78.39h79.82v-6.67H97.1v6.67h5.6" class="cls-1"/><path d="M119.36 71.72h-18.33V50.73h18.33z" class="cls-2"/><path d="M115.66 61.23h-4.61V54.3h4.61zM109.46 61.23h-2.3V54.3h2.3zM105.48 61.23h-2.3V54.3h2.3z" class="cls-5"/><path d="M120.31 50.73h-20.25v-4.15h20.25z" class="cls-1"/><path d="M119.5 63.49h65.1v8.24h-65.1z" class="cls-2"/><path d="M119.5 63.49h5.32v8.24h-5.32zM135.29 71.72h-10.46v-8.24h10.46zM145.75 71.72h-10.46v-8.24h10.46z" class="cls-2"/><path d="M156.19 71.72h-10.46v-8.24h10.46z" class="cls-2"/><path d="M97.1 73.84h89.87" class="cls-6"/><path d="M187.54 73.37H189v2.42h-1.46zM191.1 76.42h-2.09v-3.69h2.09zM82.56 53.16h7.56v18.51h-7.56zM82.56 50.68h3.52v2.47h-3.52zM82.56 71.67h11.92v6.66H82.56z" class="cls-1"/><path d="M82.56 63.43h9.56v8.24h-9.56z" class="cls-2"/><path d="M82.56 63.43h2.07v8.24h-2.07z" class="cls-2"/><path d="M94.48 73.79H82.56" class="cls-6"/><path d="M95.05 73.31h1.46v2.42h-1.46zM107.16 78.49c0 1.24-1 2.24-2.24 2.24s-2.23-1-2.23-2.24v-.11h4.46v.11Z" class="cls-1"/><path d="M84.38 78.49c0 1.1-.78 2-1.82 2.2v-2.3h1.81v.11Z" style="fill:#baa584;stroke-linecap:round;stroke-linejoin:round;stroke:#000"/><path d="M125.33 78.49c0 1.24-1 2.24-2.24 2.24s-2.23-1-2.23-2.24v-.11h4.46v.11ZM143.49 78.49c0 1.24-1 2.24-2.24 2.24s-2.23-1-2.23-2.24v-.11h4.46v.11ZM161.66 78.49c0 1.24-1 2.24-2.24 2.24s-2.23-1-2.23-2.24v-.11h4.46v.11ZM179.82 78.49c0 1.24-1 2.24-2.24 2.24s-2.23-1-2.23-2.24v-.11h4.46v.11Z" class="cls-1"/><path d="M166.65 71.72h-10.46v-8.24h10.46zM177.12 71.72h-10.46v-8.24h10.46z" class="cls-2"/><path d="M120.1 55.87h58.25v3.08H120.1zM52.45 90.16l-2.3 10.05c-.64.05-1.3.05-1.96 0-2.37-.19-5.73-1.87-4.77-4.84.73-2.22 3.36-3.57 6.57-3.81.56-.03 1.01-1.49 1.01-1.49-.01 0-.16-.01-.44-.01-4.58.15-7.82 1.4-9.42 4l-.12.21.85-4.11h-2.21l-1.69 8.11c-1.39-3.68-3.24-7.19-8.05-8-1.06-.18-1.55-.23-2.78-.22-3.51.03-6.68 1.01-7.21 3.06-.91 3.44 7.13 2.95 6.98 5.24-.1 1.4-2.5 2.17-4.44 2.15-1.44-.01-3.04-.37-3.94-.6l-.71 1.52c1.22.26 2.52.49 3.91.51 5.75.05 7.98-1.92 8.23-3.77.45-3.39-7.6-3.06-6.99-5.18.34-1.33 2.89-1.56 4.36-1.56.64 0 1.18.05 1.69.15.27.08.53-.21.8-.81.01-.04.08-.05.08.01l-.78 3.74c-.12.6-.11.88.62 1.62.48.51.93.99 1.03.52.3-1.47.6-2.95.91-4.4 3.73 4.29 5.55 9.57 5.55 9.57h2.21l.92-4.44.03.16c.45 2.44 3.76 4.29 7.97 4.4 1.43.04 2.47-.04 3.03-.27.55-.25.88-.52 1.06-1.29l.8-3.44h5.54c.34 0 .63-.22 1.18-1.81h-6.3l.77-3.32h7.28c.23 0 .56.01 1.12-1.63H52.49" class="cls-11"/></svg>