<svg xmlns="http://www.w3.org/2000/svg" id="Calque_1" viewBox="0 0 128 128.13"><defs><style>.cls-2,.cls-4{stroke-width:2px}.cls-2{fill:#87ccf3;stroke-miterlimit:10}.cls-4{stroke-linecap:round;stroke-linejoin:round;fill:none}.cls-2,.cls-4{stroke:#000}</style></defs><path d="M-88.9-269.94h2655.08v1511.77H-88.9z" style="fill:none;stroke-linecap:round;stroke-linejoin:round;stroke:#e30613;stroke-width:8px"/><path d="M114.94 75.79c-.96-13.58-5.36-27.18-17.21-35.1-3.87-2.57-8.32-4.1-12.93-4.95-.59-1.25-1.71-2.18-3.02-2.63-.45-.15-.94-.23-1.41-.23-.41 0-.82.06-1.22.14-.88.18-1.63.63-2.29 1.2-.18.16-.32.36-.43.61-1.02-.04-2.04-.04-3.06-.04-8.4.04-16.07 2.79-21.5 9.38-1.63 1.98-3.08 4.59-4.36 7.53-2.28 5.24-4.06 11.54-5.36 17.23-.04.16-.06.3-.1.47-.33 1.51-.65 2.94-.94 4.3-.04.02-.06.02-.1.04-.2.2-.41.41-.59.63-.8.86-1.57 1.69-2.34 2.57-4.22 4.69-8.18 9.61-11.89 14.68h-.02s-2 2.75-2.96 4.14c-.1.14-.2.29-.31.43-.92 1.35.35 2.76 1.65 2.92 9.1 1.06 17.66 3.75 25.96 7.46 7.14 3.18 14.64 6.67 22.66 5.77 13.34-1.49 21.13-12.46 26.67-23.7.78-1.53 1.51-3.08 2.18-4.61.04-.02.1-.02.14-.04 1.33-.29 2.63-.61 3.94-.96 1.67-.45 3.34-.96 5-1.51 1.36-.45 2.71-.94 4.04-1.47-.04-1.43-.1-2.85-.21-4.28Z" class="cls-2"/><path d="M102.04 84.05c-48.45-.91-60.92-10.34-60.92-10.34" style="stroke-width:2px;fill:#87ccf3;stroke-miterlimit:10;stroke:#251f2d"/><path d="M76.44 34.84s2.58 1.97 8.36.9" class="cls-2"/><path d="M80.05 35.97S53.49 45.61 53.67 78.6M81.6 36.06s17.74 20.59 20.58 47.95" class="cls-2"/><circle cx="27.24" cy="28.13" r="9.1" style="fill:#f3d587;stroke:#000;stroke-linecap:round;stroke-linejoin:round;stroke-width:2px"/><path d="M27.24 44.34v-5.13M15.78 39.59l3.62-3.62M11.03 28.13h5.12M15.78 16.67l3.62 3.63M27.24 11.93v5.12M38.7 16.67l-3.63 3.63M43.44 28.13h-5.12M38.7 39.59l-3.63-3.62M38.7 39.59l-3.63-3.62M27.24 44.34v-5.13M15.78 39.59l3.62-3.62M11.03 28.13h5.12M15.78 16.67l3.62 3.63M27.24 11.93v5.12M38.7 16.67l-3.63 3.63M43.44 28.13h-5.12" class="cls-4"/></svg>