<svg xmlns="http://www.w3.org/2000/svg" id="Calque_1" viewBox="0 0 128 128"><defs><style>.cls-2,.cls-3,.cls-4,.cls-5,.cls-6,.cls-7{stroke-linecap:round;stroke-linejoin:round}.cls-2,.cls-3,.cls-6{fill:none}.cls-2,.cls-3,.cls-4,.cls-5,.cls-6,.cls-7{stroke:#000}.cls-3{stroke-dasharray:0 3.78}.cls-4{fill:#bfe6fc}.cls-5{fill:#87ccf3}.cls-6{stroke-dasharray:0 .21}.cls-7{fill:#d6d6d6}</style></defs><path d="M-755.1-886.79h2655.08V624.98H-755.1z" style="fill:none;stroke-linecap:round;stroke-linejoin:round;stroke:#e30613;stroke-width:8px"/><path d="M78.15 27.59c0-4.88-5.12-8.84-11.45-8.84-6.33 0-11.46 3.96-11.46 8.84h22.9Z" class="cls-4"/><path d="M67.25 50.65v-4M67.25 39.31v-4M57.36 50.65v-4M57.36 39.31v-4M76.47 50.65v-4M76.47 39.31v-4" class="cls-2"/><path d="M71.86 45.43v-3.78M62.45 45.43v-3.78" class="cls-3"/><path d="M67.25 44.21v.21M57.36 44.21v.21M76.47 44.21v.21M71.86 50.54v.22M62.45 50.54v.22" class="cls-6"/><path d="M28.26 114.25V14.16M66.7 14.16v3.81M66.7 14.16c0-5.27-4.32-9.59-9.59-9.59H37.85c-2.63 0-5.03 1.08-6.77 2.82s-2.82 4.13-2.82 6.77" class="cls-2"/><path d="M28.26 114.25h65.42v7.03H28.26zM28.26 110.71h63.22v3.53H28.26z" class="cls-4"/><path d="M55.25 31.06h22.9" class="cls-2"/><path d="M28.26 62.08h6.4v3.04h-6.4z" class="cls-4"/><path d="M28.26 62.08h6.4v3.04h-6.4z" class="cls-4"/><path d="M34.66 69.57V57.65h3.04v11.92z" class="cls-4"/><path d="M98.1 55.01 82.96 74.38" class="cls-2"/><path d="m81.78 69.25 1-.09.42 4.91 4.87-.77.16.98-5.94.95-.51-5.98z"/><path d="M47.25 87.68h3.87v22.46h-3.87zM75.13 87.68H79v22.46h-3.87z" class="cls-7"/><path d="M47.19 57.65h3.93V75.9h-3.93z" class="cls-5"/><path d="M47.2 89.46v-5.77h31.81v5.77zM47.19 75.9v7.79" class="cls-7"/><path d="M55.84 89.46v-5.77h0c0-3.86 3.16-7.02 7.02-7.02h5.25c3.86 0 7.02 3.16 7.02 7.02h0v5.77" class="cls-2"/><rect width="9.83" height="2.99" x="60.57" y="75.18" class="cls-5" rx="1.49" ry="1.49"/><path d="M44.77 107.38h8.3v2.76h-8.3zM72.92 107.38h8.3v2.76h-8.3z" class="cls-7"/></svg>