<svg xmlns="http://www.w3.org/2000/svg" id="Calque_1" viewBox="0 0 128 128"><defs><style>.cls-1,.cls-2{fill:#baa584;stroke:#000;stroke-linecap:round;stroke-linejoin:round}.cls-2{fill:#a07637}</style></defs><path d="M71.98 9.92s-17.4-3.7-42.43 3.26l3.05 20.24s25.45-8.77 38.73-3.92l.65-19.59Z" class="cls-2"/><path d="M33.14 67.84S28.9 25.7 25.42 12.91c-1.2-4.45 2.84-7.72 5.23-3.33 1.25 2.29 2.19 8.2 2.7 10.89 2.21 11.35 3.52 22.87 4.21 34.43.2 3.37.36 6.73.47 10.09l-4.9 2.85ZM76.27 59.94s-1.92-38.9-.34-51.06c.54-4.22-3.92-6.56-5.64-2.2-.91 2.28-.99 7.79-1.11 10.32-.52 10.64-.14 21.31.84 31.9.29 3.08.62 6.17 1 9.23l5.26 1.81Z" class="cls-2"/><path d="m97.27 117.33-2.66-1.93-4.73-44.87 4.12-.15 3.27 46.95z" class="cls-1"/><path d="m98.25 70.67 3.17 46.15-4.15.51-4.83-46.41 5.81-.25z" class="cls-2"/><path d="M73.93 59.77h.08l2.79 40.2-2.65-1.94-4.08-38.77c1.2.3 2.46.52 3.87.52Z" class="cls-1"/><path d="M73.93 59.77c1.56 0 2.95-.27 4.26-.64l2.76 40.31-4.15.52-4.19-40.32c.44.03.84.13 1.32.13Z" class="cls-2"/><path d="m37.17 61.38-4.8 38.52-2.27-1.99 3.08-34.72c1.54-.37 2.87-.99 4-1.81Z" class="cls-1"/><path d="M38.4 58.82c1.21 0 2.33-.14 3.36-.36l-5.15 41.01-4.26.43 3.74-41.31c.76.11 1.48.24 2.3.24Z" class="cls-2"/><path d="m58.42 124.56-2.47-1.94-.23-44.86 4.13-.15-1.43 46.95z" class="cls-1"/><path d="m64.07 77.88-1.45 46.16-4.2.52-.18-46.41 5.83-.27z" class="cls-2"/><path d="m33.14 62.95 2.77-.74c.27-.17.43-.37.73-.55 5.08-2.85 12.16-3.38 18.24-3.94 9.12-.84 19.1.64 27.66 4.17 3.32 1.37 6.56 2.91 9.75 4.54 2.51 1.3 5.08 3.48 8.05 3.04 1.22-.17 2.24-.12 3.39.3 1.57.57 3.13 2.3 3.63 3.9.38 1.21.01 2.85-.05 4.15-.89 2.64-5.59 2.7-8.11 3.32-9.12 2.29-18.36 4.18-27.59 6.17-7.6 1.63-14.16 3.32-21.04-1.83-3.77-2.8-8.06-5.47-11.23-8.77-2.95-3.1-6.33-6.72-6.38-10.1l.17-3.66Z" class="cls-1"/><path d="M105.16 70.58c-1-1.11-2.56-2.02-3.68-2.69-6.19-3.71-12.8-7.37-19.5-10.23-8.34-3.53-18.05-5.01-26.94-4.17-5.89.56-12.8 1.07-17.74 3.93-7.34 4.27-1.79 10.29 2.63 15.06 3.08 3.31 7.27 5.98 10.93 8.76 6.7 5.15 13.09 3.46 20.47 1.82 8.98-1.98 17.98-3.86 26.86-6.15 2.45-.63 7.02-.69 7.88-3.34.38-1.11-.1-2.11-.92-3.01Z" class="cls-2"/></svg>