<svg xmlns="http://www.w3.org/2000/svg" id="Calque_1" data-name="Calque 1" viewBox="0 0 128 128"><defs><style>.cls-1,.cls-4,.cls-6{stroke-miterlimit:10;stroke:#000}.cls-4{stroke-width:2px;fill:#d6d6d6}.cls-6{stroke-width:.5px;fill:none}</style></defs><path d="M36.61 54.79v9.44h-4.88v-9.44c0-1.34 1.09-2.43 2.44-2.43s2.44 1.09 2.44 2.43ZM22.93 54.79v9.44h-4.88v-9.44c0-1.34 1.09-2.43 2.44-2.43s2.44 1.09 2.44 2.43Z" class="cls-4"/><path d="M40.34 63.38H14.32c-1.77 0-3.21 1.44-3.21 3.22s1.36 3.12 3.07 3.2v2.97c0 5.26 3.11 9.81 7.59 11.91v5.39h3.12v13.9c0 7.69 6.08 13.94 13.55 13.94h.5v-4.88h-.5c-4.78 0-8.67-4.07-8.67-9.06v-13.9h3.12v-5.39c4.48-2.11 7.6-6.65 7.6-11.91V69.8c1.7-.08 3.06-1.48 3.06-3.2s-1.44-3.22-3.21-3.22ZM27.33 77.16a1.83 1.83 0 1 1 .002-3.662 1.83 1.83 0 0 1-.002 3.662Z"/><path d="M96.19 5.71H55.92c-4.08 0-7.4 3.32-7.4 7.4V114.9c0 4.08 3.32 7.39 7.4 7.39h40.27c4.08 0 7.4-3.31 7.4-7.39V13.11c0-4.08-3.32-7.4-7.4-7.4Zm7.12 109.19c0 3.92-3.19 7.11-7.12 7.11H55.92c-3.92 0-7.11-3.19-7.11-7.11V13.11c0-3.92 3.19-7.12 7.11-7.12h40.27c3.93 0 7.12 3.2 7.12 7.12V114.9Z" class="cls-1"/><path d="M103.31 13.11V114.9c0 3.92-3.19 7.11-7.12 7.11H55.92c-3.92 0-7.11-3.19-7.11-7.11V13.11c0-3.92 3.19-7.12 7.11-7.12h40.27c3.93 0 7.12 3.2 7.12 7.12Z" class="cls-1"/><path d="M101.54 13.94v100.12c0 3.47-2.81 6.28-6.28 6.28h-38.4a6.279 6.279 0 0 1-6.29-6.28V13.94c0-3.47 2.81-6.28 6.28-6.28h1.12c3.45 0 6.91.06 10.36 0 0 .02-.02.06-.01.1.94-.15 2.41.26 3.09.94 1.08 1.08 2.35 2.57 4.01 2.74 1.73.18 3.1-1.22 4.23-2.33 1.26-1.25 2.95-1.44 4.66-1.44h10.94c3.47 0 6.28 2.81 6.28 6.28Z" style="fill:#fab0b4"/><circle cx="75.73" cy="9.03" r="1.11" style="stroke-width:.5px;stroke:#fff;fill:#cfb999;stroke-miterlimit:10"/><path d="M103.43 39.31V24.84c.55 0 .99.44.99.99v12.49c0 .55-.44.99-.99.99ZM103.43 51.78v-7.22c.55 0 .99.44.99.99v5.24c0 .55-.44.99-.99.99Z" class="cls-1"/><path d="M91.58 10h.58v2.63h-.58z" style="fill:#ff6d75"/><path d="M92.16 10h4.21v2.63h-4.21z" style="fill:#fff"/><path d="M96.37 10.74h.68v1.16h-.68zM53.91 10.82h.88v1.51h-.88zM55.29 10.29h.88v2.04h-.88zM56.68 9.66h.88v2.66h-.88z"/><path d="M91.58 10h4.8v2.63h-4.8z" class="cls-6"/><path d="M71.05 78.47H82.8v33.43H71.05z" style="stroke-width:2px;fill:#ff6d75;stroke:#000;stroke-miterlimit:10" transform="rotate(-90 76.93 95.18)"/><path d="M52.39 48.05h49.08v33.43H52.39z" style="stroke-width:2px;fill:#fff;stroke:#000;stroke-miterlimit:10" transform="rotate(-90 76.925 64.765)"/><path d="M69.57 40.22v-8.59h14.72v8.59z"/><path d="M60.21 101.05V40.09h33.43v60.96z" class="cls-6"/><path d="M69.56 71.3v-.65l.83-.8c1.99-1.9 2.89-2.9 2.9-4.08 0-.79-.38-1.52-1.55-1.52-.71 0-1.3.36-1.66.66l-.34-.74c.54-.46 1.31-.79 2.21-.79 1.68 0 2.39 1.15 2.39 2.27 0 1.44-1.04 2.6-2.69 4.19l-.62.58v.02h3.5v.88h-4.98ZM79.23 65.7c0 1.64-.86 2.46-1.87 2.46s-1.81-.78-1.82-2.35c0-1.56.85-2.43 1.88-2.43 1.09 0 1.81.84 1.81 2.33Zm-2.85.07c-.02 1 .35 1.75 1.01 1.75.7 0 1.01-.74 1.01-1.77 0-.95-.28-1.74-1.01-1.74-.66 0-1.01.78-1.01 1.76Zm.91 5.66 4.58-8.06h.67l-4.58 8.06h-.67Zm7.02-2.51c0 1.64-.86 2.46-1.86 2.46s-1.81-.78-1.82-2.34c0-1.57.85-2.45 1.88-2.45 1.09 0 1.8.84 1.8 2.33Zm-2.85.07c-.01 1 .37 1.75 1.02 1.75.7 0 1.01-.74 1.01-1.77 0-.95-.28-1.74-1.01-1.74-.66 0-1.02.78-1.02 1.76Z"/><path d="M-990.27-359.81H456.8v727.52H-990.27z" style="fill:none;stroke-linecap:round;stroke-linejoin:round;stroke-width:8px;stroke:#fff"/></svg>