<svg xmlns="http://www.w3.org/2000/svg" id="Calque_1" data-name="Calque 1" viewBox="0 0 128 128.13"><defs><style>.cls-3,.cls-4{stroke-width:2px}.cls-3,.cls-4,.cls-6{stroke:#000}.cls-3,.cls-4{stroke-linecap:round;stroke-linejoin:round}.cls-3{fill:#fff}.cls-4,.cls-6{fill:none}.cls-6{stroke-miterlimit:10}</style></defs><path d="M72.23 31.11c-.03-.16-.06-.33-.07-.5 14.67 1.36 22.42 5.6 21.29 7.59-.66 1.17-4.58 2.41-10.11 3.36-1.96.34-4.13.64-6.42.9-1.6.18-3.26.33-4.96.45-1.25.1-2.52.18-3.8.24-1.87.08-3.76.12-5.64.12-.43 0-.87 0-1.3-.01-4.21-.06-8.54-.41-12.53-.9-2.61-.33-5.09-.72-7.28-1.14-5.16-.98-8.81-2.12-9.28-2.9-.84-1.41 6.52-6.22 21.33-7.7" class="cls-4"/><path d="M76.38 39.24c-1.48.16-3.18.28-5.08.37-1.17.05-2.42.08-3.75.11-1.27.02-2.61.03-4.02.03-5.99 0-10.8-.2-14.21-.68.33-.79.81-1.53 1.4-2.17l.77-.83c.96-1.03 1.6-2.3 1.87-3.67a8.075 8.075 0 0 0 .15-1.5v-4.33H72.1v4.34c.01.28.03.56.06.83.01.17.04.34.07.5.25 1.42.91 2.75 1.9 3.83l.77.84c.64.69 1.14 1.48 1.48 2.33Z" style="fill:#bfe6fc;stroke-linecap:round;stroke-linejoin:round;stroke:#000;stroke-width:2px"/><path d="M68.85 16.25v4.09H56.77v-4.09c0-.41.11-.79.31-1.12.68-1.14 2.23-2.31 2.56-3.6.29-1.17.44-2.38.44-3.59a15.923 15.923 0 0 0-.12-1.97c0-1.55 1.28-2.8 2.86-2.8s2.86 1.25 2.86 2.8c-.02.2-.05.4-.06.59-.16 1.84 0 3.68.51 5.45.32 1.12 1.83 2.12 2.43 3.12.2.33.31.71.31 1.12Z" style="stroke-linecap:round;stroke-linejoin:round;stroke:#000;stroke-width:2px;fill:#a07637"/><path d="m74.02 22.91-2.13-.17c-5.98-.48-11.99-.49-17.98-.01l-2.31.18v5.78l2.25-.18c5.98-.48 11.99-.48 17.98 0l2.19.18v-5.78Z" class="cls-3"/><path d="M72.87 22.82h0c-6.66-.6-13.35-.6-20.01 0h-.1v-3.18h.11c6.66-.6 13.35-.6 20.01 0h0v3.18Z" class="cls-3"/><path d="M53.04 44.51h5.09" style="stroke-width:2.35px;stroke-miterlimit:10;fill:none;stroke:#000"/><path d="M93.26 38.2v76.19s-10.28 8.62-30.77 8.62-30.14-8.62-30.14-8.62V38.32c.47.78 3.71 1.92 8.87 2.9 2.19.42 4.67.81 7.28 1.14 3.99.49 8.32.84 12.53.9.43.01.87.01 1.3.01 1.88 0 3.77-.04 5.64-.12 1.28-.06 2.55-.14 3.8-.24 1.7-.12 3.36-.27 4.96-.45 2.29-.26 4.46-.56 6.42-.9 5.53-.95 9.45-2.19 10.11-3.36Z" style="stroke-width:3px;fill:#fff;stroke-linecap:round;stroke-linejoin:round;stroke:#000"/><path d="M72.23 32.53c7.27.7 11.34 2.29 11.34 4.13 0 1.46-2.54 2.37-7.19 2.87-1.48.16-3.18.28-5.08.37-1.17.05-2.42.08-3.75.11-1.27.02-2.61.03-4.02.03-5.99 0-10.8-.2-14.21-.68-3.78-.52-5.83-1.39-5.83-2.7 0-1.71 3.53-3.2 9.87-3.97" class="cls-4"/><path d="M71.47 106.97c0 2.34-.92 4.46-2.42 6.02a8.679 8.679 0 0 1-14.93-6.02c0-3.45 2.02-6.44 4.95-7.83a8.61 8.61 0 0 1 3.73-.84c4.79 0 8.67 3.88 8.67 8.67Z" style="stroke-width:1.99px;fill:none;stroke-linecap:round;stroke-linejoin:round;stroke:#000"/><circle cx="54.11" cy="95.3" r="1.76"/><circle cx="49.85" cy="102.06" r="1.76"/><circle cx="76.34" cy="102.06" r="1.76"/><circle cx="71.18" cy="95.3" r="1.76"/><circle cx="62.81" cy="92.7" r="1.76"/><path d="M62.76 99.87v4.32M58.65 101.2l2.47 3.53M56.04 104.64l4.06 1.48M55.88 108.96l4.17-1.12M58.22 112.58l2.78-3.3M62.22 114.21l.38-4.3M66.43 113.25l-2.16-3.74M69.33 110.05l-3.91-1.83M69.87 105.76l-4.26.75M67.85 101.94 64.8 105" class="cls-6"/></svg>