<svg xmlns="http://www.w3.org/2000/svg" id="Calque_1" viewBox="0 0 128 128"><defs><style>.cls-1,.cls-2,.cls-3,.cls-4,.cls-5,.cls-6{stroke:#000}.cls-1,.cls-5{fill:none;stroke-linecap:round;stroke-linejoin:round}.cls-2,.cls-7{fill:#87ccf3}.cls-2,.cls-3,.cls-4,.cls-5{stroke-width:2px}.cls-2,.cls-3,.cls-4,.cls-6{stroke-miterlimit:10}.cls-3{fill:#bfe6fc}.cls-4,.cls-6{fill:#d6d6d6}</style></defs><path d="M119.98 65.73c0 .3-.33.62-.92.96s-.01.01-.02.01c0 .01-.01.01-.02.02-.14.07-.29.15-.45.23-.04.02-.09.04-.13.06-.14.07-.28.13-.43.2-.06.02-.11.04-.17.06-.15.07-.31.13-.48.2l-.18.06c-.18.07-.37.14-.56.21-.05 0-.11.03-.16.05-.22.08-.45.15-.68.23l-.11.03c-1.13.36-2.43.72-3.82 1.07-.02 0-.04 0-.06.02-.33.08-.66.16-1 .24-.03.01-.06.02-.09.02-.33.08-.67.16-1.01.24-.03.01-.06.01-.09.02-.36.08-.71.16-1.08.24l-.02.01c-1.51.32-3.06.63-4.59.92-.05.01-.1.02-.15.02-.32.06-.64.12-.95.17-.07.02-.15.03-.23.04-.29.06-.58.11-.87.15-.08.02-.16.03-.24.04-.29.05-.57.1-.85.14-.08.02-.15.03-.23.04-.31.05-.62.1-.93.14-.03.01-.06.01-.1.02-.68.1-1.35.19-1.98.28-.08 0-.15.02-.23.03-.23.02-.45.05-.67.08l-.29.03-.56.06-.3.03c-.17.02-.33.03-.5.05-.09.01-.19.02-.29.02-.15.02-.3.03-.44.04-.09 0-.18.01-.27.02-.15.01-.29.01-.43.02-.07 0-.14.01-.21.01-.2 0-.39.01-.56.01-5.86 0-22.65-1.03-29.45-2.18-6.81-1.15-18.9-2.54-24.53-2.83-8.27-.41-19.24-3.25-19.24-3.25s-.3-14.71 2.34-17.3c2.65-2.58 1.88-5.17 1.88-8.38 0 0 3.3-4.38 13.97 1.23h.02c.19.11.38.22.57.32h.01c.91.45 1.91.73 3.03.73 3.99 0 7.04-.46 9.86-6.42 1.32-2.8.62-5.51-.07-8.36-.21-.82-.49-1.88.02-2.65.29-.45.71-.61 1.2-.74 1-.26 1.97-.64 2.94-1 1.39-.52 2.79-1.04 4.25-1.26.3-.05.58-.06.84-.03 1.67.18 2.68 1.72 3.63 3.1 1.57 2.25 2.9 4.66 4.25 7.04.86 1.53 1.71 3.07 2.62 4.57.56.94 1.12 2 1.91 2.77 2.47 2.41 12.91 10.87 19.01 12.66 6.11 1.79 21.48 1.44 26.76 6.6 5.28 5.16 1.53 6.43 1.53 8.83Z" class="cls-3"/><path d="M119.09 61.14c-4.24 6.74-12.71 6.74-29.84 6.74s-50.84-6.55-59.69-11.17c-8.86-4.62-2.7-5.2-1.35-11.94.97-4.84-1.14-10.95-2.98-15.16-.31-.05-.61-.1-.92-.1-3.54 0 0 5.54 0 8.76s.77 5.83-1.89 8.43c-2.66 2.6-2.36 17.4-2.36 17.4s11.04 2.86 19.36 3.27c5.66.28 17.82 1.69 24.67 2.84 6.84 1.15 23.72 2.19 29.62 2.19 5.17 0 22.39-3.19 26.58-5.61-.21-1.78-.59-3.66-1.19-5.66Z" class="cls-7"/><path d="M37.6 39.56c-10.67-5.61-13.97-1.23-13.97-1.23 0-3.21-3.52-8.72 0-8.72s6.69 3.1 8.92 5.28c1.46 1.43 3.03 3.45 5.05 4.67Z" class="cls-2"/><path d="M121.46 59.56c-.33-1.01-.91-2.02-1.89-2.5-.97-.47-2.39-.16-2.76.83-.13.34-.13.71-.13 1.07 0 1.67.05 3.43-.54 4.97-.11.29-.25.58-.41.86-1.27 2.16-3.64 2.77-5.94 3.28-10.51 2.32-21.72 1.83-32.39 1.11-11.44-.77-22.83-2.24-34.16-4.02-6.17-.97-14.6-2.11-20.82-2.6-6.66-.53-8.55 4.08-7.7 9.9.63 4.32 6.08 5.23 6.08 5.23h32.81c1.32 0 2.54-.62 3.34-1.65.58-.74 1.52-1.57 3.05-2.16 4.23-1.64 6.87.46 8.19 2.13.82 1.03 2.05 1.68 3.39 1.68 6.94 0 27.05-.48 30.42-1.06 6.98-1.2 8.5-1.57 12.58-3.12 2.21-.84 4.45-1.96 6.05-3.7 2.6-2.82 1.91-6.94.82-10.25Z" class="cls-4"/><path d="M67.33 42.01c-2.61-2.28-6.18-5.51-6.83-9.06-.52-2.84 2.81-4.32 6.09-5.37 3.09 4.21 5.85 8.88 7.06 10.06 2.19 2.14 11.09 8.61 15.84 11.81-6.82 3.93-17.29-3.2-22.15-7.44Z" class="cls-6"/><path d="M81.46 48.51c0 .57.47 1.03 1.05 1.03s1.05-.46 1.05-1.03-.47-1.03-1.05-1.03-1.05.46-1.05 1.03ZM75.34 46.04c0 .61.51 1.1 1.13 1.1s1.13-.49 1.13-1.1-.5-1.1-1.13-1.1-1.13.49-1.13 1.1ZM70.07 41.7a.99.99 0 0 0 0 1.42c.4.39 1.05.39 1.45 0a.973.973 0 0 0 0-1.42c-.4-.39-1.05-.39-1.45 0ZM65.35 37.38c-.43.42-.43 1.11 0 1.53.43.42 1.14.42 1.57 0 .43-.42.43-1.11 0-1.53-.43-.43-1.14-.43-1.57 0ZM61.9 32.2c-.36.35-.36.92 0 1.27s.94.35 1.3 0c.36-.35.36-.92 0-1.27a.936.936 0 0 0-1.3 0Z"/><path d="M85.04 46.36s-1.06-.14-2.46 2.14M80.58 43.13s-2.09-.4-4.12 3.08M75.75 39.44s-2.55.23-5.1 3.33M71.83 35.24s-2.97.23-5.7 3.21M68.61 30.44s-3.63-.14-6.05 2.4" class="cls-1"/><path d="M67 28.27s-8.51-2.4-13.63 10.82c-3.12 8.05 6.06 1.7 8.55-4.3S67 28.27 67 28.27ZM67 28.27s8.09-6.29 13.17 3.19c2.41 4.49-7.27 2.29-13.17-3.19ZM64.67 43.88C64.35 33.5 67 28.27 67 28.27s7.42 8.42 6.61 23.89" class="cls-1"/><path d="M22.17 30.43s-9.02-7.86-4.76-9.3c4.26-1.45 4.76 9.3 4.76 9.3Z" class="cls-5"/><path d="M111 95.9c0 .3-.33.62-.92.96s-.01.01-.02.01c0 .01-.01.01-.02.02-.14.07-.29.15-.45.23-.04.02-.09.04-.13.06-.14.07-.28.13-.43.2-.06.02-.11.04-.17.06-.15.07-.31.13-.48.2l-.18.06c-.18.07-.37.14-.56.21-.05 0-.11.03-.16.05-.22.08-.45.15-.68.23l-.11.03c-1.13.36-2.43.72-3.82 1.07-.02 0-.04 0-.06.02-.33.08-.66.16-1 .24-.03.01-.06.02-.09.02-.33.08-.67.16-1.01.24-.03.01-.06.01-.09.02-.36.08-.71.16-1.08.24l-.02.01c-1.51.32-3.06.63-4.59.92-.05.01-.1.02-.15.02-.32.06-.64.12-.95.17-.07.02-.15.03-.23.04-.29.06-.58.11-.87.15-.08.02-.16.03-.24.04-.29.05-.57.1-.85.14-.08.02-.15.03-.23.04-.31.05-.62.1-.93.14-.03.01-.06.01-.1.02-.68.1-1.35.19-1.98.28-.08 0-.15.02-.23.03-.23.02-.45.05-.67.08l-.29.03-.56.06-.3.03c-.17.02-.33.03-.5.05-.09.01-.19.02-.29.02-.15.02-.3.03-.44.04-.09 0-.18.01-.27.02-.15.01-.29.01-.43.02-.07 0-.14.01-.21.01-.2 0-.39.01-.56.01-5.86 0-22.65-1.03-29.45-2.18-6.81-1.15-18.9-2.54-24.53-2.83-8.27-.41-19.24-3.25-19.24-3.25s-.3-14.71 2.34-17.3c2.65-2.58 1.88-5.17 1.88-8.38 0 0 3.3-4.38 13.97 1.23h.02c.19.11.38.22.57.32h.01c.91.45 1.91.73 3.03.73 3.99 0 7.04-.46 9.86-6.42 1.32-2.8.62-5.51-.07-8.36-.21-.82-.49-1.88.02-2.65.29-.45.71-.61 1.2-.74 1-.26 1.97-.64 2.94-1 1.39-.52 2.79-1.04 4.25-1.26.3-.05.58-.06.84-.03 1.67.18 2.68 1.72 3.63 3.1 1.57 2.25 2.9 4.66 4.25 7.04.86 1.53 1.71 3.07 2.62 4.57.56.94 1.12 2 1.91 2.77 2.47 2.41 12.91 10.87 19.01 12.66 6.11 1.79 21.48 1.44 26.76 6.6 5.28 5.16 1.53 6.43 1.53 8.83Z" class="cls-3"/><path d="M110.12 91.31c-4.24 6.74-12.71 6.74-29.84 6.74S29.44 91.5 20.59 86.88c-8.86-4.62-2.7-5.2-1.35-11.94.97-4.84-1.14-10.95-2.98-15.16-.31-.05-.61-.1-.92-.1-3.54 0 0 5.54 0 8.76s.77 5.83-1.89 8.43c-2.66 2.6-2.36 17.4-2.36 17.4s11.04 2.86 19.36 3.27c5.66.28 17.82 1.69 24.67 2.84 6.84 1.15 23.72 2.19 29.62 2.19 5.17 0 22.39-3.19 26.58-5.61-.21-1.78-.59-3.66-1.19-5.66Z" class="cls-7"/><path d="M28.62 69.73c-10.67-5.61-13.97-1.23-13.97-1.23 0-3.21-3.52-8.72 0-8.72s6.69 3.1 8.92 5.28c1.46 1.43 3.03 3.45 5.05 4.67Z" class="cls-2"/><path d="M112.49 89.73c-.33-1.01-.91-2.02-1.89-2.5-.97-.47-2.39-.16-2.76.83-.13.34-.13.71-.13 1.07 0 1.67.05 3.43-.54 4.97-.11.29-.25.58-.41.86-1.27 2.16-3.64 2.77-5.94 3.28-10.51 2.32-21.72 1.83-32.39 1.11-11.44-.77-22.83-2.24-34.16-4.02-6.17-.97-14.6-2.11-20.82-2.6-6.66-.53-8.55 4.08-7.7 9.9.63 4.32 6.08 5.23 6.08 5.23h32.81c1.32 0 2.54-.62 3.34-1.65.58-.74 1.52-1.57 3.05-2.16 4.23-1.64 6.87.46 8.19 2.13.82 1.03 2.05 1.68 3.39 1.68 6.94 0 27.05-.48 30.42-1.06 6.98-1.2 8.5-1.57 12.58-3.12 2.21-.84 4.45-1.96 6.05-3.7 2.6-2.82 1.91-6.94.82-10.25Z" class="cls-4"/><path d="M58.36 72.18c-2.61-2.28-6.18-5.51-6.83-9.06-.52-2.84 2.81-4.32 6.09-5.37 3.09 4.21 5.85 8.88 7.06 10.06 2.19 2.14 11.09 8.61 15.84 11.81-6.82 3.93-17.29-3.2-22.15-7.44Z" class="cls-6"/><path d="M72.49 78.68c0 .57.47 1.03 1.05 1.03s1.05-.46 1.05-1.03-.47-1.03-1.05-1.03-1.05.46-1.05 1.03ZM66.36 76.21c0 .61.51 1.1 1.13 1.1s1.13-.49 1.13-1.1-.5-1.1-1.13-1.1-1.13.49-1.13 1.1ZM61.1 71.88a.99.99 0 0 0 0 1.42c.4.39 1.05.39 1.45 0a.973.973 0 0 0 0-1.42c-.4-.39-1.05-.39-1.45 0ZM56.38 67.55c-.43.42-.43 1.11 0 1.53.43.42 1.14.42 1.57 0 .43-.42.43-1.11 0-1.53-.43-.43-1.14-.43-1.57 0ZM52.93 62.38c-.36.35-.36.92 0 1.27s.94.35 1.3 0c.36-.35.36-.92 0-1.27a.936.936 0 0 0-1.3 0Z"/><path d="M76.07 76.54s-1.06-.14-2.46 2.14M71.61 73.3s-2.09-.4-4.12 3.08M66.77 69.61s-2.55.23-5.1 3.33M62.86 65.42s-2.97.23-5.7 3.21M59.63 60.61s-3.63-.14-6.05 2.4" class="cls-1"/><path d="M58.03 58.45S47.21 55.37 44.4 69.27c-2.81 13.89 6.06 1.7 8.55-4.3 2.49-6 5.08-6.52 5.08-6.52ZM58.03 58.45s5.38-4.23 13.17 3.19-7.27 2.29-13.17-3.19Z" class="cls-1"/><path d="M53.91 88.45s2.11-4.02 1.79-14.4 2.33-15.61 2.33-15.61 6.65 9.37 5.84 24.84" class="cls-1"/><path d="M13.2 60.61s-9.02-7.86-4.76-9.3 4.76 9.3 4.76 9.3Z" class="cls-5"/></svg>