<svg xmlns="http://www.w3.org/2000/svg" id="Calque_1" data-name="Calque 1" viewBox="0 0 128 128"><defs><style>.cls-3,.cls-7,.cls-8{stroke-miterlimit:10}.cls-7{stroke:#f3d587;stroke-width:2px}.cls-7,.cls-8{fill:none}.cls-3,.cls-9{fill:#f3d587}.cls-10{fill:#d6d6d6}.cls-3{stroke:#000}.cls-8{stroke:#d6d6d6}</style></defs><path d="M8.52 21.94H120.4v53.93H8.52z" style="stroke:#000;fill:#fff;stroke-miterlimit:10" transform="rotate(-12.61 64.451 48.896)"/><path d="M15.18 41.69c.06.27.06.52 0 .74-.06.23-.17.43-.33.61s-.35.33-.58.46c-.23.13-.49.22-.77.28l-3.07.69-1.42-6.35 3.4-.76c.22-.05.43-.05.63 0 .2.06.38.15.54.27.16.12.29.28.41.45.11.18.19.37.23.56.07.31.06.62-.04.92-.09.31-.28.56-.54.76.39.03.72.15.99.38s.46.55.55.97Zm-1.3.05a1.07 1.07 0 0 0-.13-.31c-.06-.1-.13-.18-.22-.24s-.17-.11-.27-.13c-.1-.02-.2-.02-.31 0l-1.9.42.37 1.67 1.83-.41c.11-.03.21-.07.3-.13s.16-.14.22-.23c.05-.09.09-.19.11-.3a.97.97 0 0 0 0-.34Zm-3.4-2.84.36 1.6 1.65-.37c.21-.05.37-.16.48-.33.11-.18.14-.39.09-.64a.88.88 0 0 0-.33-.54.655.655 0 0 0-.54-.1l-1.7.38ZM16.77 36.39l1.09-.24 3.84 5.81-1.27.28-.94-1.45-2.22.5-.23 1.71-1.27.28 1-6.89Zm2.29 3.58-1.43-2.3-.35 2.7 1.79-.4ZM22.71 37.46l.91 4.07-1.23.28-1.42-6.35.96-.21 4.24 3.43-.93-4.16 1.23-.28 1.42 6.34-1 .22-4.18-3.34ZM29.21 40.28l-1.42-6.34 1.23-.28.67 3.01 1.99-3.62 1.36-.3-1.8 3.36 3.37 2.96-1.39.31-2.59-2.3-.62 1.03.42 1.9-1.23.28Z" class="cls-9"/><path d="m10.643 48.726 68.653-15.358.51 2.284L11.155 51.01zM86.212 47.914l29.13-6.517 2.838 12.687L89.05 60.6zM11.606 52.555l68.653-15.359.51 2.284-68.652 15.358z" class="cls-10"/><path d="M111.18 34.49c-.26.27-.74.59-1.39.72-.8.16-1.58 0-2.2-.47-.46-.34-.83-.87-1.07-1.56l-.62.13-.1-.49.57-.12-.03-.15c-.03-.16-.05-.31-.07-.45l-.59.12-.1-.5.65-.13c-.02-.72.15-1.36.47-1.85.4-.63.98-1.06 1.79-1.23.59-.12 1.08-.04 1.39.05l-.06.7c-.28-.1-.72-.14-1.17-.05-.54.11-.93.39-1.2.81-.24.35-.34.84-.33 1.39l2.77-.57.1.5-2.86.58c.02.13.04.28.07.42l.04.18 2.88-.59.1.49-2.81.57c.2.56.49.95.82 1.19.45.31.98.4 1.52.29s.94-.4 1.14-.58l.3.59Z"/><path d="M12.424 56.579 81.077 41.22l.51 2.284-68.653 15.358z" class="cls-10"/><path d="m13.714 61.91 26.119-5.914 3.085 13.625-26.119 5.915z" class="cls-8"/><path d="m41.933 55.524 11.388-2.547.511 2.283-11.388 2.548zM42.817 59.533l11.388-2.548.511 2.284-11.388 2.548z" class="cls-10"/><path d="m82.803 32.372 29.13-6.517 2.3 10.286-29.13 6.517z" class="cls-8"/><path d="m17.143 76.988 37.298-8.344.51 2.284-37.297 8.344z" class="cls-10"/><path d="m18.2 82.14 5.85-1.33" class="cls-7"/><path d="m36.85 77.91 70.38-15.94" style="fill:none;stroke:#f3d587;stroke-width:2px;stroke-miterlimit:10;stroke-dasharray:0 0 13.12 13.12"/><path d="m113.63 60.52 5.85-1.33" class="cls-7"/><path d="M93.8 89.8a.8.8 0 0 1-.15-.21c-1.46-2.7 3.61-6.97 13.48-13.9 1.05-.74 1.88-1.32 2.26-1.62 1.4-1.11-.25-3.38-.27-3.4-.35-.47-.25-1.13.22-1.48.47-.35 1.14-.25 1.48.22 1 1.36 2.27 4.43-.12 6.32-.43.34-1.24.91-2.36 1.69-2.26 1.59-5.68 3.99-8.44 6.28-4.34 3.61-4.4 4.77-4.39 4.89a1.061 1.061 0 0 1-1.73 1.2Z" class="cls-3"/><path d="m56.08 113.93-3.34 3.05-.36.33c-.37.35-.96.32-1.3-.05a.9.9 0 0 1-.25-.63c0-.25.1-.5.3-.68l.36-.33 3.34-3.06a.928.928 0 0 1 1.25 1.37Z" style="fill:#baa584;stroke:#000;stroke-miterlimit:10"/><path d="m82.34 80.88-27.37 27.14c-2.32 2.12-3.5 4.61-1.37 6.93 2.12 2.32 4.7 1.36 7.02-.77l29.41-24.9-7.7-8.39Z" style="fill:#afaff9;stroke:#000;stroke-miterlimit:10"/><path d="m90.04 89.27 19.46-17.84c2.32-2.12 2.48-5.73.35-8.04-2.12-2.32-5.73-2.47-8.05-.35L82.34 80.88l7.7 8.39Z" style="fill:#8987f3;stroke:#000;stroke-miterlimit:10"/><path d="M90.91 90.22c-.58.53-1.47.49-2-.09l-7.52-8.21a1.41 1.41 0 0 1 .09-2 1.41 1.41 0 0 1 2 .09L91 88.22c.53.58.49 1.47-.09 2Z" class="cls-3"/></svg>