<svg xmlns="http://www.w3.org/2000/svg" id="Calque_1" data-name="Calque 1" viewBox="0 0 128 128"><defs><style>.cls-4,.cls-7,.cls-8{stroke-miterlimit:10}.cls-7{stroke:#f3d587;stroke-width:2px}.cls-7,.cls-8{fill:none}.cls-4{stroke:#000}.cls-10,.cls-4{fill:#f3d587}.cls-11{fill:#d6d6d6}.cls-8{stroke:#d6d6d6}</style></defs><path d="M5.59 24.87h111.88V78.8H5.59z" style="fill:#fff;stroke:#000;stroke-miterlimit:10" transform="rotate(-12.61 61.517 51.824)"/><path d="M12.26 44.62c.06.27.06.52 0 .74-.06.23-.17.43-.33.61s-.35.33-.58.46c-.23.13-.49.22-.77.28l-3.07.69-1.42-6.35 3.4-.76c.22-.05.43-.05.63 0 .2.06.38.15.54.27.16.12.29.28.41.45.11.18.19.37.23.56.07.31.06.62-.04.92-.09.31-.28.56-.54.76.39.03.72.15.99.38s.46.55.55.97Zm-1.3.05a1.07 1.07 0 0 0-.13-.31c-.06-.1-.13-.18-.22-.24s-.17-.11-.27-.13c-.1-.02-.2-.02-.31 0l-1.9.42.37 1.67 1.83-.41c.11-.03.21-.07.3-.13s.16-.14.22-.23c.05-.09.09-.19.11-.3a.97.97 0 0 0 0-.34Zm-3.4-2.84.36 1.6 1.65-.37c.21-.05.37-.16.48-.33.11-.18.14-.39.09-.64a.88.88 0 0 0-.33-.54.655.655 0 0 0-.54-.1l-1.7.38ZM13.84 39.32l1.09-.24 3.84 5.81-1.27.28-.94-1.45-2.22.5-.23 1.71-1.27.28 1-6.89Zm2.29 3.58-1.43-2.3-.35 2.7 1.79-.4ZM19.79 40.39l.91 4.07-1.23.28-1.42-6.35.96-.21 4.24 3.43-.93-4.16 1.23-.28 1.42 6.34-1 .22-4.18-3.34ZM26.29 43.21l-1.42-6.34 1.23-.28.67 3.01 1.99-3.62 1.36-.3-1.8 3.36L31.69 42l-1.39.31-2.59-2.3-.62 1.03.42 1.9-1.23.28Z" class="cls-10"/><path d="m7.713 51.655 68.653-15.358.511 2.284L8.224 53.939zM83.282 50.853l29.13-6.517 2.838 12.687-29.13 6.517zM8.676 55.484 77.33 40.125l.511 2.284L9.187 57.767z" class="cls-11"/><path d="M108.26 37.42c-.26.27-.74.59-1.39.72-.8.16-1.58 0-2.2-.47-.46-.34-.83-.87-1.07-1.56l-.62.13-.1-.49.57-.12-.03-.15c-.03-.16-.05-.31-.07-.45l-.59.12-.1-.5.65-.13c-.02-.72.15-1.36.47-1.85.4-.63.98-1.06 1.79-1.23.59-.12 1.08-.04 1.39.05l-.06.7c-.28-.1-.72-.14-1.17-.05-.54.11-.93.39-1.2.81-.24.35-.34.84-.33 1.39l2.77-.57.1.5-2.86.58c.02.13.04.28.07.42l.04.18 2.88-.59.1.49-2.81.57c.2.56.49.95.82 1.19.45.31.98.4 1.52.29s.94-.4 1.14-.58l.3.59Z"/><path d="m9.494 59.508 68.653-15.359.51 2.284L10.006 61.79z" class="cls-11"/><path d="m10.783 64.846 26.119-5.915 3.086 13.625-26.12 5.915z" class="cls-8"/><path d="m39.013 58.451 11.388-2.548.511 2.284-11.388 2.548zM39.887 62.462l11.389-2.548.51 2.284-11.388 2.548z" class="cls-11"/><path d="m79.873 35.3 29.13-6.516 2.3 10.286-29.129 6.517z" class="cls-8"/><path d="m14.223 79.915 37.298-8.344.51 2.284-37.297 8.344z" class="cls-11"/><path d="m15.28 85.07 5.85-1.33" class="cls-7"/><path d="m33.93 80.84 70.38-15.94" style="fill:none;stroke:#f3d587;stroke-width:2px;stroke-miterlimit:10;stroke-dasharray:0 0 13.12 13.12"/><path d="m110.71 63.45 5.85-1.33" class="cls-7"/><path d="m42.75 111.33-2.2 3.52 4.05-.93c-.13-.37-.36-.86-.75-1.42-.4-.56-.78-.93-1.09-1.17Z" style="stroke:#000;stroke-miterlimit:10"/><path d="m47.06 104.44-3.61 5.77c1.06.74 2.08 2.17 2.43 3.41l6.64-1.53c-.42-1.06-1.14-2.45-2.33-4.11-1.19-1.67-2.26-2.8-3.13-3.55Z" class="cls-4"/><path d="m74.33 84.95-26.25 18.69c1.18 1.07 2.34 2.48 3.14 3.6.8 1.13 1.75 2.68 2.37 4.15L79.84 92.7c-.42-1.06-1.14-2.47-2.35-4.17-1.21-1.69-2.3-2.84-3.17-3.58Z" style="fill:#afaff9;stroke:#000;stroke-miterlimit:10"/><path d="m110.04 71.21.24-.17c1.47-1.05 1.45-1.8.19-3.73l.21-.15c.83-.59.58-1.42-.01-2.24s-1.29-1.33-2.11-.74l-.25.18c-1.47-1.75-2.35-1.92-3.55-1.07L75.4 84.19c1.19 1.08 2.34 2.47 3.15 3.6.8 1.13 1.75 2.67 2.38 4.15l3.81-2.71 1.13-.8 23.05-16.41 1.13-.8Z" style="fill:#8987f3;stroke:#000;stroke-miterlimit:10"/><path d="M109.66 73.06c-.93 1.4-1.71 2.8-2.87 4.11-2.37 2.65-5.5 4.75-8.71 6.23-1.07.5-2.13 1.04-3.2 1.47-1.06.47-2.12.89-3.15 1.3-1.05.42-2.02.84-2.97 1.34-.9.48-1.72 1.01-2.44 1.54l-1.07.88c-.32.29-.62.58-.87.87-.54.53-.84 1.09-1.15 1.52-.16.22-.82 1.09-.55 1.27.32.22 1.62-1.18 1.86-1.4.8-.74 1.72-1.3 2.67-1.81 1.65-.77 3.32-1.2 5.01-1.65 1.07-.29 2.2-.56 3.35-.97 1.14-.35 2.35-.85 3.55-1.29 1.2-.6 2.41-1.09 3.6-1.83 1.15-.73 2.31-1.52 3.32-2.46.99-.86 2.11-2.14 2.85-3.09.98-1.27 4.85-7.35 2.68-7.82h-.06c-.28 0-.64.29-.97.63l-.89 1.14Z" class="cls-4"/><path d="M-885.5-52.99H282.81v629.76H-885.5z" style="stroke:#fff;stroke-linecap:round;stroke-linejoin:round;stroke-width:8px;fill:none"/></svg>