<svg xmlns="http://www.w3.org/2000/svg" id="Calque_1" data-name="Calque 1" viewBox="0 0 200 128"><defs><style>.cls-1{fill:#76ac75}.cls-1,.cls-10,.cls-11,.cls-14,.cls-18,.cls-2,.cls-3,.cls-4,.cls-5,.cls-6,.cls-9{stroke:#000}.cls-1,.cls-10,.cls-11,.cls-18,.cls-2,.cls-3,.cls-4,.cls-5,.cls-6,.cls-9{stroke-linecap:round;stroke-linejoin:round}.cls-2{fill:#d6d6d6}.cls-3{fill:#87ccf3}.cls-4{fill:#baa584}.cls-5{fill:#fce9b9}.cls-20,.cls-6{fill:#f3d587}.cls-18,.cls-9{fill:#fff}.cls-10,.cls-11{fill:none}.cls-11,.cls-18{stroke-width:.75px}.cls-14,.cls-21{fill:#ffd4ad}.cls-14{stroke-miterlimit:10}</style></defs><path d="m84.48 122.38 14.64-13.02V45.93L84.64 37.4l-.16 84.98z" class="cls-4"/><path d="M58.71 1.79v120.62h131.43V1.79H58.71Zm25.52 120.56h.41V37.4h36.1v84.94h.41l-36.92.01Z" style="fill:#fee4cb;stroke-linecap:round;stroke-linejoin:round;stroke:#000"/><path d="M121.73 34.78v87.57h-.58l-.41-.01V37.4h-36.1v84.94l-.41.01h-.68V34.78h38.18z" class="cls-5"/><path d="M83 35.75v86.63l1.23-.03h.41V37.39h36.1v84.95h.41l1.23.04V35.75H83Z" class="cls-4"/><path d="M123.42 35.6v.38c0 .66-.44 1.21-1.04 1.36-.12.04-.24.06-.37.06H83.06s-.04 0-.06-.01c-.75-.02-1.35-.64-1.35-1.41v-.38c0-.78.63-1.41 1.41-1.41h38.95c.78 0 1.41.63 1.41 1.41Z" class="cls-4"/><path d="M151.29 69.3h14.79v5.89h-14.79z" class="cls-21"/><path d="M144.95 74.65h14.79v5.89h-14.79zM121.92 9.09h14.79v5.89h-14.79zM143.56 111.34h14.79v5.89h-14.79zM84.87 18.96h14.79v5.89H84.87zM128.64 89.13h14.79v5.89h-14.79z" class="cls-21"/><path d="m42.38 120.01-.65-.48-.48-4.16s-3.68.59-3.68.64.37 3.9.37 3.9l-.27 1.07 2.72.21 1.55-.37.43-.8ZM23.74 121.05l-.17-4.03 4.23-.05-.78 3.91-1.39 1.3-1.89-1.13z" class="cls-9"/><path d="M28.56 123.72c-.11-.34-1.24-2.35-1.52-2.86-.55.24-1.09.37-1.7.37-.55 0-1.17-.05-1.61-.39-.28.4-.63.94-.89 1.38-.24.4-.57.82-.74 1.26-.17.45-.09.97.27 1.27 1.19.99 4.54 1.23 5.97.13.43-.33.29-.95.21-1.18ZM46.9 123.67c-.69.12-1.42.07-2.11.07-1.98 0-3.96-.1-5.94-.19-.32-.02-.64-.03-.93-.16-.23-.1-.42-.27-.56-.48-.08-.13-.14-.27-.16-.42v-.16c.01-.21.09-.42.17-.61.14-.36.21-.63.35-.99 1.57 0 3.14-.29 4.66-.71.15.08.3.15.46.23l2.63 1.32c.36.18.71.36 1.07.54.09.04.17.09.26.13.25.13.61.21.79.44.04.05.07.11.1.18.15.53-.34.75-.77.82Z" class="cls-4"/><path d="M42 117.56s-1.34.54-2.94.77c-1.59.22-1.71.03-1.71.03l-2.9-19.17s-.82-2.11-1.9-4.95c-.08-.22-.17-.45-.26-.68-.38-.97-.77-2.01-1.18-3.06.04 3.1.08 6.18.11 9.15l-3.26 19.63c-1.27.45-1.36.43-2.73.43-1.26 0-1.26-.03-2.4-.48.52-6.83 1.43-19.4 1.43-19.4s-2.87-13.27-2.18-20.16c.34-3.32 1.81-6.03 2.83-7.85.64.54 1.71.98 2.5 1.17 1.32.33 1.86.38 3.18.33.21-.02.43-.03.61-.06 1.92-.22 3.15-.43 3.15-.43s2.66 5.91 3.74 9.45c1.07 3.52 2.78 17.24 2.78 17.24l1.12 18.04Z" class="cls-3"/><path d="M33.33 54.83c-.19.08-.38.15-.58.2-1.64.39-3.5-.31-4.14-.57l.2-2.78.02-.31 4.3-.83.11.89.36 3.03c-.02.06-.03.12-.06.17l-.03.1c0 .01 0 .03-.01.04h0l-.17.08ZM44.2 82.52c.01.14.01.27 0 .41 0 .36-.03.73-.03 1.09 0 .16 0 .32.05.47s.14.29.28.36.33.05.43-.08c.09-.11.09-.26.08-.4 0-.18-.01-.36-.02-.54 0-.25-.02-.49-.04-.73-.04-.5-.14-1.01-.45-1.4-.1-.12-.57-.44-.57-.08 0 .14.11.29.15.42.05.16.08.32.1.49Z" class="cls-9"/><path d="M44.49 82.75c.01.14.01.27 0 .41 0 .36-.03.73-.03 1.09 0 .16 0 .32.05.47s.14.29.28.36.33.05.43-.08c.09-.11.09-.26.08-.4 0-.18-.01-.36-.02-.54 0-.25-.02-.49-.04-.73-.04-.5-.14-1.01-.45-1.4-.1-.12-.57-.44-.57-.08 0 .14.11.29.15.42.05.16.08.32.1.49Z" class="cls-9"/><path d="M40.93 77.74c.04-.21.68-.37.96-.78.89.52 2.4 3.38 2.77 4.14.25.51.51 1.04.62 1.6.12.59.13 1.2.16 1.8 0 .09 0 .19-.02.28-.05.16-.26.27-.41.15-.32-.24-.34-.74-.37-1.11-.03-.34-.04-.69-.12-1.02-.08-.33-.26-.59-.47-.85-.16-.18-.31-.37-.47-.55-.06-.07-.13-.14-.2-.2-.1-.08-.2-.14-.33-.16-.1-.01-.26 0-.34.08-.09.09-.04.22-.02.32.03.12.08.23.13.35.09.19.21.38.24.59 0 .04.01.07.01.11.01.39-.37.86-.71.43-.07-.09-.12-.2-.17-.3-.23-.5-.57-.95-.71-1.48-.09-.34-.14-.69-.19-1.04-.2-1.31-.49-1.76-.37-2.37Z" class="cls-9"/><path d="M43.38 81.21c-.05-.07-.1-.13-.15-.2-.1-.11-.21-.22-.35-.26a.387.387 0 0 0-.41.09c-.08.09-.09.23-.08.35.04.3.24.55.42.79.09.13.18.26.24.4-.04-.21-.15-.4-.24-.59-.05-.11-.11-.22-.13-.35-.02-.1-.07-.23.02-.32.08-.08.24-.1.34-.08.12.02.23.08.33.16Z" class="cls-9"/><path d="M30.38 39.43s0 .8-.29 1.34h0M28.82 41.12c-.63-.37-1.06-1.3-1.06-1.3M26.81 48.49h0c-.07-.02-.6-.15-.9-.97-.33-.89-.71-.78-.75-1.7-.02-.87.87-.49.97-.44M34.16 40.57s-.62.37-1.31.5" class="cls-10"/><path d="M27.51 41.51c.4.02.86-.07 1.31-.39.19.12.39.17.61.15.3-.03.51-.24.65-.49l.02.01c.09.08.64.56 1.31-.09.35.43.91.47 1.43.37.31.24.73.21.73.21.02.03.06.08.07.11 1.27 1.79 1.39 3.01 1.4 3.14.08-.32.13-.62.18-.91-.07.54-.17.93-.19 1.01h0v.02h0c.02.51.02 1.82-.18 3.18-.18 1.13-.52 2.3-1.14 3.05-1.44 1.75-2.37 1.78-2.51 1.77-.14.03-1.13.18-2.82-1.33-.73-.64-1.24-1.74-1.59-2.83-.42-1.31-.61-2.61-.67-3.12h0c-.01-.06-.02-.12-.01-.18.02.05.04.08.04.08-.02-.21-.02-.42-.01-.63.14-1.05 1.1-2.8 1.22-3.1l.14-.03Z" class="cls-9"/><path d="M26.15 44.64c-.03.2-.04.38-.02.55" class="cls-10"/><path d="M26.14 45.37v-.01h0c-.04-.11-.27-.62-.43-1.32v-.02c-.32-1.41-.33-3.53 2.01-4.48 0 0 .14-.77 1.13-.65 0 0 1.14-1.25 2.52-.22.96-.27 1.22.47 1.22.47 2.64.62 2.81 3 2.66 4.42 0 .03-.01.05 0 .07" class="cls-10"/><path d="M33.68 41.54s1.36 1.98 1.36 3.11M26.11 45.15h0s0 .09.02.2h0v.02M35.04 44.65h0M35.03 44.43v.2" class="cls-10"/><path d="M34.85 47.83h0c.07-.03.57-.24.74-1.1.19-.93.58-.88.47-1.8-.11-.86-.94-.35-1.03-.29M31.98 39.92c-.17.32-.34.56-.51.73-.02.02-.03.05-.05.06M30.1 40.79h-.02" class="cls-10"/><path d="M31.02 44.54s.3 2.73.9 4.1c0 0-.12.28-1 .11" class="cls-9"/><ellipse cx="29.19" cy="45.84" class="cls-9" rx=".09" ry=".27" transform="rotate(-4.42 29.24 45.895)"/><ellipse cx="32.95" cy="45.49" class="cls-9" rx=".09" ry=".27" transform="rotate(-4.42 33.018 45.521)"/><path d="m31.11 90.48-.2-8.39" class="cls-9"/><path d="M22.21 66.62c.63-.66 1.21-1.36 1.74-2.09.03.31.01.99-.03 1.85-.07 1.72-.23 4.17-.33 5.73.37.54.71 1.1 1.03 1.65.2.35.23.77.07 1.14-.02.05-.04.1-.07.15.03.01.05.02.08.03 2.99.96 6.25 1.07 9.31.36.62-.14 1.27-.34 1.65-.88.06-.09.13-.19.17-.29.79 1 1.64 1.97 2.54 2.88.77.77 1.96.95 2.92.43.72-.38 1.13-1.12 1.13-1.87 0-.36-.09-.72-.29-1.05-.54-.92-1.1-1.79-1.72-2.67-.34-.49-.98-1.31-1.33-1.76-.15-.2-.23-.45-.22-.7.1-1.72 1-9.28-1.11-12.15-.07-.1-.13-.22-.21-.31-.9-.91-2.7-2.01-3.84-2.46-.08.05-.15.09-.23.13h0l-.17.08c-.19.08-.38.15-.58.2-1.64.39-3.5-.31-4.14-.57-.15-.06-.22-.1-.22-.1-1.03.13-2.04.36-3.02.68-1.07.36-2.02.79-2.91 1.5-.9.73-1.7 1.58-2.46 2.46-.37.43-.73.86-1.08 1.3-.17.21-.35.42-.52.63" class="cls-1"/><path d="M33.74 54.62c-.08.05-.15.09-.23.13h0c-.06.03-.11.06-.17.08-.19.08-.38.15-.58.2l.61-.25.15-.06.22-.09Z" class="cls-9"/><path d="M37.02 64.57c-.04 1-.64 7.32-.81 8.31-.1.58-.19 1.21-.54 1.69-.38.54-1.03.74-1.65.88" class="cls-10"/><path d="m30.79 78.55-2.03-.96c-.3-.14-.61-.26-.9-.42a3.78 3.78 0 0 1-.43-.26c-.12-.09-.28-.22-.06-.25.15-.02.31 0 .46.02.23.02.49.04.72-.02.13-.03.26-.11.31-.23.07-.16-.02-.35-.15-.46 0 0-.01 0-.02-.01-.14-.11-.33-.15-.5-.18-.57-.1-1.16-.13-1.71-.27-.32-.08-.61-.22-.94-.27-.27-.04-.54-.05-.82-.04l-.37-.41.02-.03c-.11-.13-.23-.26-.34-.38-.46.73-.92 1.45-1.39 2.17.29.23.47.36.48.35v-.01c.2 1.01.91 2.06 1.74 2.57.08.05.17.1.24.17.05.05.09.12.13.19.23.39.44.78.64 1.19.12.25.28.85.63.86.24 0 .41-.26.3-.48-.2-.39-.4-.78-.61-1.16-.08-.14-.17-.28-.23-.43-.02-.05-.08-.16-.05-.21.15-.27.53.24.62.35.18.2.36.41.54.61.26.29.51.57.77.85.16.18.37.51.66.39.2-.09.26-.36.11-.52-.08-.09-.17-.18-.25-.26a.374.374 0 0 0-.06-.1c-.28-.32-.55-.65-.81-.99l-.39-.51c-.05-.07-.38-.33-.27-.43.13-.12.48.25.57.32.26.17.52.35.77.52.35.23.68.48 1.03.71.22.14.58.5.84.26.14-.13.13-.37-.01-.49a.12.12 0 0 0-.05-.05c-.44-.42-.92-.78-1.41-1.15-.24-.18-.47-.36-.7-.55-.12-.1-.23-.2-.35-.3-.05-.04-.19-.13-.13-.2.05-.07.21 0 .27.02.16.06.3.18.46.23.27.1.54.19.8.29.37.14.75.28 1.12.42.22.08.56.32.78.12.16-.14.13-.46-.07-.55Z" class="cls-9"/><path d="M22.21 66.62c-.55.59-1.12 1.14-1.7 1.69 1.18 1.23 2.21 2.49 3.09 3.79.37.54.71 1.1 1.03 1.65.2.35.23.77.07 1.14-.02.05-.04.1-.07.15-.24.56-.5 1.1-.82 1.63-.26.43-.8.59-1.25.38-1.61-.75-3.12-1.75-4.49-2.87-1.15-.94-2.32-1.97-3.03-3.29-1.19-2.22-.3-4.75.93-6.74.7-1.14 1.56-2.2 2.42-3.24" class="cls-1"/><path d="m20.51 68.31-2.11-1.87" class="cls-10"/><path d="m31.7 55.17-.59 20.56M30.68 57.35h2.27" class="cls-2"/><path d="M39.99 35.54c-4.49-7.63-3.35-17.44 3.23-23.43 7.59-6.9 19.55-6.11 26.7 1.77 7.16 7.87 6.81 19.85-.78 26.75-6.71 6.1-16.84 6.19-24.04.68l-7.55 2.01 2.44-7.78Z" class="cls-9"/><path d="M46.91 28.47v-9.53c0-.49.4-.88.88-.88s.88.39.88.88v.84h8.21v-.84c0-.49.4-.88.88-.88s.88.39.88.88v.84h.02v8.76" class="cls-14"/><path d="M55.44 28.54c-1.76.19-3.53.19-5.32 0-.64.77-1.44.23-.94-.77-.05-.26-.08-.52-.11-.78-.09-.89-.05-1.77.13-2.66-.56-1.08.38-1.63 1.03-.65 1.72-.09 3.42-.09 5.11 0 .66-.99 1.57-.36.99.74.27 1.09.27 2.18.02 3.27.58 1.06-.25 1.64-.91.84Z" style="stroke-miterlimit:10;fill:#fff;stroke:#000"/><path d="M45.56 29.94h14.45v5.58H45.56z" class="cls-14"/><path d="M47.11 31.85h11.3v1.76h-11.3zM45.56 28.92v8.6H43.8v-8.6c0-.49.39-.88.88-.88s.88.4.88.88ZM61.77 28.87v8.6h-1.76v-8.6c0-.49.4-.88.88-.88s.88.39.88.88Z" class="cls-14"/><path d="M45.56 28.92s5.04-3.49 14.45-.05v1.07H45.56v-1.02Z" style="fill:#bbfedb;stroke-miterlimit:10;stroke:#000"/><path d="M32.03 50.58s-.77.51-1.76-.16" class="cls-11"/><path d="M62.06 15.37c.76-.78 1.78-1.16 3.08-1.14 1.2.02 2.15.37 2.87 1.06.71.69 1.06 1.56 1.04 2.61 0 .64-.15 1.15-.42 1.55s-.81.97-1.64 1.73c-.6.55-.99 1.02-1.17 1.4-.12.25-.2.58-.25.99s-.4.72-.81.71c-.47 0-.84-.42-.79-.9s.15-.86.28-1.19c.21-.52.68-1.12 1.39-1.79l.75-.7c.22-.2.41-.41.55-.63.26-.39.39-.79.39-1.21 0-.59-.16-1.1-.51-1.54-.35-.44-.94-.66-1.77-.68-1.03-.02-1.74.35-2.15 1.09-.16.28-.27.65-.34 1.1a.8.8 0 0 1-.81.67c-.49 0-.87-.46-.78-.95.15-.87.51-1.6 1.08-2.19Zm2.69 10.78c.5 0 .89.42.88.91v.08c0 .5-.42.89-.91.88-.5 0-.89-.42-.88-.91v-.08c0-.5.42-.89.91-.88Z" style="stroke-width:.83px;stroke-miterlimit:10;stroke:#000"/><path d="M144.49 18.79h27.47v48.93h-27.47z" class="cls-5"/><path d="M158.31 19.51s-1.72 19.96-12.88 20.82l-.21-21.17 13.09.36ZM158.8 19.51s1.72 19.96 12.88 20.82l.21-21.17-13.09.36Z" class="cls-20"/><path d="M172.47 68.71h-28.39V19.55h28.39v49.16Zm-27.12-1.27h25.85V20.82h-25.85v46.61Z" style="stroke-width:.78px;fill:#baa584;stroke-linecap:round;stroke-linejoin:round;stroke:#000"/><rect width="30.26" height="2.49" x="143.02" y="18.34" class="cls-4" rx="1.1" ry="1.1"/><rect width="32.03" height="2.49" x="142.13" y="66.38" class="cls-4" rx="1.1" ry="1.1"/><path d="m97.43 75.02-1.69.71.07 3.51" class="cls-4"/><path d="M106.74 60.07s-.77-2.82-.99-2.8c-.22.02.34 1.77.1 1.83-.24.07-2.11-3.17-2.27-3.07-.16.1.8 2.83.65 2.87-.15.04-2.59-2.78-2.85-2.6-.26.18 2.04 3.14 1.85 3.23-.19.09-2.56-1.64-2.83-1.33-.19.22 2.32 2 2.18 2.11-.14.12-2.15-.5-2.24-.27-.06.14 3.22 2.02 3.22 2.02s3.02 1.01 3.11 1.01c.1 0 .08-3 .08-3Z" class="cls-18"/><path d="m114.26 121.25.65-.48.48-4.16s3.68.59 3.68.64-.37 3.9-.37 3.9l.27 1.07-2.72.21-1.55-.37-.43-.8ZM132.9 122.29l.16-4.03-4.23-.05.79 3.9 1.38 1.31 1.9-1.13z" class="cls-9"/><path d="M128.07 124.96c.11-.34 1.24-2.35 1.52-2.86.55.24 1.09.37 1.7.37.55 0 1.17-.05 1.61-.39.28.4.63.94.89 1.38.24.4.57.82.74 1.26.17.45.09.97-.27 1.27-1.19.99-4.54 1.23-5.97.13-.43-.33-.29-.95-.21-1.18ZM109.74 124.91c.69.12 1.42.07 2.11.07 1.98 0 3.96-.1 5.94-.19.32-.02.64-.03.93-.16.23-.1.42-.27.56-.48.08-.13.14-.27.16-.42v-.16c-.01-.21-.09-.42-.17-.61-.14-.36-.21-.63-.35-.99-1.57 0-3.14-.29-4.66-.71-.15.08-.3.15-.46.23l-2.63 1.32c-.36.18-.71.36-1.07.54-.09.04-.17.09-.26.13-.25.13-.61.21-.79.44-.04.05-.07.11-.1.18-.15.53.34.75.77.82Z" class="cls-4"/><path d="M114.64 118.79s1.34.54 2.94.77c1.59.22 1.71.03 1.71.03l2.9-19.17s.82-2.11 1.9-4.95c.08-.22.17-.45.26-.68.38-.97.77-2.01 1.18-3.06-.04 3.1-.08 6.18-.11 9.15l3.26 19.63c1.27.45 1.36.43 2.73.43 1.26 0 1.26-.03 2.4-.48-.52-6.83-1.43-19.4-1.43-19.4s2.87-13.27 2.18-20.16c-.34-3.32-1.81-6.03-2.83-7.85-.64.54-1.71.98-2.5 1.17-1.32.33-1.86.38-3.18.33-.21-.02-.43-.03-.61-.06-1.92-.22-3.15-.43-3.15-.43s-2.66 5.91-3.74 9.45c-1.07 3.52-2.78 17.24-2.78 17.24l-1.12 18.04Z" class="cls-3"/><path d="M123.3 56.07c.19.08.38.15.58.2 1.64.39 3.5-.31 4.14-.57l-.2-2.78-.02-.31-4.3-.83-.11.89-.36 3.03c.02.06.03.12.06.17l.03.1c0 .01 0 .03.01.04h0l.17.08Z" class="cls-9"/><path d="M129.82 49.72h0c.07-.02.6-.15.9-.97.33-.89.71-.78.75-1.7.02-.87-.87-.49-.97-.44M122.48 41.81s.62.37 1.31.5" class="cls-10"/><path d="M129.13 42.75c-.4.02-.86-.07-1.31-.39-.19.12-.39.17-.61.15-.3-.03-.51-.24-.65-.49l-.02.01c-.09.08-.64.56-1.31-.09-.35.43-.91.47-1.43.37-.31.24-.73.21-.73.21-.02.03-.06.08-.07.11-1.27 1.79-1.39 3.01-1.4 3.14-.08-.32-.13-.62-.18-.91.07.54.17.93.19 1.01h0v.02h0c-.02.51-.02 1.82.18 3.18.18 1.13.52 2.3 1.14 3.05 1.44 1.75 2.37 1.78 2.51 1.77.14.03 1.13.18 2.82-1.33.73-.64 1.24-1.74 1.59-2.83.42-1.31.61-2.61.67-3.12h0c.01-.06.02-.12.01-.18-.02.05-.04.08-.04.08.02-.21.02-.42.01-.63-.14-1.05-1.1-2.8-1.22-3.1l-.14-.03Z" class="cls-9"/><path d="M128.28 42.46s.88.19 1.46 1.19c.53.92.76 2.94.76 2.94h0c.04-.11.27-.62.43-1.32v-.02c.32-1.41.33-3.53-2.01-4.48 0 0-.14-.77-1.13-.65 0 0-1.14-1.25-2.52-.22-.96-.27-1.22.47-1.22.47-2.64.62-2.81 3-2.66 4.42 0 .03.01.05 0 .07l1.58-2.23s.96.14 1.48-.14 1.58-.5 1.58-.5l1.16.51 1.07-.04Z" style="fill:#e9cb61;stroke-linecap:round;stroke-linejoin:round;stroke:#000"/><path d="M130.49 45.88c.03.2.04.38.02.55M122.96 42.77s-1.36 1.98-1.36 3.11M130.53 46.39h0s0 .09-.02.2h0v.02M121.59 45.89h0M121.6 45.67v.2" class="cls-10"/><path d="M121.78 49.07h0c-.07-.03-.57-.24-.74-1.1-.19-.93-.58-.88-.47-1.8.11-.86.94-.35 1.03-.29M126.53 42.03h.02" class="cls-10"/><path d="M125.62 45.78s-.3 2.73-.9 4.1c0 0 .12.28 1 .11" class="cls-9"/><ellipse cx="127.45" cy="47.08" class="cls-11" rx=".27" ry=".09" transform="rotate(-85.58 127.445 47.083)"/><ellipse cx="123.69" cy="46.72" class="cls-11" rx=".27" ry=".09" transform="rotate(-85.58 123.68 46.728)"/><path d="m125.53 91.72.19-8.39M122.9 55.86c.08.05.15.09.23.13h0c.06.03.11.06.17.08.19.08.38.15.58.2l-.61-.25-.15-.06-.22-.09Z" class="cls-9"/><path d="M140.66 65.4c-.71-1.14-1.56-2.2-2.42-3.24-.18-.21-.35-.42-.53-.63-.35-.44-.71-.87-1.08-1.3-.76-.88-1.56-1.73-2.46-2.46-.89-.71-1.83-1.14-2.91-1.5-.98-.33-1.99-.55-3.02-.68 0 0-.07.04-.22.1-.64.27-2.5.96-4.14.57a4.36 4.36 0 0 1-.58-.19l-.16-.08h0c-.08-.04-.15-.08-.23-.13-1.14.45-2.94 1.55-3.84 2.46-.08.09-.13.21-.21.31-2.1 2.87-3.24 5.52-4.46 7.59-2.46-1.83-7.04-6.19-7.04-6.19l-3.07 2.8c5.39 9.24 10.04 10.71 11.31 10.79 1.41.08 5.53-7.65 5.53-7.65.04.99-.86 7.16-.7 8.15.1.58.19 1.21.54 1.7.38.53 1.03.74 1.65.88 1.66.38 3.38.52 5.07.42.03-.05.07-.1.12-.14h.01c.15-.11.33-.15.51-.18.56-.1 1.15-.13 1.71-.28.32-.08.61-.21.94-.27.27-.04.54-.05.82-.04l.12-.13s.01.05.02.08c.02.05.04.11.07.16.24.55.5 1.1.82 1.62.11.18.27.31.45.38.25.12.54.12.8 0 1.61-.75 3.12-1.75 4.49-2.87 1.15-.94 2.32-1.97 3.03-3.29 1.2-2.22.3-4.75-.93-6.74Zm-7.63 7.94c-.09-1.55-.25-4-.32-5.72-.05-.86-.06-1.54-.03-1.85.53.73 1.11 1.42 1.74 2.09.55.58 1.13 1.14 1.7 1.69-1.17 1.23-2.21 2.49-3.09 3.79Z" class="cls-6"/><path d="M127.68 77.11c1.44-.09 2.87-.35 4.24-.79.03 0 .05-.01.08-.02M131.91 76.06s-.05-.11-.06-.17A1.332 1.332 0 0 1 132 75a23.999 23.999 0 0 1 0 0c-.11.2-.17.42-.17.64 0 .08 0 .17.02.25 0 .06.03.12.06.17" class="cls-6"/><path d="m136.19 69.49 1.99-2.01" class="cls-10"/><path d="M133.27 78.3c-.29.87-.92 1.72-1.64 2.16-.08.06-.17.11-.24.18-.05.05-.09.12-.13.18-.23.39-.44.79-.64 1.19-.12.25-.28.85-.63.86-.24.01-.41-.26-.31-.47.2-.39.4-.78.61-1.17.08-.14.17-.28.23-.43.02-.05.08-.16.05-.21-.15-.27-.53.23-.62.34-.18.21-.36.41-.54.61-.25.29-.51.57-.77.85-.17.17-.38.51-.66.39-.2-.09-.26-.36-.11-.52.08-.09.16-.18.25-.26.01-.04.03-.07.05-.1.28-.32.55-.65.82-.99.13-.16.26-.33.39-.5.05-.07.37-.33.26-.44-.12-.12-.48.26-.57.32-.25.17-.51.35-.77.52-.35.23-.68.48-1.03.71-.22.14-.58.5-.84.25a.338.338 0 0 1 .01-.49c.02-.02.03-.04.05-.05.44-.43.92-.79 1.41-1.16.23-.17.47-.36.7-.55.11-.09.23-.2.34-.3.05-.04.19-.13.13-.2-.05-.08-.21 0-.27.02-.16.06-.3.18-.46.23-.27.1-.53.2-.8.29-.38.14-.75.28-1.12.42-.22.08-.56.32-.78.12-.16-.14-.13-.46.07-.55l2.03-.96c.3-.14.61-.26.91-.42.15-.08.29-.16.43-.26.12-.1.28-.22.05-.25-.15-.02-.31.01-.46.02-.23.02-.49.04-.72-.02a.419.419 0 0 1-.3-.23c-.05-.1-.03-.22.03-.32.03-.05.07-.1.12-.14h.01c.15-.11.33-.15.51-.18.56-.1 1.15-.13 1.71-.28.32-.08.61-.21.94-.27.27-.04.54-.05.82-.04l.12-.13s.01.05.02.08c.02.05.04.11.07.16.24.55.5 1.1.82 1.62.11.18.27.31.45.38Z" class="cls-18"/><path d="M124.71 51.8s.91.6 2.03-.37" class="cls-11"/><path d="M115.16 37.23c-6.32 3.71-14.44 2.77-19.39-2.68-5.71-6.28-5.06-16.18 1.46-22.11s16.43-5.64 22.15.65c5.05 5.56 5.12 13.94.56 19.91l1.66 6.25-6.44-2.02Z" class="cls-9"/><rect width="13.73" height="13.73" x="101.53" y="16.93" rx="2.49" ry="2.49" style="fill:#87f3b9"/><path d="M115.26 22.7v6.02c0 1.06-.87 1.93-1.93 1.93h-9.87c-1.06 0-1.93-.87-1.93-1.93v-9.87c0-1.06.87-1.93 1.93-1.93h9.87" style="stroke-width:.96px;fill:none;stroke-linecap:round;stroke-linejoin:round;stroke:#000"/><path d="m103.43 20.98 4.97 7.12 8.38-11.17M126.26 40.67s0 .8.29 1.34h0M127.82 42.35c.63-.37 1.06-1.3 1.06-1.3M124.66 41.15c.17.32.34.56.51.73.02.02.03.05.05.06" class="cls-10"/><path d="M99.36 101.49h16.4" class="cls-4"/><path d="M-548.58-1248.66h2244.45v5948.74H-548.58z" style="stroke:#fff;stroke-width:8px;fill:none;stroke-linecap:round;stroke-linejoin:round"/></svg>