<svg xmlns="http://www.w3.org/2000/svg" id="Calque_1" data-name="Calque 1" viewBox="0 0 200.13 128"><defs><style>.cls-1{fill:#ff6d75}.cls-1,.cls-2,.cls-4,.cls-5,.cls-6{stroke:#000}.cls-1,.cls-2,.cls-8{stroke-linecap:round;stroke-linejoin:round}.cls-2,.cls-4{fill:#f3d587}.cls-4,.cls-5,.cls-6{stroke-miterlimit:10}.cls-5{fill:#76ac75}.cls-6,.cls-8{fill:none}.cls-8{stroke:#ff6d75;stroke-width:3px}</style></defs><path d="m139.3 10.27 5.96-.94 3.05 48.93-6.33-4.88-2.68-43.11zM127.67 9.33 118 60.52l7.59-3.12s6.75-34.12 7.09-38.29c.34-4.17-.01-7.53-.01-7.53l-5-2.25Z" class="cls-2"/><path d="m123.86 10.99 3.81-1.66L118 60.52l-2.52-4.47 8.38-45.06zM155.23 12.62l-3.59 51.97 7.17-3.99s2.69-34.67 2.54-38.86c-.15-4.18-.9-7.47-.9-7.47l-5.23-1.64Z" class="cls-2"/><path d="m151.64 14.71 3.59-2.09-3.59 51.97-3.03-4.15 3.03-45.73zM166.25 18.35l1.3 49.73 5.29-4.27s-.64-33.2-1.08-37.17-1.29-7.06-1.29-7.06l-4.22-1.23Z" class="cls-2"/><path d="m163.61 20.57 2.64-2.22 1.3 49.72-2.7-3.74-1.24-43.76zM131.78 16.94l9.03 51.3 6-5.6s-5.74-34.3-6.89-38.33c-1.15-4.03-2.67-7.04-2.67-7.04l-5.47-.34Z" class="cls-2"/><path d="m128.81 19.83 2.97-2.89 9.03 51.3-3.94-3.29-8.06-45.12z" class="cls-2"/><path d="m125.42 27.96 4.72-1.34 7.35 39.21-5.61-3.31-6.46-34.56zM102.04 29.1l4.45-2.08 13.45 37.57-6.06-2.39-11.84-33.1zM185.58 29.1l-4.45-2.08-13.45 37.57 6.06-2.39 11.84-33.1z" class="cls-2"/><path d="m112.38 14.5 5.51-.76 2.05 45.17-5.77-4.61-1.79-39.8zM163.37 26.45l4.86.65-8.91 38.89-3.81-5.27 7.86-34.27zM168.5 53.13s6.08-14.18 5.97-19.7c-.11-5.52-1.46-12.72-1.46-12.72h4.02s2.17 7.65 2.17 12.49-6.08 19.92-6.08 19.92h-4.61Z" class="cls-2"/><path d="M124.39 55.95s-8.52-12.86-9.4-18.31c-.88-5.45-.84-12.77-.84-12.77l-3.96.72s-.76 7.92.11 12.68 9.55 18.51 9.55 18.51l4.54-.83ZM143.45 66.48s5.56-17.01 4.86-23.37c-.7-6.36-3.01-14.54-3.01-14.54l4.65-.42s3.3 8.62 3.8 14.21c.5 5.59-4.96 23.65-4.96 23.65l-5.33.48ZM140.68 76.47s-9.17-15.7-9.6-22.08c-.43-6.38.54-14.86.54-14.86l-5.1.46s-1.96 9.09-1.46 14.68S134.83 77 134.83 77l5.85-.52Z" class="cls-2"/><path d="M104.97 43.21h5.01l4.2 72.26-5.6-2.4-3.61-69.86zM181.63 43.21h-5l-4.2 72.26 5.6-2.4 3.6-69.86z" class="cls-1"/><path d="M109.98 43.21s15.96 16.64 32.85 16.04 33.8-16.04 33.8-16.04l-4.2 72.26h-58.24l-4.2-72.26Z" class="cls-1"/><ellipse cx="142.9" cy="85.79" rx="27.43" ry="15.8" style="fill:#fff"/><path d="M89.23 21.81c0 .54-.07 1.18-.15 1.72-.09.62-.19 1.09-.19 1.09l-.42-.03c-.96-.03-3.4-.02-5.59.92-2.82 1.2-6.54 1.91-9.77 1.1-3.22-.8-12.89-3.62-15.71-3.82-2.82-.2-15.3-.3-19.53.4-4.23.71-10.06 1-13.49.71-3.42-.3-8.56-1.01-8.56-1.01s-.17-.19-.38-.51c-.38-.52-.91-1.37-1.14-2.26-.05-.15-.07-.3-.09-.45-.2-1.62-.05-2.8-.05-2.8l1.23.2s11.54 1.39 16.5.99c4.97-.39 8.56-2.18 17.5-2.18s14.76 2.24 18.73 3.62c3.98 1.39 6.21 2.17 9 1.38 2.78-.8 3.74-1.82 5.49-1.82s6.23.09 6.23.09.39 1.5.39 2.65Z" class="cls-5"/><path d="m88.98 27.43-.08.42s-3.19-.31-6 .89c-2.82 1.2-6.54 1.91-9.77 1.11-3.22-.81-12.89-3.63-15.71-3.83-2.82-.2-15.3-.3-19.53.4-4.23.71-10.06 1.01-13.49.71-3.42-.3-8.56-1.01-8.56-1.01s-.28-.33-.61-.82c.07-1.06.16-2.1.22-2.91.21.31.38.51.38.51s5.14.71 8.56 1.01c3.43.29 9.27 0 13.49-.71 4.23-.71 16.71-.61 19.53-.4 2.82.2 12.49 3.02 15.71 3.82 3.23.81 6.95.1 9.77-1.1 2.19-.94 4.63-.96 5.59-.92l.42.03s.06 1.3.08 2.81Z" class="cls-6"/><path d="M89.23 56.22c-.02-.9-2.07-2.96-5.26-6.26-8.03-8.29-18.06-11.91-22.63-13.3-7.29-2.2-12.96-2.46-19.1-2.74-.71-.03-7.53-.3-15.9 1.37-3.1.62-4.79 1.18-6.43 2.45-.85.66-3.47 2.23-4.05 3.02-.43-1.43-.29-4.5-.63-5.57-.53-1.72-.19-3.8-.19-6.06 0-.9.09-2.37.19-3.83.33.49.61.82.61.82s5.14.71 8.56 1.01c3.43.3 9.27 0 13.49-.71 4.23-.71 16.71-.61 19.53-.4 2.82.2 12.49 3.02 15.71 3.83 3.23.8 6.95.09 9.77-1.11 2.81-1.2 6-.89 6-.89s.03-.16.08-.4c.01 1.29.01 2.72-.08 3.63-.18 1.98-1.57 5.07-1.47 7.85.1 2.79 1.73 7.47 1.81 10.65.08 3.18 0 6.66 0 6.66ZM14.61 113.64c0-.54.07-1.18.15-1.72.09-.62.19-1.09.19-1.09l.42.03c.96.03 3.4.02 5.59-.92 2.82-1.2 6.54-1.91 9.77-1.1 3.22.8 12.89 3.62 15.71 3.82 2.82.2 15.3.3 19.53-.4s10.06-1 13.49-.71c3.42.3 8.56 1.01 8.56 1.01s.17.19.38.51c.38.52.91 1.37 1.14 2.26.05.15.07.3.09.45.2 1.62.05 2.8.05 2.8l-1.23-.2s-11.54-1.39-16.5-.99c-4.97.39-8.56 2.18-17.5 2.18s-14.76-2.24-18.73-3.62c-3.98-1.39-6.21-2.17-9-1.38-2.78.8-3.74 1.82-5.49 1.82S15 116.3 15 116.3s-.39-1.5-.39-2.65Z" class="cls-5"/><path d="m14.87 108.02.08-.42s3.19.31 6-.89c2.82-1.2 6.54-1.91 9.77-1.11 3.22.81 12.89 3.63 15.71 3.83 2.82.2 15.3.3 19.53-.4 4.23-.71 10.06-1.01 13.49-.71 3.42.3 8.56 1.01 8.56 1.01s.28.33.61.82c-.07 1.06-.16 2.1-.22 2.91-.21-.31-.38-.51-.38-.51s-5.14-.71-8.56-1.01c-3.43-.29-9.27 0-13.49.71s-16.71.61-19.53.4c-2.82-.2-12.49-3.02-15.71-3.82-3.23-.81-6.95-.1-9.77 1.1-2.19.94-4.63.96-5.59.92l-.42-.03s-.06-1.3-.08-2.81ZM15.13 79.52c-.03.67-.08 1.28-.11 1.86.2 1.24.39 2.86.44 4.43.03 1.38.2 3.05.39 4.72" class="cls-6"/><path d="M14.88 108c-.01-1.29-.01-2.72.08-3.63.18-1.98 1.57-5.07 1.47-7.85-.06-1.59-.34-3.79-.57-5.99.06.13.13.27.22.4 1.62 2.56 3.97 3.82 7.96 5.51 11.92 5.03 18.92 7.98 29.65 7.95 8.3-.03 13.92-1.83 22.02-4.43 6.39-2.06 8.44-3.44 9.79-5.51.07-.1.13-.2.18-.3.26.87 1.34 4.41 1.81 5.93.53 1.72 1.33 3.98 1.33 6.24 0 .9-.09 2.37-.19 3.83-.33-.49-.61-.82-.61-.82s-5.14-.71-8.56-1.01c-3.43-.3-9.27 0-13.49.71-4.23.71-16.71.61-19.53.4-2.82-.2-12.49-3.02-15.71-3.83-3.23-.8-6.95-.09-9.77 1.11-2.81 1.2-6 .89-6 .89s-.03.16-.08.4" class="cls-5"/><path d="M15.85 90.53c.06.13.13.27.22.4 1.62 2.56 3.97 3.82 7.96 5.51 11.92 5.03 18.92 7.98 29.65 7.95 8.3-.03 13.92-1.83 22.02-4.43 6.39-2.06 8.44-3.44 9.79-5.51.07-.1.13-.2.18-.3 1.38-2.33.76-4.12 1.35-13.61.06-.96.39-4.77 1.07-12.39.49-5.6 1.17-10.21 1.14-11.93-.02-.9-2.07-2.96-5.26-6.26-8.03-8.29-18.06-11.91-22.63-13.3-7.29-2.2-12.96-2.46-19.1-2.74-.71-.03-7.53-.3-15.9 1.37-3.1.62-4.79 1.18-6.43 2.45-.85.66-2.95 1.42-3.54 2.2-1.9 2.55-1.15 5.52-1.5 7.27-.75 3.69-.27 5.81.15 10.69.6 6.98.44 12.56.31 17.28-.04 1.63-.11 3.06-.19 4.33-.03.67-.08 1.28-.11 1.86" class="cls-5"/><ellipse cx="51.87" cy="54.62" rx="14.56" ry="31.84" style="stroke-miterlimit:10;fill:#fff;stroke:#000" transform="rotate(-79.81 51.873 54.618)"/><path d="M64.66 87c2.93-.82 5.45-2.2 6.79-5.08 1.08-2.31 1.18-5 .6-7.48-.78-3.31-3.68-6.4-7.38-4.92-2.03.82-2.67 3.58-4.37 4.92-2.34 1.84-5.22 2.87-7.51 4.8-.5.42-.99.92-1.12 1.57-.11.57.08 1.15.33 1.68 2.27 4.87 7.93 5.84 12.66 4.51ZM32.77 77.15c-2.93-.82-5.45-2.2-6.79-5.08-1.08-2.31-1.18-5-.6-7.48.78-3.31 3.68-6.4 7.38-4.92 2.03.82 2.67 3.58 4.37 4.92 2.34 1.84 5.22 2.87 7.51 4.8.5.42.99.92 1.12 1.57.11.57-.08 1.15-.33 1.68-2.27 4.87-7.93 5.84-12.66 4.51Z" class="cls-4"/><path d="M56.21 81.55c-.38 1.97-1.28 3.81-2.35 5.63-.31.53-.63 1.06-1.07 1.49-.75.75-1.94 1-2.97 1.14-.95-.62-1.63-1.05-2.14-1.41-1.33-.93-1.69-1.43-2.94-3.05-.55-.73-.87-1.7-1.21-2.33-.04-.09-.1-.17-.14-.25.33-.47.73-1.06 1.16-1.83 1.31-2.31 1.1-2.79 2.25-4.29.97-1.28 2.14-2.8 3.94-3.06 2.64-.37 5.19 1.95 5.56 4.44.18 1.23.13 2.4-.08 3.53Z" class="cls-2"/><path d="M49.85 89.88c-.08.01-.17.03-.26.04-.06.01-.12.01-.18 0-2.03.16-6.18-1.61-6.78-1.7-2.24-.36-4.21-.84-5.3-1.42-.53-.29-1.66-.9-1.89-1.96-.33-1.56 1.42-3.34 3.17-3.88.32-.1 1.57-.46 2.91.09.89.37 1.37.98 1.89 1.79.04.08.1.15.14.25.34.63.66 1.6 1.21 2.33 1.25 1.62 1.61 2.12 2.94 3.05.52.36 1.2.79 2.14 1.41Z" class="cls-2"/><path d="m58.76 16.76 94.22 98.47M152.98 16.76l-94.22 98.47" class="cls-8"/><path d="M-1245.91-1584.3h3385.57V987.37h-3385.57z" style="fill:none;stroke:#fff;stroke-width:8px;stroke-linecap:round;stroke-linejoin:round"/></svg>