<svg xmlns="http://www.w3.org/2000/svg" id="Calque_1" data-name="Calque 1" viewBox="0 0 200 128"><defs><style>.cls-1{stroke:#000;stroke-linecap:round;stroke-linejoin:round;fill:none}</style></defs><path d="m26.57 81.88 158.38.07-.34-17.47-158.38.51.34 16.89z" style="stroke-width:2.13px;fill:none;stroke:#000;stroke-linecap:round;stroke-linejoin:round"/><path d="m134.93 81.91 50.02.04-.34-17.47-50.01.54.33 16.89z" style="fill:#f3d587;stroke-width:1.42px;stroke:#000;stroke-linecap:round;stroke-linejoin:round"/><path d="M26.23 64.99s-3.63-1.47-5.78-.58c-2.15.89-1.36 5.5-3.03 6.26-1.67.76-3.34 2.01-1.7 6.67.77 2.18 1.86 1.04 3.1 2.46s2.22 2.24 3.78 2.21c1.57-.03 3.96-.13 3.96-.13l-.33-16.89Z" style="fill:#d6d6d6;stroke-width:2px;stroke:#000;stroke-linecap:round;stroke-linejoin:round"/><path d="m140.68 73.46 1.63-1.9M146.85 77.5l1.63-1.91M154.36 72.23l1.63-1.9M160.69 77.2l1.63-1.9M168.9 71.92l1.62-1.91M175.44 76.88l1.63-1.9M25.21 55.8c-.09-4.48 1.35-8.27 4.57-11.37 1.34-1.29 2.75-2.6 3.46-4.31 1.91-4.57-4.6-9.42-7.82-5.17-1.35 1.78-1.59 4.51-.09 6.16" class="cls-1"/><path d="M21.26 48.94c.62-1.94.36-4.06-.25-6.01-.61-1.94-1.55-3.76-2.31-5.65-1.12-2.77-1.87-5.8-1.32-8.74.55-2.94 2.65-5.72 5.57-6.37 1.05-.23 2.2-.16 3.1.43 1.34.88 1.76 2.83 1.08 4.29-.68 1.46-2.26 2.38-3.86 2.5" class="cls-1"/></svg>