<svg xmlns="http://www.w3.org/2000/svg" id="Calque_1" data-name="Calque 1" viewBox="0 0 200 128"><defs><style>.cls-1{fill:#ff6d75}.cls-1,.cls-2,.cls-3{stroke-linecap:round;stroke-linejoin:round}.cls-1,.cls-2,.cls-3,.cls-4,.cls-5{stroke:#000}.cls-2,.cls-5,.cls-6{fill:#f3d587}.cls-3,.cls-4{fill:#fff}.cls-4,.cls-5{stroke-miterlimit:10}</style></defs><path d="M80.15 15.65H25.97L53.08 3.44l27.07 12.21z" class="cls-1"/><path d="M25.97 15.65h54.18v45.61H25.97z" class="cls-3"/><path d="M52.46 28.95c-1.44 0-2.61-1.17-2.61-2.61s1.17-2.61 2.61-2.61 2.61 1.17 2.61 2.61-1.17 2.61-2.61 2.61Z" class="cls-6"/><path d="M52.46 24.24a2.11 2.11 0 1 1 0 4.22 2.11 2.11 0 0 1 0-4.22m0-1c-1.71 0-3.11 1.39-3.11 3.11s1.39 3.11 3.11 3.11 3.11-1.39 3.11-3.11-1.39-3.11-3.11-3.11Z"/><path d="M46.73 40.71s.12.82.85.8h.1c.51-.02.9-.45.88-.96 0 0 0-.16-.02-.45 0-.28 0-.69.02-1.17s.07-1.03.17-1.61.24-1.17.45-1.72c.11-.31.25-.61.41-.88l-.09 6.19v.29l.47 11.66c.03.55.47 1 1.02 1.02.6.03 1.1-.43 1.12-1.02l.34-9.42.35 9.42c.03.55.47 1 1.03 1.02.59.03 1.09-.43 1.12-1.02l.46-11.69v-.3l-.1-6.08c.14.26.26.53.37.81.21.55.35 1.15.45 1.72s.15 1.13.17 1.61.02.88.02 1.17c0 .28-.01.45-.01.45-.02.47.33.9.81.96.37.04.72-.19.89-.53l.14-.28s.02-.17.05-.48c.03-.31.07-.75.09-1.29.02-.54.02-1.17-.03-1.85-.06-.69-.17-1.43-.38-2.17a8.58 8.58 0 0 0-.92-2.13c-.2-.32-.42-.63-.67-.9-.24-.27-.49-.51-.74-.71a5.304 5.304 0 0 0-1.85-1c-.76-.21-1.63-.18-2.35-.04a3.157 3.157 0 0 0-.66.21c-.38.16-.87.42-1.37.83-.25.2-.5.44-.74.71-.24.27-.46.58-.67.9-.41.65-.71 1.39-.92 2.13-.21.74-.32 1.48-.38 2.17-.06.68-.06 1.32-.04 1.85.02.54.06.98.09 1.29.03.31.06.48.06.48" class="cls-5"/><circle cx="76.44" cy="17.91" r="13.81" class="cls-4" transform="rotate(-2.76 76.617 17.837)"/><path d="M72.7 24.32h-2.52V15.7h-2.94v-1.67c.78-.03 1.32-.09 1.63-.16.49-.11.9-.33 1.21-.65.21-.22.37-.52.48-.9.06-.22.09-.39.09-.5h2.04v12.49ZM82.54 19.64c-.07.22-.11.56-.11 1.02H80.1c.03-.97.13-1.64.28-2.01s.53-.8 1.15-1.28l.63-.49c.21-.16.37-.32.5-.51.23-.32.34-.66.34-1.04 0-.44-.13-.83-.38-1.19s-.72-.54-1.4-.54-1.14.22-1.42.66-.42.9-.42 1.38h-2.49c.07-1.64.64-2.8 1.71-3.48.68-.44 1.51-.65 2.5-.65 1.3 0 2.38.31 3.24.93s1.29 1.54 1.29 2.76c0 .75-.19 1.38-.56 1.89-.22.31-.64.71-1.26 1.19l-.61.47c-.33.26-.55.56-.66.9Zm.07 4.69h-2.57v-2.49h2.57v2.49Z"/><path d="M164.25 15.65h-54.19l27.11-12.21 27.08 12.21z" class="cls-1"/><path d="M110.06 15.65h54.18v45.61h-54.18z" class="cls-3"/><path d="M146.12 28.47c-1.44 0-2.61-1.17-2.61-2.61s1.17-2.61 2.61-2.61 2.61 1.17 2.61 2.61-1.17 2.61-2.61 2.61Z" class="cls-6"/><path d="M146.12 23.76a2.11 2.11 0 1 1 0 4.22 2.11 2.11 0 0 1 0-4.22m0-1c-1.71 0-3.11 1.39-3.11 3.11s1.39 3.11 3.11 3.11 3.11-1.39 3.11-3.11-1.39-3.11-3.11-3.11Z"/><path d="M140.39 40.23s.12.82.85.8h.1c.51-.02.9-.45.88-.96 0 0 0-.16-.02-.45 0-.28 0-.69.02-1.17s.07-1.03.17-1.61.24-1.17.45-1.72c.11-.31.25-.61.41-.88l-.09 6.19v.29l.47 11.66c.03.55.47 1 1.02 1.02.6.03 1.1-.43 1.12-1.02l.34-9.42.35 9.42c.03.55.47 1 1.03 1.02.59.03 1.09-.43 1.12-1.02l.46-11.69v-.3l-.1-6.08c.14.26.26.53.37.81.21.55.35 1.15.45 1.72s.15 1.13.17 1.61.02.88.02 1.17c0 .28-.01.45-.01.45-.02.47.33.9.81.96.37.04.72-.19.89-.53l.14-.28s.02-.17.05-.48c.03-.31.07-.75.09-1.29.02-.54.02-1.17-.03-1.85-.06-.69-.17-1.43-.38-2.17a8.58 8.58 0 0 0-.92-2.13c-.2-.32-.42-.63-.67-.9-.24-.27-.49-.51-.74-.71a5.304 5.304 0 0 0-1.85-1c-.76-.21-1.63-.18-2.35-.04a3.157 3.157 0 0 0-.66.21c-.38.16-.87.42-1.37.83-.25.2-.5.44-.74.71-.24.27-.46.58-.67.9-.41.65-.71 1.39-.92 2.13-.21.74-.32 1.48-.38 2.17-.06.68-.06 1.32-.04 1.85.02.54.06.98.09 1.29.03.31.06.48.06.48" class="cls-5"/><path d="M128.64 28.47c-1.44 0-2.61-1.17-2.61-2.61s1.17-2.61 2.61-2.61 2.61 1.17 2.61 2.61-1.17 2.61-2.61 2.61Z" class="cls-6"/><path d="M128.64 23.76a2.11 2.11 0 1 1 0 4.22 2.11 2.11 0 0 1 0-4.22m0-1c-1.72 0-3.11 1.39-3.11 3.11s1.39 3.11 3.11 3.11 3.11-1.39 3.11-3.11-1.39-3.11-3.11-3.11Z"/><path d="M122.91 40.23s.12.82.85.8h.1c.51-.02.9-.45.88-.96 0 0 0-.16-.02-.45 0-.28 0-.69.02-1.17s.07-1.03.17-1.61.24-1.17.45-1.72c.11-.31.25-.61.41-.88l-.09 6.19v.29l.47 11.66c.03.55.47 1 1.02 1.02.6.03 1.1-.43 1.12-1.02l.34-9.42.35 9.42c.03.55.47 1 1.03 1.02.59.03 1.09-.43 1.12-1.02l.46-11.69v-.3l-.1-6.08c.14.26.26.53.37.81.21.55.35 1.15.45 1.72s.15 1.13.17 1.61.02.88.02 1.17c0 .28-.01.45-.01.45-.02.47.33.9.81.96.37.04.72-.19.89-.53l.14-.28s.02-.17.05-.48c.03-.31.07-.75.09-1.29.02-.54.02-1.17-.03-1.85-.06-.69-.17-1.43-.38-2.17a8.58 8.58 0 0 0-.92-2.13c-.2-.32-.42-.63-.67-.9-.24-.27-.49-.51-.74-.71a5.304 5.304 0 0 0-1.85-1c-.76-.21-1.63-.18-2.35-.04a3.157 3.157 0 0 0-.66.21c-.38.16-.87.42-1.37.83-.25.2-.5.44-.74.71-.24.27-.46.58-.67.9-.41.65-.71 1.39-.92 2.13-.21.74-.32 1.48-.38 2.17-.06.68-.06 1.32-.04 1.85.02.54.06.98.09 1.29.03.31.06.48.06.48" class="cls-5"/><path d="M80.15 79.1H25.97l27.11-12.21L80.15 79.1z" class="cls-1"/><path d="M25.97 79.1h54.18v45.61H25.97z" class="cls-3"/><path d="M164.25 79.1h-54.19l27.11-12.21 27.08 12.21z" class="cls-1"/><path d="M110.06 79.1h54.18v45.61h-54.18z" class="cls-3"/><circle cx="76.44" cy="78.62" r="13.81" class="cls-4" transform="rotate(-2.76 76.605 78.685)"/><path d="M69.77 74.87c-.28.37-.41.86-.4 1.47h-2.29c.02-.62.13-1.21.32-1.77.2-.49.52-.94.95-1.35.32-.29.7-.52 1.15-.67s.99-.23 1.63-.23c1.19 0 2.16.31 2.89.93s1.1 1.45 1.1 2.49c0 .74-.22 1.36-.65 1.86-.28.32-.56.53-.86.65.22 0 .55.19.97.58.63.58.94 1.37.94 2.38 0 1.06-.37 1.99-1.1 2.79s-1.82 1.2-3.25 1.2c-1.77 0-3-.58-3.69-1.73-.36-.61-.56-1.42-.6-2.41h2.41c0 .5.08.91.24 1.24.3.6.84.9 1.63.9.48 0 .9-.17 1.26-.5s.54-.81.54-1.43c0-.82-.33-1.37-1-1.65-.38-.16-.98-.23-1.79-.23v-1.76c.8-.01 1.36-.09 1.67-.23.55-.24.82-.73.82-1.46 0-.48-.14-.86-.42-1.16s-.67-.45-1.18-.45c-.58 0-1.01.18-1.28.55ZM82.91 80.19c-.07.22-.11.56-.11 1.02h-2.33c.03-.97.13-1.64.28-2.01s.53-.8 1.15-1.28l.63-.49c.21-.16.37-.32.5-.51.23-.32.34-.66.34-1.04 0-.44-.13-.83-.38-1.19s-.72-.54-1.4-.54-1.14.22-1.42.66-.42.9-.42 1.38h-2.49c.07-1.64.64-2.8 1.71-3.48.68-.44 1.51-.65 2.5-.65 1.3 0 2.38.31 3.24.93S86 74.53 86 75.75c0 .75-.19 1.38-.56 1.89-.22.31-.64.71-1.26 1.19l-.61.47c-.33.26-.55.56-.66.9Zm.07 4.69h-2.57v-2.49h2.57v2.49Z"/><path d="M36.5 96.17a2.311 2.311 0 0 1 0-4.62c1.28 0 2.3 1.03 2.3 2.31s-1.03 2.31-2.3 2.31Z" class="cls-6"/><path d="M36.5 92.06a1.81 1.81 0 1 1 0 3.62 1.81 1.81 0 0 1 0-3.62m0-1c-1.55 0-2.81 1.26-2.81 2.81s1.26 2.81 2.81 2.81 2.81-1.26 2.81-2.81-1.26-2.81-2.81-2.81Z"/><path d="M31.32 106.84s.11.74.77.72h.09c.46-.02.81-.41.8-.87 0 0 0-.15-.01-.4 0-.26 0-.62.01-1.05.02-.43.07-.93.15-1.45s.22-1.06.41-1.55c.1-.28.23-.55.37-.79l-.08 5.59v.26l.43 10.53c.02.49.42.9.93.93a.98.98 0 0 0 1.02-.93l.31-8.51.32 8.51c.02.49.42.9.93.93a.98.98 0 0 0 1.02-.93l.41-10.56V107l-.09-5.49c.12.23.24.48.33.74.19.5.32 1.04.4 1.55s.13 1.02.15 1.45.02.8.01 1.05c0 .26-.01.4-.01.4-.02.43.3.81.73.86.34.04.65-.17.8-.48l.12-.25s.02-.16.05-.44c.03-.28.06-.68.08-1.16.02-.48.02-1.06-.03-1.67-.05-.62-.16-1.29-.34-1.96-.19-.67-.47-1.33-.83-1.92-.18-.29-.38-.57-.6-.81-.21-.25-.44-.46-.67-.65-.45-.37-.9-.61-1.24-.75-.17-.07-.32-.12-.44-.15-.69-.19-1.47-.16-2.13-.04-.05.01-.1.02-.16.04-.12.03-.26.08-.43.15-.34.14-.79.38-1.24.75-.23.18-.46.4-.67.65-.21.25-.42.52-.6.81-.37.59-.64 1.25-.83 1.92-.19.67-.29 1.34-.34 1.96-.05.62-.05 1.19-.03 1.67a18.121 18.121 0 0 0 .13 1.6h0" class="cls-2"/><path d="M53.01 96.17a2.311 2.311 0 0 1 0-4.62c1.28 0 2.3 1.03 2.3 2.31s-1.03 2.31-2.3 2.31Z" class="cls-6"/><path d="M53.01 92.06a1.81 1.81 0 1 1 0 3.62 1.81 1.81 0 0 1 0-3.62m0-1c-1.55 0-2.81 1.26-2.81 2.81s1.26 2.81 2.81 2.81 2.81-1.26 2.81-2.81-1.26-2.81-2.81-2.81Z"/><path d="M47.84 106.84s.11.74.77.72h.09c.46-.02.81-.41.8-.87 0 0 0-.15-.01-.4 0-.26 0-.62.01-1.05.02-.43.07-.93.15-1.45s.22-1.06.41-1.55c.1-.28.23-.55.37-.79l-.08 5.59v.26l.43 10.53c.02.49.42.9.93.93a.98.98 0 0 0 1.02-.93l.31-8.51.32 8.51c.02.49.42.9.93.93a.98.98 0 0 0 1.02-.93l.41-10.56V107l-.09-5.49c.12.23.24.48.33.74.19.5.32 1.04.4 1.55s.13 1.02.15 1.45.02.8.01 1.05c0 .26-.01.4-.01.4-.02.43.3.81.73.86.34.04.65-.17.8-.48l.12-.25s.02-.16.05-.44c.03-.28.06-.68.08-1.16.02-.48.02-1.06-.03-1.67-.05-.62-.16-1.29-.34-1.96-.19-.67-.47-1.33-.83-1.92-.18-.29-.38-.57-.6-.81-.21-.25-.44-.46-.67-.65-.45-.37-.9-.61-1.24-.75-.17-.07-.32-.12-.44-.15-.69-.19-1.47-.16-2.13-.04-.05.01-.1.02-.16.04-.12.03-.26.08-.43.15-.34.14-.79.38-1.24.75-.23.18-.46.4-.67.65-.21.25-.42.52-.6.81-.37.59-.64 1.25-.83 1.92-.19.67-.29 1.34-.34 1.96-.05.62-.05 1.19-.03 1.67a18.121 18.121 0 0 0 .13 1.6h0" class="cls-2"/><circle cx="69.53" cy="93.86" r="2.31" class="cls-6"/><path d="M69.53 92.06a1.81 1.81 0 1 1 0 3.62 1.81 1.81 0 0 1 0-3.62m0-1c-1.55 0-2.81 1.26-2.81 2.81s1.26 2.81 2.81 2.81 2.81-1.26 2.81-2.81-1.26-2.81-2.81-2.81Z"/><path d="M64.35 106.84s.11.74.77.72h.09c.46-.02.81-.41.8-.87 0 0 0-.15-.01-.4 0-.26 0-.62.01-1.05.02-.43.07-.93.15-1.45s.22-1.06.41-1.55c.1-.28.23-.55.37-.79l-.08 5.59v.26l.43 10.53c.02.49.42.9.93.93a.98.98 0 0 0 1.02-.93l.31-8.51.32 8.51c.02.49.42.9.93.93a.98.98 0 0 0 1.02-.93l.41-10.56V107l-.09-5.49c.12.23.24.48.33.74.19.5.32 1.04.4 1.55s.13 1.02.15 1.45.02.8.01 1.05c0 .26-.01.4-.01.4-.02.43.3.81.73.86.34.04.65-.17.8-.48l.12-.25s.02-.16.05-.44c.03-.28.06-.68.08-1.16.02-.48.02-1.06-.03-1.67-.05-.62-.16-1.29-.34-1.96-.19-.67-.47-1.33-.83-1.92-.18-.29-.38-.57-.6-.81-.21-.25-.44-.46-.67-.65-.45-.37-.9-.61-1.24-.75-.17-.07-.32-.12-.44-.15-.69-.19-1.47-.16-2.13-.04-.05.01-.1.02-.16.04-.12.03-.26.08-.43.15-.34.14-.79.38-1.24.75-.23.18-.46.4-.67.65-.21.25-.42.52-.6.81-.37.59-.64 1.25-.83 1.92-.19.67-.29 1.34-.34 1.96-.05.62-.05 1.19-.03 1.67a18.121 18.121 0 0 0 .13 1.6h0" class="cls-2"/><circle cx="143.65" cy="97.38" r="1.65" class="cls-6"/><path d="M143.65 96.24c.63 0 1.15.52 1.15 1.15s-.52 1.15-1.15 1.15-1.15-.52-1.15-1.15.52-1.15 1.15-1.15m0-1c-1.19 0-2.15.96-2.15 2.15s.96 2.15 2.15 2.15 2.15-.96 2.15-2.15-.96-2.15-2.15-2.15Z"/><path d="M139.69 107.32s.08.57.59.55h.07c.35-.02.62-.31.61-.67 0 0 0-.11-.01-.31 0-.2 0-.48.01-.81.02-.33.05-.71.12-1.11s.17-.81.31-1.19c.08-.22.17-.42.28-.61l-.06 4.28v.2l.33 8.06c.02.38.32.69.71.71.41.02.76-.3.78-.71l.24-6.52.24 6.52c.02.38.33.69.71.71.41.02.76-.3.78-.71l.32-8.09v-.21l-.07-4.2c.1.18.18.36.26.56.14.38.24.79.31 1.19s.1.78.12 1.11.01.61.01.81v.31c-.01.33.23.62.56.66.26.03.5-.13.61-.37l.09-.19s.01-.12.04-.33c.02-.21.05-.52.06-.89.01-.37.01-.81-.02-1.28-.04-.48-.12-.99-.26-1.5-.15-.51-.36-1.02-.64-1.47-.14-.22-.29-.44-.46-.62-.16-.19-.34-.35-.51-.49-.35-.29-.69-.47-.95-.58-.13-.06-.24-.09-.33-.12-.53-.15-1.13-.12-1.63-.03-.04 0-.08.02-.12.03-.09.02-.2.06-.33.12-.26.11-.6.29-.95.58-.17.14-.35.31-.51.49-.16.19-.32.4-.46.62-.28.45-.49.96-.63 1.47-.15.51-.22 1.02-.26 1.5-.04.47-.04.91-.03 1.28.01.37.04.68.06.89.02.21.04.33.04.33h0" class="cls-2"/><circle cx="156.39" cy="97.38" r="1.65" class="cls-6"/><path d="M156.39 96.24c.63 0 1.15.52 1.15 1.15s-.52 1.15-1.15 1.15-1.15-.52-1.15-1.15.52-1.15 1.15-1.15m0-1c-1.19 0-2.15.96-2.15 2.15s.96 2.15 2.15 2.15 2.15-.96 2.15-2.15-.96-2.15-2.15-2.15Z"/><path d="M152.42 107.32s.08.57.59.55h.07c.35-.02.62-.31.61-.67 0 0 0-.11-.01-.31 0-.2 0-.48.01-.81.02-.33.05-.71.12-1.11s.17-.81.31-1.19c.08-.22.17-.42.28-.61l-.06 4.28v.2l.33 8.06c.02.38.32.69.71.71.41.02.76-.3.78-.71l.24-6.52.24 6.52c.02.38.33.69.71.71.41.02.76-.3.78-.71l.32-8.09v-.21l-.07-4.2c.1.18.18.36.26.56.14.38.24.79.31 1.19s.1.78.12 1.11.01.61.01.81v.31c-.01.33.23.62.56.66.26.03.5-.13.61-.37l.09-.19s.01-.12.04-.33c.02-.21.05-.52.06-.89.01-.37.01-.81-.02-1.28-.04-.48-.12-.99-.26-1.5-.15-.51-.36-1.02-.64-1.47-.14-.22-.29-.44-.46-.62-.16-.19-.34-.35-.51-.49-.35-.29-.69-.47-.95-.58-.13-.06-.24-.09-.33-.12-.53-.15-1.13-.12-1.63-.03-.04 0-.08.02-.12.03-.09.02-.2.06-.33.12-.26.11-.6.29-.95.58-.17.14-.35.31-.51.49-.16.19-.32.4-.46.62-.28.45-.49.96-.63 1.47-.15.51-.22 1.02-.26 1.5-.04.47-.04.91-.03 1.28.01.37.04.68.06.89.02.21.04.33.04.33h0" class="cls-2"/><circle cx="117.71" cy="96.98" r="1.65" class="cls-6"/><path d="M117.71 95.83c.63 0 1.15.52 1.15 1.15s-.52 1.15-1.15 1.15-1.15-.52-1.15-1.15.52-1.15 1.15-1.15m0-1c-1.19 0-2.15.96-2.15 2.15s.96 2.15 2.15 2.15 2.15-.96 2.15-2.15-.96-2.15-2.15-2.15Z"/><path d="M113.74 106.92s.08.57.59.55h.07c.35-.02.62-.31.61-.67 0 0 0-.11-.01-.31 0-.2 0-.48.01-.81.02-.33.05-.71.12-1.11s.17-.81.31-1.19c.08-.22.17-.42.28-.61l-.06 4.28v.2l.33 8.06c.02.38.32.69.71.71.41.02.76-.3.78-.71l.24-6.52.24 6.52c.02.38.33.69.71.71.41.02.76-.3.78-.71l.32-8.09v-.21l-.07-4.2c.1.18.18.36.26.56.14.38.24.79.31 1.19s.1.78.12 1.11.01.61.01.81v.31c-.01.33.23.62.56.66.26.03.5-.13.61-.37l.09-.19s.01-.12.04-.33c.02-.21.05-.52.06-.89.01-.37.01-.81-.02-1.28-.04-.48-.12-.99-.26-1.5-.15-.51-.36-1.02-.64-1.47-.14-.22-.29-.44-.46-.62-.16-.19-.34-.35-.51-.49-.35-.29-.69-.47-.95-.58-.13-.06-.24-.09-.33-.12-.53-.15-1.13-.12-1.63-.03-.04 0-.08.02-.12.03-.09.02-.2.06-.33.12-.26.11-.6.29-.95.58-.17.14-.35.31-.51.49-.16.19-.32.4-.46.62-.28.45-.49.96-.63 1.47-.15.51-.22 1.02-.26 1.5-.04.47-.04.91-.03 1.28.01.37.04.68.06.89.02.21.04.33.04.33h0" class="cls-2"/><circle cx="130.44" cy="96.98" r="1.65" class="cls-6"/><path d="M130.44 95.83c.63 0 1.15.52 1.15 1.15s-.52 1.15-1.15 1.15-1.15-.52-1.15-1.15.52-1.15 1.15-1.15m0-1c-1.19 0-2.15.96-2.15 2.15s.96 2.15 2.15 2.15 2.15-.96 2.15-2.15-.96-2.15-2.15-2.15Z"/><path d="M126.48 106.92s.08.57.59.55h.07c.35-.02.62-.31.61-.67 0 0 0-.11-.01-.31 0-.2 0-.48.01-.81.02-.33.05-.71.12-1.11s.17-.81.31-1.19c.08-.22.17-.42.28-.61l-.06 4.28v.2l.33 8.06c.02.38.32.69.71.71.41.02.76-.3.78-.71l.24-6.52.24 6.52c.02.38.33.69.71.71.41.02.76-.3.78-.71l.32-8.09v-.21l-.07-4.2c.1.18.18.36.26.56.14.38.24.79.31 1.19s.1.78.12 1.11.01.61.01.81v.31c-.01.33.23.62.56.66.26.03.5-.13.61-.37l.09-.19s.01-.12.04-.33c.02-.21.05-.52.06-.89.01-.37.01-.81-.02-1.28-.04-.48-.12-.99-.26-1.5-.15-.51-.36-1.02-.64-1.47-.14-.22-.29-.44-.46-.62-.16-.19-.34-.35-.51-.49-.35-.29-.69-.47-.95-.58-.13-.06-.24-.09-.33-.12-.53-.15-1.13-.12-1.63-.03-.04 0-.08.02-.12.03-.09.02-.2.06-.33.12-.26.11-.6.29-.95.58-.17.14-.35.31-.51.49-.16.19-.32.4-.46.62-.28.45-.49.96-.63 1.47-.15.51-.22 1.02-.26 1.5-.04.47-.04.91-.03 1.28.01.37.04.68.06.89.02.21.04.33.04.33h0" class="cls-2"/><circle cx="160.22" cy="17.91" r="13.81" class="cls-4" transform="rotate(-2.76 160.306 17.984)"/><path d="M156.27 14.37c-.29-.35-.71-.53-1.26-.53-.75 0-1.26.28-1.53.84-.16.32-.25.83-.28 1.53h-2.39c.04-1.06.23-1.92.58-2.58.65-1.25 1.82-1.87 3.49-1.87 1.32 0 2.37.37 3.15 1.1s1.17 1.7 1.17 2.91c0 .92-.28 1.75-.83 2.46-.36.48-.96 1.01-1.78 1.59l-.98.7c-.61.44-1.04.75-1.26.95s-.42.42-.57.68h5.45v2.16h-8.56c.02-.9.22-1.71.58-2.46.35-.83 1.18-1.71 2.48-2.65 1.13-.81 1.86-1.39 2.2-1.74.51-.55.77-1.14.77-1.79 0-.53-.15-.97-.44-1.32ZM166.65 19.64c-.07.22-.11.56-.11 1.02h-2.33c.03-.97.13-1.64.28-2.01s.53-.8 1.15-1.28l.63-.49c.21-.16.37-.32.5-.51.23-.32.34-.66.34-1.04 0-.44-.13-.83-.38-1.19s-.72-.54-1.4-.54-1.14.22-1.42.66-.42.9-.42 1.38H161c.07-1.64.64-2.8 1.71-3.48.68-.44 1.51-.65 2.5-.65 1.3 0 2.38.31 3.24.93s1.29 1.54 1.29 2.76c0 .75-.19 1.38-.56 1.89-.22.31-.64.71-1.26 1.19l-.61.47c-.33.26-.55.56-.66.9Zm.07 4.69h-2.57v-2.49h2.57v2.49Z"/><circle cx="160.17" cy="78.69" r="13.81" class="cls-4" transform="rotate(-2.76 160.294 78.832)"/><path d="M159.36 80.49v1.92h-1.41v2.69h-2.4v-2.69h-4.95v-2.15l4.59-7.58h2.76v7.81h1.41Zm-6.95 0h3.13V75.1l-3.13 5.39ZM166.65 80.41c-.07.22-.11.56-.11 1.02h-2.33c.03-.97.13-1.64.28-2.01s.53-.8 1.15-1.28l.63-.49c.21-.16.37-.32.5-.51.23-.32.34-.66.34-1.04 0-.44-.13-.83-.38-1.19s-.72-.54-1.4-.54-1.14.22-1.42.66-.42.9-.42 1.38H161c.07-1.64.64-2.8 1.71-3.48.68-.44 1.51-.65 2.5-.65 1.3 0 2.38.31 3.24.93s1.29 1.54 1.29 2.76c0 .75-.19 1.38-.56 1.89-.22.31-.64.71-1.26 1.19l-.61.47c-.33.26-.55.56-.66.9Zm.07 4.69h-2.57v-2.49h2.57v2.49Z"/></svg>