<svg xmlns="http://www.w3.org/2000/svg" id="Calque_1" data-name="Calque 1" viewBox="0 0 128 128"><defs><style>.cls-1,.cls-4,.cls-6,.cls-8{stroke:#000;stroke-linecap:round;stroke-linejoin:round}.cls-1,.cls-6{fill:#76ac75}.cls-4,.cls-8{fill:none}.cls-8{stroke-width:2px}.cls-6{stroke-width:.5px}</style></defs><path d="M31.58 37.36c-.76-.45-1.43.97-1.98 2.31 0 .01-.01.02-.02.05s-.02.04-.02.06c-.29.67-.55 1.31-.77 1.66h-.01s0 .02-.01.04c-.19.27-.36.36-.51.1v58.59c0 .11 0 .22.01.33.53 5.26 13.43 9.75 26.25 11.71.02.01.05.01.09.01 4.44.68 8.86 1.05 12.74 1.05 6 0 12.87-.89 19.04-2.41.01 0 .02 0 .04-.01 9.64-2.37 17.51-6.28 17.51-10.69V71.64c0-9.64-.01-19.36-.01-25.55v-1.61l-3.32-7.09s-56.72-.04-69-.04Z" style="fill:#76ac75"/><path d="M39.45 26.78v3.14c0 4.19-2.33 4.3-6.04 6.24-.06.04-.11.06-.17.09-.6.31-1.15.68-1.66 1.12-.78.66-1.45 1.44-1.98 2.31 0 .01-.01.02-.02.05-.01.01-.02.04-.04.05a8.66 8.66 0 0 0-.76 1.67h-.01a9.37 9.37 0 0 0-.51 3.04v58.09c0 4.39 13.16 8.14 26.25 9.65.02.01.05.01.09.01 3.96.46 7.91.71 11.49.71 6.26 0 13.68-.76 20.29-2.06.01 0 .02 0 .04-.01 9.63-1.89 17.51-4.9 17.51-8.3V71.67c0-9.64-.01-19.36-.01-25.55v-1.61c0-2.44-.96-4.74-2.6-6.44h-.01c-.22-.24-.46-.46-.71-.66-.51-.43-1.05-.81-1.65-1.12l-.2-.11c-3.7-1.93-6.02-2.05-6.02-6.23v-3.16" class="cls-8"/><path d="M103.91 46.11V94c-3.41.92-7.47 1.72-12.1 2.34-7.37.99-16.07 1.57-25.4 1.57s-18.03-.58-25.37-1.57c-4.93-.67-9.31-1.52-12.79-2.52V45.96c8.75 1.81 22.58 2.96 38.16 2.96s28.7-1.1 37.5-2.81Z" style="fill:#f3d587;stroke-width:2px;stroke-linecap:round;stroke-linejoin:round;stroke:#000"/><path d="M102.52 17.95v6.54c0 1.26-1.61 2.29-3.6 2.29H33.24c-1.99 0-3.6-1.02-3.6-2.29v-6.54c0-1.26 1.61-2.29 3.6-2.29h65.68c1.99 0 3.6 1.02 3.6 2.29Z" style="stroke-width:2px;fill:#d6d6d6;stroke-linecap:round;stroke-linejoin:round;stroke:#000"/><path d="m29.54 39.78-.01-.01" class="cls-8"/><path d="M48.65 59.64c.88.1 1.77.04 2.62-.22 2.34-.71 5.19-2.06 9.11-1.23 4.9 1.04 7.45 6.53 6.57 10.75-.88 4.22-1.96 10.73-6.18 14.97s-12.65 3.01-14.7 2.89c-2.06-.12-7.16-2.62-9.31-8.18-2.16-5.56-2.35-7.07-1.86-10.83.49-3.75 2.38-8.41 7.74-8.41 3.17 0 5.03.14 6.02.26Z" style="fill:#ff6d75;stroke-linecap:round;stroke-linejoin:round;stroke:#000"/><path d="M52.03 60.32s-1.55.85-1.86 1.33c-.62-.45-.9-.79-1.59-.84" class="cls-4"/><path d="M50.09 58.92s1.51-.5 2.18-3.58.47-4.61.47-4.61-2.45 1.82-2.95 3.71c-.25.92-.36 2.52-.36 2.52l.67 1.96Z" class="cls-1"/><path d="M50.58 60.99s-.03-2.23-.28-3.06-1.57-2.82-1.86-3.07-.12 1.63-.12 1.63.97.8 1.18 1.81.45 2.97.45 2.97l.62-.28Z" class="cls-6"/><path d="M80.21 68.23s0 .05-.01.08l.03-.21c0 .05-.01.09-.02.13Z" class="cls-4"/><path d="M94.47 67.79c-.24-.53-1.55-3.07-3.77-4.28a5.12 5.12 0 0 0-2.24-.65c-.64-.03-1.34.05-2.04.24a9.255 9.255 0 0 0-3.26 1.65c-.02.02-.04.03-.07.05l-.13.1c-.02.02-.04.04-.07.06a.5.5 0 0 0-.08.07c-.1.09-.2.17-.3.27-.06.05-.11.1-.16.16-.19.18-.37.37-.55.57l-.17.2c-.07.08-.14.16-.2.25-.11.13-.21.27-.31.42-.04.05-.07.11-.11.17-.1.15-.2.31-.29.47l-.15.27c-.01.03-.03.05-.04.08-.06.11-.11.22-.16.33-.04.09-.09.19-.13.28-.03.07-.06.13-.08.19-.02.04-.03.07-.04.11-.01.03-.02.05-.03.07 0-.02.01-.04.01-.07 0-.03.02-.06.03-.09 0-.03 0-.05.01-.07 0-.03.01-.06.02-.08 0-.04.01-.09.02-.13 0-.03.01-.06.02-.1v-.09h0c0-.06.01-.1.02-.14v-.04s0-.08.01-.11h0V67.8h0v-.08c0-.05 0-.1.01-.16V67.27c.04-.9-.02-2-.25-3-.1-.4-.97-2.64-3.24-3.55-.66-.27-1.33-.32-1.96-.26-1.29.13-2.43.77-3.04 1.12-5.21 2.91-6.34 9.86-6.58 11.37-1.1 6.79.87 14.97 4.15 15.59.12.03.24.04.37.04 1.29.05 3.12-.7 4.35-1.76.12-.11.24-.21.35-.31.89-.83 1.32-1.47 1.87-1.83 0 .33.02.81.04 1.27.02.57.04 1.11.04 1.29.01.52.08 1.03.2 1.52.5 1.98 1.86 3.58 3.64 4.22 1.28.46 2.68-.04 3.91-.76.83-.49 1.58-1.07 2.17-1.53 6.25-4.94 10.95-16.62 8.15-22.89Zm-16.86 6.07c-.03.07-.06.15-.09.23-.01.04-.03.09-.05.13-.02.05-.04.1-.06.14 0 .02-.01.03-.02.05-.02.05-.04.1-.06.14-.04.09-.07.17-.11.25h0c-.04.09-.08.17-.12.25-.13.26-.27.47-.4.6-.51.5-.91.9-1.38.47-.47-.41.23-1.06.65-1.53.26-.29.91-.71 1.36-.99.03-.01.05-.03.08-.04.04-.03.09-.05.13-.07l.09-.06c.09-.05.16-.09.17-.1 0 .04-.07.24-.18.51Zm2.74 3.82c-.63.07-.63-.89-.69-1.52-.07-.63.3-2.2.3-2.2s.95 1.66.98 2.38c.02.71.04 1.28-.59 1.34Z" style="fill:#fce9b9;stroke-linecap:round;stroke-linejoin:round;stroke:#000"/><path d="M80.07 68.93s0 0 0 0c0 .02-.02.04-.02.06M80.07 68.93s0 0 0 0" class="cls-4"/><path d="M97.33 76.06c-.12 1.48-.68 7.33-5.3 11.84-1.93 1.89-3.82 2.8-4.53 3.12-.8.36-2.08.85-3.35 1.19.83-.48 1.58-1.07 2.17-1.53 6.25-4.94 10.95-16.62 8.15-22.89-.24-.53-1.55-3.06-3.77-4.28 2.03.81 4.73 3.24 5.98 6.26.97 2.33.8 4.36.65 6.3ZM86.42 63.09c-.93.25-1.89.69-2.77 1.29.23-.42.43-.77.5-.88.13-.2.34-.48.56-.76.1.02.21.04.32.06.56.11 1.03.2 1.4.29ZM83.37 62.54c-1.03 1.52-2.4 3.78-2.4 3.78l-.68.93c.04-.9-.02-2-.25-3-.1-.4-.97-2.64-3.24-3.55-.66-.27-1.33-.32-1.96-.26 1.05-.29 3.07.17 4.29.59 1.54.54 1.89 1.06 3.58 1.39.24.04.44.08.65.1ZM74.44 86.5c-.21.61-.42 1.29-.42 1.64 0 .3-.02.69-.05 1.04-.76.11-1.4.03-1.79-.01-.14-.02-1.4-.17-2.44-.6 1.29.05 3.12-.7 4.35-1.76.12-.11.24-.21.35-.31Z" class="cls-1"/><path d="M76.6 88.74c-.14-.02-.3-.04-.48-.04" class="cls-4"/><path d="M76.13 88.71c.09.69.17 1.26-.06 1.26s-1.02.07-1.58.13a.487.487 0 0 1-.54-.53l.03-.38c.03-.35.05-.74.05-1.04 0-.36.2-1.03.42-1.64.89-.83 1.32-1.47 1.87-1.83 0 .33.02.81.04 1.27-.19.51-.33 1.03-.34 1.4 0 .42.06.92.12 1.37ZM85.23 62.03c-.13.2-.33.46-.53.72-.21.28-.43.56-.56.76-.08.11-.27.46-.5.88-.16.11-.33.23-.49.36-.02.02-.04.03-.07.05l-.13.1c-.02.02-.04.04-.07.06a.5.5 0 0 0-.08.07c-.1.09-.2.17-.3.27-.06.05-.11.1-.16.16-.19.18-.37.37-.55.57l-.17.2c-.07.08-.14.16-.2.25-.11.13-.21.27-.31.42-.04.05-.07.11-.11.17-.1.15-.2.31-.29.47l-.15.27c-.01.03-.03.05-.04.08-.06.11-.11.22-.16.33-.04.09-.09.19-.13.28-.03.07-.06.13-.08.19-.02.04-.03.07-.04.11-.01.04-.03.07-.04.1 0-.01 0-.02.01-.03 0-.02.01-.04.01-.07 0-.03.02-.06.03-.09 0-.03 0-.05.01-.07 0-.03.01-.06.02-.08 0-.04.01-.09.02-.13 0-.03.01-.06.02-.1v-.09h0c0-.06.01-.1.02-.14v-.04s0-.08.01-.11h0V67.8h0v-.08c0-.05 0-.1.01-.16V67.27l.68-.93s1.37-2.26 2.4-3.78c.31-.46.78-.78.78-1.09 0-1.7 1.62-.84 2.06 0 .16.3-.91.47-.97.58Z" class="cls-6"/><path d="M80.23 68.09c0 .08-.02.15-.03.21 0-.03 0-.05.01-.08 0-.04.01-.09.02-.13ZM80.54 71.73c.17.5.45 1.24.97 2.03.91 1.41 1.53 1.48 2.1 2.47 1.09 1.9.26 4.19.17 4.43-.7 1.84-2.14 2.72-2.57 2.97M77.07 71.46c-.28.29-.73.71-1.37 1.07-1.34.76-2.23.55-3.06 1-1.34.71-1.79 2.5-1.81 3.73-.02.98.28 1.75.48 2.18" class="cls-4"/><path d="M80.35 77.67c-.63.07-.63-.89-.69-1.52-.06-.63.3-2.2.3-2.2s.95 1.66.98 2.38c.02.71.04 1.28-.58 1.34ZM77.79 73.34s-.59 1.83-1.1 2.32c-.51.5-.91.89-1.38.48-.47-.42.23-1.06.65-1.53.42-.47 1.83-1.26 1.83-1.26Z" class="cls-6"/><path d="M78.33 75.82c-.48.84-1.03 1.99-1.39 3.44-.21.84-.31 1.61-.35 2.27" class="cls-4"/><path d="M-1602.32-2049.43h3385.57V522.24h-3385.57z" style="stroke:#fff;stroke-width:8px;fill:none;stroke-linecap:round;stroke-linejoin:round"/></svg>