<svg xmlns="http://www.w3.org/2000/svg" id="Calque_1" viewBox="0 0 200.13 128"><defs><style>.cls-3,.cls-4,.cls-5{stroke-linecap:round;stroke-linejoin:round}.cls-4{stroke:#000}.cls-3{fill:#fce9b9;stroke:#fce9b9}.cls-4,.cls-5{fill:none}.cls-5{stroke:#d6d6d6}.cls-11{fill:#fab0b4}</style></defs><path d="m189.31 67.98-7.55-2.15c-15.78-4.49-32.59-4.95-48.64-1.32h0A154.899 154.899 0 0 1 62.71 64l-2.99-.72c-17.53-4.24-36.14-2.57-52.45 4.71h0" class="cls-5"/><path d="m189.31 58.96-7.55-2.15c-15.78-4.49-32.59-4.95-48.64-1.32h0a154.899 154.899 0 0 1-70.41-.51l-2.99-.72c-17.53-4.24-36.14-2.57-52.45 4.71h0" class="cls-5"/><path d="m189.31 49.94-7.55-2.15c-15.78-4.49-32.59-4.95-48.64-1.32h0a154.899 154.899 0 0 1-70.41-.51l-2.99-.72C42.19 41 23.58 42.67 7.27 49.95h0" class="cls-5"/><path d="m189.31 40.92-7.55-2.15c-15.78-4.49-32.59-4.95-48.64-1.32h0a154.899 154.899 0 0 1-70.41-.51l-2.99-.72c-17.53-4.24-36.14-2.57-52.45 4.71h0" class="cls-5"/><path d="m189.31 31.9-7.55-2.15c-15.78-4.49-32.59-4.95-48.64-1.32h0a154.899 154.899 0 0 1-70.41-.51l-2.99-.72c-17.53-4.24-36.14-2.57-52.45 4.71h0" class="cls-5"/><path d="m30.3 40.54-2.72 1.62-5.09 4.42-3.78 5.37-2.14 4.88-1.28 4.51-.61 4.76.21 3.45 1.04 4.03 1.34 3.05 2.93 3.87 3.42 3.08 5.86 3.2 5.19 1.74 3.01.73.97 1.1.35 1.63-.45 2.25s6.81 1.36 9.76 1.45c2.95.09 5.55-.14 5.55-.14l2.85-1.04.83-1.1.81-3.54 4.9-2.39 3.4-1.43 2.02-2.07.99-2.21.37-3.96-.71-4.07-1.17-3.68.87-2.44-.55-1.68-2.35-.71-1.67-2.7.87-4.95-.41-5.03-2.81-6.51-6.19-4.37-6.49-2.53-7.05-1.25-6.66.72-5.39 1.93Z" style="fill:#fff"/><path d="M80.71 128c-.95-2.73-1.98-5.93-3.2-9.7-3.49-10.7-6.56-14.99-8.11-16.61-.05-.06-.1-.11-.15-.15-.13-.12-.24-.23-.36-.33-.17-.14-.35-.28-.53-.4-.01 0-.01-.02-.02-.02-4.26-2.73-8.37-5.24-9.91-7.48-.29-.41-.49-.82-.58-1.21 0-.03-.01-.06-.01-.08 0-.06-.03-.12-.04-.17v-.18c-.01-.45.12-.88.43-1.3.22-.32.56-.64 1.01-.94.56-.39 1.3-.76 2.25-1.11.02-.01.04-.02.06-.02.59-.22 1.25-.44 2-.64 11.46-3.19 4.8-17.55 4.8-17.55s2.19-4.3-.56-4.49c-.79-.06-1.41-.34-1.88-.73-1.16-.9-1.47-2.37-1.47-2.37s0-.01.01-.03c.09-.25.71-2.18.85-4.86v-.12c.08-1.48 0-3.19-.41-4.97-.4-1.77-1.11-3.61-2.31-5.37-.36-.53-.77-1.05-1.23-1.57-.06-.08-.13-.15-.21-.23-2.47-2.7-6.33-5.08-12.26-6.53-2.3-.56-4.47-.87-6.52-.96-17.62-.76-26.2 14.68-27.64 24.92-1.62 11.43 4.43 22.94 22.68 26.55 0 0 1.93.78 1.15 3.96-.08.34-.2.71-.35 1.11-1.58 4.13-12.39 2.43-18.2 16.25 0 0-2.98 8.06-3.66 17.33" style="stroke-width:2px;fill:none;stroke:#000;stroke-linecap:round;stroke-linejoin:round"/><path d="M82.4 128H15.91c.84-11.44 5.38-23.04 8.15-25.66 4.52-4.29 14.13-7.92 14.13-7.92 15.5 3.28 19 .88 19.6-1.11.13-.45.12-.87.06-1.21 0-.03-.01-.06-.01-.08 0-.06-.03-.12-.04-.17-.05-.18-.1-.31-.12-.38.05.06.09.14.11.2.03.06.06.11.09.16.32.56.61 1.03.95 1.48 1.29 1.73 3.24 3.09 9.51 7.48.01 0 .01.02.02.02.18.12.36.26.53.4.12.1.23.21.36.33.05.04.1.09.15.15 5 4.69 9.99 17.46 13 26.31Z" style="stroke-width:2px;fill:#fce9b9;stroke:#000;stroke-linecap:round;stroke-linejoin:round"/><path d="M38.19 73.73s-6.17 2.06-2.62 7.14 6.69.61 6.69.61" class="cls-4"/><path d="M62.7 67.77c-.08.24-.34.47-.62.49-.69.05-.73-1.28-1.58-1.16-.95.13-.45.99-1.12 1.18-.29.08-.68.01-.83-.21-.36-.54.46-2.38 1.78-2.54 1.34-.16 2.6 1.48 2.36 2.23Z"/><path d="M55.66 64.65s.4-3.7 4.25-3.47M38.37 78.51l1.23-.57" class="cls-4"/><circle cx="53.26" cy="73.19" r="3.01" class="cls-11"/><path d="M66.1 78.5s.02.02 0 .03c-.18 1.07-1.14 2.1-2.79 2.24-1.35.12-2.29-.26-2.95-.74 0 0 .01-.02.03-.05.01-.03.05-.08.09-.14.08-.11.18-.26.35-.45l.18-.18c.12-.12.26-.25.43-.38.32-.25.74-.48 1.23-.63.12-.03.25-.08.38-.09a.88.88 0 0 1 .29-.05c.75-.11 1.67-.02 2.75.43Z" style="fill:#ff6d75"/><path d="M60.36 80.03zM66.1 78.5c-1.07-.45-2-.54-2.75-.43-.11 0-.2.02-.29.05-.14.02-.26.06-.38.09-.49.15-.91.38-1.23.63-.17.12-.31.25-.43.38-.08.06-.14.12-.18.18-.17.18-.28.34-.35.45a.51.51 0 0 0-.09.14.52.52 0 0 0-.03.05c-.91-.66-1.24-1.5-1.24-1.5-.49-2.8 4.16-2.61 4.16-2.61 2.15-.12 3.07 1.26 2.83 2.58Z" class="cls-11"/><path d="m66.15 78.51-.05.02v-.03c.02 0 .03.02.05.02Z" class="cls-11"/><path d="M63.28 76.06s-4.65-.18-4.16 2.61c0 0 .34.84 1.24 1.5.66.48 1.6.86 2.95.74 1.66-.14 2.61-1.17 2.79-2.24.02-.02 0-.03 0-.03.25-1.32-.68-2.7-2.83-2.58Z" style="stroke-miterlimit:10;stroke-width:.9px;fill:none;stroke:#000"/><path d="M61.34 45.61S55.88 58.07 44.14 59c0 0 2.39 7.2-6.34 9.56" class="cls-4"/><path d="M63.36 117.1c1.06 2.03 2.37 4.89 3.71 7.89l-3.71-7.89Z" style="fill:#fce9b9;stroke:#000;stroke-linecap:round;stroke-linejoin:round"/><path d="M68.48 128h-.07c-.43-.97-.87-1.95-1.3-2.92l1.37 2.92Z" style="stroke-width:.9px;fill:#fce9b9;stroke:#000;stroke-linecap:round;stroke-linejoin:round"/><path d="M34.19 128c-.07-7.84-.48-15.43-.48-15.43" class="cls-4"/><path d="m152.39 31.32 6.43-20.03c6.33 1.25 12.63 2.49 19.01 3.75-.07.22-.13.4-.18.57-2.28 7.11-4.59 14.22-6.84 21.35-.51 1.6-1.57 2.52-3.14 2.87-1.7.38-3.29.09-4.59-1.13-1.42-1.32-1.34-3.29.12-4.56 1.89-1.65 5.09-1.48 6.8.34.05.05.1.1.19.2l3.56-11.09c-5.51-1.09-11-2.17-16.54-3.26-.06.17-.1.32-.15.47-1.36 4.25-2.75 8.49-4.08 12.75-.47 1.51-1.45 2.43-2.93 2.82-1.65.44-3.21.23-4.58-.86-1.68-1.34-1.67-3.52 0-4.88 1.92-1.55 5.01-1.34 6.7.47l.21.21Zm23.08-12.97c-5.55-1.09-11.05-2.18-16.54-3.26-.19.59-.36 1.13-.54 1.67.11.02.18.04.25.06 2.91.58 5.81 1.16 8.72 1.73 2.42.48 4.83.95 7.25 1.41.12.02.34-.05.37-.14.18-.46.32-.94.49-1.47ZM132.61 43.85c-.03.2-.06.35-.08.51l-3.69 22.43a3.709 3.709 0 0 1-1.46 2.42c-1.8 1.39-4.57 1.39-6.18 0-1.17-1.01-1.43-2.56-.59-3.85 1.1-1.67 2.74-2.22 4.65-2.1 1 .06 1.89.46 2.69 1.17.86-5.2 1.7-10.34 2.56-15.54-5.63-.26-11.23-.53-16.87-.79-.03.21-.06.38-.09.55-.93 5.68-1.87 11.36-2.8 17.04-.34 2.06-1.51 3.3-3.56 3.72-1.4.29-2.72.11-3.9-.74-1.47-1.06-1.72-2.91-.61-4.34 1.55-2 4.81-2.42 6.82-.88.09.07.18.14.34.26.57-3.49 1.14-6.93 1.7-10.37.57-3.45 1.13-6.89 1.71-10.39 6.45.3 12.87.6 19.37.91ZM85.05 49.47c-.19.37-.76 1.35-1.96 1.92-1.12.53-2.14.39-2.69.3-1.41-.22-2.59-.86-3.39-2.07-1-1.51-.59-3.33.96-4.28 2.05-1.26 5.35-.34 6.69 1.58.1.15.18.27.23.36.11.16.27.55.33 1.02.07.59-.08.98-.17 1.16Z"/><path d="M83.28 40.97c.59 1.31 1.19 2.57 1.74 3.84.24.55.47 1.12.58 1.7.44 2.23-.59 4.09-2.71 4.94-1.96.79-4 .33-5.16-1.23-.33-.45-.59-1-.71-1.54-.25-1.14.49-2.2 1.65-2.56 1.03-.32 2.19.21 2.69 1.23.48.97.16 2.21-.76 2.86-.13.09-.26.18-.44.3.76.55 1.55.55 2.35.26 1.73-.63 2.63-2.46 2.19-4.43-.03-.14-.05-.29-.11-.42-.68-1.5-1.36-2.99-2.03-4.46-.79.23-1.55.52-2.33.68-3.17.64-6.42-.84-8.17-3.56-2.07-3.22-1.89-6.51-.47-9.88.69-1.63 1.62-3.13 2.69-4.53.19-.25.22-.45.08-.75-.64-1.37-1.29-2.74-1.87-4.13-.64-1.56-1.01-3.18-.89-4.89.11-1.63.74-3.03 1.83-4.24.19-.21.33-.25.59-.12 1.47.73 2.5 1.87 3.25 3.3 1.42 2.71 2.04 5.55 1.38 8.59-.33 1.51-.96 2.9-1.84 4.16-.18.25-.19.44-.06.71.49 1.03.95 2.08 1.44 3.14.3-.09.56-.19.82-.25 2.71-.61 5.55.88 6.74 3.53.56 1.24.88 2.52.61 3.89-.34 1.71-1.45 2.84-2.85 3.74-.06.04-.12.08-.22.14Zm-4.44-7.64c-1 .55-1.68 1.28-1.85 2.37-.05.36-.02.78.11 1.12.41 1.09 1.16 1.85 2.3 2.18.13.04.22.18.33.27-.15.06-.3.17-.44.16-.98-.11-1.83-.5-2.55-1.18-1.92-1.83-1.99-4.97-.16-7.06.27-.31.58-.57.87-.85-.48-1.05-.95-2.09-1.45-3.19-1.3 1.75-2.46 3.49-3.23 5.49-1.61 4.19 1.69 8.22 5.19 8.71 1.47.2 2.85-.03 4.2-.69-1.12-2.45-2.21-4.86-3.34-7.33Zm-3.78-10.3c1.18-1.84 2.19-3.67 2.34-5.84.11-1.62-.42-3.03-1.43-4.27-.34-.42-.57-.45-.89-.03-.41.54-.82 1.13-1.03 1.76-.99 2.9-.48 5.66 1.01 8.38Zm4.59 9.99c1.09 2.39 2.18 4.78 3.27 7.18 1.72-1.07 2.2-3.36 1.15-5.33-.94-1.76-2.83-2.55-4.42-1.85ZM154.54 55.03c.05.25.09.4.12.56 1.25 5.93 2.5 11.87 3.76 17.8.24 1.16-.05 2.2-.76 3.1-1.17 1.48-2.71 2.23-4.62 2.05-2.34-.23-3.51-2.34-2.54-4.48.99-2.17 3.64-3.39 5.93-2.72.08.02.16.04.3.06-.03-.2-.05-.35-.08-.5-1.49-7.08-2.98-14.17-4.48-21.25-.03-.16-.07-.32-.09-.48-.03-.32.13-.54.43-.63.3-.09.56 0 .7.3.1.21.16.44.25.66.56 1.32 1.52 2.29 2.72 3.03 1 .62 2.02 1.19 3.04 1.78 3.03 1.74 3.61 4.56 2.93 7.45-.18.76-.51 1.5-.81 2.23-.23.55-.51.7-.84.55-.32-.15-.38-.42-.17-.96.57-1.49.76-3 .42-4.58-.23-1.06-.76-1.9-1.62-2.54-1.34-.98-2.88-1.33-4.59-1.45Z"/><path d="M182.22 66.75c.14.47.18.99.07 1.51a3.113 3.113 0 0 1-5.68 1.06c-.67.46-1.53.67-2.39.49a3.113 3.113 0 0 1-2.44-3.67c.1-.5.32-.96.62-1.33a3.118 3.118 0 0 1 2.2-5.74c.29.06.55.15.8.28.5-1.46 2.01-2.37 3.56-2.05 1.56.31 2.6 1.73 2.5 3.27.28-.02.56 0 .85.05a3.118 3.118 0 0 1-.09 6.13Z" style="fill:#fab0b4;stroke:#000;stroke-linecap:round;stroke-linejoin:round"/><circle cx="177.55" cy="64.33" r="2.02" class="cls-3"/><path d="M107.71 28.47c.38.32.69.73.88 1.23a3.115 3.115 0 0 1-4.18 3.99 3.115 3.115 0 0 1-5.78-.02c-.19-.48-.26-.98-.21-1.46-1.29.06-2.53-.69-3.03-1.96-.64-1.6.14-3.41 1.74-4.05.27-.11.55-.17.82-.2-.38-1.5.39-3.08 1.87-3.67s3.13.03 3.88 1.38a3.12 3.12 0 0 1 4.79 1.32c.49 1.23.14 2.59-.78 3.44Z" style="stroke:#000;stroke-linecap:round;stroke-linejoin:round;fill:#87ccf3"/><circle cx="102.47" cy="28.99" r="2.02" class="cls-3"/></svg>