<svg xmlns="http://www.w3.org/2000/svg" id="Calque_1" data-name="Calque 1" viewBox="0 0 128 128"><defs><style>.cls-1{fill:#4eaf3b}.cls-1,.cls-10,.cls-11,.cls-3,.cls-8{stroke:#000;stroke-linecap:round;stroke-linejoin:round}.cls-3{fill:#b2f0e9}.cls-8{fill:#fff}.cls-10{fill:#d6d6d6;stroke-width:2px}</style></defs><path d="M122.93 43.93s0-3.24-1.71-4.57-5.72-3.43-9.91-3.43-4.76 3.05-4.76 3.05l16.38 4.95Z" class="cls-11"/><path d="M114.01 38.22c3.01 0 9.68 2.67 9.68 8.38v33.91c0 3.24-3.97 9.14-8.29 9.14h-12.61V38.21h11.23Z" class="cls-10"/><circle cx="116.98" cy="82.51" r="2.53" class="cls-8"/><circle cx="108.2" cy="48.81" r="2.26" style="fill:#ffec30;stroke:#000;stroke-linecap:round;stroke-linejoin:round"/><circle cx="113.46" cy="43.85" r="2.26" style="fill:#db619e;stroke:#000;stroke-linecap:round;stroke-linejoin:round" transform="rotate(-9.27 113.463 43.838)"/><circle cx="113.46" cy="53.37" r="2.26" style="fill:#00aae2;stroke:#000;stroke-linecap:round;stroke-linejoin:round" transform="rotate(-9.27 113.495 53.401)"/><circle cx="108.2" cy="48.81" r="2.26" class="cls-3"/><circle cx="113.46" cy="43.85" r="2.26" style="fill:#ff6d75;stroke:#000;stroke-linecap:round;stroke-linejoin:round" transform="rotate(-9.27 113.463 43.838)"/><circle cx="113.46" cy="53.37" r="2.26" style="fill:#f3d587;stroke:#000;stroke-linecap:round;stroke-linejoin:round" transform="rotate(-9.27 113.495 53.401)"/><circle cx="118.61" cy="48.81" r="2.26" class="cls-1"/><circle cx="118.61" cy="48.81" r="2.26" style="fill:#b4eac3;stroke:#000;stroke-linecap:round;stroke-linejoin:round"/><path d="M7.38 43.93s0-3.24 1.71-4.57 5.72-3.43 9.91-3.43 4.76 3.05 4.76 3.05L7.38 43.93Z" class="cls-11"/><path d="M16.3 38.22c-3.01 0-9.68 2.67-9.68 8.38v33.91c0 3.24 3.97 9.14 8.29 9.14h12.61V38.21H16.29Z" class="cls-10"/><circle cx="14.58" cy="80.77" r="2.53" class="cls-1"/><circle cx="14.58" cy="80.77" r="2.53" class="cls-8"/><path d="M15.38 72.56a.67.67 0 0 1-.67-.67v-3.62a.1.1 0 0 0-.1-.1h-3.62a.67.67 0 0 1-.67-.67v-3.43c0-.37.3-.67.67-.67h3.62a.1.1 0 0 0 .1-.1v-3.62c0-.37.3-.67.67-.67h3.43c.37 0 .67.3.67.67v3.62c0 .05.04.1.1.1h3.62c.37 0 .67.3.67.67v3.43c0 .37-.3.67-.67.67h-3.62a.1.1 0 0 0-.1.1v3.62c0 .37-.3.67-.67.67h-3.43Z" style="fill:#1d120c"/><circle cx="21.15" cy="77.35" r="2.53" class="cls-1"/><circle cx="21.15" cy="77.35" r="2.53" class="cls-8"/><circle cx="17.41" cy="49.16" r="5.41" class="cls-8"/><circle cx="17.41" cy="49.16" r="3.84" style="fill:#303030"/><circle cx="113.14" cy="65.52" r="5.41" class="cls-8"/><circle cx="113.14" cy="65.52" r="3.84"/><path d="M27.48 38.22h75.3v51.44h-75.3z" style="stroke-width:2px;stroke:#000;stroke-linecap:round;stroke-linejoin:round"/><rect width="68.32" height="45.06" x="30.71" y="41.41" class="cls-3" rx="1.62" ry="1.62"/></svg>