<svg xmlns="http://www.w3.org/2000/svg" id="Calque_1" data-name="Calque 1" viewBox="0 0 128 128"><defs><style>.cls-2{fill:none;stroke-width:2px}.cls-2,.cls-3{stroke:#000;stroke-linecap:round;stroke-linejoin:round}</style></defs><circle cx="64.83" cy="50.48" r="20.82" style="fill:#87f3b9"/><path d="M114.02 34.84v30.41c0 10.36-7.72 18.83-17.15 18.83H62.63l-25.42 20.05V84.08h-4.43c-9.43 0-17.15-8.46-17.15-18.83V34.84c0-10.35 7.72-18.83 17.15-18.83h64.09c9.43 0 17.15 8.48 17.15 18.83Z" class="cls-2"/><path d="M85.64 50.48c0 11.5-9.32 20.82-20.82 20.82S44 61.98 44 50.48s9.32-20.82 20.82-20.82c3.57 0 6.93.9 9.87 2.48" class="cls-2"/><path d="M73.4 58.31c-2.12 2.33-5.18 3.78-8.58 3.78s-6.46-1.46-8.58-3.79" class="cls-2"/><circle cx="56.68" cy="46.46" r="2.6" class="cls-3"/><circle cx="72.97" cy="46.46" r="2.6" class="cls-3"/></svg>