<svg xmlns="http://www.w3.org/2000/svg" id="Calque_1" data-name="Calque 1" viewBox="0 0 200.13 128.13"><defs><style>.cls-1{fill:#d6d6d6}.cls-1,.cls-3,.cls-4,.cls-5,.cls-6{stroke-linecap:round;stroke-linejoin:round}.cls-1,.cls-11,.cls-3,.cls-4,.cls-5,.cls-6,.cls-8,.cls-9{stroke:#000}.cls-3{fill:#87f3b9}.cls-4{fill:#baa584}.cls-5,.cls-9{fill:#fff}.cls-11,.cls-6{fill:none}.cls-8{fill:#ff6d75}.cls-11,.cls-8,.cls-9{stroke-miterlimit:10}</style></defs><path d="m53.21 41.87 5.34 3.14s.18 1.29 1.31 5.66c2.26-.32 8.53-2.83 8.84-2.94.31-.11 1.95-4.28 2.34-3.94.4.34-.9 2.19-.39 2.47.51.29 5.36-1.72 5.34-1.3-.03.79-2.93 1.35-2.88 1.72.05.37 3-.9 3.28-.33.28.56-2.88.91-2.97 1.21-.09.3 2.98.11 2.75.75-.13.35-2.73.09-2.67.51.07.42 2.01.96 1.83 1.34-.18.39-1.56-.7-2.62-.48-1.06.22-1.9-.22-3.52.69-1.62.9-9.84 6.3-11.72 5.21-1.64-.95-4.25-13.73-4.25-13.73Z" class="cls-5"/><path d="M95.83 4.45v119.23" style="stroke-dasharray:0 0 3 3;fill:none;stroke:#000;stroke-linecap:round;stroke-linejoin:round"/><path d="m134.18 111.71 3.17-1.12" style="fill:#afaff9;stroke:#000;stroke-linecap:round;stroke-linejoin:round"/><path d="M142.89 24.13h0c-.08-.03-.61-.26-.8-1.19-.21-1-.63-.95-.51-1.93.12-.93 1.01-.38 1.11-.31M133.95 109.18l.77-.56.57-4.92s4.35.69 4.35.76-.44 4.6-.44 4.6l.32 1.26-3.22.25-1.83-.44-.51-.95ZM155.96 110.41l.19-4.76-4.99-.06.92 4.61 1.64 1.55 2.24-1.34z" class="cls-5"/><path d="M150.26 113.57c.13-.4 1.47-2.78 1.79-3.37.65.28 1.29.44 2.01.44.65 0 1.38-.06 1.91-.46.33.47.74 1.11 1.05 1.63.28.47.67.96.87 1.49.2.53.11 1.15-.31 1.5-1.41 1.16-5.36 1.45-7.05.16-.51-.39-.34-1.12-.25-1.39ZM128.6 113.51c.81.14 1.68.08 2.49.08 2.34 0 4.68-.11 7.02-.22.37-.02.76-.04 1.1-.19.27-.12.5-.32.66-.57.1-.15.17-.32.19-.5v-.19c-.01-.25-.11-.49-.2-.72-.17-.43-.25-.74-.41-1.17-1.86 0-3.71-.35-5.5-.84l-.54.27-3.11 1.56c-.42.21-.84.42-1.26.64l-.3.15c-.3.15-.72.24-.94.52-.05.06-.09.13-.11.22-.18.62.4.88.91.97ZM134.39 106.28s1.58.64 3.47.91c1.88.26 2.02.03 2.02.03l3.43-22.65s.96-2.49 2.25-5.85c.1-.26.21-.53.3-.81.44-1.15.91-2.37 1.39-3.62-.05 3.67-.09 7.3-.13 10.81l3.86 23.18c1.5.54 1.61.51 3.22.51 1.49 0 1.48-.03 2.83-.57-.61-8.07-1.69-22.92-1.69-22.92s3.39-15.68 2.57-23.81c-.4-3.92-2.14-7.13-3.34-9.27-.76.63-2.02 1.15-2.96 1.38-1.56.39-2.19.44-3.76.39-.25-.02-.5-.04-.73-.07-2.27-.26-3.72-.51-3.72-.51s-3.15 6.98-4.42 11.16c-1.26 4.16-3.28 20.36-3.28 20.36l-1.33 21.31ZM144.63 32.2c.22.1.45.17.68.23 1.94.46 4.14-.36 4.89-.68l-.23-3.29-.02-.37-5.08-.98-.13 1.05-.43 3.58c.02.07.04.14.07.2.02.04.02.08.04.12 0 .02 0 .03.02.05h0l.2.09ZM131.79 64.9c-.01.16-.01.32-.01.48 0 .43.03.86.04 1.29 0 .19 0 .37-.05.55s-.17.35-.33.43-.39.05-.51-.09c-.1-.13-.1-.31-.1-.47 0-.21.01-.43.02-.64 0-.29.02-.58.04-.87.05-.59.16-1.2.53-1.66.12-.15.67-.52.67-.1 0 .16-.13.35-.18.5-.06.19-.1.38-.12.57Z" class="cls-5"/><path d="M131.45 65.17c-.01.16-.01.32-.01.48 0 .43.03.86.04 1.29 0 .19 0 .37-.05.55s-.17.35-.33.43-.39.05-.51-.09c-.1-.13-.1-.31-.1-.47 0-.21.01-.43.02-.64 0-.29.02-.58.04-.87.05-.59.16-1.2.53-1.66.12-.15.67-.52.67-.1 0 .16-.13.35-.18.5-.06.19-.1.38-.12.57Z" class="cls-5"/><path d="M135.65 59.25c-.05-.24-.8-.43-1.13-.92-1.06.62-2.83 4-3.27 4.89-.3.6-.6 1.23-.73 1.89-.14.7-.16 1.42-.19 2.13 0 .11-.01.23.03.33.06.19.31.31.49.18.38-.28.4-.87.44-1.31.03-.4.04-.81.14-1.2.1-.39.3-.7.56-1 .19-.22 1.12-1.45 1.22-1.35.1.1.41.63.39.75-.03.14-.09.28-.15.41-.11.22-.24.45-.29.7 0 .04-.01.08-.01.13-.02.46.44 1.01.83.51.08-.11.14-.23.2-.36.28-.59.68-1.12.84-1.75.11-.4.17-.81.23-1.23.23-1.55.58-2.07.43-2.8Z" class="cls-5"/><path d="M132.76 63.36c.06-.08.11-.16.18-.23.11-.13.24-.26.41-.31.16-.06.37-.03.48.1.09.11.11.27.09.41-.05.35-.29.65-.5.94-.11.15-.21.3-.28.47.04-.25.18-.47.29-.7.06-.13.12-.26.15-.41.03-.12.08-.28-.02-.38-.09-.09-.28-.11-.41-.1-.15.02-.27.1-.39.19Z" class="cls-5"/><path d="M147.71 15.09s0 .86.31 1.45h0M149.38 16.9c.68-.4 1.15-1.4 1.15-1.4" class="cls-6"/><path d="M151.54 24.83h0c.08-.02.64-.16.97-1.05.36-.96.77-.84.8-1.83.03-.93-.94-.53-1.05-.47" class="cls-5"/><path d="M143.63 16.31s.67.4 1.41.53" class="cls-6"/><path d="M150.8 17.32c-.43.02-.92-.08-1.41-.42-.21.13-.42.19-.66.16-.33-.03-.55-.25-.7-.53l-.02.01c-.09.09-.68.61-1.42-.1-.38.46-.98.51-1.54.4-.33.26-.79.23-.79.23-.03.04-.06.08-.08.12-1.37 1.93-1.5 3.24-1.51 3.38-.08-.34-.14-.67-.19-.98.07.58.18 1 .21 1.09h0v.02h0c-.02.55-.03 1.96.2 3.43.19 1.22.56 2.47 1.22 3.28 1.55 1.88 2.55 1.92 2.7 1.91.15.04 1.21.2 3.04-1.43.78-.69 1.34-1.88 1.71-3.05.45-1.41.66-2.81.72-3.36h0c.01-.06.02-.13.02-.2-.02.05-.04.08-.04.08.02-.23.02-.45.01-.68-.15-1.14-1.19-3.02-1.31-3.34l-.15-.03Z" class="cls-5"/><path d="M152.26 20.69c.03.21.04.41.02.59" class="cls-6"/><path d="M152.27 21.48v-.02h0c.05-.11.29-.67.46-1.43v-.02c.34-1.51.35-3.8-2.16-4.82 0 0-.16-.83-1.22-.7 0 0-1.23-1.35-2.72-.24-1.03-.29-1.31.5-1.31.5-2.84.67-3.03 3.23-2.86 4.76 0 .03.01.06 0 .08" class="cls-6"/><path d="M144.15 17.35s-1.46 2.13-1.46 3.35M152.3 21.25h0s0 .1-.02.21h0v.02M142.68 20.71v-.02M142.69 20.47v.21M145.98 15.61c.19.34.37.6.54.78.02.03.04.05.06.06M148 16.55h.02" class="cls-6"/><path d="m147.25 74.31.23-9.92" class="cls-5"/><path d="M157.76 46.12a26.57 26.57 0 0 1-2.06-2.46c-.03.37-.02 1.17.03 2.18.08 2.03.27 4.93.39 6.76-.44.63-.84 1.29-1.22 1.95-.24.41-.27.91-.08 1.35.02.06.05.12.08.18-.03.02-.06.02-.09.03-3.53 1.13-7.38 1.26-11 .43-.73-.16-1.5-.4-1.95-1.04-.07-.11-.15-.22-.2-.35a43.92 43.92 0 0 1-3 3.4c-.91.91-2.31 1.12-3.45.51a2.5 2.5 0 0 1-1.33-2.21c0-.42.11-.85.34-1.24.63-1.09 1.29-2.11 2.03-3.16.4-.58 1.15-1.55 1.57-2.08.18-.23.27-.53.26-.82-.12-2.03-1.18-10.96 1.31-14.35.08-.12.15-.26.25-.36 1.06-1.08 3.19-2.37 4.53-2.91.09.06.18.11.27.16h0l.2.09c.22.1.45.17.68.23 1.94.46 4.14-.36 4.89-.68.17-.07.26-.12.26-.12 1.21.16 2.41.42 3.57.81 1.27.43 2.38.93 3.44 1.77 1.06.87 2.01 1.87 2.91 2.91.44.5.86 1.01 1.28 1.53.21.25.41.49.62.75" class="cls-4"/><path d="M144.15 31.95c.09.06.18.11.27.16h0c.07.03.13.07.2.09.22.1.45.17.68.23l-.72-.3-.18-.07-.26-.11Z" class="cls-5"/><path d="M140.27 43.7c.04 1.18.76 8.64.96 9.81.12.68.22 1.43.63 2 .45.63 1.22.87 1.95 1.04" class="cls-6"/><path d="m147.64 60.21 2.4-1.14c.35-.17.72-.31 1.07-.49.18-.09.35-.19.5-.31.14-.11.34-.26.07-.29-.18-.02-.37 0-.54.02-.27.02-.58.04-.85-.02-.15-.04-.3-.13-.36-.28-.08-.19.02-.41.18-.54 0 0 .01 0 .02-.01.17-.13.39-.17.59-.21.67-.12 1.37-.16 2.02-.32.38-.1.72-.26 1.11-.32.32-.05.64-.06.96-.05l.43-.48-.02-.04c.13-.15.27-.3.4-.45.54.86 1.09 1.71 1.64 2.57-.34.27-.56.43-.56.42v-.01c-.24 1.2-1.08 2.43-2.06 3.04-.1.06-.2.12-.28.2-.06.06-.11.14-.16.22-.27.46-.52.92-.75 1.4-.15.3-.33 1.01-.75 1.02-.29 0-.49-.31-.36-.56.23-.46.47-.92.72-1.37.09-.17.2-.33.27-.51.02-.06.09-.19.06-.25-.18-.32-.62.28-.73.41l-.63.72c-.3.34-.61.67-.92 1-.19.21-.44.61-.78.46a.382.382 0 0 1-.13-.61c.1-.1.2-.21.29-.31.02-.04.04-.08.07-.11.33-.38.65-.77.96-1.17.15-.2.31-.4.46-.6.06-.08.45-.39.32-.51-.15-.14-.57.3-.67.37-.31.2-.61.41-.91.61-.41.27-.81.56-1.22.84-.25.17-.69.59-.99.3a.402.402 0 0 1 .02-.58c.02-.02.03-.04.06-.06.51-.5 1.09-.93 1.66-1.36.28-.21.56-.43.83-.65.14-.12.28-.24.41-.36.05-.05.22-.15.15-.24-.06-.08-.25 0-.32.03-.19.07-.36.21-.54.28-.32.11-.63.23-.95.34-.44.16-.88.33-1.32.49-.26.1-.66.38-.92.14-.19-.17-.15-.54.09-.65Z" class="cls-5"/><path d="M157.76 46.12c.65.69 1.33 1.35 2.01 2-1.39 1.46-2.61 2.94-3.65 4.48-.44.63-.84 1.29-1.22 1.95-.24.41-.27.91-.08 1.35.02.06.05.12.08.18.28.66.59 1.3.97 1.92.3.5.94.69 1.47.44 1.9-.88 3.68-2.07 5.3-3.39 1.36-1.11 2.74-2.32 3.58-3.89 1.41-2.62.35-5.61-1.1-7.96-.83-1.35-1.85-2.59-2.86-3.82" class="cls-4"/><path d="m159.77 48.12 2.49-2.21" class="cls-6"/><path d="m146.56 32.43.69 24.45M147.76 35.18h-2.68" class="cls-1"/><path d="M30.04 10.59h5.03v9.66h-5.03z" class="cls-8"/><path d="M30.04 20.55v-.3" class="cls-11"/><path d="M20.34 10.59h4.85v9.66h-4.85z" style="fill:#87ccf3;stroke-miterlimit:10;stroke:#000"/><path d="M25.19 10.59h4.85v9.66h-4.85z" class="cls-9"/><path d="M25.19 20.55v-.3" class="cls-11"/><path d="M20.34 17.73v10.45" class="cls-8"/><path d="M165.05 10.52h14.73v9.66h-14.73z" class="cls-9"/><path d="M169.91 20.48v-.3M174.76 20.48v-.3" class="cls-11"/><path d="M171.25 13.29c.29-.32.7-.47 1.21-.47.47 0 .85.14 1.14.41s.43.62.43 1.04c0 .26-.05.46-.16.62s-.32.39-.63.7c-.23.22-.38.41-.45.57s-.1.38-.1.69h-.64c0-.34.04-.62.12-.83s.26-.45.54-.72l.29-.29c.09-.08.16-.17.21-.26.1-.16.14-.32.14-.49 0-.24-.07-.44-.21-.61s-.37-.26-.7-.26c-.4 0-.68.15-.83.45-.09.17-.14.41-.15.72h-.64c0-.52.15-.94.44-1.25Zm.78 4.15h.72v.75h-.72v-.75Z"/><path d="M165.05 17.81v10.44" class="cls-8"/><path d="M43.12 114.27s-1.59 2.1 0 2.34c1.59.24 5.73 0 5.73 0s1.26.42.16-2.51c-.58-.04-1.15-.14-1.72-.19-1.39-.11-2.79.15-4.17.36-.56.09-1.22.13-1.6-.29-.15-.16-.23-.38-.29-.59-.24-.82-.26-1.67-.25-2.52.01-.84-.06-1.68-.08-2.52-.05-1.77-.05-3.55-.08-5.32-.05-2.67-.11-5.34-.16-8.01 0-10.53-.78-20.93-1.28-31.43-.04-.74-.08-1.63-.06-2.58 0-.11.01-.23.01-.35-.04-.71 0-1.42.13-2.12l.03-.17c.19-.9.51-1.76.83-2.62.47-1.28.77-2.82 1.26-4.02.45-1.09 2.03-1.11 3.12-1.28 2.93-.46 5.93-.4 8.87-.1.12.01.25.03.35.1.15.1.19.3.22.48.39 2.12.72 4.24 1 6.38.04.32.09.71.13 1.12.33 1.84.66 3.67.95 5.52.64 4.06 1.18 8.14 1.6 12.23.23 2.2.71 4.61.57 6.82 0 .07 0 .14-.01.21-.01.18-.03.35-.05.53-.14 1.13-.42 2.26-.75 3.37-.23.79-.49 1.57-.73 2.32-2.4 7.58-4.8 15.17-7.19 22.75 0 .31-.01.62-.02.93 0 .44.33 1.02-.34 1-.08 0-.16-.02-.25-.02M49.63 112.19l-.24-47.44" class="cls-5"/><path d="M53.32 50.08c.64 0 7.23-.67 7.16-.98-.9-4.09-2-8.13-3.3-12.11-.27-.83-.58-1.7-1.24-2.28-.3-.26-.66-.45-1.01-.63-.3-.15-.61-.31-.95-.36-1.77-.24-2.02 3.12-2.07 4.27-.06 1.38.13 2.76.32 4.13.19 1.38.43 2.76.61 4.13.17 1.28.23 2.55.48 3.82Z" class="cls-4"/><path d="M41.88 34.75c-.41-.43-1.02-.65-1.61-.58-2.26.27-2.72 4.33-3.02 6.02-.31 1.72-.61 3.44-.88 5.16-.19 1.22-.38 2.44-.55 3.67-.21 1.49-.41 2.99-.6 4.49-.02.19-.07.39-.08.58-.33.75-.54 1.57-.69 2.2-.96 4.05-1.68 8.16-2.35 12.27-.03.19-.05.4-.04.6-.09.12-.17.25-.23.4-.68 1.73-.42 3.79.37 5.45.04.08.09.16.18.19.1.03.22-.04.26-.13s.03-.18.02-.28c.02.17.12.31.28.41.25.15.3-.1.28-.29-.05-.41-.09-.81-.14-1.23a6.19 6.19 0 0 1-.04-1.29c.02-.3.03-.6.11-.89.03-.13.06-.34.24-.32.1.01.17.09.23.17.08.12.15.24.2.37.05.15.09.3.15.45.07.14.17.28.32.33.28.11.34-.16.3-.38 0-.02 0-.03-.01-.05-.03-.11-.07-.21-.11-.32-.11-.31-.18-.64-.19-.97 0-.12.03-.22.04-.34a3 3 0 0 0-.04-.51c-.03-.2-.09-.37-.17-.54.89-2.38 1.72-4.81 2.76-7.13 1.03-2.31 1.89-4.71 2.6-7.14.06-.2.11-.4.15-.6.02-.05.05-.11.07-.16.48-1.37.74-2.8.99-4.23.53-3.04 1.03-6.09 1.48-9.15.18-1.23.36-2.47.4-3.71.03-.9-.05-1.89-.68-2.54Z" class="cls-5"/><path d="M37.72 36.19c-.88 1.48-1.35 3.39-1.79 4.79-.87 2.85-1.46 5.78-2.04 8.71.34.06.84.29 1.18.29.66.26 1.46.25 2.15.39 1.35.28 2.72.49 4.09.62.15-2.27.61-4.53.9-6.79.3-2.32.57-4.64.8-6.97.05-.53.1-1.07 0-1.6s-.37-1.04-.83-1.32c-.6-.36-1.8-.4-2.46-.1-.86.39-1.51 1.11-2.02 1.97Z" class="cls-4"/><path d="M56.78 40.28c-.14 1.02-.34 2.04-.47 3-.28 1.99-.58 3.97-.91 5.95-.13.78-.14 1.55-.37 2.32-.05.16-.1.33-.23.44-.14.12-.33.14-.51.16-.66.06-1.32.1-1.98.13-3.18.17-6.37.35-9.56.27-.36 0-.73-.02-1.04-.2-.56-.31-.75-1.02-.88-1.65-.6-2.99-.61-6.26-1.83-9.07-.23-.52-.43-.96-.82-1.36-.58-.6-.64-1.19-.65-2.06-.03-2.88 2.95-4.77 5.39-5.52.59-.18 1.2-.32 1.81-.42 1.17-.19 2.36-.24 3.56-.18 1.02.05 2.04.15 3.02.42.04 0 .07.02.11.03 1.7.5 3.96 1.21 4.88 2.85.37.67.49 1.45.58 2.21.1.86.03 1.77-.09 2.67Z" class="cls-4"/><path d="M40.73 54.46s10.08.77 13.97-.31" class="cls-5"/><path d="M43.64 54.63s-.06 4.5-4.31 4.8M51.74 54.6s.19 5.23 3.74 5.1" class="cls-5"/><path d="M53.73 22.08s.91-2.3.39-3.94c-.63-1.97-2.45-1.76-2.45-1.76-1.21-1.47-5.62-1.8-9.28.92-2.67 1.98-1.8 4.67-.64 6.22M40.88 22.14s-.39 2.05.85 3.45c1.08 1.22 2.04 2.83 2.44 4.35" class="cls-6"/><path d="M49.59 29.55c.4.17 2.15.35 3.7.08 1.64-.29 1.29-1.43 1.27-3.17-.02-1.73.76-1.95.73-2.39-.03-.44-1.61-1.05-1.8-2.93-.02-.21-.05-.39-.1-.58-.33-1.52-1.3-2.35-1.87-2.77 0 0-1.35 3.31-1.66 3.85-.3.54-1.35 2.15-2.31 1.94-.88-.2-1.69-.73-2.35-.17-.65.56-.51 2.1.4 2.48 0 0-.64 1.63-.82 2.72l-1.87 4.1s5.93 3.9 8.39-.18l-1.71-2.97Z" class="cls-5"/><path d="m46.04 24.43.44.1" class="cls-6"/><circle cx="95.83" cy="31.63" r="18.97" class="cls-5"/><path d="M99.91 40.52c-.4-.06-.81-.1-1.21-.17-5.25-.94-8.94-3.82-10.87-8.83-.61-1.58-.89-3.23-.89-4.92 0-.39.14-.7.44-.96.59-.49 1.17-1 1.75-1.5.54-.47 1.05-.43 1.53.1 1.09 1.2 2.18 2.4 3.27 3.59.47.51.45 1.02-.05 1.5-.69.67-1.38 1.35-2.08 2.02-.1.09-.12.17-.09.3.3 1.15.95 2.07 1.82 2.84.65.58 1.38 1.01 2.23 1.23.15.04.25.02.37-.1.66-.69 1.34-1.38 2-2.07.48-.49.99-.51 1.5-.04l3.61 3.28c.51.47.54.97.09 1.5-.47.55-.94 1.09-1.4 1.64-.2.24-.41.46-.71.57H99.9ZM96.31 24.54v-1.81c4.79-.15 8.59 3.86 8.41 8.4h-1.8c-.32-4.09-2.53-6.28-6.61-6.59Z" class="cls-3"/><path d="M96.33 28.34v-1.86c2.9-.11 4.76 1.7 4.65 4.65h-1.86c.06-1.9-.88-2.85-2.8-2.79Z" class="cls-3"/><circle cx="95.83" cy="82.42" r="18.97" class="cls-5"/><path d="M83.45 75.14h25.9v14.63h-25.9z" class="cls-5"/><path d="m83.45 75.14 12.95 7.32 12.95-7.32M83.45 89.77l9.12-9.48M109.35 89.77l-9.12-9.48" class="cls-6"/></svg>