<svg xmlns="http://www.w3.org/2000/svg" id="Calque_1" data-name="Calque 1" viewBox="0 0 128 128"><defs><style>.cls-1{fill:#d6d6d6}.cls-1,.cls-2,.cls-4{stroke:#000;stroke-linecap:round;stroke-linejoin:round;stroke-width:2px}.cls-2{fill:#ff6d75}.cls-4{fill:#fab0b4}</style></defs><path d="M12.5 87.62h94.59l-2.24 8.52a8.281 8.281 0 0 1-8.01 6.17H24.35c-3.29 0-6.27-1.95-7.59-4.96l-4.26-9.73Z" style="fill:#fff;stroke:#000;stroke-linecap:round;stroke-linejoin:round;stroke-width:2px"/><path d="m99.22 87.62-.89 3.39a8.281 8.281 0 0 1-8.01 6.17H17.83c-.4 0-.79-.03-1.18-.08l.11.26a8.292 8.292 0 0 0 7.59 4.96h72.49c3.76 0 7.05-2.53 8.01-6.17l2.24-8.52h-7.87Z" class="cls-1"/><path d="m67.39 29.29 3.35.86-2.32 60.57h-1.03V29.29z" class="cls-2"/><path d="m70.74 30.15 32.74 13.08-35.06 47.49 2.32-60.57zM112.38 72.88l-8.9-29.65-35.06 47.49 43.96-17.84zM107.09 87.62l-38.67 3.1 43.96-17.84-5.29 14.74zM12.5 87.62s9.31-10.13 23.31-12.46c14.01-2.32 17.62-2.29 17.62-2.29l13.83 14.9-54.75-.16Z" class="cls-4"/><path d="m57.3 68.03-3.87 4.84 13.83 14.9S63.4 68.02 57.3 68.02Z" class="cls-2"/><path d="M70.65 90.07a2.322 2.322 0 0 1-2.23 2.97 2.322 2.322 0 0 1-2.23-2.97h-.02L46.49 33.71c-.13-.35-.1-.74.07-1.07.26-.49.73-.73 1.2-.73.53 0 1.06.3 1.28.87l21.7 57.29h-.09Z" class="cls-1"/></svg>