<svg xmlns="http://www.w3.org/2000/svg" id="Calque_1" data-name="Calque 1" viewBox="0 0 128 128"><defs><style>.cls-1{fill:#f19dbc}.cls-2{fill:#ee7d99}.cls-3,.cls-5{stroke:#000;stroke-miterlimit:10}.cls-3{stroke-linecap:round;fill:none}.cls-5{fill:#f3d587}</style></defs><path d="M120.04 54.79v.05l-.02.04-.02.11v.08l-.05.16-.03.12-.05.21-.02.09c-.82 3.38-4.55 16.16-15.95 26.88-8.83 8.31-16.7 13.72-22.34 17.04l-.25.15c-.25.14-.51.29-.75.43l-.22.12c-.25.15-.51.3-.76.43l-.15.09c-.26.14-.51.28-.76.41l-.17.09c-.24.13-.47.26-.69.37l-.08.04c-.25.13-.49.26-.73.38-.51.26-.98.5-1.41.7l-.04.02c-1.05.51-1.85.85-2.36 1.06l-.07.03-.2.08c-.23.1-.35.14-.35.14s.24-3.1 1.63-7.71l.05-.18.37-1.17.06-.19c.64-1.91 1.46-4.01 2.52-6.23 2.46-5.14 6.22-10.87 11.93-16.03 14.58-13.19 30.91-17.81 30.91-17.81Z" class="cls-3"/><path d="m8 55.01-.02-.07.02.07ZM8.25 56.01c-.03-.12-.06-.22-.08-.32.02.1.05.21.08.32ZM8.12 55.5l-.03-.13.03.13ZM8.05 55.21l-.02-.1.02.1ZM7.97 54.86v-.03.03Z" class="cls-2"/><path d="M55.43 104.11h-.01l-.06-.02-.05-.02c-.06-.03-.15-.06-.26-.1l-.05-.02c-.12-.05-.26-.1-.42-.17l-.05-.02c-.18-.07-.39-.16-.61-.26l-.1-.04c-.48-.21-1.06-.47-1.73-.79l-.14-.06c-.34-.16-.7-.34-1.08-.54l-.11-.05c-.37-.19-.77-.39-1.18-.61l-.08-.04c-5.62-2.98-14.76-8.71-25.4-18.84a57.34 57.34 0 0 1-9.17-11.32 59.89 59.89 0 0 1-4.97-9.96l-.02-.05c-.05-.13-.09-.25-.14-.38-.05-.14-.1-.27-.15-.41-.05-.13-.1-.25-.14-.38-.05-.12-.09-.24-.13-.36-.04-.13-.09-.25-.13-.37s-.08-.23-.11-.34c-.04-.11-.08-.23-.12-.34-.03-.11-.07-.21-.1-.31-.06-.21-.13-.41-.19-.6l-.08-.26c-.03-.1-.05-.2-.08-.29l-.07-.25c-.03-.09-.06-.18-.08-.27l-.06-.2-.06-.25-.05-.18c-.03-.11-.06-.22-.08-.32l-.05-.2-.03-.12-.04-.16-.02-.1-.02-.11-.04-.14v-.07s.39.11 1.12.35c.29.1.63.22 1.03.36.58.2 1.28.46 2.07.76 1.06.41 2.28.91 3.64 1.51.67.3 1.38.63 2.12.98.74.35 1.51.73 2.3 1.13a89.9 89.9 0 0 1 4.99 2.75c.87.51 1.76 1.05 2.65 1.62.9.57 1.8 1.18 2.72 1.81a87.115 87.115 0 0 1 5.51 4.16c.92.76 1.84 1.55 2.75 2.38a50.08 50.08 0 0 1 5.07 5.29c1.12 1.36 2.13 2.72 3.04 4.07a53.22 53.22 0 0 1 3.95 6.95c.02.06.05.12.08.18.99 2.13 1.77 4.14 2.37 5.97l.37 1.16c1.43 4.7 1.68 7.89 1.68 7.89Z" class="cls-3"/><path d="M77.2 88.63a55.038 55.038 0 0 0-2.52 6.23l-.06.19-.37 1.17-.05.18c-1.39 4.61-1.63 7.71-1.63 7.71s-2.53 1.33-6.44 1.72h0l-.1.01c-.24.03-.48.04-.73.06l-.26.02c-.34.01-.69.02-1.04.02-.96 0-1.86-.06-2.69-.17-.55-.07-1.07-.15-1.56-.25s-.94-.21-1.36-.32c-1.86-.51-2.96-1.09-2.96-1.09s-.25-3.19-1.68-7.89l-.37-1.16c-.6-1.83-1.38-3.84-2.37-5.97-.03-.06-.06-.12-.08-.18 4.45-1.85 14.05-4.53 26.27-.28Z" style="fill:#b2f0e9;stroke-linecap:round;stroke:#000;stroke-miterlimit:10"/><path d="M120.04 54.79s-16.33 4.62-30.91 17.81c-5.71 5.16-9.47 10.89-11.93 16.03-12.22-4.25-21.82-1.57-26.27.28a53.22 53.22 0 0 0-3.95-6.95c-.91-1.35-1.92-2.71-3.04-4.07a50.08 50.08 0 0 0-5.07-5.29 74.14 74.14 0 0 0-2.75-2.38 87.115 87.115 0 0 0-5.51-4.16c-.92-.63-1.82-1.24-2.72-1.81-.89-.57-1.78-1.11-2.65-1.62a89.9 89.9 0 0 0-4.99-2.75c-.79-.4-1.56-.78-2.3-1.13-.74-.35-1.45-.68-2.12-.98-1.36-.6-2.58-1.1-3.64-1.51-.79-.3-1.49-.56-2.07-.76-.4-.14-.74-.26-1.03-.36-.73-.24-1.13-.35-1.13-.35l1.41-10.41c11.53 3.53 23.51 5.48 37.56 6.3 5.4.31 11.1.46 17.2.46 2.18 0 4.38-.03 6.6-.09 21.2-.59 38.86-3.8 47.89-6.91l1.42 10.65Z" class="cls-3"/><path d="m9.37 44.38.07-.53.47-3.46s.11.02.3.06c-.19-.04-.3-.06-.3-.06v.06L7.96 54.79l1.41-10.41ZM19.05 42.1c.21.03.41.07.62.11-.21-.04-.42-.07-.62-.11ZM17.66 41.86c.2.04.41.07.62.11-.21-.04-.41-.07-.62-.11ZM20.51 42.34c.21.03.42.07.63.1-.21-.04-.43-.07-.63-.1ZM10.28 40.47c.08.02.17.03.27.06-.1-.02-.2-.04-.27-.06ZM35.87 44.55c.27.03.54.06.81.1-.27-.03-.54-.06-.81-.1ZM37.97 44.79c.22.03.45.05.68.08-.23-.03-.45-.05-.68-.08ZM33.85 44.3c.27.03.53.07.8.1-.27-.03-.54-.07-.8-.1ZM22.06 42.6c.2.03.4.06.6.1-.2-.03-.4-.06-.6-.1ZM43.5 45.37c.25.02.5.05.75.07-.25-.02-.5-.05-.75-.07Z" class="cls-1"/><path d="M47.76 45.74c.33.03.65.05.98.08-.33-.03-.65-.05-.98-.08Z" class="cls-3"/><path d="M45.57 45.56c.3.03.61.05.91.08-.31-.03-.61-.05-.91-.08ZM11.95 40.8c.15.03.32.06.49.1-.17-.03-.34-.07-.49-.1ZM11.27 40.67c.12.02.26.05.4.08-.14-.03-.28-.05-.4-.08ZM26.64 43.31c.12.02.23.03.35.05-.12-.02-.23-.04-.35-.05ZM28.15 43.53c.22.03.44.06.67.1-.22-.03-.44-.06-.67-.1ZM23.69 42.86l.42.06-.42-.06ZM29.96 43.78c.25.03.49.07.74.1-.25-.04-.5-.07-.74-.1ZM31.88 44.04c.25.03.51.07.76.1-.26-.03-.51-.07-.76-.1ZM16.38 41.63c.19.03.39.07.59.1-.2-.04-.39-.07-.59-.1ZM13.67 41.13c.31.06.63.12.98.18-.34-.06-.67-.13-.98-.18Z" class="cls-1"/><path d="M50.02 45.91c.33.02.66.05.99.07-.33-.02-.66-.05-.99-.07ZM52.29 46.06l1.01.06-1.01-.06Z" class="cls-3"/><path d="M15.15 41.41c.2.04.4.07.61.11-.21-.04-.41-.07-.61-.11ZM12.74 40.96c.19.04.39.07.59.11-.2-.04-.4-.08-.59-.11ZM10.73 40.56c.1.02.2.04.32.06-.12-.02-.22-.04-.32-.06ZM10.11 55.5c-.39-.14-.74-.26-1.03-.35.29.1.64.21 1.03.35ZM15.82 57.78Z" class="cls-1"/><path d="M9.58 42.86h0l-.12.88v.1l-.09.53c11.53 3.53 23.51 5.48 37.56 6.3 5.4.31 11.09.46 17.2.46 2.17 0 4.38-.03 6.6-.09 21.2-.59 38.86-3.8 47.89-6.91l-.18-1.31h0l-.33-2.44S90.05 46.35 64 46.46c-3.13-.01-6.29-.11-9.42-.28-.43-.02-.85-.05-1.28-.07l-1.01-.06c-.43-.03-.86-.05-1.28-.08-.33-.02-.66-.04-.99-.07l-1.27-.09c-.33-.03-.65-.05-.98-.08-.43-.03-.85-.07-1.28-.1-.31-.03-.61-.05-.91-.08l-1.32-.12c-.25-.02-.5-.05-.75-.07-1.65-.16-3.27-.33-4.86-.5-.23-.03-.45-.05-.68-.08l-1.29-.15c-.27-.03-.54-.06-.81-.1l-1.22-.15c-.27-.03-.54-.07-.8-.1-.41-.05-.81-.1-1.2-.15-.26-.03-.51-.07-.76-.1-.39-.05-.79-.1-1.17-.16-.25-.04-.5-.07-.74-.1-.38-.05-.77-.11-1.15-.16-.22-.03-.44-.06-.67-.1-.39-.06-.78-.11-1.16-.17-.12-.02-.23-.03-.35-.05-.87-.13-1.72-.26-2.54-.39l-.42-.06c-.35-.06-.69-.11-1.03-.16-.2-.03-.4-.06-.6-.1-.31-.05-.62-.1-.92-.15-.21-.03-.43-.07-.63-.1-.28-.05-.56-.09-.84-.14-.21-.04-.42-.07-.62-.11-.26-.04-.52-.09-.77-.13-.21-.04-.41-.07-.62-.11l-.69-.12c-.2-.04-.39-.07-.59-.1-.21-.04-.43-.08-.63-.11-.21-.04-.41-.07-.61-.11-.17-.03-.34-.06-.5-.09-.34-.06-.67-.12-.98-.18-.12-.02-.23-.04-.34-.07-.2-.04-.4-.08-.59-.11l-.3-.06c-.17-.03-.34-.07-.49-.1-.1-.02-.19-.04-.28-.05-.14-.03-.27-.05-.4-.08l-.23-.05c-.12-.02-.22-.04-.32-.06l-.17-.03c-.11-.02-.19-.04-.27-.06h-.07l-.3-.08-.34 2.47" class="cls-3"/><path d="M24.59 59.96c-.12-.07-.27-.02-.34.1-.07.12-.02.27.1.34.88.49 1.77 1 2.63 1.51l.13.04.21-.12c.07-.12.03-.27-.09-.34-.87-.52-1.76-1.03-2.64-1.52ZM13.54 54.81a.248.248 0 0 0-.32.15c-.05.13.02.27.15.32.89.33 1.84.71 2.82 1.12l.1.02c.1 0 .19-.06.23-.15.05-.13 0-.27-.13-.32-.98-.42-1.94-.8-2.84-1.13ZM45.66 77.19l.19.09.16-.06c.1-.09.12-.24.03-.35-.64-.77-1.32-1.55-2.02-2.29a.242.242 0 0 0-.35-.01c-.1.09-.11.25-.01.35.69.74 1.36 1.5 2 2.27ZM41.71 72.83l.18-.08a.26.26 0 0 0 0-.35c-.72-.69-1.48-1.39-2.26-2.06a.251.251 0 0 0-.35.02c-.09.1-.08.26.02.35.77.67 1.52 1.35 2.24 2.04l.17.07ZM34.85 66.54a.254.254 0 0 0-.35.05c-.08.11-.06.26.05.35.81.6 1.62 1.22 2.41 1.85l.15.05.19-.09c.09-.11.07-.26-.04-.35-.79-.63-1.6-1.25-2.42-1.86ZM19.16 57.18c-.12-.06-.27 0-.33.12s0 .27.12.33c.9.42 1.81.87 2.72 1.34l.11.03.22-.13c.06-.12.01-.27-.11-.33-.92-.47-1.84-.92-2.74-1.35ZM29.83 63.08c-.12-.07-.27-.04-.34.07-.07.11-.04.27.07.34.86.55 1.71 1.11 2.53 1.68l.14.04.2-.11c.08-.11.05-.27-.06-.34-.82-.57-1.68-1.13-2.54-1.69ZM10.54 54.32c.11 0 .21-.07.24-.18a.253.253 0 0 0-.17-.31c-.52-.15-1.01-.27-1.45-.36a.248.248 0 0 0-.29.19c-.03.13.06.27.19.29.43.09.9.21 1.42.36h.07ZM103.29 59.48c.12-.07.27-.02.34.1.07.12.02.27-.1.34-.88.49-1.77 1-2.63 1.51l-.13.04-.21-.12a.247.247 0 0 1 .09-.34c.87-.52 1.76-1.03 2.64-1.52ZM114.34 54.32c.13-.05.27.02.32.15.05.13-.02.27-.15.32-.89.33-1.84.71-2.82 1.12l-.1.02c-.1 0-.19-.06-.23-.15-.05-.13 0-.27.13-.32.98-.42 1.94-.8 2.84-1.13ZM82.22 76.71l-.19.09-.16-.06a.251.251 0 0 1-.03-.35c.64-.77 1.32-1.55 2.02-2.29.09-.1.25-.11.35-.01.1.09.11.25.01.35-.69.74-1.36 1.5-2 2.27ZM86.17 72.35l-.18-.08a.26.26 0 0 1 0-.35c.72-.69 1.48-1.39 2.26-2.06.1-.09.26-.08.35.02.09.1.08.26-.02.35-.77.67-1.52 1.35-2.24 2.04l-.17.07ZM93.03 66.06c.11-.08.26-.06.35.05.08.11.06.26-.05.35-.81.6-1.62 1.22-2.41 1.85l-.15.05-.19-.09a.244.244 0 0 1 .04-.35c.79-.63 1.6-1.25 2.42-1.86ZM108.72 56.7c.12-.06.27 0 .33.12s0 .27-.12.33c-.9.42-1.81.87-2.72 1.34l-.11.03-.22-.13a.248.248 0 0 1 .11-.33c.92-.47 1.84-.92 2.74-1.35ZM98.05 62.6c.12-.07.27-.04.34.07.07.11.04.27-.07.34-.86.55-1.71 1.11-2.53 1.68l-.14.04-.2-.11a.241.241 0 0 1 .06-.34c.82-.57 1.68-1.13 2.54-1.69ZM117.34 53.84c-.11 0-.21-.07-.24-.18-.04-.13.04-.27.17-.31.52-.15 1.01-.27 1.45-.36.13-.03.26.06.29.19.03.13-.06.27-.19.29-.43.09-.9.21-1.42.36h-.07Z"/><path d="M60.16 29.91a3.93 3.93 0 0 1-7.86 0c0-2.17 3.93-13.06 3.93-13.06s3.93 10.88 3.93 13.06ZM72.86 33.69a3.93 3.93 0 0 1-7.86 0c0-2.17 3.93-13.06 3.93-13.06s3.93 10.88 3.93 13.06ZM65.15 13.88a2.5 2.5 0 0 1-5 0c0-1.38 2.5-8.28 2.5-8.28s2.5 6.9 2.5 8.28Z" class="cls-5"/><path d="M-2668.5-2755.83h6467.34v6437.3H-2668.5z" style="stroke:#fff;stroke-linejoin:round;stroke-width:8px;fill:none;stroke-linecap:round"/></svg>