<svg xmlns="http://www.w3.org/2000/svg" id="Calque_1" data-name="Calque 1" viewBox="0 0 200 128"><defs><style>.cls-1,.cls-3{fill:#76ac75;stroke:#000;stroke-width:2px;stroke-linecap:round;stroke-linejoin:round}.cls-3{fill:#ffa75f}</style></defs><path d="M83.37 90.26v15.64c-.63.05-1.37.08-2.25.05-2.25-.05-3.39-.37-6.1-.13-2.19.2-3.24.56-5.65 1.11-5.37 1.2-8.06 1.81-10.21 1.35-5.04-1.08-7.63-5.8-7.76-6.04-.17-.32-.93-1.81-1.28-3.85-.08-.44-.13-.91-.17-1.39v-.59c0-.6.05-1.23.16-1.87.17-.88.44-1.78.91-2.69 1.58-3.09 4.37-4.46 5.15-4.83 2-.94 5.88-.44 6.4-.4 1.54.1 1.57.05 4.28.84 2.2.64 1.95.26 7.37 1.08 4.24.65 6.56.99 9.17 1.72Z" class="cls-3"/><path d="M43.02 95.59c-.67.13-1.3.33-2.01.56-.91.28-1.75.6-2.5.93-1.78.1-4.74.16-8.56-.43-3.53-.54-5.34-.84-7.26-2.09-2.52-1.64-3.55-3.68-3.82-4.24-.92-1.97-1.31-4.55-.6-4.9.97-.5 3.47 3.44 4.5 2.9.52-.27.08-1.37.54-3.47.27-1.22.94-3.26 1.61-3.23.78.03 1.48 2.79 1.72 3.73.36 1.41.38 2.25.9 2.42.52.16.88-.56 2.15-.8.42-.08 1.29-.26 1.59.14.4.52-.74 1.39-.59 2.8.07.79.51 1.34 1.15 2.14.49.62 1.2 1.49 2.22 1.94 1.49.64 3.65.29 5.83.14.09.05.19.11.28.16 1.05.59 1.98.99 2.86 1.31Z" class="cls-1"/><path d="M49.95 97c.04.48.09.95.16 1.39-1 0-2.36.02-4.12.19-2.56.25-4.18.62-5.73 1.67-.72.5-1.85 1.29-1.96 2.46-.09.82.4.98.95 2.64.33.99.73 2.3.28 3.64-.13.39-.38 1.14-1 1.35-.68.23-1.46-.29-1.99-.64-1.07-.72-1.3-1.44-1.71-1.34-.4.08-.31.76-.85 1.69-.1.16-1.08 1.84-2.14 1.73-1.03-.11-1.57-1.93-1.62-2.13-.49-1.77.26-3.29-.03-3.41-.23-.08-.6.85-1.64 1.72-.57.48-1.38 1.24-1.75 1.03-.57-.31.06-2.66.78-4.26.45-1 .9-1.97 1.91-2.81.83-.69 1.28-.66 3.07-1.6 1.16-.62 1.13-.72 2.48-1.49.8-.46 1.97-1.13 3.45-1.77.75-.33 1.59-.65 2.5-.93.72-.23 1.34-.42 2.01-.56.51.2 1.02.36 1.5.52.06.02.13.04.19.06 1.51.47 3.49.79 5.23.82Z" class="cls-1"/><path d="M46.51 76.69c.58.77-1.4 3.43-2.38 4.6-1.05 1.24-1.91 1.9-1.71 2.38.3.66 2.31-.05 2.8.78.43.72-.6 2.08-.85 2.41-.54.72-1.2 1.21-2.17 1.93-1.07.79-1.41.91-1.51 1.34-.17.78.69 1.57 1.13 1.96 1.58 1.43 3.45 1.93 4.71 2.16 1.45.26 2.63.3 3.58.3-.11.64-.16 1.27-.16 1.86V97c-1.74-.03-3.72-.35-5.23-.82-.06-.02-.13-.04-.19-.06-.49-.16-.99-.32-1.5-.52-.88-.32-1.81-.72-2.86-1.31-.09-.05-.19-.11-.28-.16-1.88-1.06-3.41-1.96-4.59-3.81-.4-.62-1.48-2.52-1.42-5.03 0-.4.05-.83 1.31-4.63 1.2-3.63 1.5-4.28 2-4.31.69-.07 1.5 1.03 1.76 2 .31 1.17-.22 2 .04 2.16.47.27 1.76-2.26 4.52-3.46.9-.39 2.59-.92 3-.36Z" class="cls-1"/><path d="M87.2 90.55h4.27v15.46H87.2zM99.338 90.285l4.042 1.376-4.982 14.635-4.043-1.376zM111.514 91.528l3.23 2.791-10.107 11.698-3.231-2.792zM122.771 94.767l2.135 3.698-13.389 7.73-2.135-3.698zM136.91 101.56v4.27h-15.46v-4.27z" class="cls-3"/><path d="M91.16 29c5.16 4.09 10.32 8.18 15.49 12.26 2.39 1.89 4.78 3.79 7.21 5.63 3.61 2.73 7.27 5.4 10.91 8.1 2.61 1.94 5.21 3.91 7.81 5.86 1.94 1.45 3.88 2.9 5.82 4.34 2.19 1.64 4.37 3.29 6.58 4.91 1.97 1.44 3.92 2.9 5.87 4.37 3.19 2.41 6.4 4.78 9.6 7.17 2.03 1.51 4.05 3.04 6.09 4.54 3.22 2.36 6.41 4.76 9.6 7.16 1.86 1.4 3.76 2.75 5.6 4.17.76.59 1.56 1.12 2.32 1.71 3.08 2.4 3.54 6.71 1.05 9.7-2.05 2.46-5.99 3.04-8.62 1.22-1.86-1.28-3.49-2.85-5.22-4.29-3.05-2.52-6.06-5.09-9.09-7.63l-5.13-4.32-11.28-9.51-5.34-4.5c-2.78-2.35-5.59-4.67-8.34-7.05-1.12-.97-2.33-1.83-3.37-2.89-.33-.34-.58-.33-.88.07-.77 1.02-1.59 2-2.36 3.02-.31.41-.55.43-.93.1-2.75-2.36-5.55-4.65-8.26-7.07-1.2-1.07-2.42-2.12-3.63-3.17-2.03-1.78-4.04-3.58-6-5.43-1.75-1.64-3.53-3.26-5.26-4.92-1.97-1.9-3.91-3.82-5.83-5.76-2.13-2.15-4.21-4.35-6.24-6.6-4.59-5.08-8.97-10.33-12.67-16.11-1.36-2.12-2.61-4.3-3.58-6.63-.09-.22-.18-.45-.25-.68-.11-.43.06-.77.4-1.01.35-.25.73-.25 1.08 0 2.26 1.64 4.41 3.42 6.6 5.16 1.23.97 2.47 1.94 3.7 2.91 2.18 1.72 4.35 3.44 6.53 5.17Z" style="fill:#d6d6d6;stroke-linecap:round;stroke-linejoin:round;stroke:#000;stroke-width:2px"/><path d="M-1534.49-164.33h3385.57v2571.67h-3385.57z" style="fill:none;stroke:#fff;stroke-width:8px;stroke-linecap:round;stroke-linejoin:round"/></svg>