<svg xmlns="http://www.w3.org/2000/svg" id="Calque_1" data-name="Calque 1" viewBox="0 0 128 128"><defs><style>.cls-1,.cls-3{stroke:#000;stroke-miterlimit:10}.cls-3,.cls-5{fill:#d6d6d6}</style></defs><path d="M59.09 20.37s-.48.08-1.07.08H35.59c-.59 0-1.07-.03-1.07-.08v-2.05s.48-.08 1.07-.08h22.43c.59 0 1.07.03 1.07.08v2.05ZM91.67 20.37s-.48.08-1.07.08H68.17c-.59 0-1.07-.03-1.07-.08v-2.05s.48-.08 1.07-.08H90.6c.59 0 1.07.03 1.07.08v2.05ZM32.82 109.5h3.43c.89 0 1.62.73 1.62 1.62v3.76c0 .89-.73 1.62-1.62 1.62h-3.43c-.89 0-1.62-.73-1.62-1.62v-3.76c0-.89.73-1.62 1.62-1.62ZM91.11 109.5h3.43c.89 0 1.62.73 1.62 1.62v3.76c0 .89-.73 1.62-1.62 1.62h-3.43c-.89 0-1.62-.73-1.62-1.62v-3.76c0-.89.73-1.62 1.62-1.62Z" class="cls-1"/><path d="M29.81 20.45h67.74a3.24 3.24 0 0 1 3.24 3.24v86.08a3.24 3.24 0 0 1-3.24 3.24H29.81a3.24 3.24 0 0 1-3.24-3.24V23.68a3.24 3.24 0 0 1 3.24-3.24Z" class="cls-3"/><path d="M32.26 40.01H95.1a3.24 3.24 0 0 1 3.24 3.24v47.09a3.24 3.24 0 0 1-3.24 3.24H32.26a3.24 3.24 0 0 1-3.24-3.24V43.26a3.24 3.24 0 0 1 3.24-3.24Z" class="cls-1"/><path d="M36.99 50.87h53.38v31.16H36.99z" class="cls-3"/><path d="M36.99 71.17h53.38v1.4H36.99z" style="fill:#a07637;stroke:#000;stroke-miterlimit:10"/><path d="M96.16 45.62c0 .77-.63 1.4-1.4 1.4H32.61c-.77 0-1.4-.63-1.4-1.4 0-.77.63-1.4 1.4-1.4h62.15c.77 0 1.4.63 1.4 1.4Z" style="fill:#fff;stroke:#000;stroke-miterlimit:10"/><path d="M42.68 30.21c0 1.84-1.49 3.32-3.33 3.32s-3.32-1.49-3.32-3.32 1.49-3.33 3.32-3.33 3.33 1.49 3.33 3.33ZM54.84 30.21c0 1.84-1.49 3.32-3.32 3.32s-3.33-1.49-3.33-3.32 1.49-3.33 3.33-3.33 3.32 1.49 3.32 3.33ZM67.01 30.21c0 1.84-1.49 3.32-3.32 3.32s-3.33-1.49-3.33-3.32 1.49-3.33 3.33-3.33 3.32 1.49 3.32 3.33ZM79.17 30.21c0 1.84-1.49 3.32-3.33 3.32s-3.32-1.49-3.32-3.32 1.49-3.33 3.32-3.33 3.33 1.49 3.33 3.33ZM91.33 30.21c0 1.84-1.49 3.32-3.32 3.32s-3.33-1.49-3.33-3.32 1.49-3.33 3.33-3.33 3.32 1.49 3.32 3.33Z" class="cls-1"/><path d="M40.25 32.51c0 .49-.4.9-.9.9-.49 0-.9-.4-.9-.9v-4.59c0-.5.4-.9.9-.9.49 0 .9.4.9.9v4.59ZM52.41 32.51c0 .49-.4.9-.9.9s-.9-.4-.9-.9v-4.59c0-.5.4-.9.9-.9.49 0 .9.4.9.9v4.59ZM64.58 32.51c0 .49-.4.9-.89.9-.5 0-.9-.4-.9-.9v-4.59a.894.894 0 1 1 1.79 0v4.59ZM76.74 32.51c0 .49-.4.9-.9.9-.49 0-.9-.4-.9-.9v-4.59c0-.5.4-.9.9-.9.49 0 .9.4.9.9v4.59ZM88.9 32.51c0 .49-.4.9-.9.9-.49 0-.9-.4-.9-.9v-4.59c0-.5.4-.9.9-.9.49 0 .9.4.9.9v4.59Z" class="cls-5"/><path d="M-1435.93-1946.55H808.52v5948.74h-2244.45z" style="fill:none;stroke:#fff;stroke-linecap:round;stroke-linejoin:round;stroke-width:8px"/></svg>