<svg xmlns="http://www.w3.org/2000/svg" id="Calque_1" viewBox="0 0 128 128"><defs><style>.cls-1,.cls-2,.cls-4{stroke:#000;stroke-linecap:round;stroke-linejoin:round}.cls-1,.cls-4{fill:none}.cls-2{fill:#d6d6d6}.cls-2,.cls-4{stroke-width:2px}</style></defs><path d="m104.88 109.51-3.93-28.92M84.37 63.59H96c1.51 0 2.79 1.12 2.99 2.61l.97 7.15" class="cls-4"/><path d="M100.95 80.59H79.86l.83-4.75c.25-1.44 1.5-2.49 2.97-2.49h16.3l.99 7.24Z" style="fill:#bbfedb;stroke-width:2px;stroke:#000;stroke-linecap:round;stroke-linejoin:round"/><path d="m79.86 80.59-5.28 30.04" class="cls-4"/><circle cx="105.42" cy="113.73" r="4.26" class="cls-2"/><path d="M78.48 88.46h23.54" class="cls-1"/><path d="M84.37 62.73v1.73c0 .37-.29.67-.66.67h-7.96c-.32 0-.59-.22-.66-.52.05-.05.1-.11.14-.16.56-.71.85-1.55.89-2.39h7.59c.37 0 .66.3.66.67ZM73.67 110.63h1.81c.92 0 1.66.75 1.66 1.66v5.18H72v-5.18c0-.92.75-1.66 1.66-1.66Z" class="cls-2"/><circle cx="63.18" cy="19.36" r="8.59" class="cls-4"/><path d="m54.69 33.98-.94.2a3.669 3.669 0 0 0-2.82 4.34l1.66 7.82c-1.47 2.69-2.69 6.01-2.96 10.4-.66 10.46-1.1 13.53-3.42 15.48l8.34 17.26c.29.61.44 1.25.45 1.89v.08l2.77 20.87c.33 2.48-1.43 4.77-3.91 5.1-2.48.33-4.77-1.43-5.1-3.91L46 92.68l-8.21-18.62-1.75 19.87c-.07.66-.28 1.28-.6 1.82v.02l-8.67 19.27c-1.03 2.28-3.73 3.31-6.01 2.28-2.27-1.03-3.3-3.73-2.27-6l8.62-19.16 2.11-20.19c0-.11.02-.21.05-.32-2.74-3.09-2.3-6.51-2.3-6.51s-.68-14.74 3.73-24.12c4.41-9.36 10.12-14.96 13.78-15.49 3.66-.54 11.97-.09 14.31 7.75.3 1.02.3 1.96.07 2.87-.67-1.59-2.4-2.54-4.14-2.17Z" class="cls-4"/><path d="M76.12 62.06c-.04.84-.33 1.68-.89 2.39-.04.05-.09.11-.14.16a4.292 4.292 0 0 1-5.89.6L55.9 55.18c-.43-.33-.78-.72-1.04-1.16-.51-.49-.88-1.12-1.03-1.87l-1.24-5.8-1.66-7.82c-.42-1.97.85-3.92 2.82-4.34l.94-.21c1.74-.36 3.48.59 4.14 2.18.09.2.15.42.2.64l2.52 11.89 12.93 9.73c1.16.9 1.72 2.27 1.64 3.64Z" class="cls-4"/><path d="m108.83 31.11-12.6 21.7" class="cls-1"/><path d="m92.65 49.05-.03 9.97 8.65-4.96-8.62-5.01z"/></svg>