<svg xmlns="http://www.w3.org/2000/svg" id="Calque_1" data-name="Calque 1" viewBox="0 0 200 128"><defs><style>.cls-1,.cls-3,.cls-6{stroke:#000}.cls-1,.cls-3,.cls-6,.cls-7{stroke-linecap:round;stroke-linejoin:round}.cls-1{fill:#bfe6fc}.cls-6,.cls-7{fill:none}.cls-9{fill:#f9fbfc}.cls-10{fill:#fafbfd}.cls-11{fill:#fafcfd}.cls-12{fill:#fcfdfd}.cls-13{fill:#fbfcfd}.cls-14{fill:#fdfdfe}.cls-3{fill:#d6d6d6}.cls-18{fill:#116caf}.cls-19{fill:#156fb0}.cls-20{fill:#146eb0}.cls-3,.cls-6,.cls-7{stroke-width:2px}.cls-7{stroke:#ff6d75}</style></defs><path d="m53.64 41.28-3.22-5.95M50.09 43.2l-3.22-5.95" class="cls-7"/><path d="m8.7 52.74 55.18-29.87L84 14.13l5.58 10.3-18.2 12.42-55.13 29.84c-1.31.71-2.96.22-3.67-1.09L7.6 56.41a2.714 2.714 0 0 1 1.09-3.67Z" class="cls-6"/><path d="M85.78 11.16h18.13v7.94H85.78z" style="fill:#fce9b9;stroke-width:2px;stroke-linecap:round;stroke-linejoin:round;stroke:#000" transform="rotate(151.57 94.848 15.13)"/><path d="m100.23 16.47-3.56-6.58M96.01 18.75l-3.57-6.58" class="cls-6"/><rect width="21.59" height="7.48" x="38.47" y="36.06" class="cls-6" rx="3.74" ry="3.74" transform="rotate(151.57 49.266 39.803)"/><path d="m69.34 32.78-3.22-5.95M20.09 59.44l-3.22-5.95" class="cls-6"/><path d="M171.51 37.26H87.38c-1.17 0-2.12.95-2.12 2.12v56.07h88.37V39.38c0-1.17-.95-2.12-2.12-2.12Z" class="cls-3"/><path d="M91.52 41.99h75.84v48.73H91.52z" class="cls-1"/><path d="M121.4 114.49h16.28v3.16H121.4z" style="fill:#d6d6d6"/><path d="M137.68 115.41v.99c0 .68-.41 1.24-.91 1.24h-14.73c-.5 0-.91-.56-.91-1.24v-.99H68.91l1.55 4.64h118.06l1.43-4.64h-52.28Z" class="cls-3"/><path d="M68.92 115.6h121.04l-16.33-20.15H85.26L68.92 115.6z" class="cls-3"/><path d="m126.8 100.45 5.09-.02 1.61 3.99h-8.12l1.42-3.97zM117.33 106.53l24.4-.03 1.62 4h-27.44l1.42-3.97zM124.14 100.45h-.03l-1.43 3.97h-5.06l1.41-3.97 5.1-.02.01.02zM116.32 100.45h-.02l-1.43 3.97h-5.06l1.41-3.97 5.09-.02.01.02zM108.51 100.45h-.03l-1.42 3.97h-5.07l1.42-3.97 5.09-.02.01.02zM100.7 100.45h-.03l-1.42 3.97h-5.07l1.42-3.97 5.09-.02.01.02zM92.93 100.45h-.03l-1.43 3.97h-6.79l3.15-3.97 5.09-.02.01.02zM134.73 100.45h.03l1.42 3.97h5.07l-1.42-3.97-5.09-.02-.01.02zM142.54 100.45h.03l1.42 3.97h5.07l-1.42-3.97-5.09-.02-.01.02zM150.35 100.45h.03l1.43 3.97h5.06l-1.42-3.97-5.09-.02-.01.02zM158.16 100.45h.03l1.43 3.97h5.06l-1.41-3.97-5.1-.02-.01.02zM165.94 100.45h.02l1.43 3.97h6.79l-3.14-3.97-5.1-.02v.02zM144.57 106.53h.03l1.43 3.96h5.06l-1.41-3.96-5.1-.02-.01.02zM152.39 106.53h.02l1.43 3.96h5.06l-1.41-3.96-5.09-.02-.01.02zM160.2 106.53h.03l1.42 3.96h5.07l-1.42-3.96-5.09-.02-.01.02z" class="cls-1"/><path d="M167.97 106.53h.03l1.42 3.96 9.65.01-3.15-3.97-7.94-.02-.01.02z" style="stroke-width:.79px;fill:#bfe6fc;stroke-linecap:round;stroke-linejoin:round;stroke:#000"/><path d="m169.42 110.49 9.65.01-3.15-3.97-7.94-.02 1.44 3.98zM89.63 110.49l-9.65.01 3.15-3.98 7.94-.02-1.44 3.99zM114.47 106.53h-.03l-1.43 3.96h-5.06l1.41-3.96 5.1-.02.01.02zM106.65 106.53h-.02l-1.43 3.96h-5.06l1.41-3.96 5.09-.02.01.02zM98.84 106.53h-.03l-1.42 3.96h-5.07l1.42-3.96 5.09-.02.01.02z" class="cls-1"/><path d="M106.3 43.44v45.72h45.72V43.44H106.3Zm40.24 35.55c.19-1 .38-1.97.56-2.94h.49l-.81 4.32c-.35.07-.56-.01-.76-.31-.58-.88-1.21-1.73-1.82-2.59-.02-.04-.05-.07-.11-.15-.2 1.04-.39 2.04-.58 3.04h-.49c.27-1.44.54-2.87.81-4.32.18 0 .36-.02.53 0 .07.01.14.09.19.16.63.88 1.25 1.76 1.88 2.64a7 7 0 0 1 .11.15Zm-14.08-2.43c.03-.17.06-.33.09-.51h3.13c-.03.18-.06.34-.09.52-.35-.03-.7-.06-1.07-.09-.25 1.31-.49 2.59-.74 3.88h-.92c.24-1.28.48-2.56.73-3.88-.4.03-.77.06-1.14.08Zm-7.9-5.73c-.61-.36-1.21-.74-1.81-1.11-.63-.39-.85-1.04-.57-1.73.39-.94 1.6-1.47 2.53-.84.88.6 1.81 1.12 2.71 1.69.16.1.28.11.45.02 1.11-.59 2.23-1.17 3.35-1.76.34-.18.7-.28 1.09-.21.67.11 1.09.61 1.09 1.41-.04.57-.39 1.06-.99 1.38-.77.41-1.55.81-2.32 1.21-.13.07-.18.15-.2.29-.17 1.17-.35 2.33-.51 3.5-.07.51-.62.81-1.06.51-.42-.29-.87-.54-1.29-.81-.12-.08-.21-.08-.33-.02-.52.28-1.04.56-1.57.83-.12.06-.27.11-.41.12-.31.01-.53-.25-.48-.56.17-1.16.34-2.32.52-3.47.03-.2 0-.32-.19-.44Zm-1.35 6.72c.05 1.63-1.22 2.91-2.9 2.94-.23-.03-.46-.04-.68-.09-.76-.18-1.2-.74-1.23-1.52-.07-1.93 1.66-3.3 3.59-2.86.75.17 1.19.75 1.21 1.54Zm2.95-17.18c-.63-.37-1.24-.76-1.86-1.14-.67-.41-.87-1.1-.54-1.81.4-.87 1.56-1.4 2.51-.76.89.6 1.82 1.13 2.72 1.7.14.09.25.09.39.02 1.11-.59 2.22-1.17 3.33-1.75.4-.21.82-.33 1.27-.21.74.18 1.14.92.9 1.68-.15.5-.48.86-.94 1.1-.78.4-1.55.8-2.32 1.21-.08.05-.17.14-.18.23-.15.93-.28 1.86-.41 2.79l-.06.54c-.02.1-.05.21-.07.31-.11.48-.58.68-1.01.42-.44-.27-.88-.54-1.32-.82-.12-.08-.21-.08-.33-.02-.52.28-1.04.56-1.57.83-.12.06-.27.11-.41.12-.3.01-.5-.21-.49-.51 0-.11.02-.21.04-.32.02-.17.03-.34.05-.51.07-.44.15-.88.22-1.32.08-.49.14-.98.22-1.46.03-.15 0-.23-.14-.31Zm1.78-4.37c.23-.91 1.17-1.55 2.04-1.41.85.15 1.32.87 1.12 1.71-.2.8-.99 1.43-1.82 1.43-.95 0-1.57-.81-1.34-1.73Zm1.61 10.85c-.21.78-.99 1.38-1.81 1.38-.95 0-1.57-.8-1.34-1.73.19-.78.92-1.39 1.72-1.43 1.01-.05 1.69.8 1.43 1.77Zm5.63 3.06c-.07.04-.15.08-.23.11-.44.17-.8-.09-.74-.56.07-.56.16-1.11.25-1.67.09-.64.19-1.28.28-1.92 0-.07-.06-.18-.13-.22-.58-.37-1.17-.71-1.74-1.09-.26-.17-.47-.4-.7-.6-.11-.3-.17-.61-.1-.94.23-.8.76-1.27 1.59-1.39.32-.05.63.03.91.21.96.6 1.92 1.19 2.88 1.79.12.07.21.09.33.02.94-.5 1.88-.99 2.82-1.48.05-.03.1-.07.15-.11.3-.13.59-.29.9-.38.53-.16 1.04-.06 1.41.37.4.45.42.97.17 1.51-.06.14-.15.26-.22.4-.37.4-.86.6-1.32.84-.54.29-1.09.57-1.64.85-.12.06-.17.14-.19.28-.16 1.15-.35 2.3-.5 3.45-.08.62-.66.88-1.13.53-.39-.28-.81-.51-1.21-.77-.14-.09-.23-.08-.37 0-.49.27-.98.52-1.47.78Zm1.21-8.64c.22-.91 1.17-1.57 2.03-1.42.87.15 1.35.9 1.12 1.75-.21.79-.99 1.39-1.8 1.39-.95 0-1.58-.79-1.35-1.72Zm7.54-10.11c.74.17 1.15.89.94 1.64-.14.51-.46.88-.92 1.13-.75.39-1.49.79-2.24 1.16-.21.11-.29.24-.32.46-.16 1.14-.33 2.27-.5 3.41-.08.54-.58.76-1.04.47-.43-.27-.87-.53-1.29-.81-.12-.08-.21-.08-.33-.01-.52.28-1.03.55-1.55.82-.11.06-.24.11-.36.12-.35.04-.56-.18-.54-.58.09-.65.2-1.35.3-2.05.07-.51.14-1.01.23-1.51.02-.14-.02-.2-.13-.27-.64-.39-1.27-.78-1.9-1.17-.6-.37-.82-1.01-.57-1.68.37-.98 1.6-1.54 2.56-.89.89.6 1.83 1.14 2.75 1.71.14.09.24.08.37 0 1.1-.58 2.21-1.15 3.31-1.74.4-.21.81-.34 1.27-.23Zm-6.03-.23c.12-.96 1.13-1.73 2.06-1.57.85.14 1.33.86 1.13 1.7-.19.8-.98 1.43-1.81 1.44-.89 0-1.49-.69-1.38-1.57Zm-8.45-5.3c.15-.95 1.14-1.68 2.06-1.53.84.14 1.32.85 1.14 1.69-.18.81-.98 1.46-1.82 1.46-.91 0-1.52-.72-1.37-1.61Zm-3.8.78c.49-.49 1.35-.77 2.12-.26.91.59 1.84 1.14 2.76 1.72.14.08.23.08.37 0 1.11-.59 2.22-1.17 3.33-1.75.43-.23.88-.35 1.36-.19.54.18.89.65.88 1.29-.05.63-.39 1.13-1 1.46-.77.41-1.54.81-2.32 1.21-.12.06-.18.13-.2.27-.16 1.14-.33 2.27-.5 3.41 0 .07-.02.14-.03.2-.11.46-.59.68-1 .43-.45-.28-.9-.57-1.36-.83-.07-.05-.2-.05-.28-.01-.5.25-.98.51-1.47.77-.07.03-.13.07-.2.11-.21.09-.43.12-.63-.02-.2-.14-.21-.34-.18-.56l.24-1.62c.09-.64.19-1.28.28-1.92.01-.07-.06-.18-.12-.22-.59-.37-1.17-.77-1.78-1.09-1.03-.55-.97-1.71-.27-2.4Zm-6.2 4.53c.11-1.02 1.22-1.8 2.21-1.56.75.18 1.17.91.98 1.69-.2.81-.99 1.42-1.82 1.42-.88 0-1.47-.67-1.37-1.55Zm-4.24 1.44c.34-1.04 1.62-1.62 2.58-.97.89.6 1.83 1.14 2.75 1.72.14.08.23.09.37.02 1.09-.58 2.2-1.15 3.29-1.73.45-.24.9-.37 1.4-.21.55.17.89.64.89 1.32-.05.58-.38 1.09-.98 1.41-.76.4-1.52.8-2.29 1.19-.17.08-.24.18-.27.37-.15 1.14-.34 2.27-.49 3.41-.08.59-.66.84-1.11.52-.4-.29-.84-.52-1.25-.79-.12-.08-.21-.07-.33 0-.5.28-1.01.54-1.51.8-.08.04-.16.09-.25.12-.42.14-.76-.14-.7-.58.07-.54.15-1.07.23-1.6.1-.65.19-1.31.3-1.96.02-.14-.05-.19-.14-.25-.64-.39-1.27-.78-1.9-1.17-.58-.36-.8-.95-.59-1.6Zm5.93 8.86c-.03 1.11-1.26 2.01-2.3 1.69-.15-.05-.29-.12-.43-.18-.02-.02-.03-.05-.05-.07-.48-.42-.53-.95-.41-1.53.18-.27.32-.57.55-.8.41-.41.93-.59 1.52-.49.71.12 1.15.67 1.13 1.38Zm-7.33 1.31c.45-.78 1.5-1.23 2.35-.7.95.6 1.91 1.18 2.86 1.78.16.1.28.08.38-.06.26-.12.52-.23.78-.37.89-.46 1.78-.93 2.67-1.39.35-.19.74-.25 1.13-.15.75.18 1.14.95.89 1.72-.16.48-.48.82-.92 1.05-.76.4-1.52.8-2.28 1.18-.15.08-.22.17-.25.34-.16 1.17-.33 2.33-.51 3.5-.08.52-.59.75-1.05.47-.43-.27-.87-.53-1.29-.81-.12-.08-.21-.08-.33-.01-.52.28-1.04.56-1.57.83-.12.06-.27.11-.41.11-.31.01-.52-.24-.48-.55.17-1.16.34-2.32.52-3.47.03-.2.01-.33-.19-.44-.6-.35-1.2-.72-1.78-1.1-.21-.14-.38-.34-.56-.52-.22-.48-.2-.95.06-1.42Zm-1.07 13.51h.92c-.24 1.28-.48 2.55-.73 3.86l1.4-.09c-.03.18-.06.35-.09.52h-2.32c.27-1.44.54-2.86.81-4.29Zm-4.02 3.01c-.12 0-.21.03-.27.15-.16.32-.34.63-.49.95-.07.15-.15.22-.32.2-.1-.02-.21 0-.35 0 .05-.08.08-.14.12-.21.74-1.26 1.5-2.52 2.23-3.79.17-.29.34-.47.72-.34.29 1.44.58 2.89.87 4.35h-1.05c-.05-.36-.12-.73-.16-1.09-.02-.16-.07-.22-.24-.21-.35.01-.7 0-1.05 0Zm2.18 5.67c-.15.7-.3 1.41-.46 2.13h-1.07c.32-1.49.63-2.98.95-4.47h2.7c-.04.19-.08.36-.12.54-.46-.02-.92-.03-1.38-.06-.2-.02-.26.06-.29.24-.07.38-.15.76-.23 1.14h1.59c-.03.16-.07.33-.1.49h-1.6Zm4.96 2.12c-.07-.44-.14-.88-.21-1.34h-1.59c-.06 0-.13.07-.17.13-.21.34-.41.67-.6 1.02-.08.15-.17.21-.34.18-.13-.02-.26 0-.43 0 .05-.09.09-.15.13-.21.89-1.34 1.78-2.67 2.66-4.01.13-.2.26-.34.52-.28.06.02.14 0 .23 0 .34 1.5.68 3 1.02 4.51h-1.22Zm1.59-6.51h-2.32l.81-4.29h.92c-.24 1.29-.48 2.55-.73 3.86.49-.03.94-.06 1.4-.09-.03.18-.06.34-.09.52Zm6.1 6.51h-1.13c.11-.98.21-1.96.32-3.01-.08.09-.12.12-.15.16-.65.88-1.29 1.75-1.93 2.63-.11.15-.22.25-.42.18-.3-.94-.61-1.89-.91-2.84-.02 0-.05-.01-.07-.02-.31.96-.61 1.92-.92 2.89h-.61c.02-.05.03-.11.05-.16.51-1.36 1.02-2.72 1.52-4.08.06-.17.12-.25.32-.21.11.02.23 0 .36-.01.32 1 .65 2.01.99 3.05.06-.07.11-.11.15-.16.69-.92 1.39-1.83 2.07-2.75.08-.1.14-.15.28-.13.13.03.27 0 .42 0l-.33 4.44Zm2.14 0h-1.07c.32-1.49.63-2.98.95-4.45h1.07c-.31 1.49-.63 2.97-.94 4.45Zm.55-6.47c-.41.03-.83.09-1.22.03-1.06-.17-1.57-.91-1.43-1.98.24-1.81 2.06-2.95 3.76-2.36.11.04.22.09.36.15-.09.23-.18.45-.28.68-.05-.03-.08-.04-.09-.06-.39-.69-1.2-.68-1.78-.25-.71.53-1.15 1.86-.9 2.7.17.56.71.9 1.3.76.3-.07.58-.23.88-.36.05-.02.1-.05.17-.09-.07.49-.33.74-.77.78Zm3.44 6.44h-2.69c.31-1.48.62-2.95.94-4.42H129c-.28 1.31-.55 2.62-.84 3.97.56-.03 1.09-.05 1.63-.08-.03.18-.07.34-.11.53Zm.4-7.76h-1.34c-.06 0-.14.08-.18.14-.17.31-.34.63-.49.95-.08.16-.16.24-.34.21-.1-.02-.21 0-.34 0 .04-.08.07-.14.1-.19.75-1.28 1.52-2.55 2.25-3.84.17-.3.36-.41.7-.32.29 1.44.58 2.89.88 4.36h-1.05c-.06-.42-.12-.85-.19-1.3Zm.63 7.79c.32-1.5.63-2.98.95-4.45h1.07c-.32 1.49-.63 2.98-.95 4.45h-1.07Zm5.25 0c-.07-.44-.14-.89-.22-1.34h-1.58c-.06 0-.14.07-.18.14-.21.34-.42.69-.61 1.04-.07.13-.14.17-.28.16-.15-.02-.3 0-.48 0l.14-.21c.89-1.34 1.78-2.67 2.66-4.01.13-.2.25-.35.52-.28.06.02.14 0 .23 0 .34 1.49.68 2.99 1.02 4.51h-1.22Zm.64-6.48h-.93l.81-4.31h.92l-.81 4.31Zm4.76-4.36c.87.2 1.33.98 1.2 1.95-.2 1.47-1.38 2.5-2.96 2.51-.32.01-.71-.05-1.05-.25-.58-.32-.81-.86-.79-1.49.05-2 1.83-3.13 3.6-2.73Zm-.75 10.83h-2.69c.32-1.49.63-2.96.94-4.43h1.07c-.28 1.32-.55 2.62-.84 3.97.55-.03 1.08-.05 1.63-.08-.04.2-.08.37-.11.54Zm4.13-2.08c-.12 0-.27-.02-.41-.02-.35 0-.7-.02-1.05-.02-.05 0-.14.06-.15.11-.12.5-.22 1.01-.33 1.55.55-.02 1.09-.05 1.64-.07-.03.17-.07.34-.11.52h-2.7c.31-1.48.63-2.96.94-4.44h2.7c-.03.18-.07.36-.11.54-.53-.03-1.06-.05-1.61-.08-.1.48-.2.93-.3 1.39h1.6c-.03.15-.06.32-.11.52Zm2.2-.94c.18.12.38.21.57.32.09.05.18.09.26.14.74.45.88 1.17.34 1.85-.4.51-.95.74-1.58.81-.49.06-.97.02-1.43-.26.16-.29.26-.59.45-.85.29.73.95.95 1.55.54.47-.32.46-.86-.02-1.15-.23-.14-.48-.24-.71-.37-.6-.33-.78-.79-.53-1.43.28-.73.86-1.06 1.6-1.14.46-.05.92 0 1.35.29-.14.23-.26.45-.41.71-.05-.09-.08-.12-.09-.16-.14-.33-.34-.47-.68-.47-.44 0-.74.18-.87.5-.11.28-.06.49.2.66Zm2.29-6.39c.21.14.43.26.64.4.68.42.83 1.04.44 1.73-.5.87-1.83 1.2-2.66.64.12-.27.23-.54.35-.81.02 0 .04 0 .06.01.01.03.03.06.04.09.09.45.42.67.86.59.46-.08.78-.48.68-.89-.03-.13-.14-.27-.25-.36-.18-.14-.4-.24-.61-.36-.51-.3-.67-.65-.55-1.24.23-1.14 1.7-1.73 2.58-1-.11.21-.22.42-.34.68-.05-.08-.08-.11-.09-.14-.13-.35-.34-.49-.69-.46-.38.04-.64.28-.69.62-.03.21.04.38.21.5Z" class="cls-18"/><path d="M110.23 61.16h37.91v2.79h-37.91z" style="fill:#9bb3d9"/><path d="M126.51 52.51c-.05.58-.38 1.09-.98 1.41-.76.4-1.52.8-2.29 1.19-.17.08-.24.18-.27.37-.15 1.14-.34 2.27-.49 3.41-.08.59-.66.84-1.11.52-.4-.29-.84-.52-1.25-.79-.12-.08-.21-.07-.33 0-.5.28-1.01.54-1.51.8-.08.04-.16.09-.25.12-.42.14-.76-.14-.7-.58.07-.54.15-1.07.23-1.6.1-.65.19-1.31.3-1.96.02-.14-.05-.19-.14-.25-.64-.39-1.27-.78-1.9-1.17-.58-.36-.8-.95-.59-1.6.34-1.04 1.62-1.62 2.58-.97.89.6 1.83 1.14 2.75 1.72.14.08.23.09.37.02 1.09-.58 2.2-1.15 3.29-1.73.45-.24.9-.37 1.4-.21.55.17.89.64.89 1.32ZM143.25 63.55c-.06.14-.15.26-.22.4-.37.4-.86.6-1.32.84-.54.29-1.09.57-1.64.85-.12.06-.17.14-.19.28-.16 1.15-.35 2.3-.5 3.45-.08.62-.66.88-1.13.53-.39-.28-.81-.51-1.21-.77-.14-.09-.23-.08-.37 0-.49.27-.98.52-1.47.78-.07.04-.15.08-.23.11-.44.17-.8-.09-.74-.56.07-.56.16-1.11.25-1.67.09-.64.19-1.28.28-1.92 0-.07-.06-.18-.13-.22-.58-.37-1.17-.71-1.74-1.09-.26-.17-.47-.4-.7-.6-.11-.3-.17-.61-.1-.94.23-.8.76-1.27 1.59-1.39.32-.05.63.03.91.21.96.6 1.92 1.19 2.88 1.79.12.07.21.09.33.02.94-.5 1.88-.99 2.82-1.48.05-.03.1-.07.15-.11.3-.13.59-.29.9-.38.53-.16 1.04-.06 1.41.37.4.45.42.97.17 1.51ZM134.89 58.08c-.15.5-.48.86-.94 1.1-.78.4-1.55.8-2.32 1.21-.08.05-.17.14-.18.23-.15.93-.28 1.86-.41 2.79l-.06.54c-.02.1-.05.21-.07.31-.11.48-.58.68-1.01.42-.44-.27-.88-.54-1.32-.82-.12-.08-.21-.08-.33-.02-.52.28-1.04.56-1.57.83-.12.06-.27.11-.41.12-.3.01-.5-.21-.49-.51 0-.11.02-.21.04-.32.02-.17.03-.34.05-.51.07-.44.15-.88.22-1.32.08-.49.14-.98.22-1.46.03-.15 0-.23-.14-.31-.63-.37-1.24-.76-1.86-1.14-.67-.41-.87-1.1-.54-1.81.4-.87 1.56-1.4 2.51-.76.89.6 1.82 1.13 2.72 1.7.14.09.25.09.39.02 1.11-.59 2.22-1.17 3.33-1.75.4-.21.82-.33 1.27-.21.74.18 1.14.92.9 1.68ZM133.41 68.3c-.04.57-.39 1.06-.99 1.38-.77.41-1.55.81-2.32 1.21-.13.07-.18.15-.2.29-.17 1.17-.35 2.33-.51 3.5-.07.51-.62.81-1.06.51-.42-.29-.87-.54-1.29-.81-.12-.08-.21-.08-.33-.02-.52.28-1.04.56-1.57.83-.12.06-.27.11-.41.12-.31.01-.53-.25-.48-.56.17-1.16.34-2.32.52-3.47.03-.2 0-.32-.19-.44-.61-.36-1.21-.74-1.81-1.11-.63-.39-.85-1.04-.57-1.73.39-.94 1.6-1.47 2.53-.84.88.6 1.81 1.12 2.71 1.69.16.1.28.11.45.02 1.11-.59 2.23-1.17 3.35-1.76.34-.18.7-.28 1.09-.21.67.11 1.09.61 1.09 1.41ZM136.5 47.22c-.05.63-.39 1.13-1 1.46-.77.41-1.54.81-2.32 1.21-.12.06-.18.13-.2.27-.16 1.14-.33 2.27-.5 3.41 0 .07-.02.14-.03.2-.11.46-.59.68-1 .43-.45-.28-.9-.57-1.36-.83-.07-.05-.2-.05-.28-.01-.5.25-.98.51-1.47.77-.07.03-.13.07-.2.11-.21.09-.43.12-.63-.02-.2-.14-.21-.34-.18-.56l.24-1.62c.09-.64.19-1.28.28-1.92.01-.07-.06-.18-.12-.22-.59-.37-1.17-.77-1.78-1.09-1.03-.55-.97-1.71-.27-2.4.49-.49 1.35-.77 2.12-.26.91.59 1.84 1.14 2.76 1.72.14.08.23.08.37 0 1.11-.59 2.22-1.17 3.33-1.75.43-.23.88-.35 1.36-.19.54.18.89.65.88 1.29ZM144.89 52.79c-.14.51-.46.88-.92 1.13-.75.39-1.49.79-2.24 1.16-.21.11-.29.24-.32.46-.16 1.14-.33 2.27-.5 3.41-.08.54-.58.76-1.04.47-.43-.27-.87-.53-1.29-.81-.12-.08-.21-.08-.33-.01-.52.28-1.03.55-1.55.82-.11.06-.24.11-.36.12-.35.04-.56-.18-.54-.58.09-.65.2-1.35.3-2.05.07-.51.14-1.01.23-1.51.02-.14-.02-.2-.13-.27-.64-.39-1.27-.78-1.9-1.17-.6-.37-.82-1.01-.57-1.68.37-.98 1.6-1.54 2.56-.89.89.6 1.83 1.14 2.75 1.71.14.09.24.08.37 0 1.1-.58 2.21-1.15 3.31-1.74.4-.21.81-.34 1.27-.23.74.17 1.15.89.94 1.64Z" class="cls-14"/><path d="M124.89 63.38c-.16.48-.48.82-.92 1.05-.76.4-1.52.8-2.28 1.18-.15.08-.22.17-.25.34-.16 1.17-.33 2.33-.51 3.5-.08.52-.59.75-1.05.47-.43-.27-.87-.53-1.29-.81-.12-.08-.21-.08-.33-.01-.52.28-1.04.56-1.57.83-.12.06-.27.11-.41.11-.31.01-.52-.24-.48-.55.17-1.16.34-2.32.52-3.47.03-.2.01-.33-.19-.44-.6-.35-1.2-.72-1.78-1.1-.21-.14-.38-.34-.56-.52-.22-.48-.2-.95.06-1.42.45-.78 1.5-1.23 2.35-.7.95.6 1.91 1.18 2.86 1.78.16.1.28.08.38-.06.26-.12.52-.23.78-.37.89-.46 1.78-.93 2.67-1.39.35-.19.74-.25 1.13-.15.75.18 1.14.95.89 1.72Z" style="fill:#fdfefe"/><path d="m123.92 82.41-.33 4.44h-1.13c.11-.98.21-1.96.32-3.01-.08.09-.12.12-.15.16-.65.88-1.29 1.75-1.93 2.63-.11.15-.22.25-.42.18-.3-.94-.61-1.89-.91-2.84-.02 0-.05-.01-.07-.02-.31.96-.61 1.92-.92 2.89h-.61c.02-.05.03-.11.05-.16.51-1.36 1.02-2.72 1.52-4.08.06-.17.12-.25.32-.21.11.02.23 0 .36-.01.32 1 .65 2.01.99 3.05.06-.07.11-.11.15-.16.69-.92 1.39-1.83 2.07-2.75.08-.1.14-.15.28-.13.13.03.27 0 .42 0ZM141.41 76.01c-1.77-.41-3.55.73-3.6 2.73-.02.63.21 1.16.79 1.49.35.19.73.26 1.05.25 1.58 0 2.76-1.03 2.96-2.51.13-.97-.33-1.75-1.2-1.95Zm-.38 3.39c-.12.17-.28.33-.45.45-.38.26-.8.35-1.23.15-.42-.2-.54-.59-.54-1.01 0-.74.18-1.45.63-2.06.14-.19.34-.36.54-.47.81-.43 1.55-.02 1.64.89v.23c-.03.66-.2 1.27-.59 1.81ZM122.01 76.01c-1.93-.43-3.66.93-3.59 2.86.03.78.48 1.34 1.23 1.52.22.05.45.06.68.09 1.68-.03 2.95-1.32 2.9-2.94-.03-.78-.46-1.37-1.21-1.54Zm.21 1.57c-.03.74-.23 1.42-.72 1.99-.22.26-.5.43-.84.5-.61.12-1.12-.2-1.2-.81-.12-.91.11-1.76.71-2.47.17-.2.44-.36.7-.43.75-.21 1.29.18 1.37.96v.25Z" class="cls-11"/><path d="m147.6 76.05-.81 4.32c-.35.07-.56-.01-.76-.31-.58-.88-1.21-1.73-1.82-2.59-.02-.04-.05-.07-.11-.15-.2 1.04-.39 2.04-.58 3.04h-.49c.27-1.44.54-2.87.81-4.32.18 0 .36-.02.53 0 .07.01.14.09.19.16.63.88 1.25 1.76 1.88 2.64a7 7 0 0 1 .11.15c.19-1 .38-1.97.56-2.94h.49Z" class="cls-10"/><path d="M132.66 45.78c-.18.81-.98 1.46-1.82 1.46-.91 0-1.52-.72-1.37-1.61.15-.95 1.14-1.68 2.06-1.53.84.14 1.32.85 1.14 1.69ZM141.11 51.05c-.19.8-.98 1.43-1.81 1.44-.89 0-1.49-.69-1.38-1.57.12-.96 1.13-1.73 2.06-1.57.85.14 1.33.86 1.13 1.7ZM122.66 51.06c-.2.81-.99 1.42-1.82 1.42-.88 0-1.47-.67-1.37-1.55.11-1.02 1.22-1.8 2.21-1.56.75.18 1.17.91.98 1.69ZM131.12 56.3c-.2.8-.99 1.43-1.82 1.43-.95 0-1.57-.81-1.34-1.73.23-.91 1.17-1.55 2.04-1.41.85.15 1.32.87 1.12 1.71Z" class="cls-12"/><path d="M121.17 61.23c-.03 1.11-1.26 2.01-2.3 1.69-.15-.05-.29-.12-.43-.18-.02-.02-.03-.05-.05-.07-.48-.42-.53-.95-.41-1.53.18-.27.32-.57.55-.8.41-.41.93-.59 1.52-.49.71.12 1.15.67 1.13 1.38Z" class="cls-14"/><path d="M139.56 61.59c-.21.79-.99 1.39-1.8 1.39-.95 0-1.58-.79-1.35-1.72.22-.91 1.17-1.57 2.03-1.42.87.15 1.35.9 1.12 1.75Z" class="cls-12"/><path d="M129.56 66.85c-.21.78-.99 1.38-1.81 1.38-.95 0-1.57-.8-1.34-1.73.19-.78.92-1.39 1.72-1.43 1.01-.05 1.69.8 1.43 1.77Z" class="cls-14"/><path d="M136.21 82.34c-.1 0-.17.02-.23 0-.26-.06-.38.08-.52.28-.88 1.34-1.77 2.67-2.66 4.01l-.14.21c.18 0 .33-.01.48 0 .14.01.22-.03.28-.16.19-.35.4-.7.61-1.04.04-.06.12-.14.18-.14.51-.01 1.03 0 1.58 0 .07.46.15.9.22 1.34h1.22c-.34-1.52-.68-3.02-1.02-4.51Zm-1.81 2.76c.33-.51.64-.99.99-1.52.11.55.21 1.03.31 1.52h-1.3Z" class="cls-10"/><path d="M116.09 82.34c-.09 0-.17.02-.23 0-.26-.06-.39.08-.52.28-.88 1.34-1.77 2.68-2.66 4.01-.04.06-.08.13-.13.21.17 0 .3-.01.43 0 .17.02.26-.03.34-.18.18-.35.39-.69.6-1.02.03-.06.11-.12.17-.13h1.59c.07.46.14.9.21 1.34h1.22c-.34-1.51-.68-3.01-1.02-4.51Zm-1.8 2.76c.32-.51.64-.99.98-1.52.11.53.21 1.01.32 1.52h-1.3Z" class="cls-11"/><path d="M143.61 82.84c-.1.48-.2.93-.3 1.39h1.6c-.03.15-.06.32-.11.52-.12 0-.27-.02-.41-.02-.35 0-.7-.02-1.05-.02-.05 0-.14.06-.15.11-.12.5-.22 1.01-.33 1.55.55-.02 1.09-.05 1.64-.07-.03.17-.07.34-.11.52h-2.7c.31-1.48.63-2.96.94-4.44h2.7c-.03.18-.07.36-.11.54-.53-.03-1.06-.05-1.61-.08Z" class="cls-9"/><path d="M148.17 86.13c-.4.51-.95.74-1.58.81-.49.06-.97.02-1.43-.26.16-.29.26-.59.45-.85.29.73.95.95 1.55.54.47-.32.46-.86-.02-1.15-.23-.14-.48-.24-.71-.37-.6-.33-.78-.79-.53-1.43.28-.73.86-1.06 1.6-1.14.46-.05.92 0 1.35.29-.14.23-.26.45-.41.71-.05-.09-.08-.12-.09-.16-.14-.33-.34-.47-.68-.47-.44 0-.74.18-.87.5-.11.28-.06.49.2.66.18.12.38.21.57.32.09.05.18.09.26.14.74.45.88 1.17.34 1.85Z" class="cls-11"/><path d="M110.37 76.02c-.38-.12-.55.05-.72.34-.73 1.27-1.48 2.53-2.23 3.79-.04.06-.07.13-.12.21.14 0 .25-.02.35 0 .17.03.25-.04.32-.2.15-.32.33-.63.49-.95.06-.12.14-.15.27-.15.35 0 .7.01 1.05 0 .17 0 .22.05.24.21.04.37.11.73.16 1.09h1.05c-.29-1.46-.58-2.91-.87-4.35Zm-1.56 2.64c.29-.49.55-.95.85-1.46.1.52.18.99.27 1.46h-1.12ZM130.48 76.01c-.34-.09-.53.02-.7.32-.73 1.29-1.5 2.56-2.25 3.84-.03.06-.06.12-.1.19.13 0 .23-.02.34 0 .18.03.27-.05.34-.21.15-.32.32-.63.49-.95.03-.06.12-.14.18-.14.44-.01.88 0 1.34 0 .06.45.13.88.19 1.3h1.05c-.29-1.46-.59-2.92-.88-4.36Zm-1.56 2.65c.28-.49.55-.95.85-1.47.09.52.18.99.26 1.47h-1.12ZM111.27 83.1c-.07.38-.15.76-.23 1.14h1.59c-.03.16-.07.33-.1.49h-1.6c-.15.7-.3 1.41-.46 2.13h-1.07c.32-1.49.63-2.98.95-4.47h2.7c-.04.19-.08.36-.12.54-.46-.02-.92-.03-1.38-.06-.2-.02-.26.06-.29.24Z" class="cls-9"/><path d="M127.75 76.23c-.09.23-.18.45-.28.68-.05-.03-.08-.04-.09-.06-.39-.69-1.2-.68-1.78-.25-.71.53-1.15 1.86-.9 2.7.17.56.71.9 1.3.76.3-.07.58-.23.88-.36.05-.02.1-.05.17-.09-.07.49-.33.74-.77.78-.41.03-.83.09-1.22.03-1.06-.17-1.57-.91-1.43-1.98.24-1.81 2.06-2.95 3.76-2.36.11.04.22.09.36.15ZM150.36 79.56c-.5.87-1.83 1.2-2.66.64.12-.27.23-.54.35-.81.02 0 .04 0 .06.01.01.03.03.06.04.09.09.45.42.67.86.59.46-.08.78-.48.68-.89-.03-.13-.14-.27-.25-.36-.18-.14-.4-.24-.61-.36-.51-.3-.67-.65-.55-1.24.23-1.14 1.7-1.73 2.58-1-.11.21-.22.42-.34.68-.05-.08-.08-.11-.09-.14-.13-.35-.34-.49-.69-.46-.38.04-.64.28-.69.62-.03.21.04.38.21.5.21.14.43.26.64.4.68.42.83 1.04.44 1.73Z" class="cls-10"/><path d="M140.77 86.3c-.04.2-.08.37-.11.54h-2.69c.32-1.49.63-2.96.94-4.43h1.07c-.28 1.32-.55 2.62-.84 3.97.55-.03 1.08-.05 1.63-.08ZM129.83 86.3c-.03.18-.07.34-.11.53h-2.69c.31-1.48.62-2.95.94-4.42h1.07c-.28 1.31-.55 2.62-.84 3.97.56-.03 1.09-.05 1.63-.08Z" class="cls-11"/><path d="M135.7 76.05c-.03.18-.06.34-.09.52-.35-.03-.7-.06-1.07-.09-.25 1.31-.49 2.59-.74 3.88h-.92c.24-1.28.48-2.56.73-3.88-.4.03-.77.06-1.14.08.03-.17.06-.33.09-.51h3.13Z" class="cls-9"/><path d="M126.67 82.4c-.31 1.49-.63 2.97-.94 4.45h-1.07c.32-1.49.63-2.98.95-4.45h1.07ZM132.77 82.4c-.32 1.49-.63 2.98-.95 4.45h-1.07c.32-1.5.63-2.98.95-4.45h1.07Z" class="cls-13"/><path d="M114.37 79.82c-.03.18-.06.35-.09.52h-2.32c.27-1.44.54-2.86.81-4.29h.92c-.24 1.28-.48 2.55-.73 3.86l1.4-.09ZM117.57 79.82c-.03.18-.06.34-.09.52h-2.32l.81-4.29h.92c-.24 1.29-.48 2.55-.73 3.86.49-.03.94-.06 1.4-.09Z" class="cls-10"/><path d="m137.46 76.06-.81 4.31h-.93l.81-4.31h.92Z" class="cls-13"/><path d="M141.62 77.58c-.03.66-.2 1.27-.59 1.81-.12.17-.28.33-.45.45-.38.26-.8.35-1.23.15-.42-.19-.54-.59-.54-1.01 0-.74.18-1.45.63-2.05.14-.19.34-.36.55-.47.81-.43 1.55-.02 1.64.89v.23ZM122.22 77.58c-.03.74-.23 1.42-.72 1.99-.22.26-.5.43-.84.5-.61.12-1.12-.2-1.2-.81-.12-.91.11-1.76.7-2.46.17-.2.44-.36.7-.44.75-.22 1.29.18 1.36.96v.25Z" class="cls-18"/><path d="M135.39 83.58c.11.55.21 1.03.31 1.52h-1.3c.33-.51.65-.99.99-1.52ZM115.59 85.1h-1.3c.33-.5.64-.99.99-1.52.11.53.21 1.01.32 1.52Z" class="cls-19"/><path d="M108.81 78.67c.28-.49.55-.95.85-1.46.1.52.18.99.27 1.46h-1.12ZM129.78 77.2c.09.52.18.99.27 1.47h-1.12c.28-.48.55-.95.85-1.47Z" class="cls-20"/><path d="M47.81 57.19S50.5 72 68.5 73.77" style="fill:none;stroke-linecap:round;stroke-linejoin:round;stroke:#000"/><path d="m66.96 78.62 8.72-4.82-8.54-5.15-.18 9.97z"/><path d="M-245.98-3710.73h6467.34v6437.3H-245.98z" style="stroke:#fff;stroke-width:8px;fill:none;stroke-linecap:round;stroke-linejoin:round"/></svg>