<svg xmlns="http://www.w3.org/2000/svg" id="Calque_1" viewBox="0 0 128 128"><defs><style>.cls-1{fill:#d6d6d6}.cls-1,.cls-4{stroke-linecap:round;stroke-linejoin:round}.cls-1,.cls-4,.cls-5{stroke:#000}.cls-4,.cls-9{fill:#fff}.cls-5{stroke-miterlimit:10}</style></defs><path d="M39.21 3.91 9.87 18.17c-2.97 1.44-4.22 5.04-2.77 8.01l36.04 74.17c1.44 2.97 5.04 4.21 8.01 2.76l29.34-14.26a5.993 5.993 0 0 0 2.77-8.01L47.22 6.68c-1.44-2.97-5.04-4.22-8.01-2.77Zm43.86 77.04c1.39 2.86.19 6.31-2.67 7.7l-29.34 14.26a5.771 5.771 0 0 1-7.7-2.66L7.31 26.08c-1.39-2.86-.2-6.32 2.66-7.71L39.31 4.12c2.86-1.39 6.32-.19 7.71 2.67l36.05 74.17Z" class="cls-5"/><path d="m47.02 6.78 36.05 74.17c1.39 2.86.19 6.31-2.67 7.7l-29.34 14.26a5.771 5.771 0 0 1-7.7-2.66L7.31 26.08c-1.39-2.86-.2-6.32 2.66-7.71L39.31 4.12c2.86-1.39 6.32-.19 7.71 2.67Z" class="cls-5"/><path d="m46.03 8.02 35.45 72.95c1.23 2.53.18 5.57-2.35 6.8l-27.98 13.6a5.09 5.09 0 0 1-6.8-2.35L8.89 26.07a5.091 5.091 0 0 1 2.35-6.8l.81-.39c2.52-1.22 5.06-2.4 7.55-3.67.01.01 0 .06.02.08.64-.44 1.85-.66 2.59-.41 1.17.41 2.62 1.04 3.89.58 1.32-.48 1.83-1.99 2.25-3.2.48-1.36 1.64-2.1 2.89-2.7l7.97-3.88a5.083 5.083 0 0 1 6.8 2.35Z" style="fill:#bfe6fc"/><circle cx="25.48" cy="13.58" r=".9" style="stroke-width:.5px;fill:#cfb999;stroke:#fff;stroke-miterlimit:10"/><path d="m56.39 25.83-5.13-10.55a.8.8 0 0 1 1.07.37l4.42 9.1a.8.8 0 0 1-.37 1.07ZM60.8 34.92l-2.56-5.26a.8.8 0 0 1 1.07.37l1.86 3.82a.8.8 0 0 1-.37 1.07Z" class="cls-5"/><path d="M37.71 8h2.59v2.13h-2.59z" style="fill:#87f3b9" transform="rotate(-25.92 39 9.067)"/><path d="m39.702 7.542 1.16-.563.93 1.915-1.16.564z" class="cls-9"/><path d="m41.128 7.518.495-.24.41.845-.494.24zM10.207 22.604l.638-.31.534 1.097-.639.31zM11.03 21.733l.64-.31.72 1.483-.638.31zM11.817 20.781l.639-.31.944 1.942-.639.31z"/><path d="M37.64 7.72h3.89v2.13h-3.89z" style="fill:none;stroke-width:.5px;stroke-miterlimit:10;stroke:#000" transform="rotate(-25.92 39.59 8.79)"/><circle cx="49.01" cy="85.07" r="7.82" style="fill:#ff6d75;stroke:#000;stroke-linecap:round;stroke-linejoin:round" transform="rotate(-62.82 49.016 85.08)"/><path d="M44.99 86.64c.09-.17.17-.34.26-.51 1.22-2.18 3.07-3.38 5.59-3.47.79-.03 1.57.1 2.32.36.17.06.29.17.36.34.13.34.26.67.4 1.01.12.31.03.53-.28.67l-2.1.9c-.3.13-.52.04-.66-.25-.19-.41-.39-.82-.58-1.23-.03-.06-.06-.08-.12-.09-.55-.05-1.06.1-1.54.37-.36.2-.66.46-.89.8-.04.06-.05.11-.01.18.21.4.41.8.61 1.21.15.29.07.52-.21.67-.67.37-1.34.73-2.01 1.1-.29.16-.51.09-.68-.19l-.51-.87c-.08-.13-.14-.25-.14-.4l.2-.59Z" class="cls-4"/><circle cx="67.22" cy="76.23" r="7.82" style="fill:#87f3b9;stroke:#000;stroke-linecap:round;stroke-linejoin:round" transform="rotate(-62.82 67.227 76.226)"/><path id="JKa6IG.tif" d="M70.83 78.4c-.18.06-.36.12-.55.18-2.41.68-4.56.22-6.4-1.5a6.383 6.383 0 0 1-1.39-1.9c-.08-.17-.09-.32 0-.49.15-.33.29-.66.43-.99.13-.31.36-.4.67-.27.71.28 1.41.57 2.12.85.3.12.4.34.29.64-.15.43-.31.86-.46 1.28-.02.06-.02.1.02.15.36.42.82.68 1.35.83.39.11.79.14 1.19.06.07-.01.11-.04.14-.12.14-.43.28-.86.42-1.28.1-.31.31-.42.63-.33.73.21 1.47.43 2.2.65.31.09.43.3.34.62-.09.33-.17.65-.25.98-.04.14-.08.28-.18.38l-.56.27Z" class="cls-4"/><path d="M32.7 27.06c-8.45 4.11-11.97 14.29-7.86 22.74 1.8 3.71 4.78 6.47 8.26 8.05-2.58-6.36.17-13.71 6.43-16.75 6.26-3.04 13.74-.67 17.15 5.29.91-3.71.58-7.76-1.23-11.47-4.11-8.45-14.29-11.98-22.74-7.87Zm6.17 12.69a5.328 5.328 0 0 1-7.12-2.46c-1.29-2.65-.19-5.84 2.46-7.12s5.84-.19 7.13 2.47c1.29 2.65.18 5.83-2.47 7.12Z" style="fill:#87ccf3"/><path d="M56.67 46.4c-1.17 4.75-4.35 8.97-9.1 11.27-4.74 2.3-10.02 2.2-14.48.19-2.58-6.36.17-13.71 6.43-16.75 6.26-3.04 13.74-.67 17.15 5.29ZM41.33 32.63c1.29 2.65.18 5.83-2.47 7.12a5.328 5.328 0 0 1-7.12-2.46c-1.29-2.65-.19-5.84 2.46-7.12s5.84-.19 7.13 2.47ZM39.906 66.3l19.715-9.581 1.447 2.977-19.715 9.581z" class="cls-9"/><path d="M114.46 103.83c-.26-.45-.7-1.77-1.22-3.44-.16-.5-.32-1.03-.48-1.58s-.33-1.11-.5-1.68c-.51-1.7-1.02-3.42-1.46-4.78h0c-.34-1.05-.63-1.88-.83-2.31-.21-.44-.56-1.03-.97-1.69-.19-.31-.39-.62-.6-.95-.31-.48-.64-.97-.96-1.45a133.79 133.79 0 0 0-2.45-3.48c-.51-.68-1.44-1.89-2.5-1.78-1.06.12-1.53.92-1.53.92s-.38-.66-.7-1.16c-.11-.17-.11-.03-.19-.13-.76-1.05-1.59-1.47-2.62-1.28-.05 0-.11.01-.16.03-.13.03-.25.07-.37.12-.34.14-.61.34-.8.52-.26.24-.38.45-.38.45s-.26-.4-.7-.83h0s0 0 0 0c-.68-.66-1.8-1.39-3.14-.88-2.38.89-1.79 3.36-1.66 3.97.29 1.34.81 3.91.81 3.91s-.7 0-1.25-.1c-.23-.05-.47-.13-.7-.24-.45-.23-.72-.53-.72-.53s.02.04.05.09c-1.2-1.01-4.22-4.2-5.79-6.18-1.74-2.18-6.28-7.69-7.77-9.42-1.48-1.73-3.2-3.24-4.83-1.88-1.76 1.47-.22 3.44.42 4.61.64 1.17 4.86 6.67 6.46 8.91 1.26 1.76 6.03 8.79 7.94 11.68 1.25 1.89 2.92 5.37 2.92 5.37s-.43-.42-1.12-1.04l-.03-.03s-.02-.02-.03-.02c-1.35-1.22-3.67-3.19-5.79-4.45l-.02-.01s0 0 0 0c-.56-.33-1.11-.62-1.62-.83-3.49-1.42-6.8 1.32-6.73 2.51.06.94 1.88 1.16 3.55 1.79.24.09.48.19.71.3.01 0 .03.01.04.02.22.11.44.23.64.37 1.02.7 5.52 4.95 8.49 8.95.18.24 1.4 1.34 2.9 2.62.23.2.47.4.71.6l1.1.92c.12.1.25.2.37.3.25.2.49.4.73.59 1.32 1.06 2.5 1.95 3.1 2.27 1.27.69 4.08 2.35 5.95 3.34.99.53 2.34 2.97 3.39 5.14.31.64.59 1.25.83 1.79.19.43.36.81.48 1.11.19.45.3.72.3.72l3.74-1.75 6.72-3.17 7.01-3.7s-7.93-11.74-8.76-13.17ZM95.74 80.15l2.25 4.74M100.95 81.62l2.29 3.81" class="cls-4"/><path d="m45.3 109.77.24 1.74c-4.59.77-8.77-2.58-9.21-6.98l1.74-.24c.85 3.9 3.26 5.71 7.23 5.47Z" class="cls-1"/><path d="M44.78 106.12c.09.63.17 1.21.25 1.79-2.77.49-4.8-1.01-5.09-3.86.58-.08 1.16-.16 1.79-.24.19 1.83 1.22 2.62 3.06 2.32Z" class="cls-1"/><path d="M97.18 7.73C86.5 6.12 76.54 13.48 74.94 24.16c-.68 4.53.25 8.92 2.37 12.61h0l-2.05 6.48 6.07-1.54h0c2.73 2.42 6.16 4.1 10.04 4.69 10.68 1.61 20.64-5.75 22.24-16.43 1.61-10.68-5.75-20.64-16.43-22.24Z" class="cls-4"/><path d="m101.57 29.66.49-5.29c.31-3.32-1.7-6.32-4.69-7.4a1.823 1.823 0 0 0-3.63-.34c-3.14.52-5.66 3.1-5.97 6.42l-.49 5.29s-3.56 1.53-2.94 6.26l6.6.61c-.15 1.59 1.02 3 2.62 3.15s3-1.03 3.15-2.62l6.6.61c1.47-4.54-1.74-6.7-1.74-6.7Z" style="fill:#f3d587;stroke-miterlimit:10;stroke:#000"/></svg>