<svg xmlns="http://www.w3.org/2000/svg" id="Calque_1" viewBox="0 0 128 128"><defs><style>.cls-1{fill:#87ccf3}.cls-1,.cls-10,.cls-2,.cls-3,.cls-5,.cls-7,.cls-9{stroke-linecap:round;stroke-linejoin:round}.cls-1,.cls-2,.cls-3,.cls-5{stroke:#231f20}.cls-2{fill:#baa584}.cls-3{fill:#bbfedb}.cls-5{fill:#fff}.cls-7{stroke:#000}.cls-10,.cls-7,.cls-9{fill:none}.cls-9{stroke:#8987f3}.cls-10{stroke:#87f3b9}</style></defs><path d="m101.64 121.58-16.27-1.28s-.39-2.48.46-4.36c.81-1.81-.31-3.11-1.42-5.26 1.03 1.06 4.6.91 6.95.59.29.47 3.19 4.77 4.15 5.46 1.06.76 5.81 1.77 6.13 4.85ZM82.52 120.3H66.25s-.39-2.48.46-4.36c.81-1.81 2.23-3.74 1.12-5.89 1.03 1.06 4.3.95 6.65.63.29.47-1.09 3.52 1.91 6.05 1 .84 5.81.49 6.13 3.57Z" class="cls-2"/><path d="M76.58 62.97s-3.47-1.13-9.55 4.84c-14.19 11.5-32.42 40.74-34.13 42.79-3.43 4.11-.78 9.83 13.25 9.7 8.2-.08 10.73-3.36 12.97-6.74.6-.9 5.84-9.79 8.54-15.3-.08 5.53-.66 13.83-.66 13.83-.42 3.92 8.39 2.85 8.39 2.85 14.94-49.97 1.19-51.97 1.19-51.97Z" class="cls-1"/><path d="M59.13 88.42c-.48 5.48-.95 10.83-1.25 13.95-.81 8.38-4.89 19.57-22.63 17.45-.43-.05-.85-.12-1.24-.19h0c-7.28-1.61-8.31-5.82-5.63-9.03.79-.96 5.16-8.31 10.95-17.18 2.58-3.97 5.46-8.24 8.42-12.38 1.39 1.1 2.81 2.14 4.19 3.1 2.7 1.89 5.26 3.42 7.2 4.27ZM60.75 69.58s-.09 1.06-.23 2.81c-1.3-1.14-2.52-2.15-3.68-3.07.45-.52.89-1.02 1.34-1.5 1.58 1.03 2.58 1.76 2.58 1.76Z" class="cls-5"/><path d="M44.07 102.14c-2.45-1.86-3.92-5.05-4.75-8.72 2.58-3.97 5.46-8.24 8.42-12.38 1.39 1.1 2.81 2.14 4.19 3.1 1.18 10.47-2.59 22.01-7.86 18ZM85.22 90.04c-.71 1.36-1.53.58-1.53.58l-.46-5.29h.44c.48 1.47 1 3.04 1.55 4.71Z" class="cls-5"/><path d="M66.09 55.86s3.3-2.46 3.99-5.22c.84-3.33-1.93-4.63-1.93-4.63-.42-3.12-6.37-7.45-13.91-6.8-3.87.33-5.57 2.69-6.14 5.17M48.07 44.6s-2.52 2.69-1.99 5.74c.46 2.66 1.12 5.56.34 8.06" class="cls-7"/><path d="M53.73 62.8c.42.59 2.74 2.37 5.16 3.33 2.57 1.01 3.07-.9 4.56-3.38 1.47-2.46 2.78-2.1 3.12-2.74.34-.65-1.36-2.89.02-5.71.15-.31.27-.6.37-.91.86-2.44.22-4.46-.22-5.55 0 0-4.79 3.49-5.71 3.99-.9.5-3.78 1.86-4.96.72-1.08-1.05-1.75-2.51-3.17-2.29-1.41.22-2.54 2.52-1.6 3.86 0 0-2.32 1.74-3.53 3.12l-4.03 4.4" style="stroke:#000;fill:#fff;stroke-linecap:round;stroke-linejoin:round"/><path d="M62.97 63.58s-.24-1.11-4.8-2.44M53.19 52.47l.52.53M55.16 64.04l-.33 2.26" class="cls-7"/><path d="M56.84 69.32c.45-.52.89-1.02 1.34-1.5 4.86-5.41 8.08-7.87 11.33-7.69 2.71.16 7.22 3.79 13.55 22.82.48 1.47 1.61 5.42 2.16 7.09 2 6.09 4.44 13.54 7.4 22.62 0 0-6.72 4.87-8.21 1.22 0 0-10.83-17.97-15.63-29.43-5.73 12.2-12.44 26.91-13.47 28.46-2.25 3.39-5.48 7.31-13.68 7.4-3.06.03-5.57-.22-7.61-.67h0c-7.28-1.61-8.31-5.82-5.63-9.03.79-.96 5.16-8.31 10.95-17.18 2.58-3.97 5.46-8.24 8.42-12.38" class="cls-1"/><path d="M53.71 73.1c.45-.52 4.02-4.79 4.47-5.28-3.88-2.54-11.28-6.87-16.21-6.65h-.08 0c-1.14.06-2.13.37-2.92.99-8.34 6.61-6.67 28.92-8.6 31.82-1.89 2.83-12.31 22.71 3.64 25.65-7.28-1.61-8.31-5.82-5.63-9.03.79-.96 5.16-8.31 10.95-17.18 2.58-3.97 5.46-8.24 8.42-12.38 1.39 1.1 5.09-6.78 5.97-8.21" class="cls-3"/><path d="M38.96 72.43s2.17 17.23 9.18 15.68c4-.88 7.22-26.93 7.22-26.93l-6.19-3.2-4.9 14.8" class="cls-3"/><path d="M56.18 58.17c.7-.52 2.8-3.06 3.31-4.81s-.5-1.98-1.12-1.02c-.43.67-1.59 1.42-2.04 1.69s-.17-.71-.07-1.3c0 0 1.56-4.91.87-5.26-1.06-.52-2.61 4.64-2.61 4.64s1.35-7.01-.26-7.08c-1.26-.06-1.66 6.54-1.66 6.54s.26-6.11-.83-5.89c-1.38.28-.99 6.12-.99 6.12s-.29-1.14-.63-2.91-1.47-.79-1.15 2.08c.13 1.16.83 7.3.83 7.3l5.21 2.4 1.13-2.5Z" class="cls-5"/><path d="M61.5 53.03s1.91 1.34 2.94 0" class="cls-7"/><path d="M33.14 22.16c-1.88 6.58-8.74 10.38-15.32 8.5-5.26-1.51-8.31-6.99-6.8-12.25a7.917 7.917 0 0 1 9.8-5.44c3.37.96 5.32 4.47 4.35 7.84a5.074 5.074 0 0 1-6.27 3.48 4.063 4.063 0 0 1-2.79-5.02 3.249 3.249 0 0 1 4.01-2.23c1.38.39 2.18 1.83 1.78 3.21a2.091 2.091 0 0 1-2.57 1.43 1.666 1.666 0 0 1-1.14-2.06" class="cls-9"/><path d="M34.35 4.76c4.37-2.53 9.97-1.05 12.5 3.32a7.31 7.31 0 0 1-2.66 10c-2.8 1.62-6.38.67-8-2.13-1.3-2.24-.54-5.1 1.7-6.4a3.744 3.744 0 0 1 5.12 1.36c.83 1.43.34 3.27-1.09 4.1a2.41 2.41 0 0 1-3.28-.87c-.53-.92-.22-2.09.7-2.62a1.53 1.53 0 0 1 2.1.56" style="stroke:#fab0b4;fill:none;stroke-linecap:round;stroke-linejoin:round"/><path d="M32.53 40.26c-3.14-3.96-2.47-9.71 1.49-12.85A7.315 7.315 0 0 1 44.3 28.6a5.85 5.85 0 0 1-.95 8.22 4.678 4.678 0 0 1-6.58-.76 3.74 3.74 0 0 1 .61-5.26c1.3-1.03 3.18-.81 4.21.49a2.4 2.4 0 0 1-.39 3.37c-.83.66-2.04.52-2.7-.31-.53-.66-.41-1.63.25-2.16" style="fill:none;stroke:#ff6d75;stroke-linecap:round;stroke-linejoin:round"/><path d="M43.68 21.94c3.61-2.09 8.23-.86 10.32 2.74 1.67 2.89.69 6.58-2.19 8.26a4.824 4.824 0 0 1-6.6-1.76 3.866 3.866 0 0 1 1.4-5.28 3.1 3.1 0 0 1 4.23 1.12c.69 1.18.28 2.7-.9 3.38-.95.55-2.16.23-2.71-.72-.44-.76-.18-1.73.58-2.16a1.27 1.27 0 0 1 1.73.46M40.9 18.93c-.85 4.08-4.85 6.7-8.93 5.86a6.048 6.048 0 0 1-4.69-7.14c.54-2.61 3.1-4.29 5.71-3.75 2.09.43 3.43 2.48 3 4.57a3.094 3.094 0 0 1-3.66 2.4 2.476 2.476 0 0 1-1.92-2.93 1.983 1.983 0 0 1 2.34-1.54c.86.18 1.41 1.02 1.23 1.87-.14.68-.81 1.12-1.5.98" class="cls-10"/><ellipse cx="62.48" cy="55.71" rx=".7" ry=".85"/><path d="m54.81 7.77 1.04 3.55 2.94-2.26-1.24 3.49 3.7-.1-3.06 2.09 3.06 2.1-3.7-.11 1.24 3.49-2.94-2.26-1.04 3.56-1.05-3.56-2.93 2.26 1.24-3.49-3.71.11 3.06-2.1-3.06-2.09 3.71.1-1.24-3.49 2.93 2.26 1.05-3.55z" style="stroke-miterlimit:10;fill:#e9cb61;stroke:#000"/><path d="m37.33 40.34-.76 2.6 2.7-.23-2.15 1.66 2.32 1.4-2.71.08 1.05 2.5-2.24-1.53-.61 2.64-.91-2.56-2.06 1.78.77-2.6-2.7.22 2.14-1.65-2.32-1.41 2.71-.07-1.05-2.5 2.24 1.53.62-2.64.91 2.55 2.05-1.77z" style="fill:#fab0b4;stroke-width:.75px;stroke-miterlimit:10;stroke:#000"/><path d="M62.41 20.81c2.81 3 5.73 3.17 5.42 2.7-.67-1.03.23-2.45.23-2.45s.84 1.29 1.63 1.2 1.32-1.54 1.32-1.54 1.19 1.18.77 2.34c-.19.54 2.61-.3 4.67-3.87 1.17 1.16 6.74 5.82 6.74 5.82s-2.54-.65-3.43.03c-.89.68-.26 3.17-.26 3.17s-2.28-2.05-3.55-1.69c-1.27.36-.98 2.68-.98 2.68l-2.95-3.03-.26 1.39-1.61-1.18-1.3 1.51-.56-1.3-2.19 3.63s-.24-2.33-1.56-2.38c-1.32-.05-3.08 2.46-3.08 2.46s.05-2.57-.97-3.03c-1.02-.46-3.34.76-3.34.76s4.38-5.82 5.25-7.22Z" class="cls-9"/></svg>