<svg xmlns="http://www.w3.org/2000/svg" id="Calque_1" viewBox="0 0 200.13 128.13"><defs><style>.cls-1,.cls-2,.cls-3,.cls-5,.cls-6,.cls-7,.cls-9{stroke-linecap:round;stroke-linejoin:round;stroke:#000}.cls-1,.cls-3{fill:#a07637}.cls-1,.cls-5,.cls-6,.cls-7{stroke-width:2px}.cls-5{fill:#fff}.cls-2{fill:#baa584}.cls-6{fill:#b2f0e9}.cls-7{fill:#ff6d75}.cls-9{fill:#fee4cb;stroke-width:.5px}</style></defs><path d="m115.17 15.55-3.79-3.4h7.33l2.36 3.4h-5.9z" class="cls-2"/><path d="M-803.83-681.51h2655.08V830.26H-803.83z" style="fill:none;stroke:#e30613;stroke-width:8px;stroke-linecap:round;stroke-linejoin:round"/><path d="M13.1 80.18h50.15v34.97H13.1z" class="cls-5"/><path d="m38.18 65.7 25.08 14.48H13.11L38.18 65.7z" class="cls-7"/><path d="M23.13 88.58h12.49v9.91H23.13z" class="cls-6"/><path d="M54.26 114.83V91.98h-9v22.85" class="cls-1"/><path d="M133.21 80.18h50.15v34.97h-50.15z" class="cls-5"/><path d="m158.28 65.7-25.07 14.48h50.14L158.28 65.7z" class="cls-7"/><path d="M160.85 88.58h12.49v9.91h-12.49z" class="cls-6"/><path d="M142.21 114.83V91.98h8.99v22.85" class="cls-1"/><path d="M81.07 89.93s14.51-8.73 31.1 0" style="fill:#fff"/><path d="M81.07 89.93s13.39-8.06 29.15-.95" style="fill:none;stroke-width:2px;stroke:#000;stroke-linecap:round;stroke-linejoin:round"/><path d="m100.98 94.31-.73-1.87 9.18-3.59-4.25-8.9 1.81-.86 5.18 10.84-11.19 4.38z"/><path d="M92 37.81v22.04h20.24l4.29-1.51V37.81H92z" class="cls-3"/><path d="M112.24 37.81v22.04l4.29-1.51V37.81h-4.29z" class="cls-2"/><path d="M102.31 53.38h1.68v6.47h-1.68z" class="cls-9"/><path d="M84.69 37.81v20.54l-4.28 1.49V37.81h4.28z" class="cls-2"/><path d="M60.16 37.81h20.25v22.04H60.16z" class="cls-3"/><path d="M70.48 53.38h1.68v6.47h-1.68z" class="cls-9"/><path d="M115.44 37.81v22.04h20.25l4.28-1.51V37.81h-24.53z" class="cls-3"/><path d="M135.69 37.81v22.04l4.28-1.51V37.81h-4.28z" class="cls-2"/><path d="M125.76 53.38h1.68v6.47h-1.68z" class="cls-9"/><path d="M115.17 15.55v22.04h20.25l4.28-1.51V15.55h-24.53z" class="cls-3"/><path d="M135.42 15.55v22.04l4.28.22V15.55h-4.28z" class="cls-2"/><path d="M125.49 31.12h1.68v6.47h-1.68z" class="cls-9"/><path d="m135.42 15.55 3.15-5.06h4.6l-3.47 5.06h-4.28zM60.05 37.81l-3.79-3.4h7.33l2.36 3.4h-5.9zM80.3 37.81l3.15-5.06h4.6l-3.47 5.06H80.3z" class="cls-2"/></svg>