<svg xmlns="http://www.w3.org/2000/svg" id="Calque_1" data-name="Calque 1" viewBox="0 0 200.13 128.13"><defs><style>.cls-1{fill:#ff6d75}.cls-3,.cls-4{fill:none;stroke:#000;stroke-linecap:round;stroke-linejoin:round;stroke-width:2px}.cls-4{fill:#fab0b4}</style></defs><path d="M153.84 77.73c-3.17 2.58-4.91 4.36-8.03 5.08l-.06-4.52c1.81-1.68 6.73-4.99 8.07-5.65.05.15-.02 4.85.02 5.08ZM68.12 84.1c-.24.85-.26 7.78-.6 8.61-2.58-.73-4.85-2.95-7.3-3.86.1-.51-.19-3.2-.51-5.64-.03-.21-.37-2.86-.28-3.05l4.69 2.25s1.77 1.03 3.99 1.7Z" class="cls-3"/><path d="m30.46 56.52 8.4 1.37.78 8.4 7.56 7.52-1.52 5.37-7.43-7.68-4.23-6.1-3.56-8.88zM158.51 55.32l1.27 6.21-1.86 6.93-3.3 2.47.23 5.69 5.64-5.29 4.83-8.7 4.65-9.02-11.46 1.71zM48.09 58.88l2.5 3.75.5-2.99 10 1.12 2.4 4.2 2.01 4.88 5.77-6.8 5.88.68 3.18 3.51 1.38 4.27 4.08-6.1 13 2.13 2.67 6.86 3.91-6.95 10.54-1.5 3.78 4.57 4.44-5.55 5.73-.84 3.95 4.42 2.64-6.53 8.33-2.44 2.98 2.62 1.18-3.83-14.77 4.27-11.65 2.08-11.48 1.13-11.72.45-12-1.17-16.08-3.14-17.79-2.8-5.36-.3z" class="cls-1"/><path d="M52.42 76.91c-.15.88 1.23 6.78.99 7.64-1.94-.95-2.35-1.27-4.18-2.43 0 0-2.83-1.93-3-2.75-.35-1.71.22-3.01.54-4.73.1-.55.32-.63.42-.83l5.23 3.1Z" class="cls-3"/><path d="M175.3 52.61c-.24.05-2.05.41-4.12.79-1.87.33-3.94.66-5.25.78-7.93.71-15.98 3.24-23.8 5.6-.1.03-.15.05-.15.05l-3.13.93-.81.24h-.02c-.98.28-1.97.56-2.94.83-2.36.64-4.72 1.25-7.09 1.8h0c-.69.16-1.39.33-2.08.48h-.02c-3.31.72-6.64 1.34-9.98 1.8h-.08c-.08 0-.16.02-.24.03-.05 0-.11.02-.17.03-.19.02-.42.05-.69.08-.09 0-.18.02-.28.04-.15.02-.3.04-.45.05-.12.02-.24.04-.36.05-.4.05-.79.09-1.18.13-.12 0-.24.03-.36.04-1.13.12-3.01.24-4.37.33-1.63.07-3.27.11-4.92.09a68.42 68.42 0 0 1-4.48-.21s-.11 0-.3-.03c-.09 0-.17-.02-.26-.03-.06 0-.14 0-.2-.02-.15 0-.31-.02-.46-.05h-.13c-.04 0-.08-.02-.13-.02-.11 0-.22-.02-.33-.04-.6-.05-1.2-.11-1.8-.19-.24-.02-.47-.05-.71-.08-.24-.02-.47-.05-.72-.08-.3-.04-.56-.07-.75-.1-.05 0-.1-.02-.15-.02-.1-.02-.21-.04-.31-.05h0l-.38-.06c-.28-.05-.59-.1-.92-.15-1.14-.15-2.29-.34-3.45-.56-.12 0-.24-.04-.36-.06-.2-.04-.35-.05-.46-.07h-.06c-.05 0-.08-.02-.08-.02h0c-3.78-.68-7.58-1.46-11.3-2.21-3.7-.75-7.32-1.48-10.77-2.01-1.72-.27-3.41-.52-5.05-.75-.04 0-.08 0-.13-.02-.09-.02-.21-.03-.34-.05-.13-.02-.28-.05-.44-.06-.09-.02-.19-.03-.29-.05-.17-.02-.35-.05-.53-.07-.61-.08-1.3-.18-1.99-.27-.18-.02-.35-.05-.53-.07-.53-.07-1.03-.15-1.51-.21-.21-.03-.41-.05-.6-.08-.57-.07-1.03-.14-1.32-.18-.09 0-.16-.02-.22-.03h-.07c-1.45-.2-2.89-.39-4.33-.59l-.2-.03-6.09-.87-.28-.05c-3.57-.54-7.23-1.16-11.11-1.94l-2.06-.46-.08-.02-.55-.13-.48-.11-.24-.05-.35-.08-.49-.11-.1-.03c1.54-.44 4.63-1.08 6.07-1.41 3.6-.83 7.16-1.8 10.76-2.61 8.34-1.9 16.8-3.29 25.3-4.2 6.28-.67 12.66-1.04 18.95-.28 5.55.68 11.2 4.43 16.63 4.43 5.72 0 11.25-5.07 16.94-6.02 2.8-.46 5.67-.34 8.5-.16 15.29.98 30.04 3.99 44.84 7.81 1.4.36 2.29.6 2.44.65Z" class="cls-4"/><path d="M175.27 54.42c-.93 8.39-7.23 20.08-12.08 26.72-12.03 16.46-28.62 26.57-48.85 29.66-23.37 3.57-53.26.3-68.39-20.1-8.43-11.37-14.61-23.76-21.16-36.27.06 0 .12 0 .18.03l.49.11.35.08.24.05.48.11.55.13.08.02c2.68.92 3.85 4.17 4.89 6.51 1.38 3.11 2.98 5.96 5.08 8.66 12.11 15.58 31.15 25.3 50.6 27.38 20.77 2.22 42-3.74 59.65-14.9 5.38-3.4 10.62-7.4 14.17-12.77 3.46-5.24 5.03-11.94 9.63-16.41 2.07-.38 3.88-.74 4.12-.79.05.46.05 1.06-.04 1.8Z" class="cls-4"/><path d="M24.97 54.45c.77.07 1.5.25 2.19.5l-.08-.02-.55-.13-.48-.11-.24-.05-.35-.08-.49-.11ZM43.11 70.47c.32.34.64.69.97 1.03-1.2-1-2.35-2.48-3.09-3.33.71.76 1.41 1.52 2.12 2.29ZM146.69 76.95h0s-.04.03-.1.06c.04 0 .07-.04.1-.06ZM65.48 74.24h0c-.03.97-.09 2.41-.16 3.84-.11 2.4-.24 4.78-.24 4.78l-2.73-1.32-.56-.27-5.47-2.66-4.24-2.06s-.37-3.78-1.19-8.19c-.83-4.41.35-9.49.35-9.49h.07c.05 0 .13.02.22.03.29.05.75.11 1.32.18.19.03.39.05.6.08.47.06.98.14 1.51.21.17.03.34.05.53.07.69.09 1.38.19 1.99.27.18.03.36.05.53.07.1.02.2.03.29.05.16.02.32.05.44.06.14.02.25.04.34.05.05 0 .09 0 .13.02 1.19.16 3.78 2.71 5.42 7.94.56 1.78.79 4.07.84 6.32Z" class="cls-3"/><path d="M65.44 78.12c-.12 2.7-.36 4.74-.36 4.74s.13-2.38.24-4.78c.07-1.43.14-2.87.16-3.84.05 1.34.02 2.68-.04 3.87Z" class="cls-3"/><path d="M81.29 77.67V79.68c-.03 1.22-.06 2.54-.09 3.73-.02.87-.04 1.67-.05 2.28v.33c0 .2 0 .36-.02.5v.4s-1.7-.15-3.54-.36c-.14 0-.26-.03-.4-.05-1.33-.15-2.68-.32-3.47-.48-1.03-.21-3.34-1.06-5.3-1.83-.09-.04-.18-.07-.26-.1-1.68-.66-3.04-1.23-3.04-1.23s.24-2.04.36-4.74c.05-1.2.08-2.53.04-3.87h0c.02-.37.03-.66.03-.86 0-1.58 1.17-4.82 2.74-7.01 1.76-2.47 4.22-4.21 6.79-3.64 3.13.68 5.21 4.06 6.05 9.36.16 1.02.21 3.19.2 5.57Z" class="cls-3"/><path d="M65.44 78.12c-.12 2.7-.36 4.74-.36 4.74s.13-2.38.24-4.78c.07-1.43.14-2.87.16-3.84.05 1.34.02 2.68-.04 3.87ZM81.27 79.12c0 1.51-.05 3.01-.07 4.3-.03.89-.05 1.68-.07 2.27 0-.61.03-1.41.05-2.28.04-1.37.07-2.92.1-4.29Z" class="cls-3"/><path d="M101.06 85.64c-.15 1.69-.3 2.85-.3 2.85s-4.79.34-10.54 0c-.27-.02-.55-.04-.82-.05-.29-.03-.57-.05-.85-.08-4.19-.43-7.46-1.43-7.46-1.43v-.4c0-.14.02-.3.02-.5v-.33c.03-.59.05-1.38.07-2.27.03-1.29.06-2.79.07-4.3v-1.45c.04-3.3 1.33-6.53 2.05-8.82.69-2.19 2.82-3.75 3-3.89h0s.03 0 .08.02h.06c.11.02.26.04.46.07.12.03.24.05.36.06 1.15.22 2.3.41 3.45.56.33.05.63.1.92.15.13.03.25.05.38.06h0c.1 0 .21.03.31.05.05 0 .11 0 .15.02.19.03.45.06.75.1.24.03.48.06.72.08.24.03.47.06.71.08.61.08 1.21.15 1.8.19.11.02.22.03.33.04.08 0 .17.03.25.03.15.03.31.04.46.05.06 0 .14.02.2.02.09 0 .17.02.26.03l.3.03s.22.68 1.36 2.33c1.15 1.65 1.6 5.1 1.73 7.59.15 2.82-.12 6.58-.35 9.13Z" class="cls-3"/><path d="M81.27 79.12c0 1.51-.05 3.01-.07 4.3-.03.89-.05 1.68-.07 2.27 0-.61.03-1.41.05-2.28.04-1.37.07-2.92.1-4.29ZM87.32 65.12c.9.15 2.29.37 3.45.56-1.14-.15-2.29-.34-3.45-.56ZM94 66.14c.91.1 1.99.22 2.84.31-.93-.07-1.89-.18-2.84-.31ZM96.84 66.44c.35.04.67.06.92.09-.3-.02-.61-.05-.92-.09ZM120.04 76.8v9.65s-2.27 1-6.72 1.74c-.31.05-.62.09-.94.15-.43.05-.87.12-1.33.17-2.59.31-9-.22-9-.22V75.42s.54-2.61 1.45-4.91c1.02-2.58 2.53-3.71 2.53-3.71s.71-.04 1.69-.1c1.36-.08 3.24-.21 4.37-.33.12 0 .24-.03.36-.04.39-.04.78-.07 1.18-.13.12 0 .24-.03.36-.05.15-.02.31-.04.45-.05.1-.02.19-.03.28-.04.27-.04.5-.06.69-.08.06 0 .12-.02.17-.03.08 0 .16-.02.24-.03h.08s2.14 1.18 2.83 3.2c.91 2.65 1.3 5.45 1.3 7.66ZM134.23 82.97s-4.09 1.78-5.92 2.49c-.74.28-2.28.51-3.82.67-2.21.23-4.45.33-4.45.33V74.49c0-3.35 1.03-5.6 2.26-7.31 1.03-1.44 3.32-2.87 3.6-3.04h.02c.69-.15 1.39-.32 2.08-.48h0c.18.09 2.87 1.42 4.05 2.68 1.23 1.3 1.86 4.1 2.03 5.78.18 1.67.14 10.86.14 10.86ZM127.99 63.64c-.69.16-1.39.33-2.08.48h0l2.07-.48Z" class="cls-3"/><path d="M147.22 64.75c-.05 2-.51 11.83-.53 12.21h0s-.04.03-.1.06c-.08.05-.22.14-.39.24-.83.5-2.52 1.53-3.75 2.26-.39.23-.73.43-.98.57-.08.05-.18.1-.29.16-.11.06-.23.13-.34.18-.19.1-.4.21-.62.33-1.41.73-3.33 1.69-4.17 2.11-.27.13-1.89.63-1.89.63l.22-2.02s-.24-8.42-.22-10.3c.03-1.88.62-4.62 1.59-6.84.97-2.22 2.29-3.35 2.29-3.35l.81-.24 3.13-.93s.05-.02.15-.05c.57-.14 2.61-.57 3.65.4.56.52 1.48 2.17 1.42 4.56Z" class="cls-3"/><path d="M150.58 57.28s-1.15 1.53-1.88 3.01c-.58 1.17-1.41 2.34-1.48 4.45s-.49 11.62-.49 11.62 5.24-3 6.89-4.32 3.58-2.92 4.31-3.58 1.1-4.82 1.1-4.82.23-5.45 0-6.71c-.23-1.25-.51-1.62-.51-1.62l-7.93 1.97ZM50.86 75.59s-5.21-2.77-6.74-4.05c-.02 0-.03-.03-.05-.04-1.2-1-2.35-2.48-3.09-3.33-.03-.03-.05-.05-.07-.08-.15-.16-.26-.3-.37-.4-.65-.63-.81-2.95-.81-2.95s-.2-5.11 0-6.28l.21-1.18.39.05.28.05 6.09.87.2.03s1.36 1.94 2.01 3.33c.51 1.09 1.25 2.19 1.32 4.15.06 1.98.63 9.82.63 9.82ZM101.46 85.66l-1.15 4.03.25 7.82c-3.99.2-7.34.41-11.41.04-.05-.44-.07-5.99-.04-6.65.03-.53.14-1.7.28-2.15.26.02.54.04.82.05 5.75.34 10.54 0 10.54 0s.15-1.47.3-3.16h.24l.15.02ZM81.2 83.42c-.03.89-.05 1.68-.07 2.27 0-.61.03-1.41.05-2.28h.03ZM88.55 88.61c-.07.89-.2 7.44-.41 8.32-3.66-.32-7.3-.85-10.89-1.6 0-.44.04-6.14.21-6.84.07-.32.18-1.14.29-1.41 1.81.18 3.47.31 3.47.31s3.21.86 7.33 1.23ZM77.15 86.51c-.16.99-.38 7.03-.65 7.99-3-.73-5.65-1.65-8.52-2.74.07-.41-.14-5.95.02-6.51.11-.38.24-.73.38-1.06 1.96.77 4.26 1.62 5.3 1.83.8.16 2.14.34 3.47.48ZM65.44 78.12c-.12 2.7-.36 4.74-.36 4.74s.13-2.38.24-4.78l.13.04ZM59.43 80.15c-.15.88.99 7.22.75 8.08-1.94-.95-4.76-2.12-6.59-3.27 0 0-.14-.71-.31-1.54-.35-1.71-.25-2.18-.62-4.31-.1-.55-.34-2.01-.25-2.22l7.01 3.25Z" class="cls-3"/><path d="M113.33 95.91c-3.17.58-6.99 1.2-10.2 1.43-.6.05-1.19.08-1.8.11l-.03-6.67-.15-5.11h.15l.74-.05v2.68s6.4.53 9 .22c.46-.05 1.49-.21 1.92-.26.15.46.32.88.35 1.44l.02 6.22ZM124.84 92a91.344 91.344 0 0 1-11.01 2.87l.22-6.46c4.45-.74 5.99-1.96 5.99-1.96s2.24-.1 4.45-.33c.06.15.12.32.16.49.07.26.14 5.16.18 5.39ZM134.88 89.39c-3.61 1.19-5.82 2.86-9.54 3.59l-.51-6.68c4.45-.74 5.48-1.4 5.48-1.4s2.01-1.17 4.23-1.39c.06.15.12.32.16.49.07.26.14 5.16.18 5.39ZM145.26 83.52c-3.78 2.58-5.84 4.36-9.56 5.08l-.07-5.52c2.08-.35 8.01-3.99 9.61-4.65.06.15-.02 4.85.02 5.08Z" class="cls-3"/><rect width="25.33" height="25.33" x="160.64" y="10.96" rx="3.56" ry="3.56" style="fill:#bbfedb"/><path d="M185.97 21.62v11.12c0 1.96-1.6 3.56-3.56 3.56h-18.22c-1.96 0-3.56-1.6-3.56-3.56V14.52c0-1.96 1.6-3.56 3.56-3.56h18.22" class="cls-3"/><path d="m164.14 18.44 9.16 13.15 15.47-20.63" class="cls-3"/></svg>