<svg xmlns="http://www.w3.org/2000/svg" id="Calque_1" viewBox="0 0 128 128"><defs><style>.cls-2,.cls-3,.cls-6{stroke:#000;stroke-miterlimit:10}.cls-2{fill:#eff8f6}.cls-3{fill:#b2f0e9}.cls-6{fill:none}</style></defs><path d="M91.49 118.19H71.03s-3.54.46-5.64-5.75v-.46c1.87 2.44 4.86 3.89 7.99 3.83l15.06-.28c.85-.02 1.65.29 2.26.88.33.32.57.71.74 1.12l.05.67Z" style="fill:#77eddf;stroke:#000;stroke-miterlimit:10"/><path d="M91.58 119.3c-.11.51-.35 1-.73 1.41-.64.69-1.57 1.11-2.52 1.13l-14.72.28c-4.42.09-8.1-3.43-8.19-7.83l-.04-1.85c2.1 6.21 5.64 5.75 5.64 5.75h20.46l.1 1.11Z" style="stroke:#000;stroke-miterlimit:10;fill:#fff"/><path d="m68.59 112.34-8.21.21-.28-10.92 4.11-.1 4.1-.11.28 10.92z" class="cls-2"/><path d="m76.29 69.66-.82 33.8-6.24.16h-.01l-4.79.12-11.05.28-2.62-34.36h25.53zM77.57 18.06l-.78 31.62H49.26l-2.35-30.84 1.36-.04 29.3-.74z" class="cls-3"/><path d="m76.79 49.68-.5 19.98H50.76l-1.5-19.98h27.53z" style="fill:#8987f3;stroke:#000;stroke-miterlimit:10"/><path d="m80.82 19.87-36.97.94-1.52-7.9 39.6-1.01-1.11 7.97zM67.06 56.2c-.12-.67-.65-1.16-1.42-1.31-.54-.11-1.07-.04-1.65.21-.66.29-1.32.28-2.01-.01-.29-.12-.59-.2-.93-.23-.74-.07-1.5.26-1.84.81-.18.29-.27.62-.28 1.05-.01.73.18 1.34.58 1.88.07.1.13.19.19.29l.05.08c.13.22.2.46.19.71 0 .22.06 1.76.14 2.3.08.58.22 1.07.44 1.51.19.38.38.61.65.77.11.04.18.02.23-.02.46-.3.68-1.95.7-3.03 0-.51.41-.93.92-.95h.03c.24 0 .47.1.65.28.18.18.28.42.28.68.02 1.08.25 2.73.71 3.03.05.03.12.06.23.01.37-.2.87-1.31 1-1.91.16-.77.23-1.61.2-2.65v-.05c0-.1-.01-.23.05-.35l.02-.04c.1-.23.21-.46.37-.68.5-.7.67-1.47.5-2.37Z" class="cls-2"/><path d="M49.26 49.68h-.02M65.39 112.44s-.01-.01-.01-.02" class="cls-6"/></svg>