<svg xmlns="http://www.w3.org/2000/svg" id="Calque_1" data-name="Calque 1" viewBox="0 0 128 128"><defs><style>.cls-2,.cls-4{stroke-linecap:round;stroke-linejoin:round}.cls-2,.cls-4,.cls-5{stroke:#000}.cls-2{fill:#fff}.cls-4{stroke-width:.5px;fill:none}.cls-5{fill:none;stroke-miterlimit:10}</style></defs><path d="m8.39 58.09 37.84 45.93h74.71L77.93 58.09H8.39z" class="cls-2"/><path d="m85.81 81.73-.72-1.89-1.61 1.42 12.57-62.19 4.66.94L88.14 82.2l-.72-1.89-1.61 1.42z" style="stroke:#000;stroke-linecap:round;stroke-linejoin:round;fill:#b2f0e9"/><path d="m101.265 17.276-.552 2.735-4.656-.94.552-2.735z" class="cls-2"/><path d="M96.81 12.11h5.3v4.19h-5.3z" style="fill:#fab0b4;stroke:#000;stroke-linecap:round;stroke-linejoin:round" transform="rotate(-78.58 99.451 14.211)"/><path d="m83.81 91.65-.11-3.47-.22-6.92 1.61-1.42.72 1.89 1.61-1.42.72 1.89-2.88 6.3-1.45 3.15z" class="cls-2"/><path d="m84.24 89.52-.09-2.99 1.33.27-1.24 2.72z"/><path d="M98.82 21.37 87.35 78.16M97.26 21.05 85.79 77.84" class="cls-4"/><path d="m50.91 64.17-5.6 14.54 26.47-2.72-20.87-11.82z" style="stroke:#ff6d75;stroke-miterlimit:10;fill:none"/><path d="m45.31 78.71 8.9 18.34 28.97-5.27" class="cls-5"/><path d="m66.35 94.84-4.31-8.51 6.09-.76 3.83 8.25" class="cls-5"/></svg>