<svg xmlns="http://www.w3.org/2000/svg" id="Calque_1" data-name="Calque 1" viewBox="0 0 128 128"><defs><style>.cls-2,.cls-3,.cls-4,.cls-8{stroke-linecap:round;stroke-linejoin:round;stroke:#000}.cls-2{fill:#baa584}.cls-3{fill:#fff}.cls-4,.cls-8{fill:none}.cls-8{stroke-width:.5px}</style></defs><path d="M76.13 105.41s-3.06 1.64-6.32 1.71-8.28-3.46-11.2-3.26c-2.92.2-5.91 1.97-8.76 2.38-2.85.41-4.76.37-6.32.2.65-.42 1.09-.95 1.09-.95l-.65-.29 1.85-.5-1.09-.29s1.76.16 6-.98c3.18-.86 3.71-1.71 6.74-2 2.1-.2 5.49 1.09 7.64 2.17 2.14 1.09 2.75 1.54 4.99 1.82s6.04 0 6.04 0Z" style="stroke:#ff6d75;stroke-width:.5px;fill:#ff6d75;stroke-linecap:round;stroke-linejoin:round"/><path d="m63.53 95.46-22.58.81L34.82 87l5.59-6.31 14.63 6.53 2.84 3.12" style="stroke:#76ac75;fill:none;stroke-linecap:round;stroke-linejoin:round"/><path d="M8.2 76.59h53.75l33.25 35.5M95.2 112.09H37.45L8.2 76.59" class="cls-4"/><path d="m65.53 85.54-.72-1.89-1.61 1.42 12.57-62.19 4.66.94-12.57 62.2-.72-1.9-1.61 1.42z" style="fill:#76ac75;stroke:#000;stroke-linecap:round;stroke-linejoin:round"/><path d="m80.986 21.093-.552 2.735-4.656-.94.552-2.735zM76.598 20.2l1.049-5.196 4.107.83-1.05 5.195zM63.53 95.46l-.11-3.47-.22-6.92 1.61-1.42.72 1.89 1.61-1.42.72 1.9-2.88 6.29-1.45 3.15z" class="cls-3"/><path d="m63.96 93.33-.09-2.99 1.33.27-1.24 2.72z" style="fill:#76ac75"/><path d="M78.54 25.18 67.07 81.97M76.98 24.86 65.51 81.65" class="cls-8"/><path d="M84.51 91.44 81 89.64l2.21-5.59a259.544 259.544 0 0 1 22.88-44.63l3.04-4.73 3.51 1.8-2.14 5.42a259.196 259.196 0 0 1-22.86 44.64l-3.14 4.9ZM113.025 31.403h0a1.963 1.963 0 0 1 .852 2.638l-1.24 2.421-3.489-1.786 1.24-2.421a1.963 1.963 0 0 1 2.637-.852Z" class="cls-2"/><path d="m81.007 89.636 3.49 1.786-1.445 2.822-3.49-1.786z" class="cls-3"/><path d="M79.48 92.44c-2.28.99-3.87 3.13-3.2 5.65.25.93.65 1.82.76 2.77.1.9-.13 1.78-.5 2.59s-.63 1.37-1.35 2.26c2.86-.94 5.59-1.95 7.33-4.58 1.06-1.6 1.26-5.1.64-6.83-1.92-.99-.99-.5-3.67-1.87Z" class="cls-3"/><path d="M76.74 99.56c-.08-.39.42-1.27.65-1.54.07-.08.16-.16.26-.18.21-.05.41.12.55.28.49.6.86 1.48 1.77 1.44.3-.01.59-.14.89-.22.61-.18 1.26-.21 1.88-.08.11.02.21.05.3.12.35.28-.18.98-.32 1.25-.66 1.28-1.65 2.39-2.9 3.11-2.6 1.49-4.62 1.98-4.62 1.98s1.57-2.07 1.72-3.3-.17-2.85-.17-2.85Z" style="stroke-width:.5px;fill:#ff6d75;stroke:#000;stroke-linecap:round;stroke-linejoin:round"/></svg>