<svg xmlns="http://www.w3.org/2000/svg" id="Calque_1" viewBox="0 0 128 128"><defs><style>.cls-1,.cls-2,.cls-3,.cls-4,.cls-6,.cls-7,.cls-8{stroke-linecap:round}.cls-1,.cls-2,.cls-3,.cls-6,.cls-7,.cls-8{stroke-linejoin:round}.cls-1,.cls-11,.cls-12,.cls-3,.cls-4,.cls-6,.cls-7,.cls-8{stroke:#000}.cls-1{fill:#ff6d75}.cls-12,.cls-2,.cls-3,.cls-7{fill:none}.cls-2{stroke:#231f20}.cls-13,.cls-6{fill:#fff}.cls-4{fill:#bfe6fc}.cls-12,.cls-4,.cls-6,.cls-7{stroke-width:2px}.cls-11,.cls-12,.cls-4{stroke-miterlimit:10}.cls-11{fill:#e9cb61}</style></defs><path d="M74.72 35.99h1.73c3.69 0 6.71-3.31 6.71-7.37V16.71c0-4.05-3.02-7.37-6.71-7.37h-25.1c-3.69 0-6.71 3.32-6.71 7.37v11.91c0 4.06 3.02 7.37 6.71 7.37h23.37Z" class="cls-8"/><path d="M96.57 121.63h29.56V59.21c-.72-.55-1.38-.89-1.97-.98 0 0-13.19-4.32-19.19-4.32-2.42 0-5.45 1.08-8.21 2.38-1.24.58-2.41 1.32-3.49 2.15l-2.54 1.95c-3.73 2.87-6.64 6.73-8.09 11.21l-.03.09c-1.67 5.26-1.67 25.36-1.67 25.36v24.51l15.62.06Z" style="stroke-miterlimit:10;stroke-width:2px;fill:#ff6d75;stroke:#000"/><path d="M101.87 52.58c-.77.58-4.45 1.94-7.93 2.2-3.69.27-3.57-2.38-4.48-6.15-.9-3.74-2.72-3.8-2.89-4.75-.17-.97 2.9-3.15 2.26-7.31-.07-.46-.11-.88-.11-1.31-.12-3.46 1.5-5.79 2.51-7.01 0 0 4.73 6.39 5.7 7.39.96 1 4.09 3.9 6.06 2.9 1.8-.91 3.25-2.51 4.97-1.66 1.72.84 2.25 4.24.5 5.57 0 0 2.27 3.16 3.27 5.41l3.45 8s-9.59 7.87-17.13.43l3.83-3.71Z" class="cls-6"/><path d="M96.49 49.57c-3.91-1.19-6.75.33-6.75.33v.02l-.29-1.28s1.9-2.41 5.51-1.26c1.29.42 1.73 1.3 1.53 2.18Z" class="cls-3"/><path d="M96.49 49.57c-.38 1.59-2.87 3.21-6.34 2.19l-.42-1.85v-.02s2.85-1.52 6.76-.33Z" class="cls-1"/><path d="M88.83 38.76s-3.24-4.47-3.02-8.28c.26-4.6 4.32-5.15 4.32-5.15 1.79-3.83 11.13-6.97 20.51-3.13 6.85 2.8 6.46 9.08 4.8 13.05" class="cls-7"/><path d="M116.56 31.81s1.98 4.21.08 7.91c-1.66 3.22-3.66 6.67-3.67 10.18" class="cls-7"/><path d="m94.96 33.21-3.95 3.92" class="cls-3"/><ellipse cx="94.01" cy="39.47" class="cls-8" rx=".57" ry="1.23" transform="rotate(-11.34 94.08 39.499)"/><path d="m106.69 39.59-.87.47" class="cls-6"/><path d="M115.93 55.95s-10.06 7.12-17.89.35" class="cls-12"/><path d="m83.87 60.24 1.41-3.38M79.41 45.78l3.07 2.01M78.22 54.07l2.68-.83" class="cls-4"/><path d="M50.29 27.44c-.88-.72-1.42-1.63-1.62-2.74-.23-1.32.01-2.52.74-3.6.81-1.2 2.04-1.95 3.7-2.25 1.44-.26 2.64-.09 3.59.49.89.55 1.44 1.37 1.63 2.47.16.92.03 1.76-.41 2.51s-1 1.19-1.68 1.31c-.4.07-.71.03-.94-.13s-.36-.37-.41-.64c0-.04-.01-.09-.01-.14v-.16c-.13.5-.34.88-.64 1.13s-.61.41-.96.47c-.5.09-.93-.02-1.31-.33s-.61-.74-.71-1.31c-.14-.81 0-1.56.41-2.27s.93-1.12 1.54-1.22c.41-.07.77-.01 1.09.18s.51.45.58.79l.12-1.07.89-.16-.34 2.8c-.02.22-.04.39-.05.52s0 .24.02.34c.03.18.11.3.24.37s.26.08.4.06c.46-.08.83-.4 1.11-.94s.35-1.21.21-1.99c-.17-.94-.63-1.62-1.38-2.04s-1.68-.53-2.79-.34c-1.54.27-2.63.93-3.29 1.97-.56.89-.74 1.91-.53 3.07.18 1.01.66 1.8 1.45 2.37.92.68 2.1.89 3.54.63.67-.12 1.28-.34 1.82-.65s1.02-.7 1.44-1.14l.5.48c-.31.39-.8.79-1.47 1.2s-1.45.69-2.32.85c-1.69.3-3.09 0-4.19-.89Zm4.02-5.64c-.2-.17-.45-.23-.75-.18-.46.08-.81.42-1.05 1.03s-.31 1.18-.22 1.71c.07.4.21.68.42.86s.45.24.71.2c.55-.1.92-.49 1.11-1.18s.24-1.29.15-1.81a1.03 1.03 0 0 0-.37-.63Z" class="cls-13"/><path d="M53.27 28.57c-1.19 0-2.21-.35-3.06-1.03-.9-.73-1.46-1.68-1.66-2.82-.24-1.35.02-2.59.76-3.7.82-1.23 2.1-2 3.79-2.3 1.47-.26 2.71-.09 3.68.51.92.57 1.49 1.43 1.69 2.56.17.95.02 1.82-.42 2.6-.46.78-1.05 1.25-1.77 1.37-.43.08-.78.02-1.04-.15-.18-.13-.32-.3-.4-.5-.13.28-.3.51-.5.68-.31.27-.66.43-1.03.5-.53.1-1.01-.02-1.41-.35-.4-.32-.65-.79-.76-1.39-.15-.83 0-1.63.43-2.36.44-.74.99-1.17 1.63-1.29.44-.08.84-.01 1.18.19.18.11.33.25.44.4l.08-.69 1.16-.21-.36 2.98c-.02.21-.04.38-.04.51 0 .12 0 .23.01.31.02.14.08.23.17.27.1.05.2.06.32.05.42-.08.76-.36 1.02-.87.27-.52.33-1.16.2-1.9-.16-.91-.59-1.54-1.31-1.95-.72-.4-1.63-.51-2.7-.32-1.49.26-2.57.91-3.2 1.91-.54.86-.71 1.86-.51 2.98.17.97.64 1.74 1.4 2.29.89.65 2.04.85 3.44.61.65-.12 1.25-.33 1.78-.64s1-.68 1.41-1.12l.09-.1.68.65-.07.09c-.31.4-.82.81-1.51 1.23-.69.42-1.48.71-2.36.87-.43.08-.84.11-1.24.11Zm1.09-9.7c-.39 0-.79.04-1.22.11-1.62.29-2.83 1.02-3.62 2.19-.7 1.05-.95 2.23-.72 3.5.19 1.07.72 1.97 1.57 2.66 1.06.86 2.44 1.15 4.08.86a6.54 6.54 0 0 0 2.27-.83c.61-.37 1.06-.73 1.36-1.08l-.31-.3c-.4.41-.86.77-1.37 1.07-.55.32-1.18.54-1.86.67-1.47.26-2.69.04-3.64-.65-.81-.59-1.31-1.41-1.5-2.46-.21-1.18-.02-2.25.55-3.16.67-1.07 1.81-1.76 3.38-2.03 1.13-.2 2.1-.08 2.88.35.78.44 1.27 1.15 1.44 2.13.14.8.07 1.5-.23 2.07-.3.58-.7.92-1.21 1.01a.79.79 0 0 1-.48-.07c-.16-.08-.27-.24-.31-.46-.02-.1-.02-.23-.02-.37 0-.13.02-.31.05-.53l.31-2.63-.62.11-.2 1.74-.17-.75c-.07-.3-.24-.53-.52-.7-.29-.17-.61-.23-1-.16-.56.1-1.05.49-1.45 1.16-.4.68-.53 1.41-.4 2.18.09.53.32.95.66 1.23.35.28.74.38 1.2.3.32-.06.63-.2.9-.44.27-.23.47-.59.6-1.06l.26.04v.15a.818.818 0 0 0 .37.68c.19.14.47.18.84.11.64-.11 1.18-.53 1.59-1.25.42-.72.55-1.54.39-2.42-.19-1.05-.72-1.85-1.57-2.38-.64-.39-1.4-.59-2.28-.59Zm-1.1 6.7a1 1 0 0 1-.64-.24c-.24-.2-.39-.51-.47-.94-.1-.56-.02-1.16.23-1.78.26-.65.65-1.02 1.15-1.11.33-.06.62.01.85.21.23.19.37.43.42.71.09.53.04 1.16-.16 1.87-.21.74-.61 1.17-1.21 1.28-.06.01-.12.02-.18.02Zm.5-3.83c-.06 0-.12 0-.18.02-.42.07-.73.38-.95.95-.23.58-.3 1.13-.21 1.64.06.36.19.63.38.78.18.15.38.21.6.17.5-.09.83-.44 1-1.09.19-.67.24-1.26.15-1.75a.908.908 0 0 0-.33-.55.688.688 0 0 0-.46-.17ZM60.26 23.52l1.41-.25.2-2.19-1.41.25.06-.74 1.41-.25.24-2.85.9-.16-.25 2.85 1.34-.24.26-2.85.89-.16-.25 2.85 1.41-.25-.06.74-1.41.25-.21 2.19 1.41-.25-.06.74-1.4.25-.27 2.83-.89.16.26-2.83-1.35.24-.24 2.83-.9.16.26-2.83-1.41.25.06-.74Zm3.64-.65.21-2.19-1.34.24-.19 2.19 1.32-.23Z" class="cls-13"/><path d="m61.2 27 .26-2.83-1.41.25.08-1.01 1.41-.25.18-1.92-1.41.25.09-1.01 1.41-.25.24-2.85 1.17-.21-.25 2.85 1.07-.19.26-2.85 1.16-.21-.25 2.85 1.41-.25-.09 1.01-1.41.25-.18 1.92 1.41-.25-.09 1.01-1.4.25-.27 2.83-1.16.21.26-2.83-1.09.19-.24 2.83-1.17.21Zm.55-3.15-.26 2.83.64-.11.24-2.83 1.62-.29-.26 2.83.62-.11.27-2.83 1.4-.25.04-.47-1.41.25.23-2.46 1.41-.25.04-.47-1.41.25.25-2.85-.63.11-.26 2.85-1.61.29.25-2.85-.64.11-.24 2.85-1.41.25-.04.47 1.41-.25-.23 2.46-1.41.25-.04.47 1.41-.25Zm.67-.58.21-2.46 1.61-.28-.23 2.46-1.59.28Zm.46-2.23-.17 1.92 1.06-.19.18-1.92-1.07.19ZM67.45 16.56l1.23-.22.52 2.93.39 3.91-.62.11-1-3.8-.52-2.93Zm1.36 7.65 1.21-.21.22 1.26-1.21.21-.22-1.26Z" class="cls-13"/><path d="m68.92 25.63-.27-1.52 1.47-.26.27 1.52-1.47.26Zm.03-1.31.18 1 .95-.17-.18-1-.95.17Zm-.09-.88-1.03-3.92-.54-3.07 1.49-.26.54 3.06.4 4.05-.86.15Zm-1.27-6.78.5 2.8.97 3.68.38-.07-.38-3.79-.5-2.79-.97.17ZM71.77 18.75c-.18-.27-.29-.55-.34-.82-.1-.57 0-1.09.33-1.53s.81-.73 1.46-.84 1.13-.02 1.54.27.66.68.75 1.17c.1.57 0 1.1-.27 1.6-.17.29-.47.64-.9 1.06l1.97 1.65c.05-.34.08-.6.1-.77s.02-.4.01-.69l1.04-.18c.03.58 0 1.15-.12 1.72s-.18.79-.2.69l1.93 1.64-1.41.25-1.02-.87c-.27.42-.52.74-.77.95-.43.38-.96.62-1.59.73-.93.16-1.64.03-2.15-.39-.51-.43-.82-.95-.93-1.58-.12-.68-.02-1.28.31-1.8.2-.32.61-.75 1.22-1.28-.45-.37-.77-.69-.95-.96Zm3.52 4.52c.29-.26.5-.54.62-.82l-2.45-2.1c-.5.48-.82.84-.96 1.07-.21.35-.28.74-.2 1.18.08.47.32.81.71 1s.78.26 1.18.19c.45-.08.82-.25 1.1-.52Zm-.98-5.04c.19-.32.26-.64.2-.98-.05-.26-.17-.47-.38-.63s-.46-.21-.75-.16c-.45.08-.73.28-.86.61-.06.17-.08.35-.04.53.04.25.15.47.33.67s.45.46.83.76c.34-.34.56-.61.68-.8Z" class="cls-13"/><path d="M73.55 24.96c-.62 0-1.13-.16-1.52-.49-.53-.44-.86-1-.98-1.66-.13-.7-.01-1.34.33-1.9.2-.31.57-.71 1.13-1.21-.4-.33-.69-.63-.86-.89-.19-.28-.31-.58-.36-.87-.11-.61.01-1.16.35-1.63.34-.47.86-.77 1.54-.9.65-.12 1.2-.02 1.64.29.44.31.71.73.8 1.26.11.6 0 1.17-.29 1.68-.16.28-.43.6-.82.98l1.68 1.41c.03-.22.05-.4.06-.53.01-.16.02-.38.01-.68v-.11l1.29-.23v.15c.04.59 0 1.18-.12 1.75-.07.33-.11.53-.15.64l2.04 1.74-1.74.31-.95-.81c-.24.37-.48.65-.71.85-.44.39-1 .65-1.65.76-.26.05-.51.07-.75.07Zm.15-9.32c-.15 0-.3.01-.46.04-.61.11-1.08.38-1.37.79-.3.42-.4.89-.31 1.43.05.26.16.52.32.77.17.26.48.57.92.93l.12.1-.12.1c-.6.53-1 .95-1.2 1.25-.31.5-.41 1.07-.29 1.71.1.59.4 1.1.89 1.5.48.4 1.16.52 2.05.36.6-.11 1.11-.34 1.52-.7.24-.21.49-.52.75-.92l.08-.13 1.09.93 1.07-.19-1.65-1.41h-.08l-.03-.13-.07-.36.15.13c.02-.1.06-.25.11-.51.1-.5.14-1.02.13-1.53l-.78.14c0 .25 0 .45-.01.59-.02.17-.05.43-.1.77l-.04.23-2.26-1.9.11-.1c.43-.41.72-.75.88-1.03.27-.46.35-.97.26-1.51-.08-.46-.31-.81-.69-1.09-.27-.19-.6-.29-.99-.29Zm.17 8.31c-.31 0-.62-.08-.93-.23-.43-.21-.69-.58-.78-1.1-.08-.47 0-.9.22-1.27.14-.24.47-.6.98-1.1l.09-.08 2.62 2.24-.04.09c-.14.3-.36.59-.65.87-.3.28-.7.46-1.17.55-.11.02-.22.03-.33.03Zm-.41-3.42c-.44.43-.73.75-.85.96-.2.33-.26.68-.19 1.09.08.43.29.73.64.91.36.18.73.24 1.09.17.42-.08.77-.24 1.04-.48.24-.22.43-.46.55-.69l-2.28-1.96Zm.17-1.31-.09-.07c-.38-.31-.67-.57-.85-.78-.19-.22-.31-.47-.36-.74-.04-.21-.02-.41.05-.6.14-.38.46-.61.96-.7.33-.06.62 0 .86.18.23.18.38.42.43.72.06.37 0 .73-.21 1.07-.12.21-.36.49-.7.83l-.08.08Zm-.06-2.64c-.06 0-.12 0-.19.02-.4.07-.65.24-.75.53-.05.15-.07.3-.04.46.04.22.14.43.3.61.16.18.4.4.72.67.28-.29.47-.52.58-.69.17-.29.23-.58.18-.89a.856.856 0 0 0-.33-.55.746.746 0 0 0-.46-.15Z" class="cls-13"/><path d="M64.45 49.62c.11.29.09.62-.1.9-.71 1.09-1.89 2.94-2.63 4.42 0 0 1.64.6 2.39 1.37.74.77.43 1.84.43 1.84s3.2 1.93 3.54 4.3c.22 1.5-.3 3.6-1.97 6.16-.97 1.5-2.33 3.15-4.17 4.93l-6.36-6.01 1.75-10.43c.11-.67.33-1.33.67-1.92.74-1.32 2.3-3.73 4.92-5.94.3-.25.72-.29 1.06-.12.22.11.38.3.46.51Z" style="stroke-width:2px;fill:#fff;stroke:#231f20;stroke-linejoin:round;stroke-linecap:round"/><path d="M1.87 59.15v62.41h29.56s.45-21.1 1.35-24.45c.47-1.75 2.21-4.89 3.93-7.86.94 1.76 2.23 3.93 3.79 5.97 2.33 3.06 5.26 5.8 8.49 6.3 7.84 1.18 15.39-16.72 17.13-30.99 0 0-4.66-2.15-11.47-2.97L49 83.69s-1.93-6.8-3.6-12.06c-.99-3.09-2.53-5.98-4.54-8.54l-2-2.54s-2.45-1.67-5.66-3.35c-3.21-1.67-7.16-3.35-10.16-3.35-6 0-19.19 4.32-19.19 4.32-.59.09-1.25.43-1.97.98Z" style="fill:#fab0b4;stroke-miterlimit:10;stroke-width:2px;stroke:#000"/><path d="M26.13 52.52c.77.58 4.45 1.94 7.93 2.2 3.69.27 3.57-2.38 4.48-6.15.9-3.74 2.72-3.8 2.89-4.75.17-.97-2.9-3.15-2.26-7.31.07-.46.11-.88.11-1.31.12-3.46-1.5-5.79-2.51-7.01 0 0-4.73 6.39-5.7 7.39-.96 1-4.09 3.9-6.06 2.9-1.8-.91-3.25-2.51-4.97-1.66-1.72.84-2.25 4.24-.5 5.57 0 0-2.27 3.16-3.27 5.41l-3.45 8s9.59 7.87 17.13.43l-3.83-3.71Z" class="cls-6"/><path d="M31.51 49.5c3.91-1.19 6.75.33 6.75.33v.02l.29-1.28s-1.9-2.41-5.51-1.26c-1.29.42-1.73 1.3-1.53 2.18Z" class="cls-3"/><path d="M31.51 49.5c.38 1.59 2.87 3.21 6.34 2.19l.42-1.85v-.02s-2.85-1.52-6.76-.33Z" class="cls-1"/><path d="M48.94 86c-.07 1.85-.22 4.44-.56 6.36" class="cls-2"/><path d="M39.17 38.69s3.24-4.47 3.02-8.28c-.26-4.6-4.32-5.15-4.32-5.15-1.79-3.83-11.13-6.97-20.51-3.13-6.85 2.8-6.46 9.08-4.8 13.05" class="cls-7"/><path d="M11.44 31.75s-1.98 4.21-.08 7.91c1.66 3.22 3.66 6.67 3.67 10.18" class="cls-7"/><path d="m33.04 33.15 3.95 3.91" class="cls-3"/><ellipse cx="33.99" cy="39.4" class="cls-8" rx="1.23" ry=".57" transform="rotate(-78.66 33.988 39.404)"/><path d="m21.31 39.53.87.46" class="cls-6"/><path d="M12.07 55.89s10.06 7.12 17.89.35" class="cls-12"/><path d="m44.13 60.18-1.41-3.38M48.59 45.72l-3.07 2M49.78 54.01l-2.68-.83" class="cls-4"/><path d="M47.76 33.21v6.85l4.35-4.95-4.35-1.9zM80.39 33.21v6.85l-4.35-4.95 4.35-1.9z" class="cls-8"/><path d="m91.01 79.02-1.28 42.54" class="cls-2"/><path d="m34.17 3.46 1.05 3.55 2.93-2.26-1.24 3.49 3.7-.1-3.05 2.09 3.05 2.09-3.7-.1 1.24 3.49-2.93-2.26L34.17 17l-1.05-3.55-2.93 2.26 1.24-3.49-3.7.1 3.05-2.09-3.05-2.09 3.7.1-1.24-3.49 2.93 2.26 1.05-3.55zM93.84 7.5l-.76 2.6 2.7-.23-2.15 1.65 2.32 1.41-2.71.08 1.06 2.49-2.24-1.52-.62 2.63-.91-2.55-2.05 1.77.76-2.6-2.7.23 2.14-1.65-2.32-1.41 2.71-.08-1.05-2.5 2.24 1.53.62-2.64.91 2.56 2.05-1.77z" class="cls-11"/></svg>