<svg xmlns="http://www.w3.org/2000/svg" id="Calque_1" data-name="Calque 1" viewBox="0 0 128 128"><defs><style>.cls-1,.cls-3,.cls-4,.cls-7{stroke:#000}.cls-1,.cls-3,.cls-4{stroke-linecap:round;stroke-linejoin:round}.cls-1,.cls-7{fill:#f3d587}.cls-3{fill:none}.cls-4{fill:#ff6d75;stroke-width:2px}.cls-7{stroke-miterlimit:10}</style></defs><path d="M111.96 76.92a23.635 23.635 0 0 1-5.52 8.67h.01l-37.43 37.19c-.22.22-.51.33-.81.33l1.57-14.99-7.32-9.54 11.47-17.29-11.47-9.42 5.69-12.73c3.73-8.19 11.98-13.91 21.55-13.91 13.05 0 23.66 10.62 23.66 23.67 0 2.81-.49 5.51-1.4 8.02Z" class="cls-4"/><path d="M95.98 64.01c-9.59 0-17.39 7.76-17.39 17.28s7.8 17.29 17.39 17.29 17.39-7.76 17.39-17.29-7.8-17.28-17.39-17.28Zm0 32.5c-8.46 0-15.32-6.81-15.32-15.22s6.86-15.22 15.32-15.22 15.33 6.82 15.33 15.22-6.86 15.22-15.33 15.22Z" class="cls-7"/><path d="m54.64 98.58 7.32 9.54-1.57 14.99c-.29 0-.58-.11-.8-.33L23.5 86.94c-.95-.81-1.83-1.69-2.64-2.63a23.72 23.72 0 0 1-4.39-7.56c-.87-2.46-1.34-5.1-1.34-7.85 0-13.05 10.61-23.67 23.66-23.67 9.57 0 17.82 5.72 21.54 13.91l-5.69 12.73 11.47 9.42-11.47 17.29Z" class="cls-4"/><path d="m40.23 62-2.76 1.93H32.8L30.04 62l2.76-2.87h4.67L40.23 62z" style="stroke-miterlimit:10;fill:#fff;stroke:#000"/><path d="M34.93 64.01c-9.58 0-17.39 7.76-17.39 17.28s7.81 17.29 17.39 17.29 17.4-7.76 17.4-17.29-7.81-17.28-17.4-17.28Zm0 32.5c-8.46 0-15.32-6.81-15.32-15.22s6.86-15.22 15.32-15.22 15.33 6.82 15.33 15.22-6.86 15.22-15.33 15.22Z" class="cls-7"/><path d="m32.8 59.13 2.13 4.88 2.54-4.88" class="cls-3"/><circle cx="64.25" cy="24.83" r="19.93" style="fill:#fff;stroke-width:2px;stroke-linecap:round;stroke-linejoin:round;stroke:#000"/><path d="M64.27 16.52h.26c1.04 0 1.89.85 1.89 1.89v11.98h-4.04V18.41c0-1.04.85-1.89 1.89-1.89Z" style="fill:#e9cb61;stroke-linecap:round;stroke-linejoin:round;stroke:#000"/><path d="M64.4 16.52V14.5M51.4 18.65h26.23" class="cls-3"/><path d="M57.86 26.86a4.1 4.1 0 1 1-8.2 0h8.21Z" class="cls-1"/><path d="m49.65 26.86 4.26-8.21 3.95 8.21" class="cls-3"/><path d="M78.85 26.86a4.1 4.1 0 1 1-8.2 0h8.21Z" class="cls-1"/><path d="m70.64 26.86 4.26-8.21 3.95 8.21" class="cls-3"/><path d="M61.11 30.38h6.62v2.78h-6.62zM55.98 33.33H71.8v2.78H55.98z" class="cls-1"/><path d="M62.96 13.55h2.91v.96h-2.91z"/><path d="M-762.26-80.55H704.18V918.5H-762.26z" style="stroke:#fff;stroke-width:8px;fill:none;stroke-linecap:round;stroke-linejoin:round"/></svg>