<svg xmlns="http://www.w3.org/2000/svg" id="Calque_1" data-name="Calque 1" viewBox="0 0 128 128.13"><defs><style>.cls-1,.cls-2,.cls-3,.cls-4,.cls-5{stroke:#000;stroke-linejoin:round}.cls-1,.cls-2,.cls-5{fill:none}.cls-1,.cls-3,.cls-4,.cls-5{stroke-linecap:round}.cls-3{fill:#f387d5}.cls-3,.cls-4,.cls-5{stroke-width:2px}.cls-4{fill:#fff}</style></defs><path d="M57.57 57.91a47.9 47.9 0 0 0-.65-2.03c-1.09-3.19-2.48-6.29-4.35-9.1-2.41-3.63-5.59-5.88-8.74-8.75l-.95-5.86H26.22l-.93 5.85c-5.98 5.43-10.47 10.25-13.09 17.85-.24.66-.46 1.34-.67 2.04v49.47c0 4.73 10.31 8.56 23.02 8.56s23.03-3.83 23.03-8.56V57.91Zm-5.01 47.54c-1.63.76-3.59 1.42-5.81 1.93-3.54.82-7.72 1.3-12.2 1.3s-8.66-.48-12.19-1.3c-2.37-.55-4.46-1.26-6.14-2.08V65.82c4.2 1.49 10.85 2.44 18.33 2.44s13.79-.9 18.01-2.32v39.51Z" class="cls-5"/><path d="M52.72 65.94v39.51c-1.63.76-3.59 1.42-5.81 1.93-3.54.82-7.72 1.3-12.2 1.3s-8.66-.48-12.19-1.3c-2.37-.55-4.46-1.26-6.14-2.08V65.82c4.2 1.49 10.85 2.44 18.33 2.44s13.79-.9 18.01-2.32ZM23.79 9.91h21.53c1.89 0 3.43 1.54 3.43 3.43v18.83H20.36V13.34c0-1.89 1.54-3.43 3.43-3.43Z" class="cls-3"/><path d="M23.04 9.91v15.08M25.35 9.91v15.08M27.66 9.91v15.08M29.97 9.91v15.08M32.28 9.91v15.08M34.59 9.91v15.08M36.9 9.91v15.08M39.21 9.91v15.08M41.52 9.91v15.08M43.83 9.91v15.08M46.14 9.91v15.08" class="cls-2"/><path d="M29.31 81.02c1-.15 2.2-.26 3.51-.26 2.37 0 4.06.55 5.18 1.59 1.14 1.04 1.8 2.52 1.8 4.59s-.65 3.79-1.84 4.97c-1.2 1.2-3.17 1.84-5.65 1.84-1.18 0-2.16-.06-3-.15V81.03Zm1.65 11.3c.42.08 1.02.1 1.67.1 3.53 0 5.44-1.97 5.44-5.42.02-3.01-1.69-4.93-5.18-4.93-.85 0-1.5.08-1.93.17v10.09Z"/><path d="M63.73 64.12h6.71v67.91h-6.71z" style="fill:#f387d5" transform="rotate(49.01 67.087 98.086)"/><path d="m106.838 59.331 4.723 5.527-67.91 58.021-4.722-5.527z" class="cls-5"/><path d="m46.86 111.12-3.21 2.71c-1.04.89-.94 2.71.22 4.07h0c1.16 1.36 2.95 1.74 3.99.85l3.21-2.71" class="cls-1"/><path d="m113.033 55.39 3.385 3.962-5.528 4.722-3.384-3.961zM112.931 51.621l7.184 8.41-1.802 1.539-7.184-8.409z" class="cls-4"/><path d="m114.89 68.75-11.38-13.32" class="cls-5"/><path d="m105.35 66.72-3.23-3.77M101.28 68.15l-2.21-2.55M97.81 71.16l-2.21-2.54M94.37 74.15l-2.21-2.55M88.08 79.63l-2.22-2.55M84.61 82.64l-2.21-2.55M81.17 85.62l-2.21-2.54M74.87 91.1l-2.21-2.55M71.41 94.11l-2.22-2.55M67.97 97.1l-2.22-2.55M61.67 102.57l-2.22-2.55M58.2 105.58l-2.21-2.55M54.76 108.57l-2.21-2.55M92.21 78.13l-3.22-3.77M79.08 89.54l-3.22-3.77M65.95 100.95l-3.22-3.77M52.82 112.36l-3.23-3.77" class="cls-1"/></svg>