<svg xmlns="http://www.w3.org/2000/svg" id="Calque_1" viewBox="0 0 128 128"><defs><style>.cls-1,.cls-2,.cls-3,.cls-4{stroke:#000;stroke-linecap:round;stroke-linejoin:round}.cls-1,.cls-3,.cls-4{fill:none}.cls-2{fill:#bfe6fc}.cls-2,.cls-3{stroke-width:2px}.cls-4{stroke-dasharray:0 0 5.45 5.45}</style></defs><path d="M83.27 27.59c0-4.88-5.12-8.84-11.45-8.84-6.33 0-11.46 3.96-11.46 8.84h22.9Z" class="cls-2"/><path d="M72.37 59.65v-4" class="cls-1"/><path d="M72.37 50.21v-8.18" class="cls-4"/><path d="M72.37 39.31v-4M62.49 59.65v-4" class="cls-1"/><path d="M62.49 50.21v-8.18" class="cls-4"/><path d="M62.49 39.31v-4M81.6 59.65v-4" class="cls-1"/><path d="M81.6 50.21v-8.18" class="cls-4"/><path d="M81.6 39.31v-4M76.99 65.99v-4" class="cls-1"/><path d="M76.99 56.54v-8.17" class="cls-4"/><path d="M76.99 45.65v-4M67.57 65.99v-4" class="cls-1"/><path d="M67.57 56.54v-8.17" class="cls-4"/><path d="M67.57 45.65v-4M72.37 89.33v-4" class="cls-1"/><path d="M72.37 79.88v-8.17" class="cls-4"/><path d="M72.37 68.99v-4M62.49 89.33v-4" class="cls-1"/><path d="M62.49 79.88v-8.17" class="cls-4"/><path d="M62.49 68.99v-4M81.6 89.33v-4" class="cls-1"/><path d="M81.6 79.88v-8.17" class="cls-4"/><path d="M81.6 68.99v-4M76.99 95.67v-4" class="cls-1"/><path d="M76.99 86.22v-8.17" class="cls-4"/><path d="M76.99 75.32v-4M67.57 95.67v-4" class="cls-1"/><path d="M67.57 86.22v-8.17" class="cls-4"/><path d="M67.57 75.32v-4" class="cls-1"/><path d="M33.38 114.25V14.16M71.82 14.16v3.81M71.82 14.16c0-5.27-4.32-9.59-9.59-9.59H42.97c-2.63 0-5.03 1.08-6.77 2.82s-2.82 4.13-2.82 6.77" class="cls-3"/><path d="M33.38 114.25H98.8v7.03H33.38zM33.38 110.71H96.6v3.53H33.38z" class="cls-2"/><path d="M60.37 31.06h22.9" class="cls-3"/><path d="M33.38 62.08h6.4v3.04h-6.4z" class="cls-2"/><path d="M33.38 62.08h6.4v3.04h-6.4zM39.78 69.56V57.64h3.04v11.92z" class="cls-2"/></svg>