<svg xmlns="http://www.w3.org/2000/svg" id="Calque_1" data-name="Calque 1" viewBox="0 0 128 128"><defs><style>.cls-1,.cls-2{fill:#ff6d75;stroke:#000;stroke-linecap:round;stroke-linejoin:round}.cls-2{stroke-width:2px;fill:none}</style></defs><path d="M88.31 59.52c1.08-11.3-4.75-21.16-13.23-23.99-8.16-2.73-15.71 2.09-16.62 2.69-8.13 5.37-9.4 14.84-9.83 18.03-1.37 10.23 3.03 17.89 9.36 28.91.56.97 3.85 6.57 10.07 11.35 3.3 2.54 5.09 3.05 6.67 3.04 3.88 0 7.06-2.65 8.86-4.59 2.47-2.66 3.5-6.02 4.25-8.41" class="cls-2"/><path d="M60.16 81.11c-3.05-4.5-6.58-11.36-7.28-20.07-.36-4.4-.64-8.64 1.82-12.98 2.65-4.68 7.91-8.46 14.03-8.62 1.36-.04 7.65-.2 11.46 4.58 4.24 5.32 3.4 14.26-1.82 18.98-4.57 4.13-10.58 3.31-11.56 3.16" class="cls-2"/><path d="M82.89 52.53c-3.05 7.74-8.25 7.48-10.26 7.86-3.24.6-4.69-.15-7.75.98-1.6.59-4.32 1.59-5.56 4.25-1.35 2.88-.29 6.25 1.31 8.29 2.02 2.58 5.02 3.15 5.67 3.27 2.57.49 4.14-.41 6.2.25 1.31.42 2.32 2.04 4.17 3.89 1.76 1.76 2.72 2.01 3.82 2.07.22.01 2.19.1 3.16-1.2 1.07-1.43.25-3.65-.22-4.91-.69-1.85-1.38-2.1-1.64-3.49-.29-1.58.27-3 .76-3.93" class="cls-2"/><path d="m25.29 28.45-5.74 3.74 8.53 6.83-5.33 3.48 18.31 10.17-8.59-9.96 5.64-3.91-12.82-10.35zM38.62 89.29l12.05-4.32-12.62-.4.57 4.72zM45.52 93.17l5.22 2.02 2.52-6.52-7.74 4.5z" class="cls-1"/><path d="M-2351.19-4696.12h6467.34v6437.3h-6467.34z" style="stroke:#fff;stroke-width:8px;fill:none;stroke-linecap:round;stroke-linejoin:round"/></svg>