<svg xmlns="http://www.w3.org/2000/svg" id="Calque_1" data-name="Calque 1" viewBox="0 0 128 128"><defs><style>.cls-1{fill:#ff6d75;stroke:#000;stroke-linecap:round;stroke-linejoin:round}.cls-5{fill:#b2f0e9}</style></defs><path d="M63.42 55.06h-.01s0 0 0 0 0 0 0 0-2.56-1.3-5.81-2.02c-.71-.15-1.45-.28-2.19-.37-16.77-1.91-23.45 14.23-13.26 30.94 0 0-1.67 29.75 8.65 30.94 1.26.15 2.15-.09 2.77-.63 4.46-3.73-4.92-22.28 9.79-22.14 11.85.11 10.25 9.88 10.25 16.6 0 2.47.22 4.51 1.39 5.53.58.48 1.36.74 2.47.67 9.6-.63 7.58-30.75 7.58-30.75s2.23-5.42 3.27-11.79c1.5-9.16.59-20.28-12.74-20.2 0 0-5-.59-12.16 3.22 0 0 7.37 4.8 12.27 3.85" style="stroke-width:2px;fill:#fff;stroke-linecap:round;stroke-linejoin:round;stroke:#000"/><path d="M53.57 113.91c-.61.54-1.5.78-2.77.63-10.33-1.19-8.65-30.94-8.65-30.94-10.2-16.71-3.51-32.85 13.26-30.94.74.09 1.49.22 2.19.37 0 0-18.25 7.13-7.35 29.1 0 0-6.63 12.03 3.32 31.77ZM85.05 83.83s2.02 30.12-7.58 30.75c-1.11.07-1.89-.19-2.47-.67 4.74-6.18 5.83-12.15 5.42-17.07-.61-7.52-4.74-12.67-4.74-12.67 5.2-1.06 12.18-11.46 12.61-12.11l.02-.04c-1.04 6.37-3.27 11.79-3.27 11.79Z" class="cls-5"/><path d="M63.42 55.06h-.01s0 0 0 0 0 0 0 0-2.56-1.3-5.81-2.02c-.71-.15-1.45-.28-2.19-.37-16.77-1.91-23.45 14.23-13.26 30.94 0 0-1.67 29.75 8.65 30.94 1.26.15 2.15-.09 2.77-.63 4.46-3.73-4.92-22.28 9.79-22.14 11.85.11 10.25 9.88 10.25 16.6 0 2.47.22 4.51 1.39 5.53.58.48 1.36.74 2.47.67 9.6-.63 7.58-30.75 7.58-30.75s2.23-5.42 3.27-11.79c1.5-9.16.59-20.28-12.74-20.2 0 0-5-.59-12.16 3.22 0 0 7.37 4.8 12.27 3.85" style="fill:none;stroke-width:2px;stroke-linecap:round;stroke-linejoin:round;stroke:#000"/><path d="M65.03 13.41h6.86l-3.43 10.38h6.37l-9.8 18.54 1.76-13.05-6.86-.19 5.1-15.68zM26.94 42.12l8.39 9.68-4.19-11.91-4.2 2.23zM25.83 49.95v5.6h6.99l-6.99-5.6zM101.06 47.16l-8.39 9.67 4.19-11.91 4.2 2.24zM102.17 54.99v5.59h-6.99l6.99-5.59z" class="cls-1"/><path d="M-2505.18-4696.12h6467.34v6437.3h-6467.34z" style="stroke:#fff;stroke-width:8px;fill:none;stroke-linecap:round;stroke-linejoin:round"/></svg>