<svg xmlns="http://www.w3.org/2000/svg" id="Calque_1" data-name="Calque 1" viewBox="0 0 128 128"><defs><style>.cls-1,.cls-3{fill:#ff6d75;stroke:#000;stroke-linecap:round;stroke-linejoin:round}.cls-3{stroke-width:2px;fill:none}</style></defs><path d="M72.66 67.01c0 4.09-.79 8-2.21 11.59-.84 2.11-1.9 4.09-3.15 5.94a30.67 30.67 0 0 1-4.06 4.88L23.31 66.8s17.4-2.71 33.7-12.78c3.34-2.06 6.35-4.19 9.04-6.27a31.9 31.9 0 0 1 2.72 4.12 31.298 31.298 0 0 1 3.88 15.15Z" class="cls-3"/><path d="M72.66 67.01c0 4.09-.79 8-2.21 11.59-.84 2.11-1.9 4.09-3.15 5.94-5.22-3-8.78-9.03-8.78-15.96 0-7.56 4.24-14.04 10.26-16.71a31.298 31.298 0 0 1 3.88 15.15Z" style="stroke-width:2px;fill:#bfe6fc;stroke:#000;stroke-linecap:round;stroke-linejoin:round"/><path d="m79.13 98.42-15.88-9L23.32 66.8s17.4-2.71 33.7-12.78c3.34-2.06 6.35-4.19 9.04-6.27 11.1-8.63 9.42-16.52 9.42-16.52" class="cls-3"/><path d="M71.83 67.43c0 2.82-.55 5.51-1.52 7.99-2.32-1.25-3.92-3.87-3.92-6.91 0-3.31 1.9-6.12 4.57-7.2.57 1.94.87 3.99.87 6.12Z" style="stroke-width:2px;stroke:#000;stroke-linecap:round;stroke-linejoin:round"/><path d="M56.16 54.29c1.63-1.47 5.11-4.11 7-8.44 2.06-4.72 2.54-9.11 2.44-11.34M46.07 59.63c1.45-1.19 3.84-3.49 5.62-7.11 1.94-3.96 2.19-7.56 2.19-9.48" class="cls-3"/><path d="m103.54 40.67 4.93 4.77-9.68 5.09 4.58 4.42-19.93 6.53 10.34-8.16-4.8-4.91 14.56-7.74zM90.08 76.62l-12.81-.37 11.88-4.29.93 4.66zM84.72 82.44l-4.33 3.54-4.42-5.41 8.75 1.87z" class="cls-1"/></svg>