<svg xmlns="http://www.w3.org/2000/svg" id="Calque_1" data-name="Calque 1" viewBox="0 0 128 128"><defs><style>.cls-2,.cls-3,.cls-5,.cls-6,.cls-7{stroke:#000}.cls-3,.cls-5{stroke-linecap:round}.cls-2{fill:#76ac75}.cls-2,.cls-3,.cls-5,.cls-6,.cls-7{stroke-miterlimit:10}.cls-2,.cls-5,.cls-6{stroke-width:2px}.cls-3,.cls-5,.cls-6,.cls-7{fill:none}</style></defs><path d="M75.97 61.33c-9.21 2.11-19.21 4.38-19.78 4.38-1.05 0-1.73-.5-1.73-.5.76-4.61-1.37-6.07-1.37-6.07s-.13-1.17.55-1.7c.36-.28 11.03-2.57 20.57-4.59l1.76 8.48Z" class="cls-2"/><path d="M128.23 58.95c-1-4.11-8.46-18-10.29-19.39-2.84-2.17-5.72.08-5.21 3.59M114.52 51.91c.73 3.67 1.68 8.96 1.81 10.11.3 2.51-3.31 4.81-3.91 4.51-.6-.3-15.11-11.73-15.11-11.73" class="cls-6"/><path d="m41.19 65.03-20.15 4.61" class="cls-7"/><path d="M43.89 65.31c-1.53.02-2.87-.02-2.92-.24h-.02c-.04-.22 1.08-.77 2.43-1.36l.51 1.6ZM91.46 57.74s-.36.09-1 .23c-.23.06-.5.12-.8.19-1.96.46-5.35 1.24-9.24 2.14-1.43.33-2.93.68-4.45 1.03l-1.76-8.48c2.15-.46 3.94-.86 5.88-1.27 3.2-.67 5.95-1.25 7.7-1.61.71-.15 1.26-.27 1.61-.34l.41-.08s3.16 2.4 1.65 8.19Z" class="cls-6"/><path d="M114.14 49.91c-.05.47-.15.97-.31 1.51l-1.24.29-20.77 4.56c-.02-.27.1-.61-.08-.84-1.14-1.5-1.4-5.07-1.4-5.07l21-4.35 1.19-.26s.42.06.84.76c.5.82.99 1.57.77 3.4ZM82.26 42.97c1.34-.97 3.61.57 4.47 1.68 0 0 .92 2.18.08 5.46 0 .08-2.17.38-2.16.47-1.75.36-3.29.56-6.16 1.17-1.02-1.64-.89-5.21-.24-5.67.71-.5 2.51-2.01 4.01-3.11M89.87 75.35c-.6 2.01-2.91 2.71-5.71 2.01-2.81-.7-7.12-.9-8.23-1-1.1-.1-2.5-1.81-2.2-4.82.3-3 2.3-3.91 3.41-4.31 1.1-.4 3.01-.2 4.61.3l.15.03c1.76 1.21 4.13 2.35 6.31 2.4 1.9 1.33 2.23 3.5 1.66 5.39Z" class="cls-6"/><path d="M75.93 76.36c-1.91.3-4.91 2.31-5.41 4.71-.5 2.41 3.41 11.93 3.71 12.33s6.22 6.82 10.93 10.53c4.71 3.71 15.44 9.42 21.76 10.43 6.32 1 22.16 1.5 22.16 1.5" class="cls-6"/><path d="M88.46 77.19s.9 2.63-1.65 3.76-7.14 1.28-7.14 1.28 2.33 3.38-.3 6.32M97.11 67.86S92.9 83.5 80.94 94.63M101.85 69.12s-5.26 5.79-5.79 17.97M105.23 71.47s-1.5 12.78.75 18.72c2.26 5.94 4.81 7.67 4.81 7.67M-2.37 1.94s19.4 8.12 22.78 38.8c0 0 19.85 33.16 23.91 52.56" class="cls-5"/><path d="M42.88 87.65s13.6 12.68 17.68 18.52c5.69 8.14 12.18 21.43 12.18 21.43M-4.4 66.69s11.73 24.14 33.61 35.64" class="cls-5"/><path d="M20.66 97.11s8.47 22.07 14.79 30.86" class="cls-5"/><path d="m63.47 59.56.42 4.18M67.93 58.9l.42 4.19M59.01 60.4l.43 4.19M59.63 27.5l6.78-2.23s.28-2.29 1.68-2.91 2.18.59 2.18 1.23-.45 1.32-1.32 1.59c0 0 1.77-.54 2.09.95s-1.86 2.59-4.18 1.59l-6.44 1.97M56.35 34.98l9.42 3.35s.22 2.44 1.68 2.91c1.53.49 2.18-.59 2.18-1.23s-.45-1.32-1.32-1.59c0 0 1.77.54 2.09-.95.32-1.5-1.86-2.59-4.18-1.59l-9.83-3.53M43.63 27.5l-6.78-2.23s-.28-2.29-1.68-2.91c-1.46-.65-2.18.59-2.18 1.23s.45 1.32 1.32 1.59c0 0-1.77-.54-2.09.95-.32 1.5 1.86 2.59 4.18 1.59l6.44 1.97M46.91 34.98l-9.42 3.35s-.22 2.44-1.68 2.91-2.18-.59-2.18-1.23.45-1.32 1.32-1.59c0 0-1.77.54-2.09-.95s1.86-2.59 4.18-1.59l9.83-3.53" class="cls-7"/><path d="M47.04 36.62h9.29v-4.56c0-.59.48-1.07 1.07-1.07h2.16c.51 0 .93-.42.93-.93v-.04c0-.35-.2-.67-.51-.83-.29-.15-.5-.42-.57-.75-.06-.32.03-.66.24-.91 1.65-1.89 2.56-4.32 2.56-6.84v-.23c0-2.78-1.08-5.39-3.05-7.36a10.332 10.332 0 0 0-7.36-3.05h-.23c-2.78 0-5.39 1.08-7.36 3.05s-3.05 4.58-3.05 7.36v.23c0 2.51.91 4.94 2.56 6.84.22.25.31.58.24.91-.06.32-.27.6-.57.75a.92.92 0 0 0-.51.83v.04c0 .51.42.93.93.93h2.16c.59 0 1.07.48 1.07 1.07v4.56Z" class="cls-7"/><path d="M48.67 34.96v1.53M50.71 34.96v1.53M52.75 34.96v1.53M54.79 34.96v1.53" class="cls-3"/><path d="M51.86 26.55c-1.67 0-3.03 1.36-3.03 3.03a1.567 1.567 0 0 0 3.03.57c.23.58.8 1 1.46 1 .86 0 1.57-.7 1.57-1.57 0-1.67-1.36-3.03-3.03-3.03ZM50.13 22.91c0-1.45-1.17-2.62-2.62-2.62s-2.62 1.17-2.62 2.62 1.17 2.62 2.62 2.62 2.62-1.17 2.62-2.62ZM55.86 20.28c-1.45 0-2.62 1.17-2.62 2.62s1.18 2.62 2.62 2.62 2.62-1.17 2.62-2.62-1.17-2.62-2.62-2.62Z"/><path d="M90.27 69.64c-.65.24-1.34.35-2.06.32-2.18-.05-4.55-1.19-6.31-2.4-1.14-.77-2.03-1.57-2.46-2.13-1.04-1.36-.93-2.61-.43-4 3.89-.89 7.27-1.68 9.24-2.14.62 1.7 1.56 3.67 2.88 4.9 0 0 3.43 3.89-.86 5.46Z" class="cls-6"/><path d="M81.64 43.63s.54 2.04-.19 4.97" class="cls-7"/><path d="M54.46 65.21s-3.11.57-3.56.56c-.44 0-2.02-.77-2.43-.68-.23.05-2.58.2-4.58.22l-.51-1.6c1.9-.82 4.25-1.7 4.49-1.76.4-.1 1.21-1.5 1.61-1.7.4-.2 3.61-1.11 3.61-1.11s2.13 1.46 1.37 6.07Z" class="cls-2"/><path d="M87.65 42.4 93 64.37" style="stroke-linejoin:round;stroke-linecap:round;stroke:#000;stroke-width:5px"/><path d="m111.66 40.14 4.07 17.01" style="stroke-width:3px;stroke-linejoin:round;stroke-linecap:round;stroke:#000"/><path d="M-742.9-4971.2h6467.34v6437.3H-742.9z" style="stroke:#fff;stroke-width:8px;fill:none;stroke-linejoin:round;stroke-linecap:round"/></svg>