<svg xmlns="http://www.w3.org/2000/svg" id="Calque_1" data-name="Calque 1" viewBox="0 0 128 128.13"><defs><style>.cls-1,.cls-2,.cls-4{stroke:#000;stroke-linejoin:round;fill:none}.cls-1,.cls-4{stroke-linecap:round}.cls-4{stroke-width:2px}</style></defs><path d="m79.33 109.48-.13 2.78v6.91c0 1.1-.89 1.99-1.99 1.99h-4.55a3.35 3.35 0 0 0-6.7 0h-6.47a3.35 3.35 0 0 0-6.7 0h-4.56c-1.1 0-1.99-.89-1.99-1.99v-6.91l-.13-2.86a183.1 183.1 0 0 1-.17-7.77c0-9.59.77-19.17 2.3-28.65l-1-16.74c-.68-3.13-1.01-6.31-1.01-9.49s.3-6.04.91-9.01l.1-.48-.64-3.92c-.26-1.62-.02-3.27.69-4.74.24-.49.49-.98.75-1.46h29.38c.24.46.48.93.71 1.4l.03.06c.71 1.47.95 3.13.69 4.74l-.64 3.92h-.01l.1.48c1.26 6.1 1.22 12.4-.1 18.5l-1 16.74.02.09c1.93 12.03 2.64 24.23 2.11 36.41Z" style="fill:#bfe6fc"/><path d="m78.85 33.34-.64 3.92H47.24l-.64-3.92c-.26-1.61-.02-3.27.69-4.74h0a34.79 34.79 0 0 1 3.74-6.09 35.66 35.66 0 0 1 3.57-4c.05-.05.11-.1.16-.15a4.57 4.57 0 0 0 1.33-3.23v-.12l.13-1.74h13.03l.13 1.86c0 .12 0 .25.02.37v.13c.12 1.05.58 1.98 1.28 2.69.08.09.17.17.26.24 2.96 2.88 5.4 6.26 7.2 9.98l.03.06c.71 1.47.95 3.13.69 4.74Z" class="cls-4"/><path d="M78.2 56.24H47.24a44.872 44.872 0 0 1-.1-18.5l.1-.48H78.2l.1.48a44.702 44.702 0 0 1-.1 18.5h0Z" style="stroke-width:2px;fill:#fff;stroke-linecap:round;stroke:#000;stroke-linejoin:round"/><path d="M77.2 72.98H48.24l-1-16.74H78.2l-1 16.74zM79.33 109.48l-.13 2.78v6.91c0 1.1-.89 1.99-1.99 1.99h-4.55a3.35 3.35 0 0 0-6.7 0h-6.47a3.35 3.35 0 0 0-6.7 0h-4.56c-1.1 0-1.99-.89-1.99-1.99v-6.91l-.13-2.86a183.1 183.1 0 0 1-.17-7.77c0-9.59.77-19.17 2.3-28.65H77.2l.02.09c1.93 12.03 2.64 24.23 2.11 36.41ZM54.68 13.27h16.08M56.2 6.96h13.14v6.31H56.2z" class="cls-4"/><path d="M58.58 6.96v6.56M60.7 6.96v6.56M62.81 6.96v6.56M64.93 6.96v6.56M67.04 6.96v6.56" class="cls-2"/><path d="M47.02 83.97h18.45M70.27 83.97h8.36M63.75 100.33h14.88M47.02 92.62h16.26M47.02 100.33h11.59M74.8 92.62h3.83M67.13 92.62h3.82" class="cls-1"/><path d="M63.28 52.78c2.41 0 4.36-1.95 4.36-4.36s-4.36-7.7-4.36-7.7-4.36 5.29-4.36 7.7 1.95 4.36 4.36 4.36Z" style="fill:#87ccf3"/></svg>