<svg xmlns="http://www.w3.org/2000/svg" id="Calque_1" data-name="Calque 1" viewBox="0 0 308.07 128"><defs><style>.cls-1{fill:#baa584}.cls-1,.cls-2,.cls-3,.cls-4,.cls-5,.cls-6,.cls-8{stroke:#000}.cls-1,.cls-2,.cls-3,.cls-4,.cls-6{stroke-linecap:round;stroke-linejoin:round}.cls-2{fill:#a07637}.cls-3{fill:#ff6d75}.cls-4{fill:none}.cls-5,.cls-8{stroke-miterlimit:10}.cls-10{fill:#87f3b9}.cls-6{fill:#fff}.cls-6,.cls-8{stroke-width:2px}</style></defs><path d="M49.22 98.93c-.14 0-.29-.03-.42-.09a.999.999 0 0 1-.55-.67l-8.77-36.15c-.11-.45.11-.92.52-1.13 9.07-4.6 19.24-7.07 29.41-7.14.46 0 .86.32.97.76l8.77 36.15c.07.3 0 .61-.18.85a1 1 0 0 1-.78.38c-9.86.07-19.72 2.46-28.52 6.92-.14.07-.3.11-.45.11Z" class="cls-10"/><path d="m69.42 54.76 8.77 36.15a65.279 65.279 0 0 0-28.97 7.03l-8.77-36.15a65.246 65.246 0 0 1 28.97-7.03m0-2h-.01a67.397 67.397 0 0 0-29.86 7.25c-.83.42-1.26 1.35-1.04 2.26l8.77 36.15c.14.59.55 1.09 1.11 1.34.27.12.55.18.84.18.31 0 .62-.07.9-.22a63.43 63.43 0 0 1 28.08-6.81c.61 0 1.19-.29 1.56-.77s.51-1.11.37-1.7l-8.77-36.15c-.22-.9-1.02-1.53-1.94-1.53Z"/><path d="M20.26 105.96c-.14 0-.29-.03-.42-.09a.999.999 0 0 1-.55-.67l-8.77-36.15c-.11-.45.11-.92.52-1.13 9.07-4.6 19.24-7.07 29.41-7.14.46 0 .86.32.97.76l8.77 36.15c.07.3 0 .61-.18.85a1 1 0 0 1-.78.38c-9.86.07-19.72 2.46-28.52 6.92-.14.07-.3.11-.45.11Z" class="cls-10"/><path d="m40.45 61.79 8.77 36.15a65.279 65.279 0 0 0-28.97 7.03l-8.77-36.15a65.246 65.246 0 0 1 28.97-7.03m0-2h-.01a67.397 67.397 0 0 0-29.86 7.25c-.83.42-1.26 1.35-1.04 2.26l8.77 36.15c.14.59.55 1.09 1.11 1.34.27.12.55.18.84.18.31 0 .62-.07.9-.22a63.43 63.43 0 0 1 28.08-6.81c.61 0 1.19-.29 1.56-.77s.51-1.11.37-1.7L42.4 61.32c-.22-.9-1.02-1.53-1.94-1.53Z"/><path d="M75.02 88.78h0a54.6 54.6 0 0 0-26.46 6.42h0l-8.77-36.15h0a54.6 54.6 0 0 1 26.46-6.42h0l8.77 36.15Z" class="cls-6"/><path d="M48.56 95.2h0a54.6 54.6 0 0 0-26.46 6.42h0l-8.77-36.15h0a54.6 54.6 0 0 1 26.46-6.42h0l8.77 36.15Z" class="cls-6"/><circle cx="50.47" cy="67.51" r="1.7" class="cls-2" transform="rotate(-54.16 50.474 67.514)"/><circle cx="59.38" cy="64.69" r="1.7" class="cls-2" transform="rotate(-54.16 59.38 64.69)"/><path d="M53.59 72.83s-3.85 2.91-3.38 4.8c.46 1.89 1.2 1.93 1.2 1.93l2.78-.88-.59-5.84ZM60.03 70.79s4.82.16 5.53 1.97.13 2.26.13 2.26l-2.78.88-2.88-5.12ZM55.02 84.26l2.74-2.09-2.96-1.53.22 3.62zM65.69 80.88l-3.44-.13 1.54-2.96 1.9 3.09z" class="cls-1"/><path d="M64.15 75.2c-.99-3.12-4.6-5.73-7.73-4.74-3.12.99-4.58 5.2-3.59 8.32.99 3.12 4.05 3.98 7.17 2.99 3.12-.99 5.13-3.45 4.14-6.58Z" class="cls-1"/><path d="M61.8 75.57c-.6-1.88-2.78-3.45-4.66-2.86-1.88.6-2.76 3.14-2.16 5.02.6 1.88 2.44 2.4 4.33 1.81 1.88-.6 3.1-2.08 2.5-3.97Z" class="cls-2"/><rect width="3.62" height="5.83" x="51.6" y="78.91" class="cls-1" rx="1.27" ry="1.27" transform="rotate(-33.53 53.43 81.83)"/><rect width="3.62" height="5.83" x="63.59" y="75.11" class="cls-1" rx="1.27" ry="1.27" transform="rotate(178.37 65.399 78.026)"/><path d="M61.17 68.03s.86 4.33-3.51 5.62c-.11.03-.21.06-.31.07-.09.04-.19.08-.3.12-4.31 1.45-6.1-2.58-6.1-2.58s-.47-.91.17-3.69 3.23-3.33 3.23-3.33 2.43-1.04 4.56.87c2.12 1.9 2.27 2.92 2.27 2.92Z" class="cls-1"/><circle cx="52.8" cy="69.24" r=".5" transform="rotate(-54.16 52.812 69.24)"/><circle cx="58.46" cy="67.44" r=".5" transform="rotate(-54.16 58.467 67.443)"/><ellipse cx="55.9" cy="69.17" rx="1.35" ry=".65" transform="rotate(-17.58 55.919 69.169)"/><path d="m32.24 72.81.81 1.65c.21.43.62.72 1.09.79l1.82.26c1.19.17 1.66 1.63.8 2.47l-1.32 1.29c-.34.33-.5.81-.42 1.28l.31 1.81c.2 1.18-1.04 2.08-2.1 1.52l-1.63-.86c-.42-.22-.92-.22-1.35 0l-1.63.86c-1.06.56-2.3-.34-2.1-1.52l.31-1.81c.08-.47-.08-.95-.42-1.28l-1.32-1.29c-.86-.84-.38-2.29.8-2.47l1.82-.26c.47-.07.88-.36 1.09-.79l.81-1.65c.53-1.07 2.06-1.07 2.59 0Z" style="fill:#f3d587;stroke-width:2px;stroke-linecap:round;stroke-linejoin:round;stroke:#000"/><path d="M145.96 98.93c-.14 0-.29-.03-.42-.09a.999.999 0 0 1-.55-.67l-8.77-36.15c-.11-.45.11-.92.52-1.13 9.07-4.6 19.24-7.07 29.41-7.14.46 0 .86.32.97.76l8.77 36.15c.07.3 0 .61-.18.85a1 1 0 0 1-.78.38c-9.86.07-19.72 2.46-28.52 6.92-.14.07-.3.11-.45.11Z" class="cls-10"/><path d="m166.15 54.76 8.77 36.15a65.279 65.279 0 0 0-28.97 7.03l-8.77-36.15a65.246 65.246 0 0 1 28.97-7.03m0-2h-.01a67.397 67.397 0 0 0-29.86 7.25c-.83.42-1.26 1.35-1.04 2.26l8.77 36.15c.14.59.55 1.09 1.11 1.34.27.12.55.18.84.18.31 0 .62-.07.9-.22a63.43 63.43 0 0 1 28.08-6.81c.61 0 1.19-.29 1.56-.77s.51-1.11.37-1.7l-8.77-36.15c-.22-.9-1.02-1.53-1.94-1.53Z"/><path d="M116.99 105.96c-.14 0-.29-.03-.42-.09a.999.999 0 0 1-.55-.67l-8.77-36.15c-.11-.45.11-.92.52-1.13 9.07-4.6 19.24-7.07 29.41-7.14.46 0 .86.32.97.76l8.77 36.15c.07.3 0 .61-.18.85a1 1 0 0 1-.78.38c-9.86.07-19.72 2.46-28.52 6.92-.14.07-.3.11-.45.11Z" class="cls-10"/><path d="m137.18 61.79 8.77 36.15a65.279 65.279 0 0 0-28.97 7.03l-8.77-36.15a65.246 65.246 0 0 1 28.97-7.03m0-2h-.01a67.397 67.397 0 0 0-29.86 7.25c-.83.42-1.26 1.35-1.04 2.26l8.77 36.15c.14.59.55 1.09 1.11 1.34.27.12.55.18.84.18.31 0 .62-.07.9-.22a63.43 63.43 0 0 1 28.08-6.81c.61 0 1.19-.29 1.56-.77s.51-1.11.37-1.7l-8.77-36.15c-.22-.9-1.02-1.53-1.94-1.53Z"/><path d="M171.75 88.78h0a54.6 54.6 0 0 0-26.46 6.42h0l-8.77-36.15h0a54.6 54.6 0 0 1 26.46-6.42h0l8.77 36.15Z" class="cls-6"/><path d="M145.29 95.2h0a54.6 54.6 0 0 0-26.46 6.42h0l-8.77-36.15h0a54.6 54.6 0 0 1 26.46-6.42h0l8.77 36.15Z" class="cls-6"/><path d="m120.97 72.05 2.19-.54 9.66 9.4-2.73-11.1 1.76-.43 3.37 13.7-2.08.51-9.76-9.36 2.73 11.09-1.77.44-3.37-13.7ZM160.39 70.96c1.12 4.74-1.17 7.93-4.69 8.76s-6.86-1.36-7.84-5.53 1.01-7.87 4.69-8.74c3.76-.89 6.87 1.42 7.83 5.51Zm-10.63 2.74c.69 2.94 2.91 5.2 5.71 4.54 2.82-.66 3.8-3.64 3.07-6.76-.65-2.74-2.75-5.26-5.71-4.56-2.94.69-3.77 3.76-3.06 6.78Z" class="cls-3"/><path d="M267.74 98.93c-.14 0-.29-.03-.42-.09a.999.999 0 0 1-.55-.67L258 62.02c-.11-.45.11-.92.52-1.13 9.07-4.6 19.24-7.07 29.41-7.14.46 0 .86.32.97.76l8.77 36.15c.07.3 0 .61-.18.85a1 1 0 0 1-.78.38c-9.86.07-19.72 2.46-28.52 6.92-.14.07-.3.11-.45.11Z" class="cls-10"/><path d="m287.93 54.76 8.77 36.15a65.279 65.279 0 0 0-28.97 7.03l-8.77-36.15a65.246 65.246 0 0 1 28.97-7.03m0-2h-.01a67.397 67.397 0 0 0-29.86 7.25c-.83.42-1.26 1.35-1.04 2.26l8.77 36.15c.14.59.55 1.09 1.11 1.34.27.12.55.18.84.18.31 0 .62-.07.9-.22a63.43 63.43 0 0 1 28.08-6.81c.61 0 1.19-.29 1.56-.77s.51-1.11.37-1.7l-8.77-36.15c-.22-.9-1.02-1.53-1.94-1.53Z"/><path d="M238.77 105.96c-.14 0-.29-.03-.42-.09a.999.999 0 0 1-.55-.67l-8.77-36.15c-.11-.45.11-.92.52-1.13 9.07-4.6 19.24-7.07 29.41-7.14.46 0 .86.32.97.76l8.77 36.15c.07.3 0 .61-.18.85a1 1 0 0 1-.78.38c-9.86.07-19.72 2.46-28.52 6.92-.14.07-.3.11-.45.11Z" class="cls-10"/><path d="m258.97 61.79 8.77 36.15a65.279 65.279 0 0 0-28.97 7.03L230 68.82a65.246 65.246 0 0 1 28.97-7.03m0-2h-.01a67.397 67.397 0 0 0-29.86 7.25c-.83.42-1.26 1.35-1.04 2.26l8.77 36.15c.14.59.55 1.09 1.11 1.34.27.12.55.18.84.18.31 0 .62-.07.9-.22a63.43 63.43 0 0 1 28.08-6.81c.61 0 1.19-.29 1.56-.77s.51-1.11.37-1.7l-8.77-36.15c-.22-.9-1.02-1.53-1.94-1.53Z"/><path d="M293.54 88.78h0a54.6 54.6 0 0 0-26.46 6.42h0l-8.77-36.15h0a54.6 54.6 0 0 1 26.46-6.42h0l8.77 36.15ZM267.08 95.2h0a54.6 54.6 0 0 0-26.46 6.42h0l-8.77-36.15h0a54.6 54.6 0 0 1 26.46-6.42h0l8.77 36.15Z" class="cls-6"/><path d="m238.38 72.45 16.43-4.38M239.23 75.65l16.43-4.39M240.93 82.03l16.43-4.38M241.78 85.22l16.44-4.38M242.63 88.41l16.44-4.38M240.08 78.84l9.73-2.6M264.08 65.4l16.53-4M265.64 71.82l16.53-4M266.41 75.03l16.54-4M267.19 78.24l16.53-4M264.86 68.61l9.79-2.37M268.13 82.09l9.79-2.37" class="cls-4"/><path d="M14.82 43.45h244.41" class="cls-5"/><path d="M14.21 39.51v7.88M137.03 39.51v7.88" class="cls-8"/><path d="M38.77 40.28v6.34M63.34 40.28v6.34M87.9 40.28v6.34M112.46 40.28v6.34M161.59 40.28v6.34M186.15 40.28v6.34M210.72 40.28v6.34M235.28 40.28v6.34" class="cls-5"/><path d="M259.85 39.51v7.88" class="cls-8"/><path d="M15.92 31.3c.24.45.36 1.06.36 1.84 0 .74-.11 1.35-.33 1.83-.32.69-.84 1.04-1.56 1.04-.65 0-1.14-.28-1.46-.85-.27-.47-.4-1.11-.4-1.9 0-.62.08-1.15.24-1.59.3-.82.84-1.24 1.62-1.24.7 0 1.21.29 1.52.87Zm-.69 3.62c.21-.31.31-.9.31-1.75 0-.62-.08-1.12-.23-1.52s-.45-.6-.88-.6c-.4 0-.7.19-.88.57s-.28.93-.28 1.67c0 .55.06 1 .18 1.33.18.51.49.77.93.77.35 0 .64-.16.85-.47ZM37.95 32.17v-.52c.49-.05.84-.13 1.03-.24s.34-.38.44-.8h.54v5.41h-.73v-3.84h-1.28ZM86.58 35.48c-.29-.35-.43-.78-.43-1.29h.71c.03.35.1.61.2.77.18.29.5.43.96.43.36 0 .65-.1.86-.29s.33-.44.33-.74c0-.37-.11-.64-.34-.78s-.55-.22-.95-.22h-.28v-.6c.07 0 .13.01.18.02s.1 0 .16 0c.25 0 .47-.04.63-.12.29-.14.43-.39.43-.76 0-.27-.1-.48-.29-.63s-.42-.22-.67-.22c-.45 0-.77.15-.94.45-.1.17-.15.4-.16.71h-.67c0-.4.08-.75.24-1.03.28-.51.77-.76 1.47-.76.55 0 .98.12 1.29.37s.45.6.45 1.07c0 .33-.09.6-.27.81-.11.13-.25.23-.43.3.29.08.51.23.67.45s.24.5.24.82c0 .52-.17.94-.51 1.27s-.83.49-1.45.49-1.11-.18-1.4-.53ZM61.91 34.79c.17-.35.5-.66.98-.94l.73-.42c.33-.19.55-.35.69-.49.21-.21.31-.45.31-.72 0-.32-.09-.57-.28-.75s-.44-.28-.76-.28c-.47 0-.79.18-.97.53-.1.19-.15.45-.16.79h-.69c0-.47.09-.86.26-1.16.3-.53.82-.79 1.57-.79.62 0 1.08.17 1.36.5s.43.71.43 1.12c0 .43-.15.81-.46 1.11-.18.18-.49.4-.95.65l-.52.29a3.6 3.6 0 0 0-.58.39c-.25.22-.41.46-.48.73h2.96v.64h-3.73c.03-.47.12-.87.29-1.22ZM113.04 36.01v-1.33h-2.38v-.67l2.49-3.45h.58v3.52h.8v.6h-.8v1.33h-.68Zm-.01-1.92v-2.46l-1.74 2.46h1.74ZM135.97 34.49c.05.39.23.66.54.81.16.08.35.11.56.11.4 0 .7-.13.9-.39s.29-.54.29-.86c0-.38-.12-.67-.35-.88s-.51-.31-.83-.31c-.24 0-.44.05-.6.14s-.31.22-.43.38l-.59-.03.41-2.92h2.82v.66h-2.31l-.23 1.51c.13-.1.25-.17.36-.22.2-.08.44-.13.7-.13.5 0 .92.16 1.27.48s.52.73.52 1.22-.16.97-.48 1.36-.82.59-1.52.59c-.44 0-.83-.12-1.17-.37s-.53-.63-.57-1.15h.71ZM163.06 30.89c.24.31.36.64.36.97h-.67c-.04-.21-.11-.38-.19-.5-.16-.23-.41-.34-.75-.34-.38 0-.69.18-.91.53s-.35.86-.38 1.51c.16-.23.35-.4.59-.52.22-.1.46-.15.73-.15.45 0 .85.15 1.19.44s.51.72.51 1.3c0 .49-.16.93-.48 1.31s-.78.57-1.37.57c-.51 0-.95-.19-1.32-.58s-.55-1.03-.55-1.95c0-.67.08-1.25.25-1.72.32-.9.89-1.35 1.73-1.35.61 0 1.03.16 1.27.47Zm-.51 4.15c.18-.24.27-.53.27-.85 0-.28-.08-.54-.24-.79s-.45-.38-.87-.38c-.29 0-.55.1-.77.29s-.33.49-.33.88c0 .34.1.63.3.87s.48.35.84.35.63-.12.81-.36ZM188.1 30.67v.6c-.17.17-.41.46-.7.88s-.55.87-.77 1.36c-.22.47-.39.9-.5 1.29-.07.25-.17.65-.28 1.21h-.75c.17-1.04.55-2.07 1.14-3.09.35-.6.71-1.12 1.09-1.56h-3v-.69h3.78ZM209.38 32.68c-.2-.2-.3-.46-.3-.79 0-.4.15-.75.44-1.04s.71-.44 1.25-.44.93.14 1.22.41.44.59.44.96c0 .34-.09.61-.26.82-.1.12-.25.24-.45.35.22.1.4.22.53.36.24.25.36.58.36.99 0 .48-.16.88-.48 1.22s-.77.5-1.36.5c-.53 0-.98-.14-1.34-.43s-.55-.7-.55-1.25c0-.32.08-.6.24-.83s.39-.41.7-.54c-.19-.08-.34-.18-.44-.28Zm2.2 2.46c.21-.17.31-.43.31-.76s-.11-.62-.32-.8-.49-.27-.83-.27-.59.09-.8.28-.31.44-.31.77c0 .28.09.53.28.73s.48.31.87.31c.32 0 .58-.09.79-.26Zm-.12-2.68a.807.807 0 0 0 .01-1.16c-.16-.17-.41-.25-.74-.25s-.57.08-.71.25-.22.37-.22.6c0 .26.09.45.28.6s.41.22.67.22c.3 0 .54-.08.71-.25ZM234.22 34.55c.02.38.17.64.44.78.14.08.3.11.47.11.33 0 .6-.14.83-.41s.39-.82.49-1.66c-.15.24-.34.41-.56.51s-.46.15-.72.15c-.52 0-.94-.16-1.24-.49s-.46-.75-.46-1.26.15-.93.45-1.3.74-.56 1.33-.56c.79 0 1.34.36 1.64 1.07.17.39.25.88.25 1.47 0 .66-.1 1.25-.3 1.77-.33.85-.89 1.28-1.68 1.28-.53 0-.93-.14-1.21-.42s-.41-.63-.41-1.05h.69Zm1.78-1.38c.22-.18.34-.49.34-.93 0-.4-.1-.7-.3-.89s-.46-.29-.77-.29c-.33 0-.6.11-.79.34s-.29.52-.29.9c0 .35.09.64.26.84s.45.31.82.31c.27 0 .52-.09.74-.27ZM256.06 32.02v-.52c.49-.05.84-.13 1.03-.24s.34-.38.44-.8h.54v5.41h-.73v-3.84h-1.28ZM263.26 31.3c.24.45.36 1.06.36 1.84 0 .74-.11 1.35-.33 1.83-.32.69-.84 1.04-1.56 1.04-.65 0-1.14-.28-1.46-.85-.27-.47-.4-1.11-.4-1.9 0-.62.08-1.15.24-1.59.3-.82.84-1.24 1.62-1.24.7 0 1.21.29 1.52.87Zm-.69 3.62c.21-.31.31-.9.31-1.75 0-.62-.08-1.12-.23-1.52s-.45-.6-.88-.6c-.4 0-.7.19-.88.57s-.28.93-.28 1.67c0 .55.06 1 .18 1.33.18.51.49.77.93.77.35 0 .64-.16.85-.47Z"/><path d="M-4777.28-3043.9h6467.34v6437.3h-6467.34z" style="stroke:#fff;stroke-width:8px;fill:none;stroke-linecap:round;stroke-linejoin:round"/></svg>