<svg xmlns="http://www.w3.org/2000/svg" id="Calque_1" data-name="Calque 1" viewBox="0 0 200.13 128.13"><defs><style>.cls-1{fill:#d6d6d6}.cls-1,.cls-4,.cls-5,.cls-6{stroke:#000;stroke-linecap:round;stroke-linejoin:round}.cls-4{fill:#87ccf3}.cls-5{fill:#b4eac3}.cls-11,.cls-6{fill:#fff}</style></defs><path d="M77.34 45.66s11.03-18.04 44.43-1.02" style="fill:none;stroke-linecap:round;stroke-linejoin:round;stroke:#000"/><path d="M190.85 59.41h-70.87V6.38h70.87z" class="cls-1"/><path d="M121.8 8.01h67.23v49.66H121.8z" style="fill:#8987f3;stroke-linecap:round;stroke-linejoin:round;stroke:#000" transform="rotate(-180 155.415 32.845)"/><path d="m133.15 29.9 10.97 16.73c.96 1.46 2.76 2.1 4.44 1.6 2.16-.64 4.5-.99 6.93-.99 2.13 0 4.18.27 6.1.76 1.73.45 3.55-.28 4.48-1.81 3.88-6.39 8.14-13.24 11.48-18.21.84-1.25.79-2.9-.11-4.11-4.51-6.08-12.65-10.13-21.95-10.13-9.5 0-17.79 4.23-22.24 10.53a4.99 4.99 0 0 0-.1 5.63Z" style="fill:#afaff9;stroke-linecap:round;stroke-linejoin:round;stroke:#000"/><path d="M129.62 13.14h-5.08v-.76h5.08zM129.62 15.09h-5.08v-.76h5.08z" class="cls-11"/><path d="m82.96 88.95 7.37 28.1 21.55 2.72-8.68-40.49-20.24 9.67z" class="cls-1"/><path d="m75.82 123.41 11.24-8.21c2.12-1.55 4.77-2.21 7.38-1.84l28.27 4.07c2.84.41 5.22 2.35 6.18 5.05l.39 1.09-53.45-.16ZM180.07 105.65v.14c-.05.34-.11.79-.17 1.31a4.173 4.173 0 0 1-4.14 3.69h-12.65c-4.79 0-9.51-1.17-13.75-3.4l-15.81-8.32a27.688 27.688 0 0 0-14.81-3.11l-44.77 3.17c-1.28.09-2.54-.27-3.58-1.03L8.49 52.99a5.419 5.419 0 0 1-1.19-7.57 5.29 5.29 0 0 1 2.37-1.84c.71-.28 1.48-.41 2.25-.38h0l29.93.22 40.32 32.32 49.4.98 48.01 28.09s0 0 0 0l.03.02s.01 0 .02.01c0 0 0 0 0 0 .12.09.22.2.29.33.08.15.13.31.13.48Z" class="cls-1"/><path d="M179.94 105.17h-13.46c-4.79 0-9.51-1.17-13.75-3.4l-15.81-8.32a27.688 27.688 0 0 0-14.81-3.11l-44.77 3.18c-1.28.09-2.54-.27-3.58-1.03L11.87 47.38a5.42 5.42 0 0 1-2.2-3.81c.71-.28 1.48-.41 2.25-.38h0l29.93.22 40.32 32.32 49.4.98 48.01 28.09s0 0 0 0c.02 0 .03.02.05.03 0 0 0 0 0 0 .12.09.22.2.29.33Z" class="cls-1"/><path d="M86 65.24s42.01-1.71 46.78-.49c4.77 1.22 22.03 25.16 22.03 25.16l-2.33 2.16-29.64-14.64-39.97-2.31L86 65.24Z" class="cls-4"/><path d="M162.83 94.2s2.59 1.69 5.33 1.92c2.73.23 4.95 1.02 6.65 1.15 1.71.13 4.3-.09 3.35 1.14-.95 1.23-6.06 2.93-7.29 2.86-1.22-.07-2.66-.21-4.46.77s-3.3.01-3.74-1.47c-.44-1.48-1.74-2.41-1.74-2.41l1.89-3.96ZM44.4 50.75c-1.19-.04-2.29-1.01-2.14-2.46.18-1.75.06-4.23-.68-7.2l.45-.02 7.61-.34s.39 2.33.91 4.48c0 .02 0 .04.01.05.45 1.87 2.27 5.78-6.17 5.49Z" class="cls-6"/><path d="M51.5 42.44s-9.57 2.51-11.04-3.48c-1.47-5.99-3.69-9.69 2.36-11.55 6.05-1.85 7.8.14 8.78 2.02.98 1.88 2.36 12.2-.09 13.01ZM77.39 59.41c-6.67-3.93-9.28-5.58-11.16-5.85-1.88-.27-3.85-2.23-4.96-3.45-1.11-1.22-7.14-2.99-9.12-2.86-6.43.4-17.18 1.64-18.47 4.38-1.83 3.87 32.26 28.58 32.26 28.58l9.51-3.93c2.78.95 8.42-2.06 10.77-3.86 5.32-4.1-2.15-9.09-8.82-13.01Z" class="cls-6"/><path d="M64.96 79.51s2.8 5.74 13.76 6.57c10.97.83 45.56-4.77 47.79-2.58 4.31 4.24 19.34 9.42 33.01 15.65 0 0 1.4-.02 3.03-.8 2.71-1.31 3.3-3.55 3.3-3.55s-27.89-20.79-31.32-23.67c-3.43-2.88-16.22-4.09-22.37-4.09-18.94 0-26.17-1.8-26.17-1.8s-.05 1.8-9.44 8.72c-5.19 3.82-11.6 5.56-11.6 5.56Z" class="cls-4"/><path d="M42.28 45.36s2.91 1.43 8.42.39c0 0 .36.97.69 1.29.33.32 3.86-.21 5.11.21 1.25.42 5.52 2.78 6.23 3.28.71.5 1.69 2.67 2.91 2.77 1.22.11 4.41 1.83 4.41 1.83s-6.9 4.23-10.95 20.01L38.82 59.66l-5.66-7.62s.71-1.77 3.16-2.64c2.45-.87 5.66-1.62 5.83-2.16.17-.54.14-1.88.14-1.88Z" class="cls-5"/><path d="M66.3 54.52c-.01.55-2.36 1.55-2.41 2.01-.04.45-.56 1.59-1.27 1.96-.43.22-.88.66-1.16.98h0c-.16.52-3.57 11.47-5.65 14.04-1.37 1.68-3.15 2.8-4.26 3.38-.5.27-.86.42-1 .49h-.05c-3.37.64-16.33-15.38-16.13-20.37.22-4.98 6.89-3.89 6.89-3.89s7.73 13.16 9.72 15.7c4.69-4.4 8.84-11.6 8.84-11.6l.54-.59c.16-.37.32-.81.33-1.01.02-.35.14-.98.31-.89.16.1.35.42.31.63-.02.06-.01.17 0 .29.59-.6 1.19-1.16 1.45-1.26.59-.21 3.55-.43 3.54.11Z" class="cls-6"/><path d="M38.82 48.6s-6.17 1.1-6.62 5.36c-.44 4.26 3.82 12.46 8.14 18.16 0 0 7.37-1.77 8.72-6.87l-4.69-8.74" class="cls-5"/><path d="M43.05 25.61c-14.52 2.22-4.23 22.99-4.23 22.99 5.86.05 3.3-7.02 3.3-7.02-1.7-1.65-2.26-4.85-2.26-4.85 8.01-3.17 5.98-8.57 5.98-8.57s5.06-.98 6.73 5.5c0 0 1.43 8.91-2.55 9.08l1.37 4.31 4.16.06s3.99-19.47-3.86-22.6c-5.84-2.33-8.64 1.11-8.64 1.11Z" class="cls-6"/><path d="M72.52 57.19s-5.36 6.11-4.83 9.53c.53 3.42 2.14-1.79 3.9-.24 1.76 1.55 5.03.6 5.73-.36s2.58-4.61 2.58-4.61-3.79-2.36-7.38-4.32Z" style="fill:#b2f0e9"/><path d="m73.86 54.42.64-6.03c.07-.68.69-1.18 1.37-1.11l2.42.26c.68.07 1.18.69 1.11 1.37l-.64 6.03c-.02.16 0 .32.04.47l.99 3.54c.24.85-.45 1.93-1.58 2.17-1.67.35-3.36.33-5.14-.59-.78-.4-1.42-1.62-1.02-2.39l1.68-3.27c.07-.14.11-.28.13-.44Z" class="cls-1"/><path d="m78.25 45.79-1.8-.26-.86 1.72.84.09 2.18.23-.36-1.78z" class="cls-6"/><path d="M79.1 63.64c-.05.12-.32.12-.61 0s-.48-.31-.43-.43c.05-.12.32-.12.61 0s.48.31.43.43Z"/><path d="M185.92 54.58h-5.96v-.89h5.96zM185.92 52.76h-5.96v-.89h5.96z" class="cls-11"/><path d="M151.97 35.98c-.26-.08-1.27-.62-1.53-.65-.66-.06-1.88-.31-2.42-1.39-.77-1.52.77-2.94 1.8-3 1.04-.05 1.82.38 2.44.38.61 0 .54-1.06 1.35-.93s.78-.87 1.61-1.78c.98-1.09 3.1-1.03 4.64.52 1.54 1.56.08 5.52-1.32 6.28-1.28.69-4.03 1.39-6.56.57Z" style="opacity:.4;fill:#87ccf3;stroke-linecap:round;stroke-linejoin:round;stroke:#000"/><circle cx="96.98" cy="31.07" r="12.77" style="stroke-miterlimit:10;stroke-width:2px;fill:#fff;stroke:#000"/><path d="M92.87 28.19v-1.32c1.25-.12 2.11-.32 2.6-.61.49-.28.86-.96 1.1-2.02h1.36v13.65h-1.84v-9.71h-3.23Z"/><path d="M-776.69-4448.19h6467.34v6437.3H-776.69z" style="stroke:#fff;stroke-width:8px;fill:none;stroke-linecap:round;stroke-linejoin:round"/></svg>