<svg xmlns="http://www.w3.org/2000/svg" id="Calque_1" data-name="Calque 1" viewBox="0 0 200.13 128.13"><defs><style>.cls-1{fill:#d6d6d6}.cls-1,.cls-4,.cls-5,.cls-6{stroke:#000;stroke-linecap:round;stroke-linejoin:round}.cls-4{fill:#87ccf3}.cls-5{fill:#b4eac3}.cls-11,.cls-6{fill:#fff}</style></defs><path d="M75.55 40.17s11.03-18.04 44.43-1.02" style="fill:none;stroke-linecap:round;stroke-linejoin:round;stroke:#000"/><path d="M190.85 59.41h-70.87V6.38h70.87z" class="cls-1"/><path d="M121.8 8.01h67.23v49.66H121.8z" style="fill:#8987f3;stroke-linecap:round;stroke-linejoin:round;stroke:#000" transform="rotate(-180 155.415 32.845)"/><path d="m133.15 29.9 10.97 16.73c.96 1.46 2.76 2.1 4.44 1.6 2.16-.64 4.5-.99 6.93-.99 2.13 0 4.18.27 6.1.76 1.73.45 3.55-.28 4.48-1.81 3.88-6.39 8.14-13.24 11.48-18.21.84-1.25.79-2.9-.11-4.11-4.51-6.08-12.65-10.13-21.95-10.13-9.5 0-17.79 4.23-22.24 10.53a4.99 4.99 0 0 0-.1 5.63Z" style="fill:#afaff9;stroke-linecap:round;stroke-linejoin:round;stroke:#000"/><path d="M129.62 13.14h-5.08v-.76h5.08zM129.62 15.09h-5.08v-.76h5.08z" class="cls-11"/><path d="m82.96 88.95 7.37 28.1 21.55 2.72-8.68-40.49-20.24 9.67z" class="cls-1"/><path d="m75.82 123.41 11.24-8.21c2.12-1.55 4.77-2.21 7.38-1.84l28.27 4.07c2.84.41 5.22 2.35 6.18 5.05l.39 1.09-53.45-.16ZM180.07 105.65v.14c-.05.34-.11.79-.17 1.31a4.173 4.173 0 0 1-4.14 3.69h-12.65c-4.79 0-9.51-1.17-13.75-3.4l-15.81-8.32a27.688 27.688 0 0 0-14.81-3.11l-44.77 3.17c-1.28.09-2.54-.27-3.58-1.03L8.49 52.99a5.419 5.419 0 0 1-1.19-7.57 5.29 5.29 0 0 1 2.37-1.84c.71-.28 1.48-.41 2.25-.38h0l29.93.22 40.32 32.32 49.4.98 48.01 28.09s0 0 0 0l.03.02s.01 0 .02.01c0 0 0 0 0 0 .12.09.22.2.29.33.08.15.13.31.13.48Z" class="cls-1"/><path d="M179.94 105.17h-13.46c-4.79 0-9.51-1.17-13.75-3.4l-15.81-8.32a27.688 27.688 0 0 0-14.81-3.11l-44.77 3.18c-1.28.09-2.54-.27-3.58-1.03L11.87 47.38a5.42 5.42 0 0 1-2.2-3.81c.71-.28 1.48-.41 2.25-.38h0l29.93.22 40.32 32.32 49.4.98 48.01 28.09s0 0 0 0c.02 0 .03.02.05.03 0 0 0 0 0 0 .12.09.22.2.29.33Z" class="cls-1"/><path d="M88.25 62.78s39.77.74 44.54 1.96c4.77 1.22 22.03 25.16 22.03 25.16l-2.33 2.16-29.64-14.64-39.97-2.31 5.37-12.33Z" class="cls-4"/><path d="M162.83 94.2s2.59 1.69 5.33 1.92c2.73.23 4.95 1.02 6.65 1.15 1.71.13 4.3-.09 3.35 1.14-.95 1.23-6.06 2.93-7.29 2.86-1.22-.07-2.66-.21-4.46.77s-3.3.01-3.74-1.47c-.44-1.48-1.74-2.41-1.74-2.41l1.89-3.96ZM44.4 50.75c-1.19-.04-2.29-1.01-2.14-2.46.18-1.75.06-4.23-.68-7.2l.45-.02 7.61-.34s.39 2.33.91 4.48c0 .02 0 .04.01.05.45 1.87 2.27 5.78-6.17 5.49Z" class="cls-6"/><path d="M51.5 42.44s-9.57 2.51-11.04-3.48c-1.47-5.99-3.69-9.69 2.36-11.55 6.05-1.85 7.8.14 8.78 2.02.98 1.88 2.36 12.2-.09 13.01ZM81.88 55.23c-6.67-3.93-13.77-1.41-15.65-1.67-1.88-.27-3.85-2.23-4.96-3.45-1.11-1.22-7.14-2.99-9.12-2.86-6.43.4-17.18 1.64-18.47 4.38-1.83 3.87 32.26 28.58 32.26 28.58l9.51-3.93c2.78.95 8.42-2.06 10.77-3.86 5.32-4.1 2.34-13.26-4.33-17.19Z" class="cls-6"/><path d="M64.96 79.51s2.8 5.74 13.76 6.57c10.97.83 45.56-4.77 47.79-2.58 4.31 4.24 19.34 9.42 33.01 15.65 0 0 1.4-.02 3.03-.8 2.71-1.31 3.3-3.55 3.3-3.55s-27.89-20.79-31.32-23.67c-3.43-2.88-16.22-4.09-22.37-4.09-18.94 0-23.93-4.25-23.93-4.25s-2.3 4.25-11.68 11.17c-5.19 3.82-11.6 5.56-11.6 5.56Z" class="cls-4"/><path d="M42.28 45.36s2.91 1.43 8.42.39c0 0 .36.97.69 1.29.33.32 3.86-.21 5.11.21 1.25.42 5.52 2.78 6.23 3.28.71.5 1.69 2.67 2.91 2.77 1.22.11 3.86-.04 3.86-.04s-7.18 1.15-8.36 23.45L38.82 59.67l-5.66-7.62s.71-1.77 3.16-2.64c2.45-.87 5.66-1.62 5.83-2.16.17-.54.14-1.88.14-1.88Z" class="cls-5"/><path d="M65.87 53.83c.03.55-2.25 1.71-2.27 2.16-.01.46-.46 1.63-1.13 2.04-.42.25-.83.72-1.09 1.05h0c-.13.53-2.8 11.68-4.7 14.39-1.25 1.77-2.96 3.01-4.02 3.66-.48.3-.83.48-.96.56-.04 0-.05.01-.05.01-3.32.86-17.32-14.26-17.45-19.25-.12-4.99 6.62-4.34 6.62-4.34s8.59 12.62 10.74 15.01c4.39-4.7 8.05-12.16 8.05-12.16s.21-.26.5-.63c.13-.38.26-.83.26-1.03 0-.35.08-.99.25-.91.17.09.38.39.35.61-.01.07 0 .17.01.29.55-.64 1.11-1.24 1.37-1.35.57-.25 3.52-.66 3.54-.13Z" class="cls-6"/><path d="M38.82 48.6s-6.17 1.1-6.62 5.36c-.44 4.26 3.82 12.46 8.14 18.16 0 0 7.37-1.77 8.72-6.87l-4.69-8.74" class="cls-5"/><path d="M43.05 25.61c-14.52 2.22-4.23 22.99-4.23 22.99 5.86.05 3.3-7.02 3.3-7.02-1.7-1.65-2.26-4.85-2.26-4.85 8.01-3.17 5.98-8.57 5.98-8.57s5.06-.98 6.73 5.5c0 0 1.43 8.91-2.55 9.08l1.37 4.31 4.16.06s3.99-19.47-3.86-22.6c-5.84-2.33-8.64 1.11-8.64 1.11Z" class="cls-6"/><path d="M69.94 53.57s-5.27 5.46-4.52 10.28 3.02-2.53 5.5-.34 7.09.84 8.08-.51c1-1.35 4.26-6.04 4.26-6.04s-4.68-4.82-13.32-3.39Z" style="fill:#b2f0e9"/><path d="m72.08 48.93.64-6.03c.07-.68.69-1.18 1.37-1.11l2.42.26c.68.07 1.18.69 1.11 1.37l-.64 6.03c-.02.16 0 .32.04.47l.99 3.54c.24.85-.45 1.93-1.58 2.17-1.67.35-3.36.33-5.14-.59-.78-.4-1.42-1.62-1.02-2.39l1.68-3.27c.07-.14.11-.28.13-.44Z" class="cls-1"/><path d="m76.46 40.3-1.8-.26-.86 1.72.84.09 2.18.23-.36-1.78z" class="cls-6"/><path d="M80.5 56.42c-.05.12-.32.12-.61 0s-.48-.31-.43-.43c.05-.12.32-.12.61 0s.48.31.43.43Z"/><path d="M185.92 54.58h-5.96v-.89h5.96zM185.92 52.76h-5.96v-.89h5.96z" class="cls-11"/><path d="M150.28 39.99c-.6-.16-2.99-1.27-3.61-1.29-1.52-.05-4.35-.48-5.75-2.89-1.97-3.39 1.38-6.87 3.76-7.13 2.37-.26 4.24.65 5.65.57 1.41-.08 1.1-2.52 2.98-2.33 1.87.19 1.69-2.1 3.47-4.32 2.11-2.64 7-2.77 10.74.61 3.74 3.39.91 12.71-2.22 14.63-2.85 1.75-9.09 3.71-15.02 2.15Z" style="opacity:.4;fill:#87ccf3;stroke-linecap:round;stroke-linejoin:round;stroke:#000"/><circle cx="96.98" cy="31.07" r="12.77" style="stroke-miterlimit:10;stroke-width:2px;fill:#fff;stroke:#000"/><path d="M92.66 34.52c.42-.88 1.25-1.67 2.48-2.38l1.84-1.06c.82-.48 1.4-.89 1.73-1.23.52-.53.79-1.14.79-1.82 0-.8-.24-1.43-.72-1.9s-1.12-.7-1.92-.7c-1.18 0-2 .45-2.45 1.34-.24.48-.38 1.14-.4 1.99h-1.75c.02-1.19.24-2.17.66-2.92.75-1.33 2.07-1.99 3.96-1.99 1.57 0 2.72.42 3.44 1.27s1.09 1.79 1.09 2.83c0 1.1-.39 2.04-1.16 2.82-.45.45-1.25 1-2.4 1.65l-1.31.73c-.63.34-1.12.67-1.47.99-.64.55-1.04 1.17-1.21 1.85h7.49v1.63h-9.41c.06-1.18.31-2.21.73-3.08Z"/><path d="M-511.3-4448.19h6467.34v6437.3H-511.3z" style="stroke:#fff;stroke-width:8px;fill:none;stroke-linecap:round;stroke-linejoin:round"/></svg>