<svg xmlns="http://www.w3.org/2000/svg" id="Calque_1" data-name="Calque 1" viewBox="0 0 128 128"><defs><style>.cls-2,.cls-4{stroke-linecap:round;stroke-linejoin:round}.cls-2,.cls-4,.cls-5{stroke:#000}.cls-2{fill:#fff}.cls-4{stroke-width:.5px;fill:none}.cls-5{fill:none;stroke-miterlimit:10}</style></defs><path d="m10.24 80.22 29.25 35.51h57.75L63.99 80.22H10.24zM55.6 85.89H24.32M61.73 93.7H30.45M68.64 102.49H37.36" class="cls-2"/><path d="m33.94 68.52 29.25 35.5h57.75l-33.25-35.5H33.94z" class="cls-2"/><path d="m91.27 77.47-.73-1.89-1.6 1.42 12.57-62.19 4.66.94-12.57 62.2-.73-1.9-1.6 1.42z" style="stroke:#000;stroke-linecap:round;stroke-linejoin:round;fill:#b2f0e9"/><path d="m106.73 13.021-.552 2.735-4.656-.94.552-2.735z" class="cls-2"/><path d="M102.26 7.86h5.3v4.19h-5.3z" style="fill:#fab0b4;stroke:#000;stroke-linecap:round;stroke-linejoin:round" transform="rotate(-78.58 104.912 9.957)"/><path d="m89.27 87.39-.11-3.47-.22-6.92 1.6-1.42.73 1.89 1.6-1.42.73 1.9-2.89 6.29-1.44 3.15z" class="cls-2"/><path d="m89.7 85.26-.09-2.99 1.33.27-1.24 2.72z"/><path d="M104.28 17.11 92.8 73.9M102.72 16.79 91.25 73.58" class="cls-4"/><path d="m57.03 85.85-1.19-11.06 9.19 9.24M53.62 81.13l10.22-1.88M74.68 73.59l5.28 10.36M77.43 78.99l5.25-1.66M79.96 71.94l5.11 9.88M67.09 92.16l8.86 5.79-1.37-8.69M85.93 90.93l3.69 8 4.99-1.53" class="cls-5"/></svg>