<svg xmlns="http://www.w3.org/2000/svg" id="Calque_1" data-name="Calque 1" viewBox="0 0 128 128"><defs><style>.cls-1{fill:#fab0b4}.cls-2{fill:#ff6d75}</style></defs><path d="M16.49 103.83c.65.83 1.32 1.64 2.01 2.4 2.24 2.48 4.79 4.74 7.86 6.14 2.58 1.17 5.34 1.73 8.13 2.12 8.97-10.03 36.76-41.23 45.88-51.48 2.64.08 5.35-.37 7.88-1.41 12.04-4.91 11.16-4.97 15.13-7.19 3.25-1.82 6.96-3.25 8.43-4.55 3.95-3.5.87-5.31-1.67-5.31-4.01 0-14.57 4.54-12.29 1 .81-1.26 4.87-7.1 5.86-8.46 2.87-3.91 5.21-7.69 7.74-11.84.74-1.22 2.18-4.19 1.98-5.72-.47-3.55-3.97-3.12-6.23.24-3.24 4.83-9.87 14.88-13.92 18.88 1.12-1.96 7.34-13.23 8.39-15.2 1.1-2.03 6.16-10.46 2.6-12.24-2.3-1.16-4.57 1.17-8.82 9.28-2.63 5.02-6.33 10.87-8.98 13.96 2.1-6.18 4.52-11.39 5.74-14.42 5.5-13.68-2.81-11.18-4.67-6.01-3.02 8.42-4.01 10.73-7.73 17.71 1.19-7.34 4.09-17.32 2.92-20.4-1.02-2.7-4.23-4.13-7.05 8.11-.72 3.11-2.21 9.72-3.6 13.31-1.15 2.96-6.95 10.85-7.26 14-.07.72-.09 1.41-.07 2.09-10.96 9.5-38.12 33.03-51.82 44.05.13 2.16.4 4.3 1.18 6.33.62 1.61 1.54 3.11 2.38 4.61Z" style="fill:#fff;stroke:#000;stroke-linecap:round;stroke-linejoin:round;stroke-width:2px"/><circle cx="46.17" cy="76.39" r="1.39" class="cls-2"/><path d="M46.17 76c.22 0 .39.18.39.39s-.18.39-.39.39-.39-.18-.39-.39.18-.39.39-.39m0-2a2.39 2.39 0 1 0 0 4.78 2.39 2.39 0 0 0 0-4.78Z" class="cls-1"/><circle cx="54.49" cy="71.11" r="1.39" class="cls-2"/><path d="M54.49 70.72c.22 0 .39.18.39.39s-.18.39-.39.39-.39-.18-.39-.39.18-.39.39-.39m0-2a2.39 2.39 0 1 0 0 4.78 2.39 2.39 0 0 0 0-4.78Z" class="cls-1"/><circle cx="44.16" cy="80.74" r="1.39" class="cls-2"/><path d="M44.16 80.35c.22 0 .39.18.39.39s-.18.39-.39.39-.39-.18-.39-.39.18-.39.39-.39m0-2a2.39 2.39 0 1 0 0 4.78 2.39 2.39 0 0 0 0-4.78Z" class="cls-1"/><circle cx="50.62" cy="71.11" r="1.39" class="cls-2"/><path d="M50.62 70.72c.22 0 .39.18.39.39s-.18.39-.39.39-.39-.18-.39-.39.18-.39.39-.39m0-2a2.39 2.39 0 1 0 0 4.78 2.39 2.39 0 0 0 0-4.78Z" class="cls-1"/><circle cx="60.91" cy="73.61" r="1.39" class="cls-2"/><path d="M60.91 73.22c.22 0 .39.18.39.39s-.18.39-.39.39-.39-.18-.39-.39.18-.39.39-.39m0-2a2.39 2.39 0 1 0 0 4.78 2.39 2.39 0 0 0 0-4.78Z" class="cls-1"/><circle cx="52.59" cy="78.9" r="1.39" class="cls-2"/><path d="M52.59 78.51c.22 0 .39.18.39.39s-.18.39-.39.39-.39-.18-.39-.39.18-.39.39-.39m0-2a2.39 2.39 0 1 0 0 4.78 2.39 2.39 0 0 0 0-4.78Z" class="cls-1"/><path d="M62.91 70.66c-.77 0-1.39-.62-1.39-1.39s.62-1.39 1.39-1.39 1.39.62 1.39 1.39-.62 1.39-1.39 1.39Z" class="cls-2"/><path d="M62.91 68.88c.22 0 .39.18.39.39s-.18.39-.39.39-.39-.18-.39-.39.18-.39.39-.39m0-2a2.39 2.39 0 1 0 0 4.78 2.39 2.39 0 0 0 0-4.78Z" class="cls-1"/><circle cx="56.45" cy="78.9" r="1.39" class="cls-2"/><path d="M56.45 78.51c.22 0 .39.18.39.39s-.18.39-.39.39-.39-.18-.39-.39.18-.39.39-.39m0-2a2.39 2.39 0 1 0 0 4.78 2.39 2.39 0 0 0 0-4.78Z" class="cls-1"/><circle cx="38.4" cy="88.64" r="1.39" class="cls-2"/><path d="M38.4 88.25c.22 0 .39.18.39.39s-.18.39-.39.39-.39-.18-.39-.39.18-.39.39-.39m0-2a2.39 2.39 0 1 0 0 4.78 2.39 2.39 0 0 0 0-4.78Z" class="cls-1"/><circle cx="46.73" cy="83.36" r="1.39" class="cls-2"/><path d="M46.73 82.97c.22 0 .39.18.39.39s-.18.39-.39.39-.39-.18-.39-.39.18-.39.39-.39m0-2a2.39 2.39 0 1 0 0 4.78 2.39 2.39 0 0 0 0-4.78Z" class="cls-1"/><circle cx="36.4" cy="92.99" r="1.39" class="cls-2"/><path d="M36.4 92.6c.22 0 .39.18.39.39s-.18.39-.39.39-.39-.18-.39-.39.18-.39.39-.39m0-2a2.39 2.39 0 1 0 0 4.78 2.39 2.39 0 0 0 0-4.78Z" class="cls-1"/><path d="M42.86 84.75c-.77 0-1.39-.62-1.39-1.39s.62-1.39 1.39-1.39 1.39.62 1.39 1.39-.62 1.39-1.39 1.39Z" class="cls-2"/><path d="M42.86 82.97c.22 0 .39.18.39.39s-.18.39-.39.39-.39-.18-.39-.39.18-.39.39-.39m0-2a2.39 2.39 0 1 0 0 4.78 2.39 2.39 0 0 0 0-4.78Z" class="cls-1"/><circle cx="53.15" cy="85.86" r="1.39" class="cls-2"/><path d="M53.15 85.47c.22 0 .39.18.39.39s-.18.39-.39.39-.39-.18-.39-.39.18-.39.39-.39m0-2a2.39 2.39 0 1 0 0 4.78 2.39 2.39 0 0 0 0-4.78Z" class="cls-1"/><circle cx="44.82" cy="91.15" r="1.39" class="cls-2"/><path d="M44.82 90.76c.22 0 .39.18.39.39s-.18.39-.39.39-.39-.18-.39-.39.18-.39.39-.39m0-2a2.39 2.39 0 1 0 0 4.78 2.39 2.39 0 0 0 0-4.78Z" class="cls-1"/><circle cx="55.15" cy="81.52" r="1.39" class="cls-2"/><path d="M55.15 81.13c.22 0 .39.18.39.39s-.18.39-.39.39-.39-.18-.39-.39.18-.39.39-.39m0-2a2.39 2.39 0 1 0 0 4.78 2.39 2.39 0 0 0 0-4.78Z" class="cls-1"/><circle cx="48.69" cy="91.15" r="1.39" class="cls-2"/><path d="M48.69 90.76c.22 0 .39.18.39.39s-.18.39-.39.39-.39-.18-.39-.39.18-.39.39-.39m0-2a2.39 2.39 0 1 0 0 4.78 2.39 2.39 0 0 0 0-4.78Z" class="cls-1"/></svg>