<svg xmlns="http://www.w3.org/2000/svg" id="Calque_1" viewBox="0 0 200.13 128.13"><defs><style>.cls-3{fill:#87ccf3;stroke-miterlimit:10}.cls-13,.cls-3{stroke-width:2px}.cls-13,.cls-16,.cls-18{stroke-linejoin:round;fill:none}.cls-13,.cls-16,.cls-18,.cls-3{stroke:#000}.cls-13,.cls-18{stroke-linecap:round}</style></defs><path d="M-534.98-468.58H2120.1v1511.77H-534.98z" style="stroke-linecap:round;stroke:#e30613;stroke-width:8px;fill:none;stroke-linejoin:round"/><ellipse cx="161.24" cy="112.86" rx="24.56" ry="11.21" style="fill:#d6d6d6"/><path d="M159.61 74.8h3.26v39.07h-3.26z" style="fill:#baa584"/><path d="M161.87 75.8v37.06h-1.26V75.8h1.26m2-2h-5.26v41.06h5.26V73.8Z"/><path d="M70.98 94.49c-.52-7.45-2.94-14.91-9.44-19.25-2.13-1.41-4.56-2.25-7.09-2.72-.32-.68-.94-1.2-1.66-1.44-.25-.08-.51-.12-.77-.12-.22 0-.45.03-.67.08-.48.1-.9.35-1.25.66-.1.09-.18.2-.23.33-.56-.02-1.12-.02-1.68-.02-4.61.02-8.82 1.53-11.79 5.14-.89 1.09-1.69 2.52-2.39 4.13-1.25 2.87-2.23 6.33-2.94 9.45-.02.09-.03.17-.06.26-.18.83-.36 1.61-.51 2.36-.02.01-.03.01-.06.02-.11.11-.22.22-.32.35a100.118 100.118 0 0 0-7.81 9.46h-.01s-1.1 1.51-1.62 2.27c-.06.08-.11.16-.17.23-.5.74.19 1.51.91 1.6 4.99.58 9.69 2.06 14.24 4.09 3.92 1.75 8.03 3.66 12.43 3.17 7.32-.82 11.59-6.84 14.63-13 .43-.84.83-1.69 1.2-2.53.02-.01.06-.01.08-.02.73-.16 1.44-.34 2.16-.53.92-.25 1.83-.53 2.74-.83.75-.25 1.49-.51 2.22-.81-.02-.78-.06-1.57-.11-2.35Z" class="cls-3"/><path d="M63.9 99.02c-26.58-.5-33.42-5.67-33.42-5.67" style="stroke-width:2px;stroke-miterlimit:10;fill:#87ccf3;stroke:#251f2d"/><path d="M49.86 72.03s1.42 1.08 4.59.49" class="cls-3"/><path d="M51.85 72.65s-14.57 5.29-14.47 23.39M52.69 72.7S62.42 84 63.98 99.01" class="cls-3"/><circle cx="32.61" cy="30.35" r="12.98" style="fill:#f3d587;stroke-linecap:round;stroke:#000;stroke-linejoin:round;stroke-width:2px"/><path d="M32.61 53.47v-7.31M16.26 46.7l5.17-5.17M9.49 30.35h7.31M16.26 14l5.17 5.17M32.61 7.22v7.31M48.96 14l-5.17 5.17M55.74 30.35h-7.31M48.96 46.7l-5.17-5.17M48.96 46.7l-5.17-5.17M32.61 53.47v-7.31M16.26 46.7l5.17-5.17M9.49 30.35h7.31M16.26 14l5.17 5.17M32.61 7.22v7.31M48.96 14l-5.17 5.17M55.74 30.35h-7.31" class="cls-13"/><path d="m113.33 113.61-.08 1.76v4.38c0 .7-.56 1.26-1.26 1.26h-2.88a2.121 2.121 0 0 0-4.24 0h-4.1a2.121 2.121 0 0 0-4.24 0h-2.89c-.7 0-1.26-.56-1.26-1.26v-4.38l-.08-1.81c-.07-1.64-.11-3.28-.11-4.92 0-6.08.49-12.15 1.46-18.16l-.63-10.61c-.43-1.98-.64-4-.64-6.01s.19-3.83.58-5.71l.06-.3-.41-2.48c-.16-1.03-.01-2.07.44-3 .15-.31.31-.62.48-.93h18.62c.15.29.3.59.45.89l.02.04c.45.93.6 1.98.44 3l-.41 2.48.06.3c.8 3.87.77 7.86-.06 11.72l-.63 10.61v.06c1.24 7.62 1.69 15.36 1.35 23.07Z" style="fill:#bfe6fc"/><path d="m113.02 65.35-.4 2.49H92.99l-.4-2.49c-.17-1.02-.01-2.07.44-3h0c.66-1.37 1.45-2.66 2.37-3.86.69-.9 1.44-1.75 2.26-2.53.03-.03.07-.06.1-.1.41-.41.69-.94.8-1.53.03-.16.04-.34.04-.51v-.08l.08-1.1h8.26l.08 1.18c0 .08 0 .16.01.23v.08c.08.67.37 1.25.81 1.7.05.06.11.11.16.15 1.88 1.83 3.42 3.97 4.56 6.32l.02.04c.45.93.6 1.98.44 3Z" class="cls-13"/><path d="M112.61 79.86H92.99c-.84-3.86-.86-7.85-.06-11.72l.06-.3h19.62l.06.3c.8 3.87.77 7.86-.06 11.72h0Z" style="stroke-linecap:round;stroke:#000;stroke-linejoin:round;fill:#fff;stroke-width:2px"/><path d="M111.98 90.48H93.62l-.63-10.62h19.62l-.63 10.62zM113.33 113.61l-.08 1.76v4.38c0 .7-.56 1.26-1.26 1.26h-2.88a2.121 2.121 0 0 0-4.24 0h-4.1a2.121 2.121 0 0 0-4.24 0h-2.89c-.7 0-1.26-.56-1.26-1.26v-4.38l-.08-1.81c-.07-1.64-.11-3.28-.11-4.92 0-6.08.49-12.15 1.46-18.16H112v.06c1.24 7.62 1.69 15.36 1.35 23.07ZM97.71 52.64h10.19M98.67 48.64H107v4h-8.33z" class="cls-13"/><path d="M100.18 48.64v4.16M101.52 48.64v4.16M102.86 48.64v4.16M104.2 48.64v4.16M105.54 48.64v4.16" class="cls-16"/><path d="M92.85 97.44h11.69M107.59 97.44h5.29M103.45 107.81h9.43M92.85 102.92h10.31M92.85 107.81h7.35M110.46 102.92h2.42M105.6 102.92h2.42" class="cls-18"/><path d="M103.16 77.67c1.52 0 2.76-1.24 2.76-2.76s-2.76-4.88-2.76-4.88-2.76 3.36-2.76 4.88 1.24 2.76 2.76 2.76Z" style="fill:#87ccf3"/><path d="M161.24 75.9v-.1" style="stroke-miterlimit:1;stroke:#000;fill:none;stroke-width:2px"/><path d="M161.24 52.95s-15.16 7.12-15.87 22.85h-6.98c0-12.62 10.23-22.85 22.85-22.85Z" style="stroke-miterlimit:1;fill:#fab0b4;stroke-linecap:round;stroke:#000;stroke-width:2px"/><path d="M161.24 52.95V75.8h-15.87c.71-15.73 15.87-22.85 15.87-22.85Z" style="fill:#8987f3;stroke-miterlimit:1;stroke-linecap:round;stroke:#000;stroke-width:2px"/><path d="M184.09 75.8h-6.98c-.71-15.73-15.87-22.85-15.87-22.85 12.62 0 22.85 10.23 22.85 22.85Z" style="fill:#f3d587;stroke-miterlimit:1;stroke-linecap:round;stroke:#000;stroke-width:2px"/><path d="M177.11 75.8h-15.87V52.95s15.16 7.12 15.87 22.85Z" style="fill:#b2f0e9;stroke-miterlimit:1;stroke-linecap:round;stroke:#000;stroke-width:2px"/><path d="M160.3 52.95v-1.29c0-.51.42-.93.93-.93s.93.42.93.93v1.29" style="fill:#d6d6d6;stroke:#000;stroke-width:2px;stroke-miterlimit:10"/><path d="M65.47 51.57c-3.81 0-6.91-3.1-6.91-6.91a6.95 6.95 0 0 1 3.72-6.13V9.91c0-1.76 1.43-3.19 3.19-3.19s3.19 1.43 3.19 3.19v28.62a6.95 6.95 0 0 1 3.72 6.13c0 3.81-3.1 6.91-6.91 6.91Z" style="fill:#fff"/><path d="M65.47 7.22c1.48 0 2.69 1.2 2.69 2.69v28.93a6.404 6.404 0 0 1-2.69 12.22 6.41 6.41 0 0 1-6.41-6.41 6.4 6.4 0 0 1 3.72-5.81V9.91c0-1.49 1.2-2.69 2.69-2.69m0-1c-2.03 0-3.69 1.65-3.69 3.69v28.32a7.435 7.435 0 0 0-3.72 6.42c0 4.09 3.32 7.41 7.41 7.41s7.41-3.32 7.41-7.41c0-2.65-1.44-5.11-3.72-6.42V9.91c0-2.03-1.65-3.69-3.69-3.69Z"/><path d="M64.13 10.29h2.68v12.75h-2.68z" style="fill:#d6d6d6;stroke:#000;stroke-miterlimit:10"/><path d="M70.1 44.62c0 2.56-2.07 4.63-4.63 4.63s-4.63-2.07-4.63-4.63c0-2.09 1.39-3.86 3.29-4.44V13.69h2.68v26.49c1.9.58 3.29 2.34 3.29 4.43Z" style="fill:#ff6d75;stroke:#000;stroke-miterlimit:10"/></svg>