<svg xmlns="http://www.w3.org/2000/svg" id="Calque_1" data-name="Calque 1" viewBox="0 0 128 128"><defs><style>.cls-2,.cls-3,.cls-4{stroke:#000;stroke-linecap:round;stroke-linejoin:round}.cls-2{fill:#ff6d75}.cls-3,.cls-8{fill:#fff}.cls-4{fill:none}.cls-9{fill:#fab0b4}</style></defs><path d="m45.8 88.2-4.24 3.57 4.81 3.73-.81-2.46 3.03 2.32.67-.06-1.8-2.25 2.53 1.94 1.05.63.35-.84-2.93-2.86.26-.31 2.51 2.09.98.79.55-.53-1.75-2.11 1.45-.23v-.57l-3.17-.29-2.13-1.32-1.36-1.24zM65.97 79.85l-3.6 2.03v1.83l6.45-1.8-2.85-2.06z" class="cls-8"/><path d="M60.5 107.08c-5.3-3.6-26.62-.37-30.2-8.51-3.58-8.13 3.2-11.64 3.2-11.64s1.15 1.54 3.37 2.8c2.21 1.27 4.09 2 5.1 2.82 2.53 2.12 5.72 4.97 5.06 3.17a6.91 6.91 0 0 0-.55-1.18l.91.4h.01c.88.58 2 1.22 2.36 1.04.85.41 1.72.82 2.58 1.21 2.77 1.27 5.49 2.32 7.43 2.4.2 0 .86.4 1.45.79.44.29.86.57 1.02.69.24.16.48.34.75.55 4.84 3.68 2.83 9.04-2.48 5.45Z" class="cls-2"/><path d="M46.37 94.37c.07.03.16.07.24.11.09.05.19.09.28.13" class="cls-4"/><path d="M52.74 94.6c-.44.28-.75.24-1.08 0 .35 2.29-1.79.81-1.95.69.12.2.19.38.16.55-.01.07-.05.12-.11.15-.36.18-1.48-.46-2.36-1.04h-.01c-.18-.11-.34-.23-.49-.33-.36-.24-.62-.44-.67-.47.05.07.1.14.15.23.03.05.07.11.1.17.2.32.38.71.55 1.18.65 1.81-5.22-3.31-5.3-3.38-.24-.2-.5-.41-.76-.61l4.95-4 .09.12c1.41 1.69 2.67 2.97 4.44 2.86 3.9-.24 2.45 1.87.73 1.05.27.18 2.89 1.98 1.56 2.84Z" class="cls-4"/><path d="M45.38 93.27s.39.23.84.87h0M61.61 72.77c.66 1.84 1.26 3.25 1.96 4.4.82 1.35 1.77 2.33 3.12 3.17 3.48 2.18 5.14 4.7 2.82 4.94M33.32 86.51c-7.52-6.06-1.91-21.26-1.91-21.26 3.09-7.34 8.83-6.44 9.67-8.63M48.46 91.77c1.83.85 2.5 2.31 3.2 2.83M51.18 91.76l-.02-.02M47.46 93.26s1.7 1.13 2.24 2.02h0M46.23 94.14h0M49.71 95.3h0M45.06 86.71h-.01M43.05 84.5h-.02" class="cls-4"/><path d="M59.39 79.17s-1.01 2.28.57 5.97c0 0 4.75 9.83 1.26 15.26 0 0 0 .01-.01.02-3.01-1.78-3.16-.07-6.93-2.14-.78-.42-1.41-.78-1.93-1.06l-2.47-1.36c.03-.16-.03-.35-.16-.55.16.11 2.3 1.6 1.95-.69.32.24.64.28 1.08 0 1.33-.86-1.29-2.67-1.56-2.84 1.71.82 3.17-1.29-.73-1.05-1.77.11-3.03-1.17-4.44-2.86l-.09-.12-4.95 4s-4.6-2.02-6.39-3.69c0 0-1.87-1.88-3.02-3.31-5.31-6.58-.38-21.63 2.03-23.91 2.4-2.28 7.5-4.21 7.5-4.21 4.92 1.68 9.07.92 9.9.13.03-.03 0 .04 0 0-.03-.09 1.85.25 6.12 3.25h.01c.09.07.19.14.28.22.06.05.12.11.19.18 4.26 3.86 8.51 18.89 8.51 18.89-.04.07-.11.16-.22.26-.98.9-4.59 2.65-4.59 2.65l-1.89-3.04Z" class="cls-2"/><path d="M62.17 82.37s-.67 6.98.81 5.16c1.48-1.81.92-4.5 2.9-2.27s1.62 3.69 2.39 2.24-.74-3.31-.74-3.31M68.97 86.29s3.69 4.05 2.04.33l-1.29-1.99" class="cls-4"/><path d="M66.32 100.83c-1.56.46-2.14 1.43-2.14 1.43.85.97 1.77 2.82 1.65 3.92-.27 2.47 13.94-.84 11.24-5.42-1.37-2.31-7.35-.87-7.35-.87" class="cls-2"/><path d="M68.5 89.92s-2.83-.64-3.05 5.32c-.05 1.49 0 5.98 0 5.98s3.79-1.5 7.31-1.72c0 0 3.46-5.75 4.39-12.74.93-6.99-7.01-4.93-7.01-4.93l-10.39 2.76s4.68 9.57 1.46 15.81l1.01.68s1.59-1.33 2.94-3.29" class="cls-2"/><path d="M59.39 79.17c-1.39-2.53-3.54-7.84-4.93-10.5" style="stroke-linecap:round;stroke-linejoin:round;stroke:#000;fill:#fce9b9"/><path d="M38.71 66.26s.57 10.62.04 15.19c0 0 .82-.21 4.01 2.77.1.09 1.42 1.36 1.52 1.45l1.73 2.18" class="cls-4"/><path d="M56.21 54.76h-.02l.01-.02s0 .02.01.02Z" class="cls-9"/><path d="M41.35 56.25c.84-2.18 0-8.22 0-8.22-5.5-8.21-3.45-14.8 1.45-18.49 4.9-3.69 15.57-6.48 21.83 3.83 6.26 10.3-3.05 14.74-3.05 14.74s-.86 1.32.1 2.42c.96 1.11-1.48 1.9-1.48 1.9s-1.3 4.39-4.09 5.79c0 0-1.55.84-3.31.37s-3.48-1.96-3.48-1.96" class="cls-3"/><path d="M47.51 42.47s-3.09-1.54-3.66 1.7c-.57 3.24 2.29 2.74 2.29 2.74" class="cls-4"/><circle cx="58.37" cy="48.25" r=".76"/><path d="M57.48 45.61s1.54-1.24 2.9.3M45.78 44.33l.68.25" class="cls-4"/><circle cx="53.37" cy="47.92" r="1.6" class="cls-9"/><path d="M56.2 54.74s0 .01-.01.01c-.47.33-1.22.36-1.89-.21-.55-.46-.76-.96-.83-1.38h.03c.02 0 .05-.01.09-.02.07-.01.17-.03.3-.03h.14c.09 0 .19 0 .31.02.21.03.46.1.7.22.06.03.12.06.18.11.05.02.09.05.13.09.32.24.63.62.87 1.19Z" style="fill:#ff6d75"/><path d="M53.47 53.16zM56.2 54.74c-.24-.57-.55-.95-.87-1.19a.38.38 0 0 0-.13-.09c-.06-.05-.12-.07-.18-.11-.24-.13-.48-.2-.7-.22-.11-.02-.21-.02-.31-.02h-.14c-.13 0-.23.02-.3.03a.2.2 0 0 0-.09.02h-.03c-.09-.59.1-1.03.1-1.03.87-1.23 2.54.58 2.54.58.85.76.68 1.63.09 2.03Z" class="cls-9"/><path d="M56.06 52.76s-1.68-1.82-2.54-.58c0 0-.19.44-.1 1.03.07.43.28.92.83 1.38.67.57 1.42.54 1.89.21.01 0 .01-.01.01-.01.59-.4.76-1.27-.09-2.03Z" style="stroke-miterlimit:10;stroke-width:.75px;fill:none;stroke:#000"/><path d="M66.77 40.6s-6.73 2.63-11.49-1.43c0 0-1.81 3.6-5.97 1.21M109.31 100.13v3.66H85.68v-3.66l6.03-1.77 1.27-3.59h12.44l2.03 5.36h1.86z" class="cls-4"/><circle cx="90.8" cy="103.78" r="2.84" class="cls-3"/><circle cx="103.05" cy="103.78" r="2.84" class="cls-3"/><path d="M-1142.77-314.74H513.61v875.1h-1656.38z" style="stroke:#fff;stroke-width:8px;fill:none;stroke-linecap:round;stroke-linejoin:round"/></svg>