<svg xmlns="http://www.w3.org/2000/svg" id="Calque_1" viewBox="0 0 200.13 128.13"><defs><style>.cls-1,.cls-2,.cls-3,.cls-4,.cls-6,.cls-7{stroke-linecap:round}.cls-1,.cls-2,.cls-3,.cls-4,.cls-7{stroke-linejoin:round}.cls-1,.cls-2{fill:#fff}.cls-1,.cls-4,.cls-6,.cls-7{stroke:#000}.cls-2,.cls-3{stroke:#231f20}.cls-3,.cls-4{fill:none}.cls-11{fill:#fab0b4}.cls-12{fill:#d6d6d6}.cls-6{fill:#bfe6fc;stroke-miterlimit:10}</style></defs><path d="M41.39 96.72zM39.04 70.24c-2.32-1.49-4.37-2.66-5.51-3.92-10.49 1.48-13.02 0-13.02 0-.97 2.53-7.61 1.49-11.19 9.99 0 0-5.68 16.72 1.22 24.4.63.71 1.44 1.24 2.29 1.65 2.03.99 5.39 2.37 7.44 4.43l5.49-4.87c-.7-.84-2.11-2.51-2.97-3.35.74.04 7.71 1.71 18.61-1.86.2-2.03.05-4.44-.29-6.94l4.47 6.84 4.66-2.3c-2.11-2.51-3.26-6.26-5.55-13.32-3.08-9.46-5.64-10.77-5.64-10.77ZM50.23 94.32z" class="cls-12"/><path d="M169.63 67.21c-.79-.16-3.68-1.71-5.78-3.74-2.21-2.16-.49-3.55 1.36-6.21 1.84-2.64.87-3.81 1.37-4.45.51-.65 3.58.07 5.83-2.64.24-.3.49-.55.75-.8 2.1-1.99 4.46-2.27 5.78-2.32 0 0-1.37 6.5-1.46 7.67-.1 1.15-.17 4.72 1.54 5.4 1.57.62 3.37.64 3.8 2.19.42 1.54-1.41 3.76-3.21 3.41 0 0-1.19 3.42-2.05 5.29" class="cls-1"/><path d="M175.69 54.49a2.01 2.01 0 0 0-.8-1.14c-.66-.46-1.66-.72-2.46-.63-.8.09-1.49.61-2.04 1.18-.27.29-.49.58-.58.96-.09.36.01.66.04.99v.23c.03.61.43.96.89 1.04.14.18.3.35.5.49.52.57 1.27.88 2.03.76 1.96.26 3.67-2.17 2.42-3.88Z" class="cls-12"/><path d="M136.44 109.17h47.89c11.18-20.3 5.29-24.15 5.24-24.2h0s0 0 0 0h0s-9.49-11.35-11.18-13.6c-1.69-2.25-4.58-4.91-7.48-5.23-1.75-.19-7.42.75-11.63 1.53-3.2.59-16.12 2.23-17.67 5.1-1.94 3.58-6.75 11.49-6.37 18.89.48 9.54 2.42 9.98 1.21 17.51" style="fill:#fab0b4;stroke:#231f20;stroke-linejoin:round;stroke-linecap:round"/><path d="M171.05 51.38s1-4.5 3.5-6.48c3.02-2.39 5.62-.15 5.62-.15 3.39-1 10.54 3.1 13.34 11.1 2.04 5.84-2.1 9.08-5.51 10.25" class="cls-4"/><path d="M190.79 64.88s-1.54 3.57-4.9 4.43c-2.94.75-6.2 1.41-8.4 3.35" class="cls-4"/><ellipse cx="173.48" cy="55.02" class="cls-7" rx="1.03" ry=".47" transform="rotate(-52.9 173.487 55.014)"/><path d="M174.58 109.17c.84-4.18 2.89-17.96 10.66-25.01" class="cls-3"/><path d="M172.26 80.4s-12.2 26.51-23.41 20.9c-3.88-1.94-6.96-6.65-9.16-11.11-1.19 9.61-.95 18.91-.95 18.91H94.45s.16-2 .45-5.19c.29-3.19.69-7.6 1.19-12.41.2-2.08.44-4.24.68-6.41-4.78.65-8.95.68-10.63-.7-.77-.63-1.11-1.91-1.11-3.62 0-9.46 10.57-32.26 19.68-33.12 0 0 14.34-4.1 22.53-2.31 3.93.87 8.35 3.93 11.79 6.79 3.43 2.86 5.88 5.5 5.88 5.5 3.68 2.69 9.37 25.24 9.37 25.24l8.51-9.29s.27.2.71.52c1.17.86 3.61 2.63 5.8 4.2 1.12.8 2.17 1.55 2.96 2.1Z" style="fill:#ff6d75;stroke-miterlimit:10;stroke:#000"/><path d="M178.04 70.88c.99 1.38 1.21 3.23.39 4.72-.45.82-1.18 1.52-2.4 1.7-3.24.47-8.45-4.35-9.69-7.43-1.24-3.07 1.47-3.6 3.48-3.4 1.78.17 5.41.5 8.21 4.41Z" class="cls-11"/><path d="M178.43 75.61c-.45.82-1.18 1.52-2.4 1.7-3.24.47-8.45-4.35-9.69-7.43-.59-1.47-.15-2.44.7-3.02" class="cls-3"/><path d="M177.05 76.99s-.55 6.43-2.19 11.86M163.49 69.85s-4.73 2.86-6.85 5.35M174.15 77.09s-1.2 5.09-2.39 8.43" class="cls-3"/><path d="M171.42 70.2c0 .21-.07.42-.21.59-.23.29-.62.42-.98.32l-1.88-.52 1.08 1.82c.82 1.37.95 3.05.38 4.55l-.52 1.35c-2.19-1.57-4.64-3.34-5.8-4.2v-4.25c0-.76.29-1.48.8-2.04a2.987 2.987 0 0 1 3.94-.38l2.79 2.01c.26.19.39.47.39.76Z" class="cls-2"/><path d="M154.27 82.87s-2.37 3.19-3.67 6.31" class="cls-3"/><path d="M139.69 90.18c.13-4.6 1.38-8.47 2.39-11.56 1.8-5.5 2.53-10.45 2.8-14.15" class="cls-4"/><path d="M126.6 50.03s-2.61 21.82-4.91 35.49c-2.3 13.67-2 23.58-2 23.58" class="cls-3"/><path d="M131.27 70.94c-.13.24-.14.53-.04.78l.51 1.2c.13.3.08.66-.12.92l-1.04 1.26c-.13.17-.21.38-.2.61l.02.64c0 .32-.15.62-.42.8l-.68.43c-.32.2-.47.57-.4.94 0 .06.02.12.02.18 0 .32-.18.62-.46.78l-1.47.81c-.13.07-.28.12-.44.12-.5 0-1.77-.02-3.33-.12-1.62-.12-3.55-.32-5.21-.71V69.56l.39-.05.89-.11s2.15-3.09 2.55-3.25c.4-.15 3.79-1.15 4.64-.95.53.12.98.89 1.25 1.45.17.36.54.59.95.58.74-.01 1.83-.03 2-.03.18 0 .84 1.11 1.2 1.76.15.27.15.59 0 .86l-.61 1.13Z" class="cls-2"/><path d="M118 79.56v.61s-12.19 3.47-21.25 4.92M106.8 49.88c3.31 7.67-4.03 18.76-4.03 18.76l15.24-.63v1.53M102.77 68.64s-1.99 1.02-4.65 2.89" class="cls-3"/><path d="M146.99 35.32s3.87-3.31 4.49-6.77c.76-4.18-2.76-5.55-2.76-5.55-.78-3.82-8.48-8.65-17.71-7.23-6.74 1.04-7.75 6.75-7.12 10.67" class="cls-4"/><path d="M123.63 23.11s-2.68 3.35-1.78 7.07c.79 3.25 1.84 6.77 1.09 9.92" class="cls-4"/><path d="M132.32 44.9c.57.69 3.57 2.7 6.64 3.68 3.25 1.04 3.71-1.36 5.34-4.54 1.61-3.16 3.26-2.82 3.62-3.64.36-.83-1.92-3.45-.45-7.04.17-.39.29-.76.38-1.15.85-3.08-.1-5.52-.73-6.83 0 0-5.62 4.7-6.71 5.39-1.07.69-4.5 2.61-6.06 1.3-1.41-1.21-2.37-2.95-4.09-2.56-1.72.39-2.93 3.32-1.65 4.89 0 0-2.71 2.34-4.1 4.15l-4.82 6.43s6.9 9.12 15.26 4.08l-2.63-4.16Z" class="cls-1"/><path d="m142.69 29.02 2.7 4.37" class="cls-4"/><ellipse cx="142.19" cy="34.84" class="cls-7" rx="1.14" ry=".52" transform="rotate(-65.12 142.198 34.835)"/><path d="M143.78 45.1s-.39-1.35-6.12-2.61" class="cls-4"/><path d="m130.8 32.21.68.61" class="cls-1"/><path d="m174.14 50.88 1.71 3.18" class="cls-4"/><path d="M167.69 66.33s7.05-.44 11.46 6.03" class="cls-3"/><path d="m155.32 42.42-3.34.45M145.87 52.69l.18-3.37M153.03 49.8l-1.9-1.76M130.41 59.71l-.26 3.37M138.47 71.1l-3.27-.87M137.14 63.5l-2.12 1.49" class="cls-6"/><path d="M164.49 58.26s3.97 1.4 4.58 3.14" class="cls-4"/><path d="M118.99 44.88s7.49 8.56 15.97 4.17" style="stroke-miterlimit:10;fill:none;stroke:#000"/><path d="M56.22 102.6c2.68-.28.76-3.19-3.27-5.72s-5.05-6.06-8.13-15.52c-3.08-9.46-5.64-10.77-5.64-10.77-5.18-3.31-9.99-6.12-2.95-8.08s2.95-10.78 2.95-10.78 1.35-2.65-.34-2.77-2.06-1.9-2.06-1.9 3.99-11.24-9.56-14.56c-13.56-3.31-20 7.7-21 14.73-.99 7.03 2.73 14.1 13.94 16.32 0 0 1.46.59.49 3.12s-7.61 1.49-11.19 9.99c0 0-5.68 16.72 1.22 24.4.63.71 1.44 1.24 2.29 1.65 2.03.99 6.37 3.23 8.41 5.29 2.72 2.75 6.92 6.07 6.14 3.91-.77-2.16-1.91-2.84-1.91-2.84" class="cls-4"/><path d="M32.34 107.33s-.02-.02-.03-.02M17.91 77.82s.66 12.29.05 17.57c0 0 .94-.25 4.63 3.2.11.1.23.22.34.33M28.03 109.07s1.97 1.3 2.6 2.34h0M30.82 112.06c-.18.99-3.99-1.8-4.21-1.96h0M30.64 111.42h0M25.26 101.5h-.01M22.93 98.93h-.03" class="cls-4"/><path d="M30.82 112.06c.04-.19-.04-.41-.18-.63.18.13 2.66 1.85 2.26-.8.37.27.74.32 1.25 0 1.54-1-1.49-3.09-1.8-3.29 1.98.95 3.66-1.49-.85-1.22-2.49.15-4.12-2.07-6.23-4.62M37.14 73.62s5.24 15.03 4.4 23.45h0c-10.9 3.56-17.88 1.89-18.61 1.86.87.84 1.63 1.73 2.33 2.57" class="cls-4"/><path d="m41.45 90.53 4.27 6.44s-.78 8.07.93 5.98c1.71-2.1 1.06-5.2 3.36-2.62s1.87 4.27 2.77 2.6-.86-3.83-.86-3.83" class="cls-4"/><path d="M52.93 101.01s4.27 4.69 2.36.38l-1.5-2.3M20.07 52.81s-3.58-1.78-4.24 1.97 2.65 3.17 2.65 3.17" class="cls-4"/><circle cx="34.01" cy="48.99" r=".88"/><path d="M34.01 44.9s-.24 2.27-2.61 2.13" class="cls-4"/><path d="M34.28 57.82z" class="cls-11"/><path d="M36.19 57.88s2.66.25 2.74-1.31c0 0-.09-.48-.52-.87-.32-.28-.81-.53-1.61-.5-.98.02-1.66.56-1.91 1.15-.01 0 0 .02 0 .02-.31.72.04 1.52 1.3 1.52Z" style="stroke-miterlimit:10;stroke:#000;fill:#fff"/><path d="M34.89 36.67s-3.36 7.66-10.57 8.23c0 0 1.47 4.43-3.9 5.87M32.9 110.62s-1.59-2.29-3.7-3.28M17.95 95.4l-1.68-.73M20.66 66.67s2.53 1.48 13.02 0M20.42 107.14l5.48-4.87M45.72 96.97l4.66-2.3M44.09 45.1l48.55-11.71M44.09 47.6l35.55 25.07" class="cls-4"/></svg>