<svg xmlns="http://www.w3.org/2000/svg" viewBox="0 0 200 128"><defs><style>.cls-4,.cls-5{stroke-miterlimit:10}.cls-10,.cls-4,.cls-5,.cls-9{stroke-width:2px;stroke:#000}.cls-10,.cls-4,.cls-9{fill:#fff}.cls-5{fill:#87f3b9}.cls-9{stroke-linecap:round}.cls-10,.cls-9{stroke-linejoin:round}.cls-13{fill:#d6d6d6;mix-blend-mode:multiply}</style></defs><g style="isolation:isolate"><g id="Calque_1" data-name="Calque 1"><path d="M52.7 10.33h94.61v53.31H52.7z" style="fill:#bfe6fc"/><path d="M147.3 64.92H52.7c-.71 0-1.29-.58-1.29-1.29v-53.3c0-.71.58-1.29 1.29-1.29h94.6c.71 0 1.29.58 1.29 1.29v53.31c0 .71-.58 1.29-1.29 1.29Zm-93.32-2.57h92.03V11.61H53.98v50.74Z"/><path d="M97.59 64.26h4.83v2.68h-4.83z"/><path d="m86.05 66.94-.58 1.88h29.06l-.63-1.88H86.05z"/><path d="M114.53 69.25H85.47c-.14 0-.26-.06-.34-.17a.466.466 0 0 1-.07-.38l.58-1.88c.06-.18.22-.3.41-.3h27.85c.18 0 .35.12.41.29l.63 1.88c.04.13.02.27-.06.39-.08.11-.21.18-.35.18Zm-28.48-.86h27.88l-.34-1.02H86.37l-.31 1.02Z"/><path d="M114.53 69.5H85.47c-.24 0-.43-.19-.43-.43s.19-.43.43-.43h29.06c.24 0 .43.19.43.43s-.19.43-.43.43Z"/><path d="M53.98 11.61v50.74l29.15-50.74H53.98z" style="fill:#87ccf3"/><path d="M49.36 67.93h97.94V92.1H49.36z" style="fill:#baa584;stroke-linejoin:round;stroke:#000"/><ellipse cx="140.7" cy="113.57" class="cls-13" rx="23.75" ry="7.47"/><path d="M120.37 88.2s-1.72 5.25-1.64 7.29c.08 2.04 2.85 5.21 5.81 5.21s3.33-14.31 3.33-14.31l-7.49 1.8ZM161.11 88.2s1.72 5.25 1.64 7.29c-.08 2.04-2.85 5.21-5.81 5.21s-3.33-14.31-3.33-14.31l7.49 1.8Z" class="cls-9"/><path d="m157.01 104.45-11.34-1.86-4.92 2.85-4.92-2.85-11.34 1.86s-1.89 7.88 6.34 11.36c4.38 1.86 5.92.54 9.89.49h.06c3.97.04 5.5 1.36 9.89-.49 8.23-3.48 6.34-11.36 6.34-11.36Z" style="stroke-linejoin:round;stroke-linecap:round;fill:#8987f3;stroke:#000;stroke-width:2px"/><path d="M161.41 88.34c-2.77-11.78-11.78-15.93-11.78-15.93l-8.87.58-8.87-.58s-9.02 4.15-11.78 15.93c0 0 .42 3.16 4.75 5.53l-1.5 10.1s3.38 6.22 16.23 6.61h0c.32.01.63.02.94.02h.48c.31 0 .62 0 .94-.01h0c12.85-.39 16.23-6.61 16.23-6.61l-1.5-10.1c4.33-2.37 4.75-5.53 4.75-5.53Z" style="fill:#f387d5;stroke-linejoin:round;stroke-linecap:round;stroke:#000;stroke-width:2px"/><path d="M159.16 51.13c5.35-1.02-5.17-6.61-5.17-6.61s4.57.12 4.65-1.92c.08-2.04-8.08-1.62-8.08-1.62s5.53-2.28 4.27-3.49c-1.04-.99-9.63.21-12.63.66.75-.84 1.16-1.78.41-2.56-1.84-1.92-12.53 4.98-12.53 4.98h0c-4.57 2.7-6.03 6.8-6.03 6.8s-1.11-1.79-1.68-1.24c-1.16 1.12.96 2.85.96 2.85-1.36-.66-2.28-.52-2.68-.39-.15.05-.26.18-.27.33-.19 1.53 1.83 1.91 1.83 1.91s-6.15 10.5-.41 8.45c0 0-3.57 8.54.68 7.44 2.07 8.98 10.7 11.3 13.48 10.94 2.83-.36 6.01.24 6.01.24 14.79.42 16.67-12.93 16.67-12.93 4.05 2.89.88-5.53.88-5.53 6.31 2.1-.36-8.3-.36-8.3Z" class="cls-9"/><ellipse cx="56.23" cy="114.7" class="cls-13" rx="24.04" ry="7.56"/><path d="M77.44 99.31c-2.86-2.43-8.89 1.16-8.89 1.16l-11.87 6.57-11.87-6.57s-6.02-3.59-8.89-1.16c-2.86 2.43 1.33 12.73 9.55 16.31 4.81 2.09 17.59 2.09 22.4 0 8.23-3.58 12.41-13.88 9.55-16.31Z" style="stroke:#000;stroke-width:2px;stroke-miterlimit:10;fill:#87ccf3"/><path d="M38.15 91.65s-1.6 4.88-1.53 6.77c.07 1.9 2.64 4.84 5.4 4.84s3.09-13.27 3.09-13.29l-6.96 1.67ZM74.37 91.65s1.6 4.88 1.53 6.77c-.07 1.9-2.64 4.84-5.4 4.84s-3.09-13.27-3.09-13.29l6.96 1.67Z" class="cls-4"/><path d="M75.41 91.78C74.4 80.62 64.66 77.09 64.66 77.09h-16.8s-9.74 3.53-10.75 14.69c0 0 2.15 1.7 6.25 1.91 0 .01-1.79 9.62-2.15 11.72 0 0 5.61 5.07 13.95 5.01h2.21c8.34.06 13.94-5 13.95-5.01-.37-2.11-2.15-11.71-2.15-11.72 4.09-.2 6.24-1.9 6.25-1.91Z" style="fill:#b4eac3;stroke:#000;stroke-width:2px;stroke-miterlimit:10"/><path d="M37.66 53.7c3.06-3.24 2.78-8.45-.69-11.26-1.76-1.42-4.18-2.33-7.48-1.72-9.18 1.69-10.19 15.44-9.95 17.85.01-.01 2.43-3.36 5.38-3.1 2.96.26 9.54 1.6 12.65-1.68.03-.03.06-.07.09-.1Z" class="cls-10"/><path d="M44.96 49.47c-.16 0-4.23-1.65-5.36-.65-1.1.97-3.08 5.03-2.6 6.05.49 1.01 2.55 2.92 2.56 2.92l5.64-3.69-.24-4.62Z" class="cls-5"/><path d="M75.05 53.7c-3.06-3.24-2.78-8.45.69-11.26 1.76-1.42 4.18-2.33 7.48-1.72 9.18 1.69 10.19 15.44 9.95 17.85-.01-.01-2.43-3.36-5.38-3.1-2.96.26-9.54 1.6-12.65-1.68-.03-.03-.06-.07-.09-.1Z" class="cls-10"/><path d="M67.75 49.47c.16 0 4.23-1.65 5.36-.65 1.1.97 3.08 5.03 2.6 6.05-.49 1.01-2.55 2.92-2.56 2.92l-5.64-3.69.24-4.62Z" class="cls-5"/><path d="M70.43 48.61c-6.74-7.14-14.07-4.14-14.07-4.14s-7.34-3-14.07 4.14c-6.74 7.14-12.88 29.78 9.98 31.4s3.07 0 3.07 0h5.12c22.86-1.62 16.72-24.26 9.98-31.4Z" class="cls-10"/><path d="M-3562.71-5543.69h6467.34v6437.3h-6467.34z" style="fill:none;stroke:#fff;stroke-width:8px;stroke-linejoin:round;stroke-linecap:round"/></g></g></svg>