<svg xmlns="http://www.w3.org/2000/svg" id="Calque_1" data-name="Calque 1" viewBox="0 0 128 128"><defs><style>.cls-6{stroke-linecap:round;stroke-linejoin:round;stroke:#000;fill:none}</style></defs><path d="M39.71 36.63S34.53 5.19 62.88 5.19c30.53 0 23.45 31.44 23.45 31.44" class="cls-6"/><path d="M42.21 39.88s-2.93-6.87-6-1.25c-3.25 5.95 7.75 11 7.75 11M64.97 11.38s4 18.5-21 20.75M67.72 17.13s2.13 11 12.5 16.5M81.47 37.76s3.75-3.75 5.75 0-4 11.36-7.63 10.61" class="cls-6"/><path d="M43.34 46.26s1.5 17.5 16.5 16.75 20.63-13.13 20.38-18.88" class="cls-6"/><ellipse cx="50.17" cy="42.26" rx="1.27" ry="2.31"/><ellipse cx="66.9" cy="42.26" rx="1.27" ry="2.31"/><path d="M57.22 40.13s.4 1.76-.5 7.56c-.25 1.64 2 1.32 2 1.32" class="cls-6"/><path d="M65.1 56.35c-.44 1.73-2.42 3.04-4.83 3.04-1.67 0-3.17-.65-4.05-1.63 0 0 1.91-3.7 8.89-1.41Z" style="fill:#ff6d75;stroke:#000;stroke-linecap:round;stroke-linejoin:round"/><path d="M65.21 55.63c0 .25-.03.48-.1.72-6.98-2.29-8.89 1.41-8.89 1.41-.56-.62-.88-1.35-.88-2.13 0-2.07 2.22-3.75 4.94-3.75s4.94 1.67 4.94 3.75Z" style="fill:#fab0b4;stroke:#000;stroke-linecap:round;stroke-linejoin:round"/><path d="M47.45 57.3s-7.44-1.25-15.24 9.88c0 0 5.93 2.86 7.84 5.57M29.4 82.08s6.65-4.69 10.27-4.94" class="cls-6"/><path d="M48.03 77.51s-9.74 28.27-21.32 20.51.97-24.12 5.5-30.84" class="cls-6"/><path d="M66.84 74.15c-2.16.58-4.33-.13-5.41-1.65l-12.82 3.43c-.72.19-1.48-.24-1.68-.98s.24-1.48.97-1.67l12.82-3.43c.19-1.86 1.71-3.57 3.87-4.15 2.7-.72 5.41.59 6.03 2.92.62 2.34-1.07 4.81-3.77 5.54Z" style="fill:#d6d6d6;stroke:#000;stroke-linecap:round;stroke-linejoin:round"/><path d="M38.82 80.27s-.11-9.25 5.14-12.5 9.74-.5 10.62 5.13c0 0 1.76 8.75-10.62 3.13" style="fill:#fff;stroke:#000;stroke-linecap:round;stroke-linejoin:round"/><ellipse cx="65.62" cy="70.04" rx="3.25" ry="2.24" style="fill:#76ac75" transform="rotate(-16.74 65.592 70.027)"/><path d="M65.21 56.38s-.07-.03-.1-.03M78.86 50.36l2.48 1.53M79.07 73.32l1.03 11.32s11.85-6.69 16.6-2.56c0 0 .38-4.51-.98-15.7-1.05-8.61-14.37-14.49-14.37-14.49-6.56 15.94-20.64 11.06-20.64 11.06M41.25 91.38v14M81.03 84.15v21.23M95.5 81.32l-.83 24.06M21.81 105.38h85.79v14.58H21.81z" class="cls-6"/><path d="M73.01 110.53H56.38l-2.51-19.14h21.65l-2.51 19.14z" style="fill:#76ac75;stroke:#231f20;stroke-linecap:round;stroke-linejoin:round"/><path d="M52.37 90.02h24.67v2.72H52.37z" style="fill:#d6d6d6;stroke:#231f20;stroke-linecap:round;stroke-linejoin:round"/><path d="m38.82 42.26 1.01 1.88M83.61 40.13l-.95 2.32M46.74 36.63s2.16-2.47 5.62-.69M64.7 36.63s1.64-1.56 4.83 0" class="cls-6"/><path d="M-5458.06-3043.9h6467.34v6437.3h-6467.34z" style="stroke:#fff;stroke-width:8px;fill:none;stroke-linecap:round;stroke-linejoin:round"/></svg>