<svg xmlns="http://www.w3.org/2000/svg" id="Calque_1" viewBox="0 0 128 128"><defs><style>.cls-2,.cls-4,.cls-6{stroke:#000;stroke-linecap:round;stroke-linejoin:round}.cls-2{fill:#ff6d75}.cls-6,.cls-9{fill:#fff}.cls-4{fill:none}.cls-10{fill:#fab0b4}.cls-6{stroke-width:.84px}</style></defs><path d="m43.31 92.07-5.67 4.77 6.44 4.98-1.09-3.29 4.04 3.1.9-.08-2.4-3 3.38 2.6 1.4.84.46-1.12-3.9-3.83.34-.41 3.36 2.8 1.3 1.05.73-.71-2.33-2.82 1.94-.3v-.77l-4.24-.39-2.85-1.75-1.81-1.67zM70.25 80.93l-4.81 2.71v2.44l8.61-2.41-3.8-2.74z" class="cls-9"/><path d="M62.94 117.29c-7.08-4.81-35.56-.5-40.34-11.36-4.78-10.86 4.28-15.54 4.28-15.54s1.54 2.05 4.5 3.74c2.96 1.69 5.47 2.67 6.81 3.77 3.38 2.83 7.63 6.64 6.76 4.23-.23-.63-.48-1.15-.74-1.58l1.22.54h.02c1.18.77 2.67 1.63 3.15 1.39 1.13.55 2.3 1.1 3.45 1.62 3.7 1.69 7.33 3.1 9.92 3.2.27 0 1.14.53 1.94 1.05.59.39 1.14.77 1.36.92.32.22.64.46 1 .73 6.46 4.91 3.78 12.07-3.31 7.28Z" class="cls-2"/><path d="M44.08 100.32c.1.05.21.09.32.14.13.06.25.12.38.18" class="cls-4"/><path d="M52.57 100.62c-.59.37-1.01.32-1.44 0 .47 3.06-2.39 1.08-2.6.93.16.26.25.51.21.73-.02.1-.06.16-.14.2-.48.24-1.97-.61-3.15-1.39h-.02c-.23-.15-.46-.31-.66-.44-.48-.32-.83-.59-.89-.63.06.09.14.19.2.31.05.07.09.14.13.23.26.42.51.95.74 1.58.87 2.41-6.98-4.42-7.08-4.51-.32-.27-.67-.55-1.02-.82l6.62-5.35.12.16c1.88 2.25 3.56 3.96 5.93 3.82 5.21-.32 3.27 2.5.98 1.4.36.23 3.85 2.65 2.08 3.8Z" class="cls-4"/><path d="M42.74 98.84s.52.31 1.13 1.16h0M64.42 71.47c.88 2.45 1.68 4.35 2.61 5.87 1.09 1.8 2.37 3.11 4.17 4.23 4.65 2.92 6.86 6.27 3.77 6.6M26.65 89.81C16.6 81.72 24.1 61.42 24.1 61.42c4.12-9.8 11.79-8.6 12.91-11.52M46.87 96.84c2.44 1.13 3.33 3.08 4.27 3.78M50.49 96.82s-.02-.02-.03-.02M45.53 98.84s2.28 1.5 3 2.7h.01M43.88 100.01h0M48.53 101.55h-.01M42.32 90.09h-.01M39.63 87.13h-.03" class="cls-4"/><path d="M61.46 80.01s-1.35 3.04.76 7.97c0 0 6.35 13.12 1.68 20.38 0 0 0 .02-.02.03-4.01-2.38-4.22-.09-9.25-2.86-1.04-.57-1.88-1.04-2.58-1.42l-3.3-1.82c.04-.22-.05-.47-.21-.73.21.15 3.07 2.13 2.6-.93.43.32.86.37 1.44 0 1.77-1.15-1.72-3.56-2.08-3.8 2.29 1.1 4.23-1.72-.98-1.4-2.37.14-4.05-1.57-5.93-3.82l-.12-.16-6.62 5.35s-6.15-2.7-8.53-4.92c0 0-2.49-2.51-4.03-4.42-7.09-8.79-.5-28.89 2.71-31.93 3.2-3.04 10.02-5.62 10.02-5.62 6.57 2.24 12.11 1.23 13.22.17.05-.04 0 .05 0 0-.04-.13 2.46.34 8.17 4.34h.02c.13.09.25.19.38.29.08.07.16.14.25.23 5.69 5.16 11.37 25.23 11.37 25.23-.05.1-.15.22-.3.35-1.31 1.2-6.13 3.54-6.13 3.54L61.47 80Z" class="cls-2"/><path d="M65.17 84.28s-.9 9.32 1.08 6.9 1.23-6 3.88-3.03 2.16 4.93 3.2 3c1.04-1.94-.99-4.42-.99-4.42M74.26 89.53s4.93 5.41 2.73.44l-1.73-2.66" class="cls-4"/><path d="M70.72 108.95c-2.08.62-2.86 1.92-2.86 1.92 1.13 1.3 2.37 3.77 2.2 5.24-.37 3.3 18.62-1.13 15.01-7.23-1.83-3.09-9.82-1.16-9.82-1.16" class="cls-2"/><path d="M73.63 94.37s-3.79-.85-4.08 7.1c-.07 1.99 0 7.99 0 7.99s5.06-2.01 9.76-2.3c0 0 4.62-7.68 5.87-17.01 1.24-9.33-9.36-6.58-9.36-6.58l-13.88 3.68s6.25 12.79 1.95 21.11l1.35.91s2.12-1.78 3.93-4.39" class="cls-2"/><path d="M61.46 80.01c-1.86-3.38-4.73-10.48-6.59-14.02" style="stroke-linecap:round;stroke-linejoin:round;stroke:#000;fill:#fce9b9"/><path d="M33.84 62.77s.76 14.18.05 20.28c0 0 1.09-.28 5.35 3.69.13.12 1.89 1.81 2.02 1.94l2.32 2.92" class="cls-4"/><path d="m57.22 47.41-.03-.02.02-.02s0 .02.02.03Z" class="cls-10"/><path d="M37.36 49.41c1.12-2.92 0-10.98 0-10.98-7.35-10.96-4.61-19.77 1.94-24.69 6.54-4.93 20.8-8.65 29.15 5.12 8.36 13.76-4.07 19.68-4.07 19.68s-1.15 1.76.13 3.23c1.29 1.48-1.97 2.53-1.97 2.53s-1.74 5.86-5.46 7.73c0 0-2.07 1.12-4.42.49s-4.65-2.62-4.65-2.62" style="fill:#fff;stroke-linecap:round;stroke-linejoin:round;stroke:#000"/><path d="M45.59 31s-4.13-2.06-4.89 2.27c-.77 4.33 3.05 3.66 3.05 3.66" class="cls-4"/><circle cx="60.1" cy="38.72" r="1.02"/><path d="M58.91 35.2s2.06-1.66 3.87.39M43.28 33.48l.91.33" class="cls-4"/><circle cx="53.42" cy="38.28" r="2.13" class="cls-10"/><path d="M57.2 47.38s0 .02-.02.02c-.63.45-1.63.49-2.53-.28-.74-.62-1.02-1.28-1.11-1.85h.04c.02 0 .06-.02.12-.02.09-.02.22-.04.4-.05h.18c.12 0 .25 0 .41.02.29.04.61.13.93.3.08.05.16.08.24.15.06.03.12.07.17.12.43.32.85.83 1.16 1.59Z" style="fill:#ff6d75"/><path d="M53.55 45.27zM57.2 47.38c-.32-.76-.73-1.27-1.16-1.59a.657.657 0 0 0-.17-.12c-.08-.06-.16-.1-.24-.15-.32-.17-.65-.26-.93-.3-.15-.02-.28-.03-.41-.02h-.18c-.18 0-.31.03-.4.05-.05 0-.09.02-.12.02h-.04c-.12-.79.13-1.38.13-1.38 1.16-1.65 3.4.78 3.4.78 1.14 1.02.91 2.17.12 2.71Z" class="cls-10"/><path d="M57.01 44.75s-2.24-2.43-3.4-.78c0 0-.25.59-.13 1.38.09.57.37 1.23 1.11 1.85.9.76 1.89.72 2.53.28.02 0 .02-.02.02-.02.79-.54 1.02-1.69-.12-2.71Z" style="stroke-miterlimit:10;fill:none;stroke:#000"/><path d="M71.31 28.5s-8.99 3.51-15.35-1.91c0 0-2.41 4.81-7.97 1.61" class="cls-4"/><path d="M113.46 101.65v3.98H87.74v-3.98l6.56-1.92 1.39-3.91h13.54l2.22 5.83h2.01z" class="cls-6"/><path d="M87.74 103.83h25.72" style="stroke-width:.84px;fill:none;stroke-linecap:round;stroke-linejoin:round;stroke:#000"/><circle cx="93.31" cy="105.63" r="3.1" class="cls-6"/><circle cx="106.65" cy="105.63" r="3.1" class="cls-6"/></svg>