<svg xmlns="http://www.w3.org/2000/svg" id="Calque_1" data-name="Calque 1" viewBox="0 0 200.13 128.13"><defs><style>.cls-1{fill:#d6d6d6}.cls-1,.cls-2,.cls-3,.cls-4,.cls-5,.cls-7{stroke:#000;stroke-linecap:round;stroke-linejoin:round}.cls-2{fill:#b4eac3}.cls-3,.cls-7{fill:#fff}.cls-4{fill:none}.cls-5,.cls-7{stroke-width:.75px}</style></defs><path d="m171.98 40.92-9.76 2.55v.76c0 2.83-2.29 5.11-5.11 5.11h-47.05c-2.82 0-5.1-2.28-5.1-5.11V18.52c0-2.82 2.28-5.11 5.1-5.11h47.05c2.82 0 5.11 2.29 5.11 5.11V34.5l9.76 6.42Z" class="cls-3"/><path d="M87.07 124.47H43.73c-.42-5.61-.53-10.98-.09-15.36.86-8.61 4.69-15.66 7.34-20.35 1.66 1.38 4.43 2.52 6.5 3.04 3.41.84 4.81.97 8.25.84.54-.06 1.1-.09 1.59-.14 4.97-.56 8.16-1.13 8.16-1.13s6.92 15.34 9.7 24.53c.58 1.9 1.22 4.94 1.89 8.57Z" class="cls-1"/><path d="M72.82 44.71c-.49.22-1 .38-1.5.51-4.25 1.01-9.08-.8-10.73-1.48l.51-7.22.05-.81 11.16-2.15.29 2.32.94 7.85c-.05.14-.09.31-.14.43-.04.09-.05.18-.09.25-.02.04-.02.07-.04.11h-.02l-.43.2Z" class="cls-3"/><path d="M101.02 116.54c.03.35.03.7.02 1.06-.02.94-.07 1.89-.08 2.83 0 .41 0 .82.12 1.21s.36.76.73.94.86.12 1.12-.2c.22-.28.22-.67.21-1.03-.02-.47-.03-.94-.05-1.41-.02-.64-.04-1.27-.09-1.91-.1-1.29-.35-2.63-1.15-3.64-.25-.32-1.47-1.14-1.47-.21 0 .36.29.76.4 1.1.13.41.22.83.25 1.26Z" class="cls-7"/><path d="M101.76 117.14c.03.35.03.7.02 1.06-.02.94-.07 1.89-.08 2.83 0 .41 0 .82.12 1.21s.36.76.73.94.86.12 1.12-.2c.22-.28.22-.67.21-1.03-.02-.47-.03-.94-.05-1.41-.02-.64-.04-1.27-.09-1.91-.1-1.29-.35-2.63-1.15-3.64-.25-.32-1.47-1.14-1.47-.21 0 .36.29.76.4 1.1.13.41.22.83.25 1.26Z" class="cls-7"/><path d="M92.53 104.14c.11-.54 1.76-.95 2.49-2.01 2.32 1.36 6.22 8.78 7.19 10.73.65 1.32 1.33 2.69 1.61 4.15.3 1.54.35 3.11.43 4.68.01.24.02.5-.05.73-.14.42-.69.69-1.07.4-.83-.62-.88-1.92-.96-2.87-.07-.88-.09-1.78-.31-2.65-.21-.85-.66-1.54-1.23-2.2-.41-.48-.79-.96-1.21-1.43a4.91 4.91 0 0 0-.51-.51c-.25-.21-.53-.37-.85-.42-.27-.04-.68 0-.89.21-.22.22-.1.57-.05.83.07.31.2.61.34.9.24.49.53.98.63 1.53.02.09.03.19.03.28.04 1.01-.97 2.22-1.83 1.13-.19-.24-.31-.51-.44-.78-.61-1.29-1.49-2.46-1.85-3.85-.23-.88-.37-1.79-.5-2.69-.51-3.4-1.27-4.55-.95-6.15Z" class="cls-7"/><path d="M98.9 113.16c-.12-.18-.25-.35-.39-.51-.25-.29-.54-.56-.9-.68s-.8-.06-1.05.22c-.21.24-.24.59-.2.91.11.78.63 1.42 1.09 2.06.24.33.46.67.62 1.04-.09-.54-.39-1.04-.63-1.53-.14-.29-.27-.58-.34-.9-.06-.26-.18-.61.05-.83.21-.2.62-.25.89-.21.32.05.6.21.85.42Z" class="cls-7"/><path d="M65.15 4.77s0 2.08-.75 3.49h-.02M61.11 9.13c-1.65-.95-2.76-3.37-2.76-3.37" class="cls-4"/><path d="M55.86 29.23h-.02c-.21-.04-1.69-.43-2.55-2.76-.94-2.51-2.01-2.22-2.11-4.82-.07-2.46 2.48-1.39 2.76-1.25" class="cls-2"/><path d="M74.96 7.72s-1.61.96-3.4 1.29" class="cls-4"/><path d="M57.71 10.15c1.03.05 2.22-.19 3.41-1.02.5.3 1.02.45 1.58.39.79-.08 1.32-.61 1.68-1.27.02.02.04.03.06.03.22.21 1.65 1.46 3.41-.24.92 1.1 2.37 1.22 3.71.96.81.62 1.9.55 1.9.55.06.09.15.2.19.29 3.3 4.65 3.62 7.81 3.64 8.15.2-.83.35-1.62.46-2.37-.18 1.4-.44 2.4-.5 2.61v.02l-.01.04h.02c.05 1.32.06 4.73-.48 8.26-.46 2.93-1.34 5.96-2.95 7.9-3.72 4.53-6.14 4.62-6.5 4.59-.37.09-2.92.47-7.31-3.45-1.89-1.67-3.23-4.52-4.13-7.35-1.08-3.4-1.59-6.77-1.74-8.09h.02c-.03-.15-.04-.3-.04-.47.05.13.09.2.09.2-.04-.55-.05-1.09-.03-1.63.36-2.74 2.86-7.27 3.15-8.05l.37-.07Z" class="cls-3"/><path d="M54.19 18.27c-.07.52-.09.99-.06 1.43" class="cls-4"/><path d="M54.16 20.16s0-.02-.02-.04v-.02c-.12-.26-.71-1.59-1.12-3.42v-.06c-.82-3.65-.85-9.16 5.22-11.62 0 0 .38-2 2.94-1.69 0 0 2.97-3.24 6.55-.58 2.48-.7 3.16 1.21 3.16 1.21 6.85 1.61 7.29 7.79 6.89 11.48-.01.08-.03.13-.02.19" class="cls-4"/><path d="M73.72 10.22s3.52 5.13 3.52 8.08M54.08 19.6v.02c0 .06.02.23.06.49v.06M77.26 18.3v-.04M77.24 17.74s.01.19.02.51" class="cls-4"/><path d="M77.1 28h.02c.2-.08 1.6-.68 2.1-3.12.54-2.63 1.65-2.51 1.34-5.09-.31-2.44-2.66-.99-2.92-.81" class="cls-2"/><path d="M69.3 6.02c-.45.83-.89 1.45-1.31 1.88-.05.06-.09.12-.14.14M64.44 8.29l-.04-.03" class="cls-4"/><path d="M66.82 18.01s.79 7.09 2.33 10.65c0 0-.3.73-2.61.28" class="cls-3"/><ellipse cx="62.06" cy="21.4" class="cls-3" rx=".25" ry=".71" transform="rotate(-4.42 62.104 21.47)"/><path d="M43.98 75.29a54.89 54.89 0 0 0 4.52-5.41c.07.81.04 2.57-.07 4.8-.18 4.47-.6 10.82-.85 14.86a60.07 60.07 0 0 1 2.68 4.29c.52.9.6 2.01.18 2.97-.05.13-.11.27-.18.4.07.04.13.05.2.07 7.76 2.48 16.21 2.77 24.16.94 1.61-.36 3.29-.89 4.29-2.28.16-.24.33-.49.43-.76 2.06 2.59 4.25 5.1 6.59 7.47 1.99 2.01 5.08 2.46 7.58 1.12 1.86-1 2.93-2.9 2.93-4.85 0-.92-.24-1.86-.74-2.73a96.766 96.766 0 0 0-4.45-6.93c-.89-1.27-2.53-3.4-3.44-4.56-.4-.51-.6-1.16-.56-1.81.27-4.47 2.58-24.07-2.88-31.52-.19-.25-.33-.56-.54-.8-2.33-2.37-7-5.21-9.95-6.39-.2.13-.4.24-.6.34h-.02l-.43.2c-.49.22-1 .38-1.5.51-4.25 1.01-9.08-.8-10.73-1.48-.38-.16-.58-.27-.58-.27-2.66.34-5.28.92-7.84 1.77-2.79.94-5.23 2.04-7.55 3.89-2.33 1.9-4.42 4.11-6.39 6.39-.96 1.1-1.88 2.23-2.81 3.37-.45.54-.9 1.09-1.36 1.65" class="cls-2"/><path d="M73.87 44.17c-.2.13-.4.24-.6.34h-.02a9.478 9.478 0 0 1-1.93.71l1.59-.65.4-.16.56-.24Z" class="cls-3"/><path d="M82.39 69.97c-.09 2.59-1.67 18.98-2.1 21.55-.25 1.5-.49 3.13-1.39 4.4-.99 1.39-2.68 1.92-4.29 2.28" class="cls-4"/><path d="m66.21 106.24-5.27-2.5c-.78-.37-1.58-.68-2.35-1.08-.38-.2-.76-.42-1.11-.69-.32-.24-.74-.57-.15-.64.39-.05.8.02 1.19.05.6.05 1.27.1 1.87-.05.33-.08.66-.29.8-.61.17-.42-.05-.91-.4-1.19-.01 0-.03-.02-.04-.03-.37-.28-.85-.38-1.3-.46-1.47-.27-3-.34-4.45-.71-.84-.21-1.57-.57-2.44-.7-.7-.1-1.41-.14-2.12-.11l-.95-1.05c.03-.05.05-.08.05-.08l-.88-1c-1.19 1.88-2.39 3.76-3.59 5.64.75.58 1.23.94 1.24.92 0 0 0-.01.02-.03.52 2.63 2.37 5.35 4.52 6.68.22.14.45.26.62.45.14.14.24.32.34.49.59 1.01 1.14 2.03 1.65 3.08.32.66.73 2.22 1.64 2.24.63.02 1.07-.68.79-1.23-.51-1.01-1.04-2.02-1.58-3.02-.2-.37-.44-.73-.59-1.12-.05-.12-.2-.42-.12-.56.39-.7 1.36.61 1.61.9.46.53.93 1.05 1.39 1.58.66.74 1.33 1.47 2.01 2.19.43.45.97 1.33 1.71 1.01.52-.22.68-.93.29-1.34-.22-.23-.43-.46-.65-.69a.923.923 0 0 0-.15-.25 63.63 63.63 0 0 1-2.11-2.56c-.34-.44-.68-.87-1.01-1.31-.14-.19-.98-.86-.69-1.13.33-.31 1.24.66 1.48.82l2.01 1.35c.9.6 1.77 1.24 2.67 1.84.56.37 1.51 1.3 2.18.67.36-.34.34-.97-.04-1.28-.04-.05-.07-.1-.12-.14-1.13-1.1-2.4-2.03-3.65-2.98-.62-.46-1.23-.93-1.82-1.43-.31-.26-.6-.52-.9-.79-.12-.11-.48-.33-.34-.53.14-.19.56 0 .71.06.41.16.78.46 1.19.61.7.25 1.39.5 2.09.76.97.36 1.94.72 2.9 1.08.58.22 1.45.84 2.03.32.42-.38.33-1.19-.19-1.43Z" class="cls-7"/><path d="M43.98 75.29c-1.43 1.52-2.91 2.97-4.42 4.4 3.06 3.2 5.74 6.46 8.02 9.84a60.07 60.07 0 0 1 2.68 4.29c.52.9.6 2.01.18 2.97-.05.13-.11.27-.18.4-.61 1.45-1.3 2.86-2.13 4.22a2.546 2.546 0 0 1-3.24.98c-4.18-1.94-8.09-4.54-11.64-7.44-2.99-2.44-6.03-5.1-7.87-8.54-3.09-5.75-.78-12.32 2.42-17.48 1.83-2.97 4.05-5.7 6.28-8.4" class="cls-2"/><path d="m39.56 79.69-5.48-4.87" class="cls-4"/><path d="m68.55 46.13-1.48 52.8" class="cls-1"/><ellipse cx="73.55" cy="20.51" class="cls-3" rx=".25" ry=".71" transform="rotate(-4.42 73.69 20.49)"/><path d="m82.39 18.38 9.33-3.17M80.61 28.34l6.72 5.2" class="cls-5"/><path d="M122 20.51h5.14l7.69 21.73h-4.92l-1.43-4.47h-8l-1.47 4.47h-4.75l7.76-21.73Zm-.3 13.52h5.56l-2.74-8.55-2.82 8.55ZM144.36 25.88h3.85l5.77 16.3h-3.69l-1.08-3.35h-6l-1.1 3.35h-3.56l5.82-16.3Zm-.22 10.14h4.17l-2.06-6.41-2.11 6.41Z"/><path d="M69.58 33.28s-1.96 1.2-4.86 0" class="cls-4"/><path d="m49.14 19.88-9.58-4.67M50.71 28l-9.94 6.74M48.05 23.57l-7.28 1.07M83.33 23.19l6.86 1.45" class="cls-5"/><path d="m191.07 106.67-7.91 2.07v.62c0 2.29-1.86 4.14-4.14 4.14h-27.64c-2.29 0-4.14-1.85-4.14-4.14V88.51c0-2.29 1.85-4.14 4.14-4.14h27.64c2.29 0 4.14 1.86 4.14 4.14v12.96l7.91 5.21Z" class="cls-3"/><ellipse cx="158.14" cy="106.34" rx="2.71" ry="2.16" transform="rotate(-17.53 158.107 106.315)"/><path d="M160.04 91.52h.76v14.55h-.76z"/><ellipse cx="169.32" cy="104.96" rx="2.71" ry="2.16" transform="rotate(-17.53 169.274 104.949)"/><path d="M171.98 104.69h-.76V90.26l.76-.12v14.55z"/><path d="m160.04 91.52 11.94-1.4v3.21l-11.94 1.39v-3.2z"/><rect width="26.25" height="26.25" x="107.13" y="66.56" rx="5.15" ry="5.15" style="fill:#87f3b9"/><path d="M133.38 77.61v11.52a3.7 3.7 0 0 1-3.69 3.69h-18.88a3.7 3.7 0 0 1-3.69-3.69V70.25a3.7 3.7 0 0 1 3.69-3.69h18.88" style="stroke-width:2px;fill:none;stroke:#000;stroke-linecap:round;stroke-linejoin:round"/><path d="m110.76 74.32 9.49 13.61 16.03-21.37" style="stroke-width:3px;fill:none;stroke:#000;stroke-linecap:round;stroke-linejoin:round"/></svg>