<svg xmlns="http://www.w3.org/2000/svg" id="Calque_1" data-name="Calque 1" viewBox="0 0 128 128.13"><defs><style>.cls-1{fill:none}.cls-1,.cls-3{stroke:#000;stroke-linejoin:round}.cls-5{fill:#87ccf3}.cls-3{stroke-linecap:round;stroke-width:2px;fill:#fff}</style></defs><path d="M55.87 43.04v-7.97h18.21v7.88l-18.21.09z" class="cls-3"/><path d="M88.16 70.04V60.8c-.2-.67-.42-1.35-.65-2.02-.51-1.51-1.1-3-1.76-4.44-.75-1.61-1.6-3.18-2.59-4.66-2.41-3.64-5.59-5.89-8.74-8.75 0 0-2.12 1.18-9.44 1.18s-9.1-1.19-9.1-1.19c-5.38 4.88-9.56 9.28-12.25 15.65-.3.7-.58 1.43-.84 2.19-.24.67-.46 1.34-.67 2.04v49.48c0 4.73 10.31 8.55 23.02 8.55s23.03-3.82 23.03-8.55c0 0 0-25.92-.01-40.24Zm-3.1 38.3c-1.63.76-5.5 1.42-7.72 1.94-3.54.81-7.72 1.29-12.2 1.29s-8.66-.48-12.19-1.29c-2.37-.56-6.56-1.27-8.24-2.08V60.76c4.2 1.49 12.95 2.44 20.43 2.44s15.7-.9 19.92-2.32v47.46Z" style="stroke-linecap:round;stroke-width:2px;fill:#ff6d75;stroke:#000;stroke-linejoin:round"/><path d="M54.39 12.81h21.53c1.89 0 3.43 1.54 3.43 3.43v18.83H50.96V16.24c0-1.89 1.54-3.43 3.43-3.43Z" class="cls-3"/><path d="M53.64 12.81v15.07M55.95 12.81v15.07M58.26 12.81v15.07M60.57 12.81v15.07M62.88 12.81v15.07M65.19 12.81v15.07M67.5 12.81v15.07M69.81 12.81v15.07M72.12 12.81v15.07M74.42 12.81v15.07M76.73 12.81v15.07" class="cls-1"/><path d="M85.06 60.88V68c-10.56 3.63-31.53 3.2-40.35 0v-7.23c4.2 1.49 12.95 2.44 20.43 2.44s15.7-.9 19.92-2.32Z" style="fill:#fab0b4;stroke-linecap:round;stroke-width:2px;stroke:#000;stroke-linejoin:round"/><path d="M55.6 85.38h-2.45v1.29h2.79v.91h-3.82v-5.04h3.69v.89h-2.67v1.07h2.45v.88Zm-2.18-3.24.66-1.02h1.09l-1.04 1.02h-.7ZM59 87.72c-.72 0-1.27-.2-1.65-.59-.51-.48-.77-1.17-.77-2.08s.25-1.62.77-2.08c.38-.39.93-.59 1.65-.59s1.27.2 1.65.59c.51.46.76 1.15.76 2.08s-.25 1.6-.76 2.08c-.38.39-.93.59-1.65.59Zm.99-1.35c.24-.31.37-.75.37-1.31s-.12-1-.37-1.31-.58-.46-.99-.46-.75.15-1 .46c-.25.31-.37.74-.37 1.31s.12 1 .37 1.31c.25.31.58.46 1 .46s.75-.15.99-.46ZM64.04 86.85c.25 0 .45-.03.61-.08.29-.1.44-.3.44-.58 0-.17-.07-.29-.22-.39-.15-.09-.38-.17-.69-.24l-.53-.12c-.52-.12-.89-.25-1.09-.39-.34-.23-.51-.6-.51-1.09 0-.45.16-.83.49-1.12s.81-.45 1.45-.45c.53 0 .98.14 1.36.42s.57.69.59 1.23h-1.01c-.02-.3-.15-.52-.4-.65-.16-.08-.37-.13-.61-.13-.27 0-.49.05-.65.16-.16.11-.24.26-.24.46 0 .18.08.31.24.4.1.06.32.13.66.21l.87.21c.38.09.67.21.86.37.3.24.45.58.45 1.03s-.18.84-.53 1.15c-.35.3-.85.46-1.49.46s-1.17-.15-1.55-.45-.56-.71-.56-1.24h1c.03.23.09.4.19.52.17.21.46.31.88.31ZM66.8 82.55h1.05v5.04H66.8v-5.04ZM72.9 87.58h-1.05L69.79 84v3.58h-.98v-5.04h1.1l2.01 3.52v-3.52h.98v5.04ZM77.39 85.38h-2.45v1.29h2.79v.91h-3.82v-5.04h3.69v.89h-2.67v1.07h2.45v.88Z" class="cls-5"/></svg>