<svg xmlns="http://www.w3.org/2000/svg" id="Calque_1" viewBox="0 0 128.13 128"><defs><style>.cls-1,.cls-2{fill:#d6d6d6;stroke:#000;stroke-linecap:round;stroke-linejoin:round;stroke-width:2px}.cls-2{fill:#ffd4ad}</style></defs><path d="M77.87 38.01h0l-.49-.36a2.604 2.604 0 0 1-1.06-2.02c.1.96.71 2 1.55 2.38Z" style="fill:none;stroke:#000;stroke-linecap:round;stroke-linejoin:round;stroke-width:2px"/><path d="M97.26 45.62v14.35H90.7V48.34h-6.27v20.89h-6.56V38l6.27 4.63.04.03c1.04.77 2.47 1.44 3.39.6l6.56-.78c1.73 0 3.14 1.4 3.14 3.14ZM88.14 23.87v14.37c-.19-.36-.45.41-.8.15l-5.71-4.22v-9.15a2.662 2.662 0 0 0-2.66-2.66c-.29 0-.57.05-.83.13.55-1.31 1.83-2.24 3.34-2.24h3.04c2 0 3.62 1.62 3.62 3.62Z" class="cls-1"/><circle cx="85.3" cy="13.04" r="4.5" class="cls-1"/><path d="M89.7 73.23v.94H77.87v-4.81c.31-.08.64-.12.97-.12h6.88c2.19 0 3.98 1.8 3.98 3.99ZM102.53 63.97v.94H90.7V60.1c.31-.08.64-.12.97-.12h6.88c2.19 0 3.98 1.8 3.98 3.99Z" class="cls-1"/><path d="m122.52 24.5-21.76 13.17V65.1h-3.68V39.9L70.05 56.26v26.96h-3.69V58.49L39.33 74.85v26.49h-3.69V77.09L10.97 92.02c-.86.52-1.99.24-2.51-.62l-.02-.02c-.52-.86-.24-1.99.62-2.52l111.55-67.51c.86-.52 1.99-.25 2.51.62l.02.02c.52.86.24 1.99-.62 2.51Z" class="cls-2"/><path d="M121.96 56.04v63.42H14.45v-9.06H29.8v-9.06h15.36v-9.06h15.36v-9.06h15.36v-9.06h15.36V65.1h15.36v-9.06h15.36z" class="cls-2"/><path d="M90.28 43.29c-.07.14-.15.27-.24.39-.1.14-.22.27-.35.38-.91.84-2.33.95-3.37.18l-.04-.03L77.87 38h0c-.84-.38-1.45-1.42-1.55-2.38-.01-.09-.01-.18-.01-.27V25.01c0-1.18.77-2.18 1.83-2.52h0c.26-.09.54-.14.83-.14a2.662 2.662 0 0 1 2.66 2.66v9.15l7.85 5.8c.35.26.61.58.8.94.36.74.38 1.63 0 2.39Z" class="cls-1"/></svg>