<svg xmlns="http://www.w3.org/2000/svg" id="Calque_1" viewBox="0 0 128 128"><defs><style>.cls-4,.cls-5{stroke-width:2px;stroke:#000;stroke-linecap:round;stroke-linejoin:round;fill:none}.cls-5{stroke-width:3px}</style></defs><path d="M5.38 18.87h117.24v15.84H5.38z" style="stroke:#000;stroke-linecap:round;stroke-linejoin:round;stroke-width:2px;fill:#ff6d75"/><path d="M5.38 34.7h117.24v81.12H5.38z" style="fill:#fff;stroke:#000;stroke-linecap:round;stroke-linejoin:round;stroke-width:2px"/><path d="M18.29 12.17v12.92M109.7 12.17v12.92M48.76 12.17v12.92M79.23 12.17v12.92" class="cls-5"/><circle cx="64" cy="75.27" r="18.27" style="fill:#f3d587;stroke:#000;stroke-linecap:round;stroke-linejoin:round;stroke-width:2px"/><path d="M64 107.81V97.52M40.99 98.28 48.26 91M31.46 75.27h10.29M40.99 52.25l7.27 7.28M64 42.72v10.29M87.01 52.25l-7.27 7.28M96.54 75.27H86.25M87.01 98.28 79.74 91M87.01 98.28 79.74 91M64 107.81V97.52M40.99 98.28 48.26 91M31.46 75.27h10.29M40.99 52.25l7.27 7.28M64 42.72v10.29M87.01 52.25l-7.27 7.28M96.54 75.27H86.25" class="cls-4"/></svg>