<svg xmlns="http://www.w3.org/2000/svg" id="Calque_1" viewBox="0 0 304.08 239.01"><defs><style>.cls-10,.cls-2,.cls-3,.cls-4,.cls-5,.cls-7,.cls-8{stroke:#fff;stroke-width:.5px;stroke-miterlimit:10}.cls-2{fill:#f3d587}.cls-3{fill:#ff6d75}.cls-4{fill:#87ccf3}.cls-5{fill:#bbfedb}.cls-7{fill:#f3dfa9}.cls-8{fill:#fab0b4}.cls-10{fill:none}</style></defs><path d="m234.16 189.61-.01.05-.17 1.1.18-1.15zM203.17 174.25l.33.43-.22-.3-.11-.13zM216.27 157.46l-.29-.76.39 1.03-.1-.27zM204.92 181.59l.08-.08.28-.28-.36.36zM208.24 186.24l.02-.05.11-.4-.13.45zM231.18 156.86l-.97.17 2.62-.45-1.65.28zM197.1 23.04l-.69-.82h.01l.68.82zM165.78 161.89l.06-.6-.06.7v-.1zM152.22 150.75l.6-.15-.02.01-.58.14zM158.44 160.39l-1.36.42 1.33-.42h.03zM204.91 151.58l-.23-1.07.24 1.12-.01-.05zM165.32 160.94l-.42-.28.94.63-.52-.35zM193.51 167.41l-.03-.2-.16-1.38.19 1.58zM181.47 167.53l.96-1.39-.96 1.39zM155.88 169.52l.96.37-.9-.34-.06-.03zM239.54 171.28l-.66-1.17-.06-.1.72 1.27zM169.18 164.74l.85-1.02-.02.02-.83 1zM215.95 124.17l.72 1.18-.19-.32-.53-.86zM215.15 151.7l.8.05-.91-.06.11.01zM229.85 103.81l-.84-.12-1.25-.18 2.09.3zM213.93 155.07l.18-.12-1.12.73.94-.61zM201.87 169.9l.55.31-.09-.06-.46-.25zM210.62 189.92l.19.38.07.13-.26-.51zM232.59 111.02l-.34.08-.69.16 1.03-.24z" class="cls-10"/><path d="m231.48 84.97-.8-.76-.3.74.83.44.27-.43ZM251.18 48.98l-.54-.11-.53.56.02.58.63.57.19.37.34-.01.1-.4-.4-.7.29-.36-.1-.5z" class="cls-2"/><path d="m168.54 118.33.01-.03" style="fill:none;stroke-linecap:round;stroke-linejoin:round;stroke:#fff;stroke-width:.5px"/><path d="m173.18 119.5.14.32.38-.55.56-.1-.12-.46-.61.26-.35.53zM169.69 115.8l.33.52-.05.86.49.59h.53l.97.26.15.38-.37.44.32.44.64-.03.32-.45-.03-.57.87-.36.43-.4-.16-.51-.75-.51v-.31l.87-.42.28-.99-.09-.91-.25-.69-.96.04-1.11.27-.39.74.29.37.65.44-.06.44-.44-.11-.18.21-.76-.51-.03-.4-.39-.49-.4.27-.33.63-.5.16.11.6zM174.77 115.13l-.3.87.57.19-.27-1.06zM184.46 118.64l-.73-1.17-.76-.45-.21 1.1.21.77 1.33.46.16-.71zM168.21 118.18l-.21-.67-.54-1.17-.57.09-.91-.49-1.27.25-.18 1.02.42.91.79.81.69.09.46.31.81-.15.51-1zM169.6 120.38l-.47.18.33.47 1.19.41 1.19-.1.4-.52.22.63.2.11-.02-.66.38-.73-.14-.59-.15.12-.68-.03-.28.63h-.42l-.53.17-.77-1.09-.41.11-.33.53.29.36zM177.15 122.23l-.2.61.24.28.85.29.54-.74.5.15.06-.38-.36-.64.18-.69-.62-.12-.29.15-.27-.17-.63.17.04.51.65.06-.18.21-.51.31zM168.07 105.68l.62-.02.68-.5h-.91l-.39.52zM160.52 108.77l.07.87.43-.2.66-.76.12-.55-.66.05-.62.59zM168.61 119.9l.48-.97s-.51-.48-.55-.61l-.2 1.15-.33.66.15.4.46-.63Z" class="cls-4"/><path d="m167.16 102.71-1.12 1.12-1.06.48-.75.1-.52.78-.42.97-.81.57h-.91l-1.06.85-.3-.21-.6.03-.27.9-.64.64.39.33.37-.21.87.99-.18-1.09.18-.57 1.39-.88.18.16.7-.12.9.18.61-.22h.81l.7.31.45-.21.82-1.42-.19-.88.16-.36-.19-.85.61-1.08-.12-.31zM167.27 120.29l.3-.27-.92-.35.62.62zM167.8 114.48l-.31-1.07-.01 1.14-.41.65.65-.14.08-.58z" class="cls-4"/><path d="m162.76 119.88.45.21.74-.13-.05-.04.23-.51-.58-.57h-.31l.03-.57.47-.42.07-.63-.41-.19.03-.57 1.61-.82-.35-.29.61-.67.35.23.85-.32-.03-1.14-.38-.76.51-.51.73-.1.5.58.29-.23.32.13.28-.41.26-.7-.74-.79-.41.31-.98-.03-.47-.5-.45-.67-.41-.09.35-.45v-.85l-.79-.54-1.24.09-.6.29-.67-.1-.31.29.69.95-.19.32.67.82-.07.25-.63-.25-.7.16-.12-.38.44-.48-.44-.79h-.23l-.66.92.38.54-.79.57-.48-.54h-.7l-.47-.26-.57.61.88.67v.79l-.53-.42-.35.1.16 1.05.57.31v.95l.47.48-1.14.54-.48 1.2.48.38.7-.38.95.86.19 1.27-.35.22.17.64 1.11-.05 1.54.42z" class="cls-4"/><path d="m179.81 28.18.33-.66.95-.54 1.44-1.58-1.07-1.03-.56-.43.03.61.51.72-1.33.06-.57 1.06-.21-.79.51-2.2-.99 1.54v.79l-.58.69.12.76-.42.24-.15 1.02h.45l1-1.3-.1.82.64.22zM202.63 11.38l.12-.71.66-.8-.24-.95-1.48 1.31.94 1.15zM176.61 26.42l-.45.76 1.18-.16-.73-.6zM175.8 38.27l.33-.69-.47-.09-.27.41.41.37zM177.22 29.14l.03-1.66-1.91 1.14-.12.82 1.12-.72.88.42zM178.06 24.52l-.27-1.12-.54.09.15.39-.73.85-.78-.18-.31.84.34.54 1.06-.84.57.03-1.03.73.46.39 1.11-.33-.03-1.39zM182.53 23.37l-.84-.44-.61.26.26.26 1.19.5v-.58zM170.2 45.48l.27 1.03.67-1.06-.17-.78-.77.81zM170.9 47.47l1-.82-.78-.11-.37.41.15.52zM172.38 30.86l.36-.7-.36-.21-.33.42.33.49zM170.38 33.61l-.32.58.45.27.22-.42-.35-.43zM173.2 30.83l1.51-1.15.09-.69-1.36.36-.24 1.48zM192.95 13.99l-.23-.5-.79-.62-.18-1.15-.47.31.3 1.11.05.76.94.39.38-.3zM191.17 14.52l-.73.12-.3-.48-1.29 1.09 1.05 1.08h.57l.25-.36-.09-.72.66-.49-.12-.24zM200.96 8.02l-.42.83-.48-.56-.71.55-.75-.17.34.88 1.31.39.56-.12 2.18-2.18-.17-.55-1.33 1.23-.53-.3zM200.42 10.81l-.61.45.91.46.82.34.16-.77-.39-.42-.89-.06zM189.11 16.33l-.48.67-.99.03-.04.63-1.11.06.84 1.09.79-.3.99-.03-.03-.61.58-.72-.55-.82zM194.62 12.38l-.56.55.1 1.39.62.23.46.7.37-.73-.49-.65.37-.84-.87-.65zM185.6 21.52l.9-.2-.18-.68.15-.47-.23-.95-.57-.19-.14-.66-1.27-.14.2.9-.64-.49-.51.91.98.5-1.08.08-.36.97.83.09-.68.89.7.09.03.78.38-.02.21-1.03.97.09.31-.47zM189.66 12.49l.21.58.52-.82-.73.24zM189.51 13.43l-1.09.3-.06.97c.06 0 1.06-.69 1.06-.69l.09-.58ZM183.62 24.67l.73-.32-.45-.69-.28 1.01zM179.9 21.71l.88-.64-.21-.78-1.09.42-.03.76-1.12.9-.06 1.21.43.3 1.11-1.32.09-.85zM147.13 88.04l.12-.73-.75.6.63.13zM146.01 76.35l-.96-.46.18.61.78-.15zM146.53 89.33l.63.94.3-.6-.45-.48s-.51.12-.48.15ZM145.32 74.44l.39 1.03.4-.51-.79-.52zM147.98 87.7l-.36.76.33-.09.03-.67zM145.17 83.72l.64.42c-.03-.12-.03-.93-.03-.93l-.6.51ZM145.5 82.14l-.15-.39-.69.55.42.27.42-.43zM145.9 86.62l.23-.91-.78.24.55.67zM147.4 87.16l.27-.78s-.6-.79-.63-.82l.36 1.6ZM145.8 85.17l.31-.37-.61-.03.3.4zM171.57 30.32l-.76 1.3v.81l.97-.94-.21-1.17zM166.72 54.44l-.63.7.75-.06.29.51.42-.37.95-1.18-.61.26-1.17.14zM169.52 48.77l-.33-.23-.43.65.37.47.42-.39-.03-.5zM147.68 72.75l-.55.7.79-.03-.24-.67zM148.43 94.01l-.11.77.65-.22-.54-.55zM169.38 52.77l-1.06.2-.31.62.51.23.86-1.05zM158.25 65.2l.93.06.61-.74-.42-.47-.65.03-.25.44-.83.01-.51.96.56.03.56-.32zM156.13 65.65l-.24-.62-.88.08.8.9s.3-.33.32-.35ZM149.31 72.9l-.27-.48-.61-.18.03 1.18.85-.52zM156.42 67.49l.42-.38-.21-.91s-.76.84-.74.84l.53.45ZM158.79 63.26l-.56-.5-1.3 1.14 1-.05.86-.59zM191.38 15.09l-.24 1.12.61-.33-.37-.79zM204.55 5.77l.53.84.36-.12.25-.41-.41-.49-.73.18zM207.49 4.77l.3-.6-.59.01-.29.58.58.01z" class="cls-5"/><path d="m170.49 95.75.45-.85-.18-2.6-.63-1.11.33-.73.57-.3-.42-.84.27-.49 1.3-.12.36-.63-.06-.88.61-1.3-.61-.85-.3-1.9-.79-1.54.07-.69 1.9-.64.03-1.36.39-.93-1.45-1.61-1.21-.6-.06-1.57.28-1.54-.22-1.69-.45-1.15.36-1.3-.24-2.2-.39-2.15.3-1.87.93-1.66.91-.54 1.12.23 1.42.1.72-1-.12-1.57-.39-.63.06-1.03 1.42-3.47.06-2 .42-1.9.43-1.06-.03-1.21-.61-.6.03-.85 1.33-.78 1.42-.3.67-.58.06-.85 1.14-2.02 1.18-1.63.4-.96-.45-1.24-.49-.55-.03-1.93.54-.27.52-.7.24-1.02.57-.31.64-1.39.87-.66.94.42.39.46.54-.1.64-.57-.51-.87.48-.46v-.45l.21-.45-.66-1.06.42-.27 1.21.03.9-.49 1.39.37.85.57.96.09.55.45.42-.15.39.24v-1.02l-.45-.67.12-1.3.67-.36-.21-.87-.67-.37-.06-.84.97.3.93-.18.32-.16h-.01l.17-.25.36.17.28-.19-.24-.63.15-.72.57-.49.79.12.63.94 1.78 1.45.34.88.66.9 1.18.48 1.96.07 1.03-1 .57-.6.88.02 1.39.97.94.15.48-.9.54-.3.67-.64.72.06.73-.48.3-.55-.3-.72-.39-1.27.21-2.14.27-.67-.39-.63.48-.3.66-.91-.06-.48.88-.4 1.09.21.63-.15-.06-.36.69-.76 1.79-.02.78.54 1.02 1.29.59.6.91.34 1.39.15.24.68.84.88-.14.87-.74 1.16.15 1.71.5-.09.03-1.47 1.12-1.07 1-.14.65-.88-.09-1.2.69-.06.86.35.52-.65-.04-.86-.24-.03-.61-.48h-.32l-.29.18-.03.49-.33-.33-.21-.48-.45-.01.09.46-.11.88-.3-.19-.36-.58-.62.39-.2.46-.21-.66-.21-.91-.31-.04-.34-.92-.33-.19-.69.1-.6-.26-.98-.11-.49-.65.17-.15 1.23.33 1.02-.13.86.16 1.65.22 1.14-.39.74-1.49 1.58-.41.68-.57v-.24l-.5-.17-.16-.34-.59-.18-.73.12-1.02-.85h-.56l-.66.74h-.43l-.12-.28.66-.43.11-.57-.8-.31-.16-.23-.59.04-.54.93h-.3l.07-.67-.37.07-.33.49-.36-.03-.14-.43.53-.38v-.49l-.79-.49-.79-.02-.49.3-.12 1.16-.56.23-.06.4.47 1.18-.06.53-.43.39-.34-.72-.51-.05-.13.27-.67-.13-1.02.46.79-1.11.62-.16.39-.79-.11-.39-.3.05-.82.61-.47-.14.11-.36.54-.45.04-.34-.72-.18-.15-.31.6-.19.26.24h.88l.51-1.3-.14-.54-.83.21-.37-.26.15-.6-.22-.55-.54.47-.44-.04-.47-.42-.6.57.03.4.49.62-.34.45h-.36l-.59-.83-.42.39-.22.71.19.3.63.02.3.28-.06.35-.51.22v.59l-.49.25v.55l.14.26-.45.3.26.82-.23.27-.54-.38-.49.38-.11.31-.54.38-.05-.78.68-1.48-.66-.23.06-.38.48-.48.01-1.26-.25-.41-.4.01-1.04 1.73-.03.96-1.06 1.45-.25 1.03.22.45-.11.83-1.08 1.19-.55.25v-.73l-.25-.52.69-1.11-.14-.72.29-.56-.34-.72 1.22-1.35.21-.8.19-.15-.08-.45-.65-.07-.67-.68-.33.12.11.74-.47.54-.03-.73-.56-.54-.67-.14-.51.27.11 1.01-.25.49-.35-.43-.46-.27-.35.35.11.32.95.63.23.71-.23.25-.41-.42-.51.46-.04.44.23.31-.25.27-.74-.49-.4.04-.42.86-.56.24v.32l.34.24-.78.5-.17.62.63.66-.48.47.64.31.28.3-.35.36-1.02-.09-.27-1.1-.49-.14.46-.5-.65-.35-.71.08-.92-.07-1.28-1.01-.38-.02-.43.52-.28-.54-.65.58-.76.17-.03.35.9 1.08.65-.02.36.42.95.07-.41.78.03.72.65.87-.1.57-.55-.41-.55-.93-.73-.31-.42-.51-.23.7-.61.53-.15-1-.61.52-.02.43-.72.63.04.67.87.39.37.78-.67-.11-.36-.37-.57.84-.19.65-.92.73-.01-.45.61-.44-.2-.59.58-1.17-.46-2.35-.6.38-.95 1.52-.01 1.01.14.41-.65.82-.08-.79.4-.87-.3-1.14-.43-.09-.8.52-.56 1.04.37.81-.05.73 1.14.82.31.57-.45.88-.37-1.12-.84-.38-.55-1.47-.25-.16-1.08.37-.14.52 1.08.84.5.06.27.31-.71-.1-.71.23.47.79-.81-.57-.09-.96-.32-.19-.17-.65-.48.37-.18 1.04.38.47-.15.94-.66-.35-.59.19-.79.95.19.09.54-.08.52.63-.68.07-.49.33.46.32-.31.37-.6.04-.02.42.22.19-.49.11-.35-.43-.6.16-.52.7.2.4-.25.25-.82.06-.41.78.68.22 1.81-.53.43.29.76-.38.46-.03.02.54-.52.6-.16 1.12-.19.24-.33-.4-.1-.57-.68.19-.3-.36-.84-.02.27.3-.25.48-.62-.37-.46.05.62.46.25.65-.38.01-.25.48.13.6-.16.43-.35-.59.02-.74-.57-.75-.57.62-.59.15-.29-.48.22-.35-.47-.06-.67.73.57.61.89-.04.73.45-.41.63-1.53.22-.31-.28-.6.03-.32.76.51.47-.51.7.6-.12.76-.89.67.03.38.54-1.11.13-.16.82.41.6.89.54-.03.63-.6-.47-.51.06-.63-.82-.39.06-.5.54.57.45-.76.06-.73.54v.5l.79.35.67-.44.44.44.7-.22.22.67.51.28v.48l-1.08-.7h-.86l-.41.25-1.17.2v.63l-.67.35-.28-.26-1.02.54-.57.03-.1.4.63.27.48.58-.57.21-.31-.16-.22.2.5.47-.19.31-.76-.12-.09-.22-.26.25.54.44-.35.29.1.48h.44l-.44.28-.51.1-.28-.29v.48l-.26.44.45.19 1.11.38.16.51.44.13.63-.29-.51.48v.38h-.69l-.32-.32-1.14.03-.79.73.25.25.83.03.06.55.41.37-.03.64-.48-.51h-.38l-.38.48.04.53-.23.13.38.45.1.54h-.35l-.45-.42-.28.23.03.66.7.19.12.35-.06.44-.92-.6-.38.22-.03.67.25.07-.03.72.32.7.47-.03.36-.64h.37l-.35.95-.5.1-.7.76h-.6l-.51.22-.03.38-.67.29-.54.47.58.29-.19.35-1.05.09-.48.67.07.32.82.25-.63.32-.32.69-.63.04-.13-.64-.41-.25-.26.38h-.54l.2.47-.39.36-.09.47.22.41h-.95l-.42.22.07.86-.73.48.1.28-.13.86-.54.44-.73.7.22.31.83-.53.44.03-.06.47-.54.22-.06.83.47.63.89-.51.95-.12 1.27-1.24v-.57l-.67.2.58-.77.15-.89.29-.06.38-.35.73.13.44-.03-1.17.76-.04.54 1.15.34-.38.52-.61.06-1.17 1.23.73.38-.41.54.03.76-.73-.06-.6-.6-.86.03-.5.41-.04.7-.66.38-.64.35.48-.54.35-.26-.51-.66v-.76l-.57-.82h-.57l-.32.56-.79.1v.38h1.01l-1.04.95-.7-.31-.6.09-.79.73.44.09.41-.19.22.23-.85.54-.38.47-.38-.38h-.57l-.1.38.92.54h1.08l-.22.57.47.19-.03.51-.95-.29-.16-.57h-.73l-.73-.63-.16-.51-.28.03-.13.64.73.98.76.57.67.09.35.39-.7.03-1.14-.45-1.08-1.2-.51.32-.67-.51h-.82l-.41-.35-.32.38.13.63-.44.41.63.67 1.36-.41.22.28-.6.42.32.19 1.05-.51h.47l-.25.44-1.21.51-.47.7-.83-.22-.69-.92h-.35l-.41.34-.61-.53-.51.31-.34-.22-.64.38.19.32 1.3.19.82.54 1.02.54-.28.66.34.54-.6.32-.25-.32-.03-1.08-.7-.25-.76.13.28.54-.12.41-.92-.57-.8.82.8.54-.64.06-.44.19-.22-.79-1.21-.03.38.79-.5.35-.23-.76-.69-.63-.38.12.09.45.79.73-.35.47.35.35.92-.28 1.24.25.79.51h1.21l.38-.29h.6l-.79.8-1.08-.17-.41.23-1.3-.67-.83.22-.38-.15-.63.54-.89.12-.06.35 1.36.6-.51.57.67.13.44-.29h1.11l-.82.58h-1.17l-.32.15-.35-.09-.03.25.6.26h.44l-.69.41-.35.09.1.38.38.27.28.48.95-.05.51-.37 1.26-.17.86.22.31.22.57-.38.02-.54.57-.15.2.45h.62l.9-.66.41.11-.17.35-.45.33.81.21.38-.38-.16-.46.6-.89-.16.68.65.76-.49.63-1.1.27-.54.41.3.26-.38.63-.95.03-.03-.38.47-.38-.11-.75-.77-.12-.86.84-.12.44-.59-.76-.71-.16-.9.16-.52-.16-1.03.51h-.51l-.6-.39-.22.08.34.77-.21.41.38.33.6-.14.33-.39.48.01-.54.59.06.68-.33.28-.59-.33.27.92.48.41 1.17-1.3.82.34-.35.35.1.67-.99.54.16.29.61.09-.32.51.44.66-.28.8.25.03.63-.99.57-.31.13-.83 1.53-.63.76.06.63-.19-.44.29-.8.6v.98l.25.6-.6-.5-.12-.89-.45-.03-.54.98-.44.16.76.28-.67.89h-.53l-.26.57.42.19h1.14l.28.48-.82.06-.29.48-.06.57-.89-.6-.41.19-.16.7-.19-.83-.54.35-.73.98.29.76 1.11 1.18.22-.67.28.25.61-.28-.16-.35.35-.79.89.66-.42.26.51.54-.19.69-.54.38.48 1.18.38-.45 1.01-.28.41.57-.85.06-.41.32.44.69-.1.29-1.49-1.08-.5.19-.48-.38-.63.04v.63l-.45.47 1.05 1.78.86.16 1.14.98 1.58.6.19.51-.38.19.61.57.55-.27-.25-.8.5-.02.53.43-.1.24.84 1.04.38-.47.33.17.71-.33.87-.84.38-.08.35-.39.19.04.2.6.51.05 1.44-1.45-.06-.51-.64-.79 1.11.7.88-.89-.23-.3.52-.36-.1-.57.65-.43.7-.12.17-.51-.66-.84.24-.55-.59-.79-.71-.52.03-.7.41.25.79.89.32 1.15.28.32.51.08-.11.46.37.49.81-.37-.2-.44-.37-.29.29-.52.68.6.03.3 1.04-.97.27-.91-.25-.8-.56-.24-.28-.46.38-.25.06-.36.41-.05.32-.37-.43-.5.04-.78.63-.47.58.58-.47.76.16 1-.18.68.48.76.12.55.87.9 1-.09.41.35-.25.32.52.35.48.85z" class="cls-5"/><path d="m208.65 5.21.92.16.89.69.85-.19.36-.95-1.01-.01.55-.68-.67-.17-.48-.39-.09.67-.4.36-.51-.24-.36.34-.05.41zM204.13 9.53l1.13-.43.29-.73-.97-.72s-1.11.41-1.15.43l.64.64.06.8Z" class="cls-5"/><path d="m170.47 100.36-.54.13-.05.6.43-.02.16-.71zM195.03 93.33l.02-1.04.81-.72.02-.68h-1l-.8 1.18.62.98.33.28z" class="cls-3"/><path d="m210.18 45.49-.73-1.54-.78-.28-.43-1.2.28-.61v-1.63l-.18-.63.21-.7-.28-1.5-.47-.68-.13-1.15.39-.62-.26-.97-1.1-.08-.09-.84.38-.95-.23-1.21.31-.76-.4-.6-.57-.06-.72-1-.3.09-.37-.06-.3-.78-.82-.94-.57-.15-.64-.4-1.63-.12-1.08-.81-1.49-1.72-1.08-.55-.68-.82-.32.16-.93.18-.97-.3.06.84.67.37.21.87-.67.36-.12 1.3.45.67v1.02l-.39-.24-.42.15-.55-.45-.96-.09-.85-.57-1.39-.37-.9.49-1.21-.03-.42.27.66 1.06-.21.45v.45l-.48.46.51.87-.64.57-.54.1-.39-.46-.94-.42-.87.66-.64 1.39-.57.31-.24 1.02-.52.7-.54.27.03 1.93.49.55.45 1.24-.4.96-1.18 1.63-1.14 2.02-.06.85-.67.58-1.42.3-1.33.78-.03.85.61.6.03 1.21-.43 1.06-.42 1.9-.06 2-1.42 3.47-.06 1.03.39.63.12 1.57-.72 1-1.42-.1-1.12-.23-.91.54-.93 1.66-.3 1.87.39 2.15.24 2.2-.36 1.3.45 1.15.22 1.69-.28 1.54.06 1.57 1.21.6 1.45 1.61-.39.93-.03 1.36-1.9.64-.07.69.79 1.54.3 1.9.61.85-.61 1.3.06.88-.36.63-1.3.12-.27.49.42.84-.57.3-.33.73.63 1.11.18 2.6-.45.85-.48-.85-.52-.35-.07.09-.65.38.16 1.8.34.49.07 1.36.6.31.23.32-.13.88.92-.39-.57-.6.11-.65.39.02-.19.41.7.41.22.44-.84.7-.14.66.25.65-.11.91-.38.4.48.68.69.18.42 1.08.38.32.76 1.55.09 1.17.86.35.22.79.79.8.89-.51.25 1.01-.6 1.15-1.04.12-.16.45.57.34.13.77.85.25.38 1.96-.47.77.44.41h.83l2.12-.57 1.05.38.82-.76-.06-.67-.48-.41.57-1.36 1.3-.17.29-1.33.22.61 1.52.25.92-.51.76.35.45.57.91-1.11.29-1.65.67-.69.16-2.06.37-.67-.72-.63.09-.86.7-.79-.67-.86.73-.66-.92-.57.42-.73-.51-.8.92.35.98-.19-.89-.82.44-.95-.06-.51-1.23-.45 1.55-.06-.83-.85-.69-.1.48-.57h.44l.12.19.48-.44-.03-.54.69.54.1-.86.57-.63.57-.07-.12-.54.31-.44.29.38-.16.76.47.03.73-1.11h.57l.57-.47-.09-.79-.51-.45-1.01-.28-.73.41-.41-.19-.67.38-.54-.73-.89-.16-.54-.35-1.11.03-.09.42-.32-.26-1.26-.12-.04-.32.61-.25.69.34.6-.79.35.35.64-.19.28-.54.73.16.35.38.51-.03.03-.51.41.41.96.35-.1.54.7.38 1.14-.28.28-.86 1.05-1.14.54-1.27-.83-.79v-.64l-1.23-.73.22-.47-1.49-1.14-.19-.73-.57-.48-.73.89-.45-.76-.41.25v-.79l-.57-.13-.41-.63-.48-.51.58-.73-.45-.92.38-.22v-.51l-.63-.25.63-.79-.25-1.24.19-.25.54.47.09-.82-.63-.67.22-1.23-.16-.96.22-.31-.11-1.04-.97-1.22.67.24 1.22-.21.68-1.01-.35-.73.23-.44.73.19 1.14-.98.06-.48-.57-.12.25-.7.58-.57.34.44.38-.09.23-.89h.34l.35.54.57-.51v-.95l.38-.86h.64l.09.6.51.04.41-.86 1.02-.57-.32-.76.13-.73.44.57.86-.82.53.03.83-1.4-.13-1.36.61-.73.53-.03.83-1.05h-.6l-.48-.66.51-.19-.26-.54-.66-.13-.82-.63 1.01-.19-.19-.6.51-1.46.25-.48-.4-.51-.51-.01-.36-.6.27-.3.5.25.17.28.32-.09.05-.49-.77-.35.63-.35.71.05.69-.63-.55-.38-.52-1.01.56.19.37.46.62-.15.29-.66.09-.81.44-.34.51.92.66-.83.32.7.7.29.34-.7.67.38.98-.63.48.56.79.07.54-.38.04.04.04-.92-.47-.5zM195.46 106.66l.33-.12-.2.7-.48.61.08.36.96-.27.2-.5-.29-.22.15-.51.97-.76.12-.54.61-.73-.09-.38-.6-.53.34-.71.09-.47.35-.32-.48-.26-.44.26-.9-.02-.56.71-.39.75-.56.59.26.95-.31.2.84 1.21zM189.24 108.45l-.31 2.27.13.78v.58l.26.27.31-.73.45-1.33.15-1.38.43-1.42.15-1.24-.46-.49-.51.79.12.36-.27 1.24-.45.3zM198.07 101.74l.29.39.45-.44.74-.21-.18-.29-.86.03-.44.52zM197.76 97.86l.34.7.44-.55-.44-.36-.34.21z" class="cls-3"/><path d="m209.27 86.46.33-.08s-.24-.57-.24-.59l-.09.67ZM210.65 87.37l-.17-.63-.29.41-.39.22.3.36.55-.36zM202.75 64.08l-.5-.43-.09.55.26.22.33-.34zM206.79 84.32l-.87-.74v.69l.36.39.51-.34zM207.5 85.48l.59.33.75-.61.1-.48-1.29.26-.15.5zM204.04 83.93l.32.3.47-.2-.79-.1ZM198.47 85.14l-.32.43.51.36.47.56.83.28.68.65.58-.32-.18-.73-.62.06-.44-.71.29-.32.59.09-.12-.64-1.24-.84-.44.04-.02.64.64.41-.25.38-.96-.34z" class="cls-8"/><path d="m232.38 79.26 1.12-1.99 1.18-1.75.88-2.08 1.69-2.87 1.21-2.99-.27-1.27-1.81-2.08-1.08-.36-1.94-2.72.33-1.24.79-1.09-.09-1.24-1.27-.88-.46-.97-.06-1.54.33-.39-.36-.79-1.03-.18-.54-.7v-1.39l.58-.75-.82-.21-.03-.72.18-2.72.76-.18-1.87-4.35-1.72-3.17-.36-1.18-1-1.08.7-2 .85-1.36.4-1.24-.51-.48-1.91-1.21-.33-.79-.64-.97-1.15-.63-.57-.09-.72-1.9-.57-.69.3-1.42.18-1.12-.67-.23.68-.47 1.11-.44v-.03l-.15-1.71.74-1.17.14-.87-.83-.88-.24-.68-1.39-.15-.91-.33-.59-.61-1.02-1.29-.79-.54-1.78.03-.69.75.06.36-.63.15-1.09-.21-.88.39.06.48-.66.91-.48.3.39.63-.27.66-.21 2.15.39 1.27.3.72-.3.54-.73.48-.72-.06-.67.64-.54.3-.48.91-.93-.15-1.39-.97-.88-.03-.57.6-1.03 1-1.97-.06-1.18-.48-.66-.91-.33-.88-1.78-1.45-.64-.94-.79-.12-.57.48-.15.72.24.63-.28.19-.35-.17-.17.25.69.82 1.08.54 1.48 1.72 1.09.82 1.63.12.64.39.57.15.82.94.3.78.36.06.3-.09.73 1 .57.06.39.6-.31.75.23 1.22-.38.95.09.83 1.11.08.26.97-.39.62.14 1.15.47.68.27 1.5-.21.69.18.63v1.63l-.27.6.42 1.21.79.27.72 1.54.47.51-.04.91.28.31.79.03.76.8h1.59l1.08 1.04-.6.29.41.57.07 1.27-.29.25 1.27 1.17-.92-.19-.35.13 1.08.89.03.51-1.27-.7-1.05.04-1.11.73.04.67-.76.8v.57l-.35.25-1.3 1.36-.19 1.36-.31.1-.22-.41-.38.07.29.82-.19.67-.86.09-.51.7.22 1.05.57.41-1.01-.32-.29-.38-.57.22-.32.89.13.41-.57-.25-.22.32.57.57v.4l-.49.53-.24.48-.74.48-.4-.29-.1-.3-.55-.17-.57.2.21.76-.47.4.33.79-.32.77-.39.1-.41.69.31.84.22.17-.25.82.16.55.54-.25.44.47-.14.9-.22.44.28.79-.17.36.82 1.35.41.35-.29.51.64.98-.6.25.12 1.3-.28.51-.03 1.71.48.6-.44.92v.63l.31.45 1.11-.51.41.32.19-.51.95 1.01.57-.1.57.51 1.2-.13.35.16-.32.6h.45l1.01-.7v.57l-.51.7 1.05 1.49.22.51-.28.86.28.16.44-1.24.51-.25.1.54.73-.32.6-.03 1.36-.98h.76l1.65-1.08.1-.44 1.08.32.73-.13.67-1.01.16.35-.35.7.44.19.44-1.01.38.1-.35-.86.35-.35.41.83.48.09.19-.6.41.92.54-.19.06-.57.48.13.19.44.54-.51 1.08-.22.6.54 1.3-.19.09-.44-.35-.35.38-.22.57.19.13.51.82.22s.16-.42.33-.7l-.16-1.2 1.93-1.84 1-.48Z" class="cls-8"/><path d="m214.38 51.42-1.27-.2-.78.57.57.81.73.06.32-.39-.38-.45.74-.03.07-.37zM201.54 65.4l.47.57.74-.43.07-.69-.53.26-.5-.41-.25.7z" class="cls-8"/><path d="m210.3 96.63-.35-.2-.41.5-.25.09-.41.51-.22-.41-.43-.14.01.33-.41.17.56.18v.41l-.42.3v.49l.63.16.66.63-.23.63-.35-.04-.32 1.04.35.1.64-.55-.02-.43.58-1.13 1.15-.23.51-.61.49-.71.56.11.19-.11-.18-.25-.41-.25-.64-.48-1.28-.11zM218.91 100.19l.99-.24 1.06.78.55-.06.18-.72.6.45.3.6.55.03 1.3.82.42.97.79.39.63.91 1.48-.61 1.25.18.62-.93-.12-.79.66-.58v-.84l-1.93-3.5.3-3.14.49-.34.29-1.2.66-.83.11-.27-.05-.14-.4-.67-.11.38-3.36-.09-1.49-.95-1.55.03-.83-.41-.69.18-.86-.76-.06.58-.54-.1v.35l.47.41-.76.51-.38-.25-1.49-.07-.28-.38-.23.83-.76-.1-.82.25-.13.7-.53-.12-1.34.57-.47.79.03 2.66.54.1.28-.22.76.06-.38.6-.6.06.06 1.08.7 1.08 1.17 1.08.41-.1.07-.7.82-.66.32.6-.44 2.19v.47l.44-.16 1.3-.76zM212.76 93.83l-.72.06.15.48.77-.12-.2-.42zM208.62 95.4l.71-.31.71-.06.52.85.25-.49.72-.47.49.17-.33-.82-.74-.05-.41-.41-.45-.07-.08.3-.39.52-1.32.61.32.23zM212.08 96.51l.97.74.43-.27-.37-.92-1.07-.04.04.49z" class="cls-5"/><path d="m207.52 111.55 1.18-1.08 1.89-.46 1.46.15 1-.07.54.46.82-.64.85-.12.18.52.72.03.7.78 1.3-.03.39.18 1.35-.87 1.48.69 1.3.21 1.09 1.24.91.15.97 1.3 1.2.06.41.36 1.33-.61 1.76-.24.18-1.09.73-.36.3-.85.69-.16-.14-1.19-.58-.78-.45-1.21-.27-.39-.55-1.03.13-.54-.25-.7-.36-.33.18-.39-.11-.73-2.09-.3-1.48.61-.63-.91-.79-.39-.42-.97-1.3-.82-.55-.03-.3-.6-.6-.45-.18.72-.55.06-1.06-.78-.99.24-1.3.76-.44.16v1.05l.38 1.84-.48 1.46-1.33 1.43h-.98l-.99-.96-.12-.73-1.97-2.09-.06-1.23-.35.03-.73.73-1.17.28-.41.38-.86.07-.64.95.1.85-.35-.12.03 1.46-1.11 1.3-.09.82.06.79-.6.57.48 2 .47.47.01.15.74-.21.32-.85z" class="cls-8"/><path d="m214.98 121.57.57.06.46 1.54-.06 1 .53.86.92-.64 1.52-.48 1.08.54 1.09-.54.73-.07-.42-1.2 1.21-.06.42-1.1.73-.23.3.48h.9v-.91l-1.09-.54.25-1.27.6-.13.79-1.39 1.45-.66v-.85l-.67-.3.97-1.27-.41-.36-1.2-.06-.97-1.3-.91-.15-1.09-1.24-1.3-.21-1.48-.69-1.35.87-.39-.18-1.3.03-.7-.78-.72-.03-.18-.52-.85.12-.82.64-.54-.46-1 .07-1.46-.15-1.89.46-1.18 1.08-.32.85-.74.21.09 1.25.28 1.05-.35.6.22.12 1.43-.31 1.14 1.57 1.09.55 1.54-.37.57.31.16.81.51.12.42.45-.48.67.13 1.47.83-.08.94.75z" class="cls-3"/><path d="m231.26 112.11-.73.36-.18 1.09-1.76.24-1.33.61-.97 1.27.67.3v.85l-1.45.66-.79 1.39-.6.13-.25 1.27 1.09.54v.91h-.9l-.3-.48-.73.23-.42 1.1-1.21.06.42 1.2-.73.07-1.09.54-1.08-.54-1.52.48-.92.64.19.32.64 1.93.57.88.18 1.03.49.42.03 2.63-.85.3-.64 1.02.34 1.24.84 1.36-.03.42.67-.08 1.36.69.72-.39 2.93-.42 1.33-.06.88-.73.51.03 1.03.57 2.42.36 1.02.52.18.48 1.45-.57.7.63.57-.03.36-.36 1.27.18.58.27 1.3-.8 1.15.15.17.81.7.22.77-.95.87-.05.71.47 1.21-.36.73.64.91-.13.08-1.42.61-1.6 1.24-.12 1.78-.45.11.02v-1.06l-.97-1.09.12-1.15-.84-1.33-.06-1.03.36-.66.91.85 2.17-.31.85-1.39.48-.42-1.08-.73-.13-.78-1.57-1.39-1.39-.37-.36-1.39-.85-.6-1.09-1.52-.48-1.15-.97-1.03v-1.27l-.73-.84.31-1.09-.25-.97-1.81-.67h-.6l-.49-.6-1.21.36-1.09.85-.79-1.39-.9-.12-1.03.48-.85-1.33-.91.54-.72-.48-1.03.24-.3.85z" class="cls-4"/><path d="m278.47 158.36.91-1.45 2.02-.12.76-.57-.15-1.06.51-1.54-.18-1.2-1.21-.85.27-1.81.88-.19.69-.93-.02-1.12-.58-.33-.36-.97-.64.64-1.26-.24-1.09-.67-.91.15-.78-.48-1.12-.03-1.51-.34-.58.58-.39-.81-1.3-.82-.93-2.06-.67.1-1.42 1.08-.9-.18-.97.27-1.18-.63-.75.84-1.91-1.84-.45-1.36v-1.15l-.78-.12-.13-.87-.84-.73-2.33.33-1.15-1.5.49-.94-.88-.73-.63-1.93-.97-.06-1.05.57h-2.15l-2.08-.69-.64.57.09.88-.97.21-.67-.16-.11-.02-1.78.45-1.24.12-.61 1.6-.08 1.42-.91.13-.73-.64-1.21.36-.71-.47-.87.05-.77.95-.7-.22-.17-.81-1.15-.15-1.3.8-.58-.27-1.27-.18-.36.36-.57.03-.7-.63-1.45.57-.18-.48-1.02-.52-2.42-.36-1.03-.57-.51-.03-.88.73-1.33.06-2.93.42-.72.39-1.36-.69-.67.08-.06.7.05 1.93.53.54.48 1.23 1.02.64-.36.46.12.66.3.51-.23 1.25-.7.03-.63.67-.37 1.26-2.56 2.87.18 1.15-.06 1.27-.8-.05-.86 1.83-.18 1.42-.18.12.99.94 1.06.69.29.76.82-.03.55-.52h.81l1.51.88 1.18.03 1.12.51.39.67.88.42 1.33-.42.88-.06.69-.82 2.81-.48.97-.61.97-.17-.16-1.03.15-.49-.18-1.11.67.27.18-.27.81.48.27-.42h.91l.33-.34.61.97h1.08l1.3 1.18 1.36.15.21-.48h.4l1.3 1.3 1.05.54.27 1.48-.09 1 .94.48.15.45 1.03.94 1.21.72.15.76-.18.69.51.73-.15.45-1.24.03-.67-.54-1.08.36-.82.03-.12 1.51.03 1.03-.42-.06-.79 1.45-.03.75-.69-.21-.6.45.66 1.17 1.16.24 1.54.03.68-.5 1.3-.12.71.58.01-.01.16-.73-.41-.5.09-.51.04-.6.34.53h.54l1.58-1.9-.25-.54h.45l.85-1.11v-1.04l.61-.48.98-.06.82-1.05.48.45-.03.22h.76l.35-.48.35-.57.28.48.51.38.64.22 1.26-.32-.88.54-.54.29-.76-.24-1.45.19h-.94l.37.52h1.51l1.24.41-.18.32-.46.28.62.54.59.04.76.45.88-.46 1.01-.17.95.41.66.38.32-.61.39.19.19 1.04.48.57-.35.23-1.24.22-1.49.89-.86 1.3.73.31.58-.47.91.44.48-.06 1.33 1.04.07.61-.51 1.52-.23.32.74.56 1.52.07 1.45-.67 1.94-1.46 1.33.04.73-1.02.98-.54 1.65.29 1.43-.13.5-.6-.38-.76.42-.35.31-.54-1.1-.06-1.34.16-.32.85-.79-.5-.47.03-.7.72-.48-.19-2.03-2.22-.31-1.1-.64-.89-.34.22.41 1.08 1.45 1.77 1.4 1.33-.41.23-.96-.29-.47-.5-.19-.96-.44-.28-.51.47.13-.66h-.38l-.38.25-.04-.38.42-.51-.29-.41-.47.25-.51-.38-.51-.6-1.33.1-.54-.35.13-.35.92.16.5-.48.61.45h.88l.13-.51.76-.13 1.27-1.33.16-.47.44.28.13.35-.82.98-.32.19.19.38.5-.28.89-1.27.19-.54-.47-.6-.26-.51.38-.03.54.92.54.09.86-.54 1.11.26.7-.54.85-.1.32.1.89-.95.44-.64.92-.06.35-.73.54-.41 1.04.09 1.05-.44.44.06.1.45.78-.28.01-.07.24-1.89.54-.25z" class="cls-8"/><path d="m233.31 158.45 1.7 1.51.18.85 2.24 1.76.3 1.15.73 1.21-.18 3.93.54 1.15.06.1.6-.45.69.21.03-.75.79-1.45.42.06-.03-1.03.12-1.51.82-.03 1.08-.36.67.54 1.24-.03.15-.45-.51-.73.18-.69-.15-.76-1.21-.72-1.03-.94-.15-.45-.94-.48.09-1-.27-1.48-1.05-.54-1.3-1.3h-.4l-.21.48-1.36-.15-1.3-1.18h-1.08l-.61-.97-.33.34h-.91l-.27.42-.81-.48-.18.27-.67-.27.18 1.11-.15.49.16 1.03 1.65-.28.48 1.87z" class="cls-3"/><path d="m242.92 171.05-.68.5-1.54-.03-1.16-.24-.72-1.27-.54-1.15.18-3.93-.73-1.21-.3-1.15-2.24-1.76-.18-.85-1.7-1.51-.48-1.87-2.62.45-.97.61-2.81.48-.69.82-.88.06-1.33.42-.88-.42-.39-.67-1.12-.51-1.18-.03-1.51-.88h-.81l-.55.52-.82.03.1.27-.42.94-1 .18-.88 1.63-.87 2.57-1.48 2.2.03.82-.76.72-1.11-.09-.4.73-.72.21-.83.86.77.26.25.53 1.35 1.59.27.75 1.09.57 1.11.83-.49 1.05.17.44 1.38.46.4.69.87-.36.67.6.69-.93 1.45.3-.69.79.12.63.25.89 1.14.11.54.45-.06.63-.3.46.45.75 1.03-.67 1.12.07.45.48.42-.12 1.45.54 1.21-.57.81.24.7-.3.85.3h.72l1.57.18.52-.36 1.05-.33.36-.61 2.48-1.14 1.09-.19 1.3.13 1.37.56.44.47.79-.3 1.1.52.18.42 1 .05-.3-1.01.45-.76.06-1.24-.35-.6.54-.57.22-.89 1.46-.1.89-.18.6-1.08v-.64l-.44-.34.43-.44-.71-.58-1.3.12z" class="cls-5"/><path d="m211.69 155.37-1.69.13-.97-.28-1.39.12-.72 1.12-.76.61-.09.78-1.18-1.24-1.36 1.15-1.18.39-.11.79-2.24.21-1.42.48-1.48-.27-2.8-1.62.08.57.12.84-.15.85-1.81-.03-.18.36.75.87-.36.97-.09.79.45.78-.65.82-.19.06 1.05 1.21.16 1.38.75.15 1.72 1.64.88.33.66.51 2.18.37 1.54.54.66-.85.46.25.58-.64.96-.49.7.1.25-.4 1-.84.64.21.87.2.6.21.83-.86.72-.21.4-.73 1.11.09.76-.72-.03-.82 1.48-2.2.87-2.57.88-1.63 1-.18.42-.94-.39-1.03-1.06-.69-.99-.94-.94.61-1.3-.31z" class="cls-3"/><path d="m213.3 150.66-1.58-.06-.53.24-.65-.3-.68.09-.53.55-.59-.41h-1l-.65-.08-.66.23-.5.76-.79.03-.23-.13.01.05-1.93-.18-.91.81-1.05.09-1.18 1.18-1.54.21-1.6.58-.39-.34-.97.03-1 .67-.21-.05-.09 1.34.25 1.77 2.8 1.62 1.48.27 1.42-.48 2.24-.21.11-.79 1.18-.39 1.36-1.15 1.18 1.24.09-.78.76-.61.72-1.12 1.39-.12.97.28 1.69-.13 1.3.31 1.12-.73.18-1.42.86-1.83-.11-.01-1.74-1.03z" class="cls-4"/><path d="m240.19 178.89-1.1-.52-.79.3-.44-.47-1.37-.56-1.3-.13-1.09.19-2.48 1.14-.36.61-1.05.33-.52.36-1.57-.18h-.72l-.85-.3-.7.3-.81-.24-1.21.57-1.45-.54-.42.12-.45-.48-1.12-.07-1.03.67-.45-.75.3-.46.06-.63-.54-.45-1.14-.11.23.8-.66.67.42 1.69 1.21 1.24.57 1.08-.27.85-1.48 1.36.09.69.54.85-.27.75h-.06l1.69 1.33 1.12 1.97.15.99.15.84.03-.02.43.21 1.38.03 1.06-.27.73-.7 1.02.18 1.09-.03.12.7.79.06.57-.45h.82l.72.42.82-.39 1.78.12.54-.46-.33-.72.06-.97 1-.75h.5l.01-.05.67-.73.66-.06.49-.54h1.21l1.14.91.61-.49.93.24v-.06l-.64-1.02-.82-1.2-.7-.1-.16-.44 1.18-.89.28-.82-.19-1.85 1.14-1.01.76.1.54-.51.16-1.58-.05-.2-1-.05-.18-.42z" class="cls-8"/><path d="m216.13 187.85-.79-.13-1.63.4-.69.51-.88.24-.98.55.05.67-.33.34-.07-.13-.21 1.44.32 1.56.66 1.17.44.98.89.64.02-.09 1.66-1.03 1.18-.42.06-.36.87-.49 2.09.1.96-.61.76-.03.51-.46-.15-.84-.15-.99-1.12-1.97-1.69-1.33h-.6l-1.18.28z" class="cls-4"/><path d="m210.36 199.9.06-.97 1.66-.54.67-1.21.16-1.09-.89-.64-.44-.98-.66-1.17-.32-1.56.21-1.44-.19-.38.01-1.29-.25-.62-.86-.56-.38-.09-.56-.94-.32-.23-.02.05-.72.91-.51-.75-.3-.06-.88 1.05-.57 1.21-.08 1.54 1.23.61-.13.64-.38.19-.38 1.84.5 1.33-.38.89v1.01l.45.77-.32.95.45.51 1.52.06.76 1.97.74.51.55-.28.57-1.24z" class="cls-5"/><path d="m206.46 168.09-.64-.21-1 .84-.25.4-.7-.1-.96.49-.58.64.09.06.51 1.23.24 1.09.42.36.79.19v.33h-.39l-.82.3.11.67.22.3.37-.27.51.02-.12 1.09-.85 1.27.03.58 1.21.96.63.03.49.52-.3.48-.73-.4-.39.28v.9l.93 1.09-.28.28.89.87v.66l.39.45h.94l.66.64 1.06.18.06.94-.63.54-.11.4.32.23.56.94.38.09.86.56.25.62-.01 1.29.26.51.33-.34-.05-.67.98-.55.88-.24.69-.51 1.63-.4.79.13 1.18-.28H217.97l.27-.75-.54-.85-.09-.69 1.48-1.36.27-.85-.57-1.08-1.21-1.24-.42-1.69.66-.67-.23-.8-.25-.89-.12-.63.69-.79-1.45-.3-.69.93-.67-.6-.87.36-.4-.69-1.38-.46-.17-.44.49-1.05-1.11-.83-1.09-.57-.27-.75-1.35-1.59-.25-.53-.77-.26-.6-.21-.87-.2z" class="cls-2"/><path d="m205.83 187.39.88-1.05.3.06.51.75.72-.91.13-.45.63-.54-.06-.94-1.06-.18-.66-.64h-.94l-.39-.45v-.66l-.89-.87-.08.08-.66-.21-.88-.6-.51.36.03.63.75.49.28.6-.64.33-.6.07-.34.84-.02 1.12-.49.9-.4.22.29.38.82.35 1.57 1.97.13.63.93.47.08-1.54.57-1.21z" class="cls-8"/><path d="m185.7 176.77.33-.06-.36-1.08-1.05-.76.54.88-.18.24.72.78zM194.86 183.87l.87-.42-2.14-.03 1.27.45zM195.64 182.69l-.36-.24h-1.66l.39.52.81.12.82-.4zM186.73 177.41l-.63-.27.72.87-.09-.6zM196.55 184.81l-.55-.51s-1.39 0-1.45.03l.73.39 1.27.09ZM188.66 177.95l-.54-.72-.48-.12.72 1.05.3-.21zM185.31 173.18c-.06 0-.42.3-.42.3l.09 1.18.61.15.33.42.6-.24-1.21-1.81Z" class="cls-5"/><path d="m198.31 184.25-2.93-3.29-3.39-2.96-.12-.49.27-.3-.54-.69-.15-.7-.85-.96-.54.03-.03-.61.34-.33v-1.09l.33-.39.99.76.34.57.54-.12.03-.58.75-.12.52.03.42-.45.67.39.36-.33.66.15.36.7.55-.39.93.33.67-.28.21.28 1.03-.12.88.33.54-.09.84.69 1.18.03.11.13-.11-.67.82-.3h.39v-.33l-.79-.19-.42-.36-.24-1.09-.51-1.23-.55-.31-.66.85-1.54-.54-2.18-.37-.66-.51-.88-.33-1.72-1.64-.75-.15.03.2h-1.82l-2.54 1.33-.18 1.08-1.33.67-.25 1.45-.84.07-1.58-.73-.84.24-1.09.79-1.48.08v.09l.26 1.65.95.89-.1.32.38.31 1.02-1.64.16-.89.63-.73 1.01-.04.23.83.82.67.25 1.24.61 1.17 1.26 1.17.32.06.73.8-.63-.23-.73.1-.32.7.38.72h.92l.92.89.92.32.32.73.44.51.95-.19 1.84.15 1.02.5 2.03 2.1-.57.07-.95-.51.5.63.88.2H198l.31-.73zM188.21 179.95l-.21-.73-.85-.69 1.06 1.42z" class="cls-5"/><path d="m186.97 175.99-.03.57.79.21-.76-.78z" class="cls-5"/><path d="m202.33 185.22.02-1.12.34-.84.6-.07.64-.33-.28-.6-.75-.49-.03-.63.51-.36.88.6.66.21.36-.36-.93-1.09v-.9l.39-.28.73.4.3-.48-.49-.52-.63-.03-1.21-.96-.03-.58.85-1.27.12-1.09-.51-.02-.37.27-.33-.43-1.18-.03-.84-.69-.54.09-.88-.33-1.03.12-.21-.28-.67.28-.93-.33-.55.39-.36-.7-.66-.15-.36.33-.67-.39-.42.45-.52-.03-.75.12-.03.58-.54.12-.34-.57-.99-.76-.33.39v1.09l-.34.33.03.61.54-.03.85.96.15.7.54.69-.27.3.12.49 3.39 2.96 2.93 3.29-.31.73h.01l.52.12 1.58.26.44-.23.89 1.21.4-.22.49-.9z" class="cls-3"/><path d="m184.13 171.52.84-.24 1.58.73.84-.07.25-1.45 1.33-.67.18-1.08 2.54-1.33h1.82l-.19-1.58-1.05-1.21-1.02.34-1.83 1.03-.44-.05-.61.08-.95.44h-.91l-1 .39-.54-.65-1.88.01-.66-.07-.96 1.39.3.66-.55.85.21 1.43.07.02.82.37-.03.58-.7.19-.03.76 1.48-.08 1.09-.79z" class="cls-8"/><path d="m193.11 163.74-.45-.78.09-.79.36-.97-.75-.87.18-.36 1.81.03.15-.85-.12-.84-.08-.57-.25-1.77.09-1.34-1.63-.37-.73-.55-1.11.24-1.18-.05-1.03-.73-1.54-.06-.85-.33-.33.78-.42.39-.06.64-1.15.06-.39.45-2.11-1.2-.6-.07-.14.76.04.83h-.66l-.49.84-.96.47-1.12 1.42v.55l1.03.51.11.79-.42.3-.93-.55-.94.28-.97-.28-.66.09-1.33.88-.72.15-.67-.21-.72.18-.61-.39-1.15-.18-1.11.15.09.57-.28.33-1.05-.27-.58-.63-.75.28-.48.24h-.22l.52.35-.06.6.48.37-.03.78.67.03.51-.21.87.85.73-.66h.66l.34.69.02-.02 1.39.6 2.18-1.27.91.24 1.45-.12-.12.85 2.06 1.21 2.54.48 1.39-.12.6.55.66.07 1.88-.01.54.65 1-.39h.91l.95-.44.61-.08.44.05 1.83-1.03 1.02-.34.19-.06.65-.82zM182.96 130.12l-1.17.61v.57l1.29 1.39-.15.85.61.78v.64l.36.87-.33.72.75 1.73.56.3.5.65.06 2.23-.23.37.3.67.36-.43.73.14.41-.22 1.71.26-.06.49.73.74.68-.09.62.53-.41.92.33.5.31.17-.05.8.58.24.4-.42h.54l-.97-1.27.39-.27 1.97 1.09 1.24-.15-.22.72.91.73 1.57-.36 1.24.39 2.54 1.84.78 1.36.72.03.37-.42 1.12.03.63.66.23 1.07.23.13.79-.03.5-.76.66-.23.65.08h1l.59.41.53-.55.68-.09.65.3.53-.24 1.58.06 1.74 1.03.91.06.06-1.27-.18-1.15 2.56-2.87.37-1.26.63-.67.7-.03.23-1.25-.3-.51-.12-.66.36-.46-1.02-.64-.48-1.23-.53-.54-.05-1.93.06-.7.03-.42-.84-1.36-.34-1.24.64-1.02.85-.3-.03-2.63-.49-.42-.18-1.03-.57-.88-.64-1.93-.72-1.18.06-1-.46-1.54-.57-.06-.94-.75-.83.08-4.69.46-5.33-.3-.48.19-1.43 1.27-1.2.28-.32-.28 1.21-.67 1.11-1.14-.39.03-.88.89-1.56.73-1.8-.51-.39-.98.29-.7.95.13.45.28.03-.28-1.18-.57-2.12-.54-1.65.85-1.2-.09-1.24.47-.76 1.05-1.2.03-.76.86v.66l-1.3.03-1.97 1.08-1.33.1-.48 1.01-.32 1.02-.28.16.06.41-.41.02.44 1.88-.12 1.39z" class="cls-5"/><path d="m183.72 155.1.39-.45 1.15-.06.06-.64.42-.39.33-.78.85.33 1.54.06 1.03.73 1.18.05 1.11-.24.73.55 1.63.37.21.05 1-.67.97-.03.39.34 1.6-.58 1.54-.21 1.18-1.18 1.05-.09.91-.81 1.93.18-.24-1.12-.63-.66-1.12-.03-.37.42-.72-.03-.78-1.36-2.54-1.84-1.24-.39-1.57.36-.91-.73.22-.72-1.24.15-1.97-1.09-.39.27.97 1.27h-.54l-.4.42-.58-.24.05-.8-.31-.17-.33-.5.41-.92-.62-.53-.68.09-.73-.74.06-.49-1.71-.26-.41.22-.73-.14-.36.43-.3-.67-.16.25-.6-.3-.55.36-1.3-.3v.76l-.69.42-.61-.15-1.39.03-.45.69-.91.03-.81.94-.73.06-1.48 1.36-.69-.33-.4-.34-.37.28.05.62 1.1.66.88 1.37-.06 1.01.23.63.82.45 1.44.99.81.54 1.68 1.94-.01.03.6.07 2.11 1.2z" class="cls-3"/><path d="m155.79 130.55-.06.47-.33.73-.02.82-.54.45-.87-.39-.37.81.13.55 1.02-.03.43.39-.25.51-.12.91-.54.39.45.79-.6.33-1.06-.24-1.12.27-.51.85-.54.66.24 1.22-.27 1.39-.35.92.1.03-.27.61.63 1.3-.03.51.52.79-.49 1.14h.28l.99 1.24.19.91.45.39-.08 1.34.02-.01.78.61v.51l.73.6.69-.24h.73l.54.21.76-.24.99.46h.79l.82.54-.94.96-.45 1.27v.64l-.58.54-.42 1.45.06 1.21.72.45.4.82h-.03l.69.21.76-.43 1.02.37.31-.51-.1-.52.85-.3.3.82.52.14.42-.39.57.03 1.15.85.42.28h.22l.48-.24.75-.28.58.63 1.05.27.28-.33-.09-.57 1.11-.15 1.15.18.61.39.72-.18.67.21.72-.15 1.33-.88.66-.09.97.28.94-.28.93.55.42-.3-.11-.79-1.03-.51v-.55l1.12-1.42.96-.47.49-.84h.66l-.04-.83.14-.76.01-.03-1.68-1.94-.81-.54-1.44-.99-.82-.45-.23-.63.06-1.01-.88-1.37-1.1-.66-.05-.62.37-.28.4.34.69.33 1.48-1.36.73-.06.81-.94.91-.03.45-.69 1.39-.03.61.15.69-.42v-.76l1.3.3.55-.36.6.3.16-.25.23-.37-.06-2.23-.5-.65-.56-.3-.75-1.73.33-.72-.36-.87v-.64l-.61-.78.15-.85-1.29-1.39v-.57l1.17-.61.12-1.39-.44-1.88-.76.04-.51-.44-.69.09-.77-.6.16-.8-.47-.72-.86.16-1.05-1.05-.72-.12-.29-.45-.38.19-.92.1-.86.6-.31-.32.43-.44.14.11.32-.33.87-.35-1.09-.11-.37.19-.09.43-.84.42-.04.38-1.54.24-.59.81-.14.6-.87.08-.27-.46-.76-.08-.37.17-1.06-.31.74-.51.51.08.55-.66-.02-.72-.33-.18-.66.52-.23.3-1.05-.76-.32-.44-.4.23-.22.45-.64.47-.26-.7-.66-.19-.22-.48.41-.41.44-.95-.82-.09-.81-.88-.74.13-.45-.21-1.54-.42-1.11.05.05.19-.06.69.57.38.44.03-.06.61.92.85-.76.29h-.7l.03.73.73-.32v.98l.76.48-.66.5v.61l.57.35 1.01.06 1.32 1.37 1.72.72-1.81-.35-1.32-1.45-.89.34-.67-.34-.66.12-.51.83.16.7.03 1.2.38.79-.92-1.05.07-.94-.61-.54-.38.15v.61l.38.72-.41.45-.7-.83v-.95l-.92-.66-.54.25-1.87.51-.16.82.39.73.91.16.2.79-.08-.02-.03.18-.24.3z" class="cls-2"/><path d="m165.53 162.53.28.49.42.02.03-.78-.48-.37v.1l-.25.54z" style="stroke-miterlimit:10;stroke:#fff;stroke-width:.5px;fill:#ead6ae"/><path d="M169.67 163.05h-.66l-.73.66-.87-.85-.51.21-.67-.03-.42-.02-.28-.49.25-.54.06-.7-.94-.63-1.15-.85-.57-.03-.42.39-.52-.14-.3-.82-.85.3.1.52-.31.51-1.02-.37-.76.43-.69-.21-1.33.42-.76-.09-.24-.55-.97.07-.54.66.88.45.15.79-.76.33-.81 1.06-.64.24-1.09 1.73-.18 1.26.02.82-.5-.03-.48.24.09.66.9.09 1.03-.42-.39-1.03.57-.51 1.24.06.42.79.31 1.02.48.4.13.7.9.34 1.64-1.21 1.09.48 1.51-2.6.97.6-.12.97 1.33.67.42.84.85-1.51v-1.15l1.81.49.73-.06.72.6.19-1.57 1.63-.37-.43-1.33.83-1-.34-.69z" class="cls-3"/><path d="m143.13 138.98.42-.11-.32-.44-.73.31.49.03.14.21zM143.51 138.08l.13.25.43.1.16-.21-.78-.32-.59-.01.15.36.5-.17z" class="cls-4"/><path d="M142.01 140.97h.63l.42.45.45-.45.79-.15.18-.28.61-.06.24-.6 1.42.03.48.48h.73l.39.58 1.12-.06.37.69-.04.53.71.22.35-.92.27-1.39-.24-1.22.54-.66.51-.85 1.12-.27 1.06.24.6-.33-.45-.79.54-.39.12-.91.25-.51-.43-.39-1.02.03-.13-.55.37-.81.87.39.54-.45.02-.82.33-.73.06-.47.24-.3.03-.18-.81-.26-.64-.57-1.17-.61-1.24.19-.72.64-.7-.28-.45.28-1.01.03-.95 1.05-1.52.82-.32-.22-.89.35-.03 1.01-.83.64.26.98-.19.89-.35.73-.29.51-.63.47.03.63.95.86.86.25h-.95l-.45.38-.28.26.38.47.48.07.02.41-.76.03-.69-.73-.73-.35-.7.29.25.38.67.06.6.57.22-.09.8.54-.76-.29-.48.03-1.14-.38h-.73l-.03.03.47.22.4.61z" class="cls-4"/><path d="m140.37 143.66.97.36.15.69 1.18.97.51-.03.52.42.57.27.06 1.15.88.45.45-.3h.51l.36.43.55.11.97 1.21.84.06.76.55.36-.24h.6v-.46l-.33-.3v-.57l-.27-.36.45-.61.25-.73h.26l.49-1.14-.52-.79.03-.51-.63-1.3.27-.61-.1-.03-.71-.22.04-.53-.37-.69-1.12.06-.39-.58h-.73l-.48-.48-1.42-.03-.24.6-.61.06-.18.28-.79.15-.45.45-.42-.45h-.63l-.4-.61-.47-.22-.86.67-.57 1.04.48.36.18 1.45z" class="cls-3"/><path d="m152.88 149.27-.45-.39-.19-.91-.99-1.24h-.54l-.25.73-.45.61.27.36v.57l.33.3v.46h.06l.49.78 1.06.21.58-.14.08-1.34z" class="cls-5"/><path d="m105.44 79.26-.09-.85.09-.42-.65-.32.65 1.59zM106.12 72.47l-.34-.03.49.58-.15-.55zM105.78 73.75l-.07-.71-.8-.55s-.46-.04-.44-.03l.68 1.06.63.23ZM105.53 76.12l-.27-.4-.38.25.6.72.05-.57zM105.29 74.96l.69.03-.8-.62-1.04-1.75-.28.34.32.89 1.11 1.11zM104.02 74.29l-.76-.94.11.75.65.19z" class="cls-3"/><path d="m99.21 119.46-.15.33-.59.01.06.33-.82.21.22.66h.9l-.14.24.73-.25.49.02-.95 1-1.19.46.41.38-1.17.22-.62-.28-.52.6-.26-.77-1.92-.28v.33l-1.06-.28-.19 1.16.52-.53.11.7.24.13.26.7-.48.01-.08-.4-1.03.04 1.19.85.82-.22.27.66-1.04.22-.15.46.31.42-1.18.02.27.71-.41.16.62.39.51-.18-.31.39.96-.2.25 1.03 2.27-.03-.73.75-.52-.32-.86 1.42.38-.05-.7.97-1.46 1h.59l.79-.52.49.29.99.03.66-.67.07.31.82.07-1.85.51-1.38.06-.34.53-.9.29.32.44-.21.4.4.11-.67.13-.57-.48-.22.32-.19-.22-1.11.58.11.31 2.57-.16-.86.73-1.08.25-.36.89.68-.01.16.5 1.95-.64-1.48.96-.61.52 1.04-.01 1.35-.74-.06.53-1.16.54.63-.01-.19.41 1.03-.26.54.37 1.4-.17 1.33-.39 1.05-.71-.35-.81.8.06-.22.49.82-.01.77-.81.57.03.19-.77 2.35-.27.19-.52.35.61.51-.48.48.19 1.21-.01-.83-1.06.6-.26.64-.78-.13-.68.67-.74.22-.84-.31-1.87-.51-.32.6-.39v-.85l-.54-.83.16-.84-.64-.45.32-.49.5.07-.9-.6-.6-.12-.79-1.58-1.21-.6-.49.37-.24 1.14-.6.12-1.76-1.63.91-1.87.85-.12.24-.73.55-.3.41-.43-.38.08.84-.66.74-.43-.89-.48-.61-.54.28.58h-.85l.14.95-.6.87.07-.58.34-.4-.41-.72-.56.11.33.47-.65.03-.34-.35-1.15.29-.01.55-.37.02-.27.68.57.23z" class="cls-4"/><path d="m106.21 107.18.33.66.28-.26-.22-.47-.39.07zM108.03 113.93l.63-1.4-1.42 1.33.28.76.51-.69zM106.84 103.41l-.41.19.09.94-.88-.61.04.72-.28-.19-.32.31.76.56.03-.31.3.23-.11.25.56 1 .97-.1.06.81.33-.05.24-.73.57-.32-.3-.23-.48.1-.84-.45.1-1.4-.43-.72zM117.48 94.68l-.4.07.34.35.06-.42zM132.96 139.62l-.29.16.5.25.43-.11-.24-.29-.4-.01zM104.95 102l-.35.18-.15.34-.29.16.52.4.92-.81-.65-.27zM106.97 112.99l-.11-.42-.26.79.37-.37zM106.97 107.88l.03.39.36-.39h-.39zM124.13 84.27l-.56.14-.15.52s.59.35.62.35l.09-1ZM125.23 84.4l-.02-.94-.3-.23-.06.53-.33.49.44.45.27-.3zM126.09 82.39l-.54.54.23.4.31-.94zM104.27 110.76l.73-.55-.67-.04-.06.59zM105.46 100.55l-.87-.4-.46.58.44.46-.36.29.38.33.71-.12.73.19.52-.74-.25-.19.24-.62.71-.66-.12-1.08-1.87 1.33.2.63zM124.81 87.87l-.25-.24-.36.69.61-.45z" class="cls-2"/><path d="m124.22 86.52.33.67.45.17-.18-.67.38-.41-.11-.45.35-.37-.57-.2-.47-.24-.24.24.19.29-.09.39-.85-.08-.51.21.32.42 1 .03zM103.03 104.49v.25l.53.21.22-.58-.75.12zM116.69 95.62l.05.6.77-.1.43.27.02-.63-.91.09.3-.36-.49-.48-.62.05v.76l.27.3.18-.5zM108.25 104.21l.13.91-.02.31 1.05-.16-.68.34-.08.19.22.13.66-.24-.15.17.27.33-.49-.2-.2.14-.14.44.27.2-.4.06-.25.39.46.15.1.36-.75-.29-.14.5.3.21-.18.32-.35.26-.73.02-.32.33.28.17.62-.04.42.13-.1.18h-.48l.65.62.21-.09.33.36 1.7-1.72-.27.52.25.16-.51.18-.41.98.05.24-.53 1 .23.13-.45 1.19.11.78-.31.45.23.39.31-.15-.54.86-.1 1.19-.4.39.04.29.88-.01-.12-.61.38-.89-.03-.55.46-.56-.35-1.48h.33l1.05-1.26-.8 1.19-.09.87.3.23.06-.52.53-.43.23.8.43-.97-.09-.68.35-.17-.14.87.88.67-.76-.21-.27 1.12.18.82.46.11.27.72-.69.7-.69 1.8.16.81-.6-.38.03.87.83 1.16-.26-1.07.58-.16 1.46 1.06.03-.84-.6-.48.38-.1 1.17.74.83-.14v-.35l.77.03.22-.71 2.07.08-1.37.36-.83 2.37 1.02 1.83.51-.29v.97l.67-.81.82.13-.28 1 .25.16-.82.64.25 1.13-.44.86.5.65.61.53.49.05-.33.24-.56.04-.48-.68-.46.18.38.66.42.25-.65-.14-.53-.53-1.33.43-.6-.09-1.38.68-.71 1-1 .63-.43.61.63-.11.32.11.09-.37 1.42-.38-.13.74.49.52-.52.39.3.56.33.08-.92 1.76-.66.22-.67.51-.33.02-.86.53h-.62l-1 .65.79.11.05.58-.57.28 1.02.17-.26.24.4.22.57-.16.67-.41 1.08-.35.09.5.86.2-.7.2-.08.4 1.18.03v-.23l.58-.16.6.69.54.64 1.35-.02.32-.53.63-.28.88-.32.33-.49.73-.34-1 1.16-1 .96-.05 1.13-.68-.03-.54.19-.62-.34-1.74-.18-1.24.33.02.62-.53.5-.68.01-.11 1.43-.73.66-.19.38-.81.15-.21.82h-.34l-.19.44-.99.71-.44-.16-.68.48v.63l.74.05.03-.56.91.23.37.66.44-.42-.19-.32.42-.55.2.26.5-.49h.33l.26-.61.78.2.6-.27.49.08.35-.2.35.47.41-.04.57.48.67-.03-.13-.44.52-.24.15-.4-.15-.73.46-.45.38-.05.16-.29 1.49-.34.78.06.9.62.34-.13.98.04.52.2.26-.63.9-.46.62.18.87-.59.62.15.32-.05.43-.33.12.32.53.31.6-.41 1.36-.02.86-.18.82.27.41.08.62-.5.69-.13.6-.57.41-.03.43.09-.1-.47.97-.66.6-.13.05-.61-.17-.44.19-.5-1.1.04-.77.29-.46.08-.72-.26-.27-.07.25-.23.23-.04.07-.14-.67-.17-.56.21.79-.55.53.05.65-.31-.19-.55h-.64l.48-.42.35-.34.38.32.58-.42.24-.37-.28-.06.19-.29-.68-.08.27-.45.42.11.13.32.49-.64.48-.2.08-1.21.44-1.13-.35-.45-.19-1.04-1.4-1.09-1.94-.09-1.21.04-.09.9-.32.52-.64-.71-.76-.19 1.21-1.2v-.74l-.96-1.55-.38-.06-.84-.49-.34-.59-.43.08-.3.1-.51-.18h-.3l.57-.14.36.09.62-.13.38.17.34.34.42-.08.42.09-1.13-1.39-.52-.68.33-.53.3-.11-.55-.31-.24-.42-.24-.03-.66-1.21-.98-.51-1.41-.32-.06-.55-.32-.19-.44-1.51-.51-.84-.35-1.94-.41-.65-.39.01-1.17-1.74-.7-.16-.54-.45-.89-.35-.35.32-.7.46-.99-.32-.47.06-.79-.25-.24-.44.48.24.95.08.79-.26.24-.63.81.03.73-.55-.75-.35-.04-.44-.31-.24-1.03.55-.17-.2.79-.59.95.06.56-.48.09-.44.38-.24.56-1.08.35-.5-.05-.35.4-.73-.15-.26.35-1 .67-.57v-.64l-.99-.9-.2.16-1.68.06-1.03-.19-.3.21h-.51l-.64-.22-.44.02-.06.22-.64.2-.68.37-.27-.01-.46.37-.14-.14.62-.72.65-1.05-.48.26-.58-.22.34-.23.13-.48 1.63-1.23.48-.81.55-.19.27-.73-.28-.32.32-.52-.04-.32h-.82l-.33.36-.53-.16-.79.36-.73-.08-.62.26h-.35l-.36.34.08-.37-.34-.14-.68.6.21-.54-.94-.43-.16.58-.31.25.09.53-.19.01.03.67-.68.14.34.57-.29.56-.33.02.81.72.28.51-.82-.41-.31.26-.6-.4-.03.29.16.38-.19.29-.32-.62-.28.66.31.35-.25.34.49.56.48.01-.56.22-.57-.32zM103.97 104l.05-.47-1.03-.11-.32.18.57.58.73-.18z" class="cls-2"/><path d="m110.87 114.39-.35-.35-.06.56.46.39-.05-.6zM102.03 119.49l-.24.73-.85.12-.91 1.87 1.76 1.63.6-.12.24-1.14.49-.37 1.21.6.79 1.58.6.12.9.6.17.03-.06-.62.38.1.63-.52.07-.58.98.12.14-.69-.62-.13.24-.64-.24-.48.46-.07.48 1.43-.25-1.83-1.13-.06.62-.45-1.22-1.74-.08-.77-.62-.34-1.27-.12-.79.51-.48.06-.25.29-.79.15-.41.43-.55.3zM111.84 123.78l-.32 1.08.7-.12 1-1-.16-.43.14-.71-1.36 1.18zM107.32 115.15l-.35-1.35-1.19.48.01 1.07.76-.49-.09.81.86-.52zM105.3 109.92l.54-.24.18-.63-.72.87zM112.31 129.3l1.14.57.98-.78-.71.09-.33-.69-.87.12s-.22.67-.21.7ZM125.19 143.97l-1.11.58.54.11.57.42.55-.1v-.29l.27-.47-.41.05-.41-.3zM109.54 115.51l.2 1.2.79.33.24-.83-.57-1.17-.66.47zM107.95 111.6l.73-.55-.3-.68-.53-.07-.66-.76-.76.54 1.08.53-.61.32.16.26-.71.52 1.54-.35.06.24zM116.81 96.78l-.26-.42-.37.09.46.72.17-.39zM102.81 106.98l-.33.42-.03.44.55-.34-.19-.52zM103.49 105.13l-.42-.08.03.48-.23.52.16.55.5.11-.16-.7.2-.38-.08-.5z" class="cls-2"/><path d="M158.42 178.06h-1.28l-1.33-.91-.18-2.18-1.03-1.09.61-.67.97-.12.24-1.39-.79-.72-.12-1.03.37-.43.06.03-.13-.7-.48-.4-.31-1.02-.42-.79-1.24-.06-.57.51.39 1.03-1.03.42-.9-.09-.09-.66.48-.24.5.03-.02-.82.18-1.26 1.09-1.73.64-.24.81-1.06.76-.33-.15-.79-.88-.45.54-.66.97-.07.24.55.76.09 1.36-.42-.4-.82-.72-.45-.06-1.21.42-1.45.58-.54v-.64l.45-1.27.94-.96-.82-.54h-.79l-.99-.46-.76.24-.54-.21h-.73l-.69.24-.73-.6v-.51l-.78-.61-.6.15-1.06-.21-.49-.78H150.01l-.36.24-.76-.55-.84-.06-.97-1.21-.55-.11-.36-.43h-.51l-.45.3-.88-.45-.06-1.15-.57-.27-.52-.42-.51.03-1.18-.97-.15-.69-.97-.36-.18-1.45-.48-.36-.13.23-1.48.51-.35-.29-1.21.7-.28.82.19.99-.26 1.55-1.2 1.17v.51l-1.34.38-.69.03-.76-.25-1.59.85-.38.73.29.51.73.25-.99.7-1.2.26-1.65-.23-.73-.38-.6.35-.26-.57-.53-.41.25-.67-.67-.31-.69.25-.99-.03-.44-.19.29.95-.16.41 1.39 1.3-.25.41.19.64-.16.63.44.57.1.73-1.46-.19-.63.22-.61-.16-.73.19-.28-.28-.92.76-1.17-1.55-.67-.23-.98.23-.79.72-.42-.21-.47.44-.42-.29-.85.1-.54.54-1.27.09-.57.67.32.54.73-.26.73.22.19.29-.8-.16-.47.06.28.8.26-.61.5.19.13.54-.47.19-.76.29.03.22h.73l.31.89-.09.51.86-.58.6.16.5-.09 1.34.54.28.47h.54l.92.61.66-.61.42.1-.16.47.22.29.7-.41.41.41-.32.82.38.61.51.03.79-.51.86.1.54.72-.67-.38-.76.04-.47.66.44.19.16.83-.38.69.16.54.69.1 1.05 1.3 1.01.16.99.57-.03.73.38.6-.32.82-.19.1-.19.73.7.15 1.26.99.99 2.38-1.08-1.05-.29-1.01-.85-.45-.41.29-.41 2.09.03 1.52.66.45-.54.41-.22 2.85-.76 2.47-.97.58.72.4.09.21.52.09.15.88-.12.66 1.23-.15 1.67.66.78.85.85-.39.93.97 1.15-.03.58.3.72-.76 1.91-.06.72.4 1.15-.13 1.21.67 1.96-.18 1.39.84.52.18-.04-.41-.32-1.2.32-1.43.1-.69.95-.86 1.46-1.56.47-.03.48.35.95.13 1.01.6h.7l.63-.51.61-.06 2.53 1.59.7.6 1.87.09.79-.66-.16-.41.73-.92 2.64-1.97.15-.03-.29-.9.55-1.26zM162.06 188.18l.16.6.61.32v.31l-.32.19.25.42.57.31-.03.57h.29l.22.38-.32-.06-.29.44.23.39 1.26.54.8-.39.44-1.33-.03-1.07.51-1.94-.44-1.68.09-1.08-.22-1.2h-.42l-.16.73.26.54-.13.76h-.31l-.51-.54-.51.5-1.27.45-.57 1.01.48.45-.16.38h-.48z" class="cls-5"/><path d="m186.73 220.82.86.71.45-.49-.01-.63-1.27-.19-.03.6z" style="fill:#c7cd69;stroke-miterlimit:10;stroke:#fff;stroke-width:.5px"/><path d="m161.49 194.32.07-.37.36-.4-.34-.29-.13.41-.26.15.03.54.27-.04zM161.71 197.02l.16.64.54.47v.98l-.6.64.25.5.83.07v.35l-.51.6-.38 1.46.35.54.41 1.71.64.67.31-.19.42.19.6-.26.06-.95.25-.57.8.06.5.51h.48l.32-.6v-1.55l.15-.45-.19-1.68.32-1.52-1.08-.95.92-.6.13-.64-.22-.98-.54-.6-.6-1.11-.32.32-.73-.58-.63.07-1.52 1.81-.67.03-.95-.57v.92l-.16.6.66.66zM170.19 185.43l-.11-.46-.39-.47-.2.28-.92.36-.37.38.46.18.86-.3.67.03zM171.9 187.53l.48.23-.17-.38-.31.15zM190.95 210.44l.15-1.12-.63-.76-1.04 1.02-.45-.07-.92-.5-.89.95-1.9-.13-1.55.48-1.11-.22-.79-.54-.92.09-.51.41-.29-.38-1.01.48-.13 1.36.89.82.89-.15 1.58 1.08.86.22.79.85 1.87.7.38-.25.83.6.16.67 1.93.76.79-.13-.06-1.04.41-.51-.09-.92-.76-1.05.76-2.03.76-.69z" class="cls-4"/><path d="m181.77 168.19-.3-.66.96-1.39-.6-.55-1.39.12-2.54-.48-2.06-1.21.12-.85-1.45.12-.91-.24-2.18 1.27-1.39-.6-.85 1.02.43 1.33-1.63.37-.19 1.57-.72-.6-.73.06-1.81-.49v1.15l-.85 1.51-.42-.84-1.33-.67.12-.97-.97-.6-1.51 2.6-1.09-.48-1.64 1.21-.96-.37-.37.43.12 1.03.79.72-.24 1.39-.97.12-.61.67 1.03 1.09.18 2.18 1.33.91h1.28l-.55 1.26.29.9 2-.35.73-.92.03-.7 2.16-1.2 2.79.73.82.54 1.23.36.35.67.24.45.34.64.76 1.24.03.73.67.41-.03 1.17.98.48.63.79 1.14 1.08.13.76 1.2.03.77 1.02.15.66.54.19 1.72 2.19 1.65 1.24.79.12.7.48.15.7h.76l.54-.51.86.35.82.06.89 1.65.54.35.47-.19.7.25-.06.57.73-.03.76.06.54.7-.1.83-.19.34.42.42.85.06.35.7 1.08.25.47-.28.61.38.38 1.33.19 1.27.44.57.35 1.49.48.69-.04.77-.44.53-.33.02-.24.14.11.83-.11.79-.5.57-.5.28-.21.32.04.64.91.92 1.21-.1.6-.82.16-.89 1.14-.92.1-1.94.7-.72.72-.19.29-.61-.22-.38.13-1.07-.23-.48-1.17-1.11-.67-.09-.28-.43v-.62l.6-.41.14-.64-.04-.54.47-.5.29-1.02.38-.24.57-.07.85.41.26.38 1.29.02.46.27-.11.63.36.77.58.73.74.31.03-.25.23-.18-.1-.68.35-.51.13-1.08-.32-.56-.69-.49-1.37-.35-.83-.87-1.29-.96-3.3-1.78-1.58-.38h-.86l-.41-.67.03-.38 1.05-.73.16-.57-.74-.38-1.01.16-.67-.19-1.58.01-.54-.33-.78-.15-.59-.61-1.23-.95-.6-.93-.76-.78-.57-.82-.03-.86-.35-.19-.07-.73-2.72-2.76-.51-.7-1.01-.53-1.84-.99-.45-.63-.13-1.21-.47-1.04.38-.32.63-.95-.57-.73-.44-.89.32-.63.92-.13.85-.76h.92l.6-.6.58-.29.94.24-.21-1.43.55-.85z" class="cls-4"/><path d="m136.65 205.47.45-.46-.33-.54-1.08.33-.13.76.61.57.48-.66zM145.71 201.03l.22-.43-.85-.87-1.21.24-.18.57 1.36.13.66.36zM139.68 186.58l-1.96.18-1.21-.66-1.15.12-.72-.39-1.9.06-.73.75-.57-.3-1.15.03-.94-.97-.85.39-.79-.85-1.66-.66-1.24.15.12-.67-.15-.88-.51-.09-.09-.21-.72-.4-.36.22-.6.06-.41.6-2.22-1.3h-.73l-.76.77-1.49-.29-.29-.67-1.52-.13-2.03.86-1.36-.32-2.98-.47-1.08-.6-.28-.38-1.33.38-1.08.44-.98-.41h-.86l-.76.63-.89-1.11-1.05-.22-.64.44-.22-.28-1.52.85.1.57.51.35-.63.48-1.33.16-.54-.25-1.58.57-.44.92.38.89.54-.19-.03.48.35.16-.22 1.18.32.13.67-.64-.19.89.32.32-.48.51.7.13-.98.86.02.23 1.86-.3.71.2-.12.9.36.61 1.39-.73 2.3.48.79-.79 2 .24.12 1.03.85 1.21-.24.85h-.61l-1.58 1.51.18 1.09-.12 2.66-.91.91.73.73-1.09 1.51-.73-.12-1.03.24 1.09 2.06.97.6.06 1.69-1.33 1.33.61 1.21.91.06-.12.79-1.03.85-.97 1.82.61.97.04.98.68.19 1.23.14 1.71 1.64-.17.27.81 1.93 1.39 1.37 1.36.22 1.23-.67.03-.68.58-.52 1.55-.19 1.31-1.31 1.5-.19.69-.38 1.72.48 1.14.13.28-.35.73.03.7.54.66-.57.41-.73.79.7.89.41.98-1.59v-.85l2.54-1.21 1.43-.07.35-.53-.35-.35.16-1.24 1.33-1.87-.03-.98 1.4-.35.92-.89-1.05-1.42-.63-.35-.19-.82-.7-1.21.48-.6 1.62-2.7.85-.41 1.21-2.06.44.16-.15.13.09.1.59-.36.2-.98-.44-.38.95-.51 1.05-.74 1.61.08s1.25-.51 1.33-.54c.08-.03.71-.9.71-.9l1.58-.95.43-.79.11-1.03-.22-1.33.67-.44-.05-.46-.53-.18-1.39-.85ZM141.27 203.35l.36-1.09.94-.84-.84-.06-.97-.15-.82.54-.18.73.85.27.66.6z" class="cls-8"/><path d="m100.52 211.63.96-1.81 1.03-.85.12-.79-.9-.06-.61-1.21 1.33-1.33-.06-1.69-.96-.61-1.09-2.06 1.02-.24.73.13 1.09-1.52-.73-.73.91-.9.12-2.66-.18-1.09 1.57-1.52h.61l.24-.84-.85-1.21-.12-1.03-1.99-.24-.79.78-2.3-.48-1.39.73-.36-.61.12-.91-.71-.19-1.86.29.08.88.63 1.42-.29 2.64.16.41-.31 1.17.6.7-.45.6-.5 1.08-.07 1.36-.94 1.36v.8l-1.12 1.59-.57 2.43.03.61h.86l.41-.61.86-.53-.13.53.22.45-1.23.6-.06.89.37.41.64-.6 1.08.03-.45.57.29 1.11-.41.98.06 2.22-.41 1.59-.32.47.32.26 1.23-.86 1.75.7.79.48 1.24-.7 1.11-.1.19-.35.03.01-.04-.98-.6-.97z" class="cls-5"/><path d="m235.32 217.41.53-.24.28-.44-.33-.15-.65.24-.2.3.38.29ZM227.09 195.4l-.34.12-.24.76.47-.01.23.14.53-.26-.08-.46-.57-.29zM235.95 211.6l.35.4.41.01.19-.24.47-.23-.09-.32-.22-.04-.14.16-.5-.4-.49-.05-.69.56-.18.3.44-.12.45-.03zM227.05 213.77l.36-.21.02-.38-.38-.1v.69ZM227.69 217.01l.12-.44-.54-.01-.4.58.36.04.46-.17zM227.58 214.82v-.55l-.37.27.37.28zM226.51 212.53l.14.27.42-.18-.3-.41-.26.32zM242.88 218.09l.29-.23.05-.42-.54.23-.95.39-.91.76-.05.44.13.16-.21.46.26.27.34-.06.38-.46.45-.43.4-.02-.02-.27.23-.37.15-.45zM221.55 218.8l-.03.44.41.21.29-.61-.42-.56-.13-.56-.15.17-.22.51.25.4zM221.48 217.11l-.08.35.3.01-.22-.36zM211.65 210.74l-.12.46.57.57.47.12.11-.27.51.07-.31-.36-.38-.52-.52-.24-.33.17zM238.36 221.29l.26.51.13.85.26-.12.3-.79-.39-.51-.11-.5-.45.56z" class="cls-3"/><path d="m233.86 193.72-.18-.9 1.09-.67.06-1.03-.85-.36.17-1.1h-.5l-1 .75-.06.97.33.72-.54.46-1.78-.12-.82.39-.72-.42h-.82l-.57.45-.79-.06-.12-.7-1.09.03-1.02-.18-.73.7-1.06.27-1.38-.03-.43-.21-.03.02-.51.46-.76.03-.96.61-2.09-.1-.87.49-.06.36-1.18.42-1.66 1.03-.02.09-.16 1.09-.67 1.21-1.66.54-.06.97-.57 1.24-.55.28.09.06.06 1.21 1.53 1.14.86 1.25.41.09-.1.38 1.18 1.65.28 1.14.54.22.7-.85.63.79.98.13.42-.64.7.07 1.11.66.66-.31.13.57.54-.04.44.35.89.16-.64.38-.57.57-.56-.47-.77-.19-1.65-1.08-.73.25-.69.41-.73-.34-.61.76-.44.12-.28.73.88 1.02.92.44.89.83.09.6-.34.41.06.79.76.99.51.57.22-.54-.19-.41.32-.73.28.92 1.11.47.26.6-.16.7.47.57v-1.17l.41-.95h.7l.32.76 1.24.82-.51-.85.13-.57-.45-.83-.57-1.36-.5-.79.03-.32.5-.06.92.47-.28.35.28.32.48-.51.95.32.03-.32-.38-.29-.08-.35-.33-.09-.7-.45.06-.4-.82-.64.79-.35.73.03.45-.37 1.13.79.13.34.8.1.22-.47-.7-1.02.19-.95-.28-.54-1.94-1.21-.6-.15-.29-.48-.54.03-.34-.44-.83-.1-.82-.73.88-.12.51-.61-.03-.44-.83-.22.45-.57-.03-.48.64.24.52.43-.21.46.07.44.45-.11.29-.98-.56-.66-1.27-1.56-.53-.41-.13-.58-.98-.82.35-.44-.16-1.65.54-.86 1.01-.22.13.83h-.48l.1.44 1.3.6.12 1.01.83.67.92-.03-.67-.44-.35-.64.13-.57.86.29.66.92.57.22.32-.54-.63-.47-.58-.23.04-.47 1.55.06.57.57.25-.29-.89-.82-.92-.13-.75-.88.44-.51.82.25.67-.38.32-1.11.6-.22.92.7.7.06.76-.79.03-.41h.35l.57.66h1.71l1.28.34.92-.23.48-.97zM239.04 220.36v-.41l-.23.38.12.18.11-.15z" class="cls-3"/><path d="m220.93 204.97-.59.51.36.07.72-.02.4.33.17.27.37.17.33.45.52.13.33.51.76.41.54-.04.22.34.53.8.33.32-.08.46.23.42.62.41.35-.19.39.2.31-.84-.75-.08-.24.18-.56-.54.08-.62-.12-.43-.02-.34-.35-.64-1-1-.09.13-.54-.03-.09-.16-.71-.38-.73-.27-.63-.7-1.06.17zM234.72 202.69l-.87.14-.46.29-.93.33-.38.64.62.51.26.03.39-.09.09-.5.19-.48.61-.02-.06.52-.35.28-.22.34.57.27.84-.06.01-.88-.14-.6-.19-.03.16-.48-.14-.21zM232.83 208.66l.46.35.57-.27.15-.68-.18-1.03-.2-.2-.51-.21-.48.26v.27l.54.41.02.62-.38.15.01.33zM223.8 204.59l-.14-.53-.43-.16-.26.08.69.89.14-.28zM231.44 215.12l.4.02.37-.49-.09-.44-.37-.08-.6.52.29.47zM211.75 207l.25-.32-.11-.71-.29.05-.38.68.05.28.22.08.26-.06zM222.51 203.77l-.31.22.28.37.21-.41-.18-.18zM210.47 208.42v.88l.38.39.21-.22.01-.43.2.22v.47l.58.07.5.27.25-.41-.16-.22-.11-.4-.36-.38.1-.35-.25-.59-.47-.39-.02 1.02-.36-.07-.5.14zM207.64 200.78l-.73.28.07.42.44.18.05.24.74.79.69.32.19-.15-.09-.29-.54-.2-.47-.53.03-.82-.38-.24zM234.36 212.37l.14-.42-.88.17-.12.46.27.34.59-.55zM230.06 214.97l.37.32.39-.57-.18-.42h-.41l-.17.67zM229.73 199.36l-.28-.25-.67.02-.21.32.19.63.38.32.34-.06.48.21.1-.8.52-.56-.42-.23-.43.4zM227.6 205.21l-.35-.38-.29.1.43.7.21.06.23.47.27-.1-.08-.7-.42-.15zM231.22 213.27l.37-.23-.36-.1-.01.33zM230 212.22l.35.4.47.21-.06-.39-.36-.35-.4.13zM228.16 210.57l-.21.37.38.32.89.87.34.02.02-.46-.71-.63-.33-.52-.38.03zM231.31 196.58l-.57.08-.15.29.79.32.46-.17-.02-.38-.51-.14zM224.52 221.65l-.04.6-.26.53.07.63.61.27 1.4-.18.57.15.56-.19.83.24.91.53.11.54 1.04-.04.87-.55.96.1 1.54-.05 1.07.03.6-.38.26-.59-.14-.58v-.36l-.23.33-.03.43-.51.42-.36-.32-.44.17-.44-.06.09-.4-.21-.54-.41.01-1.14-.15-.89-.39-1.18.04-.98.62-.76.2-.63-.33-.31-.33-.5.07.35-.32-.3-.5-.65.05.12.32.21.06-.24.21-.62.03-.15-.62-.2-.06-.07.35.1.42-.31.11-.27-.52z" class="cls-3"/><path d="m240.78 216.65-.29.3.36.12.37-.1-.09-.31-.35-.01zM232.02 197.89l-.61.01-.16.34.65.25.83-.22.12-.46-.39-.26-.44.34zM238.33 189.19l-1.14-.91h-1.21l-.49.54-.66.06-.67.73-.18 1.15.85.36-.06 1.03-1.09.67.18.9-.48.97-.92.23.05.01.35.73.67.41.47-.13.51.16.79-.09-.82.54-.48.03-.41 1.24.07.57 1.74-1.49 2.19-1.12.44-1.13.85-.36 1.43.04.38-.35h.95l.57.31 1.05.1.73-.73v-.54l-.86-.47-.95-.99-.92-.12-1.26-1.11-.13-1.49-.93-.24-.61.49z" class="cls-4"/><path d="m27.68 209.83-.74.21.12.37 1.08.18.31-.24-.3-.42-.47-.1zM17.7 205.27l.75.53-.24-.44-.51-.09zM16.18 206.02l.08.81.86.06.48-.11-.75-.68-.67-.08zM21.28 205.27l.58.42.03-.32-.4-.24-.21.14zM62.62 235.11l-.44-.68-1.12.15.24.46.77.31.55-.24Z" class="cls-7"/><path d="m172.68 230.09-.12.32.66.51.54-.45-.31-.38h-.77z" class="cls-4"/><path d="m57.52 62.06.93.94.67.33.66-.58.79.07 1.33 1.26 1.75-.03.69.27 1.12-.33-.15-.93.27-.4.22.52.93.24.91-.88.06-1.02 1.08-.12-.39.51.3.39.34-.39.63-.12.76-1 .4.23.27-.1.71.05-.02.23.35-.23 1.76-1.53.66-.91 2.09-.41.41-.5-.2-.38.11-.56.39.05.18.62 1.05.36.6-.67.11-.51-.26-.29.09-.53.49-.14-.36-1.03.33-.39.71.44.15.67.68-.11.46-.88-.25-.74-.74-.79-.03-.83.46-.38-.07-.76.73-.38.65-.01.4-.58-.7-.69-1.66-.14-.54.41.44-.76-.1-.61-.94-.07-.24.21-.31-.77.59-.73.63-.2-.14-1.09-.41-.24-.56.43-.68-.28-.33-.77.75-.34.09-.63.38-.32.79-.2-.85-.38-.65.18-1.33 1.26-.24.7-.49.08-.54-.82.32-.5-.4-.41-.13-.75-.79-.22-.65.42-.5-.24-.38.71.34.81-.32.57-.82.08-.82.38-.01-.7-.44-.32-.49.71-.47 1.06-.8-.03-.79-1.36-.6.15-.27-.21-.64.06-.27 1.39.76 1.48-.91 2.11.33-1.81-.81-1.24v-.66l-.33-.33.08-.85-.84-.51-1.63 1.05-.24.91.3.69-.7 1.12h-.66l-.09-1.24-.58-.24-.12-1.72-.57-.45-1.03.87.15 1.91.43.57-.07 1.33-.51.66-.72.03-.03-.99-.85.42-.33 1-.51.33-.03 1.33-.58-1.3-.6-.06.12-.63.6-.79v-.64h-.93l.39-.54-.48-.97.6.4.66-.7-.18-.48-.78-.36.69-.52-.63-.69-.45.36-.39-.63-1.04-.58-.02-.72-.4-.78-.78.2-.87-.28-1.23.1-.12.34.35.5.5-.03.09-.36.6.03.48.32.67.22-.33.4-.74-.23-.75.02.11.27 1.15.76.76.91-.21.6-.37.06v-.5l-.86-.6-.58.51-.48-.15.24-.5-.68-.87-.8-.34-.59.36.57.79-.16.44-.49-.73-.68-.21-.19.5.47.61.48.28.29.43-.77-.32-.74.32.45.65 1.1.32-.53.1-.22.2.19.47-.25.06-1.18-1.09-.37-.07-.39.42.51.95.32.58-.32.13-.71-.95-.69-.2-.44.82.87.35.7.77 1.03.2.52-.82.9-.26.4-.72.25.42.02.41h.45l.55-.33.15.79h.35l.66-.52.2-.44.07.83.26-.01.85-.7-.04.4-.28.65.37.29.55-.47.9.51-.49.2-.48.01-.57.43-.69.06-1.1.48-.08.3 1.4.4.75-.12.32-.5.47-.2-.05.67-.46.65-1.44.17-.49-.14-.66.64-.34-.41-.25-.26-.01-.34-.43-.13-.13.19.15.35-.65.47-.49-.27-.7.05-.73.37-.84-.34-.56.23-.4-.05.57.89.33.75 1.07.07v-.27l1.35.36 1.59-.1.89.07-.06.38-.55.37-.02.43.75.54.18.54.5-.09 1.05-.73-.19.54-.74.54-.41.61.64.47 1.14-.91.89.27.21.48-.55-.33-.81.29-.59.51-.77.02-.05.58-.39.48-.46-.1-.53.3-.25-.53-.7-.47-.03.36h-.3l.18.99.39.18-.3.22-.11 1.37.99-.02.27-.31.64.37 1.37.17.99-.75.83.45.63-.4.15.47.52.16.88-.31-.09.88zM58.64 63.99l-.23.59.26.56.53-.38-.13-.88-.43.11z" class="cls-8"/><path d="m290.12 28.18.18-.15.07-.39-.06-.58.06-.21-.06-.35-.29.14-.04.22.09.12.01.33-.14.33.18.54zM288.39 28.3l.12.12.28-.25.04-.41.1-.13.03-.35-.15-.15-.26.09-.23.38.09.27-.02.43zM288.85 28.91l.19.45.15.05.09-.26v-.62l-.11-.15-.22.18-.1.36ZM288 42.77l-.24.16-.09.31-.24.53.17.32.02.16.33-.24.15-.47-.03-.38.09-.27-.16-.12z" class="cls-2"/></svg>