<svg xmlns="http://www.w3.org/2000/svg" id="Calque_1" data-name="Calque 1" viewBox="0 0 128 128"><defs><style>.cls-2,.cls-3{stroke:#000;stroke-linecap:round;stroke-linejoin:round;fill:#bfe6fc;stroke-width:2px}.cls-3{fill:none}</style></defs><path d="M96.56 71.77v5.94c0 7.41-6.01 13.42-13.42 13.42H47c-7.41 0-13.42-6.01-13.42-13.42v-5.94h62.98Z" class="cls-2"/><rect width="70.45" height="5.26" x="29.84" y="66.52" class="cls-2" rx="2.41" ry="2.41"/><path d="M53.72 61.54v4.97h-7.66v-4.97z" class="cls-2"/><path d="M52.16 58.14v3.41h-4.54v-3.41zM56.23 58.14H43.55" class="cls-3"/><path d="M81.99 61.55v4.97h-7.66v-4.97z" class="cls-2"/><path d="M80.43 58.14v3.41h-4.54v-3.41zM84.5 58.14H71.82M82.86 32.59v-.16c-.09-4.38-3.66-7.9-8.06-7.9s-7.98 3.52-8.07 7.9v.16" class="cls-3"/><path d="M82.86 32.59v-.16c-.09-4.38-3.66-7.9-8.06-7.9s-7.98 3.52-8.07 7.9v.16" class="cls-3"/><path d="M87.98 32.43v8.22h-5.12v-8.22c-.09-4.38-3.66-7.9-8.06-7.9s-7.98 3.52-8.07 7.9v34.08h-5.12V32.43c.09-7.21 5.96-13.02 13.19-13.02s13.09 5.81 13.18 13.02Z" class="cls-2"/><path d="M80.83 40.65H90v4.06h-9.17zM71.82 98.02v6.21c0 3.67-3.01 6.67-6.67 6.67h-.17c-3.67 0-6.67-3-6.67-6.67v-6.21" class="cls-2"/><path d="M75.47 91.13v5.04c0 1.02-.83 1.85-1.85 1.85H56.51c-1.03 0-1.86-.83-1.86-1.85v-5.04h20.82Z" class="cls-3"/><path d="M61.6 91.13h6.93v6.89H61.6z" class="cls-3"/><path d="M85.52 46.85s-3.16 6.4-.07 6.44.07-6.44.07-6.44Z" style="stroke-linecap:round;stroke-linejoin:round;stroke:#000;fill:#87ccf3"/><path d="M-1908.65-2123.95h6467.34v6437.3h-6467.34z" style="stroke:#fff;stroke-width:8px;fill:none;stroke-linecap:round;stroke-linejoin:round"/></svg>