<svg xmlns="http://www.w3.org/2000/svg" id="Calque_1" data-name="Calque 1" viewBox="0 0 200 128"><defs><style>.cls-1,.cls-2,.cls-5,.cls-6,.cls-7,.cls-8,.cls-9{stroke:#000}.cls-1,.cls-2,.cls-5,.cls-6,.cls-7{stroke-linecap:round;stroke-linejoin:round}.cls-1,.cls-9{fill:#d6d6d6}.cls-2{fill:#8987f3}.cls-5{fill:#ff6d75}.cls-6,.cls-8{fill:#f3d587}.cls-7{fill:none}.cls-13{fill:#fff}.cls-8,.cls-9{stroke-miterlimit:10}</style></defs><path d="M103.37 117.43c.07-.24.12-.49.12-.75 0-1.44-1.17-2.61-2.61-2.61-1.17 0-2.15.78-2.48 1.85-.41-.02-.84.05-1.24.24-1.3.62-1.86 2.17-1.24 3.47.62 1.3 2.17 1.86 3.47 1.24.04-.02.07-.05.11-.07.46.74 1.27 1.24 2.21 1.24 1.44 0 2.61-1.17 2.61-2.61 0-.81-.38-1.52-.95-2ZM49.53 79.11c.07-.24.12-.49.12-.75 0-1.44-1.17-2.61-2.61-2.61-1.17 0-2.15.78-2.48 1.85-.41-.02-.84.05-1.24.24-1.3.62-1.86 2.17-1.24 3.47.62 1.3 2.17 1.86 3.47 1.24.04-.02.07-.05.11-.07.46.74 1.27 1.24 2.21 1.24 1.44 0 2.61-1.17 2.61-2.61 0-.81-.38-1.52-.95-2ZM74.81 44.18c.07-.24.12-.49.12-.75 0-1.44-1.17-2.61-2.61-2.61-1.17 0-2.15.78-2.48 1.85-.41-.02-.84.05-1.24.24-1.3.62-1.86 2.17-1.24 3.47.62 1.3 2.17 1.86 3.47 1.24.04-.02.07-.05.11-.07.46.74 1.27 1.24 2.21 1.24 1.44 0 2.61-1.17 2.61-2.61 0-.81-.38-1.52-.95-2ZM129.33 61.21c.07-.24.12-.49.12-.75 0-1.44-1.17-2.61-2.61-2.61-1.17 0-2.15.78-2.48 1.85-.41-.02-.84.05-1.24.24-1.3.62-1.86 2.17-1.24 3.47.62 1.3 2.17 1.86 3.47 1.24.04-.02.07-.05.11-.07.46.74 1.27 1.24 2.21 1.24 1.44 0 2.61-1.17 2.61-2.61 0-.81-.38-1.52-.95-2Z" class="cls-1"/><path d="M127.66 43.02c0 .32-.24.59-.55.64-3.15.51-3.49 5.39-6.98 5.39-3.68 0-3.68-5.42-7.36-5.42s-3.68 5.32-7.27 5.41h-.09c-3.68 0-3.68-5.42-7.35-5.42s-3.68 5.42-7.36 5.42c-3.33 0-3.64-4.44-6.4-5.28-.56-.17-.96-.67-.96-1.26v-5.66c0-1.95 5.87-2.79.61-6.62-.38-.28-.61-.73-.61-1.2v-4.21h44.3v4.28c0 .41-.28.96-.62 1.2-3.32 2.37-1.34 5.2-.12 6.1.45.32.73.82.73 1.37v5.25Z" class="cls-8"/><path d="M107.75 42a1.084 1.084 0 1 1-2.17 0c0-.6.49-1.1 1.08-1.1s1.09.49 1.09 1.1ZM103.44 40.06c0 .88-.93 1.6-2.07 1.6s-2.06-.72-2.06-1.6.92-1.6 2.06-1.6 2.07.72 2.07 1.6ZM92.65 44.8c0 .76-.64 1.37-1.44 1.37s-1.43-.61-1.43-1.37.64-1.37 1.43-1.37 1.44.61 1.44 1.37ZM90.12 38.96c0 .89-.91 1.61-2.03 1.61s-2.03-.72-2.03-1.61.91-1.6 2.03-1.6 2.03.72 2.03 1.6ZM95.85 37.02c0 .61-.4 1.1-.92 1.1s-.91-.49-.91-1.1.4-1.1.91-1.1.92.49.92 1.1ZM107.81 34.72c0 .77-.47 1.43-1.15 1.78-.34.18-.73.29-1.15.29-1.27 0-2.3-.92-2.3-2.07s1.03-2.06 2.3-2.06c.43 0 .82.11 1.15.29.68.35 1.15 1.01 1.15 1.77ZM113.57 38.12c0 1.2-.43 2.18-.95 2.18s-.95-.97-.95-2.18.42-2.19.95-2.19.95.98.95 2.19ZM120.41 36.27c0 .61-.69 1.1-1.56 1.1s-1.56-.49-1.56-1.1.7-1.09 1.56-1.09 1.56.49 1.56 1.09ZM121.77 44.8c0 .87-.61 1.58-1.36 1.58s-1.35-.71-1.35-1.58.61-1.58 1.35-1.58 1.36.7 1.36 1.58ZM124.81 40.06c0 1.07-.69 1.94-1.56 1.94s-1.56-.87-1.56-1.94.7-1.95 1.56-1.95 1.56.87 1.56 1.95ZM123.05 29.81c0 1.05-1.18 1.9-2.64 1.9s-2.64-.85-2.64-1.9 1.18-1.9 2.64-1.9 2.64.85 2.64 1.9ZM113.91 29.81c0 .64-.58 1.15-1.29 1.15s-1.29-.52-1.29-1.15.57-1.15 1.29-1.15 1.29.51 1.29 1.15ZM106.66 28.19c0 .73-.49 1.34-1.15 1.55-.15.04-.3.07-.45.07-.89 0-1.61-.73-1.61-1.62s.72-1.62 1.61-1.62c.16 0 .31.02.45.07.67.2 1.15.81 1.15 1.55ZM99.13 29.96c.07 1.34-1.48 2.52-3.46 2.62-1.98.11-3.65-.9-3.71-2.24-.07-1.34 1.48-2.52 3.46-2.62 1.98-.11 3.65.9 3.71 2.24ZM89.04 28.19a.95.95 0 1 1-1.9 0 .95.95 0 0 1 1.9 0Z" class="cls-13"/><path d="M105.51 19.67H83.35V24.82h44.31V19.67h-22.15z" style="fill:#76ac75;stroke-miterlimit:10;stroke:#000"/><path d="m122.49 112.16 1.69 2.45c.52-.32 1.13-.51 1.78-.51.45 0 .87.09 1.26.25l6.1-7.39-4.47-2.07-6.37 7.27ZM122.51 117.45c0-1.2.63-2.25 1.57-2.84l-1.69-2.45s-13.55 2.45-13.74 6.63v1.79h15.21l.13-.35c-.89-.6-1.48-1.62-1.48-2.78Z" class="cls-5"/><path d="M124.18 114.61c-.94.59-1.57 1.64-1.57 2.84s.59 2.18 1.48 2.78a3.359 3.359 0 0 0 5.23-2.78c0-1.41-.86-2.61-2.09-3.11a3.331 3.331 0 0 0-3.04.26ZM176.35 67.67a3.215 3.215 0 0 0 3.23 3.22c1.78 0 3.23-1.45 3.23-3.23s-1.45-3.23-3.23-3.23a3.225 3.225 0 0 0-3.23 3.23Z" class="cls-1"/><path d="M160.15 93.09c.13-.12.25-.24.38-.36-.13.12-.25.24-.38.36Z" class="cls-7"/><path d="M165.56 86.46s-.02.03-.03.04h0s.02-.03.03-.04Z" class="cls-5"/><path d="M161.96 91.27c.12-.13.24-.28.36-.41-.12.14-.24.28-.36.41ZM162.83 90.28c.12-.14.23-.29.35-.43-.12.14-.23.29-.35.43Z" class="cls-7"/><path d="M165.53 86.51c-.1.16-.19.33-.29.48.1-.16.19-.32.29-.48h0Z" class="cls-5"/><path d="M163.67 89.24c.11-.15.22-.31.34-.46-.11.15-.22.31-.34.46ZM164.47 88.14c.11-.16.22-.33.33-.49-.11.16-.22.33-.33.49ZM156.34 96.16l.42-.3-.42.3Z" class="cls-7"/><path d="M152.49 98.53c.17-.09.34-.19.52-.29-.17.1-.35.19-.52.29Z" class="cls-5"/><path d="M151.55 99.02c.17-.09.35-.18.53-.28-.18.09-.36.19-.53.28Z" class="cls-2"/><path d="M183.2 108.87c0 6.36-5.16 11.52-11.52 11.52-2.61 0-5.02-.87-6.96-2.34-2.77-2.1-4.57-5.43-4.57-9.18 0-4.1 2.14-7.7 5.37-9.75a11.435 11.435 0 0 1 7.49-1.7c.01 0 .02.01.03 0 5.72.67 10.16 5.55 10.16 11.45Z" class="cls-1"/><path d="M148.84 100.29c.21-.09.43-.18.64-.28-.22.1-.43.19-.64.28ZM153.44 98c.16-.09.32-.19.48-.28-.16.1-.32.19-.48.28Z" class="cls-5"/><path d="M161.44 91.81c-.13.13-.25.27-.38.39.13-.13.25-.26.38-.39Z" class="cls-7"/><path d="M149.72 99.9c.2-.09.4-.18.6-.28-.2.09-.4.19-.6.28Z" class="cls-5"/><path d="M150.62 99.48c.18-.09.37-.18.55-.27-.19.09-.37.18-.55.27Z" class="cls-2"/><path d="M159.22 93.93c.13-.11.26-.23.38-.34-.13.11-.25.23-.38.34ZM158.27 94.72c.13-.11.26-.22.4-.33-.13.11-.26.22-.4.33ZM154.41 97.43c.15-.09.3-.19.45-.28-.15.09-.3.19-.45.28ZM155.38 96.81a10.816 10.816 0 0 0 0 0ZM157.31 95.46c.14-.1.27-.21.41-.32-.13.11-.27.21-.41.32Z" class="cls-7"/><path d="m148.86 94.41-.03.17c0-.06.02-.11.03-.17h0Z" class="cls-5"/><path d="M155.81 96.52c.18-.12.36-.24.53-.36-.18.12-.36.24-.53.36ZM156.76 95.86c.18-.13.36-.26.55-.4-.18.14-.36.27-.55.4ZM158.66 94.39c.18-.15.37-.3.55-.46-.18.16-.37.31-.55.46ZM159.6 93.58c.19-.16.37-.33.55-.5-.18.17-.37.33-.55.5ZM154.86 97.15c.17-.11.35-.22.52-.33-.17.11-.35.22-.52.33ZM157.72 95.15c.19-.14.37-.28.55-.43-.18.15-.37.29-.55.43ZM161.07 92.2c-.18.18-.36.35-.54.52.18-.17.36-.34.54-.52Z" class="cls-7"/><path d="M149.48 100.01c.08-.04.16-.07.24-.1-.08.04-.16.07-.24.1ZM150.32 99.63c.1-.05.21-.09.31-.14-.1.05-.21.1-.31.14ZM148.67 100.35c.06-.02.11-.04.17-.07-.06.02-.11.05-.17.07ZM153.01 98.25c.15-.08.29-.16.44-.25-.15.08-.29.16-.44.25ZM153.92 97.72c.16-.1.32-.19.48-.29-.16.1-.32.19-.48.29Z" class="cls-5"/><path d="M151.18 99.21c.12-.06.25-.12.37-.19-.13.06-.25.12-.37.19Z" class="cls-2"/><path d="M152.08 98.75c.14-.07.27-.14.41-.22-.14.07-.27.14-.41.22Z" class="cls-5"/><path d="M164.01 88.78c.16-.21.31-.42.47-.64-.15.22-.31.43-.47.64Z" class="cls-7"/><path d="M164.8 87.65c.15-.22.3-.44.44-.66-.14.23-.29.44-.44.66Z" class="cls-5"/><path d="M161.44 91.81c.17-.18.35-.36.52-.54-.17.19-.34.36-.52.54ZM162.32 90.85c.17-.19.34-.38.5-.58-.17.2-.34.38-.5.58ZM163.18 89.84c.16-.2.33-.4.49-.61-.16.21-.33.41-.49.61Z" class="cls-7"/><path d="M178.38 99.16v.31l-.13-.07-.3-.18c-.92-.54-1.92-1.05-2.96-1.4-.14-.04-.28-.09-.42-.12-.33-.1-.67-.17-1-.21-.18-.04-.35-.06-.53-.07h-.03a11.435 11.435 0 0 0-7.48 1.7v-26.9c.02-.43.02-.86.01-1.31v-5.03c1.45-1.07 2.7-1.84 3.63-2.35.09-.06.2-.12.28-.16.1-.06.19-.09.28-.14.64-.34 1.06-.52 1.16-.56h.02l4.36-.84c.03.01.06.01.08.02 1.32.35 2.2 1.27 2.63 2.75l.06.21-.18.11c-.24.15-.46.33-.64.53-.19.19-.35.41-.48.65-.01 0 0 .01 0 .01-.27.47-.41 1-.41 1.56 0 .45.09.88.27 1.28.29.66.8 1.22 1.46 1.57l.16.09.15 28.55ZM165.42 74.45l-.18 12.54c-.14.23-.29.44-.44.66h0s-.04.07-.07.1c-.08.13-.16.26-.26.39-.07.11-.15.22-.23.32l-.23.32c-.06.07-.12.15-.17.23s-.11.15-.17.22c-.08.11-.16.21-.24.31-.09.1-.17.2-.25.3-.06.07-.12.15-.17.22-.06.07-.12.15-.18.22-.16.19-.34.38-.5.58-.14.14-.25.27-.37.4h0c-.09.11-.17.19-.26.28-.09.09-.17.18-.26.27-.06.07-.13.13-.18.2-.07.06-.13.13-.2.19-.17.18-.35.35-.53.52l-.38.37c-.18.17-.36.33-.55.49-.13.11-.25.24-.38.35-.18.16-.37.3-.56.46l-.39.33c-.19.14-.36.29-.55.42-.13.1-.27.22-.41.32-.18.14-.37.26-.54.4-.15.1-.28.2-.43.3-.17.12-.35.24-.53.36l-.21.15c-.07.05-.15.09-.22.14-.18.12-.35.23-.52.33-.15.1-.3.2-.45.29-.16.09-.32.19-.49.29-.15.09-.32.19-.48.28-.14.08-.28.16-.43.25-.18.09-.35.19-.52.28-.07.04-.13.08-.2.11-.07.04-.14.07-.21.11-.17.09-.35.18-.53.27l-.37.19c-.19.09-.37.19-.55.27-.1.05-.21.09-.31.14-.21.1-.41.19-.6.28-.08.03-.16.07-.24.11-.22.09-.43.18-.64.28-.06.02-.11.04-.17.06-.12.05-.23.1-.35.15-.12.05-.23.1-.35.14l-.18.07-.32.13h-.01l.11-.52.03-.16c.51-2.43 1.03-4.15 1.03-4.17.04-.29.09-.6.13-.91l.48-.19c5.91-2.37 14.98-7.99 16.18-20.44Z" class="cls-5"/><path d="m165.53 67.24-.03 2.32c-.06-.78-.13-1.59-.24-2.43v-.11c-.04-.22-.07-.45-.1-.68l-.03-.15c.13-.1.25-.19.37-.27.01-.02.02-.02.03-.02h0l.02-.02-.02 1.32v.04ZM165.53 70.37c0 .18.02.36.02.54v1.31c0 .19-.01.38-.02.57v.15c-.02.51-.06 1.02-.11 1.51l.08-4.89.03.76v.05Z" class="cls-2"/><path d="M148.76 95.08h0c.03-.17.05-.33.07-.51l-.08.51ZM163.73 66.93c-5.54 4.61-12.53 13.08-14.86 27.48 0 .06-.02.11-.03.17-.03.17-.05.33-.07.5l.47-.19c6.97-2.79 18.31-10.1 16.03-27.77l-.02-.11-.09-.68-.02-.16" class="cls-5"/><path d="M169.63 39.1c.03 1.92 3.05 3.76 3.79 4.33 3.26 2.52 6.1 6.64.81 15.29-.07-.07-.14-.14-.22-.2a1.9 1.9 0 0 0-.44-.32c-1.11-.72-2.57-.83-3.73-.76h-.1c-.16.02-.3.03-.42.05l-.28.03c-.07 0-.1.01-.1.01 5.71-6.59 2.49-9.74-1.16-12.98-.55-.49-1.08-.96-1.56-1.44-.99-.98-1.5-2.2-1.5-3.53.02-3.2 3.07-6.17 6.28-9.33 1.31-1.3 3.89-4.04 4.93-5.79 2.97-5 2.45-9.3.84-10.96-2.03-2.11-8.09-2.03-11.27-.67h0l-1.96-1.24-.31-.19-1.88-1.18c2.42-2.51 13.66-5.57 18.94-.13 3.11 3.22 3.58 8.58.19 16.17-.9 2.02-3.58 5.06-6.06 7.49-1.69 1.65-4.82 3.56-4.79 5.35Z" class="cls-1"/><path d="M165.53 65.88h.02-.02Z" class="cls-2"/><path d="m163.54 11.59-.31-.19-1.88-1.17-32.49 94.66 2.12.98 2.34 1.09 32.06-93.77.12-.36v-.01l-1.96-1.23z" class="cls-1"/><path d="M165.39 86.75c.04-.07.09-.15.14-.22v12.59c-3.23 2.05-5.38 5.65-5.38 9.75 0 3.75 1.79 7.08 4.57 9.18h-12.43c-1.67-.09-2.99-.75-3.94-1.98-2.53-3.31-1.91-10-.88-15.22l.32-.14.18-.07c.12-.04.23-.09.35-.14.11-.05.23-.09.35-.14.05-.03.11-.05.17-.07.21-.1.42-.19.64-.28.08-.04.16-.08.24-.11.19-.09.39-.18.6-.28.1-.05.21-.09.31-.14.18-.08.36-.18.55-.27l.37-.19c.18-.09.35-.18.53-.28.07-.04.14-.07.21-.1.07-.03.14-.07.2-.1.17-.1.34-.2.52-.29.15-.09.29-.17.43-.25.16-.09.33-.19.48-.28.17-.1.33-.2.49-.29.15-.09.3-.19.45-.29.17-.1.34-.21.52-.32.07-.05.15-.11.22-.15l.21-.15c.18-.12.36-.24.53-.36.15-.1.28-.2.43-.3.17-.14.36-.26.54-.4.14-.1.28-.22.41-.32.19-.13.36-.28.55-.42l.39-.33c.19-.16.38-.3.56-.46.13-.11.25-.24.38-.35.19-.16.37-.32.55-.49l.38-.37c.18-.17.36-.34.53-.52.07-.06.13-.13.2-.19.06-.07.13-.14.19-.2.08-.09.16-.18.25-.27.09-.09.17-.17.26-.27h0c.14-.14.24-.28.37-.41.16-.2.34-.39.5-.58.06-.07.12-.15.18-.22s.12-.15.18-.22l.24-.3c.08-.1.16-.2.24-.31.06-.07.12-.14.17-.22s.11-.16.16-.24c.08-.1.16-.2.24-.31.08-.1.16-.21.23-.32.1-.13.18-.26.26-.39a.55.55 0 0 0 .07-.09h0c.15-.24.3-.44.45-.67.04-.08.09-.16.14-.24ZM165.54 84.22v2.31-13.59 11.28ZM175.36 61.85s-.05-.01-.08-.02l-4.36.83h-.02c-.1.05-.52.23-1.16.57-.09.05-.18.08-.28.14-.08.04-.19.1-.28.16-.93.51-2.18 1.28-3.63 2.35h-.02v.02s-.02 0-.03.02c-.3.18-1.64.91-1.77 1.01 0 0-.33-2.35.29-4.72.28-1.06.76-2.11 1.54-2.96l3.38-1.72s.03-.01.1-.01l.28-.03c.12-.02.26-.03.42-.04.96-.05 2.6 0 3.83.75.16.1.31.2.44.32.08.06.15.13.22.2l1.13 3.13Z" class="cls-5"/><path d="m169.32 57.49-.28.03c.06-.01.16-.02.28-.03ZM169.74 63.23c.64-.34 1.06-.52 1.16-.56l-5.35 3.21c1.45-1.07 2.7-1.84 3.63-2.35.09-.06.2-.12.28-.16.1-.06.19-.09.28-.14ZM175.36 61.85l-4.44.81 4.36-.83s.06.01.08.02Z" class="cls-2"/><path d="M112.42 67.51c-1.03-.62-1.7-1.51-2.4-2.13-6.2-5.49-15.01-8.72-15.01-8.72-3.87-1.83-5.63-2.5-7.7-2.45-2.21.06-.87 1.16-.51 1.36 1.89 1.04 5.99 2.7 5.99 2.7 1.37.89.4.97-.43.67-5.15-1.86-8.81-3-10.64-3.09-3.22-.17-1.76 1.92-.81 2.34.77.34 6.23 2.15 8.25 3 3.25 1.35 0 .99-.86.7-2.41-.82-4.5-1.52-6.34-2.02-1.64-.44-3.09-.72-4.39-.76-2.94-.1-1.37 2.06-.83 2.38 2.28 1.33 9.8 3.9 9.8 3.9 3.23 1.42-.02.97-.25.91-4.63-1.17-8.11-3.12-10.43-2.97-1.72.11-1.05 1.52-.73 1.93.97 1.23 7.23 3.69 7.23 3.69l9.23 3.7c4.65 2.06-4.41-1.04-4.41-1.04-5.69-1.78-5.7.37-5.7.37 0 2 5.8 3.34 7.51 3.95 11.02 3.94 12.19 1.79 15.04 2.2 1.34.19 6.62 4.51 7.17 4.95 1.96 1.56 8.49 5.99 8.49 5.99 3.24-1.84 5.33-4.34 6.68-6.69 2.02-3.52 2.38-6.68 2.38-6.68s-10.39-4.58-16.31-8.16ZM108.74 92.28l-9.23-3.7c-4.65-2.06 4.41 1.04 4.41 1.04 5.69 1.78 5.7-.37 5.7-.37 0-2-5.8-3.34-7.51-3.95-11.02-3.94-12.19-1.79-15.04-2.2-1.34-.19-6.62-4.51-7.17-4.95-1.96-1.56-8.49-5.99-8.49-5.99-3.26 1.85-5.34 4.36-6.69 6.72-2.01 3.51-2.36 6.65-2.36 6.65s10.39 4.58 16.31 8.16c1.03.62 1.7 1.51 2.4 2.13 6.2 5.49 15.01 8.72 15.01 8.72 3.87 1.83 5.63 2.5 7.7 2.45 2.21-.06.87-1.16.51-1.36-1.89-1.04-5.99-2.69-5.99-2.69-1.37-.89-.4-.97.43-.67 5.15 1.86 8.81 3 10.64 3.09 3.22.17 1.76-1.92.81-2.34-.77-.34-6.23-2.15-8.25-3-3.25-1.35 0-.99.87-.69 2.33.79 4.35 1.48 6.15 1.97 1.72.47 3.23.77 4.58.81 2.94.09 1.37-2.06.83-2.37-2.28-1.33-9.8-3.9-9.8-3.9-3.23-1.42.02-.97.25-.91 4.63 1.17 8.11 3.12 10.43 2.97 1.72-.11 1.05-1.52.73-1.93-.97-1.23-7.23-3.69-7.23-3.69Z" class="cls-8"/><path d="M37.6 4.51h-3.25c-1.57 0-2.84 1.27-2.84 2.84v2.01h8.93V7.35c0-1.57-1.27-2.84-2.84-2.84Z" class="cls-9"/><path d="M55.96 32.47c0-5.42-1.42-14.83-12.54-17.67H30.08s-6.97 7.33-9.47 29.45c0 0-1.14 9.46.9 18.81 0 0 .31 4.85 8.57 4.97h16.89s5.6.69 3.31-11.12c-.8-4.15.82-9.54 4.02-16.44.98-2.12 1.66-5.43 1.66-8ZM35.97 63.09h-8.93c-.98 0-2-.77-2.27-1.71 0 0-4.83-16.66 4.75-38.92h10.02c.98 0 1.56.77 1.31 1.71 0 0-7.07 25.97 3.57 38.92h-8.46Zm15.51-29.68c-.88 6.01-3.86 11.74-5.7 11.47-1.84-.27-2.98-5.73-2.11-11.74.87-6.01 3.02-10.26 4.86-9.99 1.84.27 3.82 4.25 2.94 10.26Z" style="fill:#77eddf;stroke-miterlimit:10;stroke:#000"/><path d="M40.94 9.36H31c-2.01 2.13 0 5.44 0 5.44h9.94s2.01-3.31 0-5.44Z" class="cls-9"/><path d="M40.86 24.17c.26-.94-.33-1.71-1.31-1.71H29.53c-9.58 22.27-4.75 38.92-4.75 38.92.27.94 1.29 1.71 2.27 1.71h17.39c-10.65-12.95-3.57-38.92-3.57-38.92Z" class="cls-2"/><path d="m37.9 93.65-21.68-12.9-.58-.34-.32-.19-.26-.15-.32-.19-.58-.34-2.01-1.2c-1.21-.72-2.81-.29-3.55.96-.74 1.25-.36 2.87.85 3.59l2.06 1.23.58.34.39.23.2.12.39.23.58.35 21.54 12.82h.02c.03-.08.07-.16.11-.24.03-.08.05-.16.09-.24l.08-.14 1-1.68 1-1.68.08-.14c.05-.08.11-.13.17-.2.06-.07.1-.15.17-.22h-.02Z" style="fill:#a07637;stroke-linecap:round;stroke-linejoin:round;stroke:#000"/><path d="m42.96 95.66-3.66-2.18a.996.996 0 0 0-.56-.14c-.28 0-.57.12-.81.32-.07.06-.12.14-.18.21-.05.07-.11.13-.16.2l-.08.14-1 1.68-1 1.68-.08.14c-.04.07-.07.16-.1.23-.03.09-.08.17-.1.26-.06.31-.02.61.11.87.09.17.22.32.39.42l3.66 2.18h0c.03-.24.08-.48.13-.72.2-.85.53-1.68 1.01-2.48.03-.05.05-.09.08-.14h0s.06-.09.08-.14a8.401 8.401 0 0 1 2.27-2.53h0Z" style="fill:#baa584;stroke-linecap:round;stroke-linejoin:round;stroke:#000"/><path d="m37.5 94.21-1 1.68h.01l1-1.67.08-.14c.04-.07.1-.14.16-.2-.06.07-.12.12-.17.2l-.08.14ZM35.52 97.58l1-1.68h-.01l-1 1.67-.08.14c-.05.08-.06.16-.09.24.03-.08.06-.16.1-.23l.08-.14ZM53.54 96.19c-2.1-1.35-6.98-2.8-10.7-.86h0c-.23.12-.46.25-.68.4-.2.14-.4.29-.6.45-.68.57-1.3 1.29-1.82 2.19h0a7.835 7.835 0 0 0-1.16 3.38c-.02.26-.03.53-.03.79h0c.07 4.2 3.67 7.8 5.86 9 5.68 3.1 4.85 9.97 4.85 9.97.93-.49 1.81-1.07 2.64-1.69.2-.15.4-.3.6-.46-.17-1.15-.61-3.64-1.44-4.94 0 0 2.07 2.2 2.96 3.63.17-.16.33-.32.5-.48.51-.5.98-1 1.43-1.49l.46-.52c-1.44-1.6-5.45-5.98-7.82-7.7.97.7 6.36 4.53 9.04 6.19.15-.19.28-.37.42-.55.29-.39.55-.75.78-1.08.14-.2.27-.4.39-.58-.79-.71-2.28-2.01-3.18-2.53h0c.77.36 2.56 1.14 3.93 1.32.06-.11.1-.17.1-.17h0s.1-.17.28-.47c.27-.46.7-1.25 1.19-2.27.1-.2.19-.41.29-.62-1.02-.48-2.87-1.28-5.8-2.25 0 0 4.35.95 6.47.7.09-.23.18-.47.28-.71.37-.97.72-2.02 1.01-3.13.06-.25.13-.5.19-.76-1.33.47-3.39 1.11-4.51 1.06 0 0 2.94-.78 4.7-1.94.06-.29.11-.58.16-.87.19-1.15.29-2.32.28-3.51 0 0-5.63 4.01-11.06.5Z" class="cls-6"/><path d="M-1013.48-5545.33h2244.45V403.41h-2244.45z" style="stroke:#fff;stroke-width:8px;fill:none;stroke-linecap:round;stroke-linejoin:round"/></svg>