<svg xmlns="http://www.w3.org/2000/svg" id="Calque_1" data-name="Calque 1" viewBox="0 0 128 128"><defs><style>.cls-1,.cls-2,.cls-4{fill:none}.cls-1,.cls-4{stroke:#000}.cls-1{stroke-linecap:round;stroke-linejoin:round}.cls-2{stroke:#ff6d75;stroke-width:3px}.cls-2,.cls-4{stroke-miterlimit:10}</style></defs><circle cx="62.96" cy="64" r="44.18" style="fill:#fff;stroke-width:2px;stroke-linecap:round;stroke-linejoin:round;stroke:#000"/><path d="M68.11 42.4v43.19l-14.19-6.37H42.23c-2.76 0-5.01-2.24-5.01-5.01V53.77c0-2.76 2.24-5.01 5.01-5.01h11.69l14.19-6.37Z" style="stroke-width:2px;fill:#d6d6d6;stroke-miterlimit:10;stroke:#000"/><path d="M53.92 48.62v11.74M53.92 73.26v6.53" class="cls-4"/><path d="M76.37 58.26c3.83 3.13 4.39 8.83 1.24 12.65" class="cls-1"/><path d="M79.31 54.86c5.69 4.66 6.52 13.12 1.85 18.81" class="cls-1"/><path d="M82.17 51.39c7.63 6.25 8.74 17.6 2.48 25.22" class="cls-1"/><path d="m20.61 18.37 84.7 91.26M17.33 106.35l91.26-84.7" class="cls-2"/><path d="M-5412.15-5822h6467.34V615.3h-6467.34z" style="stroke:#fff;stroke-width:8px;stroke-linecap:round;stroke-linejoin:round;fill:none"/></svg>