<svg xmlns="http://www.w3.org/2000/svg" id="Calque_1" viewBox="0 0 128 128"><defs><style>.cls-1{fill:#f3d587}.cls-2{fill:#f387d5}.cls-3{fill:#ff6d75}.cls-4{fill:#baa584}.cls-5{fill:#afaff9}.cls-6{fill:#77eddf}.cls-7{stroke:#000;stroke-miterlimit:10;stroke-width:.25px}</style></defs><path d="M35.81 37.11H22.1c-3.7 0-6.72-3.01-6.72-6.72v-1.42h.69v1.42c0 3.32 2.7 6.02 6.02 6.02H35.8c3.32 0 6.02-2.7 6.02-6.02v-1.42h.69v1.42c0 3.7-3.01 6.72-6.72 6.72ZM105.9 37.11H92.19c-3.7 0-6.72-3.01-6.72-6.72v-1.42h.69v1.42c0 3.32 2.7 6.02 6.03 6.02h13.71c3.32 0 6.02-2.7 6.02-6.02v-1.42h.69v1.42c0 3.7-3.01 6.72-6.72 6.72ZM101.33 86.14H87.62c-3.7 0-6.72-3.01-6.72-6.72V78h.69v1.42c0 3.32 2.7 6.02 6.03 6.02h13.71c3.32 0 6.02-2.7 6.02-6.02V78h.69v1.42c0 3.7-3.01 6.72-6.72 6.72ZM40.63 86.14H26.92c-3.7 0-6.72-3.01-6.72-6.72V78h.69v1.42c0 3.32 2.7 6.02 6.02 6.02h13.71c3.32 0 6.03-2.7 6.03-6.02V78h.69v1.42c0 3.7-3.01 6.72-6.72 6.72ZM47.35 96.92h-.69V95.5c0-3.32-2.7-6.02-6.03-6.02H26.92c-3.32 0-6.02 2.7-6.02 6.02v1.42h-.69V95.5c0-3.7 3.01-6.72 6.72-6.72h13.71c3.7 0 6.72 3.01 6.72 6.72v1.42ZM81.83 51.88h-.69c0-3.32-2.7-6.02-6.03-6.02H52.88c-3.32 0-6.02 2.7-6.02 6.02h-.69c0-3.7 3.01-6.72 6.72-6.72h22.23c3.7 0 6.72 3.01 6.72 6.72Z" class="cls-7"/><path d="M94.12 85.8h.69v11.84h-.69zM33.43 85.8h.69v3.1h-.69zM103.42 41.98c-2.61 0-4.73-2.12-4.73-4.73v-.49h.69v.49c0 2.23 1.81 4.04 4.04 4.04v.69ZM59.5 41.98H33.39c-2.61 0-4.73-2.12-4.73-4.73v-.49h.69v.49c0 2.23 1.81 4.04 4.04 4.04H59.5v.69Z" class="cls-7"/><path d="M107.8 50.22h-.69v-4.08c0-2.29-1.86-4.16-4.16-4.16v-.69c2.67 0 4.85 2.18 4.85 4.85v4.08ZM64.3 45.51h-.69c0-1.88-1.92-3.53-4.11-3.53v-.69c2.56 0 4.81 1.97 4.81 4.22Z" class="cls-7"/><path d="M28.77 52.33v23.46H12.32V52.33h16.45m2.42-2.42H9.9v28.31h21.29V49.91ZM54.74 52.33v23.46H38.29V52.33h16.45m2.42-2.42H35.87v28.31h21.29V49.91Z"/><path d="M29.98 51.12V77H11.11V51.12h18.87m1.21-1.21H9.9v28.31h21.29V49.91ZM55.95 51.12V77H37.08V51.12h18.87m1.21-1.21H35.87v28.31h21.29V49.91Z" class="cls-2"/><path d="M28.77 98.85v23.46H12.32V98.85h16.45m2.42-2.42H9.9v28.31h21.29V96.43ZM54.74 98.85v23.46H38.29V98.85h16.45m2.42-2.42H35.87v28.31h21.29V96.43Z"/><path d="M29.98 97.64v25.88H11.11V97.64h18.87m1.21-1.21H9.9v28.31h21.29V96.43ZM55.95 97.64v25.88H37.08V97.64h18.87m1.21-1.21H35.87v28.31h21.29V96.43Z" class="cls-3"/><path d="M24.44 5.34V28.8H7.99V5.34h16.45m2.42-2.42H5.57v28.31h21.29V2.92ZM50.41 5.34V28.8H33.96V5.34h16.45m2.42-2.42H31.54v28.31h21.29V2.92Z"/><path d="M25.65 4.13v25.88H6.78V4.13h18.87m1.21-1.21H5.57v28.31h21.29V2.92ZM51.62 4.13v25.88H32.75V4.13h18.87m1.21-1.21H31.54v28.31h21.29V2.92Z" class="cls-1"/><path d="M94.04 5.34V28.8H77.59V5.34h16.45m2.42-2.42H75.17v28.31h21.29V2.92ZM120.01 5.34V28.8h-16.45V5.34h16.45m2.42-2.42h-21.29v28.31h21.29V2.92Z"/><path d="M95.25 4.13v25.88H76.38V4.13h18.87m1.21-1.21H75.17v28.31h21.29V2.92ZM121.22 4.13v25.88h-18.87V4.13h18.87m1.21-1.21h-21.29v28.31h21.29V2.92Z" class="cls-6"/><path d="M89.71 52.33v23.46H73.26V52.33h16.45m2.42-2.42H70.84v28.31h21.29V49.91ZM115.68 52.33v23.46H99.23V52.33h16.45m2.42-2.42H96.81v28.31h21.29V49.91Z"/><path d="M90.92 51.12V77H72.05V51.12h18.87m1.21-1.21H70.84v28.31h21.29V49.91ZM116.89 51.12V77H98.02V51.12h18.87m1.21-1.21H96.81v28.31h21.29V49.91Z" class="cls-4"/><path d="M102.69 98.85v23.46H86.24V98.85h16.45m2.42-2.42H83.82v28.31h21.29V96.43Z"/><path d="M103.91 97.64v25.88H85.04V97.64h18.87m1.21-1.21H83.83v28.31h21.29V96.43Z" class="cls-5"/><path d="M94.38 108.52a3.271 3.271 0 0 0 0-6.54c-1.81 0-3.27 1.47-3.27 3.27s1.47 3.27 3.27 3.27ZM100.55 118.51c-.02.57-.07 1.03-.1 1.36-.04.33-.06.51-.06.51l-.14.3c-.17.35-.55.6-.94.56a.972.972 0 0 1-.85-1.01v-1.71c-.03-.5-.08-1.08-.18-1.69-.11-.6-.25-1.24-.47-1.82-.11-.3-.25-.58-.39-.85l.11 6.4v.32l-.06 1.43h-6.13l-.06-1.39v-.31l.09-6.51c-.15.29-.3.59-.42.92-.22.58-.37 1.22-.48 1.82-.1.6-.15 1.19-.17 1.69-.03.51-.02.93-.02 1.23 0 .31.02.48.02.48a.98.98 0 0 1-.93 1.02h-.11c-.78.03-.89-.84-.89-.84s-.03-.19-.07-.52c-.03-.33-.07-.79-.09-1.36-.03-.56-.03-1.23.04-1.95.06-.72.17-1.5.39-2.28s.55-1.55.97-2.24c.22-.34.45-.66.71-.95.25-.29.51-.54.78-.76.53-.43 1.04-.71 1.45-.87.2-.09.37-.14.51-.18.07-.02.12-.03.18-.04.77-.14 1.69-.18 2.48.04.14.04.31.1.51.18.4.16.92.44 1.45.87.27.22.54.47.79.76.25.29.49.61.7.95.43.69.75 1.47.97 2.24.22.78.35 1.56.4 2.28.06.73.06 1.4.04 1.95Z" class="cls-5"/><path d="M81.5 62.01a3.271 3.271 0 0 0 0-6.54c-1.81 0-3.27 1.47-3.27 3.27s1.47 3.27 3.27 3.27ZM87.66 72c-.02.57-.07 1.03-.1 1.36-.04.33-.06.51-.06.51l-.14.3c-.17.35-.55.6-.94.56a.972.972 0 0 1-.85-1.01v-1.71c-.03-.5-.08-1.08-.18-1.69-.11-.6-.25-1.24-.47-1.82-.11-.3-.25-.58-.39-.85l.11 6.4v.32l-.06 1.43h-6.13l-.06-1.39v-.31l.09-6.51c-.15.29-.3.59-.42.92-.22.58-.37 1.22-.48 1.82-.1.6-.15 1.19-.17 1.69-.03.51-.02.93-.02 1.23 0 .31.02.48.02.48a.98.98 0 0 1-.93 1.02h-.11c-.78.03-.89-.84-.89-.84s-.03-.19-.07-.52c-.03-.33-.07-.79-.09-1.36-.03-.56-.03-1.23.04-1.95.06-.72.17-1.5.39-2.28.22-.78.55-1.55.97-2.24.22-.34.45-.66.71-.95.25-.29.51-.54.78-.76.53-.43 1.04-.71 1.45-.87.2-.09.37-.14.51-.18.07-.02.12-.03.18-.04.77-.14 1.69-.18 2.48.04.14.04.31.1.51.18.4.16.92.44 1.45.87.27.22.54.47.79.76.25.29.49.61.7.95.43.69.75 1.47.97 2.24.22.78.35 1.56.4 2.28.06.73.06 1.4.04 1.95ZM107.71 62.01a3.271 3.271 0 0 0 0-6.54c-1.81 0-3.27 1.47-3.27 3.27s1.47 3.27 3.27 3.27ZM113.88 72c-.02.57-.07 1.03-.1 1.36-.04.33-.06.51-.06.51l-.14.3c-.17.35-.55.6-.94.56a.972.972 0 0 1-.85-1.01v-1.71c-.03-.5-.08-1.08-.18-1.69s-.25-1.24-.47-1.82c-.11-.3-.25-.58-.39-.85l.11 6.4v.32l-.06 1.43h-6.13l-.06-1.39v-.31l.09-6.51c-.15.29-.3.59-.42.92-.22.58-.37 1.22-.48 1.82-.1.6-.15 1.19-.17 1.69-.03.51-.02.93-.02 1.23 0 .31.02.48.02.48a.98.98 0 0 1-.93 1.02h-.11c-.78.03-.89-.84-.89-.84s-.03-.19-.07-.52c-.03-.33-.07-.79-.09-1.36-.03-.56-.03-1.23.04-1.95.06-.72.17-1.5.39-2.28s.55-1.55.97-2.24c.22-.34.45-.66.71-.95.25-.29.51-.54.78-.76.53-.43 1.04-.71 1.45-.87.2-.09.37-.14.51-.18.07-.02.12-.03.18-.04.77-.14 1.69-.18 2.48.04.14.04.31.1.51.18.4.16.92.44 1.45.87.27.22.54.47.79.76.25.29.49.61.7.95.43.69.75 1.47.97 2.24.22.78.35 1.56.4 2.28.06.73.06 1.4.04 1.95Z" class="cls-4"/><path d="M85.61 15.06a3.271 3.271 0 0 0 0-6.54c-1.81 0-3.27 1.47-3.27 3.27s1.47 3.27 3.27 3.27ZM91.77 25.04c-.02.57-.07 1.03-.1 1.36-.04.33-.06.51-.06.51l-.14.3c-.17.35-.55.6-.94.56a.972.972 0 0 1-.85-1.01v-1.71c-.03-.5-.08-1.08-.18-1.69s-.25-1.24-.47-1.82c-.11-.3-.25-.58-.39-.85l.11 6.4v.32l-.06 1.43h-6.13l-.06-1.39v-.31l.09-6.51c-.15.29-.3.59-.42.92-.22.58-.37 1.22-.48 1.82-.1.6-.15 1.19-.17 1.69-.03.51-.02.93-.02 1.23 0 .31.02.48.02.48a.98.98 0 0 1-.93 1.02h-.11c-.78.03-.89-.84-.89-.84s-.03-.19-.07-.52c-.03-.33-.07-.79-.09-1.36-.03-.56-.03-1.23.04-1.95.06-.72.17-1.5.39-2.28.22-.78.55-1.55.97-2.24.22-.34.45-.66.71-.95.25-.29.51-.54.78-.76.53-.43 1.04-.71 1.45-.87.2-.09.37-.14.51-.18.07-.02.12-.03.18-.04.77-.14 1.69-.18 2.48.04.14.04.31.1.51.18.4.16.92.44 1.45.87.27.22.54.47.79.76.25.29.49.61.7.95.43.69.75 1.47.97 2.24.22.78.35 1.56.4 2.28.06.73.06 1.4.04 1.95ZM111.82 15.06a3.271 3.271 0 0 0 0-6.54c-1.81 0-3.27 1.47-3.27 3.27s1.47 3.27 3.27 3.27ZM117.98 25.04c-.02.57-.07 1.03-.1 1.36-.04.33-.06.51-.06.51l-.14.3c-.17.35-.55.6-.94.56a.972.972 0 0 1-.85-1.01v-1.71c-.03-.5-.08-1.08-.18-1.69s-.25-1.24-.47-1.82c-.11-.3-.25-.58-.39-.85l.11 6.4v.32l-.06 1.43h-6.13l-.06-1.39v-.31l.09-6.51c-.15.29-.3.59-.42.92-.22.58-.37 1.22-.48 1.82-.1.6-.15 1.19-.17 1.69-.03.51-.02.93-.02 1.23 0 .31.02.48.02.48a.98.98 0 0 1-.93 1.02h-.11c-.78.03-.89-.84-.89-.84s-.03-.19-.07-.52c-.03-.33-.07-.79-.09-1.36-.03-.56-.03-1.23.04-1.95.06-.72.17-1.5.39-2.28s.55-1.55.97-2.24c.22-.34.45-.66.71-.95.25-.29.51-.54.78-.76.53-.43 1.04-.71 1.45-.87.2-.09.37-.14.51-.18.07-.02.12-.03.18-.04.77-.14 1.69-.18 2.48.04.14.04.31.1.51.18.4.16.92.44 1.45.87.27.22.54.47.79.76.25.29.49.61.7.95.43.69.75 1.47.97 2.24.22.78.35 1.56.4 2.28.06.73.06 1.4.04 1.95Z" class="cls-6"/><path d="M15.87 15.06a3.271 3.271 0 0 0 0-6.54c-1.81 0-3.27 1.47-3.27 3.27s1.47 3.27 3.27 3.27ZM22.03 25.04c-.02.57-.07 1.03-.1 1.36-.04.33-.06.51-.06.51l-.14.3c-.17.35-.55.6-.94.56a.972.972 0 0 1-.85-1.01v-1.71c-.03-.5-.08-1.08-.18-1.69-.11-.6-.25-1.24-.47-1.82-.11-.3-.25-.58-.39-.85l.11 6.4v.32l-.06 1.43h-6.13l-.06-1.39v-.31l.09-6.51c-.15.29-.3.59-.42.92-.22.58-.37 1.22-.48 1.82-.1.6-.15 1.19-.17 1.69-.03.51-.02.93-.02 1.23 0 .31.02.48.02.48a.98.98 0 0 1-.93 1.02h-.11c-.78.03-.89-.84-.89-.84s-.03-.19-.07-.52c-.03-.33-.07-.79-.09-1.36-.03-.56-.03-1.23.04-1.95.06-.72.17-1.5.39-2.28s.55-1.55.97-2.24c.22-.34.45-.66.71-.95.25-.29.51-.54.78-.76.53-.43 1.04-.71 1.45-.87.2-.09.37-.14.51-.18.07-.02.12-.03.18-.04.77-.14 1.69-.18 2.48.04.14.04.31.1.51.18.4.16.92.44 1.45.87.27.22.54.47.79.76.25.29.49.61.7.95.43.69.75 1.47.97 2.24.22.78.35 1.56.4 2.28.06.73.06 1.4.04 1.95ZM42.08 15.06a3.271 3.271 0 0 0 0-6.54c-1.81 0-3.27 1.47-3.27 3.27s1.47 3.27 3.27 3.27ZM48.24 25.04c-.02.57-.07 1.03-.1 1.36-.04.33-.06.51-.06.51l-.14.3c-.17.35-.55.6-.94.56a.972.972 0 0 1-.85-1.01v-1.71c-.03-.5-.08-1.08-.18-1.69-.11-.6-.25-1.24-.47-1.82-.11-.3-.25-.58-.39-.85l.11 6.4v.32l-.06 1.43h-6.13l-.06-1.39v-.31l.09-6.51c-.15.29-.3.59-.42.92-.22.58-.37 1.22-.48 1.82-.1.6-.15 1.19-.17 1.69-.03.51-.02.93-.02 1.23 0 .31.02.48.02.48a.98.98 0 0 1-.93 1.02h-.11c-.78.03-.89-.84-.89-.84s-.03-.19-.07-.52c-.03-.33-.07-.79-.09-1.36-.03-.56-.03-1.23.04-1.95.06-.72.17-1.5.39-2.28.22-.78.55-1.55.97-2.24.22-.34.45-.66.71-.95.25-.29.51-.54.78-.76.53-.43 1.04-.71 1.45-.87.2-.09.37-.14.51-.18.07-.02.12-.03.18-.04.77-.14 1.69-.18 2.48.04.14.04.31.1.51.18.4.16.92.44 1.45.87.27.22.54.47.79.76.25.29.49.61.7.95.43.69.75 1.47.97 2.24.22.78.35 1.56.4 2.28.06.73.06 1.4.04 1.95Z" class="cls-1"/><path d="M20.34 61.93a3.271 3.271 0 0 0 0-6.54c-1.81 0-3.27 1.47-3.27 3.27s1.47 3.27 3.27 3.27ZM26.5 71.91c-.02.57-.07 1.03-.1 1.36-.04.33-.06.51-.06.51l-.14.3c-.17.35-.55.6-.94.56a.972.972 0 0 1-.85-1.01v-1.71c-.03-.5-.08-1.08-.18-1.69-.11-.6-.25-1.24-.47-1.82-.11-.3-.25-.58-.39-.85l.11 6.4v.32l-.06 1.43h-6.13l-.06-1.39v-.31l.09-6.51c-.15.29-.3.59-.42.92-.22.58-.37 1.22-.48 1.82-.1.6-.15 1.19-.17 1.69-.03.51-.02.93-.02 1.23 0 .31.02.48.02.48a.98.98 0 0 1-.93 1.02h-.11c-.78.03-.89-.84-.89-.84s-.03-.19-.07-.52c-.03-.33-.07-.79-.09-1.36-.03-.56-.03-1.23.04-1.95.06-.72.17-1.5.39-2.28s.55-1.55.97-2.24c.22-.34.45-.66.71-.95.25-.29.51-.54.78-.76.53-.43 1.04-.71 1.45-.87.2-.09.37-.14.51-.18.07-.02.12-.03.18-.04.77-.14 1.69-.18 2.48.04.14.04.31.1.51.18.4.16.92.44 1.45.87.27.22.54.47.79.76.25.29.49.61.7.95.43.69.75 1.47.97 2.24.22.78.35 1.56.4 2.28.06.73.06 1.4.04 1.95ZM46.55 61.93a3.271 3.271 0 0 0 0-6.54c-1.81 0-3.27 1.47-3.27 3.27s1.47 3.27 3.27 3.27ZM52.71 71.91c-.02.57-.07 1.03-.1 1.36-.04.33-.06.51-.06.51l-.14.3c-.17.35-.55.6-.94.56a.972.972 0 0 1-.85-1.01v-1.71c-.03-.5-.08-1.08-.18-1.69-.11-.6-.25-1.24-.47-1.82-.11-.3-.25-.58-.39-.85l.11 6.4v.32l-.06 1.43H43.5l-.06-1.39v-.31l.09-6.51c-.15.29-.3.59-.42.92-.22.58-.37 1.22-.48 1.82-.1.6-.15 1.19-.17 1.69-.03.51-.02.93-.02 1.23 0 .31.02.48.02.48a.98.98 0 0 1-.93 1.02h-.11c-.78.03-.89-.84-.89-.84s-.03-.19-.07-.52c-.03-.33-.07-.79-.09-1.36-.03-.56-.03-1.23.04-1.95.06-.72.17-1.5.39-2.28.22-.78.55-1.55.97-2.24.22-.34.45-.66.71-.95.25-.29.51-.54.78-.76.53-.43 1.04-.71 1.45-.87.2-.09.37-.14.51-.18.07-.02.12-.03.18-.04.77-.14 1.69-.18 2.48.04.14.04.31.1.51.18.4.16.92.44 1.45.87.27.22.54.47.79.76.25.29.49.61.7.95.43.69.75 1.47.97 2.24.22.78.35 1.56.4 2.28.06.73.06 1.4.04 1.95Z" class="cls-2"/><path d="M20.34 108.52a3.271 3.271 0 0 0 0-6.54c-1.81 0-3.27 1.47-3.27 3.27s1.47 3.27 3.27 3.27ZM26.5 118.51c-.02.57-.07 1.03-.1 1.36-.04.33-.06.51-.06.51l-.14.3c-.17.35-.55.6-.94.56a.972.972 0 0 1-.85-1.01v-1.71c-.03-.5-.08-1.08-.18-1.69-.11-.6-.25-1.24-.47-1.82-.11-.3-.25-.58-.39-.85l.11 6.4v.32l-.06 1.43h-6.13l-.06-1.39v-.31l.09-6.51c-.15.29-.3.59-.42.92-.22.58-.37 1.22-.48 1.82-.1.6-.15 1.19-.17 1.69-.03.51-.02.93-.02 1.23 0 .31.02.48.02.48a.98.98 0 0 1-.93 1.02h-.11c-.78.03-.89-.84-.89-.84s-.03-.19-.07-.52c-.03-.33-.07-.79-.09-1.36-.03-.56-.03-1.23.04-1.95.06-.72.17-1.5.39-2.28s.55-1.55.97-2.24c.22-.34.45-.66.71-.95.25-.29.51-.54.78-.76.53-.43 1.04-.71 1.45-.87.2-.09.37-.14.51-.18.07-.02.12-.03.18-.04.77-.14 1.69-.18 2.48.04.14.04.31.1.51.18.4.16.92.44 1.45.87.27.22.54.47.79.76.25.29.49.61.7.95.43.69.75 1.47.97 2.24.22.78.35 1.56.4 2.28.06.73.06 1.4.04 1.95ZM46.55 108.52a3.271 3.271 0 0 0 0-6.54c-1.81 0-3.27 1.47-3.27 3.27s1.47 3.27 3.27 3.27ZM52.71 118.51c-.02.57-.07 1.03-.1 1.36-.04.33-.06.51-.06.51l-.14.3c-.17.35-.55.6-.94.56a.972.972 0 0 1-.85-1.01v-1.71c-.03-.5-.08-1.08-.18-1.69-.11-.6-.25-1.24-.47-1.82-.11-.3-.25-.58-.39-.85l.11 6.4v.32l-.06 1.43H43.5l-.06-1.39v-.31l.09-6.51c-.15.29-.3.59-.42.92-.22.58-.37 1.22-.48 1.82-.1.6-.15 1.19-.17 1.69-.03.51-.02.93-.02 1.23 0 .31.02.48.02.48a.98.98 0 0 1-.93 1.02h-.11c-.78.03-.89-.84-.89-.84s-.03-.19-.07-.52c-.03-.33-.07-.79-.09-1.36-.03-.56-.03-1.23.04-1.95.06-.72.17-1.5.39-2.28.22-.78.55-1.55.97-2.24.22-.34.45-.66.71-.95.25-.29.51-.54.78-.76.53-.43 1.04-.71 1.45-.87.2-.09.37-.14.51-.18.07-.02.12-.03.18-.04.77-.14 1.69-.18 2.48.04.14.04.31.1.51.18.4.16.92.44 1.45.87.27.22.54.47.79.76.25.29.49.61.7.95.43.69.75 1.47.97 2.24.22.78.35 1.56.4 2.28.06.73.06 1.4.04 1.95Z" class="cls-3"/></svg>