<svg xmlns="http://www.w3.org/2000/svg" id="Calque_1" viewBox="0 0 128 128"><defs><style>.cls-1,.cls-2,.cls-3{fill:none}.cls-2,.cls-3,.cls-5{stroke:#000}.cls-2,.cls-3{stroke-linecap:round;stroke-linejoin:round}.cls-5{fill:#fff}.cls-3,.cls-5{stroke-width:2px}.cls-5{stroke-miterlimit:10}</style></defs><path d="M96.13 60.75s-2.39-20.8-9.37-24.76c-6.98-3.96-9.9-3.08-9.9-3.08l-4.09-2.28-3.6.96-5.16-.85-5.16 2.63-5.12-1.26-9.77 2.62-6.23 5.19-6.24 20.91.04.13s-.01-.01-.04-.01c.17 3.64.81 13.19 3.13 22.92 1.91 8.08 4.97 16.28 9.84 21.32 12.36 12.78 19.7 11.16 19.7 11.16 1.25.11 7.91.1 18.99-11.38 10.76-11.12 12.67-37.59 12.98-44.24-.03 0-.03-.03 0-.1" class="cls-1"/><path d="M93.19 83.22s4.11-1 6-7.57c1.9-6.57 4.69-6.04 4.4-12.68-.28-6.33-6.67-2.99-7.26-2.67-.17 3.62-.81 13.19-3.13 22.92ZM34.81 83.43s-4.11-1-6-7.57c-1.9-6.57-4.69-6.04-4.4-12.68.28-6.33 6.67-2.99 7.26-2.67.17 3.62.81 13.19 3.13 22.92Z" class="cls-1"/><path d="M46.45 21.53s4.32 11.62 11.28 11.37c6.96-.24 7.86-12.71 7.86-12.71" class="cls-3"/><path d="M35.78 30.75s8.55 6.18 17.63.76" class="cls-3"/><path d="M33.19 36.93S42 37 45.66 33.74M31.72 60.64s-7-3.99-7.3 2.66c-.3 6.64 2.5 6.11 4.39 12.68 1.89 6.57 6 7.56 6 7.56" class="cls-3"/><path d="M62.6 20.61s-1.07 4.58-3.16 7.8" class="cls-2"/><path d="M92.22 30.54s-14.38 7.06-19.86-.62" class="cls-3"/><path d="M94.81 36.71s-8.91.31-12.58-2.95" class="cls-3"/><path d="M88.25 37.24s8.66 14.98 8.04 23.19c0 0 12.59-32.51-14.57-41.21 0 0-1.47-5.49-8.56-4.08-9.34-8.15-18.29.21-18.29.21-7.09-1.41-8.56 4.08-8.56 4.08-27.17 8.7-14.57 41.21-14.57 41.21-.62-8.2 8.04-24.78 8.04-24.78" class="cls-3"/><path d="M96.38 58.87s-.68 33-13.03 45.78c-12.36 12.78-19.21 11.34-19.21 11.34l.22.03s-7.34 1.62-19.7-11.16C32.3 92.08 31.63 59.08 31.63 59.08" class="cls-3"/><path d="M96.28 60.43s7-3.99 7.3 2.66-2.5 6.11-4.39 12.68c-1.89 6.57-6 7.56-6 7.56M62.71 29.73s6.02 7.62 14.14-5.14" class="cls-3"/><path d="M75.01 70.19s1.52-.17 4.4.1c5.18.49 7.7-2.32 7.7-2.32M58.5 80.03s-4.5 4.58 0 7.94M58.81 85.56s1.87 1.62 3.33 2.23M69.45 79.82s4.5 4.58 0 7.94M69.14 85.56s-1.87 1.62-3.33 2.23M53.18 70.19s-1.52-.17-4.4.1c-5.18.49-7.7-2.32-7.7-2.32" class="cls-2"/><path d="M39.28 62.59s5.1-7.88 14-1.22M88.67 62.59s-5.1-7.88-14-1.22M55.43 100.69s9.44-1.53 17.09 0" class="cls-3"/><circle cx="94.81" cy="31.99" r="24.35" style="fill:#fab0b4;stroke-width:2px;stroke-linecap:round;stroke-linejoin:round;stroke:#000"/><path d="M91.22 36.25h5.14v14.64h-5.14z" style="fill:#ff6d75;stroke-miterlimit:10;stroke-width:2px;stroke:#000" transform="rotate(-90 93.795 43.575)"/><path d="M86.48 41V19.51h14.64V41z" class="cls-5"/><path d="M90.57 19.52v-3.76h6.45v3.76z"/><path d="M80.45 25.48h26.69v14.64H80.45z" style="stroke-width:.5px;stroke-miterlimit:10;stroke:#000;fill:none" transform="rotate(-90 93.795 32.795)"/><path d="M86.47 41.19v-5.14h14.64v5.14z" class="cls-5"/><path d="M86.47 36.18v-5.14h14.64v5.14z" class="cls-5"/><path d="M86.48 31.63v-5.14h14.64v5.14z" class="cls-5"/></svg>