<svg xmlns="http://www.w3.org/2000/svg" id="Calque_1" viewBox="0 0 128 128"><defs><style>.cls-1,.cls-2,.cls-3,.cls-4,.cls-5{stroke:#000;stroke-linecap:round;stroke-linejoin:round}.cls-1,.cls-3{fill:#d6d6d6}.cls-2,.cls-5{fill:none}.cls-3,.cls-4,.cls-5{stroke-width:2px}.cls-4{fill:#b4eac3}</style></defs><path d="M84.98 68.85v2.65H42.25v-.15h-.03L23.63 29.07l2.63-1.19a3.45 3.45 0 0 1 4.56 1.72l7.31 16.67h30.61c.91 0 1.65.74 1.65 1.65v.03c0 .91-.74 1.65-1.65 1.65H43.09l-1.86 3.72 5.19 11.84h34.87c2.04 0 3.69 1.66 3.69 3.69Z" class="cls-4"/><path d="M49.92 71.5v6.75s7.84-2.16 14.08-2.94c2.21-.28 6.39-.43 6.39-.43V71.5H49.93Z" class="cls-5"/><path d="M92.91 87.22v.44c-.01 2.09-.1 3.77-.12 4.09-1.75-.82-3.71-1.27-5.77-1.27-6.97 0-12.73 5.2-13.6 11.93l-.05.03h-16.8l-.42-.61c.12-.8.17-1.62.17-2.45 0-3-.71-5.84-1.98-8.34-2.4-4.77-6.8-8.36-12.1-9.67l-.03-.04s15.54-6.57 31.24-6.45c15.71.12 16.3 1.48 18.16 3.37 1.07 1.1 1.3 5.48 1.3 8.97Z" class="cls-3"/><path d="M54.34 91.04c-2.4-4.77-6.8-8.36-12.1-9.67-1.43-.35-2.93-.54-4.47-.54-10.24 0-18.54 8.31-18.54 18.55s8.3 18.55 18.54 18.55c9.42 0 17.19-7.02 18.38-16.1.12-.8.17-1.62.17-2.45 0-3-.71-5.84-1.98-8.34ZM37.77 111.2c-6.52 0-11.81-5.29-11.81-11.82s5.29-11.82 11.81-11.82 11.82 5.29 11.82 11.82-5.29 11.82-11.82 11.82Z" class="cls-3"/><circle cx="37.78" cy="99.38" r="3.99" class="cls-1"/><path d="M92.79 91.75c-1.75-.82-3.71-1.27-5.77-1.27-6.97 0-12.73 5.2-13.6 11.93-.08.58-.12 1.18-.12 1.79 0 7.58 6.14 13.73 13.72 13.73s13.73-6.15 13.73-13.73c0-5.52-3.26-10.27-7.96-12.45Zm-5.77 21.2c-4.83 0-8.75-3.92-8.75-8.75 0-2.1.74-4.02 1.97-5.53h.01a8.67 8.67 0 0 1 5.73-3.14h.01c.34-.05.68-.07 1.03-.07 4.83 0 8.75 3.91 8.75 8.74s-3.92 8.75-8.75 8.75Z" class="cls-3"/><path d="M89.97 104.2c0 1.63-1.32 2.96-2.95 2.96s-2.95-1.33-2.95-2.96a2.949 2.949 0 1 1 5.9 0Z" class="cls-1"/><path d="M54.34 91.04h28M74.81 96.69H56.32" class="cls-2"/><path d="M73.37 102.43H56.32" class="cls-5"/><path d="m16.11 12.039 4.57-1.878a3.056 3.056 0 0 1 3.98 1.662l2.627 6.391a3.056 3.056 0 0 1-1.662 3.98l-4.57 1.878L16.11 12.04h0Z" class="cls-4"/><path d="m22.27 23.57 2.2 5.12" class="cls-5"/><path d="M96.47 86.31c0 .47.09.93.25 1.34h-3.81v-3.6h4.33c-.48.63-.77 1.41-.77 2.26ZM108.38 103.21c-1.31.03-2.45.75-3.09 1.8l-6.36-15.2c.4.15.82.23 1.27.23.88 0 1.69-.31 2.33-.82l5.85 13.99ZM121.06 107.03c0 1.58-1.29 2.87-2.87 2.87h-7.47c.91-.68 1.49-1.76 1.49-2.98 0-1.09-.47-2.08-1.23-2.76h7.21c.79 0 1.51.33 2.03.85.52.52.84 1.24.84 2.02Z" class="cls-4"/><path d="M103.92 86.31c0 1.18-.54 2.23-1.39 2.91-.64.51-1.45.82-2.33.82-.45 0-.87-.08-1.27-.23a3.686 3.686 0 0 1-2.21-2.16 3.71 3.71 0 0 1 .52-3.6 3.718 3.718 0 0 1 6.68 2.26ZM112.21 106.92c0 1.22-.58 2.3-1.49 2.98-.62.47-1.39.75-2.23.75a3.73 3.73 0 0 1-3.73-3.73c0-.7.19-1.35.53-1.9h0a3.712 3.712 0 0 1 3.09-1.81c.04-.01.07-.01.11-.01.96 0 1.83.37 2.49.96.76.68 1.23 1.67 1.23 2.76Z" class="cls-5"/><path d="M68.59 46.29h-9.31c0-2.57 2.08-4.66 4.65-4.66s4.66 2.09 4.66 4.66Z" class="cls-3"/><path d="m65.18 41.8 2.7-5.68" class="cls-2"/><circle cx="68" cy="35.87" r=".77" class="cls-5"/></svg>