<svg xmlns="http://www.w3.org/2000/svg" id="Calque_1" viewBox="0 0 128 128"><defs><style>.cls-1,.cls-4,.cls-5,.cls-6{stroke:#000;stroke-miterlimit:10}.cls-1,.cls-4,.cls-5{stroke-width:.83px}.cls-1,.cls-6{fill:none}.cls-4{fill:#b2f0e9}.cls-5{fill:#f3d587}.cls-7{opacity:.52}</style></defs><path d="M26 28.11c0 .44-1.33 77.78-1.33 77.78h80.87V28.11H26Z" style="fill:#a07637;stroke:#000;stroke-miterlimit:10"/><g class="cls-7"><path d="m112.05 100.46-21.53.01.02-65.89 21.51-2.87v68.75zM112.05 62.47l-21.26 2M100.51 33.22v67.22M14.91 100.46h21.87l.08-65.81-21.95-2.94v68.75zM14.91 62.47l21.89 2.02M26.85 33.23l.03 67.16" class="cls-4"/></g><path d="M37.08 34.43h53.28v65.96H37.08z" style="fill:#fff;stroke:#000;stroke-miterlimit:10"/><g class="cls-7"><path d="m112.05 100.46-21.53.01.02-65.89 21.51-2.87v68.75zM112.05 62.47l-21.26 2M100.51 33.22v67.22M14.91 100.46h21.87l.08-65.81-21.95-2.94v68.75zM14.91 62.47l21.89 2.02M26.85 33.23l.03 67.16" class="cls-1"/></g><path d="M47.01 100.47c-1.36-11.25-10.2-18.85-10.2-18.85 18.05-16.34 15.14-47.2 15.14-47.2l-15.09.22-.07 65.66 10.22.16ZM80.57 100.47c1.36-11.25 10.2-18.85 10.2-18.85-18.05-16.34-15.14-47.2-15.14-47.2l15.09.22.07 65.66-10.22.16Z" class="cls-5"/><path d="M66.04 42.64s7.26 14.4 28.36 9.66" class="cls-6"/><path d="m92.78 54.31 1.32-1.99-2-1.33 1.41-.28 2 1.32-1.32 2-1.41.28z"/><path d="M61.96 42.64S54.7 57.04 33.6 52.3" class="cls-6"/><path d="m35.9 50.99-2 1.33 1.32 1.99-1.41-.28-1.32-2 2-1.32 1.41.28z"/></svg>