<svg xmlns="http://www.w3.org/2000/svg" id="Calque_1" viewBox="0 0 128 128"><defs><style>.cls-1{fill:#d6d6d6;stroke:#000;stroke-miterlimit:10}</style></defs><path d="M3.51 61.85h2.56v8.89H3.51zM9.44 61.85H12v8.89H9.44zM15.37 61.85h2.56v8.89h-2.56zM21.3 61.85h2.56v8.89H21.3zM27.23 61.85h2.56v8.89h-2.56zM33.15 61.85h2.56v8.89h-2.56zM39.08 61.85h2.56v8.89h-2.56zM45.01 61.85h2.56v8.89h-2.56zM50.94 61.85h2.56v8.89h-2.56zM56.87 61.85h2.56v8.89h-2.56zM76.89 61.85h2.56v8.89h-2.56zM83.105 72.361l.862-8.848 2.548.249-.863 8.848zM88.849 73.48l2.516-8.527 2.455.724-2.516 8.527zM95.303 76.025l2.944-8.388 2.415.848-2.944 8.388zM102.074 79.01l3.356-8.232 2.37.966-3.356 8.233zM107.71 82.676l4.54-7.643 2.2 1.307-4.54 7.644zM112.265 86.932l5.898-6.652 1.915 1.698-5.897 6.652zM116.474 91.83l7.064-5.396 1.554 2.034-7.064 5.397zM6.45 58.21h2.56v8.89H6.45zM12.38 58.21h2.56v8.89h-2.56zM18.3 58.21h2.56v8.89H18.3zM24.23 58.21h2.56v8.89h-2.56zM30.16 58.21h2.56v8.89h-2.56zM36.09 58.21h2.56v8.89h-2.56zM42.02 58.21h2.56v8.89h-2.56zM47.95 58.21h2.56v8.89h-2.56zM53.87 58.21h2.56v8.89h-2.56zM79.177 56.984l2.529-.401 1.392 8.78-2.528.4zM85.16 55.619l2.48-.638 2.213 8.61-2.48.638zM92 53.208l2.413-.855 2.97 8.38-2.414.854zM97.96 50.988l2.167-1.363 4.734 7.524-2.166 1.364zM103.356 47.587l1.805-1.815 6.304 6.269-1.805 1.815zM108.109 42.665l1.561-2.029 7.045 5.423-1.562 2.029zM112.583 37.34l1.257-2.23 7.744 4.366-1.257 2.23zM71.75 65.99c-.02-.76-.67-1.38-1.43-1.38h-.02v1.45h.24l-.03 6.56h-4.74l-.03-6.56h.24v-1.45h-.11c-.76 0-1.4.62-1.43 1.38l-.82 27.56c-.02.76.58 1.38 1.34 1.38h6.34c.76 0 1.36-.62 1.34-1.38l-.9-27.56Zm-3.61 27.38a3.05 3.05 0 1 1-.001-6.099 3.05 3.05 0 0 1 .001 6.099Z" class="cls-1"/><path d="M75.15 62.46c0-3.67-2.98-6.65-6.65-6.65h-.72c-3.67 0-6.65 2.98-6.65 6.65 0 .68.1 1.34.29 1.96s0 .01 0 .01c.66 1.73.65 4.26.65 6.67h.02c.08 1.33.72 2.51 1.67 3.31l.28-8.97c.02-.79.73-1.44 1.57-1.44h.35v-4.09h4.31V64h.25c.84 0 1.55.65 1.58 1.44l.31 9.03c.99-.81 1.65-2.01 1.74-3.37v-.4c0-2.24.03-4.52.62-6.15.22-.66.34-1.37.34-2.1Z" class="cls-1"/><path d="M65.99 59.93h4.31v6.13h-4.31z" class="cls-1"/></svg>