<svg xmlns="http://www.w3.org/2000/svg" id="Calque_1" viewBox="0 0 128 128"><defs><style>.cls-1{fill:#b4eac3}.cls-2{fill:#b2f0e9}.cls-3{fill:#d6d6d6}.cls-5{stroke-width:.11px;stroke:#000;stroke-miterlimit:10;fill:none}</style></defs><path d="M22.84 5.17h82.31v117.62H22.84z" style="fill:#fff;stroke:#000;stroke-miterlimit:10"/><path d="M84.05 85.14h16.12v1.72H84.05zM27.78 87.45V28.66h1.88v58.79z" class="cls-3"/><path d="M29.66 30.28h70.63v1.36H29.66zM29.66 35.94h70.63v1.51H29.66z" class="cls-1"/><path d="M29.66 39.33h70.63v1.19H29.66zM29.66 41.94h70.63v1.32H29.66zM29.66 44.69h70.63v1.32H29.66zM29.66 47.47h70.63v1.32H29.66zM29.66 50.26h70.63v1.32H29.66zM29.66 53h70.63v1.32H29.66zM29.66 55.78h70.63v1.32H29.66zM29.66 58.62h70.63v1.19H29.66zM29.66 61.23h70.63v1.32H29.66zM29.66 63.97h70.63v1.32H29.66zM29.66 66.75h70.63v1.32H29.66zM29.66 69.54h70.63v1.32H29.66zM29.66 72.29h70.63v1.32H29.66zM29.66 75.07h70.63v1.32H29.66zM29.66 77.92h70.63v1.32H29.66z" class="cls-2"/><path d="M27.78 95.01h72.51v1.32H27.78z" style="fill:#afaff9"/><path d="M29.66 80.7h70.63v1.32H29.66zM29.66 83.35h70.63v1.79H29.66zM27.77 89.73h56.28v2.16H27.77z" class="cls-2"/><path d="M27.78 85.14h56.27v2.3H27.78zM27.77 91.89h72.52v1.59H27.77z" class="cls-3"/><path d="M32.43 12.4h-1.22V9.7h1.31c.33 0 .57.1.7.29.08.11.12.25.12.41s-.04.3-.12.4c-.05.06-.11.11-.21.15.14.05.24.13.31.24.07.11.11.24.11.4a.796.796 0 0 1-.31.64c-.09.07-.19.11-.31.14-.12.02-.25.04-.38.04Zm.27-1.7c.07-.04.11-.12.11-.24 0-.13-.05-.21-.15-.25a.96.96 0 0 0-.32-.04h-.59v.6h.66c.12 0 .22-.02.29-.07Zm-.28.51h-.67v.72h.66c.12 0 .21-.02.28-.05.12-.06.18-.17.18-.34 0-.14-.06-.24-.17-.29a.866.866 0 0 0-.27-.05ZM35.51 11.36V9.7h.57v1.66c0 .29-.04.51-.13.67-.17.29-.48.44-.95.44s-.79-.15-.95-.44c-.09-.16-.13-.38-.13-.67V9.7h.57v1.66c0 .19.02.32.07.41.07.15.22.23.45.23s.38-.08.45-.23c.04-.09.07-.22.07-.41ZM36.62 9.7h.56v2.22h1.34v.49h-1.9v-2.7ZM38.91 9.7h.56v2.22h1.34v.49h-1.9v-2.7ZM43.09 11.22h-1.31v.69h1.5v.49h-2.05V9.7h1.98v.48h-1.43v.57h1.31v.47ZM45.67 9.7v.48h-.81v2.22h-.57v-2.22h-.81V9.7h2.19ZM45.96 9.7h.56v2.7h-.56V9.7ZM49.23 12.4h-.56l-1.1-1.92v1.92h-.53V9.7h.59l1.08 1.89V9.7h.53v2.7ZM52.41 12.4h-1.16V9.7h1.16c.17 0 .31.02.42.06.19.06.34.18.46.34.09.13.16.28.19.44.03.16.05.31.05.45 0 .36-.07.66-.22.91-.2.34-.5.5-.91.5Zm.42-2.01c-.09-.15-.26-.22-.51-.22h-.52v1.76h.52c.27 0 .45-.13.56-.39.06-.14.09-.32.09-.52 0-.27-.04-.49-.13-.63ZM55.84 11.22h-1.31v.69h1.5v.49h-2.05V9.7h1.98v.48h-1.43v.57h1.31v.47ZM59.1 11.43h-.57v.97h-.56V9.7h1.18c.27 0 .49.07.65.21.16.14.24.35.24.65 0 .32-.08.54-.24.68-.16.13-.39.2-.69.2Zm.26-.56c.07-.06.11-.17.11-.31s-.04-.24-.11-.3a.477.477 0 0 0-.31-.09h-.53v.8h.53c.13 0 .24-.03.31-.1ZM61.76 11.84h-1l-.19.56h-.59l.96-2.7h.64l.96 2.7h-.61l-.17-.56Zm-.16-.47-.34-1.06-.35 1.06h.69ZM62.85 9.7h.56v2.7h-.56V9.7ZM65.81 11.22H64.5v.69H66v.49h-2.05V9.7h1.98v.48H64.5v.57h1.31v.47ZM31.27 14.42h26.88v1.13H31.27zM31.27 16.55h26.88v1.13H31.27zM31.27 18.67h26.88v1.13H31.27zM73.07 12.86h13.44v1.13H73.07zM73.07 14.61h13.44v1.13H73.07zM73.07 16.35h13.44v1.13H73.07zM73.07 19.81h19.67v1.13H73.07zM73.07 21.55h19.67v1.13H73.07zM31.27 22.51h19.67v1.13H31.27zM31.27 24.26h19.67v1.13H31.27zM31.27 26h19.67v1.13H31.27zM73.07 23.3h13.44v1.13H73.07zM73.07 25.02h13.44v1.13H73.07z"/><path d="M27.77 28.52h72.52V97.9H27.77z" style="stroke-width:.22px;fill:none;stroke:#000;stroke-miterlimit:10"/><path d="M27.77 37.42h72.52M27.77 85.14h72.52M27.77 30.28h72.52M29.66 35.88h70.63M27.77 89.71h56.28M27.77 91.89h56.28M27.77 93.49h56.28M29.66 39.27h70.51M29.66 83.42h70.51M27.77 85.14h72.4M84.05 97.9V28.52M84.05 86.86h16.12M84.05 90.3h16.12M84.05 91.89h16.12M84.05 93.49h16.12M92.11 86.86V97.9M96.18 86.86v5.03M64 91.89v6.01M55.29 91.89v6.01M47.96 91.89v6.01M75.99 87.45v4.44M68.1 87.45v2.26M60.13 87.45v2.26M60.13 37.42v46M68.1 37.42v46M76.08 28.52v54.9M92.11 28.52v56.62M68.1 35.88v-7.36M60.13 35.88v-7.36M29.66 28.52v56.62" class="cls-5"/><path d="M28.19 35.06c.06-.1.16-.15.31-.14v.15a.22.22 0 0 0-.18.08c-.04.05-.06.12-.06.21 0 .1.04.2.12.29.08.09.19.15.35.18.13.03.24.02.33-.02.08-.04.13-.13.13-.26 0-.1-.03-.19-.09-.27-.06-.08-.15-.13-.28-.16v.35l-.13-.03v-.49l.6.13v.1h-.14c.06.07.1.12.12.17.04.08.06.16.06.27 0 .13-.04.24-.13.32-.11.08-.26.1-.44.06a.773.773 0 0 1-.45-.25.59.59 0 0 1-.16-.41.5.5 0 0 1 .06-.26ZM28.16 34.27v-.17l1.12-.17v.17l-.34.04v.44l.34.19v.16l-1.12-.66Zm.66-.11-.5.07.5.29v-.35ZM28.16 33.52v-.15l1.12.24v.15l-1.12-.24ZM28.16 33.12v-.18l.91-.37-.91-.19v-.14l1.12.24v.17l-.91.38.91.19v.15l-1.12-.24ZM28.92 32.05c.06 0 .12 0 .16-.01.07-.03.11-.12.11-.24 0-.06 0-.11-.02-.16-.03-.1-.09-.15-.17-.17-.06-.01-.1 0-.13.03s-.05.09-.07.17l-.03.15c-.02.09-.05.16-.07.19-.05.06-.12.08-.21.06a.405.405 0 0 1-.25-.16.53.53 0 0 1-.1-.32c0-.12.03-.21.09-.28s.15-.09.27-.07v.14c-.06 0-.11 0-.14.02-.06.03-.09.11-.09.22 0 .09.02.16.06.21s.08.08.13.09c.06.01.1 0 .12-.04.02-.03.04-.09.06-.19l.04-.15a.4.4 0 0 1 .07-.16c.05-.06.13-.08.23-.06.12.03.21.09.27.19.05.1.08.21.08.33 0 .14-.04.24-.11.31-.07.06-.17.08-.29.06v-.14ZM28.25 65.27v-.52c0-.09.01-.15.04-.2.05-.1.14-.13.27-.1.07.01.12.04.17.08s.08.08.1.14c.02-.04.04-.07.07-.08s.08-.02.14 0l.15.03s.07.01.1 0c.04 0 .06-.01.07-.03h.03v.19h-.04c-.02 0-.04 0-.09-.01l-.19-.03c-.07-.01-.12 0-.15.05-.01.03-.02.07-.02.13v.35l.48.1v.15l-1.12-.24Zm.51-.39c0-.07-.01-.13-.04-.18-.03-.05-.08-.08-.15-.1-.08-.02-.13 0-.16.05-.02.03-.02.07-.02.12v.37l.38.08v-.35ZM28.25 64.15v-.82l.14.03v.67l.34.07v-.62l.13.03v.62l.38.08v-.68l.13.03v.83l-1.12-.24ZM28.25 62.3l.13.03v.38l.99.21v.15l-.99-.21v.38l-.13-.03v-.91ZM28.25 62.15v-.82l.14.03v.67l.34.07v-.62l.13.03v.62l.38.08v-.68l.13.03v.83l-1.12-.24ZM28.25 61.12v-.18l.91-.37-.91-.19v-.14l1.12.24v.17l-.91.38.91.19v.15l-1.12-.24ZM28.25 59.82l.69.15c.08.02.15.02.2 0 .08-.03.12-.1.12-.2 0-.13-.04-.23-.13-.29a.678.678 0 0 0-.19-.08l-.69-.15v-.15l.63.13c.14.03.24.07.32.12.14.1.2.24.2.43s-.07.3-.2.34c-.07.02-.18.02-.32-.01l-.63-.13v-.15ZM28.25 58.84v-.82l.14.03v.67l.34.07v-.62l.13.03v.62l.38.08v-.68l.13.03v.83l-1.12-.24ZM29.02 57.88c.06 0 .12 0 .16-.01.07-.03.11-.12.11-.24 0-.06 0-.11-.02-.16-.03-.1-.09-.15-.17-.17-.06-.01-.1 0-.13.03s-.05.09-.07.17l-.03.15c-.02.09-.05.16-.07.19-.05.06-.12.08-.21.06a.405.405 0 0 1-.25-.16.53.53 0 0 1-.1-.32c0-.12.03-.21.09-.28s.15-.09.27-.07v.14c-.06 0-.11 0-.14.02-.06.03-.09.11-.09.22 0 .09.02.16.06.21s.08.08.13.09c.06.01.1 0 .12-.04.02-.03.04-.09.06-.19l.04-.15a.4.4 0 0 1 .07-.16c.05-.06.13-.08.23-.06.12.03.21.09.27.19.05.1.08.21.08.33 0 .14-.04.24-.11.31-.07.06-.17.08-.29.06v-.14ZM41.46 28.93h.38c.13 0 .23.05.3.14.06.08.1.19.1.33 0 .1-.02.19-.06.28-.07.15-.18.22-.34.22h-.38v-.96Zm.36.85s.08 0 .11-.01c.05-.02.09-.05.12-.1.03-.04.04-.09.05-.15v-.1c0-.12-.02-.21-.07-.28s-.12-.1-.22-.1h-.23v.74h.23ZM42.84 29.21s.08.05.11.09c.02.04.04.08.05.12 0 .03.01.08.01.15h-.51c0 .07.02.13.05.17.03.04.08.06.14.06.06 0 .11-.02.15-.06.02-.02.03-.05.04-.08H43s-.01.05-.03.09c-.02.03-.04.06-.06.08-.04.03-.08.06-.13.07-.03 0-.06.01-.1.01a.27.27 0 0 1-.22-.1c-.06-.06-.09-.15-.09-.27s.03-.2.09-.27.14-.11.24-.11c.05 0 .1.01.14.04Zm.04.28c0-.05-.02-.09-.03-.12-.03-.06-.09-.09-.16-.09-.05 0-.1.02-.14.06-.04.04-.06.09-.06.15h.39Zm-.05-.58-.17.19h-.09l.12-.19h.15ZM43.22 29.67s.01.07.03.09c.03.04.08.06.16.06.04 0 .08 0 .12-.03.03-.02.05-.05.05-.09 0-.03-.01-.05-.04-.07-.02 0-.05-.02-.1-.03l-.1-.02a.269.269 0 0 1-.13-.05.156.156 0 0 1-.08-.13c0-.07.02-.12.07-.16s.11-.06.2-.06c.11 0 .18.03.23.09.03.04.04.08.04.13h-.11s-.01-.05-.03-.07a.198.198 0 0 0-.14-.05c-.05 0-.08 0-.1.03-.02.02-.04.04-.04.07 0 .03.02.06.05.07.02.01.04.02.08.03l.08.02c.09.02.14.04.17.06.05.03.07.08.07.14s-.02.12-.07.16c-.05.05-.12.07-.22.07-.11 0-.18-.02-.22-.07a.287.287 0 0 1-.07-.18h.11ZM43.82 28.93h.12v.13h-.12v-.13Zm0 .26h.12v.7h-.12v-.7ZM44.51 29.22l.07.07v-.09h.11v.64c0 .09-.01.16-.04.21-.05.1-.14.14-.28.14-.08 0-.14-.02-.19-.05s-.08-.09-.09-.16h.12s.02.06.03.07c.03.03.07.04.13.04.09 0 .15-.03.18-.1.02-.04.02-.1.02-.2-.02.04-.05.06-.08.08a.297.297 0 0 1-.33-.05c-.06-.05-.09-.14-.09-.27 0-.12.03-.21.09-.28s.13-.1.21-.1c.05 0 .1.01.14.04Zm.01.13s-.08-.06-.14-.06a.17.17 0 0 0-.17.12c-.02.04-.02.1-.02.16 0 .08.02.14.05.18.03.04.07.06.13.06a.2.2 0 0 0 .18-.11c.02-.04.03-.09.03-.15 0-.09-.02-.15-.05-.19ZM44.87 29.19h.11v.1s.07-.07.11-.09.08-.03.12-.03c.1 0 .17.03.2.1.02.04.03.09.03.16v.45h-.12v-.44s0-.08-.02-.1a.123.123 0 0 0-.11-.07h-.07c-.03 0-.06.03-.09.06-.02.02-.03.05-.04.07v.48h-.12v-.7ZM45.99 29.47s.05-.01.05-.03v-.05c0-.04-.01-.07-.04-.09s-.07-.03-.12-.03c-.06 0-.11.02-.13.05-.01.02-.02.05-.03.08h-.11c0-.09.03-.15.08-.18s.12-.05.19-.05c.08 0 .15.02.2.05.05.03.08.08.08.15V29.8c0 .01.02.01.03.01h.04v.09h-.08c-.04 0-.07-.01-.09-.04 0-.02-.02-.04-.02-.06-.02.03-.06.06-.1.08s-.09.03-.15.03c-.07 0-.12-.02-.16-.06a.204.204 0 0 1-.06-.15c0-.06.02-.12.06-.15s.09-.06.16-.07l.19-.02Zm-.25.32s.05.03.09.03c.04 0 .08 0 .12-.03.07-.03.1-.08.1-.16v-.09s-.03.02-.06.02c-.02 0-.04.01-.07.01h-.07s-.07.02-.1.04c-.04.02-.05.05-.05.1 0 .03.01.06.04.08ZM46.38 28.99h.12v.2h.11v.1h-.11v.46s0 .04.02.05H46.61v.09h-.09c-.06 0-.09-.01-.11-.04a.18.18 0 0 1-.03-.11v-.46h-.09v-.1h.09v-.2ZM46.73 28.93h.12v.13h-.12v-.13Zm0 .26h.12v.7h-.12v-.7ZM47.54 29.26c.06.06.09.15.09.27s-.03.21-.08.28c-.05.07-.14.11-.25.11-.1 0-.17-.03-.23-.1s-.08-.15-.08-.26c0-.12.03-.21.09-.28.06-.07.14-.1.24-.1.09 0 .17.03.23.09Zm-.07.47c.03-.06.04-.12.04-.2a.35.35 0 0 0-.03-.16.182.182 0 0 0-.17-.1c-.07 0-.12.03-.16.08-.03.05-.05.12-.05.2s.02.14.05.19c.03.05.08.07.15.07.08 0 .13-.03.16-.09ZM47.78 29.19h.11v.1s.07-.07.11-.09.08-.03.12-.03c.1 0 .17.03.2.1.02.04.03.09.03.16v.45h-.12v-.44s0-.08-.02-.1a.123.123 0 0 0-.11-.07h-.07c-.03 0-.06.03-.09.06-.02.02-.03.05-.04.07v.48h-.12v-.7ZM49.32 36.11v.11H49v.85h-.13v-.85h-.32v-.11h.78ZM50.21 36.25c.06.09.1.19.1.33s-.04.26-.11.36c-.09.11-.21.17-.37.17a.44.44 0 0 1-.35-.15c-.08-.09-.11-.21-.11-.36 0-.13.03-.24.1-.33.08-.12.21-.18.37-.18s.3.05.38.16Zm-.11.61c.05-.08.08-.18.08-.28a.4.4 0 0 0-.09-.27c-.06-.07-.14-.1-.24-.1s-.18.03-.24.1-.09.17-.09.3c0 .11.03.2.08.27s.14.11.26.11.2-.04.25-.12ZM51.16 36.11v.11h-.32v.85h-.13v-.85h-.32v-.11h.78ZM51.46 36.11h.15l.35.96h-.14l-.1-.29h-.38l-.1.29h-.13l.36-.96Zm.21.57-.15-.43-.16.43h.3ZM52.07 36.11h.13v.85h.48v.11h-.61v-.96ZM53.78 36.14c.09.05.15.14.17.26h-.13c-.02-.07-.05-.12-.1-.15a.345.345 0 0 0-.18-.05c-.09 0-.16.03-.22.1s-.09.17-.09.3c0 .11.02.21.07.28.05.07.13.11.24.11.09 0 .16-.03.21-.08.06-.05.08-.13.09-.24h-.3v-.11h.42v.51h-.08l-.03-.12s-.08.08-.12.1c-.06.03-.13.05-.21.05-.11 0-.21-.04-.29-.11-.09-.09-.13-.22-.13-.38s.04-.29.13-.38c.08-.09.19-.14.32-.14.09 0 .17.02.23.05ZM54.47 36.11h.15l.35.96h-.14l-.1-.29h-.38l-.1.29h-.13l.36-.96Zm.21.57-.15-.43-.16.43h.3ZM55.11 36.11h.13v.96h-.13v-.96ZM55.45 36.11h.15l.48.78v-.78h.12v.96h-.15l-.49-.78v.78h-.12v-.96ZM56.51 36.76c0 .05.02.1.04.13.04.06.12.1.22.1.05 0 .09 0 .13-.02.07-.03.11-.08.11-.15 0-.05-.02-.09-.05-.11a.571.571 0 0 0-.15-.06l-.13-.03a.93.93 0 0 1-.18-.06.202.202 0 0 1-.09-.18c0-.09.03-.16.09-.21s.14-.08.25-.08c.1 0 .18.02.25.07s.1.13.1.23h-.12c0-.05-.02-.09-.04-.12-.04-.05-.1-.08-.19-.08-.07 0-.13.02-.16.05a.16.16 0 0 0-.05.11c0 .05.02.08.06.1.02.01.08.03.17.05l.13.03c.06.01.11.04.15.06.06.04.09.11.09.2 0 .11-.04.18-.11.23-.08.05-.16.07-.26.07-.12 0-.21-.03-.27-.09-.07-.06-.1-.14-.1-.25h.12ZM62.57 28.93h.42c.11 0 .19.03.24.1.03.04.04.09.04.14 0 .06-.02.11-.05.15-.02.02-.04.04-.08.06.05.02.09.04.11.06.04.04.06.1.06.17 0 .06-.02.12-.06.17-.06.08-.15.11-.28.11h-.41v-.96Zm.37.41c.06 0 .1 0 .13-.02.05-.02.07-.07.07-.13s-.03-.11-.08-.13a.392.392 0 0 0-.13-.02h-.23v.3h.24Zm.04.44c.08 0 .14-.02.17-.07a.18.18 0 0 0 .03-.11c0-.07-.03-.12-.09-.14a.444.444 0 0 0-.13-.02h-.26v.34h.28ZM63.83 29.47s.05-.01.05-.03v-.05c0-.04-.01-.07-.04-.09s-.07-.03-.12-.03c-.06 0-.11.02-.13.05-.01.02-.02.05-.03.08h-.11c0-.09.03-.15.08-.18s.12-.05.19-.05c.08 0 .15.02.2.05.05.03.08.08.08.15V29.8c0 .01.02.01.03.01h.04v.09h-.08c-.04 0-.07-.01-.09-.04 0-.02-.02-.04-.02-.06-.02.03-.06.06-.1.08s-.09.03-.15.03c-.07 0-.12-.02-.16-.06a.204.204 0 0 1-.06-.15c0-.06.02-.12.06-.15s.09-.06.16-.07l.19-.02Zm-.25.32s.05.03.09.03c.04 0 .08 0 .12-.03.07-.03.1-.08.1-.16v-.09s-.03.02-.06.02c-.02 0-.04.01-.07.01h-.07s-.07.02-.1.04c-.04.02-.05.05-.05.1 0 .03.01.06.04.08ZM64.27 29.67s.01.07.03.09c.03.04.08.06.16.06.04 0 .08 0 .12-.03.03-.02.05-.05.05-.09 0-.03-.01-.05-.04-.07-.02 0-.05-.02-.1-.03l-.1-.02a.269.269 0 0 1-.13-.05.156.156 0 0 1-.08-.13c0-.07.02-.12.07-.16s.11-.06.2-.06c.11 0 .18.03.23.09.03.04.04.08.04.13h-.11s-.01-.05-.03-.07a.198.198 0 0 0-.14-.05c-.05 0-.08 0-.1.03-.02.02-.04.04-.04.07 0 .03.02.06.05.07.02.01.04.02.08.03l.08.02c.09.02.14.04.17.06.05.03.07.08.07.14s-.02.12-.07.16c-.05.05-.12.07-.22.07-.11 0-.18-.02-.22-.07a.287.287 0 0 1-.07-.18h.11ZM65.3 29.21s.08.05.11.09c.02.04.04.08.05.12 0 .03.01.08.01.15h-.51c0 .07.02.13.05.17.03.04.08.06.14.06.06 0 .11-.02.15-.06.02-.02.03-.05.04-.08h.12s-.01.05-.03.09c-.02.03-.04.06-.06.08-.04.03-.08.06-.13.07-.03 0-.06.01-.1.01a.27.27 0 0 1-.22-.1c-.06-.06-.09-.15-.09-.27s.03-.2.09-.27.14-.11.24-.11c.05 0 .1.01.14.04Zm.04.28c0-.05-.02-.09-.03-.12-.03-.06-.09-.09-.16-.09-.05 0-.1.02-.14.06-.04.04-.06.09-.06.15h.39ZM71.44 28.93v.11h-.32v.85h-.13v-.85h-.32v-.11h.78ZM71.77 29.47s.05-.01.05-.03v-.05c0-.04-.01-.07-.04-.09s-.07-.03-.12-.03c-.06 0-.11.02-.13.05-.01.02-.02.05-.03.08h-.11c0-.09.03-.15.08-.18s.12-.05.19-.05c.08 0 .15.02.2.05.05.03.08.08.08.15V29.8c0 .01.02.01.03.01h.04v.09h-.08c-.04 0-.07-.01-.09-.04 0-.02-.02-.04-.02-.06-.02.03-.06.06-.1.08s-.09.03-.15.03c-.07 0-.12-.02-.16-.06a.204.204 0 0 1-.06-.15c0-.06.02-.12.06-.15s.09-.06.16-.07l.19-.02Zm-.25.32s.05.03.09.03c.04 0 .08 0 .12-.03.07-.03.1-.08.1-.16v-.09s-.03.02-.06.02c-.02 0-.04.01-.07.01h-.07s-.07.02-.1.04c-.04.02-.05.05-.05.1 0 .03.01.06.04.08ZM72.26 29.19v.47s0 .07.02.09c.02.04.06.06.11.06.08 0 .13-.04.16-.11.02-.04.02-.09.02-.16v-.34h.12v.7h-.11v-.1s-.03.05-.05.07c-.04.04-.1.06-.16.06-.1 0-.17-.03-.2-.1a.29.29 0 0 1-.03-.14v-.48h.12ZM72.82 29.19h.15l.16.25.16-.25h.14l-.24.34.25.36h-.15l-.17-.26-.17.26h-.15l.25-.36-.23-.34ZM77.46 28.93h.19l.28.81.27-.81h.19v.96h-.12v-.82l-.27.81h-.13l-.28-.81v.82h-.12v-.96ZM79.08 29.26c.06.06.09.15.09.27s-.03.21-.08.28c-.05.07-.14.11-.25.11-.1 0-.17-.03-.23-.1s-.08-.15-.08-.26c0-.12.03-.21.09-.28.06-.07.14-.1.24-.1.09 0 .17.03.23.09Zm-.07.47c.03-.06.04-.12.04-.2a.35.35 0 0 0-.03-.16.182.182 0 0 0-.17-.1c-.07 0-.12.03-.16.08-.03.05-.05.12-.05.2s.02.14.05.19c.03.05.08.07.15.07.08 0 .13-.03.16-.09ZM79.32 29.19h.11v.1s.07-.07.11-.09.08-.03.12-.03c.1 0 .17.03.2.1.02.04.03.09.03.16v.45h-.12v-.44s0-.08-.02-.1a.123.123 0 0 0-.11-.07h-.07c-.03 0-.06.03-.09.06-.02.02-.03.05-.04.07v.48h-.12v-.7ZM80.09 28.99h.12v.2h.11v.1h-.11v.46s0 .04.02.05H80.32v.09h-.09c-.06 0-.09-.01-.11-.04a.18.18 0 0 1-.03-.11v-.46H80v-.1h.09v-.2ZM80.81 29.47s.05-.01.05-.03v-.05c0-.04-.01-.07-.04-.09s-.07-.03-.12-.03c-.06 0-.11.02-.13.05-.01.02-.02.05-.03.08h-.11c0-.09.03-.15.08-.18s.12-.05.19-.05c.08 0 .15.02.2.05.05.03.08.08.08.15V29.8c0 .01.02.01.03.01h.04v.09h-.08c-.04 0-.07-.01-.09-.04 0-.02-.02-.04-.02-.06-.02.03-.06.06-.1.08s-.09.03-.15.03c-.07 0-.12-.02-.16-.06a.204.204 0 0 1-.06-.15c0-.06.02-.12.06-.15s.09-.06.16-.07l.19-.02Zm-.25.32s.05.03.09.03c.04 0 .08 0 .12-.03.07-.03.1-.08.1-.16v-.09s-.03.02-.06.02c-.02 0-.04.01-.07.01h-.07s-.07.02-.1.04c-.04.02-.05.05-.05.1 0 .03.01.06.04.08ZM81.18 29.19h.11v.1s.07-.07.11-.09.08-.03.12-.03c.1 0 .17.03.2.1.02.04.03.09.03.16v.45h-.12v-.44s0-.08-.02-.1a.123.123 0 0 0-.11-.07h-.07c-.03 0-.06.03-.09.06-.02.02-.03.05-.04.07v.48h-.12v-.7ZM81.95 28.99h.12v.2h.11v.1h-.11v.46s0 .04.02.05H82.18v.09h-.09c-.06 0-.09-.01-.11-.04a.18.18 0 0 1-.03-.11v-.46h-.09v-.1h.09v-.2ZM84.41 28.93h.19l.28.81.27-.81h.19v.96h-.12v-.82l-.27.81h-.13l-.28-.81v.82h-.12v-.96ZM86.03 29.26c.06.06.09.15.09.27s-.03.21-.08.28c-.05.07-.14.11-.25.11-.1 0-.17-.03-.23-.1s-.08-.15-.08-.26c0-.12.03-.21.09-.28.06-.07.14-.1.24-.1.09 0 .17.03.23.09Zm-.07.47c.03-.06.04-.12.04-.2a.35.35 0 0 0-.03-.16.182.182 0 0 0-.17-.1c-.07 0-.12.03-.16.08-.03.05-.05.12-.05.2s.02.14.05.19c.03.05.08.07.15.07.08 0 .13-.03.16-.09ZM86.26 29.19h.11v.1s.07-.07.11-.09.08-.03.12-.03c.1 0 .17.03.2.1.02.04.03.09.03.16v.45h-.12v-.44s0-.08-.02-.1a.123.123 0 0 0-.11-.07h-.07c-.03 0-.06.03-.09.06-.02.02-.03.05-.04.07v.48h-.12v-.7ZM87.03 28.99h.12v.2h.11v.1h-.11v.46s0 .04.02.05H87.26v.09h-.09c-.06 0-.09-.01-.11-.04a.18.18 0 0 1-.03-.11v-.46h-.09v-.1h.09v-.2ZM87.76 29.47s.05-.01.05-.03v-.05c0-.04-.01-.07-.04-.09s-.07-.03-.12-.03c-.06 0-.11.02-.13.05-.01.02-.02.05-.03.08h-.11c0-.09.03-.15.08-.18s.12-.05.19-.05c.08 0 .15.02.2.05.05.03.08.08.08.15V29.8c0 .01.02.01.03.01H88v.09h-.08c-.04 0-.07-.01-.09-.04 0-.02-.02-.04-.02-.06-.02.03-.06.06-.1.08s-.09.03-.15.03c-.07 0-.12-.02-.16-.06a.204.204 0 0 1-.06-.15c0-.06.02-.12.06-.15s.09-.06.16-.07l.19-.02Zm-.25.32s.05.03.09.03c.04 0 .08 0 .12-.03.07-.03.1-.08.1-.16v-.09s-.03.02-.06.02c-.02 0-.04.01-.07.01h-.07s-.07.02-.1.04c-.04.02-.05.05-.05.1 0 .03.01.06.04.08ZM88.13 29.19h.11v.1s.07-.07.11-.09.08-.03.12-.03c.1 0 .17.03.2.1.02.04.03.09.03.16v.45h-.12v-.44s0-.08-.02-.1a.123.123 0 0 0-.11-.07h-.07c-.03 0-.06.03-.09.06-.02.02-.03.05-.04.07v.48h-.12v-.7ZM88.9 28.99h.12v.2h.11v.1h-.11v.46s0 .04.02.05H89.13v.09h-.09c-.06 0-.09-.01-.11-.04a.18.18 0 0 1-.03-.11v-.46h-.09v-.1h.09v-.2ZM89.93 28.91c-.07.13-.11.23-.13.29-.03.1-.05.21-.05.33s.02.24.05.35c.02.06.06.16.13.28h-.08c-.06-.1-.1-.16-.12-.19s-.03-.06-.05-.11a1.08 1.08 0 0 1-.05-.21v-.11c0-.13.02-.24.06-.35.03-.06.08-.16.16-.29h.08ZM90.07 29.19h.11v.1s.07-.07.11-.09.08-.03.12-.03c.1 0 .17.03.2.1.02.04.03.09.03.16v.45h-.12v-.44s0-.08-.02-.1a.123.123 0 0 0-.11-.07h-.07c-.03 0-.06.03-.09.06-.02.02-.03.05-.04.07v.48h-.12v-.7ZM90.88 29.67s.01.07.03.09c.03.04.08.06.16.06.04 0 .08 0 .12-.03.03-.02.05-.05.05-.09 0-.03-.01-.05-.04-.07-.02 0-.05-.02-.1-.03l-.1-.02a.269.269 0 0 1-.13-.05.156.156 0 0 1-.08-.13c0-.07.02-.12.07-.16s.11-.06.2-.06c.11 0 .18.03.23.09.03.04.04.08.04.13h-.11s-.01-.05-.03-.07a.198.198 0 0 0-.14-.05c-.05 0-.08 0-.1.03-.02.02-.04.04-.04.07 0 .03.02.06.05.07.02.01.04.02.08.03l.08.02c.09.02.14.04.17.06.05.03.07.08.07.14s-.02.12-.07.16c-.05.05-.12.07-.22.07-.11 0-.18-.02-.22-.07a.287.287 0 0 1-.07-.18h.11ZM91.44 30.17c.07-.14.11-.23.13-.3.03-.09.05-.2.05-.33s-.02-.24-.05-.35c-.02-.06-.06-.16-.13-.28h.08c.07.11.11.17.12.2s.03.06.05.1c.02.05.04.11.04.16s.01.1.01.15c0 .13-.02.24-.06.35a2.4 2.4 0 0 1-.16.29h-.08ZM92.58 28.93h.13v.96h-.13v-.96ZM92.9 29.19h.11v.1s.07-.07.11-.09.08-.03.12-.03c.1 0 .17.03.2.1.02.04.03.09.03.16v.45h-.12v-.44s0-.08-.02-.1a.123.123 0 0 0-.11-.07h-.07c-.03 0-.06.03-.09.06-.02.02-.03.05-.04.07v.48h-.12v-.7ZM93.71 28.98s.08-.06.16-.06h.05v.11h-.05c-.04 0-.06 0-.06.03 0 .02-.01.07-.01.14h.12v.09h-.12v.61h-.12v-.61h-.1v-.09h.1v-.11s.01-.08.03-.11ZM94.53 29.26c.06.06.09.15.09.27s-.03.21-.08.28c-.05.07-.14.11-.25.11-.1 0-.17-.03-.23-.1s-.08-.15-.08-.26c0-.12.03-.21.09-.28.06-.07.14-.1.24-.1.09 0 .17.03.23.09Zm-.07.47c.03-.06.04-.12.04-.2a.35.35 0 0 0-.03-.16.182.182 0 0 0-.17-.1c-.07 0-.12.03-.16.08-.03.05-.05.12-.05.2s.02.14.05.19c.03.05.08.07.15.07.08 0 .13-.03.16-.09ZM94.77 29.19h.11v.12s.03-.05.07-.09.08-.05.12-.05h.04v.12h-.04c-.06 0-.11.02-.14.06s-.05.08-.05.13v.4h-.12v-.7ZM95.22 29.19h.12v.1s.05-.06.08-.08c.04-.03.08-.04.13-.04.06 0 .1.01.13.04.02.02.04.04.05.07.03-.04.06-.07.09-.08s.08-.03.12-.03c.09 0 .16.03.19.1.02.04.03.09.03.15v.47h-.12v-.49s-.01-.08-.03-.1c-.02-.02-.05-.03-.09-.03-.05 0-.09.02-.12.05-.03.03-.05.08-.05.16v.41h-.12v-.46s0-.08-.02-.1c-.02-.03-.05-.05-.1-.05-.04 0-.09.02-.12.05s-.05.1-.05.19v.37h-.12v-.7ZM96.71 29.47s.05-.01.05-.03v-.05c0-.04-.01-.07-.04-.09s-.07-.03-.12-.03c-.06 0-.11.02-.13.05-.01.02-.02.05-.03.08h-.11c0-.09.03-.15.08-.18s.12-.05.19-.05c.08 0 .15.02.2.05.05.03.08.08.08.15V29.8c0 .01.02.01.03.01h.04v.09h-.08c-.04 0-.07-.01-.09-.04 0-.02-.02-.04-.02-.06-.02.03-.06.06-.1.08s-.09.03-.15.03c-.07 0-.12-.02-.16-.06a.204.204 0 0 1-.06-.15c0-.06.02-.12.06-.15s.09-.06.16-.07l.19-.02Zm-.25.32s.05.03.09.03c.04 0 .08 0 .12-.03.07-.03.1-.08.1-.16v-.09s-.03.02-.06.02c-.02 0-.04.01-.07.01h-.07s-.07.02-.1.04c-.04.02-.05.05-.05.1 0 .03.01.06.04.08ZM97.1 28.99h.12v.2h.11v.1h-.11v.46s0 .04.02.05H97.33v.09h-.09c-.06 0-.09-.01-.11-.04a.18.18 0 0 1-.03-.11v-.46h-.09v-.1h.09v-.2ZM97.45 28.93h.12v.13h-.12v-.13Zm0 .26h.12v.7h-.12v-.7ZM98.26 29.26c.06.06.09.15.09.27s-.03.21-.08.28c-.05.07-.14.11-.25.11-.1 0-.17-.03-.23-.1s-.08-.15-.08-.26c0-.12.03-.21.09-.28.06-.07.14-.1.24-.1.09 0 .17.03.23.09Zm-.07.47c.03-.06.04-.12.04-.2a.35.35 0 0 0-.03-.16.182.182 0 0 0-.17-.1c-.07 0-.12.03-.16.08-.03.05-.05.12-.05.2s.02.14.05.19c.03.05.08.07.15.07.08 0 .13-.03.16-.09ZM98.5 29.19h.11v.1s.07-.07.11-.09.08-.03.12-.03c.1 0 .17.03.2.1.02.04.03.09.03.16v.45h-.12v-.44s0-.08-.02-.1a.123.123 0 0 0-.11-.07h-.07c-.03 0-.06.03-.09.06-.02.02-.03.05-.04.07v.48h-.12v-.7ZM99.31 29.67s.01.07.03.09c.03.04.08.06.16.06.04 0 .08 0 .12-.03.03-.02.05-.05.05-.09 0-.03-.01-.05-.04-.07-.02 0-.05-.02-.1-.03l-.1-.02a.269.269 0 0 1-.13-.05.156.156 0 0 1-.08-.13c0-.07.02-.12.07-.16s.11-.06.2-.06c.11 0 .18.03.23.09.03.04.04.08.04.13h-.11s-.01-.05-.03-.07a.198.198 0 0 0-.14-.05c-.05 0-.08 0-.1.03-.02.02-.04.04-.04.07 0 .03.02.06.05.07.02.01.04.02.08.03l.08.02c.09.02.14.04.17.06.05.03.07.08.07.14s-.02.12-.07.16c-.05.05-.12.07-.22.07-.11 0-.18-.02-.22-.07a.287.287 0 0 1-.07-.18h.11ZM41.46 37.89h.38c.13 0 .23.05.3.14.06.08.1.19.1.33 0 .1-.02.19-.06.28-.07.15-.18.22-.34.22h-.38v-.96Zm.36.85s.08 0 .11-.01c.05-.02.09-.05.12-.1.03-.04.04-.09.05-.15v-.1c0-.12-.02-.21-.07-.28s-.12-.1-.22-.1h-.23v.74h.23ZM42.84 38.17s.08.05.11.09c.02.04.04.08.05.12 0 .03.01.08.01.15h-.51c0 .07.02.13.05.17.03.04.08.06.14.06.06 0 .11-.02.15-.06.02-.02.03-.05.04-.08H43s-.01.05-.03.09c-.02.03-.04.06-.06.08-.04.03-.08.06-.13.07-.03 0-.06.01-.1.01a.27.27 0 0 1-.22-.1c-.06-.06-.09-.15-.09-.27s.03-.2.09-.27.14-.11.24-.11c.05 0 .1.01.14.04Zm.04.28c0-.05-.02-.09-.03-.12-.03-.06-.09-.09-.16-.09-.05 0-.1.02-.14.06-.04.04-.06.09-.06.15h.39Zm-.05-.58-.17.19h-.09l.12-.19h.15ZM43.22 38.63s.01.07.03.09c.03.04.08.06.16.06.04 0 .08 0 .12-.03.03-.02.05-.05.05-.09 0-.03-.01-.05-.04-.07-.02 0-.05-.02-.1-.03l-.1-.02a.269.269 0 0 1-.13-.05.156.156 0 0 1-.08-.13c0-.07.02-.12.07-.16s.11-.06.2-.06c.11 0 .18.03.23.09.03.04.04.08.04.13h-.11s-.01-.05-.03-.07a.198.198 0 0 0-.14-.05c-.05 0-.08 0-.1.03-.02.02-.04.04-.04.07 0 .03.02.06.05.07.02.01.04.02.08.03l.08.02c.09.02.14.04.17.06.05.03.07.08.07.14s-.02.12-.07.16c-.05.05-.12.07-.22.07-.11 0-.18-.02-.22-.07a.287.287 0 0 1-.07-.18h.11ZM43.82 37.89h.12v.13h-.12v-.13Zm0 .26h.12v.7h-.12v-.7ZM44.51 38.18l.07.07v-.09h.11v.64c0 .09-.01.16-.04.21-.05.1-.14.14-.28.14-.08 0-.14-.02-.19-.05s-.08-.09-.09-.16h.12s.02.06.03.07c.03.03.07.04.13.04.09 0 .15-.03.18-.1.02-.04.02-.1.02-.2-.02.04-.05.06-.08.08a.297.297 0 0 1-.33-.05c-.06-.05-.09-.14-.09-.27 0-.12.03-.21.09-.28s.13-.1.21-.1c.05 0 .1.01.14.04Zm.01.13s-.08-.06-.14-.06a.17.17 0 0 0-.17.12c-.02.04-.02.1-.02.16 0 .08.02.14.05.18.03.04.07.06.13.06a.2.2 0 0 0 .18-.11c.02-.04.03-.09.03-.15 0-.09-.02-.15-.05-.19ZM44.87 38.15h.11v.1s.07-.07.11-.09.08-.03.12-.03c.1 0 .17.03.2.1.02.04.03.09.03.16v.45h-.12v-.44s0-.08-.02-.1a.123.123 0 0 0-.11-.07h-.07c-.03 0-.06.03-.09.06-.02.02-.03.05-.04.07v.48h-.12v-.7ZM45.99 38.43s.05-.01.05-.03v-.05c0-.04-.01-.07-.04-.09s-.07-.03-.12-.03c-.06 0-.11.02-.13.05-.01.02-.02.05-.03.08h-.11c0-.09.03-.15.08-.18s.12-.05.19-.05c.08 0 .15.02.2.05.05.03.08.08.08.15V38.76c0 .01.02.01.03.01h.04v.09h-.08c-.04 0-.07-.01-.09-.04 0-.02-.02-.04-.02-.06-.02.03-.06.06-.1.08s-.09.03-.15.03c-.07 0-.12-.02-.16-.06a.204.204 0 0 1-.06-.15c0-.06.02-.12.06-.15s.09-.06.16-.07l.19-.02Zm-.25.32s.05.03.09.03c.04 0 .08 0 .12-.03.07-.03.1-.08.1-.16v-.09s-.03.02-.06.02c-.02 0-.04.01-.07.01h-.07s-.07.02-.1.04c-.04.02-.05.05-.05.1 0 .03.01.06.04.08ZM46.38 37.95h.12v.2h.11v.1h-.11v.46s0 .04.02.05H46.61v.09h-.09c-.06 0-.09-.01-.11-.04a.18.18 0 0 1-.03-.11v-.46h-.09v-.1h.09v-.2ZM46.73 37.89h.12v.13h-.12v-.13Zm0 .26h.12v.7h-.12v-.7ZM47.54 38.22c.06.06.09.15.09.27s-.03.21-.08.28c-.05.07-.14.11-.25.11-.1 0-.17-.03-.23-.1s-.08-.15-.08-.26c0-.12.03-.21.09-.28.06-.07.14-.1.24-.1.09 0 .17.03.23.09Zm-.07.47c.03-.06.04-.12.04-.2a.35.35 0 0 0-.03-.16.182.182 0 0 0-.17-.1c-.07 0-.12.03-.16.08-.03.05-.05.12-.05.2s.02.14.05.19c.03.05.08.07.15.07.08 0 .13-.03.16-.09ZM47.78 38.15h.11v.1s.07-.07.11-.09.08-.03.12-.03c.1 0 .17.03.2.1.02.04.03.09.03.16v.45h-.12v-.44s0-.08-.02-.1a.123.123 0 0 0-.11-.07h-.07c-.03 0-.06.03-.09.06-.02.02-.03.05-.04.07v.48h-.12v-.7ZM62.57 37.89h.42c.11 0 .19.03.24.1.03.04.04.09.04.14 0 .06-.02.11-.05.15-.02.02-.04.04-.08.06.05.02.09.04.11.06.04.04.06.1.06.17 0 .06-.02.12-.06.17-.06.08-.15.11-.28.11h-.41v-.96Zm.37.41c.06 0 .1 0 .13-.02.05-.02.07-.07.07-.13s-.03-.11-.08-.13a.392.392 0 0 0-.13-.02h-.23v.3h.24Zm.04.44c.08 0 .14-.02.17-.07a.18.18 0 0 0 .03-.11c0-.07-.03-.12-.09-.14a.444.444 0 0 0-.13-.02h-.26v.34h.28ZM63.83 38.43s.05-.01.05-.03v-.05c0-.04-.01-.07-.04-.09s-.07-.03-.12-.03c-.06 0-.11.02-.13.05-.01.02-.02.05-.03.08h-.11c0-.09.03-.15.08-.18s.12-.05.19-.05c.08 0 .15.02.2.05.05.03.08.08.08.15V38.76c0 .01.02.01.03.01h.04v.09h-.08c-.04 0-.07-.01-.09-.04 0-.02-.02-.04-.02-.06-.02.03-.06.06-.1.08s-.09.03-.15.03c-.07 0-.12-.02-.16-.06a.204.204 0 0 1-.06-.15c0-.06.02-.12.06-.15s.09-.06.16-.07l.19-.02Zm-.25.32s.05.03.09.03c.04 0 .08 0 .12-.03.07-.03.1-.08.1-.16v-.09s-.03.02-.06.02c-.02 0-.04.01-.07.01h-.07s-.07.02-.1.04c-.04.02-.05.05-.05.1 0 .03.01.06.04.08ZM64.27 38.63s.01.07.03.09c.03.04.08.06.16.06.04 0 .08 0 .12-.03.03-.02.05-.05.05-.09 0-.03-.01-.05-.04-.07-.02 0-.05-.02-.1-.03l-.1-.02a.269.269 0 0 1-.13-.05.156.156 0 0 1-.08-.13c0-.07.02-.12.07-.16s.11-.06.2-.06c.11 0 .18.03.23.09.03.04.04.08.04.13h-.11s-.01-.05-.03-.07a.198.198 0 0 0-.14-.05c-.05 0-.08 0-.1.03-.02.02-.04.04-.04.07 0 .03.02.06.05.07.02.01.04.02.08.03l.08.02c.09.02.14.04.17.06.05.03.07.08.07.14s-.02.12-.07.16c-.05.05-.12.07-.22.07-.11 0-.18-.02-.22-.07a.287.287 0 0 1-.07-.18h.11ZM65.3 38.17s.08.05.11.09c.02.04.04.08.05.12 0 .03.01.08.01.15h-.51c0 .07.02.13.05.17.03.04.08.06.14.06.06 0 .11-.02.15-.06.02-.02.03-.05.04-.08h.12s-.01.05-.03.09c-.02.03-.04.06-.06.08-.04.03-.08.06-.13.07-.03 0-.06.01-.1.01a.27.27 0 0 1-.22-.1c-.06-.06-.09-.15-.09-.27s.03-.2.09-.27.14-.11.24-.11c.05 0 .1.01.14.04Zm.04.28c0-.05-.02-.09-.03-.12-.03-.06-.09-.09-.16-.09-.05 0-.1.02-.14.06-.04.04-.06.09-.06.15h.39ZM69.35 37.89V38h-.32v.85h-.13V38h-.32v-.11h.78ZM69.68 38.43s.05-.01.05-.03v-.05c0-.04-.01-.07-.04-.09s-.07-.03-.12-.03c-.06 0-.11.02-.13.05-.01.02-.02.05-.03.08h-.11c0-.09.03-.15.08-.18s.12-.05.19-.05c.08 0 .15.02.2.05.05.03.08.08.08.15V38.76c0 .01.02.01.03.01h.04v.09h-.08c-.04 0-.07-.01-.09-.04 0-.02-.02-.04-.02-.06-.02.03-.06.06-.1.08s-.09.03-.15.03c-.07 0-.12-.02-.16-.06a.204.204 0 0 1-.06-.15c0-.06.02-.12.06-.15s.09-.06.16-.07l.19-.02Zm-.25.32s.05.03.09.03c.04 0 .08 0 .12-.03.07-.03.1-.08.1-.16v-.09s-.03.02-.06.02c-.02 0-.04.01-.07.01h-.07s-.07.02-.1.04c-.04.02-.05.05-.05.1 0 .03.01.06.04.08ZM70.17 38.15v.47s0 .07.02.09c.02.04.06.06.11.06.08 0 .13-.04.16-.11.02-.04.02-.09.02-.16v-.34h.12v.7h-.11v-.1s-.03.05-.05.07c-.04.04-.1.06-.16.06-.1 0-.17-.03-.2-.1a.29.29 0 0 1-.03-.14v-.48h.12ZM70.73 38.15h.15l.16.25.16-.25h.14l-.24.34.25.36h-.15l-.17-.26-.17.26h-.15l.25-.36-.23-.34ZM71.94 38.54c0 .05.02.1.04.13.04.06.12.1.22.1.05 0 .09 0 .13-.02.07-.03.11-.08.11-.15 0-.05-.02-.09-.05-.11a.571.571 0 0 0-.15-.06l-.13-.03a.93.93 0 0 1-.18-.06.202.202 0 0 1-.09-.18c0-.09.03-.16.09-.21s.14-.08.25-.08c.1 0 .18.02.25.07s.1.13.1.23h-.12c0-.05-.02-.09-.04-.12-.04-.05-.1-.08-.19-.08-.07 0-.13.02-.16.05a.16.16 0 0 0-.05.11c0 .05.02.08.06.1.02.01.08.03.17.05l.13.03c.06.01.11.04.15.06.06.04.09.11.09.2 0 .11-.04.18-.11.23-.08.05-.16.07-.26.07-.12 0-.21-.03-.27-.09-.07-.06-.1-.14-.1-.25h.12ZM73.11 38.43s.05-.01.05-.03v-.05c0-.04-.01-.07-.04-.09s-.07-.03-.12-.03c-.06 0-.11.02-.13.05-.01.02-.02.05-.03.08h-.11c0-.09.03-.15.08-.18s.12-.05.19-.05c.08 0 .15.02.2.05.05.03.08.08.08.15V38.76c0 .01.02.01.03.01h.04v.09h-.08c-.04 0-.07-.01-.09-.04 0-.02-.02-.04-.02-.06-.02.03-.06.06-.1.08s-.09.03-.15.03c-.07 0-.12-.02-.16-.06a.204.204 0 0 1-.06-.15c0-.06.02-.12.06-.15s.09-.06.16-.07l.19-.02Zm-.25.32s.05.03.09.03c.04 0 .08 0 .12-.03.07-.03.1-.08.1-.16v-.09s-.03.02-.06.02c-.02 0-.04.01-.07.01h-.07s-.07.02-.1.04c-.04.02-.05.05-.05.1 0 .03.01.06.04.08ZM73.48 37.89h.12v.96h-.12v-.96ZM73.81 38.71h.14v.14h-.14v-.14ZM74.87 38.01s.07.1.07.16-.02.12-.07.16-.1.07-.16.07-.12-.02-.16-.07-.07-.1-.07-.16.02-.12.07-.16c.04-.04.1-.07.16-.07s.12.02.16.07Zm-.07.26s.04-.06.04-.1-.01-.07-.04-.1-.06-.04-.1-.04-.07.01-.1.04-.04.06-.04.1.01.07.04.1.06.04.1.04.07-.01.1-.04Zm.45-.35h.07l-.52.96h-.07l.52-.96Zm.26.54s.07.1.07.16-.02.12-.07.16c-.04.04-.1.07-.16.07s-.12-.02-.16-.07c-.04-.04-.07-.1-.07-.16s.02-.12.07-.16c.04-.04.1-.07.16-.07s.12.02.16.07Zm-.07.26s.04-.06.04-.1-.01-.07-.04-.1-.06-.04-.1-.04-.07.01-.1.04-.04.06-.04.1.01.07.04.1.06.04.1.04.07-.01.1-.04ZM76.4 37.89h.19l.28.81.27-.81h.19v.96h-.12v-.82l-.27.81h-.13l-.28-.81v.82h-.12v-.96ZM78.01 38.22c.06.06.09.15.09.27s-.03.21-.08.28c-.05.07-.14.11-.25.11-.1 0-.17-.03-.23-.1s-.08-.15-.08-.26c0-.12.03-.21.09-.28.06-.07.14-.1.24-.1.09 0 .17.03.23.09Zm-.07.47c.03-.06.04-.12.04-.2a.35.35 0 0 0-.03-.16.182.182 0 0 0-.17-.1c-.07 0-.12.03-.16.08-.03.05-.05.12-.05.2s.02.14.05.19c.03.05.08.07.15.07.08 0 .13-.03.16-.09ZM78.25 38.15h.11v.1s.07-.07.11-.09.08-.03.12-.03c.1 0 .17.03.2.1.02.04.03.09.03.16v.45h-.12v-.44s0-.08-.02-.1a.123.123 0 0 0-.11-.07h-.07c-.03 0-.06.03-.09.06-.02.02-.03.05-.04.07v.48h-.12v-.7ZM79.02 37.95h.12v.2h.11v.1h-.11v.46s0 .04.02.05H79.25v.09h-.09c-.06 0-.09-.01-.11-.04a.18.18 0 0 1-.03-.11v-.46h-.09v-.1h.09v-.2ZM79.74 38.43s.05-.01.05-.03v-.05c0-.04-.01-.07-.04-.09s-.07-.03-.12-.03c-.06 0-.11.02-.13.05-.01.02-.02.05-.03.08h-.11c0-.09.03-.15.08-.18s.12-.05.19-.05c.08 0 .15.02.2.05.05.03.08.08.08.15V38.76c0 .01.02.01.03.01h.04v.09h-.08c-.04 0-.07-.01-.09-.04 0-.02-.02-.04-.02-.06-.02.03-.06.06-.1.08s-.09.03-.15.03c-.07 0-.12-.02-.16-.06a.204.204 0 0 1-.06-.15c0-.06.02-.12.06-.15s.09-.06.16-.07l.19-.02Zm-.25.32s.05.03.09.03c.04 0 .08 0 .12-.03.07-.03.1-.08.1-.16v-.09s-.03.02-.06.02c-.02 0-.04.01-.07.01h-.07s-.07.02-.1.04c-.04.02-.05.05-.05.1 0 .03.01.06.04.08ZM80.11 38.15h.11v.1s.07-.07.11-.09.08-.03.12-.03c.1 0 .17.03.2.1.02.04.03.09.03.16v.45h-.12v-.44s0-.08-.02-.1a.123.123 0 0 0-.11-.07h-.07c-.03 0-.06.03-.09.06-.02.02-.03.05-.04.07v.48h-.12v-.7ZM80.88 37.95H81v.2h.11v.1H81v.46s0 .04.02.05H81.11v.09h-.09c-.06 0-.09-.01-.11-.04a.18.18 0 0 1-.03-.11v-.46h-.09v-.1h.09v-.2ZM81.7 38.54c0 .05.02.1.04.13.04.06.12.1.22.1.05 0 .09 0 .13-.02.07-.03.11-.08.11-.15 0-.05-.02-.09-.05-.11a.571.571 0 0 0-.15-.06l-.13-.03a.93.93 0 0 1-.18-.06.202.202 0 0 1-.09-.18c0-.09.03-.16.09-.21s.14-.08.25-.08c.1 0 .18.02.25.07s.1.13.1.23h-.12c0-.05-.02-.09-.04-.12-.04-.05-.1-.08-.19-.08-.07 0-.13.02-.16.05a.16.16 0 0 0-.05.11c0 .05.02.08.06.1.02.01.08.03.17.05l.13.03c.06.01.11.04.15.06.06.04.09.11.09.2 0 .11-.04.18-.11.23-.08.05-.16.07-.26.07-.12 0-.21-.03-.27-.09-.07-.06-.1-.14-.1-.25h.12ZM82.87 38.43s.05-.01.05-.03v-.05c0-.04-.01-.07-.04-.09s-.07-.03-.12-.03c-.06 0-.11.02-.13.05-.01.02-.02.05-.03.08h-.11c0-.09.03-.15.08-.18s.12-.05.19-.05c.08 0 .15.02.2.05.05.03.08.08.08.15V38.76c0 .01.02.01.03.01h.04v.09h-.08c-.04 0-.07-.01-.09-.04 0-.02-.02-.04-.02-.06-.02.03-.06.06-.1.08s-.09.03-.15.03c-.07 0-.12-.02-.16-.06a.204.204 0 0 1-.06-.15c0-.06.02-.12.06-.15s.09-.06.16-.07l.19-.02Zm-.25.32s.05.03.09.03c.04 0 .08 0 .12-.03.07-.03.1-.08.1-.16v-.09s-.03.02-.06.02c-.02 0-.04.01-.07.01h-.07s-.07.02-.1.04c-.04.02-.05.05-.05.1 0 .03.01.06.04.08ZM83.25 37.89h.12v.96h-.12v-.96ZM83.57 38.71h.14v.14h-.14v-.14ZM85.3 37.89V38h-.32v.85h-.13V38h-.32v-.11h.78ZM85.63 38.43s.05-.01.05-.03v-.05c0-.04-.01-.07-.04-.09s-.07-.03-.12-.03c-.06 0-.11.02-.13.05-.01.02-.02.05-.03.08h-.11c0-.09.03-.15.08-.18s.12-.05.19-.05c.08 0 .15.02.2.05.05.03.08.08.08.15V38.76c0 .01.02.01.03.01h.04v.09h-.08c-.04 0-.07-.01-.09-.04 0-.02-.02-.04-.02-.06-.02.03-.06.06-.1.08s-.09.03-.15.03c-.07 0-.12-.02-.16-.06a.204.204 0 0 1-.06-.15c0-.06.02-.12.06-.15s.09-.06.16-.07l.19-.02Zm-.25.32s.05.03.09.03c.04 0 .08 0 .12-.03.07-.03.1-.08.1-.16v-.09s-.03.02-.06.02c-.02 0-.04.01-.07.01h-.07s-.07.02-.1.04c-.04.02-.05.05-.05.1 0 .03.01.06.04.08ZM86.12 38.15v.47s0 .07.02.09c.02.04.06.06.11.06.08 0 .13-.04.16-.11.02-.04.02-.09.02-.16v-.34h.12v.7h-.11v-.1s-.03.05-.05.07c-.04.04-.1.06-.16.06-.1 0-.17-.03-.2-.1a.29.29 0 0 1-.03-.14v-.48h.12ZM86.68 38.15h.15l.16.25.16-.25h.14l-.24.34.25.36h-.15l-.17-.26-.17.26h-.15l.25-.36-.23-.34ZM87.82 37.89h.43c.09 0 .15.02.21.07.05.05.08.12.08.2 0 .08-.02.14-.07.2s-.12.08-.21.08h-.3v.41h-.13v-.96Zm.51.13s-.07-.02-.12-.02h-.26v.33h.26c.06 0 .11-.01.14-.04s.05-.07.05-.13c0-.07-.03-.12-.08-.14ZM89.06 38.43s.05-.01.05-.03v-.05c0-.04-.01-.07-.04-.09s-.07-.03-.12-.03c-.06 0-.11.02-.13.05-.01.02-.02.05-.03.08h-.11c0-.09.03-.15.08-.18s.12-.05.19-.05c.08 0 .15.02.2.05.05.03.08.08.08.15V38.76c0 .01.02.01.03.01h.04v.09h-.08c-.04 0-.07-.01-.09-.04 0-.02-.02-.04-.02-.06-.02.03-.06.06-.1.08s-.09.03-.15.03c-.07 0-.12-.02-.16-.06a.204.204 0 0 1-.06-.15c0-.06.02-.12.06-.15s.09-.06.16-.07l.19-.02Zm-.25.32s.05.03.09.03c.04 0 .08 0 .12-.03.07-.03.1-.08.1-.16v-.09s-.03.02-.06.02c-.02 0-.04.01-.07.01h-.07s-.07.02-.1.04c-.04.02-.05.05-.05.1 0 .03.01.06.04.08ZM89.46 37.95h.12v.2h.11v.1h-.11v.46s0 .04.02.05H89.69v.09h-.09c-.06 0-.09-.01-.11-.04a.18.18 0 0 1-.03-.11v-.46h-.09v-.1h.09v-.2ZM89.83 38.71h.14v.14h-.14v-.14ZM90.9 38.01s.07.1.07.16-.02.12-.07.16-.1.07-.16.07-.12-.02-.16-.07-.07-.1-.07-.16.02-.12.07-.16c.04-.04.1-.07.16-.07s.12.02.16.07Zm-.07.26s.04-.06.04-.1-.01-.07-.04-.1-.06-.04-.1-.04-.07.01-.1.04-.04.06-.04.1.01.07.04.1.06.04.1.04.07-.01.1-.04Zm.45-.35h.07l-.52.96h-.07l.52-.96Zm.26.54s.07.1.07.16-.02.12-.07.16c-.04.04-.1.07-.16.07s-.12-.02-.16-.07c-.04-.04-.07-.1-.07-.16s.02-.12.07-.16c.04-.04.1-.07.16-.07s.12.02.16.07Zm-.07.26s.04-.06.04-.1-.01-.07-.04-.1-.06-.04-.1-.04-.07.01-.1.04-.04.06-.04.1.01.07.04.1.06.04.1.04.07-.01.1-.04ZM92.43 37.89h.19l.28.81.27-.81h.19v.96h-.12v-.82l-.27.81h-.13l-.28-.81v.82h-.12v-.96ZM94.05 38.22c.06.06.09.15.09.27s-.03.21-.08.28c-.05.07-.14.11-.25.11-.1 0-.17-.03-.23-.1s-.08-.15-.08-.26c0-.12.03-.21.09-.28.06-.07.14-.1.24-.1.09 0 .17.03.23.09Zm-.07.47c.03-.06.04-.12.04-.2a.35.35 0 0 0-.03-.16.182.182 0 0 0-.17-.1c-.07 0-.12.03-.16.08-.03.05-.05.12-.05.2s.02.14.05.19c.03.05.08.07.15.07.08 0 .13-.03.16-.09ZM94.28 38.15h.11v.1s.07-.07.11-.09.08-.03.12-.03c.1 0 .17.03.2.1.02.04.03.09.03.16v.45h-.12v-.44s0-.08-.02-.1a.123.123 0 0 0-.11-.07h-.07c-.03 0-.06.03-.09.06-.02.02-.03.05-.04.07v.48h-.12v-.7ZM95.05 37.95h.12v.2h.11v.1h-.11v.46s0 .04.02.05H95.28v.09h-.09c-.06 0-.09-.01-.11-.04a.18.18 0 0 1-.03-.11v-.46h-.09v-.1h.09v-.2ZM95.78 38.43s.05-.01.05-.03v-.05c0-.04-.01-.07-.04-.09s-.07-.03-.12-.03c-.06 0-.11.02-.13.05-.01.02-.02.05-.03.08h-.11c0-.09.03-.15.08-.18s.12-.05.19-.05c.08 0 .15.02.2.05.05.03.08.08.08.15V38.76c0 .01.02.01.03.01h.04v.09h-.08c-.04 0-.07-.01-.09-.04 0-.02-.02-.04-.02-.06-.02.03-.06.06-.1.08s-.09.03-.15.03c-.07 0-.12-.02-.16-.06a.204.204 0 0 1-.06-.15c0-.06.02-.12.06-.15s.09-.06.16-.07l.19-.02Zm-.25.32s.05.03.09.03c.04 0 .08 0 .12-.03.07-.03.1-.08.1-.16v-.09s-.03.02-.06.02c-.02 0-.04.01-.07.01h-.07s-.07.02-.1.04c-.04.02-.05.05-.05.1 0 .03.01.06.04.08ZM96.15 38.15h.11v.1s.07-.07.11-.09.08-.03.12-.03c.1 0 .17.03.2.1.02.04.03.09.03.16v.45h-.12v-.44s0-.08-.02-.1a.123.123 0 0 0-.11-.07h-.07c-.03 0-.06.03-.09.06-.02.02-.03.05-.04.07v.48h-.12v-.7ZM96.92 37.95h.12v.2h.11v.1h-.11v.46s0 .04.02.05H97.15v.09h-.09c-.06 0-.09-.01-.11-.04a.18.18 0 0 1-.03-.11v-.46h-.09v-.1h.09v-.2ZM97.67 37.89h.43c.09 0 .15.02.21.07.05.05.08.12.08.2 0 .08-.02.14-.07.2s-.12.08-.21.08h-.3v.41h-.13v-.96Zm.51.13s-.07-.02-.12-.02h-.26v.33h.26c.06 0 .11-.01.14-.04s.05-.07.05-.13c0-.07-.03-.12-.08-.14ZM98.91 38.43s.05-.01.05-.03v-.05c0-.04-.01-.07-.04-.09s-.07-.03-.12-.03c-.06 0-.11.02-.13.05-.01.02-.02.05-.03.08h-.11c0-.09.03-.15.08-.18s.12-.05.19-.05c.08 0 .15.02.2.05.05.03.08.08.08.15V38.76c0 .01.02.01.03.01h.04v.09h-.08c-.04 0-.07-.01-.09-.04 0-.02-.02-.04-.02-.06-.02.03-.06.06-.1.08s-.09.03-.15.03c-.07 0-.12-.02-.16-.06a.204.204 0 0 1-.06-.15c0-.06.02-.12.06-.15s.09-.06.16-.07l.19-.02Zm-.25.32s.05.03.09.03c.04 0 .08 0 .12-.03.07-.03.1-.08.1-.16v-.09s-.03.02-.06.02c-.02 0-.04.01-.07.01h-.07s-.07.02-.1.04c-.04.02-.05.05-.05.1 0 .03.01.06.04.08ZM99.3 37.95h.12v.2h.11v.1h-.11v.46s0 .04.02.05H99.53v.09h-.09c-.06 0-.09-.01-.11-.04a.18.18 0 0 1-.03-.11v-.46h-.09v-.1h.09v-.2ZM99.68 38.71h.14v.14h-.14v-.14ZM30.25 30.75h8.06v.53h-8.06zM29.99 40.95h25.25v.74H29.99zM63.31 40.95h4.42v.74h-4.42zM63.31 42.33h4.42v.74h-4.42zM63.31 43.72h4.42v.74h-4.42zM63.31 47.87h4.42v.74h-4.42zM63.31 50.64h4.42v.74h-4.42zM63.31 52.03h4.42v.74h-4.42zM63.31 53.41h4.42v.74h-4.42zM63.31 54.8h4.42v.74h-4.42zM63.31 56.18h4.42v.74h-4.42zM63.31 57.57h4.42v.74h-4.42zM63.31 58.95h4.42v.74h-4.42zM63.31 60.34h4.42v.74h-4.42zM63.31 68.65h4.42v.74h-4.42zM63.31 70.03h4.42v.74h-4.42zM63.31 71.42h4.42v.74h-4.42zM63.31 72.8h4.42v.74h-4.42zM63.31 74.19h4.42v.74h-4.42zM63.31 75.57h4.42v.74h-4.42zM63.31 76.96h4.42v.74h-4.42zM63.31 78.34h4.42v.74h-4.42zM63.31 79.73h4.42v.74h-4.42zM63.31 81.11h4.42v.74h-4.42zM63.31 88.21h4.42v.74h-4.42zM71.18 78.34h4.42v.74h-4.42zM71.18 79.73h4.42v.74h-4.42zM71.18 81.11h4.42v.74h-4.42zM71.18 88.21h4.42v.74h-4.42zM72.01 92.38h4.42v.74h-4.42zM57.56 92.38h4.42v.74h-4.42zM49.41 92.38h4.42v.74h-4.42zM50.41 93.98h4.42v.74h-4.42zM50.41 95.34h4.42v.74h-4.42zM50.41 96.7h4.42v.74h-4.42zM59.17 93.98h4.42v.74h-4.42zM59.17 95.34h4.42v.74h-4.42zM59.17 96.7h4.42v.74h-4.42zM64.48 93.98h8.18v.74h-8.18zM64.48 95.34h8.18v.74h-8.18zM64.48 96.7h8.18v.74h-8.18zM28.31 93.98h8.18v.74h-8.18zM28.31 95.34h8.18v.74h-8.18zM28.31 96.7h8.18v.74h-8.18zM48.22 114.26h31.6v.71h-31.6zM43.94 115.73h40.08v.71H43.94zM35.73 92.38h4.42v.74h-4.42zM79.23 78.34h4.42v.74h-4.42zM79.23 79.73h4.42v.74h-4.42zM79.23 81.11h4.42v.74h-4.42zM79.23 82.5h4.42v.74h-4.42zM63.31 63.11h4.42v.74h-4.42zM63.31 64.49h4.42v.74h-4.42zM63.31 65.88h4.42v.74h-4.42zM71.18 65.88h4.42v.74h-4.42zM79.23 65.88h4.42v.74h-4.42zM71.18 50.64h4.42v.74h-4.42zM71.18 52.03h4.42v.74h-4.42zM71.18 53.41h4.42v.74h-4.42zM71.18 54.8h4.42v.74h-4.42zM71.18 56.18h4.42v.74h-4.42zM71.18 57.57h4.42v.74h-4.42zM71.18 58.95h4.42v.74h-4.42zM71.18 60.34h4.42v.74h-4.42zM87.23 50.64h4.42v.74h-4.42zM87.23 52.03h4.42v.74h-4.42zM87.23 53.41h4.42v.74h-4.42zM87.23 54.8h4.42v.74h-4.42zM87.23 56.18h4.42v.74h-4.42zM87.23 57.57h4.42v.74h-4.42zM87.23 58.95h4.42v.74h-4.42zM87.23 60.34h4.42v.74h-4.42zM87.23 68.65h4.42v.74h-4.42zM87.23 70.03h4.42v.74h-4.42zM87.23 71.42h4.42v.74h-4.42zM87.23 72.8h4.42v.74h-4.42zM87.23 74.19h4.42v.74h-4.42zM87.23 75.57h4.42v.74h-4.42zM87.23 76.96h4.42v.74h-4.42zM95.19 68.65h4.42v.74h-4.42zM95.19 70.03h4.42v.74h-4.42zM95.19 71.42h4.42v.74h-4.42zM95.19 72.8h4.42v.74h-4.42zM95.19 74.19h4.42v.74h-4.42zM95.19 75.57h4.42v.74h-4.42zM95.19 76.96h4.42v.74h-4.42zM95.19 84.01h4.42v.74h-4.42zM97.32 85.63h2.3v.74h-2.3zM86.22 85.63h3.86v.74h-3.86zM93.79 85.63h.74v.74h-.74zM79.23 84.01h4.42v.74h-4.42zM79.23 88.21h4.42v.74h-4.42zM79.23 90.5h4.42v.74h-4.42zM93.7 87.35h2.07v.74H93.7zM93.7 90.73h2.07v.74H93.7zM97.55 90.73h2.07v.74h-2.07zM84.58 87.56h3.16v.74h-3.16zM84.58 89.11h6.64v.74h-6.64zM84.58 90.73h2.86v.74h-2.86zM86.16 92.38h4.01v.74h-4.01zM87.54 93.96h4.1v.74h-4.1zM87.54 95.36h4.1v.74h-4.1zM87.54 96.77h4.1v.74h-4.1zM95.51 93.96h4.1v.74h-4.1zM95.51 95.36h4.1v.74h-4.1zM95.51 96.77h4.1v.74h-4.1zM94.17 92.38h4.01v.74h-4.01zM77.45 85.62h6.2v1.2h-6.2zM87.23 63.11h4.42v.74h-4.42zM87.23 64.49h4.42v.74h-4.42zM87.23 65.88h4.42v.74h-4.42zM95.19 63.11h4.42v.74h-4.42zM95.19 64.49h4.42v.74h-4.42zM95.19 65.88h4.42v.74h-4.42zM95.19 50.64h4.42v.74h-4.42zM95.19 52.03h4.42v.74h-4.42zM95.19 53.41h4.42v.74h-4.42zM95.19 54.8h4.42v.74h-4.42zM95.19 56.18h4.42v.74h-4.42zM95.19 57.57h4.42v.74h-4.42zM95.19 40.95h4.42v.74h-4.42zM95.19 42.33h4.42v.74h-4.42zM95.19 43.72h4.42v.74h-4.42zM87.23 40.95h4.42v.74h-4.42zM87.23 42.33h4.42v.74h-4.42zM87.23 43.72h4.42v.74h-4.42zM87.23 47.87h4.42v.74h-4.42zM95.19 45.1h4.42v.74h-4.42zM79.23 45.1h4.42v.74h-4.42zM95.19 46.49h4.42v.74h-4.42zM95.19 47.87h4.42v.74h-4.42zM95.19 58.95h4.42v.74h-4.42zM95.19 60.34h4.42v.74h-4.42zM79.23 50.64h4.42v.74h-4.42zM79.23 52.03h4.42v.74h-4.42zM79.23 53.41h4.42v.74h-4.42zM79.23 54.8h4.42v.74h-4.42zM79.23 56.18h4.42v.74h-4.42zM79.23 57.57h4.42v.74h-4.42zM79.23 58.95h4.42v.74h-4.42zM29.99 42.33h25.25v.74H29.99zM29.99 43.72h25.25v.74H29.99zM29.99 45.1h25.25v.74H29.99zM29.99 46.49h25.25v.74H29.99zM29.99 47.87h25.25v.74H29.99zM29.99 49.26h25.25V50H29.99zM29.99 50.64h25.25v.74H29.99zM29.99 52.03h25.25v.74H29.99zM29.99 53.41h25.25v.74H29.99zM29.99 54.8h25.25v.74H29.99zM29.99 56.18h25.25v.74H29.99zM29.99 57.57h25.25v.74H29.99zM29.99 58.95h25.25v.74H29.99zM29.99 60.34h25.25v.74H29.99zM29.99 61.72h25.25v.74H29.99zM29.99 63.11h25.25v.74H29.99zM29.99 64.49h25.25v.74H29.99zM29.99 65.88h25.25v.74H29.99zM29.99 67.26h25.25V68H29.99zM29.99 68.65h25.25v.74H29.99zM29.99 70.03h25.25v.74H29.99zM29.99 71.42h25.25v.74H29.99zM29.99 72.8h25.25v.74H29.99zM29.99 74.19h25.25v.74H29.99zM29.99 75.57h25.25v.74H29.99zM29.99 76.96h25.25v.74H29.99zM29.99 78.34h25.25v.74H29.99zM29.99 79.73h25.25v.74H29.99zM29.99 81.11h25.25v.74H29.99zM29.99 82.5h25.25v.74H29.99zM29.99 83.88h27.82v.74H29.99zM28.31 88.21h27.82v.74H28.31zM29.99 39.56h2.85v.74h-2.85zM79.55 30.75h4.27v.53h-4.27zM79.55 36.41h4.27v.53h-4.27zM87.34 36.41h4.27v.53h-4.27zM35.54 86.74h-.24l-.46-.8v.8h-.22v-1.13h.25l.45.79v-.79h.22v1.13ZM36.54 86.25h-.55v.29h.62v.2h-.85v-1.13h.83v.2h-.6v.24h.55v.2ZM37.62 85.62v.2h-.34v.93h-.24v-.93h-.34v-.2h.91ZM38.85 86.51h-.41l-.08.23h-.25l.4-1.13h.27l.4 1.13h-.26l-.07-.23Zm-.47-1.21h.24l.15.23h-.16l-.23-.23Zm.4 1.02-.14-.44-.15.44h.29ZM40.24 86.34H40v.41h-.23v-1.13h.49c.11 0 .2.03.27.09s.1.15.1.27c0 .13-.03.23-.1.28s-.16.08-.29.08Zm.11-.23s.05-.07.05-.13-.02-.1-.05-.13a.223.223 0 0 0-.13-.04H40v.33h.22c.06 0 .1-.01.13-.04ZM41.35 86.51h-.41l-.08.23h-.25l.4-1.13h.27l.4 1.13h-.26l-.07-.23Zm-.07-.19-.14-.44-.15.44h.29ZM42.58 85.62l-.38.7v.42h-.24v-.42l-.39-.7h.28l.23.49.22-.49h.27ZM43.5 86.25h-.55v.29h.62v.2h-.85v-1.13h.83v.2h-.6v.24h.55v.2ZM44.24 86.3H44v.44h-.23v-1.13h.55c.08 0 .14.01.18.03s.08.04.11.08l.06.09c.01.03.02.07.02.12 0 .05-.01.11-.04.16s-.07.09-.13.11c.05.02.09.05.11.09s.03.1.03.18v.18c0 .03.02.05.04.06v.03h-.26s-.01-.04-.02-.06v-.2c0-.07-.02-.12-.04-.14a.233.233 0 0 0-.14-.04Zm.14-.2s.07-.06.07-.13-.02-.11-.07-.14a.309.309 0 0 0-.11-.02H44v.3h.27c.05 0 .09 0 .12-.02ZM45.93 86.51h-.41l-.08.23h-.25l.4-1.13h.27l.4 1.13H46l-.07-.23Zm-.07-.19-.14-.44-.15.44h.29ZM46.2 85.62h.25l.24.86.25-.86h.24l-.38 1.13h-.22l-.38-1.13ZM47.87 86.51h-.41l-.08.23h-.25l.4-1.13h.27l.4 1.13h-.26l-.07-.23Zm-.07-.19-.14-.44-.15.44h.29ZM49.26 86.74h-.24l-.46-.8v.8h-.22v-1.13h.25l.45.79v-.79h.22v1.13ZM50.29 85.62v.2h-.34v.93h-.24v-.93h-.34v-.2h.91ZM50.85 85.62h.23v1.13h-.23v-1.13ZM51.52 86.74h-.22v-1.13h.34l.2.89.2-.89h.34v1.13h-.22v-.94l-.21.95h-.23l-.21-.95v.94ZM53.08 86.34h-.24v.41h-.23v-1.13h.49c.11 0 .2.03.27.09s.1.15.1.27c0 .13-.03.23-.1.28s-.16.08-.29.08Zm.11-.23s.05-.07.05-.13-.02-.1-.05-.13a.223.223 0 0 0-.13-.04h-.22v.33h.22c.06 0 .1-.01.13-.04ZM54.15 86.77c-.16 0-.28-.04-.37-.13-.11-.11-.17-.26-.17-.46s.06-.36.17-.46c.08-.09.21-.13.37-.13s.28.04.37.13c.11.1.17.26.17.46s-.06.36-.17.46c-.08.09-.21.13-.37.13Zm.22-.3c.05-.07.08-.17.08-.29s-.03-.22-.08-.29-.13-.1-.22-.1-.17.03-.22.1c-.06.07-.08.17-.08.29s.03.22.08.29c.06.07.13.1.22.1s.17-.03.22-.1Zm-.32-1.21h.2l.18.23h-.18l-.1-.13-.1.13h-.18l.18-.23ZM55.68 85.62v.2h-.34v.93h-.24v-.93h-.34v-.2h.91ZM56.67 86.58c.06 0 .1 0 .14-.02.07-.02.1-.07.1-.13 0-.04-.02-.07-.05-.09a.37.37 0 0 0-.15-.05l-.12-.03a.748.748 0 0 1-.24-.09c-.08-.05-.11-.13-.11-.24 0-.1.04-.18.11-.25s.18-.1.32-.1c.12 0 .22.03.3.09s.13.15.13.27h-.23c0-.07-.03-.12-.09-.14a.29.29 0 0 0-.14-.03c-.06 0-.11.01-.14.04-.04.02-.05.06-.05.1 0 .04.02.07.05.09.02.01.07.03.15.05l.19.05c.09.02.15.05.19.08.07.05.1.13.1.23s-.04.19-.12.26c-.08.07-.19.1-.33.1s-.26-.03-.35-.1-.13-.16-.13-.28h.22c0 .05.02.09.04.12.04.05.1.07.2.07ZM57.97 86.31v-.69h.24v.69c0 .12-.02.21-.06.28-.07.12-.2.18-.4.18s-.33-.06-.4-.18a.555.555 0 0 1-.06-.28v-.69h.24v.69c0 .08 0 .13.03.17.03.06.09.09.19.09s.16-.03.19-.09c.02-.04.03-.09.03-.17ZM58.91 86.3h-.24v.44h-.23v-1.13h.55c.08 0 .14.01.18.03s.08.04.11.08l.06.09c.01.03.02.07.02.12 0 .05-.01.11-.04.16s-.07.09-.13.11c.05.02.09.05.11.09s.03.1.03.18v.18c0 .03.02.05.04.06v.03h-.26s-.01-.04-.02-.06v-.2c0-.07-.02-.12-.04-.14a.233.233 0 0 0-.14-.04Zm.14-.2s.07-.06.07-.13-.02-.11-.07-.14a.309.309 0 0 0-.11-.02h-.27v.3h.27c.05 0 .09 0 .12-.02ZM60 85.62h.24v.92h.56v.2h-.79v-1.13ZM61.74 86.25h-.55v.29h.62v.2h-.85v-1.13h.83v.2h-.6v.24h.55v.2ZM62.91 86.3h-.24v.44h-.23v-1.13h.55c.08 0 .14.01.18.03s.08.04.11.08l.06.09c.01.03.02.07.02.12 0 .05-.01.11-.04.16s-.07.09-.13.11c.05.02.09.05.11.09s.03.1.03.18v.18c0 .03.02.05.04.06v.03h-.26s-.01-.04-.02-.06v-.2c0-.07-.02-.12-.04-.14a.233.233 0 0 0-.14-.04Zm.14-.2s.07-.06.07-.13-.02-.11-.07-.14a.309.309 0 0 0-.11-.02h-.27v.3h.27c.05 0 .09 0 .12-.02ZM64.34 86.25h-.55v.29h.62v.2h-.85v-1.13h.83v.2h-.6v.24h.55v.2ZM64.52 85.62h.25l.24.86.25-.86h.24l-.38 1.13h-.22l-.38-1.13ZM66.43 86.25h-.55v.29h.62v.2h-.85v-1.13h.83v.2h-.6v.24h.55v.2ZM67.6 86.74h-.24l-.46-.8v.8h-.22v-1.13h.25l.45.79v-.79h.22v1.13ZM68.49 86.31v-.69h.24v.69c0 .12-.02.21-.06.28-.07.12-.2.18-.4.18s-.33-.06-.4-.18a.555.555 0 0 1-.06-.28v-.69h.24v.69c0 .08 0 .13.03.17.03.06.09.09.19.09s.16-.03.19-.09c.02-.04.03-.09.03-.17ZM49.01 91.29h-.17l-.33-.57v.57h-.16v-.8h.18l.32.56v-.56h.16v.8ZM49.73 90.94h-.39v.21h.45v.14h-.61v-.8h.59v.14h-.43v.17h.39v.14ZM50.5 90.49v.14h-.24v.66h-.17v-.66h-.24v-.14h.65ZM51.38 91.13h-.3l-.06.17h-.18l.29-.8h.19l.28.8h-.18l-.05-.17Zm-.33-.87h.17l.1.16h-.11l-.17-.16Zm.29.73-.1-.32-.1.32h.2ZM52.37 91h-.17v.29h-.17v-.8h.35c.08 0 .15.02.19.06s.07.11.07.19c0 .1-.02.16-.07.2s-.12.06-.21.06Zm.08-.17s.03-.05.03-.09-.01-.07-.03-.09c-.02-.02-.05-.03-.09-.03h-.16v.24h.16s.07 0 .09-.03ZM53.16 91.13h-.3l-.06.17h-.18l.29-.8h.19l.28.8h-.18l-.05-.17Zm-.05-.14-.1-.32-.1.32h.2ZM54.04 90.49l-.27.5v.3h-.17v-.3l-.28-.5h.2l.17.35.16-.35h.19ZM54.7 90.94h-.39v.21h.45v.14h-.61v-.8h.59v.14h-.43v.17h.39v.14ZM55.23 90.98h-.17v.32h-.16v-.8h.39c.06 0 .1 0 .13.02s.06.03.08.06c.02.02.03.04.04.07.01.02.02.05.02.08 0 .04 0 .08-.03.11-.02.04-.05.06-.1.08.04.01.06.04.08.06s.02.07.02.13V91.23c0 .02.01.04.03.05v.02h-.18s0-.03-.01-.04v-.14c0-.05-.01-.09-.03-.1-.02-.02-.05-.03-.1-.03Zm.1-.15s.05-.05.05-.09c0-.05-.02-.08-.05-.1-.02 0-.05-.01-.08-.01h-.2v.22h.19s.07 0 .09-.01ZM75.1 105.13v-3.05H74v-.41c.14 0 .28-.01.42-.03.14-.02.26-.06.37-.12s.2-.14.28-.25c.08-.1.13-.24.16-.4h.39v4.25h-.51ZM79.08 101.5c-.12-.12-.29-.17-.49-.17-.22 0-.39.05-.52.16s-.23.24-.31.4c-.07.16-.12.34-.15.53s-.04.36-.05.53h.01c.12-.18.27-.33.45-.41.18-.09.38-.13.62-.13.2 0 .39.03.55.1.16.07.3.17.41.29s.19.27.25.44.09.35.09.55c0 .16-.02.32-.07.49s-.13.32-.24.46c-.11.14-.26.25-.44.34-.18.09-.41.13-.68.13-.32 0-.57-.06-.76-.19-.19-.13-.34-.29-.44-.49-.1-.2-.17-.42-.21-.66-.03-.24-.05-.47-.05-.7 0-.29.02-.57.08-.85.05-.27.13-.52.25-.73.12-.21.28-.38.48-.51.2-.13.45-.19.76-.19.35 0 .63.09.84.28s.33.46.36.81h-.51a.717.717 0 0 0-.22-.46Zm-.92 1.42a.95.95 0 0 0-.28.2.85.85 0 0 0-.17.31c-.04.12-.06.24-.06.38s.02.26.06.37c.04.12.1.22.17.3s.17.15.28.2c.11.05.24.08.38.08s.26-.02.37-.08a.79.79 0 0 0 .27-.21c.07-.09.13-.19.17-.3.04-.11.06-.23.06-.36 0-.13-.02-.26-.05-.38a.817.817 0 0 0-.43-.52c-.11-.05-.23-.08-.38-.08s-.27.03-.38.08ZM82.6 102.14c-.19.29-.36.6-.5.94s-.26.67-.36 1.03c-.09.35-.15.69-.17 1.03H81c.02-.36.08-.71.18-1.05.09-.34.22-.67.36-.98s.32-.61.51-.89.4-.54.63-.77h-2.23v-.48h2.75v.44c-.22.21-.42.46-.61.76ZM83.98 101.5c.07-.13.16-.25.28-.34a1.387 1.387 0 0 1 .87-.28c.23 0 .43.03.59.09s.3.14.4.25.18.22.23.35.07.26.07.4c0 .19-.05.37-.16.52-.11.16-.25.28-.43.36.26.08.45.21.57.39s.19.41.19.67c0 .21-.04.39-.11.55-.07.16-.17.29-.3.4-.13.11-.27.19-.45.25-.17.06-.36.08-.55.08s-.39-.03-.57-.08a1.19 1.19 0 0 1-.77-.65c-.07-.16-.11-.35-.11-.57 0-.25.06-.47.19-.66.13-.19.31-.32.55-.41a.92.92 0 0 1-.43-.35.918.918 0 0 1-.16-.53c0-.18.03-.33.1-.46Zm.54 3.04c.17.15.39.22.65.22.13 0 .25-.02.35-.06s.2-.1.28-.17c.08-.07.14-.16.18-.26s.06-.21.06-.33-.02-.22-.07-.32-.11-.18-.19-.26c-.08-.07-.17-.13-.28-.17s-.22-.06-.34-.06-.24.02-.35.06c-.11.04-.21.09-.29.17a.7.7 0 0 0-.19.26.74.74 0 0 0-.07.34c0 .26.08.46.26.6Zm-.04-2.25c.04.09.09.16.16.21.07.06.15.1.24.13s.19.04.29.04c.2 0 .37-.06.5-.18s.2-.29.2-.5-.07-.38-.2-.49a.784.784 0 0 0-.51-.17c-.1 0-.2.01-.29.04-.09.03-.17.07-.24.13-.07.06-.12.12-.16.2-.04.08-.06.17-.06.28 0 .12.02.22.06.3ZM87.99 104.47v.61c0 .23-.05.42-.16.59s-.27.28-.5.35v-.3a.5.5 0 0 0 .17-.11c.05-.05.08-.1.11-.15a.492.492 0 0 0 .06-.33h-.35v-.67h.67ZM89.55 104.59c.15.11.32.17.53.17.31 0 .55-.14.7-.41.16-.27.24-.68.26-1.24h-.01c-.1.17-.23.31-.41.42-.18.11-.37.16-.58.16s-.41-.04-.58-.1a1.167 1.167 0 0 1-.68-.74c-.06-.18-.09-.37-.09-.58s.03-.39.1-.56c.07-.17.16-.32.29-.44.12-.12.27-.22.44-.28s.36-.1.56-.1.39.03.56.09c.18.06.33.17.46.32s.24.36.31.62c.08.26.12.6.12 1 0 .74-.12 1.3-.35 1.7s-.61.59-1.12.59c-.36 0-.65-.09-.89-.27-.24-.18-.37-.45-.4-.82h.51c.02.21.1.37.25.48Zm1.34-2.66a.85.85 0 0 0-.44-.52.887.887 0 0 0-.38-.08c-.15 0-.28.03-.39.08-.11.06-.19.13-.26.23-.07.09-.11.2-.14.32-.03.12-.04.25-.04.38 0 .12.02.23.06.34s.1.2.17.29.16.15.26.2c.1.05.21.08.34.08.13 0 .25-.02.36-.08.11-.05.2-.12.28-.2.08-.09.13-.19.17-.3.04-.11.06-.23.06-.36 0-.13-.02-.26-.06-.37ZM92.93 101.4l-.23 1.22h.01c.09-.09.21-.17.36-.22a1.512 1.512 0 0 1 .97.02c.16.06.31.15.44.27s.22.27.29.46a1.786 1.786 0 0 1 .02 1.17c-.06.17-.15.32-.28.45-.12.13-.28.24-.47.32-.19.08-.4.12-.65.12-.18 0-.36-.03-.52-.08a1.27 1.27 0 0 1-.43-.23 1.1 1.1 0 0 1-.29-.38c-.07-.15-.11-.32-.11-.52h.51c0 .11.03.21.08.3s.11.18.19.25.17.12.28.16a1.03 1.03 0 0 0 .7 0c.11-.04.21-.1.29-.19s.15-.19.19-.31c.05-.13.07-.27.07-.44 0-.14-.02-.27-.07-.39s-.11-.22-.19-.31-.19-.15-.3-.2c-.12-.05-.25-.07-.39-.07-.17 0-.32.04-.45.11s-.25.17-.34.29l-.44-.02.4-2.21h2.1v.45h-1.72ZM99.9 101.66c-.28-.28-.57-.41-.86-.41s-.55.13-.74.38c-.16.2-.27.47-.34.8h1.7l-.16.37h-1.58v.32h1.49l-.16.37h-1.31c.13.86.51 1.29 1.14 1.29.19 0 .36-.04.51-.11.11-.06.25-.16.41-.32v.63c-.27.17-.58.26-.92.26-.98 0-1.55-.58-1.72-1.75h-.46l.16-.37h.28v-.31h-.44l.16-.37h.32c.1-.49.28-.88.55-1.16.3-.32.69-.49 1.16-.49.36 0 .73.13 1.09.38l-.28.5Z"/></svg>