<svg xmlns="http://www.w3.org/2000/svg" id="Calque_1" viewBox="0 0 128 128.13"><defs><style>.cls-1{stroke:#000;stroke-linejoin:round;fill:none}</style></defs><path d="M88.16 60.81a47.9 47.9 0 0 0-.65-2.03c-1.09-3.19-2.48-6.29-4.35-9.1-2.41-3.63-5.59-5.88-8.74-8.75l-.95-5.86H56.81l-.93 5.85c-5.98 5.43-10.47 10.25-13.09 17.85-.24.66-.46 1.34-.67 2.04v49.47c0 4.73 10.31 8.56 23.02 8.56s23.03-3.83 23.03-8.56V60.81Zm-5.01 47.54c-1.63.76-3.59 1.42-5.81 1.93-3.54.82-7.72 1.3-12.2 1.3s-8.66-.48-12.19-1.3c-2.37-.55-4.46-1.26-6.14-2.08V68.72c4.2 1.49 10.85 2.44 18.33 2.44s13.79-.9 18.01-2.32v39.51Z" style="stroke-linecap:round;stroke-width:2px;fill:none;stroke:#000;stroke-linejoin:round"/><path d="M54.39 12.81h21.53c1.89 0 3.43 1.54 3.43 3.43v18.83H50.96V16.24c0-1.89 1.54-3.43 3.43-3.43Z" style="stroke-linecap:round;stroke-width:2px;fill:#fce9b9;stroke:#000;stroke-linejoin:round"/><path d="M53.64 12.81v15.07M55.95 12.81v15.07M58.26 12.81v15.07M60.57 12.81v15.07M62.88 12.81v15.07M65.19 12.81v15.07M67.5 12.81v15.07M69.81 12.81v15.07M72.12 12.81v15.07M74.42 12.81v15.07M76.73 12.81v15.07" class="cls-1"/></svg>