<svg xmlns="http://www.w3.org/2000/svg" id="Calque_1" data-name="Calque 1" viewBox="0 0 128 128"><defs><style>.cls-1,.cls-3{fill:#76ac75;stroke:#000;stroke-width:2px;stroke-linecap:round;stroke-linejoin:round}.cls-3{fill:none}</style></defs><path d="M64.15 36.24c-4.72-4.65-13.57-4.7-19.23-2.84-10.35 3.39-14.19 14.45-14.86 16.39-2.99 8.63-.5 20.15 6.17 36.14.21.51 6.07 12.84 10.22 16.97 2.67 2.66 4.5 3.16 5.68 3.28 2.48.25 7.54-1.71 8.88-2.32 6.86-3.14 4.6-2.18 10.35-5.33 5.51-3.02 19.24-10.52 24.92-25.79 1.7-4.56 5.37-14.42.44-23.82-2.49-4.76-8.47-11.83-15.52-11.8-5.59.02-9.59 4.49-13.99 2.19-1.54-.81-1.67-1.69-3.06-3.06Z" style="fill:#ff6d75;stroke-linecap:round;stroke-linejoin:round;stroke:#000;stroke-width:2px"/><path d="M72.21 42.84c0 1.22-.33 3.29-1.1 5.37-.24.63-.51 1.26-.83 1.87-1.35 2.6-5.2 2.15-7.35 2.72-2.15.56-3.39 3.84-3.39 3.84s-1.81-10.06 1.24-14.48c.02-.03.04-.06.06-.08 1.58-2.2 4.01-2.72 6.01-2.7.77.01 1.47.09 2.04.19.85.15 1.39.33 1.39.33s.73.52 1.29 1.28c.19.25.35.51.46.8.11.27.18.56.18.86ZM71.04 33.89h0c-.68 1.75-1.35 3.53-1.87 4.93-.14-.16-.6-.65-1.2-1.36-.66-.79-1.51-1.84-2.32-3h-.01c-.05-.07-.1-.14-.14-.21-.72-1.03-1.41-2.13-1.9-3.2-.04-.07-.07-.13-.1-.2-1.7-3.73 2.11-9.05 2.11-9.05s5.01 4.3 5.58 8.54c.16 1.21.07 2.43-.15 3.55Z" class="cls-1"/><path d="M88.65 32.37s-.92 3.01-2.68 5.53c-.35.49-.73.99-1.15 1.47-1.69 1.96-3.86 3.67-5.81 4.14-.11.03-.23.05-.35.05l-.18-.27c-.05.1-.09.2-.13.29-1.74-.03-4.06-1.46-5.29-2.3l-1.03.7c-.11-.29-.27-.55-.46-.8.22-.62.56-1.52.98-2.57.39-.97.86-2.06 1.39-3.15.16-.2.34-.37.55-.5 1.92-1.25 8.21-1.25 9.88-1.51 1.68-.25 4.28-1.08 4.28-1.08Z" class="cls-1"/><path d="M78.66 43.56c-.1.02-.2.02-.31.02.04-.09.08-.19.13-.29l.18.27Z" class="cls-1"/><path d="M81.44 60.1s-3.6-3.1-6.95-6.28c-1.5-1.42-2.61-3.61-3.38-5.61.77-2.08 1.1-4.15 1.1-5.37 0-.3-.07-.59-.18-.86l1.03-.7c1.23.84 3.55 2.27 5.29 2.3.11 0 .21 0 .31-.02.84 1.31 1.68 2.72 2.27 3.92.2.44.38.85.51 1.22 1.09 3.1 0 11.4 0 11.4Z" class="cls-1"/><path d="M78.66 43.56c-.1.02-.2.02-.31.02.04-.09.08-.19.13-.29l.18.27Z" class="cls-1"/><path d="M78.66 43.56c-.1.02-.2.02-.31.02.04-.09.08-.19.13-.29l.18.27ZM95.69 50.13s-3.94-4.27-8.05-3.44c-2.33.48-4.78.76-6.71.79-.59-1.2-1.43-2.61-2.27-3.92.12 0 .24-.02.35-.05 1.95-.47 4.12-2.18 5.81-4.14 1.72-.08 3.57-.02 4.75.45 2.76 1.09 4.78 3.94 5.28 5.37.5 1.42.84 4.94.84 4.94ZM65.5 34.25c-.1.03-.2.07-.31.11h-.01c-2.41-.49-5.26-.96-6.61-.74-1.75.28-4.28 1.67-6.42 2.7-1.42-.85-2.72-2.05-3.39-2.87-1.17-1.42-2.01-6.03-1.17-4.86.84 1.18 3.3 1.75 4.86 1.75 2.68 0 3.85-1.49 6.56-1.33 1.22.07 3 1.03 4.59 2.04.49 1.07 1.18 2.17 1.9 3.2Z" class="cls-1"/><path d="M69.17 38.82c-.09.27-.19.52-.28.75-.57-.1-1.27-.18-2.04-.19-2-.02-4.43.5-6.01 2.7-2.05.21-4.43.37-6.46.34-4.7-.08-9.56-5.03-9.56-5.03s2.35.51 4.61 0c.73-.16 1.68-.57 2.72-1.07 2.14-1.03 4.67-2.42 6.42-2.7 1.35-.22 4.2.25 6.61.74h.01c.16.04.3.07.45.1h.01c.81 1.16 1.66 2.21 2.32 3 .6.71 1.06 1.2 1.2 1.36Z" class="cls-1"/><path d="M86.82 23.09s-6.53 3.78-9.7 7.25c-1.16 1.28-2.26 3.2-3.18 5.12-.53 1.09-1 2.18-1.39 3.15-.42 1.05-.76 1.95-.98 2.57-.56-.76-1.29-1.28-1.29-1.28s-.54-.18-1.39-.33c.09-.23.19-.48.28-.75.52-1.4 1.19-3.18 1.87-4.92h0c.82-2.15 1.65-4.22 2.23-5.49 1.58-3.49 8.05-6.61 8.05-6.61l5.5 1.29Z" class="cls-1"/><path d="M42.88 47.31v3.38M51.8 53.97v3.38M38.1 62.31v3.37M51.23 67.54v3.38M66.54 58.41v3.38M69.86 68.46v3.38M81.38 63.35v3.38M91.62 52.28v3.38M88.21 73.4v3.38M75.76 82.53v3.38M60.45 79.85v3.38M42.88 73.95v3.38M47.82 81.97v3.38M46.62 93.22v3.38M60.45 94.51v3.38" class="cls-3"/><path d="M-406.6-1403.97h3385.57V1167.7H-406.6z" style="stroke:#fff;stroke-width:8px;fill:none;stroke-linecap:round;stroke-linejoin:round"/></svg>