<svg xmlns="http://www.w3.org/2000/svg" id="Calque_1" viewBox="0 0 200.13 128.13"><defs><style>.cls-11,.cls-12,.cls-13,.cls-2,.cls-3,.cls-7{stroke-linecap:round}.cls-12,.cls-2,.cls-7{fill:none}.cls-12,.cls-3,.cls-7{stroke-linejoin:round}.cls-11,.cls-15{fill:#87ccf3}.cls-11,.cls-12,.cls-13,.cls-2,.cls-3,.cls-7{stroke:#000}.cls-11,.cls-13,.cls-2{stroke-miterlimit:10}.cls-18{fill:#f6e7d4}.cls-13,.cls-3{fill:#fff}.cls-12{stroke-width:2px}.cls-19{fill:#dfdfe0}</style></defs><path d="M-1417.62-457.34h2655.08v1511.77h-2655.08z" style="stroke-linejoin:round;fill:none;stroke-linecap:round;stroke:#e30613;stroke-width:8px"/><path d="M25.94 82.97h.01l.74-.65c-.23.2-.49.42-.76.65Z" class="cls-13"/><path d="m43.84 97.9-8.69 1.04c-.51-.09-13.04-1.8-13.04-1.8s6.27-7.11 8.94-10.27c0 0 2.24-.45 4.41-3.59" class="cls-2"/><path d="M40.56 69.84c-2.04-.86-3.66 2.29-3.66 2.29-1.95-.49-2.81 1.51-2.88 1.7.09-.02.53-.16-.86.69-1.53.94-4.51 6.12-4.51 6.12l-.57.5c-.06.05-.17.15-.34.29l-1.05.89-.74.65h-.01c-4.3 3.71-13.49 11.82-14.21 13.97-.93 2.8.94 5.44 2.46 6.62 1.53 1.2 14.71 5.73 19.73 5.73l.09 5.29" class="cls-2"/><path d="m27.74 81.42.34-.29c-.06.05-.17.15-.34.29Z" class="cls-2"/><path d="M51.79 57.17c-3.82.16-6.27 2.86-11.26 2.88 0 0-5.37-.92-7.8 1.34-1.36 1.26-1.53 3.6-.77 5.13 0 0-.02-.32-1.18.22s-1.96 1.37-2.24 2.29c-.3 1-.59 3.72 1.29 4.84-1.08 1.99 3.43 6.29 4.66 7.28" class="cls-3"/><path d="M49.19 97.9s-8.46 2.38-11.66-5.57c-1.59-3.95-2.6-12.93-3.51-18.51M60.99 84.55l4.33 13.71M60.99 84.55s1.63-.78 3.59-3.91 3.27-8.93 1.12-14.62c-2.16-5.69-6.74-5.89-6.74-5.89s-1.66-3.35-7.17-2.96" class="cls-3"/><path d="M60.99 84.55c-1.43.35-2.01-1.96-3.2-2.82-4.15-3.01-5.29-8.28-6.18-13.33-.29.65-.26 1.39-.33 2.1-.07.71-.32 1.48-.95 1.82-1.05.57-2.29-.48-2.73-1.58-.44-1.1-.55-2.4-1.35-3.28-.74 1.91-1.93 3.65-3.43 5.04-.71.65-1.71 1.26-2.59.85-.62-.29-.93-1.02-.92-1.71 0-.68.27-1.33.54-1.97-1 1.8-2.54 3.3-4.37 4.25-.4.21-.89.39-1.29.19-.59-.29-.57-1.14-.4-1.78" class="cls-3"/><path d="M47.62 80.99c-.04.07.14.27.53.43.38.16.98.27 1.61.11.62-.16 1.09-.53 1.32-.85.24-.32.28-.58.21-.62M37.47 82.63c-.04.07.14.27.52.44.38.17.98.28 1.61.14a2.44 2.44 0 0 0 1.34-.83c.25-.32.29-.57.22-.62M63.71 69.59c.31.03.51.04.51.02s-.19-.07-.5-.12" class="cls-13"/><path d="M44.36 80.06s-2.37 7.34 0 6.53" class="cls-3"/><path d="M61.92 68.68s-1.65-.09-3.97 1.02M61.37 64.28s-2.42-1.24-4.4 0M49.19 97.9s4.59-.88 6.91-4.17" class="cls-13"/><path d="M65.02 66.78s1.12.55 1.8 1.61" class="cls-3"/><path d="M44.36 92.36s2.82.23 5.31-2.22" class="cls-13"/><path d="M37.78 61.28c-1.02-1-2.54-1.2-3.77-.62-.16-.39-.4-.76-.72-1.07a3.338 3.338 0 0 0-4.67 0c-.72.71-1.03 1.67-.94 2.6-.97-.11-1.97.19-2.71.92a3.206 3.206 0 0 0 0 4.59c.99.98 2.46 1.19 3.67.67.16.42.41.83.75 1.17a3.338 3.338 0 0 0 4.67 0c.76-.75 1.06-1.78.92-2.75.99.14 2.03-.16 2.8-.91a3.206 3.206 0 0 0 0-4.59ZM52.72 55.01a2.924 2.924 0 0 0-3.35-.56 3.03 3.03 0 0 0-.64-.97 2.94 2.94 0 0 0-4.16 0c-.64.64-.91 1.51-.83 2.35-.86-.1-1.75.17-2.41.83a2.94 2.94 0 0 0 0 4.16c.88.88 2.19 1.08 3.26.6.14.38.36.75.67 1.06a2.94 2.94 0 0 0 4.16 0c.68-.68.95-1.61.82-2.49.88.12 1.81-.14 2.49-.82a2.94 2.94 0 0 0 0-4.16ZM53.34 67.09c-.76-.76-1.88-.91-2.79-.47a2.5 2.5 0 0 0-.54-.81 2.45 2.45 0 0 0-3.47 0c-.54.54-.76 1.26-.7 1.96-.72-.08-1.46.14-2.01.69a2.45 2.45 0 0 0 0 3.47c.74.74 1.82.9 2.72.5.12.32.3.62.56.88a2.45 2.45 0 0 0 4.16-2.08 2.45 2.45 0 0 0 2.08-4.16Z" class="cls-11"/><path d="M55.64 39.37c0-6.37-6.68-11.53-14.94-11.53s-14.95 5.17-14.95 11.53h29.89Z" style="stroke-width:2px;fill:#bfe6fc;stroke:#000;stroke-linejoin:round;stroke-linecap:round"/><path d="M41.33 50.78v-2M41.33 46.22v-2M31.09 55.29v-2" class="cls-7"/><path d="M31.09 50.93V47.4" style="stroke-dasharray:0 0 2.36 2.36;stroke:#000;stroke-linejoin:round;fill:none;stroke-linecap:round"/><path d="M31.09 46.22v-2M50.88 50.78v-2M50.88 46.22v-2M36.36 43.37v2M36.36 48.78v2" class="cls-7"/><path d="M5.47 21.83v91.71M40.7 21.83v6M40.7 21.83c0-6.88-5.64-12.52-12.52-12.52H17.99a12.5 12.5 0 0 0-8.84 3.68c-2.27 2.27-3.68 5.39-3.68 8.84" class="cls-12"/><path d="M65.96 39.76c-.1-.41-.1-.98.03-1.55.1-.41.26-.78.5-1.12.29-.41.64-.77 1.03-1.08.42-.33.88-.59 1.37-.81.02 0 .04-.02.05-.02.05-.01.12-.07.16-.03.06.06-.01.12-.04.17-.3.49-.56 1.01-.73 1.56-.2.67-.27 1.36 0 2.03.13.31.25.6.27.94.04.94-.84 1.51-1.67 1.18-.47-.19-.75-.52-.98-1.26Z" style="fill:#b2f0e9;stroke:#000;stroke-linejoin:round;stroke-linecap:round"/><path d="M93.37 65.43s.02.06.02.09l-11.73 2.77c0-.06-.02-.12-.04-.19-.09-.33-.17-.66-.25-.99l-.39-1.71c0-.04-.01-.07-.02-.11l.31-.07c.34-.17.71-.23 1.09-.26l.39-.09c.2-.25.49-.28.77-.35.54-.13 1.08-.27 1.64-.38 1.06-.28 2.13-.51 3.2-.77.11-.02.21-.05.32-.05.02-.03.03-.05.04-.09.03-.24-.04-.47-.1-.7l-2.61-11.07c-.02-.07-.03-.14-.05-.21-.16-.62-.21-.65-.82-.52-.99.22-1.97.48-2.97.68-.84.22-1.69.42-2.54.6-.58.1-1.12.42-1.74.26-.22-1.11-.64-2.19-.68-3.34-.06-1.42.51-2.59 1.43-3.63.44-.5.61-1.1.63-1.75 0-.38-.08-.75-.59-.76.41-.43 1-.38 1.51-.52 1.26-.32 2.52-.62 3.79-.9.21-.05.42-.11.63.03-.47.26-.34.58-.14.97.49.98 1.47 1.28 2.32 1.75 1.09.6 1.79 1.51 2.11 2.69 1.71 6.15 2.98 12.41 4.49 18.61Z" style="stroke:#000;fill:#87ccf3;stroke-linejoin:round;stroke-linecap:round"/><path d="M85.54 50.45c-1.14.29-2.28.56-3.42.84-.85.2-1.7.4-2.54.59h0l-1.69.39c.52 2.24 1.04 4.48 1.57 6.72.5 2.1 1 4.19 1.51 6.29.63-.05 1.23-.19 1.82-.43 0 0 0 0 0 0l2.41-.57h0s0 0 0 0l3.8-.9c-.99-4.21-1.98-8.42-2.96-12.63-.07-.29-.18-.39-.48-.31Z" style="fill:#afaff9;stroke:#000;stroke-linejoin:round;stroke-linecap:round"/><path d="M82.29 30.13c-.26-.23-.5-.06-.73.11-1.49 1.16-3.18 1.63-5.06 1.61-1.26-.01-2.53.11-3.73.57-.98.32-1.9.76-2.74 1.37-.04.05-.07.1-.09.16.08.49.25.64.69.59.38-.04.72-.21 1.05-.39 1.43-.4 2.8-.12 4.12.44.85.36 1.67.76 2.51 1.14h0l.11.07h0c.09.31.17.63.27.93.11.33.03.48-.33.56-.66.15-.65.17-.45.86 0 0 0 0 0 0s0 0 0 0c.01.47.3.91.19 1.4.05.05.08.1.1.15-.03-.05-.06-.1-.1-.15.14 1.08.63 2.1.54 3.22 1.98-.46 3.95-.92 5.93-1.39.07-.13.06-.24-.08-.33-.15.03-.25-.74-.38-1.11-.2-.59-.17-1.24-.53-1.78h0c-.06-.07-.11-.14-.17-.21h0s0 0 0 0c-.1-.46-.21-.91-.3-1.37-.05-.29-.18-.43-.47-.31-.59.26-.82 0-.86-.57 0-.09-.05-.17-.08-.26h0c-.07-.34-.14-.67-.2-1.01-.2-1.29-.15-2.53.66-3.63.16-.22.39-.45.11-.71Zm-4.32 8s-.02-.04-.02-.07c0 .02.01.04.02.07Z" style="fill:#d6d6d6;stroke:#000;stroke-linejoin:round;stroke-linecap:round"/><path d="M116.09 91.92ZM116.9 95.36ZM114.04 93.84c.22.32.5.6.82.84l.12.1a3.43 3.43 0 0 1-.93-.93Z" class="cls-18"/><path d="M129.63 89.46c1.05 0 1.9-.85 1.9-1.9s-1.9-3.35-1.9-3.35-1.9 2.31-1.9 3.35.85 1.9 1.9 1.9Z" class="cls-15"/><path d="M134.1 92.68V54.66M125.41 92.68V54.66" class="cls-7"/><path d="M185.73 40.38h.09a3.446 3.446 0 0 1 3.44 3.45v8.34h-75.64v-8.34c0-.21.03-.42.06-.62l.04-.17c.04-.16.08-.31.14-.45l.05-.13c.08-.17.17-.34.27-.5l.03-.05.08-.1c.08-.11.17-.21.26-.31l.15-.16c.12-.12.26-.23.4-.33l.05-.04.37-.2.21-.12c.29-.12.6-.21.93-.25.14-.02.28-.02.42-.02h.22v.02h2.08v-.02h3.96v.02h2.08v-.02h3.96v.02h2.08v-.02h3.96v.02h2.08v-.02h3.99v.02h2.08v-.02h3.96l2.08.01h0l3.95-.01h0l2.08.01h0l3.96-.01h26.14Z" style="fill:#bfe6fc;stroke:#000;stroke-linejoin:round;stroke-linecap:round"/><path d="M113.63 52.18V93c0 .48.1.93.27 1.34a3.43 3.43 0 0 0 1.84 1.84c.41.17.87.27 1.34.27h68.74c.21 0 .42-.03.62-.06l.13-.03c.19-.04.38-.1.56-.17l.09-.04c.16-.07.3-.15.44-.24l.11-.07c.15-.11.29-.22.43-.35l.11-.11c.11-.12.21-.24.31-.37l.07-.09h0v-.01c.36-.54.57-1.19.57-1.89V52.2m-72.61 2.51h69.76v38.02h-69.76V54.71Z" class="cls-7"/><path d="m147.89 44.55-.14-.14.14.14ZM148.88 44.74a.68.68 0 0 0 .21-.1c-.07.04-.14.07-.21.1ZM148.55 44.8ZM154.59 44.8ZM154.91 44.74a.68.68 0 0 0 .21-.1c-.07.04-.14.07-.21.1Z" class="cls-19"/><path d="M118.33 38.23c-.11 0-.21.02-.31.06 0 0 0 0 0 0h-.01c-.09.03-.17.07-.25.12-.01 0-.03.02-.04.03-.08.06-.15.13-.21.2h-.01c-.06.09-.1.18-.14.27l-.02.05c-.03.1-.05.2-.05.3v4.48c0 .57.47 1.04 1.04 1.04h0c.09 0 .18-.02.26-.04l.06-.02c.07-.03.15-.06.21-.1h.02c.16-.11.29-.25.37-.42.07-.14.12-.3.12-.47v-4.48c0-.57-.47-1.04-1.04-1.04ZM124.37 38.23c-.11 0-.21.02-.31.06 0 0 0 0 0 0h-.01c-.09.03-.17.07-.25.12-.01 0-.03.02-.04.03-.08.06-.15.13-.21.2h-.01c-.06.09-.1.18-.14.27l-.02.05c-.03.1-.05.2-.05.3v4.48c0 .57.47 1.04 1.04 1.04h0c.09 0 .18-.02.26-.04l.06-.02c.07-.03.15-.06.21-.1h.02c.08-.06.15-.12.21-.19 0 0 0-.01.01-.02a.8.8 0 0 0 .15-.21s0 0 0 0h0c.07-.14.12-.3.12-.47v-4.48c0-.57-.47-1.04-1.04-1.04ZM130.41 38.23c-.11 0-.21.02-.31.06 0 0 0 0 0 0h-.01c-.09.03-.17.07-.25.12-.01 0-.03.02-.04.03-.08.06-.15.13-.21.2h-.01c-.06.09-.1.18-.14.27l-.02.05c-.03.1-.05.2-.05.3v4.48c0 .57.47 1.04 1.04 1.04h0c.09 0 .18-.02.26-.04l.06-.02c.07-.03.15-.06.21-.1h.02c.16-.11.29-.25.37-.42.07-.14.12-.3.12-.47v-4.48c0-.57-.47-1.04-1.04-1.04ZM136.45 38.23c-.11 0-.21.02-.31.06 0 0 0 0 0 0h-.01c-.09.03-.17.07-.24.12-.01 0-.03.02-.04.03-.08.06-.15.13-.21.2h-.01c-.06.09-.1.18-.14.27l-.02.05c-.03.1-.05.2-.05.3v4.48a1 1 0 0 0 .24.65l.14.14c.18.15.41.25.67.25h0c.09 0 .18-.02.26-.04l.06-.02c.08-.03.15-.06.21-.1h.02c.08-.06.15-.12.21-.19v-.01c.06-.06.11-.14.15-.21 0 0 0 0 0 0s0 0 0 0c.07-.14.12-.3.12-.47v-4.48c0-.57-.47-1.04-1.04-1.04ZM142.52 38.23c-.11 0-.21.02-.31.06 0 0 0 0 0 0h-.01c-.09.03-.17.07-.25.12-.01 0-.03.02-.04.03-.08.06-.15.13-.21.2h-.01c-.06.09-.1.18-.14.27l-.02.05c-.03.1-.05.2-.05.3v4.48c0 .57.47 1.04 1.04 1.04h0c.09 0 .18-.02.26-.04l.06-.02c.08-.03.15-.06.21-.1h.02c.08-.06.15-.12.21-.19 0 0 0-.01.01-.02a.8.8 0 0 0 .15-.21s0 0 0 0 0 0 0 0c.07-.14.12-.3.12-.47v-4.48c0-.57-.47-1.04-1.04-1.04ZM148.55 38.23c-.11 0-.21.02-.31.05 0 0 0 0 0 0h-.01c-.09.03-.17.07-.25.12-.01 0-.03.02-.04.03-.08.06-.15.13-.21.2h-.01c-.06.09-.1.18-.14.27l-.02.05c-.03.1-.05.2-.05.3v4.48a1 1 0 0 0 .24.65l.14.14c.18.15.41.25.67.25h0c.09 0 .18-.02.26-.04l.06-.02c.08-.03.15-.06.21-.1h.02c.08-.06.15-.12.21-.19v-.01c.06-.06.11-.14.15-.21 0 0 0 0 0 0s0 0 0 0c.07-.14.12-.3.12-.47v-4.48c0-.57-.47-1.04-1.04-1.04ZM154.59 38.23c-.11 0-.21.02-.31.06 0 0 0 0 0 0h-.01c-.09.03-.17.07-.25.12-.01 0-.03.02-.04.03-.08.06-.15.13-.21.2h-.01c-.06.09-.1.18-.14.27l-.02.05c-.03.1-.05.2-.05.3v4.48c0 .57.47 1.04 1.04 1.04h0c.09 0 .18-.02.26-.04l.06-.02c.08-.03.15-.06.21-.1h.02c.08-.06.15-.12.21-.19v-.01c.06-.06.11-.14.15-.21 0 0 0 0 0 0s0 0 0 0c.07-.14.12-.3.12-.47v-4.48c0-.57-.47-1.04-1.04-1.04ZM160.62 38.23c-.11 0-.21.02-.31.06 0 0 0 0 0 0h-.01c-.09.03-.17.07-.25.12-.01 0-.03.02-.04.03-.08.06-.15.13-.21.2h-.01c-.06.09-.1.18-.14.27l-.02.05c-.03.1-.05.2-.05.3v4.48c0 .57.47 1.04 1.04 1.04h0c.09 0 .18-.02.26-.04l.06-.02c.07-.03.15-.06.21-.1h.02c.08-.06.15-.12.21-.19v-.01c.06-.06.11-.14.15-.21 0 0 0 0 0 0s0 0 0 0c.07-.14.12-.3.12-.47v-4.48c0-.57-.47-1.04-1.04-1.04ZM166.64 38.23c-.11 0-.21.02-.31.06 0 0 0 0 0 0h-.01c-.09.03-.17.07-.25.12-.01 0-.03.02-.04.03-.08.06-.15.13-.21.2h-.01c-.06.09-.1.18-.14.27l-.02.05c-.03.1-.05.2-.05.3v4.48c0 .57.47 1.04 1.04 1.04h0c.09 0 .18-.02.26-.04l.06-.02c.07-.03.15-.06.21-.1h.02c.16-.11.29-.25.37-.42.07-.14.12-.3.12-.47v-4.48c0-.57-.47-1.04-1.04-1.04ZM172.67 38.23c-.11 0-.21.02-.31.06 0 0 0 0 0 0h-.01c-.09.03-.17.07-.25.12-.01 0-.03.02-.04.03-.08.06-.15.13-.21.2h-.01c-.06.09-.1.18-.14.27l-.02.05c-.03.1-.05.2-.05.3v4.48a1 1 0 0 0 .24.65l.14.14c.18.15.41.25.66.25h0c.09 0 .18-.02.26-.04l.06-.02c.08-.03.15-.06.21-.1h.02c.08-.06.15-.12.21-.19 0 0 0-.01.01-.02a.8.8 0 0 0 .15-.21s0 0 0 0 0 0 0 0c.07-.14.12-.3.12-.47v-4.48c0-.57-.47-1.04-1.04-1.04ZM178.65 38.23c-.11 0-.21.02-.31.05 0 0 0 0 0 0h-.01c-.09.03-.17.07-.25.12-.01 0-.03.02-.04.03-.08.06-.15.13-.21.2h-.01c-.06.09-.1.18-.14.27l-.02.05c-.03.1-.05.2-.05.3v4.48c0 .57.47 1.04 1.04 1.04h0c.09 0 .18-.02.26-.04l.06-.02c.07-.03.15-.06.21-.1h.02c.16-.11.29-.25.37-.42 0 0 0 0 0 0 .07-.14.12-.3.12-.47v-4.48c0-.57-.47-1.04-1.04-1.04ZM184.69 38.23c-.11 0-.21.02-.31.06 0 0 0 0 0 0h-.01c-.09.03-.17.07-.25.12-.01 0-.03.02-.04.03-.08.06-.15.13-.21.2h-.01c-.06.09-.1.18-.14.27l-.02.05c-.03.1-.05.2-.05.3v4.48a1 1 0 0 0 .24.65l.14.14c.18.15.41.25.67.25h0c.09 0 .18-.02.26-.04l.06-.02c.08-.03.15-.06.21-.1h.02c.08-.06.15-.12.21-.19v-.01c.06-.06.11-.14.15-.21 0 0 0 0 0 0s0 0 0 0c.07-.14.12-.3.12-.47v-4.48c0-.57-.47-1.04-1.04-1.04Z" class="cls-3"/><path d="M138.33 63.71c1.05 0 1.9-.85 1.9-1.9s-1.9-3.35-1.9-3.35-1.9 2.31-1.9 3.35.85 1.9 1.9 1.9ZM147.26 72.16c1.05 0 1.9-.85 1.9-1.9s-1.9-3.35-1.9-3.35-1.9 2.31-1.9 3.35.85 1.9 1.9 1.9ZM147.05 89.46c1.05 0 1.9-.85 1.9-1.9s-1.9-3.35-1.9-3.35-1.9 2.31-1.9 3.35.85 1.9 1.9 1.9ZM138.6 89.46c1.05 0 1.9-.85 1.9-1.9s-1.9-3.35-1.9-3.35-1.9 2.31-1.9 3.35.85 1.9 1.9 1.9ZM155.74 89.46c1.05 0 1.9-.85 1.9-1.9s-1.9-3.35-1.9-3.35-1.9 2.31-1.9 3.35.85 1.9 1.9 1.9ZM172.83 89.46c1.05 0 1.9-.85 1.9-1.9s-1.9-3.35-1.9-3.35-1.9 2.31-1.9 3.35.85 1.9 1.9 1.9ZM181.92 89.46c1.05 0 1.9-.85 1.9-1.9s-1.9-3.35-1.9-3.35-1.9 2.31-1.9 3.35.85 1.9 1.9 1.9Z" class="cls-15"/><path d="M151.49 92.71V54.69M142.8 92.71V54.69M186.11 73.86h-69.45M186.11 65.21h-69.45M186.26 82.5h-69.45M186.26 56.42h-69.45M186.17 91.19h-69.45" class="cls-7"/><path d="m187.98 96.45.1-.06.02-.01-.12.07zM181.63 96.69l-.09.04.09-.04ZM175.19 96.91l-.13.03.13-.03Z" class="cls-18"/><path d="M155.75 63.71c1.05 0 1.9-.85 1.9-1.9s-1.9-3.35-1.9-3.35-1.9 2.31-1.9 3.35.85 1.9 1.9 1.9Z" class="cls-15"/><path d="M168.88 93.09V55.06M177.58 93.09V55.06M160.19 93.09V55.06" class="cls-7"/><circle cx="116.48" cy="76.06" r="11.2" style="fill:#fff;stroke-miterlimit:10;stroke:#000"/><path d="M111.8 71.66c.44-.99 1.27-1.7 2.49-2.12 1.13-.39 2.15-.39 3.05.01.9.4 1.53 1.1 1.87 2.09.21.6.26 1.13.14 1.59s-.43 1.19-.94 2.18c-.37.72-.58 1.29-.62 1.72-.03.28 0 .61.1 1.01s-.13.81-.51.94c-.45.16-.93-.11-1.04-.57s-.16-.86-.14-1.21c.02-.56.25-1.28.69-2.15l.46-.91c.14-.26.24-.52.3-.78.11-.45.09-.87-.05-1.27-.19-.56-.53-.98-1.01-1.27-.48-.29-1.11-.3-1.89-.03-.97.34-1.51.92-1.64 1.75-.05.32-.03.7.06 1.15.08.39-.15.78-.52.91a.809.809 0 0 1-1.06-.62c-.16-.87-.07-1.68.26-2.42Zm6.21 9.17c.47-.16.98.08 1.14.55l.03.08c.16.47-.08.98-.55 1.14a.892.892 0 0 1-1.14-.55l-.03-.08c-.16-.47.08-.98.55-1.14Z" style="stroke-miterlimit:10;stroke:#000"/><path d="M65.54 64.7c-.44-.8-1.93-1.27-1.93-1.27-.07-.01-.12-.01-.17-.02h-.01c-2.86.19-2.49 2.41-2.49 2.41l3 .38 1.08.58m.52-2.08-2.09-1.36 12.94 46.5 11.19-7.08c2.22-1.44 4.75-3.09 7.09-4.66 3.16-2.1 3.63-4.65 3.33-6.62-.24-1.65-1.09-3.15-2.31-4.28-6.21-5.68-16.57-11.6-21.01-14.01l-1.34-.73-.8-.45-6-8.74s-1.01-1.72-2.29-2.15c-1.28-.44-2.93 1.13-2.93 1.13s-.67.83 1.3 1.29m2.31 3.27s.03-.02.09-.02c-1.53-.38-1.98.02-2.46.33-.27.17-.45.39-.57.63-.3.58-.08 1.29.49 1.61l.19.1h1.41v.95s1.72 6.76 3.37 7.79c.78.49 1.7.65 2.46.71l13.28 12.32-18.86 3.87" class="cls-3"/><path d="M64.69 79.29c-.76-.76-1.88-.91-2.79-.47a2.5 2.5 0 0 0-.54-.81 2.45 2.45 0 0 0-3.47 0c-.54.54-.76 1.26-.7 1.96-.72-.08-1.46.14-2.01.69a2.45 2.45 0 0 0 0 3.47c.74.74 1.82.9 2.72.5.12.32.3.62.56.88a2.45 2.45 0 0 0 4.16-2.08 2.45 2.45 0 0 0 2.08-4.16Z" class="cls-11"/><path d="M64.69 79.29s1.29-.43 1.29-3.23" class="cls-7"/></svg>