<svg xmlns="http://www.w3.org/2000/svg" id="Calque_1" data-name="Calque 1" viewBox="0 0 128 128"><defs><style>.cls-1{fill:#87ccf3}.cls-1,.cls-2,.cls-4,.cls-5,.cls-6{stroke-linecap:round;stroke-linejoin:round;stroke:#000}.cls-2,.cls-9{fill:#b2f0e9}.cls-4{fill:#fff}.cls-10,.cls-5,.cls-6{fill:none}.cls-6{stroke-width:.75px}.cls-10{stroke-miterlimit:10}.cls-11{fill:#f6e7d4}.cls-12{fill:#dbc5b1}.cls-13{fill:#dfdfe0}.cls-10{stroke:#8987f3}</style></defs><path d="M22.88 25.48c2.11-2.67 7.53-3.2 10.95-1.23" class="cls-6"/><path d="m13.52 74.64-.81 4.84a.51.51 0 0 1-.56.43h0a.52.52 0 0 1-.46-.55l.15-2.35 1.68-2.37Z" class="cls-4"/><path d="M15.9 73.47c-.4 1.49-.41 2.51-.38 3.05.03.29-.16.55-.43.61-.04.01-.1.02-.14.02-.24 0-.47-.16-.54-.41-.17-.56-.39-1.53-.34-2.62l-.69 1.4-1.65 3.37-.31.63c-.12.24-.41.34-.64.2a.445.445 0 0 1-.22-.39c0-.02.01-.05.01-.07l1.1-6.9s.4-2.48.52-4.22c0-.03.01-.07.01-.11 0-.01 0-.02.01-.04.07-.5.37-.94.86-1.11.72-.26 1.5.12 1.74.84l.04.12.07.23.28.82s1.35 2.19.7 4.59Z" class="cls-4"/><path d="m23.58 125.95-9.36.12c-.69 0-1.26-.54-1.28-1.23h0c-.01-.48.25-.92.67-1.15l7.96-4.26c.18-.1.39-.15.6-.15h4.06c.59 0 1.1.41 1.23.99l.78 3.49c.02.08.03.16.03.24l.02.61c.02.7-.54 1.29-1.25 1.29l-1.61.02-1.85.02Z" class="cls-2"/><path d="M21.74 111.67h5.5v7.62h-5.5zM39.76 111.67h-5.51l.38 7.61h5.5l-.37-7.61z" class="cls-4"/><path d="M37.94 56.93c.36 3.82 2.9 59.43 2.9 59.43h-7.43L30.15 66.4l-1.34.03-.87 49.93h-7.42s-.41-51.96.03-59.31l17.39-.12Z" class="cls-1"/><path d="m38.29 125.96 9.36.12c.69 0 1.26-.54 1.28-1.23h0c.01-.48-.25-.92-.67-1.15l-7.96-4.26c-.18-.1-.39-.15-.6-.15h-4.06c-.59 0-1.1.41-1.23.99l-.78 3.49c-.02.08-.03.16-.03.24l-.02.61c-.02.7.54 1.29 1.25 1.29l1.61.02 1.85.02ZM35.83 28.41v28.82H22.49V29.65l2.19-4.11 2.36 4.11 2.37-2.41 2.38 2.41 1.89-4.11 2.15 2.87z" class="cls-2"/><path d="m29.41 27.24-2.37 2.41-2.36-4.11 1.6-.96 1.12.96 2.01 1.7z" class="cls-2"/><path d="m33.68 25.54-1.89 4.11-2.38-2.41 1.69-1.7.98-1 1.6 1z" class="cls-2"/><path d="M41.75 48.62c.56.76.74 1.69.78 2.31l-.78-2.31Z" class="cls-4"/><path d="m46.32 39.26-4.8 7.69-.11.1-.16.15-.05-.15-1.74-5.06.15 5.06v.43l-.57-.05-.32 1.5-.54 2.54-.49 2.32 2.12.15.79 27.27h-7.96l.58-31.2.03-1.92-.29 1.22.11-2.83v-.25l.14-3.46.26-7.15.19-10.07 4.82 2.03c.95.22 4.31 1.46 6.66 7.92.17.48.34.97.5 1.51.23.77.44 1.51.66 2.25ZM18.5 81.2l.41-27.12-2.13 14.04-1.86-.05h-.13L12.21 68h-.01l-2.02-.05s2.45-19.73 3.54-29.47c1.05-9.4 5.59-10.67 5.59-10.67l5.37-2.27.76 23.76h0l1.02 31.91H18.5Z" class="cls-4"/><path d="m49.12 34.76-2.8 4.5-4.8 7.69-.1.09-.16.15-.06-.15h-1.59l.02.44-.59-.06-.32 1.51-2.12.38-3.51-2.83-.04-.03.05-.22.6-2.66 3.05-6.52 8.42-1.55 3.95-.74z" class="cls-1"/><path d="M41.2 47.04h-1.59l-.57.38-.32 1.5-.54 2.54-.49 2.32 2.12.15 6.27.46c.26.04.51.04.75-.01 1.68-.37 2.29-2.99 1.97-4.67-.44-2.37-1.23-6-2.49-10.46l-4.8 7.69-.11.1h-.21Z" class="cls-4"/><path d="m36.45 47.15 2.6.28-.32 1.5-.54 2.54c-2.18-.3-3.5-.83-3.5-.83L33.24 50l-1.66-.72c-.76-.4-1.24-1.19-1.24-2.04v-.61c0-.48.15-.95.43-1.35l.63-1.37c.44-.6 1.09-1.03 1.83-1.15.02 0 .04-.01.06-.01l.82-.08-.4.9c4.03.42 2.74 3.58 2.74 3.58Z" class="cls-4"/><path d="M28.61 3.62s0 1.14-.41 1.9h-.01M26.41 6c-.9-.52-1.51-1.84-1.51-1.84M23.57 16.44h-.01c-.11-.02-.84-.21-1.27-1.38-.47-1.26-1.01-1.11-1.05-2.41-.03-1.23 1.24-.7 1.38-.62M33.96 5.23s-.88.52-1.86.7" class="cls-5"/><path d="M35.22 11.01c.02.72.03 2.58-.26 4.5-.25 1.6-.73 3.25-1.61 4.31-.62.75-1.17 1.28-1.65 1.66-1.08.84-1.76.86-1.9.85-.16.04-1.08.18-2.66-.85-.4-.26-.84-.6-1.33-1.03-1.03-.92-1.76-2.47-2.25-4.01-.59-1.86-.87-3.7-.95-4.42h.01a.688.688 0 0 1-.02-.25c.02.07.05.11.05.11-.03-.3-.03-.6-.02-.89.19-1.5 1.56-3.97 1.72-4.39l.2-.04c.56.03 1.21-.1 1.86-.56.27.17.56.25.86.22.43-.05.72-.34.92-.7.01.01.02.02.03.02.13.12.9.8 1.86-.13.51.6 1.3.66 2.03.52.44.34 1.04.31 1.04.31.03.05.08.1.1.15 1.8 2.54 1.97 4.26 1.99 4.45.11-.45.19-.88.25-1.29-.1.76-.24 1.31-.27 1.43h0l-.01.03h.01Z" class="cls-4"/><path d="M22.63 10.99c-.04.28-.05.54-.03.78" class="cls-5"/><path d="M22.61 12.02s0-.01-.01-.02h0c-.06-.15-.39-.88-.61-1.88v-.03c-.45-1.99-.46-5 2.85-6.34 0 0 .2-1.09 1.6-.92 0 0 1.62-1.77 3.57-.32 1.36-.38 1.73.66 1.73.66 3.74.88 3.98 4.25 3.76 6.26 0 .04-.01.07-.01.1" class="cls-5"/><path d="M33.28 6.6s1.92 2.8 1.92 4.41M22.57 11.72h0s0 .13.03.28h0v.03M35.22 11.01v-.02M35.2 10.7s0 .1.01.28M34.95 15.51h.01c.1-.04.8-.34 1.05-1.56.27-1.31.82-1.25.67-2.54-.16-1.22-1.33-.5-1.46-.4M30.87 4.3c-.24.45-.49.79-.72 1.03-.03.03-.05.07-.08.08M28.22 5.54l-.02-.02" class="cls-5"/><path d="M29.52 10.85s.43 3.87 1.27 5.81c0 0-.16.4-1.42.15" class="cls-4"/><ellipse cx="26.92" cy="12.7" class="cls-4" rx=".13" ry=".39" transform="rotate(-4.42 27.018 12.72)"/><ellipse cx="32.25" cy="12.19" class="cls-4" rx=".13" ry=".39" transform="rotate(-4.42 32.23 12.143)"/><path d="M19.04 38.96c-.63-.1-2.6-.21-2.49-1.77.11-1.55 2.52-6.37 4.5-6.26s3.47 7.85 2.43 8.1-2.22.06-2.22.06" class="cls-6"/><path d="M18.8 32.38s2.01-4.01 2.46-3.98c.56.04 1.72 5.07 1.72 5.07" class="cls-6"/><path d="M32.09 24.54 29.6 27.1l-3.32-2.52.86-3.1c1.58 1.03 2.5.89 2.66.85.14.01.82-.01 1.9-.85l.39 3.06Z" class="cls-4"/><path d="M33.65 24.14c4.82 2.82 3.48 8.59 3.48 8.59M21.01 28.68c.11-.46 1.56-3.04 2.43-3.8" class="cls-6"/><circle cx="37.13" cy="34.17" r="1.48" class="cls-6"/><ellipse cx="19.04" cy="38.86" class="cls-6" rx=".44" ry=".51"/><ellipse cx="21.44" cy="39.07" class="cls-6" rx=".44" ry=".51"/><path d="M58.43 58.43h61.76v33.66H58.43z" class="cls-4"/><path d="M102.87 83.07h8.88v7.65h-8.88z" class="cls-9"/><path d="m105.34 85.36 3.94 3.49M109.28 85.36l-3.94 3.49" class="cls-10"/><path d="m120.91 95.13-.08.04.08-.04ZM120.33 95.32l-.12.02.12-.02Z" class="cls-11"/><path d="M55.75 56.2v36.15c0 .42.08.82.24 1.19.07.18.17.36.28.52.22.32.5.6.82.82.17.11.34.21.52.28.37.16.77.24 1.19.24h60.87c.19 0 .37-.02.55-.05l.12-.03c.18-.04.34-.08.5-.15l.08-.04c.13-.06.27-.13.39-.21l.1-.06c.13-.1.26-.2.38-.31l.1-.1c.1-.11.19-.21.27-.33l.06-.08h0c.31-.48.5-1.06.5-1.68V56.21H55.75Zm64.45 35.89H58.44V58.43h61.76v33.66Z" class="cls-4"/><path d="M93.84 67.68h8.88v7.65h-8.88zM93.84 82.86h8.88v7.65h-8.88zM75.92 75.4h8.88v7.65h-8.88z" class="cls-9"/><path d="M119.58 45.76h.08c.21 0 .42.02.62.06 1.39.29 2.44 1.52 2.44 2.99v7.39H55.75v-7.39c0-.19.02-.37.06-.55l.03-.15c.03-.14.07-.27.13-.4l.04-.12c.07-.15.15-.3.24-.44l.02-.04.07-.09c.07-.1.15-.19.23-.28l.13-.14c.11-.1.23-.2.35-.29l.04-.04.33-.18c.06-.03.12-.07.19-.1.26-.11.53-.18.82-.22.12-.01.24-.02.37-.02h.19v.02h1.84v-.02h3.5v.02h1.84v-.02h3.5v.02h1.84v-.02h3.5v.02h1.84v-.02h3.53l1.84.01h0l3.5-.01h0l1.84.01h0l3.5-.01H119.54Z" style="fill:#bfe6fc;stroke:#000;stroke-linecap:round;stroke-linejoin:round"/><path d="m57.09 46.29-.04.03.04-.03zM55.75 92.35ZM122.21 94.03l-.06.08.06-.08ZM121.88 94.44l-.09.1.09-.1ZM58.8 95.4ZM121.3 94.91l.09-.05.01-.01-.1.06zM56.27 94.05c.19.29.44.53.72.74l.1.09c-.33-.22-.61-.5-.82-.82Z" class="cls-11"/><path d="M59.92 49.67ZM60.2 49.62c.07-.02.13-.05.19-.09-.06.04-.12.06-.19.09ZM60.73 49.16ZM65.26 49.67ZM65.55 49.62c.07-.02.13-.05.19-.09-.06.04-.12.06-.19.09ZM70.89 49.62c.07-.02.13-.05.19-.09-.06.04-.12.06-.19.09ZM71.42 49.16ZM70.61 49.67ZM76.24 49.62c.07-.02.13-.05.19-.09-.06.04-.12.06-.19.09ZM75.95 49.67ZM75.36 49.45l-.12-.13.12.13ZM81.33 49.67ZM81.61 49.62c.07-.02.13-.05.19-.09-.06.04-.12.06-.19.09ZM86.08 49.45l-.12-.13.12.13ZM86.96 49.62c.07-.02.13-.05.19-.09-.06.04-.12.06-.19.09ZM86.67 49.67ZM92.01 49.67ZM92.3 49.62c.07-.02.13-.05.19-.09-.06.04-.12.06-.19.09ZM97.64 49.62c.07-.02.13-.05.19-.09-.06.04-.12.06-.19.09ZM97.36 49.67ZM102.68 49.67ZM103.5 49.16ZM102.97 49.62c.07-.02.13-.05.19-.09-.06.04-.12.06-.19.09ZM107.44 49.45l-.12-.13.12.13ZM108.03 49.67ZM108.31 49.62c.07-.02.13-.05.19-.09-.06.04-.12.06-.19.09ZM114.13 49.16ZM113.32 49.67ZM113.6 49.62c.07-.02.13-.05.19-.09-.06.04-.12.06-.19.09ZM118.66 49.67ZM118.07 49.45l-.12-.13.12.13ZM118.95 49.62c.07-.02.13-.05.19-.09-.06.04-.12.06-.19.09Z" class="cls-13"/><path d="M59.92 43.86c-.1 0-.19.02-.28.05 0 0 0 0 0 0h-.01c-.08.03-.15.06-.22.11-.01 0-.02.02-.04.02-.07.05-.14.11-.19.18h0c-.05.08-.09.16-.12.24v.05c-.04.08-.06.17-.06.27v3.97c0 .51.41.92.92.92h0c.08 0 .16-.01.23-.03l.05-.02c.07-.02.13-.05.19-.09h.01c.14-.1.25-.22.33-.37.06-.13.1-.27.1-.41v-3.97c0-.51-.41-.92-.92-.92ZM65.26 43.86c-.1 0-.19.02-.28.05 0 0 0 0 0 0h-.01c-.08.03-.15.06-.22.11-.01 0-.02.02-.04.02-.07.05-.14.11-.19.18h0c-.05.08-.09.16-.12.24v.05c-.04.08-.06.17-.06.27v3.97c0 .51.41.92.92.92h0c.08 0 .16-.01.23-.03l.05-.02c.07-.02.13-.05.19-.09h.01c.07-.05.13-.11.19-.17 0 0 0-.01.01-.02.05-.06.09-.12.13-.19 0 0 0 0 0 0h0c.06-.12.11-.26.11-.41v-3.97c0-.51-.41-.92-.92-.92ZM70.61 43.86c-.1 0-.19.02-.28.05 0 0 0 0 0 0h-.01c-.08.03-.15.06-.22.11-.01 0-.02.02-.04.02-.07.05-.14.11-.19.18h0c-.05.08-.09.16-.12.24v.05c-.04.08-.06.17-.06.27v3.97c0 .51.41.92.92.92h0c.08 0 .16-.01.23-.03l.05-.02c.07-.02.13-.05.19-.09h.01c.14-.1.25-.22.33-.37.06-.13.1-.27.1-.41v-3.97c0-.51-.41-.92-.92-.92ZM75.95 43.86c-.1 0-.19.02-.28.05 0 0 0 0 0 0h-.01a.906.906 0 0 0-.26.14c-.07.05-.13.11-.19.18h0c-.05.08-.09.16-.12.24v.05c-.04.08-.06.17-.06.27v3.97c0 .22.08.42.21.58l.12.13c.16.13.36.22.59.22h0c.08 0 .16-.01.23-.03l.05-.02c.07-.02.13-.05.19-.09h.01c.07-.05.13-.11.19-.17v-.01c.05-.06.1-.12.13-.19 0 0 0 0 0 0s0 0 0 0c.06-.13.1-.26.1-.41V44.8c0-.51-.41-.92-.92-.92ZM81.33 43.86c-.1 0-.19.02-.28.05 0 0 0 0 0 0h-.01c-.08.03-.15.06-.22.11-.01 0-.02.02-.04.02-.07.05-.14.11-.19.18h0c-.05.08-.09.16-.12.24v.05c-.04.08-.06.17-.06.27v3.97c0 .51.41.92.92.92h0c.08 0 .16-.01.23-.03l.05-.02c.07-.02.13-.05.19-.09h.01c.07-.05.13-.11.19-.17 0 0 0-.01.01-.02.05-.06.09-.12.13-.19 0 0 0 0 0 0s0 0 0 0c.06-.13.11-.26.11-.41v-3.97c0-.51-.41-.92-.92-.92ZM86.67 43.86c-.1 0-.19.02-.28.05 0 0 0 0 0 0h-.01c-.08.03-.15.06-.22.11-.01 0-.03.02-.04.02-.07.05-.14.11-.19.18h0c-.05.08-.09.16-.12.24v.05c-.04.08-.06.17-.06.27v3.97c0 .22.08.42.21.58l.12.13c.16.13.36.22.59.22h0c.08 0 .16-.01.23-.03l.05-.02c.07-.02.13-.05.19-.09h.01c.07-.05.13-.11.19-.17v-.01c.05-.06.1-.12.13-.19 0 0 0 0 0 0s0 0 0 0c.06-.13.1-.26.1-.41v-3.97c0-.51-.41-.92-.92-.92ZM92.01 43.86c-.1 0-.19.02-.28.05 0 0 0 0 0 0h-.01a.906.906 0 0 0-.26.14c-.07.05-.14.11-.19.18h0c-.05.08-.09.16-.12.24v.04c-.04.09-.06.17-.06.27v3.97c0 .51.41.92.92.92h0c.08 0 .16-.01.23-.03l.05-.02c.07-.02.13-.05.19-.09h.01c.07-.05.13-.11.19-.17v-.01c.05-.06.1-.12.13-.19 0 0 0 0 0 0s0 0 0 0c.06-.13.1-.26.1-.41v-3.97c0-.51-.41-.92-.92-.92ZM97.36 43.86c-.1 0-.19.02-.28.05 0 0 0 0 0 0h-.01c-.08.03-.15.06-.22.11-.01 0-.02.02-.04.02-.07.05-.14.11-.19.18h0c-.05.08-.09.16-.12.24v.05c-.04.08-.06.17-.06.27v3.97c0 .51.41.92.92.92h0c.08 0 .16-.01.23-.03l.05-.02c.07-.02.13-.05.19-.09h.01c.07-.05.13-.11.19-.17v-.01c.05-.06.1-.12.13-.19 0 0 0 0 0 0s0 0 0 0c.06-.13.1-.26.1-.41v-3.97c0-.51-.41-.92-.92-.92ZM102.68 43.86c-.1 0-.19.02-.28.05 0 0 0 0 0 0h-.01c-.08.03-.15.06-.22.11-.01 0-.02.02-.04.02-.07.05-.14.11-.19.18h0c-.05.08-.09.16-.12.24v.05c-.04.08-.06.17-.06.27v3.97c0 .51.41.92.92.92h0c.08 0 .16-.01.23-.03l.05-.02c.07-.02.13-.05.19-.09h.01c.14-.1.25-.22.33-.37.06-.13.1-.27.1-.41v-3.97c0-.51-.41-.92-.92-.92ZM108.03 43.86c-.1 0-.19.02-.28.05 0 0 0 0 0 0h-.01c-.08.03-.15.06-.22.11-.01 0-.02.02-.04.02-.07.05-.14.11-.19.18h0c-.05.08-.09.16-.12.24v.05c-.04.08-.06.17-.06.27v3.97c0 .22.08.42.21.58l.12.13c.16.13.36.22.59.22h0c.08 0 .16-.01.23-.03l.05-.02c.07-.02.13-.05.19-.09h.01c.07-.05.13-.11.19-.17 0 0 0-.01.01-.01.05-.06.09-.12.13-.19 0 0 0 0 0 0s0 0 0 0c.06-.13.11-.26.11-.41v-3.97c0-.51-.41-.92-.92-.92ZM113.32 43.86c-.1 0-.19.02-.28.05 0 0 0 0 0 0h-.01c-.08.03-.15.06-.22.11-.01 0-.02.02-.04.02-.07.05-.14.11-.19.18h0c-.05.08-.09.16-.12.24v.05c-.04.08-.06.17-.06.27v3.97c0 .51.41.92.92.92h0c.08 0 .16-.01.23-.03l.05-.02c.07-.02.13-.05.19-.09h.01c.14-.1.25-.22.33-.37 0 0 0 0 0 0 .06-.13.1-.27.1-.41v-3.97c0-.51-.41-.92-.92-.92ZM118.66 43.86c-.1 0-.19.02-.28.05 0 0 0 0 0 0h-.01c-.08.03-.15.06-.22.11-.01 0-.02.02-.04.02-.07.05-.14.11-.19.18h0c-.05.08-.09.16-.12.24v.05c-.04.08-.06.17-.06.27v3.97c0 .22.08.42.21.58l.12.13c.16.13.36.22.59.22h0c.08 0 .16-.01.23-.03l.05-.02c.07-.02.13-.05.19-.09h.01c.07-.05.13-.11.19-.17v-.01c.05-.06.1-.12.13-.19 0 0 0 0 0 0s0 0 0 0c.06-.13.1-.26.1-.41v-3.97c0-.51-.41-.92-.92-.92Z" class="cls-4"/><path d="M111.55 92.09V58.43M93.67 92.09V58.43M102.61 92.09V58.43M84.8 92.09V58.43M75.92 92.09V58.43M67.4 92.09V58.43M119.92 75.4H58.43M119.92 67.75H58.43M120.06 83.05H58.57M120.06 59.96H58.57M119.98 90.74H58.49" class="cls-5"/><circle cx="60.09" cy="74.43" r="13.01" style="stroke-miterlimit:10;fill:#fff;stroke:#000"/><path d="M54.65 69.31c.51-1.15 1.48-1.97 2.9-2.46 1.31-.46 2.49-.45 3.54.01 1.05.47 1.77 1.28 2.17 2.43.24.7.3 1.31.16 1.85s-.5 1.38-1.09 2.53c-.43.84-.67 1.5-.72 1.99-.03.32 0 .71.12 1.18s-.15.94-.6 1.1c-.52.18-1.09-.13-1.21-.66s-.18-1-.17-1.41c.02-.65.29-1.49.81-2.5l.53-1.06c.16-.31.28-.61.34-.91.12-.52.11-1.02-.05-1.48-.22-.65-.62-1.14-1.17-1.47-.56-.34-1.29-.35-2.2-.03-1.12.39-1.76 1.07-1.9 2.04-.06.37-.03.81.07 1.34.09.45-.17.9-.61 1.05a.936.936 0 0 1-1.23-.72c-.18-1.01-.08-1.95.3-2.81Zm7.22 10.66c.54-.19 1.14.1 1.32.64l.03.09c.19.54-.1 1.14-.64 1.32-.54.19-1.14-.1-1.32-.64l-.03-.09c-.19-.54.1-1.14.64-1.32Z" style="stroke-miterlimit:10;stroke:#000"/><path d="m96.17 69.75 3.94 3.5M100.11 69.75l-3.94 3.5M96.31 85.15l3.94 3.5M100.25 85.15l-3.94 3.5M78.39 77.47l3.94 3.5M82.33 77.47l-3.94 3.5" class="cls-10"/></svg>