<svg xmlns="http://www.w3.org/2000/svg" id="Calque_1" data-name="Calque 1" viewBox="0 0 200 128"><defs><style>.cls-2,.cls-5,.cls-6,.cls-8,.cls-9{stroke:#000}.cls-2,.cls-5,.cls-6{stroke-linecap:round;stroke-linejoin:round}.cls-2{fill:#ff6d75}.cls-9{fill:#ffd4ad}.cls-5,.cls-8{fill:#fff}.cls-6{fill:none}.cls-8,.cls-9{stroke-miterlimit:10}.cls-13{fill:#f6e7d4}.cls-14{fill:#fab0b4}.cls-15{fill:#dbc5b1}.cls-16{fill:#dfdfe0}</style></defs><path d="M15.73 109.64h95.18" style="fill:#ffd4ad;stroke-linecap:round;stroke-linejoin:round;stroke:#000"/><path d="M94.96 57.61v24.94c-30.05-8.91-51.74-3.03-59.45-.21V55.22c0-1.39 1.13-2.5 2.52-2.5s2.5 1.12 2.5 2.5v2.39h49.35v-2.39c0-1.39 1.13-2.5 2.52-2.5s2.5 1.12 2.5 2.5v2.39h.06Z" class="cls-9"/><path d="M58.87 82.55c-5.01.55-10.05.55-15.14.03-1.82 2.19-4.09.67-2.68-2.19-.14-.74-.24-1.48-.31-2.22-.25-2.52-.13-5.05.36-7.57-1.58-3.07 1.07-4.65 2.94-1.86 4.88-.27 9.74-.27 14.55.01 1.88-2.81 4.47-1.02 2.82 2.1.76 3.1.78 6.2.05 9.3 1.66 3.02-.7 4.68-2.58 2.39ZM86.73 82.55c-5.01.55-10.05.55-15.14.03-1.82 2.19-4.09.67-2.68-2.19-.14-.74-.24-1.48-.31-2.22-.25-2.52-.13-5.05.36-7.57-1.58-3.07 1.07-4.65 2.94-1.86 4.88-.27 9.74-.27 14.55.01 1.88-2.81 4.47-1.02 2.82 2.1.76 3.1.78 6.2.05 9.3 1.66 3.02-.7 4.68-2.58 2.39Z" class="cls-8"/><path d="M32.42 86.53h65.51v15.87H32.42zM32.42 83.23v26.42H27.4V83.23c0-1.18 1.11-2.15 2.5-2.15s2.52.96 2.52 2.15Z" class="cls-9"/><path d="M102.94 83.1v26.42h-5.02V83.1c0-1.18 1.13-2.13 2.52-2.13s2.5.95 2.5 2.13Z" class="cls-9"/><path d="M97.92 83.47v3.06h-65.5v-2.92s1.86.5 3.09-1.27c7.37-10.66 44.92-15.05 59.45.21v.02c.97.29 1.96.59 2.96.91Z" style="fill:#fab0b4;stroke-miterlimit:10;stroke:#000"/><path d="M25.97 75.36s-.11.35-.43.74-.04.06-.06.08l-.02.03s-.06.06-.09.1c-.09.08-.18.16-.26.22-.06.04-.11.08-.16.12-.06.03-.11.06-.15.09-.22.13-.37.17-.37.17s-.3-.27-.86-.56l-.14-.07c-.22-.11-.46-.22-.75-.32 0 0-.01 0-.02-.01-.3-.1-.62-.2-.98-.27-.2-.04-.42-.07-.64-.1-.22-.02-.45-.03-.69-.03h-.24c-.15 0-.3.02-.46.04-.15.01-.3.03-.44.05-.15.02-.29.04-.43.07-.14.03-.27.05-.41.08-.13.03-.26.06-.38.09-.25.06-.48.13-.7.2-.11.03-.21.07-.3.1-.1.04-.2.07-.28.11-.18.06-.33.13-.46.19-.1.04-.18.08-.25.11-.05.03-.09.04-.13.06-.09.04-.13.07-.13.07l-.81-1.07-.04-.05-.07-.1-.19-.25s.01 0 .03-.02l.03-.03h.02s.02-.03.03-.03l.03-.02s.03-.02.04-.03c.01 0 .02-.01.03-.02s.03-.02.05-.03c.01 0 .02-.02.03-.03.02-.01.04-.03.06-.04.01-.01.03-.02.04-.03.03-.03.06-.05.1-.08.02 0 .04-.02.05-.03.03-.02.04-.03.07-.04.02-.02.04-.03.06-.05.02-.01.04-.03.06-.04.03-.01.05-.03.07-.05.03-.01.04-.03.07-.04.03-.02.05-.04.08-.06.03-.01.04-.03.07-.04l.09-.06c.02-.01.04-.03.06-.04a.36.36 0 0 1 .1-.07c.02-.02.04-.03.06-.04.03-.03.07-.05.11-.08.01 0 .03-.02.04-.03.08-.06.17-.13.26-.19.01-.01.03-.02.04-.03.04-.03.08-.06.11-.09.03-.02.05-.04.07-.05l.12-.09c.03-.02.05-.04.08-.06.04-.03.08-.06.12-.1.03-.02.05-.04.08-.06.04-.03.08-.06.12-.1.03-.02.06-.04.08-.06.04-.03.08-.06.12-.1.03-.02.06-.04.08-.06.04-.04.08-.07.13-.1.03-.02.04-.04.07-.06.16-.13.32-.25.48-.39.03-.03.04-.04.07-.06.04-.04.09-.07.13-.11.03-.03.06-.05.09-.08.04-.03.08-.07.12-.1.03-.03.06-.06.1-.08.04-.04.08-.07.13-.11.03-.03.06-.06.1-.08.04-.04.08-.07.12-.11.03-.03.06-.06.1-.08.04-.04.08-.08.12-.11.3-.27.59-.55.87-.83 2.33-2.35 4.32-5.4 4.32-5.4l.25.18.13.1 1.09.83s-1.05 1.88-1.18 4.37c-.04.98.13 1.83.37 2.51.1.29.22.56.33.79v.02l.08.14v.02c.3.54.56.84.56.84Z" style="fill:#d6d6d6;stroke-miterlimit:10;stroke:#000"/><path d="M80.43 41.8c0-4.65-3.78-8.44-8.43-8.44-3.41 0-6.36 2.04-7.68 4.96-1.33-2.92-4.27-4.96-7.68-4.96-4.65 0-8.44 3.78-8.44 8.44a8.402 8.402 0 0 0 2.05 5.5c.29.34.6.65.94.94l12.87 12.78c.08.08.18.12.29.12s.21-.04.29-.12l13.34-13.26h0c.86-.87 1.54-1.92 1.97-3.09.32-.89.5-1.86.5-2.86Z" class="cls-2"/><path d="M21.5 88.74c-.08-.02-.17-.04-.27-.07l-.15-.03-.25-.06h-.02c-.12-.03-.26-.06-.39-.09a41.914 41.914 0 0 0-5.72-.81l-.49-.03h-.16a4.6 4.6 0 0 1-.45.56c-.34.37-.74.67-1.18.91-.61.27-1.23.49-1.88.67-.54.11-1.09.19-1.63.02-.15-.05-.29-.12-.42-.2l-.13.1c-.14.11-.28.22-.42.34l-.31.26c-1.52 1.31-2.81 2.79-3.65 3.85-.09.11-.17.22-.25.32-.03.04-.06.07-.08.11l-.03.03-.22.3s-.02.03-.03.04c-.29.4-.45.65-.44.67 0 0 .18.26.49.66l.09.12c.05.07.1.13.16.2l.09.12c.48.59 1.14 1.32 1.89 1.97.17.14.35.29.54.42l.46-.46.28-.28.02-.02.14-.14.27-.28.12-.12h0l.02-.02.29-.29c.02.07.04.14.06.22v.02c.08.27.17.55.26.83.02.05.03.1.05.15.01.05.03.09.04.14l.03.09c.04.13.08.27.13.4h0a99 99 0 0 0 1.59 4.57c.01.03.02.07.04.1v.02l.12.3c.01.03.02.06.04.09h0c.02.07.05.14.07.2.11.29.22.57.33.84.58.16 6.64.22 11.74-4.07l-.27-.87h0l-.12-.4c-.03-.09-.06-.19-.09-.28 0-.03-.02-.06-.03-.08-.47-1.48-1.03-3.08-1.57-4.51-.05-.14-.1-.28-.16-.41-.05-.12-.09-.24-.14-.36v-.02s-.04-.09-.06-.13h0c-.02-.08-.05-.15-.08-.21-.02-.05-.04-.1-.05-.14-.08-.2-.16-.4-.24-.59h.01l.42.06h.03l.16.02.38.06.11.02.16.02.22.03.16.02.67.1c.06-.22.11-.44.15-.66.19-.98.25-1.96.26-2.72h0v-.41h0c0-.59-.03-.97-.03-.97 0-.01-.26-.1-.71-.21Z" style="stroke-linecap:round;stroke-linejoin:round;stroke:#000;fill:#b4eac3"/><path d="M114.53 31.56h76.68v41.79h-76.68z" class="cls-5"/><path d="M169.7 62.16h11.03v9.5H169.7z" class="cls-14"/><path d="m192.1 77.13-.1.05.1-.05ZM191.38 77.37l-.15.03.15-.03Z" class="cls-13"/><path d="M111.2 28.8v44.88c0 .52.1 1.02.3 1.48.09.22.21.44.34.64.28.4.62.74 1.02 1.02.21.13.42.26.64.34.46.2.96.3 1.48.3h75.57c.23 0 .46-.02.68-.07l.14-.03c.22-.04.42-.1.62-.19l.1-.04c.17-.08.33-.17.49-.27l.12-.08c.17-.12.32-.24.47-.39l.12-.12c.12-.13.23-.27.33-.41l.08-.1h.01c.39-.6.62-1.32.62-2.09V28.8h-83.14Zm80.01 44.55h-76.68V31.56h76.68v41.79Z" class="cls-5"/><path d="M158.48 43.05h11.03v9.5h-11.03zM158.48 61.9h11.03v9.5h-11.03zM136.24 52.63h11.03v9.5h-11.03z" class="cls-14"/><path d="M190.45 15.84h.1c.26 0 .52.03.76.08 1.73.35 3.03 1.88 3.03 3.71v9.17H111.2v-9.17c0-.23.03-.46.07-.68l.04-.19c.04-.17.09-.34.16-.5l.05-.15c.08-.19.19-.38.3-.55l.03-.06.09-.11c.09-.12.18-.23.28-.34l.16-.17c.14-.13.28-.25.44-.36l.05-.04.41-.22c.08-.04.15-.09.24-.13.32-.14.66-.23 1.02-.27.15-.02.3-.03.46-.03h.24v.03h2.29v-.03h4.35v.02h2.29v-.02h4.35v.02h2.29v-.02h4.35v.02h2.29v-.02h4.38v.02h2.29v-.02h4.35l2.29.01h0l4.34-.01h0l2.29.01h0l4.35-.01H190.48Z" style="fill:#bfe6fc;stroke-linecap:round;stroke-linejoin:round;stroke:#000"/><path d="m112.87 16.49-.06.04.06-.04zM111.2 73.67ZM193.71 75.77l-.07.1.07-.1ZM193.3 76.27l-.12.12.12-.12ZM114.99 77.46ZM192.58 76.86l.11-.06.02-.02-.13.08zM111.84 75.79c.24.36.55.66.9.92l.13.11c-.4-.27-.75-.62-1.02-1.02Z" class="cls-13"/><path d="M116.37 20.69c.1 0 .19-.02.29-.04-.09.02-.19.04-.29.04ZM116.72 20.63c.08-.03.16-.06.23-.11-.07.04-.15.08-.23.11ZM117.38 20.06c-.09.18-.24.34-.41.45.17-.11.31-.27.41-.45ZM123.01 20.69c.1 0 .19-.02.29-.04-.09.02-.19.04-.29.04ZM123.36 20.63c.08-.03.16-.06.23-.11-.07.04-.15.08-.23.11ZM130 20.63c.08-.03.16-.06.23-.11-.07.04-.15.08-.23.11ZM130.66 20.06c-.09.18-.24.34-.41.45.17-.11.31-.27.41-.45ZM129.64 20.69c.1 0 .19-.02.29-.04-.09.02-.19.04-.29.04ZM136.63 20.63c.08-.03.16-.06.23-.11-.07.04-.15.08-.23.11ZM136.28 20.69c.1 0 .19-.02.29-.04-.09.02-.19.04-.29.04ZM135.55 20.42l-.15-.16.15.16ZM142.95 20.69c.1 0 .19-.02.29-.04-.09.02-.19.04-.29.04ZM143.31 20.63c.08-.03.16-.06.23-.11-.07.04-.15.08-.23.11ZM148.86 20.42l-.15-.16.15.16ZM149.94 20.63c.08-.03.16-.06.23-.11-.07.04-.15.08-.23.11ZM149.59 20.69c.1 0 .19-.02.29-.04-.09.02-.19.04-.29.04ZM156.22 20.69c.1 0 .19-.02.29-.04-.09.02-.19.04-.29.04ZM156.57 20.63c.08-.03.16-.06.23-.11-.07.04-.15.08-.23.11ZM163.21 20.63c.08-.03.16-.06.23-.11-.07.04-.15.08-.23.11ZM162.85 20.69c.1 0 .19-.02.29-.04-.09.02-.19.04-.29.04ZM169.46 20.69c.1 0 .19-.02.29-.04-.09.02-.19.04-.29.04ZM170.48 20.06c-.09.18-.24.34-.41.45.17-.11.31-.27.41-.45ZM169.82 20.63c.08-.03.16-.06.23-.11-.07.04-.15.08-.23.11ZM175.37 20.42l-.15-.16.15.16ZM176.1 20.69c.1 0 .19-.02.29-.04-.09.02-.19.04-.29.04ZM176.45 20.63c.08-.03.16-.06.23-.11-.07.04-.15.08-.23.11ZM183.68 20.06c-.09.18-.24.34-.41.45.17-.11.31-.27.41-.45ZM182.67 20.69c.1 0 .19-.02.29-.04-.09.02-.19.04-.29.04ZM183.02 20.63c.08-.03.16-.06.23-.11-.07.04-.15.08-.23.11ZM189.31 20.69ZM188.57 20.42l-.15-.16.15.16ZM189.66 20.63c.08-.03.16-.06.23-.11-.07.04-.15.08-.23.11Z" class="cls-16"/><path d="M116.37 13.48c-.12 0-.23.03-.34.06 0 0 0 0 0 0h-.02c-.1.03-.19.08-.27.14-.02.01-.03.02-.05.03-.09.07-.17.14-.23.22h-.01c-.06.1-.11.2-.15.3l-.02.06c-.03.1-.05.21-.05.33v4.93c0 .63.51 1.14 1.14 1.14h0c.1 0 .2-.02.29-.04l.07-.02c.08-.03.16-.06.23-.11h.02c.17-.12.31-.28.41-.46.08-.16.13-.33.13-.51v-4.93c0-.63-.51-1.14-1.14-1.14ZM123.01 13.48c-.12 0-.23.03-.34.06 0 0 0 0 0 0h-.02c-.1.03-.19.08-.27.13-.02.01-.03.02-.05.03-.09.07-.17.14-.23.22h-.01c-.06.1-.11.2-.15.3l-.02.06c-.03.1-.05.21-.05.33v4.93c0 .63.51 1.14 1.14 1.14h0c.1 0 .2-.02.29-.04l.07-.02c.08-.03.16-.06.23-.11h.02c.09-.06.16-.13.23-.21 0 0 0-.01.01-.02.06-.07.12-.15.16-.23 0 0 0 0 0 0h0c.08-.15.13-.33.13-.51v-4.93c0-.63-.51-1.14-1.14-1.14ZM129.64 13.48c-.12 0-.23.03-.34.06 0 0 0 0 0 0h-.02c-.1.03-.19.08-.27.13-.02.01-.03.02-.05.03-.09.07-.17.14-.23.22h-.01c-.06.1-.11.2-.15.3l-.02.06c-.03.1-.05.21-.05.33v4.93c0 .63.51 1.14 1.14 1.14h0c.1 0 .19-.02.29-.04l.07-.02c.08-.03.16-.06.23-.11h.02c.17-.12.31-.28.41-.46.08-.16.13-.33.13-.51v-4.93c0-.63-.51-1.14-1.14-1.14ZM136.28 13.48c-.12 0-.23.03-.34.06 0 0 0 0 0 0h-.02c-.1.03-.19.08-.27.13-.02.01-.03.02-.05.03-.09.07-.17.14-.23.22h-.01c-.06.1-.11.2-.15.3l-.02.06c-.03.1-.05.21-.05.33v4.93c0 .27.1.52.26.72l.15.16c.2.17.45.27.73.27h0c.1 0 .2-.02.29-.04l.07-.02c.08-.03.16-.06.23-.11h.02c.09-.06.16-.13.23-.21l.01-.01c.06-.07.12-.15.16-.24 0 0 0 0 0 0s0 0 0 0c.08-.16.13-.33.13-.52v-4.93c0-.63-.51-1.14-1.14-1.14ZM142.95 13.48c-.12 0-.23.03-.34.06 0 0 0 0 0 0h-.02c-.1.03-.19.08-.27.13-.02.01-.03.02-.05.03-.09.07-.17.14-.23.22h-.01c-.06.1-.11.2-.15.3l-.02.06c-.03.1-.05.21-.05.33v4.93c0 .63.51 1.14 1.14 1.14h0c.1 0 .2-.02.29-.04l.07-.02c.08-.03.16-.06.23-.11h.02c.09-.06.16-.13.23-.21 0 0 0-.01.01-.02.06-.07.12-.15.16-.23 0 0 0 0 0 0s0 0 0 0c.08-.16.13-.33.13-.52V14.6c0-.63-.51-1.14-1.14-1.14ZM149.59 13.48c-.12 0-.23.03-.34.06 0 0 0 0 0 0h-.01c-.1.03-.19.08-.27.14-.02.01-.03.02-.05.03-.09.07-.17.14-.23.22h-.01c-.06.1-.11.2-.15.3l-.02.06c-.03.1-.05.21-.05.33v4.93c0 .27.1.52.26.72l.15.16c.2.17.45.27.73.27h0c.1 0 .2-.02.29-.04l.07-.02c.08-.03.16-.06.23-.11h.02c.09-.06.16-.13.23-.21l.01-.01c.06-.07.12-.15.16-.23 0 0 0 0 0 0s0 0 0 0c.08-.16.13-.33.13-.52v-4.93c0-.63-.51-1.14-1.14-1.14ZM156.22 13.48c-.12 0-.23.03-.34.06 0 0 0 0 0 0h-.02c-.1.03-.19.08-.27.13-.02.01-.03.02-.05.03-.09.07-.17.14-.23.23h-.01c-.06.1-.11.2-.15.3l-.02.06c-.03.11-.05.22-.05.33v4.93c0 .63.51 1.14 1.14 1.14h0c.1 0 .2-.02.29-.04l.07-.02c.08-.03.16-.06.24-.11h.02c.09-.06.16-.13.23-.21l.01-.01c.06-.07.12-.15.16-.23 0 0 0 0 0 0s0 0 0 0c.08-.16.13-.33.13-.52v-4.93c0-.63-.51-1.14-1.14-1.14ZM162.85 13.48c-.12 0-.23.03-.34.06 0 0 0 0 0 0h-.01c-.1.03-.19.08-.27.14-.02.01-.03.02-.04.03-.09.07-.17.14-.23.23h-.01c-.06.1-.11.2-.15.3l-.02.06c-.03.1-.05.21-.05.33v4.93c0 .63.51 1.14 1.14 1.14h0c.1 0 .2-.02.29-.04l.07-.02c.08-.03.16-.06.23-.11h.02c.09-.06.16-.13.23-.21l.01-.01c.06-.07.12-.15.16-.23 0 0 0 0 0 0s0 0 0 0c.08-.16.13-.33.13-.52v-4.93c0-.63-.51-1.14-1.14-1.14ZM169.46 13.48c-.12 0-.23.03-.34.06 0 0 0 0 0 0h-.02c-.1.03-.19.08-.27.14-.02.01-.03.02-.05.03-.09.07-.17.14-.23.22h-.01c-.06.1-.11.2-.15.3l-.02.06c-.03.1-.05.21-.05.33v4.93c0 .63.51 1.14 1.14 1.14h0c.1 0 .19-.02.29-.04l.07-.02c.08-.03.16-.06.23-.11h.02c.17-.12.31-.28.41-.46.08-.16.13-.33.13-.51v-4.93c0-.63-.51-1.14-1.14-1.14ZM176.1 13.48c-.12 0-.23.03-.34.06 0 0 0 0 0 0h-.02c-.1.03-.19.08-.27.13-.02.01-.03.02-.05.03-.09.07-.17.14-.23.22h-.01c-.06.1-.11.2-.15.3l-.02.06c-.03.1-.05.21-.05.33v4.93c0 .27.1.52.26.72l.15.16c.2.17.45.27.73.27h0c.1 0 .2-.02.29-.04l.07-.02c.08-.03.16-.06.23-.11h.02c.09-.06.16-.13.23-.21 0 0 0-.01.01-.02.06-.07.12-.15.16-.23 0 0 0 0 0 0s0 0 0 0c.08-.16.13-.33.13-.52v-4.93c0-.63-.51-1.14-1.14-1.14ZM182.67 13.48c-.12 0-.23.03-.34.06 0 0 0 0 0 0h-.01c-.1.03-.19.08-.27.14-.02.01-.03.02-.05.03-.09.07-.17.14-.23.23h-.01c-.06.1-.11.2-.15.3l-.02.06c-.03.1-.05.21-.05.33v4.93c0 .63.51 1.14 1.14 1.14h0c.1 0 .2-.02.29-.04l.07-.02c.08-.03.16-.06.23-.11h.02c.17-.12.31-.28.41-.46 0 0 0 0 0 0 .08-.16.13-.33.13-.51v-4.93c0-.63-.51-1.14-1.14-1.14ZM189.31 13.48c-.12 0-.23.03-.34.06 0 0 0 0 0 0h-.01c-.1.03-.19.08-.27.14-.02.01-.03.02-.05.03-.09.07-.17.14-.23.23h-.01c-.06.1-.11.2-.15.3l-.02.06c-.03.1-.05.21-.05.33v4.93c0 .27.1.52.26.72l.15.16c.2.17.45.27.73.27h0c.1 0 .2-.02.29-.04l.07-.02c.08-.03.16-.06.24-.11h.02c.09-.06.16-.13.23-.21l.01-.01c.06-.07.12-.15.16-.24 0 0 0 0 0 0s0 0 0 0c.08-.16.13-.33.13-.52v-4.93c0-.63-.51-1.14-1.14-1.14Z" class="cls-5"/><path d="M180.48 73.36v-41.8M158.27 73.36v-41.8M169.37 73.36v-41.8M147.27 73.36v-41.8M136.24 73.36v-41.8M125.67 73.36v-41.8M190.87 52.63h-76.34M190.87 43.13h-76.34M191.04 62.13H114.7M191.04 33.46H114.7M190.94 71.68H114.6" class="cls-6"/><circle cx="116.59" cy="51.43" r="16.16" class="cls-8"/><path d="M109.83 45.08c.64-1.43 1.83-2.45 3.6-3.06 1.63-.57 3.1-.56 4.4.02 1.3.58 2.2 1.58 2.7 3.01.3.87.37 1.63.2 2.29s-.62 1.71-1.36 3.14c-.54 1.04-.83 1.86-.89 2.48-.04.4.01.89.15 1.46s-.18 1.17-.74 1.36c-.64.22-1.35-.16-1.5-.82s-.22-1.24-.21-1.75c.03-.81.36-1.85 1-3.1l.66-1.32c.2-.38.35-.76.43-1.12.15-.65.13-1.26-.07-1.83-.28-.8-.76-1.41-1.46-1.83-.69-.42-1.6-.43-2.73-.04-1.39.49-2.18 1.33-2.36 2.53-.07.46-.04 1.01.09 1.66.11.56-.21 1.12-.76 1.31-.67.23-1.4-.19-1.53-.89-.22-1.26-.1-2.42.38-3.49Zm8.96 13.23c.67-.23 1.41.12 1.64.8l.04.11c.23.67-.12 1.41-.8 1.64-.67.23-1.41-.12-1.64-.8l-.04-.11c-.23-.67.12-1.41.8-1.64Z" style="stroke-miterlimit:10;stroke:#000"/><path d="M144.89 56.32a1.641 1.641 0 0 0-3.14-.67 1.641 1.641 0 0 0-3.14.67c0 .19.03.37.09.55a1.677 1.677 0 0 0 .49.71l2.51 2.49s.04.02.06.02.04 0 .06-.02l2.6-2.58h0c.17-.17.3-.37.38-.6.06-.17.1-.36.1-.56ZM166.96 46.73a1.641 1.641 0 0 0-3.14-.67 1.641 1.641 0 0 0-3.14.67c0 .19.03.37.09.55a1.677 1.677 0 0 0 .49.71l2.51 2.49s.04.02.06.02.04 0 .06-.02l2.6-2.58h0c.17-.17.3-.37.38-.6.06-.17.1-.36.1-.56ZM167.14 65.85a1.641 1.641 0 0 0-3.14-.67 1.641 1.641 0 0 0-3.14.67c0 .19.03.37.09.55a1.677 1.677 0 0 0 .49.71l2.51 2.49s.04.02.06.02.04 0 .06-.02l2.6-2.58h0c.17-.17.3-.37.38-.6.06-.17.1-.36.1-.56ZM178.14 65.59a1.641 1.641 0 0 0-3.14-.67 1.641 1.641 0 0 0-3.14.67c0 .19.03.37.09.55a1.677 1.677 0 0 0 .49.71l2.51 2.49s.04.02.06.02.04 0 .06-.02l2.6-2.58h0c.17-.17.3-.37.38-.6.06-.17.1-.36.1-.56Z" class="cls-2"/><path d="M-222.42-2748.45h6467.34v6437.3H-222.42z" style="stroke:#fff;stroke-width:8px;fill:none;stroke-linecap:round;stroke-linejoin:round"/></svg>