<svg xmlns="http://www.w3.org/2000/svg" id="Calque_1" data-name="Calque 1" viewBox="0 0 200 128"><defs><style>.cls-1,.cls-2,.cls-3,.cls-6,.cls-7{stroke:#000;stroke-linecap:round;stroke-linejoin:round}.cls-1{fill:#fff}.cls-2,.cls-3,.cls-7{fill:none}.cls-3{stroke-dasharray:0 0 4.43 4.43}.cls-9{fill:#f6e7d4}.cls-10{fill:#dfdfe0}.cls-11{fill:#87ccf3}.cls-6,.cls-7{stroke-width:2px}.cls-6{fill:#bfe6fc}</style></defs><path d="M55.4 64.38v-4" class="cls-2"/><path d="M55.4 55.95v-6.63" class="cls-3"/><path d="M55.4 47.1v-4" class="cls-2"/><path d="M56.86 36.36c0-4.26-4.48-7.72-10.01-7.72-5.53 0-10.01 3.46-10.01 7.72h20.02Z" class="cls-6"/><path d="M47.34 64.38v-4" class="cls-2"/><path d="M47.34 55.95v-6.63" class="cls-3"/><path d="M47.34 47.1v-4M38.7 64.38v-4" class="cls-2"/><path d="M38.7 55.95v-6.63" class="cls-3"/><path d="M38.7 47.1v-4M51.37 69.92v-4" class="cls-2"/><path d="M51.37 61.49v-6.63" class="cls-3"/><path d="M51.37 52.64v-4M43.14 69.92v-4" class="cls-2"/><path d="M43.14 61.49v-6.63" class="cls-3"/><path d="M43.14 52.64v-4" class="cls-2"/><path d="M13.26 95.03V24.62M46.86 24.62v3.33M46.86 24.62c0-4.61-3.78-8.38-8.38-8.38H21.65c-2.3 0-4.4.94-5.92 2.46a8.344 8.344 0 0 0-2.46 5.92M36.85 39.39h20.01" class="cls-7"/><path d="M72.2 107.83ZM73.51 113.38c-.77 0-1.5-.15-2.16-.44.66.28 1.4.44 2.16.44ZM68.9 110.93c.35.52.81.97 1.31 1.35l.19.15c-.59-.4-1.1-.91-1.5-1.5Z" class="cls-9"/><path d="M94.03 103.88c1.69 0 3.06-1.37 3.06-3.06s-3.06-5.4-3.06-5.4-3.06 3.71-3.06 5.4 1.37 3.06 3.06 3.06Z" class="cls-11"/><path d="M101.23 109.06V47.8M87.22 109.06V47.8" class="cls-2"/><path d="M184.4 24.8h.15c.38 0 .76.04 1.12.11 2.53.52 4.44 2.76 4.44 5.44v13.44H68.24V30.35c0-.34.04-.67.1-1l.06-.27c.06-.25.14-.5.23-.73l.08-.21c.12-.28.27-.55.44-.81l.04-.08.13-.16c.13-.17.27-.34.41-.5l.24-.25c.2-.19.41-.37.64-.53l.08-.06.6-.33c.12-.06.22-.13.34-.19.47-.2.97-.33 1.49-.4.22-.03.44-.04.67-.04h.35v.04h3.35v-.04h6.37v.04h3.35v-.04h6.38v.03h3.35v-.03h6.37v.03h3.35v-.03h6.43v.03h3.35v-.03h6.37v.02h3.35v-.02h6.36v.02h3.35v-.02h6.37l3.35.01h0l6.34-.01h0l3.35.01h0l6.37-.01h22.7Z" class="cls-6"/><path d="M68.24 43.8v65.77c0 .77.16 1.5.44 2.16.14.33.31.65.51.94.4.59.91 1.1 1.5 1.5a5.557 5.557 0 0 0 3.1.95h110.76c.34 0 .67-.04 1-.1l.22-.04c.31-.07.61-.16.9-.28l.15-.07c.25-.11.49-.24.72-.39l.18-.12c.25-.17.47-.36.69-.57l.17-.18c.18-.19.34-.39.49-.6l.11-.14v-.02s0 0 0 0c.58-.88.92-1.92.92-3.05V43.8M73.12 47.85h112.4v61.26H73.12V47.85Z" class="cls-7"/><path d="m123.44 31.51-.22-.23.22.23ZM125.03 31.82ZM124.51 31.91ZM134.23 31.91ZM134.75 31.82Z" class="cls-10"/><path d="M75.82 21.34c-.18 0-.34.04-.5.09 0 0 0 0 0 0s-.01 0-.02.01c-.14.05-.27.11-.4.2-.02.01-.04.03-.07.04-.13.1-.25.2-.34.33l-.02.02c-.09.13-.17.27-.22.42l-.03.08c-.05.15-.08.31-.08.48v7.22c0 .92.75 1.68 1.68 1.68h0c.15 0 .29-.02.42-.06l.1-.03c.12-.04.24-.09.34-.16h.03c.25-.18.46-.4.6-.67.12-.23.19-.48.19-.75v-7.22c0-.92-.75-1.68-1.68-1.68ZM85.55 21.34c-.18 0-.34.04-.5.09 0 0 0 0 0 0s-.01 0-.02.01c-.14.05-.27.11-.4.2-.02.02-.05.03-.07.04-.13.1-.25.2-.34.33l-.02.02c-.09.13-.17.27-.22.42l-.03.08c-.05.15-.08.31-.08.48v7.22c0 .92.75 1.68 1.68 1.68h0c.15 0 .29-.02.42-.06l.1-.03c.12-.04.24-.09.34-.16h.03c.13-.09.24-.19.34-.3 0 0 .01-.02.02-.03.09-.1.17-.22.23-.34 0 0 0 0 0 0h0c.12-.23.19-.48.19-.75v-7.22c0-.92-.75-1.68-1.68-1.68ZM95.28 21.34c-.18 0-.34.04-.5.09 0 0 0 0 0 0s-.01 0-.02.01c-.14.05-.27.11-.4.2-.02.02-.05.03-.07.04-.13.1-.25.2-.34.33l-.02.02c-.09.13-.17.27-.22.42l-.03.08c-.05.15-.08.31-.08.48v7.22c0 .92.75 1.68 1.68 1.68h0c.15 0 .29-.02.42-.06l.1-.03c.12-.04.24-.09.34-.16h.03c.25-.18.46-.4.6-.67.12-.23.19-.48.19-.75v-7.22c0-.92-.75-1.68-1.68-1.68ZM105 21.34c-.18 0-.34.04-.5.09 0 0 0 0 0 0s-.01 0-.02.01c-.14.05-.27.11-.39.2-.02.02-.05.03-.07.05-.13.1-.25.2-.34.33l-.02.02c-.1.13-.17.27-.22.42l-.03.08c-.05.15-.08.31-.08.48v7.22c0 .4.15.76.38 1.05l.22.23c.29.25.66.4 1.07.4h0c.15 0 .29-.02.42-.06l.1-.03c.12-.04.24-.09.34-.16h.03c.13-.09.24-.19.34-.3 0 0 0-.01.01-.02.09-.1.17-.22.24-.34 0 0 0 0 0 0s0 0 0 0c.12-.23.19-.48.19-.76v-7.22c0-.92-.75-1.68-1.68-1.68ZM114.78 21.34c-.18 0-.34.04-.5.09 0 0 0 0 0 0s-.01 0-.02.01c-.14.05-.27.11-.4.2-.02.02-.04.03-.07.04-.13.1-.25.2-.34.33l-.02.02c-.09.13-.17.27-.22.42l-.03.08c-.05.15-.08.31-.08.48v7.22c0 .92.75 1.68 1.68 1.68h0c.15 0 .29-.02.42-.06l.1-.03c.12-.04.24-.09.34-.16h.03c.13-.09.24-.19.34-.3 0 0 .01-.02.02-.03.09-.1.17-.22.23-.34 0 0 0 0 0 0s0 0 0 0c.12-.23.19-.48.19-.76v-7.22c0-.92-.75-1.68-1.68-1.68ZM124.51 21.34c-.18 0-.34.04-.5.09 0 0 0 0 0 0s-.01 0-.02.01c-.14.05-.27.11-.4.2-.02.02-.05.03-.07.05-.13.1-.25.2-.34.33l-.02.02c-.09.13-.17.27-.22.42l-.03.08c-.05.15-.08.31-.08.48v7.22c0 .4.15.76.38 1.05l.22.23c.29.25.66.4 1.07.4h0c.15 0 .29-.02.42-.06l.1-.03c.12-.04.24-.09.34-.16h.03c.13-.09.24-.19.34-.3 0 0 0-.01.01-.02.09-.1.17-.22.24-.34 0 0 0 0 0 0s0 0 0 0c.12-.23.19-.48.19-.76v-7.22c0-.92-.75-1.68-1.68-1.68ZM134.23 21.34c-.18 0-.34.04-.5.09 0 0 0 0 0 0s-.01 0-.02.01c-.14.05-.27.11-.4.2-.02.02-.05.03-.07.05-.13.1-.25.2-.34.33l-.02.02c-.09.13-.17.27-.22.42l-.03.08c-.05.15-.08.32-.08.48v7.22c0 .92.75 1.68 1.68 1.68h0c.15 0 .29-.02.42-.06l.1-.03c.12-.04.24-.09.34-.16h.03c.13-.09.24-.19.34-.3 0 0 0-.01.01-.02.09-.1.17-.22.24-.34 0 0 0 0 0 0s0 0 0 0c.12-.23.19-.48.19-.76v-7.22c0-.92-.75-1.68-1.68-1.68ZM143.96 21.34c-.18 0-.34.04-.5.09 0 0 0 0 0 0s-.01 0-.02.01c-.14.05-.28.12-.4.2-.02.01-.04.03-.07.04-.13.1-.25.2-.34.33l-.02.02c-.09.13-.17.27-.22.42l-.03.08c-.05.15-.08.31-.08.48v7.22c0 .92.75 1.68 1.68 1.68h0c.15 0 .29-.02.42-.06l.1-.03c.12-.04.24-.09.34-.16h.03c.13-.09.24-.19.34-.3 0 0 0-.01.01-.02.09-.1.17-.22.24-.34 0 0 0 0 0 0s0 0 0 0c.12-.23.19-.48.19-.76v-7.22c0-.92-.75-1.68-1.68-1.68ZM153.64 21.34c-.18 0-.34.04-.5.09 0 0 0 0 0 0s-.01 0-.02.01c-.14.05-.27.11-.4.2-.02.02-.05.03-.07.04-.13.1-.25.2-.34.33l-.02.02c-.09.13-.17.27-.22.42l-.03.08c-.05.15-.08.31-.08.48v7.22c0 .92.75 1.68 1.68 1.68h0c.15 0 .29-.02.42-.06l.1-.03c.12-.04.24-.09.34-.16h.03c.25-.18.46-.4.6-.67.12-.23.19-.48.19-.75v-7.22c0-.92-.75-1.68-1.68-1.68ZM163.37 21.34c-.18 0-.34.04-.5.09 0 0 0 0 0 0s-.01 0-.02.01c-.14.05-.27.11-.4.2-.02.02-.04.03-.07.04-.13.1-.25.2-.34.33l-.02.02c-.09.13-.17.27-.22.42l-.03.08c-.05.15-.08.31-.08.48v7.22c0 .4.15.76.38 1.05l.22.23c.29.25.66.4 1.07.4h0c.15 0 .29-.02.42-.06l.1-.03c.12-.04.24-.09.34-.16h.03c.13-.09.24-.19.34-.3 0 0 .01-.02.02-.03.09-.1.17-.22.23-.34 0 0 0 0 0 0s0 0 0 0c.12-.23.19-.48.19-.76v-7.22c0-.92-.75-1.68-1.68-1.68ZM173 21.34c-.18 0-.34.04-.5.09 0 0 0 0 0 0s-.01 0-.02.01c-.14.05-.28.12-.4.2-.02.02-.04.03-.07.04-.13.1-.25.2-.34.33l-.02.02c-.09.13-.17.27-.22.42l-.03.08c-.05.15-.08.31-.08.48v7.22c0 .92.75 1.68 1.68 1.68h0c.15 0 .29-.02.42-.06l.1-.03c.12-.04.24-.09.34-.16h.03c.25-.18.46-.4.6-.67 0 0 0 0 0 0 .12-.23.19-.48.19-.75v-7.22c0-.92-.75-1.68-1.68-1.68ZM182.73 21.34c-.18 0-.34.04-.5.09 0 0 0 0 0 0s-.01 0-.02.01c-.14.05-.27.11-.4.2-.02.01-.04.03-.07.04-.13.1-.25.2-.34.33l-.02.02c-.09.13-.17.27-.22.42l-.03.08c-.05.15-.08.31-.08.48v7.22c0 .4.15.76.38 1.05l.22.23c.29.25.66.4 1.07.4h0c.15 0 .29-.02.42-.06l.1-.03c.12-.04.24-.09.34-.16h.03c.13-.09.24-.19.34-.3 0 0 0-.01.01-.02.09-.1.17-.22.24-.34 0 0 0 0 0 0s0 0 0 0c.12-.23.19-.48.19-.76v-7.22c0-.92-.75-1.68-1.68-1.68Z" class="cls-1"/><path d="M108.03 62.39c1.69 0 3.06-1.37 3.06-3.06s-3.06-5.4-3.06-5.4-3.06 3.71-3.06 5.4 1.37 3.06 3.06 3.06ZM122.42 76c1.69 0 3.06-1.37 3.06-3.06s-3.06-5.4-3.06-5.4-3.06 3.71-3.06 5.4 1.37 3.06 3.06 3.06ZM122.09 103.88c1.69 0 3.06-1.37 3.06-3.06s-3.06-5.4-3.06-5.4-3.06 3.71-3.06 5.4 1.37 3.06 3.06 3.06ZM108.48 103.88c1.69 0 3.06-1.37 3.06-3.06s-3.06-5.4-3.06-5.4-3.06 3.71-3.06 5.4 1.37 3.06 3.06 3.06ZM136.08 103.88c1.69 0 3.06-1.37 3.06-3.06s-3.06-5.4-3.06-5.4-3.06 3.71-3.06 5.4 1.37 3.06 3.06 3.06ZM163.62 103.88c1.69 0 3.06-1.37 3.06-3.06s-3.06-5.4-3.06-5.4-3.06 3.71-3.06 5.4 1.37 3.06 3.06 3.06ZM178.27 103.88c1.69 0 3.06-1.37 3.06-3.06s-3.06-5.4-3.06-5.4-3.06 3.71-3.06 5.4 1.37 3.06 3.06 3.06Z" class="cls-11"/><path d="M129.25 109.11V47.85M115.24 109.11V47.85M185.02 78.73H73.12M185.02 64.81H73.12M185.27 92.65H73.37M185.27 50.63H73.37M185.12 106.66H73.23" class="cls-2"/><path d="m188.03 115.13.16-.09.03-.02-.19.11zM177.8 115.52l-.15.07.15-.07ZM167.43 115.87l-.22.04.22-.04Z" class="cls-9"/><path d="M136.11 62.39c1.69 0 3.06-1.37 3.06-3.06s-3.06-5.4-3.06-5.4-3.06 3.71-3.06 5.4 1.37 3.06 3.06 3.06Z" class="cls-11"/><path d="M157.27 109.71V48.45M171.28 109.71V48.45M143.26 109.71V48.45" class="cls-2"/><circle cx="72.84" cy="82.28" r="18.05" style="stroke-width:2px;stroke-miterlimit:10;fill:#fff;stroke:#000"/><path d="M65.29 75.19c.71-1.59 2.05-2.73 4.02-3.42 1.82-.63 3.46-.63 4.91.02 1.45.65 2.46 1.77 3.01 3.37.34.97.41 1.82.22 2.56s-.69 1.91-1.52 3.51c-.6 1.16-.93 2.08-1 2.77-.04.44.01.99.17 1.63.16.64-.2 1.3-.83 1.52-.72.25-1.5-.18-1.68-.92s-.25-1.38-.23-1.96c.03-.91.4-2.06 1.12-3.47l.74-1.47c.23-.43.39-.85.48-1.26.17-.73.15-1.41-.07-2.05-.31-.89-.85-1.58-1.63-2.04-.77-.47-1.79-.48-3.05-.04-1.56.54-2.44 1.48-2.64 2.82-.08.51-.05 1.13.1 1.85.13.63-.24 1.25-.84 1.46-.75.26-1.56-.21-1.7-.99-.25-1.4-.11-2.7.42-3.89ZM75.3 89.97c.75-.26 1.57.14 1.84.89l.04.12c.26.75-.14 1.57-.89 1.84-.75.26-1.57-.14-1.84-.89l-.04-.12c-.26-.75.14-1.57.89-1.84Z" style="stroke-miterlimit:10;stroke:#000"/><path d="M-2080.65-2123.95h6467.34v6437.3h-6467.34z" style="stroke:#fff;stroke-width:8px;fill:none;stroke-linecap:round;stroke-linejoin:round"/></svg>