<svg xmlns="http://www.w3.org/2000/svg" id="Calque_1" viewBox="0 0 200.13 128.13"><defs><style>.cls-1{fill:#fff}.cls-11,.cls-6{stroke-linecap:round;stroke-linejoin:round}.cls-6{fill:none}.cls-11,.cls-6{stroke:#000}.cls-14{fill:#566985}.cls-11{fill:#bfe6fc}.cls-15{fill:#f7e7d5}.cls-11{stroke-width:.57px}.cls-16{fill:#010101}</style></defs><path d="M-969.68-1014.53H1685.4V497.24H-969.68z" style="fill:none;stroke-linejoin:round;stroke-linecap:round;stroke:#e30613;stroke-width:8px"/><path d="m99.37 105.89-.08.11.08-.11ZM98.91 106.46l-.12.14.12-.14ZM98.13 107.13l.12-.08.02-.02-.14.09ZM97.6 107.42l-.11.05.11-.05ZM96.81 107.69l-.16.03.16-.03Z" class="cls-15"/><path d="M100.06 118.74c10.48 0 18.98-8.7 18.98-19.42s-8.49-19.43-18.98-19.43-18.98 8.7-18.98 19.43 8.49 19.42 18.98 19.42Z" style="fill:#d6d7d7;stroke:#010101;stroke-width:1.21px;stroke-linejoin:round;stroke-linecap:round"/><path d="M100.06 114.72c8.31 0 15.05-6.89 15.05-15.39s-6.74-15.4-15.05-15.4-15.05 6.9-15.05 15.4 6.74 15.39 15.05 15.39Z" class="cls-1"/><path d="M87.27 112.38c.15.15.3.3.47.45-.15-.14-.3-.29-.47-.45ZM87.74 112.83c.26.24.53.49.8.72-.27-.23-.54-.48-.8-.72ZM88.54 113.55c.21.18.45.37.67.55-.22-.17-.45-.36-.67-.55ZM89.39 114.22c.23.17.47.34.7.5-.24-.16-.47-.33-.7-.5Z" class="cls-14"/><path d="M99.86 87.61c.45 0 .81-.38.81-.83s-.37-.83-.81-.83-.81.38-.81.83.37.83.81.83ZM94.07 89.21c-.39.23-.89.09-1.13-.3-.22-.4-.09-.91.29-1.14.39-.23.89-.09 1.12.3s.09.91-.29 1.15h.01ZM89.82 93.56c-.22.4-.72.54-1.13.3a.839.839 0 0 1-.29-1.15.81.81 0 0 1 1.13-.3c.39.23.53.74.29 1.15ZM87.44 100.33c.45 0 .81-.38.81-.83s-.37-.83-.81-.83-.81.38-.81.83.37.83.81.83ZM89.52 106.57c-.39.23-.89.09-1.13-.3-.22-.4-.09-.91.29-1.15.39-.23.89-.09 1.13.3.22.4.09.91-.29 1.15ZM94.36 110.92c-.22.4-.73.54-1.12.3s-.53-.74-.29-1.15c.22-.4.72-.54 1.13-.3.39.23.53.74.29 1.15h-.01ZM99.86 113.03c.45 0 .81-.38.81-.83s-.37-.83-.81-.83-.81.38-.81.83.37.83.81.83ZM106.48 111.23c-.39.23-.89.09-1.13-.3-.22-.4-.09-.91.29-1.15.39-.23.89-.09 1.12.3s.09.91-.29 1.15h.01ZM111.33 106.27a.81.81 0 0 1-1.13.3.839.839 0 0 1-.29-1.15c.22-.4.72-.54 1.13-.3.39.23.53.74.29 1.15ZM112.29 100.33c.45 0 .81-.38.81-.83s-.37-.83-.81-.83-.81.38-.81.83.37.83.81.83ZM106.79 88.9c-.22.4-.72.54-1.12.3a.839.839 0 0 1-.29-1.15c.22-.4.72-.54 1.13-.3.39.23.53.74.29 1.14h-.01ZM110.85 93.56c-.22.4-.72.54-1.12.3a.839.839 0 0 1-.29-1.15.81.81 0 0 1 1.13-.3c.39.23.53.74.29 1.14h-.01ZM100.69 89.26v12.47c0 .33-.25.59-.58.59s-.58-.26-.58-.59V89.26c0-.33.25-.59.58-.59s.58.26.58.59Z" class="cls-16"/><path d="M109.08 99.54c0 .42-.33.76-.74.76H97.98c-.42 0-.74-.34-.74-.76s.33-.76.74-.76h10.36c.42 0 .74.34.74.76Z" class="cls-16"/><path d="M101.73 99.54c0 .27-.07.53-.18.76a1.616 1.616 0 0 1-1.44.89c-.2 0-.4-.04-.58-.11-.21-.08-.41-.21-.56-.38a1.691 1.691 0 0 1-.47-1.17c0-.27.07-.53.18-.76.18-.36.49-.64.85-.78.18-.07.38-.11.58-.11s.4.04.58.11c.21.08.41.21.56.38a1.77 1.77 0 0 1 .47 1.18h.01Z" class="cls-16"/><path d="M140.5 30.26v-.81c.2.27.2.54 0 .81Z" style="fill:#3f3f3f"/><path d="M6.76 7.13h99.13v55.86H6.76z" style="fill:#bfe6fc;stroke-width:2px;stroke:#000;stroke-linejoin:round;stroke-linecap:round"/><circle cx="56.32" cy="63.05" r=".48" class="cls-1"/><path d="M53.8 63.64h5.06v2.8H53.8z"/><path d="m41.71 66.45-.61 1.97h30.45l-.66-1.97H41.71z" style="stroke-width:.55px;stroke:#000;stroke-linejoin:round;stroke-linecap:round"/><path d="M41.1 68.69h30.45" style="stroke-width:.55px;stroke:#000;fill:none;stroke-linejoin:round;stroke-linecap:round"/><path d="M188.56 14.01h-41.8c-.58 0-1.05.47-1.05 1.05v27.86h43.91V15.06c0-.58-.47-1.05-1.05-1.05Z" class="cls-6"/><path d="M148.81 16.36h37.68v24.21h-37.68z" style="stroke-width:.75px;fill:#bfe6fc;stroke:#000;stroke-linejoin:round;stroke-linecap:round"/><path d="M167.84 15.45c0 .1-.08.19-.19.19s-.19-.08-.19-.19.08-.19.19-.19.19.08.19.19ZM163.66 52.26h8.09v1.57h-8.09z"/><path d="M171.75 52.84v.49c0 .34-.2.62-.45.62h-7.32c-.25 0-.45-.28-.45-.62v-.49h-25.94l.77 3.27h58.66l.71-3.27h-25.97Z" class="cls-6"/><path d="M137.59 52.93h60.13l-8.11-10.01H145.7l-8.11 10.01z" class="cls-6"/><path d="m166.34 45.41 2.53-.02.8 1.99h-4.03l.7-1.97zM161.64 48.43l12.12-.02.8 1.99h-13.63l.71-1.97zM165.02 45.4H165l-.7 1.98h-2.52l.7-1.98 2.53-.01.01.01zM161.14 45.4h-.02l-.71 1.98h-2.51l.7-1.98 2.53-.01.01.01zM157.26 45.4h-.02l-.71 1.98h-2.51l.7-1.98 2.53-.01.01.01zM153.37 45.4h-.01l-.71 1.98h-2.51l.7-1.98 2.53-.01v.01zM149.51 45.4h-.01l-.71 1.98h-3.38l1.57-1.98 2.53-.01v.01zM170.28 45.4h.01l.71 1.98h2.52l-.7-1.98-2.53-.01-.01.01zM174.16 45.4h.02l.7 1.98h2.52l-.7-1.98-2.53-.01-.01.01zM178.04 45.4h.02l.71 1.98h2.51l-.7-1.98-2.53-.01-.01.01zM181.93 45.4h.01l.71 1.98h2.51l-.7-1.98-2.53-.01v.01zM185.79 45.4h.01l.71 1.98h3.37l-1.56-1.98-2.53-.01v.01zM175.17 48.42h.02l.71 1.97h2.51l-.7-1.97-2.53-.01-.01.01zM179.05 48.42h.02l.71 1.97h2.51l-.7-1.97-2.53-.01-.01.01zM182.94 48.42h.01l.71 1.97h2.51l-.7-1.97-2.53-.01v.01zM186.8 48.42h.01l.71 1.97 4.79.01-1.56-1.98-3.95-.01v.01z" class="cls-11"/><path d="m187.52 50.39 4.79.01-1.56-1.98-3.95-.01M147.87 50.39l-4.79.01 1.56-1.98 3.95-.01M160.21 48.42h-.01l-.71 1.97h-2.51l.7-1.97 2.53-.01v.01zM156.33 48.42h-.01l-.71 1.97h-2.52l.71-1.97 2.53-.01v.01zM152.45 48.42h-.01l-.71 1.97h-2.52l.71-1.97 2.53-.01v.01z" class="cls-11"/><rect width="15.16" height="31.9" x="118.22" y="12.51" rx="2.36" ry="2.36" style="stroke-miterlimit:10;stroke:#000;fill:none"/><path d="M119.54 16.87h12.51V40.2h-12.51z" style="fill:#bfe6fc;stroke:#000;stroke-linejoin:round;stroke-linecap:round"/><path d="M126.86 42.08c0 .59-.48 1.06-1.06 1.06s-1.06-.48-1.06-1.06.48-1.06 1.06-1.06 1.06.48 1.06 1.06Z"/><path d="M124.93 15.32h1.73" style="stroke-miterlimit:10;stroke:#000;fill:none;stroke-linecap:round"/></svg>