<svg xmlns="http://www.w3.org/2000/svg" id="Calque_1" data-name="Calque 1" viewBox="0 0 200 128"><defs><style>.cls-2,.cls-3{stroke:#000;stroke-linecap:round;stroke-linejoin:round}.cls-2{fill:#fff}.cls-3,.cls-8{fill:none}.cls-8{stroke-miterlimit:10}.cls-9{fill:#f6e7d4}.cls-11{fill:#b4eac3}.cls-12{fill:#dbc5b1}.cls-13{fill:#dfdfe0}.cls-8{stroke:#76ac75}</style></defs><path d="M16.95 56.22h69.03v37.62H16.95z" class="cls-2"/><path d="M66.62 83.77h9.93v8.55h-9.93z" class="cls-11"/><path d="m69.38 86.32 4.4 3.91M73.78 86.32l-4.4 3.91" class="cls-8"/><path d="m86.78 97.24-.09.04.09-.04ZM86.13 97.46l-.13.03.13-.03Z" class="cls-9"/><path d="M13.95 53.73v40.4c0 .47.09.92.27 1.33.08.2.19.4.31.58.25.36.56.67.92.92.19.12.38.23.58.31.41.18.86.27 1.33.27h68.03c.21 0 .41-.02.61-.06l.13-.03c.2-.04.38-.09.56-.17l.09-.04c.15-.07.3-.15.44-.24l.11-.07c.15-.11.29-.22.42-.35l.11-.11c.11-.12.21-.24.3-.37l.07-.09h.01c.35-.54.56-1.19.56-1.88v-40.4H13.95Zm72.03 40.11H16.95V56.22h69.03v37.62Z" class="cls-2"/><path d="M56.52 66.56h9.93v8.55h-9.93zM56.52 83.53h9.93v8.55h-9.93zM36.49 75.19h9.93v8.55h-9.93z" class="cls-11"/><path d="M157.22 99.68h-27.7c-.23 0-.41-.18-.41-.41s.18-.41.41-.41h27.7c.23 0 .41.18.41.41s-.18.41-.41.41Z"/><path d="M98.28 43.28h90.18v49.59H98.28z" style="fill:#bfe6fc"/><path d="M188.46 95.32H98.28c-.68 0-1.23-.55-1.23-1.23V43.28c0-.68.55-1.23 1.23-1.23h90.18c.68 0 1.23.55 1.23 1.23v50.81c0 .68-.55 1.23-1.23 1.23Zm-88.95-2.45h87.72V44.51H99.51v48.36Z"/><path d="M141.07 94.69h4.6v2.55h-4.6zM130.07 97.24l-.55 1.79h27.7l-.6-1.79h-26.55z"/><path d="M157.22 99.44h-27.7c-.13 0-.25-.06-.33-.17-.08-.1-.1-.24-.06-.36l.55-1.79c.05-.17.21-.29.39-.29h26.55c.18 0 .33.11.39.28l.6 1.79a.412.412 0 0 1-.39.54Zm-27.14-.82h26.58l-.33-.98h-25.95l-.3.98Z"/><path d="M99.51 44.5v48.36l28.4-48.36h-28.4z" style="fill:#87ccf3"/><circle cx="186.08" cy="94.03" r=".61" style="fill:#ff6d75"/><path d="M85.29 42.07h.09a3.402 3.402 0 0 1 3.41 3.41v8.26H13.95v-8.26c0-.21.03-.41.06-.61l.04-.17c.04-.15.08-.3.14-.45l.05-.13c.08-.17.17-.34.27-.5l.03-.05.08-.1c.08-.11.16-.21.25-.31l.15-.15c.12-.12.25-.23.39-.32l.05-.04.37-.2c.07-.04.14-.08.21-.11.29-.12.6-.21.92-.24.13-.02.27-.02.41-.02h.22v.02h2.06v-.02h3.92v.02h2.06v-.02h3.92v.02h2.06v-.02h3.92v.02h2.06v-.02h3.95v.02h2.06v-.02h3.91l2.06.01h0l3.91-.01h0l2.06.01h0l3.92-.01h25.88Z" style="fill:#bfe6fc;stroke-linecap:round;stroke-linejoin:round;stroke:#000"/><path d="m15.45 42.65-.05.04.05-.04zM13.95 94.13ZM88.23 96.02l-.07.09.07-.09ZM87.86 96.47l-.11.11.11-.11ZM17.36 97.55ZM87.22 97l.09-.05.02-.02-.11.07zM14.53 96.04c.22.32.5.6.81.83l.11.1a3.5 3.5 0 0 1-.92-.92Z" class="cls-9"/><path d="M18.61 46.43ZM18.92 46.38c.07-.02.14-.06.21-.1-.07.04-.14.07-.21.1ZM19.52 45.87c-.08.17-.21.31-.37.41.16-.1.28-.24.37-.41ZM24.58 46.43ZM24.9 46.38a.81.81 0 0 0 .21-.1c-.07.04-.14.07-.21.1ZM30.87 46.38c.07-.02.14-.06.21-.1-.07.04-.14.07-.21.1ZM31.47 45.87c-.08.17-.21.31-.37.41.16-.1.28-.24.37-.41ZM30.56 46.43ZM36.85 46.38a.81.81 0 0 0 .21-.1c-.07.04-.14.07-.21.1ZM36.53 46.43ZM35.87 46.19l-.14-.14.14.14ZM42.54 46.43ZM42.85 46.38a.81.81 0 0 0 .21-.1c-.07.04-.14.07-.21.1ZM47.85 46.19l-.14-.14.14.14ZM48.83 46.38a.81.81 0 0 0 .21-.1c-.07.04-.14.07-.21.1ZM48.51 46.43ZM54.48 46.43ZM54.8 46.38a.81.81 0 0 0 .21-.1c-.07.04-.14.07-.21.1ZM60.77 46.38a.81.81 0 0 0 .21-.1c-.07.04-.14.07-.21.1ZM60.45 46.43ZM66.4 46.43ZM67.32 45.87c-.08.17-.21.31-.37.41.16-.1.28-.24.37-.41ZM66.72 46.38c.07-.02.14-.06.21-.1-.07.04-.14.07-.21.1ZM71.72 46.19l-.14-.14.14.14ZM72.38 46.43ZM72.7 46.38a.81.81 0 0 0 .21-.1c-.07.04-.14.07-.21.1ZM79.2 45.87c-.08.17-.21.31-.37.41.16-.1.28-.24.37-.41ZM78.29 46.43ZM78.61 46.38a.81.81 0 0 0 .21-.1c-.07.04-.14.07-.21.1ZM84.27 46.43ZM83.61 46.19l-.14-.14.14.14ZM84.58 46.38a.81.81 0 0 0 .21-.1c-.07.04-.14.07-.21.1Z" class="cls-13"/><path d="M18.61 39.94c-.11 0-.21.02-.31.05 0 0 0 0 0 0h-.01c-.09.03-.17.07-.24.12-.01 0-.03.02-.04.03-.08.06-.15.12-.21.2h-.01c-.06.09-.1.18-.14.27l-.02.05c-.03.09-.05.19-.05.3v4.44c0 .57.46 1.03 1.03 1.03h0c.09 0 .18-.02.26-.04l.06-.02c.07-.03.15-.06.21-.1h.02c.16-.11.28-.25.37-.41.07-.14.12-.3.12-.46v-4.44c0-.57-.46-1.03-1.03-1.03ZM24.58 39.94c-.11 0-.21.02-.31.05 0 0 0 0 0 0h-.01c-.09.03-.17.07-.24.12-.01 0-.03.02-.04.03-.08.06-.15.12-.21.2h-.01c-.06.09-.1.18-.14.27l-.02.05c-.03.09-.05.19-.05.3v4.44c0 .57.46 1.03 1.03 1.03h0c.09 0 .18-.02.26-.04l.06-.02c.07-.03.15-.06.21-.1h.02c.08-.06.15-.12.21-.18 0 0 0-.01.01-.02.06-.06.1-.13.14-.21 0 0 0 0 0 0h0c.07-.14.12-.3.12-.46v-4.44c0-.57-.46-1.03-1.03-1.03ZM30.56 39.94c-.11 0-.21.02-.31.05 0 0 0 0 0 0h-.01c-.09.03-.17.07-.24.12-.01 0-.03.02-.04.03-.08.06-.15.12-.21.2h-.01c-.06.09-.1.18-.14.27l-.02.05c-.03.09-.05.19-.05.3v4.44c0 .57.46 1.03 1.03 1.03h0c.09 0 .18-.02.26-.04l.06-.02c.07-.03.15-.06.21-.1h.02c.16-.11.28-.25.37-.41.07-.14.12-.3.12-.46v-4.44c0-.57-.46-1.03-1.03-1.03ZM36.53 39.94c-.11 0-.21.02-.31.05 0 0 0 0 0 0h-.01c-.09.03-.17.07-.24.12-.01 0-.03.02-.04.03-.08.06-.15.12-.21.2h-.01c-.06.09-.1.18-.14.27l-.02.05c-.03.09-.05.19-.05.3v4.44c0 .24.09.47.23.64l.14.14c.18.15.41.25.66.25h0c.09 0 .18-.02.26-.04l.06-.02c.07-.03.15-.06.21-.1h.02c.08-.06.15-.12.21-.19v-.01a.8.8 0 0 0 .15-.21s0 0 0 0 0 0 0 0c.07-.14.12-.3.12-.46v-4.44c0-.57-.46-1.03-1.03-1.03ZM42.53 39.94c-.11 0-.21.02-.31.05 0 0 0 0 0 0h-.01c-.09.03-.17.07-.24.12-.01 0-.03.02-.04.03-.08.06-.15.12-.21.2h-.01c-.06.09-.1.18-.14.27l-.02.05c-.03.09-.05.19-.05.3v4.44c0 .57.46 1.03 1.03 1.03h0c.09 0 .18-.02.26-.04l.06-.02c.07-.03.15-.06.21-.1h.02c.08-.06.15-.12.21-.18 0 0 0-.01.01-.02.06-.06.1-.13.14-.21 0 0 0 0 0 0s0 0 0 0c.07-.14.12-.3.12-.46v-4.44c0-.57-.46-1.03-1.03-1.03ZM48.51 39.94c-.11 0-.21.02-.31.05 0 0 0 0 0 0h-.01c-.09.03-.17.07-.24.12-.01 0-.03.02-.04.03-.08.06-.15.12-.21.2h-.01c-.06.09-.1.18-.14.27l-.02.05c-.03.09-.05.19-.05.3v4.44c0 .24.09.47.23.64l.14.14c.18.15.41.25.66.25h0c.09 0 .18-.02.26-.04l.06-.02c.07-.03.15-.06.21-.1h.02c.08-.06.15-.12.21-.19v-.01a.8.8 0 0 0 .15-.21s0 0 0 0 0 0 0 0c.07-.14.12-.3.12-.46v-4.44c0-.57-.46-1.03-1.03-1.03ZM54.48 39.94c-.11 0-.21.02-.31.05 0 0 0 0 0 0h-.01c-.09.03-.17.07-.24.12-.01 0-.03.02-.04.03-.08.06-.15.12-.21.2h-.01c-.06.09-.1.18-.14.27l-.02.05c-.03.1-.05.19-.05.3v4.44c0 .57.46 1.03 1.03 1.03h0c.09 0 .18-.02.26-.04l.06-.02c.07-.03.15-.06.21-.1h.02c.08-.06.15-.12.21-.19v-.01a.8.8 0 0 0 .15-.21s0 0 0 0 0 0 0 0c.07-.14.12-.3.12-.46v-4.44c0-.57-.46-1.03-1.03-1.03ZM60.45 39.94c-.11 0-.21.02-.31.05 0 0 0 0 0 0h-.01c-.09.03-.17.07-.24.12-.01 0-.03.02-.04.03-.08.06-.15.12-.21.2h-.01c-.06.09-.1.18-.14.27l-.02.05c-.03.09-.05.19-.05.3v4.44c0 .57.46 1.03 1.03 1.03h0c.09 0 .18-.02.26-.04l.06-.02c.07-.03.15-.06.21-.1H61c.08-.06.15-.12.21-.19v-.01a.8.8 0 0 0 .15-.21s0 0 0 0 0 0 0 0c.07-.14.12-.3.12-.46v-4.44c0-.57-.46-1.03-1.03-1.03ZM66.4 39.94c-.11 0-.21.02-.31.05 0 0 0 0 0 0h-.01c-.09.03-.17.07-.24.12-.01 0-.03.02-.04.03-.08.06-.15.12-.21.2h-.01c-.06.09-.1.18-.14.27l-.02.05c-.03.09-.05.19-.05.3v4.44c0 .57.46 1.03 1.03 1.03h0c.09 0 .18-.02.26-.04l.06-.02c.07-.03.15-.06.21-.1h.02c.16-.11.28-.25.37-.41.07-.14.12-.3.12-.46v-4.44c0-.57-.46-1.03-1.03-1.03ZM72.38 39.94c-.11 0-.21.02-.31.05 0 0 0 0 0 0h-.01c-.09.03-.17.07-.24.12-.01 0-.03.02-.04.03-.08.06-.15.12-.21.2h-.01c-.06.09-.1.18-.14.27l-.02.05c-.03.09-.05.19-.05.3v4.44c0 .24.09.47.23.64l.14.14c.18.15.41.25.66.25h0c.09 0 .18-.02.26-.04l.06-.02c.07-.03.15-.06.21-.1h.02c.08-.06.15-.12.21-.18 0 0 0-.01.01-.02.06-.06.1-.13.14-.21 0 0 0 0 0 0s0 0 0 0c.07-.14.12-.3.12-.46v-4.44c0-.57-.46-1.03-1.03-1.03ZM78.29 39.94c-.11 0-.21.02-.31.05 0 0 0 0 0 0h-.01c-.09.03-.17.07-.24.12-.01 0-.03.02-.04.03-.08.06-.15.12-.21.2h-.01c-.06.09-.1.18-.14.27l-.02.05c-.03.09-.05.19-.05.3v4.44c0 .57.46 1.03 1.03 1.03h0c.09 0 .18-.02.26-.04l.06-.02c.07-.03.15-.06.21-.1h.02c.16-.11.28-.25.37-.41 0 0 0 0 0 0 .07-.14.12-.3.12-.46v-4.44c0-.57-.46-1.03-1.03-1.03ZM84.27 39.94c-.11 0-.21.02-.31.05 0 0 0 0 0 0h-.01c-.09.03-.17.07-.24.12-.01 0-.03.02-.04.03-.08.06-.15.12-.21.2h-.01c-.06.09-.1.18-.14.27l-.02.05c-.03.09-.05.19-.05.3v4.44c0 .24.09.47.23.64l.14.14c.18.15.41.25.66.25h0c.09 0 .18-.02.26-.04l.06-.02c.07-.03.15-.06.21-.1h.02c.08-.06.15-.12.21-.19v-.01a.8.8 0 0 0 .15-.21s0 0 0 0 0 0 0 0c.07-.14.12-.3.12-.46v-4.44c0-.57-.46-1.03-1.03-1.03Z" class="cls-2"/><path d="M76.32 93.85V56.22M56.33 93.85V56.22M66.32 93.85V56.22M46.42 93.85V56.22M36.49 93.85V56.22M26.98 93.85V56.22M85.67 75.19H16.95M85.67 66.64H16.95M85.83 83.74H17.1M85.83 57.93H17.1M85.73 92.34H17.01" class="cls-3"/><circle cx="18.8" cy="74.11" r="14.54" style="stroke-miterlimit:10;fill:#fff;stroke:#000"/><path d="M12.72 68.39c.57-1.28 1.65-2.2 3.24-2.75 1.47-.51 2.79-.51 3.96.01s1.98 1.43 2.43 2.71c.27.78.33 1.47.18 2.07s-.56 1.54-1.22 2.83c-.48.94-.75 1.68-.8 2.23-.03.36.01.8.14 1.32s-.16 1.05-.67 1.22c-.58.2-1.21-.14-1.35-.74-.14-.59-.2-1.11-.18-1.58.03-.73.33-1.66.9-2.79l.6-1.19c.18-.34.31-.68.38-1.01.14-.58.12-1.13-.06-1.65-.25-.72-.69-1.27-1.31-1.65-.62-.38-1.44-.39-2.46-.04-1.25.44-1.96 1.2-2.13 2.27-.06.41-.04.91.08 1.49.1.51-.19 1.01-.68 1.18-.61.21-1.26-.17-1.37-.8-.2-1.13-.09-2.18.34-3.14Zm8.07 11.91c.61-.21 1.27.11 1.48.72l.03.1c.21.61-.11 1.27-.72 1.48a1.16 1.16 0 0 1-1.48-.72l-.03-.1c-.21-.61.11-1.27.72-1.48Z" style="stroke-miterlimit:10;stroke:#000"/><path d="m59.12 68.88 4.41 3.91M63.53 68.88l-4.41 3.91M59.28 86.09l4.4 3.91M63.68 86.09 59.28 90M39.25 77.51l4.41 3.91M43.66 77.51l-4.41 3.91" class="cls-8"/><path d="M-3789.71-5543.69h6467.34v6437.3h-6467.34z" style="stroke:#fff;stroke-width:8px;fill:none;stroke-linecap:round;stroke-linejoin:round"/></svg>