<svg xmlns="http://www.w3.org/2000/svg" id="Calque_1" data-name="Calque 1" viewBox="0 0 128 128"><defs><style>.cls-1,.cls-2{fill:#ff6d75;stroke:#000;stroke-linecap:round;stroke-linejoin:round}.cls-2{fill:#f3d587}</style></defs><path d="m59.59 10.1 5.96-.94 3.05 48.93-6.33-4.89-2.68-43.1zM47.96 9.16l-9.67 51.19 7.59-3.12s6.75-34.12 7.09-38.29c.34-4.17-.01-7.53-.01-7.53l-5-2.25Z" class="cls-2"/><path d="m44.15 10.82 3.81-1.66-9.67 51.19-2.52-4.47 8.38-45.06zM75.52 12.45l-3.59 51.97 7.17-3.99s2.69-34.67 2.54-38.86c-.15-4.18-.9-7.47-.9-7.47l-5.23-1.64Z" class="cls-2"/><path d="m71.93 14.54 3.59-2.09-3.59 51.96-3.03-4.14 3.03-45.73zM86.54 18.18l1.3 49.73 5.29-4.27s-.64-33.2-1.08-37.17-1.29-7.06-1.29-7.06l-4.22-1.23Z" class="cls-2"/><path d="m83.9 20.4 2.64-2.22 1.3 49.72-2.7-3.74L83.9 20.4zM52.07 16.77l9.03 51.3 6-5.6s-5.74-34.3-6.89-38.33c-1.15-4.03-2.67-7.04-2.67-7.04l-5.47-.34Z" class="cls-2"/><path d="m49.1 19.66 2.97-2.89 9.03 51.3-3.94-3.29-8.06-45.12z" class="cls-2"/><path d="m45.71 27.79 4.72-1.35 7.35 39.22-5.61-3.32-6.46-34.55zM22.33 28.93l4.45-2.08 13.45 37.56-6.06-2.39-11.84-33.09zM105.87 28.93l-4.45-2.08-13.45 37.56 6.06-2.39 11.84-33.09z" class="cls-2"/><path d="m32.67 14.33 5.51-.77 2.05 45.18-5.77-4.61-1.79-39.8zM83.66 26.28l4.86.65-8.91 38.89-3.81-5.28 7.86-34.26zM88.8 52.95s6.08-14.18 5.97-19.7c-.11-5.52-1.46-12.72-1.46-12.72h4.02s2.17 7.65 2.17 12.49-6.08 19.92-6.08 19.92h-4.61Z" class="cls-2"/><path d="M44.68 55.78s-8.52-12.86-9.4-18.31c-.88-5.45-.84-12.77-.84-12.77l-3.96.72s-.76 7.92.11 12.68 9.55 18.51 9.55 18.51l4.54-.83ZM63.74 66.31S69.3 49.3 68.6 42.94 65.59 28.4 65.59 28.4l4.65-.42s3.3 8.62 3.8 14.21-4.96 23.65-4.96 23.65l-5.33.48ZM60.98 76.3s-9.17-15.7-9.6-22.08c-.43-6.38.54-14.86.54-14.86l-5.1.46s-1.96 9.09-1.46 14.68 9.77 22.33 9.77 22.33l5.85-.52Z" class="cls-2"/><path d="M25.26 43.04h5.01l4.2 72.26-5.6-2.41-3.61-69.85zM101.92 43.04h-5l-4.2 72.26 5.6-2.41 3.6-69.85z" class="cls-1"/><path d="M30.27 43.04s15.96 16.64 32.85 16.04c16.89-.6 33.8-16.04 33.8-16.04l-4.2 72.26H34.48l-4.2-72.26Z" class="cls-1"/><ellipse cx="63.19" cy="85.61" rx="27.43" ry="15.8" style="fill:#fff"/><path d="M-237.62-1054.38h3385.57v2571.67H-237.62z" style="fill:none;stroke:#fff;stroke-width:8px;stroke-linecap:round;stroke-linejoin:round"/></svg>