<svg xmlns="http://www.w3.org/2000/svg" id="Calque_1" data-name="Calque 1" viewBox="0 0 128 128"><defs><style>.cls-1{fill:#baa584;stroke:#1d1d1b;stroke-width:2px;stroke-linecap:round;stroke-linejoin:round}</style></defs><path d="m73.64 20.42-12.35 7.26a6.238 6.238 0 0 1 1.29 6.11c-1.08 3.28-4.61 5.06-7.87 4a6.246 6.246 0 0 1-3.97-3.92L17.78 56.79l93.85-17.49-37.99-18.89Zm3.93 17.64a2.454 2.454 0 0 1-1.56-3.09c.41-1.28 1.8-1.97 3.08-1.56a2.46 2.46 0 0 1 1.57 3.09 2.466 2.466 0 0 1-3.09 1.56Z" style="fill:#f3d587;stroke-linecap:round;stroke-linejoin:round;stroke:#1d1d1b;stroke-width:2px"/><path d="m111.5 44.17.13-4.86-93.85 17.48v11.43c.37-.05.76-.08 1.15-.08 4.89 0 8.85 3.96 8.85 8.83s-3.96 8.85-8.85 8.85c-.39 0-.77-.03-1.15-.08v20.59l92.53-16.83.77-29.4a7.986 7.986 0 0 1-6.91-10.44 8.03 8.03 0 0 1 7.33-5.49ZM38.65 65.76a3.47 3.47 0 0 1-4.37 2.21c-1.81-.6-2.8-2.56-2.2-4.37.59-1.81 2.54-2.8 4.36-2.21 1.81.6 2.8 2.56 2.21 4.37Zm8.63 26.64a2.439 2.439 0 0 1-3.08 1.56c-1.29-.41-1.98-1.8-1.57-3.08a2.463 2.463 0 0 1 3.09-1.57c1.28.43 1.98 1.81 1.56 3.09Zm8.71-21.41a3.462 3.462 0 0 1-6.58-2.15 3.462 3.462 0 0 1 6.58 2.15Zm20.18-8.62c-1.07 3.28-4.6 5.06-7.87 4-3.28-1.08-5.06-4.61-4-7.89a6.246 6.246 0 0 1 7.89-3.98 6.224 6.224 0 0 1 3.98 7.87Zm16.25 21.67c-.91 2.74-3.85 4.24-6.59 3.34a5.208 5.208 0 0 1-3.33-6.59c.89-2.73 3.84-4.22 6.58-3.33 2.74.89 4.24 3.85 3.34 6.58Z" style="fill:#e9cb61;stroke-linecap:round;stroke-linejoin:round;stroke:#1d1d1b;stroke-width:2px"/><path d="m115.08 59.39-.75 26.99a3.174 3.174 0 0 1-3.16 3.1h-.87l.77-29.39c1.4.12 2.77-.13 4-.71ZM115.62 39.88l-.15 5.2c-.39-.2-.8-.37-1.23-.52-.91-.29-1.84-.43-2.74-.39l.13-4.86-37.99-18.89 2.88-1.27c.88-.39 1.89-.36 2.74.08l34.62 17.72c1.09.56 1.77 1.71 1.73 2.93Z" class="cls-1"/><path d="m114.24 38.38-2.61.93" style="fill:none;stroke-linecap:round;stroke-linejoin:round;stroke:#1d1d1b;stroke-width:2px"/><path d="M-947.5-164.33h3385.57v2571.67H-947.5z" style="stroke:#fff;stroke-width:8px;fill:none;stroke-linecap:round;stroke-linejoin:round"/></svg>