<svg xmlns="http://www.w3.org/2000/svg" id="Calque_1" data-name="Calque 1" viewBox="0 0 128 128"><defs><style>.cls-1,.cls-12,.cls-13,.cls-14,.cls-15,.cls-16,.cls-21,.cls-24,.cls-25,.cls-26,.cls-3,.cls-4{stroke:#000}.cls-1,.cls-12,.cls-13,.cls-14,.cls-15,.cls-16,.cls-24,.cls-25,.cls-26,.cls-3,.cls-4{stroke-linecap:round}.cls-1,.cls-13,.cls-16,.cls-24,.cls-25,.cls-26,.cls-3,.cls-4{stroke-linejoin:round}.cls-1,.cls-25{fill:#fce9b9}.cls-13,.cls-21,.cls-3{fill:#fff}.cls-12,.cls-16,.cls-24,.cls-26,.cls-4{fill:none}.cls-12,.cls-14,.cls-15,.cls-21{stroke-miterlimit:10}.cls-25{stroke-width:.67px}.cls-31{fill:#fab0b4}.cls-15,.cls-32{fill:#ff6d75}.cls-34{fill:#1d1d1b}.cls-14,.cls-35{fill:#1a2e35}.cls-13,.cls-24{stroke-width:.93px}.cls-16{stroke-width:.6px}.cls-26{stroke-width:.5px}</style></defs><path d="M88.76 17.59c-.67 1.83-1.62 4.75-1.84 7.06-.27-.35-.53-.74-.78-1.14-.87-1.43-2.67-3.36-2.67-3.36 1.06-1.05.41-3.29-.82-3.71-1.23-.42-2.07.78-3.2 1.55-1.24.84-3.6-.84-4.33-1.43-.74-.59-4.48-4.48-4.48-4.48-.54.86-1.36 2.44-1.13 4.57-.85-.23-2.19-.86-2.31-2.6-.23-3.12 2.46-3.84 2.46-3.84.87-2.73 6.89-5.66 13.53-3.89 3.38.9 4.55 3.24 4.68 5.53 0 0 1.85 3.09.89 5.74Z" style="fill:#d6d6d6"/><path d="M107.78 68.05s-1.21 1.39-2.92 3.33c-1.31 1.48-2.9 3.28-4.45 5.02-2.92 3.26-5.71 6.29-6.21 6.58-.47.26-.74.13-1.01-.23-.37-.49-.73-1.41-1.6-2.24-.7-.67-1.57-.95-2.07-1.25-.26-.15-.42-.31-.42-.52 0-.13.4-.78 1.07-1.76-2.19-.19-3.86-.55-4.42-.83-1.55-.77-6.05-2.46-6.62-3.1-.56-.63 1.55-2.88 2.05-5.21.36-1.7-1.34-4.82-3.05-7.78-1.54 2.64-13.16 5.71-13.72 5.28-.16-.12-.9-4.94-.96-5.99-.05-.58 8.63-2.86 8.7-2.95.29-.35.07-22.88 1.92-24.46 1.14-.97 5.05-2.12 5.05-2.12s-.31.52-.33 1.14c-.07 1.58.21 4.31 2.72 4.64 2.88.37 5.77-1.94 7.49-4.65.82-1.29 1.03-1.85 1.27-2.57.02-.05.04-.11.06-.17 0 0 2.74.8 6.97 1.55 4.22.75 6.4 6.41 8.37 11.19 1.97 4.79 4.58 16.69 5.21 19.78.63 3.1-3.1 7.32-3.1 7.32Z" style="fill:#f3d587;stroke-linejoin:round;stroke-linecap:round;stroke:#000"/><path d="M58.24 56.78s.15-.95 1.88-.68 5.19 1.3 6.37.67.44-2.3-1.45-3.11-7.08-1.56-8.17-3.16-.28-1.89.29-4.34-1.66-5.19-1.2-5.99 3.92-7.45 3.42-11.51c-.5-4.07-2.04-5.04-3.14-2.95s-.61 9.18-1.11 10.43c-.51 1.25-.66 3.09-1.88 2.73s-2.48-.39-3.16-.21-1.27-2.66-.66-5.09 1.59-7.97.19-8.94c-1.41-.97-3.36 2.12-3.62 4.81s1.01 7.5 1.37 9.01.06 1.47-1.29 3.28c-1.35 1.81-1.23 5.19-.4 6.69.84 1.5.38 2.65-2.07 3.37s-4.52 1.39-6.11 2.53-1.33 2.36-.16 2.7 5.22-.78 7.63-1.85c0 0-.71 7.77-.19 13.12s.89 10.75 2.67 11.74 3.04-.35 3.02-2.47-1.25-8.18 1.88-8.58S54 79.89 57.79 79.31c3.79-.58 1.21-11.67.95-13.03s-1-7.22-.48-9.52Z" class="cls-12"/><path d="M63.58 60.45c-.05-.63-3.46-2.93-5.42-3.62-1.9-.67-2.47-1.2-3.79-.71-1.18.43-2.49.46-2.36 1.11.14.64.89 1.06 2.06.96 1.08-.1.84-.48 2.03.06 1.2.55 1.44 1.9 2.28 2.69l.29 3.8s1.79.95 3.25.37c1.46-.59 2.21-.29 2.21-.29s-.46-3.31-.55-4.37Z" class="cls-3"/><path d="M48.47 51.1s2.51 1.35 5.77-.43" class="cls-26"/><ellipse cx="48.77" cy="43.48" class="cls-34" rx=".41" ry=".57" transform="rotate(-1.85 48.859 43.536)"/><ellipse cx="52.56" cy="43.52" class="cls-34" rx=".41" ry=".57" transform="rotate(-1.85 52.575 43.596)"/><ellipse cx="50.41" cy="45.54" rx=".62" ry=".45" transform="rotate(-4.96 50.42 45.556)"/><path d="M51.95 46.84c-.97.16-1.51-1.11-1.51-1.11s-.48 1.2-1.34 1.21" class="cls-26"/><path d="M69.41 17.2s-2.08-.39-2.27-2.98c-.22-3.12 2.46-3.84 2.46-3.84.87-2.73 6.89-5.66 13.54-3.89 6.65 1.77 4.73 9.11 3.25 10.68" class="cls-4"/><path d="M87.96 12.45s1.7 2.66.74 5.32c-.84 2.31-1.88 4.81-1.59 7.17" class="cls-4"/><path d="M90.27 28.38c-.24.72-.45 1.28-1.27 2.57-1.72 2.71-4.61 5.02-7.49 4.65-2.51-.33-2.79-3.06-2.72-4.64l.03-.09c.49-1.54.84-2.84 1.05-3.16-.47.46-2.83 1.69-5.15 2.17-2.46.5-2.61-1.29-3.55-3.75-.93-2.44-2.16-2.32-2.36-2.95-.2-.64 1.68-2.37.89-5.12-.09-.3-.15-.58-.19-.87-.38-2.32.51-4.03 1.08-4.94 0 0 3.74 3.89 4.48 4.48.73.59 3.09 2.27 4.33 1.43 1.13-.77 1.97-1.97 3.2-1.55 1.23.42 1.88 2.66.82 3.71 0 0 1.8 1.93 2.67 3.36 1.72 2.8 4.08 4.59 4.08 4.59l.1.11Z" class="cls-4"/><path d="M71 19.86c-.23-.45-.16-.94.16-1.11.32-.16.75.07.98.53.23.44.15.93-.15 1.1-.32.16-.76-.07-.99-.51Z"/><path d="M82.13 18.46s-.84.54-.94 1.55" style="stroke-width:.7px;fill:none;stroke-linejoin:round;stroke-linecap:round;stroke:#000"/><path d="M75.04 36.17s-.26 8.45-.14 11.4c.07 1.69 1.38 7.65 3.22 12.48M95.11 37.02s-.77 3.94.14 6.62 6.97 17.46 6.97 17.46" class="cls-4"/><path d="M90.16 76.99c2.88-3.96 9.78-13.36 11.07-14.84 2.39-2.74 5.21-.84 5.21-.84" class="cls-4"/><path d="M106.08 88.15s.65 1.29 1.6 3c.7 1.27.73 4.99.31 7.06-.14.74-.34 1.27-.59 1.39-.94.47-3.76.47-8.45 3.57-4.69 3.09-10.6 5.63-15.39 7.97-4.79 2.35-10.23 1.97-13.42.94-3.19-1.03-3.29-4.41-3.29-4.41-3.19.38-4.04-.59-5.82-3-1.77-2.41-2.25-5.63 3.01-14.93 5.25-9.29 15.08-16.68 15.08-16.68.57.64 5.07 2.33 6.62 3.1.56.28 2.23.64 4.42.83-.67.98-1.07 1.63-1.07 1.76 0 .21.16.37.42.52.5.3 1.37.58 2.07 1.25.87.83 1.23 1.75 1.6 2.24.27.36.54.49 1.01.23.5-.29-1.55-4.7 1.37-7.96 1.06-.26 2.07-.59 3.01-1.02 3.14-1.44 7.94-3.76 8.44-4.99.43.88 3.75 5.16 3.95 10.48.04 1.19-.29 2.43-.87 3.57-1.42 2.78-4.01 5.07-4.01 5.07Z" class="cls-3"/><path d="M106.09 88.15s-8.25 6.78-12.01 9.57-12.86 7.13-13.61 8.82M66.86 107.67c-.94-4.04 2.91-9.29 2.91-9.29 3.94-4.41 10-11.87 13.23-15.04" class="cls-4"/><path d="M115.19 102.41c-1.77 2.49-2.32 3.59-4.41 2.54-2.09-1.05-1.86-1.26-2.16-4.32-.12-1.11-.36-1.88-.63-2.42.42-2.07.39-5.79-.31-7.06-.95-1.71-1.6-3-1.6-3s2.59-2.29 4.01-5.07c.39-.01 2.38.06 2.66 2.25.3 2.44 1.03 6.95 2.53 9.2s1.67 5.4-.09 7.88Z" class="cls-4"/><path d="M73.4 27.14c-.7.31-2.18.38-2.45-1.16 0 0 2.27-.61 3.53-1.32.64-.36-.3 2.14-1.08 2.48Z" style="stroke-width:.52px;fill:none;stroke-linejoin:round;stroke-linecap:round;stroke:#000"/><path d="M83.87 19.56s-.5 1.48-2.22 2.02" style="stroke-width:1.05px;fill:none;stroke-linejoin:round;stroke-linecap:round;stroke:#000"/><path d="M92.47 81.87c-1.35 1.79-3.32 4.6-3.99 6.56-1.06 3.1-3.03 6.55-3.66 6.27-.63-.28 1.35-5.05 1.55-5.85.19-.79-.82.21-2.47 2.12-1.64 1.91-1.75 3.23-3.51 3.73-2.25.63 3.94-7.11 3.94-7.11-1.34 1.12-4.86 7.25-5.99 7.18-1.12-.07-.58-1.13.64-3.24 1.22-2.12 3.87-5.49 3.87-5.49s-1.34.91-2.46 1.83c-1.13.91-2.82 4.08-3.45 3.87-.64-.21-.5-1.34.7-3.31s2.75-3.59 2.75-3.59c-.22-2.18 1.83-3.45 4.01-4.22 2.18-.78 4.36-2.18 4.36-2.18l.04-.06c.5.3 1.37.58 2.07 1.25.87.83 1.23 1.75 1.6 2.24Z" class="cls-13"/><path d="M105.54 107.45c-.51-1.78-1.37-5.81-1.48-6.73-.39-3.09-.49-7.23-1.81-9.18-1.47-2.16-4.24-2.7-4.99-2.5-7.72 2.12-8.34.21-8.34.21s-3.81 4.32-4.78 6.85c-.97 2.53-1.25 14.03-1.25 14.03l.43 3.5 18.01 5.04s3.34-1.38 4.21-4.68c.86-3.3.43-5 0-6.54Z" class="cls-15"/><path d="M82.83 106.98c-2.98-1.73-8.88-.01-10.57 1.56-.65-.76-1.33-1.55-2.21-2.02-.88-.48-2.04-.58-2.86 0-.74.53-1.04 1.48-1.2 2.37-.28 1.54-.31 3.12-.08 4.67.22 1.44.84 3.05 2.22 3.51.79.27 1.66.1 2.43-.2.78-.29 1.51-.7 2.31-.94 2.35-.69 9.09 2.2 12.11.92l-2.15-9.88Z" style="fill:#ff6d75;stroke-miterlimit:10;stroke:#000"/><path d="M67.19 106.53c.98-.38 1.5.31 1.85.69.35.38.62.96.75 1.63.07.34.09.7.14 1.07.04.37.08.76.12 1.16.14 1.59.21 3.04.05 4.07-.07.51-.22.92-.39 1.15-.41.49-1 .82-.99.83" style="stroke-miterlimit:10;fill:none;stroke:#000"/><path d="M79.85 75.51c-1.91-3.73-2.18-8.27-.72-12.21.28-.75.72-1.57 1.51-1.71.88-.16 1.64.61 2.09 1.38 1.01 1.71 1.43 3.73 1.39 5.72-.04 1.99-.5 3.95-1.15 5.83-.23.68-.53 1.39-1.14 1.76M78.11 75.59c-.44-.64-.9-1.3-1.48-1.81s-1.34-.89-2.12-.89c-1.13 0-2.1.8-2.87 1.63-2.78 3.04-4.12 7.22-4.17 11.33-.02 1.67.18 3.4 1.01 4.85.19.33.43.66.78.8.41.17.88.05 1.28-.14 1.01-.48 1.77-1.38 2.28-2.38.51-.99.8-2.09 1.08-3.17l2.43-9.22" class="cls-21"/><path d="M78.27 75.57c-.27.06-3.99 1.09-5.67 4.09-1.33 2.36-.85 5.15-.01 6.37.84 1.21 3.82 4.39 6.16 4.25 0 0 4.83-.16 6.42-1.88 1.59-1.73 3.77-6.05 1.99-9.72-1.77-3.67-5.43-3.82-8.89-3.1Z" style="stroke-width:.73px;stroke-miterlimit:10;fill:#fff;stroke:#000"/><path d="M75.24 110.95c-.35-2.04-.51-4.1-.48-6.17l-3.12-2.18c-.6.25-1.04.78-1.3 1.37-.26.59-.35 1.24-.42 1.88-.27 2.61-.09 5.25.31 7.84.11.71.27 1.47.82 1.94.64.54 1.6.48 2.38.17.7-.28 1.34-.75 1.69-1.41.55-1.03.31-2.29.11-3.44ZM83.65 104.92c-.14-.3-.41-.56-.74-.61l-4.05 3.39c-.88.76-1.51 1.78-1.96 2.86-.45 1.08-.72 2.22-.97 3.36-.22 1-.42 2.07-.03 3.01.37.92 1.3 1.58 2.29 1.64.99.07 1.99-.45 2.52-1.29.51-.81.58-1.81.7-2.76.18-1.39.53-2.75 1.03-4.06.57-1.49 1.34-2.96 1.38-4.56 0-.34-.02-.68-.16-.98Z" class="cls-21"/><path d="M77.91 88.91c-2.07 2.26-1.1.73-2.57 3.49 0 0-.2.1-.71.65-1.64 1.78-3.23 5.69-3.13 7.96.08 1.99.82 3.91 2.17 5.21 1.38 1.32 3.25 2.07 5.12 1.85 2.26-.27 4.31-1.94 5.49-4.09 1.19-2.15 1.53-4.71 1.46-7.17-.06-2.25-.42-6.58-.93-7.58" class="cls-21"/><path d="M73.54 94.55s-.01.03-.04.08c-.03.06-.07.13-.12.22-.06.09-.12.21-.19.34-.07.13-.16.29-.24.46-.35.69-.79 1.67-1.08 2.81-.3 1.14-.35 2.22-.29 2.98.03.38.07.69.11.91.02.1.03.18.04.25 0 .06.01.09 0 .09 0 0-.01-.03-.03-.08-.02-.07-.04-.15-.06-.24-.06-.21-.1-.52-.14-.91-.07-.77-.03-1.86.27-3.01.29-1.15.75-2.13 1.12-2.81.09-.17.18-.32.26-.46.08-.13.15-.25.21-.34.05-.08.1-.15.14-.21.03-.05.05-.07.05-.07Z"/><path d="M77.4 88.35c-.52-.43-1.21-.58-1.89-.62-2.17-.15-4.27.67-6.42 1.01-.83.13-1.71.21-2.38.71-.59.44-.94 1.21-.85 1.94.09.74.62 1.41 1.33 1.62.73.23 1.52-.02 2.25-.27 2.45-.83 4.89-1.66 7.34-2.49l1.16-.11c.27-.62-.02-1.37-.54-1.8Z" class="cls-21"/><path d="M66.72 89.46c.28.17 1.11.51 1.44 1.45.33.94.13 1.72 0 2.02" class="cls-26"/><path d="M77.31 79.77c.08.24-.04.5-.28.58-.24.08-.5-.04-.58-.28s.04-.5.28-.58c.24-.08.5.04.58.28ZM79.62 78.95c.08.24-.04.5-.28.58-.24.08-.5-.04-.58-.28-.08-.24.04-.5.28-.58.24-.08.5.04.58.28Z" class="cls-35"/><path d="M79.17 81.84s.1.23.23.61.31.9.52 1.47c.21.57.41 1.09.55 1.46.14.37.23.6.22.61" style="stroke-width:.5px;fill:#fff;stroke-linejoin:round;stroke-linecap:round;stroke:#000"/><path d="M83.13 75.42h-.05c-.04 0-.09-.01-.15-.02-.13-.02-.33-.04-.59-.07-.51-.05-1.26-.09-2.18-.02-.92.07-2.01.28-3.15.71a8.55 8.55 0 0 0-3.27 2.17 7.47 7.47 0 0 0-1.18 1.67c-.3.59-.5 1.2-.61 1.8-.22 1.2-.1 2.32.16 3.2.14.44.31.82.48 1.14.09.16.19.3.27.43.1.12.18.24.26.34.09.09.16.18.23.25s.14.12.18.17c.05.04.08.08.11.1.03.02.04.04.04.04s-.02 0-.04-.03c-.03-.03-.07-.06-.12-.1-.05-.04-.12-.09-.19-.16s-.15-.15-.24-.25-.17-.21-.27-.34c-.09-.13-.19-.27-.28-.43-.19-.32-.36-.71-.5-1.15a7.07 7.07 0 0 1-.19-3.23c.11-.61.31-1.23.61-1.83.3-.6.71-1.17 1.19-1.69a8.594 8.594 0 0 1 3.31-2.18c1.15-.43 2.25-.63 3.18-.7.93-.06 1.68-.01 2.19.05.26.03.46.06.59.09.06.01.11.02.15.03.03 0 .05.01.05.01Z" style="stroke-miterlimit:10;stroke:#000"/><path d="M77.77 81.06c-.08.06-.17.15-.15.25.02.08.1.13.17.17.33.16.68.3 1.04.4.12.03.25.07.37.02.09-.03.16-.1.22-.17.29-.33.51-.72.65-1.13.05-.15-.08-.3-.23-.27-.69.12-1.56.36-2.07.73Z" class="cls-32"/><path d="M73 75.64c.61.29 2.25 1.16 2.23 1.18" style="stroke-width:.67px;stroke-miterlimit:10;fill:#fce9b9;stroke-linecap:round;stroke:#000"/><path d="M82.42 91.64c-.15-.1-.21-.23-.89-.58.02-.23.13-.66.14-.88 0-.28 0-.58-.18-.79a.615.615 0 0 0-.59-.18.74.74 0 0 0-.48.4c-.08.18-.05.38-.11.57-.04.11-1.25-.26-1.25-.26-.5-.24-1.32-.52-1.87-.62-.31-.06-.74-.09-.93.27a.71.71 0 0 0 .05.69c.19.32.4.38.72.55-.14 0-.44.04-.58.11-.2.1-.33.19-.41.43-.07.21.03.52.19.66s.35.24.55.32c-.45.06-.86.37-.7.91.13.43 1.02.52 1.3.58 0 0-.26.19-.53.42-.37.3-.36.97.27 1.14.24.06.48 0 .73.04.72.1 1.47.53 1.8.76.86.6 1.05 1.23 2.4 1.54l1.93-5.14c-1.33-.83-1.06-.56-1.56-.91Z" class="cls-21"/><path d="M100.24 98.44c-2.13 2.02-7.95 3.34-11.18 2.86-3.23-.48-8.71-4.06-8.71-4.06l2.08-5.93s6.54 2.38 6.7 2.35c0 0 8.5-4.01 10.72-2.73" class="cls-32"/><path d="M99.67 90.85c-.13-.05-.32-.1-.58-.13-.26-.02-.59-.03-.97 0-.38.04-.82.1-1.3.2-1.93.42-4.59 1.36-7.66 2.77h0s0 0 0 0c-.04 0-.08-.01-.12-.02l-.1-.03-.2-.06c-.13-.04-.26-.09-.39-.13-.26-.09-.53-.18-.8-.27-.54-.19-1.08-.38-1.64-.58-1.12-.4-2.28-.82-3.48-1.25 0 0-.96 2.88-1.49 4.4-.18.52-.55 1.45-.55 1.45 1.26.81 2.53 1.53 3.78 2.18 1.25.64 2.48 1.21 3.71 1.59.61.19 1.23.31 1.83.36.61.03 1.19.04 1.76 0 1.14-.07 2.18-.24 3.13-.45.94-.21 1.78-.45 2.5-.72l.27-.09c.09-.04.17-.07.25-.1.16-.07.32-.13.47-.2.15-.07.29-.14.42-.2.07-.03.13-.06.2-.09.06-.03.12-.07.18-.1.23-.13.44-.24.61-.37.17-.12.32-.21.42-.3.11-.09.19-.15.25-.2.06-.05.09-.07.09-.07" class="cls-12"/><path d="M83.44 91.64c1.2 1.7 3.5 5.06 4.7 6.77.21.3.45.62.79.76.4.16.86.03 1.26-.16.51-.24.99-.58 1.23-1.09.23-.49.2-1.07.02-1.58-.18-.51-.48-.97-.79-1.41-1.21-1.71-2.53-3.34-4.02-4.82-.5-.49-1.14-1.19-1.87-1.1s-2.04.99-1.31 2.63Z" class="cls-21"/><path d="M91.07 95.91s-1.03.05-1.83.8-.83 1.57-.8 1.92" class="cls-26"/><path d="M102.2 118.21c-2.6 1.71-11.11 2.4-12.95 2.71-1.61.27-3.28.05-4.86.44-1.14.28-2.2.85-3.36.97-1.87.19-3.71-.91-4.75-2.47s-1.38-3.5-1.31-5.38c.04-1.14.3-2.41 1.25-3.04.8-.53 1.88-.43 2.73-.01.86.42 1.54 1.12 2.2 1.81 1.19-1.76 4.14-3.1 6.43-4.01 1.97-.78 6.85-1.98 8.37-.49" class="cls-15"/><path d="M95.89 108.69s-.09-.08-.18-.13a2.46 2.46 0 0 0-.8-.34" style="stroke-width:.55px;stroke-miterlimit:10;fill:none;stroke:#000"/><path d="M80.44 122.07s.08-.15.15-.44c.07-.29.1-.72.02-1.25-.08-.52-.25-1.14-.43-1.82a26.848 26.848 0 0 0-1.6-4.29c-.29-.64-.6-1.2-.98-1.57-.37-.38-.77-.56-1.06-.63-.29-.07-.46-.05-.46-.06 0 0 .04 0 .12-.01.08 0 .2 0 .34.03.29.06.71.24 1.1.62.39.38.71.95 1.01 1.58.31.64.62 1.35.9 2.12.29.76.52 1.51.71 2.19.18.68.34 1.3.41 1.83.07.53.03.98-.05 1.26-.04.14-.09.25-.13.32-.04.07-.06.11-.06.1Z" style="fill:#1a2e35;stroke-miterlimit:10;stroke:#000"/><path d="M82.43 116.34c-.25-.68-1.31-3.09-1.29-3.1" class="cls-14"/><path d="M94.54 108c.95-.6 2.17-.72 3.22-.34" style="fill:#ff735d;stroke-width:.55px;stroke-miterlimit:10;stroke:#000"/><path d="M97.76 107.67s-.18-.05-.48-.1a4.011 4.011 0 0 0-2.3.24c-.28.12-.44.21-.45.2 0 0 .14-.13.42-.26.27-.14.68-.27 1.15-.32.47-.05.89 0 1.19.08.3.07.47.16.46.17Z" class="cls-14"/><path d="M97.54 88.96c-.7-1.83.86-1.89.86-1.89 8.12-1.6 10.82-6.73 10.09-11.82-.72-5.09-5.39-13.07-15.21-10.66-9.82 2.4-6.93 10.54-6.93 10.54s-.27 1.29-1.49 1.38c-1.23.08-.25 2-.25 2s-2.97 6.39 2.14 7.81c1.86.51 2.7 2.36 2.68 3.03 0 0-.53 2 8.1-.39Z" class="cls-13"/><path d="M98.05 80.11s2.75.92 1.17 3.18-2.98.27-2.98.27" class="cls-24"/><circle cx="88.38" cy="76.52" r=".64"/><path d="M90.27 75.1s-.18-1.65-1.89-1.54" style="stroke-width:.47px;fill:none;stroke-linejoin:round;stroke-linecap:round;stroke:#000"/><path d="m97.97 82.24-.55-.25" class="cls-24"/><circle cx="91.34" cy="79.87" r="1.34" class="cls-31"/><path d="M85.57 82.09v.01c.09.51.54 1.01 1.34 1.07.65.06 1.09-.12 1.41-.35l-.01-.02c0-.01-.02-.04-.04-.07-.04-.05-.09-.12-.17-.21l-.09-.09c-.06-.06-.12-.12-.21-.18a1.72 1.72 0 0 0-.59-.3c-.06-.01-.12-.04-.18-.04a.59.59 0 0 0-.14-.02c-.36-.05-.8 0-1.31.21Z" class="cls-32"/><path d="M87.56 82.35zM85.62 82.23c.48-.2.89-.24 1.22-.19.05 0 .09 0 .13.02.06 0 .12.03.17.04.22.07.4.17.55.28.08.05.14.11.19.17.03.03.06.05.08.08.08.08.12.15.16.2.02.03.03.05.04.06 0 .01.01.02.01.02.4-.29.55-.67.55-.67.22-1.24-1.85-1.16-1.85-1.16-.96-.05-1.37.56-1.26 1.15ZM84.8 81.63h.02-.02Z" class="cls-31"/><path d="M86.88 81.15s2.07-.08 1.85 1.16c0 0-.15.38-.55.67-.29.21-.71.38-1.31.33-.74-.06-1.16-.52-1.24-1v-.01c-.11-.59.3-1.2 1.26-1.15Z" style="stroke-width:.56px;stroke-miterlimit:10;fill:none;stroke:#000"/><path d="M87.74 67.59s2.43 5.55 7.66 5.96c0 0-1.06 3.21 2.82 4.25" class="cls-24"/><path d="M41.48 119.25c-4.73-3.21-23.77-.33-26.97-7.6-3.2-7.26 2.86-10.39 2.86-10.39s1.03 1.37 3.01 2.5c1.98 1.13 3.65 1.78 4.55 2.52 2.26 1.89 5.1 4.44 4.52 2.83-.15-.42-.88-1.33-1.05-1.61l1.37.92h.01c.79.52 1.79 1.09 2.11.93.76.37 1.53.73 2.31 1.08 2.47 1.13 4.9 2.07 6.63 2.14.18 0 .76.36 1.29.7.4.26.76.51.91.61.21.14.43.31.67.49 4.32 3.29 2.53 8.07-2.21 4.87Z" class="cls-1"/><path d="M17.21 100.88c-6.72-5.41-1.7-18.98-1.7-18.98 2.76-6.55 7.88-5.75 8.63-7.7.75-1.95-.38-2.41-.38-2.41-8.65-1.71-11.53-7.17-10.75-12.59.76-5.42 5.74-13.92 16.2-11.36 10.46 2.55 7.38 11.23 7.38 11.23s.29 1.37 1.59 1.47c1.31.09.26 2.13.26 2.13s3.16 6.81-2.27 8.32c-1.99.55-2.75 1.19-2.73 1.9v.08c0 .04.02.08.02.12.28 1.2 2.58 2.59 4.97 4.12h.01c.02.02.11.07.25.19.05.05.11.1.17.16.71.71 2.21 2.71 3.92 7.95 1.46 4.48 2.32 7.24 3.48 9.15.73 1.2 1.58 2.08 2.79 2.83 3.11 1.95 4.59 4.19 2.52 4.41" class="cls-3"/><path d="M30.73 105.58c1.63.76 2.23 2.06 2.86 2.53" class="cls-4"/><path d="M33.15 105.57s-.01-.01-.02-.01M22.02 82.8s.51 9.48.04 13.56c0 0 .73-.19 3.58 2.47.09.08.17.17.26.25" class="cls-16"/><path d="M29.83 106.91s1.52 1.01 2 1.81h0" class="cls-4"/><path d="M31.84 108.73h0M27.69 101.07h0M25.89 99.08h-.02" class="cls-16"/><path d="M40.49 94.33s.12 1.68.51 5.33c0 0 4.24 8.77 1.13 13.63 0 0 0 .01-.01.02-2.68-1.59-2.82-.06-6.19-1.91-.69-.38-1.26-.69-1.73-.95l-2.21-1.22c.03-.14-.03-.31-.14-.49.14.1 2.05 1.43 1.74-.62.29.21.57.25.96 0 1.19-.77-1.15-2.38-1.39-2.54 1.53.73 2.64.22-.66-.94-1.47-.52-2.25-1.27-3.97-2.55l-1.32 1.03-3.18 2.43s-4.11-1.81-5.71-3.29c0 0-1.67-1.68-2.7-2.95-4.74-5.87-.34-19.31 1.81-21.35 2.14-2.03 6.7-3.76 6.7-3.76 9 1.9 9.47-.22 9.33-1.1 0-.04-.02-.08-.02-.12-.02-.08-.05-.14-.06-.18.02.03.04.07.05.1.75 1.35 1.19 1.65 5 4.33h.01l.25.19c.05.05.11.1.17.16 3.8 3.45 7.6 16.87 7.6 16.87-.04.07-.1.14-.2.23-.88.8-4.1 2.37-4.1 2.37l-1.69-2.71Z" class="cls-1"/><path d="M43.48 97.58s-.6 6.23.72 4.61.82-4.01 2.59-2.03 1.44 3.3 2.14 2c.69-1.3-.66-2.95-.66-2.95" class="cls-4"/><path d="M49.04 100.69s3.29 3.62 1.82.3l-1.16-1.78" class="cls-16"/><path d="M46.68 113.67c-1.39.41-1.91 1.28-1.91 1.28.76.87 1.58 2.52 1.47 3.5-.24 2.2 12.45-.75 10.04-4.84-1.22-2.07-6.56-.78-6.56-.78" class="cls-25"/><path d="M48.62 103.93s-2.53-.57-2.73 4.75c-.05 1.33 0 5.34 0 5.34s3.38-1.34 6.53-1.54c0 0 3.09-5.14 3.92-11.37s-6.26-4.4-6.26-4.4l-9.09 2.84s3.99 8.17 1.12 13.74l.9.61s1.42-1.19 2.63-2.93" class="cls-1"/><path d="M24.14 64.38s-2.93.98-1.24 3.39c1.68 2.41 3.17.29 3.17.29" class="cls-4"/><circle cx="34.65" cy="61.17" r=".68"/><path d="M32.42 60.07s.19-1.76 2.02-1.64" class="cls-26"/><path d="m24.23 66.65.58-.27" style="stroke-width:.67px;fill:none;stroke-linejoin:round;stroke-linecap:round;stroke:#000"/><circle cx="31.29" cy="64.12" r="1.43" class="cls-31"/><path d="M37.38 66.64v.01c-.09.51-.54 1-1.33 1.06-.64.06-1.09-.12-1.4-.35l.01-.02c0-.01.02-.04.04-.07.04-.05.09-.12.17-.21l.09-.09c.06-.06.12-.12.2-.18.15-.12.35-.23.58-.3.06-.01.12-.04.18-.04a.59.59 0 0 1 .14-.02c.36-.05.79 0 1.3.2Z" class="cls-32"/><path d="M34.65 67.37h.01-.01zM37.38 66.64c-.51-.21-.95-.25-1.3-.2-.05 0-.09 0-.14.02-.07 0-.12.03-.18.04-.23.07-.43.18-.58.3-.08.06-.15.12-.2.18-.04.03-.07.06-.09.09-.08.09-.13.16-.17.21-.02.03-.04.05-.04.07 0 .01-.01.02-.01.02-.43-.31-.59-.71-.59-.71-.23-1.33 1.97-1.24 1.97-1.24 1.02-.06 1.46.6 1.34 1.22ZM37.4 66.65h-.02.02Z" class="cls-31"/><path d="M36.04 65.48s-2.21-.09-1.97 1.24c0 0 .16.4.59.71.31.23.76.41 1.4.35.79-.07 1.24-.55 1.33-1.06v-.01c.12-.63-.32-1.28-1.34-1.22Z" style="stroke-width:.6px;stroke-miterlimit:10;fill:none;stroke:#000"/><path d="M35.12 51.04s-2.59 5.91-8.16 6.35c0 0 1.13 3.42-3.01 4.53" class="cls-4"/><path d="M40.49 94.33c-.54-2.17-.82-4.14-1.87-6.87" class="cls-25"/><path d="M20.48 92.38c.5 4.76 8.64 9.26 8.64 9.26l-1.91 1.47" class="cls-1"/><path d="M72.15 56.4s1.06.84 2.96.56" class="cls-4"/><circle cx="71.94" cy="19.43" r="2.15" style="stroke-width:.75px;fill:none;stroke-linejoin:round;stroke-linecap:round;stroke:#000"/><path d="m74.31 18.8 5.09-.64" class="cls-4"/><path d="m69.43 15.73 1.92-.52M69.43 16.46l1.92-.51M74.94 23.67s.67-.12.93.85" class="cls-26"/></svg>