<svg xmlns="http://www.w3.org/2000/svg" id="Calque_1" data-name="Calque 1" viewBox="0 0 128 128"><defs><style>.cls-2{stroke:#000;stroke-miterlimit:10;fill:#bfe6fc}</style></defs><path d="M53.48 11.73s1.73 6.28 7.15 6.93c5.41.65 7.36 1.08 9.75-1.95 2.38-3.03 3.03-5.85 3.03-5.85l7.36 3.03s-.43 8.66 0 12.56 2.17 7.36 5.63 8.66c3.47 1.3 12.13 55.01 12.13 62.38S96.8 112 92.9 115.03c-3.9 3.03-9.75 5.2-19.49 4.76s-24.04-1.52-28.81-2.17c-4.76-.65-11.26-1.95-13.43-7.8s-2.38-17.33 0-30.97 8.66-42.45 8.66-43.75 3.68 0 4.55-3.47c.87-3.47 1.52-16.68 1.08-17.76s8.01-2.17 8.01-2.17Z" style="stroke:#000;stroke-miterlimit:10;fill:#fce9b9;stroke-width:2px"/><circle cx="53.67" cy="25.85" r="3.71" class="cls-2"/><circle cx="72.6" cy="25.85" r="3.71" class="cls-2"/></svg>