<svg xmlns="http://www.w3.org/2000/svg" id="Calque_1" viewBox="0 0 128 128"><defs><style>.cls-1,.cls-2,.cls-3{fill:none;stroke-linecap:round;stroke-linejoin:round}.cls-1,.cls-3{stroke:#fab0b4}.cls-2,.cls-3{stroke-width:2px}.cls-2{stroke:#000}</style></defs><path d="M105.13 58.2c-.29-.11-7.17-2.84-21.64-4.33-5.48-.57-12.04-.96-19.75-.96s-14.59.41-20.1 1c-14.03 1.5-20.51 4.18-20.78 4.29.42-.43 13.02-13.35 17.75-17.34 4.82-4.07 10.49-5.99 13.81-5.99s6.84 2.67 9.57 2.67 6.37-2.67 9.47-2.67 5.99 1.18 10.8 3.42C89 40.5 104.64 57.66 105.13 58.2ZM43.93 61.07c.55 5.83 1.82 11.72 3.64 17-16.12-6.25-24.72-19.86-24.72-19.86s8.28 1.76 21.08 2.86ZM105.14 58.21s-8.95 14.16-25.71 20.23c1.88-5.34 3.2-11.36 3.76-17.3 13.29-1.1 21.95-2.93 21.95-2.93Z" class="cls-2"/><path d="M83.5 54.84c0 2.07-.1 4.18-.31 6.3-.56 5.94-1.88 11.96-3.76 17.3-3.64 10.35-9.39 14.69-15.86 14.69s-12.36-4.52-16-15.05h0c-1.82-5.29-3.09-11.18-3.64-17.01-.2-2.1-.3-4.18-.3-6.23 0-.32 0-.63.01-.93 5.51-.59 12.18-1 20.1-1s14.27.39 19.75.96c.01.32.01.64.01.97Z" style="fill:#fab0b4;stroke:#000;stroke-width:2px;stroke-linecap:round;stroke-linejoin:round"/><path d="M63.74 52.91V75.6" class="cls-2"/><path d="M93.29 84.87v4.27M93.29 96.15v4.27M87.42 92.64h2.93M96.23 92.64h2.93" class="cls-3"/><path d="M77.64 95.7v2.14M77.64 101.35v2.13M74.7 99.59h1.47M79.11 99.59h1.46" class="cls-1"/><path d="M29.78 78.44v3.41M29.78 87.46v3.41M25.09 84.66h2.34M32.13 84.66h2.34" class="cls-3"/></svg>