<svg xmlns="http://www.w3.org/2000/svg" id="Calque_1" data-name="Calque 1" viewBox="0 0 128 128"><defs><style>.cls-1,.cls-2{fill:none;stroke-linecap:round;stroke-linejoin:round}.cls-1,.cls-2,.cls-3{stroke:#000}.cls-2{stroke-width:2px}.cls-3{stroke-miterlimit:10;stroke-width:.25px}</style></defs><ellipse cx="63.72" cy="67.88" rx="8.17" ry="4.96" style="fill:#87ccf3"/><path d="M48.73 45.64s8.37-4.68 12.56 5.46" class="cls-1"/><path d="M51.28 47.78s3.06-2.49 6.68.57M57.69 51.66s-.87-.1-2.51.06c-2.96.28-4.4-1.32-4.4-1.32l.05-.53s3.89-3.42 7.94 1.39M60.87 57.13s-2.57 2.61 0 4.53M61.05 60.29s1.07.93 1.9 1.27" class="cls-1"/><path d="M53.98 23.74s2.47 6.63 6.44 6.49c3.97-.14 4.49-7.25 4.49-7.25" class="cls-2"/><path d="M47.89 29s4.88 3.53 10.06.43" class="cls-2"/><path d="M46.41 32.53s5.03.04 7.12-1.82M45.57 46.06s-4-2.28-4.17 1.52 1.43 3.49 2.51 7.24c1.08 3.75 3.42 4.32 3.42 4.32M14.04 109.95s.59-14.46 15.93-16.65c15.33-2.18 23.2-11.16 22.55-22.47" class="cls-2"/><path d="M39.92 94.33s19.64 1.38 22.21 6.28M63.2 23.21s-.61 2.62-1.8 4.45" class="cls-1"/><circle cx="54.47" cy="50.34" r="1.34" class="cls-1"/><circle cx="54.88" cy="50.32" r=".66" class="cls-3"/><path d="M79.27 45.51s-8.37-4.68-12.56 5.46" class="cls-1"/><path d="M76.72 47.65s-3.06-2.49-6.68.57M67.13 57.01s2.57 2.61 0 4.53" class="cls-1"/><path d="M80.11 28.88s-8.21 4.03-11.34-.35" class="cls-2"/><path d="M81.59 32.41s-5.09.18-7.18-1.69" class="cls-2"/><path d="M77.84 32.71s4.94 8.55 4.59 13.24c0 0 7.19-18.56-8.32-23.52 0 0-.84-3.14-4.89-2.33-5.33-4.65-10.44.12-10.44.12-4.05-.81-4.89 2.33-4.89 2.33-15.51 4.97-8.32 23.52-8.32 23.52-.35-4.68 4.59-14.14 4.59-14.14" class="cls-2"/><path d="M82.48 45.05s-.39 18.84-7.44 26.13c-7.05 7.29-10.96 6.48-10.96 6.48l.12.02s-4.19.92-11.24-6.37-7.44-26.13-7.44-26.13" class="cls-2"/><path d="M82.43 45.94s4-2.28 4.17 1.52c.17 3.79-1.43 3.49-2.51 7.24-1.08 3.75-3.42 4.32-3.42 4.32M113.96 109.83s-.59-14.46-15.93-16.65C82.7 91 74.83 82.02 75.48 70.71" class="cls-2"/><path d="M88.08 94.21s-19.64 1.38-22.21 6.28" class="cls-1"/><path d="M63.26 28.42s3.43 4.35 8.07-2.93" class="cls-2"/><path d="M58.13 65.14h11.26s-5.63 8.54-11.26 0ZM59.42 69.84s4.27 2.54 8.84-.08M70.28 51.51s.87-.1 2.51.06c2.96.28 4.4-1.32 4.4-1.32l-.05-.53s-3.89-3.42-7.94 1.39" class="cls-1"/><circle cx="73.51" cy="50.19" r="1.34" class="cls-1"/><path d="M66.95 60.29s-1.07.93-1.9 1.27" class="cls-1"/><circle cx="74.04" cy="50.19" r=".66" class="cls-3"/></svg>