<svg xmlns="http://www.w3.org/2000/svg" id="Calque_1" data-name="Calque 1" viewBox="0 0 200 128"><defs><style>.cls-3,.cls-4{stroke-width:2px}.cls-3,.cls-4,.cls-6{stroke-linecap:round;stroke-linejoin:round}.cls-3,.cls-6{stroke:#000}.cls-3,.cls-4{fill:none}.cls-4{stroke:#ff6d75}</style></defs><path d="M107.09 78.04v9.53M112.77 78.04v9.53" class="cls-4"/><path d="M170.45 93.99h-88.4l-30.78-2.66V74.82l30.87-3.19h88.31c2.1 0 3.81 1.72 3.81 3.81v14.73c0 2.1-1.72 3.81-3.81 3.81Z" class="cls-3"/><path d="M25.73 77.22h25.54v11.19H25.73z" style="stroke:#000;stroke-linecap:round;stroke-linejoin:round;stroke-width:2px;fill:#fce9b9"/><path d="M32.73 77.54v10.54M39.5 77.54v10.54" class="cls-3"/><rect width="30.41" height="10.54" x="96.31" y="77.54" class="cls-3" rx="5.27" ry="5.27"/><path d="M81.94 78.04v9.53M160.83 78.04v9.53" class="cls-3"/><circle cx="112.38" cy="43.96" r="15.28" style="fill:#fab0b4"/><path d="M127.66 43.96c0 8.44-6.84 15.28-15.28 15.28S97.1 52.4 97.1 43.96s6.84-15.28 15.28-15.28c2.62 0 5.09.66 7.24 1.82" class="cls-3"/><path d="M106.09 51.74c1.56-1.71 3.8-2.78 6.3-2.78s4.74 1.07 6.3 2.78" class="cls-3"/><circle cx="106.4" cy="41" r="1.91" class="cls-6"/><circle cx="118.36" cy="41" r="1.91" class="cls-6"/><path d="M-1179.33-3710.73h6467.34v6437.3h-6467.34z" style="stroke:#fff;stroke-width:8px;fill:none;stroke-linecap:round;stroke-linejoin:round"/></svg>