<svg xmlns="http://www.w3.org/2000/svg" id="Calque_1" data-name="Calque 1" viewBox="0 0 200 128"><defs><style>.cls-1{fill:#f387d5;stroke-miterlimit:10}.cls-1,.cls-3{stroke:#000}.cls-1,.cls-3,.cls-4{stroke-width:2px}.cls-3,.cls-4{stroke-linecap:round;stroke-linejoin:round;fill:none}.cls-4{stroke:#ff6d75}</style></defs><path d="M104.39 38.74v1.61c-.12.7-.2 1.42-.37 2.11-.58 2.46-1.76 4.65-3.23 6.69-2.3 3.19-5.1 5.88-8.19 8.27-1.53 1.18-3.15 2.25-4.73 3.37-.49.35-.95.33-1.45 0-3.4-2.2-6.63-4.61-9.48-7.5-2.25-2.28-4.21-4.78-5.55-7.73-.91-1.99-1.48-4.06-1.37-6.26.14-3.06 1.35-5.58 4.04-7.2 2.34-1.41 4.85-1.49 7.4-.62 2.18.74 3.92 2.11 5.42 3.82.09.1.18.2.23.26.74-.72 1.43-1.45 2.19-2.1 1.57-1.33 3.35-2.18 5.41-2.47 4.43-.62 8.82 2.59 9.54 7 .04.25.09.5.13.75ZM128.4 30.16v.81c-.06.35-.1.71-.18 1.05-.29 1.23-.88 2.33-1.61 3.35-1.15 1.59-2.55 2.94-4.09 4.14-.76.59-1.57 1.12-2.36 1.68-.24.17-.47.16-.73 0-1.7-1.1-3.32-2.31-4.74-3.75-1.13-1.14-2.11-2.39-2.78-3.86-.45-.99-.74-2.03-.69-3.13.07-1.53.68-2.79 2.02-3.6 1.17-.71 2.43-.75 3.7-.31 1.09.37 1.96 1.05 2.71 1.91.04.05.09.1.11.13.37-.36.71-.72 1.1-1.05a5.32 5.32 0 0 1 2.71-1.24c2.22-.31 4.41 1.3 4.77 3.5.02.13.04.25.07.38Z" class="cls-1"/><path d="M106.29 78.04v9.53M111.97 78.04v9.53" class="cls-4"/><path d="M169.65 93.99h-88.4l-30.78-2.66V74.82l30.87-3.19h88.31c2.1 0 3.81 1.72 3.81 3.81v14.73c0 2.1-1.72 3.81-3.81 3.81Z" class="cls-3"/><path d="M24.93 77.22h25.54v11.19H24.93z" style="stroke-linecap:round;stroke-linejoin:round;fill:#fce9b9;stroke-width:2px;stroke:#000"/><path d="M31.93 77.54v10.54M38.7 77.54v10.54" class="cls-3"/><rect width="30.41" height="10.54" x="95.51" y="77.54" class="cls-3" rx="5.27" ry="5.27"/><path d="M81.14 78.04v9.53M160.03 78.04v9.53" class="cls-3"/><path d="M-712.65-3710.73h6467.34v6437.3H-712.65z" style="stroke:#fff;stroke-width:8px;fill:none;stroke-linecap:round;stroke-linejoin:round"/></svg>