<svg xmlns="http://www.w3.org/2000/svg" id="Calque_1" viewBox="0 0 200 128"><defs><style>.cls-10,.cls-11,.cls-2,.cls-3,.cls-5,.cls-7,.cls-8,.cls-9{stroke:#000;stroke-miterlimit:10}.cls-10,.cls-11,.cls-12{fill:#d6d6d6}.cls-3{fill:#b4eac3}.cls-5,.cls-9{fill:#fff}.cls-7{fill:#87ccf3}.cls-8{fill:#a07637}.cls-11,.cls-9{stroke-width:2px}</style></defs><path d="M-1753.01-260.57H902.07V1251.2h-2655.08z" style="fill:none;stroke:#e30613;stroke-linecap:round;stroke-linejoin:round;stroke-width:8px"/><path d="m152.97 98 30.03-.25.01-1.61-30.04-1.85V98z" class="cls-10"/><path d="M174.94 98.46h3a2.86 2.86 0 0 0 0-4.05h-3a2.86 2.86 0 0 0 0 4.05ZM69.62 31.21h39.84v-.04c0-2.1-1.7-3.8-3.79-3.8H73.42c-2.1 0-3.79 1.7-3.79 3.79v.04Z" class="cls-10"/><path d="M14.78 79.54c.12.67.26 1.34.42 2 .09.39.19.78.3 1.17.08.33.17.67.26 1 .09.33.19.67.3 1 .1.35.21.7.33 1.05.06.21.13.41.2.62.09.28.19.57.3.85a52.093 52.093 0 0 0 2.03 4.9c.18.39.37.79.57 1.18 1.37 2.74 4.14 4.5 7.19 4.63l42.34 1.8c1.67.07 3.34.13 5.01.19h.12c1.64.05 3.27.1 4.91.13.17.01.34.01.51.01 1.44.04 2.88.06 4.32.07 7.43.09 14.87 0 22.31-.26 1.29-.04 2.57-.09 3.86-.14l42.34-1.8c3.05-.13 5.82-1.89 7.19-4.63.03-.06.06-.11.08-.17.16-.34.32-.67.48-1.01.19-.4.38-.8.56-1.21.17-.39.34-.78.5-1.17.35-.84.67-1.68.97-2.52.11-.28.21-.57.3-.85.07-.21.14-.41.2-.62.12-.35.23-.7.33-1.05.11-.33.21-.67.3-1 .09-.33.18-.67.26-1 .11-.39.21-.78.3-1.17.16-.66.3-1.33.42-2 2.41-12.36.11-25.11-6.87-36.75-.1-.17-.2-.33-.3-.5H21.95c-.1.17-.2.33-.3.5-4.17 6.96-6.68 14.32-7.49 21.75-.56 5-.35 10.03.62 15ZM21.95 42.29h135.18l-.29-.5-4.25-7.24a9.114 9.114 0 0 0-7.86-4.51H34.35c-3.23 0-6.23 1.72-7.86 4.51l-4.25 7.24-.29.5Z" class="cls-9"/><path d="M69.02 99.74h41.04l-1.6-5.02-.62-1.93a6.649 6.649 0 0 0-6.33-4.62H77.57c-2.89 0-5.45 1.87-6.33 4.62l-2.22 6.95Z" class="cls-8"/><path d="M94.11 97.08c0 2.85 2.31 5.17 5.17 5.17s5.17-2.31 5.17-5.17-2.31-5.17-5.17-5.17-5.17 2.31-5.17 5.17Z" class="cls-12"/><path d="M91.17 97.09c0 4.48 3.64 8.1 8.11 8.1 4.48 0 8.11-3.64 8.1-8.11 0-4.48-3.64-8.1-8.11-8.1-4.48 0-8.1 3.64-8.1 8.11Zm3.12 0c0-2.76 2.23-4.99 4.99-4.99 2.76 0 4.99 2.23 4.99 4.99 0 2.76-2.23 4.99-4.99 4.99-2.76 0-4.99-2.23-4.99-4.99Z" class="cls-2"/><path d="M74.63 97.08c0 2.85 2.31 5.17 5.17 5.17s5.17-2.31 5.17-5.17-2.31-5.17-5.17-5.17a5.17 5.17 0 0 0-5.17 5.17Z" class="cls-12"/><path d="M71.69 97.09c0 4.48 3.64 8.1 8.11 8.1 4.48 0 8.11-3.64 8.1-8.11 0-4.48-3.64-8.1-8.11-8.1-4.48 0-8.1 3.64-8.1 8.11Zm3.12 0c0-2.76 2.23-4.99 4.99-4.99 2.76 0 4.99 2.23 4.99 4.99 0 2.76-2.23 4.99-4.99 4.99-2.76 0-4.99-2.23-4.99-4.99Z" class="cls-2"/><path d="M14.78 79.54c.12.67.26 1.34.42 2h148.68c.16-.66.3-1.33.42-2H14.78Z" class="cls-8"/><path d="M77.86 59.36v-7.81c0-1.24 1.01-2.25 2.25-2.25h18.86c1.24 0 2.24 1.01 2.24 2.25v7.81c0 1.24-1.01 2.24-2.24 2.24H80.11c-1.24 0-2.25-1.01-2.25-2.24Z" class="cls-7"/><path d="M135.41 33.1h10.75v6.13h-10.75z" class="cls-5"/><path d="M136.35 34.32c0 .15.12.28.28.28h8.31a.28.28 0 1 0 0-.56h-8.31a.28.28 0 0 0-.28.28ZM136.35 35.24c0 .15.12.28.28.28h8.31a.28.28 0 1 0 0-.56h-8.31a.28.28 0 0 0-.28.28ZM136.35 36.16c0 .15.12.28.28.28h8.31a.28.28 0 1 0 0-.56h-8.31a.28.28 0 0 0-.28.28ZM136.35 37.09c0 .15.12.28.28.28h8.31a.28.28 0 1 0 0-.56h-8.31a.28.28 0 0 0-.28.28ZM136.35 38.01c0 .15.12.28.28.28h8.31a.28.28 0 1 0 0-.56h-8.31a.28.28 0 0 0-.28.28Z" class="cls-12"/><path d="M32.92 33.1h10.75v6.13H32.92z" class="cls-5"/><path d="M33.86 34.32c0 .15.12.28.28.28h8.31a.28.28 0 1 0 0-.56h-8.31a.28.28 0 0 0-.28.28ZM33.86 35.24c0 .15.12.28.28.28h8.31a.28.28 0 1 0 0-.56h-8.31a.28.28 0 0 0-.28.28ZM33.86 36.16c0 .15.12.28.28.28h8.31a.28.28 0 1 0 0-.56h-8.31a.28.28 0 0 0-.28.28ZM33.86 37.09c0 .15.12.28.28.28h8.31a.28.28 0 1 0 0-.56h-8.31a.28.28 0 0 0-.28.28ZM33.86 38.01c0 .15.12.28.28.28h8.31a.28.28 0 1 0 0-.56h-8.31a.28.28 0 0 0-.28.28Z" class="cls-12"/><path d="M15.5 82.71c.08.33.17.67.26 1 .09.33.19.67.3 1h146.96c.11-.33.21-.67.3-1 .09-.33.18-.67.26-1H15.5Z" class="cls-3"/><path d="M15.88 84.71c-.67 0-1.16.65-.97 1.29a54.91 54.91 0 0 0 3.35 8.31c1.37 2.74 4.14 4.5 7.19 4.63 0 0 33.64 1.55 41.83 1.92a2.13 2.13 0 0 0 2.16-1.61l1.14-4.43-31.02-1.77a7.021 7.021 0 0 1-4.34-1.83l-7.09-6.51H15.87Z" class="cls-11"/><path d="m21.61 91.91 3.87.02c.8 0 1.19-.98.6-1.53l-3.07-2.85a.892.892 0 0 0-.6-.24h-2.67c-.7 0-1.12.78-.74 1.37l1.87 2.83c.16.25.44.39.73.39Z" class="cls-10"/><path d="m108.46 94.72 1.6 5.02 42.34-1.8c3.05-.13 5.82-1.89 7.19-4.63.03-.06.06-.11.08-.17l-51.21 1.58Z" class="cls-11"/><path d="M14.78 79.54H79.8v-.15c0-8.2-6.65-14.85-14.85-14.85H14.16c-.56 5-.35 10.03.62 15Z" class="cls-10"/><path d="M149.35 52.61v6.29h-35.96v-6.29c0-1.55 1.26-2.8 2.81-2.8h30.35c1.55 0 2.8 1.25 2.8 2.8Z" style="fill-rule:evenodd;fill:#d6d6d6;stroke:#000;stroke-miterlimit:10"/><path d="M149.35 58.9v6.29c0 1.55-1.25 2.8-2.8 2.8H116.2c-1.55 0-2.81-1.25-2.81-2.8V58.9h35.96Z" style="fill:#87ccf3;fill-rule:evenodd;stroke:#000;stroke-miterlimit:10"/><rect width="35.96" height="18.19" x="29.72" y="49.8" class="cls-7" rx="2.81" ry="2.81"/><path d="M10.24 104.39h181.79" class="cls-3"/></svg>