<svg xmlns="http://www.w3.org/2000/svg" id="Calque_1" viewBox="0 0 200 128"><defs><style>.cls-1,.cls-10,.cls-2,.cls-4,.cls-8{stroke:#000;stroke-miterlimit:10}.cls-1{fill:#baa584}.cls-2{fill:#b2f0e9}.cls-4{fill:none}.cls-8{fill:#a07637}.cls-10{fill:#d6d6d6}</style></defs><path d="M-1976.67-260.57H678.41V1251.2h-2655.08z" style="fill:none;stroke:#e30613;stroke-linecap:round;stroke-linejoin:round;stroke-width:8px"/><path d="M173.05 81.75h-11.58v-21.1h-21.41v19.8H128.5v-12.1h-9.98v51.54h52.61V83.94h1.92v-2.19zM55.06 74.06h-5.51v-4.08h1.66v-3.03H32.43v3.03h1.9v49.78h34.14V47.99H55.06v26.07z" class="cls-10"/><path d="M132.3 65.8h6.51v2.95h-6.51zM59.97 26.81h6.51v2.95h-6.51zM59.97 34.23h6.51v2.95h-6.51z" class="cls-8"/><path d="M136.6 32.88h10.36v42.11H136.6z" style="fill:#fee4cb;stroke-width:2px;stroke:#000;stroke-miterlimit:10" transform="rotate(-180 141.775 53.935)"/><path d="M140.15 42.87v-4.09h.85v1.56h1.59v-1.56h.85v4.09h-.85v-1.83H141v1.83h-.85ZM143.15 48.99c-.31.32-.76.48-1.34.48s-1.03-.16-1.34-.48c-.41-.39-.62-.95-.62-1.69s.21-1.31.62-1.69c.31-.32.76-.48 1.34-.48s1.03.16 1.34.48c.41.38.62.94.62 1.69s-.21 1.3-.62 1.69Zm-.53-.62c.2-.25.3-.6.3-1.06s-.1-.81-.3-1.06c-.2-.25-.47-.38-.81-.38s-.61.12-.81.38c-.2.25-.3.6-.3 1.07s.1.82.3 1.06c.2.25.47.38.81.38s.61-.12.81-.38ZM143.44 51.74v.72h-1.22v3.37h-.86v-3.37h-1.23v-.72h3.31ZM143.34 58.94h-2.16v.87h1.99v.71h-1.99v1.05h2.26v.74h-3.1v-4.09h3v.72ZM140.47 64.69h.85v3.35h2.04v.74h-2.9v-4.09Z"/><path d="M65.81 16.83h66.49v102.93H65.81z" style="fill:#fce9b9;stroke-width:2px;stroke:#000;stroke-miterlimit:10" transform="rotate(-180 99.055 68.295)"/><path d="M85.89 50.08H73.54v-2.12h12.35zM105.29 50.08H92.94v-2.12h12.35zM124.69 50.08h-12.35v-2.12h12.35zM85.89 81.67H73.54v-2.12h12.35z" class="cls-1"/><path d="M83.45 61.3h-7.64v16.88h7.64V61.3ZM102.85 61.3h-7.64v16.88h7.64V61.3ZM122.34 61.3h-7.64v16.88h7.64V61.3ZM83.45 29.71h-7.64v16.88h7.64V29.71ZM102.85 29.71h-7.64v16.88h7.64V29.71ZM122.34 29.71h-7.64v16.88h7.64V29.71Z" class="cls-2"/><path d="M105.29 81.67H92.94v-2.12h12.35zM124.69 81.67h-12.35v-2.12h12.35zM118.45 119.76H79.79V93.64h38.66z" class="cls-1"/><path d="M115.15 119.76H83.08V96.83h32.07z" class="cls-8"/><path d="M65.81 16.83h66.49v3.99H65.81z" style="stroke-width:2px;fill:#baa584;stroke:#000;stroke-miterlimit:10"/><path d="M65.81 55.47h66.49v1.99H65.81zM65.81 86.19h66.49v1.99H65.81z" class="cls-1"/><path d="M99.03 96.83v22.93" class="cls-4"/><path d="M22.41 119.89h159.32" class="cls-10"/><path d="M44.8 24.41h15.17v15.17H44.8z" style="stroke-width:2px;fill:#8987f3;stroke:#000;stroke-miterlimit:10"/><path d="M56.7 32.62a4.368 4.368 0 1 1-5.22-5.22c-.07.31-.11.63-.11.96 0 2.42 1.96 4.37 4.37 4.37.33 0 .65-.04.96-.11Z" style="fill:#fee4cb;stroke:#000;stroke-miterlimit:10"/><path d="M94.84 109.77h2.04M100.76 109.77h2.05" class="cls-4"/></svg>