<svg xmlns="http://www.w3.org/2000/svg" id="Calque_1" data-name="Calque 1" viewBox="0 0 128 128"><defs><style>.cls-2{fill:none}.cls-2,.cls-4,.cls-5,.cls-7{stroke:#000}.cls-2,.cls-4{stroke-linecap:round;stroke-linejoin:round}.cls-4,.cls-5,.cls-7{fill:#fff}.cls-5{stroke-width:6.49px}.cls-5,.cls-7{stroke-miterlimit:10}</style></defs><path d="m41.847 44.473 7.31-.65 2.019 22.701-7.311.65zM94.77 96.09l3.64-1.51 2.14 4.73-3.77 1.65-2.01-4.87z" class="cls-7"/><path d="m97.25 103.73-.52-1.21c-.16-.37-.27-.76-.32-1.16l-.12-.83-.02-.13c-.04-.25.22-.44.45-.33l.26.13c1.12.4 2.36-.18 2.76-1.3l-.26-.37c-.25-.35-.28-.82-.07-1.2.08-.14.24-.2.39-.16 0 0 2.28.6 2.31.61.01 0 .07.02.08.02.03 0 .07.02.1.03.02 0 .04.01.06.02h.01c.03 0 .85.18.87.18.01 0 .48.07.5.07h.06c.03 0 .06 0 .1.01h.03c.07 0 .14.01.21.02h.04c.03 0 .55.03.65.03h.32c.13 0 .4-.01.41-.02h.27c.4-.03.79-.09 1.18-.16l1.55-.3c.67-.13 1.34.22 1.61.85s.02.06.02.06c.11.3.14.62.11.92v.04c-.08.63-.44 1.21-1.03 1.51-.04.02-.08.04-.13.06l-9.88 4.23c-.56.24-1.12.12-1.43-.38-.05-.07-.07-.2 0-.24l-.29-.44c-.12-.17-.22-.36-.3-.55Z" class="cls-7"/><circle cx="82.04" cy="108.1" r="4.07" style="stroke-width:5.57px;stroke-miterlimit:10;fill:#fff;stroke:#000"/><path d="m43.165 67.435 35.998-3.2 1.383 15.549-35.999 3.2z" class="cls-7"/><path d="M66.33 41.2s-.25-6.23-2.99-7.92c-1.1-.68-2.37-1.12-3.75-1.16l-6.67.55s-3.91 1.4-5.59 4.45c-1.11 2.01-1.6 4.66-1.16 8.73.63 5.79 2.26 13.39 3.26 21.97 0 0 13.18-.16 16.58-4.86.71-.99.33-21.23.32-21.77Z" style="fill:#fab0b4;stroke-miterlimit:10;stroke:#000"/><path d="M49.42 67.83c-.43 2.56 5.05 6.22 9.83 7.72 12.18 3.83 22.04 1.13 27.25-1.2 0 0-.25 1.32 1.34 6.62 1.18 3.93 4.44 10.79 6.92 15.13 0 0 4.23-.73 5.29-2.34 0 0-4.32-18.37-6.68-24.87-.85-2.34-2.51-4.11-4.96-4.55C82.97 63.35 66 62.98 66 62.98c-9.38 4.86-16.58 4.86-16.58 4.86Z" style="fill:#87ccf3;stroke-miterlimit:10;stroke:#000"/><circle cx="46.75" cy="90.5" r="23.58" style="fill:none" transform="rotate(-80.47 46.762 90.509)"/><circle cx="82.01" cy="108.09" r="6.53" class="cls-5"/><circle cx="46.75" cy="90.5" r="20.81" class="cls-5"/><path d="M110.26 101.72c-.26-.53-.93-.73-1.48-.5l-9.81 4.22-9.58-21.3a1.28 1.28 0 0 0-1.68-.65l-6.61 2.84-2.41-27.16c-.08-.85-.83-1.49-1.68-1.41l-.65.06-31.61 2.81-2.43-27.33c-.08-.92-.9-1.61-1.82-1.53l-11.65 1.01a1.099 1.099 0 1 0 .19 2.19l9.81-.87c.73-.06 1.37.47 1.43 1.2l5.17 58.12c.05.57.52 1.05 1.09 1.05.66 0 1.16-.56 1.11-1.2l-2.71-30.44 30.35-2.7c.7-.06 1.32.45 1.38 1.15l4.2 47.23c.05.61.6 1.1 1.2 1.1a1 1 0 0 0 1.01-1.1l-1.77-19.87 5.62-2.41c.46-.2.99 0 1.2.47l9.24 20.54c.28.62 1 .89 1.62.61l.71-.32 10.02-4.31c.58-.25.83-.93.55-1.5Z" style="fill:#d6d6d6;stroke-miterlimit:10;stroke:#000"/><path d="M50.38 46.18c2.96-.24 5.57-2.52 5.57-2.52 1.22 2.21 3.42 8.59 4.93 10.44.61.75 3.31.04 12.2.71.64.05 2.52.21 4.35 1.43.34.23 2.47 1.67 2.38 3.16-.06.97-.49 2.38-3.06 1.36-.79-.31-2.23-1.91-4.26-2.6 0 0-8.52 2.34-13.93.94-2.89-.75-8.19-12.92-8.19-12.92ZM54.23 37.81c1.13 1.46 1.78 3.15 2.38 4.88.04.12.23.07.19-.05-.61-1.76-1.27-3.48-2.43-4.96-.08-.1-.22.04-.14.14ZM49.85 46.32c.14.01.28.01.42 0a.1.1 0 0 0 0-.2h-.42c-.05 0-.1.05-.1.1 0 .06.04.1.1.1Z" class="cls-7"/><path d="M56.09 43.68c.16-.12.29-.27.42-.41.07-.07.13-.15.18-.23.05-.09.09-.19.13-.28.02-.05-.02-.11-.07-.12-.06-.02-.1.02-.12.07-.03.08-.07.16-.11.24-.02.04-.04.07-.07.11-.03.03-.06.07-.09.1-.12.13-.23.26-.37.37-.04.03-.07.09-.04.14.02.04.09.07.14.04Z" class="cls-7"/><path d="M61.48 32.44c.14-.25-2.16-6.01-2.16-6.01l-4.76 1.61s-1.25 2.82-1.64 4.63c0 0 5.21 5.85 8.57-.23Z" class="cls-4"/><path d="M55.11 13.09s.11 1.13-.24 1.94h-.01M53.12 15.66c-.94-.44-1.67-1.7-1.67-1.7" class="cls-2"/><path d="M51.2 26.33h-.01c-.11-.01-.86-.14-1.39-1.26-.58-1.21-1.1-1.02-1.27-2.31-.14-1.22 1.17-.8 1.32-.74" style="stroke-width:.7px;fill:#fff;stroke-linecap:round;stroke-linejoin:round;stroke:#000"/><path d="M59.88 12.81s-.12 2.02-1.08 2.28" class="cls-2"/><path d="M51.31 16.38c.56-.02 1.2-.21 1.81-.72.29.14.58.2.88.14.43-.08.69-.4.86-.77.01 0 .02.02.03.02.13.1.97.72 1.85-.3.55.56 1.35.55 2.07.35.47.3 1.06.21 1.06.21.04.05.09.1.12.15 2.02 2.38 2.35 4.08 2.38 4.26.07-.46.11-.9.14-1.31-.03.77-.12 1.33-.15 1.45h0v.03h0c.09.72.24 2.82.11 4.77-.11 1.62-1.34 5.18-3.22 5.71-4.35 1.23-7.71-3.37-8.33-4.87-.75-1.8-.92-2.78-1.07-3.48h0c-.02-.08-.04-.16-.04-.26.03.07.06.11.06.11-.05-.3-.08-.59-.1-.88.06-1.51 1.21-4.1 1.33-4.54l.2-.05Z" class="cls-4"/><path d="M49.78 20.97c-.02.29 0 .55.04.78" class="cls-2"/><path d="M49.86 22.01s0-.01-.01-.02h0c-.07-.14-.46-.84-.77-1.82v-.03c-.62-1.95-.91-4.95 2.28-6.58 0 0 .11-1.11 1.52-1.06 0 0 1.46-1.91 3.54-.63 1.32-.5 1.78.51 1.78.51 3.81.55 4.35 3.89 4.31 5.92v.11" class="cls-2"/><path d="M60.04 15.65s2.17 2.62 2.31 4.23M49.79 21.71h0s.02.13.05.27h0v.03M62.36 19.88v-.02" class="cls-2"/><path d="M62.32 19.57s.02.1.04.28M57.43 13.57c-.2.47-.42.83-.62 1.09-.03.04-.04.07-.07.08M54.89 15.04l-.02-.02M9.1 112.22h111.63" class="cls-2"/><path d="M-80.77-59.99H1366.3v727.52H-80.77z" style="stroke:#fff;stroke-width:8px;stroke-linecap:round;stroke-linejoin:round;fill:none"/></svg>