<svg xmlns="http://www.w3.org/2000/svg" id="Calque_1" data-name="Calque 1" viewBox="0 0 128 128"><defs><style>.cls-1,.cls-2,.cls-3,.cls-4{stroke:#000;stroke-linecap:round;stroke-linejoin:round}.cls-1,.cls-4{fill:none}.cls-2{fill:#d6d6d6}.cls-2,.cls-3,.cls-4{stroke-width:2px}.cls-3{fill:#b4eac3}</style></defs><path d="M99.78 69v3.82H64.96a23.39 23.39 0 0 0-9.76-5.96l-9.18-34.12 3.53-.95c2.91-.78 5.9.94 6.68 3.85l3.38 12.56h-1.5c-2.17 0-3.94 1.77-3.94 3.94 0 1.09.44 2.07 1.16 2.79.71.72 1.69 1.16 2.78 1.16h3.62l.97 3.62c.64 2.36 2.78 4 5.23 4h26.56c2.92 0 5.29 2.37 5.29 5.29Z" class="cls-3"/><path d="m54.86 65.9-1.64.44c-1.61-.36-3.28-.54-5-.54-.94 0-1.86.06-2.77.17L35.04 27.26c-.25-.95.31-1.92 1.25-2.18l5.37-1.44c.95-.26 1.92.3 2.18 1.25L54.86 65.9Z" class="cls-4"/><path d="M94.23 52.14c0 2.17-1.78 3.95-3.95 3.95H58.11c-1.09 0-2.07-.44-2.78-1.16-.72-.72-1.16-1.7-1.16-2.79 0-2.17 1.77-3.94 3.94-3.94h32.17c1.08 0 2.07.44 2.79 1.16s1.16 1.69 1.16 2.78Z" class="cls-3"/><path d="M61.99 75.47c-3.53-3.51-8.39-5.68-13.77-5.68s-10.18 2.15-13.71 5.66c-3.56 3.51-5.77 8.41-5.77 13.83s2.21 10.31 5.77 13.84c3.53 3.49 8.37 5.65 13.71 5.65s10.21-2.16 13.73-5.65c3.56-3.53 5.77-8.43 5.77-13.84S65.53 79 61.99 75.47Z" class="cls-4"/><path d="M61.99 75.47a19.611 19.611 0 0 0-6.47-4.27c-2.25-.91-4.72-1.41-7.3-1.41-5.34 0-10.18 2.15-13.71 5.66a19.363 19.363 0 0 0-5.77 13.83 19.431 19.431 0 0 0 5.77 13.84c1.84 1.82 4.04 3.28 6.48 4.25 2.24.91 4.67 1.4 7.23 1.4 2.7 0 5.28-.55 7.61-1.54h0a19.44 19.44 0 0 0 6.12-4.11 19.28 19.28 0 0 0 4.31-6.45c.94-2.28 1.46-4.78 1.46-7.39 0-5.4-2.19-10.28-5.73-13.81ZM51.91 93c-.95.94-2.25 1.52-3.69 1.52s-2.71-.58-3.66-1.51c-.96-.95-1.57-2.28-1.57-3.73a5.239 5.239 0 0 1 5.23-5.23c1.44 0 2.76.59 3.72 1.53.94.94 1.53 2.25 1.53 3.7s-.61 2.78-1.56 3.72Z" class="cls-4"/><path d="M53.47 89.28c0 1.45-.61 2.78-1.56 3.72-.95.94-2.25 1.52-3.69 1.52s-2.71-.58-3.66-1.51c-.96-.95-1.57-2.28-1.57-3.73a5.239 5.239 0 0 1 5.23-5.23c1.44 0 2.76.59 3.72 1.53.94.94 1.53 2.25 1.53 3.7Z" class="cls-2"/><path d="M64.81 72.64c-4.25-4.24-10.1-6.84-16.59-6.84s-12.27 2.59-16.53 6.81c-4.28 4.24-6.94 10.14-6.94 16.67s2.66 12.42 6.94 16.68c4.26 4.2 10.09 6.81 16.53 6.81s12.3-2.61 16.55-6.81c4.28-4.26 6.95-10.16 6.95-16.68s-2.64-12.39-6.91-16.64Zm-2.86 30.48c-3.52 3.49-8.37 5.65-13.73 5.65s-10.18-2.16-13.71-5.65c-3.56-3.53-5.77-8.43-5.77-13.84s2.21-10.32 5.77-13.83c3.53-3.51 8.37-5.66 13.71-5.66s10.24 2.17 13.77 5.68c3.54 3.53 5.73 8.41 5.73 13.81s-2.21 10.31-5.77 13.84ZM100.99 88.63c-1.18-.37-2.44-.57-3.74-.57-1.58 0-3.09.29-4.47.84a12.339 12.339 0 0 0-7.89 11.52c0 6.82 5.53 12.35 12.36 12.35s12.35-5.53 12.35-12.35c0-5.52-3.62-10.2-8.61-11.79Zm-3.74 17.75a5.964 5.964 0 1 1 0-11.93c3.3 0 5.96 2.67 5.96 5.97s-2.67 5.96-5.96 5.96Z" class="cls-2"/><path d="M103.21 100.42c0 3.29-2.67 5.96-5.96 5.96s-5.97-2.67-5.97-5.96 2.67-5.97 5.97-5.97 5.96 2.67 5.96 5.97Z" class="cls-4"/><path d="M103.21 100.42c0 3.29-2.67 5.96-5.96 5.96s-5.97-2.67-5.97-5.96 2.67-5.97 5.97-5.97 5.96 2.67 5.96 5.97ZM104.64 74.59v5.55c0 .98-.8 1.77-1.78 1.77H70.52a23.192 23.192 0 0 0-5.56-9.09h37.9c.98 0 1.78.79 1.78 1.77Z" class="cls-4"/><path d="M48.22 108.77V94.68M48.22 83.88V69.79M67.72 89.28h-14.1M42.83 89.28H28.74M44.44 93.13l-9.94 9.99M61.99 75.47l-9.94 9.99M61.95 103.12l-9.93-10M44.42 85.45l-9.92-10M55.82 107.23l-5.49-12.97M46.11 84.31l-5.49-12.97M66.17 81.68l-12.98 5.49M43.25 91.38l-12.97 5.5M46.24 94.3l-5.25 13.08M55.51 71.2l-5.26 13.07M66.26 96.67l-13.04-5.34M43.22 87.24l-13.03-5.35" class="cls-1"/><path d="M100.99 81.91v6.72c-1.18-.37-2.44-.57-3.74-.57-1.58 0-3.09.29-4.47.84v-6.99h8.21Z" class="cls-4"/><rect width="14.02" height="4.4" x="12.6" y="24.56" class="cls-3" rx="2.2" ry="2.2"/><path d="M26.62 26.75h5.08l5.18 7.08" class="cls-1"/></svg>