<svg xmlns="http://www.w3.org/2000/svg" id="Calque_1" data-name="Calque 1" viewBox="0 0 200 128"><defs><style>.cls-2,.cls-3,.cls-4,.cls-5{stroke:#000}.cls-3{fill:#ffd4ad}.cls-2{fill:#fff}.cls-2,.cls-3,.cls-4,.cls-5{stroke-miterlimit:10}.cls-4{fill:#87ccf3}.cls-5{fill:none}</style></defs><path d="M2.3 90.4h195.4" style="stroke-linecap:round;stroke-linejoin:round;fill:#ffd4ad;stroke:#000"/><path d="M40.71 58.75v12.89c-15.53-4.6-26.74-1.56-30.73-.11V57.51c0-.72.58-1.29 1.3-1.29s1.29.58 1.29 1.29v1.24h25.51v-1.24c0-.72.58-1.29 1.3-1.29s1.29.58 1.29 1.29v1.24h.03Z" class="cls-3"/><path d="M22.05 71.64c-2.59.28-5.2.28-7.83.01-.94 1.13-2.12.35-1.38-1.13-.07-.38-.12-.76-.16-1.15-.13-1.3-.07-2.61.18-3.91-.82-1.59.55-2.4 1.52-.96 2.52-.14 5.03-.14 7.52 0 .97-1.45 2.31-.53 1.46 1.09.39 1.6.4 3.2.02 4.81.86 1.56-.36 2.42-1.33 1.24ZM36.46 71.64c-2.59.28-5.2.28-7.83.01-.94 1.13-2.12.35-1.38-1.13-.07-.38-.12-.76-.16-1.15-.13-1.3-.07-2.61.18-3.91-.82-1.59.55-2.4 1.52-.96 2.52-.14 5.03-.14 7.52 0 .97-1.45 2.31-.53 1.46 1.09.39 1.6.4 3.2.02 4.81.86 1.56-.36 2.42-1.33 1.24Z" class="cls-2"/><path d="M8.38 73.7h33.86v8.2H8.38zM8.38 72.19V90.4H5.79V72.19c0-.72.58-1.3 1.29-1.3s1.3.58 1.3 1.3Z" class="cls-3"/><path d="M44.83 72.12v18.21h-2.59V72.12c0-.72.58-1.29 1.3-1.29s1.29.58 1.29 1.29Z" class="cls-3"/><path d="M42.24 72.12v1.58H8.38v-1.51s.55-.27 1.6-.66c3.99-1.46 15.19-4.5 30.73.11.5.16 1.01.31 1.53.48Z" class="cls-4"/><path d="M47.99 74.49v14.94" class="cls-5"/><path d="m45.95 76.14.36.35 1.68-1.81 1.68 1.81.37-.35-2.05-2.19-2.04 2.19zM45.95 87.77l.36-.34 1.68 1.81 1.68-1.81.37.34-2.05 2.2-2.04-2.2z"/><path d="M91.42 63.5v12.89c-15.53-4.6-26.74-1.56-30.73-.11V62.26c0-.72.58-1.29 1.3-1.29s1.29.58 1.29 1.29v1.24h25.51v-1.24c0-.72.58-1.29 1.3-1.29s1.29.58 1.29 1.29v1.24h.03Z" class="cls-3"/><path d="M72.76 76.39c-2.59.28-5.2.28-7.83.01-.94 1.13-2.12.35-1.38-1.13-.07-.38-.12-.76-.16-1.15-.13-1.3-.07-2.61.18-3.91-.82-1.59.55-2.4 1.52-.96 2.52-.14 5.03-.14 7.52 0 .97-1.45 2.31-.53 1.46 1.09.39 1.6.4 3.2.02 4.81.86 1.56-.36 2.42-1.33 1.24ZM87.17 76.39c-2.59.28-5.2.28-7.83.01-.94 1.13-2.12.35-1.38-1.13-.07-.38-.12-.76-.16-1.15-.13-1.3-.07-2.61.18-3.91-.82-1.59.55-2.4 1.52-.96 2.52-.14 5.03-.14 7.52 0 .97-1.45 2.31-.53 1.46 1.09.39 1.6.4 3.2.02 4.81.86 1.56-.36 2.42-1.33 1.24Z" class="cls-2"/><path d="M59.09 78.45h33.86v8.2H59.09zM59.09 76.74v13.65H56.5V76.74c0-.61.58-1.11 1.29-1.11s1.3.5 1.3 1.11ZM95.54 76.68v13.65h-2.59V76.68c0-.61.58-1.1 1.3-1.1s1.29.49 1.29 1.1Z" class="cls-3"/><path d="M92.95 76.87v1.58H59.09v-1.51s.55-.27 1.6-.66c3.99-1.46 15.19-4.5 30.73.11.5.16 1.01.31 1.53.48Z" class="cls-4"/><path d="M99.21 78.99v10.44" class="cls-5"/><path d="m97.17 80.65.37.34 1.67-1.81 1.68 1.81.37-.34-2.05-2.2-2.04 2.2zM97.17 87.77l.37-.34 1.67 1.81 1.68-1.81.37.34-2.05 2.2-2.04-2.2z"/><path d="M142.64 67.25v12.89c-15.53-4.6-26.74-1.56-30.73-.11V66.01c0-.72.58-1.29 1.3-1.29s1.29.58 1.29 1.29v1.24h25.51v-1.24c0-.72.58-1.29 1.3-1.29s1.29.58 1.29 1.29v1.24h.03Z" class="cls-3"/><path d="M123.98 80.13c-2.59.28-5.2.28-7.83.01-.94 1.13-2.12.35-1.38-1.13-.07-.38-.12-.76-.16-1.15-.13-1.3-.07-2.61.18-3.91-.82-1.59.55-2.4 1.52-.96 2.52-.14 5.03-.14 7.52 0 .97-1.45 2.31-.53 1.46 1.09.39 1.6.4 3.2.02 4.81.86 1.56-.36 2.42-1.33 1.24ZM138.39 80.13c-2.59.28-5.2.28-7.83.01-.94 1.13-2.12.35-1.38-1.13-.07-.38-.12-.76-.16-1.15-.13-1.3-.07-2.61.18-3.91-.82-1.59.55-2.4 1.52-.96 2.52-.14 5.03-.14 7.52 0 .97-1.45 2.31-.53 1.46 1.09.39 1.6.4 3.2.02 4.81.86 1.56-.36 2.42-1.33 1.24Z" class="cls-2"/><path d="M110.31 82.19h33.86v8.2h-33.86zM110.31 80.09v10.3h-2.59v-10.3c0-.41.58-.74 1.29-.74s1.3.33 1.3.74Z" class="cls-3"/><path d="M146.76 80.05v10.3h-2.59v-10.3c0-.41.58-.73 1.3-.73s1.29.33 1.29.73Z" class="cls-3"/><path d="M144.17 80.61v1.58h-33.86v-1.51s.55-.27 1.6-.66c3.99-1.46 15.19-4.5 30.73.11.5.16 1.01.31 1.53.48Z" class="cls-4"/><path d="M150.47 82.44v7.62" class="cls-5"/><path d="m148.42 84.1.37.34 1.68-1.81 1.68 1.81.36-.34-2.04-2.2-2.05 2.2zM148.42 88.4l.37-.34 1.68 1.8 1.68-1.8.36.34-2.04 2.2-2.05-2.2z"/><path d="M172.64 83.07c-2.59.28-5.2.28-7.83.01-.94 1.13-2.12.35-1.38-1.13-.07-.38-.12-.76-.16-1.15-.13-1.3-.07-2.61.18-3.91-.82-1.59.55-2.4 1.52-.96 2.52-.14 5.03-.14 7.52 0 .97-1.45 2.31-.53 1.46 1.09.39 1.6.4 3.2.02 4.81.86 1.56-.36 2.42-1.33 1.24ZM187.05 83.07c-2.59.28-5.2.28-7.83.01-.94 1.13-2.12.35-1.38-1.13-.07-.38-.12-.76-.16-1.15-.13-1.3-.07-2.61.18-3.91-.82-1.59.55-2.4 1.52-.96 2.52-.14 5.03-.14 7.52 0 .97-1.45 2.31-.53 1.46 1.09.39 1.6.4 3.2.02 4.81.86 1.56-.36 2.42-1.33 1.24Z" class="cls-2"/><path d="M158.97 85.13h33.86v5.27h-33.86zM192.83 83.55v1.58h-33.86v-1.51s.55-.27 1.6-.66c3.99-1.46 15.19-4.5 30.73.11.5.16 1.01.31 1.53.48Z" class="cls-4"/><path d="M196.58 85.38v4.68" class="cls-5"/><path d="m194.53 87.04.37.34 1.68-1.81 1.68 1.81.36-.34-2.04-2.2-2.05 2.2zM194.53 88.4l.37-.34 1.68 1.8 1.68-1.8.36.34-2.04 2.2-2.05-2.2z"/><path d="M-565.03-1946.55h2244.45v5948.74H-565.03z" style="fill:none;stroke:#fff;stroke-width:8px;stroke-linecap:round;stroke-linejoin:round"/></svg>