<svg xmlns="http://www.w3.org/2000/svg" id="Calque_1" viewBox="0 0 128 128"><defs><style>.cls-1{stroke-width:2px}.cls-1,.cls-4,.cls-5{stroke-linecap:round}.cls-1,.cls-5{stroke:#000}.cls-1{fill:#fff}.cls-1,.cls-4{stroke-miterlimit:10}.cls-5{stroke-linejoin:round}.cls-4{stroke:#87ccf3;fill:none}.cls-5{fill:none;stroke-width:3px}</style></defs><path d="M5.38 18.87h117.24v15.84H5.38z" style="stroke-linejoin:round;fill:#ff6d75;stroke:#000;stroke-linecap:round;stroke-width:2px"/><path d="M5.38 34.7h117.24v81.12H5.38z" style="stroke-linejoin:round;fill:#fff;stroke:#000;stroke-linecap:round;stroke-width:2px"/><path d="M18.29 12.17v12.92M109.7 12.17v12.92M48.76 12.17v12.92M79.23 12.17v12.92" class="cls-5"/><path d="M85.48 55.33c-1.84-7.41-8.53-12.92-16.52-12.92a17.01 17.01 0 0 0-13.92 7.22c-1-.23-2.05-.34-3.12-.34-6.71 0-12.35 4.54-14.02 10.72-4.95 2.31-8.38 7.34-8.38 13.16 0 8.03 6.51 14.53 14.53 14.53l33.44-.3c9.4 0 17.02-7.62 17.02-17.02 0-6.52-3.66-12.18-9.04-15.04Z" class="cls-1"/><path d="M62.71 59.24v20.54M52.44 69.51h20.54M55.45 62.25l14.52 14.52M55.45 76.77l14.52-14.52M57.93 60.71l1.22 5.24-5.24-1.23M67.83 78.64l-1.22-5.23 5.24 1.22M53.91 74.63l5.24-1.22-1.22 5.23M71.85 64.73l-5.24 1.22 1.22-5.24M60.04 79.52l2.84-4.57 2.84 4.57M65.72 59.84l-2.84 4.56-2.84-4.56M72.72 72.52l-4.56-2.84 4.56-2.84M53.04 66.84l4.56 2.84-4.56 2.84" class="cls-4"/><circle cx="45.01" cy="94.55" r="2.81" class="cls-1"/><circle cx="62.71" cy="94.55" r="2.81" class="cls-1"/><circle cx="80.42" cy="94.55" r="2.81" class="cls-1"/><circle cx="54.28" cy="103.52" r="2.81" class="cls-1"/><circle cx="71.14" cy="103.52" r="2.81" class="cls-1"/></svg>