<svg xmlns="http://www.w3.org/2000/svg" id="Calque_1" viewBox="0 0 128 128.13"><defs><style>.cls-1,.cls-2{stroke:#000;stroke-linecap:round;stroke-linejoin:round}.cls-1{fill:none}.cls-4{fill:#ff6d75}.cls-5{fill:#bfe6fc}.cls-2{fill:#d6d6d6;stroke-width:2px}</style></defs><path d="M10.46 16.12h107.09V112H10.46z" style="stroke-width:2px;fill:none;stroke:#000;stroke-linecap:round;stroke-linejoin:round"/><path d="M17.52 78.51h32.96v33.5H17.52z" class="cls-2"/><path d="M17.52 78.51H34v33.5H17.52z" class="cls-2"/><path d="M17.52 33.34h12.7v12.7h-12.7zM37.78 33.34h12.7v12.7h-12.7zM57.58 33.34h12.7v12.7h-12.7zM77.54 33.34h12.7v12.7h-12.7zM97.48 33.34h12.7v12.7h-12.7zM57.58 51.36h12.7v12.7h-12.7zM77.54 51.36h12.7v12.7h-12.7zM97.48 51.36h12.7v12.7h-12.7zM57.58 69.39h12.7v12.7h-12.7zM77.54 69.39h12.7v12.7h-12.7zM97.48 69.39h12.7v12.7h-12.7z" class="cls-1"/><path d="M10.46 16.12h107.09v9.73H10.46z" class="cls-2"/><path d="M30.55 94.02v4.29M37.45 94.02v4.29" class="cls-1"/><path d="M30.11 51.5h7.78v22.23h-7.78z" class="cls-4"/><path d="M22.88 66.5v-7.76h22.23v7.76z" class="cls-4"/><path d="M19.19 41.27v-6.44h8.42v2.13s-3.03-1-4.77.88c-1.74 1.88-1.74 3.43-1.74 3.43h-1.91ZM39.69 41.27v-6.44h8.42v2.13s-3.03-1-4.77.88-1.74 3.43-1.74 3.43h-1.91ZM59.18 41.27v-6.44h8.42v2.13s-3.03-1-4.77.88c-1.74 1.88-1.74 3.43-1.74 3.43h-1.91ZM79.29 41.27v-6.44h8.42v2.13s-3.03-1-4.77.88c-1.74 1.88-1.74 3.43-1.74 3.43h-1.91ZM99.25 41.27v-6.44h8.42v2.13s-3.03-1-4.77.88c-1.74 1.88-1.74 3.43-1.74 3.43h-1.91ZM59.18 59.41v-6.44h8.42v2.13s-3.03-1-4.77.88c-1.74 1.88-1.74 3.43-1.74 3.43h-1.91ZM79.29 59.41v-6.44h8.42v2.13s-3.03-1-4.77.88c-1.74 1.88-1.74 3.43-1.74 3.43h-1.91ZM99.25 59.41v-6.44h8.42v2.13s-3.03-1-4.77.88c-1.74 1.88-1.74 3.43-1.74 3.43h-1.91ZM59.18 77.54V71.1h8.42v2.13s-3.03-1-4.77.88c-1.74 1.88-1.74 3.43-1.74 3.43h-1.91ZM79.29 77.54V71.1h8.42v2.13s-3.03-1-4.77.88c-1.74 1.88-1.74 3.43-1.74 3.43h-1.91ZM99.25 77.54V71.1h8.42v2.13s-3.03-1-4.77.88c-1.74 1.88-1.74 3.43-1.74 3.43h-1.91Z" class="cls-5"/><path d="M57.58 87.67h12.7v12.7h-12.7zM77.54 87.67h12.7v12.7h-12.7zM97.48 87.67h12.7v12.7h-12.7z" class="cls-1"/><path d="M59.18 95.83v-6.44h8.42v2.13s-3.03-1-4.77.88c-1.74 1.88-1.74 3.43-1.74 3.43h-1.91ZM79.29 95.83v-6.44h8.42v2.13s-3.03-1-4.77.88c-1.74 1.88-1.74 3.43-1.74 3.43h-1.91ZM99.25 95.83v-6.44h8.42v2.13s-3.03-1-4.77.88c-1.74 1.88-1.74 3.43-1.74 3.43h-1.91Z" class="cls-5"/></svg>