<svg xmlns="http://www.w3.org/2000/svg" id="Calque_1" viewBox="0 0 200.13 128.13"><defs><style>.cls-3,.cls-5,.cls-6,.cls-9{stroke-linecap:round;stroke-linejoin:round;stroke:#000}.cls-11{fill:#ff6d75}.cls-5{fill:none}.cls-13{fill:#bfe6fc}.cls-3,.cls-6{fill:#fff}.cls-6{stroke-width:.5px}.cls-9{fill:#d6d6d6}</style></defs><path d="M-1918.46-642.28H736.62V869.49h-2655.08z" style="fill:none;stroke:#e30613;stroke-width:8px;stroke-linecap:round;stroke-linejoin:round"/><path d="m8.64 87.99 6.13 1.2 101.97-1.25" style="fill:#fafafa"/><path d="M43.97 28.63c.78 2.77.93 5.71.41 8.54-.25 1.39-.65 2.76-1.21 4.06-.53 1.25-1.43 2.48-1.5 3.88-.06 1.3.82 2.22 1.89 2.82 1.01.57 2.32.92 2.99 1.94.74 1.13-.17 2.24-.86 3.13-.39.51-.75 1.02-1 1.62-.26.61-.41 1.26-.49 1.92-.4 3.28 1.19 6.6.2 9.84-.13.42.53.61.66.18.9-2.94-.26-5.91-.25-8.88 0-1.4.3-2.74 1.12-3.88.67-.93 1.64-1.88 1.57-3.12-.07-1.23-1.08-2.05-2.09-2.58-.99-.53-2.33-.91-2.88-1.99-.67-1.33.44-2.85.98-4.02.61-1.31 1.07-2.68 1.37-4.08.68-3.15.59-6.45-.29-9.55-.12-.43-.79-.24-.66.18h0Z" class="cls-3"/><path d="M43.97 28.63s-.04-.07 0-.22c.03-.07.09-.15.2-.19.1-.04.25-.05.37.04.12.1.13.28.19.44.05.17.1.36.14.56.1.41.2.88.29 1.41.17 1.07.3 2.4.24 3.94s-.3 3.29-.89 5.15c-.3.92-.66 1.88-1.15 2.82-.24.47-.5.94-.7 1.45-.09.25-.17.52-.21.79-.04.27-.04.55.03.82.12.54.51 1 .98 1.33.48.33 1.03.57 1.58.83s1.1.56 1.57.99c.47.42.87.98.97 1.64.11.66-.11 1.33-.46 1.89-.34.57-.79 1.07-1.17 1.61-.76 1.09-1.06 2.48-1.03 3.86 0 1.39.27 2.79.44 4.22.17 1.42.26 2.93-.15 4.37-.03.09-.04.17-.09.28-.05.1-.16.17-.26.19-.21.05-.46-.07-.51-.31-.02-.12.02-.22.04-.3l.07-.26c.05-.17.08-.35.11-.53.12-.71.14-1.44.1-2.15-.08-1.43-.36-2.83-.5-4.22-.13-1.39-.11-2.8.33-4.09.21-.65.56-1.23.96-1.76.39-.53.82-1.02 1.1-1.59.14-.28.23-.58.23-.89 0-.3-.09-.6-.26-.85-.33-.52-.85-.87-1.38-1.14-.53-.28-1.09-.5-1.61-.79-.52-.29-.99-.66-1.34-1.12-.35-.46-.56-1.03-.55-1.59 0-.56.15-1.1.34-1.59.39-.99.95-1.85 1.3-2.75.73-1.79 1.1-3.52 1.27-5.04.17-1.53.14-2.86.03-3.93-.1-1.08-.27-1.9-.39-2.46-.06-.28-.12-.49-.15-.63-.04-.14-.05-.22-.05-.22s.1.28.23.84c.13.55.31 1.38.42 2.46a19.9 19.9 0 0 1 0 3.95c-.17 1.53-.54 3.27-1.26 5.07-.35.91-.9 1.77-1.29 2.75-.19.49-.33 1.01-.32 1.55 0 .54.19 1.08.53 1.52.34.45.8.8 1.31 1.09.51.29 1.07.51 1.61.79s1.08.64 1.43 1.19c.18.27.29.59.28.92 0 .33-.1.65-.24.94-.29.59-.72 1.09-1.11 1.61-.39.52-.73 1.09-.93 1.72-.43 1.26-.45 2.65-.32 4.03.14 1.38.42 2.78.5 4.22.04.72.02 1.46-.1 2.18-.03.18-.06.36-.11.54l-.07.27c-.02.1-.05.17-.04.24.02.14.2.23.34.2a.26.26 0 0 0 .17-.12c.03-.06.05-.16.07-.25.4-1.42.32-2.9.14-4.32-.17-1.42-.43-2.83-.44-4.23-.02-1.39.28-2.82 1.06-3.94.39-.56.83-1.05 1.17-1.6.34-.55.55-1.18.44-1.8-.09-.62-.47-1.16-.93-1.56-.46-.41-1-.71-1.54-.97-.55-.26-1.1-.49-1.59-.84-.49-.34-.9-.82-1.03-1.41-.06-.29-.07-.58-.03-.86.05-.28.13-.55.22-.81.2-.52.46-.99.71-1.46.48-.93.85-1.88 1.15-2.8.59-1.84.84-3.59.91-5.12.07-1.53-.05-2.86-.21-3.93-.08-.53-.18-1.01-.27-1.41-.04-.2-.09-.39-.14-.56-.05-.17-.06-.34-.17-.43a.36.36 0 0 0-.34-.05.36.36 0 0 0-.19.17c-.05.14 0 .21-.02.21ZM19.52 21.58h7.8c.45 0 .82.37.82.82v12.56c0 .45-.37.82-.82.82h-7.8c-.45 0-.82-.37-.82-.82V22.4c0-.45.37-.82.82-.82Z" class="cls-3"/><path d="M27.32 35.78s.17.02.43-.14c.12-.08.26-.22.33-.43.04-.1.04-.22.04-.35v-.41c0-1.17-.01-2.85-.02-4.92V22.76c0-.17.01-.35-.01-.5a.755.755 0 0 0-.66-.6H19.55c-.37 0-.7.29-.74.65-.01.37 0 .77 0 1.16v11.39c-.03.29.08.56.29.73.1.08.23.14.35.16.12.02.27 0 .4.01h.8c2.07 0 3.75.02 4.92.02.57 0 1.02.01 1.34.01h.47-.47c-.31 0-.76 0-1.34.01-1.17 0-2.85.01-4.92.02h-.8c-.14 0-.27 0-.42-.01a.8.8 0 0 1-.41-.18.88.88 0 0 1-.27-.36c-.06-.14-.07-.31-.06-.45V22.26c.05-.43.45-.78.88-.77H27.46c.38.04.71.35.77.71.03.19.01.35.02.52v6.77c0 2.07-.02 3.75-.02 4.92v.41c0 .13 0 .26-.04.36-.07.22-.22.36-.35.44-.13.08-.25.11-.33.12h-.12Z" class="cls-3"/><path d="M45.05 17.41c-.2.71-.68 1.66-1.09 1.66h-.03c-.42-.04-.78-.36-1.01-.63-.36-.4-.87-.63-1.41-.63H25.87c-.54 0-1.07.21-1.47.59-.45.42-.88.65-1.22.65-.51 0-.88-.6-1-1.01l-.74.23c.24.78.87 1.56 1.75 1.56.69 0 1.34-.47 1.75-.86.26-.24.59-.38.94-.38h15.64c.31 0 .62.14.83.37.46.52.99.83 1.51.88h.11c1.19 0 1.77-2 1.84-2.23l-.75-.21Z"/><path d="M45.03 17.37v.04c-.09.27-.2.56-.34.84a2.5 2.5 0 0 1-.25.41c-.09.13-.21.26-.35.34a.23.23 0 0 1-.14.04c-.11 0-.22-.04-.33-.09-.16-.07-.31-.18-.44-.3-.14-.12-.25-.27-.41-.4a1.911 1.911 0 0 0-1.12-.47H25.99c-.25 0-.52.02-.77.1-.3.09-.58.25-.81.46-.22.21-.45.4-.72.53-.15.08-.31.13-.47.14h-.04c-.14 0-.28-.06-.4-.15-.26-.2-.43-.5-.53-.81l-.02-.07-.07.02c-.25.08-.5.15-.74.23l-.07.02.02.07c.13.41.35.8.65 1.1.3.3.71.51 1.15.51.43 0 .84-.17 1.18-.39.17-.11.34-.23.49-.37.15-.14.29-.27.46-.35.17-.08.35-.13.54-.14h3.95c2.88 0 5.46-.01 7.62-.02 1.08 0 2.05 0 2.9-.01h1.2c.35 0 .65.18.84.4.41.45.83.67 1.14.76.21.06.35.07.42.07h.05s-.04 0-.12-.01c-.08-.01-.2-.03-.34-.08-.29-.09-.71-.33-1.11-.77-.19-.23-.51-.43-.89-.43h-1.19c-.85 0-1.83 0-2.9-.01-2.16 0-4.74 0-7.62-.02h-3.96c-.21 0-.41.06-.6.15s-.35.24-.49.37c-.15.13-.31.25-.47.35-.33.21-.71.36-1.11.36-.39 0-.77-.19-1.05-.47-.27-.27-.47-.61-.59-.98-.02 0-.05.01-.07.02l.05-.09s.01.05.02.07c.2-.06.4-.12.61-.19 0-.02-.02-.04-.02-.07l.09.05s-.04.01-.07.02c.11.31.28.6.56.81.13.1.31.18.49.18h.04c.19-.01.37-.07.53-.16.28-.14.53-.35.75-.55.22-.2.48-.34.76-.43.24-.08.48-.1.73-.1H41.64c.2.01.4.06.58.14.18.07.35.18.49.3s.26.28.41.4c.14.13.3.24.47.31.09.04.17.07.27.08.03 0 .06.01.09.01.07 0 .14-.02.19-.05.17-.09.28-.23.38-.37.1-.14.18-.28.25-.43.14-.28.24-.55.32-.82h-.04l.05-.03v.04c.24.06.47.13.68.18v-.03l.02.04h-.03c-.27.93-.68 1.6-1.08 1.92-.41.33-.73.26-.71.29s.07 0 .2-.01c.06-.01.15-.04.24-.07.09-.04.19-.1.3-.18.42-.32.85-1 1.13-1.96v-.03h-.02c-.23-.07-.48-.14-.75-.21h-.03Z"/><path d="M34.02 12.4h-2.04M34.02 83.82v-8.56c-.02-9.33-.04-10.5-.07-62.86l.07.07h0-2.03l.07-.07c-.01 29.16-.02 21.64-.03 40.66-.03 19.02-.04 21.81-.04 22.2 0-.39-.02-3.16-.04-22.15 0-19.03-.02-11.53-.03-40.71v-.07H34.1v.07c-.03 52.36-.05 62.11-.06 71.44h0l-.01.01M24.53 117.09h15.73c0-.68-.55-1.24-1.24-1.24H25.76c-.68 0-1.24.55-1.24 1.24h0Z" class="cls-9"/><path d="M22.91 118.23c0 .97.79 1.76 1.76 1.76s1.76-.79 1.76-1.76-.79-1.76-1.76-1.76-1.76.79-1.76 1.76Z" class="cls-9"/><path d="M33.56 18.38s-.15-.05-.13-.21c.03-.16.18-.2.18-.17.02.03-.04.1-.05.19-.02.09.02.17 0 .19ZM31.98 23.69s-.07-1.77-.07-3.96.03-3.96.07-3.96.07 1.77.07 3.96-.03 3.96-.07 3.96Z" class="cls-3"/><rect width="7.45" height="7.04" x="19.69" y="27.65" rx="2.13" ry="2.13" style="fill:#ff6d75;stroke:#000;stroke-linecap:round;stroke-linejoin:round"/><path d="M23.92 22.4c0 .29-.24.53-.53.53s-.53-.24-.53-.53.24-.53.53-.53.53.24.53.53ZM40.21 21.58h7.8c.45 0 .82.37.82.82v12.56c0 .45-.37.82-.82.82h-7.8c-.45 0-.82-.37-.82-.82V22.4c0-.45.37-.82.82-.82Z" class="cls-3"/><path d="M48.01 35.78s.17.02.43-.14c.12-.08.26-.22.33-.43.04-.1.04-.22.04-.35v-.41c0-1.17-.01-2.85-.02-4.92V22.76c0-.17.01-.35-.01-.5a.755.755 0 0 0-.66-.6H40.24c-.37 0-.7.29-.74.65-.01.37 0 .77 0 1.16v11.39c-.03.29.08.56.29.73.1.08.23.14.35.16.12.02.27 0 .4.01h.8c2.07 0 3.75.02 4.92.02.57 0 1.02.01 1.34.01h.47-.47c-.31 0-.76 0-1.34.01-1.17 0-2.85.01-4.92.02h-.8c-.14 0-.27 0-.42-.01a.8.8 0 0 1-.41-.18.88.88 0 0 1-.27-.36c-.06-.14-.07-.31-.06-.45V22.26c.05-.43.45-.78.88-.77H48.15c.38.04.71.35.77.71.03.19.01.35.02.52v6.77c0 2.07-.02 3.75-.02 4.92v.41c0 .13 0 .26-.04.36-.07.22-.22.36-.35.44-.13.08-.25.11-.33.12h-.12Z" class="cls-3"/><rect width="7.45" height="7.04" x="40.5" y="27.65" rx="2.13" ry="2.13" style="fill:#f3d587;stroke:#000;stroke-linecap:round;stroke-linejoin:round"/><path d="M42.03 29.7h4.72v1.47h-4.72zM44.62 22.4c0 .29-.24.53-.53.53s-.53-.24-.53-.53.24-.53.53-.53.53.24.53.53ZM44.6 86.07 5.03 66.12c-.69-.34-.96-1.21-.6-1.93l1.8-3.65c.36-.73 1.23-1.04 1.92-.69l36.88 18.81c.69.35 1.64 2.18 1.27 2.9l.28 1.11-1.97 3.4Z" class="cls-3"/><circle cx="37.03" cy="116.33" r="3.49" class="cls-9"/><path d="m39.07 114.8.06-6.41H32.9l-.06 5.54c0 .77.62 1.39 1.39 1.39h.51c-.12.32-.17.68-.13 1.05.12 1.24 1.22 2.22 2.46 2.2a2.435 2.435 0 0 0 2-3.77ZM18.87 104.86h90.47v2.96H18.87z" class="cls-9"/><path d="M109.34 107.82v-2.95l.02.02c-9.77 0-46.59.03-90.47.05h0l.07-.07v2.96l-.07-.07c25.13.01 47.73.02 64.06.03 8.17 0 14.77.02 19.32.02 2.28 0 4.05 0 5.25.01h1.84-1.82c-1.2 0-2.96 0-5.23.01-4.55 0-11.15.01-19.31.02-16.34 0-38.97.02-64.12.03h-.07V104.78h.08c43.88.03 80.69.05 90.47.05h.02v.02c0 1.01 0 1.76-.01 2.24v.72ZM32 94.38h3.08v9.91H32z" class="cls-9"/><path d="M35.08 104.3v-.76c0-.5-.01-1.2-.02-2.08 0-1.77-.02-4.24-.03-7.07l.07.07h-3.08l.07-.07h0v5.57c0 1.68-.01 3.16-.02 4.34l-.05-.05c.96.01 1.72.02 2.26.03.26 0 .46 0 .61.01h.22-.2c-.15 0-.35 0-.6.01-.54 0-1.32.01-2.28.03h-.05v-.05c0-1.18-.01-2.65-.02-4.34V94.39h0v-.02h0s-.07.07.07-.08h3.15v.07c-.01 2.85-.02 5.33-.03 7.12 0 .87-.01 1.57-.02 2.06v.73Z" class="cls-9"/><path d="M29.7 103.66h12.63v5.37H29.7z" class="cls-9"/><path d="M42.32 109.03v-.38c0-.25 0-.62-.01-1.07 0-.93-.02-2.27-.03-3.92l.05.05c-3.25 0-7.71.01-12.63.02l.07-.07h0v5.38l-.07-.07c3.65.01 6.8.02 9.04.03 1.12 0 2.01.01 2.63.02h.96H41.4c-.62 0-1.5.01-2.61.02-2.25 0-5.42.02-9.09.03h-.07V103.64h0v-.02h0s.14-.14.07-.08c4.92 0 9.38.02 12.63.02h.05v.05c-.01 1.66-.02 3.01-.03 3.95 0 .45 0 .81-.01 1.06v.36Z" class="cls-9"/><circle cx="104.09" cy="116.39" r="3.49" class="cls-9" transform="rotate(-13.21 104.063 116.373)"/><path d="M102.05 115.06v-6.67h6.23v5.8c0 .77-.62 1.39-1.39 1.39h-.51c.12.32.17.68.13 1.05-.12 1.24-1.22 2.22-2.46 2.2a2.435 2.435 0 0 1-2-3.77Z" class="cls-9"/><path d="M103.07 116.39c0 .56.45 1.02 1.02 1.02s1.02-.45 1.02-1.02-.45-1.02-1.02-1.02-1.02.45-1.02 1.02ZM96.71 103.5h12.63v5.37H96.71z" class="cls-9"/><path d="M96.71 108.87v-.36c0-.25 0-.61-.01-1.06 0-.94-.02-2.29-.03-3.95v-.05h.05c3.25 0 7.71-.01 12.63-.02l.07.07h0v5.45h-.07c-3.67-.01-6.83-.02-9.09-.03-1.11 0-2-.01-2.61-.02H96.72h.96c.62 0 1.51-.01 2.63-.02 2.24 0 5.39-.02 9.04-.03l-.07.07V103.56h0v-.02h0s.14.13.07.07c-4.92 0-9.38-.02-12.63-.02l.05-.05c-.01 1.65-.02 2.98-.03 3.92 0 .46 0 .82-.01 1.07v.38ZM42.56 84.59 41 88.85h76.94v-4.26H42.56z" class="cls-9"/><rect width="74.08" height="6.78" x="43.4" y="77.81" class="cls-3" rx="1.29" ry="1.29"/><path d="M118.32 93.32h0c-1.17 0-2.12-.95-2.11-2.13l.2-29.16c0-1.16.95-2.1 2.11-2.1h0c1.17 0 2.12.95 2.11 2.13l-.2 29.16c0 1.16-.95 2.1-2.11 2.1Z" class="cls-9"/><path d="M118.32 93.32s.26.02.71-.14c.22-.08.48-.22.74-.46.25-.24.48-.58.58-1.02.05-.22.06-.45.06-.71v-2.58c0-1.29.01-2.75.02-4.37.02-3.24.04-7.1.06-11.38.01-2.14.03-4.39.04-6.72 0-1.16.02-2.35.02-3.55 0-.3.01-.6-.07-.88s-.21-.55-.4-.77c-.38-.45-.96-.73-1.56-.73a2.068 2.068 0 0 0-1.97 1.5c-.08.28-.08.58-.08.88 0 1.2-.02 2.39-.03 3.55-.02 2.33-.03 4.58-.05 6.72-.04 4.28-.07 8.14-.1 11.38-.02 1.62-.03 3.08-.04 4.37 0 .64-.01 1.24-.02 1.79v.79c0 .25 0 .49.06.7.1.44.33.78.58 1.02.25.24.51.38.73.46.45.16.71.12.71.14h-.19c-.12 0-.31-.03-.53-.11-.23-.08-.5-.22-.75-.46-.13-.12-.25-.27-.36-.44-.11-.17-.2-.37-.25-.6-.06-.22-.07-.47-.06-.72V88.4c0-1.29.01-2.75.02-4.37.02-3.24.04-7.1.06-11.38.01-2.14.03-4.39.04-6.72 0-1.17.02-2.35.02-3.55 0-.3 0-.61.08-.92.08-.3.23-.59.43-.83.41-.48 1.03-.78 1.67-.78.64 0 1.27.3 1.67.78.21.24.35.53.43.83.09.3.08.62.08.92 0 1.2-.02 2.39-.03 3.55-.02 2.33-.03 4.58-.05 6.72-.04 4.28-.07 8.14-.1 11.38-.02 1.62-.03 3.08-.04 4.37 0 .64-.01 1.24-.02 1.79v.79c0 .25-.01.5-.07.72-.11.45-.35.8-.61 1.04s-.53.38-.75.46c-.23.08-.41.1-.53.11h-.19Z" class="cls-9"/><path d="M116.29 66.67s.07 5.93.07 13.24-.03 13.24-.07 13.24-.07-5.93-.07-13.24.03-13.24.07-13.24ZM113.47 95v-6.15" class="cls-9"/><path d="M13.96 88.89h108.45v6.15H13.96z" class="cls-9"/><path d="m119.45 96.44-5.84-5.62c-.73-.7-1.7-1.1-2.72-1.1H95.22c-1.23 0-2.41.44-3.34 1.24-1.45 1.25-3.78 3.28-6.16 5.34-2.86 2.49-1.1 7.2 2.7 7.2h28.18c3.7 0 5.51-4.5 2.85-7.06Zm-22.73 2.69c0 .84-.68 1.52-1.52 1.52h-5.88c-1.13 0-1.68-1.39-.85-2.16l6.15-5.71c.8-.74 2.1-.18 2.1.91v5.44Zm9.94.05c0 .73-.59 1.32-1.32 1.32h-5.04c-.73 0-1.32-.59-1.32-1.32v-5.42c0-.73.59-1.32 1.32-1.32h5.04c.73 0 1.32.59 1.32 1.32v5.42Zm9.57 1.47h-5.88c-.84 0-1.52-.68-1.52-1.52v-5.44c0-1.09 1.3-1.65 2.1-.91l6.15 5.71c.83.77.28 2.16-.85 2.16Z" class="cls-9"/><path d="m119.45 96.44-5.84-5.62c-.73-.7-1.7-1.1-2.72-1.1H95.22c-1.23 0-2.41.44-3.34 1.24-1.45 1.25-3.78 3.28-6.16 5.34-2.86 2.49-1.1 7.2 2.7 7.2h28.18c3.7 0 5.51-4.5 2.85-7.06Zm-22.73 2.69c0 .84-.68 1.52-1.52 1.52h-5.88c-1.13 0-1.68-1.39-.85-2.16l6.15-5.71c.8-.74 2.1-.18 2.1.91v5.44Zm9.94.05c0 .73-.59 1.32-1.32 1.32h-5.04c-.73 0-1.32-.59-1.32-1.32v-5.42c0-.73.59-1.32 1.32-1.32h5.04c.73 0 1.32.59 1.32 1.32v5.42Zm9.57 1.47h-5.88c-.84 0-1.52-.68-1.52-1.52v-5.44c0-1.09 1.3-1.65 2.1-.91l6.15 5.71c.83.77.28 2.16-.85 2.16Z" class="cls-9"/><path d="M116.22 100.65s.1 0 .28-.05c.18-.04.44-.15.66-.42.21-.26.37-.72.2-1.18-.03-.06-.05-.11-.08-.17-.04-.05-.07-.11-.11-.16a.927.927 0 0 0-.14-.14c-.05-.05-.1-.09-.16-.14-.21-.19-.43-.4-.67-.61-.93-.86-2.04-1.88-3.27-3.02-.61-.57-1.26-1.17-1.93-1.78-.17-.16-.33-.3-.54-.38-.2-.08-.43-.1-.65-.05-.44.08-.82.44-.92.88-.05.22-.03.46-.03.7V98.86c0 .21-.01.41.04.6.04.19.12.37.23.52.22.31.56.52.91.59.17.04.35.03.54.03h1.52c1.26 0 2.28.02 3 .02.35 0 .62.01.82.01h.28-.28c-.2 0-.47 0-.82.01-.72 0-1.74.01-3 .02h-1.52c-.18 0-.37.01-.56-.03-.38-.07-.75-.29-.99-.63-.12-.17-.21-.36-.26-.57-.05-.21-.04-.43-.04-.63V94.07c0-.24-.02-.48.04-.73.11-.51.54-.9 1.03-.99.24-.05.5-.03.73.06.23.09.42.26.58.41.67.62 1.31 1.22 1.92 1.79l3.25 3.04c.23.22.45.42.66.62.11.09.2.19.3.3.04.06.08.12.11.17.03.06.05.12.08.18a1.272 1.272 0 0 1-.93 1.67c-.19.03-.28.02-.28.02ZM106.65 99.17v-.3c0-.21 0-.49-.01-.85 0-.75-.01-1.82-.02-3.13v-1.04c.02-.35-.1-.72-.36-.98a1.31 1.31 0 0 0-1.05-.38h-4.74c-.24 0-.47.01-.68.12-.42.19-.72.65-.72 1.13v5.02c0 .22-.01.45.02.65.08.41.37.75.74.91.18.08.37.11.57.1h2.75c.66 0 1.26 0 1.78.01.26 0 .51.02.72-.03.21-.05.4-.15.53-.26.28-.23.39-.51.44-.7.04-.19.04-.29.05-.29 0 0 .02.1-.02.3-.04.19-.14.48-.43.73-.14.12-.33.23-.55.29-.23.06-.48.04-.74.04-.53 0-1.12 0-1.78.01h-2.75c-.2 0-.42-.02-.62-.11-.4-.17-.72-.54-.82-1-.04-.23-.02-.45-.03-.67v-5.02c0-.54.33-1.04.8-1.26.23-.12.51-.14.74-.13h4.74c.42-.03.86.12 1.14.42.29.29.41.7.39 1.07v1.04c0 1.31-.02 2.38-.02 3.13 0 .36-.01.65-.01.85v.3ZM96.71 99.12v-.28c0-.2 0-.47-.01-.82 0-.72-.01-1.74-.02-3v-.99c0-.17 0-.35-.02-.52-.03-.17-.08-.34-.18-.48a1.21 1.21 0 0 0-1.48-.42c-.18.08-.32.21-.48.36-1.23 1.14-2.57 2.39-3.99 3.71-.7.66-1.41 1.3-2.06 1.92-.31.31-.4.78-.26 1.17.13.39.46.71.86.78.19.04.4.03.6.03h3.82c.63 0 1.2 0 1.71.01.5 0 .89-.24 1.12-.49.23-.26.32-.53.36-.71.04-.18.03-.28.04-.28 0 0 .02.1-.01.29-.03.18-.11.46-.35.74-.23.27-.64.53-1.16.54-.5 0-1.08 0-1.71.01h-3.82c-.2 0-.41.01-.63-.03-.44-.08-.81-.43-.96-.87-.15-.43-.05-.97.29-1.31.66-.64 1.36-1.27 2.06-1.93 1.42-1.31 2.77-2.56 3.99-3.7.15-.14.32-.29.51-.38a1.324 1.324 0 0 1 1.63.47c.11.16.17.35.2.53.02.19.01.36.01.54V95c0 1.26-.02 2.28-.02 3 0 .35-.01.62-.01.82v.28Z" class="cls-9"/><path d="M119.45 96.44s.05.05.15.16c.05.06.11.12.19.2.04.04.08.08.12.13.03.05.07.11.11.17.34.46.75 1.27.71 2.38 0 .28-.05.56-.11.86-.09.29-.17.6-.33.9-.3.6-.77 1.19-1.42 1.62-.65.44-1.49.68-2.38.68h-2.79c-3.91 0-8.57 0-13.74.02H88.63c-.36 0-.73-.01-1.09-.09-.73-.14-1.42-.5-1.96-1.01a4.258 4.258 0 0 1-1.21-4.15c.09-.36.24-.71.43-1.03.19-.32.43-.61.69-.87 1.09-.97 2.18-1.9 3.24-2.82 1.06-.92 2.11-1.83 3.13-2.71a5.14 5.14 0 0 1 1.77-.98c.64-.21 1.31-.26 1.96-.25 5.17 0 9.83.01 13.74.02h1.43c.47 0 .93.06 1.35.2.42.14.81.34 1.15.6.34.25.61.55.89.82 1.12 1.08 2.08 2.01 2.86 2.77.78.76 1.39 1.35 1.81 1.76.2.2.36.35.47.46l.16.16s-.06-.05-.17-.15c-.11-.1-.27-.25-.48-.45-.42-.4-1.03-.98-1.82-1.74s-1.76-1.68-2.88-2.76c-.29-.26-.56-.56-.89-.81-.33-.25-.71-.45-1.12-.58-.41-.14-.86-.2-1.32-.19h-1.43c-3.91 0-8.57 0-13.74.02-.65-.02-1.29.04-1.92.24-.62.2-1.21.53-1.72.96-1.02.89-2.07 1.79-3.13 2.72-1.06.93-2.15 1.86-3.23 2.82-.25.25-.48.53-.67.84-.18.31-.32.65-.41 1-.18.7-.17 1.46.04 2.16.21.7.6 1.35 1.13 1.84.52.5 1.19.84 1.89.98.35.08.7.09 1.07.09H99.98c5.17 0 9.83.01 13.74.02h2.79c.88 0 1.7-.22 2.34-.65.65-.42 1.11-1 1.41-1.58.16-.29.25-.6.33-.88.05-.3.12-.58.11-.85.04-1.1-.35-1.91-.68-2.36-.04-.06-.07-.12-.11-.17-.04-.05-.08-.09-.12-.13-.07-.08-.13-.15-.18-.21-.1-.11-.14-.17-.14-.17ZM41 88.77 4.54 70.57a2.14 2.14 0 0 1-.94-2.87h0a2.128 2.128 0 0 1 2.86-.94l36.4 17.91-1.86 4.1Z" class="cls-9"/><path d="M22.08 57.64c-4.19-2.21-9.38-2.39-13.71-.48 3.04 4.71 6.88 8.62 11.99 10.91 1.56.7 3.19 1.26 4.89 1.45 1.7.18 3.46-.03 4.98-.82-.87-4.65-3.96-8.84-8.14-11.05Z" style="fill:#87f3b9;stroke-miterlimit:10;stroke:#000"/><path d="m30.39 68.71-.06.03c-.05.02-.11.04-.18.07-.16.05-.38.17-.69.25-.6.2-1.51.4-2.65.47-1.14.06-2.51-.05-3.97-.4-1.46-.37-3.02-.97-4.52-1.86-1.5-.88-2.81-1.91-3.93-2.91-1.12-1-2.05-2-2.8-2.85-.75-.86-1.31-1.58-1.69-2.09-.19-.25-.33-.46-.43-.59-.04-.06-.08-.11-.11-.16-.02-.04-.03-.05-.03-.06s.02.01.04.05c.03.04.07.09.12.15.11.14.26.33.45.58.39.5.97 1.21 1.72 2.06.76.84 1.69 1.83 2.81 2.82 1.12.99 2.42 2.02 3.91 2.89 1.49.88 3.03 1.48 4.48 1.85 1.45.36 2.81.48 3.93.43 1.13-.05 2.03-.24 2.64-.42.31-.07.53-.17.7-.22.07-.02.13-.04.18-.06.04-.01.06-.02.06-.02Z" style="fill:#1a2e35"/><path d="M17.47 52.67s-.1-.1-.14-.15c-.34.18-.61.47-.76.82-.21.49-.16 1.08.12 1.54-.36.3-.53.82-.39 1.27.13.45.55.8 1.01.86-.04.38.06.81.37 1.05.29.22.78.16.95-.15.68.58 1.57 1.16 2.37 1.63.27.16.51.23.72.26.09-.14.21-.24.35-.29.22-.09.48-.07.7.07.25.17.56.37.84.56h0c.74.1-.11-1.23-2.82-3.5.03-.16 0-.33-.12-.45-.09-.09-.23-.16-.26-.28-.04-.15.1-.28.21-.4.37-.41.38-1.08.04-1.5.25.01.43-.26.45-.51.01-.25-.09-.49-.14-.73-.06-.25-.06-.53.12-.71.09-.09.22-.15.29-.25 0 0 .01-.02.02-.03.12-.21-.04-.48-.21-.65-.15-.15-.32-.3-.36-.5 0-.04-.01-.07-.01-.11.01-.14.09-.25.18-.35h0c.07-.11.16-.21.29-.31.04-.06.08-.12.1-.19.85-.2 1.75-.19 2.6.07h.06s0 0 0 0c.35.1.7.25 1.03.44.3-.44.27-1.09-.09-1.49-.39-.44-1.12-.52-1.6-.17-.09-.52-.53-.95-1.04-1.03-.52-.08-1.06.21-1.3.67-.43-.28-1.01-.33-1.47-.1-.46.22-.8.7-.84 1.21-.73.17-1.28.9-1.25 1.65-.37.35-.47.95-.25 1.4.02.05.05.09.08.14m4.25-2.85" class="cls-3"/><path d="M25.07 50.19s-.06.09-.1.12l-3.6 1.48s.01-.02.02-.03c.12-.21-.04-.48-.21-.65-.15-.15-.32-.3-.36-.5 0-.04-.01-.07-.01-.11.01-.14.09-.25.18-.35h0c.07-.11.16-.21.29-.31.04-.06.08-.12.1-.19.85-.2 1.75-.19 2.6.07h.06s0 0 0 0c.35.1.7.25 1.03.44Z" class="cls-3"/><path d="m34.65 60.51-6.38 3.09-3.92-2.59-1.9-1.26-.38-.25c.22-.09.48-.07.7.07.25.17.56.37.84.56h0c.74.1-.11-1.23-2.82-3.5.03-.16 0-.33-.12-.45-.09-.09-.23-.16-.26-.28-.04-.15.1-.28.21-.4.37-.41.38-1.08.04-1.5.25.01.43-.26.45-.51.01-.25-.09-.49-.14-.73-.06-.25-.06-.53.12-.71.09-.09.22-.15.29-.25 0 0 .01-.02.02-.03.12-.21-.04-.48-.21-.65-.15-.15-.32-.3-.36-.5 0-.04-.01-.07-.01-.11.01-.14.09-.25.18-.35h0c.07-.11.16-.21.29-.31.04-.06.08-.12.1-.19.85-.2 1.75-.19 2.6.07h.06s0 0 0 0c.35.1.7.25 1.03.44.05.02.1.06.14.08 2.11 1.29 4.42 2.73 5.48 3.52 2.19 1.63.93 4.1.93 4.1l3.03 2.61Z" class="cls-3"/><path d="M25.09 52.58a1.082 1.082 0 0 1 .73-.99" class="cls-6"/><path d="M27.02 52.34c-.1-.07-.23-.09-.35-.07-.13.03-.24.1-.31.22a.48.48 0 0 0 .38.75h.09c.13-.03.24-.1.31-.22a.48.48 0 0 0-.13-.67ZM24.44 55.17c-.13.03-.24.1-.31.22a.48.48 0 0 0 .38.75h.09c.13-.03.24-.1.31-.22a.48.48 0 0 0-.13-.67c-.1-.07-.23-.09-.35-.07Z"/><path d="M22.68 55.8a1.082 1.082 0 0 1 .73-.99M26.25 54.13c.29.08.58.16.84.24.12.04.28.06.37.2.05.07.05.17.02.23-.02.07-.06.12-.09.16-.23.36-.39.57-.41.56" class="cls-6"/><path d="M28.11 63.3s1.77-1.13 3.3-2.24c.85-.62 1.2-.98 1.91-1.82l.55.04 2.95.16c1.79.37 4.18 1.77 5.58 2.37 1.41.6 4.61 1.8 6.35 2.43.79.29 1.56.63 2.31 1.02l6.26 3.25s.27.79-.18 3.83c-.44 3.04-6.17 6.54-6.17 6.54s-3.73.79-4.95-.15c-1.05-.81-5.21-2.8-5.21-2.8s-9.33-3.23-10.62-4.34c-2.66-2.29-2.97-3.56-2.08-8.3Z" class="cls-3"/><path d="M115.93 71.67c-.11-.93-1.74-3.09-2.71-4.31a2.11 2.11 0 0 0-1.8-.78l-8.36.69-22.49-1.44-25.56.29-6.24-1.46-7.37 12.45 4.61 2.17 70.18-.65c.04.2.37-1.63-.25-6.96Z" style="fill:#b4eac3;stroke:#000;stroke-linecap:round;stroke-linejoin:round"/><path d="m51.2 63.58 1.18.06c-.16 0-.34.01-.55 0-.17-.01-.36-.01-.55-.03-.03-.01-.07-.01-.11-.02h.03ZM52.82 63.41s-.07.1-.16.22h-.01l-.02.01.01-.02.02-.03s.03-.05.06-.08l.08-.08h.02ZM54.22 64.5h.01s-.07.05-.13.08c-.05.01-.1.03-.18.05-.07.01-.15.03-.24.06-.09.01-.19.02-.31 0s-.23-.08-.32-.16c-.1-.08-.21-.15-.27-.3-.01-.03-.01-.09-.01-.13.01-.03.02-.08.05-.11.05-.07.1-.11.16-.16.25-.16.52-.23.77-.25a.33.33 0 0 1 .14 0c.01.02.01.05.01.06.01.02.01.03.01.05.02.05.02.07.02.07l-.05.83v.03s.03-.02.09-.05h.01c.06-.03.15-.06.24-.06ZM54.3 66.06c.01-.23 0-.37.02-.37 0 0 .01.06.01.14l.05.42s-.01.01-.05.02h0s-.02.02-.05.03h0s0-.05.01-.07v-.18Z" class="cls-3"/><path d="M54.68 65.48s-.02.01-.05.02h-.01s-.06.05-.09.07c-.06.01-.1.05-.13.07-.03.02-.06.05-.07.05h-.01s0 .01 0 0 .02-.05.05-.08c.06-.05.11-.13.25-.14.02 0 .05 0 .06.01ZM54.26 64.47s-.01.01-.01.02h-.01s0 .02-.01.01l-.02.01c-.06.03-.21.08-.33.09-.16.01-.52.21-.95-.25-.45-.47.65-.75.91-.73.02 0 .05 0 .06.01.22.03.33.23.4.47.07.19.01.31-.02.37Z" class="cls-3"/><path d="M54.7 65.47s-.01.01-.02.01c-.01-.01-.03-.01-.06-.01-.14.01-.19.09-.25.14-.02.03-.05.07-.05.08h0s-.01.15-.02.38v.18s-.01.02-.01.06h0c-.16.13-.49.34-.6.36-.14 0-.97.09-.97.09l-.18-.07-6.14 9.59a3.283 3.283 0 0 1-4.23 1.23l-10.09-4.92 4.04-4.77s6.52 3.73 6.82 3.67c.22-.06 4.43-4.28 6.28-6.15-.23-.17-.47-.41-.49-.61 0 0 .26-1.04.97-1.01 0 0 .7-.11.96-.14.21-.01.42 0 .51.01.05.01.08.01.11.02.2.02.38.02.55.03.21.01.39 0 .55 0h.23s0 .01.01 0h.03c.09-.13.14-.19.16-.23h0l.01-.02c.13-.11.31-.21.54-.19.3.01.44.23.5.38a.33.33 0 0 0-.14 0c-.25.02-.52.09-.77.25-.06.05-.11.09-.16.16-.02.03-.03.08-.05.11 0 .03 0 .09.01.13.07.15.17.22.27.3.09.08.21.14.32.16s.22.01.31 0c.09-.02.17-.05.24-.06.08-.01.14-.03.18-.05.06-.03.1-.06.13-.08.01.01.01 0 .01 0 .08.01.18.05.26.13.25.28.32.77.2.84Z" class="cls-3"/><path d="M54.33 64.36c-.03.08-.06.13-.08.13l.01-.02s.02-.07.02-.11c.02-.09-.01-.23-.09-.39a.567.567 0 0 0-.16-.22c-.05-.03-.09-.06-.14-.07a.379.379 0 0 0-.15 0c-.23.03-.49.1-.71.24-.1.07-.19.17-.15.28.03.09.13.18.22.25.18.15.39.18.56.16.07-.01.15-.02.21-.03h.03s.03-.01.06-.01h.01s.08-.01.11-.02c.05-.01.09-.02.11-.02h.01l.01-.01c-.02.02-.07.05-.13.08-.05.01-.1.03-.18.05-.07.01-.15.03-.24.06-.09.01-.19.02-.31 0s-.23-.08-.32-.16c-.1-.08-.21-.15-.27-.3-.01-.03-.01-.09-.01-.13.01-.03.02-.08.05-.11.05-.07.1-.11.16-.16.25-.16.52-.23.77-.25a.33.33 0 0 1 .14 0c.08.01.16.05.22.09.09.08.14.17.17.26.08.17.1.33.07.44ZM52.83 63.39h-.01v.02h-.02l-.14.17-.02.03s-1.32-.02-1.47-.09-.23-.21-.09-.52c.13-.3.94-.3 1.32-.17.31.1.4.39.42.5.01.02.01.05.01.05Z" class="cls-3"/><path d="M52.83 63.39s0-.02-.01-.05c-.01-.02-.02-.07-.06-.11-.05-.1-.14-.25-.31-.32-.18-.07-.42-.1-.69-.09-.13 0-.28.01-.4.06-.07.02-.13.05-.18.09-.02.02-.03.05-.05.07-.02.03-.03.07-.05.1-.02.09-.03.18 0 .25.02.03.05.06.09.08.03.01.07.02.11.02.19.02.38.03.54.05.31.02.57.03.79.05h.01s.06-.07.08-.08l.08-.08c.01-.02.02-.02.02-.02h0s-.07.11-.16.23h-.01l-.26.01c-.16 0-.34.01-.55 0-.17-.01-.36-.01-.55-.03-.03-.01-.07-.01-.11-.02-.01-.01-.03-.01-.05-.02a.334.334 0 0 1-.13-.11c-.07-.11-.05-.24-.01-.34.01-.05.02-.08.05-.11.02-.05.05-.08.08-.11.07-.05.15-.08.22-.1.15-.05.3-.06.44-.06.27 0 .52.03.72.11.19.1.29.27.32.38.03.11.03.18.02.18ZM54.96 66.22c-.03.09-.66.24-.63.07h0c.02-.13.01-.32 0-.46 0-.08-.01-.14-.01-.14h0l.01-.01c.05-.05.17-.17.29-.18h.01s.05.01.07.02c.17.08.3.61.26.7Z" class="cls-3"/><path d="M55.02 66.13v.07s0 .03-.01.06c-.01.02-.02.03-.03.03-.09.07-.18.08-.26.1s-.17.02-.25.02c-.05 0-.08 0-.13-.03-.02-.01-.05-.05-.05-.07h0s0-.05.01-.07v-.18c.01-.23 0-.37.02-.37.01 0 .05.15.06.37.01.06.01.11.01.19 0 .01-.01.05-.01.05h.01s.05.01.07.01c.14 0 .32-.03.45-.1h0v-.07c0-.05-.01-.08-.01-.13-.02-.07-.05-.15-.07-.22-.05-.13-.11-.26-.19-.25-.03 0-.07.01-.1.02-.06.01-.1.05-.13.07-.03.02-.06.05-.07.05h-.01s0 .01 0 0 .02-.05.05-.08c.06-.05.11-.13.25-.14.02 0 .05 0 .06.01.06 0 .11.05.14.08.05.07.08.14.11.21.02.07.05.15.07.23.01.05.02.09.02.14ZM23.4 21.88V19.9M44.09 21.88V19.9" class="cls-3"/><path d="m36.11 67.81-2.02-1.39" class="cls-5"/><circle cx="149.17" cy="52.58" r="48.26" style="stroke-width:2px;fill:#fff;stroke:#000;stroke-linecap:round;stroke-linejoin:round"/><path d="M119.05 23.61h62.47v55.93h-62.47z" class="cls-5"/><path d="M123.17 60h19.23v19.54h-19.23z" class="cls-9"/><path d="M123.17 60h9.61v19.54h-9.61z" class="cls-9"/><path d="M123.17 33.65h7.41v7.41h-7.41zM134.98 33.65h7.41v7.41h-7.41zM146.54 33.65h7.41v7.41h-7.41zM158.18 33.65h7.41v7.41h-7.41zM169.81 33.65h7.41v7.41h-7.41zM146.54 44.17h7.41v7.41h-7.41zM158.18 44.17h7.41v7.41h-7.41zM169.81 44.17h7.41v7.41h-7.41zM146.54 54.68h7.41v7.41h-7.41zM158.18 54.68h7.41v7.41h-7.41zM169.81 54.68h7.41v7.41h-7.41z" class="cls-5"/><path d="M119.05 23.61h62.47v5.68h-62.47z" class="cls-9"/><path d="M130.77 69.05v2.5M134.79 69.05v2.5" class="cls-5"/><path d="M130.51 44.25h4.54v12.97h-4.54z" class="cls-11"/><path d="M126.3 53v-4.53h12.97V53z" class="cls-11"/><path d="M124.14 38.28v-3.75h4.91v1.24s-1.77-.58-2.78.51c-1.02 1.09-1.02 2-1.02 2h-1.11ZM136.1 38.28v-3.75h4.91v1.24s-1.77-.58-2.78.51c-1.02 1.09-1.02 2-1.02 2h-1.11ZM147.47 38.28v-3.75h4.91v1.24s-1.77-.58-2.78.51-1.02 2-1.02 2h-1.11ZM159.2 38.28v-3.75h4.91v1.24s-1.77-.58-2.78.51c-1.02 1.09-1.02 2-1.02 2h-1.11ZM170.85 38.28v-3.75h4.91v1.24s-1.77-.58-2.78.51c-1.02 1.09-1.02 2-1.02 2h-1.11ZM147.47 48.86v-3.75h4.91v1.24s-1.77-.58-2.78.51c-1.02 1.09-1.02 2-1.02 2h-1.11ZM159.2 48.86v-3.75h4.91v1.24s-1.77-.58-2.78.51c-1.02 1.09-1.02 2-1.02 2h-1.11ZM170.85 48.86v-3.75h4.91v1.24s-1.77-.58-2.78.51-1.02 2-1.02 2h-1.11ZM147.47 59.44v-3.75h4.91v1.24s-1.77-.58-2.78.51c-1.02 1.09-1.02 2-1.02 2h-1.11ZM159.2 59.44v-3.75h4.91v1.24s-1.77-.58-2.78.51c-1.02 1.09-1.02 2-1.02 2h-1.11ZM170.85 59.44v-3.75h4.91v1.24s-1.77-.58-2.78.51-1.02 2-1.02 2h-1.11Z" class="cls-13"/><path d="M146.54 65.35h7.41v7.41h-7.41zM158.18 65.35h7.41v7.41h-7.41zM169.81 65.35h7.41v7.41h-7.41z" class="cls-5"/><path d="M147.47 70.1v-3.75h4.91v1.24s-1.77-.58-2.78.51c-1.02 1.09-1.02 2-1.02 2h-1.11ZM159.2 70.1v-3.75h4.91v1.24s-1.77-.58-2.78.51c-1.02 1.09-1.02 2-1.02 2h-1.11ZM170.85 70.1v-3.75h4.91v1.24s-1.77-.58-2.78.51-1.02 2-1.02 2h-1.11Z" class="cls-13"/></svg>