<svg xmlns="http://www.w3.org/2000/svg" id="Calque_1" viewBox="0 0 200.13 128.13"><defs><style>.cls-13,.cls-5,.cls-6,.cls-8{stroke-linecap:round;stroke-linejoin:round;stroke:#000}.cls-6{stroke-width:2px}.cls-5,.cls-6,.cls-8{fill:#fff}.cls-8{stroke-width:.5px}.cls-13{fill:#d6d6d6}</style></defs><path d="M-1712.17-642.28H942.91V869.49h-2655.08z" style="fill:none;stroke:#e30613;stroke-width:8px;stroke-linecap:round;stroke-linejoin:round"/><path d="m8.64 95.81 6.13 1.2 101.97-1.25" style="fill:#fafafa"/><path d="M43.97 36.45c.78 2.77.93 5.71.41 8.54-.25 1.39-.65 2.76-1.21 4.06-.53 1.25-1.43 2.48-1.5 3.88-.06 1.3.82 2.22 1.89 2.82 1.01.57 2.32.92 2.99 1.94.74 1.13-.17 2.24-.86 3.13-.39.51-.75 1.02-1 1.62-.26.61-.41 1.26-.49 1.92-.4 3.28 1.19 6.6.2 9.84-.13.42.53.61.66.18.9-2.94-.26-5.91-.25-8.88 0-1.4.3-2.74 1.12-3.88.67-.93 1.64-1.88 1.57-3.12-.07-1.23-1.08-2.05-2.09-2.58-.99-.53-2.33-.91-2.88-1.99-.67-1.33.44-2.85.98-4.02.61-1.31 1.07-2.68 1.37-4.08.68-3.15.59-6.45-.29-9.55-.12-.43-.79-.24-.66.18h0Z" class="cls-5"/><path d="M43.97 36.45s-.04-.07 0-.22c.03-.07.09-.15.2-.19.1-.04.25-.05.37.04.12.1.13.28.19.44.05.17.1.36.14.56.1.41.2.88.29 1.41.17 1.07.3 2.4.24 3.94s-.3 3.29-.89 5.15c-.3.92-.66 1.88-1.15 2.82-.24.47-.5.94-.7 1.45-.09.25-.17.52-.21.79-.04.27-.04.55.03.82.12.54.51 1 .98 1.33.48.33 1.03.57 1.58.83s1.1.56 1.57.99c.47.42.87.98.97 1.64.11.66-.11 1.33-.46 1.89-.34.57-.79 1.07-1.17 1.61-.76 1.09-1.06 2.48-1.03 3.86 0 1.39.27 2.79.44 4.22.17 1.42.26 2.93-.15 4.37-.03.09-.04.17-.09.28-.05.1-.16.17-.26.19-.21.05-.46-.07-.51-.31-.02-.12.02-.22.04-.3l.07-.26c.05-.17.08-.35.11-.53.12-.71.14-1.44.1-2.15-.08-1.43-.36-2.83-.5-4.22-.13-1.39-.11-2.8.33-4.09.21-.65.56-1.23.96-1.76.39-.53.82-1.02 1.1-1.59.14-.28.23-.58.23-.89 0-.3-.09-.6-.26-.85-.33-.52-.85-.87-1.38-1.14-.53-.28-1.09-.5-1.61-.79-.52-.29-.99-.66-1.34-1.12-.35-.46-.56-1.03-.55-1.59 0-.56.15-1.1.34-1.59.39-.99.95-1.85 1.3-2.75.73-1.79 1.1-3.52 1.27-5.04.17-1.53.14-2.86.03-3.93-.1-1.08-.27-1.9-.39-2.46-.06-.28-.12-.49-.15-.63-.04-.14-.05-.22-.05-.22s.1.28.23.84c.13.55.31 1.38.42 2.46a19.9 19.9 0 0 1 0 3.95c-.17 1.53-.54 3.27-1.26 5.07-.35.91-.9 1.77-1.29 2.75-.19.49-.33 1.01-.32 1.55 0 .54.19 1.08.53 1.52.34.45.8.8 1.31 1.09.51.29 1.07.51 1.61.79s1.08.64 1.43 1.19c.18.27.29.59.28.92 0 .33-.1.65-.24.94-.29.59-.72 1.09-1.11 1.61-.39.52-.73 1.09-.93 1.72-.43 1.26-.45 2.65-.32 4.03.14 1.38.42 2.78.5 4.22.04.72.02 1.46-.1 2.18-.03.18-.06.36-.11.54l-.07.27c-.02.1-.05.17-.04.24.02.14.2.23.34.2a.26.26 0 0 0 .17-.12c.03-.06.05-.16.07-.25.4-1.42.32-2.9.14-4.32-.17-1.42-.43-2.83-.44-4.23-.02-1.39.28-2.82 1.06-3.94.39-.56.83-1.05 1.17-1.6.34-.55.55-1.18.44-1.8-.09-.62-.47-1.16-.93-1.56-.46-.41-1-.71-1.54-.97-.55-.26-1.1-.49-1.59-.84-.49-.34-.9-.82-1.03-1.41-.06-.29-.07-.58-.03-.86.05-.28.13-.55.22-.81.2-.52.46-.99.71-1.46.48-.93.85-1.88 1.15-2.8.59-1.84.84-3.59.91-5.12.07-1.53-.05-2.86-.21-3.93-.08-.53-.18-1.01-.27-1.41-.04-.2-.09-.39-.14-.56-.05-.17-.06-.34-.17-.43a.36.36 0 0 0-.34-.05.36.36 0 0 0-.19.17c-.05.14 0 .21-.02.21ZM19.52 29.4h7.8c.45 0 .82.37.82.82v12.56c0 .45-.37.82-.82.82h-7.8c-.45 0-.82-.37-.82-.82V30.22c0-.45.37-.82.82-.82Z" class="cls-5"/><path d="M27.32 43.6s.17.02.43-.14c.12-.08.26-.22.33-.43.04-.1.04-.22.04-.35v-.41c0-1.17-.01-2.85-.02-4.92V30.58c0-.17.01-.35-.01-.5a.755.755 0 0 0-.66-.6H19.55c-.37 0-.7.29-.74.65-.01.37 0 .77 0 1.16v11.39c-.03.29.08.56.29.73.1.08.23.14.35.16.12.02.27 0 .4.01h.8c2.07 0 3.75.02 4.92.02.57 0 1.02.01 1.34.01h.47-.47c-.31 0-.76 0-1.34.01-1.17 0-2.85.01-4.92.02h-.8c-.14 0-.27 0-.42-.01a.8.8 0 0 1-.41-.18.88.88 0 0 1-.27-.36c-.06-.14-.07-.31-.06-.45V30.08c.05-.43.45-.78.88-.77H27.46c.38.04.71.35.77.71.03.19.01.35.02.52v6.77c0 2.07-.02 3.75-.02 4.92v.41c0 .13 0 .26-.04.36-.07.22-.22.36-.35.44-.13.08-.25.11-.33.12h-.12Z" class="cls-5"/><path d="M45.05 25.23c-.2.71-.68 1.66-1.09 1.66h-.03c-.42-.04-.78-.36-1.01-.63-.36-.4-.87-.63-1.41-.63H25.87c-.54 0-1.07.21-1.47.59-.45.42-.88.65-1.22.65-.51 0-.88-.6-1-1.01l-.74.23c.24.78.87 1.56 1.75 1.56.69 0 1.34-.47 1.76-.86.26-.24.59-.38.94-.38h15.64c.31 0 .62.14.83.37.46.52.99.83 1.51.88h.11c1.19 0 1.77-2 1.84-2.23l-.75-.21Z"/><path d="M45.03 25.19v.04c-.09.27-.2.56-.34.84a2.5 2.5 0 0 1-.25.41c-.09.13-.21.26-.35.34a.23.23 0 0 1-.14.04c-.11 0-.22-.04-.33-.09-.16-.07-.31-.18-.44-.3-.14-.12-.25-.27-.41-.4a1.911 1.911 0 0 0-1.12-.47H25.99c-.25 0-.52.02-.77.1-.3.09-.58.25-.81.46-.22.21-.45.4-.72.53-.15.08-.31.13-.47.14h-.04c-.14 0-.28-.06-.4-.15-.26-.2-.43-.5-.53-.81l-.02-.07-.07.02c-.25.08-.5.15-.74.23l-.07.02.02.07c.13.41.35.8.65 1.1.3.3.71.51 1.15.51.43 0 .84-.17 1.18-.39.17-.11.34-.23.49-.37.15-.14.29-.27.46-.35.17-.08.35-.13.54-.14h3.95c2.88 0 5.46-.01 7.62-.02 1.08 0 2.05 0 2.9-.01h1.2c.35 0 .65.18.84.4.41.45.83.67 1.14.76.21.06.35.07.42.07h.05s-.04 0-.12-.01c-.08-.01-.2-.03-.34-.08-.29-.09-.71-.33-1.11-.77-.19-.23-.51-.43-.89-.43h-1.19c-.85 0-1.83 0-2.9-.01-2.16 0-4.74 0-7.62-.02h-3.96c-.21 0-.41.06-.6.15s-.35.24-.49.37c-.15.13-.31.25-.47.35-.33.21-.71.36-1.11.36-.39 0-.77-.19-1.05-.47-.27-.27-.47-.61-.59-.98-.02 0-.05.01-.07.02l.05-.09s.01.05.02.07c.2-.06.4-.12.61-.19 0-.02-.02-.04-.02-.07l.09.05s-.04.01-.07.02c.11.31.28.6.56.81.13.1.31.18.49.18h.04c.19-.01.37-.07.53-.16.28-.14.53-.35.75-.55.22-.2.48-.34.76-.43.24-.08.48-.1.73-.1H41.64c.2.01.4.06.58.14.18.07.35.18.49.3s.26.28.41.4c.14.13.3.24.47.31.09.04.17.07.27.08.03 0 .06.01.09.01.07 0 .14-.02.19-.05.17-.09.28-.23.38-.37.1-.14.18-.28.25-.43.14-.28.24-.55.32-.82h-.04l.05-.03v.04c.24.06.47.13.68.18v-.03l.02.04h-.03c-.27.93-.68 1.6-1.08 1.92-.41.33-.73.26-.71.29s.07 0 .2-.01c.06-.01.15-.04.24-.07.09-.04.19-.1.3-.18.42-.32.85-1 1.13-1.96v-.03h-.02c-.23-.07-.48-.14-.75-.21h-.03Z"/><path d="M34.02 20.22h-2.04M34.02 91.64v-8.56c-.02-9.33-.04-10.5-.07-62.86l.07.07h0-2.03l.07-.07c-.01 29.16-.02 21.64-.03 40.66-.03 19.02-.04 21.81-.04 22.2 0-.39-.02-3.16-.04-22.15 0-19.03-.02-11.53-.03-40.71v-.07H34.1v.07c-.03 52.36-.05 62.11-.06 71.44h0l-.01.01" class="cls-13"/><path d="M33.56 26.2s-.15-.05-.13-.21c.03-.16.18-.2.18-.17.02.03-.04.1-.05.19-.02.09.02.17 0 .19ZM31.98 31.51s-.07-1.77-.07-3.96.03-3.96.07-3.96.07 1.77.07 3.96-.03 3.96-.07 3.96Z" class="cls-5"/><rect width="7.45" height="7.04" x="19.69" y="35.47" rx="2.13" ry="2.13" style="fill:#ff6d75;stroke:#000;stroke-linecap:round;stroke-linejoin:round"/><path d="M23.92 30.23c0 .29-.24.53-.53.53s-.53-.24-.53-.53.24-.53.53-.53.53.24.53.53ZM40.21 29.4h7.8c.45 0 .82.37.82.82v12.56c0 .45-.37.82-.82.82h-7.8c-.45 0-.82-.37-.82-.82V30.22c0-.45.37-.82.82-.82Z" class="cls-5"/><path d="M48.01 43.6s.17.02.43-.14c.12-.08.26-.22.33-.43.04-.1.04-.22.04-.35v-.41c0-1.17-.01-2.85-.02-4.92V30.58c0-.17.01-.35-.01-.5a.755.755 0 0 0-.66-.6H40.24c-.37 0-.7.29-.74.65-.01.37 0 .77 0 1.16v11.39c-.03.29.08.56.29.73.1.08.23.14.35.16.12.02.27 0 .4.01h.8c2.07 0 3.75.02 4.92.02.57 0 1.02.01 1.34.01h.47-.47c-.31 0-.76 0-1.34.01-1.17 0-2.85.01-4.92.02h-.8c-.14 0-.27 0-.42-.01a.8.8 0 0 1-.41-.18.88.88 0 0 1-.27-.36c-.06-.14-.07-.31-.06-.45V30.08c.05-.43.45-.78.88-.77H48.15c.38.04.71.35.77.71.03.19.01.35.02.52v6.77c0 2.07-.02 3.75-.02 4.92v.41c0 .13 0 .26-.04.36-.07.22-.22.36-.35.44-.13.08-.25.11-.33.12h-.12Z" class="cls-5"/><rect width="7.45" height="7.04" x="40.5" y="35.47" rx="2.13" ry="2.13" style="fill:#f3d587;stroke:#000;stroke-linecap:round;stroke-linejoin:round"/><path d="M42.03 37.53h4.72V39h-4.72zM44.62 30.23c0 .29-.24.53-.53.53s-.53-.24-.53-.53.24-.53.53-.53.53.24.53.53ZM8.74 85.91l35.8 1.19 1.97-3.4-.28-1.11c.37-.72-.51 4.24-1.2 3.89L8.33 74.66c-.7-.35-1.56-.04-1.92.69l-.29 8.56h0a2.84 2.84 0 0 0 2.62 2Z" class="cls-5"/><path d="M115.55 85.63H8.34c-1.07 0-1.93.58-1.93 1.29v4.2c0 .71.87 1.29 1.93 1.29h107.21c1.07 0 1.93-.58 1.93-1.29v-4.2c0-.71-.87-1.29-1.93-1.29Z" class="cls-5"/><path d="M19.24 69.96c-4.53-1.38-9.67-.57-13.56 2.12 3.88 4.05 8.38 7.16 13.84 8.44 1.66.39 3.37.64 5.07.49 1.7-.14 3.4-.69 4.73-1.75-1.74-4.4-5.56-7.93-10.09-9.31Z" style="stroke-miterlimit:10;fill:#fff;stroke:#000"/><path d="M29.49 79.25s-.02.02-.05.04c-.04.03-.1.06-.16.1-.14.08-.34.23-.63.37-.55.31-1.41.68-2.51.96-1.11.28-2.47.43-3.98.35-1.5-.08-3.15-.38-4.79-.97-1.64-.58-3.12-1.34-4.41-2.12-1.29-.77-2.39-1.57-3.29-2.27-.9-.7-1.59-1.31-2.06-1.74-.24-.21-.41-.39-.53-.5-.05-.05-.1-.1-.14-.13-.03-.03-.04-.05-.04-.05s.02.01.05.04c.04.03.09.07.14.12.13.12.32.28.55.48.48.42 1.18 1.01 2.08 1.7.9.68 2 1.47 3.29 2.24 1.29.76 2.76 1.52 4.39 2.1 1.63.58 3.26.88 4.75.97 1.49.08 2.85-.06 3.94-.32 1.1-.27 1.95-.62 2.51-.91.29-.13.49-.27.64-.35.07-.04.12-.07.17-.09l.06-.03Z" style="fill:#1a2e35"/><path d="M13.78 65.95c-.06-.04-.11-.08-.17-.12-.3.24-.51.58-.59.95-.11.52.05 1.09.41 1.49-.3.36-.36.9-.15 1.32.21.42.69.69 1.16.66.03.38.21.79.56.96.33.16.8.01.9-.33.78.44 1.76.84 2.64 1.15.3.11.55.13.76.12a.742.742 0 0 1 .99-.42c.28.12.62.26.93.39h0c.75-.04-.34-1.19-3.44-2.9 0-.17-.07-.32-.2-.42-.11-.07-.26-.11-.31-.23-.06-.14.05-.3.13-.43.28-.47.17-1.13-.25-1.48.25-.04.38-.33.34-.58-.03-.25-.18-.46-.28-.69-.1-.23-.16-.51-.02-.72.07-.11.19-.19.24-.3 0 0 0-.02.01-.03.08-.23-.13-.46-.33-.6-.17-.12-.37-.24-.45-.42-.01-.03-.03-.07-.03-.11-.01-.13.04-.26.11-.37h0c.05-.12.12-.24.23-.36.03-.06.05-.13.06-.2.8-.36 1.68-.51 2.57-.43h.07s0 0 0 0c.37.04.73.11 1.09.24.21-.49.06-1.12-.37-1.44-.47-.36-1.2-.3-1.6.14-.18-.49-.7-.83-1.22-.81-.52.02-1.01.4-1.15.9-.47-.2-1.05-.13-1.46.18-.41.3-.65.84-.6 1.35-.68.31-1.08 1.13-.91 1.86-.29.41-.28 1.02.02 1.42.03.04.07.08.1.12m3.64-3.61" class="cls-5"/><path d="M20.76 62.08s-.04.1-.07.14l-3.25 2.14s0-.02.01-.03c.08-.23-.13-.46-.33-.6-.17-.12-.37-.24-.45-.42-.01-.03-.03-.07-.03-.11-.01-.13.04-.26.11-.37h0c.05-.12.12-.24.23-.36.03-.06.05-.13.06-.2.8-.36 1.68-.51 2.57-.43h.07s0 0 0 0c.37.04.73.11 1.09.24Z" class="cls-5"/><path d="m32.12 70.39-5.68 4.24-4.34-1.8-2.1-.88-.42-.17c.2-.13.46-.16.7-.06.28.12.62.26.93.39h0c.75-.04-.34-1.19-3.44-2.9 0-.17-.07-.32-.2-.42-.11-.07-.26-.11-.31-.23-.06-.14.05-.3.13-.43.28-.47.17-1.13-.25-1.48.25-.04.38-.33.34-.58-.03-.25-.18-.46-.28-.69-.1-.23-.16-.51-.02-.72.07-.11.19-.19.24-.3 0 0 0-.02.01-.03.08-.23-.13-.46-.33-.6-.17-.12-.37-.24-.45-.42-.01-.03-.03-.07-.03-.11-.01-.13.04-.26.11-.37h0c.05-.12.12-.24.23-.36.03-.06.05-.13.06-.2.8-.36 1.68-.51 2.57-.43h.07s0 0 0 0c.37.04.73.11 1.09.24.05.01.11.04.16.05 2.31.86 4.86 1.85 6.05 2.42 2.46 1.19 1.69 3.85 1.69 3.85l3.47 1.99Z" class="cls-5"/><path d="M21.24 64.42c-.03-.16-.02-.41.09-.64.11-.24.29-.4.44-.47" class="cls-8"/><path d="M23.09 63.82a.427.427 0 0 0-.35 0 .51.51 0 0 0-.27.27c-.1.25.01.54.25.64.08.04.18.05.26.03.03 0 .06-.02.09-.03a.51.51 0 0 0 .27-.27c.1-.25-.01-.54-.25-.64ZM21.09 67.08a.51.51 0 0 0-.27.27c-.1.25.01.54.25.64.08.04.18.05.26.03.03 0 .06-.02.09-.03a.51.51 0 0 0 .27-.27c.1-.25-.01-.54-.25-.64a.45.45 0 0 0-.36 0Z"/><path d="M19.48 68.03c-.03-.16-.02-.41.09-.64.11-.24.29-.4.44-.47M22.67 65.71c.3.03.6.05.87.07.13.01.28.01.41.13.06.06.08.16.07.23-.01.07-.03.13-.05.18-.16.4-.27.64-.29.63" class="cls-8"/><path d="M26.23 74.37s1.53-1.44 2.82-2.83c.72-.77 1-1.19 1.53-2.14l.55-.06 2.93-.4c1.83.03 4.44.95 5.93 1.27 1.5.33 4.87.89 6.7 1.19.83.14 1.65.33 2.46.57l6.76 2.01s.41.72.55 3.8c.14 3.07-4.24 7.22-4.24 7.22s-5.65 1.1-7.02.41c-1.18-.6-4.1-1.02-4.1-1.02s-9.77-1.41-11.24-2.25c-3.05-1.75-3.59-2.93-3.62-7.76Z" class="cls-5"/><path d="M115.93 78.48c-.11-.93-1.74-3.09-2.71-4.31a2.11 2.11 0 0 0-1.8-.78l-8.36.69-22.49-1.44-25.56.29-6.24-1.46-7.37 12.45 4.61 2.17 70.18-.65c.04.2.37-1.63-.25-6.96Z" style="fill:#fab0b4;stroke:#000;stroke-linecap:round;stroke-linejoin:round"/><path d="m48.96 70.28 1.17-.17c-.16.03-.34.08-.54.1-.17.02-.35.06-.55.07h-.12.03ZM50.52 69.81s-.05.11-.12.24h0l-.02.02v-.02l.02-.04s.03-.05.04-.09c.02-.03.04-.05.06-.09l.02-.02ZM52.09 70.61h.01s-.06.06-.11.1c-.04.02-.09.05-.17.08-.07.02-.14.06-.23.1-.09.03-.19.06-.3.06s-.24-.04-.35-.1c-.12-.06-.23-.11-.33-.24-.02-.03-.03-.09-.04-.12 0-.04 0-.08.02-.12.03-.08.08-.13.13-.19.22-.21.46-.32.71-.39a.32.32 0 0 1 .14-.03c.02.02.02.04.02.05.02.02.02.03.02.04.03.04.04.06.04.06l.11.82v.03s.04-.03.09-.06h.01c.05-.05.14-.09.23-.1ZM52.47 72.13c-.03-.23-.07-.36-.05-.36 0 0 .02.05.04.13l.13.41s0 .01-.04.03h0s-.02.03-.04.04h0v-.07l-.03-.18ZM52.73 71.48s-.02.02-.04.03h-.01s-.05.06-.08.09c-.05.02-.09.06-.11.09-.03.03-.05.06-.06.06h0s0 .01 0 0 .01-.05.03-.09c.05-.06.09-.15.22-.18h.06Z" class="cls-5"/><path d="M52.13 70.57v.02h0s0 .02-.01.02l-.02.02c-.05.05-.19.12-.31.15-.16.04-.47.3-.98-.07-.53-.38.5-.86.75-.89h.06c.22 0 .37.16.48.39.1.18.07.3.05.37Z" class="cls-5"/><path d="M52.75 71.47s0 .01-.02.02h-.06c-.13.04-.17.13-.22.18-.02.04-.03.08-.03.09h0s.01.15.05.38l.03.18v.06h0c-.14.15-.42.43-.52.46-.13.03-.94.27-.94.27l-.19-.03-4.21 10.57a3.283 3.283 0 0 1-3.92 2.01l-10.84-2.92 3.06-5.45s7.11 2.43 7.39 2.31c.2-.1 3.54-5.04 5.01-7.22-.26-.13-.54-.32-.6-.5 0 0 .06-1.07.77-1.18 0 0 .67-.25.92-.32.2-.05.42-.08.5-.08h.12c.2-.01.38-.05.55-.07.2-.03.38-.07.54-.1l.23-.03h0l.02-.02h0c.07-.14.1-.22.12-.26h0v-.02c.1-.14.27-.26.49-.29.29-.04.47.14.57.28-.05 0-.09 0-.14.03-.24.07-.49.19-.71.39-.05.06-.1.11-.13.19-.02.04-.02.09-.02.12s.02.09.04.12c.1.13.21.18.33.24.11.06.23.1.35.1s.22-.03.3-.06c.09-.04.16-.08.23-.1.08-.03.13-.06.17-.08.05-.04.09-.08.11-.1h.01c.08 0 .19.01.28.07.3.22.46.69.35.79Z" class="cls-5"/><path d="M52.18 70.46c-.02.09-.03.13-.05.14V70.46c0-.09-.05-.22-.16-.37a.578.578 0 0 0-.2-.18c-.05-.02-.1-.04-.15-.04-.05 0-.1 0-.15.03-.22.08-.46.2-.65.37-.09.09-.16.21-.09.3.05.08.16.16.26.21.21.11.42.11.58.05.07-.02.14-.05.2-.07h.03s.03-.02.05-.03h.01s.08-.03.11-.05c.04-.02.09-.04.11-.04h0l.01-.02c-.02.03-.06.06-.11.1-.04.02-.09.05-.17.08-.07.02-.14.06-.23.1-.09.03-.19.06-.3.06s-.24-.04-.35-.1c-.12-.06-.23-.11-.33-.24-.02-.03-.03-.09-.04-.12 0-.04 0-.08.02-.12.03-.08.08-.13.13-.19.22-.21.46-.32.71-.39a.32.32 0 0 1 .14-.03c.08 0 .17.01.23.05.11.06.17.14.22.23.11.15.16.31.15.41ZM50.52 69.78h0v.02l-.02.02-.1.18-.02.04s-1.3.23-1.46.19-.26-.16-.19-.49c.07-.32.87-.47 1.26-.42.32.04.47.31.51.42.02.02.02.04.02.04Z" class="cls-5"/><path d="M50.52 69.78s0-.02-.02-.04-.04-.06-.08-.1a.607.607 0 0 0-.36-.26 1.85 1.85 0 0 0-.69.04c-.12.02-.27.06-.38.13-.06.04-.12.07-.16.12-.02.03-.02.05-.03.08-.02.04-.02.07-.03.11 0 .09 0 .19.05.25.03.03.06.05.11.06h.12c.2-.01.38-.04.54-.06.31-.04.57-.07.79-.11h.01c.02-.05.04-.08.06-.1.02-.03.04-.05.06-.09 0-.02.02-.03.02-.03h0s-.05.13-.12.26h0l-.26.06c-.16.03-.34.08-.54.1-.17.02-.35.06-.55.07h-.12c-.01 0-.04 0-.05-.01a.302.302 0 0 1-.15-.09c-.09-.1-.09-.23-.08-.34 0-.05 0-.08.02-.12a.31.31 0 0 1 .06-.13.77.77 0 0 1 .19-.14 2.017 2.017 0 0 1 1.15-.16c.21.06.33.22.39.31.06.11.07.17.06.18ZM53.15 72.16c-.02.1-.61.36-.61.19h0c0-.13-.05-.32-.08-.45-.02-.08-.04-.13-.04-.13h0l.01-.01c.04-.05.14-.2.25-.23h.08c.18.05.41.54.39.64Z" class="cls-5"/><path d="M53.19 72.06v.07s.02.03.01.06c0 .02-.02.04-.03.04-.08.09-.17.11-.24.15s-.16.06-.24.07c-.05 0-.08.02-.13 0-.02 0-.05-.04-.06-.06h0v-.07l-.03-.18c-.03-.23-.07-.36-.05-.36.01 0 .07.14.13.35.02.05.03.11.05.19v.05h.08c.13-.03.31-.09.42-.19h0v-.07c0-.05-.03-.08-.03-.12-.04-.06-.07-.14-.11-.2-.07-.12-.16-.24-.24-.21-.03 0-.07.02-.1.04-.05.02-.09.06-.11.09-.03.03-.05.06-.06.06h0s0 .01 0 0 .01-.05.03-.09c.05-.06.09-.15.22-.18h.06c.06-.01.12.02.15.05.06.06.11.12.15.18.04.06.07.14.11.21.02.04.04.09.05.13ZM23.4 29.7v-1.98M44.09 29.7v-1.98" class="cls-5"/><path d="m34.94 77.28-2.25-.98" style="fill:none;stroke:#000;stroke-linecap:round;stroke-linejoin:round"/><path d="M118.67 92.41v16.25h-6.56v-8.36H12.97v8.36H6.4V92.41h112.27z" style="fill:#a07637;stroke:#000;stroke-linecap:round;stroke-linejoin:round"/><circle cx="149.17" cy="60.4" r="48.26" class="cls-6"/><path d="M122.84 45.66h50.15v34.97h-50.15z" class="cls-6"/><path d="m147.92 31.19 25.07 14.47h-50.14l25.07-14.47z" style="fill:#ff6d75;stroke-width:2px;stroke:#000;stroke-linecap:round;stroke-linejoin:round"/><path d="M132.86 54.07h12.49v9.91h-12.49z" style="fill:#b2f0e9;stroke-width:2px;stroke:#000;stroke-linecap:round;stroke-linejoin:round"/><path d="M164 80.32V57.46h-9v22.86" style="stroke-width:2px;fill:#a07637;stroke:#000;stroke-linecap:round;stroke-linejoin:round"/></svg>