<svg xmlns="http://www.w3.org/2000/svg" id="Calque_1" data-name="Calque 1" viewBox="0 0 200 128"><defs><style>.cls-2,.cls-3,.cls-4,.cls-6{stroke-linecap:round;stroke-linejoin:round}.cls-2,.cls-4,.cls-6,.cls-8{stroke:#000}.cls-2{fill:#fce9b9}.cls-3{stroke:#f3d587}.cls-3,.cls-4{fill:#f3d587}.cls-6{fill:none;stroke-width:2px}.cls-11,.cls-8{fill:#ff6d75;stroke-miterlimit:10}.cls-11{stroke:#b2f0e9;fill:#87ccf3}</style></defs><path d="m148.2 92.95-.56 1.05-11.07 20.81H41.03l17.46-21.86h89.71z" style="stroke:#000;stroke-linecap:round;stroke-linejoin:round;fill:#d6d6d6"/><path d="M39.93 7.34 13.38 38.52v80.95l26.55-31.18M155.65 88.29H39.93" class="cls-6"/><path d="M104.48 10.77c-2.41 4.32-9.49 7.32-10.35 7.41-3.84.44-4.25-2.28-8.7-1.88-4.48.38-5.04 3.2-7.74 2.61-3.4-.73-3.19-4.62-7.01-5.99-3.8-1.37-5.87.63-7.99-.98-1.16-.87-1.84-2.47-2.05-4.12h44.42c.13.94 0 1.92-.58 2.95Z" class="cls-11"/><path d="M166.56 55.65c4.45 0 8.06-3.61 8.06-8.06s-8.06-14.24-8.06-14.24-8.06 9.79-8.06 14.24 3.61 8.06 8.06 8.06Z" style="fill:#87ccf3;stroke-miterlimit:10;stroke:#000"/><path d="m105.35 19.64 47.08 22.81H62.78" style="fill:none;stroke:#000;stroke-linecap:round;stroke-linejoin:round"/><path d="m106.55 24.76.94-.36-1.79-4.59 4.71-1.45-.29-.96-5.74 1.77 2.17 5.59zM66.09 38.36l.68.73-3.61 3.36 3.61 3.36-.68.73-4.4-4.09 4.4-4.09z"/><path d="M47.48 43.44c-.21-2.04-1.29-2.6-2.07-4.34-1.6-3.56.81-5.38 0-10.34-.56-3.43-3.73-6.59-5.48-6.21-2.29.5-3.15 7.24-3.67 11.38-.06.45-.51 4.1-1.13 5.73-.05.14-.25.65-.4 1.36-.61 2.88.56 3.37.21 6.83-.37 3.63-1.77 4.22-1.24 6.62.38 1.74 1.15 1.59 2.28 4.14 1.01 2.31.84 3.38 1.45 6.21.75 3.48 1.33 6.07 2.51 5.95 1.12-.12 4.06-4.73 4.45-7.65.41-3.07.23-3.9 1.03-5.38 1.32-2.43 3.11-2.15 3.52-3.93.48-2.13-2-2.95-2.07-6.21-.04-1.93.82-2.23.62-4.14Z" class="cls-11"/><path d="M39.93 88.29V7.34" class="cls-6"/><path d="m109.92 88.26-.05.04" style="stroke-miterlimit:10;fill:none;stroke:#000"/><path d="M39.93 7.34h115.72" class="cls-6"/><path d="M56.08 59.07h39.66c1.06 0 1.92.86 1.92 1.92v26.9c0 1.06-.86 1.92-1.92 1.92H56.08a1.92 1.92 0 0 1-1.92-1.92V61c0-1.06.86-1.92 1.92-1.92Z" class="cls-2"/><path d="M141.11 60.99v26.89c0 1.06-.86 1.92-1.92 1.92H99.53a1.92 1.92 0 0 1-1.92-1.92V60.99c0-1.06.86-1.92 1.92-1.92h39.66c.12 0 .23 0 .34.03.9.16 1.58.95 1.58 1.89Z" class="cls-2"/><path d="M54.16 83.93h86.58v15.94H54.16z" class="cls-2"/><path d="M61.69 83.22h72.2v1.79h-72.2z" class="cls-4"/><path d="M63.33 63.86c0 .45-.37.82-.82.82s-.82-.37-.82-.82.37-.82.82-.82.82.37.82.82ZM90.14 63.86c0 .45-.37.82-.82.82s-.82-.37-.82-.82.37-.82.82-.82.82.37.82.82ZM134.71 63.86c0 .45-.37.82-.82.82s-.82-.37-.82-.82.37-.82.82-.82.82.37.82.82ZM105.72 63.86c0 .45-.37.82-.82.82s-.82-.37-.82-.82.37-.82.82-.82.82.37.82.82ZM90.14 80.02c0 .45-.37.82-.82.82s-.82-.37-.82-.82.37-.82.82-.82.82.37.82.82ZM131.21 80.02c0 .45-.37.82-.82.82s-.82-.37-.82-.82.37-.82.82-.82.82.37.82.82ZM105.72 80.02c0 .45-.37.82-.82.82s-.82-.37-.82-.82.37-.82.82-.82.82.37.82.82ZM68.29 80.02c0 .45-.37.82-.82.82s-.82-.37-.82-.82.37-.82.82-.82.82.37.82.82ZM77.06 71.25c0 .45-.37.82-.82.82s-.82-.37-.82-.82.37-.82.82-.82.82.37.82.82ZM120.17 71.25c0 .45-.37.82-.82.82s-.82-.37-.82-.82.37-.82.82-.82.82.37.82.82Z" class="cls-3"/><path d="M61.69 77.58v20.87c0 2.05-1.66 3.71-3.71 3.71h-6.26c-2.05 0-3.71-1.66-3.71-3.71V77.58c0-2.05 1.66-3.71 3.71-3.71h6.26a3.712 3.712 0 0 1 3.71 3.71Z" class="cls-4"/><rect width="13.69" height="28.29" x="133.89" y="73.87" class="cls-4" rx="3.71" ry="3.71"/><path d="M79.69 76.66s0-.04-.01-.06c-.03-.14-.06-.28-.08-.42 0-.04-.01-.07-.02-.11-.03-.15-.06-.3-.08-.45 0-.03 0-.06-.01-.08-.02-.12-.04-.24-.06-.35 0-.04-.01-.08-.02-.13l-.06-.4c-.21-2.34.09-6.52-.39-6.77-.38-.2-.75.29-1.91.09-3.42-.59-5.91-.47-6.34-.38-.44 0-2.89.4-6.12 1.69-.12.05-.24.09-.35.12-.03 0-.07.02-.1.02-.07.02-.14.03-.21.04-.03 0-.07.01-.1.01a.99.99 0 0 0-.18.02h-.07c-.42.01-.67-.07-.88.09-.41.34.75 4.37 1.03 6.7.21 2.34-.09 6.52.39 6.77.38.2.75-.29 1.91-.09 3.42.59 5.9.35 6.32.26.44 0 2.91-.29 6.13-1.58 1.09-.44 1.55-.04 1.88-.31.14-.12.1-.66-.03-1.42 0-.02 0-.05-.01-.07-.15-.9-.42-2.08-.65-3.21ZM130.22 69.63c-.21-.16-.46-.07-.88-.06h-.25c-.03 0-.06 0-.1-.01-.07 0-.14-.02-.21-.04-.03 0-.07-.01-.1-.02-.11-.03-.23-.06-.35-.1-3.27-1.18-5.74-1.49-6.17-1.48-.43-.07-2.92-.11-6.32.61-1.15.24-1.54-.23-1.91-.02-.47.27-.02 4.44-.15 6.78-.01.13-.03.27-.04.41 0 .04 0 .08-.01.12-.01.12-.03.24-.05.36 0 .03 0 .05-.01.08-.02.15-.04.31-.07.47 0 .03 0 .05-.01.08-.02.16-.05.31-.07.47-.35 2.14-.84 4.49-.52 4.74.34.26.79-.15 1.89.25 3.27 1.18 5.75 1.37 6.18 1.36.43.07 2.91.22 6.31-.49 1.15-.24 1.54.23 1.91.02.47-.27.02-4.44.15-6.78.2-2.34 1.22-6.4.79-6.73Z" class="cls-8"/><path d="M14.85 105.62s.41-4.1 4.36-3.87c3.94.23.79-.74 4.75-4.22 2.14-1.88 1.28-6.18 6.45-4.58 0 0 2.11-2.72 5.01-1.67l-20.56 24.18v-9.84Z" class="cls-11"/><path d="M-1344.09-2712.47H900.36v5948.74h-2244.45z" style="stroke:#fff;stroke-width:8px;fill:none;stroke-linecap:round;stroke-linejoin:round"/></svg>