<svg xmlns="http://www.w3.org/2000/svg" id="Calque_1" viewBox="0 0 128 128"><defs><style>.cls-2,.cls-3,.cls-4,.cls-5,.cls-7{stroke-linecap:round;stroke-linejoin:round}.cls-11,.cls-2,.cls-3,.cls-4,.cls-5,.cls-7{stroke:#000}.cls-2,.cls-7{fill:#afaff9}.cls-3{fill:#87ccf3}.cls-4{fill:#fff}.cls-11,.cls-5{fill:none}.cls-7{stroke-width:1.03px}.cls-11{stroke-miterlimit:10;stroke-width:.24px}</style></defs><path d="M40.58 36.99c1.14 2.74 1.22 3.79 2.37 6.53 1.1 2.62 4.88 6.2 6.22 6.34 2.1.22 5.94-6.08 6.35-8.34" class="cls-4"/><path d="M50.84 38.27c-.58 1.23-1.24 3.69-1.85 4.95-.17-.34-3.53-4.4-4.19-5.58-.24-.8-.48-1.6-.62-2.42-.09-.55-.15-1.11-.31-1.65-.11-.34-.26-.68-.49-.96-.23-.28-.55-.44-.81-.69-.16-.16-.29-.33-.44-.5a6.471 6.471 0 0 0-1.9-1.51c-.37-.19-.75-.35-1.15-.46-.53-.16-1.09-.27-1.47.28-.23.33-.12.61.03.93-.38.4-.3.89-.11 1.34 0 .02.02.05.02.07 0 .04-.03.08-.06.11-.14.19-.16.44-.11.67.12.55.46.94.84 1.33.26.26.47.57.72.84.58.62 1.02 1.41 1.64 1.97a.8.8 0 0 1 .13.13c.04.06.07.14.09.21.16.51-.29-.45 0 0M80.63 77.77l.33.87 1.5 3.94c.11.27.4.41.67.32.23-.07.38-.28.38-.51s-.01-.09-.02-.14l-.12-.46h-.01l-.51-1.93-2.22-2.09Z" class="cls-4"/><path d="m75.48 40.52.09 7.22.11 1.53.11 1.66.32 4.69 1.65 15.58c.01.1.02.19.06.28l-.09.73s-.93 2.53.22 4.86l.06.12c.67 1.39.89 2.39.96 2.94.04.29.28.52.58.53h.02c.31 0 .57-.23.6-.54.05-.61.08-1.65-.19-2.76l.98 1.28-.33-.87 2.22 2.09.51 1.92h.01l.44.58c.17.22.49.25.7.07a.51.51 0 0 0 .15-.35c0-.06-.01-.12-.04-.18l-2.55-6.85s-.93-2.46-1.41-4.22c-.01-.02-.01-.05-.02-.07l.38-22.49s.6-5.72.6-11.23h-5.61l.07-.56c-.19 1.34-.39 2.71-.6 4.04Z" class="cls-4"/><path d="m80.63 77.77.33.87 2.4 3.14-.51-1.92-2.22-2.09z" class="cls-4"/><path d="M76.1 25.63s6.41-.32 6.35 12.37l-5.89.27-.46-12.64Z" class="cls-2"/><path d="m61.7 118.05 1.05-18.52-6.07.58.43 17.82 4.59.12zM66.72 118.29v-4.1l.7-11.57 5.37-2.8-1.13 18.12-4.94.35z" class="cls-4"/><path d="m76.34 67.63-4.12 43.51h-6.49l.03-48.59-1.01-.14-2.07 48.73h-6.49s-.81-17.91-1.79-33.95c-.17-2.85-.35-5.65-.53-8.27-.4-5.84-.03-10.15.65-13.3.43-2 .98-3.53 1.53-4.69 1.15-2.43 2.29-3.2 2.29-3.2 7.5-4.34 14.09 0 14.09 0 1.17 1.71 2.03 3.57 2.65 5.43.27.81.49 1.63.68 2.43.12.53.23 1.05.31 1.56 1.01 5.65.27 10.48.27 10.48ZM58.52 124.59l-9.36.12c-.69 0-1.26-.54-1.28-1.23h0c-.01-.48.25-.92.67-1.15l7.96-4.26c.18-.1.39-.15.6-.15h4.06c.59 0 1.1.41 1.23.99l.78 3.49c.02.08.03.16.03.24l.02.61c.02.7-.54 1.29-1.25 1.29l-1.61.02-1.85.02ZM70.25 124.6l9.36.12c.69 0 1.26-.54 1.28-1.23h0c.01-.48-.25-.92-.67-1.15l-7.96-4.26c-.18-.1-.39-.15-.6-.15H67.6c-.59 0-1.1.41-1.23.99l-.78 3.49c-.02.08-.03.16-.03.24l-.02.61c-.02.7.54 1.29 1.25 1.29l1.61.02 1.85.02Z" class="cls-2"/><path d="M76.85 55.59h-3.44l-17.68.03h-1.9v-.14l.69-2.96.45-26.46h0c-.01-.09-.02-.14-.02-.14l4.78-1.29 2.99-.81-2.12 1.88 4.96 4.55 5.04-4.55-2.03-1.88 2.75.64h.02l5.26 1.23h0l-.73 26.72.98 3.18Z" class="cls-2"/><path d="m70.6 25.7-5.04 4.55 3.15-6.23 1.89 1.68z" class="cls-3"/><path d="M65.56 30.25 60.6 25.7l1.99-1.77 2.97 6.32z" class="cls-3"/><path d="M65.56 30.25 60.6 25.7l1.99-1.77 2.97 6.32z" class="cls-3"/><path d="m70.6 25.7-5.04 4.55 3.15-6.23 1.89 1.68z" class="cls-3"/><path d="M65.56 30.25 60.6 25.7l1.99-1.77 2.97 6.32z" class="cls-7"/><path d="m70.6 25.7-5.04 4.55 3.15-6.23 1.89 1.68z" class="cls-7"/><path d="m68.57 23.82-3.01 6.43-2.84-6.43.92-2.34h4.56l.37 2.34z" class="cls-4"/><path d="M65.12 3.62s0 1.14-.41 1.9h-.01M62.91 6c-.9-.52-1.51-1.84-1.51-1.84M60.07 16.44h-.01c-.11-.02-.84-.21-1.27-1.38-.47-1.26-1.01-1.11-1.05-2.41-.03-1.23 1.24-.7 1.38-.62M70.47 5.23s-.88.52-1.86.7" class="cls-5"/><path d="M61.06 6.56c.56.03 1.21-.1 1.86-.56.27.17.56.25.86.21.43-.04.72-.33.92-.69.01 0 .02.02.03.02.12.11.9.8 1.86-.13.5.6 1.29.66 2.03.53.44.34 1.04.3 1.04.3.03.05.08.11.11.16 1.8 2.54 1.97 4.26 1.99 4.45.11-.45.19-.88.25-1.29-.1.76-.24 1.31-.27 1.43h0v.03h.01c.03.72.03 2.58-.26 4.51-.25 1.6-.73 3.25-1.61 4.31-2.03 2.47-3.35 2.52-3.55 2.51-.2.05-1.59.26-3.99-1.88-1.03-.91-1.76-2.47-2.25-4.01-.59-1.86-.86-3.7-.95-4.41h.01c-.02-.08-.02-.16-.02-.26.03.07.05.11.05.11-.02-.3-.03-.6-.02-.89.19-1.49 1.56-3.96 1.72-4.39l.2-.04Z" class="cls-4"/><path d="M59.13 10.99c-.04.28-.05.54-.03.78" class="cls-5"/><path d="M59.12 12.02s0-.01-.01-.02h0c-.06-.15-.39-.88-.61-1.88v-.03c-.45-1.99-.46-5 2.85-6.34 0 0 .2-1.09 1.6-.92 0 0 1.62-1.77 3.57-.32 1.36-.38 1.73.66 1.73.66 3.74.88 3.98 4.25 3.76 6.26 0 .04-.01.07-.01.1" class="cls-5"/><path d="M69.79 6.6s1.92 2.8 1.92 4.41M59.08 11.72h0s0 .13.03.28h0v.03M71.72 11.01v-.02" class="cls-5"/><path d="M71.71 10.7s0 .1.01.28M71.45 15.51h.01c.1-.04.8-.34 1.05-1.56.27-1.31.82-1.25.67-2.54-.16-1.22-1.33-.5-1.46-.4M67.38 4.3c-.24.45-.49.79-.72 1.03-.03.03-.05.07-.08.08M64.73 5.54l-.02-.02" class="cls-5"/><path d="M66.03 10.85s.43 3.87 1.27 5.81c0 0-.16.4-1.42.15" class="cls-4"/><ellipse cx="63.43" cy="12.7" class="cls-4" rx=".13" ry=".39" transform="rotate(-4.42 63.48 12.7)"/><ellipse cx="68.76" cy="12.19" class="cls-4" rx=".13" ry=".39" transform="rotate(-4.42 68.817 12.258)"/><path d="M68.71 33.44h3.7v1.53h-3.7z" class="cls-4"/><path d="M55.52 25.92s-6.41-.32-6.35 12.37l5.89.27.46-12.64Z" class="cls-2"/><path d="m29.49 29.53-3.63-.35" class="cls-11"/><path d="m42.48 31.68-10.66-1.14c.04-.07.07-.14.1-.21.15-.35.19-.73.12-1.11a.902.902 0 0 0-.06-.22l10.66 1.14-.16 1.53Z" style="stroke-width:.48px;fill:#fff;stroke:#000;stroke-linecap:round;stroke-linejoin:round"/><path d="m35.52 30.94-3.71-.4c.04-.07.07-.14.1-.21.15-.35.19-.73.12-1.11a.902.902 0 0 0-.06-.22l3.71.4-.16 1.53Z" style="fill:#ff6d75;stroke-width:.48px;stroke:#000;stroke-linecap:round;stroke-linejoin:round"/><path d="m31.92 30.34-.76-.08-.56-.31-1.15-.44 1.21-.18.61-.18.76.08c.07.37.03.76-.12 1.11Z" style="stroke-width:.48px;fill:none;stroke:#000;stroke-linecap:round;stroke-linejoin:round"/><path d="m42.79 29.18-.37 3.48" style="fill:none;stroke-width:.72px;stroke:#000;stroke-linecap:round;stroke-linejoin:round"/><path d="M36.61 30.23h3.74v.5h-3.74z" style="stroke-width:.72px;stroke:#000;stroke-linecap:round;stroke-linejoin:round" transform="rotate(96.1 38.475 30.479)"/><path d="m34.32 30.03-.08.77M33.49 29.94l-.09.77M32.65 29.85l-.09.77" class="cls-11"/><path d="M44.06 34.48c-.14-1.63-.22-2.43-.84-3.09-.21-.22-.46-.4-.71-.58-.62-.44-1.21-.92-1.72-1.49-.14-.16-.29-.33-.49-.37-.63-.12-.41 1.01-.27 1.29.38.77 1.23 1.26 1.31 2.2.02.25-.03.5-.05.75-.03.46.07.92.19 1.37" class="cls-4"/></svg>