<svg xmlns="http://www.w3.org/2000/svg" id="Calque_1" data-name="Calque 1" viewBox="0 0 200 128"><defs><style>.cls-1,.cls-2,.cls-3,.cls-4,.cls-5,.cls-6,.cls-7,.cls-9{stroke-linecap:round;stroke-linejoin:round}.cls-1,.cls-10,.cls-11,.cls-12,.cls-2,.cls-3,.cls-5,.cls-6,.cls-7,.cls-9{stroke:#000}.cls-1,.cls-13{fill:#d6d6d6}.cls-2{fill:#baa584}.cls-3{fill:#fce9b9}.cls-4{stroke:#f3d587}.cls-4,.cls-5{fill:#f3d587}.cls-11,.cls-6{fill:#fff}.cls-12,.cls-7{fill:none}.cls-14{fill:#ffce00}.cls-10{fill:#ff6d75}.cls-10,.cls-11,.cls-12{stroke-miterlimit:10}</style></defs><path d="M7.09 74.7c-.39.46-.84.87-1.25 1.31-.68.72-1.22 1.54-1.49 2.5-.41 1.43.09 3.08 1.47 3.79.44.22.91.32 1.4.35.32 1.24 1.2 2.33 2.28 3 1.46.9 3.34.75 4.81-.02.08-.01.17-.02.25-.04 1.03-.24 1.94-.95 2.57-1.78.81-1.07 1.39-2.2 1.47-3.56.04-.71-.18-1.49-.57-2.08-.45-.68-1.09-1.11-1.82-1.4-.09-.31-.21-.62-.36-.96-.49-1.04-1.46-1.93-2.49-2.41-.96-.44-2.15-.81-3.22-.8-.89 0-1.77.37-2.37 1.03-.29.32-.47.7-.68 1.07ZM164.15 81.44c-.03-.6.01-1.2.01-1.81 0-.99-.17-1.96-.63-2.84-.69-1.32-2.18-2.18-3.68-1.75-.47.14-.89.39-1.26.71-1.09-.68-2.48-.87-3.72-.61-1.68.35-2.95 1.75-3.48 3.32-.05.07-.11.13-.15.2-.58.88-.76 2.02-.65 3.06.15 1.34.5 2.56 1.38 3.6.46.54 1.15.96 1.84 1.12.79.18 1.56.06 2.28-.23.28.16.58.31.92.45 1.07.42 2.39.4 3.47.04 1-.34 2.12-.89 2.89-1.62.64-.61 1.03-1.49 1.02-2.37 0-.44-.14-.84-.24-1.25Z" class="cls-13"/><path d="M2.08 88.91h194.54" class="cls-7"/><path d="M160.68 52.52v1.94h9.6v-1.9l-9.6-.04zM159.1 54.46h12.76v1.58H159.1z" class="cls-1"/><path d="M138.34 24.66h56.26v27.89h-56.26z" class="cls-1"/><path d="M140.7 26.59h51.53v24.04H140.7z" class="cls-6"/><path d="M139.01 55.9h53.75v2.57h-53.75z" class="cls-2"/><path d="M49.33 51.55h44.16c1.18 0 2.14.96 2.14 2.14v29.95c0 1.18-.96 2.14-2.14 2.14H49.33c-1.18 0-2.14-.96-2.14-2.14V53.7c0-1.18.96-2.14 2.14-2.14Z" class="cls-3"/><path d="M144 53.69v29.94c0 1.18-.96 2.14-2.14 2.14H97.7c-1.18 0-2.14-.96-2.14-2.14V53.69c0-1.18.96-2.14 2.14-2.14h44.16c.13 0 .26.01.38.03 1 .18 1.76 1.05 1.76 2.1Z" class="cls-3"/><path d="M47.19 79.23h96.39v17.74H47.19z" class="cls-3"/><path d="M55.58 78.44h80.39v2H55.58z" class="cls-5"/><path d="M57.4 56.88c0 .5-.41.91-.91.91s-.91-.41-.91-.91.41-.91.91-.91.91.41.91.91ZM87.26 56.88c0 .5-.41.91-.91.91s-.91-.41-.91-.91.41-.91.91-.91.91.41.91.91ZM136.88 56.88c0 .5-.41.91-.91.91s-.91-.41-.91-.91.41-.91.91-.91.91.41.91.91ZM104.6 56.88c0 .5-.41.91-.91.91s-.91-.41-.91-.91.41-.91.91-.91.91.41.91.91ZM87.26 74.87c0 .5-.41.91-.91.91s-.91-.41-.91-.91.41-.91.91-.91.91.41.91.91ZM132.99 74.87c0 .5-.41.91-.91.91s-.91-.41-.91-.91.41-.91.91-.91.91.41.91.91ZM104.6 74.87c0 .5-.41.91-.91.91s-.91-.41-.91-.91.41-.91.91-.91.91.41.91.91ZM62.92 74.87c0 .5-.41.91-.91.91s-.91-.41-.91-.91.41-.91.91-.91.91.41.91.91ZM72.69 65.11c0 .5-.41.91-.91.91s-.91-.41-.91-.91.41-.91.91-.91.91.41.91.91ZM120.69 65.11c0 .5-.41.91-.91.91s-.91-.41-.91-.91.41-.91.91-.91.91.41.91.91Z" class="cls-4"/><path d="M35.84 93.29c0 1.15-5.42 2.1-12.11 2.1s-12.12-.95-12.12-2.1 5.02-2.03 11.35-2.09V22.47h2.25v68.74c5.99.12 10.64 1 10.64 2.08Z" class="cls-1"/><path d="M18.95 15.72 9.64 39.8h28.88l-8.66-24.08H18.95z" style="fill:#fab0b4;stroke:#000;stroke-linecap:round;stroke-linejoin:round"/><path d="M18.02 39.8h.26v13.1h-.26z" class="cls-6"/><ellipse cx="18.08" cy="53.45" class="cls-1" rx=".71" ry="1.05"/><path d="M55.58 72.16v23.23c0 2.28-1.85 4.13-4.13 4.13h-6.97c-2.28 0-4.13-1.85-4.13-4.13V72.16c0-2.28 1.85-4.13 4.13-4.13h6.97c.27 0 .54.03.79.08 1.9.37 3.34 2.04 3.34 4.06Z" class="cls-5"/><rect width="15.24" height="31.5" x="135.97" y="68.02" class="cls-5" rx="4.13" ry="4.13"/><path d="M75.62 71.13s0-.04-.01-.06c-.03-.16-.06-.31-.09-.46 0-.04-.02-.08-.02-.12-.03-.17-.06-.34-.09-.5 0-.03-.01-.06-.02-.09l-.06-.39c0-.05-.01-.09-.02-.14-.02-.15-.04-.31-.06-.45-.23-2.6.1-7.26-.43-7.54-.42-.22-.83.32-2.12.1-3.81-.66-6.58-.52-7.05-.42-.49 0-3.22.45-6.81 1.89-.14.06-.27.1-.39.13l-.11.03c-.08.02-.16.04-.23.05-.04 0-.07.01-.11.02-.07 0-.14.01-.2.02h-.08c-.47.01-.75-.08-.98.11-.46.38.83 4.87 1.15 7.46.23 2.6-.1 7.26.43 7.54.42.22.83-.32 2.12-.1 3.81.66 6.56.39 7.04.29.49 0 3.24-.32 6.82-1.76 1.22-.49 1.73-.04 2.1-.35.16-.13.11-.74-.03-1.58 0-.03 0-.05-.01-.08-.17-1-.47-2.31-.72-3.57ZM131.88 63.31c-.23-.18-.51-.07-.98-.07h-.08c-.06 0-.13 0-.21-.01-.03 0-.07 0-.11-.01-.07 0-.15-.02-.23-.04-.04 0-.07-.01-.11-.02-.12-.03-.25-.07-.39-.12-3.64-1.31-6.39-1.66-6.87-1.64-.48-.08-3.25-.12-7.03.67-1.28.27-1.71-.26-2.13-.02-.52.3-.03 4.94-.16 7.55-.01.14-.03.3-.05.45 0 .04-.01.09-.02.14-.02.13-.03.27-.05.4 0 .03 0 .06-.01.09-.02.17-.05.34-.08.52 0 .03 0 .06-.01.09-.03.17-.05.35-.08.52-.39 2.39-.94 5-.58 5.28.38.29.88-.17 2.11.27 3.64 1.31 6.4 1.53 6.88 1.51.48.08 3.24.25 7.03-.54 1.28-.27 1.71.26 2.13.02.52-.3.03-4.94.16-7.55.23-2.6 1.36-7.13.88-7.5Z" class="cls-10"/><path d="M26.7 95.33s-.25 8.49 9.14 12.35 22.03.35 23.61 3.86" class="cls-7"/><path d="M59.23 113.82c-.81-.76-.85-2.04-.09-2.85s2.04-.85 2.85-.09l-2.76 2.94Z" class="cls-9"/><path d="m61.37 111.49 1.15 1.08M59.78 113.26l1.15 1.08" class="cls-7"/><path d="m26.94 111.46 6.91-11.97c.4-.69 1.4-.69 1.8 0l6.91 11.97c.4.69-.1 1.56-.9 1.56H27.84c-.8 0-1.3-.86-.9-1.56Z" class="cls-14"/><path d="M34.74 98.97c.35 0 .7.17.9.52l6.91 11.97c.4.69-.1 1.56-.9 1.56H27.83c-.8 0-1.3-.86-.9-1.56l6.91-11.97c.2-.35.55-.52.9-.52m0-1.86c-1.03 0-1.99.55-2.51 1.45l-6.91 11.97c-.52.89-.52 2 0 2.89.52.89 1.48 1.45 2.51 1.45h13.82c1.03 0 1.99-.55 2.51-1.45.52-.89.52-2 0-2.89l-6.91-11.97a2.923 2.923 0 0 0-2.51-1.45Z" class="cls-11"/><path d="m36.22 103.34-2.05.01-1.06 4.98.94-.34-.66 3.76 2.68-5.38-.9.31 1.05-3.34z"/><path d="M189.77 58.47h2.99v38.64h-2.99z" class="cls-2"/><path d="M171.86 54.46s7.74-3.45 3.88 17.25c-3.86 20.7 3.33 23.61 3.33 23.61" class="cls-7"/><path d="M179.71 98.18c-.81-.76-.85-2.04-.09-2.85s2.04-.85 2.85-.09l-2.76 2.94Z" class="cls-9"/><path d="m181.64 96.07 1.15 1.08M180.46 97.43l1.15 1.08" class="cls-7"/><path d="m168.87 82.05 6.91-11.97c.4-.69 1.4-.69 1.8 0l6.91 11.97c.4.69-.1 1.56-.9 1.56h-13.82c-.8 0-1.3-.86-.9-1.56Z" class="cls-14"/><path d="M176.68 69.56c.35 0 .7.17.9.52l6.91 11.97c.4.69-.1 1.56-.9 1.56h-13.82c-.8 0-1.3-.86-.9-1.56l6.91-11.97c.2-.35.55-.52.9-.52m0-1.86c-1.03 0-1.99.55-2.51 1.45l-6.91 11.97c-.52.89-.52 2 0 2.89.52.89 1.48 1.45 2.51 1.45h13.82c1.03 0 1.99-.55 2.51-1.45.52-.89.52-2 0-2.89l-6.91-11.97a2.923 2.923 0 0 0-2.51-1.45Z" class="cls-11"/><path d="m178.16 73.93-2.05.01-1.07 4.98.94-.34-.65 3.76 2.68-5.38-.91.31 1.06-3.34zM188.04 98.18h-2.05l-1.07 4.98.94-.33-.65 3.76 2.68-5.38-.91.3 1.06-3.33zM160.9 65.94l-2.05.01-1.07 4.98.95-.34-.66 3.76 2.68-5.38-.91.31 1.06-3.34zM68.11 107.87h-2.05l-1.07 4.98.95-.33-.66 3.76 2.68-5.39-.9.31 1.05-3.33zM13.57 65.94l-2.05.01-1.07 4.98.95-.34-.66 3.76 2.68-5.38-.9.31 1.05-3.34z"/><path d="M155.35 78h4.87v4.87h-4.87z" class="cls-12"/><rect width="4.87" height="4.87" x="155.35" y="78" class="cls-11" rx="2.36" ry="2.36"/><circle cx="157.05" cy="80.64" r=".26"/><circle cx="158.44" cy="80.64" r=".26"/><path d="M9.17 77h4.87v4.87H9.17z" class="cls-12"/><rect width="4.87" height="4.87" x="9.17" y="77" class="cls-11" rx="2.36" ry="2.36"/><circle cx="10.88" cy="79.64" r=".26"/><circle cx="12.27" cy="79.64" r=".26"/></svg>