<svg xmlns="http://www.w3.org/2000/svg" id="Calque_1" viewBox="0 0 200 128"><defs><style>.cls-1,.cls-10,.cls-12,.cls-2,.cls-8,.cls-9{stroke:#000}.cls-1,.cls-13,.cls-2,.cls-8{stroke-linecap:round;stroke-linejoin:round}.cls-1,.cls-10{fill:#fff}.cls-12,.cls-13,.cls-2,.cls-8{fill:none}.cls-8{stroke-width:2px}.cls-9{fill:#fce9b9}.cls-10,.cls-12,.cls-9{stroke-miterlimit:10}.cls-13{stroke:#ff6d75;stroke-width:.67px}.cls-12{stroke-width:.5px}</style></defs><path d="M107.88 11.63c-.42-.5.12-1.19.61-1.45.57-.3 1.26-.36 1.89-.4.76-.05 1.52-.03 2.27.07.46.06 1.65.12 1.81.69.34 1.22-3.54.45-4.11.35-.73-.13-1.46-.28-2.18-.43-.69-.15-1.43-.26-2.06-.62-.57-.32-1.11-.97-.97-1.67.13-.65.79-1.04 1.34-1.3 2.43-1.16 5.26-1.42 7.86-.75.62.16 1.4.38 1.28 1.19-.11.68-.71 1.06-1.33 1.22-1.34.36-2.92.24-4.29.08-1.49-.18-2.96-.54-4.38-1.04-.68-.24-1.35-.51-2.01-.8-.61-.27-1.31-.57-1.66-1.18-.91-1.61 1.66-1.93 2.66-2.1 1.36-.23 2.74-.36 4.13-.37 2.84-.03 5.68.41 8.37 1.3 1.18.39 2.61 1.04 2.17 2.56-.39 1.33-1.9 1.77-3.14 1.75-1.53-.02-3.1-.43-4.61-.7l-4.46-.78c-.36-.06-.71-.12-1.07-.19-.41-.07-.9-.11-1.24-.37-.85-.66.34-1.17.91-1.28 1.4-.27 2.84-.26 4.25-.12 2.93.3 5.82 1.03 8.7 1.61.73.15 1.51.28 2.11.76.49.39 1.05 1.54-.05 1.41-1.5-.18-3-.46-4.49-.71-1.52-.26-3.04-.54-4.55-.87-.71-.16-1.43-.3-2.13-.51-.64-.19-1.36-.52-1.56-1.22-.43-1.51 2.05-2.03 3.04-2.27 1.35-.32 2.75-.47 4.13-.44 1.12.02 3.17.06 2.84 1.72-.25 1.25-1.58 1.73-2.7 1.82-1.4.12-2.85-.1-4.23-.32-1.49-.23-2.97-.55-4.44-.89-.75-.17-1.59-.28-2.29-.61-.63-.3-1.16-1-.66-1.66.44-.58 1.26-.71 1.93-.82.7-.12 1.4-.18 2.11-.2 1.48-.04 2.96.09 4.43.25.33.04.67.05.99.12.18.04.47.1.57.29.15.3-.13.49-.35.59-.65.28-1.45.36-2.15.43-1.41.15-2.82.05-4.2-.25-.35-.08-.45.47-.1.55 1.73.38 3.52.44 5.26.13.63-.11 1.52-.2 1.96-.73.39-.47.14-1.12-.37-1.38-.33-.17-.72-.19-1.08-.24-.48-.05-.96-.11-1.44-.15-.87-.08-1.75-.15-2.63-.16-.9-.02-1.81.02-2.7.15-.73.1-1.56.22-2.19.64-1.28.86-.82 2.42.46 2.98.81.36 1.75.49 2.62.68.94.21 1.89.42 2.84.6 1.73.33 3.54.63 5.31.58 1.26-.04 2.7-.4 3.36-1.59.65-1.17.18-2.5-1.13-2.87-.75-.21-1.6-.21-2.38-.21-.87 0-1.74.07-2.6.2-.83.13-1.65.32-2.45.58-.7.22-1.45.5-1.92 1.09-1 1.25-.04 2.58 1.25 3.04.83.3 1.73.46 2.59.65.95.21 1.9.39 2.85.57 1.88.34 3.76.63 5.65.92.59.09 1.38.28 1.67-.42.24-.57-.04-1.2-.43-1.62-.52-.57-1.25-.84-1.98-1.01-.93-.22-1.87-.39-2.81-.58-3.45-.7-7.08-1.7-10.63-1.13-.63.1-1.38.23-1.8.76-.37.47-.25 1.11.17 1.49.6.55 1.61.56 2.37.69.95.17 1.9.33 2.86.5 1.89.33 3.78.74 5.68.97 1.43.17 3.13.02 4.1-1.19.86-1.07.74-2.6-.4-3.4-.57-.4-1.26-.61-1.92-.82-.84-.27-1.7-.5-2.56-.68A26.45 26.45 0 0 0 104 3.02c-1.16.23-3 .6-2.76 2.18.24 1.57 2.31 2.17 3.57 2.64 1.69.64 3.46 1.11 5.26 1.31.88.1 1.77.13 2.65.1.76-.03 1.58-.08 2.29-.41 1.04-.49 1.74-2.06.59-2.85-.59-.41-1.45-.53-2.15-.64-.79-.13-1.6-.18-2.41-.15-1.81.06-7.87 1.07-6.22 4.1.78 1.44 2.78 1.6 4.21 1.89.93.19 1.86.36 2.81.47.72.08 1.63.26 2.35.03.54-.17 1.01-.71.84-1.3-.17-.57-.79-.81-1.31-.93-.87-.2-1.78-.28-2.67-.27-.79 0-1.64.05-2.39.32-.58.2-1.12.58-1.32 1.19-.16.49-.12 1.11.28 1.47.72.65.81.09.28-.53Z"/><path d="M3.28 111.86h193.46" style="fill:#d6d6d6;stroke-width:2px;stroke-linecap:round;stroke-linejoin:round;stroke:#000"/><rect width="178.85" height="22.79" x="13.87" y="78.93" rx="8.22" ry="8.22" style="fill:#b2f0e9;stroke-width:2px;stroke-linecap:round;stroke-linejoin:round;stroke:#000"/><path d="M187.13 100.6H17.97c-.39 0-.7-.31-.7-.7V53.29c0-.39-.31-.7-.7-.7h-4.18c-.39 0-.7.31-.7.7v58.02c0 .39.31.7.7.7h4.18c.39 0 .7-.31.7-.7v-5.19c0-.39.31-.7.7-.7h168.46c.39 0 .7.31.7.7v5.19c0 .39.31.7.7.7h4.18c.39 0 .7-.31.7-.7v-10c0-.39-.31-.7-.7-.7h-4.88Z" style="fill:#a07637;stroke-width:2px;stroke-linecap:round;stroke-linejoin:round;stroke:#000"/><path d="M180.24 76.27c-5.42-1.82-19.68 1.68-26.35-.98-6.66-2.66-6.35-1.54-11.47 0-5.11 1.54-4.8-1.68-7.75-.98-2.94.7-4.03 1.82-7.28 1.54s-68.66-6.73-63.08 3.08c0 0 15.81-.42 20.77 7.15 4.96 7.57 7.9 26.76 13.95 28.87 6.04 2.1 13.33-3.92 18.75-.98s11.16 2.1 15.34 2.38c4.18.28 8.83-2.38 15.19-1.96 6.35.42 8.37 2.8 12.4 1.12 4.03-1.68 6.82-2.66 8.68-1.26 1.86 1.4 3.1-.42 5.89-.14 2.79.28 4.65 3.64 10.54 3.08 5.89-.56-.15-39.09-5.58-40.92Z" style="fill:#87ccf3;stroke-width:2px;stroke-linecap:round;stroke-linejoin:round;stroke:#000"/><path d="M117.78 64.11s4.05 4.69 3.02 8.82c-1.03 4.13-5.94 6.63-7.06 6.98-1.12.34-9.47-.09-12.83-.34-1.58-.12-5.72.06-6.94-2.71-1.37-3.12.59-9.39 7.15-12.55l16.66-.19Z" class="cls-9"/><path d="M103 42.63s-2 3.76-2.77 5.42c-.77 1.65-2.5 7.51-2.61 9.59-.11 2.08-4.4 10.71-4.93 12.47-.53 1.76-.61 4.02-1.48 5.21-.87 1.19-1.54 2.66-1.69 3.12s-.61.05-.5-1.02c.11-1.07 1.44-2.99 1.18-3.12-.25-.13-3.98.52-5.02.85-1.04.33-4.76-.67-4.5-1.05.26-.38 1.4-.89 3.35-1.54 1.95-.66 5.25-1.41 5.69-3.08.44-1.67 1.14-8.73 2.35-11.92 1.21-3.19 2.33-9.38 3.09-12.73 0 0 1.46-10.05 7.03-10.68M115.6 112.21c-1.03-.75-2.23-2.1-2.7-2.5s-3.5 1.19-3.5 1.19.32 2.15 0 5.01-1.59 5.09-2.22 6.04c-.64.95-.56 2.48-.56 3.07s.79 2.34 3.66.98c2.86-1.35 4.28-2.62 4.13-4.45-.15-1.83-.15-4.72.64-5.96.79-1.24 1.59-2.64.56-3.38ZM126.77 112.21c-1.03-.75-2.23-2.1-2.7-2.5s-3.5 1.19-3.5 1.19.32 2.15 0 5.01-1.59 5.09-2.22 6.04c-.64.95-.56 2.48-.56 3.07s.79 2.34 3.66.98c2.86-1.35 4.28-2.62 4.13-4.45-.15-1.83-.15-4.72.64-5.96.79-1.24 1.59-2.64.56-3.38Z" class="cls-10"/><path d="M124.69 108.57s-5.14-24.73-9.7-34.37c-1.51-3.2-5.42-4.55-7.93-3.63-2.5.92-3.16 5.48-2.28 7.88 0 0 7.18 16.4 14.11 30.71 1.11 2.3.8 3.69 3.3 2.77 2.5-.92 3.37-.96 2.5-3.36ZM103.28 74.42c-.92-2.38-4.43-5.37-6.92-4.4-2.49.97-3.44 4.13-2.68 7.59 2.7 12.22 14.54 32.57 14.54 32.57.92 2.38 1.61 1.84 4.09.87 2.49-.97 1.33-1.8.65-4.26-4.25-15.31-9.69-32.36-9.69-32.36Z" class="cls-9"/><path d="M116.81 35.86s2.98 0 5.71 7.98c1.11 3.25 2.62 12.74 3.45 16.05.84 3.31.72 10.4.97 12.12s3.44 2.83 5.31 3.7 2.95 1.5 3.16 1.9c.21.41-3.61.99-4.61.54s-4.64-1.5-4.9-1.41c-.27.1.83 2.16.82 3.23-.02 1.07-.51 1.43-.62.95-.1-.47-.6-2.01-1.32-3.29-.73-1.28-.56-3.54-.88-5.34-.32-1.81-3.6-10.86-3.47-12.94.13-2.08-.92-8.1-1.49-9.83-.57-1.73-2.13-5.7-2.13-5.7" class="cls-10"/><path d="m120.21 64.53-21.61-.42-.11-9.24c-.1-5.35-1.59-8.35.57-12.89 2.16-4.54 3.12-7.84 3.12-7.84l2.44-.53 9.28 1.08 2.89 1.17s.71 8.77 2.4 12.03c.23.45.39.94.41 1.44l.6 15.2Z" style="stroke-miterlimit:10;fill:#d6d6d6;stroke:#000"/><path d="m106.26 31.73-.98 1.38c-1.14.61-1.67 2.04-1.06 4.85.61 2.8 4.39 4.17 7.23 1.59 2.84-2.58 2.46-4.85 2.46-4.85s-1.44-.7-1.67-1.67l-.66-2.21" class="cls-10"/><path d="M109.17 11.83s0 1.25.45 2.08h.01M111.59 14.44c.98-.57 1.65-2.01 1.65-2.01M114.7 25.87h.01c.12-.02.92-.23 1.4-1.51.51-1.38 1.1-1.22 1.16-2.64.04-1.34-1.36-.76-1.51-.68M103.31 13.6s.96.57 2.04.77" class="cls-2"/><path d="M113.62 15.05c-.61.03-1.33-.11-2.04-.61-.3.18-.61.27-.95.23-.47-.05-.79-.37-1.01-.76-.01.01-.02.02-.04.02-.13.13-.98.87-2.04-.15-.55.66-1.41.73-2.22.58-.48.37-1.14.33-1.14.33-.04.05-.09.12-.12.17-1.97 2.78-2.16 4.67-2.18 4.87-.12-.5-.21-.97-.28-1.41.11.83.26 1.44.3 1.56h0v.03h-.01c-.03.79-.04 2.83.29 4.94.27 1.75.8 3.56 1.76 4.72 2.23 2.71 3.67 2.76 3.89 2.75.22.05 1.74.28 4.37-2.06 1.13-1 1.93-2.7 2.47-4.39.64-2.03.95-4.05 1.04-4.83h-.01c.02-.09.02-.18.02-.28-.03.08-.05.12-.05.12.03-.33.03-.65.02-.97-.21-1.64-1.71-4.34-1.89-4.81l-.22-.04Z" class="cls-1"/><path d="M115.73 19.9c.04.31.06.59.04.85" class="cls-2"/><path d="M115.74 21.04s0-.01.01-.02h0c.07-.16.42-.96.67-2.05v-.03c.49-2.18.51-5.48-3.12-6.94 0 0-.22-1.19-1.76-1.01 0 0-1.77-1.94-3.91-.35-1.48-.42-1.89.73-1.89.73-4.09.96-4.36 4.66-4.12 6.86 0 .05.02.08.01.11" class="cls-2"/><path d="M104.05 15.09s-2.11 3.06-2.11 4.83M115.79 20.7h0s-.01.15-.03.3h0v.03M101.94 19.92v-.02" class="cls-2"/><path d="M101.95 19.58s0 .11-.01.3M102.23 24.86h-.01c-.11-.04-.88-.37-1.15-1.71-.3-1.44-.9-1.37-.74-2.79.17-1.33 1.46-.54 1.6-.44M106.69 12.58c.27.5.53.87.78 1.13.03.04.05.07.08.09M109.6 13.94l.02-.02" class="cls-2"/><path d="M108.18 19.75s-.47 4.24-1.39 6.37c0 0 .18.43 1.56.17" class="cls-1"/><ellipse cx="111.02" cy="21.77" class="cls-1" rx=".43" ry=".15" transform="rotate(-85.58 111.015 21.774)"/><ellipse cx="105.19" cy="21.22" class="cls-1" rx=".43" ry=".15" transform="rotate(-85.58 105.18 21.218)"/><path d="M55.85 78.22a2.43 2.43 0 0 1-1.72 2.98 2.43 2.43 0 0 1-2.4-.68l-2.36 1.08a62.059 62.059 0 0 1-19.77 5.34l-2.54.25c-.2.84-.84 1.55-1.73 1.79a2.43 2.43 0 0 1-2.98-1.72c-.23-.87.03-1.74.61-2.33a54.142 54.142 0 0 1-4.82-17.86c-.8-.22-1.47-.84-1.7-1.71a2.43 2.43 0 0 1 1.72-2.98c.89-.24 1.8.05 2.4.67L22.85 62a61.988 61.988 0 0 1 19.77-5.34l2.45-.24a2.43 2.43 0 0 1 4.71-.05c.22.82 0 1.66-.53 2.25 1.32 2.83 2.4 5.77 3.21 8.77.8 2.98 1.35 6.02 1.64 9.1.83.2 1.54.84 1.78 1.73Z" style="stroke-width:2px;fill:#fff;stroke-linecap:round;stroke-linejoin:round;stroke:#000"/><path d="M25.24 78.02c-1.13-2.98-1.81-6.1-2.03-9.3M48.97 72.21c.23 1.86-.39 3.57-1.85 5.09" class="cls-8"/><path d="M106.23 21.57s-.56 1.62-2.22 1.51M109.61 22.03s.56 1.62 2.22 1.51" class="cls-12"/><path d="m59.39 23.83 5.29-6.62h-4.91v-1.03h6.41v1l-5.32 6.58h5.32v1.03h-6.8v-.97ZM66.75 23.96l3.73-4.5h-3.45v-.94h4.87v.86l-3.7 4.47h3.81v.94h-5.26v-.83ZM72.75 23.96l3.73-4.5h-3.45v-.94h4.87v.86l-3.7 4.47h3.81v.94h-5.26v-.83ZM78.72 23.83l5.29-6.62H79.1v-1.03h6.41v1l-5.32 6.58h5.32v1.03h-6.8v-.97ZM74.13 33.84l2.79-3.38h-2.59v-.71h3.65v.65l-2.78 3.35h2.86v.71h-3.94v-.62ZM78.61 33.74l3.97-4.96H78.9v-.77h4.81v.75l-3.99 4.93h3.99v.77h-5.1v-.72Z"/><path d="m62.18 13.16 22.31 26.9M84.49 13.16l-22.31 26.9" class="cls-13"/></svg>