<svg xmlns="http://www.w3.org/2000/svg" id="Calque_1" data-name="Calque 1" viewBox="0 0 200 128"><defs><style>.cls-2,.cls-3,.cls-4{stroke:#000;stroke-linecap:round;stroke-linejoin:round}.cls-2{fill:#fff}.cls-3{fill:none}.cls-9{fill:#f6e7d4}.cls-10{fill:#dbc5b1}.cls-11{fill:#dfdfe0}.cls-12{fill:#546885}.cls-13,.cls-4{fill:#87ccf3}.cls-4{stroke-width:2px}</style></defs><path d="M58.98 38.09H73.9v14.03H58.98zM90.52 66.06h15.57v14.03H90.52zM90.52 80.14h15.57v14.03H90.52zM122.61 80.14h15.57v14.03h-15.57z" class="cls-13"/><path d="M153.36 12.11h.15c.38 0 .76.04 1.12.11 2.53.52 4.44 2.76 4.44 5.44V31.1H37.2V17.66c0-.34.04-.67.1-1l.06-.27c.06-.25.14-.5.23-.73l.08-.21c.12-.28.27-.55.44-.81l.04-.08.13-.16c.13-.17.27-.34.41-.5l.24-.25c.2-.19.41-.37.64-.53l.08-.06.6-.33c.12-.06.22-.13.34-.19.47-.2.97-.33 1.49-.4.22-.03.44-.04.67-.04h.35v.04h3.35v-.04h6.37v.04h3.35v-.04h6.38v.03h3.35v-.03h6.37v.03h3.35v-.03h6.43v.03h3.35v-.03h6.37v.02h3.35v-.02h6.36v.02h3.35v-.02h6.37l3.35.01h0l6.34-.01h0l3.35.01h0l6.37-.01h21.89" class="cls-4"/><path d="m39.65 13.06-.08.07.08-.07zM37.2 96.88ZM158.14 113.27l-.11.14.11-.14ZM157.54 114.02l-.17.18.17-.18ZM42.75 115.76c-.77 0-1.5-.15-2.16-.44.66.28 1.4.44 2.16.44ZM156.5 114.88l.15-.09.03-.03-.18.12zM155.78 115.27l-.15.07.15-.07ZM38.15 113.31c.35.52.81.97 1.31 1.35l.19.15c-.59-.4-1.1-.91-1.5-1.5ZM154.73 115.62l-.22.04.22-.04Z" class="cls-9"/><path d="M37.2 31.11v79.1c0 .77.16 1.5.44 2.16.14.33.31.65.51.94.4.59.91 1.1 1.5 1.5a5.557 5.557 0 0 0 3.1.95h110.76c.34 0 .67-.04 1-.1l.22-.04c.31-.07.61-.16.9-.28l.15-.07c.25-.11.49-.24.72-.39l.18-.12c.25-.17.47-.36.69-.57l.17-.18c.18-.19.34-.39.49-.6l.11-.14v-.02s0 0 0 0c.58-.88.92-1.92.92-3.05V31.11M42.08 35.16h112.4v75.71H42.09V35.16Z" style="stroke-width:2px;fill:none;stroke-linecap:round;stroke-linejoin:round;stroke:#000"/><path d="M44.79 19.22ZM45.3 19.13ZM46.27 18.3c-.14.27-.35.5-.6.66.26-.16.46-.39.6-.66ZM54.51 19.22ZM55.03 19.13ZM64.76 19.13ZM65.73 18.3ZM64.24 19.22ZM74.49 19.13ZM73.97 19.22ZM72.9 18.82l-.22-.23.22.23ZM83.75 19.22ZM84.26 19.13ZM92.4 18.82l-.22-.23.22.23ZM93.99 19.13ZM93.47 19.22ZM103.19 19.22ZM103.71 19.13ZM113.44 19.13ZM112.92 19.22ZM122.61 19.22ZM124.09 18.3c-.14.27-.35.5-.6.66.26-.16.46-.39.6-.66ZM123.12 19.13ZM131.26 18.82l-.22-.23.22.23ZM132.33 19.22ZM132.85 19.13ZM143.45 18.3c-.14.27-.35.5-.6.66.26-.16.46-.39.6-.66ZM141.96 19.22ZM142.48 19.13ZM151.69 19.22ZM150.62 18.82l-.22-.23.22.23ZM152.21 19.13Z" class="cls-11"/><path d="M44.78 8.65c-.18 0-.34.04-.5.09 0 0 0 0 0 0s-.01 0-.02.01c-.14.05-.27.11-.4.2-.02.01-.04.03-.07.04-.13.1-.25.2-.34.33l-.02.02c-.09.13-.17.27-.22.42l-.03.08c-.05.15-.08.31-.08.48v7.22c0 .92.75 1.68 1.68 1.68h0c.15 0 .29-.02.42-.06l.1-.03c.12-.04.24-.09.34-.16h.03c.25-.18.46-.4.6-.67.12-.23.19-.48.19-.75v-7.22c0-.92-.75-1.68-1.68-1.68ZM54.51 8.65c-.18 0-.34.04-.5.09 0 0 0 0 0 0s-.01 0-.02.01c-.14.05-.27.11-.4.2-.02.02-.05.03-.07.04-.13.1-.25.2-.34.33l-.02.02c-.09.13-.17.27-.22.42l-.03.08c-.05.15-.08.31-.08.48v7.22c0 .92.75 1.68 1.68 1.68h0c.15 0 .29-.02.42-.06l.1-.03c.12-.04.24-.09.34-.16h.03c.13-.09.24-.19.34-.3 0 0 .01-.02.02-.03.09-.1.17-.22.23-.34 0 0 0 0 0 0h0c.12-.23.19-.48.19-.75v-7.22c0-.92-.75-1.68-1.68-1.68ZM64.24 8.65c-.18 0-.34.04-.5.09 0 0 0 0 0 0s-.01 0-.02.01c-.14.05-.27.11-.4.2-.02.02-.05.03-.07.04-.13.1-.25.2-.34.33l-.02.02c-.09.13-.17.27-.22.42l-.03.08c-.05.15-.08.31-.08.48v7.22c0 .92.75 1.68 1.68 1.68h0c.15 0 .29-.02.42-.06l.1-.03c.12-.04.24-.09.34-.16h.03c.25-.18.46-.4.6-.67.12-.23.19-.48.19-.75v-7.22c0-.92-.75-1.68-1.68-1.68ZM73.97 8.65c-.18 0-.34.04-.5.09 0 0 0 0 0 0s-.01 0-.02.01c-.14.05-.27.11-.39.2-.02.02-.05.03-.07.05-.13.1-.25.2-.34.33l-.02.02c-.1.13-.17.27-.22.42l-.03.08c-.05.15-.08.31-.08.48v7.22c0 .4.15.76.38 1.05l.22.23c.29.25.66.4 1.07.4h0c.15 0 .29-.02.42-.06l.1-.03c.12-.04.24-.09.34-.16h.03c.13-.09.24-.19.34-.3 0 0 0-.01.01-.02.09-.1.17-.22.24-.34 0 0 0 0 0 0s0 0 0 0c.12-.23.19-.48.19-.76v-7.22c0-.92-.75-1.68-1.68-1.68ZM83.74 8.65c-.18 0-.34.04-.5.09 0 0 0 0 0 0s-.01 0-.02.01c-.14.05-.27.11-.4.2-.02.02-.04.03-.07.04-.13.1-.25.2-.34.33l-.02.02c-.09.13-.17.27-.22.42l-.03.08c-.05.15-.08.31-.08.48v7.22c0 .92.75 1.68 1.68 1.68h0c.15 0 .29-.02.42-.06l.1-.03c.12-.04.24-.09.34-.16h.03c.13-.09.24-.19.34-.3 0 0 .01-.02.02-.03.09-.1.17-.22.23-.34 0 0 0 0 0 0s0 0 0 0c.12-.23.19-.48.19-.76v-7.22c0-.92-.75-1.68-1.68-1.68ZM93.47 8.65c-.18 0-.34.04-.5.09 0 0 0 0 0 0s-.01 0-.02.01c-.14.05-.27.11-.4.2-.02.02-.05.03-.07.05-.13.1-.25.2-.34.33l-.02.02c-.09.13-.17.27-.22.42l-.03.08c-.05.15-.08.31-.08.48v7.22c0 .4.15.76.38 1.05l.22.23c.29.25.66.4 1.07.4h0c.15 0 .29-.02.42-.06l.1-.03c.12-.04.24-.09.34-.16h.03c.13-.09.24-.19.34-.3 0 0 0-.01.01-.02.09-.1.17-.22.24-.34 0 0 0 0 0 0s0 0 0 0c.12-.23.19-.48.19-.76v-7.22c0-.92-.75-1.68-1.68-1.68ZM103.19 8.65c-.18 0-.34.04-.5.09 0 0 0 0 0 0s-.01 0-.02.01c-.14.05-.27.11-.4.2-.02.02-.05.03-.07.05-.13.1-.25.2-.34.33l-.02.02c-.09.13-.17.27-.22.42l-.03.08c-.05.15-.08.32-.08.48v7.22c0 .92.75 1.68 1.68 1.68h0c.15 0 .29-.02.42-.06l.1-.03c.12-.04.24-.09.34-.16h.03c.13-.09.24-.19.34-.3 0 0 0-.01.01-.02.09-.1.17-.22.24-.34 0 0 0 0 0 0s0 0 0 0c.12-.23.19-.48.19-.76v-7.22c0-.92-.75-1.68-1.68-1.68ZM112.92 8.65c-.18 0-.34.04-.5.09 0 0 0 0 0 0s-.01 0-.02.01c-.14.05-.28.12-.4.2-.02.01-.04.03-.07.04-.13.1-.25.2-.34.33l-.02.02c-.09.13-.17.27-.22.42l-.03.08c-.05.15-.08.31-.08.48v7.22c0 .92.75 1.68 1.68 1.68h0c.15 0 .29-.02.42-.06l.1-.03c.12-.04.24-.09.34-.16h.03c.13-.09.24-.19.34-.3 0 0 0-.01.01-.02.09-.1.17-.22.24-.34 0 0 0 0 0 0s0 0 0 0c.12-.23.19-.48.19-.76v-7.22c0-.92-.75-1.68-1.68-1.68ZM122.61 8.65c-.18 0-.34.04-.5.09 0 0 0 0 0 0s-.01 0-.02.01c-.14.05-.27.11-.4.2-.02.02-.05.03-.07.04-.13.1-.25.2-.34.33l-.02.02c-.09.13-.17.27-.22.42l-.03.08c-.05.15-.08.31-.08.48v7.22c0 .92.75 1.68 1.68 1.68h0c.15 0 .29-.02.42-.06l.1-.03c.12-.04.24-.09.34-.16h.03c.25-.18.46-.4.6-.67.12-.23.19-.48.19-.75v-7.22c0-.92-.75-1.68-1.68-1.68ZM132.33 8.65c-.18 0-.34.04-.5.09 0 0 0 0 0 0s-.01 0-.02.01c-.14.05-.27.11-.4.2-.02.02-.04.03-.07.04-.13.1-.25.2-.34.33l-.02.02c-.09.13-.17.27-.22.42l-.03.08c-.05.15-.08.31-.08.48v7.22c0 .4.15.76.38 1.05l.22.23c.29.25.66.4 1.07.4h0c.15 0 .29-.02.42-.06l.1-.03c.12-.04.24-.09.34-.16h.03c.13-.09.24-.19.34-.3 0 0 .01-.02.02-.03.09-.1.17-.22.23-.34 0 0 0 0 0 0s0 0 0 0c.12-.23.19-.48.19-.76v-7.22c0-.92-.75-1.68-1.68-1.68ZM141.96 8.65c-.18 0-.34.04-.5.09 0 0 0 0 0 0s-.01 0-.02.01c-.14.05-.28.12-.4.2-.02.02-.04.03-.07.04-.13.1-.25.2-.34.33l-.02.02c-.09.13-.17.27-.22.42l-.03.08c-.05.15-.08.31-.08.48v7.22c0 .92.75 1.68 1.68 1.68h0c.15 0 .29-.02.42-.06l.1-.03c.12-.04.24-.09.34-.16h.03c.25-.18.46-.4.6-.67 0 0 0 0 0 0 .12-.23.19-.48.19-.75v-7.22c0-.92-.75-1.68-1.68-1.68ZM151.69 8.65c-.18 0-.34.04-.5.09 0 0 0 0 0 0s-.01 0-.02.01c-.14.05-.27.11-.4.2-.02.01-.04.03-.07.04-.13.1-.25.2-.34.33l-.02.02c-.09.13-.17.27-.22.42l-.03.08c-.05.15-.08.31-.08.48v7.22c0 .4.15.76.38 1.05l.22.23c.29.25.66.4 1.07.4h0c.15 0 .29-.02.42-.06l.1-.03c.12-.04.24-.09.34-.16h.03c.13-.09.24-.19.34-.3 0 0 0-.01.01-.02.09-.1.17-.22.24-.34 0 0 0 0 0 0s0 0 0 0c.12-.23.19-.48.19-.76v-7.22c0-.92-.75-1.68-1.68-1.68Z" class="cls-2"/><path d="M138.75 108.11V35.16M106.2 108.11V35.16M122.47 108.11V35.16M90.07 108.11V35.16M73.9 108.11V35.16M58.41 108.11V35.16M153.98 66.04H42.09M153.98 52.12H42.09M154.23 79.96H42.34M154.23 37.94H42.34M154.08 93.97H42.19M154.08 108.04H42.19" class="cls-3"/><path d="M49.16 43.54v-.61c.57-.06.97-.15 1.2-.28.23-.13.39-.44.51-.92h.62V48h-.84v-4.46h-1.48ZM64.26 46.58c.19-.4.58-.77 1.14-1.09l.84-.49c.38-.22.64-.41.8-.56.24-.24.36-.52.36-.84 0-.37-.11-.66-.33-.87s-.51-.32-.88-.32c-.54 0-.92.21-1.12.62-.11.22-.17.53-.18.92h-.8c0-.55.11-.99.3-1.34.34-.61.95-.91 1.81-.91.72 0 1.25.19 1.58.58s.5.82.5 1.3c0 .5-.18.93-.53 1.29-.21.21-.57.46-1.1.76l-.6.33c-.29.16-.51.31-.68.45-.29.25-.48.54-.55.85h3.44v.75h-4.32c.03-.54.14-1.01.34-1.42ZM80.17 47.56c-.34-.41-.5-.91-.5-1.49h.83c.04.41.11.7.23.89.21.33.58.5 1.11.5.42 0 .75-.11 1-.33s.38-.51.38-.86c0-.43-.13-.74-.4-.91-.27-.17-.63-.26-1.11-.26h-.33v-.7c.08 0 .15.01.21.02s.12 0 .18 0c.3 0 .54-.05.73-.14.33-.16.5-.46.5-.88 0-.31-.11-.56-.33-.73s-.48-.25-.78-.25c-.53 0-.89.18-1.09.53-.11.19-.17.47-.19.83h-.78c0-.47.09-.87.28-1.2.32-.59.89-.88 1.7-.88.64 0 1.14.14 1.49.43.35.29.53.7.53 1.24 0 .39-.1.7-.31.94-.13.15-.3.27-.5.35.33.09.59.27.78.53.19.26.28.58.28.95 0 .6-.2 1.09-.59 1.47s-.96.57-1.68.57-1.28-.2-1.62-.61ZM98.35 48v-1.54h-2.76v-.77l2.88-4h.67v4.08h.93v.69h-.93V48h-.79Zm-.01-2.23v-2.86l-2.02 2.86h2.02ZM112.8 46.4c.05.45.26.76.63.94.19.09.4.13.65.13.47 0 .82-.15 1.04-.45s.34-.63.34-.99c0-.44-.13-.78-.4-1.02s-.59-.36-.96-.36c-.27 0-.51.05-.7.16-.2.11-.36.25-.5.44l-.69-.04.48-3.39h3.27v.76h-2.68l-.27 1.75c.15-.11.29-.19.42-.25.23-.1.51-.15.81-.15.58 0 1.07.19 1.47.56s.6.84.6 1.42-.18 1.12-.55 1.57-.95.68-1.76.68c-.51 0-.97-.14-1.36-.43-.39-.29-.61-.73-.66-1.33h.82ZM131.9 42.23c.28.37.42.74.42 1.13h-.78c-.05-.25-.12-.44-.22-.58-.19-.26-.48-.4-.87-.4-.44 0-.79.2-1.05.61s-.41.99-.44 1.76c.18-.27.41-.47.69-.6.25-.12.53-.18.84-.18.53 0 .99.17 1.38.51s.59.84.59 1.51c0 .57-.19 1.08-.56 1.52-.37.44-.9.66-1.59.66-.59 0-1.1-.22-1.52-.67-.43-.45-.64-1.2-.64-2.26 0-.78.1-1.45.29-1.99.37-1.04 1.04-1.56 2.01-1.56.7 0 1.19.18 1.47.55Zm-.59 4.81c.21-.28.31-.61.31-.99 0-.32-.09-.63-.28-.92-.18-.29-.52-.44-1.01-.44-.34 0-.64.11-.89.34-.26.23-.38.57-.38 1.02 0 .4.12.73.35 1 .23.27.56.41.97.41s.73-.14.93-.42ZM148.41 41.81v.69c-.2.2-.47.54-.81 1.02-.34.49-.63 1.01-.89 1.57-.25.55-.45 1.05-.58 1.5-.08.29-.19.76-.33 1.4h-.87c.2-1.2.64-2.4 1.32-3.59.4-.7.82-1.3 1.27-1.81h-3.48v-.8h4.38ZM64.84 60.61c.02.44.19.74.51.91.16.09.34.13.54.13.38 0 .7-.16.97-.47s.46-.95.57-1.92c-.18.28-.39.47-.65.59-.26.11-.54.17-.84.17-.61 0-1.09-.19-1.44-.57-.35-.38-.53-.86-.53-1.46s.17-1.07.52-1.51.86-.65 1.54-.65c.92 0 1.55.41 1.9 1.24.19.45.29 1.02.29 1.7 0 .77-.12 1.45-.35 2.05-.38.99-1.03 1.48-1.95 1.48-.62 0-1.08-.16-1.4-.48s-.48-.73-.48-1.21h.8Zm2.06-1.6c.26-.21.39-.57.39-1.08 0-.46-.12-.81-.35-1.03-.23-.23-.53-.34-.89-.34-.39 0-.69.13-.92.39-.23.26-.34.6-.34 1.04 0 .41.1.74.3.98s.52.36.95.36c.31 0 .6-.1.86-.31ZM77.64 57.68v-.61c.57-.06.97-.15 1.2-.28.23-.13.39-.44.51-.92h.62v6.27h-.84v-4.46h-1.48ZM85.98 56.85c.28.52.42 1.23.42 2.13 0 .86-.13 1.56-.38 2.12-.37.8-.97 1.2-1.81 1.2-.76 0-1.32-.33-1.69-.98-.31-.55-.46-1.28-.46-2.21 0-.71.09-1.33.28-1.84.35-.96.97-1.43 1.88-1.43.81 0 1.4.34 1.77 1.01Zm-.8 4.19c.24-.36.37-1.04.37-2.03 0-.71-.09-1.3-.26-1.76-.18-.46-.52-.69-1.03-.69-.47 0-.81.22-1.02.66-.22.44-.32 1.08-.32 1.94 0 .64.07 1.16.21 1.55.21.59.57.89 1.08.89.41 0 .74-.18.98-.54ZM94.02 57.68v-.61c.57-.06.97-.15 1.2-.28.23-.13.39-.44.51-.92h.62v6.27h-.84v-4.46h-1.48ZM98.36 57.68v-.61c.57-.06.97-.15 1.2-.28.23-.13.39-.44.51-.92h.62v6.27h-.84v-4.46h-1.48ZM109.87 57.68v-.61c.57-.06.97-.15 1.2-.28.23-.13.39-.44.51-.92h.62v6.27h-.84v-4.46h-1.48ZM114.64 60.72c.19-.4.58-.77 1.14-1.09l.84-.49c.38-.22.64-.41.8-.56.24-.24.36-.52.36-.84 0-.37-.11-.66-.33-.87s-.51-.32-.88-.32c-.54 0-.92.21-1.12.62-.11.22-.17.53-.18.92h-.8c0-.55.11-.99.3-1.34.34-.61.95-.91 1.81-.91.72 0 1.25.19 1.58.58s.5.82.5 1.3c0 .5-.18.93-.53 1.29-.21.21-.57.46-1.1.76l-.6.33c-.29.16-.51.31-.68.45-.29.25-.48.54-.55.85h3.44v.75h-4.32c.03-.54.14-1.01.34-1.42ZM126.27 57.68v-.61c.57-.06.97-.15 1.2-.28.23-.13.39-.44.51-.92h.62v6.27h-.84v-4.46h-1.48ZM131.14 61.7c-.34-.41-.5-.91-.5-1.49h.83c.04.41.11.7.23.89.21.33.58.5 1.11.5.42 0 .75-.11 1-.33s.38-.51.38-.86c0-.43-.13-.74-.4-.91-.27-.17-.63-.26-1.11-.26h-.33v-.7c.08 0 .15.01.21.02s.12 0 .18 0c.3 0 .54-.05.73-.14.33-.16.5-.46.5-.88 0-.31-.11-.56-.33-.73s-.48-.25-.78-.25c-.53 0-.89.18-1.09.53-.11.19-.17.47-.19.83h-.78c0-.47.09-.87.28-1.2.32-.59.89-.88 1.7-.88.64 0 1.14.14 1.49.43.35.29.53.7.53 1.24 0 .39-.1.7-.31.94-.13.15-.3.27-.5.35.33.09.59.27.78.53.19.26.28.58.28.95 0 .6-.2 1.09-.59 1.47s-.96.57-1.68.57-1.28-.2-1.62-.61ZM142 57.68v-.61c.57-.06.97-.15 1.2-.28.23-.13.39-.44.51-.92h.62v6.27h-.84v-4.46h-1.48ZM149.13 62.14V60.6h-2.76v-.77l2.88-4h.67v4.08h.93v.69h-.93v1.54h-.79Zm-.01-2.23v-2.86l-2.02 2.86h2.02ZM61.94 71.46v-.61c.57-.06.97-.15 1.2-.28.23-.13.39-.44.51-.92h.62v6.27h-.84v-4.46h-1.48ZM67.2 74.32c.05.45.26.76.63.94.19.09.4.13.65.13.47 0 .82-.15 1.04-.45s.34-.63.34-.99c0-.44-.13-.78-.4-1.02s-.59-.36-.96-.36c-.27 0-.51.05-.7.16-.2.11-.36.25-.5.44l-.69-.04.48-3.39h3.27v.76h-2.68l-.27 1.75c.15-.11.29-.19.42-.25.23-.1.51-.15.81-.15.58 0 1.07.19 1.47.56s.6.84.6 1.42-.18 1.12-.55 1.57-.95.68-1.76.68c-.51 0-.97-.14-1.36-.43-.39-.29-.61-.73-.66-1.33h.82ZM77.64 71.46v-.61c.57-.06.97-.15 1.2-.28.23-.13.39-.44.51-.92h.62v6.27h-.84v-4.46h-1.48ZM85.88 70.15c.28.37.42.74.42 1.13h-.78c-.05-.25-.12-.44-.22-.58-.19-.26-.48-.4-.87-.4-.44 0-.79.2-1.05.61s-.41.99-.44 1.76c.18-.27.41-.47.69-.6.25-.12.53-.18.84-.18.53 0 .99.17 1.38.51s.59.84.59 1.51c0 .57-.19 1.08-.56 1.52-.37.44-.9.66-1.59.66-.59 0-1.1-.22-1.52-.67-.43-.45-.64-1.2-.64-2.26 0-.78.1-1.45.29-1.99.37-1.04 1.04-1.56 2.01-1.56.7 0 1.19.18 1.47.55Zm-.59 4.81c.21-.28.31-.61.31-.99 0-.32-.09-.63-.28-.92-.18-.29-.52-.44-1.01-.44-.34 0-.64.11-.89.34-.26.23-.38.57-.38 1.02 0 .4.12.73.35 1 .23.27.56.41.97.41s.73-.14.93-.42ZM93.69 71.46v-.61c.57-.06.97-.15 1.2-.28.23-.13.39-.44.51-.92h.62v6.27h-.84v-4.46H93.7ZM102.54 69.73v.69c-.2.2-.47.54-.81 1.02-.34.49-.63 1.01-.89 1.57-.25.55-.45 1.05-.58 1.5-.08.29-.19.76-.33 1.4h-.87c.2-1.2.64-2.4 1.32-3.59.4-.7.82-1.3 1.27-1.81h-3.48v-.8h4.38ZM109.87 71.46v-.61c.57-.06.97-.15 1.2-.28.23-.13.39-.44.51-.92h.62v6.27h-.84v-4.46h-1.48ZM114.88 72.24c-.23-.23-.35-.54-.35-.91 0-.47.17-.87.51-1.21.34-.34.82-.51 1.44-.51s1.08.16 1.42.48c.34.32.51.69.51 1.11 0 .39-.1.71-.3.95-.11.14-.28.27-.52.4.26.12.47.26.62.41.28.29.42.67.42 1.14 0 .55-.19 1.02-.56 1.41s-.9.58-1.58.58c-.61 0-1.13-.17-1.55-.5-.42-.33-.63-.82-.63-1.45 0-.37.09-.69.27-.96.18-.27.45-.48.81-.62-.22-.09-.39-.2-.51-.33Zm2.55 2.85c.24-.2.36-.49.36-.89s-.12-.72-.37-.93-.57-.32-.96-.32-.69.11-.93.32c-.24.22-.36.51-.36.89 0 .33.11.61.33.85.22.24.56.36 1.01.36.37 0 .67-.1.91-.3Zm-.15-3.11c.2-.2.29-.43.29-.7 0-.23-.09-.45-.28-.65-.19-.2-.47-.29-.85-.29s-.66.1-.82.29c-.17.2-.25.43-.25.69 0 .3.11.53.33.7.22.17.48.25.78.25.35 0 .62-.1.82-.29ZM126.27 71.46v-.61c.57-.06.97-.15 1.2-.28.23-.13.39-.44.51-.92h.62v6.27h-.84v-4.46h-1.48ZM131.61 74.39c.02.44.19.74.51.91.16.09.34.13.54.13.38 0 .7-.16.97-.47s.46-.95.57-1.92c-.18.28-.39.47-.65.59-.26.11-.54.17-.84.17-.61 0-1.09-.19-1.44-.57-.35-.38-.53-.86-.53-1.46s.17-1.07.52-1.51.86-.65 1.54-.65c.92 0 1.55.41 1.9 1.24.19.45.29 1.02.29 1.7 0 .77-.12 1.45-.35 2.05-.38.99-1.03 1.48-1.95 1.48-.62 0-1.08-.16-1.4-.48s-.48-.73-.48-1.21h.8Zm2.06-1.6c.26-.21.39-.57.39-1.08 0-.46-.12-.81-.35-1.03-.23-.23-.53-.34-.89-.34-.39 0-.69.13-.92.39-.23.26-.34.6-.34 1.04 0 .41.1.74.3.98s.52.36.95.36c.31 0 .6-.1.86-.31ZM141.75 74.5c.19-.4.58-.77 1.14-1.09l.84-.49c.38-.22.64-.41.8-.56.24-.24.36-.52.36-.84 0-.37-.11-.66-.33-.87s-.51-.32-.88-.32c-.54 0-.92.21-1.12.62-.11.22-.17.53-.18.92h-.8c0-.55.11-.99.3-1.34.34-.61.95-.91 1.81-.91.72 0 1.25.19 1.58.58s.5.82.5 1.3c0 .5-.18.93-.53 1.29-.21.21-.57.46-1.1.76l-.6.33c-.29.16-.51.31-.68.45-.29.25-.48.54-.55.85h3.44v.75h-4.32c.03-.54.14-1.01.34-1.42ZM150.34 70.63c.28.52.42 1.23.42 2.13 0 .86-.13 1.56-.38 2.12-.37.8-.97 1.2-1.81 1.2-.76 0-1.32-.33-1.69-.98-.31-.55-.46-1.28-.46-2.21 0-.71.09-1.33.28-1.84.35-.96.97-1.43 1.88-1.43.81 0 1.4.34 1.77 1.01Zm-.8 4.19c.24-.36.37-1.04.37-2.03 0-.71-.09-1.3-.26-1.76-.18-.46-.52-.69-1.03-.69-.47 0-.81.22-1.02.66-.22.44-.32 1.08-.32 1.94 0 .64.07 1.16.21 1.55.21.59.57.89 1.08.89.41 0 .74-.18.98-.54ZM61.7 88.72c.19-.4.58-.77 1.14-1.09l.84-.49c.38-.22.64-.41.8-.56.24-.24.36-.52.36-.84 0-.37-.11-.66-.33-.87s-.51-.32-.88-.32c-.54 0-.92.21-1.12.62-.11.22-.17.53-.18.92h-.8c0-.55.11-.99.3-1.34.34-.61.95-.91 1.81-.91.72 0 1.25.19 1.58.58s.5.82.5 1.3c0 .5-.18.93-.53 1.29-.21.21-.57.46-1.1.76l-.6.33c-.29.16-.51.31-.68.45-.29.25-.48.54-.55.85h3.44v.75h-4.32c.03-.54.14-1.01.34-1.42ZM66.7 88.72c.19-.4.58-.77 1.14-1.09l.84-.49c.38-.22.64-.41.8-.56.24-.24.36-.52.36-.84 0-.37-.11-.66-.33-.87s-.51-.32-.88-.32c-.54 0-.92.21-1.12.62-.11.22-.17.53-.18.92h-.8c0-.55.11-.99.3-1.34.34-.61.95-.91 1.81-.91.72 0 1.25.19 1.58.58s.5.82.5 1.3c0 .5-.18.93-.53 1.29-.21.21-.57.46-1.1.76l-.6.33c-.29.16-.51.31-.68.45-.29.25-.48.54-.55.85h3.44v.75h-4.32c.03-.54.14-1.01.34-1.42ZM46.21 88.72c.19-.4.58-.77 1.14-1.09l.84-.49c.38-.22.64-.41.8-.56.24-.24.36-.52.36-.84 0-.37-.11-.66-.33-.87s-.51-.32-.88-.32c-.54 0-.92.21-1.12.62-.11.22-.17.53-.18.92h-.8c0-.55.11-.99.3-1.34.34-.61.95-.91 1.81-.91.72 0 1.25.19 1.58.58s.5.82.5 1.3c0 .5-.18.93-.53 1.29-.21.21-.57.46-1.1.76l-.6.33c-.29.16-.51.31-.68.45-.29.25-.48.54-.55.85h3.44v.75h-4.32c.03-.54.14-1.01.34-1.42ZM51.46 85.68v-.61c.57-.06.97-.15 1.2-.28.23-.13.39-.44.51-.92h.62v6.27h-.84v-4.46h-1.48ZM77.68 88.72c.19-.4.58-.77 1.14-1.09l.84-.49c.38-.22.64-.41.8-.56.24-.24.36-.52.36-.84 0-.37-.11-.66-.33-.87s-.51-.32-.88-.32c-.54 0-.92.21-1.12.62-.11.22-.17.53-.18.92h-.8c0-.55.11-.99.3-1.34.34-.61.95-.91 1.81-.91.72 0 1.25.19 1.58.58s.5.82.5 1.3c0 .5-.18.93-.53 1.29-.21.21-.57.46-1.1.76l-.6.33c-.29.16-.51.31-.68.45-.29.25-.48.54-.55.85h3.44v.75h-4.32c.03-.54.14-1.01.34-1.42ZM82.78 89.7c-.34-.41-.5-.91-.5-1.49h.83c.04.41.11.7.23.89.21.33.58.5 1.11.5.42 0 .75-.11 1-.33s.38-.51.38-.86c0-.43-.13-.74-.4-.91-.27-.17-.63-.26-1.11-.26h-.33v-.7c.08 0 .15.01.21.02s.12 0 .18 0c.3 0 .54-.05.73-.14.33-.16.5-.46.5-.88 0-.31-.11-.56-.33-.73s-.48-.25-.78-.25c-.53 0-.89.18-1.09.53-.11.19-.17.47-.19.83h-.78c0-.47.09-.87.28-1.2.32-.59.89-.88 1.7-.88.64 0 1.14.14 1.49.43.35.29.53.7.53 1.24 0 .39-.1.7-.31.94-.13.15-.3.27-.5.35.33.09.59.27.78.53.19.26.28.58.28.95 0 .6-.2 1.09-.59 1.47s-.96.57-1.68.57-1.28-.2-1.62-.61ZM93.73 88.72c.19-.4.58-.77 1.14-1.09l.84-.49c.38-.22.64-.41.8-.56.24-.24.36-.52.36-.84 0-.37-.11-.66-.33-.87s-.51-.32-.88-.32c-.54 0-.92.21-1.12.62-.11.22-.17.53-.18.92h-.8c0-.55.11-.99.3-1.34.34-.61.95-.91 1.81-.91.72 0 1.25.19 1.58.58s.5.82.5 1.3c0 .5-.18.93-.53 1.29-.21.21-.57.46-1.1.76l-.6.33c-.29.16-.51.31-.68.45-.29.25-.48.54-.55.85h3.44v.75h-4.32c.03-.54.14-1.01.34-1.42ZM101.1 90.14V88.6h-2.76v-.77l2.88-4h.67v4.08h.93v.69h-.93v1.54h-.79Zm-.01-2.23v-2.86l-2.02 2.86h2.02ZM61.7 102.38c.19-.4.58-.77 1.14-1.09l.84-.49c.38-.22.64-.41.8-.56.24-.24.36-.52.36-.84 0-.37-.11-.66-.33-.87s-.51-.32-.88-.32c-.54 0-.92.21-1.12.62-.11.22-.17.53-.18.92h-.8c0-.55.11-.99.3-1.34.34-.61.95-.91 1.81-.91.72 0 1.25.19 1.58.58s.5.82.5 1.3c0 .5-.18.93-.53 1.29-.21.21-.57.46-1.1.76l-.6.33c-.29.16-.51.31-.68.45-.29.25-.48.54-.55.85h3.44v.75h-4.32c.03-.54.14-1.01.34-1.42ZM67.28 102.27c.02.44.19.74.51.91.16.09.34.13.54.13.38 0 .7-.16.97-.47s.46-.95.57-1.92c-.18.28-.39.47-.65.59-.26.11-.54.17-.84.17-.61 0-1.09-.19-1.44-.57-.35-.38-.53-.86-.53-1.46s.17-1.07.52-1.51.86-.65 1.54-.65c.92 0 1.55.41 1.9 1.24.19.45.29 1.02.29 1.7 0 .77-.12 1.45-.35 2.05-.38.99-1.03 1.48-1.95 1.48-.62 0-1.08-.16-1.4-.48s-.48-.73-.48-1.21h.8Zm2.06-1.6c.26-.21.39-.57.39-1.08 0-.46-.12-.81-.35-1.03-.23-.23-.53-.34-.89-.34-.39 0-.69.13-.92.39-.23.26-.34.6-.34 1.04 0 .41.1.74.3.98s.52.36.95.36c.31 0 .6-.1.86-.31ZM46.21 102.38c.19-.4.58-.77 1.14-1.09l.84-.49c.38-.22.64-.41.8-.56.24-.24.36-.52.36-.84 0-.37-.11-.66-.33-.87s-.51-.32-.88-.32c-.54 0-.92.21-1.12.62-.11.22-.17.53-.18.92h-.8c0-.55.11-.99.3-1.34.34-.61.95-.91 1.81-.91.72 0 1.25.19 1.58.58s.5.82.5 1.3c0 .5-.18.93-.53 1.29-.21.21-.57.46-1.1.76l-.6.33c-.29.16-.51.31-.68.45-.29.25-.48.54-.55.85h3.44v.75h-4.32c.03-.54.14-1.01.34-1.42ZM51.46 100.11c-.23-.23-.35-.54-.35-.91 0-.47.17-.87.51-1.21.34-.34.82-.51 1.44-.51s1.08.16 1.42.48c.34.32.51.69.51 1.11 0 .39-.1.71-.3.95-.11.14-.28.27-.52.4.26.12.47.26.62.41.28.29.42.67.42 1.14 0 .55-.19 1.02-.56 1.41s-.9.58-1.58.58c-.61 0-1.13-.17-1.55-.5-.42-.33-.63-.82-.63-1.45 0-.37.09-.69.27-.96.18-.27.45-.48.81-.62-.22-.09-.39-.2-.51-.33Zm2.55 2.85c.24-.2.36-.49.36-.89s-.12-.72-.37-.93-.57-.32-.96-.32-.69.11-.93.32c-.24.22-.36.51-.36.89 0 .33.11.61.33.85.22.24.56.36 1.01.36.37 0 .67-.1.91-.3Zm-.15-3.11c.2-.2.29-.43.29-.7 0-.23-.09-.45-.28-.65-.19-.2-.47-.29-.85-.29s-.66.1-.82.29c-.17.2-.25.43-.25.69 0 .3.11.53.33.7.22.17.48.25.78.25.35 0 .62-.1.82-.29ZM77.78 103.35c-.34-.41-.5-.91-.5-1.49h.83c.04.41.11.7.23.89.21.33.58.5 1.11.5.42 0 .75-.11 1-.33s.38-.51.38-.86c0-.43-.13-.74-.4-.91-.27-.17-.63-.26-1.11-.26h-.33v-.7c.08 0 .15.01.21.02s.12 0 .18 0c.3 0 .54-.05.73-.14.33-.16.5-.46.5-.88 0-.31-.11-.56-.33-.73s-.48-.25-.78-.25c-.53 0-.89.18-1.09.53-.11.19-.17.47-.19.83h-.78c0-.47.09-.87.28-1.2.32-.59.89-.88 1.7-.88.64 0 1.14.14 1.49.43.35.29.53.7.53 1.24 0 .39-.1.7-.31.94-.13.15-.3.27-.5.35.33.09.59.27.78.53.19.26.28.58.28.95 0 .6-.2 1.09-.59 1.47s-.96.57-1.68.57-1.28-.2-1.62-.61ZM86.27 98.51c.28.52.42 1.23.42 2.13 0 .86-.13 1.56-.38 2.12-.37.8-.97 1.2-1.81 1.2-.76 0-1.32-.33-1.69-.98-.31-.55-.46-1.28-.46-2.21 0-.71.09-1.33.28-1.84.35-.96.97-1.43 1.88-1.43.81 0 1.4.34 1.77 1.01Zm-.8 4.19c.24-.36.37-1.04.37-2.03 0-.71-.09-1.3-.26-1.76-.18-.46-.52-.69-1.03-.69-.47 0-.81.22-1.02.66-.22.44-.32 1.08-.32 1.94 0 .64.07 1.16.21 1.55.21.59.57.89 1.08.89.41 0 .74-.18.98-.54ZM94.68 103.35c-.34-.41-.5-.91-.5-1.49h.83c.04.41.11.7.23.89.21.33.58.5 1.11.5.42 0 .75-.11 1-.33s.38-.51.38-.86c0-.43-.13-.74-.4-.91-.27-.17-.63-.26-1.11-.26h-.33v-.7c.08 0 .15.01.21.02s.12 0 .18 0c.3 0 .54-.05.73-.14.33-.16.5-.46.5-.88 0-.31-.11-.56-.33-.73s-.48-.25-.78-.25c-.53 0-.89.18-1.09.53-.11.19-.17.47-.19.83h-.78c0-.47.09-.87.28-1.2.32-.59.89-.88 1.7-.88.64 0 1.14.14 1.49.43.35.29.53.7.53 1.24 0 .39-.1.7-.31.94-.13.15-.3.27-.5.35.33.09.59.27.78.53.19.26.28.58.28.95 0 .6-.2 1.09-.59 1.47s-.96.57-1.68.57-1.28-.2-1.62-.61ZM99.83 99.34v-.61c.57-.06.97-.15 1.2-.28.23-.13.39-.44.51-.92h.62v6.27h-.84v-4.46h-1.48ZM109.91 88.72c.19-.4.58-.77 1.14-1.09l.84-.49c.38-.22.64-.41.8-.56.24-.24.36-.52.36-.84 0-.37-.11-.66-.33-.87s-.51-.32-.88-.32c-.54 0-.92.21-1.12.62-.11.22-.17.53-.18.92h-.8c0-.55.11-.99.3-1.34.34-.61.95-.91 1.81-.91.72 0 1.25.19 1.58.58s.5.82.5 1.3c0 .5-.18.93-.53 1.29-.21.21-.57.46-1.1.76l-.6.33c-.29.16-.51.31-.68.45-.29.25-.48.54-.55.85h3.44v.75h-4.32c.03-.54.14-1.01.34-1.42ZM115.41 88.53c.05.45.26.76.63.94.19.09.4.13.65.13.47 0 .82-.15 1.04-.45s.34-.63.34-.99c0-.44-.13-.78-.4-1.02s-.59-.36-.96-.36c-.27 0-.51.05-.7.16-.2.11-.36.25-.5.44l-.69-.04.48-3.39h3.27v.76h-2.68l-.27 1.75c.15-.11.29-.19.42-.25.23-.1.51-.15.81-.15.58 0 1.07.19 1.47.56s.6.84.6 1.42-.18 1.12-.55 1.57-.95.68-1.76.68c-.51 0-.97-.14-1.36-.43-.39-.29-.61-.73-.66-1.33h.82ZM126.03 88.72c.19-.4.58-.77 1.14-1.09l.84-.49c.38-.22.64-.41.8-.56.24-.24.36-.52.36-.84 0-.37-.11-.66-.33-.87s-.51-.32-.88-.32c-.54 0-.92.21-1.12.62-.11.22-.17.53-.18.92h-.8c0-.55.11-.99.3-1.34.34-.61.95-.91 1.81-.91.72 0 1.25.19 1.58.58s.5.82.5 1.3c0 .5-.18.93-.53 1.29-.21.21-.57.46-1.1.76l-.6.33c-.29.16-.51.31-.68.45-.29.25-.48.54-.55.85h3.44v.75h-4.32c.03-.54.14-1.01.34-1.42ZM134.52 84.37c.28.37.42.74.42 1.13h-.78c-.05-.25-.12-.44-.22-.58-.19-.26-.48-.4-.87-.4-.44 0-.79.2-1.05.61s-.41.99-.44 1.76c.18-.27.41-.47.69-.6.25-.12.53-.18.84-.18.53 0 .99.17 1.38.51s.59.84.59 1.51c0 .57-.19 1.08-.56 1.52-.37.44-.9.66-1.59.66-.59 0-1.1-.22-1.52-.67-.43-.45-.64-1.2-.64-2.26 0-.78.1-1.45.29-1.99.37-1.04 1.04-1.56 2.01-1.56.7 0 1.19.18 1.47.55Zm-.59 4.81c.21-.28.31-.61.31-.99 0-.32-.09-.63-.28-.92-.18-.29-.52-.44-1.01-.44-.34 0-.64.11-.89.34-.26.23-.38.57-.38 1.02 0 .4.12.73.35 1 .23.27.56.41.97.41s.73-.14.93-.42Z"/><text style="font-family:Helvetica,Helvetica;font-size:9px" transform="translate(141.14 90.14)"><tspan x="0" y="0">27</tspan></text><circle cx="158.41" cy="94.01" r="25.34" style="stroke-linecap:round;stroke-linejoin:round;stroke:#000;fill:#d6d6d6"/><circle cx="158.41" cy="94.01" r="20.09" style="fill:#fff"/><path d="M141.34 111.04c.2.2.41.4.62.59-.21-.19-.41-.39-.62-.59ZM141.95 111.63c.35.32.71.64 1.07.94-.37-.3-.72-.62-1.07-.94ZM143.02 112.57ZM144.15 113.45Z" class="cls-12"/><circle cx="158.15" cy="77.64" r="1.09"/><path d="M150.4 80.81c-.52.3-1.19.12-1.5-.4-.3-.52-.12-1.19.4-1.49.52-.3 1.19-.12 1.49.4.3.52.12 1.19-.4 1.5ZM144.73 86.48c-.3.52-.97.7-1.5.4-.52-.3-.7-.97-.4-1.5.3-.52.97-.7 1.5-.4.52.3.7.97.4 1.5Z"/><circle cx="141.56" cy="94.22" r="1.09"/><path d="M144.33 103.47c-.52.3-1.19.12-1.5-.4-.3-.52-.12-1.19.4-1.5.52-.3 1.19-.12 1.5.4.3.52.12 1.19-.4 1.5ZM150.8 109.14c-.3.52-.97.7-1.49.4-.52-.3-.7-.97-.4-1.5.3-.52.97-.7 1.5-.4.52.3.7.97.4 1.5Z"/><circle cx="158.15" cy="110.81" r="1.09"/><path d="M166.99 109.54c-.52.3-1.19.12-1.5-.4-.3-.52-.12-1.19.4-1.5.52-.3 1.19-.12 1.49.4.3.52.12 1.19-.4 1.5ZM173.46 103.06c-.3.52-.97.7-1.5.4-.52-.3-.7-.97-.4-1.5.3-.52.97-.7 1.5-.4.52.3.7.97.4 1.5Z"/><circle cx="174.73" cy="94.22" r="1.09"/><path d="M167.39 80.41c-.3.52-.97.7-1.49.4-.52-.3-.7-.97-.4-1.5.3-.52.97-.7 1.5-.4.52.3.7.97.4 1.49ZM172.81 86.48c-.3.52-.97.7-1.49.4-.52-.3-.7-.97-.4-1.5.3-.52.97-.7 1.5-.4.52.3.7.97.4 1.49ZM159.25 80.87v16.27a.77.77 0 0 1-1.54 0V80.87a.77.77 0 0 1 1.54 0Z"/><path d="M170.45 94.29c0 .54-.44.99-.99.99h-13.83c-.55 0-.99-.44-.99-.99s.44-.99.99-.99h13.83c.55 0 .99.44.99.99Z"/><path d="M160.64 94.29c0 .36-.09.69-.24.99-.24.47-.65.84-1.15 1.02a2.191 2.191 0 0 1-1.54 0 2.195 2.195 0 0 1-1.14-1.02 2.16 2.16 0 0 1 0-1.98c.24-.47.65-.84 1.14-1.02a2.191 2.191 0 0 1 1.54 0 2.122 2.122 0 0 1 1.14 1.03c.15.3.24.63.24.99ZM80.83 26.4v-4.03h1.2v4.01c0 .49-.08.88-.25 1.16-.29.48-.8.73-1.55.73s-1.25-.2-1.5-.59-.38-.93-.38-1.6v-.13h1.14v.13c.01.45.06.76.15.94s.27.27.56.27.47-.1.56-.3c.05-.12.08-.31.08-.59ZM87.39 26.94h-2.12l-.4 1.18h-1.26l2.05-5.76h1.36l2.04 5.76h-1.3l-.37-1.18Zm-.34-.99-.72-2.27-.74 2.27h1.46ZM95.25 28.13h-1.2l-2.35-4.09v4.09h-1.12v-5.76h1.26l2.29 4.02v-4.02h1.12v5.76ZM96.75 22.37h1.29l1.25 4.37 1.26-4.37h1.25l-1.96 5.76H98.7l-1.95-5.76ZM103.22 22.37h1.2v5.76h-1.2v-5.76ZM110.34 25.61h-2.8v1.48h3.19v1.04h-4.36v-5.76h4.22v1.02h-3.05v1.22h2.8v1ZM114.92 25.87h-1.24v2.26h-1.18v-5.76h2.82c.4 0 .71.06.93.15s.4.23.55.4c.12.15.22.31.3.48s.11.38.11.61c0 .27-.07.54-.21.81s-.37.45-.68.56c.27.11.45.26.56.46s.17.5.17.9v.39c0 .26.01.44.03.54.03.15.1.26.22.33v.14h-1.32c-.04-.13-.06-.23-.08-.31-.03-.16-.05-.33-.05-.5v-.54c-.01-.37-.08-.61-.21-.73s-.37-.18-.72-.18Zm.73-1.05c.24-.11.36-.33.36-.65 0-.35-.12-.58-.35-.7-.13-.07-.33-.1-.59-.1h-1.4v1.55h1.36c.27 0 .47-.03.61-.09Z"/><circle cx="36.31" cy="68.09" r="18.37" class="cls-4"/><path d="M30.77 57.6c1.39-1.5 3.31-2.25 5.74-2.25 2.25 0 4.05.64 5.4 1.93 1.35 1.28 2.03 2.93 2.03 4.92 0 1.21-.25 2.19-.74 2.95-.5.75-1.5 1.86-3.01 3.32-1.1 1.06-1.81 1.96-2.13 2.7-.32.74-.49 1.82-.49 3.26h-3.05c0-1.63.19-2.95.58-3.95.39-1 1.24-2.14 2.55-3.43l1.37-1.35c.41-.39.74-.79.99-1.22.46-.74.69-1.51.69-2.31 0-1.12-.33-2.09-1-2.91-.67-.82-1.77-1.23-3.31-1.23-1.91 0-3.23.71-3.96 2.12-.41.79-.64 1.92-.7 3.41h-3.05c0-2.47.7-4.45 2.09-5.95Zm3.68 19.68h3.41v3.56h-3.41v-3.56Z"/><path d="M-22.52-55.49h602.19v522.43H-22.52z" style="stroke:#fff;stroke-width:8px;fill:none;stroke-linecap:round;stroke-linejoin:round"/></svg>