<svg xmlns="http://www.w3.org/2000/svg" id="Calque_1" viewBox="0 0 200 128"><defs><style>.cls-2,.cls-3{stroke:#000;stroke-linecap:round;stroke-linejoin:round}.cls-2{fill:#fff}.cls-3{fill:none}.cls-7{fill:#f6e7d4}.cls-8{fill:#dbc5b1}.cls-9{fill:#dfdfe0}.cls-10{fill:#546885}.cls-11{fill:#87ccf3}</style></defs><path d="M148.94 16.88h.15c.38 0 .76.04 1.12.11 2.53.52 4.44 2.76 4.44 5.44v13.44H32.78V22.43c0-.34.04-.67.1-1l.06-.27c.06-.25.14-.5.23-.73l.08-.21c.12-.28.27-.55.44-.81l.04-.08.13-.16c.13-.17.27-.34.41-.5l.24-.25c.2-.19.41-.37.64-.53l.08-.06.6-.33c.12-.06.22-.13.34-.19.47-.2.97-.33 1.49-.4.22-.03.44-.04.67-.04h.35v.04h3.35v-.04h6.37v.04h3.35v-.04h6.38v.03h3.35v-.03h6.37v.03h3.35v-.03h6.43v.03h3.35v-.03h6.37v.02h3.35v-.02h6.36v.02h3.35v-.02h6.37l3.35.01h0l6.34-.01h0l3.35.01h0l6.37-.01h21.89" style="stroke-width:2px;fill:#bfe6fc;stroke:#000;stroke-linecap:round;stroke-linejoin:round"/><path d="m35.23 17.83-.08.06.08-.06zM32.78 101.65ZM153.72 104.72l-.11.14.11-.14ZM153.12 105.46l-.17.18.17-.18ZM38.33 107.21c-.77 0-1.5-.15-2.16-.44.66.28 1.4.44 2.16.44ZM152.07 106.33l.16-.1.03-.02-.19.12zM151.36 106.71l-.15.07.15-.07ZM33.73 104.76c.35.52.81.97 1.31 1.35l.19.15c-.59-.4-1.1-.91-1.5-1.5ZM150.31 107.06l-.22.04.22-.04Z" class="cls-7"/><path d="M32.78 35.88v65.77c0 .77.16 1.5.44 2.16.14.33.31.65.51.94.4.59.91 1.1 1.5 1.5a5.557 5.557 0 0 0 3.1.95h110.76c.34 0 .67-.04 1-.1l.22-.04c.31-.07.61-.16.9-.28l.15-.07c.25-.11.49-.24.72-.39l.18-.12c.25-.17.47-.36.69-.57l.17-.18c.18-.19.34-.39.49-.6l.11-.14v-.02s0 0 0 0c.58-.88.92-1.92.92-3.05V35.88M37.66 39.93h112.4v61.26H37.66V39.93Z" style="stroke-width:2px;fill:none;stroke:#000;stroke-linecap:round;stroke-linejoin:round"/><path d="M40.36 23.99ZM40.88 23.9ZM41.85 23.07c-.14.27-.35.5-.6.66.26-.16.46-.39.6-.66ZM50.09 23.99ZM50.61 23.9ZM60.34 23.9ZM61.3 23.07ZM59.82 23.99ZM70.06 23.9ZM69.55 23.99ZM68.47 23.59l-.22-.23.22.23ZM79.32 23.99ZM79.84 23.9ZM87.98 23.59l-.22-.23.22.23ZM89.57 23.9ZM89.05 23.99ZM98.77 23.99ZM99.29 23.9ZM109.01 23.9ZM108.5 23.99ZM118.18 23.99ZM119.67 23.07c-.14.27-.35.5-.6.66.26-.16.46-.39.6-.66ZM118.7 23.9ZM126.84 23.59l-.22-.23.22.23ZM127.91 23.99ZM128.43 23.9ZM139.03 23.07c-.14.27-.35.5-.6.66.26-.16.46-.39.6-.66ZM137.54 23.99ZM138.06 23.9ZM147.27 23.99ZM146.19 23.59l-.22-.23.22.23ZM147.78 23.9Z" class="cls-9"/><path d="M40.36 13.42c-.18 0-.34.04-.5.09 0 0 0 0 0 0s-.01 0-.02.01c-.14.05-.27.11-.4.2-.02.01-.04.03-.07.04-.13.1-.25.2-.34.33l-.02.02c-.09.13-.17.27-.22.42l-.03.08c-.05.15-.08.31-.08.48v7.22c0 .92.75 1.68 1.68 1.68h0c.15 0 .29-.02.42-.06l.1-.03c.12-.04.24-.09.34-.16h.03c.25-.18.46-.4.6-.67.12-.23.19-.48.19-.75V15.1c0-.92-.75-1.68-1.68-1.68ZM50.09 13.42c-.18 0-.34.04-.5.09 0 0 0 0 0 0s-.01 0-.02.01c-.14.05-.27.11-.4.2-.02.02-.05.03-.07.04-.13.1-.25.2-.34.33l-.02.02c-.09.13-.17.27-.22.42l-.03.08c-.05.15-.08.31-.08.48v7.22c0 .92.75 1.68 1.68 1.68h0c.15 0 .29-.02.42-.06l.1-.03c.12-.04.24-.09.34-.16h.03c.13-.09.24-.19.34-.3 0 0 .01-.02.02-.03.09-.1.17-.22.23-.34 0 0 0 0 0 0h0c.12-.23.19-.48.19-.75V15.1c0-.92-.75-1.68-1.68-1.68ZM59.82 13.42c-.18 0-.34.04-.5.09 0 0 0 0 0 0s-.01 0-.02.01c-.14.05-.27.11-.4.2-.02.02-.05.03-.07.04-.13.1-.25.2-.34.33l-.02.02c-.09.13-.17.27-.22.42l-.03.08c-.05.15-.08.31-.08.48v7.22c0 .92.75 1.68 1.68 1.68h0c.15 0 .29-.02.42-.06l.1-.03c.12-.04.24-.09.34-.16h.03c.25-.18.46-.4.6-.67.12-.23.19-.48.19-.75V15.1c0-.92-.75-1.68-1.68-1.68ZM69.54 13.42c-.18 0-.34.04-.5.09 0 0 0 0 0 0s-.01 0-.02.01c-.14.05-.27.11-.39.2-.02.02-.05.03-.07.05-.13.1-.25.2-.34.33l-.02.02c-.1.13-.17.27-.22.42l-.03.08c-.05.15-.08.31-.08.48v7.22c0 .4.15.76.38 1.05l.22.23c.29.25.66.4 1.07.4h0c.15 0 .29-.02.42-.06l.1-.03c.12-.04.24-.09.34-.16h.03c.13-.09.24-.19.34-.3 0 0 0-.01.01-.02.09-.1.17-.22.24-.34 0 0 0 0 0 0s0 0 0 0c.12-.23.19-.48.19-.76v-7.22c0-.92-.75-1.68-1.68-1.68ZM79.32 13.42c-.18 0-.34.04-.5.09 0 0 0 0 0 0s-.01 0-.02.01c-.14.05-.27.11-.4.2-.02.02-.04.03-.07.04-.13.1-.25.2-.34.33l-.02.02c-.09.13-.17.27-.22.42l-.03.08c-.05.15-.08.31-.08.48v7.22c0 .92.75 1.68 1.68 1.68h0c.15 0 .29-.02.42-.06l.1-.03c.12-.04.24-.09.34-.16h.03c.13-.09.24-.19.34-.3 0 0 .01-.02.02-.03.09-.1.17-.22.23-.34 0 0 0 0 0 0s0 0 0 0c.12-.23.19-.48.19-.76v-7.22c0-.92-.75-1.68-1.68-1.68ZM89.05 13.42c-.18 0-.34.04-.5.09 0 0 0 0 0 0s-.01 0-.02.01c-.14.05-.27.11-.4.2-.02.02-.05.03-.07.05-.13.1-.25.2-.34.33l-.02.02c-.09.13-.17.27-.22.42l-.03.08c-.05.15-.08.31-.08.48v7.22c0 .4.15.76.38 1.05l.22.23c.29.25.66.4 1.07.4h0c.15 0 .29-.02.42-.06l.1-.03c.12-.04.24-.09.34-.16h.03c.13-.09.24-.19.34-.3 0 0 0-.01.01-.02.09-.1.17-.22.24-.34 0 0 0 0 0 0s0 0 0 0c.12-.23.19-.48.19-.76v-7.22c0-.92-.75-1.68-1.68-1.68ZM98.77 13.42c-.18 0-.34.04-.5.09 0 0 0 0 0 0s-.01 0-.02.01c-.14.05-.27.11-.4.2-.02.02-.05.03-.07.05-.13.1-.25.2-.34.33l-.02.02c-.09.13-.17.27-.22.42l-.03.08c-.05.15-.08.32-.08.48v7.22c0 .92.75 1.68 1.68 1.68h0c.15 0 .29-.02.42-.06l.1-.03c.12-.04.24-.09.34-.16h.03c.13-.09.24-.19.34-.3 0 0 0-.01.01-.02.09-.1.17-.22.24-.34 0 0 0 0 0 0s0 0 0 0c.12-.23.19-.48.19-.76v-7.22c0-.92-.75-1.68-1.68-1.68ZM108.49 13.42c-.18 0-.34.04-.5.09 0 0 0 0 0 0s-.01 0-.02.01c-.14.05-.28.12-.4.2-.02.01-.04.03-.07.04-.13.1-.25.2-.34.33l-.02.02c-.09.13-.17.27-.22.42l-.03.08c-.05.15-.08.31-.08.48v7.22c0 .92.75 1.68 1.68 1.68h0c.15 0 .29-.02.42-.06l.1-.03c.12-.04.24-.09.34-.16h.03c.13-.09.24-.19.34-.3 0 0 0-.01.01-.02.09-.1.17-.22.24-.34 0 0 0 0 0 0s0 0 0 0c.12-.23.19-.48.19-.76V15.1c0-.92-.75-1.68-1.68-1.68ZM118.18 13.42c-.18 0-.34.04-.5.09 0 0 0 0 0 0s-.01 0-.02.01c-.14.05-.27.11-.4.2-.02.02-.05.03-.07.04-.13.1-.25.2-.34.33l-.02.02c-.09.13-.17.27-.22.42l-.03.08c-.05.15-.08.31-.08.48v7.22c0 .92.75 1.68 1.68 1.68h0c.15 0 .29-.02.42-.06l.1-.03c.12-.04.24-.09.34-.16h.03c.25-.18.46-.4.6-.67.12-.23.19-.48.19-.75V15.1c0-.92-.75-1.68-1.68-1.68ZM127.91 13.42c-.18 0-.34.04-.5.09 0 0 0 0 0 0s-.01 0-.02.01c-.14.05-.27.11-.4.2-.02.02-.04.03-.07.04-.13.1-.25.2-.34.33l-.02.02c-.09.13-.17.27-.22.42l-.03.08c-.05.15-.08.31-.08.48v7.22c0 .4.15.76.38 1.05l.22.23c.29.25.66.4 1.07.4h0c.15 0 .29-.02.42-.06l.1-.03c.12-.04.24-.09.34-.16h.03c.13-.09.24-.19.34-.3 0 0 .01-.02.02-.03.09-.1.17-.22.23-.34 0 0 0 0 0 0s0 0 0 0c.12-.23.19-.48.19-.76v-7.22c0-.92-.75-1.68-1.68-1.68ZM137.54 13.42c-.18 0-.34.04-.5.09 0 0 0 0 0 0s-.01 0-.02.01c-.14.05-.28.12-.4.2-.02.02-.04.03-.07.04-.13.1-.25.2-.34.33l-.02.02c-.09.13-.17.27-.22.42l-.03.08c-.05.15-.08.31-.08.48v7.22c0 .92.75 1.68 1.68 1.68h0c.15 0 .29-.02.42-.06l.1-.03c.12-.04.24-.09.34-.16h.03c.25-.18.46-.4.6-.67 0 0 0 0 0 0 .12-.23.19-.48.19-.75V15.1c0-.92-.75-1.68-1.68-1.68ZM147.27 13.42c-.18 0-.34.04-.5.09 0 0 0 0 0 0s-.01 0-.02.01c-.14.05-.27.11-.4.2-.02.01-.04.03-.07.04-.13.1-.25.2-.34.33l-.02.02c-.09.13-.17.27-.22.42l-.03.08c-.05.15-.08.31-.08.48v7.22c0 .4.15.76.38 1.05l.22.23c.29.25.66.4 1.07.4h0c.15 0 .29-.02.42-.06l.1-.03c.12-.04.24-.09.34-.16h.03c.13-.09.24-.19.34-.3 0 0 0-.01.01-.02.09-.1.17-.22.24-.34 0 0 0 0 0 0s0 0 0 0c.12-.23.19-.48.19-.76V15.1c0-.92-.75-1.68-1.68-1.68Z" class="cls-2"/><path d="M134.33 101.19V39.93M101.78 101.19V39.93M118.05 101.19V39.93M85.65 101.19V39.93M69.48 101.19V39.93M53.99 101.19V39.93M149.56 70.81H37.66M149.56 56.89H37.66M149.81 84.73H37.91M149.81 42.71H37.91M149.66 98.73H37.76" class="cls-3"/><path d="M59.24 45.12c.6-.64 1.41-.96 2.45-.96.96 0 1.73.27 2.31.82.58.55.87 1.25.87 2.11 0 .52-.11.94-.32 1.26-.21.32-.64.8-1.29 1.42-.47.45-.77.84-.91 1.15-.14.32-.21.78-.21 1.4h-1.3c0-.7.08-1.26.25-1.69.17-.43.53-.92 1.09-1.47l.59-.58c.18-.17.32-.34.42-.52.2-.32.29-.65.29-.99 0-.48-.14-.89-.43-1.25-.29-.35-.76-.53-1.42-.53-.82 0-1.38.3-1.69.91-.18.34-.28.82-.3 1.46h-1.3c0-1.05.3-1.9.89-2.55Zm1.58 8.41h1.46v1.52h-1.46v-1.52ZM91.56 73.54c.6-.64 1.41-.96 2.45-.96.96 0 1.73.27 2.31.82.58.55.87 1.25.87 2.11 0 .52-.11.94-.32 1.26-.21.32-.64.8-1.29 1.42-.47.45-.77.84-.91 1.15-.14.32-.21.78-.21 1.4h-1.3c0-.7.08-1.26.25-1.69.17-.43.53-.92 1.09-1.47l.59-.58c.18-.17.32-.34.42-.52.2-.32.29-.65.29-.99 0-.48-.14-.89-.43-1.25-.29-.35-.76-.53-1.42-.53-.82 0-1.38.3-1.69.91-.18.34-.28.82-.3 1.46h-1.3c0-1.05.3-1.9.89-2.55Zm1.58 8.41h1.46v1.52h-1.46v-1.52ZM107.71 87.43c.6-.64 1.41-.96 2.45-.96.96 0 1.73.27 2.31.82.58.55.87 1.25.87 2.11 0 .52-.11.94-.32 1.26-.21.32-.64.8-1.29 1.42-.47.45-.77.84-.91 1.15-.14.32-.21.78-.21 1.4h-1.3c0-.7.08-1.26.25-1.69.17-.43.53-.92 1.09-1.47l.59-.58c.18-.17.32-.34.42-.52.2-.32.29-.65.29-.99 0-.48-.14-.89-.43-1.25-.29-.35-.76-.53-1.42-.53-.82 0-1.38.3-1.69.91-.18.34-.28.82-.3 1.46h-1.3c0-1.05.3-1.9.89-2.55Zm1.58 8.41h1.46v1.52h-1.46v-1.52ZM91.56 59.49c.6-.64 1.41-.96 2.45-.96.96 0 1.73.27 2.31.82.58.55.87 1.25.87 2.11 0 .52-.11.94-.32 1.26-.21.32-.64.8-1.29 1.42-.47.45-.77.84-.91 1.15-.14.32-.21.78-.21 1.4h-1.3c0-.7.08-1.26.25-1.69.17-.43.53-.92 1.09-1.47l.59-.58c.18-.17.32-.34.42-.52.2-.32.29-.65.29-.99 0-.48-.14-.89-.43-1.25-.29-.35-.76-.53-1.42-.53-.82 0-1.38.3-1.69.91-.18.34-.28.82-.3 1.46h-1.3c0-1.05.3-1.9.89-2.55Zm1.58 8.41h1.46v1.52h-1.46V67.9Z" class="cls-11"/><circle cx="154.65" cy="96.15" r="25.34" style="stroke:#000;stroke-linecap:round;stroke-linejoin:round;fill:#d6d6d6"/><circle cx="154.65" cy="96.15" r="20.09" style="fill:#fff"/><path d="M137.57 113.18c.2.2.41.4.62.59-.21-.19-.41-.39-.62-.59ZM138.19 113.77c.35.32.71.64 1.07.94-.37-.3-.72-.62-1.07-.94ZM139.26 114.71ZM140.39 115.59Z" class="cls-10"/><circle cx="154.38" cy="79.78" r="1.09"/><path d="M146.64 82.95c-.52.3-1.19.12-1.5-.4-.3-.52-.12-1.19.4-1.49.52-.3 1.19-.12 1.49.4.3.52.12 1.19-.4 1.5ZM140.97 88.62c-.3.52-.97.7-1.5.4-.52-.3-.7-.97-.4-1.5.3-.52.97-.7 1.5-.4.52.3.7.97.4 1.5Z"/><circle cx="137.8" cy="96.37" r="1.09"/><path d="M140.57 105.61c-.52.3-1.19.12-1.5-.4-.3-.52-.12-1.19.4-1.5.52-.3 1.19-.12 1.5.4.3.52.12 1.19-.4 1.5ZM147.04 111.28c-.3.52-.97.7-1.49.4-.52-.3-.7-.97-.4-1.5.3-.52.97-.7 1.5-.4.52.3.7.97.4 1.5Z"/><circle cx="154.38" cy="112.95" r="1.09"/><path d="M163.22 111.68c-.52.3-1.19.12-1.5-.4-.3-.52-.12-1.19.4-1.5.52-.3 1.19-.12 1.49.4.3.52.12 1.19-.4 1.5ZM169.69 105.21c-.3.52-.97.7-1.5.4-.52-.3-.7-.97-.4-1.5.3-.52.97-.7 1.5-.4.52.3.7.97.4 1.5Z"/><circle cx="170.97" cy="96.37" r="1.09"/><path d="M163.62 82.55c-.3.52-.97.7-1.49.4-.52-.3-.7-.97-.4-1.5.3-.52.97-.7 1.5-.4.52.3.7.97.4 1.49ZM169.05 88.62c-.3.52-.97.7-1.49.4-.52-.3-.7-.97-.4-1.5.3-.52.97-.7 1.5-.4.52.3.7.97.4 1.49ZM155.49 83.01v16.27a.77.77 0 0 1-1.54 0V83.01a.77.77 0 0 1 1.54 0Z"/><path d="M166.69 96.43c0 .54-.44.99-.99.99h-13.83c-.55 0-.99-.44-.99-.99s.44-.99.99-.99h13.83c.55 0 .99.44.99.99Z"/><path d="M156.87 96.43c0 .36-.09.69-.24.99-.24.47-.65.84-1.15 1.02a2.191 2.191 0 0 1-1.54 0 2.195 2.195 0 0 1-1.14-1.02 2.16 2.16 0 0 1 0-1.98c.24-.47.65-.84 1.14-1.02a2.191 2.191 0 0 1 1.54 0 2.122 2.122 0 0 1 1.14 1.03c.15.3.24.63.24.99Z"/></svg>