<svg xmlns="http://www.w3.org/2000/svg" id="Calque_1" viewBox="0 0 128 128"><defs><style>.cls-1{fill:#afaff9}.cls-1,.cls-4,.cls-5,.cls-6,.cls-7,.cls-8{stroke-linecap:round;stroke-linejoin:round;stroke:#000}.cls-4{fill:#ff6d75}.cls-5{fill:#f3d587}.cls-11,.cls-6{fill:#fff}.cls-7{fill:none}.cls-12,.cls-8{fill:#fab0b4}</style></defs><path d="M75.51 69.91c-.09-.26.49-1.03-1.55-.52s-5.98 3.31-5.98 3.31" class="cls-6"/><path d="M76.52 71.08s1.5-1.41-.7-1.06-7.13 2.51-7.13 2.51" class="cls-6"/><path d="M76.4 85.64h14.46v7.83H76.4zM78.18 83.58h3.81v2.06h-3.81zM85.28 83.58h3.81v2.06h-3.81z" class="cls-8"/><path d="M90.87 85.64h14.46v7.83H90.87zM92.65 83.58h3.81v2.06h-3.81zM99.74 83.58h3.81v2.06h-3.81z" class="cls-5"/><path d="M76.44 93.47H90.9v7.83H76.44z" style="fill:#b2f0e9;stroke:#000;stroke-linecap:round;stroke-linejoin:round"/><path d="M90.9 93.47h14.46v7.83H90.9z" style="fill:#b4eac3;stroke:#000;stroke-linecap:round;stroke-linejoin:round"/><path d="M90.85 101.3h14.46v7.83H90.85z" class="cls-8"/><path d="M105.31 101.3h14.46v7.83h-14.46z" class="cls-1"/><path d="M90.88 109.13h14.46v7.83H90.88zM105.35 109.13h14.46v7.83h-14.46z" class="cls-5"/><path d="M107.13 99.24h3.81v2.06h-3.81zM114.22 99.24h3.81v2.06h-3.81zM73.24 116.96h53.63" class="cls-1"/><path d="m25.6 96.49-5.66 4.77 6.43 4.97-1.09-3.28 4.04 3.1.91-.08-2.41-3 3.38 2.59 1.4.84.47-1.12-3.91-3.83.34-.41 3.36 2.8 1.31 1.05.72-.71-2.33-2.82 1.94-.3v-.76l-4.23-.39-2.85-1.76-1.82-1.66zM68.58 73.94l-.12 5.52 2.1 1.25 2.32-8.63-4.3 1.86z" class="cls-11"/><path d="M45.24 121.7c-7.08-4.81-35.56-.5-40.34-11.36C.12 99.48 9.18 94.8 9.18 94.8s1.54 2.05 4.5 3.74c2.96 1.69 5.47 2.67 6.81 3.77 3.38 2.83 7.63 6.64 6.76 4.23-.23-.63-.48-1.15-.74-1.58l1.22.54h.02c1.18.77 2.67 1.63 3.15 1.39 1.13.55 2.3 1.1 3.45 1.62 3.7 1.69 7.33 3.1 9.92 3.2.27 0 1.14.53 1.94 1.05.59.39 1.14.77 1.36.92.32.22.64.46 1 .73 6.46 4.91 3.78 12.07-3.31 7.28Z" class="cls-4"/><path d="M26.37 104.73c.1.05.21.09.32.14.13.06.25.12.38.18" class="cls-7"/><path d="M34.87 105.04c-.59.37-1.01.32-1.44 0 .47 3.06-2.39 1.08-2.6.93.16.26.25.51.21.73-.02.1-.06.16-.14.2-.48.24-1.97-.61-3.15-1.39h-.02c-.23-.15-.46-.31-.66-.44-.48-.32-.83-.59-.89-.63.06.09.14.19.2.31.05.07.09.14.13.23.26.42.51.95.74 1.58.87 2.41-6.98-4.42-7.08-4.51-.32-.27-.67-.55-1.02-.82l6.62-5.35.12.16c1.88 2.25 3.56 3.96 5.93 3.82 5.21-.32 3.27 2.5.98 1.4.36.23 3.85 2.65 2.08 3.8Z" class="cls-7"/><path d="M25.04 103.26s.52.31 1.13 1.16h0M8.94 94.23c-10.05-8.09-2.55-28.39-2.55-28.39 4.12-9.8 11.79-8.6 12.91-11.52M29.16 101.26c2.44 1.13 3.33 3.08 4.27 3.78M32.79 101.24s-.02-.02-.03-.02M27.82 103.25s2.28 1.5 3 2.7h.01M26.17 104.43h0M30.83 105.97h-.01M24.62 94.51h-.01M21.93 91.54h-.03" class="cls-7"/><path d="M65.39 73.55c-.04.07 3.24 6.34 3.24 6.34-2.2 1.33-25.28 4.24-25.34 4.22-.42-.14-6.76-16.47-6.76-16.47S42.4 87.47 44.5 92.4c0 0 6.35 13.12 1.68 20.38 0 0 0 .02-.02.03-4.01-2.38-4.22-.09-9.25-2.86-1.04-.57-1.88-1.04-2.58-1.42l-3.3-1.82c.04-.22-.05-.47-.21-.73.21.15 3.07 2.13 2.6-.93.43.32.86.37 1.44 0 1.77-1.15-1.72-3.56-2.08-3.8 2.29 1.1 4.23-1.72-.98-1.4-2.37.14-4.05-1.57-5.93-3.82l-.12-.16-6.62 5.35s-6.15-2.7-8.53-4.92c0 0-2.49-2.51-4.03-4.42-7.09-8.79-.5-28.89 2.71-31.93 3.2-3.04 10.02-5.62 10.02-5.62 6.57 2.24 12.11 1.23 13.22.17.05-.04 0 .05 0 0-.02-.07 6.13.76 8.66 4.42s8.45 15.2 8.45 15.2l15.77-.56ZM53.01 113.36c-2.08.62-2.86 1.92-2.86 1.92 1.13 1.3 2.37 3.77 2.2 5.24-.37 3.3 18.62-1.13 15.01-7.23-1.83-3.09-9.82-1.16-9.82-1.16" class="cls-4"/><path d="M55.92 98.78s-3.79-.85-4.08 7.1c-.07 1.99 0 7.99 0 7.99s5.06-2.01 9.76-2.3c0 0 4.62-7.68 5.87-17.01 1.24-9.33-9.36-6.58-9.36-6.58l-13.88 3.68s6.25 12.79 1.95 21.11l1.35.91s2.12-1.78 3.93-4.39" class="cls-4"/><path d="M16.13 67.18s.76 14.18.05 20.28c0 0 1.09-.28 5.35 3.69.13.12 1.89 1.81 2.02 1.94l2.32 2.92" class="cls-7"/><path d="m39.51 51.83-.03-.02.02-.02s0 .02.02.03Z" class="cls-12"/><path d="M19.65 53.82c1.12-2.92 0-10.98 0-10.98-7.35-10.96-4.61-19.77 1.94-24.69 6.54-4.93 20.8-8.65 29.15 5.12 8.36 13.76-4.07 19.68-4.07 19.68s-1.15 1.76.13 3.23c1.29 1.48-1.97 2.53-1.97 2.53s-1.74 5.86-5.46 7.73c0 0-2.07 1.12-4.42.49s-4.65-2.62-4.65-2.62" class="cls-6"/><path d="M27.89 35.41s-4.13-2.06-4.89 2.27c-.77 4.33 3.05 3.66 3.05 3.66" class="cls-7"/><circle cx="42.39" cy="43.13" r="1.02"/><path d="M41.2 39.61s2.06-1.66 3.87.39M25.58 37.9l.9.33" class="cls-7"/><circle cx="35.72" cy="42.7" r="2.13" class="cls-12"/><path d="M39.5 51.8s0 .02-.02.02c-.63.45-1.63.49-2.53-.28-.74-.62-1.02-1.28-1.11-1.85h.04c.02 0 .06-.02.12-.02.09-.02.22-.04.4-.05h.18c.12 0 .25 0 .41.02.29.04.61.13.93.3.08.05.16.08.24.15.06.03.12.07.17.12.43.32.85.83 1.16 1.59Z" style="fill:#ff6d75"/><path d="M35.85 49.69zM39.5 51.8c-.32-.76-.73-1.27-1.16-1.59a.657.657 0 0 0-.17-.12c-.08-.06-.16-.1-.24-.15-.32-.17-.65-.26-.93-.3-.15-.02-.28-.03-.41-.02h-.18c-.18 0-.31.03-.4.05-.05 0-.09.02-.12.02h-.04c-.12-.79.13-1.38.13-1.38 1.16-1.65 3.4.78 3.4.78 1.14 1.02.91 2.17.12 2.71Z" class="cls-12"/><path d="M39.3 49.16s-2.24-2.43-3.4-.78c0 0-.25.59-.13 1.38.09.57.37 1.23 1.11 1.85.9.76 1.89.72 2.53.28.02 0 .02-.02.02-.02.79-.54 1.02-1.69-.12-2.71Z" style="stroke-miterlimit:10;fill:none;stroke:#000"/><path d="M53.61 32.91S44.62 36.42 38.26 31c0 0-2.41 4.81-7.97 1.61" class="cls-7"/><path d="m71.641 75.807 13.623-4.848 2.626 7.376-13.623 4.849zM72.624 73.27l3.59-1.277.69 1.94-3.589 1.278zM79.3 70.888l3.59-1.277.69 1.94-3.59 1.278z" class="cls-1"/><path d="m65.58 73.78 2.82 4.68s9.08 2.3 6.98-.02c-2.1-2.32-5.75-2.12-2.41-4.29s7.66-2.95 2.88-3-8.35 2.11-10.18 2.39" class="cls-6"/></svg>