<svg xmlns="http://www.w3.org/2000/svg" id="Calque_1" data-name="Calque 1" viewBox="0 0 128 128"><defs><style>.cls-1,.cls-10,.cls-11,.cls-13,.cls-14,.cls-2,.cls-3,.cls-5,.cls-6,.cls-7,.cls-8{stroke-miterlimit:10}.cls-1,.cls-10,.cls-11,.cls-13,.cls-2,.cls-5,.cls-6,.cls-7,.cls-8{stroke:#000}.cls-1,.cls-13,.cls-14,.cls-3{fill:none}.cls-1,.cls-11{stroke-width:.84px}.cls-11,.cls-16,.cls-2{fill:#fff}.cls-17,.cls-5{fill:#ff6d75}.cls-18,.cls-7{fill:#afaff9}.cls-8{fill:#87f3b9}.cls-10{fill:#8987f3}.cls-2{stroke-width:2px}.cls-3{stroke-width:.23px;stroke:#fff}.cls-6{fill:#f3d587}.cls-14{stroke:#76ac75}</style></defs><path d="M83.58 69.46 46.62 92.58c-2.7 1.69-5.08 1.16-6.77-1.54L6.04 36.79c-1.69-2.7-1.05-4.68 1.65-6.37L44.43 7.48c2.7-1.69 5-1.37 6.69 1.32l33.84 54.19c1.69 2.7 1.32 4.78-1.38 6.47Z" class="cls-2"/><path d="M20.25 39.35c-1.13-.34-2.69.66-2.08 2.52-1.4-1.36-2.99-.41-3.18.76-.17 1.01.63 2.15 2.39 2.58 1.16.28 2.26.29 3.28.65.12-1.08.6-2.07.85-3.24.38-1.77-.29-2.99-1.27-3.28ZM16.09 36.86l-2.15 1.34.36 1.2c.07.23.13.41.19.51.12.2.28.17.62-.04l.23.36-1.53.96-.23-.36c.31-.19.36-.37.24-.87l-1.92-7.17.65-.41 5.7 4.64c.52.43.69.46 1.01.26l.23.36-2.13 1.33-.23-.36c.35-.22.43-.37.32-.54-.06-.09-.16-.19-.29-.31l-1.06-.9Zm-.43-.36-2.82-2.37-.03.02 1 3.51 1.85-1.16Z" class="cls-17"/><path d="m88.65 80.43-42.47 10.6c-3.09.76-4.9.1-5.65-2.99L25.22 25.4c-.76-3.09.54-5.05 3.63-5.8L70.96 9.27c3.09-.76 5.19.63 5.95 3.72l15.11 61.92c.76 3.09-.28 4.76-3.37 5.52Z" class="cls-2"/><path d="M36.48 33.54c-1.36-.94-1.72-1.4-1.72-1.4s-.1.58-.88 2.04c-.77 1.45-1.21 1.89-1.21 1.89s.59.18 1.95 1.11c1.36.94 1.72 1.4 1.72 1.4s.1-.58.88-2.04c.77-1.45 1.21-1.89 1.21-1.89s-.59-.18-1.95-1.11ZM34.78 28.49l-2.46.6-.03 1.25c0 .24 0 .43.02.54.06.23.21.24.6.15l.1.42-1.76.43-.1-.42c.35-.09.46-.23.5-.75l.42-7.42.75-.18 3.96 6.19c.36.57.51.66.88.57l.1.42-2.44.6-.1-.42c.41-.1.52-.22.47-.41-.03-.1-.09-.23-.18-.38l-.72-1.19Zm-.29-.48-1.94-3.14h-.03l-.15 3.66 2.12-.52Z" class="cls-17"/><path d="M98 86.54 54.42 88.8c-3.18.16-4.73-1.31-4.89-4.49L46.19 20.4c-.16-3.18 1.45-4.68 4.63-4.84l43.16-2.37c3.18-.16 5.1 1.45 5.26 4.63l3.34 63.34c.16 3.18-1.41 5.22-4.59 5.39Z" class="cls-2"/><path d="M56.16 31.57c-.26.01-.5.08-.71.2-.03.02-.07 0-.08-.03 0-.02 0-.05.01-.06.27-.3.43-.72.4-1.17-.04-.87-.73-1.53-1.54-1.49-.8.04-1.42.78-1.37 1.64.02.45.22.85.52 1.12 0 0 .02.02.02.03 0 .05-.04.08-.08.07-.22-.09-.47-.14-.73-.12-.87.04-1.53.73-1.49 1.54.04.8.78 1.42 1.64 1.37.45-.02.85-.22 1.12-.52.14-.15.38 0 .31.19-.23.66-.7.78-.85.81-.04 0-.07.05-.07.09v.09s.05.09.1.08l1.06-.05.3-.02h.03l1.03-.05c.05 0 .09-.04.08-.09v-.09s-.04-.08-.09-.08c-.15-.01-.63-.08-.93-.72-.09-.18.14-.35.29-.22.3.27.72.42 1.17.4.87-.04 1.53-.73 1.49-1.54-.04-.8-.78-1.42-1.64-1.37ZM54.95 25.28l-2.53.13-.27 1.22c-.05.24-.09.42-.08.54.01.23.16.28.56.26l.02.43-1.81.09-.02-.43c.36-.02.5-.14.63-.64l1.8-7.21.77-.04 2.73 6.82c.25.63.38.74.75.72l.02.43-2.51.13-.02-.43c.42-.02.55-.11.54-.32 0-.11-.04-.24-.11-.41l-.49-1.3Zm-.2-.53-1.31-3.45h-.03l-.83 3.56 2.18-.11Z"/><path d="m105.27 93.71-43.1-7.84c-3.13-.57-4.27-2.24-3.7-5.37l11.36-62.88c.57-3.13 2.56-4.49 5.69-3.92l42.46 7.76c3.13.57 4.69 2.48 4.12 5.61l-11.39 62.77c-.57 3.13-2.31 4.44-5.45 3.87Z" class="cls-2"/><path d="M77.46 30.5c-.59-.9-1.44-1.7-1.67-2.86-.62 1.01-1.7 1.46-2.57 2.09-1.02.74-1.11 1.49-1.11 1.8 0 1.08 1.39 1.75 2.32 1.11.09-.06.19.04.14.13-.39.71-.93.73-1.09.72-.04 0-.08.03-.09.07l-.02.09s.02.09.07.1l1.03.19h.03l.15.03.15.03h.03l1.03.19c.05 0 .09-.02.1-.07l.02-.09s-.02-.09-.06-.1c-.16-.05-.66-.25-.77-1.06-.01-.1.12-.16.18-.07.64.92 2.18.79 2.56-.22.11-.28.28-1.02-.41-2.07ZM77.34 24.18l-2.49-.45-.54 1.13c-.11.22-.18.39-.2.51-.04.23.1.31.49.38l-.08.42-1.78-.32.08-.42c.36.06.52-.03.76-.48l3.4-6.6.76.14 1.1 7.26c.1.67.2.81.57.88l-.08.42-2.47-.45.08-.42c.41.07.56.02.6-.18.02-.11.01-.25 0-.43l-.17-1.38Zm-.07-.56-.49-3.65h-.03l-1.63 3.26 2.15.39ZM98.4 51.99c-1.99-3.02-4.85-5.71-5.61-9.61-2.09 3.38-5.7 4.9-8.63 7.03-3.43 2.5-3.75 5.02-3.75 6.04 0 3.64 4.67 5.88 7.79 3.73.29-.2.64.12.48.43-1.31 2.4-3.13 2.45-3.68 2.42-.15 0-.28.1-.31.24l-.05.29c-.03.16.08.32.24.35l3.47.63.09.02.5.09.5.09.09.02 3.47.63c.16.03.32-.08.35-.24l.05-.29c.03-.15-.06-.29-.21-.34-.52-.16-2.21-.85-2.59-3.56-.05-.35.4-.52.6-.24 2.16 3.11 7.33 2.66 8.6-.76.36-.96.95-3.43-1.39-6.98ZM103.09 76.79c.59.9 1.44 1.7 1.67 2.86.62-1.01 1.7-1.46 2.57-2.09 1.02-.74 1.11-1.49 1.11-1.8 0-1.08-1.39-1.75-2.32-1.11-.09.06-.19-.04-.14-.13.39-.71.93-.73 1.09-.72.04 0 .08-.03.09-.07l.02-.09s-.02-.09-.07-.1l-1.03-.19h-.03l-.15-.03-.15-.03h-.03l-1.03-.19c-.05 0-.09.02-.1.07l-.02.09s.02.09.06.1c.16.05.66.25.77 1.06.01.1-.12.16-.18.07-.64-.92-2.18-.79-2.56.22-.11.28-.28 1.02.41 2.07ZM103.22 83.12l2.49.45.54-1.13c.11-.22.18-.39.2-.51.04-.23-.1-.31-.49-.38l.08-.42 1.78.32-.08.42c-.36-.06-.52.03-.76.48l-3.4 6.6-.76-.14-1.1-7.26c-.1-.67-.2-.81-.57-.88l.08-.42 2.47.45-.08.42c-.41-.07-.56-.02-.6.18-.02.11-.01.25 0 .43l.17 1.38Zm.07.56.49 3.65h.03l1.63-3.26-2.15-.39Z"/><path d="M26.65 84.19c0-.86.45-2.01 1.18-2.44.63-.37 1.35-.05 1.96.29l2.39 1.32c1.88 1.04 2.73 3.06 2.73 5.28v9.68c0 .82-.1 1.54-.8 1.93-.31.17-.65.26-.99.26-.38 0-.75-.11-1.09-.32" style="stroke-width:.93px;fill:#fff;stroke:#000;stroke-miterlimit:10"/><path d="M36.76 101.58a8.78 8.78 0 0 1-4.65-1.34l-2.9-1.82c-1.54-.96-2.5-2.73-2.51-4.59l-.05-9.82c0-1.76 1.57-3.71 3.18-3.92l8.61-1.16c1.76-.24 3.53.07 5.12.89l3.22 1.65c1.82.93 2.99 2.91 2.97 5.03l-.08 8.5c-.02 2.7-1.9 4.95-4.46 5.36l-7.1 1.13c-.45.07-.9.11-1.36.11Z" class="cls-11"/><path d="M38.25 101.45c-.91.14-1.91-.41-2.5-1.11-.7-.82-.81-1.47-.81-2.57v-9.03c0-2.15 1.29-3.74 3.34-4.03" class="cls-1"/><path d="M38.55 86.98c-.22.03-.43.11-.62.23-.19.12-.36.27-.51.46-.14.18-.26.39-.34.62-.08.23-.13.47-.13.72s.04.48.12.68c.08.2.2.38.34.52s.32.25.51.31.4.08.62.05c.22-.03.43-.11.62-.23.19-.12.36-.27.51-.46.14-.18.26-.39.34-.62.08-.23.13-.47.13-.72s-.04-.48-.12-.68c-.08-.2-.2-.38-.34-.52a1.24 1.24 0 0 0-.5-.31c-.19-.06-.4-.08-.62-.05M38.53 95.35c-.22.03-.43.12-.62.23-.19.12-.36.28-.5.46s-.26.39-.34.62c-.08.23-.13.47-.13.71 0 .25.04.47.12.67.08.2.2.37.34.51s.31.24.5.3.4.08.62.04c.22-.03.43-.12.62-.24s.36-.28.5-.46.26-.39.34-.62c.08-.22.13-.46.13-.71 0-.24-.04-.47-.12-.67-.08-.2-.19-.37-.34-.51a1.22 1.22 0 0 0-.5-.3c-.19-.06-.4-.08-.62-.05"/><path d="M45.99 85.92c-.22.03-.42.11-.61.23-.19.12-.36.27-.5.45s-.26.39-.34.62c-.08.22-.13.47-.13.71 0 .25.04.47.12.68.08.2.19.38.33.52s.31.25.5.31.39.08.61.05c.22-.03.42-.11.61-.23.19-.12.36-.27.5-.45s.26-.39.34-.61c.08-.22.13-.46.13-.71 0-.25-.04-.47-.12-.67-.08-.2-.19-.38-.33-.52s-.31-.25-.49-.31c-.19-.06-.39-.08-.61-.05" style="stroke-width:.93px;stroke:#000;stroke-miterlimit:10"/><path d="M45.93 94.21c-.22.03-.42.11-.61.23-.19.12-.36.27-.5.45s-.26.39-.34.61c-.08.22-.13.46-.13.71 0 .24.04.47.12.67.08.2.19.37.33.51s.31.24.49.3c.19.06.39.08.6.04.21-.03.42-.11.61-.23.19-.12.35-.27.5-.45.14-.18.26-.39.34-.61.08-.22.13-.46.13-.7 0-.24-.04-.47-.12-.67-.08-.2-.19-.37-.33-.51s-.31-.24-.49-.3a1.34 1.34 0 0 0-.6-.05M28.93 89.94a4.114 4.114 0 0 0 .23 1.37c.07.2.15.38.24.52s.19.25.3.32c.11.06.21.07.3.04.09-.03.17-.11.24-.23.07-.12.13-.27.16-.46.04-.19.06-.41.06-.65a4.242 4.242 0 0 0-.23-1.38c-.07-.2-.15-.38-.25-.52a.894.894 0 0 0-.3-.31.367.367 0 0 0-.3-.04c-.09.04-.17.12-.24.23-.07.12-.12.27-.16.46-.04.19-.06.4-.06.65M28.91 84.98a4.114 4.114 0 0 0 .23 1.37c.07.2.15.38.25.52.09.14.19.25.3.31.11.06.21.07.3.03.09-.04.17-.12.24-.24.07-.12.13-.28.16-.47.04-.19.06-.41.06-.65a4.242 4.242 0 0 0-.23-1.38c-.07-.2-.15-.38-.25-.52a.894.894 0 0 0-.3-.31c-.11-.06-.21-.07-.3-.03-.09.04-.17.12-.24.24-.07.12-.12.28-.16.47-.04.19-.06.41-.06.65M28.95 94.86a4.114 4.114 0 0 0 .23 1.36c.07.2.15.38.24.52s.19.26.3.32c.11.07.21.08.3.05s.17-.11.24-.22c.07-.11.12-.27.16-.45.04-.18.06-.4.06-.64s-.02-.48-.06-.72c-.04-.23-.1-.46-.17-.66s-.15-.38-.25-.52c-.09-.14-.19-.25-.3-.32-.11-.06-.21-.08-.3-.04-.09.03-.17.11-.24.23-.07.12-.12.27-.16.45-.04.18-.06.4-.06.64M31.3 91.34a4.242 4.242 0 0 0 .23 1.38c.07.2.16.38.25.53.09.15.2.26.3.32.11.06.21.08.31.04.09-.03.18-.11.25-.23.07-.12.13-.27.17-.46.04-.19.06-.41.06-.65 0-.25-.02-.49-.06-.73-.04-.24-.1-.46-.17-.66s-.16-.38-.25-.53c-.09-.14-.2-.25-.31-.32a.386.386 0 0 0-.31-.04c-.09.03-.18.12-.25.23-.07.12-.13.28-.17.46-.04.19-.06.41-.06.65M31.29 86.33a4.242 4.242 0 0 0 .23 1.39c.07.2.16.38.25.52s.2.25.31.32c.11.06.21.07.31.04.09-.04.18-.12.25-.24s.13-.28.17-.47c.04-.19.06-.41.06-.66 0-.25-.02-.49-.06-.73-.04-.24-.1-.46-.17-.66s-.16-.38-.25-.52a.915.915 0 0 0-.31-.31c-.11-.06-.21-.07-.31-.03-.09.04-.18.12-.25.24a1.6 1.6 0 0 0-.17.47c-.04.19-.06.41-.06.66M31.32 96.31a4.242 4.242 0 0 0 .23 1.38c.07.2.15.38.25.53.09.15.2.26.3.33.11.07.21.08.3.05s.18-.11.25-.22c.07-.12.13-.27.17-.46.04-.19.06-.4.06-.65 0-.24-.02-.49-.06-.73-.04-.24-.1-.46-.17-.66s-.16-.38-.25-.53a.868.868 0 0 0-.31-.32c-.11-.07-.21-.08-.3-.05s-.18.11-.25.23c-.07.12-.13.27-.17.46-.04.19-.06.4-.06.65"/><path d="M36.43 84.89c-1.35 0-2.68-.66-3.89-1.33l-3.13-1.73c-.48-.27-1.01-.55-.9-1.11.1-.54 2.98-.88 3.51-.95l6.42-.84c1.76-.24 3.53.07 5.12.89l3.35 1.72c.49.25.74.45.65 1-.09.54-.49.94-1.01 1.01l-9 1.27c-.37.05-.75.08-1.12.08Z" class="cls-1"/><path d="M31.81 81.04c-.22.03-.4.07-.55.12-.15.05-.26.1-.33.16s-.1.12-.09.18c.01.06.07.12.18.18.11.06.25.11.42.15.17.04.37.07.58.09.21.02.44.03.67.02.23 0 .46-.02.67-.05.22-.03.4-.07.55-.12.15-.05.26-.1.33-.16s.1-.12.09-.18c-.01-.06-.07-.12-.18-.18a1.64 1.64 0 0 0-.43-.15 4.43 4.43 0 0 0-.58-.09c-.21-.02-.44-.03-.66-.02-.23 0-.45.02-.67.05M35.47 83.03c-.22.03-.4.07-.55.12-.15.05-.26.1-.33.16s-.1.12-.09.19c.02.06.08.13.19.19s.26.11.44.15c.18.04.38.07.6.09.22.02.45.03.68.02.23 0 .46-.02.68-.05.22-.03.41-.07.55-.12.15-.05.26-.1.33-.16s.1-.12.08-.19c-.02-.06-.08-.13-.19-.19s-.26-.11-.44-.15c-.18-.04-.38-.07-.59-.09-.22-.02-.44-.03-.67-.02-.23 0-.46.02-.68.05M39.09 80.05c-.21.03-.39.07-.54.11-.14.05-.25.1-.32.15-.07.06-.1.12-.08.18.02.06.08.12.19.18s.26.11.43.15c.17.04.37.07.58.09.21.02.44.03.66.02.23 0 .45-.02.66-.05.21-.03.39-.07.54-.11.14-.05.25-.1.32-.16s.09-.12.07-.18c-.02-.06-.08-.12-.19-.18s-.26-.11-.43-.14a4.43 4.43 0 0 0-.58-.09c-.21-.02-.43-.03-.66-.02-.22 0-.45.02-.66.05M37.28 81.53c-.22.03-.4.07-.54.12-.15.05-.26.1-.33.16s-.1.12-.08.18c.02.06.08.12.19.18s.26.11.43.15c.17.04.38.07.59.09.21.02.44.03.67.02.23 0 .46-.02.67-.05.22-.03.4-.07.54-.12.15-.05.26-.1.32-.16.07-.06.1-.12.08-.18-.02-.06-.08-.12-.19-.18s-.26-.11-.43-.15c-.17-.04-.37-.07-.59-.09-.21-.02-.44-.03-.66-.02-.23 0-.45.02-.67.05M42.85 82.01c-.21.03-.4.07-.54.12-.14.05-.25.1-.32.16s-.09.12-.07.18c.02.06.08.12.2.18.11.06.26.11.44.15.18.04.38.07.6.09.22.02.44.03.67.02.23 0 .46-.02.67-.05.22-.03.4-.07.54-.12.14-.05.25-.1.32-.16s.09-.12.07-.18c-.02-.06-.09-.12-.2-.18-.11-.06-.27-.11-.44-.15-.18-.04-.38-.07-.59-.09-.21-.02-.44-.03-.67-.02-.23 0-.45.02-.67.05"/><path d="m69.44 93.11-1.39-5.38c-.75-2.89-2.79-5.74-5.3-7.42l-3.24-2.14c-1.44-.97-3.3-1.1-4.87-.33l-7.63 3.73c-2.28 1.11-3.74 3.97-3.04 6.37l2.15 7.41c.36 1.24 1.11 2.5 2.14 3.3l3.7 2.86c2.26 1.75 5.73 2.13 8.28.82l6.32-3.23c2.12-1.09 3.46-3.71 2.87-5.99Z" class="cls-11"/><path d="M58.66 102.61c-.62 0-1.24-.13-1.83-.38-1.23-.54-1.58-1.7-1.93-2.98l-1.29-4.59c-.73-2.6-.04-5.25 2.41-6.47l6.57-3.27c1.03-.51 2.22-.53 3.27-.05 1.02.47 1.77 1.35 2.05 2.43l1.52 5.9c.6 2.32-.49 4.71-2.66 5.82l-6.04 3.09c-.65.33-1.36.5-2.07.5Z" class="cls-1"/><path d="M58.15 97.62c-.22.11-.41.25-.57.42a2.16 2.16 0 0 0-.61 1.21c-.03.22-.02.43.04.64.06.2.15.38.28.51.13.14.29.24.46.3.18.06.37.08.58.07.21-.02.42-.08.64-.19.21-.11.41-.25.57-.42.16-.17.3-.36.41-.57.1-.2.17-.42.2-.64.03-.22.02-.43-.04-.64-.06-.2-.15-.38-.28-.52-.13-.14-.28-.24-.46-.3s-.37-.09-.58-.07c-.21.02-.42.08-.64.19M63.59 86.91c-.21.11-.41.25-.57.42a2.245 2.245 0 0 0-.62 1.22c-.03.22-.02.44.03.65.06.21.15.39.28.53.13.14.28.25.46.31.18.07.37.09.58.07.21-.02.42-.08.63-.19.21-.11.41-.25.57-.42.17-.17.3-.36.41-.57.1-.21.18-.43.21-.64.03-.22.02-.44-.03-.65-.05-.21-.15-.39-.28-.53-.13-.14-.28-.25-.46-.31-.18-.07-.37-.09-.58-.08-.21.02-.42.08-.64.18M60.83 92.29c-.22.11-.41.25-.57.42-.17.17-.3.36-.41.57-.1.21-.17.43-.2.65-.03.22-.02.44.04.64.06.21.15.38.28.52.13.14.28.24.46.31.18.06.37.09.58.07.21-.02.42-.08.64-.19.21-.11.41-.25.57-.42.16-.17.3-.36.41-.57.1-.21.17-.42.21-.64.03-.22.02-.44-.03-.64-.06-.21-.15-.38-.28-.52-.13-.14-.28-.24-.46-.31-.18-.06-.37-.09-.58-.07-.21.02-.42.08-.64.19"/><path d="M53.44 102.15c-.37 0-.74-.12-1.05-.37s-4.04-3.13-4.04-3.13a6.14 6.14 0 0 1-2.15-3.15l-2.28-7.85c-.19-.66.05-1.34.62-1.74.59-.41 1.34-.4 1.91.02l3.61 2.65A8.247 8.247 0 0 1 53.13 93l1.97 7.01c.2.7-.07 1.42-.68 1.83-.3.2-.63.3-.97.3Z" class="cls-11"/><path d="M47.59 95.2c.06.2.14.41.23.62a5.851 5.851 0 0 0 .68 1.12c.12.15.25.28.37.37.12.09.22.14.3.14.08 0 .14-.03.18-.1a.58.58 0 0 0 .05-.32c0-.14-.04-.31-.1-.52-.06-.2-.14-.41-.23-.62-.09-.21-.2-.41-.32-.61-.12-.19-.24-.37-.36-.52-.12-.15-.25-.28-.37-.37-.12-.09-.22-.14-.3-.14-.08 0-.14.03-.18.11a.58.58 0 0 0-.05.32c0 .14.04.31.1.52M51.65 98.3c.06.2.14.41.23.62.09.21.2.42.32.61s.24.37.37.53c.13.16.26.29.38.38.12.09.23.14.31.15.09 0 .15-.03.19-.1.04-.07.06-.18.06-.32s-.03-.32-.09-.52-.14-.42-.23-.63c-.1-.21-.21-.42-.32-.62-.12-.2-.25-.38-.37-.53-.13-.16-.26-.29-.38-.38a.718.718 0 0 0-.31-.15c-.08 0-.15.03-.19.1-.04.07-.06.18-.06.32s.04.32.09.52M45.59 88.29c.06.2.14.42.23.63.09.21.2.42.32.61s.24.37.36.52c.12.15.25.28.37.37.12.09.22.13.3.14a.2.2 0 0 0 .18-.11c.04-.08.06-.19.05-.33 0-.15-.04-.32-.1-.53-.06-.21-.14-.42-.23-.63-.1-.21-.2-.42-.32-.61s-.24-.37-.37-.52c-.13-.15-.25-.28-.37-.37-.12-.09-.22-.13-.3-.13-.08 0-.14.04-.18.12a.66.66 0 0 0-.05.34c0 .15.04.32.1.53M48.62 93.31c.06.2.14.42.23.63.09.21.2.42.32.61s.24.37.37.53c.13.15.25.28.37.37.12.09.22.14.31.14.08 0 .15-.03.19-.1.04-.07.06-.18.05-.33 0-.14-.04-.32-.1-.52-.06-.2-.14-.42-.23-.63-.1-.21-.21-.42-.32-.61-.12-.19-.24-.37-.37-.53-.13-.15-.25-.28-.37-.37-.12-.09-.22-.14-.31-.14-.08 0-.15.03-.19.11a.62.62 0 0 0-.05.33c0 .14.04.32.1.52M49.66 91.31c.06.21.14.42.24.63.1.21.21.42.32.62.12.2.25.38.37.53.13.16.26.28.38.38.12.09.23.14.31.14.09 0 .15-.03.19-.11.04-.08.06-.19.06-.33 0-.15-.04-.33-.1-.53-.06-.21-.14-.42-.24-.64-.1-.21-.21-.43-.33-.62-.12-.2-.25-.38-.38-.53-.13-.16-.26-.28-.38-.38-.12-.09-.23-.14-.31-.14-.08 0-.15.04-.19.11a.66.66 0 0 0-.05.34c0 .15.04.33.1.53"/><path d="M55.75 88.36c-.82.48-2.35 1.16-2.92 1.16-1.55 0-2.47-.8-3.77-1.76l-1.96-1.44c-.84-.62-1.92-1.29-1.82-2.32.09-1.04.71-1.93 1.66-2.39l7.97-3.89a4.4 4.4 0 0 1 4.38.3l4.06 2.73c.79.53 1.23 1.42 1.17 2.36-.03.47-.92 1.45-2 1.86" class="cls-1"/><path d="M52.45 81.94c-.21.1-.39.22-.53.34-.14.12-.24.25-.3.37-.06.13-.08.25-.05.36.03.11.1.22.22.3.12.09.28.15.47.18.18.04.39.05.61.04.22-.01.45-.05.68-.11.23-.06.46-.14.67-.25.21-.11.39-.22.53-.35.14-.12.24-.25.3-.38s.08-.25.05-.36a.504.504 0 0 0-.23-.3c-.12-.09-.28-.15-.47-.18-.18-.04-.39-.05-.61-.03-.22.01-.45.05-.68.11-.23.06-.46.14-.67.25M56.79 79.81c-.21.1-.39.22-.53.34-.14.12-.24.25-.3.37a.57.57 0 0 0-.05.36c.03.11.1.21.23.3.12.09.28.15.47.18.19.04.39.05.62.03.22-.01.45-.05.68-.11.23-.06.46-.14.67-.25.21-.1.39-.22.53-.34.14-.12.24-.25.29-.37a.51.51 0 0 0 .04-.36.582.582 0 0 0-.23-.3c-.12-.08-.29-.14-.47-.18-.18-.03-.39-.05-.61-.03-.22.01-.45.05-.68.11-.23.06-.45.14-.67.24M48.07 84.09c-.21.11-.39.22-.54.35-.14.12-.25.25-.31.38s-.08.25-.06.37c.03.11.1.22.22.31s.28.15.46.19c.18.04.39.05.61.04.22-.01.45-.05.68-.11.23-.06.46-.14.68-.25.22-.11.4-.22.54-.35.14-.12.24-.25.31-.38.06-.13.08-.25.05-.36a.58.58 0 0 0-.22-.31c-.12-.09-.28-.15-.46-.18-.18-.04-.39-.05-.61-.04-.22.01-.45.05-.68.11-.23.06-.46.14-.67.25M55.19 83.86c-.21.11-.39.22-.53.35-.14.12-.24.25-.3.38s-.08.25-.05.37.1.22.23.31c.12.09.29.15.47.19.19.04.4.05.62.04.22-.01.46-.05.69-.11s.46-.14.68-.25c.22-.11.4-.23.54-.35.14-.12.24-.25.3-.38s.07-.25.04-.37a.603.603 0 0 0-.23-.31c-.13-.09-.29-.15-.47-.19-.19-.04-.4-.05-.62-.04-.22.01-.46.05-.69.11-.23.06-.46.14-.67.25M59.56 81.7c-.21.11-.39.22-.53.35-.14.12-.24.25-.3.38s-.07.25-.04.36c.03.11.11.22.23.3.13.09.29.15.48.18.19.04.4.05.62.04.22-.01.46-.05.69-.11.23-.06.46-.14.68-.25.21-.11.39-.22.53-.35a.99.99 0 0 0 .29-.38c.06-.13.07-.25.04-.36a.524.524 0 0 0-.24-.3c-.13-.09-.29-.15-.48-.18-.19-.04-.4-.05-.62-.03-.22.01-.45.05-.68.11-.23.06-.46.14-.67.25M50.78 86.04c-.22.11-.4.23-.54.35-.14.13-.25.26-.31.38-.06.13-.08.25-.05.37s.1.22.22.31.28.15.47.19c.19.04.4.05.62.04.22-.01.46-.05.69-.11s.47-.14.68-.25c.22-.11.4-.23.54-.35.14-.13.25-.26.31-.39s.08-.25.05-.37a.522.522 0 0 0-.23-.31c-.12-.09-.29-.15-.47-.19-.19-.04-.4-.05-.62-.04-.22.01-.46.05-.69.11-.23.06-.46.14-.68.25"/><path d="M94.09 98.43s4.18 2.63 10.24 2.23c6.07-.4 8.71-2.23 8.71-2.23v3s-6.17 3.25-12.78 2.04c-6.61-1.21-6.32-2.5-6.32-2.5l.14-2.54Z" style="fill:#8987f3"/><path d="M99.35 100.66h1.85v2.35h-1.85zM112.96 101.76l-1.85.56v-2.91l1.85-.28v2.63z" class="cls-16"/><path d="M113.05 97.99c0 .56-.68 1.08-1.83 1.5-1.74.63-4.55 1.04-7.72 1.04s-5.98-.41-7.72-1.04c-1.15-.42-1.83-.94-1.83-1.5 0-1.4 4.28-2.53 9.55-2.53s9.55 1.13 9.55 2.53Z" class="cls-10"/><path d="M113.05 97.99v2.98c0 1.4-4.28 2.54-9.55 2.54s-9.55-1.14-9.55-2.54v-2.98c0 .56.68 1.08 1.83 1.5 1.74.63 4.55 1.04 7.72 1.04s5.98-.41 7.72-1.04c1.15-.42 1.83-.94 1.83-1.5Z" class="cls-13"/><path d="M99.34 100.26v2.93M111.19 99.41v2.93M101.46 103.47v-2.93" class="cls-10"/><path d="M92.82 95.84s1.98 2.54 9.68 1.96c7.7-.58 9.53-1.96 9.53-1.96l-.23 3.21s-6.81 2.73-11.85 2c-5.05-.73-7.25-2.39-7.25-2.39l.12-2.82Z" class="cls-17"/><path d="m97.99 97.74 1.95.14v2.99l-1.79-.16-.16-2.97zM107.12 97.49l1.95.14v2.99l-1.79-.16-.16-2.97z" class="cls-16"/><path d="M70.01 96.63v-.11" class="cls-3"/><path d="M111.79 95.43v2.98c0 1.4-4.28 2.54-9.55 2.54s-9.55-1.14-9.55-2.54v-2.98c0 .56.68 1.08 1.83 1.5 1.74.63 4.55 1.04 7.72 1.04s5.98-.41 7.72-1.04c1.15-.42 1.83-.94 1.83-1.5Z" class="cls-13"/><path d="M68.91 94.11V94" class="cls-3"/><path d="M107.38 97.7v2.92M109.1 97.2v2.93M111.79 95.43c0 .56-.68 1.08-1.83 1.5-1.74.63-4.55 1.04-7.72 1.04s-5.98-.41-7.72-1.04c-1.15-.42-1.83-.94-1.83-1.5 0-1.4 4.28-2.53 9.55-2.53s9.55 1.13 9.55 2.53Z" class="cls-5"/><ellipse cx="102.3" cy="95.48" class="cls-16" rx="6.21" ry="1.24"/><path d="M98.08 100.62V97.7M100.2 97.98v2.93" class="cls-5"/><path d="M88.63 110.9s-4.18 2.63-10.24 2.23-8.71-2.23-8.71-2.23v3s6.17 3.25 12.78 2.04c6.61-1.21 6.32-2.5 6.32-2.5l-.14-2.54Z" class="cls-18"/><path d="M83.38 115.47h-1.85v-2.35h1.85zM69.76 114.22l1.86.57v-2.92l-1.86-.28v2.63z" class="cls-16"/><path d="M69.67 110.46c0 .56.68 1.08 1.83 1.5 1.74.63 4.55 1.04 7.72 1.04s5.98-.41 7.72-1.04c1.15-.42 1.83-.94 1.83-1.5 0-1.4-4.28-2.53-9.55-2.53-5.27 0-9.55 1.13-9.55 2.53Z" class="cls-7"/><path d="M69.67 110.46v2.98c0 1.4 4.28 2.54 9.55 2.54s9.55-1.14 9.55-2.54v-2.98c0 .56-.68 1.08-1.83 1.5-1.74.63-4.55 1.04-7.72 1.04s-5.98-.41-7.72-1.04c-1.15-.42-1.83-.94-1.83-1.5Z" class="cls-13"/><path d="M83.39 112.72v2.93M71.54 111.87v2.93M81.26 115.94v-2.93" class="cls-10"/><path d="M118.51 114.7s-4.18 2.63-10.24 2.23c-6.07-.4-8.71-2.23-8.71-2.23v3s6.17 3.25 12.78 2.04c6.61-1.21 6.32-2.5 6.32-2.5l-.14-2.54Z" class="cls-18"/><path d="M113.26 119.27h-1.85v-2.35h1.85zM99.65 118.02l1.85.57v-2.92l-1.85-.28v2.63z" class="cls-16"/><path d="M99.55 114.26c0 .56.68 1.08 1.83 1.5 1.74.63 4.55 1.04 7.72 1.04s5.98-.41 7.72-1.04c1.15-.42 1.83-.94 1.83-1.5 0-1.4-4.28-2.53-9.55-2.53-5.27 0-9.55 1.13-9.55 2.53Z" class="cls-7"/><path d="M99.55 114.26v2.98c0 1.4 4.28 2.54 9.55 2.54s9.55-1.14 9.55-2.54v-2.98c0 .56-.68 1.08-1.83 1.5-1.74.63-4.55 1.04-7.72 1.04s-5.98-.41-7.72-1.04c-1.15-.42-1.83-.94-1.83-1.5Z" class="cls-13"/><path d="M113.27 116.52v2.93M101.42 115.67v2.93M111.14 119.73v-2.92" class="cls-10"/><path d="M120.25 111.55s-4.18 2.63-10.24 2.23-8.71-2.23-8.71-2.23v3s6.17 3.25 12.78 2.04c6.61-1.21 6.32-2.5 6.32-2.5l-.14-2.54Z" style="fill:#87f3b9"/><path d="M118.11 115.56h-1.85v-2.35h1.85zM107.05 116.29l1.85.57v-2.91l-1.85-.28v2.62z" class="cls-16"/><path d="M101.29 111.12c0 .56.68 1.08 1.83 1.5 1.74.63 4.55 1.04 7.72 1.04s5.98-.41 7.72-1.04c1.15-.42 1.83-.94 1.83-1.5 0-1.4-4.28-2.53-9.55-2.53-5.27 0-9.55 1.13-9.55 2.53Z" class="cls-8"/><path d="M101.29 111.12v2.98c0 1.4 4.28 2.54 9.55 2.54 5.27 0 9.55-1.14 9.55-2.54v-2.98c0 .56-.68 1.08-1.83 1.5-1.74.63-4.55 1.04-7.72 1.04s-5.98-.41-7.72-1.04c-1.15-.42-1.83-.94-1.83-1.5Z" class="cls-13"/><path d="M118.12 112.81v2.93M108.82 113.95v2.93M116 116.03v-2.93M106.6 116.37v-2.93" class="cls-10"/><path d="M71.65 107.46s1.98 2.54 9.68 1.96c7.7-.58 9.53-1.96 9.53-1.96l-.23 3.21s-6.81 2.73-11.85 2-7.25-2.39-7.25-2.39l.12-2.82Z" class="cls-17"/><path d="m73.99 109.07 1.95.14v2.99l-1.79-.16-.16-2.97zM83.41 109.39l2.23-.15.29 2.99-2.64.41.12-3.25z" class="cls-16"/><path d="M90.63 107.05v2.98c0 1.4-4.28 2.54-9.55 2.54s-9.55-1.14-9.55-2.54v-2.98c0 .56.68 1.08 1.83 1.5 1.74.63 4.55 1.04 7.72 1.04s5.98-.41 7.72-1.04c1.15-.42 1.83-.94 1.83-1.5Z" class="cls-13"/><path d="M83.38 109.31v2.93M85.39 109.1v2.93M90.63 107.05c0 .56-.68 1.08-1.83 1.5-1.74.63-4.55 1.04-7.72 1.04s-5.98-.41-7.72-1.04c-1.15-.42-1.83-.94-1.83-1.5 0-1.4 4.28-2.53 9.55-2.53s9.55 1.13 9.55 2.53Z" class="cls-5"/><ellipse cx="81.14" cy="107.09" class="cls-16" rx="6.21" ry="1.24"/><path d="M74.08 111.96v-2.93M76.2 109.31v2.93" class="cls-5"/><path d="M99.24 107.39s1.98 2.54 9.68 1.96c7.7-.58 9.53-1.96 9.53-1.96l-.23 3.21s-6.81 2.73-11.85 2c-5.05-.73-7.25-2.39-7.25-2.39l.12-2.82Z" class="cls-17"/><path d="m104.97 109.29 1.96.13v2.99l-1.79-.16-.17-2.96zM113.83 109.04l2.23-.15.28 2.99-2.63.41.12-3.25z" class="cls-16"/><path d="M118.21 106.98v2.98c0 1.4-4.28 2.54-9.55 2.54s-9.55-1.14-9.55-2.54v-2.98c0 .56.68 1.08 1.83 1.5 1.74.63 4.55 1.04 7.72 1.04s5.98-.41 7.72-1.04c1.15-.42 1.83-.94 1.83-1.5Z" class="cls-13"/><path d="M114.08 109.24v2.93M115.81 108.75v2.92M118.21 106.98c0 .56-.68 1.08-1.83 1.5-1.74.63-4.55 1.04-7.72 1.04s-5.98-.41-7.72-1.04c-1.15-.42-1.83-.94-1.83-1.5 0-1.4 4.28-2.53 9.55-2.53s9.55 1.13 9.55 2.53Z" class="cls-5"/><ellipse cx="108.72" cy="107.02" class="cls-16" rx="6.21" ry="1.24"/><path d="M105.06 112.45v-2.92M107.19 109.53v2.92" class="cls-5"/><path d="M3.27 116.64c0-.92 1.63-1.66 3.65-1.66s3.65.74 3.65 1.66-1.63 1.66-3.65 1.66-3.65-.74-3.65-1.66ZM51.11 106.87c0-.92 1.63-1.66 3.65-1.66s3.65.74 3.65 1.66-1.63 1.66-3.65 1.66-3.65-.74-3.65-1.66ZM59.89 114.48c0-.92 1.64-1.66 3.65-1.66s3.65.74 3.65 1.66-1.63 1.66-3.65 1.66-3.65-.74-3.65-1.66ZM12.31 121.63c0-.63 1.22-1.15 2.73-1.15s2.73.51 2.73 1.15-1.22 1.15-2.73 1.15-2.73-.51-2.73-1.15Z" class="cls-6"/><path d="M12.81 108.34s1.19 3.42 3.09 5.67 4.34 3.94 4.34 3.94l9.54-2.43s6.98 3.97 12.67 6.1c5.69 2.13 9.24 3.07 9.24 3.07s3.5-2.01 5.35-3.68c1.85-1.67 2.9-3.64 2.9-3.64s-2.45-1.35-5.36-2.46c-2.91-1.11-6.27-1.96-6.27-1.96l2.04-.81s-2.36-2.67-5-5.07c-3.07-2.77-5.58-4.53-5.58-4.53s-2.85 2.77-9.59 4.22c-6.74 1.45-17.35 1.59-17.35 1.59Z" class="cls-8"/><path d="M20.73 116.18c-.33 0-1.07-.29-3.04-2.23-1.18-1.17-3.12-3.24-2.8-4 .08-.2.28-.32.53-.33 14.57-.43 19.61-2.59 24.06-4.49l.21-.09c.6-.26 1.17.3 2.13 1.22.49.47 1.09 1.06 1.83 1.66.35.29.94.7 1.57 1.13 2.19 1.51 2.73 1.96 2.6 2.43-.03.1-.13.32-.49.37l-1.79.2c-6.7.75-19.16 2.16-24.62 4.09-.04.01-.1.04-.19.04Zm0-.74ZM46.45 113.19c2.77.98 10.67 3.86 11.26 4.49.06.06.19.24.09.5-.34.99-5.71 4.65-6.4 4.75-.05 0-.11.01-.18.01-2.76 0-17.47-6.96-19.14-7.73" class="cls-14"/><path d="M30.63 112.62c-.71 0-1.35-.09-1.85-.28-.78-.3-.9-.74-.91-.97 0-.54.55-1.07 1.56-1.47 1.6-.64 3.81-.77 5.03-.31.78.3.9.74.91.97 0 .54-.55 1.07-1.56 1.47-.96.38-2.13.58-3.19.58ZM41.28 117.55c-.71 0-1.36-.11-1.85-.33-.78-.35-.9-.87-.91-1.14 0-.64.55-1.25 1.56-1.73 1.6-.75 3.81-.91 5.03-.36.78.35.9.87.91 1.14 0 .64-.55 1.25-1.56 1.73-.96.45-2.13.69-3.19.69Z" class="cls-14"/><path d="M12.98 108.85Zm-.02-.46Z" class="cls-13"/><path d="m29.86 115.5 19.15-2.65" style="fill:#6bca86;stroke:#000;stroke-miterlimit:10"/><path d="M-631.7-5192.27h6467.34v6437.3H-631.7z" style="stroke-linecap:round;stroke-linejoin:round;stroke-width:8px;stroke:#fff;fill:none"/></svg>