<svg xmlns="http://www.w3.org/2000/svg" id="Calque_1" data-name="Calque 1" viewBox="0 0 128 128"><defs><style>.cls-4{fill:#afaff9}.cls-10,.cls-11,.cls-12,.cls-4,.cls-5,.cls-8,.cls-9{stroke-linecap:round;stroke-linejoin:round;stroke:#000;stroke-width:2px}.cls-5{fill:#87ccf3}.cls-8{fill:#a07637}.cls-9{fill:#fff}.cls-10{fill:#f3d587}.cls-11{fill:none}.cls-12{fill:#fab0b4}</style></defs><path d="M40.73 48.06H20.8c-.86 0-1.55-.7-1.55-1.55 0-.68.45-1.27 1.07-1.46.15-.06.32-.08.48-.08h16.74l3.19 3.09Z" class="cls-5"/><path d="M37.47 44.97H20.8c-.17 0-.34.03-.48.08v-4.78l1.86-5.93h11.87l1.86 9.05 1.56 1.58Z" class="cls-5"/><path d="M57.89 33.83 56 48.07H40.74l-.01-.01-3.19-3.09-1.64-1.58-1.54-9.1H29.5V30l28.39 3.83z" class="cls-5"/><circle cx="29.5" cy="48.07" r="4.33" class="cls-9"/><circle cx="49.39" cy="48.07" r="4.33" class="cls-9"/><path d="M23.9 36.88h4.68v3.67H23.9z" class="cls-5"/><path d="M93.46 18.7v5.57H57.47V18.7l9.18-2.7 1.94-5.46h18.95l3.1 8.16h2.82z" style="stroke:#000;stroke-width:2px;stroke-linecap:round;stroke-linejoin:round;fill:#ff6d75"/><path d="M57.47 21.75h35.99" class="cls-11"/><circle cx="65.26" cy="24.27" r="4.33" class="cls-9"/><circle cx="83.93" cy="24.27" r="4.33" class="cls-9"/><path d="M12.34 89.19h28v15.16h-28zM15.79 85.2h7.37v3.99h-7.37zM29.53 85.2h7.37v3.99h-7.37z" class="cls-12"/><path d="M40.34 89.19h28v15.16h-28zM43.79 85.2h7.37v3.99h-7.37zM57.53 85.2h7.37v3.99h-7.37z" class="cls-10"/><path d="M12.42 104.35h28v15.16h-28z" style="fill:#b2f0e9;stroke:#000;stroke-width:2px;stroke-linecap:round;stroke-linejoin:round"/><path d="M40.42 104.35h28v15.16h-28z" style="fill:#b4eac3;stroke:#000;stroke-width:2px;stroke-linecap:round;stroke-linejoin:round"/><path d="M47.21 66.98h28v15.16h-28zM50.66 62.99h7.37v3.99h-7.37zM64.39 62.99h7.37v3.99h-7.37z" class="cls-4"/><path d="M105.46 99.79s-1.84 1.97-4.23 2.84c-2.39.86-6.97-.49-9.08.39s-3.87 2.93-5.87 3.94c-2 1.01-3.42 1.46-4.61 1.73.38-.47.56-.98.56-.98l-.56-.05 1.24-.83-.88.06s1.34-.32 4.18-2.22c2.13-1.43 2.31-2.19 4.47-3.16 1.49-.67 4.32-.57 6.17-.3 1.85.27 2.42.45 4.14.1s4.46-1.51 4.46-1.51Z" style="stroke:#ff6d75;stroke-width:.5px;stroke-linecap:round;stroke-linejoin:round;fill:#ff6d75"/><path d="m115.19 39.84-.23 4.53c-.65 13.03-2.56 25.96-5.71 38.62l-1.1 4.4h-.01l-.36 2.45-3.03-.45.37-2.45.23-4.67c.66-13.03 2.58-25.97 5.74-38.63l1.06-4.25 3.04.45Z" class="cls-8"/><path d="m113.974 35.982.436.065c.712.105 1.21.775 1.104 1.488l-.343 2.314-3.027-.448.343-2.315a1.314 1.314 0 0 1 1.487-1.104Z" class="cls-8"/><path d="M104.69 89.39c-1.43 1.29-2.08 3.27-.95 4.96.41.62.93 1.18 1.25 1.86.3.64.35 1.35.28 2.04s-.12 1.17-.43 2c1.87-1.41 3.63-2.83 4.26-5.2.38-1.44-.34-4.08-1.24-5.2-1.67-.25-.86-.12-3.17-.46Z" class="cls-9"/><path d="M104.45 95.32c-.15-.27 0-1.04.1-1.3.03-.08.08-.15.15-.2.14-.09.33-.02.47.07.51.32 1 .88 1.67.62.22-.09.4-.25.6-.39.4-.28.87-.47 1.36-.53a.53.53 0 0 1 .25.01c.33.12.11.76.07 1-.17 1.11-.62 2.18-1.37 3.02-1.54 1.74-2.92 2.61-2.92 2.61s.64-1.92.45-2.86c-.2-.94-.84-2.06-.84-2.06Z" style="fill:#ff6d75"/><path d="M104.69 89.39c-1.43 1.29-2.08 3.27-.95 4.96.41.62.93 1.18 1.25 1.86.3.64.35 1.35.28 2.04s-.12 1.17-.43 2c1.87-1.41 3.63-2.83 4.26-5.2.38-1.44-.34-4.08-1.24-5.2-1.67-.25-.86-.12-3.17-.46Z" class="cls-11"/><text style="font-family:Helvetica,Helvetica;font-size:7px" transform="translate(88.87 124.32)"><tspan x="0" y="0">18-36 mois</tspan></text><path d="M-123.7-953.26h1496.63v1236.8H-123.7z" style="stroke:#fff;stroke-width:8px;fill:none;stroke-linecap:round;stroke-linejoin:round"/></svg>