<svg xmlns="http://www.w3.org/2000/svg" id="Calque_1" data-name="Calque 1" viewBox="0 0 128 128"><defs><style>.cls-10,.cls-2,.cls-5,.cls-6,.cls-7,.cls-8,.cls-9{stroke-linecap:round;stroke-linejoin:round}.cls-13,.cls-5{fill:#ff6d75}.cls-8{stroke:#fab0b4}.cls-2{fill:#afaff9}.cls-10,.cls-2,.cls-5,.cls-6,.cls-7,.cls-9{stroke:#000}.cls-6{fill:#f3d587}.cls-7,.cls-8{fill:none}.cls-9{fill:#fab0b4}.cls-10{stroke-width:.25px}</style></defs><path d="M77.61 39.8a.98.98 0 0 1-.67-.27l-2.98-2.84c-.1.4-.34.81-.67 1.15-.61.64-1.44.99-2.33.99-1.38 0-2.98-.92-3.44-2.96-.04-.2-.05-.41-.02-.61.2-1.33.93-2.34 2.03-2.79l-2.91-2.77a.963.963 0 0 1-.07-1.32l.04-.07 2.74-2.87c-.47-.13-.92-.39-1.3-.76-.67-.64-1.05-1.5-1.06-2.41 0-.88.33-1.71.94-2.33.59-.65 1.46-1.03 2.38-1.03s1.71.34 2.34.95c.37.35.65.78.83 1.25l2.66-2.79.19-.15c.12-.12.35-.22.6-.22s.49.1.67.27l2.93 2.81c.34-1.12 1.32-1.92 2.68-2.19.1-.02.21-.03.32-.03.1 0 .19 0 .28.03 1.44.25 2.54 1.15 2.95 2.4.38 1.16.11 2.41-.72 3.28-.31.33-.68.58-1.09.75l2.95 2.83c.19.18.3.42.3.68 0 .25-.09.49-.26.67l-2.91 3.04s-.09.08-.11.09a.89.89 0 0 1-.63.26.98.98 0 0 1-.94-.75c-.25-.94-1.05-1.64-2.15-1.86h-.11c-.16 0-.33.02-.48.05-.45.12-.86.35-1.17.67-.29.31-.5.73-.61 1.22-.03.19-.04.4-.01.62.26 1.03.99 1.8 1.94 2 .35.08.64.33.74.67.1.33.02.67-.22.92L78.3 39.5c-.18.19-.43.29-.69.29Z" class="cls-13"/><path d="M76.92 18.44c.12 0 .23.04.32.13l3.21 3.07h.03c.19 0 .37-.11.42-.31.27-.94 1.06-1.76 2.38-2.01.07-.01.15-.02.22-.02s.13 0 .2.02c2.72.48 3.42 3.31 1.96 4.84-.31.32-.68.55-1.08.69-.22.07-.31.29-.27.5l3.22 3.09c.19.18.2.47.02.65l-2.92 3.04-.05.04-.02.02c-.09.09-.2.13-.31.13-.2 0-.4-.14-.46-.37-.27-1.03-1.12-1.94-2.53-2.22h-.21c-.2 0-.39.02-.58.06-.6.16-1.07.45-1.42.81-.34.37-.61.85-.74 1.46-.04.26-.05.53-.02.79.34 1.4 1.3 2.21 2.34 2.43.36.08.52.5.27.76l-.02.02-.04.05-2.9 3.05c-.09.09-.2.14-.32.14s-.23-.04-.33-.13l-3.23-3.08h-.07c-.19 0-.36.11-.42.3a2.693 2.693 0 0 1-2.61 1.94c-1.27 0-2.57-.86-2.95-2.57a.992.992 0 0 1-.01-.42c.2-1.34.97-2.16 1.9-2.47.21-.07.31-.27.29-.47l-3.21-3.06a.464.464 0 0 1-.04-.63l.08-.12 2.77-2.89c.16-.24.06-.6-.24-.69-.42-.13-.82-.35-1.16-.68-1.16-1.1-1.21-2.92-.1-4.02.54-.59 1.28-.89 2.02-.89s1.43.27 2 .81c.34.33.59.72.73 1.13.07.19.25.3.43.3.09 0 .19-.03.27-.09l2.76-2.9.12-.09c.09-.08.2-.12.31-.12m0-1c-.35 0-.67.12-.94.34l-.08.06s-.1.08-.14.12l-2.17 2.28c-.17-.27-.38-.53-.61-.75-.73-.7-1.69-1.09-2.69-1.09-1.05 0-2.06.44-2.76 1.21-.68.68-1.07 1.63-1.06 2.65.01 1.05.44 2.03 1.21 2.77.24.23.5.42.78.58l-2.18 2.27s-.08.09-.11.14l-.06.08c-.45.59-.39 1.43.16 1.95l2.41 2.3c-.9.61-1.51 1.62-1.69 2.84-.04.25-.03.52.03.78.52 2.32 2.34 3.35 3.93 3.35 1.03 0 1.99-.41 2.7-1.14.19-.2.35-.41.49-.64l2.46 2.34c.28.26.64.41 1.02.41s.78-.16 1.05-.45l2.9-3.05s.07-.07.09-.11c.33-.39.44-.9.29-1.37-.16-.51-.58-.9-1.11-1.02-.76-.16-1.32-.75-1.56-1.63-.01-.14 0-.29.01-.42.09-.39.26-.72.49-.97.22-.23.54-.4.92-.51.11-.02.23-.03.35-.03h.08c.89.19 1.5.73 1.7 1.48.17.66.75 1.12 1.43 1.12.37 0 .73-.14.99-.4.04-.03.07-.06.11-.1l2.92-3.04c.27-.27.41-.64.4-1.03 0-.39-.17-.76-.46-1.04l-2.45-2.35c.22-.15.43-.32.61-.52.95-1 1.27-2.44.83-3.78-.47-1.43-1.72-2.46-3.34-2.74-.12-.02-.25-.03-.37-.03-.14 0-.28.01-.41.04-1.23.24-2.19.88-2.76 1.81l-2.4-2.3a1.48 1.48 0 0 0-1.02-.41Z"/><path d="M80.98 59.84c-.52 0-.95-.43-.95-.96l-.02-4.12c-.36.21-.82.31-1.3.31-1.19 0-2.29-.67-2.87-1.74-.62-1.16-.51-2.58.29-3.8.11-.17.26-.32.42-.43.68-.48 1.42-.74 2.15-.74.44 0 .87.09 1.27.26l-.02-4.02c0-.52.39-.94.91-.97l.07-.02h3.97c-.23-.43-.35-.95-.35-1.47 0-.91.34-1.77.98-2.41a3.2 3.2 0 0 1 2.29-.96h.13c1.8 0 3.27 1.5 3.27 3.35 0 .52-.11 1.01-.33 1.46l3.86-.02.24.03c.28 0 .6.22.75.55a.5.5 0 0 1 .02.38v4.11a.51.51 0 0 1 .2-.06c.14 0 .29.01.44.03.18-.03.34-.05.48-.05 1.52 0 2.81 1.17 3 2.72.02.13.03.26.03.4 0 .56-.15 1.13-.45 1.69-.07.13-.13.24-.21.36-.1.15-.23.28-.37.38-.63.45-1.3.68-1.99.68-.16 0-.31-.01-.46-.04 0 0-.21.04-.27.04h-.06c-.07 0-.13-.01-.19-.04l-.15-.06v4.15c.03.11.03.29-.02.39a.94.94 0 0 1-.85.55h-4.21l-.14-.01c-.3 0-.6-.18-.76-.47a.995.995 0 0 1 .03-1c.51-.83.46-1.89-.15-2.83-.1-.12-.26-.27-.45-.39-.41-.24-.85-.38-1.29-.38-.43 0-.87.14-1.3.4-.16.11-.32.26-.45.43-.57.91-.62 1.94-.1 2.79.19.31.2.69.03 1-.17.3-.47.48-.81.48l-4.3.03Z" style="fill:#f3d587"/><path d="M87.96 39.3c1.53 0 2.77 1.27 2.77 2.85 0 .47-.11.92-.31 1.31-.14.28.05.6.34.65l4.01-.02.14.03c.17 0 .32.12.39.27-.02.07-.04.14-.04.22v4.58l.26-.05c.06.03.12.04.18.04s.13-.01.19-.05l.08-.03c.14 0 .27.01.42.03h.08c.16-.03.3-.05.44-.05 1.28 0 2.35.99 2.51 2.28.01.11.02.22.02.34 0 .46-.12.96-.39 1.46-.06.11-.11.22-.19.33-.06.09-.14.18-.23.24-.59.42-1.17.59-1.71.59-.14 0-.29-.01-.42-.04h-.08c-.12.02-.21.04-.29.05l-.21-.09a.407.407 0 0 0-.18-.05c-.09 0-.17.03-.24.08l-.2-.04v4.65c0 .06.02.12.03.17-.07.15-.22.26-.4.26h-4.3c-.36 0-.56-.41-.36-.72.56-.9.63-2.15-.15-3.37-.17-.21-.37-.38-.59-.53-.53-.32-1.06-.46-1.57-.47-.5 0-1.04.16-1.56.47-.22.15-.41.33-.58.54-.78 1.22-.69 2.47-.13 3.37.19.31 0 .72-.36.72h-.09l-4.21.03a.46.46 0 0 1-.45-.47l-.02-4.47a.437.437 0 0 0-.36-.19.34.34 0 0 0-.19.05c-.37.2-.8.31-1.25.31-2.12 0-3.68-2.46-2.15-4.76.08-.12.18-.22.29-.3.63-.45 1.27-.64 1.86-.64.44 0 .86.11 1.24.3a.422.422 0 0 0 .54-.12l-.02-4.44c0-.25.19-.45.43-.47l.15-.03h4c.29-.05.47-.38.33-.66-.2-.39-.31-.84-.31-1.31 0-1.58 1.23-2.86 2.77-2.86h.13m0-1h-.13c-1 0-1.93.39-2.64 1.1a3.87 3.87 0 0 0-1.13 2.76c0 .32.04.65.12.96H81.1c-.06 0-.12 0-.19.02l-.1.02c-.74.08-1.3.71-1.29 1.46v3.33c-.24-.05-.5-.08-.76-.08-.84 0-1.68.29-2.44.83-.21.15-.4.34-.54.56-.91 1.38-1.03 2.99-.32 4.31.66 1.23 1.93 2 3.3 2 .27 0 .54-.03.8-.09v3.4c.02.81.67 1.46 1.47 1.46l4.22-.02s.09 0 .14-.01h.01c.51-.03.95-.31 1.18-.74.26-.47.25-1.05-.04-1.51-.41-.66-.38-1.48.1-2.25.09-.11.2-.2.32-.29.35-.2.69-.31 1.04-.31.32 0 .67.11 1.01.31.12.08.22.18.32.29.47.77.52 1.59.11 2.25-.28.46-.3 1.04-.04 1.51.25.44.7.72 1.21.74s.09 0 .14 0h4.21c.56 0 1.06-.32 1.31-.84.1-.2.12-.43.07-.65v-3.52l.17-.03c.15.02.3.03.44.03.81 0 1.57-.26 2.29-.77.19-.13.36-.3.49-.5.09-.14.17-.28.24-.41.34-.63.51-1.28.51-1.93 0-.16-.01-.31-.03-.47-.22-1.8-1.73-3.15-3.5-3.16-.18 0-.35.02-.5.05-.04 0-.09 0-.13-.01v-3.45c.06-.23.04-.48-.06-.7a1.45 1.45 0 0 0-1.16-.84l-.1-.02c-.06-.01-.12-.02-.18-.02h-3.15c.08-.29.12-.62.12-.95 0-2.12-1.69-3.85-3.77-3.85Z"/><path d="M110.3 36.65c-.1 0-.21-.03-.29-.1a.169.169 0 0 0-.1-.03c-.03 0-.1-.01-.13-.02h-4.08a.738.738 0 0 1-.58-.72c0-.04 0-.07.01-.11l.02-.1s.02-.07.04-.1c.19-.4.29-.78.29-1.18 0-.24-.04-.47-.12-.75-.32-1.1-1.28-1.84-2.38-1.84h-.13c-1.11 0-2.06.74-2.38 1.84-.08.28-.12.51-.12.73 0 .41.09.8.27 1.17.02.03.04.1.05.13 0 .04.04.17.04.21 0 .34-.25.65-.58.72-.03 0-.07.01-.1.01h-3.98s-.1.02-.14.02c-.09.07-.23.11-.36.11-.06 0-.12 0-.17-.03-.16-.06-.32-.18-.36-.35l-.03-.12-.03-4.21c-.36.21-.82.31-1.3.31-1.19 0-2.29-.67-2.87-1.74-.62-1.16-.51-2.58.29-3.8.12-.17.26-.32.42-.43.68-.48 1.42-.74 2.15-.74.44 0 .87.09 1.27.27l-.02-4.02c0-.52.4-.94.91-.97l.08-.02h3.97a3.29 3.29 0 0 1-.36-1.47c0-.91.34-1.77.98-2.4.62-.62 1.43-.96 2.29-.96h.13c1.8 0 3.27 1.5 3.27 3.35 0 .51-.11 1.02-.33 1.46l3.86-.02.24.03c.44.01.84.44.84.96v4.05c.37-.2.82-.3 1.29-.3.73 0 1.47.25 2.14.73.16.11.3.26.42.43.81 1.21.93 2.63.31 3.8a3.244 3.244 0 0 1-2.86 1.75c-.45 0-.89-.09-1.3-.27v4.08c0 .11-.02.21-.06.32-.05.15-.17.26-.32.31-.05.01-.1.02-.15.02Z" style="fill:#77eddf"/><path d="M102.94 16.45c1.53 0 2.77 1.27 2.77 2.85 0 .47-.11.92-.31 1.31-.14.28.04.6.33.65l4.01-.02.15.03c.24.01.43.21.43.46v4.44c.09.1.21.16.34.16.07 0 .13-.02.2-.05.38-.2.8-.31 1.25-.31.59 0 1.23.19 1.85.63.11.08.21.18.29.3 1.54 2.29-.01 4.76-2.13 4.77h-.01c-.44 0-.86-.11-1.23-.3a.449.449 0 0 0-.19-.05c-.14 0-.28.08-.36.19v4.47c0 .06 0 .11-.03.16a.66.66 0 0 0-.37-.13s-.1-.03-.16-.03h-3.98c-.1-.01-.18-.12-.18-.22l.02-.1v-.02c.2-.42.32-.89.32-1.38v-.02c0-.32-.06-.61-.14-.88-.37-1.27-1.5-2.21-2.86-2.21h-.13c-1.36 0-2.5.94-2.86 2.21-.08.27-.13.56-.13.87 0 .5.12.97.32 1.39v.02h.01l.02.1c0 .1-.08.2-.18.23h-3.98c-.06 0-.1 0-.15.02-.14 0-.27.05-.37.13l-.03-.13-.02-4.47a.437.437 0 0 0-.36-.19.34.34 0 0 0-.19.05c-.37.2-.8.31-1.25.31-2.12 0-3.68-2.46-2.15-4.76.08-.12.18-.22.29-.3.63-.45 1.27-.64 1.86-.64.45 0 .87.11 1.24.3a.422.422 0 0 0 .54-.12l-.02-4.44c0-.25.19-.45.43-.47l.15-.03H100c.29-.05.47-.38.33-.66-.2-.39-.31-.84-.32-1.31 0-1.58 1.23-2.86 2.77-2.86h.13m0-1h-.13c-1 0-1.93.39-2.64 1.1a3.82 3.82 0 0 0-1.12 2.76c0 .32.04.65.12.96h-3.15c-.06 0-.13 0-.19.02l-.09.02c-.73.08-1.3.7-1.3 1.46v3.34a3.69 3.69 0 0 0-.76-.08c-.84 0-1.68.29-2.44.83-.21.15-.4.34-.54.56-.91 1.38-1.03 2.99-.32 4.31.66 1.23 1.93 2 3.3 2 .27 0 .54-.03.8-.09v3.4c.01.07.02.13.03.19l.03.13c.07.34.3.61.62.74.12.04.24.07.35.07.18 0 .36-.05.52-.14.03 0 .06-.01.09-.02h3.89c.07 0 .14 0 .21-.02.57-.12.98-.63.97-1.21 0-.08-.01-.16-.03-.23l-.02-.1a.492.492 0 0 0-.06-.17c0-.02-.02-.05-.03-.06-.15-.3-.22-.61-.22-.94 0-.18.03-.37.1-.6.26-.88 1.02-1.48 1.9-1.48h.15c.86 0 1.63.6 1.88 1.48.07.23.1.42.1.59 0 .34-.08.65-.22.94 0 .02-.02.04-.03.06 0 .01-.01.03-.02.04a.66.66 0 0 0-.05.15l-.02.1c-.02.07-.03.14-.03.21-.01.57.41 1.1.97 1.22.07.02.14.02.21.02h3.98c.16.1.34.15.52.15.1 0 .19-.01.29-.04.3-.09.54-.32.65-.62.06-.17.09-.33.09-.5v-3.4c.25.06.52.08.78.08 1.4 0 2.66-.78 3.32-2.02.71-1.33.58-2.94-.34-4.31-.15-.22-.34-.42-.55-.56-.76-.53-1.6-.82-2.43-.82-.27 0-.53.03-.79.09v-3.33c0-.76-.57-1.38-1.31-1.46l-.09-.02c-.06-.01-.12-.02-.18-.02h-3.15c.08-.3.12-.62.12-.95 0-2.12-1.69-3.85-3.77-3.85Z"/><path d="m105.64 59.56-.15-.01c-.17 0-.33-.07-.46-.21a.769.769 0 0 1-.21-.52c0-.05 0-.09.02-.14l.04-.14s.03-.09.05-.12c.25-.41.39-.89.39-1.38 0-.57-.18-1.16-.53-1.7-.13-.16-.31-.32-.51-.46-.45-.27-.93-.42-1.42-.42-.48 0-.96.15-1.42.43-.19.13-.37.29-.52.48-.33.52-.51 1.1-.51 1.67 0 .49.13.97.39 1.38.02.04.04.08.05.12l.04.14s.02.09.02.14c0 .18-.07.37-.19.5-.14.15-.32.22-.51.23H95.9a.72.72 0 0 1-.72-.73v-4.1c0-.14.05-.28.16-.38.09-.08.21-.12.33-.12h.07c.07 0 .15.02.23.02.09 0 .17-.02.24-.03 0 0 .09-.02.1-.02H96.46c.12.02.25.03.38.03.55 0 1.09-.18 1.62-.54 0 0 .09-.05.09-.06.06-.04.13-.12.19-.21.2-.3.35-.62.45-.95a3.052 3.052 0 0 0 .12-.81c0-.75-.32-1.46-.87-1.95-.35-.31-.78-.52-1.23-.59a.494.494 0 0 1-.77.01h-.17c-.13-.02-.26-.03-.39-.03-.06 0-.21.01-.22.01-.12 0-.24-.05-.34-.13a.506.506 0 0 1-.16-.37v-4.04c0-.38.27-.69.64-.73.03 0 .17-.03.21-.03h4.03s.07-.09.08-.16v-.06c-.25-.5-.36-.97-.36-1.46 0-.28.04-.56.14-.89.39-1.34 1.55-2.24 2.9-2.24h.13c.62 0 1.22.2 1.74.57.56.41.97 1 1.16 1.67.05.16.08.32.1.49.02.12.03.26.03.39 0 .5-.11.96-.33 1.41 0 .01 0 .03-.02.04 0 .16.04.24.14.26h4.06c.01 0 .06.01.09.02.38.05.65.35.65.72v4.32s.04.02.06.02c.5-.24.96-.35 1.44-.35.69 0 1.37.23 2.02.69.14.1.27.23.36.37.44.65.66 1.35.66 2.06 0 1.72-1.36 3.12-3.03 3.12-.49 0-.95-.11-1.38-.34h-.04c-.05 0-.09.01-.11.02v4.35c0 .4-.33.73-.73.73h-4.19Z" style="fill:#b4eac3"/><path d="M102.94 39.49c.54 0 1.03.18 1.44.48.46.34.81.82.98 1.4.04.14.07.28.09.42.02.11.03.21.03.32 0 .44-.1.84-.28 1.2s0 .02 0 .02v.01c-.04.09-.07.19-.07.28v.05c.04.31.26.57.57.62h4.08l.04.01h.03l.04.01c.11 0 .21.1.21.24v4.52l.04.06c.13.15.31.25.52.25.1 0 .21-.02.3-.08.34-.18.73-.28 1.14-.28.54 0 1.13.18 1.73.6.09.06.17.15.23.24.41.61.58 1.22.58 1.78 0 1.45-1.14 2.62-2.53 2.62-.41 0-.8-.1-1.14-.28a.63.63 0 0 0-.3-.07c-.22 0-.42.12-.55.29l-.04.06v4.54c0 .14-.11.24-.23.24h-4.19l-.07-.02h-.04c-.07 0-.11-.02-.15-.06a.227.227 0 0 1-.06-.16l.04-.14c.29-.47.46-1.04.46-1.64 0-.63-.19-1.31-.61-1.97s0-.02 0-.02c-.18-.22-.4-.42-.63-.58-.56-.34-1.14-.5-1.68-.51-.54 0-1.12.17-1.68.51-.24.16-.45.36-.63.58s0 .02 0 .02c-.42.66-.61 1.33-.61 1.97 0 .6.17 1.17.46 1.64l.04.14c0 .06-.02.12-.06.16-.04.04-.08.06-.15.06H95.98c-.12 0-.22-.09-.22-.23v-4.1c.09.01.19.02.29.02.17 0 .31-.04.42-.06.15.02.3.04.45.04.61 0 1.27-.19 1.9-.63l.07-.04c.13-.1.25-.22.35-.36a3.825 3.825 0 0 0 .59-1.43c.04-.21.06-.41.06-.61 0-.93-.4-1.76-1.03-2.32-.52-.47-1.21-.75-1.96-.76v.22-.22c-.18 0-.34.03-.49.06-.15-.02-.3-.03-.45-.03-.07 0-.15 0-.22.01v-4.04c0-.13.08-.22.19-.23H96l.07-.03h4.05a.7.7 0 0 0 .56-.62v-.06a.524.524 0 0 0-.06-.29v-.02h-.01a2.64 2.64 0 0 1-.28-1.19c0-.26.05-.5.12-.75.31-1.09 1.28-1.88 2.42-1.88h.13m0-1h-.11c-1.59 0-2.95 1.04-3.4 2.6-.11.37-.16.7-.16 1.02 0 .41.07.82.2 1.2h-3.45c-.07 0-.13 0-.2.02h-.07s-.03.02-.04.02c-.6.09-1.04.61-1.04 1.22v4.04a1 1 0 0 0 .33.74c.18.17.42.26.67.26h.22c.1 0 .21.01.33.03h.06c.16.11.35.17.55.17.19 0 .37-.05.52-.15.28.08.54.23.77.43.45.4.7.97.7 1.58 0 .12-.02.26-.05.42-.02.08-.03.17-.06.25-.08.28-.21.55-.38.81-.02.03-.05.06-.08.09l-.03.02c-.49.33-.94.48-1.38.48-.1 0-.2-.01-.3-.03-.05 0-.1-.01-.15-.01-.06 0-.11 0-.17.01l-.12.02s-.09.02-.15.02c-.05 0-.11 0-.16-.01h-.13a1.004 1.004 0 0 0-1 1v4.1c0 .68.56 1.23 1.23 1.23h4.2s.1-.01.14-.02c.32-.01.61-.14.83-.37.23-.25.34-.55.34-.86 0-.09-.01-.18-.04-.27l-.04-.14c-.03-.09-.06-.17-.11-.25-.21-.33-.31-.72-.31-1.12 0-.46.15-.94.42-1.39.11-.13.24-.25.38-.34.38-.23.77-.34 1.16-.35.36 0 .75.12 1.13.35.15.1.27.22.39.35.28.45.43.93.43 1.39 0 .4-.11.78-.31 1.12-.05.08-.09.16-.11.25l-.04.14c-.02.09-.04.18-.04.27 0 .31.11.6.31.83.01.01.02.03.04.04.22.23.51.35.83.36.05 0 .09.01.14.01h4.19c.68 0 1.22-.55 1.22-1.23v-3.69c.34.1.68.16 1.03.16 1.95 0 3.54-1.63 3.54-3.62 0-.8-.26-1.61-.75-2.34a1.79 1.79 0 0 0-.49-.5c-.72-.51-1.52-.78-2.3-.78-.35 0-.68.05-1.01.15v-3.63c0-.63-.46-1.15-1.06-1.23 0 0-.05-.01-.06-.01-.06-.01-.15-.02-.22-.02h-3.46a3.46 3.46 0 0 0 .16-1.67c-.03-.19-.07-.37-.12-.55-.22-.77-.7-1.45-1.35-1.93-.6-.44-1.3-.67-2.03-.67Z"/><path d="m44.4 34.93-9.43 7.93v.2l.14 3.94c.03.75.06 1.55.09 2.35l.17 4.96 2.03 6.91 1.32 5.51.41 3.32.55 3.38 1.65 6.26.97 4.41 1.48 4.81c.03.08.04.13.04.13h.04l3.78 1.28.85.29.46 1.21s.02.02.02.03l1.68 4.4-2.34 1.1-.94-.4-2.91-1.07-3.93-1.39-1.28-1.21-3.88-6.36-4.83-11.28-.22-3.35-1.44.84-.42 10.91-.98 5.83-.53 4.45 1.51 5.84-.48 9.38-.06 3.68-2.09-.16-1.02-1.53-1.19-.35-.37-1.81-.97-4.68-1.07-5.33-1.12-2.89-.35-3.34-.37-5.56-.06-6.08.2-6.37.93-7.09-.36-10.51-1.26-9.57-2.36-12.85-.77-4.25-.57-6.65.31-5.89 1.23-.35.88-.1.64 6.17 1.76 7.79 2.59 4.58.45 2.34.49 2.28.22.35v.03l.49.78v.02l.49.8 1.52.46 1.07.32.54.16 1.78-.88.86-2.29.03-.06.54-1.44s.01-.03.01-.04l.33-.87 6.96-4.87 7.56-5.97 4.11-3.36 2.04 1.93-.45.54-7.19 8.29Z" style="fill:#fab0b4"/><path d="M30.19 73.14c.15 1.98 2.81 9.22 3.73 11.35.67 1.54 4.73 8.88 6.21 9.98 1.48 1.1 3.43 1.48 4.74 1.69.81.13 2.37.91 3.44 1.48M50.84 97.21l.26-.2s-.01-.02-.02-.05" class="cls-7"/><path d="m41.73 69.44-2.39.56c-.21-1.89-.5-4.08-1.1-6.35-.75-2.86-2.37-7.49-2.67-8.99-.13-.65-.26-2.94-.37-5.31-.03-.8-.06-1.6-.09-2.35l-.13-3.94c.05-.05.18-.16.39-.33l1.02 4.3 5.34 22.41Z" style="stroke:#000;stroke-linecap:round;stroke-linejoin:round"/><path d="M53.26 24.92S45 34.9 42.75 36.7c-.19.15-.41.32-.64.51-.26.21-.55.45-.85.69l-1.89 1.54c-.32.27-.64.53-.96.79-.16.14-.32.26-.47.39-.16.13-.31.26-.46.38-.45.36-.86.7-1.22 1h-.01c-.18.16-.34.29-.49.41s-.28.23-.39.32M34.98 43.06h-.01s.05 1.77.14 3.94M39.34 70c.05.5.1.97.14 1.42.2 2.18 2.65 9.6 2.79 10.96.12 1.23 1.3 5.7 1.51 6.53.03.08.04.13.04.13s.01 0 .04.01c.31.05 2.44.43 3.78 1.28.28.17.51.37.7.58.2.23.41.55.61.92.01.01.02.02.02.03.93 1.67 1.89 4.43 2.09 5.03M29.6 38.89s.74.11 1.77-.69c1.02-.8 12.25-8.26 13.96-10.2 1.71-1.94 6.1-5.19 6.1-5.19M26.54 72.24s1.36.59 2.48.53c1.12-.06 3.01-.94 3.01-.94M23.75 37.03c-1.63.31-3.67-4.92-4.65-8.34-.79-2.78-1.25-11.96-1.31-13.36v-.18M23.62 111.19c-.91-4.39-2.35-11.4-2.41-11.82-.09-.61-1.31-2.87-1.31-3.74s-.95-11.3-.69-16.35c.07-1.31.18-2.73.3-4.15.36-4.02.85-7.99.92-9.34.08-1.82-.44-12.25-1.27-16.17-.61-2.92-1.25-6.61-1.72-9.13-.16-.86-.3-1.58-.41-2.09-.43-2-1.74-8-1.91-10.61s-.17-7.82 0-9.82c.17-2.01-.09-2.23-.09-2.23" class="cls-7"/><path d="M27.98 112.07c.16-3.6.42-9.79.36-11.13-.09-1.92-1.3-5.31-1.39-6.61-.09-1.31.87-6.44 1.3-8.87.44-2.44.76-12.69.76-12.69M31.59 35.29s-1.01 1.6-1.99 2.46-2.49 1.53-3.53 1.37-2.29-1.86-2.95-3.17-.71-2.89-.71-2.89M29.02 40.69v-2.21M27.93 29.88s-.62 1.13-.58 1.53.62.69.66.94-.39.59-.66.59M28.01 24.53s.53.78.53 1.78-.16 2.19.85 2.54 1.6 0 1.6 0-.34.97 0 1.47 1.25.62 1.25.62" class="cls-7"/><path d="M28.01 24.97s-2.22.34-2.35 1.35-.44 2.16-1.22 2.6c-.78.44-2.63 2.03-2.63 2.03-.41.05-.92.82-.89 1.5.04.89 1.12 1.47 1.12 1.47M25.1 34.06s.49 1.32 1.61 1.52 2 0 2.45-.63" class="cls-7"/><circle cx="25.56" cy="30.34" r=".46" class="cls-10"/><circle cx="30" cy="31.25" r=".46" class="cls-10"/><path d="M24.21 27.88s.51-.18 1.11-.14 1.23.62 1.23.62M55.27 21.64c0-.69-.35-1.44-.35-1.78" class="cls-7"/><path d="M51.43 22.81s1.85-1.74 2.05-2.26c.2-.52.43-3.2.43-3.6s.75-.49.84 0c.08.49.17 2.56.17 2.91 0 0 3.23-3.02 3.84-3.04.61-.02-.15 1.2-.15 1.2l-2.14 1.92c.31-.21 3.01-2.02 3.37-1.71.38.34-.19.95-.19.95l-2.89 1.72c.28-.1 2.52-.91 2.89-1.09.4-.19.69.28.5.55s-3.03 1.83-2.74 2.11c.3.27 1.29.08 2.07.52.78.45-.49.72-.49.72l-2.88-.1s-.49.27-.93.61c-.44.33-1.92.7-1.92.7M56.47 19.94l-.03.02M56.76 20.9h-.03M15.03 15.74s-.84-1.27-.94-1.82c-.09-.54-.26-1.07-.26-1.07l-2.19-1.89s-.75-1.05.13-.85c.87.2 1.47 1.02 1.87 1.01.4 0-.63-3.07-.58-3.4.04-.33.58-.47.74-.06.16.38 1.25 2.49 1.39 2.75l-.96-3.22s0-.83.5-.82c.51.01 1.32 3.57 1.32 3.57l-.28-2.9s.28-1.41.71-.98c.44.43.76 4.84.76 4.84.24-.26 1.71-1.72 2.1-2.02.4-.3.89.27.62.57-.28.29-1.92 2.42-2.13 2.93-.16.41-.08 2.1-.05 2.77" class="cls-7"/><path d="M17.24 10.9c-.23.25-.99.57-1.46 1.08M17.78 15.15v.18c.01.06.01.1.01.1M15.2 10.44l-.01-.03M55.93 107.86c-1.65.55-2.8-2.05-3.06-2.55-.25-.5-2.8-4.26-3.15-4.61-.35-.35-1.61-.95-2.22-1.3-.6-.35 0-1.12 0-1.12s.36-.3.81-.64c.61-.46 1.38-1.02 1.63-1.06.19-.03.54.27.9.63.48.48.99 1.09 1.19 1.24.11.08.33.41.58.81.42.68.92 1.6 1.09 1.91l-.44-.9s-1.23-2.09-1.25-2.1c-.03-.01-.57-.7-.63-.79-.07-.09-.28-.37-.28-.37l-.02-.05-.02-.07-.64-2.26s2.05-.3 2.84 0c.78.31 1.22.91 1.22 1.51s.1 1.8.8 2.7c.7.91 1.4 1.61 2.3 4.31.91 2.71 0 4.16-1.65 4.71ZM29.78 118.22c-.47.31-1.73 1.16-2.1 1.56-.38.41-1.36 2.14-2.52 2.92-1.15.79-3.32.48-4.92 0-1.59-.47-.61-2.24-.24-2.47.38-.24 2.24-2.14 2.75-2.75.51-.62.65-3.3.34-3.74-.3-.44-1.08-2.78-.61-2.75.2.01.65.09 1.14.2.71.16 1.48.39 1.58.61.17.38.51 1.67.51 1.67l2.21-.24.03-.58c0-.18.01-.38.03-.58l1.03.07s.16 1.02.3 1.53c.13.51.68.89 1.32 2.24.65 1.36-.37 2.01-.85 2.31Z" class="cls-7"/><path d="M27.98 112.07c-.02.2-.03.4-.03.58l.02-.58h.01Z" class="cls-7"/><path d="M54.23 60.21c-.22 2.17-.75 4.21-1.54 6.06-1.88 4.41-5.26 7.68-9.64 8.72l-1.32-5.55-5.34-22.41-1.02-4.3c.11-.09.24-.2.39-.32.15-.12.31-.25.49-.41h0c.36-.3.77-.64 1.22-1 .15-.12.3-.25.46-.38.15-.13.31-.25.47-.39.32-.26.64-.52.96-.79l1.89-1.54c.3-.24.59-.48.85-.69a15.7 15.7 0 0 1 3.33 1.92c1.68 1.22 3.21 2.79 4.52 4.63 1.67 2.37 2.96 5.2 3.71 8.33.66 2.78.83 5.54.56 8.12ZM20.43 65.79c-.07 1.35-.56 5.32-.92 9.34-2.04-.91-3.82-2.35-5.28-4.17-1.11-1.39-2.03-3-2.73-4.78-1.38-3.52-1.89-7.67-1.25-11.99.32-2.13.89-4.15 1.68-6 .84-1.99 1.93-3.79 3.21-5.33.71-.87 1.48-1.67 2.3-2.37.47 2.52 1.11 6.21 1.72 9.13.83 3.92 1.35 14.35 1.27 16.17Z" class="cls-5"/><path d="m39.34 70-.21.05" style="stroke-miterlimit:10;fill:none;stroke:#000"/><path d="M22.98 36.81s-.02 4.6 1.48 5.61 2.91 1.91 4.29 1.02 2.62-5.24 2.62-5.24M33.19 32.69s2.55-6.6-3.07-8.75c-6.71-2.57-8.22 6.46-8.22 6.46s-.03-3.03.03-3.8.77-2.18.47-2.18-1.53-.66-1.53-.66 1.87-1.15 2-1.37 1.62-.98 2.48-1.21 2.42.37 2.42.37 3.91-1.49 5.82.76c1.14 1.33 1.19 1.25 1.6 1.44s.85.28.85.28-.19.59-.47.72-.28 2.68-.18 3.33c.09.58.96 1.77 1.25 2.16-.02.49-.89.61-1.49 0-1.09 1.1-1.96 2.44-1.96 2.44.33.25.35 1.18-.03 1.75-.5.74-1.73.67-1.73.67" class="cls-7"/><path d="M25.39 24.21s-2.01-3.25-2.08-5.44c-.07-2.19 1.04-5.68 1.04-5.68" class="cls-7"/><circle cx="24.77" cy="11.61" r="1.47" class="cls-5"/><path d="M33.34 25.72s3.05-2.31 3.91-4.33c.85-2.02 1.08-5.67 1.08-5.67" class="cls-7"/><circle cx="38.46" cy="14.19" r="1.47" class="cls-5"/><ellipse cx="28.46" cy="57.32" rx="5.39" ry="11.65" style="stroke:#fab0b4;fill:#ff6d75;stroke-linecap:round;stroke-linejoin:round" transform="rotate(-5.45 28.435 57.367)"/><path d="m50.2 23.75 2.08 2.35M15.12 17.97l2.68-.4" class="cls-7"/><path d="M23.62 50.32s1.4 1.17 3.88.96 4.52-1.48 4.52-1.48M23.09 54.56s1.63 1.17 4.52.96c2.89-.2 5.27-1.48 5.27-1.48M23.58 58.79s1.63 1.17 4.52.96c2.89-.2 5.27-1.48 5.27-1.48M24.43 63.49s1.49 1.17 4.13.96 4.81-1.48 4.81-1.48" class="cls-8"/><path d="M49.96 43.76a3.286 3.286 0 0 1-3.95.96 3.274 3.274 0 0 1-1.59-4.34c.24-.52.59-.94 1.02-1.25 1.68 1.22 3.21 2.79 4.52 4.63ZM15.65 46.39a3.25 3.25 0 0 1-3.72 1.8c.84-1.99 1.93-3.79 3.21-5.33.83.95 1.07 2.32.51 3.53ZM41.43 40.95a3.286 3.286 0 0 1-2.49 1.87c-.61.09-1.25.01-1.85-.27-.31-.14-.59-.33-.83-.55.36-.3.77-.64 1.22-1 .15-.12.3-.25.46-.38.15-.13.31-.25.47-.39.32-.26.64-.52.96-.79l1.89-1.54c.54.9.64 2.03.17 3.05Z"/><circle cx="45.81" cy="54.79" r="3.27"/><circle cx="14.99" cy="57.32" r="3.27"/><path d="M14.31 70.81c-.02.05-.05.1-.08.15-1.11-1.39-2.03-3-2.73-4.78.41.01.82.1 1.21.29a3.27 3.27 0 0 1 1.6 4.34ZM54.23 60.21c-.22 2.17-.75 4.21-1.54 6.06-1.43-.83-2.01-2.64-1.3-4.18a3.239 3.239 0 0 1 2.84-1.88Z"/><ellipse cx="24.34" cy="32.04" class="cls-13" rx=".94" ry="1.27" transform="rotate(-65.82 24.334 32.048)"/><ellipse cx="30.38" cy="33.25" class="cls-13" rx=".94" ry="1.27" transform="rotate(-87.64 30.379 33.246)"/><path d="M69.27 91.55h19.97v10.81H69.27zM71.73 88.7h5.26v2.85h-5.26zM81.53 88.7h5.26v2.85h-5.26z" class="cls-9"/><path d="M89.24 91.55h19.97v10.81H89.24zM91.7 88.7h5.26v2.85H91.7zM101.5 88.7h5.26v2.85h-5.26z" class="cls-6"/><path d="M69.32 102.36h19.97v10.81H69.32z" style="fill:#b2f0e9;stroke:#000;stroke-linecap:round;stroke-linejoin:round"/><path d="M89.3 102.36h19.97v10.81H89.3z" style="fill:#b4eac3;stroke:#000;stroke-linecap:round;stroke-linejoin:round"/><path d="M94.14 75.71h19.97v10.81H94.14zM96.6 72.86h5.26v2.85H96.6zM106.39 72.86h5.26v2.85h-5.26z" class="cls-2"/><text style="font-family:Helvetica,Helvetica;font-size:7px" transform="translate(100.11 124.32)"><tspan x="0" y="0">3 + ans</tspan></text><path d="M-284.9-953.26h1496.63v1236.8H-284.9z" style="stroke:#fff;stroke-width:8px;fill:none;stroke-linecap:round;stroke-linejoin:round"/></svg>