<svg xmlns="http://www.w3.org/2000/svg" id="Calque_1" data-name="Calque 1" viewBox="0 0 128 128"><defs><style>.cls-1,.cls-10,.cls-12,.cls-2,.cls-5,.cls-6,.cls-7,.cls-8{stroke:#000}.cls-1,.cls-10,.cls-12,.cls-2{stroke-linecap:round;stroke-linejoin:round}.cls-1,.cls-7{fill:#baa584}.cls-2{fill:#a07637}.cls-14{fill:#87f3b9}.cls-10,.cls-12,.cls-5,.cls-6,.cls-7,.cls-8{stroke-width:2px}.cls-5,.cls-6,.cls-7,.cls-8{stroke-miterlimit:10}.cls-12,.cls-5{fill:#f3d587}.cls-6{fill:#fee4cb}.cls-8{fill:#b4eac3}.cls-10{fill:#fff}</style></defs><path d="M34.28 57.3c-1.65.37-4.89-.33-5.26-1.98l-1.38-13.69c-.37-1.65.68-3.3 2.33-3.67 1.65-.37 3.3.68 3.67 2.33l4.55 12.98c.37 1.65-2.27 3.65-3.92 4.02Z" class="cls-7"/><circle cx="24.99" cy="15.55" r="3.27" class="cls-5" transform="rotate(-79.62 24.99 15.551)"/><circle cx="14.92" cy="31.39" r="3.27" class="cls-5" transform="rotate(-79.4 14.925 31.395)"/><circle cx="40.83" cy="25.63" r="3.27" class="cls-5" transform="rotate(-79.4 40.833 25.629)"/><circle cx="20.75" cy="39.71" r="3.27" class="cls-5" transform="rotate(-.77 20.57 39.577)"/><circle cx="34.99" cy="17.31" r="3.27" class="cls-5" transform="rotate(-.77 34.857 17.35)"/><circle cx="39.07" cy="35.63" r="3.27" class="cls-5" transform="rotate(-55.54 39.069 35.624)"/><circle cx="16.68" cy="21.39" r="3.27" class="cls-5" transform="rotate(-55.54 16.673 21.38)"/><path d="M24.99 15.55c-7.15 1.59-11.66 8.68-10.07 15.84s8.69 11.66 15.84 10.07c7.16-1.59 11.66-8.69 10.07-15.84s-8.68-11.67-15.84-10.07Zm3.89 17.47c-2.45.55-4.89-1-5.44-3.46-.55-2.46 1-4.89 3.46-5.44 2.46-.55 4.89 1 5.44 3.46.55 2.45-1 4.89-3.46 5.44Z" style="fill:#fab0b4;stroke-miterlimit:10;stroke-width:2px;stroke:#000"/><path d="M63.02 55.8c-1.66-.31-4.37-2.22-4.06-3.88l4.1-13.13a3.086 3.086 0 0 1 3.59-2.46c1.66.31 2.77 1.92 2.46 3.59l-.91 13.73c-.31 1.66-3.52 2.47-5.18 2.16Z" class="cls-7"/><circle cx="70.87" cy="13.77" r="3.27" class="cls-5" transform="rotate(-25.28 70.887 13.766)"/><circle cx="55.39" cy="24.38" r="3.27" class="cls-5" transform="rotate(-26.09 55.402 24.388)"/><circle cx="81.48" cy="29.25" r="3.27" class="cls-5" transform="rotate(-26.09 81.494 29.25)"/><circle cx="57.49" cy="34.31" r="3.27" class="cls-5" transform="rotate(-73.24 57.494 34.313)"/><circle cx="79.38" cy="19.31" r="3.27" class="cls-5" transform="rotate(-73.24 79.385 19.303)"/><circle cx="75.94" cy="37.76" r="3.27" class="cls-5" transform="rotate(-26.45 75.924 37.757)"/><circle cx="60.93" cy="15.86" r="3.27" class="cls-5" transform="rotate(-26.45 60.93 15.868)"/><circle cx="68.43" cy="26.81" r="13.27" class="cls-8" transform="rotate(-69.52 68.433 26.814)"/><path d="m71.15 21.05.55 1.97c.16.57.59 1.02 1.15 1.22l1.94.66c1.41.48 1.66 2.37.42 3.2l-1.7 1.14c-.49.33-.79.88-.8 1.47l-.03 2.05c-.02 1.49-1.74 2.31-2.91 1.38l-1.61-1.27c-.46-.37-1.08-.48-1.64-.31l-1.96.6c-1.42.44-2.73-.94-2.22-2.34l.71-1.92c.21-.55.12-1.18-.22-1.66l-1.18-1.68c-.86-1.22.05-2.89 1.54-2.83l2.05.08c.59.02 1.16-.24 1.51-.72l1.23-1.64c.89-1.19 2.77-.84 3.17.59Z" class="cls-12"/><rect width="21.82" height="21.82" x="74.03" y="54.62" class="cls-6" rx="3.41" ry="3.41"/><circle cx="84.94" cy="65.53" r="4.96" class="cls-8"/><rect width="21.82" height="21.82" x="99.88" y="58.1" class="cls-6" rx="3.41" ry="3.41"/><path d="m112.09 63.79.81 1.65c.21.43.62.72 1.09.79l1.82.26c1.19.17 1.66 1.63.8 2.47l-1.32 1.29c-.34.33-.5.81-.42 1.28l.31 1.81c.2 1.18-1.04 2.08-2.1 1.52l-1.63-.86c-.42-.22-.92-.22-1.35 0l-1.63.86c-1.06.56-2.3-.34-2.1-1.52l.31-1.81c.08-.47-.08-.95-.42-1.28l-1.32-1.29c-.86-.84-.38-2.29.8-2.47l1.82-.26c.47-.07.88-.36 1.09-.79l.81-1.65c.53-1.07 2.06-1.07 2.59 0Z" class="cls-12"/><rect width="21.82" height="21.82" x="99.88" y="79.92" class="cls-6" rx="3.41" ry="3.41"/><path d="M106.92 86.96h7.74v7.74h-7.74z" style="stroke-width:2px;fill:#ff6d75;stroke-linecap:round;stroke-linejoin:round;stroke:#000"/><rect width="21.82" height="21.82" x="77.44" y="79.92" class="cls-6" rx="3.41" ry="3.41"/><path d="M84.47 86.96h7.74v7.75h-7.74z" style="stroke-width:2px;fill:#afaff9;stroke-linecap:round;stroke-linejoin:round;stroke:#000" transform="rotate(-45.01 88.34 90.826)"/><path d="M44.01 116.47c-.14 0-.29-.03-.42-.09a.999.999 0 0 1-.55-.67l-8.77-36.15c-.11-.45.11-.92.52-1.13 9.07-4.6 19.24-7.07 29.41-7.14.46 0 .86.32.97.76l8.77 36.15c.07.3 0 .61-.18.85a1 1 0 0 1-.78.38c-9.86.07-19.73 2.46-28.52 6.92-.14.07-.3.11-.45.11Z" class="cls-14"/><path d="m64.21 72.3 8.77 36.15a65.279 65.279 0 0 0-28.97 7.03l-8.77-36.15a65.246 65.246 0 0 1 28.97-7.03m0-2h-.01a67.397 67.397 0 0 0-29.86 7.25c-.83.42-1.26 1.35-1.04 2.26l8.77 36.15c.14.59.55 1.09 1.11 1.34.27.12.55.18.84.18.31 0 .62-.07.9-.22A63.43 63.43 0 0 1 73 110.45c.61 0 1.19-.29 1.56-.77s.51-1.11.37-1.7l-8.77-36.15c-.22-.9-1.02-1.53-1.94-1.53Z"/><path d="M15.05 123.5c-.14 0-.29-.03-.42-.09a.999.999 0 0 1-.55-.67L5.31 86.59c-.11-.45.11-.92.52-1.13 9.07-4.6 19.24-7.07 29.41-7.14.46 0 .86.32.97.76l8.77 36.15c.07.3 0 .61-.18.85a1 1 0 0 1-.78.38c-9.86.07-19.72 2.46-28.52 6.92-.14.07-.3.11-.45.11Z" class="cls-14"/><path d="m35.24 79.33 8.77 36.15a65.279 65.279 0 0 0-28.97 7.03L6.27 86.36a65.246 65.246 0 0 1 28.97-7.03m0-2h-.01a67.397 67.397 0 0 0-29.86 7.25c-.83.42-1.26 1.35-1.04 2.26l8.77 36.15c.14.59.55 1.09 1.11 1.34.27.12.55.18.84.18.31 0 .62-.07.9-.22a63.43 63.43 0 0 1 28.08-6.81c.61 0 1.19-.29 1.56-.77s.51-1.11.37-1.7l-8.77-36.15c-.22-.9-1.02-1.53-1.94-1.53Z"/><path d="M69.81 106.32h0a54.6 54.6 0 0 0-26.46 6.42h0l-8.77-36.15h0a54.6 54.6 0 0 1 26.46-6.42h0l8.77 36.15Z" class="cls-10"/><path d="M43.35 112.74h0a54.6 54.6 0 0 0-26.46 6.42h0L8.12 83.01h0a54.6 54.6 0 0 1 26.46-6.42h0l8.77 36.15Z" class="cls-10"/><circle cx="45.26" cy="85.05" r="1.7" class="cls-2" transform="rotate(-54.16 45.267 85.057)"/><circle cx="54.17" cy="82.23" r="1.7" class="cls-2" transform="rotate(-54.16 54.173 82.234)"/><path d="M48.38 90.37s-3.85 2.91-3.38 4.8c.46 1.89 1.2 1.93 1.2 1.93l2.78-.88-.59-5.84ZM54.82 88.33s4.82.16 5.53 1.97.13 2.26.13 2.26l-2.78.88-2.88-5.12ZM49.81 101.8l2.74-2.09-2.96-1.53.22 3.62zM60.48 98.42l-3.44-.13 1.54-2.96 1.9 3.09z" class="cls-1"/><path d="M58.94 92.74c-.99-3.12-4.6-5.73-7.73-4.74-3.12.99-4.58 5.2-3.59 8.32.99 3.12 4.05 3.98 7.17 2.99 3.12-.99 5.13-3.45 4.14-6.58Z" class="cls-1"/><path d="M56.59 93.11c-.6-1.88-2.78-3.45-4.66-2.86-1.88.6-2.76 3.14-2.16 5.02.6 1.88 2.44 2.4 4.33 1.81s3.1-2.08 2.5-3.97Z" class="cls-2"/><rect width="3.62" height="5.83" x="46.39" y="96.45" class="cls-1" rx="1.27" ry="1.27" transform="rotate(-33.53 48.216 99.377)"/><rect width="3.62" height="5.83" x="58.38" y="92.65" class="cls-1" rx="1.27" ry="1.27" transform="rotate(178.37 60.188 95.565)"/><path d="M55.96 85.57s.86 4.33-3.51 5.62c-.11.03-.21.06-.31.07-.09.04-.19.08-.3.12-4.31 1.45-6.1-2.58-6.1-2.58s-.47-.91.17-3.69 3.23-3.33 3.23-3.33 2.43-1.04 4.56.87c2.12 1.9 2.27 2.92 2.27 2.92Z" class="cls-1"/><circle cx="47.59" cy="86.78" r=".5" transform="rotate(-54.16 47.594 86.778)"/><circle cx="53.25" cy="84.98" r=".5" transform="rotate(-54.16 53.26 84.987)"/><ellipse cx="50.69" cy="86.71" rx="1.35" ry=".65" transform="rotate(-17.58 50.724 86.708)"/><path d="m19.03 89.59 2.19-.54 9.66 9.4-2.73-11.1 1.76-.43 3.37 13.7-2.08.51-9.76-9.36 2.73 11.09-1.77.44-3.37-13.7Z" style="fill:#ff6d75;stroke-linecap:round;stroke-linejoin:round;stroke:#000"/><text style="font-family:Helvetica,Helvetica;font-size:7px" transform="translate(97.05 124.32)"><tspan x="0" y="0">3-9 mois</tspan></text><path d="M-851.11-421.07H645.52v1236.8H-851.11z" style="fill:none;stroke:#fff;stroke-width:8px;stroke-linecap:round;stroke-linejoin:round"/></svg>