<svg xmlns="http://www.w3.org/2000/svg" id="Calque_1" data-name="Calque 1" viewBox="0 0 128 128"><defs><style>.cls-1{fill:#76ac75}.cls-1,.cls-11,.cls-12,.cls-5,.cls-6,.cls-7,.cls-8,.cls-9{stroke:#000;stroke-width:2px;stroke-linecap:round;stroke-linejoin:round}.cls-11{fill:#f3d587}.cls-7{fill:#ff6d75}.cls-6{fill:#b4eac3}.cls-5{fill:#87ccf3}.cls-8{fill:#fce9b9}.cls-9{fill:#b2f0e9}.cls-12{fill:#fab0b4}</style></defs><circle cx="83.34" cy="89.06" r="11.17" style="fill:#ff6d75;stroke-miterlimit:10;stroke:#000;stroke-width:2px"/><circle cx="68.49" cy="100.23" r="11.17" style="fill:#f3d587;stroke-miterlimit:10;stroke:#000;stroke-width:2px"/><circle cx="99.65" cy="100.23" r="11.17" style="fill:#b4eac3;stroke-miterlimit:10;stroke:#000;stroke-width:2px"/><path d="m68.751 26.729 7.577-1.254 5.186 31.323-7.577 1.255z" class="cls-12"/><path d="m68.75 26.72 7.577-1.254.716 4.321-7.577 1.255zM73.208 53.642l7.576-1.254.716 4.321-7.577 1.255z" class="cls-7"/><path d="m68.75 26.73 2.7-7.2 4.87 5.94-7.57 1.26z" class="cls-12"/><path d="M86.25 17.06h7.68v31.75h-7.68z" class="cls-6"/><path d="M86.25 17.06h7.68v4.38h-7.68zM86.25 44.34h7.68v4.38h-7.68z" class="cls-1"/><path d="m86.25 17.06 3.83-6.66 3.84 6.66h-7.67z" class="cls-6"/><path d="M96.79 17.06h7.68v31.75h-7.68z" class="cls-8"/><path d="M96.79 17.06h7.68v4.38h-7.68zM96.79 44.34h7.68v4.38h-7.68z" class="cls-11"/><path d="m96.79 17.06 3.84-6.66 3.84 6.66h-7.68z" class="cls-8"/><path d="M107.34 17.06h7.68v31.75h-7.68z" class="cls-9"/><path d="M107.34 17.06h7.68v4.38h-7.68zM107.34 44.34h7.68v4.38h-7.68z" class="cls-5"/><path d="m107.34 17.06 3.84-6.66 3.84 6.66h-7.68z" class="cls-9"/><rect width="45.88" height="7.81" x="13.14" y="44.98" rx="3.09" ry="3.09" style="fill:#baa584;stroke-linecap:round;stroke-linejoin:round;stroke:#000;stroke-width:2px" transform="rotate(-90 36.08 48.89)"/><rect width="32.63" height="7.81" x="19.76" y="38.36" class="cls-5" rx="3.09" ry="3.09"/><rect width="39.81" height="7.81" x="16.18" y="46.91" class="cls-11" rx="3.09" ry="3.09"/><rect width="46.98" height="7.81" x="12.59" y="55.46" class="cls-12" rx="3.9" ry="3.9"/><rect width="54.16" height="7.81" x="9" y="64.01" class="cls-6" rx="3.9" ry="3.9"/><text style="font-family:Helvetica,Helvetica;font-size:7px" transform="translate(94.1 124.32)"><tspan x="0" y="0">9-18 mois</tspan></text></svg>