<svg xmlns="http://www.w3.org/2000/svg" id="Calque_1" data-name="Calque 1" viewBox="0 0 128 128"><defs><style>.cls-1,.cls-10,.cls-4,.cls-5,.cls-7,.cls-8{stroke:#000;stroke-linecap:round;stroke-linejoin:round}.cls-1,.cls-8{fill:none}.cls-4,.cls-5,.cls-7,.cls-8{stroke-width:2px}.cls-4{fill:#a07637}.cls-5{fill:#baa584}.cls-7{fill:#f3d587}</style></defs><path d="m74.51 99.58-48.46 16.45L4.01 51.09l14.3-4.85L47.8 74.23l26.71 25.35z" style="fill:#b4eac3"/><path d="M72.86 27.73 47.8 74.23 18.31 46.24l54.55-18.51z" style="fill:#fce9b9"/><path d="M112.89 86.56 74.51 99.58 47.8 74.23l25.06-46.5 17.99-6.11 22.04 64.94z" style="fill:#fab0b4"/><path d="m4.009 51.1 86.848-29.463 22.03 64.935-86.848 29.464z" class="cls-8"/><circle cx="90.06" cy="68.35" r="4.01" class="cls-4"/><circle cx="112.08" cy="68.35" r="4.01" class="cls-4"/><path d="M93.27 82.51s-10.71 3.8-11.01 8.37c-.3 4.57 1.31 5.18 1.31 5.18h6.87l2.83-13.54ZM109.2 82.51s10.71 3.8 11.01 8.37c.3 4.57-1.31 5.18-1.31 5.18h-6.87l-2.83-13.54ZM88.37 109.18l7.64-2.74-5.57-5.53-2.07 8.27zM114.73 109.18l-7.64-2.74 5.57-5.53 2.07 8.27z" class="cls-5"/><path d="M115.31 95.35c0-7.72-6.26-16.13-13.97-16.13s-13.97 8.41-13.97 16.13 6.26 11.82 13.97 11.82 13.97-4.1 13.97-11.82Z" class="cls-5"/><path d="M109.77 94.49c0-4.66-3.77-9.73-8.43-9.73s-8.43 5.07-8.43 9.73 3.77 7.13 8.43 7.13 8.43-2.48 8.43-7.13Z" class="cls-4"/><rect width="8.52" height="13.74" x="82.23" y="95.71" class="cls-5" rx="4.26" ry="4.26" transform="rotate(-15.95 86.467 102.58)"/><rect width="8.52" height="13.74" x="111.83" y="95.71" class="cls-5" rx="4.26" ry="4.26" transform="rotate(-164.05 116.089 102.579)"/><path d="M113.71 77.12s-1.16 10.33-11.87 10.13c-.26 0-.52-.02-.76-.06-.24.03-.49.05-.76.06-10.71.19-11.87-10.13-11.87-10.13s-.4-2.38 3.01-8.16c3.41-5.78 9.61-5.19 9.61-5.19s6.2-.59 9.61 5.19c3.41 5.78 3.01 8.16 3.01 8.16Z" class="cls-5"/><circle cx="94.08" cy="73.88" r="1.18" class="cls-10"/><circle cx="108.06" cy="73.88" r="1.18" class="cls-10"/><ellipse cx="101.09" cy="75.93" rx="3.17" ry="1.52" style="fill:#fff;stroke-width:2px;stroke-linecap:round;stroke-linejoin:round;stroke:#000"/><path d="M101.09 87.19v-9.74" style="stroke-miterlimit:10;stroke-width:2px;fill:none;stroke:#000"/><path d="M21.51 35.19c-.72 0-1.44-.19-2.09-.6a3.95 3.95 0 0 1-1.25-5.44C23.3 20.98 32.11 16.1 41.75 16.1s18.45 4.88 23.58 13.05c1.16 1.85.6 4.28-1.24 5.44a3.95 3.95 0 0 1-5.44-1.24c-3.68-5.86-9.99-9.36-16.9-9.36s-13.23 3.5-16.9 9.36a3.948 3.948 0 0 1-3.34 1.85Z" class="cls-5"/><path d="M41.76 23.99v18.48M19.42 34.59v7.88M63.02 35.06v7.41" class="cls-1"/><path d="M19.57 51.82s8.34-6.7 6.26-9.71c-2.69-3.89-6.23 2.06-6.23 2.06s-3.92-5.95-6.61-2.06c-2.07 3 6.58 9.71 6.58 9.71Z" style="stroke-width:2px;fill:#77eddf;stroke-linecap:round;stroke-linejoin:round;stroke:#000"/><path d="m43.64 41.26 1.06 2.15c.31.62.9 1.05 1.58 1.15l2.37.34c1.73.25 2.41 2.37 1.17 3.59l-1.72 1.67c-.5.48-.72 1.18-.6 1.86l.41 2.36c.29 1.72-1.51 3.03-3.05 2.22l-2.12-1.12a2.12 2.12 0 0 0-1.96 0l-2.12 1.12c-1.54.81-3.35-.5-3.05-2.22l.41-2.36c.12-.68-.11-1.38-.6-1.86l-1.72-1.67c-1.25-1.22-.56-3.34 1.17-3.59l2.37-.34c.69-.1 1.28-.53 1.58-1.15l1.06-2.15c.77-1.56 3-1.56 3.77 0Z" class="cls-7"/><path d="M63.17 51.82s8.34-6.7 6.26-9.71c-2.69-3.89-6.23 2.06-6.23 2.06s-3.92-5.95-6.61-2.06c-2.07 3 6.58 9.71 6.58 9.71Z" style="fill:#ff6d75;stroke-width:2px;stroke-linecap:round;stroke-linejoin:round;stroke:#000"/><circle cx="41.28" cy="13.46" r="1.73" class="cls-7"/><path d="M41.28 11.73V4.12" class="cls-8"/><text style="font-family:Helvetica,Helvetica;font-size:7px" transform="translate(97.57 124.32)"><tspan x="0" y="0">0-3 mois</tspan></text></svg>