<svg xmlns="http://www.w3.org/2000/svg" id="Calque_1" viewBox="0 0 128 128.13"><defs><style>.cls-1,.cls-2,.cls-3{fill:#fff}.cls-2{stroke-linecap:round;stroke-linejoin:round}.cls-2,.cls-3,.cls-6{stroke:#000}.cls-3,.cls-6{stroke-miterlimit:10}.cls-6{fill:#ff6d75}.cls-12{fill:#b2f0e9}.cls-13{fill:#8987f3}.cls-14{fill:#f3d587}.cls-15{fill:#b4eac3}</style></defs><path d="M-391.03-648.66h2655.08V863.11H-391.03z" style="stroke-linecap:round;stroke-linejoin:round;fill:none;stroke:#e30613;stroke-width:8px"/><path d="M21.78 35.98h73.76v70.35H21.78z" class="cls-6"/><path d="m91.51 68.59-4.49-.23c.03-.53.04-1.06.04-1.57h4.5c0 .59-.02 1.19-.05 1.8ZM57.41 100.93c-.92 0-1.84-.04-2.74-.12l.39-4.48c1.03.09 2.09.12 3.14.09l.11 4.5c-.3 0-.6.01-.91.01Zm2.72-.11-.35-4.49c1.05-.08 2.1-.22 3.13-.42l.83 4.42c-1.19.22-2.4.38-3.6.48Zm-7.28-.23c-1.21-.18-2.41-.43-3.59-.75l1.18-4.34c1 .27 2.03.49 3.06.64l-.66 4.45Zm17.84-2.35-1.75-4.15c.97-.41 1.92-.87 2.84-1.38l2.18 3.94c-1.06.59-2.15 1.12-3.27 1.59Zm-28.2-1.15c-1.06-.59-2.11-1.24-3.1-1.95l2.62-3.66c.85.61 1.74 1.17 2.65 1.67l-2.17 3.94Zm33.04-1.37-2.39-3.81c.89-.56 1.75-1.17 2.58-1.82l2.78 3.54c-.95.75-1.95 1.45-2.97 2.09Zm-37.59-1.7c-.94-.76-1.85-1.6-2.7-2.47l3.22-3.14c.73.75 1.5 1.46 2.31 2.11l-2.83 3.5Zm41.96-1.55-2.96-3.39c.79-.69 1.55-1.43 2.26-2.2l3.3 3.05c-.82.89-1.7 1.74-2.6 2.53Zm-23.03-1.92h-.4l.08-4.5c1.01.02 2.03-.05 3.02-.19l.65 4.45c-1.1.16-2.23.24-3.36.24ZM34 90.2c-.8-.92-1.54-1.9-2.23-2.9l3.73-2.52c.58.86 1.22 1.7 1.91 2.48l-3.4 2.94Zm28.08-.24-1.01-4.39c.98-.23 1.95-.53 2.88-.92l1.71 4.16c-1.16.48-2.37.86-3.59 1.14Zm-13.02-.91c-1.18-.47-2.32-1.05-3.39-1.72l2.39-3.81c.84.53 1.74.99 2.66 1.35l-1.67 4.18Zm34.64-.49-3.46-2.88c.67-.8 1.3-1.66 1.88-2.53l3.75 2.49c-.67 1.01-1.4 1.99-2.17 2.92Zm-11.66-3.67-2.95-3.4c.76-.66 1.48-1.39 2.12-2.16l3.45 2.89c-.8.96-1.69 1.86-2.63 2.68Zm14.8-.79-3.88-2.29c.54-.91 1.03-1.85 1.46-2.8l4.1 1.86c-.5 1.1-1.06 2.18-1.68 3.23Zm-30.32-.35c-.21 0-.41 0-.62-.01l.18-4.5c.94.04 1.9-.04 2.82-.24l.93 4.4c-1.08.23-2.2.34-3.31.34Zm-2.62-.23c-1.32-.24-2.6-.66-3.81-1.25l1.98-4.04c.83.41 1.72.7 2.63.86l-.8 4.43Zm-13.81-1.29c-.77-1.01-1.45-2.09-2.02-3.22l4.01-2.04c.45.89.99 1.74 1.59 2.53l-3.58 2.73Zm8.26-.97a14.84 14.84 0 0 1-2.98-2.67l3.43-2.91c.6.71 1.3 1.33 2.07 1.85l-2.52 3.73Zm-19.93-.45c-.43-1.14-.79-2.32-1.08-3.5l4.37-1.06c.25 1.01.55 2.01.92 2.99l-4.21 1.58Zm47.4-.08-3.68-2.6c.58-.82 1.1-1.7 1.54-2.61l4.05 1.97c-.55 1.13-1.19 2.22-1.91 3.24Zm-8.96-.77-2.91-3.43c.72-.62 1.37-1.32 1.92-2.09l3.66 2.62a15.97 15.97 0 0 1-2.67 2.9Zm-22.67-2.98c-.72-1.13-1.28-2.36-1.67-3.64l4.31-1.29c.26.89.65 1.73 1.15 2.52l-3.8 2.42Zm34.3-1.21-4.19-1.63c.36-.94.65-1.91.86-2.9l4.4.92c-.26 1.23-.62 2.44-1.07 3.61Zm-51.52-.25c-.22-1.19-.36-2.42-.44-3.64l4.49-.27c.06 1.04.19 2.09.37 3.11l-4.43.8Zm43.61-.13-3.96-2.14c.45-.83.8-1.72 1.03-2.64l4.36 1.1c-.32 1.28-.81 2.52-1.44 3.68Zm20.23-1.4-4.4-.94c.22-1.03.39-2.07.5-3.12l4.48.47c-.13 1.2-.32 2.41-.57 3.59Zm-54.89-2.22c-.08-.76-.12-1.53-.12-2.29 0-.51.02-1.02.06-1.52l4.49.36c-.03.38-.05.77-.05 1.16 0 .6.03 1.21.1 1.81l-4.47.49Zm43.95-1.46-4.47-.56c.1-.78.15-1.57.15-2.36 0-.23 0-.45-.01-.68l4.5-.14c0 .27.01.54.01.82 0 .98-.06 1.96-.18 2.92Zm-48.9-.26h-4.5v-.08c0-1.2.08-2.41.23-3.59l4.46.57c-.13 1-.19 2.01-.19 3.02v.08Zm9.56-3.2-4.43-.8c.23-1.26.58-2.51 1.06-3.7l4.18 1.67c-.36.91-.64 1.86-.81 2.83Zm34.91-1.67a21.81 21.81 0 0 0-.54-3.01l4.36-1.12c.31 1.2.53 2.43.66 3.67l-4.48.47Zm-7.75-.25c-.21-.94-.53-1.86-.94-2.73l4.06-1.94c.56 1.17.99 2.41 1.27 3.68l-4.39.99ZM41.96 62.7l-3.99-2.08c.59-1.13 1.3-2.21 2.11-3.21l3.5 2.83c-.62.76-1.16 1.59-1.62 2.46Zm-9.21-1.72-4.16-1.72c.47-1.14 1.02-2.25 1.63-3.31l3.9 2.25c-.52.89-.98 1.83-1.37 2.78Zm33.3-.05c-.51-.82-1.11-1.58-1.79-2.27l3.2-3.16c.91.92 1.72 1.95 2.41 3.05l-3.82 2.38Zm8.42-.23c-.32-.96-.72-1.92-1.19-2.82l4.01-2.04c.56 1.11 1.05 2.26 1.44 3.43l-4.27 1.43Zm-11.28-3.01c-.75-.61-1.57-1.13-2.43-1.56l1.99-4.03c1.16.58 2.27 1.28 3.27 2.1l-2.84 3.49Zm9.35-1.15c-.53-.87-1.13-1.71-1.78-2.5l3.47-2.86c.79.95 1.51 1.98 2.15 3.03l-3.85 2.33Zm-13.11-.98c-.91-.33-1.85-.55-2.81-.67l.55-4.47c1.29.16 2.57.46 3.79.91l-1.53 4.23Zm-7.19-.51-.84-4.42c1.18-.22 2.39-.34 3.6-.34h.22l-.04 4.5H55c-.93 0-1.86.09-2.76.26ZM37.9 53.29l-3.18-3.18c.87-.87 1.8-1.69 2.77-2.43l2.74 3.57c-.82.63-1.6 1.31-2.33 2.04Zm3.59-2.94-2.5-3.74c1.02-.68 2.1-1.3 3.2-1.84l1.98 4.04c-.92.45-1.83.97-2.68 1.55Zm24.74-.42c-.85-.57-1.74-1.08-2.66-1.52l1.93-4.07c1.12.53 2.21 1.15 3.24 1.84l-2.51 3.74Zm-4.07-2.12c-.95-.37-1.94-.67-2.93-.9l.99-4.39c1.21.27 2.41.64 3.56 1.09l-1.63 4.2Zm-12.12-.98-.86-4.42c1.2-.23 2.43-.39 3.66-.46l.27 4.49c-1.03.06-2.07.19-3.07.39Zm7.68-.2c-1-.15-2.03-.23-3.06-.23l.02-4.5c1.24 0 2.49.1 3.71.29l-.67 4.45ZM42.04 71.16c-.09-.66-.14-1.32-.14-1.99h4.5c0 .46.03.93.09 1.38l-4.46.61Z" class="cls-1"/><path d="m65.52 99.96-1.07-4.37c1.02-.25 2.04-.56 3.02-.91L69 98.91c-1.13.41-2.31.76-3.48 1.05ZM67.36 88.06l-2.04-4.01c.9-.46 1.76-.99 2.58-1.59l2.66 3.63a22.92 22.92 0 0 1-3.2 1.97ZM30.78 85.77a31.22 31.22 0 0 1-1.68-3.25l4.11-1.82c.42.95.9 1.88 1.43 2.78l-3.87 2.3ZM31.4 65.43l-4.42-.86c.24-1.21.55-2.41.95-3.57l4.26 1.44c-.33.97-.6 1.98-.79 3ZM34.92 56.88l-3.74-2.5c.68-1.02 1.44-2 2.25-2.93l3.38 2.97c-.68.78-1.32 1.6-1.89 2.46ZM48.07 56.51l-2.12-3.97c1.13-.6 2.33-1.1 3.56-1.46l1.28 4.31c-.94.28-1.85.65-2.72 1.12Z" class="cls-15"/><path d="M44.1 86.27c-1.01-.77-1.95-1.63-2.8-2.56l3.32-3.04c.67.73 1.41 1.41 2.21 2.02l-2.73 3.58ZM89.22 79.22l-4.19-1.64c.38-.98.72-1.99.99-3l4.34 1.18c-.32 1.16-.7 2.33-1.14 3.45ZM72.36 69.78l-4.47-.55c.06-.47.09-.95.09-1.43s-.03-.96-.08-1.44l4.47-.49c.07.64.1 1.29.1 1.93 0 .66-.04 1.33-.12 1.98ZM44.54 59.14l-3.2-3.17c.9-.91 1.9-1.73 2.96-2.45l2.51 3.74c-.82.55-1.58 1.18-2.27 1.87Z" class="cls-14"/><path d="M47.51 99.32c-1.15-.39-2.3-.85-3.4-1.38l1.93-4.06c.94.45 1.92.84 2.9 1.17l-1.44 4.26ZM54.57 90.45c-1.26-.14-2.51-.39-3.72-.75l1.28-4.31c.95.28 1.94.48 2.93.59l-.48 4.47ZM69.72 52.89c-.7-.74-1.47-1.43-2.27-2.06l2.77-3.55c.98.76 1.9 1.6 2.76 2.5l-3.25 3.11ZM45.56 48.17l-1.71-4.16c1.13-.47 2.31-.86 3.5-1.18l1.15 4.35c-1 .26-1.98.6-2.94.99Z" class="cls-13"/><path d="M90.74 59.07h-1.19a5.6 5.6 0 0 1-.27-.55c-.03-.06-.06-.12-.08-.18a8.11 8.11 0 0 1-.3-.74c-.04-.11-.08-.22-.12-.34-.03-.09-.06-.19-.09-.28-.05-.15-.09-.31-.14-.47l-.09-.34c-.02-.07-.04-.15-.05-.22-.05-.22-.1-.44-.14-.66 0-.05-.02-.1-.03-.15l-.06-.39-.03-.21c-.03-.2-.05-.4-.07-.6v-.1h.31c.14 0 .24-.11.24-.24v-.2c0-.14-.11-.24-.24-.24h-.37c-.02-.26-.03-.53-.03-.79v-.59c-.02 0-.04.01-.06.02.77-.33 1.31-1.09 1.31-1.98 0-1.19-.97-2.15-2.15-2.15h-.07a2.148 2.148 0 0 0-.86 4.09c-.02 0-.04-.01-.05-.02 0 .48-.01.96-.04 1.42h-.37c-.14 0-.24.11-.24.24v.2c0 .13.11.24.24.24h.31c-.19 1.88-.64 3.63-1.49 5.21h-1.2c-.3 0-.56.25-.56.56v.48c0 .3.25.56.56.56h7.45c.31 0 .56-.25.56-.56v-.48a.56.56 0 0 0-.56-.56Zm-3.34-7.12s-.08.01-.12.02c.04 0 .08-.01.12-.02Zm.24-.05s-.09.03-.14.04c.05 0 .09-.02.14-.04Zm.07-.02c.06-.02.12-.04.17-.06-.06.02-.11.04-.17.06Zm-1.32 0s-.09-.03-.13-.05c.04.02.09.03.13.05Zm.44.1s-.08-.01-.12-.02c.04 0 .08.01.12.02Zm-.22-.04s-.1-.02-.14-.04c.05.01.1.03.14.04Z" style="fill-rule:evenodd;stroke-miterlimit:1;fill:#87f3b9;stroke:#000"/><path d="M75.17 94.59h-1.19a5.6 5.6 0 0 1-.27-.55c-.03-.06-.06-.12-.08-.18a8.11 8.11 0 0 1-.3-.74c-.04-.11-.08-.22-.12-.34-.03-.09-.06-.19-.09-.28-.05-.15-.09-.31-.14-.47l-.09-.34c-.02-.07-.04-.15-.05-.22-.05-.22-.1-.44-.14-.66 0-.05-.02-.1-.03-.15l-.06-.39-.03-.21c-.03-.2-.05-.4-.07-.6v-.1h.31c.14 0 .24-.11.24-.24v-.2c0-.14-.11-.24-.24-.24h-.37c-.02-.26-.03-.53-.03-.79v-.59c-.02 0-.04.01-.06.02.77-.33 1.31-1.09 1.31-1.98 0-1.19-.97-2.15-2.15-2.15h-.07a2.148 2.148 0 0 0-.86 4.09c-.02 0-.04-.01-.05-.02 0 .48-.01.96-.04 1.42h-.37c-.14 0-.24.11-.24.24v.2c0 .13.11.24.24.24h.31c-.19 1.88-.64 3.63-1.49 5.21h-1.2c-.3 0-.56.25-.56.56v.48c0 .3.25.56.56.56h7.45c.31 0 .56-.25.56-.56v-.48a.56.56 0 0 0-.56-.56Zm-3.34-7.12s-.08.01-.12.02c.04 0 .08-.01.12-.02Zm.24-.05s-.09.03-.14.04c.05 0 .09-.02.14-.04Zm.07-.02c.06-.02.12-.04.17-.06-.06.02-.11.04-.17.06Zm-1.32 0s-.09-.03-.13-.05c.04.02.09.03.13.05Zm.44.1s-.08-.01-.12-.02c.04 0 .08.01.12.02Zm-.22-.04s-.1-.02-.14-.04c.05.01.1.03.14.04Z" style="fill-rule:evenodd;stroke-miterlimit:1;fill:#afaff9;stroke:#000"/><path d="m24.11 101.6-8.13 4.69 8.13 4.7 8.13-4.7-8.13-4.69z" class="cls-2"/><path d="m24.11 110.7-8.13-4.41 8.13 4.7 8.13-4.7-8.13 4.41z" class="cls-2"/><path d="M23.42 105.89c-.38.22-.38.58 0 .8s1 .22 1.39 0c.38-.22.38-.58 0-.8-.38-.22-1-.22-1.39 0ZM23.42 103.44c-.38.22-.38.58 0 .8.38.22 1 .22 1.39 0 .38-.22.38-.58 0-.8-.38-.22-1-.22-1.39 0ZM19.17 105.89c-.38.22-.38.58 0 .8s1 .22 1.39 0c.38-.22.38-.58 0-.8-.38-.22-1-.22-1.39 0ZM27.67 105.89c-.38.22-.38.58 0 .8s1 .22 1.39 0c.38-.22.38-.58 0-.8-.38-.22-1-.22-1.39 0ZM23.42 108.35c-.38.22-.38.58 0 .8s1 .22 1.39 0c.38-.22.38-.58 0-.8-.38-.22-1-.22-1.39 0Z"/><path d="M15.98 106.29v9.39l8.13 4.69v-9.38l-8.13-4.7z" class="cls-2"/><path d="M20.05 112.53c-.38-.22-.69-.04-.69.4s.31.98.69 1.2c.38.22.69.04.69-.4s-.31-.98-.69-1.2ZM17.92 108.85c-.38-.22-.69-.04-.69.4s.31.98.69 1.2c.38.22.69.04.69-.4s-.31-.98-.69-1.2ZM22.17 116.21c-.38-.22-.69-.04-.69.4s.31.98.69 1.2c.38.22.69.04.69-.4s-.31-.98-.69-1.2Z"/><path d="M24.11 110.99v9.38l8.13-4.69v-9.39l-8.13 4.7z" class="cls-2"/><path d="M28.18 112.53c-.38.22-.69.76-.69 1.2s.31.62.69.4c.38-.22.69-.76.69-1.2s-.31-.62-.69-.4Z"/><path d="m61.73 82.9-1.47-4.25c.89-.31 1.75-.73 2.54-1.25l2.47 3.76c-1.11.73-2.3 1.31-3.54 1.74ZM37.28 77.3c-.47-1.18-.83-2.4-1.08-3.64l4.41-.89c.2.98.48 1.94.85 2.86l-4.18 1.67Z" class="cls-12"/><path d="m111.19 69.01-7.92-3.25 7.51-18.93 7.93 3.25-7.52 18.93z" class="cls-3"/><path d="m107.03 56.3 7.92 3.25" class="cls-6"/><ellipse cx="112.93" cy="53.04" rx="1.05" ry="1.07" transform="rotate(-49.05 112.915 53.04)"/><ellipse cx="109.74" cy="61.07" rx="1.05" ry="1.07" transform="rotate(-49.05 109.73 61.067)"/><ellipse cx="108.45" cy="64.32" rx="1.05" ry="1.07" transform="rotate(-49.05 108.443 64.32)"/><path d="m99.79 76.73 3.26-7.8 18.92 7.35-3.26 7.8-18.92-7.35z" class="cls-3"/><path d="m112.51 72.61-3.26 7.79" class="cls-6"/><ellipse cx="115.76" cy="78.4" rx="1.07" ry="1.04" transform="rotate(-26.83 115.746 78.388)"/><ellipse cx="107.73" cy="75.28" rx="1.07" ry="1.04" transform="rotate(-26.83 107.715 75.276)"/><ellipse cx="104.49" cy="74.02" rx="1.07" ry="1.04" transform="rotate(-26.83 104.47 74.015)"/><path d="m106.35 29.37-7.63 3.91-9.5-18.01 7.62-3.91 9.51 18.01z" class="cls-3"/><path d="m93.97 24.28 7.62-3.92" class="cls-6"/><ellipse cx="99.37" cy="25.32" rx="1.07" ry="1.05" transform="rotate(-8.56 99.352 25.306)"/><ellipse cx="101" cy="28.41" rx="1.07" ry="1.05" transform="rotate(-8.56 100.936 28.381)"/><path d="m104.8 43.05-3.8-7.54 17.87-9.61 3.81 7.54-17.88 9.61z" class="cls-3"/><path d="m109.93 30.7 3.81 7.54" class="cls-6"/><ellipse cx="117.89" cy="31.03" rx="1.07" ry="1.04" transform="rotate(-76.28 117.901 31.033)"/><ellipse cx="108.04" cy="34.52" rx="1.07" ry="1.04" transform="rotate(-75.65 108.05 34.517)"/><ellipse cx="105" cy="36.11" rx="1.07" ry="1.04" transform="rotate(-75.65 105.014 36.113)"/><ellipse cx="109.62" cy="37.67" rx="1.07" ry="1.04" transform="rotate(-75.65 109.626 37.671)"/><ellipse cx="106.53" cy="39.27" rx="1.07" ry="1.04" transform="rotate(-75.65 106.538 39.268)"/><ellipse cx="114.52" cy="32.62" rx="1.07" ry="1.04" transform="rotate(-76.28 114.528 32.615)"/><ellipse cx="95.08" cy="17.68" rx="1.07" ry="1.04" transform="rotate(-76.28 95.08 17.674)"/><path d="M20.47 43.03 6.84 41.39c-.99-.12-1.47-.72-1.35-1.71L7.93 19.7c.12-.99.67-1.35 1.66-1.23l13.54 1.64c.99.12 1.5.65 1.38 1.65l-2.42 19.97c-.12.99-.62 1.43-1.62 1.31Z" style="fill:#87ccf3;stroke-miterlimit:10;stroke:#000"/><path d="m19.54 46.72-12.5-5.8c-.91-.43-1.22-.94-.79-1.85l8.64-18.37c.43-.91 1.13-1.13 2.04-.7l12.36 5.8c.91.43 1.15 1.18.72 2.09l-8.54 18.16c-.43.91-1.01 1.11-1.92.69Z" style="fill:#f3d587;stroke-miterlimit:10;stroke:#000"/><path d="M20.63 50.07 9.51 42.01c-.81-.59-.9-1.25-.31-2.07l11.82-16.32c.59-.81 1.28-.86 2.09-.27l11.04 7.95c.81.59.96 1.36.37 2.17L22.81 49.65c-.59.81-1.38 1-2.19.41Z" style="fill:#87f3b9;stroke-miterlimit:10;stroke:#000"/><path d="m20.99 53.26-9.01-10.44c-.65-.76-.6-1.39.16-2.05l15.22-13.16c.76-.65 1.52-.59 2.17.17l8.87 10.3c.65.76.66 1.53-.1 2.19L23.1 53.4c-.76.65-1.45.63-2.1-.13Z" style="stroke-miterlimit:10;stroke:#000;fill:#f387d5"/></svg>