<svg xmlns="http://www.w3.org/2000/svg" id="Calque_1" data-name="Calque 1" viewBox="0 0 128 128"><defs><style>.cls-2{fill:#ff6d75}.cls-4{fill:#baa584}.cls-7,.cls-8{stroke:#000;stroke-miterlimit:10;stroke-width:2px}.cls-7{fill:#d6d6d6}.cls-8{fill:none}</style></defs><path d="M26.29 97.01h-6.54v-8.69h6.54v8.69Z" class="cls-4"/><path d="M26.29 97.01h-6.54v-8.69h6.54v8.69Z" class="cls-8"/><path d="M80.23 97.01h-6.54v-8.69h6.54v8.69Z" class="cls-4"/><path d="M80.23 97.01h-6.54v-8.69h6.54v8.69Z" class="cls-8"/><path d="m115.27 74.62-2.14-2.47-6.05-6.98-.72-.83c-.45-.52-1.09-.81-1.78-.81H90.22a2.346 2.346 0 0 0-2.35 2.35v28.2c0 1.3 1.05 2.35 2.35 2.35h25.04c1.3 0 2.35-1.05 2.35-2.35V80.9c0-2.31-.83-4.53-2.34-6.28Zm-21.84-4.8c0-.98.91-1.75 1.98-1.68 12.38.83 12.43 9.55 11.94 13.06-.12.83-.89 1.46-1.81 1.47l-10.24.08c-1.02 0-1.86-.75-1.86-1.68V69.82Z" class="cls-2"/><path d="m115.27 74.62-2.14-2.47-6.05-6.98-.72-.83c-.45-.52-1.09-.81-1.78-.81H90.22a2.346 2.346 0 0 0-2.35 2.35v28.2c0 1.3 1.05 2.35 2.35 2.35h25.04c1.3 0 2.35-1.05 2.35-2.35V80.9c0-2.31-.83-4.53-2.34-6.28Zm-21.84-4.8c0-.98.91-1.75 1.98-1.68 12.38.83 12.43 9.55 11.94 13.06-.12.83-.89 1.46-1.81 1.47l-10.24.08c-1.02 0-1.86-.75-1.86-1.68V69.82Z" class="cls-8"/><path d="M105.94 64.97H88.96c-.93 0-1.69-.76-1.69-1.69v-.84c0-1.29 1.05-2.35 2.35-2.35h16.33c1.29 0 2.35 1.05 2.35 2.35v.18c0 1.29-1.05 2.35-2.35 2.35Z" class="cls-2"/><path d="M105.94 64.97H88.96c-.93 0-1.69-.76-1.69-1.69v-.84c0-1.29 1.05-2.35 2.35-2.35h16.33c1.29 0 2.35 1.05 2.35 2.35v.18c0 1.29-1.05 2.35-2.35 2.35Z" class="cls-8"/><path d="M118.61 103.83H14.84c-1.45 0-2.62-1.18-2.62-2.62v-2.65c0-1.45 1.18-2.62 2.62-2.62H118.6c1.45 0 2.62 1.18 2.62 2.62v2.65c0 1.45-1.18 2.62-2.62 2.62Z" style="fill:#a07637"/><path d="M118.61 103.83H14.84c-1.45 0-2.62-1.18-2.62-2.62v-2.65c0-1.45 1.18-2.62 2.62-2.62H118.6c1.45 0 2.62 1.18 2.62 2.62v2.65c0 1.45-1.18 2.62-2.62 2.62Z" class="cls-8"/><path d="M81.5 91.38H14.93c-1.5 0-2.72-1.22-2.72-2.72V65.53c0-1.5 1.22-2.72 2.72-2.72h41.31c4.4 0 8.63-2.09 11.59-5.73 1.79-2.2 3.58-3.31 5.34-3.31h2.09c4.94 0 8.96 4.28 8.96 9.54v25.34c0 1.5-1.22 2.72-2.72 2.72Z" class="cls-4"/><path d="M81.5 91.38H14.93c-1.5 0-2.72-1.22-2.72-2.72V65.53c0-1.5 1.22-2.72 2.72-2.72h41.31c4.4 0 8.63-2.09 11.59-5.73 1.79-2.2 3.58-3.31 5.34-3.31h2.09c4.94 0 8.96 4.28 8.96 9.54v25.34c0 1.5-1.22 2.72-2.72 2.72Z" class="cls-8"/><path d="M74.88 62.1c-1.34 0-2.44-1.09-2.44-2.44s1.09-2.44 2.44-2.44 2.44 1.09 2.44 2.44-1.09 2.44-2.44 2.44Z" style="stroke:#000;stroke-miterlimit:10;stroke-width:2px;fill:#fff"/><path d="M34.34 113.19c-6.09 0-11.05-4.96-11.05-11.05s4.96-11.05 11.05-11.05 11.05 4.96 11.05 11.05-4.96 11.05-11.05 11.05ZM94.04 113.19c-6.09 0-11.05-4.96-11.05-11.05s4.96-11.05 11.05-11.05 11.05 4.96 11.05 11.05-4.96 11.05-11.05 11.05Z" class="cls-7"/><path d="M41.83 86.48h-15c-1.06 0-1.92-.87-1.92-1.94V69.31c0-1.07.86-1.94 1.92-1.94h15c1.06 0 1.92.87 1.92 1.94v15.23c0 1.07-.86 1.94-1.92 1.94Z" style="fill:#87f3b9"/><path d="M41.83 86.48h-15c-1.06 0-1.92-.87-1.92-1.94V69.31c0-1.07.86-1.94 1.92-1.94h15c1.06 0 1.92.87 1.92 1.94v15.23c0 1.07-.86 1.94-1.92 1.94Z" class="cls-8"/><path d="M68.96 86.13H51.99c-.5 0-.96-.26-1.21-.69-.25-.42-.27-.94-.03-1.38l8.48-15.88a1.416 1.416 0 0 1 2.5 0l8.48 15.88a1.406 1.406 0 0 1-1.24 2.07Z" style="fill:#f3d587"/><path d="M68.96 86.13H51.99c-.5 0-.96-.26-1.21-.69-.25-.42-.27-.94-.03-1.38l8.48-15.88a1.416 1.416 0 0 1 2.5 0l8.48 15.88a1.406 1.406 0 0 1-1.24 2.07Z" class="cls-8"/><path d="M76.82 54.77a.507.507 0 0 1-.5-.58c.22-1.3 5.63-31.94 17.03-38.25 2.44-1.35 5-1.49 7.6-.43 2.42.99 3.8 2.58 4.1 4.73 1.55 11.04-26.72 33.47-27.92 34.42a.51.51 0 0 1-.31.11ZM97.54 15.8c-1.25 0-2.48.34-3.7 1.01-9.68 5.36-15.09 30.17-16.27 36.21 5.2-4.25 27.8-23.33 26.5-32.65-.25-1.8-1.39-3.09-3.49-3.94-1.04-.42-2.04-.64-3.04-.64Z"/><path d="M75.35 58.29c-.27 0-.49-.22-.5-.49-.06-2.63 1.6-3.88 1.67-3.93.22-.16.54-.12.7.11.16.22.12.53-.1.7-.06.04-1.31 1.02-1.27 3.11 0 .28-.21.5-.49.51h-.01Z"/><path d="M-406.53-78.92h1215v875.1h-1215z" style="stroke:#fff;stroke-linecap:round;stroke-linejoin:round;stroke-width:8px;fill:none"/></svg>