<svg xmlns="http://www.w3.org/2000/svg" data-name="Calque 1" viewBox="0 0 128 128.13"><path d="M33.7 110.04h60.6v14.45H33.7z" style="fill:#d6d6d6;stroke:#000;stroke-miterlimit:10"/><path d="M33.7 92.31h60.6v14.45H33.7z" style="fill:#baa584;stroke:#000;stroke-miterlimit:10"/><path d="M33.7 74.57h60.6v14.45H33.7z" style="fill:#fab0b4;stroke:#000;stroke-miterlimit:10"/><path d="M33.7 56.84h60.6v14.45H33.7z" style="fill:#bfe6fc;stroke:#000;stroke-miterlimit:10"/><path d="M33.7 39.1h60.6v14.45H33.7z" style="fill:#ffbeed;stroke:#000;stroke-miterlimit:10"/><path d="M33.7 21.37h60.6v14.45H33.7z" style="stroke:#000;stroke-miterlimit:10;fill:#fce9b9"/><path d="M33.7 3.63h60.6v14.45H33.7z" style="fill:#bbfedb;stroke:#000;stroke-miterlimit:10"/><path d="M43.68 114.08c.46.15.84.43 1.13.84.23.33.39.68.47 1.07s.13.75.13 1.09c0 .88-.18 1.62-.53 2.23-.48.82-1.22 1.23-2.22 1.23h-2.85v-6.61h2.85c.41 0 .75.05 1.02.14Zm-2.53 1v4.31h1.28c.65 0 1.11-.32 1.36-.96.14-.35.21-.77.21-1.26 0-.67-.11-1.19-.32-1.55-.21-.36-.63-.54-1.26-.54h-1.28ZM47.69 120.54h-1.37v-6.61h1.37v6.61ZM53.37 113.93h1.99v6.61h-1.29v-5.55l-1.25 5.54h-1.34l-1.24-5.54v5.55h-1.29v-6.61h2.01l1.2 5.19 1.19-5.19ZM58.52 113.93h1.56l2.34 6.61h-1.5l-.44-1.36h-2.43l-.45 1.36h-1.44l2.36-6.61Zm-.09 4.11h1.69l-.83-2.6-.86 2.6ZM63.24 113.93h1.45l2.62 4.61v-4.61h1.29v6.61h-1.38l-2.69-4.69v4.69h-1.29v-6.61ZM70.52 114.62c.53-.54 1.21-.82 2.03-.82 1.1 0 1.9.36 2.41 1.09.28.41.43.82.45 1.23h-1.38c-.09-.32-.2-.56-.34-.72-.25-.29-.61-.43-1.09-.43s-.88.2-1.16.61-.43.98-.43 1.72.15 1.3.45 1.67.68.55 1.14.55.84-.16 1.08-.48c.14-.17.25-.43.34-.77h1.37c-.12.72-.42 1.31-.91 1.76s-1.11.68-1.87.68c-.94 0-1.68-.3-2.22-.91-.54-.61-.81-1.45-.81-2.52 0-1.15.31-2.04.92-2.67ZM76.51 120.54v-6.61h1.37v2.52h2.57v-2.52h1.37v6.61h-1.37v-2.95h-2.57v2.95h-1.37ZM88.03 115.1h-3.5v1.4h3.21v1.15h-3.21v1.7h3.66v1.19h-5.01v-6.61h4.85v1.17ZM47.95 100.81c.04.3.13.53.25.68.23.27.62.41 1.18.41.33 0 .6-.04.81-.11.39-.14.59-.39.59-.77 0-.22-.1-.39-.29-.51-.19-.12-.5-.22-.92-.31l-.71-.16c-.7-.16-1.19-.32-1.45-.51-.45-.3-.67-.78-.67-1.43 0-.59.22-1.08.65-1.47.44-.39 1.07-.59 1.92-.59.7 0 1.31.18 1.8.55s.76.9.78 1.61h-1.33c-.02-.4-.2-.68-.53-.85-.22-.11-.49-.17-.82-.17-.36 0-.66.07-.87.22s-.33.34-.33.6c0 .24.11.41.32.53.14.08.43.17.88.27l1.16.27c.51.12.89.28 1.14.48.39.31.59.76.59 1.35s-.23 1.1-.7 1.5-1.13.6-1.98.6-1.55-.2-2.05-.59c-.5-.39-.75-.93-.75-1.62h1.32ZM54.97 96.24h1.56l2.34 6.61h-1.5l-.44-1.36H54.5l-.45 1.36h-1.44l2.36-6.61Zm-.09 4.11h1.69l-.83-2.6-.86 2.6ZM64.09 96.24h1.99v6.61h-1.29V97.3l-1.25 5.54H62.2l-1.24-5.54v5.55h-1.29v-6.61h2.01l1.2 5.19 1.19-5.19ZM72.24 97.41h-3.5v1.4h3.21v1.15h-3.21v1.7h3.66v1.19h-5.01v-6.61h4.85v1.17ZM77.35 96.38c.46.15.84.43 1.13.84.23.33.39.68.47 1.07s.13.75.13 1.09c0 .88-.18 1.62-.53 2.23-.48.82-1.22 1.23-2.22 1.23h-2.85v-6.61h2.85c.41 0 .75.05 1.02.14Zm-2.53 1v4.31h1.28c.65 0 1.11-.32 1.36-.96.14-.35.21-.77.21-1.26 0-.67-.11-1.19-.32-1.55-.21-.36-.63-.54-1.26-.54h-1.28ZM81.37 102.85H80v-6.61h1.37v6.61ZM45.04 78.49h1.43l-2.25 6.61h-1.3l-2.23-6.61h1.47l1.43 5.02 1.45-5.02ZM52.18 79.66h-3.5v1.4h3.21v1.15h-3.21v1.7h3.66v1.19h-5.01v-6.61h4.85v1.17ZM53.4 78.49h1.45l2.62 4.61v-4.61h1.29v6.61h-1.38l-2.69-4.69v4.69H53.4v-6.61ZM63.92 78.64c.46.15.84.43 1.13.84.23.33.39.68.47 1.07s.13.75.13 1.09c0 .88-.18 1.62-.53 2.23-.48.82-1.22 1.23-2.22 1.23h-2.85v-6.61h2.85c.41 0 .75.05 1.02.14Zm-2.53 1v4.31h1.28c.65 0 1.11-.32 1.36-.96.14-.35.21-.77.21-1.26 0-.67-.11-1.19-.32-1.55-.21-.36-.63-.54-1.26-.54h-1.28ZM70.91 78.66c.24.1.45.26.62.46a1.885 1.885 0 0 1 .45 1.25c0 .31-.08.62-.24.93s-.42.52-.78.64c.3.12.52.3.65.52s.19.57.19 1.03v.44c0 .3.01.51.04.61.04.17.12.3.25.38v.17h-1.52c-.04-.15-.07-.26-.09-.35a2.76 2.76 0 0 1-.06-.57v-.61c-.01-.42-.09-.7-.23-.84s-.4-.21-.79-.21h-1.35v2.59H66.7v-6.61h3.16c.45 0 .8.07 1.04.17Zm-2.85.98v1.77h1.49c.3 0 .52-.04.66-.11.26-.13.39-.37.39-.74 0-.4-.13-.67-.38-.81-.14-.08-.35-.12-.64-.12h-1.52ZM78.19 79.66h-3.5v1.4h3.21v1.15h-3.21v1.7h3.66v1.19h-5.01v-6.61h4.85v1.17ZM83.3 78.64c.46.15.84.43 1.13.84.23.33.39.68.47 1.07s.13.75.13 1.09c0 .88-.18 1.62-.53 2.23-.48.82-1.22 1.23-2.22 1.23h-2.85v-6.61h2.85c.41 0 .75.05 1.02.14Zm-2.53 1v4.31h1.28c.65 0 1.11-.32 1.36-.96.14-.35.21-.77.21-1.26 0-.67-.11-1.19-.32-1.55-.21-.36-.63-.54-1.26-.54h-1.28ZM87.32 85.1h-1.37v-6.61h1.37v6.61ZM52.18 64.78v.15c.01.51.06.87.16 1.08s.3.31.6.31.51-.11.61-.34c.06-.13.09-.36.09-.68v-4.62h1.38v4.6c0 .56-.09 1.01-.28 1.34-.32.56-.9.83-1.74.83s-1.4-.22-1.69-.67-.43-1.06-.43-1.84v-.15h1.3ZM61.37 61.84h-3.5v1.4h3.21v1.15h-3.21v1.7h3.66v1.19h-5.01v-6.61h4.85v1.17ZM62.6 60.67H64v4.06c0 .45.05.79.16.99.17.37.53.56 1.09.56s.92-.19 1.09-.56c.11-.21.16-.54.16-.99v-4.06h1.4v4.06c0 .7-.11 1.25-.33 1.64-.41.72-1.18 1.08-2.32 1.08s-1.92-.36-2.33-1.08c-.22-.39-.33-.94-.33-1.64v-4.06ZM73.1 60.82c.46.15.84.43 1.13.84.23.33.39.68.47 1.07s.13.75.13 1.09c0 .88-.18 1.62-.53 2.23-.48.82-1.22 1.23-2.22 1.23h-2.85v-6.61h2.85c.41 0 .75.05 1.02.14Zm-2.53 1v4.31h1.28c.65 0 1.11-.32 1.36-.96.14-.35.21-.77.21-1.26 0-.67-.11-1.19-.32-1.55-.21-.36-.63-.54-1.26-.54h-1.28ZM77.12 67.28h-1.37v-6.61h1.37v6.61ZM44.56 43h1.99v6.61h-1.29v-5.55l-1.25 5.54h-1.34l-1.24-5.54v5.55h-1.29V43h2.01l1.2 5.19L44.54 43ZM52.71 44.17h-3.5v1.4h3.21v1.15h-3.21v1.7h3.66v1.19h-5.01V43h4.85v1.17ZM58.18 43.17c.24.1.45.26.62.46a1.885 1.885 0 0 1 .45 1.25c0 .31-.08.62-.24.93s-.42.52-.78.64c.3.12.52.3.65.52s.19.57.19 1.03v.44c0 .3.01.51.04.61.04.17.12.3.25.38v.17h-1.52c-.04-.15-.07-.26-.09-.35a2.76 2.76 0 0 1-.06-.57v-.61c-.01-.42-.09-.7-.23-.84s-.4-.21-.79-.21h-1.35v2.59h-1.35V43h3.16c.45 0 .8.07 1.04.17Zm-2.85.98v1.77h1.49c.3 0 .52-.04.66-.11.26-.13.39-.37.39-.74 0-.4-.13-.67-.38-.81-.14-.08-.35-.12-.64-.12h-1.52ZM61.21 43.69c.53-.54 1.21-.82 2.03-.82 1.1 0 1.9.36 2.41 1.09.28.41.43.82.45 1.23h-1.38c-.09-.32-.2-.56-.34-.72-.25-.29-.61-.43-1.09-.43s-.88.2-1.16.61-.43.98-.43 1.72.15 1.3.45 1.67.68.55 1.14.55.84-.16 1.08-.48c.14-.17.25-.43.34-.77h1.37c-.12.72-.42 1.31-.91 1.76s-1.11.68-1.87.68c-.94 0-1.68-.3-2.22-.91-.54-.61-.81-1.45-.81-2.52 0-1.15.31-2.04.92-2.67ZM71.44 43.17c.24.1.45.26.62.46a1.885 1.885 0 0 1 .45 1.25c0 .31-.08.62-.24.93s-.42.52-.78.64c.3.12.52.3.65.52s.19.57.19 1.03v.44c0 .3.01.51.04.61.04.17.12.3.25.38v.17H71.1c-.04-.15-.07-.26-.09-.35a2.76 2.76 0 0 1-.06-.57v-.61c-.01-.42-.09-.7-.23-.84s-.4-.21-.79-.21h-1.35v2.59h-1.35V43h3.16c.45 0 .8.07 1.04.17Zm-2.85.98v1.77h1.49c.3 0 .52-.04.66-.11.26-.13.39-.37.39-.74 0-.4-.13-.67-.38-.81-.14-.08-.35-.12-.64-.12h-1.52ZM78.72 44.17h-3.5v1.4h3.21v1.15h-3.21v1.7h3.66v1.19h-5.01V43h4.85v1.17ZM83.83 43.14c.46.15.84.43 1.13.84.23.33.39.68.47 1.07s.13.75.13 1.09c0 .88-.18 1.62-.53 2.23-.48.82-1.22 1.23-2.22 1.23h-2.85v-6.61h2.85c.41 0 .75.05 1.02.14Zm-2.53 1v4.31h1.28c.65 0 1.11-.32 1.36-.96.14-.35.21-.77.21-1.26 0-.67-.11-1.19-.32-1.55-.21-.36-.63-.54-1.26-.54h-1.28ZM87.85 49.6h-1.37v-6.61h1.37v6.61ZM50.62 7.47H52v5.42h3.3v1.19h-4.68V7.47ZM56.23 7.47h1.4v4.06c0 .45.05.79.16.99.17.37.53.56 1.09.56s.92-.19 1.09-.56c.11-.21.16-.54.16-.99V7.47h1.4v4.06c0 .7-.11 1.25-.33 1.64-.41.72-1.18 1.08-2.32 1.08s-1.92-.36-2.33-1.08c-.22-.39-.33-.94-.33-1.64V7.47ZM62.84 7.47h1.45l2.62 4.61V7.47h1.29v6.61h-1.38l-2.69-4.69v4.69h-1.29V7.47ZM73.36 7.61c.46.15.84.43 1.13.84.23.33.39.68.47 1.07s.13.75.13 1.09c0 .88-.18 1.62-.53 2.23-.48.82-1.22 1.23-2.22 1.23h-2.85V7.46h2.85c.41 0 .75.05 1.02.14Zm-2.53 1v4.31h1.28c.65 0 1.11-.32 1.36-.96.14-.35.21-.77.21-1.26 0-.67-.11-1.19-.32-1.55-.21-.36-.63-.54-1.26-.54h-1.28ZM77.38 14.08h-1.37V7.47h1.37v6.61ZM54 25.29h1.99v6.61H54.7v-5.55l-1.25 5.54h-1.34l-1.24-5.54v5.55h-1.29v-6.61h2.01l1.2 5.19 1.19-5.19ZM59.15 25.29h1.56l2.34 6.61h-1.5l-.44-1.36h-2.43l-.45 1.36h-1.44l2.36-6.61Zm-.09 4.11h1.69l-.83-2.6-.86 2.6ZM68.12 25.46c.24.1.45.26.62.46a1.885 1.885 0 0 1 .45 1.25c0 .31-.08.62-.24.93s-.42.52-.78.64c.3.12.52.3.65.52s.19.57.19 1.03v.44c0 .3.01.51.04.61.04.17.12.3.25.38v.17h-1.52c-.04-.15-.07-.26-.09-.35a2.76 2.76 0 0 1-.06-.57v-.61c-.01-.42-.09-.7-.23-.84s-.4-.21-.79-.21h-1.35v2.59h-1.35v-6.61h3.16c.45 0 .8.07 1.04.17Zm-2.85.98v1.77h1.49c.3 0 .52-.04.66-.11.26-.13.39-.37.39-.74 0-.4-.13-.67-.38-.81-.14-.08-.35-.12-.64-.12h-1.52ZM74.39 25.43c.46.15.84.43 1.13.84.23.33.39.68.47 1.07s.13.75.13 1.09c0 .88-.18 1.62-.53 2.23-.48.82-1.22 1.23-2.22 1.23h-2.85v-6.61h2.85c.41 0 .75.05 1.02.14Zm-2.53 1v4.31h1.28c.65 0 1.11-.32 1.36-.96.14-.35.21-.77.21-1.26 0-.67-.11-1.19-.32-1.55-.21-.36-.63-.54-1.26-.54h-1.28ZM78.41 31.9h-1.37v-6.61h1.37v6.61Z"/></svg>