<svg xmlns="http://www.w3.org/2000/svg" data-name="Calque 1" viewBox="0 0 128 128.13"><path d="M25.28 109.78h72.06v14.45H25.28z" style="fill:#d6d6d6;stroke:#000;stroke-miterlimit:10"/><path d="M25.28 92.06h72.06v14.45H25.28z" style="fill:#baa584;stroke:#000;stroke-miterlimit:10"/><path d="M25.28 74.57h72.06v14.45H25.28z" style="fill:#fab0b4;stroke:#000;stroke-miterlimit:10"/><path d="M25.28 56.79h72.06v14.45H25.28z" style="fill:#bfe6fc;stroke:#000;stroke-miterlimit:10"/><path d="M25.28 39.1h72.06v14.45H25.28z" style="fill:#ffbeed;stroke:#000;stroke-miterlimit:10"/><path d="M25.28 21.37h72.06v14.45H25.28z" style="stroke:#000;stroke-miterlimit:10;fill:#fce9b9"/><path d="M25.28 3.59h72.06v14.45H25.28z" style="fill:#bbfedb;stroke:#000;stroke-miterlimit:10"/><path d="M45.04 7.29h2.13v7.08h-1.38V8.43l-1.34 5.94h-1.44l-1.33-5.94V14.37H40.3V7.29h2.15l1.29 5.56 1.28-5.56ZM53.99 13.74c-.53.55-1.31.83-2.32.83s-1.78-.28-2.32-.83c-.72-.68-1.08-1.65-1.08-2.92s.36-2.27 1.08-2.92c.53-.55 1.31-.83 2.32-.83s1.78.27 2.32.83c.71.65 1.07 1.62 1.07 2.92s-.36 2.24-1.07 2.92Zm-.92-1.08c.34-.43.52-1.05.52-1.84s-.17-1.41-.52-1.84-.81-.65-1.39-.65-1.05.22-1.4.65c-.35.43-.52 1.05-.52 1.84s.17 1.41.52 1.84c.35.43.82.65 1.4.65s1.05-.22 1.39-.65ZM56.16 7.29h1.55l2.81 4.93V7.29h1.38v7.08h-1.48l-2.88-5.02v5.02h-1.38V7.29ZM67.43 7.44c.5.16.9.46 1.21.9.25.35.42.73.5 1.14s.13.8.13 1.17c0 .94-.19 1.74-.57 2.39-.51.88-1.3 1.32-2.37 1.32h-3.05V7.28h3.05c.44 0 .8.06 1.1.15Zm-2.71 1.08v4.62h1.37c.7 0 1.19-.34 1.46-1.03.15-.38.23-.83.23-1.35 0-.72-.11-1.27-.34-1.66s-.68-.58-1.35-.58h-1.37ZM72.41 7.29h1.67l2.5 7.08h-1.6l-.47-1.45H71.9l-.48 1.45h-1.55l2.53-7.08Zm-.1 4.4h1.81l-.89-2.78-.92 2.78ZM80.62 7.29h1.68l-2.37 4.42v2.65h-1.48v-2.65L76 7.29h1.74l1.47 3.08 1.41-3.08ZM44.13 25.07v1.25h-2.12v5.82h-1.49v-5.82h-2.13v-1.25h5.73ZM45 25.07h1.5v4.35c0 .49.06.84.17 1.06.18.4.57.6 1.17.6s.98-.2 1.16-.6c.12-.22.17-.58.17-1.06v-4.35h1.5v4.35c0 .75-.12 1.34-.35 1.76-.43.77-1.26 1.15-2.49 1.15s-2.05-.38-2.49-1.15c-.23-.42-.35-1-.35-1.76v-4.35ZM57.33 26.32h-3.74v1.5h3.44v1.23h-3.44v1.82h3.92v1.27h-5.36v-7.08h5.19v1.25ZM59.72 29.96c.05.32.14.56.27.72.25.29.67.44 1.26.44.36 0 .65-.04.87-.12.42-.15.63-.42.63-.82a.6.6 0 0 0-.31-.54c-.21-.12-.53-.24-.98-.33l-.77-.17c-.75-.17-1.27-.35-1.55-.54-.48-.33-.71-.84-.71-1.53 0-.63.23-1.16.7-1.58.47-.42 1.15-.63 2.06-.63.75 0 1.4.2 1.93.59.53.4.81.97.84 1.72h-1.42c-.03-.43-.22-.73-.57-.91-.24-.12-.53-.18-.88-.18-.39 0-.7.08-.93.23-.23.15-.35.37-.35.64 0 .25.12.44.34.57.15.08.46.18.94.29l1.24.29c.54.13.95.3 1.22.51.42.33.63.81.63 1.45s-.25 1.18-.75 1.61c-.5.43-1.21.64-2.12.64s-1.67-.21-2.2-.63c-.53-.42-.8-1-.8-1.74h1.41ZM69.36 25.22c.5.16.9.46 1.21.9.25.35.42.73.5 1.14s.13.8.13 1.17c0 .94-.19 1.74-.57 2.39-.51.88-1.3 1.32-2.37 1.32h-3.05v-7.08h3.05c.44 0 .8.06 1.1.15Zm-2.71 1.08v4.62h1.37c.7 0 1.19-.34 1.46-1.03.15-.38.23-.83.23-1.35 0-.72-.11-1.27-.34-1.66s-.68-.58-1.35-.58h-1.37ZM74.34 25.07h1.67l2.5 7.08h-1.6l-.47-1.45h-2.61l-.48 1.45H71.8l2.53-7.08Zm-.1 4.4h1.81l-.89-2.78-.92 2.78ZM82.55 25.07h1.68l-2.37 4.42v2.65h-1.48v-2.65l-2.45-4.42h1.74l1.47 3.08 1.41-3.08ZM31.5 42.8l.93 4.05.2 1.13.2-1.1.8-4.08h1.56l.84 4.05.21 1.13.22-1.08.94-4.1h1.5l-1.99 7.08h-1.42l-.85-4.14-.25-1.37-.25 1.37-.85 4.14h-1.37l-2.01-7.08h1.57ZM45.05 44.06h-3.74v1.5h3.44v1.23h-3.44v1.82h3.92v1.27h-5.36V42.8h5.19v1.25ZM50.52 42.96c.5.16.9.46 1.21.9.25.35.42.73.5 1.14s.13.8.13 1.17c0 .94-.19 1.74-.57 2.39-.51.88-1.3 1.32-2.37 1.32h-3.05V42.8h3.05c.44 0 .8.06 1.1.15Zm-2.71 1.08v4.62h1.37c.7 0 1.19-.34 1.46-1.03.15-.38.23-.83.23-1.35 0-.72-.11-1.27-.34-1.66s-.68-.58-1.35-.58h-1.37ZM53.45 42.8H55l2.81 4.93V42.8h1.38v7.08h-1.48l-2.88-5.02v5.02h-1.38V42.8ZM65.8 44.06h-3.74v1.5h3.44v1.23h-3.44v1.82h3.92v1.27h-5.36V42.8h5.19v1.25ZM68.19 47.69c.05.32.14.56.27.72.25.29.67.44 1.26.44.36 0 .65-.04.87-.12.42-.15.63-.42.63-.82a.6.6 0 0 0-.31-.54c-.21-.12-.53-.24-.98-.33l-.77-.17c-.75-.17-1.27-.35-1.55-.54-.48-.33-.71-.84-.71-1.53 0-.63.23-1.16.7-1.58.47-.42 1.15-.63 2.06-.63.75 0 1.4.2 1.93.59.53.4.81.97.84 1.72h-1.42c-.03-.43-.22-.73-.57-.91-.24-.12-.53-.18-.88-.18-.39 0-.7.08-.93.23-.23.15-.35.37-.35.64 0 .25.12.44.34.57.15.08.46.18.94.29l1.24.29c.54.13.95.3 1.22.51.42.33.63.81.63 1.45s-.25 1.18-.75 1.61c-.5.43-1.21.64-2.12.64s-1.67-.21-2.2-.63c-.53-.42-.8-1-.8-1.74h1.41ZM77.83 42.96c.5.16.9.46 1.21.9.25.35.42.73.5 1.14s.13.8.13 1.17c0 .94-.19 1.74-.57 2.39-.51.88-1.3 1.32-2.37 1.32h-3.05V42.8h3.05c.44 0 .8.06 1.1.15Zm-2.71 1.08v4.62h1.37c.7 0 1.19-.34 1.46-1.03.15-.38.23-.83.23-1.35 0-.72-.11-1.27-.34-1.66s-.68-.58-1.35-.58h-1.37ZM82.81 42.8h1.67l2.5 7.08h-1.6l-.47-1.45H82.3l-.48 1.45h-1.55l2.53-7.08Zm-.1 4.4h1.81l-.89-2.78-.92 2.78ZM91.02 42.8h1.68l-2.37 4.42v2.65h-1.48v-2.65L86.4 42.8h1.74l1.47 3.08 1.41-3.08ZM40.31 60.49v1.25h-2.12v5.82H36.7v-5.82h-2.13v-1.25h5.73ZM41.17 67.57v-7.08h1.47v2.7h2.75v-2.7h1.47v7.08h-1.47v-3.16h-2.75v3.16h-1.47ZM48.28 60.49h1.5v4.35c0 .49.06.84.17 1.06.18.4.57.6 1.17.6s.98-.2 1.16-.6c.12-.22.17-.58.17-1.06v-4.35h1.5v4.35c0 .75-.12 1.34-.35 1.76-.43.77-1.26 1.15-2.49 1.15s-2.05-.38-2.49-1.15c-.23-.42-.35-1-.35-1.76v-4.35ZM59.91 60.68c.26.11.48.28.66.49.15.18.27.38.36.6.09.22.13.47.13.74 0 .34-.08.67-.25.99-.17.32-.45.55-.84.69.33.13.56.32.69.56.14.24.2.61.2 1.11v.48c0 .32.01.54.04.66.04.18.13.32.27.4v.18h-1.63c-.04-.16-.08-.28-.1-.38-.04-.2-.06-.4-.06-.61v-.66c-.02-.45-.09-.75-.24-.9-.15-.15-.43-.23-.84-.23h-1.44v2.77h-1.45v-7.08h3.38c.48 0 .86.07 1.12.18Zm-3.06 1.05v1.9h1.59c.32 0 .55-.04.71-.12.28-.13.42-.4.42-.8 0-.43-.13-.72-.41-.86-.15-.08-.38-.12-.68-.12h-1.63ZM63.54 65.39c.05.32.14.56.27.72.25.29.67.44 1.26.44.36 0 .65-.04.87-.12.42-.15.63-.42.63-.82a.6.6 0 0 0-.31-.54c-.21-.12-.53-.24-.98-.33l-.77-.17c-.75-.17-1.27-.35-1.55-.54-.48-.33-.71-.84-.71-1.53 0-.63.23-1.16.7-1.58.47-.42 1.15-.63 2.06-.63.75 0 1.4.2 1.93.59.53.4.81.97.84 1.72h-1.42c-.03-.43-.22-.73-.57-.91-.24-.12-.53-.18-.88-.18-.39 0-.7.08-.93.23-.23.15-.35.37-.35.64 0 .25.12.44.34.57.15.08.46.18.94.29l1.24.29c.54.13.95.3 1.22.51.42.33.63.81.63 1.45s-.25 1.18-.75 1.61c-.5.43-1.21.64-2.12.64s-1.67-.21-2.2-.63c-.53-.42-.8-1-.8-1.74h1.41ZM73.18 60.65c.5.16.9.46 1.21.9.25.35.42.73.5 1.14s.13.8.13 1.17c0 .94-.19 1.74-.57 2.39-.51.88-1.3 1.32-2.37 1.32h-3.05v-7.08h3.05c.44 0 .8.06 1.1.15Zm-2.71 1.08v4.62h1.37c.7 0 1.19-.34 1.46-1.03.15-.38.23-.83.23-1.35 0-.72-.11-1.27-.34-1.66s-.68-.58-1.35-.58h-1.37ZM78.16 60.49h1.67l2.5 7.08h-1.6l-.47-1.45h-2.61l-.48 1.45h-1.55l2.53-7.08Zm-.1 4.4h1.81l-.89-2.78-.92 2.78ZM86.37 60.49h1.68l-2.37 4.42v2.65H84.2v-2.65l-2.45-4.42h1.74l1.47 3.08 1.41-3.08ZM43.89 78.27h5.04v1.24h-3.58v1.63h3.13v1.23h-3.13v2.97h-1.47v-7.07ZM54.43 78.44c.26.11.48.28.66.49.15.18.27.38.36.6.09.22.13.47.13.74 0 .34-.08.67-.25.99-.17.32-.45.55-.84.69.33.13.56.32.69.56.14.24.2.61.2 1.11v.48c0 .32.01.54.04.66.04.18.13.32.27.4v.18h-1.63c-.04-.16-.08-.28-.1-.38-.04-.2-.06-.4-.06-.61v-.66c-.02-.45-.09-.75-.24-.9-.15-.15-.43-.23-.84-.23h-1.44v2.77h-1.45v-7.08h3.38c.48 0 .86.07 1.12.18Zm-3.06 1.05v1.9h1.59c.32 0 .55-.04.71-.12.28-.13.42-.4.42-.8 0-.43-.13-.72-.41-.86-.15-.08-.38-.12-.68-.12h-1.63ZM58.34 85.34h-1.47v-7.08h1.47v7.08ZM63.87 78.41c.5.16.9.46 1.21.9.25.35.42.73.5 1.14s.13.8.13 1.17c0 .94-.19 1.74-.57 2.39-.51.88-1.3 1.32-2.37 1.32h-3.05v-7.08h3.05c.44 0 .8.06 1.1.15Zm-2.71 1.08v4.62h1.37c.7 0 1.19-.34 1.46-1.03.15-.38.23-.83.23-1.35 0-.72-.11-1.27-.34-1.66s-.68-.58-1.35-.58h-1.37ZM68.85 78.26h1.67l2.5 7.08h-1.6l-.47-1.45h-2.61l-.48 1.45h-1.55l2.53-7.08Zm-.1 4.4h1.81l-.89-2.78-.92 2.78ZM77.06 78.26h1.68l-2.37 4.42v2.65h-1.48v-2.65l-2.45-4.42h1.74l1.47 3.08 1.41-3.08ZM36.48 100.66c.04.32.13.56.27.72.24.29.66.44 1.26.44.36 0 .64-.04.87-.12.42-.15.63-.42.63-.82a.6.6 0 0 0-.31-.54c-.21-.12-.53-.24-.98-.33l-.77-.17c-.75-.17-1.27-.35-1.55-.54-.48-.33-.71-.84-.71-1.53 0-.63.23-1.16.7-1.58.47-.42 1.15-.63 2.06-.63.75 0 1.4.2 1.93.59.53.4.81.97.84 1.72H39.3c-.03-.43-.22-.73-.57-.91-.24-.12-.53-.18-.88-.18-.39 0-.7.08-.93.23-.23.15-.35.37-.35.64 0 .25.12.44.34.57.15.08.46.18.94.29l1.24.29c.54.13.95.3 1.22.51.42.33.63.81.63 1.45s-.25 1.18-.75 1.61-1.21.64-2.12.64-1.67-.21-2.2-.63-.8-1-.8-1.74h1.41ZM43.99 95.76h1.67l2.5 7.08h-1.6l-.47-1.45h-2.61l-.48 1.45h-1.55l2.53-7.08Zm-.1 4.4h1.81l-.89-2.78-.92 2.78ZM53.48 95.76v1.25h-2.12v5.82h-1.49v-5.82h-2.13v-1.25h5.73ZM54.35 95.76h1.5v4.35c0 .49.06.84.17 1.06.18.4.57.6 1.17.6s.98-.2 1.16-.6c.12-.22.17-.58.17-1.06v-4.35h1.5v4.35c0 .75-.12 1.34-.35 1.76-.43.77-1.26 1.15-2.49 1.15s-2.05-.38-2.49-1.15c-.23-.42-.35-1-.35-1.76v-4.35ZM65.98 95.95c.26.11.48.28.66.49.15.18.27.38.36.6.09.22.13.47.13.74 0 .34-.09.67-.25.99-.17.32-.45.55-.84.69.33.13.56.32.7.56.13.24.2.61.2 1.11v.48c0 .32.01.54.04.66.04.18.13.32.27.4v.18h-1.63c-.04-.16-.08-.28-.1-.38-.04-.2-.06-.4-.06-.61v-.66c-.02-.45-.09-.75-.24-.9-.15-.15-.43-.23-.84-.23h-1.44v2.77h-1.45v-7.08h3.38c.48 0 .86.07 1.12.18ZM62.93 97v1.9h1.59c.32 0 .55-.04.71-.12.28-.13.42-.4.42-.8 0-.43-.13-.72-.4-.86-.15-.08-.38-.12-.69-.12h-1.63ZM72.7 95.92c.5.16.9.46 1.21.9.25.35.41.73.5 1.14s.13.8.13 1.17c0 .94-.19 1.74-.57 2.39-.51.88-1.3 1.32-2.37 1.32h-3.05v-7.08h3.05c.44 0 .8.06 1.1.15ZM69.99 97v4.62h1.37c.7 0 1.19-.34 1.46-1.03.15-.38.23-.83.23-1.35 0-.72-.11-1.27-.34-1.66-.22-.39-.68-.58-1.35-.58h-1.37ZM77.67 95.76h1.67l2.5 7.08h-1.6l-.47-1.45h-2.61l-.48 1.45h-1.55l2.53-7.08Zm-.1 4.4h1.81l-.89-2.78-.92 2.78ZM85.88 95.76h1.68l-2.37 4.42v2.65h-1.48v-2.65l-2.45-4.42H83l1.47 3.08 1.41-3.08ZM42.67 118.37c.05.32.14.56.27.72.25.29.67.44 1.26.44.36 0 .65-.04.87-.12.42-.15.63-.42.63-.82a.6.6 0 0 0-.31-.54c-.21-.12-.53-.24-.98-.33l-.77-.17c-.75-.17-1.27-.35-1.55-.54-.48-.33-.71-.84-.71-1.53 0-.63.23-1.16.7-1.58.47-.42 1.15-.63 2.06-.63.75 0 1.4.2 1.93.59.53.4.81.97.84 1.72h-1.42c-.03-.43-.22-.73-.57-.91-.24-.12-.53-.18-.88-.18-.39 0-.7.08-.93.23-.23.15-.35.37-.35.64 0 .25.12.44.34.57.15.08.46.18.94.29l1.24.29c.54.13.95.3 1.22.51.42.33.63.81.63 1.45s-.25 1.18-.75 1.61c-.5.43-1.21.64-2.12.64s-1.67-.21-2.2-.63c-.53-.42-.8-1-.8-1.74h1.41ZM48.16 113.48h1.5v4.35c0 .49.06.84.17 1.06.18.4.57.6 1.17.6s.98-.2 1.16-.6c.12-.22.17-.58.17-1.06v-4.35h1.5v4.35c0 .75-.12 1.34-.35 1.76-.43.77-1.26 1.15-2.49 1.15s-2.05-.38-2.49-1.15c-.23-.42-.35-1-.35-1.76v-4.35ZM55.23 113.48h1.55l2.81 4.93v-4.93h1.38v7.08h-1.48l-2.88-5.02v5.02h-1.38v-7.08ZM66.5 113.63c.5.16.9.46 1.21.9.25.35.42.73.5 1.14s.13.8.13 1.17c0 .94-.19 1.74-.57 2.39-.51.88-1.3 1.32-2.37 1.32h-3.05v-7.08h3.05c.44 0 .8.06 1.1.15Zm-2.71 1.08v4.62h1.37c.7 0 1.19-.34 1.46-1.03.15-.38.23-.83.23-1.35 0-.72-.11-1.27-.34-1.66s-.68-.58-1.35-.58h-1.37ZM71.48 113.48h1.67l2.5 7.08h-1.6l-.47-1.45h-2.61l-.48 1.45h-1.55l2.53-7.08Zm-.1 4.4h1.81l-.89-2.78-.92 2.78ZM79.69 113.48h1.68L79 117.9v2.65h-1.48v-2.65l-2.45-4.42h1.74l1.47 3.08 1.41-3.08Z"/></svg>