<svg xmlns="http://www.w3.org/2000/svg" id="Calque_1" data-name="Calque 1" viewBox="0 0 128 128"><defs><style>.cls-5{stroke:#000}.cls-6{fill:#fff}.cls-5,.cls-8{fill:none}.cls-10{font-family:Helvetica-Bold,Helvetica;font-size:3px;font-weight:700}.cls-10,.cls-11{fill:#f7a62f}.cls-15{fill:#1f7baf}.cls-16{fill:#1d1d1b}.cls-17{fill:#87ccf3}.cls-8{stroke:#f7a62f}.cls-5,.cls-8{stroke-miterlimit:10}.cls-8{stroke-width:.15px}</style></defs><path d="M22.84 5.21h82.31V122.8H22.84z" class="cls-6"/><path d="M60.76 17.36c-.12-.12-.46-.35-.52-.35-.04 0-.1-.04-.12-.08 0-.02 0-.04.02-.07.02-.04.03-.06.02-.19 0-.11 0-.16-.02-.18-.02-.03-.04-.08-.08-.16-.01-.03-.05-.07-.08-.11s-.07-.08-.09-.11a.522.522 0 0 0-.15-.13c-.12-.08-.18-.13-.2-.18-.02-.04.03-.11.13-.17l.09-.05h.11c.55.07 1.15.44 1.45.89.12.17.19.38.19.53 0 .06-.05.19-.08.22-.01.01-.05.02-.08.03-.04 0-.09.03-.17.07-.13.08-.19.1-.29.1-.08 0-.08 0-.12-.05Zm-3.13-.02c-.07-.03-.09-.03-.17-.03h-.09l-.01-.03c-.01-.04-.01-.04-.08-.03h-.08s-.03-.03-.04-.06c-.03-.06-.07-.11-.09-.11-.03 0-.05-.05-.06-.16 0-.07-.02-.18-.06-.33a4.08 4.08 0 0 1-.05-.23l.06.04c.03.02.09.05.13.06.07.02.1.03.27.03s.2 0 .29-.03c.14-.04.3-.12.39-.19.08-.06.14-.13.26-.3.08-.11.08-.12.18-.17.09-.05.11-.05.18-.05.06 0 .08.01.11.04.04.04.07.11.1.25.02.08.02.14.02.33 0 .34-.02.42-.19.63-.11.14-.18.2-.26.22-.04.01-.1.04-.15.07-.15.09-.17.1-.4.1-.19 0-.2 0-.27-.03Zm-.28-2-.11-.02c-.47-.08-.95-.43-1.03-.75-.01-.05 0-.06.06-.21.04-.09.09-.17.1-.18.05-.05.14-.07.16-.03.02.06.1-.03.11-.12v-.05h.11v-.12c.02-.14.03-.2.07-.24.03-.03.03-.03.04 0 0 .01.03.06.05.11.02.05.06.13.09.19.15.27.33.46.47.51.02 0 .06.02.08.03.07.03.16.03.35 0 .27-.04.35-.03.42.04.03.03.05.06.06.13.04.14.04.19 0 .26-.05.11-.23.28-.38.36-.1.05-.58.12-.67.1Zm4.04-.17s-.11-.02-.14-.01h-.06l-.01-.05a.31.31 0 0 0-.16-.2c-.19-.13-.48-.18-.99-.16-.33 0-.31.01-.35-.1a.256.256 0 0 1 0-.21c0-.02.05-.07.09-.11.17-.16.45-.27.79-.34.17-.03.63-.03.77 0 .24.05.4.13.53.26.13.12.2.26.23.44.01.07.01.08-.01.13-.01.03-.03.08-.04.1 0 .03-.02.06-.03.07-.02.02-.11.05-.18.06-.04 0-.04.01-.04.04.01.04-.03.06-.17.09-.07.01-.12.02-.13.02 0 0-.05 0-.09-.02Zm-2.64-1.12s-.06-.03-.09-.07c-.02-.03-.04-.06-.06-.07-.08-.05-.21-.2-.32-.37l-.13-.18v-.18c-.06-.14.02-.4.18-.6.18-.21.28-.29.41-.33l.07-.02.1.03.1.03.1-.02c.06-.01.2-.05.31-.08.23-.07.31-.07.34-.04.04.04.02.06-.1.12-.11.05-.11.06-.17.15-.07.12-.09.16-.1.35v.15l.04.05c.03.03.06.07.07.09.02.04.02.04 0 .1-.01.04-.04.16-.07.27-.02.11-.05.24-.07.29-.05.18-.14.29-.23.3a.44.44 0 0 0-.1.02c-.07.02-.24.01-.3 0Z" style="fill:#f05921"/><path d="M63.88 16.35c-.14-.03-.22-.05-.31-.09-.32-.15-.49-.44-.53-.9-.03-.3.02-.61.13-.83.14-.28.38-.45.71-.5.13-.02.39 0 .51.02.25.06.43.21.53.41.09.19.14.42.14.71v.15h-.4c-.22.01-.51.02-.65.02-.31 0-.33 0-.33.05 0 .06.03.16.06.23.05.09.12.15.22.2.07.03.09.04.21.04.21 0 .41-.05.58-.15l.07-.05.11.2.11.2-.03.03c-.06.05-.29.15-.4.19-.17.05-.3.07-.51.07h-.23Zm.54-1.49c0-.12-.02-.17-.07-.24a.284.284 0 0 0-.1-.09c-.06-.03-.08-.03-.17-.03-.07 0-.13 0-.15.02-.14.06-.21.18-.23.37v.07h.74v-.1Zm.97.34v-1.13h.54c.59 0 .66 0 .84.07.4.15.63.51.63 1.03 0 .67-.33 1.06-.97 1.14-.06 0-.31.01-.57.01h-.46v-1.13Zm1.01.67c.19-.05.3-.17.36-.39.03-.13.04-.44 0-.56-.06-.23-.2-.37-.41-.42a1.18 1.18 0 0 0-.22-.02h-.14v1.42h.17c.09-.01.2-.02.24-.03Zm1.29-.67v-1.13h1.43v.43h-.84v.45h.74v.41h-.74v.96h-.6v-1.13Z" style="fill:#003873"/><path d="M25.32 7.09H50.5v115.7H25.32z" style="fill:#fce9b9"/><path d="M22.84 5.21h82.31V122.8H22.84z" class="cls-5"/><path d="M65.97 24.18h22v1h-22zM65.97 26.03h28.36v1H65.97z" class="cls-16"/><text class="cls-10" transform="matrix(.7 0 0 .7 27.2 12.86)"><tspan x="0" y="0">NOUS</tspan></text><text class="cls-10" transform="translate(33.27 12.86)"><tspan x="0" y="0"> </tspan></text><text class="cls-10" transform="matrix(.7 0 0 .7 34.1 12.86)"><tspan x="0" y="0">CON</tspan><tspan x="6.67" y="0" style="letter-spacing:-.07em">T</tspan><tspan x="8.28" y="0">ACTER</tspan></text><path d="M65.97 27.88h12.81v1H65.97z" class="cls-16"/><path d="M27.2 14.73h19.84v6.91H27.2zM27.36 27.6h19.69v1.97H27.36zM27.36 32.59h19.69v1.97H27.36zM27.36 40.29h19.69v1.97H27.36zM27.36 52.3h19.69v1.97H27.36zM27.36 56.36h19.69v1.97H27.36z" class="cls-6"/><path d="M47.04 23.7v34.74H27.2V26.79c0-1.71 1.78-3.09 3.98-3.09h15.86Z" style="stroke-miterlimit:10;stroke:#f7a62f;stroke-width:.23px;fill:none"/><path d="M27.62 36.6h18.96M27.62 43.97h18.96" class="cls-8"/><path d="M27.62 49.93h18.96" style="stroke-width:.15px;stroke-miterlimit:10;fill:none;stroke:#000"/><path d="M35.22 28.22h5.39v.73h-5.39z" class="cls-11"/><path d="M28.57 30.71h17.38v.73H28.57zM28.1 38.94h17.85v.73H28.1zM28.57 42.75h17.38v.73H28.57zM28.57 34.88h17.38v.73H28.57z" class="cls-16"/><path d="M28.57 33.21h17.38v.73H28.57zM28.57 40.91h17.38v.73H28.57z" class="cls-11"/><path d="M28.57 46.54h17.38v.73H28.57zM28.57 47.97h17.38v.73H28.57zM28.57 50.89h17.38v.73H28.57zM28.57 54.95h17.38v.73H28.57z" class="cls-16"/><path d="M28.57 56.98h17.38v.73H28.57z" style="fill:#76ac75"/><path d="M28.57 52.92h17.38v.73H28.57z" class="cls-16"/><path d="M29.02 25.94h-.23v.39h-.22v-1.08h.47c.11 0 .19.03.26.08s.1.14.1.26c0 .13-.03.22-.1.27s-.16.08-.28.08Zm.11-.23s.04-.07.04-.12-.01-.1-.04-.12a.214.214 0 0 0-.12-.04h-.21v.32h.21c.05 0 .09-.01.12-.04ZM29.58 25.62c.06-.07.15-.11.28-.11.09 0 .17.02.23.05.07.04.1.1.1.2V26.22c0 .03 0 .05.01.06s.02.02.03.02v.03H30s-.01-.03-.01-.05v-.05c-.03.03-.06.06-.1.08a.26.26 0 0 1-.15.04.28.28 0 0 1-.18-.06c-.05-.04-.07-.1-.07-.18 0-.1.04-.17.11-.21.04-.02.1-.04.18-.05h.07s.07-.02.08-.03c.03-.01.04-.03.04-.06s-.01-.06-.03-.07a.25.25 0 0 0-.1-.02c-.05 0-.08.01-.1.04-.01.02-.02.04-.03.07h-.2c0-.07.02-.13.06-.17Zm.16.56s.04.02.07.02c.04 0 .09-.01.12-.04.04-.03.06-.07.06-.14v-.08s-.03.02-.04.02c-.01 0-.03 0-.06.01h-.05s-.08.03-.09.04c-.03.02-.05.05-.05.09 0 .04 0 .06.03.08ZM30.78 25.73c-.08 0-.14.03-.17.08-.02.03-.02.08-.02.14v.38h-.21v-.8h.2v.14a.63.63 0 0 1 .08-.11c.04-.03.09-.05.15-.05h.02v.21h-.06ZM31.38 25.25h.22v1.08h-.22v-1.08ZM32.18 25.69c-.07 0-.12.03-.15.09-.01.03-.02.07-.02.12v.43h-.21v-.8h.2v.12s.05-.07.08-.09c.04-.03.1-.05.16-.05.08 0 .15.02.2.06.05.04.08.11.08.21v.54h-.21v-.49s0-.07-.02-.1c-.02-.04-.06-.06-.12-.06ZM33.08 26.18v.16h-.1c-.1 0-.17 0-.2-.05a.16.16 0 0 1-.04-.11v-.49h-.11v-.15h.11v-.22h.21v.22h.13v.15h-.13v.42s0 .05.01.06c0 0 .03.01.08.01h.04ZM33.9 26.1s-.03.1-.07.14c-.07.08-.16.12-.29.12-.1 0-.19-.03-.27-.1s-.12-.17-.12-.32c0-.14.04-.24.11-.32a.37.37 0 0 1 .27-.11c.07 0 .13.01.18.04s.1.06.13.12c.03.05.05.1.06.16v.16h-.55c0 .08.03.14.08.17.03.02.06.03.1.03.04 0 .08-.01.1-.04.01-.01.03-.03.04-.05h.21Zm-.21-.24c0-.06-.02-.1-.05-.13a.15.15 0 0 0-.11-.04c-.05 0-.09.02-.11.05-.03.03-.04.07-.05.12h.32ZM34.45 25.73c-.08 0-.14.03-.17.08-.02.03-.02.08-.02.14v.38h-.21v-.8h.2v.14a.63.63 0 0 1 .08-.11c.04-.03.09-.05.15-.05h.02v.21h-.06ZM35.01 25.69c-.07 0-.12.03-.15.09-.01.03-.02.07-.02.12v.43h-.21v-.8h.2v.12s.05-.07.08-.09c.04-.03.1-.05.16-.05.08 0 .15.02.2.06.05.04.08.11.08.21v.54h-.21v-.49s0-.07-.02-.1c-.02-.04-.06-.06-.12-.06ZM36.23 26.1s-.03.1-.07.14c-.07.08-.16.12-.29.12-.1 0-.19-.03-.27-.1s-.12-.17-.12-.32c0-.14.04-.24.11-.32a.37.37 0 0 1 .27-.11c.07 0 .13.01.18.04s.1.06.13.12c.03.05.05.1.06.16v.16h-.55c0 .08.03.14.08.17.03.02.06.03.1.03.04 0 .08-.01.1-.04.01-.01.03-.03.04-.05h.21Zm-.21-.24c0-.06-.02-.1-.05-.13a.15.15 0 0 0-.11-.04c-.05 0-.09.02-.11.05-.03.03-.04.07-.05.12h.32ZM36.75 26.18v.16h-.1c-.1 0-.17 0-.2-.05a.16.16 0 0 1-.04-.11v-.49h-.11v-.15h.11v-.22h.21v.22h.13v.15h-.13v.42s0 .05.01.06c0 0 .03.01.08.01h.04ZM29.02 38.01h-.23v.39h-.22v-1.08h.47c.11 0 .19.03.26.08s.1.14.1.26c0 .13-.03.22-.1.27s-.16.08-.28.08Zm.11-.23s.04-.07.04-.12-.01-.1-.04-.12a.214.214 0 0 0-.12-.04h-.21v.32h.21c.05 0 .09-.01.12-.04ZM29.58 37.68c.06-.07.15-.11.28-.11.09 0 .17.02.23.05.07.04.1.1.1.2V38.28c0 .03 0 .05.01.06s.02.02.03.02v.03H30s-.01-.03-.01-.05v-.05c-.03.03-.06.06-.1.08a.26.26 0 0 1-.15.04.28.28 0 0 1-.18-.06c-.05-.04-.07-.1-.07-.18 0-.1.04-.17.11-.21.04-.02.1-.04.18-.05h.07s.07-.02.08-.03c.03-.01.04-.03.04-.06s-.01-.06-.03-.07a.25.25 0 0 0-.1-.02c-.05 0-.08.01-.1.04-.01.02-.02.04-.03.07h-.2c0-.07.02-.13.06-.17Zm.16.56s.04.02.07.02c.04 0 .09-.01.12-.04.04-.03.06-.07.06-.14V38s-.03.02-.04.02c-.01 0-.03 0-.06.01h-.05s-.08.03-.09.04c-.03.02-.05.05-.05.09 0 .04 0 .06.03.08ZM30.78 37.79c-.08 0-.14.03-.17.08-.02.03-.02.08-.02.14v.38h-.21v-.8h.2v.14a.63.63 0 0 1 .08-.11c.04-.03.09-.05.15-.05h.02v.21h-.06ZM31.75 38.25v.16h-.1c-.1 0-.17 0-.2-.05a.16.16 0 0 1-.04-.11v-.49h-.11v-.15h.11v-.22h.21v.22h.13v.15h-.13v.42s0 .05.01.06c0 0 .03.01.08.01h.04ZM32.57 38.16s-.03.1-.07.14c-.07.08-.16.12-.29.12-.1 0-.19-.03-.27-.1s-.12-.17-.12-.32c0-.14.04-.24.11-.32a.37.37 0 0 1 .27-.11c.07 0 .13.01.18.04s.1.06.13.12c.03.05.05.1.06.16v.16h-.55c0 .08.03.14.08.17.03.02.06.03.1.03.04 0 .08-.01.1-.04.01-.01.03-.03.04-.05h.21Zm-.21-.24c0-.06-.02-.1-.05-.13a.15.15 0 0 0-.11-.04c-.05 0-.09.02-.11.05-.03.03-.04.07-.05.12h.32Zm-.27-.43.14-.22h.23l-.22.22h-.15ZM32.72 37.32h.21v1.08h-.21v-1.08ZM33.82 38.16s-.03.1-.07.14c-.07.08-.16.12-.29.12-.1 0-.19-.03-.27-.1s-.12-.17-.12-.32c0-.14.04-.24.11-.32a.37.37 0 0 1 .27-.11c.07 0 .13.01.18.04s.1.06.13.12c.03.05.05.1.06.16v.16h-.55c0 .08.03.14.08.17.03.02.06.03.1.03.04 0 .08-.01.1-.04.01-.01.03-.03.04-.05h.21Zm-.21-.24c0-.06-.02-.1-.05-.13a.15.15 0 0 0-.11-.04c-.05 0-.09.02-.11.05-.03.03-.04.07-.05.12h.32Zm-.27-.43.14-.22h.23l-.22.22h-.15ZM34.64 37.68c.06.07.1.17.1.3 0 .14-.03.25-.09.32a.32.32 0 0 1-.24.11c-.06 0-.12-.02-.16-.05-.02-.02-.04-.04-.07-.08v.42h-.21v-1.11h.2v.12s.05-.06.07-.08c.05-.04.1-.05.17-.05.09 0 .17.03.24.1Zm-.12.31c0-.06-.01-.12-.04-.16-.03-.05-.07-.07-.14-.07-.08 0-.13.04-.16.11-.01.04-.02.09-.02.15 0 .09.02.16.07.2.03.02.06.03.1.03.06 0 .1-.02.13-.07.03-.04.05-.1.05-.18ZM35.61 37.93v.47h-.21v-.49s0-.08-.02-.1c-.02-.04-.06-.06-.11-.06-.06 0-.1.02-.13.06-.03.04-.04.09-.04.16v.43h-.21v-1.08h.21v.38s.07-.08.11-.1c.04-.02.08-.03.13-.03s.09 0 .13.03c.04.02.07.04.1.08.02.03.04.06.04.09v.15ZM36.47 37.7c.07.08.1.18.1.3s-.03.22-.1.3c-.07.08-.17.12-.31.12s-.24-.04-.31-.12c-.07-.08-.1-.18-.1-.3s.03-.22.1-.3.17-.13.31-.13.24.04.31.13Zm-.31.05c-.06 0-.11.02-.14.06-.03.04-.05.1-.05.19s.02.14.05.19c.03.04.08.06.14.06s.11-.02.14-.06.05-.1.05-.19-.02-.14-.05-.19c-.03-.04-.08-.06-.14-.06ZM37.09 37.75c-.07 0-.12.03-.15.09-.01.03-.02.07-.02.12v.43h-.21v-.8h.2v.12s.05-.07.08-.09c.04-.03.1-.05.16-.05.08 0 .15.02.2.06.05.04.08.11.08.21v.54h-.21v-.49s0-.07-.02-.1c-.02-.04-.06-.06-.12-.06ZM38.32 38.16s-.03.1-.07.14c-.07.08-.16.12-.29.12-.1 0-.19-.03-.27-.1s-.12-.17-.12-.32c0-.14.04-.24.11-.32a.37.37 0 0 1 .27-.11c.07 0 .13.01.18.04s.1.06.13.12c.03.05.05.1.06.16v.16h-.55c0 .08.03.14.08.17.03.02.06.03.1.03.04 0 .08-.01.1-.04.01-.01.03-.03.04-.05h.21Zm-.21-.24c0-.06-.02-.1-.05-.13a.15.15 0 0 0-.11-.04c-.05 0-.09.02-.11.05-.03.03-.04.07-.05.12h.32ZM29.02 45.28h-.23v.39h-.22v-1.08h.47c.11 0 .19.03.26.08s.1.14.1.26c0 .13-.03.22-.1.27s-.16.08-.28.08Zm.11-.23s.04-.07.04-.12-.01-.1-.04-.12a.214.214 0 0 0-.12-.04h-.21v.32h.21c.05 0 .09-.01.12-.04ZM29.58 44.96c.06-.07.15-.11.28-.11.09 0 .17.02.23.05.07.04.1.1.1.2V45.56c0 .03 0 .05.01.06s.02.02.03.02v.03H30s-.01-.03-.01-.05v-.05c-.03.03-.06.06-.1.08a.26.26 0 0 1-.15.04.28.28 0 0 1-.18-.06c-.05-.04-.07-.1-.07-.18 0-.1.04-.17.11-.21.04-.02.1-.04.18-.05h.07s.07-.02.08-.03c.03-.01.04-.03.04-.06s-.01-.06-.03-.07a.25.25 0 0 0-.1-.02c-.05 0-.08.01-.1.04-.01.02-.02.04-.03.07h-.2c0-.07.02-.13.06-.17Zm.16.56s.04.02.07.02c.04 0 .09-.01.12-.04.04-.03.06-.07.06-.14v-.08s-.03.02-.04.02c-.01 0-.03 0-.06.01h-.05s-.08.03-.09.04c-.03.02-.05.05-.05.09 0 .04 0 .06.03.08ZM30.78 45.06c-.08 0-.14.03-.17.08-.02.03-.02.08-.02.14v.38h-.21v-.8h.2V45a.63.63 0 0 1 .08-.11c.04-.03.09-.05.15-.05h.02v.21h-.06ZM32.07 45.16h-.21s-.01-.06-.03-.08c-.02-.03-.06-.05-.11-.05-.07 0-.12.03-.14.1-.01.04-.02.09-.02.15s0 .11.02.14c.02.07.07.1.14.1.05 0 .08-.01.1-.04s.03-.06.04-.1h.21c0 .06-.03.12-.07.18-.07.09-.16.14-.29.14s-.22-.04-.28-.11-.09-.18-.09-.3c0-.14.03-.24.1-.32s.16-.11.28-.11c.1 0 .18.02.25.07.06.04.1.12.11.24ZM32.88 44.97c.07.08.1.18.1.3s-.03.22-.1.3c-.07.08-.17.12-.31.12s-.24-.04-.31-.12c-.07-.08-.1-.18-.1-.3s.03-.22.1-.3.17-.13.31-.13.24.04.31.13Zm-.31.05c-.06 0-.11.02-.14.06-.03.04-.05.1-.05.19s.02.14.05.19c.03.04.08.06.14.06s.11-.02.14-.06.05-.1.05-.19-.02-.14-.05-.19c-.03-.04-.08-.06-.14-.06ZM33.65 45.55l-.01.02c-.01.02-.02.02-.03.03-.03.03-.06.05-.09.06a.36.36 0 0 1-.11.02c-.12 0-.2-.04-.24-.13a.584.584 0 0 1-.03-.21v-.48h.21v.48s0 .08.02.1c.02.04.06.06.11.06.07 0 .12-.03.15-.09.01-.03.02-.07.02-.12v-.43h.21v.8h-.2v-.11ZM34.45 45.06c-.08 0-.14.03-.17.08-.02.03-.02.08-.02.14v.38h-.21v-.8h.2V45a.63.63 0 0 1 .08-.11c.04-.03.09-.05.15-.05h.02v.21h-.06ZM35.04 45.06c-.08 0-.14.03-.17.08-.02.03-.02.08-.02.14v.38h-.21v-.8h.2V45a.63.63 0 0 1 .08-.11c.04-.03.09-.05.15-.05h.02v.21h-.06ZM35.43 44.58v.19h-.21v-.19h.21Zm0 .29v.8h-.21v-.8h.21ZM36.32 45.43s-.03.1-.07.14c-.07.08-.16.12-.29.12-.1 0-.19-.03-.27-.1s-.12-.17-.12-.32c0-.14.04-.24.11-.32a.37.37 0 0 1 .27-.11c.07 0 .13.01.18.04s.1.06.13.12c.03.05.05.1.06.16v.16h-.55c0 .08.03.14.08.17.03.02.06.03.1.03.04 0 .08-.01.1-.04.01-.01.03-.03.04-.05h.21Zm-.21-.24c0-.06-.02-.1-.05-.13a.15.15 0 0 0-.11-.04c-.05 0-.09.02-.11.05-.03.03-.04.07-.05.12h.32ZM36.87 45.06c-.08 0-.14.03-.17.08-.02.03-.02.08-.02.14v.38h-.21v-.8h.2V45a.63.63 0 0 1 .08-.11c.04-.03.09-.05.15-.05h.02v.21h-.06Z" class="cls-11"/><path d="M27.36 80.71h19.69v1.97H27.36z" class="cls-6"/><path d="M28.57 64.94h17.38v.73H28.57zM28.57 66.25h17.38v.73H28.57zM28.57 67.56h17.38v.73H28.57zM28.57 83.61h8.69v.73h-8.69zM28.57 84.91h8.69v.73h-8.69zM28.57 86.22h8.69v.73h-8.69zM28.57 68.86h17.38v.73H28.57zM56.24 56h42.8v.73h-42.8zM56.24 57.33h42.8v.73h-42.8zM56.24 58.65h42.8v.73h-42.8zM56.24 59.98h42.8v.73h-42.8zM56.24 61.3h42.8v.73h-42.8zM56.24 62.63h42.8v.73h-42.8zM56.24 63.95h42.8v.73h-42.8zM56.24 65.28h42.8v.73h-42.8zM81.92 69.88h17.1v.73h-17.1zM81.92 71.19h17.1v.73h-17.1zM28.57 72.42h17.38v.73H28.57z" class="cls-16"/><path d="M28.57 76.56h17.38v.73H28.57zM28.57 81.33h17.38v.73H28.57z" class="cls-15"/><path d="M27.36 87.56h19.69v1.97H27.36z" class="cls-6"/><path d="M28.57 88.18h17.38v.73H28.57z" class="cls-15"/><path d="M28.57 77.91h17.38v.73H28.57zM28.57 79.26h17.38v.73H28.57zM28.57 90.26h17.38v.73H28.57zM28.57 91.73h17.38v.73H28.57zM28.57 93.19h17.38v.73H28.57z" class="cls-16"/><path d="M28.56 62.99h.23v.89h.53v.19h-.76v-1.08ZM29.68 62.98v.19h-.21v-.19h.21Zm0 .29v.8h-.21v-.8h.21ZM30.56 63.83s-.03.1-.07.14c-.07.08-.16.12-.29.12-.1 0-.19-.03-.27-.1s-.12-.17-.12-.32c0-.14.04-.24.11-.32a.37.37 0 0 1 .27-.11c.07 0 .13.01.18.04s.1.06.13.12c.03.05.05.1.06.16v.16h-.55c0 .08.03.14.08.17.03.02.06.03.1.03.04 0 .08-.01.1-.04.01-.01.03-.03.04-.05h.21Zm-.21-.24c0-.06-.02-.1-.05-.13a.15.15 0 0 0-.11-.04c-.05 0-.09.02-.11.05-.03.03-.04.07-.05.12h.32ZM31.23 63.96l-.01.02c-.01.02-.02.02-.03.03-.03.03-.06.05-.09.06a.36.36 0 0 1-.11.02c-.12 0-.2-.04-.24-.13a.584.584 0 0 1-.03-.21v-.48h.21v.48s0 .08.02.1c.02.04.06.06.11.06.07 0 .12-.03.15-.09.01-.03.02-.07.02-.12v-.43h.21v.8h-.2v-.11ZM32.77 62.99v1.08h-.2v-.11s-.06.08-.1.1-.09.03-.14.03c-.09 0-.17-.04-.24-.11a.462.462 0 0 1-.1-.29c0-.14.03-.24.09-.32.06-.08.15-.12.25-.12.05 0 .09.01.13.03.04.02.07.05.09.09v-.38h.21Zm-.56.68c0 .07.01.13.04.18.03.04.07.07.13.07s.1-.02.13-.07c.03-.04.05-.1.05-.17 0-.1-.02-.17-.07-.21a.15.15 0 0 0-.11-.04c-.06 0-.11.02-.13.07-.03.05-.04.1-.04.17ZM33.65 63.83s-.03.1-.07.14c-.07.08-.16.12-.29.12-.1 0-.19-.03-.27-.1s-.12-.17-.12-.32c0-.14.04-.24.11-.32a.37.37 0 0 1 .27-.11c.07 0 .13.01.18.04s.1.06.13.12c.03.05.05.1.06.16v.16h-.55c0 .08.03.14.08.17.03.02.06.03.1.03.04 0 .08-.01.1-.04.01-.01.03-.03.04-.05h.21Zm-.21-.24c0-.06-.02-.1-.05-.13a.15.15 0 0 0-.11-.04c-.05 0-.09.02-.11.05-.03.03-.04.07-.05.12h.32ZM34.91 63.56h-.21s-.01-.06-.03-.08c-.02-.03-.06-.05-.11-.05-.07 0-.12.03-.14.1-.01.04-.02.09-.02.15s0 .11.02.14c.02.07.07.1.14.1.05 0 .08-.01.1-.04s.03-.06.04-.1h.21c0 .06-.03.12-.07.18-.07.09-.16.14-.29.14s-.22-.04-.28-.11-.09-.18-.09-.3c0-.14.03-.24.1-.32s.16-.11.28-.11c.1 0 .18.02.25.07.06.04.1.12.11.24ZM35.71 63.37c.07.08.1.18.1.3s-.03.22-.1.3c-.07.08-.17.12-.31.12s-.24-.04-.31-.12c-.07-.08-.1-.18-.1-.3s.03-.22.1-.3.17-.13.31-.13.24.04.31.13Zm-.31.05c-.06 0-.11.02-.14.06-.03.04-.05.1-.05.19s.02.14.05.19c.03.04.08.06.14.06s.11-.02.14-.06.05-.1.05-.19-.02-.14-.05-.19c-.03-.04-.08-.06-.14-.06ZM36.34 63.43c-.07 0-.12.03-.15.09-.01.03-.02.07-.02.12v.43h-.21v-.8h.2v.12s.05-.07.08-.09c.04-.03.1-.05.16-.05.08 0 .15.02.2.06.05.04.08.11.08.21v.54h-.21v-.49s0-.07-.02-.1c-.02-.04-.06-.06-.12-.06ZM37.43 63.31c.06.04.1.11.11.21h-.21s-.01-.05-.02-.06c-.02-.03-.06-.04-.12-.04-.04 0-.08 0-.1.02-.02.01-.03.03-.03.05 0 .02.01.04.03.05.02.01.09.03.22.06.08.02.15.05.19.09.04.04.06.09.06.15 0 .08-.03.14-.09.19-.06.05-.15.08-.27.08s-.22-.03-.28-.08a.252.252 0 0 1-.09-.2h.21s.01.06.03.08c.03.03.07.04.14.04.04 0 .07 0 .1-.02.02-.01.04-.03.04-.05s-.01-.04-.03-.05c-.02-.01-.09-.03-.22-.06a.489.489 0 0 1-.19-.08c-.04-.03-.06-.08-.06-.14 0-.07.03-.14.09-.19.06-.05.14-.08.24-.08s.18.02.24.06ZM38.38 63.37c.07.08.1.18.1.3s-.03.22-.1.3c-.07.08-.17.12-.31.12s-.24-.04-.31-.12c-.07-.08-.1-.18-.1-.3s.03-.22.1-.3.17-.13.31-.13.24.04.31.13Zm-.31.05c-.06 0-.11.02-.14.06-.03.04-.05.1-.05.19s.02.14.05.19c.03.04.08.06.14.06s.11-.02.14-.06.05-.1.05-.19-.02-.14-.05-.19c-.03-.04-.08-.06-.14-.06ZM39.08 63.49s-.05-.06-.1-.06c-.06 0-.1.02-.12.06-.01.02-.02.05-.02.1v.48h-.21v-.8h.2v.12s.05-.07.07-.09c.04-.03.09-.05.16-.05.06 0 .11.01.15.04.03.02.05.06.07.1a.24.24 0 0 1 .1-.1.32.32 0 0 1 .14-.03c.04 0 .07 0 .1.02.03.01.06.04.09.07.02.03.04.06.05.1v.62h-.22v-.51s0-.06-.01-.07c-.02-.04-.05-.06-.1-.06-.06 0-.1.02-.12.07-.01.03-.02.06-.02.09v.48h-.21v-.48s0-.08-.01-.1ZM40.41 63.49s-.05-.06-.1-.06c-.06 0-.1.02-.12.06-.01.02-.02.05-.02.1v.48h-.21v-.8h.2v.12s.05-.07.07-.09c.04-.03.09-.05.16-.05.06 0 .11.01.15.04.03.02.05.06.07.1a.24.24 0 0 1 .1-.1.32.32 0 0 1 .14-.03c.04 0 .07 0 .1.02.03.01.06.04.09.07.02.03.04.06.05.1v.62h-.22v-.51s0-.06-.01-.07c-.02-.04-.05-.06-.1-.06-.06 0-.1.02-.12.07-.01.03-.02.06-.02.09v.48h-.21v-.48s0-.08-.01-.1ZM41.33 63.36c.06-.07.15-.11.28-.11.09 0 .17.02.23.05.07.04.1.1.1.2V63.96c0 .03 0 .05.01.06s.02.02.03.02v.03h-.23s-.01-.03-.01-.05v-.05c-.03.03-.06.06-.1.08a.26.26 0 0 1-.15.04.28.28 0 0 1-.18-.06c-.05-.04-.07-.1-.07-.18 0-.1.04-.17.11-.21.04-.02.1-.04.18-.05h.07s.07-.02.08-.03c.03-.01.04-.03.04-.06s-.01-.06-.03-.07a.25.25 0 0 0-.1-.02c-.05 0-.08.01-.1.04-.01.02-.02.04-.03.07h-.2c0-.07.02-.13.06-.17Zm.16.56s.04.02.07.02c.04 0 .09-.01.12-.04.04-.03.06-.07.06-.14v-.08s-.03.02-.04.02c-.01 0-.03 0-.06.01h-.05s-.08.03-.09.04c-.03.02-.05.05-.05.09 0 .04 0 .06.03.08ZM42.5 63.92v.16h-.1c-.1 0-.17 0-.2-.05a.16.16 0 0 1-.04-.11v-.49h-.11v-.15h.11v-.22h.21v.22h.13v.15h-.13v.42s0 .05.01.06c0 0 .03.01.08.01h.04ZM42.85 62.98v.19h-.21v-.19h.21Zm0 .29v.8h-.21v-.8h.21ZM43.71 63.37c.07.08.1.18.1.3s-.03.22-.1.3c-.07.08-.17.12-.31.12s-.24-.04-.31-.12c-.07-.08-.1-.18-.1-.3s.03-.22.1-.3.17-.13.31-.13.24.04.31.13Zm-.31.05c-.06 0-.11.02-.14.06-.03.04-.05.1-.05.19s.02.14.05.19c.03.04.08.06.14.06s.11-.02.14-.06.05-.1.05-.19-.02-.14-.05-.19c-.03-.04-.08-.06-.14-.06ZM44.34 63.43c-.07 0-.12.03-.15.09-.01.03-.02.07-.02.12v.43h-.21v-.8h.2v.12s.05-.07.08-.09c.04-.03.1-.05.16-.05.08 0 .15.02.2.06.05.04.08.11.08.21v.54h-.21v-.49s0-.07-.02-.1c-.02-.04-.06-.06-.12-.06ZM67.16 50.66h-1.33l-.25.74h-.79l1.28-3.6h.85l1.27 3.6h-.82l-.23-.74Zm-.21-.62-.45-1.42-.46 1.42h.91ZM69.83 50.9v.52h-.33c-.33.02-.55-.03-.67-.16-.08-.08-.12-.2-.12-.37v-1.64h-.37v-.5h.37v-.74h.69v.74h.43v.5h-.43v1.41c0 .11.01.18.04.2.03.03.11.04.25.04h.14ZM71.49 50.9v.52h-.33c-.33.02-.55-.03-.67-.16-.08-.08-.12-.2-.12-.37v-1.64H70v-.5h.37v-.74h.69v.74h.43v.5h-.43v1.41c0 .11.01.18.04.2.03.03.11.04.25.04h.14ZM74.22 50.61c-.02.16-.1.32-.25.48-.23.26-.55.39-.96.39-.34 0-.64-.11-.9-.33s-.39-.57-.39-1.06c0-.46.12-.81.35-1.06.23-.25.54-.37.91-.37.22 0 .42.04.6.12s.32.21.44.39c.1.16.17.34.2.55.02.12.03.3.02.53h-1.82c0 .27.09.45.25.56.1.07.21.1.35.1.14 0 .26-.04.35-.12.05-.04.09-.1.13-.18h.71Zm-.69-.82a.622.622 0 0 0-.17-.42.53.53 0 0 0-.37-.14c-.16 0-.29.05-.37.15-.09.1-.14.24-.17.41h1.08ZM76.55 48.86c.21.13.33.36.36.69h-.7c0-.09-.04-.16-.08-.21-.08-.09-.21-.14-.39-.14-.15 0-.26.02-.32.07s-.1.1-.1.17c0 .08.03.14.1.17.07.04.31.1.73.19.28.06.48.16.62.3.14.13.21.3.21.5 0 .26-.1.48-.29.65-.2.17-.5.25-.91.25s-.73-.09-.93-.27a.86.86 0 0 1-.3-.67h.71c.01.12.05.21.1.26.09.09.25.14.48.14.14 0 .25-.02.33-.06.08-.04.12-.1.12-.18s-.03-.14-.1-.18-.31-.11-.73-.21c-.3-.07-.51-.17-.64-.28a.624.624 0 0 1-.19-.48c0-.25.1-.46.29-.63.19-.18.46-.27.81-.27.33 0 .6.07.81.2ZM78.72 50.9v.52h-.33c-.33.02-.55-.03-.67-.16-.08-.08-.12-.2-.12-.37v-1.64h-.37v-.5h.37v-.74h.69v.74h.43v.5h-.43v1.41c0 .11.01.18.04.2.03.03.11.04.25.04h.14ZM79.27 49.02c.18-.23.5-.35.95-.35.29 0 .55.06.78.17s.34.33.34.65v1.53c0 .09.02.15.04.19s.06.06.1.08v.1h-.76c-.02-.05-.04-.1-.04-.15s-.01-.1-.02-.16c-.1.1-.21.19-.33.27-.15.09-.32.13-.51.13-.24 0-.44-.07-.6-.21-.16-.14-.24-.33-.24-.58 0-.33.13-.56.38-.71.14-.08.34-.14.61-.17l.24-.03c.13-.02.22-.04.28-.06.1-.04.15-.11.15-.2 0-.11-.04-.18-.11-.23a.748.748 0 0 0-.33-.06c-.16 0-.28.04-.35.12-.05.06-.08.14-.1.24h-.67c.01-.23.08-.42.2-.57Zm.52 1.87c.06.05.15.08.24.08.15 0 .29-.04.41-.13.13-.09.19-.25.2-.48v-.26s-.09.05-.13.07c-.04.02-.11.03-.18.05l-.16.03c-.15.03-.25.06-.31.1-.11.06-.16.16-.16.3 0 .12.03.2.1.26ZM83.17 50.9v.52h-.33c-.33.02-.55-.03-.67-.16-.08-.08-.12-.2-.12-.37v-1.64h-.37v-.5h.37v-.74h.69v.74h.43v.5h-.43v1.41c0 .11.01.18.04.2.03.03.11.04.25.04h.14ZM84.33 47.77v.64h-.71v-.64h.71Zm0 .96v2.66h-.71v-2.66h.71ZM87.22 49.07c.22.28.34.61.34 1s-.11.72-.34 1c-.22.28-.57.42-1.02.42s-.8-.14-1.02-.42c-.22-.28-.34-.61-.34-1s.11-.72.34-1 .57-.42 1.02-.42.8.14 1.02.42Zm-1.03.17c-.2 0-.36.07-.47.22-.11.14-.17.35-.17.62s.05.47.17.62c.11.15.27.22.47.22s.36-.07.47-.22.16-.35.16-.62-.05-.47-.16-.62a.575.575 0 0 0-.47-.22ZM89.31 49.25c-.24 0-.4.1-.49.3-.05.11-.07.24-.07.41v1.44h-.69v-2.66h.67v.39c.09-.14.17-.24.25-.3.14-.11.32-.16.54-.16.27 0 .5.07.68.22.17.14.26.38.26.72v1.79h-.71v-1.62c0-.14-.02-.25-.06-.32-.07-.14-.2-.21-.39-.21ZM29.35 70.62v.19h-.32v.89h-.23v-.89h-.32v-.19h.87ZM29.65 70.61v.19h-.21v-.19h.21Zm0 .29v.8h-.21v-.8h.21ZM30.22 71.55v.16h-.1c-.1 0-.17 0-.2-.05a.16.16 0 0 1-.04-.11v-.49h-.11v-.15h.11v-.22h.21v.22h.13v.15h-.13v.42s0 .05.01.06c0 0 .03.01.08.01h.04ZM30.87 71.58l-.01.02c-.01.02-.02.02-.03.03-.03.03-.06.05-.09.06a.36.36 0 0 1-.11.02c-.12 0-.2-.04-.24-.13a.584.584 0 0 1-.03-.21v-.48h.21v.48s0 .08.02.1c.02.04.06.06.11.06.07 0 .12-.03.15-.09.01-.03.02-.07.02-.12v-.43h.21v.8h-.2v-.11ZM31.27 70.62h.21v1.08h-.21v-1.08ZM31.72 70.99c.06-.07.15-.11.28-.11.09 0 .17.02.23.05.07.04.1.1.1.2V71.59c0 .03 0 .05.01.06s.02.02.03.02v.03h-.23s-.01-.03-.01-.05v-.05c-.03.03-.06.06-.1.08a.26.26 0 0 1-.15.04.28.28 0 0 1-.18-.06c-.05-.04-.07-.1-.07-.18 0-.1.04-.17.11-.21.04-.02.1-.04.18-.05h.07s.07-.02.08-.03c.03-.01.04-.03.04-.06s-.01-.06-.03-.07a.25.25 0 0 0-.1-.02c-.05 0-.08.01-.1.04-.01.02-.02.04-.03.07h-.2c0-.07.02-.13.06-.17Zm.16.56s.04.02.07.02c.04 0 .09-.01.12-.04.04-.03.06-.07.06-.14v-.08s-.03.02-.04.02c-.01 0-.03 0-.06.01h-.05s-.08.03-.09.04c-.03.02-.05.05-.05.09 0 .04 0 .06.03.08ZM32.74 70.61v.19h-.21v-.19h.21Zm0 .29v.8h-.21v-.8h.21ZM33.34 71.09c-.08 0-.14.03-.17.08-.02.03-.02.08-.02.14v.38h-.21v-.8h.2v.14a.63.63 0 0 1 .08-.11c.04-.03.09-.05.15-.05h.02v.21h-.06ZM34.21 71.46s-.03.1-.07.14c-.07.08-.16.12-.29.12-.1 0-.19-.03-.27-.1s-.12-.17-.12-.32c0-.14.04-.24.11-.32a.37.37 0 0 1 .27-.11c.07 0 .13.01.18.04s.1.06.13.12c.03.05.05.1.06.16v.16h-.55c0 .08.03.14.08.17.03.02.06.03.1.03.04 0 .08-.01.1-.04.01-.01.03-.03.04-.05h.21Zm-.21-.24c0-.06-.02-.1-.05-.13a.15.15 0 0 0-.11-.04c-.05 0-.09.02-.11.05-.03.03-.04.07-.05.12H34ZM35.5 70.62v1.08h-.2v-.11s-.06.08-.1.1-.09.03-.14.03c-.09 0-.17-.04-.24-.11a.462.462 0 0 1-.1-.29c0-.14.03-.24.09-.32.06-.08.15-.12.25-.12.05 0 .09.01.13.03.04.02.07.05.09.09v-.38h.21Zm-.56.68c0 .07.01.13.04.18.03.04.07.07.13.07s.1-.02.13-.07c.03-.04.05-.1.05-.17 0-.1-.02-.17-.07-.21a.15.15 0 0 0-.11-.04c-.06 0-.11.02-.13.07-.03.05-.04.1-.04.17ZM36.2 71.58l-.01.02c-.01.02-.02.02-.03.03-.03.03-.06.05-.09.06a.36.36 0 0 1-.11.02c-.12 0-.2-.04-.24-.13a.584.584 0 0 1-.03-.21v-.48h.21v.48s0 .08.02.1c.02.04.06.06.11.06.07 0 .12-.03.15-.09.01-.03.02-.07.02-.12v-.43h.21v.8h-.2v-.11ZM37.71 71.19h-.21s-.01-.06-.03-.08c-.02-.03-.06-.05-.11-.05-.07 0-.12.03-.14.1-.01.04-.02.09-.02.15s0 .11.02.14c.02.07.07.1.14.1.05 0 .08-.01.1-.04s.03-.06.04-.1h.21c0 .06-.03.12-.07.18-.07.09-.16.14-.29.14s-.22-.04-.28-.11-.09-.18-.09-.3c0-.14.03-.24.1-.32s.16-.11.28-.11c.1 0 .18.02.25.07.06.04.1.12.11.24ZM38.52 71c.07.08.1.18.1.3s-.03.22-.1.3c-.07.08-.17.12-.31.12s-.24-.04-.31-.12c-.07-.08-.1-.18-.1-.3s.03-.22.1-.3.17-.13.31-.13.24.04.31.13Zm-.31.05c-.06 0-.11.02-.14.06-.03.04-.05.1-.05.19s.02.14.05.19c.03.04.08.06.14.06s.11-.02.14-.06.05-.1.05-.19-.02-.14-.05-.19c-.03-.04-.08-.06-.14-.06ZM39.15 71.05c-.07 0-.12.03-.15.09-.01.03-.02.07-.02.12v.43h-.21v-.8h.2v.12s.05-.07.08-.09c.04-.03.1-.05.16-.05.08 0 .15.02.2.06.05.04.08.11.08.21v.54h-.21v-.49s0-.07-.02-.1c-.02-.04-.06-.06-.12-.06ZM40.05 71.55v.16h-.1c-.1 0-.17 0-.2-.05a.16.16 0 0 1-.04-.11v-.49h-.11v-.15h.11v-.22h.21v.22h.13v.15h-.13v.42s0 .05.01.06c0 0 .03.01.08.01h.04ZM40.59 71.09c-.08 0-.14.03-.17.08-.02.03-.02.08-.02.14v.38h-.21v-.8h.2v.14a.63.63 0 0 1 .08-.11c.04-.03.09-.05.15-.05h.02v.21h-.06ZM40.8 70.99c.06-.07.15-.11.28-.11.09 0 .17.02.23.05.07.04.1.1.1.2V71.59c0 .03 0 .05.01.06s.02.02.03.02v.03h-.23s-.01-.03-.01-.05v-.05c-.03.03-.06.06-.1.08a.26.26 0 0 1-.15.04.28.28 0 0 1-.18-.06c-.05-.04-.07-.1-.07-.18 0-.1.04-.17.11-.21.04-.02.1-.04.18-.05h.07s.07-.02.08-.03c.03-.01.04-.03.04-.06s-.01-.06-.03-.07a.25.25 0 0 0-.1-.02c-.05 0-.08.01-.1.04-.01.02-.02.04-.03.07h-.2c0-.07.02-.13.06-.17Zm.16.56s.04.02.07.02c.04 0 .09-.01.12-.04.04-.03.06-.07.06-.14v-.08s-.03.02-.04.02c-.01 0-.03 0-.06.01h-.05s-.08.03-.09.04c-.03.02-.05.05-.05.09 0 .04 0 .06.03.08ZM41.97 71.55v.16h-.1c-.1 0-.17 0-.2-.05a.16.16 0 0 1-.04-.11v-.49h-.11v-.15h.11v-.22h.21v.22h.13v.15h-.13v.42s0 .05.01.06c0 0 .03.01.08.01h.04ZM28.48 74.75h.24l.23.82.24-.82h.23l-.37 1.08h-.21l-.37-1.08ZM30.1 75.14c.07.08.1.18.1.3s-.03.22-.1.3c-.07.08-.17.12-.31.12s-.24-.04-.31-.12c-.07-.08-.1-.18-.1-.3s.03-.22.1-.3.17-.13.31-.13.24.04.31.13Zm-.31.05c-.06 0-.11.02-.14.06-.03.04-.05.1-.05.19s.02.14.05.19c.03.04.08.06.14.06s.11-.02.14-.06.05-.1.05-.19-.02-.14-.05-.19c-.03-.04-.08-.06-.14-.06ZM30.72 75.69v.16h-.1c-.1 0-.17 0-.2-.05a.16.16 0 0 1-.04-.11v-.49h-.11v-.15h.11v-.22h.21v.22h.13v.15h-.13v.42s0 .05.01.06c0 0 .03.01.08.01h.04ZM31.26 75.23c-.08 0-.14.03-.17.08-.02.03-.02.08-.02.14v.38h-.21v-.8h.2v.14a.63.63 0 0 1 .08-.11c.04-.03.09-.05.15-.05h.02v.21h-.06ZM32.12 75.6s-.03.1-.07.14c-.07.08-.16.12-.29.12-.1 0-.19-.03-.27-.1s-.12-.17-.12-.32c0-.14.04-.24.11-.32a.37.37 0 0 1 .27-.11c.07 0 .13.01.18.04s.1.06.13.12c.03.05.05.1.06.16v.16h-.55c0 .08.03.14.08.17.03.02.06.03.1.03.04 0 .08-.01.1-.04.01-.01.03-.03.04-.05h.21Zm-.21-.24c0-.06-.02-.1-.05-.13a.15.15 0 0 0-.11-.04c-.05 0-.09.02-.11.05-.03.03-.04.07-.05.12h.32ZM33.38 75.32h-.21s-.01-.06-.03-.08c-.02-.03-.06-.05-.11-.05-.07 0-.12.03-.14.1-.01.04-.02.09-.02.15s0 .11.02.14c.02.07.07.1.14.1.05 0 .08-.01.1-.04s.03-.06.04-.1h.21c0 .06-.03.12-.07.18-.07.09-.16.14-.29.14s-.22-.04-.28-.11-.09-.18-.09-.3c0-.14.03-.24.1-.32s.16-.11.28-.11c.1 0 .18.02.25.07.06.04.1.12.11.24ZM34.19 75.14c.07.08.1.18.1.3s-.03.22-.1.3c-.07.08-.17.12-.31.12s-.24-.04-.31-.12c-.07-.08-.1-.18-.1-.3s.03-.22.1-.3.17-.13.31-.13.24.04.31.13Zm-.31.05c-.06 0-.11.02-.14.06-.03.04-.05.1-.05.19s.02.14.05.19c.03.04.08.06.14.06s.11-.02.14-.06.05-.1.05-.19-.02-.14-.05-.19c-.03-.04-.08-.06-.14-.06ZM34.81 75.19c-.07 0-.12.03-.15.09-.01.03-.02.07-.02.12v.43h-.21v-.8h.2v.12s.05-.07.08-.09c.04-.03.1-.05.16-.05.08 0 .15.02.2.06.05.04.08.11.08.21v.54h-.21v-.49s0-.07-.02-.1c-.02-.04-.06-.06-.12-.06ZM35.72 75.69v.16h-.1c-.1 0-.17 0-.2-.05a.16.16 0 0 1-.04-.11v-.49h-.11v-.15h.11v-.22h.21v.22h.13v.15h-.13v.42s0 .05.01.06c0 0 .03.01.08.01h.04ZM36.26 75.23c-.08 0-.14.03-.17.08-.02.03-.02.08-.02.14v.38h-.21v-.8h.2v.14a.63.63 0 0 1 .08-.11c.04-.03.09-.05.15-.05h.02v.21h-.06ZM36.47 75.12c.06-.07.15-.11.28-.11.09 0 .17.02.23.05.07.04.1.1.1.2V75.72c0 .03 0 .05.01.06s.02.02.03.02v.03h-.23s-.01-.03-.01-.05v-.05c-.03.03-.06.06-.1.08a.26.26 0 0 1-.15.04.28.28 0 0 1-.18-.06c-.05-.04-.07-.1-.07-.18 0-.1.04-.17.11-.21.04-.02.1-.04.18-.05h.07s.07-.02.08-.03c.03-.01.04-.03.04-.06s-.01-.06-.03-.07a.25.25 0 0 0-.1-.02c-.05 0-.08.01-.1.04-.01.02-.02.04-.03.07h-.2c0-.07.02-.13.06-.17Zm.16.56s.04.02.07.02c.04 0 .09-.01.12-.04.04-.03.06-.07.06-.14v-.08s-.03.02-.04.02c-.01 0-.03 0-.06.01h-.05s-.08.03-.09.04c-.03.02-.05.05-.05.09 0 .04 0 .06.03.08ZM37.64 75.69v.16h-.1c-.1 0-.17 0-.2-.05a.16.16 0 0 1-.04-.11v-.49h-.11v-.15h.11v-.22h.21v.22h.13v.15h-.13v.42s0 .05.01.06c0 0 .03.01.08.01h.04Z" class="cls-15"/><path d="M28.48 16h5.66v1h-5.66z" class="cls-16"/><path d="M34.57 16h11.31v1H34.57z" class="cls-17"/><path d="M28.48 17.85h9.8v1h-9.8z" class="cls-16"/><path d="M28.48 19.7h17.4v1h-17.4z" class="cls-17"/><path d="M47.04 61.44v33.04H27.2V64.53c0-1.71 1.78-3.09 3.98-3.09h15.86Z" style="stroke:#1f7baf;stroke-width:.25px;stroke-miterlimit:10;fill:none"/><path d="M122.58 94.03H92.85l14.87-10.06 14.86 10.06z" style="stroke:#000;stroke-linecap:round;stroke-linejoin:round;fill:#ff6d75"/><path d="M92.85 94.03h29.72v21.66H92.85z" style="fill:#fff;stroke:#000;stroke-linecap:round;stroke-linejoin:round"/><path d="M105.15 107.25h5.13v8.43h-5.13z" style="fill:none;stroke:#000;stroke-linecap:round;stroke-linejoin:round"/><path d="M98.17 98.48h3.99v5.8h-3.99zM113.27 98.48h3.99v5.8h-3.99z" class="cls-5"/></svg>