<svg xmlns="http://www.w3.org/2000/svg" id="Calque_1" data-name="Calque 1" viewBox="0 0 128 128"><defs><style>.cls-1{fill:#d6d6d6}.cls-1,.cls-4,.cls-5{stroke-linecap:round;stroke-linejoin:round;stroke:#000}.cls-4{fill:#fff}.cls-5{fill:none}.cls-9{fill:#f3d587}</style></defs><path d="M33.2 56.17c-.61-.96-.89-2.08-1.24-3.16-.05-.16-.1-.31-.2-.45-.07-.1-.17-.19-.27-.28-1.33-1.19-2.27-2.87-3.49-4.19-.54-.58-.99-1.23-1.54-1.79-.82-.83-1.53-1.64-1.79-2.82-.11-.49-.06-1.03.23-1.43.05-.07.11-.14.12-.23a.47.47 0 0 0-.04-.16c-.41-.97-.57-2.01.23-2.85-.33-.69-.57-1.27-.07-1.98.81-1.15 1.99-.92 3.13-.59.85.25 1.67.58 2.45.98 1.53.8 2.92 1.89 4.04 3.2.31.36.6.74.93 1.07.55.54 1.23.87 1.73 1.47.49.59.82 1.31 1.04 2.04.35 1.13.45 2.33.65 3.49.3 1.75.81 3.45 1.33 5.15" class="cls-4"/><path d="M28.07 31.65h4.57v9.82h-4.57z" class="cls-4"/><path d="M32.5 32.7h-4.3c-.54 0-.98-.44-.98-.98h0c0-.54.44-.98.98-.98h4.3c.54 0 .98.44.98.98h0c0 .54-.44.98-.98.98ZM38.87 46.94c-.29-3.47-.46-5.16-1.79-6.55-.45-.47-.99-.84-1.51-1.22-1.31-.94-2.58-1.96-3.64-3.16-.3-.33-.61-.7-1.05-.79-1.34-.26-.88 2.13-.57 2.74.82 1.63 2.61 2.67 2.77 4.66.04.53-.07 1.06-.1 1.59-.06.98.16 1.96.4 2.92.48 1.91.46 2.09 1.12 3.95M28.56 36.16c-.05.36-.17.74-.48.93-.11.07-.24.1-.36.11-.54.05-1.19-.34-1.4-.84-.48-1.1.21-2.41 1.27-2.85.19-.08.41-.1.6-.01.33.16.41.58.42.94.03.58.03 1.14-.05 1.72Z" class="cls-4"/><path d="M67.45 44.25c-3.7 1.24-6.28 2.39-8.29 4.26-2.51 2.33-4.45 6.02-5.89 9.07-1.24 2.61-2.63 5.25-3.94 7.93-.35-.72-.71-1.43-1.07-2.14-1.29-2.56-2.63-5.09-4.04-7.59-1.22-2.17-4.16-7.2-4.38-7.24-.28-.05-2.19.85-2.57 1.03-2.1.98-4.1 2.16-5.99 3.51-.31.22-.62.45-.8.78-.31.53-.04.98.17 1.48 1.92 4.61 3.65 9.3 5.59 13.9 1.85 4.41 3.6 9.24 6.38 13.17 2.05 2.91 4.58 5.48 8.42 5.19.18-.01.35-.04.52-.08h.07c.04 0 .08-.02.12-.03.02 0 .04-.01.06-.02.1-.03.19-.07.29-.11 3.05-1.18 4.61-3.46 5.11-4.23 5.18-8 8.28-18.18 10.25-27.44.61-2.85 2.52-9.15 0-11.42Z" style="fill:#fff"/><path d="M67.45 44.25c-3.7 1.24-6.28 2.39-8.29 4.26-2.51 2.33-4.45 6.02-5.89 9.07-1.24 2.61-2.63 5.25-3.94 7.93-.35-.72-.71-1.43-1.07-2.14-1.29-2.56-2.63-5.09-4.04-7.59-1.22-2.17-4.16-7.2-4.38-7.24-.28-.05-2.19.85-2.57 1.03-2.1.98-4.1 2.16-5.99 3.51-.31.22-.62.45-.8.78-.31.53-.04.98.17 1.48 1.92 4.61 3.65 9.3 5.59 13.9 1.85 4.41 3.6 9.24 6.38 13.17 2.05 2.91 4.58 5.48 8.42 5.19.18-.01.35-.04.52-.08h.07c.04 0 .08-.02.12-.03.02 0 .04-.01.06-.02 0 0 0 0 0 0h0c.1-.03.19-.07.29-.11 3.05-1.18 4.61-3.46 5.11-4.23 5.18-8 8.28-18.18 10.25-27.44.61-2.85 2.52-9.15 0-11.42Z" class="cls-5"/><path d="M28.07 41.47h4.57v13.54c0 .97-.79 1.77-1.77 1.77h-1.04c-.97 0-1.77-.79-1.77-1.77V41.47Z" style="fill:#ff6d75"/><path d="M28.07 41.47h4.57v13.54c0 .97-.79 1.77-1.77 1.77h-1.04c-.97 0-1.77-.79-1.77-1.77V41.47h0Z" class="cls-5"/><path d="M105.92 125.59H51.93c-.54-.77.82-17.17 1.94-28.45 1.86-18.65 3.7-29.56 5.72-42.64.41-2.62 1.2-5.42 2.3-6.76 1.71-2.08 4.19-2.98 6.64-3.9l6.89 22.09 13.5-22.23c.06.02.11.04.17.06 2.1.11 5.92 1.56 8.22 2.83 4.11 2.26 6.38 6.32 8.62 10.26 2.95 5.17 5.61 10.54 7.32 16.26 1.54 5.17 2.79 10.42 3.78 15.72 1.24 6.64 2.07 13.36 2.57 20.13" class="cls-4"/><path d="m63.73 45.65 1.81 13.91 2.36.5-1.22 1.56 8.74 23.05M75.42 84.67l18.53-39.62M55.65 110.88h-4.32v-9.29h4.32z" class="cls-4"/><path d="M55.48 120.81H51.5c-3.02 0-4.9-3.27-3.39-5.88l1.99-3.45c.32-.56.75-.99 1.23-1.31v-3.78h4.32v3.77c.49.31.92.76 1.24 1.32l1.99 3.45c1.51 2.61-.38 5.88-3.4 5.88Z" style="fill:#ff6d75;stroke:#000;stroke-linecap:round;stroke-linejoin:round"/><path d="M51.46 102.58h4.07c.51 0 .93-.41.93-.93h0c0-.51-.41-.93-.93-.93h-4.07c-.51 0-.93.41-.93.93h0c0 .51.41.93.93.93Z" class="cls-4"/><path d="M59.41 67.9h7.43v3.79h-7.43z" class="cls-1"/><path d="M37.62 102.76h-4.57v-9.82h4.57z" class="cls-4"/><path d="M35.86 118.06h-1.04c-.97 0-1.77-.79-1.77-1.77V96.67h4.57v19.62c0 .97-.79 1.77-1.77 1.77Z" class="cls-9"/><path d="M35.86 118.06h-1.04c-.97 0-1.77-.79-1.77-1.77V96.67h4.57v19.62c0 .97-.79 1.77-1.77 1.77Z" class="cls-5"/><path d="M33.19 93.99h4.3c.54 0 .98-.44.98-.98h0c0-.54-.44-.98-.98-.98h-4.3c-.54 0-.98.44-.98.98h0c0 .54.44.98.98.98ZM28.69 102.76h-4.57v-9.82h4.57z" class="cls-4"/><path d="M26.92 118.06h-1.04c-.97 0-1.77-.79-1.77-1.77v-15.56h4.57v15.56c0 .97-.79 1.77-1.77 1.77Z" class="cls-9"/><path d="M26.92 118.06h-1.04c-.97 0-1.77-.79-1.77-1.77v-15.56h4.57v15.56c0 .97-.79 1.77-1.77 1.77Z" class="cls-5"/><path d="M24.26 93.99h4.3c.54 0 .98-.44.98-.98h0c0-.54-.44-.98-.98-.98h-4.3c-.54 0-.98.44-.98.98h0c0 .54.44.98.98.98ZM19.75 102.76h-4.57v-9.82h4.57z" class="cls-4"/><path d="M17.99 118.06h-1.04c-.97 0-1.77-.79-1.77-1.77V98.01h4.57v18.28c0 .97-.79 1.77-1.77 1.77Z" class="cls-9"/><path d="M17.99 118.06h-1.04c-.97 0-1.77-.79-1.77-1.77V98.01h4.57v18.28c0 .97-.79 1.77-1.77 1.77Z" class="cls-5"/><path d="M15.32 93.99h4.3c.54 0 .98-.44.98-.98h0c0-.54-.44-.98-.98-.98h-4.3c-.54 0-.98.44-.98.98h0c0 .54.44.98.98.98Z" class="cls-4"/><path d="M41.73 119.04v-10.9h-1.74v10.9H12.36v-10.9h-1.74v10.9H9.33v1.74H42.9v-1.74h-1.17z" class="cls-1"/><path d="M42.55 108.14H9.8M42.55 114.02H9.8" class="cls-4"/><path d="M7.01 121.32h117.06v4.33H7.01z" class="cls-1"/><path d="M79.38 5.28s-.01 2.42.88 4.05h.02M84.07 10.36c1.91-1.11 3.21-3.91 3.21-3.91M90.12 32.57h.02c.22-.05 1.8-.45 2.71-2.94 1-2.67 2.14-2.37 2.25-5.13.07-2.61-2.64-1.48-2.93-1.33M67.97 8.71s1.87 1.11 3.96 1.49" class="cls-5"/><path d="M88.03 11.54c-1.19.06-2.58-.22-3.96-1.19-.58.35-1.19.52-1.84.45-.92-.09-1.53-.71-1.96-1.47-.02.02-.05.04-.07.04-.26.24-1.91 1.7-3.96-.28-1.07 1.28-2.75 1.42-4.31 1.12-.94.72-2.21.64-2.21.64-.07.1-.17.23-.22.33-3.83 5.4-4.2 9.07-4.23 9.47-.23-.96-.4-1.88-.54-2.75.2 1.62.51 2.79.58 3.04v.02l.02.05h-.02c-.05 1.53-.07 5.5.56 9.59.53 3.41 1.56 6.92 3.43 9.18 4.33 5.26 7.13 5.37 7.55 5.34.43.1 3.39.55 8.5-4.01 2.2-1.94 3.75-5.26 4.8-8.54 1.25-3.95 1.84-7.87 2.03-9.4h-.02c.03-.17.05-.35.04-.55-.06.15-.11.23-.11.23.05-.63.05-1.27.04-1.89-.41-3.18-3.32-8.44-3.67-9.35l-.43-.08Z" class="cls-4"/><path d="M92.12 20.97c.09.6.11 1.15.07 1.66" class="cls-5"/><path d="M92.14 23.17s0-.02.03-.04v-.02c.13-.3.83-1.85 1.3-3.97v-.07c.95-4.24.98-10.64-6.06-13.5 0 0-.44-2.32-3.41-1.96 0 0-3.45-3.77-7.61-.68-2.89-.82-3.67 1.41-3.67 1.41-7.96 1.87-8.47 9.05-8.01 13.33.02.09.03.16.03.22" class="cls-5"/><path d="M69.42 11.62s-4.09 5.96-4.09 9.39M65.31 21.01v-.04M65.33 20.35s-.02.22-.02.59M65.88 30.61h-.02c-.21-.08-1.7-.73-2.23-3.32-.58-2.8-1.75-2.67-1.43-5.41.33-2.59 2.83-1.06 3.1-.86M74.55 6.74c.52.96 1.04 1.69 1.53 2.19.06.07.1.14.16.17M80.2 9.37l.05-.04" class="cls-5"/><path d="M77.9 24.73s-.68 4.49-2.47 8.62c0 0 .35.84 3.03.32" class="cls-4"/><ellipse cx="82.96" cy="24.61" class="cls-4" rx=".83" ry=".29" transform="rotate(-85.58 82.962 24.612)"/><ellipse cx="71.62" cy="23.52" class="cls-4" rx=".83" ry=".29" transform="rotate(-85.58 71.618 23.528)"/><path d="m88.92 43.7-3.58-2.59M70.78 41.47l-2.16 2.34" class="cls-5"/><path d="m75.42 65.93-6.8-22.12c7.62 15.33 20.29-.11 20.29-.11l-13.5 22.23Z" style="fill:#87ccf3;stroke:#000;stroke-linecap:round;stroke-linejoin:round"/><path d="M75.42 121.32V65.93" class="cls-5"/><path d="M124.53 98.41c-.47-17.92-15.34-20.69-15.34-20.69h-7.86v15.51l3.46-.1h.02l2.36-.07s1.4-4.71 4.28-4.74c2.89.03 6.2 3.36 6.37 9.92.18 6.56-4.44 9.89-6.56 9.92-2.09-.02-3.39-1.58-3.39-1.58h-7.99l3.73 3.86v7.02H112s12.97-2.45 12.53-19.05Z" class="cls-1"/><path d="M93.76 82.22h5.79v11.36h-5.79z" class="cls-4"/><path d="M91.98 70.58h9.34v21.09h-9.34zM93.76 59.22h5.79v11.36h-5.79z" class="cls-1"/><path d="M101.33 70.58h-9.35l1.78-2.46h5.79l1.78 2.46zM88.21 117.46h32.13v3.51H88.21zM84.08 104.12h23.79v2.46H84.08zM85.037 89.897l2.774 2.152-2.096 2.702L82.94 92.6zM97.98 98.18l-3.51.001-.001-3.42 3.51-.002zM99.83 92.97l-.49 1.44-15.27-5.22.5-1.44 15.26 5.22z" class="cls-1"/><path d="m84.07 89.2 15.26 5.23s-3.51 1.03-8.31-.62c-4.81-1.64-6.95-4.61-6.95-4.61ZM89.16 93.2l3.31 1.164-1.134 3.226-3.311-1.165z" class="cls-1"/><path d="m118.35 117.46.23-3.44" class="cls-4"/><path d="m90.29 21.67-1.34 6.73c-.11.53-.58.91-1.12.89l-7.02-.22c-.55-.02-1.01-.44-1.07-.99-.14-1.29-.53-3.45-1.63-3.64-1.14-.19-2.29 2.02-2.83 3.25-.21.46-.7.73-1.2.64l-7.52-1.29a1.1 1.1 0 0 1-.92-1.11l.11-6.8 24.54 2.53Z" style="stroke-miterlimit:10;fill:none;stroke:#000"/><path d="m91.82 25.49-1.91-1.97.37-1.86 1.88 1.51v-.06c.05-.3.06-.5.07-.57v-.02" class="cls-5"/></svg>