<svg xmlns="http://www.w3.org/2000/svg" id="Calque_1" viewBox="0 0 128 128"><defs><style>.cls-3,.cls-4{stroke:#000}.cls-4,.cls-7,.cls-8{stroke-linecap:round;stroke-linejoin:round;stroke-width:2px}.cls-8{fill:#76ac75}.cls-7{fill:#fff}.cls-3{fill:#fce9b9;stroke-miterlimit:10;stroke-width:.75px}.cls-4{fill:#d6d6d6}.cls-7,.cls-8{stroke:#1d1d1b}</style></defs><path d="M-481.59-514.12h3385.57v2571.67H-481.59z" style="fill:none;stroke:#fff;stroke-width:8px;stroke-linecap:round;stroke-linejoin:round"/><path d="m108.27 22.03-7.33 6.63-53.89-8.39 7.92-6.11 53.3 7.87z" class="cls-8"/><path d="m114.16 16.7-5.88 5.33h-.01l-53.3-7.87 6.57-5.07 52.62 7.61z" class="cls-8"/><path d="M100.94 28.66v34.62c-.96 1.3-2.09 2.15-3.51 2.15-4.94 0-13.23-1.2-18.7-9.62-5.48-8.42-13.49-7.39-16.17-5.57-2.67 1.82-14.11.86-14.91-6.75l-.6-23.22 53.89 8.4Z" style="fill:#76ac75;stroke-width:2px;stroke-linecap:round;stroke-linejoin:round;stroke:#000"/><path d="M100.94 63.28v53.87l-.71.96-50.03-9.43-2.55-65.19c.8 7.62 12.23 8.58 14.91 6.75 2.67-1.82 10.69-2.85 16.17 5.57 5.47 8.42 13.76 9.62 18.7 9.62 1.43 0 2.55-.85 3.51-2.15Z" class="cls-7"/><path d="M100.94 117.15v1.76l-51.6-9.67-1.69-65.75 2.55 65.19 50.03 9.43.71-.96z" style="stroke:#1d1d1b;fill:none;stroke-width:2px;stroke-linecap:round;stroke-linejoin:round"/><path d="M114.16 36.05v65.06l-13.22 17.8v-1.76l12.65-17.08V53.4s-3.47-5.61-6.68-1.87c-2.28 2.66-3.61 8.56-5.97 11.75V28.66l13.22 7.39Z" class="cls-8"/><path d="M113.6 53.4v46.67l-12.65 17.08V63.28c2.36-3.19 3.69-9.09 5.97-11.75 3.21-3.74 6.68 1.87 6.68 1.87Z" class="cls-7"/><path d="m117.04 37.66-2.88-1.61-13.22-7.39 7.33-6.63h.01l5.88 10.5 2.88 5.13z" class="cls-8"/><path d="m117.04 37.66-2.88-5.13-5.88-10.5 5.88-5.33 2.88 20.96z" class="cls-8"/><path d="M52.97 67.94h1.31c.8 0 1.44-.64 1.44-1.44v-.36c0-.8-.64-1.44-1.44-1.44H19.09c-.8 0-1.44.64-1.44 1.44v.36c0 .8.64 1.44 1.44 1.44h1.31M21.37 80.84l-.97-12.9h32.57L52 80.84" class="cls-4"/><path d="m52 80.84-1.57 20.85-1.08 14.29a2.806 2.806 0 0 1-2.8 2.6H26.83c-1.47 0-2.69-1.13-2.8-2.6l-1.08-14.29-1.57-20.85h30.63Z" style="fill:#fff;stroke-width:2px;stroke-linecap:round;stroke-linejoin:round;stroke:#000"/><path d="M22.95 101.68h-.01l-1.57-20.84 1.58 20.84z" style="fill:none;stroke-width:2px;stroke-linecap:round;stroke-linejoin:round;stroke:#000"/><path d="M90.3 108.17c-.97.59-26.25-42.18-25.68-42.53s26.72 41.9 25.68 42.53ZM84.67 101.7s-4.84-3.89-9.4-2.32c0 0 3.68 6.1 9.4 2.32ZM82.75 98.9s-5.45-.21-6.51-4.67c0 0 5.06-.51 6.51 4.67ZM78.98 92.27s-4.84-3.89-9.4-2.32c0 0 3.68 6.1 9.4 2.32ZM77.06 89.47s-5.45-.21-6.51-4.67c0 0 5.06-.51 6.51 4.67ZM73.29 82.84s-4.84-3.89-9.4-2.32c0 0 3.68 6.1 9.4 2.32ZM71.36 80.04s-5.45-.21-6.51-4.67c0 0 5.06-.51 6.51 4.67ZM67.59 73.41s-4.84-3.89-9.4-2.32c0 0 3.68 6.1 9.4 2.32ZM65.67 70.61s-5.45-.22-6.51-4.67c0 0 5.06-.51 6.51 4.67ZM86.96 100.32s-1.19-6.09 2.32-9.4c0 0 3.68 6.1-2.32 9.4Z" class="cls-3"/><path d="M85.38 97.31s2.35-4.92-1.1-7.94c0 0-2.81 4.24 1.1 7.94ZM81.27 90.89s-1.19-6.09 2.32-9.4c0 0 3.68 6.1-2.32 9.4ZM79.68 87.88s2.35-4.92-1.1-7.94c0 0-2.81 4.24 1.1 7.94ZM75.57 81.46s-1.19-6.09 2.32-9.4c0 0 3.68 6.1-2.32 9.4ZM73.99 78.45s2.35-4.92-1.1-7.94c0 0-2.81 4.24 1.1 7.94ZM69.88 72.03s-1.19-6.09 2.32-9.4c0 0 3.68 6.1-2.32 9.4ZM68.29 69.02s2.35-4.92-1.1-7.94c0 0-2.81 4.24 1.1 7.94ZM64.04 64.6s-5.05-2.05-4.54-6.61c0 0 4.93 1.24 4.54 6.61ZM89.46 106.84s-2.65-1.16-5.13-.71c0 0 1.72-1.85 3.97-.94l1.16 1.65ZM88.38 105.06s.21-2.88 1.76-4.87c0 0-2.44.66-2.68 3.08l.92 1.8Z" class="cls-3"/></svg>