<svg xmlns="http://www.w3.org/2000/svg" id="Calque_1" data-name="Calque 1" viewBox="0 0 128 128.13"><defs><style>.cls-4,.cls-6,.cls-7{stroke-linecap:round;stroke-linejoin:round}.cls-10,.cls-4,.cls-6,.cls-7{stroke:#000}.cls-7{fill:#d6d6d6}.cls-4,.cls-6{fill:#fff}.cls-6{stroke-width:2px}.cls-7{stroke-width:.5px}.cls-10{fill:none;stroke-miterlimit:10}</style></defs><path d="M15.05 19.52v81.26s10.05 6.38 30.55 6.38 30.77-6.38 30.77-6.38V19.39l-61.32.13Z" style="stroke-width:2.06px;fill:none;stroke:#000;stroke-linecap:round;stroke-linejoin:round"/><path d="m122.39 63.57-.73.65-39.22 34.37c0 .05-.01.09-.02.14-.21 1.06-.48 2.11-.72 3.16-.19.82-.36 1.65-.54 2.48h0c-.55 2.5-1.19 5-2.64 7.12-4.31 6.3-15.91 8.46-22.78 5.93-.78-.29-1.58-.65-2.27-1.13-.88-.6-1.62-1.36-2.02-2.34-.68-1.69-.19-3.67.83-5.18 2.09-3.12 5.87-5.35 9.26-6.74 2.24-.91 4.58-1.54 6.91-2.16 1.05-.28 2.1-.57 3.14-.87 1.67-.5 3.32-1.05 4.89-1.79.02 0 .04-.02.06-.03l42.01-33.73c1.2-.98 2.86-1.08 3.84.12Z" class="cls-6"/><path d="m121.79 67.4-39.26 34.23h0c-.21 1.09-.48 2.16-.73 3.22-.77 3.27-1.24 6.77-3.19 9.6-4.31 6.3-13.85 8.22-20.72 5.69-1.78-.65-3.58-1.72-4.29-3.47-.05-.13-.09-.25-.13-.38.69.48 1.49.84 2.27 1.13 6.87 2.53 18.47.37 22.78-5.93 1.45-2.12 2.09-4.62 2.64-7.11h0c.18-.84.35-1.67.54-2.49.24-1.05.51-2.1.72-3.16.01-.05.02-.09.02-.14l39.22-34.37.75-.61c.83.95.55 2.78-.62 3.79Z" class="cls-6"/><path d="M53.05 110.77s4.29 5.17 13.14 4.5c10.29-.78 12.29-11.77 12.29-11.77s-3.99-1.18-5.56-2.33-5.73-4.3-5.73-4.3c-1.33-1.28-3.09-2.06-4.78 0s-1.72 2.22-3.03 4.36c-1.31 2.14-1.96 3.56-3.9 6.26-1.18 1.64-2.43 3.28-2.43 3.28Z" style="fill:#d6d6d6;stroke:#000;stroke-linecap:round;stroke-linejoin:round"/><circle cx="62.9" cy="98.71" r=".36" class="cls-7"/><circle cx="60.36" cy="105.27" r=".36" class="cls-7"/><circle cx="56.2" cy="108.86" r=".36" class="cls-7"/><circle cx="65.87" cy="111.68" r=".36" class="cls-7"/><circle cx="59.57" cy="111.88" r=".36" class="cls-7"/><circle cx="64.54" cy="106.88" r=".36" class="cls-7"/><circle cx="69.56" cy="106.52" r=".36" class="cls-7"/><circle cx="71.83" cy="108.5" r=".36" class="cls-7"/><circle cx="62.18" cy="112.96" r=".36" class="cls-7"/><circle cx="63.46" cy="101.98" r=".36" class="cls-7"/><circle cx="67.99" cy="103.86" r=".36" class="cls-7"/><circle cx="67.41" cy="102.2" r=".36" class="cls-7"/><circle cx="65.83" cy="99.29" r=".36" class="cls-7"/><circle cx="72.55" cy="104.22" r=".36" class="cls-7"/><circle cx="61.82" cy="108.35" r=".36" class="cls-7"/><circle cx="61.08" cy="101.84" r=".36" class="cls-7"/><circle cx="58.41" cy="107.09" r=".36" class="cls-7"/><circle cx="70.11" cy="101.26" r=".36" class="cls-7"/><circle cx="67.77" cy="109.22" r=".36" class="cls-7"/><circle cx="76.18" cy="105.27" r=".36" class="cls-7"/><circle cx="69.39" cy="112.6" r=".36" class="cls-7"/><circle cx="55.62" cy="111.52" r=".36" class="cls-7"/><circle cx="65.16" cy="96.4" r=".36" class="cls-7"/><path d="M77.51 24.65s-16.13-.57-31.91-.57-31.91.57-31.91.57v-6.4s16.05-.57 31.91-.57 31.91.57 31.91.57v6.4Z" style="stroke-width:2px;fill:#b4eac3;stroke:#000;stroke-linecap:round;stroke-linejoin:round"/><path d="M68.78 43.13v49.71c-1.81.85-13.32 3.6-23.08 3.6s-21.2-2.85-23.08-3.77V43s14.86 1.02 22.98 1.02 23.18-.89 23.18-.89Z" style="fill:none;stroke-width:2px;stroke:#000;stroke-linecap:round;stroke-linejoin:round"/><path d="M51.12 62.58c.55.6.86 1.38.86 2.2v24.55c0 2.1-2.69 3.04-6.02 3.04s-6.02-.94-6.02-3.04V64.78c0-.82.31-1.6.86-2.2l.33-.36c.55-.6.86-1.39.86-2.2v-1.85h7.93v1.85c0 .81.31 1.6.86 2.2l.33.36Z" style="fill:#bfe6fc;stroke:#000;stroke-linecap:round;stroke-linejoin:round"/><path d="M48.54 53.77v1.75h-5.15v-1.75c0-.17.05-.34.13-.48.29-.49.95-.99 1.09-1.53.13-.5.19-1.01.19-1.53 0-.2 0-.39-.03-.59 0-.08-.02-.17-.03-.25 0-.66.55-1.19 1.22-1.19s1.22.53 1.22 1.19l-.03.25c-.07.78 0 1.57.22 2.32.14.48.78.9 1.04 1.33.08.14.13.3.13.48Z" style="fill:#a07637;stroke:#000;stroke-linecap:round;stroke-linejoin:round"/><path d="m50.74 56.61-.91-.07c-2.55-.21-5.11-.21-7.67 0l-.99.08v2.46l.96-.08c2.55-.2 5.11-.2 7.67 0l.93.07v-2.46Z" class="cls-4"/><path d="M50.25 56.57h0c-2.84-.25-5.69-.26-8.53 0h-.04v-1.35h.05c2.84-.26 5.69-.25 8.53 0h0v1.36Z" class="cls-4"/><path d="M41.79 66.31h2.17M41.79 69.74h2.17M41.79 73.17h2.17M41.79 76.6h2.17M41.79 80.03h2.17M41.79 83.46h2.17M41.79 86.89h2.17" class="cls-10"/><path d="M47.16 62.52h1.78c.27 0 .62 1.15.69 1.36.18.59.22 1.17.24 1.78 0 .08.09 1.24.03 1.24h-1.6c.04 0-.12-2.32-.15-2.5-.07-.38-.18-.77-.36-1.11-.1-.18-.38-.77-.61-.77Z" style="fill:#fff"/></svg>