<svg xmlns="http://www.w3.org/2000/svg" id="Calque_1" data-name="Calque 1" viewBox="0 0 128 128"><defs><style>.cls-1,.cls-2{fill:#87ccf3}.cls-1,.cls-2,.cls-3{stroke-width:2px;stroke-linecap:round;stroke-linejoin:round}.cls-1,.cls-3{stroke:#1d1d1b}.cls-2{stroke:#000}.cls-3{fill:#fff}</style></defs><path d="m106.43 22.03-7.33 6.63-53.89-8.39 7.92-6.11 53.3 7.87z" class="cls-1"/><path d="m112.32 16.7-5.88 5.33h-.01l-53.3-7.87 6.57-5.07 52.62 7.61zM99.1 28.66v34.62c-.96 1.3-2.09 2.15-3.51 2.15-4.94 0-13.23-1.2-18.7-9.62-5.48-8.42-13.49-7.39-16.17-5.57-2.67 1.82-14.11.86-14.91-6.75l-.6-23.22 53.89 8.4Z" class="cls-1"/><path d="M99.1 63.28v53.87l-.71.96-50.03-9.43-2.55-65.19c.8 7.62 12.23 8.58 14.91 6.75 2.67-1.82 10.69-2.85 16.17 5.57 5.47 8.42 13.76 9.62 18.7 9.62 1.43 0 2.55-.85 3.51-2.15Z" class="cls-3"/><path d="M99.1 117.15v1.76l-51.6-9.67-1.69-65.75 2.55 65.19 50.03 9.43.71-.96z" style="fill:none;stroke:#1d1d1b;stroke-linecap:round;stroke-linejoin:round;stroke-width:2px"/><path d="M112.32 36.05v65.06l-13.22 17.8v-1.76l12.65-17.08V53.4s-3.47-5.61-6.68-1.87c-2.28 2.66-3.61 8.56-5.97 11.75V28.66l13.22 7.39Z" class="cls-1"/><path d="M111.76 53.4v46.67l-12.65 17.08V63.28c2.36-3.19 3.69-9.09 5.97-11.75 3.21-3.74 6.68 1.87 6.68 1.87Z" class="cls-3"/><path d="m115.2 37.66-2.88-1.61-13.22-7.39 7.33-6.63h.01l5.88 10.5 2.88 5.13z" class="cls-1"/><path d="m115.2 37.66-2.88-5.13-5.88-10.5 5.88-5.33 2.88 20.96z" class="cls-1"/><path d="M53.99 67.94h1.31c.8 0 1.44-.64 1.44-1.44v-.36c0-.8-.64-1.44-1.44-1.44H20.11c-.8 0-1.44.64-1.44 1.44v.36c0 .8.64 1.44 1.44 1.44h1.31M22.39 80.84l-.98-12.9h32.58l-.97 12.9" class="cls-2"/><path d="m53.02 80.84-1.57 20.85-1.08 14.29a2.806 2.806 0 0 1-2.8 2.6H27.85c-1.47 0-2.69-1.13-2.8-2.6l-1.08-14.29-1.57-20.85h30.63Z" style="fill:#fff;stroke:#000;stroke-linecap:round;stroke-linejoin:round;stroke-width:2px"/><path d="M23.96 101.68h0l-1.57-20.84 1.57 20.84z" style="fill:none;stroke:#000;stroke-linecap:round;stroke-linejoin:round;stroke-width:2px"/><path d="M-188.61-514.12h3385.57v2571.67H-188.61z" style="stroke:#fff;stroke-width:8px;fill:none;stroke-linecap:round;stroke-linejoin:round"/></svg>