<svg xmlns="http://www.w3.org/2000/svg" id="Calque_1" viewBox="0 0 128 128.13"><defs><style>.cls-1,.cls-3{stroke-linecap:round;stroke-linejoin:round}.cls-1,.cls-10,.cls-3,.cls-4,.cls-6,.cls-7,.cls-8{stroke:#000}.cls-1,.cls-6{fill:#d6d6d6}.cls-10,.cls-3{fill:#fab0b4}.cls-4{fill:#fff}.cls-10,.cls-4,.cls-6,.cls-7,.cls-8{stroke-miterlimit:10}.cls-7{fill:#ddd}.cls-8{fill:#b2f0e9}</style></defs><path d="M1.85 12.33h119.08" class="cls-3"/><path d="M84.19 41.98H47.45v58.56h73.48V41.98H84.19Zm0 53.12c-12.34 0-22.35-10.01-22.35-22.35S71.85 50.4 84.19 50.4s22.35 10.01 22.35 22.35S96.53 95.1 84.19 95.1Z" class="cls-6"/><path d="M68.5 22.53H47.45v17.81H68.5V22.53Zm-2.57 15.34H50V26.03h15.93v11.84ZM84.19 22.52H70.15v17.81h50.78V22.52H84.19Zm13.49 14.44H74.74v-1.7h22.94v1.7Zm0-4.42H74.74v-1.7h22.94v1.7Zm0-4.42H74.74v-1.7h22.94v1.7Zm10.75 10.04c-3.57 0-6.48-2.9-6.48-6.48s2.91-6.48 6.48-6.48 6.48 2.91 6.48 6.48-2.91 6.48-6.48 6.48Z" class="cls-7"/><path d="M108.42 26.85c-2.66 0-4.83 2.17-4.83 4.83s2.17 4.83 4.83 4.83 4.83-2.17 4.83-4.83-2.17-4.83-4.83-4.83Z" class="cls-8"/><path d="M84.19 50.4c-12.34 0-22.35 10.01-22.35 22.35S71.85 95.1 84.19 95.1s22.35-10.01 22.35-22.35S96.53 50.4 84.19 50.4Z" class="cls-4"/><path d="M84.19 40.33H70.15V22.52H68.5v17.81H47.45v1.65h73.48v-1.65H84.19z" class="cls-8"/><path d="M103.28 102.19H47.45v11.59h73.48v-11.59h-17.65z" class="cls-6"/><path d="M84.19 100.54H47.45v1.65h73.48v-1.65H84.19z" class="cls-8"/><path d="M108.42 25.2c-3.57 0-6.48 2.91-6.48 6.48s2.91 6.48 6.48 6.48 6.48-2.9 6.48-6.48-2.91-6.48-6.48-6.48Zm0 11.31c-2.66 0-4.83-2.17-4.83-4.83s2.17-4.83 4.83-4.83 4.83 2.17 4.83 4.83-2.17 4.83-4.83 4.83ZM84.19 26.42h13.49v1.7H84.19z" class="cls-4"/><path d="M74.74 26.42h18.31v1.7H74.74zM74.74 30.84h9.45v1.7h-9.45z" class="cls-4"/><path d="M81.14 30.84h16.54v1.7H81.14zM84.19 35.27h13.49v1.7H84.19z" class="cls-4"/><path d="M74.74 35.27h11.93v1.7H74.74zM50 37.87h15.93V26.03H50v11.84Z" class="cls-4"/><path d="M101.29 72.75c0 2.4-.5 4.69-1.4 6.77-.9 2.07-2.2 3.93-3.8 5.49a17.019 17.019 0 0 1-11.9 4.83c20.2-17.22 0-34.19 0-34.19 4.8 0 9.13 1.98 12.24 5.17 3 3.08 4.86 7.28 4.86 11.93Z" style="fill:#77eddf;stroke-miterlimit:10;stroke:#000"/><path d="M51.4 31.43h13.15v4.97H51.4zM84.19 89.84c-9.44 0-17.09-7.65-17.09-17.09s7.65-17.1 17.09-17.1c0 0 20.2 16.97 0 34.19Z" class="cls-8"/><path d="m27.27 95.94-10.07 6.44c-1.76 1.13-4.11.6-5.23-1.17l-2.89-4.59a3.766 3.766 0 0 1 1.16-5.19l10.07-6.44c1.76-1.13 4.11-.6 5.23 1.17l2.89 4.59c1.11 1.76.59 4.07-1.16 5.19Z" class="cls-10"/><path d="m36.5 97.26-10.07 6.44c-1.76 1.13-4.11.6-5.23-1.17l-2.89-4.59a3.766 3.766 0 0 1 1.16-5.19l10.07-6.44c1.76-1.13 4.11-.6 5.23 1.17l2.89 4.59c1.11 1.76.59 4.07-1.16 5.19Z" style="fill:#f387d5;stroke-miterlimit:10;stroke:#000"/><path d="M36.61 113.86H8.92L6.08 98.27h33.36l-2.83 15.59z" class="cls-6"/><rect width="37.82" height="4.75" x="3.8" y="93.63" class="cls-6" rx="2.38" ry="2.38"/><path d="m25.6 31.82-2.43.17-1.24 20.72H10.39L8.51 18.09s12.1-5.47 34.09 0l-1.88 34.62H29.18l-1.24-20.72-2.43-.17" class="cls-3"/><path d="M20.37 32.34s5.76-1.2 10.93 0" style="fill:none;stroke:#000;stroke-linecap:round;stroke-linejoin:round"/><path d="M16.6 9.68h3.89v8.56H16.6zM30.22 9.45h3.89v8.56h-3.89z" class="cls-1"/><path d="M6.64 101.36h32.24" class="cls-10"/></svg>