<svg xmlns="http://www.w3.org/2000/svg" id="Calque_1" data-name="Calque 1" viewBox="0 0 128 128"><defs><style>.cls-1{fill:#d6d6d6}.cls-1,.cls-2,.cls-3,.cls-4,.cls-5,.cls-6,.cls-7,.cls-8{stroke:#000}.cls-1,.cls-2,.cls-3,.cls-4,.cls-5,.cls-6,.cls-8{stroke-linejoin:round}.cls-1,.cls-2,.cls-3,.cls-4,.cls-6{stroke-linecap:round}.cls-2{fill:#87ccf3}.cls-3{fill:#fff}.cls-4,.cls-5,.cls-7,.cls-8{fill:none}.cls-6{stroke-width:.5px}.cls-7{stroke-miterlimit:10}.cls-8{stroke-width:2px}</style></defs><path d="M47.89 34.41s9.54-5.33 14.33 6.23" class="cls-4"/><path d="M50.8 36.85s3.49-2.84 7.61.65M58.12 41.28s-.99-.11-2.86.06c-3.37.32-5.01-1.51-5.01-1.51l.06-.6s4.43-3.91 9.05 1.58M61.74 47.52s-2.93 2.98 0 5.17M61.95 51.12s1.22 1.06 2.17 1.45" class="cls-4"/><path d="M53.88 9.44s2.81 7.56 7.34 7.4c4.53-.16 5.12-8.27 5.12-8.27" class="cls-7"/><path d="M46.94 15.44s5.57 4.02 11.48.49" class="cls-4"/><path d="M45.25 19.46s5.73.05 8.12-2.08M44.29 34.9s-4.56-2.6-4.76 1.73c-.2 4.33 1.63 3.98 2.86 8.26 1.23 4.28 3.91 4.92 3.91 4.92" class="cls-4"/><path d="M64.4 8.83s-.69 2.98-2.06 5.08" class="cls-7"/><circle cx="55.58" cy="39.84" r="1.46" class="cls-2"/><circle cx="55.51" cy="40.45" r=".72" class="cls-6"/><path d="M82.73 34.27s-9.54-5.33-14.33 6.23" class="cls-4"/><path d="M79.81 36.71s-3.49-2.84-7.61.65M68.87 47.38s2.93 2.98 0 5.17M83.68 15.3s-9.36 4.59-12.93-.4" class="cls-4"/><path d="M85.36 19.32s-5.8.2-8.19-1.92" class="cls-4"/><path d="M81.09 19.66s5.63 9.75 5.23 15.1c0 0 8.2-21.16-9.49-26.83 0 0-.96-3.58-5.57-2.66-6.08-5.31-11.91.14-11.91.14-4.62-.92-5.57 2.66-5.57 2.66-17.68 5.66-9.49 26.83-9.49 26.83-.4-5.34 5.23-16.13 5.23-16.13" class="cls-4"/><path d="M86.39 33.74s-.44 21.48-8.48 29.8c-8.04 8.32-12.5 7.39-12.5 7.39l.14.02S60.77 72 52.73 63.69c-8.04-8.32-8.48-29.8-8.48-29.8" class="cls-4"/><path d="M86.32 34.76s4.56-2.6 4.76 1.73c.2 4.33-1.63 3.98-2.86 8.26-1.23 4.28-3.91 4.92-3.91 4.92" class="cls-4"/><path d="M64.47 14.77s3.92 4.96 9.2-3.34" class="cls-7"/><path d="M58.62 56.66h12.85s-6.42 5.35-12.85 0ZM60.09 59.73s4.86 2.89 10.08-.09M72.47 41.11s.99-.11 2.86.06c3.37.32 5.01-1.51 5.01-1.51l-.06-.6s-4.43-3.91-9.05 1.58" class="cls-4"/><circle cx="75.56" cy="39.67" r="1.5" class="cls-2"/><path d="M68.67 51.12s-1.22 1.06-2.17 1.45" class="cls-4"/><circle cx="75.56" cy="40.28" r=".74" class="cls-6"/><path d="M15.52 58.45h0c14.92-8.69 27.56-8.05 46.23-3.43v66s-27.63-3.67-46.23 3.43h0v-66ZM68.61 55.02c15.18-3.75 32.8-3.59 46.36 3.27h0v66h0c-15.18-3.75-31.05-7.18-46.23-3.43l-.13-65.84Z" class="cls-1"/><path d="M61.88 55.12h6.86v66h-6.86z" class="cls-1"/><path d="m26.49 88.9 24.42-2.59M26.49 85.02l24.42-2.59M26.49 81.77l24.42-2.59M26.49 78.14l24.42-2.59M26.49 74.26l24.42-2.59M26.49 70.37l24.42-2.59M26.49 66.49l24.42-2.59" class="cls-5"/><path d="m105.29 71.84-24.36-3.12M101.09 77.2l-18.67-2.39" class="cls-8"/><path d="M119.43 104.62c-2.14.71-5.68 2.5-7.35 3.34-6.58 3.29-7.13 1.31-6.29-.16.96-1.68 6.54-4.09 10.29-6.29-4.54.93-5.95 1.34-10.87 3.12-3.03 1.09-7.25-1.73.97-4.35 1.82-.58 5.07-1.43 8.65-2.79-2.38-.05-6.4.47-9.65 1.15-5.25 1.11-7.14.95-7.48-.52-.52-2.27 5.17-3.13 6.49-3.39 1.28-.26 8.68-1.65 9.99-1.88-3.31-.33-10.32.42-13.71.76-2.36.24-3.86-1.19-2.43-2.72.62-.66 2.49-1.12 3.32-1.24 2.82-.41 5.4-.76 8.23-.92.98-.06 4.62-.41 5.49-.51l-.04-6.32c2.48.96 10.11 2.29 9.82 13.1-.19 6.99-1.51 7.61-5.44 9.62ZM11.22 104.62c2.14.71 5.68 2.5 7.35 3.34 6.58 3.29 7.13 1.31 6.29-.16-.96-1.68-6.54-4.09-10.29-6.29 4.54.93 5.95 1.34 10.87 3.12 3.03 1.09 7.25-1.73-.97-4.35-1.82-.58-5.07-1.43-8.65-2.79 2.38-.05 6.4.47 9.65 1.15 5.25 1.11 7.14.95 7.48-.52.52-2.27-5.17-3.13-6.49-3.39-1.28-.26-8.68-1.65-9.99-1.88 3.31-.33 10.32.42 13.71.76 2.36.24 3.86-1.19 2.43-2.72-.62-.66-2.49-1.12-3.32-1.24-2.82-.41-5.4-.76-8.23-.92-.98-.06-4.62-.41-5.49-.51l.04-6.32c-2.48.96-10.11 2.29-9.82 13.1.19 6.99 1.51 7.61 5.44 9.62Z" class="cls-3"/></svg>