<svg xmlns="http://www.w3.org/2000/svg" id="Calque_1" data-name="Calque 1" viewBox="0 0 128 128"><defs><style>.cls-2,.cls-3,.cls-4,.cls-5{stroke:#000;stroke-linecap:round;stroke-linejoin:round;stroke-width:2px}.cls-2{fill:#b2f0e9}.cls-3{fill:#fff}.cls-4,.cls-5{fill:none}.cls-5{stroke-dasharray:0 0 9.78 9.78}</style></defs><path d="M86.24 63.95c0 4.54-4.34 8.23-9.67 8.23H52.12c-5.33 0-9.67-3.69-9.67-8.23s4.13-8.03 9.28-8.2l3.35.04 20.86.22 3.18.03c4.08.97 7.11 4.12 7.11 7.92Z" style="stroke:#000;stroke-linecap:round;stroke-linejoin:round;stroke-width:2px;fill:#87f3b9"/><path d="m109.6 38.3-9.78 2.44c-.16.04-.3.06-.46.06H29.33c-.16 0-.31-.03-.46-.06l-9.78-2.44H8.69v61.27h10.19l9.61-4.8c.26-.13.55-.2.84-.2h70.03c.29 0 .58.07.83.2l9.62 4.8h10.18V38.3H109.6ZM79.35 75.82H49.33c-6.54 0-11.88-5.33-11.88-11.88s5.08-11.58 11.39-11.83l33.65.42c5.01 1.39 8.74 5.95 8.74 11.41 0 6.54-5.33 11.88-11.88 11.88Z" class="cls-2"/><path d="m82.5 52.52-33.65-.42c-6.32.26-11.39 5.44-11.39 11.83s5.33 11.88 11.88 11.88h30.02c6.55 0 11.88-5.33 11.88-11.88 0-5.46-3.72-10.02-8.74-11.41Zm-5.93 19.65H52.12c-5.33 0-9.67-3.69-9.67-8.23s4.13-8.03 9.28-8.2l3.35.04 20.86.22 3.18.03c4.08.97 7.11 4.12 7.11 7.92 0 4.54-4.34 8.23-9.67 8.23Z" class="cls-2"/><path d="M29.08 46.19v6" class="cls-4"/><path d="M29.08 61.97v14.67" class="cls-5"/><path d="M29.08 81.53v6M99.6 46.19v6" class="cls-4"/><path d="M99.6 61.97v14.67" class="cls-5"/><path d="M99.6 81.53v6" class="cls-4"/><path d="M77.03 63.21c0 2.56-2.45 4.66-5.47 4.66H57.75c-3.01 0-5.47-2.09-5.47-4.66s2.34-4.54 5.24-4.64l1.9.02 11.79.13 1.8.02c2.31.55 4.02 2.33 4.02 4.47Z" class="cls-3"/><path d="M73.79 34.45c1.12-9.96 1.01-14.33-6.53-22.82a.831.831 0 0 0-1.24 0c-4.71 5.29-12.23 10.86-15.94 13.48-.37.26-.45.76-.21 1.13l3.53 5.29 1.06 1.64a.829.829 0 0 1-.69 1.28h-9.51c-.65 0-1.05.71-.71 1.26.47.76.98 1.59 1.52 2.49.36.6.72 1.23 1.1 1.88.36.6.71 1.23 1.07 1.88 1.96 3.46 4.02 7.42 5.68 11.25.28.63.53 1.26.78 1.88.26.63.49 1.26.71 1.88.71 1.97 1.26 3.86 1.55 5.56.07.4.4.69.81.69h16.38c.24 0 .47-.1.63-.28 1.48-1.7 2.65-3.73 3.6-5.97.26-.61.49-1.24.71-1.88.22-.61.42-1.24.61-1.88 1.05-3.57 1.65-7.44 1.96-11.25.05-.63.1-1.26.14-1.88.04-.63.06-1.26.07-1.88.18-5.07-.07-9.77-.36-13.07a.824.824 0 0 0-1.3-.6c-1.4 1-2.94 1.99-4.93 2.37" class="cls-3"/><path d="M49.87 26.24s8.58 11.9 11.99 19.39" class="cls-3"/></svg>