<svg xmlns="http://www.w3.org/2000/svg" id="Calque_1" data-name="Calque 1" viewBox="0 0 200 128"><defs><style>.cls-4,.cls-6{stroke-linecap:round;stroke-linejoin:round;stroke:#000;fill:#fff;stroke-width:2px}.cls-6{fill:none}</style></defs><path d="M42.39 91.64H149.7v8.29H42.39z" style="fill:#f3d587;stroke-width:2px;stroke:#000;stroke-linecap:round;stroke-linejoin:round"/><path d="M42.49 57.92H149.7v41.37H42.49z" class="cls-6"/><path d="M42.49 57.92H149.7v5.67H42.49zM155.22 123.15h-5.51V54.41h5.51zM42.49 99.3H149.7v13.31H42.49z" class="cls-4"/><circle cx="152.46" cy="50.46" r="4.56" class="cls-4"/><path d="M42.39 123.15h-5.51V54.41h5.51zM59.04 99.3h-5.51V63.6h5.51zM74.97 99.3h-5.51V63.6h5.51zM90.89 99.3h-5.51V63.6h5.51zM106.82 99.3h-5.51V63.6h5.51zM122.75 99.3h-5.51V63.6h5.51zM138.67 99.3h-5.51V63.6h5.51z" class="cls-4"/><circle cx="39.64" cy="50.46" r="4.56" class="cls-4"/><path d="M39.64 45.9V19.81H62.6v7.86L48.31 36M62.67 19.81v7.86L76.96 36M62.6 27.67v7.5" class="cls-6"/><path d="M60.47 35.34h4.26v4.26h-4.26z" style="stroke:#000;stroke-linecap:round;stroke-linejoin:round;fill:#87ccf3" transform="rotate(45 62.6 37.47)"/><path d="M46.14 35.34h4.26v4.26h-4.26z" style="fill:#b4eac3;stroke:#000;stroke-linecap:round;stroke-linejoin:round" transform="rotate(90 48.28 37.47)"/><rect width="5.04" height="5.04" x="74.44" y="35.46" rx="2.52" ry="2.52" style="fill:#fab0b4;stroke:#000;stroke-linecap:round;stroke-linejoin:round" transform="rotate(45 76.963 37.969)"/><rect width="29.47" height="29.47" x="85.4" y="14.89" rx="4.14" ry="4.14" style="fill:#bbfedb"/><path d="M114.88 27.29v12.93c0 2.28-1.86 4.14-4.14 4.14h-21.2c-2.28 0-4.14-1.86-4.14-4.14v-21.2c0-2.28 1.86-4.14 4.14-4.14h21.2" class="cls-6"/><path d="m89.48 23.59 10.66 15.29 17.99-23.99" style="stroke-width:3px;fill:none;stroke:#000;stroke-linecap:round;stroke-linejoin:round"/><path d="M-5096.91-5317h6467.34v6437.3h-6467.34z" style="stroke:#fff;stroke-width:8px;fill:none;stroke-linecap:round;stroke-linejoin:round"/></svg>