<svg xmlns="http://www.w3.org/2000/svg" id="Calque_1" viewBox="0 0 128 128"><defs><style>.cls-1{fill:#ffd4ad;stroke:#000;stroke-miterlimit:10;stroke-width:2px}</style></defs><path d="M37.67 76.9V34.44c0-2.17 1.77-3.92 3.94-3.92s3.92 1.75 3.92 3.92v3.74h36.6v-3.74c0-2.17 1.77-3.92 3.94-3.92s3.92 1.75 3.92 3.92v3.74h.1v39.05" class="cls-1"/><path d="M75.72 77.23c-7.84.85-15.74.85-23.71.04-2.85 3.42-6.41 1.05-4.19-3.43-.21-1.16-.38-2.31-.49-3.47-.39-3.95-.21-7.9.56-11.85-2.48-4.81 1.67-7.28 4.6-2.92 7.65-.42 15.24-.42 22.78.02 2.94-4.39 7-1.59 4.42 3.29 1.19 4.86 1.22 9.71.07 14.56 2.6 4.72-1.1 7.33-4.04 3.75Z" style="fill:#fff;stroke:#000;stroke-miterlimit:10;stroke-width:2px"/><path d="M31.69 83.47h64.39v24.85H31.69z" class="cls-1"/><path d="M38.58 91.95h50.36v7.86H38.58zM31.69 78.9v38.32h-7.86V78.9c0-2.17 1.75-3.94 3.92-3.94s3.94 1.77 3.94 3.94ZM103.93 78.68V117h-7.86V78.68c0-2.17 1.77-3.92 3.94-3.92s3.92 1.75 3.92 3.92Z" class="cls-1"/><path d="M31.69 78.9s22.47-15.57 64.39-.22v4.79H31.69V78.9Z" style="fill:#bbfedb;stroke:#000;stroke-miterlimit:10;stroke-width:2px"/></svg>