<svg xmlns="http://www.w3.org/2000/svg" id="Calque_1" data-name="Calque 1" viewBox="0 0 200 128"><defs><style>.cls-1,.cls-2,.cls-3,.cls-4,.cls-5,.cls-6{stroke:#000;stroke-linecap:round;stroke-linejoin:round}.cls-1{fill:#87ccf3}.cls-2{fill:#b4eac3}.cls-3{fill:#f3d587}.cls-4{fill:#fff}.cls-5{fill:none}.cls-6{fill:#fab0b4}</style></defs><path d="M14.54 80.87h76.32v5.9H14.54z" class="cls-3"/><path d="M14.61 56.89h76.25v29.42H14.61z" class="cls-5"/><path d="M14.61 56.89h76.25v4.03H14.61zM94.78 103.28h-3.92V54.4h3.92zM14.61 86.32h76.25v9.47H14.61z" class="cls-4"/><circle cx="92.82" cy="51.58" r="3.24" class="cls-4"/><path d="M14.54 103.28h-3.92V54.4h3.92zM22.26 86.32h-3.19V60.93h3.19zM31.43 86.32h-3.19V60.93h3.19zM40.59 86.32H37.4V60.93h3.19zM49.75 86.32h-3.19V60.93h3.19zM58.91 86.32h-3.19V60.93h3.19zM68.08 86.32h-3.19V60.93h3.19zM77.24 86.32h-3.19V60.93h3.19zM86.39 86.32H83.2V60.93h3.19z" class="cls-4"/><circle cx="12.58" cy="51.58" r="3.24" class="cls-4"/><path d="M12.58 48.34V29.78h16.33v5.59L18.75 41.3M28.96 29.78v5.59l10.17 5.93M28.91 35.37v5.34" class="cls-5"/><path d="m28.914 40.206 2.142 2.142-2.142 2.143-2.143-2.143z" class="cls-1"/><path d="M20.24 40.83v3.03h-3.03v-3.03z" class="cls-2"/><rect width="3.58" height="3.58" x="37.34" y="40.91" class="cls-6" rx="1.75" ry="1.75" transform="rotate(45 39.13 42.708)"/><path d="M108.04 80.87h76.32v5.9h-76.32z" class="cls-3"/><path d="M108.11 56.89h76.25v29.42h-76.25z" class="cls-5"/><path d="M108.11 56.89h76.25v4.03h-76.25zM188.28 103.28h-3.92V54.4h3.92zM108.11 86.32h76.25v9.47h-76.25z" class="cls-4"/><circle cx="186.32" cy="51.58" r="3.24" class="cls-4"/><path d="M108.05 103.28h-3.92V54.4h3.92z" class="cls-4"/><circle cx="106.08" cy="51.58" r="3.24" class="cls-4"/><path d="M106.08 48.34V29.78h16.33v5.59l-10.16 5.93M122.47 29.78v5.59l10.16 5.93M122.41 35.37v5.34" class="cls-5"/><path d="m122.418 40.2 2.143 2.143-2.143 2.142-2.142-2.142z" class="cls-1"/><path d="M113.74 40.83v3.03h-3.03v-3.03z" class="cls-2"/><rect width="3.58" height="3.58" x="130.84" y="40.91" class="cls-6" rx="1.75" ry="1.75" transform="rotate(45 132.634 42.699)"/><path d="M108.04 60.98h76.32v25.34h-76.32z" style="opacity:.53;stroke-miterlimit:10;fill:#87ccf3;stroke:#000"/><path d="m108.66 61.47-.01 24.2 37.61-24.2h-37.6z" style="opacity:.6;fill:#87ccf3"/><path d="M-5973.3-5317H494.04v6437.3H-5973.3z" style="stroke:#fff;stroke-width:8px;fill:none;stroke-linecap:round;stroke-linejoin:round"/></svg>