<svg xmlns="http://www.w3.org/2000/svg" id="Calque_1" data-name="Calque 1" viewBox="0 0 128 128"><defs><style>.cls-1,.cls-2{fill:#ffd4ad;stroke:#000;stroke-miterlimit:10;stroke-width:2px}.cls-2{fill:#fff}</style></defs><path d="M110.81 38.25V77.3c-47.06-13.95-81.01-4.74-93.09-.32V34.52c0-2.17 1.77-3.92 3.94-3.92s3.92 1.75 3.92 3.92v3.74h77.27v-3.74c0-2.17 1.77-3.92 3.94-3.92s3.92 1.75 3.92 3.92v3.74h.1Z" class="cls-1"/><path d="M54.3 77.29c-7.84.85-15.74.85-23.71.04-2.85 3.42-6.41 1.05-4.19-3.43-.21-1.16-.38-2.31-.49-3.47-.39-3.95-.21-7.9.56-11.85-2.48-4.81 1.67-7.28 4.6-2.92 7.65-.42 15.24-.42 22.78.02 2.94-4.39 7-1.59 4.42 3.29 1.19 4.86 1.22 9.71.07 14.56 2.6 4.72-1.1 7.33-4.04 3.75ZM97.93 77.29c-7.84.85-15.74.85-23.71.04-2.85 3.42-6.41 1.05-4.19-3.43-.21-1.16-.38-2.31-.49-3.47-.39-3.95-.21-7.9.56-11.85-2.48-4.81 1.67-7.28 4.6-2.92 7.65-.42 15.24-.42 22.78.02 2.94-4.39 7-1.59 4.42 3.29 1.19 4.86 1.22 9.71.07 14.56 2.6 4.72-1.1 7.33-4.04 3.75Z" class="cls-2"/><path d="M12.88 83.53h102.57v24.85H12.88z" class="cls-1"/><path d="M19.77 92.02h88.55v7.86H19.77zM12.88 78.97v38.32H5.02V78.97c0-2.17 1.75-3.94 3.92-3.94s3.94 1.77 3.94 3.94ZM123.31 78.74v38.32h-7.86V78.74c0-2.17 1.77-3.92 3.94-3.92s3.92 1.75 3.92 3.92Z" class="cls-1"/><path d="M115.45 78.74v4.79H12.88v-4.57s1.67-.82 4.84-2c12.08-4.42 46.03-13.62 93.09.32v.02c1.52.45 3.07.92 4.64 1.42Z" style="fill:#87ccf3;stroke:#000;stroke-miterlimit:10;stroke-width:2px"/><path d="M-565.03-1718.48h2244.45v5948.74H-565.03z" style="fill:none;stroke:#fff;stroke-linecap:round;stroke-linejoin:round;stroke-width:8px"/></svg>