<svg xmlns="http://www.w3.org/2000/svg" id="Calque_1" data-name="Calque 1" viewBox="0 0 200 128"><defs><style>.cls-2,.cls-4,.cls-5,.cls-7,.cls-9{stroke:#000}.cls-11,.cls-2,.cls-4,.cls-5,.cls-7,.cls-9{stroke-linecap:round;stroke-linejoin:round}.cls-2{fill:#87ccf3}.cls-4{fill:#b4eac3}.cls-5{fill:#ffd4ad}.cls-11,.cls-7,.cls-9{fill:#fff;stroke-width:2px}.cls-11,.cls-9{fill:none}.cls-11{stroke:#ff6d75;stroke-width:3px}</style></defs><path d="M46.34 84.16h107.31v8.29H46.34z" style="fill:#f3d587;stroke-width:2px;stroke-linecap:round;stroke-linejoin:round;stroke:#000"/><circle cx="139.12" cy="76.56" r="14.04" class="cls-2"/><path d="M92.92 71.67h29.88v20.41H92.92z" class="cls-4"/><path d="M84.2 44.18h20.41v24.77H84.2z" style="fill:#b2f0e9;stroke-linecap:round;stroke-linejoin:round;stroke:#000" transform="rotate(-59.48 94.399 56.567)"/><path d="M31.49 60.09h47.15V70.7H31.49z" style="stroke-linecap:round;stroke-linejoin:round;stroke:#000;fill:#76ac75" transform="rotate(98.66 55.068 65.385)"/><path d="M62.46 64.88a6.64 6.64 0 0 0-.41 2.1c-.04.97-.03 1.79.02 2.47-1.23.52-2.66.03-3.3-1.17-.68-1.26-.2-2.84 1.07-3.51.86-.46 1.85-.39 2.62.1ZM75.89 59.14c.63 1.19.25 2.65-.85 3.38-.54-.42-1.21-.89-2.04-1.39-.68-.42-1.35-.68-1.99-.83a2.594 2.594 0 0 1 4.88-1.15ZM67.74 83.27c.07.14.15.27.23.4l-.12.07a2.673 2.673 0 0 0-1.49.74c-.04.04-.08.08-.11.12l-.44.24s-1.1.15-2.32-2.55c-.87-1.93 1.42-5.26 2.79-7 .17.07.36.14.54.2-.6 2.6-.29 5.51.94 7.79Z" class="cls-5"/><path d="m67.85 83.74-1.6.86s.07-.08.11-.12c.19-.18.39-.33.61-.45.28-.15.58-.25.88-.29ZM85.93 74.08l-.39.21c-.05 0-.11.02-.16.03-.26.05-.49.14-.71.26-.28.15-.52.34-.73.57l-.06.03c-.06-.14-.13-.27-.2-.41-1.26-2.36-3.6-4.28-6.18-5.19l.09-.41c2.16-.18 6.38-.28 7.53 1.56 1.56 2.51.83 3.35.83 3.35Z" class="cls-5"/><path d="m85.54 74.28-1.61.86a2.714 2.714 0 0 1 1.44-.83l.16-.03ZM76.05 86.96l-3.29 3.64c.84-1.04.82-2.57-.11-3.58 1.08.21 2.23.18 3.4-.06ZM86.27 83.02l-3.91.57.05-.17h0a8.5 8.5 0 0 0 1.61-2.4 2.76 2.76 0 0 0 2.25 1.99Z" class="cls-5"/><path d="M83.67 74.77c.07.14.14.27.2.41 0 0 0 .02.01.03-.55.63-.81 1.51-.62 2.38l.39 1.8.33 1.5c0 .05.02.1.04.15-.38.86-.92 1.66-1.61 2.39h0c-.84.9-1.89 1.69-3.1 2.33-1.07.57-2.18.98-3.26 1.21-1.17.24-2.32.27-3.4.06-.02-.02-.04-.04-.05-.06l-1.41-1.46h0l-.94-.97c-.61-.63-1.44-.9-2.25-.82-.01-.02-.02-.03-.03-.05-.08-.13-.15-.26-.23-.4-1.22-2.29-1.54-5.2-.94-7.79.27.09.55.16.85.22.8.14 1.69.15 2.65-.06-.64 1.74-.52 3.86.34 5.47 1.42 2.66 4.32 2.92 6.98 1.5s4.05-3.98 2.63-6.63c-.88-1.64-2.63-2.94-4.46-3.35a6.55 6.55 0 0 0 1.43-2.19c.11-.28.2-.57.27-.86 2.58.92 4.93 2.84 6.18 5.19Z" class="cls-5"/><path d="M80.25 75.97c1.42 2.66.02 5.21-2.63 6.63s-5.56 1.16-6.98-1.5c-.86-1.61-.98-3.73-.34-5.47.74-.16 1.53-.46 2.36-.92.15-.08.29-.17.41-.26.15-.05.3-.12.45-.2.94-.48 1.69-1.04 2.26-1.63 1.84.41 3.58 1.7 4.46 3.35Z" class="cls-5"/><path d="M80.25 75.97c1.42 2.66.02 5.21-2.63 6.63s-5.56 1.16-6.98-1.5c-.86-1.61-.98-3.73-.34-5.47.74-.16 1.53-.46 2.36-.92.15-.08.29-.17.41-.26.15-.05.3-.12.45-.2.94-.48 1.69-1.04 2.26-1.63 1.84.41 3.58 1.7 4.46 3.35ZM72.75 90.61l-.22.25a2.768 2.768 0 0 1-3.89-.06l-2.34-2.42c-1.01-1.05-1.03-2.72-.05-3.78l1.6-.86s.1-.01.15-.02c.81-.08 1.65.2 2.25.82l.94.97h0l1.41 1.46c.02.02.04.04.05.06.92 1.01.95 2.54.11 3.58Z" class="cls-5"/><path d="m67.85 83.74-1.6.86s.07-.08.11-.12c.19-.18.39-.33.61-.45.28-.15.58-.25.88-.29ZM88.65 76.42l.71 3.3c.32 1.48-.63 2.95-2.11 3.27a2.76 2.76 0 0 1-3.23-1.96c-.02-.05-.03-.1-.04-.15l-.33-1.5-.39-1.8c-.19-.88.07-1.75.62-2.38.01-.02.03-.04.05-.06l1.61-.86c1.42-.22 2.8.71 3.11 2.14Z" class="cls-5"/><path d="m85.54 74.28-1.61.86a2.714 2.714 0 0 1 1.44-.83l.16-.03ZM75.05 62.52c-.54-.42-1.21-.89-2.04-1.39-.68-.42-1.35-.68-1.99-.83-2.83-.68-5.07.8-5.07.8s-2.48 1.03-3.49 3.78a6.64 6.64 0 0 0-.41 2.1c-.04.97-.03 1.79.02 2.47.17 2.36.74 3.1.74 3.1s1.25 1.81 3.45 2.73a7.033 7.033 0 0 0 1.39.42c.8.14 1.69.15 2.65-.06.74-.16 1.53-.46 2.36-.92.15-.08.29-.17.41-.26.15-.05.3-.12.45-.2.94-.48 1.69-1.04 2.26-1.63a6.55 6.55 0 0 0 1.43-2.19c.11-.28.2-.57.27-.86l.09-.41c.43-2.31-.37-4.3-.37-4.3s-.3-.89-2.16-2.34Zm-4.93 6.38c-1 .53-2.02.58-2.27.1s.35-1.3 1.34-1.84 2.02-.58 2.27-.1-.35 1.3-1.35 1.83Z" class="cls-5"/><path d="M65.7 68.64a.76.76 0 1 1-1.338.72.76.76 0 0 1 1.338-.72ZM73.67 64.38a.76.76 0 1 1-1.338.72.76.76 0 0 1 1.338-.72Z"/><path d="M71.46 67.06c.26.48-.35 1.3-1.35 1.83s-2.02.58-2.27.1.35-1.3 1.34-1.84 2.02-.58 2.27-.1ZM73.08 74.45l-2.97-5.55M133.05 39.95c-.61.25-1.22.62-1.83 1.14-.74.64-1.33 1.21-1.8 1.71a2.606 2.606 0 0 1-1.4-3.22 2.606 2.606 0 0 1 3.31-1.62c.92.32 1.55 1.1 1.72 2ZM146.45 45.9a2.607 2.607 0 0 1-3.06 1.69c-.06-.68-.18-1.49-.37-2.45-.16-.79-.42-1.46-.75-2.04.68-.6 1.65-.83 2.57-.51 1.36.47 2.08 1.95 1.62 3.31ZM123.14 56.41c-.05.15-.1.29-.14.44l-.13-.05c-.24-.19-.52-.34-.82-.45-.23-.08-.49-.13-.75-.14h-.16l-.48-.16s-.86-.71.29-3.45c.82-1.96 4.84-2.56 7.05-2.74.07.18.14.36.22.53-2.32 1.33-4.24 3.56-5.09 6.02Z" class="cls-5"/><path d="m122.87 56.81-1.73-.59h.16a2.69 2.69 0 0 1 1.57.59ZM142.34 63.49l-.42-.14s-.08-.07-.13-.1c-.22-.15-.44-.27-.68-.35-.3-.1-.61-.15-.92-.15l-.07-.02c.06-.14.11-.28.16-.43.87-2.54.68-5.57-.41-8.1.12-.07.25-.14.36-.21 1.61 1.46 4.57 4.5 4 6.6-.78 2.87-1.9 2.9-1.9 2.9Z" class="cls-5"/><path d="m141.92 63.35-1.73-.59c.31 0 .62.05.92.15.24.08.46.2.68.35.05.03.09.06.13.1ZM126.11 65.04l-4.93.07a2.766 2.766 0 0 0 2.56-2.53c.58.94 1.39 1.76 2.37 2.45ZM136 69.86l-3.1-2.48.16-.08h0c1.01 0 1.97-.14 2.86-.45-.59.94-.53 2.13.07 3.01Z" class="cls-5"/><path d="M140.29 62.3c-.05.15-.1.29-.16.43 0 0 0 .02-.01.03-.84.03-1.66.44-2.17 1.18l-1.05 1.51-.88 1.27s-.06.08-.08.13c-.89.31-1.85.46-2.86.46h0c-1.24 0-2.54-.24-3.84-.69-1.16-.4-2.21-.93-3.12-1.57-.98-.69-1.79-1.52-2.37-2.45v-.08l.11-2.03h0l.07-1.36c.05-.87-.32-1.68-.94-2.22 0-.02 0-.03.01-.05.04-.14.09-.29.14-.44.84-2.46 2.77-4.69 5.09-6.02.12.26.26.51.42.77.44.69 1.04 1.34 1.86 1.91-1.71.72-3.19 2.25-3.79 3.99-.98 2.86.81 5.17 3.67 6.15 2.86.98 5.69.26 6.68-2.6.61-1.77.36-3.94-.59-5.57.97.02 1.84-.16 2.59-.45.29-.11.56-.24.81-.39 1.1 2.53 1.28 5.56.41 8.1Z" class="cls-5"/><path d="M137.07 60.61c-.98 2.86-3.82 3.58-6.68 2.6s-4.65-3.3-3.67-6.15c.6-1.73 2.07-3.27 3.79-3.99.63.43 1.39.81 2.29 1.11.16.05.32.09.48.12.14.07.29.14.45.2 1 .36 1.91.53 2.75.55.96 1.63 1.2 3.8.59 5.57Z" class="cls-5"/><path d="M137.07 60.61c-.98 2.86-3.82 3.58-6.68 2.6s-4.65-3.3-3.67-6.15c.6-1.73 2.07-3.27 3.79-3.99.63.43 1.39.81 2.29 1.11.16.05.32.09.48.12.14.07.29.14.45.2 1 .36 1.91.53 2.75.55.96 1.63 1.2 3.8.59 5.57ZM121.18 65.11h-.34a2.763 2.763 0 0 1-2.62-2.9l.18-3.38a2.776 2.776 0 0 1 2.74-2.62l1.73.59s.08.06.12.1c.61.54.98 1.34.94 2.22l-.07 1.35h0l-.11 2.03v.08a2.766 2.766 0 0 1-2.56 2.53Z" class="cls-5"/><path d="m122.87 56.81-1.73-.59h.16a2.69 2.69 0 0 1 1.57.59ZM142.48 67.1l-1.94 2.78c-.87 1.25-2.6 1.55-3.85.69a2.76 2.76 0 0 1-.76-3.71c.03-.04.05-.09.08-.13l.88-1.27 1.05-1.51c.51-.74 1.33-1.15 2.17-1.18h.08l1.73.59c1.14.9 1.39 2.55.55 3.75ZM141.92 63.35l-1.73-.59c.31 0 .62.05.92.15.24.08.46.2.68.35.05.03.09.06.13.1ZM143.39 47.59c-.06-.68-.18-1.49-.37-2.45-.16-.79-.42-1.46-.75-2.04-1.44-2.55-4.05-3.17-4.05-3.17s-2.46-1.12-5.17.02c-.61.25-1.22.62-1.83 1.14-.74.64-1.33 1.21-1.8 1.71-1.61 1.74-1.77 2.67-1.77 2.67s-.48 2.16.35 4.4c.07.18.14.36.22.53.12.26.26.51.42.77.44.69 1.04 1.34 1.86 1.91.63.43 1.39.81 2.29 1.11.16.05.32.09.48.12.14.07.29.14.45.2 1 .36 1.91.53 2.75.55a6.8 6.8 0 0 0 2.59-.45c.29-.11.56-.24.81-.39.12-.07.25-.14.36-.21 1.99-1.26 2.91-3.21 2.91-3.21s.45-.83.24-3.19Zm-8.06.74c-1.07-.37-1.8-1.09-1.63-1.6.18-.52 1.19-.64 2.27-.27s1.8 1.09 1.63 1.6-1.19.63-2.27.26Z" class="cls-5"/><path d="M132.5 44.9c-.14.4-.57.61-.97.48-.4-.14-.61-.57-.48-.97s.57-.61.97-.47.61.57.47.97ZM141.09 47.85c-.14.4-.57.61-.97.48s-.61-.57-.48-.97.57-.61.97-.47.61.57.47.97Z"/><path d="M137.6 48.06c-.18.51-1.19.63-2.27.26s-1.8-1.09-1.63-1.6c.18-.52 1.19-.64 2.27-.27s1.8 1.09 1.63 1.6ZM133.28 54.3l2.05-5.98" class="cls-5"/><path d="M46.44 50.45h107.21v41.37H46.44z" class="cls-9"/><path d="M46.44 50.45h107.21v5.67H46.44zM159.17 115.67h-5.51V46.93h5.51zM46.44 91.82h107.21v13.31H46.44z" class="cls-7"/><circle cx="156.41" cy="42.98" r="4.56" class="cls-7"/><path d="M46.34 115.67h-5.51V46.93h5.51zM62.99 91.82h-5.51v-35.7h5.51zM78.92 91.82h-5.51v-35.7h5.51zM94.84 91.82h-5.51v-35.7h5.51zM110.77 91.82h-5.51v-35.7h5.51zM126.7 91.82h-5.51v-35.7h5.51zM142.62 91.82h-5.51v-35.7h5.51z" class="cls-7"/><circle cx="43.59" cy="42.98" r="4.56" class="cls-7"/><path d="M43.59 38.43v-26.1h22.96v7.86l-14.29 8.33M66.62 12.33v7.86l14.29 8.33M66.55 20.19v7.5" class="cls-9"/><path d="m66.552 26.982 3.012 3.012-3.012 3.012-3.012-3.012z" class="cls-2"/><path d="M54.36 27.86v4.26H50.1v-4.26z" class="cls-4"/><rect width="5.04" height="5.04" x="78.4" y="27.98" rx="2.52" ry="2.52" style="fill:#fab0b4;stroke-linecap:round;stroke-linejoin:round;stroke:#000" transform="rotate(45 80.91 30.494)"/><path d="m52.89 14.77 94.22 98.46M147.11 14.77l-94.22 98.46" class="cls-11"/><path d="M-5342.96-5317h6467.34v6437.3h-6467.34z" style="stroke:#fff;stroke-width:8px;fill:none;stroke-linecap:round;stroke-linejoin:round"/></svg>