<svg xmlns="http://www.w3.org/2000/svg" id="Calque_1" data-name="Calque 1" viewBox="0 0 200 128"><defs><style>.cls-1,.cls-10,.cls-11,.cls-12,.cls-2,.cls-3,.cls-4,.cls-5,.cls-6,.cls-7,.cls-8,.cls-9{stroke-linecap:round;stroke-linejoin:round}.cls-1,.cls-10,.cls-11,.cls-12,.cls-13,.cls-14,.cls-15,.cls-16,.cls-18,.cls-2,.cls-3,.cls-4,.cls-5,.cls-6,.cls-7,.cls-9{stroke:#000}.cls-1,.cls-15{fill:#d6d6d6}.cls-2{fill:#87f3b9}.cls-3{fill:#8987f3}.cls-4{fill:#baa584}.cls-16,.cls-5{fill:#a07637}.cls-6{fill:#fce9b9}.cls-13,.cls-7{fill:#ff6d75}.cls-8{stroke:#f3d587}.cls-8,.cls-9{fill:#f3d587}.cls-10,.cls-14{fill:#fff}.cls-11{fill:none}.cls-12,.cls-18{fill:#fab0b4}.cls-13,.cls-14,.cls-15,.cls-16,.cls-18{stroke-miterlimit:10}</style></defs><path d="M161.54 60.55v1.88h9.32v-1.85l-9.32-.03zM160.01 62.43h12.38v1.53h-12.38z" class="cls-1"/><path d="M139.86 33.52h54.59v27.06h-54.59z" class="cls-1"/><path d="M142.16 35.39h50.01v23.33h-50.01z" class="cls-10"/><path d="M142.99 66.33h48.59V94.8h-48.59z" class="cls-5"/><path d="M140.52 63.83h52.15v2.5h-52.15z" class="cls-4"/><path d="m147 94.79-.96 5.86h2.32l2.05-5.86H147z" class="cls-10"/><path d="m184.22 94.79.96 5.86h-2.32l-2.05-5.86h3.41z" class="cls-4"/><path d="M6.03 35.92h24.75v71.47H6.03z" class="cls-15"/><path d="M7.91 37.88h20.97v20.97H7.91zM7.91 61.34h20.97v20.97H7.91z" class="cls-14"/><path d="M7.91 85.63h20.97v9.03H7.91z" class="cls-15"/><path d="M14.29 89.46h8.23v1.37h-8.23z" class="cls-14"/><path d="M6.03 107.39h6.54v2.13H6.03zM24.23 107.39h6.54v2.13h-6.54z" class="cls-15"/><path d="M12.62 74.33h11.57v3.84H12.62z" class="cls-12"/><path d="M12.62 78.17h11.57v3.84H12.62z" class="cls-7"/><path d="M12.62 66.57h11.57v3.84H12.62z" class="cls-12"/><path d="M12.62 70.41h11.57v3.84H12.62z" class="cls-7"/><path d="M12.62 50.85h11.57v3.84H12.62z" class="cls-2"/><path d="M12.62 54.69h11.57v3.84H12.62z" class="cls-9"/><path d="M12.62 42.95h11.57v3.84H12.62z" class="cls-2"/><path d="M12.62 46.79h11.57v3.84H12.62z" class="cls-9"/><path d="M53.5 59.61h42.85c1.14 0 2.07.93 2.07 2.07v29.06c0 1.14-.93 2.07-2.07 2.07H53.5c-1.15 0-2.08-.93-2.08-2.08V61.68c0-1.15.93-2.08 2.08-2.08Z" class="cls-6"/><path d="M145.36 61.68v29.06c0 1.15-.93 2.07-2.07 2.07h-42.85c-1.15 0-2.08-.93-2.08-2.07V61.68c0-1.15.93-2.08 2.08-2.08h42.85c.13 0 .25.01.37.03.97.18 1.7 1.02 1.7 2.04Z" class="cls-6"/><path d="M51.42 86.47h93.53v17.22H51.42z" class="cls-6"/><path d="M59.56 85.7h78v1.94h-78z" class="cls-9"/><path d="M61.33 64.78c0 .49-.4.88-.88.88s-.88-.4-.88-.88.4-.88.88-.88.88.4.88.88ZM90.3 64.78c0 .49-.4.88-.88.88s-.88-.4-.88-.88.4-.88.88-.88.88.4.88.88ZM138.45 64.78c0 .49-.4.88-.88.88s-.88-.4-.88-.88.4-.88.88-.88.88.4.88.88ZM107.13 64.78c0 .49-.4.88-.88.88s-.88-.4-.88-.88.4-.88.88-.88.88.4.88.88ZM90.3 82.24c0 .49-.4.88-.88.88s-.88-.4-.88-.88.4-.88.88-.88.88.4.88.88ZM134.67 82.24c0 .49-.4.88-.88.88s-.88-.4-.88-.88.4-.88.88-.88.88.4.88.88ZM107.13 82.24c0 .49-.4.88-.88.88s-.88-.4-.88-.88.4-.88.88-.88.88.4.88.88ZM66.69 82.24c0 .49-.4.88-.88.88s-.88-.4-.88-.88.4-.88.88-.88.88.4.88.88ZM76.16 72.76c0 .49-.4.88-.88.88s-.88-.4-.88-.88.4-.88.88-.88.88.4.88.88ZM122.74 72.76c0 .49-.4.88-.88.88s-.88-.4-.88-.88.4-.88.88-.88.88.4.88.88Z" class="cls-8"/><path d="M58.55 100.11c0 1.12-5.26 2.04-11.75 2.04s-11.76-.92-11.76-2.04 4.87-1.97 11.01-2.03V13.6h2.18v84.49c5.81.12 10.32.97 10.32 2.02Z" class="cls-1"/><path d="m42.16 7.04-9.03 23.37h28.02l-8.4-23.37H42.16z" class="cls-12"/><path d="M41.26 30.41h.25v12.72h-.25z" class="cls-10"/><ellipse cx="41.31" cy="43.65" class="cls-1" rx=".69" ry="1.02"/><path d="M59.56 79.6v22.54c0 2.22-1.8 4.01-4.01 4.01h-6.76a4.01 4.01 0 0 1-4.01-4.01V79.6c0-2.22 1.8-4.01 4.01-4.01h6.76c.26 0 .52.03.77.07 1.85.36 3.24 1.98 3.24 3.94Z" class="cls-9"/><rect width="14.79" height="30.57" x="137.56" y="75.59" class="cls-9" rx="4.01" ry="4.01"/><path d="M79.01 78.61s0-.04-.01-.06l-.09-.45c0-.04-.02-.08-.02-.12-.03-.17-.06-.33-.09-.49 0-.03-.01-.06-.02-.09-.02-.13-.04-.26-.06-.38 0-.05-.01-.09-.02-.14l-.06-.44c-.22-2.52.1-7.04-.42-7.31-.41-.22-.81.31-2.06.09-3.7-.64-6.38-.51-6.85-.41-.47 0-3.13.44-6.61 1.83-.13.05-.26.09-.38.13l-.11.03c-.08.02-.15.03-.22.05-.04 0-.07.01-.1.02-.07 0-.14.01-.2.02h-.07c-.45.01-.73-.08-.95.1-.45.37.81 4.73 1.12 7.24.22 2.52-.1 7.04.42 7.31.41.22.81-.31 2.06-.09 3.7.64 6.37.38 6.83.28.47 0 3.14-.31 6.62-1.7 1.18-.47 1.68-.04 2.03-.34.15-.13.1-.72-.03-1.53 0-.03 0-.05-.01-.08-.17-.97-.45-2.24-.7-3.46ZM133.6 71.01c-.23-.17-.5-.07-.95-.07h-.27c-.03 0-.07 0-.11-.01-.07 0-.15-.02-.23-.04-.04 0-.07-.01-.11-.02-.12-.03-.24-.06-.38-.11-3.53-1.27-6.2-1.61-6.67-1.6-.46-.08-3.15-.11-6.83.65-1.24.26-1.66-.25-2.06-.02-.51.29-.03 4.79-.16 7.32-.01.14-.03.29-.05.44 0 .04-.01.09-.02.13-.02.13-.03.26-.05.39 0 .03 0 .06-.01.08-.02.16-.05.33-.07.5 0 .03 0 .06-.01.09-.03.17-.05.34-.08.51-.38 2.32-.91 4.85-.57 5.12.37.28.85-.16 2.04.27 3.53 1.27 6.21 1.48 6.68 1.47.47.08 3.15.24 6.82-.53 1.24-.26 1.66.25 2.06.02.5-.29.03-4.79.16-7.32.22-2.52 1.32-6.92.86-7.27Z" class="cls-13"/><path d="M67.03 40.99h54.14v3.03H67.03z" style="stroke-miterlimit:10;fill:#baa584;stroke:#000"/><path d="M73.16 8.62h24.59v32.37H73.16z" class="cls-16"/><path d="M75.58 10.69h19.76v28.22H75.58z" class="cls-14"/><path d="M78.94 15.49h13.04v18.62H78.94z" class="cls-18"/><path d="M103.98 27.21h10.47v13.78h-10.47z" class="cls-16"/><path d="M106.44 30.13h5.55v7.93h-5.55z" class="cls-18"/><path d="M155.42 25.01h27.69v1.46h-27.69z" class="cls-5"/><path d="M162.57 22.08h14.52v2.93h-14.52z" class="cls-7"/><path d="M162.57 19.15h14.52v2.93h-14.52z" class="cls-12"/><path d="M162.57 16.23h14.52v2.93h-14.52z" class="cls-9"/><path d="m157.06 116.54 1.11 1.6c.34-.21.74-.34 1.16-.34.29 0 .57.06.83.16l3.99-4.83-2.92-1.35-4.16 4.75ZM157.08 120c0-.78.41-1.47 1.03-1.86l-1.11-1.6s-8.86 1.6-8.98 4.34v1.17h9.95l.08-.23a2.17 2.17 0 0 1-.97-1.82Z" class="cls-7"/><path d="M158.17 118.14c-.62.39-1.03 1.07-1.03 1.86s.38 1.42.97 1.82c.35.24.77.37 1.22.37a2.19 2.19 0 1 0-.01-4.38c-.43 0-.83.12-1.16.34ZM192.28 87.44c0 .78.43 1.5 1.13 1.87a2.117 2.117 0 0 0 3.1-1.87c0-1.16-.95-2.11-2.11-2.11a2.105 2.105 0 0 0-2.11 2.11Z" class="cls-1"/><path d="M181.69 104.06c.08-.08.16-.16.25-.24-.08.08-.16.16-.25.24Z" class="cls-11"/><path d="M185.23 99.73s-.01.02-.02.03h0s.01-.02.02-.03Z" class="cls-7"/><path d="m182.88 102.87.24-.27-.24.27ZM183.44 102.23c.08-.09.15-.19.23-.28-.08.09-.15.19-.23.28Z" class="cls-11"/><path d="M185.21 99.76c-.06.1-.13.21-.19.32.07-.1.13-.21.19-.32h0Z" class="cls-7"/><path d="M183.99 101.55c.07-.1.15-.2.22-.3-.07.1-.15.2-.22.3ZM184.52 100.83c.07-.1.14-.21.21-.32-.07.11-.14.22-.21.32ZM179.2 106.07c.09-.06.18-.13.28-.2-.09.07-.18.13-.28.2Z" class="cls-11"/><path d="M176.68 107.62c.11-.06.22-.12.34-.19-.11.06-.23.13-.34.19Z" class="cls-7"/><path d="M176.07 107.95c.11-.06.23-.12.35-.18-.12.06-.23.12-.35.18Z" class="cls-3"/><path d="M196.76 114.38a7.528 7.528 0 0 1-12.08 6 7.52 7.52 0 0 1-2.99-6c0-2.68 1.4-5.04 3.51-6.38a7.47 7.47 0 0 1 4.02-1.16c.3 0 .59.02.87.05h.02a7.54 7.54 0 0 1 6.64 7.49Z" class="cls-1"/><path d="m174.29 108.77.42-.18-.42.18ZM177.31 107.28c.1-.06.21-.12.31-.19-.1.06-.21.13-.31.19Z" class="cls-7"/><path d="M182.54 103.23c-.08.09-.16.17-.25.26.08-.08.16-.17.25-.26Z" class="cls-11"/><path d="m174.87 108.52.39-.18-.39.18Z" class="cls-7"/><path d="m175.46 108.24.36-.18-.36.18Z" class="cls-3"/><path d="m181.08 104.61.25-.22-.25.22ZM180.46 105.13c.09-.07.17-.14.26-.22-.09.07-.17.15-.26.22ZM177.94 106.9c.1-.06.2-.12.29-.18-.1.06-.2.12-.29.18ZM178.57 106.5l.28-.19-.28.19ZM179.84 105.62l.27-.21-.27.21Z" class="cls-11"/><path d="m174.31 104.93-.02.11s.01-.07.02-.11h0Z" class="cls-7"/><path d="M178.85 106.31c.12-.08.23-.16.35-.24-.12.08-.23.16-.35.24ZM179.48 105.88c.12-.09.24-.17.36-.26-.12.09-.24.17-.36.26ZM180.72 104.91l.36-.3-.36.3ZM181.33 104.39c.12-.11.24-.21.36-.32-.12.11-.24.22-.36.32ZM178.23 106.72c.11-.07.23-.14.34-.22-.11.07-.23.14-.34.22ZM180.1 105.41c.12-.09.24-.18.36-.28-.12.1-.24.19-.36.28ZM182.29 103.49c-.12.12-.23.23-.35.34.12-.11.24-.22.35-.34Z" class="cls-11"/><path d="M174.71 108.59c.05-.02.1-.04.16-.07-.05.02-.1.05-.16.07ZM175.26 108.34c.07-.03.13-.06.2-.09-.07.03-.13.06-.2.09ZM174.18 108.82s.07-.03.11-.04c-.04.02-.07.03-.11.04ZM177.02 107.44c.1-.05.19-.11.29-.16-.1.06-.19.11-.29.16ZM177.62 107.09c.11-.06.21-.12.32-.19-.11.06-.21.13-.32.19Z" class="cls-7"/><path d="m175.82 108.07.24-.12-.24.12Z" class="cls-3"/><path d="M176.42 107.77c.09-.05.18-.09.27-.14-.09.05-.18.09-.27.14Z" class="cls-7"/><path d="M184.21 101.25c.1-.14.21-.27.3-.42l-.3.42Z" class="cls-11"/><path d="M184.73 100.51c.1-.14.19-.28.29-.43-.09.15-.19.29-.29.43Z" class="cls-7"/><path d="M182.54 103.23c.11-.12.23-.23.34-.36-.11.12-.23.24-.34.36ZM183.11 102.6c.11-.12.22-.25.33-.38-.11.13-.22.25-.33.38ZM183.67 101.94c.11-.13.21-.26.32-.4-.1.14-.21.27-.32.4Z" class="cls-11"/><path d="M193.61 108.04v.2l-.08-.05-.2-.12c-.6-.35-1.26-.69-1.94-.92-.09-.03-.18-.06-.27-.08-.22-.07-.44-.11-.65-.14-.12-.03-.23-.04-.35-.05h-.02a7.531 7.531 0 0 0-4.89 1.11v-17.6c.01-.28.01-.56 0-.86v-3.29c.95-.7 1.77-1.2 2.37-1.54.06-.04.13-.08.18-.1.07-.04.12-.06.18-.09.42-.22.69-.34.76-.37h.01l2.85-.55c.02 0 .04 0 .05.01.86.23 1.44.83 1.72 1.8l.04.14-.12.07c-.16.1-.3.22-.42.35-.12.12-.23.27-.31.43 0 0 0 0 0 0-.18.31-.27.65-.27 1.02a2.156 2.156 0 0 0 1.13 1.87l.1.06.1 18.67ZM185.14 91.88l-.12 8.2c-.09.15-.19.29-.29.43h0s-.03.05-.05.07c-.05.09-.1.17-.17.26l-.15.21-.15.21c-.04.05-.08.1-.11.15s-.07.1-.11.14c-.05.07-.1.14-.16.2a2.8 2.8 0 0 0-.16.2c-.04.05-.08.1-.11.14-.04.05-.08.1-.12.14-.1.12-.22.25-.33.38-.09.09-.16.18-.24.26h0c-.06.07-.11.12-.17.18-.06.06-.11.12-.17.18-.04.05-.09.09-.12.13-.05.04-.09.09-.13.12-.11.12-.23.23-.35.34l-.25.24c-.12.11-.24.22-.36.32-.08.07-.16.16-.25.23-.12.1-.24.2-.37.3-.08.07-.17.14-.25.22-.12.09-.24.19-.36.27l-.27.21c-.12.09-.24.17-.35.26-.1.07-.18.13-.28.2-.11.08-.23.16-.35.24-.05.03-.09.07-.14.1-.05.03-.1.06-.14.09-.12.08-.23.15-.34.22-.1.07-.2.13-.29.19-.1.06-.21.12-.32.19-.1.06-.21.12-.31.18-.09.05-.18.1-.28.16-.12.06-.23.12-.34.18-.05.03-.09.05-.13.07-.05.03-.09.05-.14.07-.11.06-.23.12-.35.18l-.24.12-.36.18c-.07.03-.14.06-.2.09-.14.07-.27.12-.39.18-.05.02-.1.05-.16.07l-.42.18c-.04.01-.07.03-.11.04-.08.03-.15.07-.23.1-.08.03-.15.07-.23.09l-.12.05-.21.09h0l.07-.34.02-.1c.33-1.59.67-2.71.67-2.73.03-.19.06-.39.09-.6l.31-.12c3.86-1.55 9.8-5.22 10.58-13.37Z" class="cls-7"/><path d="m185.21 87.16-.02 1.52c-.04-.51-.09-1.04-.16-1.59v-.07c-.03-.14-.05-.29-.07-.44l-.02-.1c.09-.07.16-.12.24-.18 0-.01.01-.01.02-.01h0l.01-.01v.86l-.01.03ZM185.21 89.21c0 .12.01.24.01.35v.86c0 .12 0 .25-.01.37v.1c-.01.33-.04.67-.07.99l.05-3.2c0 .17.01.33.02.5v.03Z" class="cls-3"/><path d="M174.24 105.37h0c.02-.11.03-.22.05-.33l-.05.33Z" class="cls-7"/><path d="M184.03 86.96c-3.62 3.01-8.2 8.55-9.72 17.97 0 .04-.01.07-.02.11-.02.11-.03.22-.05.33l.31-.12c4.56-1.82 11.98-6.6 10.48-18.16v-.07c-.03-.15-.05-.29-.07-.44l-.02-.1" class="cls-7"/><path d="M187.89 68.76c.02 1.26 1.99 2.46 2.48 2.83 2.13 1.65 3.99 4.34.53 10-.05-.05-.09-.09-.14-.13a.976.976 0 0 0-.29-.21c-.73-.47-1.68-.54-2.44-.5h-.07c-.1.01-.2.02-.27.03l-.18.02h-.07c3.73-4.31 1.63-6.37-.76-8.49-.36-.32-.71-.63-1.02-.94-.65-.64-.98-1.44-.98-2.31.01-2.09 2.01-4.03 4.11-6.1.86-.85 2.54-2.64 3.22-3.79 1.94-3.27 1.6-6.08.55-7.17-1.33-1.38-5.29-1.33-7.37-.44h0l-1.28-.81-.2-.12-1.23-.77c1.58-1.64 8.93-3.64 12.38-.09 2.03 2.11 2.34 5.61.12 10.57-.59 1.32-2.34 3.31-3.96 4.9-1.11 1.08-3.15 2.33-3.13 3.5Z" class="cls-1"/><path d="M185.21 86.27h.01-.01Z" class="cls-3"/><path d="m183.91 50.77-.21-.12-1.22-.77-21.25 61.9 1.39.65 1.53.7 20.96-61.31.08-.24h0l-1.28-.81z" class="cls-1"/><path d="M185.12 99.92s.06-.1.09-.14v8.23c-2.11 1.34-3.52 3.69-3.52 6.38 0 2.45 1.17 4.63 2.99 6h-8.13c-1.09-.06-1.95-.49-2.58-1.29-1.65-2.16-1.25-6.54-.58-9.95l.21-.09.12-.05c.08-.03.15-.06.23-.09.07-.03.15-.06.23-.09.03-.02.07-.03.11-.05.14-.07.27-.12.42-.18.05-.03.1-.05.16-.07.12-.06.25-.12.39-.18.07-.03.14-.06.2-.09.12-.05.24-.12.36-.18l.24-.12c.12-.06.23-.12.35-.18.05-.03.09-.05.14-.07.05-.02.09-.05.13-.07.11-.07.22-.13.34-.19.1-.06.19-.11.28-.16.1-.06.22-.12.31-.18.11-.07.22-.13.32-.19s.2-.12.29-.19c.11-.07.22-.14.34-.21.05-.03.1-.07.14-.1.05-.03.09-.07.14-.1.12-.08.24-.16.35-.24.1-.07.18-.13.28-.2.11-.09.24-.17.35-.26l.27-.21.36-.27c.08-.07.17-.14.25-.22.12-.1.25-.2.37-.3.08-.07.16-.16.25-.23.12-.1.24-.21.36-.32l.25-.24c.12-.11.24-.22.35-.34.05-.04.09-.09.13-.12.04-.05.08-.09.12-.13.05-.06.1-.12.16-.18s.11-.11.17-.18h0c.09-.09.16-.18.24-.27.1-.13.22-.26.33-.38.04-.05.08-.1.12-.14s.08-.1.12-.14c.05-.07.1-.13.16-.2.05-.07.1-.13.16-.2.04-.05.08-.09.11-.14s.07-.1.1-.16c.05-.07.1-.13.16-.2l.15-.21c.07-.09.12-.17.17-.26.02-.02.03-.04.05-.06h0c.1-.16.2-.29.29-.44.03-.05.06-.1.09-.16ZM185.22 98.27v1.51-8.89 7.38ZM191.64 83.64s-.03 0-.05-.01l-2.85.54h-.01c-.07.03-.34.15-.76.37-.06.03-.12.05-.18.09a20.11 20.11 0 0 0-2.55 1.64h-.01s-.01.01-.02.03c-.2.12-1.07.6-1.16.66 0 0-.22-1.54.19-3.09.18-.69.5-1.38 1.01-1.94l2.21-1.12h.07l.18-.02c.08-.01.17-.02.27-.03.63-.03 1.7 0 2.5.49.1.07.2.13.29.21.05.04.1.09.14.13l.74 2.05Z" class="cls-7"/><path d="m187.69 80.79-.18.02s.1-.01.18-.02ZM187.96 84.54c.42-.22.69-.34.76-.37l-3.5 2.1c.95-.7 1.77-1.2 2.37-1.54.06-.04.13-.08.18-.1.07-.04.12-.06.18-.09ZM191.64 83.64l-2.9.53 2.85-.54s.04 0 .05.01Z" class="cls-3"/><path d="M130.22 35.92s2.6-1.39 2.68-6.18c.08 4.8 2.68 6.18 2.68 6.18s-2.6 1.39-2.68 6.19c-.08-4.8-2.68-6.19-2.68-6.19ZM126.19 44.87s2.6-1.39 2.68-6.19c.08 4.8 2.68 6.19 2.68 6.19s-2.6 1.39-2.68 6.19c-.08-4.8-2.68-6.19-2.68-6.19ZM56.46 57.25s2.6-1.39 2.68-6.19c.08 4.8 2.68 6.19 2.68 6.19s-2.6 1.39-2.68 6.19c-.08-4.8-2.68-6.19-2.68-6.19Z" class="cls-1"/></svg>