<svg xmlns="http://www.w3.org/2000/svg" id="Calque_1" data-name="Calque 1" viewBox="0 0 200 128"><defs><style>.cls-11,.cls-12,.cls-13,.cls-14,.cls-15,.cls-2,.cls-3,.cls-4,.cls-6,.cls-7,.cls-8,.cls-9{stroke-linecap:round;stroke-linejoin:round}.cls-12,.cls-13,.cls-14,.cls-15,.cls-17,.cls-18,.cls-19,.cls-2,.cls-21,.cls-22,.cls-24,.cls-26,.cls-3,.cls-4,.cls-6,.cls-7,.cls-8,.cls-9{stroke:#000}.cls-2{fill:#77eddf}.cls-21,.cls-3{fill:#d6d6d6}.cls-4{fill:#87f3b9}.cls-24,.cls-6{fill:#baa584}.cls-22,.cls-7{fill:#a07637}.cls-17,.cls-8{fill:#fce9b9}.cls-18,.cls-9{fill:#ff6d75}.cls-11{stroke:#f3d587}.cls-11,.cls-12{fill:#f3d587}.cls-13,.cls-19{fill:#fff}.cls-14,.cls-26{fill:#fab0b4}.cls-15,.cls-17{stroke-width:.5px}.cls-17,.cls-18,.cls-19,.cls-21,.cls-22,.cls-24,.cls-26{stroke-miterlimit:10}.cls-15{fill:#fee4cb}</style></defs><path d="M126.76 125.6H17.89l28.35-30.75H155.1l-28.34 30.75z" class="cls-3"/><path d="M6.03 35.92h24.75v71.47H6.03z" class="cls-21"/><path d="M7.91 37.88h20.97v20.97H7.91zM7.91 61.34h20.97v20.97H7.91z" class="cls-19"/><path d="M7.91 85.63h20.97v9.03H7.91z" class="cls-21"/><path d="M14.29 89.46h8.23v1.37h-8.23z" class="cls-19"/><path d="M6.03 107.39h6.54v2.13H6.03zM24.23 107.39h6.54v2.13h-6.54z" class="cls-21"/><path d="M12.37 74.33h11.57v3.84H12.37z" class="cls-14"/><path d="M12.86 78.17h11.57v3.84H12.86z" class="cls-9"/><path d="m10.369 68.122 10.668-4.478 1.486 3.54-10.668 4.478z" class="cls-14"/><path d="M15.94 70.41h11.57v3.84H15.94z" class="cls-9"/><path d="M12.13 50.85H23.7v3.84H12.13z" class="cls-4"/><path d="M12.62 54.69h11.57v3.84H12.62z" class="cls-12"/><path d="M15.2 42.95h11.57v3.84H15.2z" class="cls-4"/><path d="M15.69 46.79h11.57v3.84H15.69z" class="cls-12"/><path d="M156.95 60.55v1.88h9.31v-1.85l-9.31-.03zM155.42 62.43h12.38v1.53h-12.38z" class="cls-3"/><path d="M135.27 33.52h54.59v27.06h-54.59z" class="cls-3"/><path d="M137.56 35.39h50.01v23.33h-50.01z" class="cls-13"/><path d="M138.4 66.33h48.59V94.8H138.4z" class="cls-3"/><path d="M135.93 63.83h52.15v2.5h-52.15z" class="cls-6"/><path d="M140.63 69.28h44.31v6.94h-44.31zM140.63 77.65h44.31v6.94h-44.31zM140.63 86.1h44.31v6.94h-44.31z" class="cls-3"/><path d="m142.4 94.79-.95 5.86h2.32l2.04-5.86h-3.41z" class="cls-13"/><path d="m179.63 94.79.95 5.86h-2.32l-2.04-5.86h3.41z" class="cls-6"/><path d="M53.5 59.61h42.85c1.14 0 2.07.93 2.07 2.07v29.06c0 1.14-.93 2.07-2.07 2.07H53.5c-1.15 0-2.08-.93-2.08-2.08V61.68c0-1.15.93-2.08 2.08-2.08Z" class="cls-8"/><path d="M145.36 61.68v29.06c0 1.15-.93 2.07-2.07 2.07h-42.85c-1.15 0-2.08-.93-2.08-2.07V61.68c0-1.15.93-2.08 2.08-2.08h42.85c.13 0 .25.01.37.03.97.18 1.7 1.02 1.7 2.04Z" class="cls-8"/><path d="M51.42 86.47h93.53v17.22H51.42z" class="cls-8"/><path d="M59.56 85.7h78v1.94h-78z" class="cls-12"/><path d="M61.33 64.78c0 .49-.4.88-.88.88s-.88-.4-.88-.88.4-.88.88-.88.88.4.88.88ZM90.3 64.78c0 .49-.4.88-.88.88s-.88-.4-.88-.88.4-.88.88-.88.88.4.88.88ZM138.45 64.78c0 .49-.4.88-.88.88s-.88-.4-.88-.88.4-.88.88-.88.88.4.88.88ZM107.13 64.78c0 .49-.4.88-.88.88s-.88-.4-.88-.88.4-.88.88-.88.88.4.88.88ZM90.3 82.24c0 .49-.4.88-.88.88s-.88-.4-.88-.88.4-.88.88-.88.88.4.88.88ZM134.67 82.24c0 .49-.4.88-.88.88s-.88-.4-.88-.88.4-.88.88-.88.88.4.88.88ZM107.13 82.24c0 .49-.4.88-.88.88s-.88-.4-.88-.88.4-.88.88-.88.88.4.88.88ZM66.69 82.24c0 .49-.4.88-.88.88s-.88-.4-.88-.88.4-.88.88-.88.88.4.88.88ZM76.16 72.76c0 .49-.4.88-.88.88s-.88-.4-.88-.88.4-.88.88-.88.88.4.88.88ZM122.74 72.76c0 .49-.4.88-.88.88s-.88-.4-.88-.88.4-.88.88-.88.88.4.88.88Z" class="cls-11"/><path d="M58.55 100.11c0 1.12-5.26 2.04-11.75 2.04s-11.76-.92-11.76-2.04 4.87-1.97 11.01-2.03V13.6h2.18v84.49c5.81.12 10.32.97 10.32 2.02Z" class="cls-3"/><path d="m42.16 7.04-9.03 23.37h28.02l-8.4-23.37H42.16z" class="cls-14"/><path d="M41.26 30.41h.25v12.72h-.25z" class="cls-13"/><ellipse cx="41.31" cy="43.65" class="cls-3" rx=".69" ry="1.02"/><path d="m88.85 91.91-4.08 23.55h21.11l3.34-23.55H88.85z" class="cls-7"/><path d="m89.87 93.38-3.57 20.6h18.47l2.92-20.6H89.87z" style="fill:#b2f0e9;stroke:#000;stroke-linecap:round;stroke-linejoin:round"/><path d="m90.2 107.79 5.03-7.61 3.35 5.01 2.45-2.93 2.76 5.99-13.59-.46z" class="cls-2"/><circle cx="99.73" cy="98.39" r="1.13" class="cls-2"/><path d="M163.93 72.76a1.14 1.14 0 1 1-2.279.001 1.14 1.14 0 0 1 2.279-.001ZM163.93 81.12a1.14 1.14 0 1 1-2.279.001 1.14 1.14 0 0 1 2.279-.001ZM163.93 89.58a1.14 1.14 0 1 1-2.279.001 1.14 1.14 0 0 1 2.279-.001Z" class="cls-6"/><path d="M59.56 79.6v22.54c0 2.22-1.8 4.01-4.01 4.01h-6.76a4.01 4.01 0 0 1-4.01-4.01V79.6c0-2.22 1.8-4.01 4.01-4.01h6.76c.26 0 .52.03.77.07 1.85.36 3.24 1.98 3.24 3.94Z" class="cls-12"/><rect width="14.79" height="30.57" x="137.56" y="75.59" class="cls-12" rx="4.01" ry="4.01"/><path d="M36.38 93.56v19.07H53.9l3.7-1.31V93.56H36.38z" class="cls-7"/><path d="M53.9 93.56v19.07l3.7-1.31V93.56h-3.7z" class="cls-6"/><path d="M45.31 107.03h1.45v5.6h-1.45z" class="cls-15"/><path d="M68.98 102.15v19.06H86.5l3.7-1.3v-17.76H68.98z" class="cls-14"/><path d="M86.5 102.15v19.06l3.7-1.3v-17.76h-3.7z" class="cls-9"/><path d="M148.17 97.86v19.06h17.51l3.71-1.3V97.86h-21.22z" class="cls-7"/><path d="M165.68 97.86v19.06l3.71-1.3V97.86h-3.71z" class="cls-6"/><path d="M157.09 111.33h1.45v5.6h-1.45z" class="cls-15"/><path d="M119.19 92.39v23.65h21.73l4.6-1.61V92.39h-26.33z" class="cls-7"/><path d="M140.92 92.39v23.65l4.6-1.61V92.39h-4.6z" class="cls-6"/><path d="M130.26 109.1h1.8v6.95h-1.8z" class="cls-15"/><path d="M155.42 25.01h27.69v1.46h-27.69z" class="cls-7"/><path d="M156.39 22.08h14.52v2.93h-14.52z" class="cls-9"/><path d="M158.65 19.15h14.52v2.93h-14.52zM174.86 19.15h14.52v2.93h-14.52z" class="cls-14"/><path d="M156.57 16.23h14.52v2.93h-14.52z" class="cls-12"/><path d="M175.48 22.08H190v2.93h-14.52z" style="fill:#bbfedb;stroke:#000;stroke-linecap:round;stroke-linejoin:round"/><path d="m178.71 18.89-13.58-5.18 1.05-2.73 13.58 5.17-1.05 2.74z" style="fill:#76ac75;stroke:#000;stroke-linecap:round;stroke-linejoin:round"/><path d="M14.34 98.39v23.66h21.73l4.6-1.61V98.39H14.34z" class="cls-7"/><path d="M36.07 98.39v23.66l4.6-1.61V98.39h-4.6z" class="cls-6"/><path d="M25.41 115.11h1.8v6.95h-1.8z" class="cls-15"/><path d="M9.07 15.84h18.18v19.79H9.07z" class="cls-7"/><path d="M18.33 29.82h1.51v5.81h-1.51z" class="cls-15"/><path d="m176.29 78.59.07.03s.02-.02.04-.06c.03-.04.08-.1.12-.17.09-.14.19-.34.27-.57.16-.46.22-1.03.09-1.56a2.825 2.825 0 0 0-1.27-1.75c-.06-.05-.14-.08-.18-.1-.04-.02-.07-.04-.07-.04s-.02.02-.04.06c-.03.04-.08.1-.11.17-.09.14-.19.34-.27.57-.16.46-.22 1.03-.09 1.56.12.53.42 1.02.76 1.36.18.17.36.3.5.39.06.05.14.08.18.1Z" class="cls-17"/><path d="M180.42 74.92c.39-.29.75-.74.93-1.25a2.803 2.803 0 0 0-.09-2.16c-.03-.07-.07-.14-.09-.18-.02-.04-.04-.07-.04-.07s-.02 0-.07.03c-.04.02-.12.04-.19.08-.15.07-.35.18-.54.33-.39.29-.75.74-.94 1.25-.14.37-.17.76-.15 1.14-.59-1.26-1.22-2.5-1.91-3.71v-.02c-.22-.76-.38-1.52-.49-2.29.05 0 .12.02.2.02.17 0 .39 0 .63-.04.48-.08 1-.32 1.4-.7.4-.37.68-.87.81-1.34.06-.24.09-.46.1-.62v-.27h-.07c-.05 0-.12-.02-.2-.02-.17 0-.39 0-.63.05a2.779 2.779 0 0 0-2.21 2.03c-.04.15-.06.29-.07.42-.17-1.51-.15-3.04.07-4.54.05 0 .09.01.15.01.17 0 .39 0 .63-.04.48-.08 1-.32 1.4-.7.4-.37.68-.87.81-1.34.06-.24.09-.46.1-.62v-.27h-.07c-.05 0-.12-.02-.2-.02-.17 0-.39 0-.63.05-.48.08-1 .32-1.4.69-.16.15-.3.32-.42.51.25-1.02.58-2.01 1-2.97a2.822 2.822 0 0 0 2.15.03c.51-.2.95-.57 1.23-.96.14-.2.25-.39.31-.55.04-.07.06-.15.07-.19.02-.05.03-.07.03-.07s-.02-.01-.07-.03c-.04-.02-.11-.06-.18-.09-.16-.07-.37-.14-.61-.18a2.91 2.91 0 0 0-1.56.14c-.21.08-.41.2-.6.33.42-.75.89-1.47 1.41-2.15.03.02.05.04.08.06.14.09.34.2.56.29.46.18 1.03.24 1.56.13.54-.11 1.03-.39 1.38-.73.17-.17.31-.35.41-.49.05-.06.08-.13.11-.17.02-.04.04-.06.04-.06s-.02-.02-.06-.05c-.04-.03-.1-.08-.17-.12-.14-.09-.34-.2-.56-.29-.45-.18-1.02-.24-1.56-.13-.23.05-.45.13-.66.23.32-.35.66-.68 1.01-1a.47.47 0 0 0 .09-.12h.07c.49.04 1.05-.06 1.53-.32.48-.25.88-.67 1.12-1.09.12-.21.2-.42.25-.58.03-.07.04-.15.05-.2.01-.05.02-.07.02-.07s-.02 0-.07-.03c-.04-.02-.12-.05-.19-.07-.16-.05-.38-.09-.62-.12a2.91 2.91 0 0 0-1.53.31c-.49.25-.88.66-1.12 1.09-.07.13-.12.25-.17.36-.06.02-.12.06-.18.11-.87.79-1.65 1.67-2.35 2.6.02-.21.02-.42-.02-.62-.08-.54-.34-1.05-.66-1.42a3.46 3.46 0 0 0-.46-.43.943.943 0 0 0-.17-.11c-.04-.03-.06-.04-.06-.04s-.02.02-.05.06c-.03.04-.09.09-.13.16-.1.14-.21.33-.31.55-.2.44-.29 1.01-.21 1.55.08.54.34 1.05.66 1.42.14.16.28.28.4.38-.67 1.11-1.23 2.29-1.66 3.51-.03-.34-.11-.68-.26-.99-.23-.49-.63-.91-1.05-1.16-.21-.13-.41-.22-.57-.28-.07-.03-.15-.05-.19-.06a.313.313 0 0 1-.07-.02s-.01.02-.03.07c-.02.04-.05.11-.08.19-.06.16-.11.37-.14.62-.06.48.01 1.05.25 1.54.23.49.63.91 1.04 1.17.21.13.41.22.57.28.03.02.06.02.09.03-.65 2.36-.85 4.84-.56 7.27-.47-.73-.97-1.46-1.48-2.17.03-.03.06-.05.09-.08.12-.12.27-.28.41-.48.28-.4.47-.94.49-1.49.02-.54-.14-1.1-.39-1.51-.13-.21-.26-.38-.38-.51a.922.922 0 0 0-.15-.14.173.173 0 0 1-.05-.05s-.02.02-.06.05c-.03.03-.1.08-.15.13-.12.12-.27.28-.41.48-.28.4-.47.94-.49 1.49-.01.25.02.51.08.75-.59-.77-1.21-1.54-1.87-2.3h.01c.03-.03.1-.08.15-.13.12-.12.27-.28.41-.48.28-.4.47-.94.49-1.49.02-.54-.14-1.1-.39-1.51-.13-.21-.26-.38-.38-.51a.922.922 0 0 0-.15-.14.173.173 0 0 1-.05-.05s-.02.02-.06.05c-.03.03-.1.08-.15.13-.12.12-.27.28-.41.48-.28.4-.47.94-.49 1.49-.02.5.12 1 .33 1.41-.93-1.02-1.92-2-2.96-2.89.03-.03.07-.05.11-.09.12-.12.27-.28.41-.48.28-.4.47-.94.49-1.49.02-.54-.14-1.1-.39-1.51-.13-.21-.26-.38-.38-.51a.922.922 0 0 0-.15-.14.173.173 0 0 1-.05-.05s-.02.02-.06.05c-.03.03-.1.08-.15.13-.12.12-.27.28-.41.48-.28.4-.47.94-.49 1.49-.02.55.14 1.1.39 1.51.03.06.07.1.11.15-.43-.34-.87-.66-1.31-.97-.06-.13-.13-.27-.22-.42-.26-.41-.68-.8-1.18-1.02a2.92 2.92 0 0 0-1.55-.23c-.24.04-.46.09-.61.15-.08.02-.15.06-.19.08-.04.02-.07.03-.07.03s0 .02.02.07c.02.04.03.12.06.19.06.16.15.36.29.56.26.41.68.8 1.18 1.03.45.21.97.27 1.42.23 1.14.74 2.21 1.61 3.22 2.57-.26-.09-.54-.15-.82-.15-.54-.02-1.1.14-1.52.39-.21.13-.38.26-.51.38-.06.05-.11.11-.14.15-.03.04-.05.05-.05.05s.02.02.05.06c.03.03.08.1.13.15.12.12.28.27.48.41.4.28.94.48 1.48.49.55.02 1.1-.13 1.52-.38.21-.13.39-.26.51-.38l.01-.01c.77.82 1.51 1.67 2.21 2.53-.39-.25-.89-.43-1.41-.44-.54-.02-1.1.14-1.52.39-.21.13-.38.26-.51.38-.06.05-.11.11-.14.15-.03.04-.05.05-.05.05s.02.02.05.06c.03.03.08.1.13.15.12.12.28.27.48.41.4.28.94.48 1.48.49.55.02 1.1-.13 1.52-.38.21-.13.39-.26.51-.38.04-.03.06-.06.09-.09.16.21.33.42.49.62.47.61.92 1.23 1.36 1.86-.33-.16-.71-.26-1.1-.27-.54-.02-1.1.14-1.52.39-.21.13-.38.26-.51.38-.06.05-.11.11-.14.15-.03.04-.05.05-.05.05s.02.02.05.06c.03.03.08.1.13.15.12.12.28.27.48.41.4.28.94.48 1.48.49.55.02 1.1-.13 1.52-.38.17-.1.3-.21.42-.3.84 1.29 1.62 2.62 2.34 3.98-.28-.31-.64-.59-1.07-.74-.51-.19-1.09-.21-1.56-.11-.24.05-.45.13-.6.2-.07.03-.14.07-.18.09-.04.02-.07.04-.07.04s0 .02.03.07c.02.04.04.12.08.19.07.15.18.35.33.54.29.39.74.75 1.26.93.51.19 1.08.21 1.56.11.24-.05.45-.13.6-.2.07-.03.13-.06.17-.09.84 1.67 1.59 3.39 2.25 5.14l-.03-.03c-.42-.35-.96-.55-1.44-.6-.24-.03-.47-.02-.63 0-.08 0-.16.02-.2.03-.05 0-.07.01-.07.01v.07c0 .05 0 .13.01.2.02.17.06.39.14.62a2.796 2.796 0 0 0 2.96 1.9h.04c.69 2.03 1.26 4.09 1.75 6.18-2.1-4.5-5.32-8.37-10.11-10.28v-.04c.03-.17.04-.39.03-.63-.03-.49-.2-1.03-.53-1.47-.32-.44-.79-.78-1.24-.96a3.19 3.19 0 0 0-.61-.17c-.08-.02-.16-.02-.2-.02h-.07s0 .03-.02.07c0 .05-.03.12-.04.2-.03.17-.04.39-.03.63.03.49.2 1.03.53 1.47.07.1.15.19.23.28-1.14-.3-2.33-.49-3.51-.53 0-.16 0-.34-.03-.55a2.88 2.88 0 0 0-.67-1.41c-.36-.41-.86-.7-1.33-.83-.24-.06-.46-.1-.62-.11h-.27v.07c0 .05-.02.12-.02.2 0 .17 0 .39.04.63.08.48.31 1.01.67 1.41.22.25.49.45.77.6-.4.03-.79.07-1.18.14-.16.03-.26.11-.32.22-.04 0-.08 0-.12-.01-.49-.01-1.05.11-1.51.4-.47.28-.84.72-1.06 1.15-.11.22-.18.43-.22.59-.02.08-.03.15-.04.2 0 .05-.01.07-.01.07s.02 0 .07.02c.04.01.12.04.2.06.16.04.38.07.63.08a2.787 2.787 0 0 0 2.57-1.55c.04-.08.07-.16.1-.24 1.14-.21 2.47-.17 3.8.03-.27.07-.53.17-.77.32-.47.28-.84.72-1.06 1.15-.11.22-.18.43-.22.59-.02.08-.03.15-.04.2 0 .05-.01.07-.01.07s.02 0 .07.02c.04.01.12.04.2.06.16.04.38.07.63.08a2.787 2.787 0 0 0 2.57-1.55c.11-.22.18-.43.22-.59 0-.02 0-.03.01-.05.61.15 1.2.32 1.76.52.71.25 1.38.56 2.03.9-.11-.02-.23-.03-.36-.03-.49-.01-1.05.11-1.51.4-.47.28-.84.72-1.06 1.15-.11.22-.18.43-.22.59-.02.08-.03.15-.04.2 0 .05-.01.07-.01.07s.02 0 .07.02c.04.01.12.04.2.06.16.04.38.07.63.08a2.787 2.787 0 0 0 2.57-1.55c.11-.22.18-.43.22-.59.01-.04.02-.08.02-.12 1.1.65 2.09 1.43 2.99 2.32-.13-.02-.28-.04-.45-.05-.49-.01-1.05.11-1.51.4-.47.28-.84.72-1.06 1.15-.11.22-.18.43-.22.59-.02.08-.03.15-.04.2 0 .05-.01.07-.01.07s.02 0 .07.02c.04.01.12.04.2.06.16.04.38.07.63.08a2.787 2.787 0 0 0 2.57-1.55c.11-.22.18-.43.22-.59 2.71 2.85 4.5 6.65 5.62 10.42.05.17.16.27.29.32.06.41.13.81.19 1.22.09.66 1.13.64 1.04-.02-.87-6.14-2.45-12.17-4.93-17.81.03-.01.04-.01.07-.03.15-.07.35-.18.54-.33Z" class="cls-17"/><path d="M174.51 97.22c-.62 2.72-.97 5.42-.67 7.54-.31-2.13.04-4.83.67-7.54ZM174.37 106.67c-.27-.56-.44-1.21-.53-1.91.11.71.28 1.35.53 1.91Z" class="cls-26"/><path d="M189.82 108.25h-14.21c-.55-.39-.95-.93-1.24-1.57-.26-.56-.43-1.21-.53-1.91-.3-2.13.05-4.83.67-7.54.1-.42.2-.84.31-1.26.04-.17.09-.33.13-.49.03-.1.05-.2.09-.31.07-.28.16-.56.24-.84.03-.09.05-.18.09-.27.04-.16.1-.31.14-.47.03-.09.05-.18.09-.27.14-.45.28-.88.43-1.31.11-.33.21-.65.32-.96.17-.5.34-.98.51-1.44.06-.16.12-.32.18-.47.01-.04.03-.09.04-.13l.18-.45c.04-.12.09-.24.13-.34.06-.19.14-.36.2-.53.11-.26.2-.5.29-.72.52-1.28.88-2.06.88-2.06h7.94s8.79 19.33 3.14 23.36Z" class="cls-26"/><path d="m125.504 7.396 18.775-4.887 5.882 22.597-18.775 4.887z" class="cls-24"/><path d="M129.75 6.21h16.15v20.1h-16.15z" style="fill:#f9f8f6;stroke-miterlimit:10;stroke:#000" transform="rotate(-14.59 137.777 16.248)"/><path d="m133.213 11.92 6.542-1.703 2.698 10.365-6.543 1.703z" class="cls-26"/><path d="M79.01 78.61s0-.04-.01-.06l-.09-.45c0-.04-.02-.08-.02-.12-.03-.17-.06-.33-.09-.49 0-.03-.01-.06-.02-.09-.02-.13-.04-.26-.06-.38 0-.05-.01-.09-.02-.14l-.06-.44c-.22-2.52.1-7.04-.42-7.31-.41-.22-.81.31-2.06.09-3.7-.64-6.38-.51-6.85-.41-.47 0-3.13.44-6.61 1.83-.13.05-.26.09-.38.13l-.11.03c-.08.02-.15.03-.22.05-.04 0-.07.01-.1.02-.07 0-.14.01-.2.02h-.07c-.45.01-.73-.08-.95.1-.45.37.81 4.73 1.12 7.24.22 2.52-.1 7.04.42 7.31.41.22.81-.31 2.06-.09 3.7.64 6.37.38 6.83.28.47 0 3.14-.31 6.62-1.7 1.18-.47 1.68-.04 2.03-.34.15-.13.1-.72-.03-1.53 0-.03 0-.05-.01-.08-.17-.97-.45-2.24-.7-3.46ZM181.79 100.63c-.28-.05-.47.17-.87.39-.02.01-.04.02-.07.03-.06.03-.12.06-.18.08-.03.01-.07.03-.1.04-.07.03-.14.05-.22.07l-.11.03c-.12.03-.24.06-.39.08-3.71.54-6.23 1.5-6.64 1.73-.45.15-2.84 1.38-5.72 3.79-.97.81-1.58.56-1.83.95-.31.49 2.23 4.24 3.31 6.54.06.13.11.27.17.41.02.04.03.08.05.12.05.12.09.24.14.37 0 .03.02.05.03.08.06.16.11.32.17.48 0 .03.02.06.03.08.06.16.11.32.17.49.75 2.22 1.48 4.71 1.91 4.78.46.08.67-.55 1.93-.73 3.71-.54 6.17-1.61 6.58-1.85.45-.15 2.89-1.27 5.77-3.67.97-.81 1.58-.56 1.83-.95.31-.49-2.23-4.24-3.3-6.54-.99-2.33-2.09-6.73-2.66-6.82Z" class="cls-18"/><path d="M133.6 71.01c-.23-.17-.5-.07-.95-.07h-.27c-.03 0-.07 0-.11-.01-.07 0-.15-.02-.23-.04-.04 0-.07-.01-.11-.02-.12-.03-.24-.06-.38-.11-3.53-1.27-6.2-1.61-6.67-1.6-.46-.08-3.15-.11-6.83.65-1.24.26-1.66-.25-2.06-.02-.51.29-.03 4.79-.16 7.32-.01.14-.03.29-.05.44 0 .04-.01.09-.02.13-.02.13-.03.26-.05.39 0 .03 0 .06-.01.08-.02.16-.05.33-.07.5 0 .03 0 .06-.01.09-.03.17-.05.34-.08.51-.38 2.32-.91 4.85-.57 5.12.37.28.85-.16 2.04.27 3.53 1.27 6.21 1.48 6.68 1.47.47.08 3.15.24 6.82-.53 1.24-.26 1.66.25 2.06.02.5-.29.03-4.79.16-7.32.22-2.52 1.32-6.92.86-7.27Z" style="stroke-miterlimit:10;fill:#76ac75;stroke:#000"/><path d="M121.06 71.01c-.23-.17-.5-.07-.95-.07h-.27c-.03 0-.07 0-.11-.01-.07 0-.15-.02-.23-.04-.04 0-.07-.01-.11-.02-.12-.03-.24-.06-.38-.11-3.53-1.27-6.2-1.61-6.67-1.59-.46-.08-3.15-.11-6.83.65-1.24.26-1.66-.25-2.06-.02-.5.29-.03 4.79-.16 7.32-.01.14-.03.29-.05.44 0 .04-.01.09-.02.13-.02.13-.03.26-.05.39 0 .03 0 .06-.01.08-.02.16-.05.33-.07.5 0 .03 0 .06-.01.09-.03.17-.05.34-.08.51-.38 2.32-.91 4.85-.57 5.12.37.28.85-.16 2.04.27 3.53 1.27 6.21 1.48 6.68 1.47.47.08 3.15.24 6.82-.53 1.24-.26 1.66.25 2.06.02.5-.29.03-4.79.16-7.32.22-2.52 1.32-6.92.86-7.27Z" class="cls-26"/><path d="M126.42 107.49c-.23-.17-.5-.07-.95-.07h-.27c-.03 0-.07 0-.11-.01-.07 0-.15-.02-.23-.04-.04 0-.07-.01-.11-.02-.12-.03-.24-.06-.38-.11-3.53-1.27-6.2-1.61-6.67-1.59-.46-.08-3.15-.11-6.83.65-1.24.26-1.66-.25-2.06-.02-.5.29-.03 4.79-.16 7.32-.01.14-.03.29-.05.44 0 .04-.01.09-.02.13-.02.13-.03.26-.05.39 0 .03 0 .06-.01.08-.02.16-.05.33-.07.5 0 .03 0 .06-.01.09-.03.17-.05.34-.08.51-.38 2.32-.91 4.85-.57 5.12.37.28.85-.16 2.04.27 3.53 1.27 6.21 1.48 6.68 1.47.47.08 3.15.24 6.82-.53 1.24-.26 1.66.25 2.06.02.5-.29.03-4.79.16-7.32.22-2.52 1.32-6.92.86-7.27Z" style="fill:#b4eac3;stroke-miterlimit:10;stroke:#000"/><path d="M67.03 40.99h54.14v3.03H67.03z" class="cls-24"/><path d="M73.16 7.8h24.59v32.37H73.16z" class="cls-22"/><path d="M75.58 9.87h19.76v28.22H75.58z" class="cls-19"/><path d="M78.94 14.67h13.04v18.62H78.94z" class="cls-26"/><path d="M89.83 18.9h16.15v21.27H89.83z" class="cls-22"/><path d="M93.62 23.41h8.57v12.24h-8.57z" style="stroke-miterlimit:10;fill:#f3d587;stroke:#000"/><path d="M109.63 26.38h10.47v13.78h-10.47z" class="cls-22"/><path d="M112.09 29.31h5.55v7.93h-5.55z" class="cls-26"/><path d="M68.89 26.38h10.47v13.78H68.89z" class="cls-22"/><path d="M71.35 29.31h5.55v7.93h-5.55z" class="cls-26"/><circle cx="55.75" cy="111.68" r="6.54" class="cls-4"/><circle cx="96.31" cy="82.01" r="4.41" class="cls-4"/><circle cx="86.95" cy="82.01" r="4.41" class="cls-4"/><circle cx="90.3" cy="82.01" r="4.41" class="cls-4"/><path d="M-824.72-2712.47h2244.45v5948.74H-824.72z" style="fill:none;stroke:#fff;stroke-width:8px;stroke-linecap:round;stroke-linejoin:round"/></svg>