<svg xmlns="http://www.w3.org/2000/svg" id="Calque_1" data-name="Calque 1" viewBox="0 0 200 128"><defs><style>.cls-10,.cls-11,.cls-12,.cls-13,.cls-2,.cls-3,.cls-5,.cls-7,.cls-8{stroke-linecap:round;stroke-linejoin:round}.cls-11,.cls-12,.cls-13,.cls-16,.cls-17,.cls-2,.cls-3,.cls-5,.cls-7,.cls-8{stroke:#000}.cls-17,.cls-2{fill:#d6d6d6}.cls-3{fill:#87f3b9}.cls-5{fill:#baa584}.cls-22{fill:#a07637}.cls-7{fill:#fce9b9}.cls-8{fill:#ff6d75}.cls-10{stroke:#f3d587}.cls-10,.cls-11{fill:#f3d587}.cls-12,.cls-16{fill:#fff}.cls-13{fill:#fab0b4}.cls-16,.cls-17{stroke-miterlimit:10}</style></defs><path d="M138.45 125.6H29.58l28.35-30.75H166.8l-28.35 30.75z" class="cls-13"/><path d="M6.03 35.92h24.75v71.47H6.03z" class="cls-17"/><path d="M7.91 37.88h20.97v20.97H7.91zM7.91 61.34h20.97v20.97H7.91z" class="cls-16"/><path d="M7.91 85.63h20.97v9.03H7.91z" class="cls-17"/><path d="M14.29 89.46h8.23v1.37h-8.23z" class="cls-16"/><path d="M6.03 107.39h6.54v2.13H6.03zM24.23 107.39h6.54v2.13h-6.54z" class="cls-17"/><path d="M12.37 74.33h11.57v3.84H12.37z" class="cls-13"/><path d="M12.86 78.17h11.57v3.84H12.86z" class="cls-8"/><path d="m10.369 68.122 10.668-4.478 1.486 3.54-10.668 4.478z" class="cls-13"/><path d="M15.94 70.41h11.57v3.84H15.94z" class="cls-8"/><path d="M12.13 50.85H23.7v3.84H12.13z" class="cls-3"/><path d="M12.62 54.69h11.57v3.84H12.62z" class="cls-11"/><path d="M142.39 113.19h11.57v3.84h-11.57z" class="cls-3"/><path d="M15.69 46.79h11.57v3.84H15.69z" class="cls-11"/><path d="M156.95 60.55v1.88h9.31v-1.85l-9.31-.03zM155.42 62.43h12.38v1.53h-12.38z" class="cls-2"/><path d="M135.27 33.52h54.59v27.06h-54.59z" class="cls-2"/><path d="M137.56 35.39h50.01v23.33h-50.01z" class="cls-12"/><path d="M138.4 66.33h48.59V94.8H138.4z" class="cls-2"/><path d="M135.93 63.83h52.15v2.5h-52.15z" class="cls-5"/><path d="M140.63 69.28h44.31v20.86h-44.31z" class="cls-2"/><path d="m142.4 94.79-.95 5.86h2.32l2.04-5.86h-3.41z" class="cls-12"/><path d="m179.63 94.79.95 5.86h-2.32l-2.04-5.86h3.41z" class="cls-5"/><path d="M53.5 59.61h42.85c1.14 0 2.07.93 2.07 2.07v29.06c0 1.14-.93 2.07-2.07 2.07H53.5c-1.15 0-2.08-.93-2.08-2.08V61.68c0-1.15.93-2.08 2.08-2.08Z" class="cls-7"/><path d="M145.36 61.68v29.06c0 1.15-.93 2.07-2.07 2.07h-42.85c-1.15 0-2.08-.93-2.08-2.07V61.68c0-1.15.93-2.08 2.08-2.08h42.85c.13 0 .25.01.37.03.97.18 1.7 1.02 1.7 2.04Z" class="cls-7"/><path d="M51.42 86.47h93.53v17.22H51.42z" class="cls-7"/><path d="M59.56 85.7h78v1.94h-78z" class="cls-11"/><path d="M61.33 64.78c0 .49-.4.88-.88.88s-.88-.4-.88-.88.4-.88.88-.88.88.4.88.88ZM90.3 64.78c0 .49-.4.88-.88.88s-.88-.4-.88-.88.4-.88.88-.88.88.4.88.88ZM138.45 64.78c0 .49-.4.88-.88.88s-.88-.4-.88-.88.4-.88.88-.88.88.4.88.88ZM107.13 64.78c0 .49-.4.88-.88.88s-.88-.4-.88-.88.4-.88.88-.88.88.4.88.88ZM90.3 82.24c0 .49-.4.88-.88.88s-.88-.4-.88-.88.4-.88.88-.88.88.4.88.88ZM134.67 82.24c0 .49-.4.88-.88.88s-.88-.4-.88-.88.4-.88.88-.88.88.4.88.88ZM107.13 82.24c0 .49-.4.88-.88.88s-.88-.4-.88-.88.4-.88.88-.88.88.4.88.88ZM66.69 82.24c0 .49-.4.88-.88.88s-.88-.4-.88-.88.4-.88.88-.88.88.4.88.88ZM76.16 72.76c0 .49-.4.88-.88.88s-.88-.4-.88-.88.4-.88.88-.88.88.4.88.88ZM122.74 72.76c0 .49-.4.88-.88.88s-.88-.4-.88-.88.4-.88.88-.88.88.4.88.88Z" class="cls-10"/><path d="M58.55 100.11c0 1.12-5.26 2.04-11.75 2.04s-11.76-.92-11.76-2.04 4.87-1.97 11.01-2.03V13.6h2.18v84.49c5.81.12 10.32.97 10.32 2.02Z" class="cls-2"/><path d="m42.16 7.04-9.03 23.37h28.02l-8.4-23.37H42.16z" class="cls-13"/><path d="M41.26 30.41h.25v12.72h-.25z" class="cls-12"/><ellipse cx="41.31" cy="43.65" class="cls-2" rx=".69" ry="1.02"/><path d="M59.56 79.6v22.54c0 2.22-1.8 4.01-4.01 4.01h-6.76a4.01 4.01 0 0 1-4.01-4.01V79.6c0-2.22 1.8-4.01 4.01-4.01h6.76c.26 0 .52.03.77.07 1.85.36 3.24 1.98 3.24 3.94Z" class="cls-11"/><rect width="14.79" height="30.57" x="137.56" y="75.59" class="cls-11" rx="4.01" ry="4.01"/><path d="M155.42 25.01h27.69v1.46h-27.69z" style="fill:#a07637;stroke:#000;stroke-linecap:round;stroke-linejoin:round"/><path d="M156.39 22.08h14.52v2.93h-14.52z" class="cls-8"/><path d="M158.65 19.15h14.52v2.93h-14.52zM174.86 19.15h14.52v2.93h-14.52z" class="cls-13"/><path d="M156.57 16.23h14.52v2.93h-14.52z" class="cls-11"/><path d="M175.48 22.08H190v2.93h-14.52z" style="fill:#bbfedb;stroke:#000;stroke-linecap:round;stroke-linejoin:round"/><path d="m178.71 18.89-13.58-5.18 1.05-2.73 13.58 5.17-1.05 2.74z" style="fill:#76ac75;stroke:#000;stroke-linecap:round;stroke-linejoin:round"/><path d="M83.63 14.79h19.4v23.35h-19.4z" style="stroke-miterlimit:10;fill:#baa584;stroke:#000" transform="rotate(-14.59 93.277 26.47)"/><path d="M85.25 16.42h16.15v20.1H85.25z" style="fill:#f9f8f6;stroke-miterlimit:10;stroke:#000" transform="rotate(-14.59 93.277 26.47)"/><path d="M89.95 21.11h6.76v10.71h-6.76z" style="stroke-miterlimit:10;fill:#fab0b4;stroke:#000" transform="rotate(-14.59 93.277 26.47)"/><path d="M79.01 78.61s0-.04-.01-.06l-.09-.45c0-.04-.02-.08-.02-.12-.03-.17-.06-.33-.09-.49 0-.03-.01-.06-.02-.09-.02-.13-.04-.26-.06-.38 0-.05-.01-.09-.02-.14l-.06-.44c-.22-2.52.1-7.04-.42-7.31-.41-.22-.81.31-2.06.09-3.7-.64-6.38-.51-6.85-.41-.47 0-3.13.44-6.61 1.83-.13.05-.26.09-.38.13l-.11.03c-.08.02-.15.03-.22.05-.04 0-.07.01-.1.02-.07 0-.14.01-.2.02h-.07c-.45.01-.73-.08-.95.1-.45.37.81 4.73 1.12 7.24.22 2.52-.1 7.04.42 7.31.41.22.81-.31 2.06-.09 3.7.64 6.37.38 6.83.28.47 0 3.14-.31 6.62-1.7 1.18-.47 1.68-.04 2.03-.34.15-.13.1-.72-.03-1.53 0-.03 0-.05-.01-.08-.17-.97-.45-2.24-.7-3.46Z" style="stroke-miterlimit:10;fill:#ff6d75;stroke:#000"/><path d="M133.6 71.01c-.23-.17-.5-.07-.95-.07h-.27c-.03 0-.07 0-.11-.01-.07 0-.15-.02-.23-.04-.04 0-.07-.01-.11-.02-.12-.03-.24-.06-.38-.11-3.53-1.27-6.2-1.61-6.67-1.6-.46-.08-3.15-.11-6.83.65-1.24.26-1.66-.25-2.06-.02-.51.29-.03 4.79-.16 7.32-.01.14-.03.29-.05.44 0 .04-.01.09-.02.13-.02.13-.03.26-.05.39 0 .03 0 .06-.01.08-.02.16-.05.33-.07.5 0 .03 0 .06-.01.09-.03.17-.05.34-.08.51-.38 2.32-.91 4.85-.57 5.12.37.28.85-.16 2.04.27 3.53 1.27 6.21 1.48 6.68 1.47.47.08 3.15.24 6.82-.53 1.24-.26 1.66.25 2.06.02.5-.29.03-4.79.16-7.32.22-2.52 1.32-6.92.86-7.27Z" style="stroke-miterlimit:10;fill:#76ac75;stroke:#000"/><path d="M168.5 110.29c.07-.24.12-.49.12-.75 0-1.44-1.17-2.61-2.61-2.61-1.17 0-2.15.78-2.48 1.85-.41-.02-.84.05-1.24.24-1.3.62-1.86 2.17-1.24 3.47.62 1.3 2.17 1.86 3.47 1.24.04-.02.07-.05.11-.07.46.74 1.27 1.24 2.21 1.24 1.44 0 2.61-1.17 2.61-2.61 0-.81-.38-1.52-.95-2ZM188.32 113.5c.07-.24.12-.49.12-.75 0-1.44-1.17-2.61-2.61-2.61-1.17 0-2.15.78-2.48 1.85-.41-.02-.84.05-1.24.24-1.3.62-1.86 2.17-1.24 3.47.62 1.3 2.17 1.86 3.47 1.24.04-.02.07-.05.11-.07.46.74 1.27 1.24 2.21 1.24 1.44 0 2.61-1.17 2.61-2.61 0-.81-.38-1.52-.95-2Z" class="cls-2"/><path d="M172.93 112.16a2.69 2.69 0 0 0-.3-.7 2.615 2.615 0 0 0-3.6-.8c-.99.63-1.4 1.82-1.1 2.89-.36.21-.68.49-.92.87-.77 1.22-.4 2.83.82 3.59 1.22.77 2.83.4 3.59-.82l.06-.12c.79.38 1.74.36 2.53-.15 1.21-.77 1.57-2.39.8-3.6a2.565 2.565 0 0 0-1.88-1.17ZM56.11 71.68c0-.21-.02-.41-.08-.62a2.152 2.152 0 0 0-2.68-1.43c-.92.28-1.51 1.13-1.51 2.05-.33.08-.65.24-.92.48-.88.8-.94 2.15-.15 3.03.8.88 2.15.94 3.03.15.03-.02.05-.05.07-.08.54.47 1.3.67 2.04.44a2.152 2.152 0 0 0 1.43-2.68c-.19-.64-.66-1.11-1.23-1.35ZM183.2 58.73c0-.25-.01-.5-.09-.76a2.605 2.605 0 0 0-3.22-1.8 2.612 2.612 0 0 0-1.89 2.45c-.4.09-.79.27-1.13.56-1.09.95-1.2 2.59-.25 3.68.95 1.09 2.59 1.2 3.68.25.03-.03.06-.06.09-.1.64.59 1.56.84 2.46.59a2.605 2.605 0 0 0 1.8-3.22c-.22-.78-.77-1.36-1.46-1.67ZM25.09 117.21c.07-.24.12-.49.12-.75 0-1.44-1.17-2.61-2.61-2.61-1.17 0-2.15.78-2.48 1.85-.41-.02-.84.05-1.24.24-1.3.62-1.86 2.17-1.24 3.47.62 1.3 2.17 1.86 3.47 1.24.04-.02.07-.05.11-.07.46.74 1.27 1.24 2.21 1.24 1.44 0 2.61-1.17 2.61-2.61 0-.81-.38-1.52-.95-2ZM42.16 118.93c.07-.24.12-.49.12-.75 0-1.44-1.17-2.61-2.61-2.61-1.17 0-2.15.78-2.48 1.85-.41-.02-.84.05-1.24.24-1.3.62-1.86 2.17-1.24 3.47.62 1.3 2.17 1.86 3.47 1.24.04-.02.07-.05.11-.07.46.74 1.27 1.24 2.21 1.24 1.44 0 2.61-1.17 2.61-2.61 0-.81-.38-1.52-.95-2ZM59.45 103.41a2.69 2.69 0 0 0-.3-.7 2.615 2.615 0 0 0-3.6-.8c-.99.63-1.4 1.82-1.1 2.89-.36.21-.68.49-.92.87-.77 1.22-.4 2.83.82 3.59 1.22.77 2.83.4 3.59-.82l.06-.12c.79.38 1.74.36 2.53-.15 1.21-.77 1.57-2.39.8-3.6a2.565 2.565 0 0 0-1.88-1.17Z" class="cls-2"/><path d="M76.93 60.1c-1.17.62-2.34 1.47-2.44 2.68-.09 1.06.8 1.98 1.77 2.41.97.43 2.06.54 3.05.92.25.1.51.22.69.43.22.26.28.62.34.96.23 1.23.64 2.49 1.57 3.33.93.83 2.49 1.06 3.4.2.92-.86.81-2.31.73-3.56-.08-1.25.07-2.78 1.19-3.34.39-.2.84-.24 1.28-.25.67-.02 1.35.02 2.01.12.39.06.8.14 1.19.04.67-.17 1.1-.79 1.47-1.38.34-.54.51-2 .19-2.55H76.94ZM122.81 106.6c-1.06.81-2.5.86-3.84.8-1.33-.06-2.73-.19-3.95.37-1.21.56-2.09 2.1-1.42 3.26.42.74 1.31 1.08 2.16 1.21.84.13 1.72.13 2.52.42.4.15.79.39 1.03.75.3.46.31 1.04.21 1.58-.32 1.75-1.69 3.49-.97 5.12.34.77 1.1 1.29 1.87 1.63 1.36.61 2.89.82 4.36.61.75-.11 1.56-.38 1.91-1.05.2-.38.22-.83.24-1.27.08-1.85.39-3.9 1.81-5.08 2.48-2.07 6.4-.16 9.4-1.37.73-.29 1.4-.79 1.75-1.49.35-.7.32-1.61-.19-2.21-.58-.67-1.58-.77-2.47-.77-1.22 0-2.44.07-3.65.22-.65.08-1.32.19-1.97.08-.65-.11-1.3-.48-1.55-1.09-.12-.29-.14-.63-.32-.89-.36-.54-1.19-.52-1.76-.21-1.07.57-3.46 2.64-2.97.24.11-.53.59-.99.18-1.53-.72-.96-1.8.2-2.38.65Z" class="cls-22"/><path d="M113.74 119.98c-.42-.28-.49-.89-.37-1.38.09-.38.27-.77.16-1.15-.15-.51-.73-.72-1.19-.99-3.22-1.87 1.55-4.04 3.36-2.38 1.54 1.41.16 7.31-1.95 5.9Z" class="cls-22"/><path d="M70.42 98.8c-.14.05-.77.41-.89.51-.11.1-.17.25-.22.4-.7 2.07-1.39 4.13-2.09 6.2-.06.17-.11.34-.09.52.03.23.19.42.36.58 1.38 1.31 3.48 1.45 5.38 1.3.17-.01.47-.09.5-.12 0 0 .1-.25.13-.37.19-.71.39-1.42.58-2.13-.14 2.91 1.38 5.66 3.27 7.88 1.88 2.22 4.16 4.1 5.98 6.37 5.19-3.02 17.2-3.89 17.53-3.38-.83-1.55-2.67-2.31-4.1-3.34-3.24-2.35-4.7-6.46-7.59-9.23.94.48 1.88.95 2.82 1.43.17.09.53.39.53.39s.51-.25.75-.33c1.43-.49 2.93-.74 4.44-.75-.98-1.73-2.65-2.96-4.34-4-1.33-.82-2.72-1.57-4.1-2.31-.57-.31-1.14-.61-1.74-.83-1.2-.43-2.48-.52-3.75-.6-.3-.02-.62-.04-.9.06s-.5.29-.74.46c-1.51 1.12-3.6 1.41-5.36.75-.45-.17-1.55-.89-1.55-.89s-2.78.67-4.81 1.42Z" style="fill:#b2f0e9;stroke:#000;stroke-linecap:round;stroke-linejoin:round"/><path d="M134.12 60.08c.71.38 1.43.9 1.49 1.64.06.65-.49 1.21-1.09 1.47-.6.26-1.26.33-1.87.56-.16.06-.31.14-.42.26-.14.16-.17.38-.21.59-.14.75-.39 1.52-.96 2.04-.57.51-1.53.65-2.08.13-.56-.53-.49-1.41-.44-2.18.05-.77-.04-1.7-.73-2.04-.24-.12-.51-.15-.78-.15-.41-.01-.82.01-1.23.07-.24.04-.49.08-.73.03-.41-.1-.67-.49-.9-.84-.21-.33-.31-1.22-.11-1.56h10.06Z" class="cls-22"/><path d="M87.7 112.94c.1.31 0 .65-.13.95-.12.3-.27.61-.24.94.03.33.31.66.63.6.21-.04.36-.21.46-.4.1-.18.17-.38.31-.54a.46.46 0 0 1 .26-.17c.13-.03.27.02.38.08.38.22.66.68 1.1.65.21-.01.39-.15.53-.3.25-.26.43-.6.5-.95.04-.18.04-.39-.08-.53-.07-.08-.17-.12-.27-.16-.42-.17-.86-.41-1.02-.84-.27-.74.49-1.49.47-2.28 0-.19-.07-.39-.2-.53s-.34-.21-.52-.14c-.2.08-.31.3-.38.5-.1.28-.19.57-.25.86-.04.16-.07.32-.14.46-.08.14-.22.26-.38.27-.08 0-.16-.02-.23 0-.15.04-.22.23-.2.39.04.29.32 1.02-.19.7-.11-.07-.18-.22-.34-.17-.28.09-.1.43-.05.6Z" style="fill:#f3d587"/><path d="m146.88 35.39-4.49 7.56 4.49 1.07-9.32 12.05" class="cls-12"/><path d="M56.98 121.7c2.87.87 6.21.93 4.7-1.05-.89-1.16-1.09-2.72-.34-3.99.34-.58.42-1.17-.37-1.84-3.94-3.27-8.8 0-10.08.62-3.48 1.72.87 2.71 2.87 4.08.58.4 1.27.54 1.96.63.98.13-.91 2.33 1.26 1.54ZM146.78 76.13c.37.2.74.47.77.85.03.34-.26.62-.58.75-.31.13-.66.16-.98.28-.08.03-.16.07-.22.13-.07.08-.09.2-.11.3-.08.39-.21.78-.51 1.04-.3.26-.8.33-1.09.05-.29-.27-.25-.73-.22-1.13.03-.4-.01-.88-.37-1.06a.939.939 0 0 0-.41-.08c-.21 0-.43 0-.64.03-.13.02-.26.04-.38 0-.21-.05-.35-.25-.46-.44-.11-.17-.16-.63-.05-.8l5.24.05Z" class="cls-22"/><path d="M-565.03-2712.47h2244.45v5948.74H-565.03z" style="fill:none;stroke:#fff;stroke-width:8px;stroke-linecap:round;stroke-linejoin:round"/></svg>