<svg xmlns="http://www.w3.org/2000/svg" id="Calque_1" data-name="Calque 1" viewBox="0 0 200 128"><defs><style>.cls-1,.cls-10,.cls-2,.cls-3,.cls-5,.cls-6,.cls-7,.cls-8,.cls-9{stroke-linecap:round;stroke-linejoin:round}.cls-1,.cls-10,.cls-11,.cls-12,.cls-13,.cls-14,.cls-16,.cls-2,.cls-3,.cls-5,.cls-6,.cls-8,.cls-9{stroke:#000}.cls-1,.cls-13{fill:#d6d6d6}.cls-2{fill:#87f3b9}.cls-3{fill:#baa584}.cls-14{fill:#a07637}.cls-5{fill:#fce9b9}.cls-11,.cls-6{fill:#ff6d75}.cls-7{stroke:#f3d587}.cls-7,.cls-8{fill:#f3d587}.cls-12,.cls-9{fill:#fff}.cls-10,.cls-16{fill:#fab0b4}.cls-11,.cls-12,.cls-13,.cls-14,.cls-16{stroke-miterlimit:10}</style></defs><path d="M161.54 60.55v1.88h9.32v-1.85l-9.32-.03zM160.01 62.43h12.38v1.53h-12.38z" class="cls-1"/><path d="M139.86 33.52h54.59v27.06h-54.59z" class="cls-1"/><path d="M142.16 35.39h50.01v23.33h-50.01z" class="cls-9"/><path d="M142.99 66.33h48.59V94.8h-48.59z" class="cls-1"/><path d="M140.52 63.83h52.15v2.5h-52.15z" class="cls-3"/><path d="M145.23 69.28h44.31v6.94h-44.31zM145.23 77.65h44.31v6.94h-44.31zM145.23 86.1h44.31v6.94h-44.31z" class="cls-1"/><path d="m147 94.79-.96 5.86h2.32l2.05-5.86H147z" class="cls-9"/><path d="m184.22 94.79.96 5.86h-2.32l-2.05-5.86h3.41zM168.52 72.76a1.14 1.14 0 1 1-2.279.001 1.14 1.14 0 0 1 2.279-.001ZM168.52 81.12a1.14 1.14 0 1 1-2.279.001 1.14 1.14 0 0 1 2.279-.001ZM168.52 89.58a1.14 1.14 0 1 1-2.279.001 1.14 1.14 0 0 1 2.279-.001Z" class="cls-3"/><path d="M6.03 35.92h24.75v71.47H6.03z" class="cls-13"/><path d="M7.91 37.88h20.97v20.97H7.91zM7.91 61.34h20.97v20.97H7.91z" class="cls-12"/><path d="M7.91 85.63h20.97v9.03H7.91z" class="cls-13"/><path d="M14.29 89.46h8.23v1.37h-8.23z" class="cls-12"/><path d="M6.03 107.39h6.54v2.13H6.03zM24.23 107.39h6.54v2.13h-6.54z" class="cls-13"/><path d="M12.62 74.33h11.57v3.84H12.62z" class="cls-10"/><path d="M12.62 78.17h11.57v3.84H12.62z" class="cls-6"/><path d="M12.62 66.57h11.57v3.84H12.62z" class="cls-10"/><path d="M12.62 70.41h11.57v3.84H12.62z" class="cls-6"/><path d="M12.62 50.85h11.57v3.84H12.62z" class="cls-2"/><path d="M12.62 54.69h11.57v3.84H12.62z" class="cls-8"/><path d="M12.62 42.95h11.57v3.84H12.62z" class="cls-2"/><path d="M12.62 46.79h11.57v3.84H12.62z" class="cls-8"/><path d="M53.5 59.61h42.85c1.14 0 2.07.93 2.07 2.07v29.06c0 1.14-.93 2.07-2.07 2.07H53.5c-1.15 0-2.08-.93-2.08-2.08V61.68c0-1.15.93-2.08 2.08-2.08Z" class="cls-5"/><path d="M145.36 61.68v29.06c0 1.15-.93 2.07-2.07 2.07h-42.85c-1.15 0-2.08-.93-2.08-2.07V61.68c0-1.15.93-2.08 2.08-2.08h42.85c.13 0 .25.01.37.03.97.18 1.7 1.02 1.7 2.04Z" class="cls-5"/><path d="M51.42 86.47h93.53v17.22H51.42z" class="cls-5"/><path d="M59.56 85.7h78v1.94h-78z" class="cls-8"/><path d="M61.33 64.78c0 .49-.4.88-.88.88s-.88-.4-.88-.88.4-.88.88-.88.88.4.88.88ZM90.3 64.78c0 .49-.4.88-.88.88s-.88-.4-.88-.88.4-.88.88-.88.88.4.88.88ZM138.45 64.78c0 .49-.4.88-.88.88s-.88-.4-.88-.88.4-.88.88-.88.88.4.88.88ZM107.13 64.78c0 .49-.4.88-.88.88s-.88-.4-.88-.88.4-.88.88-.88.88.4.88.88ZM90.3 82.24c0 .49-.4.88-.88.88s-.88-.4-.88-.88.4-.88.88-.88.88.4.88.88ZM134.67 82.24c0 .49-.4.88-.88.88s-.88-.4-.88-.88.4-.88.88-.88.88.4.88.88ZM107.13 82.24c0 .49-.4.88-.88.88s-.88-.4-.88-.88.4-.88.88-.88.88.4.88.88ZM66.69 82.24c0 .49-.4.88-.88.88s-.88-.4-.88-.88.4-.88.88-.88.88.4.88.88ZM76.16 72.76c0 .49-.4.88-.88.88s-.88-.4-.88-.88.4-.88.88-.88.88.4.88.88ZM122.74 72.76c0 .49-.4.88-.88.88s-.88-.4-.88-.88.4-.88.88-.88.88.4.88.88Z" class="cls-7"/><path d="M58.55 100.11c0 1.12-5.26 2.04-11.75 2.04s-11.76-.92-11.76-2.04 4.87-1.97 11.01-2.03V13.6h2.18v84.49c5.81.12 10.32.97 10.32 2.02Z" class="cls-1"/><path d="m42.16 7.04-9.03 23.37h28.02l-8.4-23.37H42.16z" class="cls-10"/><path d="M41.26 30.41h.25v12.72h-.25z" class="cls-9"/><ellipse cx="41.31" cy="43.65" class="cls-1" rx=".69" ry="1.02"/><path d="M59.56 79.6v22.54c0 2.22-1.8 4.01-4.01 4.01h-6.76a4.01 4.01 0 0 1-4.01-4.01V79.6c0-2.22 1.8-4.01 4.01-4.01h6.76c.26 0 .52.03.77.07 1.85.36 3.24 1.98 3.24 3.94Z" class="cls-8"/><rect width="14.79" height="30.57" x="137.56" y="75.59" class="cls-8" rx="4.01" ry="4.01"/><path d="M79.01 78.61s0-.04-.01-.06l-.09-.45c0-.04-.02-.08-.02-.12-.03-.17-.06-.33-.09-.49 0-.03-.01-.06-.02-.09-.02-.13-.04-.26-.06-.38 0-.05-.01-.09-.02-.14l-.06-.44c-.22-2.52.1-7.04-.42-7.31-.41-.22-.81.31-2.06.09-3.7-.64-6.38-.51-6.85-.41-.47 0-3.13.44-6.61 1.83-.13.05-.26.09-.38.13l-.11.03c-.08.02-.15.03-.22.05-.04 0-.07.01-.1.02-.07 0-.14.01-.2.02h-.07c-.45.01-.73-.08-.95.1-.45.37.81 4.73 1.12 7.24.22 2.52-.1 7.04.42 7.31.41.22.81-.31 2.06-.09 3.7.64 6.37.38 6.83.28.47 0 3.14-.31 6.62-1.7 1.18-.47 1.68-.04 2.03-.34.15-.13.1-.72-.03-1.53 0-.03 0-.05-.01-.08-.17-.97-.45-2.24-.7-3.46ZM133.6 71.01c-.23-.17-.5-.07-.95-.07h-.27c-.03 0-.07 0-.11-.01-.07 0-.15-.02-.23-.04-.04 0-.07-.01-.11-.02-.12-.03-.24-.06-.38-.11-3.53-1.27-6.2-1.61-6.67-1.6-.46-.08-3.15-.11-6.83.65-1.24.26-1.66-.25-2.06-.02-.51.29-.03 4.79-.16 7.32-.01.14-.03.29-.05.44 0 .04-.01.09-.02.13-.02.13-.03.26-.05.39 0 .03 0 .06-.01.08-.02.16-.05.33-.07.5 0 .03 0 .06-.01.09-.03.17-.05.34-.08.51-.38 2.32-.91 4.85-.57 5.12.37.28.85-.16 2.04.27 3.53 1.27 6.21 1.48 6.68 1.47.47.08 3.15.24 6.82-.53 1.24-.26 1.66.25 2.06.02.5-.29.03-4.79.16-7.32.22-2.52 1.32-6.92.86-7.27Z" class="cls-11"/><path d="M67.03 40.99h54.14v3.03H67.03z" style="stroke-miterlimit:10;fill:#baa584;stroke:#000"/><path d="M73.16 8.62h24.59v32.37H73.16z" class="cls-14"/><path d="M75.58 10.69h19.76v28.22H75.58z" class="cls-12"/><path d="M78.94 15.49h13.04v18.62H78.94z" class="cls-16"/><path d="M103.98 27.21h10.47v13.78h-10.47z" class="cls-14"/><path d="M106.44 30.13h5.55v7.93h-5.55z" class="cls-16"/><path d="M155.42 25.01h27.69v1.46h-27.69z" style="fill:#a07637;stroke:#000;stroke-linecap:round;stroke-linejoin:round"/><path d="M162.57 22.08h14.52v2.93h-14.52z" class="cls-6"/><path d="M162.57 19.15h14.52v2.93h-14.52z" class="cls-10"/><path d="M162.57 16.23h14.52v2.93h-14.52z" class="cls-8"/></svg>