<svg xmlns="http://www.w3.org/2000/svg" id="Calque_1" data-name="Calque 1" viewBox="0 0 128 128"><defs><style>.cls-1,.cls-2,.cls-3,.cls-6{fill:none}.cls-2,.cls-3{stroke-linecap:round;stroke-linejoin:round}.cls-16,.cls-2,.cls-3,.cls-6{stroke:#000}.cls-16,.cls-6{stroke-miterlimit:10}.cls-3{stroke-width:2px}.cls-16{fill:#fff}</style></defs><path d="M106.24 39.31v84.57H5.76V39.31l50.27-22.64 50.21 22.64z" style="stroke-width:2px;stroke-miterlimit:10;stroke:#000;fill:none"/><path d="M29.28 59.26h53.45v10.18H29.28zM36.75 77.39h38.51v46.35H36.75zM56 77.39v46.35" class="cls-3"/><path d="M16.89 98.27v-8.1l6.29 4.87-6.29 3.23z" style="stroke:#afaff9;fill:#afaff9;stroke-linecap:round;stroke-linejoin:round"/><path d="M17.78 106.98h7.62v7.62h-7.62z" style="fill:#f3d587;stroke:#f3d587;stroke-linecap:round;stroke-linejoin:round" transform="rotate(24.28 21.597 110.798)"/><path d="M85.66 85.87H94v8.34h-8.34z" style="fill:#b4eac3;stroke:#b4eac3;stroke-linecap:round;stroke-linejoin:round" transform="rotate(-17.49 89.861 90.053)"/><circle cx="90.38" cy="113.04" r="3.52" style="fill:#fab0b4;stroke:#fab0b4;stroke-linecap:round;stroke-linejoin:round"/><path d="M52.63 101.27h-3.27M62.64 101.27h-3.27" class="cls-2"/><path d="M123.58 36.18v.39c0 17.4-14.12 31.52-31.53 31.52-8.66 0-16.5-3.49-22.19-9.14a30.567 30.567 0 0 1-3.6-4.28 30.663 30.663 0 0 1-3.54-6.55 31.39 31.39 0 0 1-2.19-11.55c0-2.11.21-4.17.6-6.16 2.69-13.6 14.13-24.06 28.21-25.25.34-.03.68-.06 1.03-.08.55-.03 1.12-.04 1.68-.04 16.77 0 30.49 13.1 31.47 29.62.03.5.05 1.01.06 1.52Z" style="fill:#fff;stroke-width:2px;stroke:#000;stroke-linecap:round;stroke-linejoin:round"/><path d="m104.1 35.83-12.53-1.51c-.91-.11-1.36-.66-1.25-1.58l2.25-18.38c.11-.91.62-1.24 1.53-1.13l12.45 1.51c.91.11 1.38.6 1.27 1.51l-2.23 18.36c-.11.91-.57 1.32-1.49 1.21Z" style="fill:#87ccf3;stroke-miterlimit:10;stroke:#000"/><path d="m103.25 39.22-11.5-5.34c-.83-.39-1.12-.87-.73-1.7l7.94-16.9c.39-.83 1.04-1.04 1.87-.65l11.37 5.33c.83.39 1.06 1.09.66 1.92L105 38.58c-.39.83-.93 1.02-1.76.63Z" style="stroke-miterlimit:10;fill:#f3d587;stroke:#000"/><path d="m104.24 42.3-10.23-7.42c-.75-.54-.83-1.15-.29-1.9l10.87-15.01c.54-.75 1.18-.79 1.92-.25l10.16 7.32c.75.54.89 1.25.34 2l-10.77 14.88c-.54.75-1.27.92-2.01.38Z" style="fill:#87f3b9;stroke-miterlimit:10;stroke:#000"/><path d="m104.58 45.23-8.29-9.61c-.6-.7-.55-1.28.14-1.88l13.99-12.1c.7-.6 1.39-.55 2 .15l8.16 9.47c.6.7.61 1.41-.09 2.01l-13.98 12.07c-.7.6-1.33.58-1.93-.12Z" style="fill:#f387d5;stroke-miterlimit:10;stroke:#000"/><path d="M82.46 30.41v24.26h-16.2a30.663 30.663 0 0 1-3.54-6.55 31.39 31.39 0 0 1-2.19-11.55c0-2.11.21-4.17.6-6.16h21.33Z" style="fill:#afaff9;stroke:#000;stroke-linecap:round;stroke-linejoin:round"/><path d="M89 30.41H67.17l10.92-17.98L89 30.41z" style="fill:#b4eac3;stroke:#000;stroke-linecap:round;stroke-linejoin:round"/><circle cx="83.24" cy="44.52" r="10.16" style="fill:#f3d587;stroke:#000;stroke-linecap:round;stroke-linejoin:round"/><path d="m83.36 50.76-.6-.33-1.12-.62c-.39-.21-.85-.39-1.24-.15-.5.3-.8 1.07-.8 1.65s1.26 3.73 1.26 3.73l.13.38.79 2.36.42 1.26 1.06 3.13c.23.15.49.21.74.21.23 0 .46-.06.67-.17.48-.26.55-.76.55-1.32v-6.57c0-1.5-.58-2.88-1.85-3.58Z" style="fill:#fff;stroke-width:1.1px;stroke-miterlimit:10;stroke:#000"/><path d="M95.23 52.16c-.07-.4-.2-.78-.39-1.13a3.61 3.61 0 0 0-1.25-1.38.585.585 0 0 0-.17-.1s-.03-.02-.04-.03l-1.49-.77-.79-.4a5.889 5.889 0 0 0-3.47-.6l-4.85.65-.57.08h-.03l-.39.05c-.23.03-.46.11-.67.23-.05.03-.09.05-.13.09-.76.49-1.36 1.45-1.36 2.35v.12l.03 3.24v.87l.02 2.43c0 1.27.66 2.47 1.7 3.12l1.91 1.2.05.03a5.948 5.948 0 0 0 4.07.84l.09-.02 4.73-.75c.83-.13 1.55-.55 2.08-1.14 0 0 0-.02.02-.03.21-.24.4-.51.54-.81.08-.15.14-.29.18-.44.12-.33.19-.69.2-1.06V57.45l.02-1.19v-.75l.03-1.36v-1.26c0-.25 0-.49-.05-.72Z" class="cls-16"/><path d="M87.5 51.68c-1.39.2-2.27 1.27-2.27 2.73v6.13c0 .74.09 1.19.56 1.74.41.48 1.08.85 1.7.75" class="cls-6"/><path d="M87.68 53.22c-.15.02-.29.08-.42.16s-.25.19-.34.31c-.1.12-.18.27-.23.42-.06.15-.09.32-.09.49 0 .17.03.32.08.46s.13.26.23.35c.1.1.21.17.34.21.13.04.27.06.42.03.15-.02.29-.08.42-.16s.25-.19.34-.31c.1-.12.18-.27.23-.42.05-.15.09-.32.09-.49 0-.17-.03-.32-.08-.46a.857.857 0 0 0-.23-.35.81.81 0 0 0-.34-.21c-.13-.04-.27-.06-.42-.04ZM87.67 58.89c-.15.02-.29.08-.42.16s-.25.19-.34.31c-.1.12-.18.27-.23.42-.05.15-.09.32-.09.48 0 .17.03.32.08.46s.13.25.23.35c.1.09.21.16.34.2.13.04.27.05.42.03.15-.02.29-.08.42-.16a1.427 1.427 0 0 0 .57-.73c.05-.15.08-.31.09-.48 0-.17-.03-.32-.08-.46a.929.929 0 0 0-.23-.35c-.1-.09-.21-.16-.34-.21a.975.975 0 0 0-.42-.03Z"/><path d="M92.73 52.5c-.15.02-.29.07-.41.15-.13.08-.24.18-.34.31-.1.12-.18.27-.23.42-.05.15-.09.32-.09.48 0 .17.03.32.08.46s.13.26.23.35c.1.1.21.17.34.21.13.04.27.06.41.03.15-.02.29-.08.41-.16.13-.08.24-.18.34-.31.1-.12.17-.26.23-.42.05-.15.09-.32.09-.48 0-.17-.03-.32-.08-.46a.952.952 0 0 0-.22-.35.81.81 0 0 0-.34-.21c-.13-.04-.27-.06-.41-.04" style="stroke-width:1.1px;stroke-miterlimit:10;stroke:#000"/><path d="M92.69 58.13c-.15.02-.29.08-.41.16a1.427 1.427 0 0 0-.57.73c-.05.15-.09.31-.09.48 0 .17.03.32.08.45s.13.25.22.34c.09.09.21.16.33.2.13.04.26.05.41.03.15-.02.28-.08.41-.16.13-.08.24-.19.34-.31a1.495 1.495 0 0 0 .32-.89c0-.16-.03-.32-.08-.45s-.13-.25-.22-.35c-.09-.09-.21-.16-.33-.21a.93.93 0 0 0-.41-.03ZM81.15 55.22c0 .16.02.33.04.49.03.16.07.31.11.44.05.14.1.26.17.35.06.1.13.17.2.21.07.04.14.05.2.03.06-.02.12-.08.17-.16a.87.87 0 0 0 .11-.31c.03-.13.04-.28.04-.44 0-.16-.02-.33-.04-.49-.03-.16-.07-.31-.11-.45-.05-.14-.1-.26-.17-.35a.58.58 0 0 0-.2-.21c-.07-.04-.14-.05-.2-.02-.06.02-.12.08-.16.16-.05.08-.08.19-.11.31-.03.13-.04.27-.04.44ZM81.14 51.86c0 .16.02.33.04.49.03.16.07.31.11.44.05.13.1.25.17.35.06.1.13.17.2.21.07.04.14.05.2.02.06-.02.12-.08.17-.16.05-.08.09-.19.11-.32.03-.13.04-.28.04-.44 0-.17-.02-.33-.04-.49-.03-.16-.07-.31-.11-.45-.05-.14-.1-.26-.17-.35a.58.58 0 0 0-.2-.21c-.07-.04-.14-.05-.2-.02-.06.03-.12.08-.16.16-.05.08-.08.19-.11.32s-.04.28-.04.44ZM81.17 58.57c0 .16.02.33.04.48.03.16.07.31.11.44.05.14.1.26.17.35.06.1.13.17.2.22.07.04.14.05.2.03.06-.02.12-.07.16-.15.05-.08.08-.18.11-.31s.04-.27.04-.44c0-.16-.02-.33-.04-.49-.03-.16-.07-.31-.11-.45-.05-.14-.1-.26-.17-.35a.722.722 0 0 0-.2-.22.245.245 0 0 0-.2-.03c-.06.02-.12.07-.16.15-.05.08-.08.18-.11.31s-.04.27-.04.43ZM82.76 56.18c0 .17.02.33.04.49.03.16.07.31.11.45.05.14.11.26.17.36.06.1.13.17.21.22.07.04.14.05.21.03.06-.02.12-.08.17-.16a.87.87 0 0 0 .11-.31c.03-.13.04-.28.04-.44 0-.17-.02-.33-.04-.49-.03-.16-.07-.31-.12-.45a2.02 2.02 0 0 0-.17-.36.637.637 0 0 0-.21-.22.263.263 0 0 0-.21-.03c-.06.02-.12.08-.17.16a.87.87 0 0 0-.11.31c-.03.13-.04.28-.04.44ZM82.76 52.78c0 .17.02.33.04.49.03.16.07.31.11.45.05.14.11.26.17.36.06.1.13.17.21.21.07.04.14.05.21.02.06-.02.12-.08.17-.16.05-.08.09-.19.11-.32.03-.13.04-.28.04-.45 0-.17-.02-.34-.04-.5-.03-.16-.07-.31-.12-.45a2.02 2.02 0 0 0-.17-.36.528.528 0 0 0-.21-.21c-.07-.04-.14-.05-.21-.02-.06.03-.12.08-.17.16-.05.08-.09.19-.11.32-.03.13-.04.28-.04.45ZM82.77 59.55c0 .16.02.33.04.49.03.16.07.31.11.45.05.14.11.26.17.36.06.1.13.18.21.22.07.05.14.06.21.03.06-.02.12-.07.17-.15.05-.08.09-.18.11-.31.03-.13.04-.27.04-.44 0-.17-.02-.33-.04-.49-.03-.16-.07-.31-.12-.45a2.02 2.02 0 0 0-.17-.36.56.56 0 0 0-.21-.22.263.263 0 0 0-.21-.03c-.06.02-.12.07-.17.15-.05.08-.09.18-.11.31-.03.13-.04.27-.04.44Z"/><path d="M93.59 49.65a.585.585 0 0 0-.17-.1s-.03-.02-.04-.03l-1.49-.77-.79-.4a5.889 5.889 0 0 0-3.47-.6l-4.36.57c-.09 0-.26.03-.49.07-.17.03-.37.05-.57.09h-.03c-.41.08-.82.17-1.07.28-.05.03-.09.05-.13.09-.05.03-.09.08-.09.12-.07.38.28.56.61.75l.16.09 1.12.62.6.33.24.13c.83.46 1.73.91 2.64.91.26 0 .51-.02.76-.05l.5-.07 3.38-.48.91-.13.49-.07.84-.12c.35-.05.62-.32.68-.68.05-.28-.03-.43-.21-.55Z" class="cls-6"/><path d="M83.11 49.18c-.15.02-.27.05-.37.08-.1.03-.18.07-.23.11-.05.04-.07.08-.06.12 0 .04.05.08.12.12.07.04.17.07.29.1.12.03.25.05.4.06.14.01.3.02.45.02.15 0 .31-.01.46-.03.15-.02.27-.05.37-.08.1-.03.18-.07.22-.11.05-.04.07-.08.06-.12-.01-.04-.05-.08-.12-.12-.07-.04-.17-.07-.29-.1-.12-.03-.25-.05-.39-.06-.14-.01-.3-.02-.45-.02-.15 0-.31.01-.45.03M85.6 50.53c-.15.02-.27.05-.37.08-.1.03-.18.07-.23.11-.05.04-.07.08-.06.13.01.04.05.09.13.13.07.04.18.08.3.1.12.03.26.05.4.06.15.01.3.02.46.02.16 0 .31-.01.46-.04.15-.02.28-.05.38-.08.1-.03.18-.07.22-.11.05-.04.07-.08.06-.13-.01-.04-.05-.09-.13-.13-.08-.04-.18-.08-.3-.1a2.4 2.4 0 0 0-.4-.06c-.15-.01-.3-.02-.46-.02-.16 0-.31.01-.46.03M88.05 48.51c-.14.02-.27.05-.36.08a.64.64 0 0 0-.22.11c-.05.04-.06.08-.05.12.01.04.05.08.13.12.07.04.17.07.29.1.12.03.25.05.4.06.14.01.3.02.45.02.15 0 .31-.01.45-.03.14-.02.27-.05.36-.08.1-.03.17-.07.22-.11.05-.04.06-.08.05-.12-.01-.04-.05-.08-.13-.12-.07-.04-.18-.07-.29-.1-.12-.03-.25-.05-.39-.06-.14-.01-.29-.02-.45-.02-.15 0-.3.01-.45.03M86.82 49.51c-.15.02-.27.05-.37.08a.64.64 0 0 0-.22.11c-.05.04-.07.08-.06.12.01.04.05.08.13.12.07.04.18.07.29.1.12.03.25.05.4.06.15.01.3.02.45.02.15 0 .31-.01.46-.03.15-.02.27-.05.37-.08.1-.03.17-.07.22-.11.05-.04.06-.08.05-.12-.01-.04-.05-.08-.13-.12-.08-.04-.18-.07-.29-.1a2.25 2.25 0 0 0-.4-.06c-.14-.01-.3-.02-.45-.02-.15 0-.31.01-.45.03M90.6 49.84c-.15.02-.27.05-.37.08a.64.64 0 0 0-.22.11c-.05.04-.06.08-.05.12.01.04.06.08.13.13.08.04.18.07.3.1s.26.05.4.06c.15.01.3.02.46.02.16 0 .31-.01.46-.03.15-.02.27-.05.37-.08.1-.03.17-.07.22-.11.04-.04.06-.08.05-.12-.01-.04-.06-.08-.14-.12a1.5 1.5 0 0 0-.3-.1 2.4 2.4 0 0 0-.4-.06c-.15-.01-.3-.02-.45-.02-.15 0-.31.01-.45.03" class="cls-1"/><path d="M108.73 57.86c0-.16-.03-.32-.08-.49l-.94-3.65c-.44-1.73-1.58-3.44-3.01-4.6-.06-.05-.12-.09-.18-.14-.08-.06-.15-.11-.22-.16-.06-.05-.13-.09-.19-.14l-1.76-1.16-.06-.03-.08-.06-.3-.2s-.05-.03-.08-.04c-.03-.03-.06-.04-.09-.06-.26-.16-.55-.27-.84-.35-.03 0-.08-.03-.11-.03-.61-.13-1.24-.09-1.84.11-.05.02-.11.04-.16.07l-.19.09-1.86.91-1.66.81-1.67.81s-.03.02-.03.03c-.08.04-.15.09-.23.13-.55.32-1.02.81-1.35 1.38-.43.73-.63 1.57-.52 2.37v.03c0 .07.02.13.03.2v.03c0 .06.03.11.04.17l1.25 4.29.21.74c.12.42.31.84.55 1.21.25.39.56.75.91 1.03s2.49 1.94 2.49 1.94c1.54 1.19 3.9 1.45 5.63.56l.16-.09 4.13-2.11c1.2-.62 2.03-1.96 2.04-3.29 0-.09 0-.2-.02-.29Z" class="cls-16"/><path d="M108.73 57.86a3.29 3.29 0 0 0-.09-.43l-1.03-4.01a2.52 2.52 0 0 0-1.39-1.65c-.63-.29-1.36-.31-2-.05-.08.03-.15.06-.22.09l-.04.03-4.42 2.19c-.15.08-.29.15-.42.25h-.02c-1.3.91-1.65 2.54-1.2 4.13l.87 3.12c.25.86.48 1.66 1.32 2.02.4.18.82.26 1.24.26s.85-.09 1.24-.27c.05-.02.11-.04.16-.07l4.1-2.09c1.25-.64 1.97-1.9 1.9-3.24 0-.09 0-.2-.02-.29Z" class="cls-6"/><path d="M100.99 60.44c-.15.07-.28.17-.39.29-.11.12-.21.25-.28.39-.07.14-.12.29-.14.44-.02.15-.01.3.03.43.04.14.1.26.19.35.09.09.19.16.31.2.12.04.25.06.39.04.14-.01.29-.06.43-.13.15-.07.28-.17.39-.29.11-.11.21-.25.28-.38.07-.14.12-.29.14-.43.02-.15.01-.29-.02-.43a.791.791 0 0 0-.19-.35.945.945 0 0 0-.31-.21.998.998 0 0 0-.39-.05c-.14.01-.29.06-.43.13ZM104.68 53.17c-.15.07-.28.17-.39.29-.11.12-.21.25-.28.39-.07.14-.12.29-.14.44-.02.15-.01.3.02.44.04.14.1.26.19.36.09.1.19.17.31.21a.998.998 0 0 0 .82-.08c.15-.07.28-.17.39-.29.11-.11.21-.25.28-.39.07-.14.12-.29.14-.44.02-.15.02-.3-.02-.44a.89.89 0 0 0-.19-.36.715.715 0 0 0-.31-.21c-.12-.05-.25-.06-.39-.05-.14.01-.29.05-.43.12ZM102.81 56.82c-.15.07-.28.17-.39.29-.11.12-.21.25-.28.39-.07.14-.12.29-.14.44-.02.15-.01.3.02.44.04.14.1.26.19.35.09.09.19.16.31.21a.998.998 0 0 0 .82-.08c.15-.07.28-.17.39-.29.11-.11.21-.25.28-.39.07-.14.12-.29.14-.44.02-.15.01-.3-.02-.44a.814.814 0 0 0-.5-.56.998.998 0 0 0-.82.08Z"/><path d="m98.91 62.06-1.33-4.76c-.33-1.2-1.08-2.26-2.08-3.01l-.21-.15-1.67-1.21-.58-.43c-.38-.29-.89-.3-1.28-.02-.32.22-.5.58-.47.96v.03c0 .07.02.13.03.2v.03l1.31 4.45.25.85c.11.39.28.77.5 1.1.25.38.56.73.93 1.02l.03.03 2.74 2.12c.21.17.47.26.72.26.23 0 .45-.07.66-.21.42-.28.6-.77.46-1.25Z" class="cls-16"/><path d="M93.82 58.8c.04.14.09.28.16.42.06.14.14.28.22.41.08.13.16.25.25.35.08.1.17.19.25.25.08.06.15.09.21.1.06 0 .1-.02.13-.07s.04-.12.04-.22-.03-.21-.06-.35c-.04-.14-.09-.28-.16-.42-.06-.14-.14-.28-.22-.41-.08-.13-.16-.25-.25-.35-.08-.1-.17-.19-.25-.25-.08-.06-.15-.09-.2-.09-.06 0-.1.02-.12.07-.03.05-.04.12-.03.22 0 .1.03.21.07.35M96.58 60.9c.04.14.09.28.16.42.06.14.14.28.22.41.08.13.17.25.25.36.09.11.17.19.26.26.08.06.15.1.21.1s.1-.02.13-.07.04-.12.04-.22-.02-.21-.06-.35a2.85 2.85 0 0 0-.16-.43 3.739 3.739 0 0 0-.47-.78c-.09-.11-.17-.19-.26-.26-.08-.06-.15-.1-.21-.1s-.1.02-.13.07-.04.12-.04.22.02.21.06.35M92.46 54.1c.04.14.09.28.16.43.06.14.14.28.22.41.08.13.16.25.25.35.08.1.17.19.25.25.08.06.15.09.21.09s.1-.02.12-.08c.03-.05.04-.13.03-.23 0-.1-.03-.22-.07-.36a2.85 2.85 0 0 0-.16-.43c-.06-.14-.14-.28-.22-.42-.08-.13-.16-.25-.25-.36-.09-.1-.17-.19-.25-.25-.08-.06-.15-.09-.2-.09-.06 0-.1.03-.12.08-.03.05-.04.13-.03.23 0 .1.03.22.07.36M94.52 57.51c.04.14.09.28.16.42.06.14.14.28.22.41.08.13.16.25.25.36.09.1.17.19.25.25.08.06.15.09.21.1.06 0 .1-.02.13-.07s.04-.12.04-.22-.02-.22-.06-.36a2.85 2.85 0 0 0-.16-.43c-.06-.14-.14-.28-.22-.42-.08-.13-.17-.25-.25-.36-.09-.1-.17-.19-.25-.25-.08-.06-.15-.09-.21-.09s-.1.02-.13.07-.04.13-.04.22c0 .1.03.22.07.36M95.23 56.16c.04.14.09.29.16.43a3.739 3.739 0 0 0 .47.78c.09.11.17.19.26.26.08.06.15.09.21.1.06 0 .1-.02.13-.07s.04-.13.04-.23-.02-.22-.06-.36a2.5 2.5 0 0 0-.16-.43 3.739 3.739 0 0 0-.47-.78c-.09-.11-.17-.19-.26-.25-.08-.06-.15-.09-.21-.09s-.1.03-.13.08-.04.13-.04.23.03.22.07.36" class="cls-1"/><path d="M103.96 51.85c.09-.03.18-.08.26-.12.62-.32 1.08-.86 1.09-1.14.03-.56-.19-1.1-.62-1.46-.06-.05-.12-.09-.18-.14l-.23-.15-1.94-1.31-.06-.03-.08-.06-.3-.2-.07-.05-.08-.05s-.02 0-.03-.02c-.25-.17-.51-.29-.79-.38-.04 0-.08-.03-.12-.03-.62-.15-1.27-.11-1.87.15-.05.02-.11.04-.16.07l-.19.09-1.85.91-1.67.8-1.67.81-.04.03-.23.13c-.46.31-.77.77-.86 1.31-.02.06-.03.12-.03.19-.05.56.42.97.9 1.34 0 0 .02 0 .03.02.11.07.21.15.32.22l.03.02 1.31.96c.16.12.32.24.46.34.67.49 1.24.85 2.1.85.33 0 1.15-.35 1.73-.65h.02c.09-.04.16-.09.23-.13" class="cls-6"/><path d="M97.12 49.79c-.14.07-.27.15-.36.23a.93.93 0 0 0-.21.25c-.04.08-.05.17-.04.24.02.08.07.15.15.21.08.06.19.1.32.12.13.02.27.03.42.02.15 0 .31-.03.46-.07.16-.04.31-.1.46-.17.15-.07.27-.15.36-.23a.79.79 0 0 0 .2-.26.328.328 0 0 0-.12-.44.715.715 0 0 0-.32-.12c-.12-.02-.27-.03-.42-.02-.15 0-.31.03-.46.07-.16.04-.31.1-.45.17ZM100.07 48.35c-.14.07-.26.15-.36.23-.09.08-.16.17-.2.25a.328.328 0 0 0 .12.44c.08.06.19.1.32.12.13.02.27.03.42.02.15 0 .31-.03.46-.07a2.202 2.202 0 0 0 .81-.4c.09-.08.16-.17.2-.25.04-.08.05-.17.03-.24-.02-.08-.07-.14-.16-.2a.715.715 0 0 0-.32-.12c-.13-.02-.27-.03-.42-.02-.15 0-.31.03-.46.07-.15.04-.31.1-.45.17ZM94.15 51.25c-.15.07-.27.15-.36.23a.71.71 0 0 0-.21.26c-.04.09-.06.17-.04.25.02.08.07.15.15.21s.19.1.31.13.27.03.42.03c.15 0 .31-.03.46-.07.16-.04.31-.1.46-.17.15-.07.27-.15.37-.24.1-.08.17-.17.21-.26.04-.09.05-.17.04-.25a.378.378 0 0 0-.15-.21.879.879 0 0 0-.31-.13c-.12-.02-.27-.03-.41-.02-.15 0-.31.03-.46.07-.16.04-.31.1-.46.17ZM98.98 51.1c-.15.07-.27.15-.36.24a.83.83 0 0 0-.21.26c-.04.09-.05.17-.03.25.02.08.07.15.15.21.08.06.19.1.32.13s.27.03.42.03c.15 0 .31-.03.47-.07s.31-.1.46-.17c.15-.07.27-.15.36-.24.1-.08.16-.17.2-.26.04-.09.05-.17.03-.25a.354.354 0 0 0-.16-.21c-.09-.06-.2-.1-.32-.13-.13-.02-.27-.03-.42-.02-.15 0-.31.03-.47.07-.16.04-.31.1-.46.17ZM101.95 49.63c-.14.07-.26.15-.36.23a.79.79 0 0 0-.2.26c-.04.09-.05.17-.03.25.02.08.07.15.16.21s.2.1.32.13c.13.02.27.03.42.02.15 0 .31-.03.47-.07.16-.04.31-.1.46-.17.15-.07.27-.15.36-.24a.79.79 0 0 0 .2-.26c.04-.09.05-.17.03-.25a.354.354 0 0 0-.16-.21.82.82 0 0 0-.32-.12c-.13-.02-.27-.03-.42-.02-.15 0-.31.03-.46.07-.16.04-.31.1-.46.17ZM95.98 52.58c-.15.07-.27.15-.37.24a.71.71 0 0 0-.21.26c-.04.09-.06.17-.04.25.02.08.07.15.15.21.08.06.19.1.32.13s.27.03.42.03c.15 0 .31-.03.47-.07s.32-.1.46-.17c.15-.07.27-.15.37-.24a.8.8 0 0 0 .21-.26c.04-.09.05-.17.03-.25a.378.378 0 0 0-.15-.21.857.857 0 0 0-.32-.13c-.13-.03-.27-.03-.42-.03-.15 0-.31.03-.47.07-.16.04-.31.1-.46.17Z"/><path d="M-1032.52-133.07H464.11v1236.8h-1496.63z" style="stroke:#fff;stroke-width:8px;stroke-linecap:round;stroke-linejoin:round;fill:none"/></svg>