<svg xmlns="http://www.w3.org/2000/svg" id="Calque_1" viewBox="0 0 128 128"><defs><style>.cls-1{fill:#87f3b9}.cls-2,.cls-3{fill:none;stroke:#000}.cls-2{stroke-linecap:round;stroke-linejoin:round;stroke-width:2px}.cls-3{stroke-miterlimit:10}</style></defs><circle cx="90.56" cy="58.15" r="33.99" class="cls-1"/><circle cx="37.44" cy="58.15" r="33.99" class="cls-1"/><path d="m39.8 115.8 20.59-4.78-5.63-26.87s2.85-2.57 4.25-6.98c1.41-4.41-.02-12.77-.02-12.77l-1.64-12.01s-.12-1.6-1.54-2.67c-.56-.42-1.32-.76-2.35-.9-2.05-.26-3.16.86-3.74 1.89-.45.8-.58 1.56-.58 1.56l-.1 3.57-1.21-5.21-3.41-14.7c-.23-.95-.83-1.74-1.6-2.22-.78-.49-1.75-.68-2.7-.45-1.92.45-3.13 2.38-2.68 4.3l-1.16-5.01c-.22-.96-.82-1.74-1.59-2.23-.78-.48-1.75-.67-2.71-.45-1.04.24-1.86.92-2.33 1.79a3.55 3.55 0 0 0-.35 2.51l1.16 5c-.22-.96-.82-1.74-1.59-2.23-.78-.49-1.74-.67-2.7-.45-1.92.45-3.13 2.38-2.68 4.3l2.05 8.83c-.22-.96-.82-1.74-1.59-2.23-.78-.49-1.74-.67-2.71-.45-1.91.44-3.12 2.38-2.67 4.3l5.78 24.92s.8 4.79 3.75 7.55c2.94 2.77 5.82 4.14 5.82 4.14l5.88 27.96Z" class="cls-2"/><path d="m49.04 55.84 1.43 7.82.67 3.68M25.54 49.61l3.07 13.25M30.46 39.16l5.13 22.08M42.56 59.63l-5.12-22.08M90.19 114.32l-20.59-4.78 5.63-26.87s-2.85-2.57-4.25-6.98c-1.41-4.41.02-12.77.02-12.77l1.64-12.01s.12-1.6 1.54-2.67c.56-.42 1.32-.76 2.35-.9 2.05-.26 3.16.86 3.74 1.89.45.8.58 1.56.58 1.56l.1 3.57 1.21-5.21 3.41-14.7c.23-.95.83-1.74 1.6-2.22.78-.49 1.75-.68 2.7-.45 1.92.45 3.13 2.38 2.68 4.3l1.16-5.01c.22-.96.82-1.74 1.59-2.23.78-.48 1.75-.67 2.71-.45 1.04.24 1.86.92 2.33 1.79.41.74.55 1.63.35 2.51l-1.16 5c.22-.96.82-1.74 1.59-2.23.78-.49 1.74-.67 2.7-.45 1.92.45 3.13 2.38 2.68 4.3l-2.05 8.83c.22-.96.82-1.74 1.59-2.23.78-.49 1.74-.67 2.71-.45 1.91.44 3.12 2.38 2.67 4.3l-5.78 24.92s-.8 4.79-3.75 7.55c-2.94 2.77-5.82 4.14-5.82 4.14l-5.88 27.96Z" class="cls-2"/><path d="m80.95 54.36-1.44 7.83-.67 3.67M104.45 48.13l-3.08 13.26M99.52 37.68 94.4 59.77M87.42 58.15l5.12-22.08" class="cls-2"/><path d="M23.55 50.13a1.473 1.473 0 0 0-2.86.7l.21.86 2.86-.7-.21-.86ZM28.8 39.93c-.23-.94-1.18-1.52-2.13-1.29s-1.52 1.18-1.29 2.13l.25 1.02 3.42-.84-.25-1.02ZM34.64 33.13c-.23-.94-1.18-1.52-2.13-1.29s-1.52 1.18-1.29 2.13l.25 1.02 3.42-.84-.25-1.02ZM42.73 36.59c-.23-.94-1.18-1.52-2.13-1.29s-1.52 1.18-1.29 2.13l.25 1.02 3.42-.84-.25-1.02ZM55.4 52.98a2.11 2.11 0 0 0-2.37-1.81c-1.15.16-1.97 1.22-1.81 2.37l.17 1.25 4.18-.56-.17-1.25ZM106.49 48.64a1.473 1.473 0 0 1 2.86.7l-.21.86-2.86-.7.21-.86ZM101.24 38.44c.23-.94 1.18-1.52 2.13-1.29s1.52 1.18 1.29 2.13l-.25 1.02-3.42-.84.25-1.02ZM95.4 31.63c.23-.94 1.18-1.52 2.13-1.29s1.52 1.18 1.29 2.13l-.25 1.02-3.42-.84.25-1.02ZM87.31 35.09c.23-.94 1.18-1.52 2.13-1.29s1.52 1.18 1.29 2.13l-.25 1.02-3.42-.84.25-1.02ZM74.64 51.48a2.11 2.11 0 0 1 2.37-1.81c1.15.16 1.97 1.22 1.81 2.37l-.17 1.25-4.18-.56.17-1.25Z" class="cls-3"/></svg>