<svg xmlns="http://www.w3.org/2000/svg" id="Calque_1" data-name="Calque 1" viewBox="0 0 128 128"><defs><style>.cls-1{fill:#d6d6d6}.cls-1,.cls-3,.cls-5,.cls-6{stroke:#000;stroke-linecap:round;stroke-linejoin:round}.cls-3{fill:#b2f0e9}.cls-5{fill:#bbfedb}.cls-6{fill:#fff}</style></defs><path d="M124.72 64.82H75.03l8.08-10.67h33.54l8.07 10.67zM53.28 64.82H3.45l8.1-10.67h33.64l8.09 10.67z" class="cls-1"/><path d="M121.84 64.85v46.76H6.5V64.85h36.31V50.49h42.73v14.36h36.3z" class="cls-6"/><path d="M88.56 50.39H39.78l7.93-16.31h32.93l7.92 16.31z" class="cls-1"/><path d="M11.14 69.87h9.06v10.55h-9.06zM29.93 69.87h9.06v10.55h-9.06zM88.56 69.87h9.06v10.55h-9.06zM107.35 69.87h9.06v10.55h-9.06zM88.56 87.84h9.06v10.55h-9.06zM107.35 87.84h9.06v10.55h-9.06zM11.14 87.84h9.06v10.55h-9.06zM29.93 87.84h9.06v10.55h-9.06zM46.42 55.57h6.77v10.55h-6.77zM60.79 55.57h6.77v10.55h-6.77zM75.15 55.57h6.77v10.55h-6.77z" class="cls-3"/><path d="M63.78 84.81h-6.37v17.02h-.68c-.28 0-.5-.22-.5-.5V83.62c0-.28.22-.5.5-.5h14.93c.28 0 .5.22.5.5v18.21h-1.22V84.81h-7.16ZM47.06 81.05h2.97v20.34h-2.97zM78.54 81.05h2.63v20.34h-2.63z" class="cls-6"/><path d="M47.41 107.91c-8.47.07-16.96.5-25.43.57-5.25.04-11.04 2.18-15.6-.82-.12-.08-.25-.17-.37-.26-.63-.46-.87-1.55-.51-2.33s1.25-1.11 1.91-.72c-.15-.66.09-1.47.51-1.93.42-.46 1.01-.65 1.58-.59.56.06 1.09.36 1.54.78.05-.62.35-1.15.85-1.28.5-.13 1.04.06 1.46.42.42.36.74.87 1.02 1.4.35-.69.99-1.02 1.66-.87.66.14 1.23.81 1.36 1.61.03-.99.66-1.99 1.45-2.26s1.71.14 2.17.97c.27-.79 1.16-1.11 1.83-.81.67.3 1.14 1.05 1.41 1.84.22-.83.73-1.55 1.44-1.68.71-.13 1.47.26 1.89.97.01-1.06.88-2.02 1.75-2.08.88-.07 1.73.78 1.85 1.83.44-.77 1.26-1.14 2.03-.98.77.17 1.42.91 1.61 1.82.27-1.01.97-1.71 1.83-1.9.87-.19 1.81.23 2.36 1.06.58-.78 1.63-1.16 2.46-.83.77.3 1.36 1.14 1.51 2.1l.03.22c.02-.05.05-.09.08-.14.57-.99 1.56-1.48 2.54-1.15.86.29 1.54 1.19 1.74 2.23.04.2.06.4.07.61 0 .8.04 1.4 0 2.21ZM122.81 107.21c-.06.07-.13.14-.21.19-4.61 3.38-10.57 1.12-15.97 1.08-8.48-.07-16.96-.5-25.43-.57-.05-.8-.02-1.4 0-2.21 0-.09 0-.18.01-.27.11-1.18.85-2.25 1.8-2.57 1.02-.34 2.06.2 2.61 1.29.08-1.04.71-1.99 1.54-2.32.83-.33 1.88.05 2.46.83.55-.83 1.49-1.26 2.36-1.06.87.2 1.57.89 1.83 1.9.19-.91.84-1.66 1.61-1.82.77-.17 1.59.2 2.03.98.12-1.05.98-1.9 1.85-1.83.88.06 1.74 1.02 1.75 2.08.42-.71 1.18-1.1 1.89-.97.71.13 1.23.85 1.44 1.68.27-.79.74-1.54 1.41-1.84.67-.3 1.57.02 1.83.81.45-.83 1.37-1.24 2.17-.97.79.27 1.42 1.27 1.45 2.26.13-.8.7-1.46 1.36-1.61.66-.14 1.3.18 1.66.87.27-.53.59-1.04 1.02-1.4.42-.36.96-.56 1.46-.42.51.14.8.66.85 1.28.45-.41.98-.71 1.54-.78.56-.06 1.16.13 1.58.59.42.46.66 1.27.51 1.93.66-.4 1.55-.06 1.91.72.31.68.16 1.61-.31 2.14Z" class="cls-5"/><path d="M42.9 106.47v5.15H6.5l-1.16-2.97-.85-2.18H42.9zM123.79 106.47l-.85 2.18-1.16 2.97h-36.4v-5.15h38.41z" class="cls-6"/><path d="M4.49 106.47H42.9v2.18H5.34l-.85-2.18zM123.79 106.47l-.85 2.18H85.38v-2.18h38.41zM86.75 52.2H41.6c-1 0-1.82-.81-1.82-1.82h48.78c0 1-.81 1.82-1.82 1.82ZM124.72 64.82c0 .5-.2.95-.53 1.28-.33.33-.78.53-1.28.53H85.57v-1.82h39.15ZM42.8 64.82v1.82H5.09c-1 0-1.82-.81-1.82-1.82H42.8Z" class="cls-6"/><rect width="39.05" height="7.96" x="44.67" y="73.57" class="cls-1" rx="3.46" ry="3.46"/><path d="M45.49 101.4h37.36v2.54H45.49z" class="cls-1"/><path d="M44.16 103.93h40.02v2.54H44.16z" class="cls-1"/><path d="M42.9 106.47h42.54v2.54H42.9zM41.35 109.01H87v2.61H41.35z" class="cls-1"/><path d="M70.04 16.38h7.18v10.97h-7.18z" style="fill:#87ccf3;stroke:#000;stroke-linecap:round;stroke-linejoin:round"/><path d="M84.4 16.38h7.18v10.97H84.4z" style="fill:#ff6d75;stroke:#000;stroke-linecap:round;stroke-linejoin:round"/><path d="M77.22 16.38h7.18v10.97h-7.18zM70.05 27.36v11.66" class="cls-6"/><path d="M77.22 16.38h7.18v10.97h-7.18z" class="cls-6"/><path d="M55.43 75.28h1.33v4.42h-.86v-3.71l-.84 3.71h-.9l-.83-3.71v3.71h-.86v-4.42h1.34l.8 3.48.8-3.48ZM59.49 75.28h1.05l1.56 4.42h-1l-.29-.91h-1.63l-.3.91h-.97l1.58-4.42Zm-.06 2.75h1.13L60 76.29l-.57 1.74ZM64.12 79.7h-.92v-4.42h.92v4.42ZM68.43 75.39c.16.07.3.17.41.31.09.11.17.24.22.37s.08.29.08.46c0 .21-.05.42-.16.62s-.28.35-.52.43c.2.08.35.2.43.35s.13.38.13.69v.3c0 .2 0 .34.02.41.02.11.08.2.17.25v.11h-1.02a2.328 2.328 0 0 1-.1-.62v-.41c0-.28-.06-.47-.15-.56-.09-.09-.27-.14-.53-.14h-.9v1.73h-.9v-4.42h2.11c.3 0 .53.04.7.11Zm-1.91.65v1.19h.99c.2 0 .35-.02.44-.07.17-.08.26-.25.26-.5 0-.27-.08-.45-.25-.54-.09-.05-.24-.08-.43-.08h-1.02ZM71.49 79.7h-.92v-4.42h.92v4.42ZM76.24 76.06H73.9V77h2.15v.77H73.9v1.14h2.45v.79H73v-4.42h3.24v.78Z"/></svg>