<svg xmlns="http://www.w3.org/2000/svg" id="Calque_1" viewBox="0 0 128 128"><defs><style>.cls-1{stroke-linecap:round;stroke-linejoin:round;stroke:#000}.cls-1,.cls-5{fill:none}.cls-6{fill:#fab0b4}.cls-5{stroke-width:2px;stroke:#ff6d75;stroke-miterlimit:10}</style></defs><ellipse cx="62.39" cy="32.11" rx="18.93" ry="26.12" style="fill:#ff6d75" transform="rotate(-75.12 62.391 32.106)"/><circle cx="82.64" cy="56.73" r="1.45"/><path d="M81.91 50.55s.17 3.76-3.73 4.12" class="cls-1"/><path d="M82.65 69.96zM88.51 68.42l-.05.02v-.03c.02 0 .03.02.05.02Z" class="cls-6"/><path d="M90.73 59.91s6.74 14.55-4.86 17.78c-4.24 1.17-5.87 2.55-5.82 4.06 0 .05.01.12.01.18.01.08.04.18.05.26.6 2.56 5.49 5.53 10.61 8.81h.03c.05.04.25.16.53.42.12.1.23.2.37.33 1.21 1.23 3.51 4.21 6.27 11.14a51.016 51.016 0 0 1-31.7 10.98c-9.56 0-18.51-2.62-26.17-7.18.89-3.46 1.7-5.69 1.7-5.69 5.88-14 16.84-12.27 18.43-16.46 1.59-4.17-.8-5.15-.8-5.15-18.49-3.65-24.62-15.3-22.98-26.89C38.03 40.92 48.67 22.78 71 28.24c22.34 5.45 15.76 23.99 15.76 23.99" style="stroke-width:2px;fill:none;stroke:#000;stroke-linecap:round;stroke-linejoin:round"/><path d="M117.46 62.62c0 16.33-7.64 30.88-19.53 40.27-2.75-6.93-5.05-9.92-6.27-11.14-.14-.12-.25-.23-.37-.33-.29-.26-.48-.38-.53-.42h-.03c-5.12-3.28-10.01-6.25-10.61-8.81-.01-.08-.04-.18-.05-.26 0-.05-.01-.12-.01-.18-.05-1.51 1.58-2.89 5.82-4.06 11.61-3.23 4.86-17.78 4.86-17.78 1.08-.4 5.53-5.6-.57-4.55-2.73.47-3.39-3.13-3.39-3.13s6.58-18.54-15.76-23.99c-22.33-5.46-32.97 12.68-34.6 24.26-1.63 11.59 4.5 23.24 22.98 26.89 0 0 2.4.98.8 5.15-1.59 4.18-12.55 2.45-18.43 16.46 0 0-.82 2.23-1.7 5.69-15.01-8.92-25.08-25.32-25.08-44.07 0-28.29 22.94-51.23 51.25-51.23s51.23 22.94 51.23 51.23Z" style="stroke-width:2px;fill:#d6d6d6;stroke:#000;stroke-linecap:round;stroke-linejoin:round"/><path d="M92.68 68.43s-1.89-1.52-5.96 0" style="stroke-miterlimit:10;fill:none;stroke:#000"/><path d="m80.4 16.56-2.63 4.85 3.3 1.59-3.17 3.81M73.32 25.35l-.98-2.93-1.91.74-.65-5.14M84.1 30.03l2.86-1.16-.86-1.86 2.72-.52" class="cls-5"/><path d="M57.17 59.16s-6.58.24-4.59 6.19c2 5.95 6.33 2.51 6.33 2.51M55.97 63.86l1.36-.21" class="cls-1"/></svg>