<svg xmlns="http://www.w3.org/2000/svg" id="Calque_1" data-name="Calque 1" viewBox="0 0 128 128"><defs><style>.cls-4{fill:#fff}.cls-6{fill:#f3d587;stroke:#000;stroke-miterlimit:10}</style></defs><path d="M11 30.64h105.76v46.48H11z" style="fill:#bfe6fc;stroke-miterlimit:10;stroke:#000" transform="rotate(-18.03 63.887 53.882)"/><path d="M13.41 33.06h100.92V74.7H13.41z" style="fill:none;stroke:#8987f3;stroke-width:1.21px;stroke-miterlimit:10" transform="rotate(-18.03 63.887 53.882)"/><text style="fill:#8987f3;font-family:Raleway-Bold,&quot;Raleway Bold&quot;;font-size:11.93px;font-weight:700" transform="rotate(-18.03 198.823 -27.872)"><tspan x="0" y="0">SE</tspan><tspan x="11.75" y="0" style="letter-spacing:-.08em">P</tspan><tspan x="17.09" y="0" style="letter-spacing:0">A</tspan></text><path d="M19.497 63.704 77.15 44.938l1.814 5.572L21.31 69.276zM22.418 72.671 80.07 53.905l.626 1.92-57.653 18.767zM84.191 52.56l24.467-7.964 3.47 10.66-24.467 7.963z" class="cls-4"/><path d="m101.37 34.07.19.58h-.02a9.183 9.183 0 0 1-5.49 10.79v.02l-.58.19-.58.19v-.02a9.195 9.195 0 0 1-10.8-5.49h-.02l-.19-.58-.19-.59h.02c-1.13-4.46 1.22-9.09 5.49-10.8v-.02l.57-.19.59-.19v.02c4.46-1.13 9.09 1.22 10.79 5.49h.02l.19.58Zm-11.56 6.99L93 40.02l-.76-2.33-3.49 1.14c.3.81.66 1.56 1.06 2.23Zm4.68 3.55-1.11-3.42-2.86.93c1.22 1.61 2.67 2.56 3.97 2.49Zm-6.12-6.95 3.49-1.14-.76-2.33-3.19 1.04c.07.78.22 1.6.45 2.43Zm9.32-6.9a8.027 8.027 0 0 0-4.01-1.75c.8.56 1.58 1.35 2.27 2.31l1.74-.57Zm-9.83 3.2 2.86-.93-1.11-3.42c-1.1.71-1.71 2.33-1.75 4.35Zm-.29 9.12c1.15.94 2.54 1.55 4.01 1.74-.81-.57-1.58-1.35-2.27-2.31l-1.74.57Zm-.84-7.46-2.05.67c-.07.83 0 1.67.2 2.51l2.32-.75c-.23-.82-.39-1.64-.47-2.42Zm.85 3.59-2.32.76c.33.8.77 1.52 1.32 2.15l2.05-.67c-.4-.69-.75-1.44-1.05-2.24Zm-.45-8.06a7.984 7.984 0 0 0-2.22 3.77l1.75-.57c-.01-1.18.15-2.27.47-3.21Zm9.49 1.25c.4.68.75 1.43 1.05 2.24l2.32-.76c-.33-.8-.78-1.52-1.32-2.15l-2.05.67Zm1.5 10.3a8.15 8.15 0 0 0 2.22-3.77l-1.74.57c0 1.18-.16 2.27-.47 3.2Zm.39-4.47 2.05-.67c.07-.83 0-1.67-.2-2.52l-2.32.76c.23.82.39 1.64.47 2.43Zm-7.75-9 1.11 3.42 2.86-.93c-1.22-1.61-2.67-2.57-3.97-2.49Zm4.68 3.55-3.18 1.04.76 2.33 3.49-1.13c-.3-.8-.66-1.56-1.06-2.23Zm1.44 3.4-3.49 1.13.76 2.33 3.18-1.04c-.07-.78-.22-1.6-.46-2.43Zm-2.35 4.63 1.11 3.42c1.09-.71 1.71-2.33 1.74-4.35l-2.86.93Z" style="fill:#8987f3"/><path d="M93.8 89.8a.8.8 0 0 1-.15-.21c-1.46-2.7 3.61-6.97 13.48-13.9 1.05-.74 1.88-1.32 2.26-1.62 1.4-1.11-.25-3.38-.27-3.4-.35-.47-.25-1.13.22-1.48.47-.35 1.14-.25 1.48.22 1 1.36 2.27 4.43-.12 6.32-.43.34-1.24.91-2.36 1.69-2.26 1.59-5.68 3.99-8.44 6.28-4.34 3.61-4.4 4.77-4.39 4.89a1.061 1.061 0 0 1-1.73 1.2Z" class="cls-6"/><path d="m56.08 113.93-3.34 3.05-.36.33c-.37.35-.96.32-1.3-.05a.9.9 0 0 1-.25-.63c0-.25.1-.5.3-.68l.36-.33 3.34-3.06a.928.928 0 0 1 1.25 1.37Z" style="fill:#baa584;stroke-miterlimit:10;stroke:#000"/><path d="m82.34 80.88-27.37 27.14c-2.32 2.12-3.5 4.61-1.37 6.93 2.12 2.32 4.7 1.36 7.02-.77l29.41-24.9-7.7-8.39Z" style="fill:#afaff9;stroke-miterlimit:10;stroke:#000"/><path d="m90.04 89.27 19.46-17.84c2.32-2.12 2.48-5.73.35-8.04-2.12-2.32-5.73-2.47-8.05-.35L82.34 80.88l7.7 8.39Z" style="stroke-miterlimit:10;stroke:#000;fill:#8987f3"/><path d="M90.91 90.22c-.58.53-1.47.49-2-.09l-7.52-8.21a1.41 1.41 0 0 1 .09-2 1.41 1.41 0 0 1 2 .09L91 88.22c.53.58.49 1.47-.09 2Z" class="cls-6"/><path d="m23.555 75.88 57.653-18.765.625 1.92L24.18 77.801z" class="cls-4"/></svg>