<svg xmlns="http://www.w3.org/2000/svg" id="Calque_1" data-name="Calque 1" viewBox="0 0 128 128"><defs><style>.cls-5{stroke:#000;stroke-miterlimit:10}.cls-9{fill:#fff}.cls-5{fill:#f3d587}</style></defs><path d="M13.35 38.86h105.76v46.48H13.35z" style="fill:#bfe6fc;stroke-miterlimit:10;stroke:#000" transform="rotate(-18.03 66.234 62.105)"/><path d="M15.77 41.28h100.92v41.64H15.77z" style="stroke:#8987f3;stroke-width:1.21px;fill:none;stroke-miterlimit:10" transform="rotate(-18.03 66.234 62.105)"/><text style="fill:#8987f3;font-family:Raleway-Bold,&quot;Raleway Bold&quot;;font-size:11.93px;font-weight:700" transform="rotate(-18.03 225.909 -31.2)"><tspan x="0" y="0">SE</tspan><tspan x="11.75" y="0" style="letter-spacing:-.08em">P</tspan><tspan x="17.09" y="0" style="letter-spacing:0">A</tspan></text><path d="M21.846 71.923 79.5 53.157l1.814 5.572L23.66 77.495zM24.776 80.887 82.429 62.12l.625 1.92L25.4 82.809zM86.547 60.766l24.466-7.964 3.47 10.66-24.467 7.964z" class="cls-9"/><path d="m103.73 42.28.19.58h-.02a9.183 9.183 0 0 1-5.49 10.79v.02l-.58.19-.58.19v-.02a9.195 9.195 0 0 1-10.8-5.49h-.02l-.19-.58-.19-.59h.02c-1.13-4.46 1.22-9.09 5.49-10.8v-.02l.57-.19.59-.19v.02c4.46-1.13 9.09 1.22 10.79 5.49h.02l.19.58Zm-11.56 6.99 3.19-1.04-.76-2.33-3.49 1.14c.3.81.66 1.56 1.06 2.23Zm4.68 3.55-1.11-3.42-2.86.93c1.22 1.61 2.67 2.56 3.97 2.49Zm-6.12-6.95 3.49-1.14-.76-2.33-3.19 1.04c.07.78.22 1.6.45 2.43Zm9.32-6.9a8.027 8.027 0 0 0-4.01-1.75c.8.56 1.58 1.35 2.27 2.31l1.74-.57Zm-9.83 3.2 2.86-.93-1.11-3.42c-1.1.71-1.71 2.33-1.75 4.35Zm-.29 9.12c1.15.94 2.54 1.55 4.01 1.74-.81-.57-1.58-1.35-2.27-2.31l-1.74.57Zm-.84-7.46-2.05.67c-.07.83 0 1.67.2 2.51l2.32-.75c-.23-.82-.39-1.64-.47-2.42Zm.85 3.59-2.32.76c.33.8.77 1.52 1.32 2.15l2.05-.67c-.4-.69-.75-1.44-1.05-2.24Zm-.45-8.06a7.984 7.984 0 0 0-2.22 3.77l1.75-.57c-.01-1.18.15-2.27.47-3.21Zm9.49 1.25c.4.68.75 1.43 1.05 2.24l2.32-.76c-.33-.8-.78-1.52-1.32-2.15l-2.05.67Zm1.5 10.3a8.15 8.15 0 0 0 2.22-3.77l-1.74.57c0 1.18-.16 2.27-.47 3.2Zm.39-4.47 2.05-.67c.07-.83 0-1.67-.2-2.52l-2.32.76c.23.82.39 1.64.47 2.43Zm-7.75-9 1.11 3.42 2.86-.93c-1.22-1.61-2.67-2.57-3.97-2.49Zm4.68 3.55-3.18 1.04.76 2.33 3.49-1.13c-.3-.8-.66-1.56-1.06-2.23Zm1.44 3.4-3.49 1.13.76 2.33 3.18-1.04c-.07-.78-.22-1.6-.46-2.43Zm-2.35 4.63L98 52.44c1.09-.71 1.71-2.33 1.74-4.35l-2.86.93Z" style="fill:#8987f3"/><path d="M25.91 84.087 83.563 65.32l.625 1.92-57.652 18.767z" class="cls-9"/><path d="m48.52 116.61-2.2 3.52 4.05-.93c-.13-.37-.36-.86-.75-1.42-.4-.56-.78-.93-1.09-1.17Z" style="stroke-miterlimit:10;stroke:#000"/><path d="m52.83 109.72-3.61 5.77c1.06.74 2.08 2.17 2.43 3.41l6.64-1.53c-.42-1.06-1.14-2.45-2.33-4.11-1.19-1.67-2.26-2.8-3.13-3.55Z" class="cls-5"/><path d="m80.11 90.23-26.25 18.69c1.18 1.07 2.34 2.48 3.14 3.6.8 1.13 1.75 2.68 2.37 4.15l26.25-18.69c-.42-1.06-1.14-2.47-2.35-4.17-1.21-1.69-2.3-2.84-3.17-3.58Z" style="fill:#afaff9;stroke-miterlimit:10;stroke:#000"/><path d="m115.81 76.49.24-.17c1.47-1.05 1.45-1.8.19-3.73l.21-.15c.83-.59.58-1.42-.01-2.24s-1.29-1.33-2.11-.74l-.25.18c-1.47-1.75-2.35-1.92-3.55-1.07l-29.36 20.9c1.19 1.08 2.34 2.47 3.15 3.6.8 1.13 1.75 2.67 2.38 4.15l3.81-2.71 1.13-.8 23.05-16.41 1.13-.8Z" style="stroke-miterlimit:10;stroke:#000;fill:#8987f3"/><path d="M115.43 78.35c-.93 1.4-1.71 2.8-2.87 4.11-2.37 2.65-5.5 4.75-8.71 6.23-1.07.5-2.13 1.04-3.2 1.47-1.06.47-2.12.89-3.15 1.3-1.05.42-2.02.84-2.97 1.34-.9.48-1.72 1.01-2.44 1.54l-1.07.88c-.32.29-.62.58-.87.87-.54.53-.84 1.09-1.15 1.52-.16.22-.82 1.09-.55 1.27.32.22 1.62-1.18 1.86-1.4.8-.74 1.72-1.3 2.67-1.81 1.65-.77 3.32-1.2 5.01-1.65 1.07-.29 2.2-.56 3.35-.97 1.14-.35 2.35-.85 3.55-1.29 1.2-.6 2.41-1.09 3.6-1.83 1.15-.73 2.31-1.52 3.32-2.46.99-.86 2.11-2.14 2.85-3.09.98-1.27 4.85-7.35 2.68-7.82h-.06c-.28 0-.64.29-.97.63l-.89 1.14Z" class="cls-5"/><path d="M-479.14-269.82H689.17v629.76H-479.14z" style="fill:none;stroke:#fff;stroke-linecap:round;stroke-linejoin:round;stroke-width:8px"/></svg>