<svg xmlns="http://www.w3.org/2000/svg" id="Calque_1" data-name="Calque 1" viewBox="0 0 128 128"><defs><style>.cls-1,.cls-2,.cls-3,.cls-4{stroke-miterlimit:10;stroke:#000}.cls-1,.cls-2,.cls-3{stroke-width:2px}.cls-1,.cls-2,.cls-4,.cls-8{fill-rule:evenodd}.cls-1,.cls-3{fill:#fff}.cls-2{fill:#d6d6d6}.cls-8{fill:#ff6d75}</style></defs><path d="m38.99 39.78.09 38.54H93.57l-.09-38.54H38.99z" class="cls-2"/><path d="M96.9 52.9c6.96-2.34 12.82-3.49 15.17 3.47l11.22 33.76c2.34 6.96-1.44 14.57-8.4 16.91-6.96 2.34-14.57-1.44-16.92-8.4L88.5 69.81c-2.34-6.96 1.44-14.57 8.4-16.91Z" class="cls-2"/><path d="m117.4 72.51 5.88 17.62c2.02 6.04-.54 12.56-5.8 15.71 1.25-12.53-7.91-28.51-.08-33.33ZM35.66 52.9c-6.96-2.34-12.83-3.49-15.17 3.47L9.28 90.13c-2.34 6.96 1.44 14.57 8.4 16.91 6.96 2.34 14.57-1.44 16.91-8.4l9.47-28.83c2.34-6.96-1.44-14.57-8.4-16.91Z" class="cls-2"/><path d="M15.15 72.51 9.27 90.13c-2.02 6.04.54 12.56 5.8 15.71-1.25-12.53 7.92-28.51.08-33.33ZM91.14 31.02h13.04c1.3 0 1.97 1.12 2.36 2.36l5.51 17.51c.39 1.24-1.06 2.36-2.36 2.36H85.63c-1.3 0-2.75-1.12-2.36-2.36l5.51-17.51c.39-1.24 1.06-2.36 2.36-2.36ZM28.37 31.02h13.05c1.3 0 1.97 1.12 2.36 2.36l5.51 17.51c.39 1.24-1.06 2.36-2.36 2.36H22.87c-1.3 0-2.75-1.12-2.36-2.36l5.51-17.51c.39-1.24 1.06-2.36 2.36-2.36Z" class="cls-2"/><path d="M34.89 34.79c-10.1 0-18.28 8.19-18.28 18.28s8.19 18.28 18.28 18.28c1.07 0 2.13-.09 3.15-.27a13.75 13.75 0 0 0-1.26 5.77c0 7.61 6.17 13.77 13.77 13.77s13.77-6.17 13.77-13.77-6.16-13.77-13.77-13.77h-.36c1.89-2.88 2.99-6.32 2.99-10.01 0-10.1-8.19-18.28-18.28-18.28Z" class="cls-2"/><path d="M50.55 86.27c5.19 0 9.43-4.23 9.43-9.43s-4.23-9.43-9.43-9.43-9.42 4.24-9.42 9.43 4.23 9.43 9.42 9.43Z" class="cls-1"/><path d="M50.55 83.48c3.65 0 6.63-2.98 6.63-6.63s-2.98-6.63-6.63-6.63-6.63 2.98-6.63 6.63 2.98 6.63 6.63 6.63Z" class="cls-4"/><path d="M97.66 34.79c10.1 0 18.28 8.19 18.28 18.28s-8.19 18.28-18.28 18.28c-1.07 0-2.13-.09-3.15-.27a13.75 13.75 0 0 1 1.26 5.77c0 7.61-6.17 13.77-13.77 13.77s-13.77-6.17-13.77-13.77S74.4 63.08 82 63.08h.36a18.187 18.187 0 0 1-2.99-10.01c0-10.1 8.19-18.28 18.28-18.28Z" class="cls-2"/><path d="M107.75 57.71c-2.56 0-4.65-2.08-4.65-4.64s2.08-4.65 4.65-4.65 4.65 2.08 4.65 4.65-2.08 4.64-4.65 4.64Z" style="fill:#87f3b9;fill-rule:evenodd"/><path d="M107.75 49.42c2.01 0 3.65 1.64 3.65 3.65s-1.64 3.64-3.65 3.64-3.65-1.63-3.65-3.64 1.64-3.65 3.65-3.65m0-2c-3.11 0-5.65 2.54-5.65 5.65s2.54 5.64 5.65 5.64 5.65-2.54 5.65-5.64-2.54-5.65-5.65-5.65Z"/><path d="M97.87 67.62c-2.56 0-4.65-2.08-4.65-4.65s2.08-4.64 4.65-4.64 4.64 2.08 4.64 4.64-2.08 4.65-4.64 4.65Z" style="fill:#f3d587;fill-rule:evenodd"/><path d="M97.87 59.33c2.01 0 3.65 1.63 3.65 3.64s-1.64 3.65-3.65 3.65-3.65-1.64-3.65-3.65 1.64-3.64 3.65-3.64m0-2c-3.11 0-5.65 2.54-5.65 5.64s2.54 5.65 5.65 5.65 5.65-2.54 5.65-5.65-2.54-5.64-5.65-5.64Z"/><path d="M87.57 57.71c-2.56 0-4.65-2.08-4.65-4.64s2.08-4.65 4.65-4.65 4.64 2.08 4.64 4.65-2.08 4.64-4.64 4.64Z" style="fill:#77eddf;fill-rule:evenodd"/><path d="M87.57 49.42c2.01 0 3.64 1.64 3.64 3.65s-1.63 3.64-3.64 3.64-3.65-1.63-3.65-3.64 1.64-3.65 3.65-3.65m0-2c-3.11 0-5.65 2.54-5.65 5.65s2.54 5.64 5.65 5.64 5.64-2.54 5.64-5.64-2.54-5.65-5.64-5.65Z"/><path d="M97.87 47.81c-2.56 0-4.65-2.08-4.65-4.64s2.08-4.65 4.65-4.65 4.64 2.08 4.64 4.65-2.08 4.64-4.64 4.64Z" class="cls-8"/><path d="M97.87 39.52c2.01 0 3.65 1.64 3.65 3.65s-1.64 3.64-3.65 3.64-3.65-1.63-3.65-3.64 1.64-3.65 3.65-3.65m0-2c-3.11 0-5.65 2.54-5.65 5.65s2.54 5.64 5.65 5.64 5.65-2.54 5.65-5.64-2.54-5.65-5.65-5.65Z"/><path d="M34.89 66.61c7.45 0 13.54-6.08 13.54-13.54s-6.08-13.53-13.54-13.53-13.54 6.08-13.54 13.53 6.08 13.54 13.54 13.54Z" class="cls-1"/><path d="M32.75 61.97v-6.76h-6.76v-4.28h6.76v-6.76h4.28v6.76h6.76v4.28h-6.76v6.76h-4.28z" class="cls-8"/><path d="M36.03 45.17v6.76h6.76v2.29h-6.76v6.76h-2.29v-6.76h-6.76v-2.29h6.76v-6.76h2.29m2-2h-6.29v6.76h-6.76v6.29h6.76v6.76h6.29v-6.76h6.76v-6.29h-6.76v-6.76Z"/><circle cx="82" cy="76.85" r="9.43" class="cls-3"/><path d="M82 83.48c3.65 0 6.63-2.98 6.63-6.63s-2.98-6.63-6.63-6.63-6.63 2.98-6.63 6.63 2.98 6.63 6.63 6.63Z" class="cls-4"/><path d="M59.83 54.7h2.87c1.26 0 2.29 1.03 2.29 2.29s-1.03 2.29-2.29 2.29h-2.87c-1.26 0-2.29-1.03-2.29-2.29s1.03-2.29 2.29-2.29ZM69.85 54.7h2.87c1.26 0 2.29 1.03 2.29 2.29s-1.03 2.29-2.29 2.29h-2.87c-1.26 0-2.29-1.03-2.29-2.29s1.03-2.29 2.29-2.29Z" class="cls-1"/><path d="M58.25 43.7H74.3c.96 0 1.74.78 1.74 1.74v3.5c0 .96-.78 1.74-1.74 1.74H58.25c-.96 0-1.74-.78-1.74-1.74v-3.5c0-.96.78-1.74 1.74-1.74Z" class="cls-3"/><path d="M51.61 39.76s-3.47-17.77 15.19-21.6c18.66-3.82 21.79-6.42 21.79-6.42" style="fill:none;stroke-linecap:round;stroke-linejoin:round;fill-rule:evenodd;stroke-width:2px;stroke:#000"/><path d="M-5152.96-678.71h6562.35v1176.7h-6562.35z" style="fill:none;stroke-linecap:round;stroke-linejoin:round;stroke:#fff;stroke-width:8px"/></svg>