<svg xmlns="http://www.w3.org/2000/svg" id="Calque_1" data-name="Calque 1" viewBox="0 0 128 128.13"><defs><style>.cls-4{stroke:#000;stroke-miterlimit:10;fill:#f3d587}</style></defs><path d="M126.14 46.89c0-17.93-14.59-32.52-32.52-32.52-13.16 0-24.51 7.86-29.62 19.12-5.11-11.26-16.46-19.12-29.61-19.12-17.94 0-32.53 14.59-32.53 32.52 0 3.78.65 7.41 1.84 10.79a32.66 32.66 0 0 0 6.03 10.4c1.11 1.3 2.32 2.5 3.63 3.61l49.6 49.27c.31.31.7.46 1.1.46s.81-.15 1.11-.46l51.44-51.11h0c3.33-3.35 5.95-7.4 7.59-11.93 1.24-3.44 1.92-7.16 1.92-11.03Z" style="fill:#ff6d75;stroke-width:2px;stroke:#000;stroke-linecap:round;stroke-linejoin:round"/><path d="m55.31 37.42-3.79 2.66H45.1l-3.79-2.66 3.79-3.94h6.42l3.79 3.94z" style="stroke-miterlimit:10;fill:#fff;stroke:#000"/><path d="M48.02 40.18c-13.17 0-23.9 10.66-23.9 23.75s10.73 23.76 23.9 23.76 23.91-10.66 23.91-23.76S61.2 40.18 48.02 40.18Zm0 44.67c-11.63 0-21.06-9.36-21.06-20.92s9.43-20.92 21.06-20.92 21.07 9.37 21.07 20.92-9.43 20.92-21.07 20.92Z" class="cls-4"/><path d="M80.07 40.18c-13.18 0-23.9 10.66-23.9 23.75s10.72 23.76 23.9 23.76 23.9-10.66 23.9-23.76-10.72-23.75-23.9-23.75Zm0 44.67c-11.63 0-21.06-9.36-21.06-20.92s9.43-20.92 21.06-20.92 21.07 9.37 21.07 20.92-9.43 20.92-21.07 20.92Z" class="cls-4"/><path d="m45.1 33.48 2.92 6.7 3.5-6.7" style="stroke:#000;stroke-linecap:round;stroke-linejoin:round;fill:none"/></svg>