<svg xmlns="http://www.w3.org/2000/svg" id="Calque_1" viewBox="0 0 200 128"><defs><style>.cls-1,.cls-2,.cls-4,.cls-6{stroke-linecap:round;stroke-linejoin:round;fill:none}.cls-1,.cls-4,.cls-6{stroke:#000}.cls-2{stroke:#fab0b4}.cls-4{stroke-width:2px}.cls-6{stroke-width:3px}</style></defs><path d="M169.97 79.82h-31.25c-5.73 0-11.2 5.14-16.55 7.19-14.94 5.74-31.47 5.98-46.3.18-5.49-2.15-11.48-7.38-17.38-7.38H15.26c-2.18 0-3.95 1.77-3.95 3.95v9.42c0 2.18 1.77 3.95 3.95 3.95h43.37c5.84 0 11.78 5.2 17.22 7.31 14.81 5.75 31.27 5.61 46.14-.1 5.36-2.06 10.85-7.21 16.59-7.21h31.39c2.18 0 3.95-1.77 3.95-3.95v-9.42c0-2.18-1.77-3.95-3.95-3.95Z" style="stroke-width:2px;fill:#fab0b4;stroke:#000;stroke-linecap:round;stroke-linejoin:round"/><path d="M172.97 82.82h-34.25c-5.73 0-11.2 5.14-16.55 7.19-14.94 5.74-31.47 5.98-46.3.18-5.49-2.15-11.48-7.38-17.38-7.38H12.25" class="cls-1"/><path d="M172.97 85.62h-34.25c-5.73 0-11.2 5.14-16.55 7.19-14.94 5.74-31.47 5.98-46.3.18-5.49-2.15-11.48-7.38-17.38-7.38H12.25" class="cls-1"/><path d="M172.97 88.41h-34.25c-5.73 0-11.2 5.14-16.55 7.19-14.94 5.74-31.47 5.98-46.3.18-5.49-2.15-11.48-7.38-17.38-7.38H12.25" class="cls-1"/><path d="M172.97 91.2h-34.25c-5.73 0-11.2 5.14-16.55 7.19-14.94 5.74-31.47 5.98-46.3.18-5.49-2.15-11.48-7.38-17.38-7.38H12.25" class="cls-1"/><path d="M172.97 93.99h-34.25c-5.73 0-11.2 5.14-16.55 7.19-14.94 5.74-31.47 5.98-46.3.18-5.49-2.15-11.48-7.38-17.38-7.38H12.25" class="cls-1"/><path d="M67.19 107.7c2.03 1.03 4.02 2.02 5.95 2.69 16.55 5.75 34.96 5.61 51.58-.1 1.87-.64 3.75-1.58 5.65-2.58" class="cls-2"/><path d="M67.19 113.67c2.03 1.03 4.02 2.02 5.95 2.69 16.55 5.75 34.96 5.61 51.58-.1 1.87-.64 3.75-1.58 5.65-2.58" class="cls-2"/><path d="M59.85 77.9c.43 1.59-.51 3.24-2.11 3.67-1.1.3-2.22-.06-2.95-.84l-2.9 1.33a75.968 75.968 0 0 1-24.29 6.56l-3.12.3a3.02 3.02 0 0 1-2.13 2.2c-1.6.43-3.24-.52-3.67-2.11-.29-1.06.03-2.14.75-2.87a66.198 66.198 0 0 1-5.92-21.94c-.98-.26-1.8-1.04-2.09-2.1a2.994 2.994 0 0 1 5.06-2.84l2.81-1.29a76.244 76.244 0 0 1 24.29-6.57l3.01-.29a2.986 2.986 0 0 1 2.12-2.17c1.6-.43 3.24.52 3.67 2.11.27 1.01 0 2.03-.65 2.76 1.63 3.48 2.94 7.08 3.94 10.78s1.66 7.4 2.01 11.19c1.03.24 1.89 1.03 2.18 2.13Z" style="stroke-width:2px;fill:#fff;stroke:#000;stroke-linecap:round;stroke-linejoin:round"/><path d="M22.23 77.66c-1.38-3.66-2.22-7.5-2.49-11.43M51.38 70.51c.28 2.28-.48 4.39-2.27 6.26" class="cls-4"/><path d="M42.04 34.24h4.52l-4.52 5.44h4.52M37.19 40.19h3.52l-3.52 4.25h3.52M33.27 44.82h2.3l-2.3 2.76h2.3" class="cls-1"/><circle cx="98.78" cy="64.54" r="25.81" style="fill:#bfe6fc"/><rect width="29.47" height="29.47" x="144.3" y="14.77" rx="4.14" ry="4.14" style="fill:#fab0b4"/><path d="M173.77 27.17V40.1c0 2.28-1.86 4.14-4.14 4.14h-21.2c-2.28 0-4.14-1.86-4.14-4.14V18.91c0-2.28 1.86-4.14 4.14-4.14h21.2" class="cls-4"/><path d="M168.14 38.62 150.2 20.43M150.2 38.62l17.94-18.19" class="cls-6"/><path d="M98.78 18.13v33.81" class="cls-1"/><path d="m93.8 50.48 4.98 8.64 4.99-8.64H93.8z"/></svg>