<svg xmlns="http://www.w3.org/2000/svg" id="Calque_1" viewBox="0 0 200 128"><defs><style>.cls-2,.cls-5{fill:#d6d6d6;stroke:#000;stroke-linecap:round;stroke-linejoin:round;stroke-width:2px}.cls-5{fill:none}</style></defs><path d="M3.28 107.61h193.46" class="cls-2"/><rect width="178.85" height="22.79" x="13.87" y="74.68" class="cls-2" rx="8.22" ry="8.22"/><path d="M187.13 96.35H17.97c-.39 0-.7-.31-.7-.7V49.04c0-.39-.31-.7-.7-.7h-4.18c-.39 0-.7.31-.7.7v58.02c0 .39.31.7.7.7h4.18c.39 0 .7-.31.7-.7v-5.19c0-.39.31-.7.7-.7h168.46c.39 0 .7.31.7.7v5.19c0 .39.31.7.7.7h4.18c.39 0 .7-.31.7-.7v-10c0-.39-.31-.7-.7-.7h-4.88Z" style="fill:#a07637;stroke:#000;stroke-linecap:round;stroke-linejoin:round;stroke-width:2px"/><path d="M55.85 73.97a2.43 2.43 0 0 1-1.72 2.98 2.43 2.43 0 0 1-2.4-.68l-2.36 1.08a62.059 62.059 0 0 1-19.77 5.34l-2.54.25c-.2.84-.84 1.55-1.73 1.79a2.43 2.43 0 0 1-2.98-1.72c-.23-.87.03-1.74.61-2.33a54.142 54.142 0 0 1-4.82-17.86c-.8-.22-1.47-.84-1.7-1.71a2.43 2.43 0 0 1 1.72-2.98c.89-.24 1.8.05 2.4.67l2.29-1.05a61.988 61.988 0 0 1 19.77-5.34l2.45-.24a2.43 2.43 0 0 1 4.71-.05c.22.82 0 1.66-.53 2.25 1.32 2.83 2.4 5.77 3.21 8.77.8 2.98 1.35 6.02 1.64 9.1.83.2 1.54.84 1.78 1.73Z" style="fill:#fff;stroke:#000;stroke-linecap:round;stroke-linejoin:round;stroke-width:2px"/><path d="M25.24 73.77c-1.13-2.98-1.81-6.1-2.03-9.3M48.97 67.96c.23 1.86-.39 3.57-1.85 5.09" class="cls-5"/><path d="m165.85 16.42-15.32 55.52" style="fill:#d6d6d6"/><path d="M165.85 16.42 151.1 69.85" class="cls-5"/><path d="m144.98 61.29 1.78-.93 4.55 8.75 8.39-5.17 1.05 1.7-10.23 6.3-5.54-10.65z"/></svg>