<svg xmlns="http://www.w3.org/2000/svg" id="Calque_1" viewBox="0 0 128 128"><defs><style>.cls-10,.cls-2,.cls-3,.cls-4,.cls-6{stroke-linecap:round}.cls-2,.cls-3,.cls-6{stroke-linejoin:round}.cls-3{fill:none}.cls-10,.cls-2,.cls-3,.cls-4,.cls-6{stroke:#000}.cls-10,.cls-2{fill:#fff}.cls-10,.cls-4{stroke-miterlimit:10}.cls-6{fill:#fee4cb}</style></defs><path d="M121.77 121.77H6.22L64 64l57.77 57.77z" style="fill:#87ccf3;stroke:#000;stroke-linejoin:round;stroke-linecap:round"/><path d="M64 64 6.22 121.77V6.22L64 64z" style="fill:#8987f3;stroke:#000;stroke-linejoin:round;stroke-linecap:round"/><path d="M121.77 6.22 64 64 6.22 6.22h115.55z" style="fill:#fce9b9;stroke:#000;stroke-linejoin:round;stroke-linecap:round"/><path d="M121.77 6.22v115.55L64 64l57.77-57.78z" style="fill:#f3d587;stroke:#000;stroke-linejoin:round;stroke-linecap:round"/><path d="M-1254.72-463.81h2655.08v1511.77h-2655.08z" style="fill:none;stroke-linejoin:round;stroke-linecap:round;stroke:#e30613;stroke-width:8px"/><path d="M64 27.98c-19.89 0-36.01 16.13-36.01 36.02S44.11 100.01 64 100.01 100.01 83.89 100.01 64 83.89 27.98 64 27.98Zm.43 64.59c-15.78 0-28.57-12.79-28.57-28.57s12.79-28.57 28.57-28.57S93 48.22 93 64 80.21 92.57 64.43 92.57Z" class="cls-10"/><path d="M93 64c0 15.78-12.79 28.57-28.57 28.57S35.86 79.78 35.86 64s12.79-28.57 28.57-28.57S93 48.22 93 64Z" style="fill:#d6d6d6;stroke-miterlimit:10;stroke:#000;stroke-linecap:round"/><path d="M63.36 35.43h2.15v6.07h-2.15zM63.36 86.5h2.15v6.07h-2.15zM86.94 63.48h6.01v2.15h-6.01zM35.89 63.48h6.04v2.15h-6.04z" class="cls-10"/><rect width="2.15" height="19.04" x="64.43" y="47.02" class="cls-4" rx="1.07" ry="1.07"/><rect width="2.15" height="12.11" x="69.41" y="58.5" class="cls-4" rx=".97" ry=".97" transform="rotate(90 70.49 64.55)"/><circle cx="65.51" cy="64.55" r="2.91" style="fill:#b4eac3;stroke-miterlimit:10;stroke:#000;stroke-linecap:round"/><path d="M22.38 63.58a6.568 6.568 0 0 1-12.28-3.24c0-3.63 2.66-6.28 6.05-6.55-.55.96-.86 2.06-.86 3.24 0 3.63 2.94 6.57 6.57 6.57.18 0 .35 0 .52-.02Z" class="cls-10"/><path d="m16.24 22.54 1.25 2.53 2.79.4-2.02 1.97.48 2.78-2.5-1.31-2.5 1.31.48-2.78-2.02-1.97 2.79-.4 1.25-2.53zM19.45 86.5l1.25 2.53 2.79.41-2.02 1.97.48 2.78-2.5-1.31-2.5 1.31.48-2.78-2.02-1.97 2.79-.41 1.25-2.53z" class="cls-2"/><circle cx="111.06" cy="64" r="4.85" class="cls-6"/><path d="M111.06 72.65v-2.74M104.94 70.12l1.94-1.94M104.94 57.89l1.94 1.93M111.06 55.36v2.73M117.17 57.89l-1.94 1.93M119.7 64h-2.73M117.17 70.12l-1.93-1.94M117.17 70.12l-1.94-1.94M111.06 72.65v-2.74M104.94 70.12l1.94-1.94M104.94 57.89l1.94 1.93M111.06 55.36v2.73M117.17 57.89l-1.94 1.93M119.7 64h-2.73M105.15 64h-2.73" class="cls-3"/><path d="M60 22.54c0-2.68 2.17-4.85 4.85-4.85s4.85 2.17 4.85 4.85" class="cls-6"/><path d="M55.12 22.54h19.46M58.74 16.43l1.93 1.93M64.85 13.89v2.74M70.96 16.43l-1.93 1.93" class="cls-3"/><path d="M59.58 115.39c0-2.68 2.17-4.85 4.85-4.85s4.85 2.17 4.85 4.85" class="cls-6"/><path d="M54.7 115.39h19.46M58.32 109.28l1.93 1.93M64.43 106.75v2.73M70.55 109.28l-1.94 1.93" class="cls-3"/></svg>