<svg xmlns="http://www.w3.org/2000/svg" id="Calque_1" data-name="Calque 1" viewBox="0 0 128 128"><defs><style>.cls-1{fill:#87ccf3}.cls-1,.cls-2,.cls-3,.cls-4,.cls-5{stroke:#000;stroke-linecap:round;stroke-linejoin:round}.cls-2{fill:#b2f0e9}.cls-3{fill:#fff}.cls-4,.cls-5{fill:none}.cls-5{stroke-width:.75px}</style></defs><path d="M59.39 25.48c2.11-2.67 7.53-3.2 10.95-1.23" class="cls-5"/><path d="m50.03 74.64-.81 4.84a.51.51 0 0 1-.56.43h0a.52.52 0 0 1-.46-.55l.15-2.35 1.68-2.37Z" class="cls-3"/><path d="M52.4 73.47c-.4 1.49-.41 2.51-.38 3.05.03.29-.16.55-.43.61-.04.01-.1.02-.14.02-.24 0-.47-.16-.54-.41-.17-.56-.39-1.53-.34-2.62l-.69 1.4-1.65 3.37-.31.63c-.12.24-.41.34-.64.2a.445.445 0 0 1-.22-.39c0-.02.01-.05.01-.07l1.1-6.9s.4-2.48.52-4.22c0-.03.01-.07.01-.11 0-.01 0-.02.01-.04.07-.5.37-.94.86-1.11.72-.26 1.5.12 1.74.84l.04.12.07.23.28.82s1.35 2.19.7 4.59Z" class="cls-3"/><path d="m60.08 125.95-9.36.12c-.69 0-1.26-.54-1.28-1.23h0c-.01-.48.25-.92.67-1.15l7.96-4.26c.18-.1.39-.15.6-.15h4.06c.59 0 1.1.41 1.23.99l.78 3.49c.02.08.03.16.03.24l.02.61c.02.7-.54 1.29-1.25 1.29l-1.61.02-1.85.02Z" class="cls-2"/><path d="M58.25 111.67h5.5v7.62h-5.5zM76.26 111.67h-5.5l.38 7.61h5.5l-.38-7.61z" class="cls-3"/><path d="M74.45 56.93c.36 3.82 2.9 59.43 2.9 59.43h-7.43L66.66 66.4l-1.34.03-.87 49.93h-7.42s-.41-51.96.03-59.31l17.39-.12Z" class="cls-1"/><path d="m74.8 125.96 9.36.12c.69 0 1.26-.54 1.28-1.23h0c.01-.48-.25-.92-.67-1.15l-7.96-4.26c-.18-.1-.39-.15-.6-.15h-4.06c-.59 0-1.1.41-1.23.99l-.78 3.49c-.02.08-.03.16-.03.24l-.02.61c-.02.7.54 1.29 1.25 1.29l1.61.02 1.85.02ZM72.34 28.41v28.82H58.99V29.65l2.2-4.11 2.36 4.11 2.37-2.41 2.37 2.41 1.9-4.11 2.15 2.87z" class="cls-2"/><path d="m65.92 27.24-2.37 2.41-2.36-4.11 1.6-.96 1.12.96 2.01 1.7z" class="cls-2"/><path d="m70.19 25.54-1.9 4.11-2.37-2.41 1.69-1.7.98-1 1.6 1z" class="cls-2"/><path d="M78.26 48.62c.56.76.74 1.69.78 2.31l-.78-2.31Z" class="cls-3"/><path d="m82.83 39.26-4.8 7.69-.11.1-.16.15-.05-.15-1.74-5.06.15 5.06v.43l-.57-.05-.32 1.5-.54 2.54-.49 2.32 2.12.15.79 27.27h-7.96l.58-31.2.03-1.92-.29 1.22.11-2.83v-.25l.14-3.46.26-7.15.19-10.07 4.82 2.03c.95.22 4.31 1.46 6.66 7.92.17.48.34.97.5 1.51.23.77.44 1.51.66 2.25ZM55.01 81.2l.41-27.12-2.13 14.04-1.86-.05h-.13L48.72 68h-.01l-2.02-.05s2.45-19.73 3.54-29.47c1.05-9.4 5.59-10.67 5.59-10.67l5.37-2.27.76 23.76h0l1.02 31.91h-7.96Z" class="cls-3"/><path d="m85.62 34.76-2.79 4.5-4.8 7.69-.11.09-.16.15-.05-.15h-1.59l.01.44-.58-.06-.32 1.51-2.13.38-3.5-2.83-.05-.03.06-.22.6-2.66 3.05-6.52 8.41-1.55 3.95-.74z" class="cls-1"/><path d="M77.71 47.04h-1.59l-.57.38-.32 1.5-.54 2.54-.49 2.32 2.12.15 6.27.46c.26.04.51.04.75-.01 1.68-.37 2.29-2.99 1.97-4.67-.44-2.37-1.23-6-2.49-10.46l-4.8 7.69-.11.1h-.21Z" class="cls-3"/><path d="m72.96 47.15 2.6.28-.32 1.5-.54 2.54c-2.18-.3-3.5-.83-3.5-.83L69.75 50l-1.66-.72c-.76-.4-1.24-1.19-1.24-2.04v-.61c0-.48.15-.95.43-1.35l.63-1.37c.44-.6 1.09-1.03 1.83-1.15.02 0 .04-.01.06-.01l.82-.08-.4.9c4.03.42 2.74 3.58 2.74 3.58Z" class="cls-3"/><path d="M65.12 3.62s0 1.14-.41 1.9h-.01M62.91 6c-.9-.52-1.51-1.84-1.51-1.84M60.07 16.44h-.01c-.11-.02-.84-.21-1.27-1.38-.47-1.26-1.01-1.11-1.05-2.41-.03-1.23 1.24-.7 1.38-.62M70.47 5.23s-.88.52-1.86.7" class="cls-4"/><path d="M71.72 11.01c.02.72.03 2.58-.26 4.5-.25 1.6-.73 3.25-1.61 4.31-.62.75-1.17 1.28-1.65 1.66-1.08.84-1.76.86-1.9.85-.16.04-1.08.18-2.66-.85-.4-.26-.84-.6-1.33-1.03-1.03-.92-1.76-2.47-2.25-4.01-.59-1.86-.87-3.7-.95-4.42h.01a.688.688 0 0 1-.02-.25c.02.07.05.11.05.11-.03-.3-.03-.6-.02-.89.19-1.5 1.56-3.97 1.72-4.39l.2-.04c.56.03 1.21-.1 1.86-.56.27.17.56.25.86.22.43-.05.72-.34.92-.7.01.01.02.02.03.02.13.12.9.8 1.86-.13.51.6 1.3.66 2.03.52.44.34 1.04.31 1.04.31.03.05.08.1.1.15 1.8 2.54 1.97 4.26 1.99 4.45.11-.45.19-.88.25-1.29-.1.76-.24 1.31-.27 1.43h0l-.01.03h.01Z" class="cls-3"/><path d="M59.13 10.99c-.04.28-.05.54-.03.78" class="cls-4"/><path d="M59.12 12.02s0-.01-.01-.02h0c-.06-.15-.39-.88-.61-1.88v-.03c-.45-1.99-.46-5 2.85-6.34 0 0 .2-1.09 1.6-.92 0 0 1.62-1.77 3.57-.32 1.36-.38 1.73.66 1.73.66 3.74.88 3.98 4.25 3.76 6.26 0 .04-.01.07-.01.1" class="cls-4"/><path d="M69.79 6.6s1.92 2.8 1.92 4.41M59.08 11.72h0s0 .13.03.28h0v.03M71.72 11.01v-.02" class="cls-4"/><path d="M71.71 10.7s0 .1.01.28M71.45 15.51h.01c.1-.04.8-.34 1.05-1.56.27-1.31.82-1.25.67-2.54-.16-1.22-1.33-.5-1.46-.4M67.38 4.3c-.24.45-.49.79-.72 1.03-.03.03-.05.07-.08.08M64.73 5.54l-.02-.02" class="cls-4"/><path d="M66.03 10.85s.43 3.87 1.27 5.81c0 0-.16.4-1.42.15" class="cls-3"/><ellipse cx="63.43" cy="12.7" class="cls-3" rx=".13" ry=".39" transform="rotate(-4.42 63.48 12.7)"/><ellipse cx="68.76" cy="12.19" class="cls-3" rx=".13" ry=".39" transform="rotate(-4.42 68.817 12.258)"/><path d="M55.55 38.96c-.63-.1-2.6-.21-2.49-1.77.11-1.55 2.52-6.37 4.5-6.26s3.47 7.85 2.43 8.1-2.22.06-2.22.06" class="cls-5"/><path d="M55.3 32.38s2.01-4.01 2.46-3.98c.56.04 1.72 5.07 1.72 5.07" class="cls-5"/><path d="M68.59 24.54 66.1 27.1l-3.32-2.52.86-3.1c1.58 1.03 2.5.89 2.66.85.14.01.82-.01 1.9-.85l.39 3.06Z" class="cls-3"/><path d="M70.16 24.14c4.82 2.82 3.48 8.59 3.48 8.59M57.52 28.68c.11-.46 1.56-3.04 2.43-3.8" class="cls-5"/><circle cx="73.64" cy="34.17" r="1.48" class="cls-5"/><ellipse cx="55.55" cy="38.86" class="cls-5" rx=".44" ry=".51"/><ellipse cx="57.94" cy="39.07" class="cls-5" rx=".44" ry=".51"/><path d="M-731.07-68.12H1448.4v547.09H-731.07z" style="stroke:#fff;stroke-width:8px;fill:none;stroke-linecap:round;stroke-linejoin:round"/></svg>