<svg xmlns="http://www.w3.org/2000/svg" id="Calque_1" viewBox="0 0 200.13 128.13"><defs><style>.cls-3,.cls-4,.cls-5,.cls-6{stroke-linecap:round;stroke-linejoin:round;stroke:#000}.cls-5{fill:#d6d6d6}.cls-7{stroke:#f387d5}.cls-6{fill:none}.cls-10,.cls-4,.cls-7{fill:#fff}.cls-3{fill:#f387d5}.cls-3,.cls-4,.cls-6{stroke-width:2px}.cls-5,.cls-7{stroke-width:.5px}.cls-7{stroke-miterlimit:10}</style></defs><path d="M15.56 13.38h70.88v51.64H15.56z" class="cls-4"/><path d="M25.14 22.97h70.88v51.64H25.14zM86.44 13.38l9.59 9.59H25.14l-9.58-9.59h70.88z" class="cls-4"/><path d="m96.03 74.62-9.59-9.59H15.56l9.58 9.59h70.89z" class="cls-6"/><path d="M40.3 41.45h40.57v6.48H40.3z" style="fill:#ffd4ad"/><path d="M47.5 33.03h.64v4.15h2.37v.56h-3v-4.72ZM51.22 33.03h3.42v.58h-2.8v1.43h2.59v.55h-2.59v1.6h2.85v.56h-3.47v-4.72ZM55.92 33.03l1.35 4.02 1.34-4.02h.72l-1.72 4.72h-.68l-1.72-4.72h.71ZM60.62 33.03v2.91c0 .34.06.63.19.85.19.34.52.51.97.51.55 0 .92-.19 1.11-.56.11-.2.16-.47.16-.81v-2.91h.65v2.65c0 .58-.08 1.03-.24 1.34-.29.57-.83.85-1.63.85s-1.34-.28-1.63-.85c-.16-.31-.24-.76-.24-1.34v-2.65h.65ZM64.75 33.03h2.14c.35 0 .64.05.87.16.44.2.65.57.65 1.11 0 .28-.06.51-.17.69s-.28.32-.49.43c.18.07.32.17.42.3s.15.32.16.59l.02.63c0 .18.02.31.04.4.04.15.11.25.21.29v.11h-.78s-.04-.09-.05-.16-.02-.19-.03-.37l-.04-.79c-.01-.31-.13-.51-.33-.62-.12-.06-.3-.09-.56-.09H65.4v2.02h-.64v-4.72Zm2.07 2.16c.29 0 .52-.06.69-.18s.25-.34.25-.65c0-.34-.12-.57-.36-.69-.13-.06-.3-.1-.51-.1h-1.52v1.61h1.44ZM69.49 33.03h3.42v.58h-2.8v1.43h2.59v.55h-2.59v1.6h2.85v.56h-3.47v-4.72Z"/><path d="M96.03 52.16v22.46H25.14V52.16M15.56 42.65V65.1l9.58 9.52V52.16" class="cls-3"/><path d="M60.59 23.9v6.44" style="stroke-miterlimit:10;stroke-width:2px;fill:none;stroke:#f387d5"/><path d="M60.59 52.16v6.44" style="stroke:#ffd4ad;stroke-miterlimit:10;stroke-width:2px;fill:none"/><path d="m77.68 56.27-5.39 9.69c-.41.74.12 1.64.97 1.64h11.05c.41 0 .78-.22.97-.58l5.26-9.69c.4-.74-.13-1.63-.97-1.63H78.65c-.4 0-.77.22-.97.57Z" class="cls-7"/><path d="m72.11 58.49-5.39 9.69c-.41.74.12 1.64.97 1.64h11.05c.41 0 .78-.22.97-.58l5.26-9.69c.4-.74-.13-1.63-.97-1.63H73.08c-.4 0-.77.22-.97.57Z" class="cls-7"/><path d="M31.23 66.41h9.44v3.24h-9.44zM42.21 66.41h4.01v3.24h-4.01z" class="cls-10"/><path d="M77.25 33.85c-.32.32-.71.48-1.16.48s-.84-.16-1.16-.48c-.32-.32-.48-.71-.48-1.17s.16-.84.48-1.16.7-.48 1.16-.48.84.16 1.16.48.48.71.48 1.16-.16.84-.48 1.17Zm-2.16-2.16c-.27.28-.41.61-.41 1s.14.73.41 1.01c.27.28.61.42 1 .42s.73-.14 1-.42.41-.61.41-1.01-.14-.72-.41-1c-.28-.28-.61-.42-1-.42s-.72.14-1 .42Zm.97.09c.22 0 .39.02.49.06.19.08.28.23.28.46 0 .16-.06.28-.18.36-.06.04-.15.07-.26.09.14.02.24.08.31.18s.1.19.1.28v.26c0 .04 0 .08.02.09v.02h-.29V33.34c0-.21-.06-.35-.17-.41-.07-.04-.18-.06-.35-.06h-.25v.71h-.32v-1.8h.63Zm.34.28a.883.883 0 0 0-.38-.07h-.27v.65h.29c.13 0 .24-.01.3-.04.12-.05.19-.14.19-.28 0-.13-.04-.22-.12-.26Z"/><path d="M25.14 22.97v51.65" class="cls-6"/><path d="M138.24 43.87h41.72v27.79h-41.72z" style="fill:none;stroke:#f387d5;stroke-linecap:round;stroke-linejoin:round" transform="rotate(-7.34 159.18 57.8)"/><path d="m181.49 35.99 4.79 37.15-41.52 5.35-8.98-6.17-3.86-29.94 49.57-6.39z" class="cls-6"/><path d="m190.544 72.58-4.275.551-4.786-37.153 4.275-.55zM131.92 42.38l3.86 29.94-4.77-3.28-3.36-26.11 4.27-.55z" class="cls-6"/><path d="M111.21 113.8h35.86l-.46-.33a55.46 55.46 0 0 1-8.72-7.69l-6.36-6.93a3.455 3.455 0 0 0-4.78 0l-6.34 6.9a55.672 55.672 0 0 1-8.65 7.65l-.55.4Z" style="fill:#d6d6d6;stroke:#000;stroke-linecap:round;stroke-linejoin:round"/><circle cx="125.7" cy="81.9" r=".36" class="cls-5"/><circle cx="134.27" cy="97.3" r=".36" class="cls-5"/><circle cx="124.71" cy="107.25" r=".36" class="cls-5"/><circle cx="120.54" cy="110.84" r=".36" class="cls-5"/><circle cx="108.72" cy="113.8" r=".36" class="cls-5"/><circle cx="112.84" cy="112.04" r=".36" class="cls-5"/><circle cx="137.87" cy="94.12" r=".36" class="cls-5"/><circle cx="128.89" cy="108.86" r=".36" class="cls-5"/><circle cx="133.91" cy="108.5" r=".36" class="cls-5"/><circle cx="136.18" cy="110.48" r=".36" class="cls-5"/><circle cx="147.98" cy="113.5" r=".36" class="cls-5"/><circle cx="127.81" cy="103.96" r=".36" class="cls-5"/><circle cx="132.33" cy="105.84" r=".36" class="cls-5"/><circle cx="131.76" cy="104.18" r=".36" class="cls-5"/><circle cx="130.18" cy="101.27" r=".36" class="cls-5"/><circle cx="136.9" cy="106.2" r=".36" class="cls-5"/><circle cx="126.17" cy="110.33" r=".36" class="cls-5"/><circle cx="123.19" cy="103.82" r=".36" class="cls-5"/><circle cx="120.18" cy="106.56" r=".36" class="cls-5"/><circle cx="128.53" cy="96.94" r=".36" class="cls-5"/><circle cx="129.61" cy="95.28" r=".36" class="cls-5"/><circle cx="131.26" cy="97.66" r=".36" class="cls-5"/><circle cx="130.54" cy="96.29" r=".36" class="cls-5"/><circle cx="131.98" cy="93.76" r=".36" class="cls-5"/><circle cx="127.25" cy="97.89" r=".36" class="cls-5"/><circle cx="129.5" cy="98.38" r=".36" class="cls-5"/><circle cx="131.28" cy="78.49" r=".36" class="cls-5"/><circle cx="131.28" cy="84.44" r=".36" class="cls-5"/><circle cx="128.89" cy="85.16" r=".36" class="cls-5"/><circle cx="126.89" cy="91.82" r=".36" class="cls-5"/><circle cx="135.2" cy="76.85" r=".36" class="cls-5"/><circle cx="133.91" cy="80.82" r=".36" class="cls-5"/><circle cx="139.22" cy="76.99" r=".36" class="cls-5"/><circle cx="137.85" cy="80.15" r=".36" class="cls-5"/><circle cx="138.14" cy="83.13" r=".36" class="cls-5"/><circle cx="141.64" cy="81.18" r=".36" class="cls-5"/><circle cx="142.74" cy="78.49" r=".36" class="cls-5"/><circle cx="133.91" cy="88.76" r=".36" class="cls-5"/><circle cx="135.46" cy="84.8" r=".36" class="cls-5"/><circle cx="129.25" cy="89.12" r=".36" class="cls-5"/></svg>