<svg xmlns="http://www.w3.org/2000/svg" id="Calque_1" viewBox="0 0 128.13 128.13"><defs><style>.cls-2,.cls-3{stroke:#000;stroke-linecap:round;stroke-linejoin:round}.cls-3{stroke-width:2px}.cls-2{fill:#d6d6d6;stroke-width:.5px}.cls-3{fill:none}</style></defs><path d="m74.55 73.31-1.96 25.94-1.35 17.77a3.477 3.477 0 0 1-3.48 3.23H43.22a3.5 3.5 0 0 1-3.49-3.23l-1.34-17.77-1.96-25.94h38.1Z" style="stroke-width:2px;stroke:#000;stroke-linecap:round;stroke-linejoin:round;fill:#bfe6fc"/><path d="m36.44 73.31-1.21-16.04h40.52l-1.2 16.04M38.4 99.25h-.01l-1.95-25.94 1.96 25.94zM95.59 11.64l3.65 28.32-31.65 4.08-6.85-4.71-2.94-22.82 37.79-4.87zM102.493 39.535l-3.253.419-3.647-28.316 3.253-.42zM57.8 16.51l2.94 22.82-3.63-2.5-2.57-19.9 3.26-.42z" class="cls-3"/><circle cx="53.06" cy="46.63" r=".27" class="cls-2"/><circle cx="59.59" cy="58.37" r=".27" class="cls-2"/><circle cx="52.31" cy="65.96" r=".27" class="cls-2"/><circle cx="62.33" cy="55.95" r=".27" class="cls-2"/><circle cx="59.32" cy="66.92" r=".27" class="cls-2"/><circle cx="54.67" cy="63.45" r=".27" class="cls-2"/><circle cx="58.12" cy="64.89" r=".27" class="cls-2"/><circle cx="57.68" cy="63.62" r=".27" class="cls-2"/><circle cx="56.47" cy="61.4" r=".27" class="cls-2"/><circle cx="61.6" cy="65.16" r=".27" class="cls-2"/><circle cx="51.15" cy="63.34" r=".27" class="cls-2"/><circle cx="48.86" cy="65.43" r=".27" class="cls-2"/><circle cx="50.88" cy="58.37" r=".27" class="cls-2"/><circle cx="54.24" cy="56.84" r=".27" class="cls-2"/><circle cx="60.78" cy="61.4" r=".27" class="cls-2"/><circle cx="56.75" cy="57.6" r=".27" class="cls-2"/><circle cx="57.84" cy="55.67" r=".27" class="cls-2"/><circle cx="52.86" cy="60.85" r=".27" class="cls-2"/><circle cx="55.96" cy="59.2" r=".27" class="cls-2"/><circle cx="57.32" cy="44.04" r=".27" class="cls-2"/><circle cx="57.32" cy="48.57" r=".27" class="cls-2"/><circle cx="55.49" cy="49.12" r=".27" class="cls-2"/><circle cx="53.96" cy="54.2" r=".27" class="cls-2"/><circle cx="60.3" cy="42.79" r=".27" class="cls-2"/><circle cx="59.32" cy="45.81" r=".27" class="cls-2"/><circle cx="63.36" cy="42.89" r=".27" class="cls-2"/><circle cx="62.32" cy="45.3" r=".27" class="cls-2"/><circle cx="62.55" cy="47.57" r=".27" class="cls-2"/><circle cx="65.21" cy="46.09" r=".27" class="cls-2"/><circle cx="66.05" cy="44.04" r=".27" class="cls-2"/><circle cx="59.32" cy="51.87" r=".27" class="cls-2"/><circle cx="60.5" cy="48.85" r=".27" class="cls-2"/><circle cx="55.77" cy="52.14" r=".27" class="cls-2"/></svg>