<svg xmlns="http://www.w3.org/2000/svg" id="Calque_1" data-name="Calque 1" viewBox="0 0 128 128"><defs><style>.cls-1{fill:none}.cls-1,.cls-2,.cls-3{stroke:#000}.cls-1{stroke-linejoin:round}.cls-2,.cls-3{fill:#f3d587;stroke-miterlimit:10;stroke-width:2px}.cls-3{fill:#fff}</style></defs><path d="m43.02 74.18 6.86 11.73-17.65 10.31-6.86-11.73c-2.83-4.84-1.18-11.13 3.66-13.96 2.42-1.42 5.22-1.72 7.75-1.04 2.54.65 4.82 2.27 6.23 4.69Z" style="fill:#ff6d75;stroke-width:2px;stroke-miterlimit:10;stroke:#000"/><path d="m49.88 85.91 6.86 11.73c2.84 4.86 1.19 11.15-3.67 14-4.84 2.83-11.13 1.18-13.98-3.68l-6.86-11.73 17.65-10.31Z" class="cls-2"/><circle cx="33.87" cy="32.41" r="13.41" class="cls-3"/><circle cx="30.59" cy="30.85" r="13.41" class="cls-3"/><path d="m20.47 22.07 20.06 17.78" class="cls-2"/><circle cx="56.6" cy="60.07" r="9.18" class="cls-3"/><circle cx="54.36" cy="59" r="9.18" class="cls-3"/><path d="m47.42 52.99 13.74 12.17" class="cls-2"/><path d="M119.52 59.43a47.9 47.9 0 0 0-.65-2.03c-1.09-3.19-2.48-6.29-4.35-9.1-2.41-3.63-5.59-5.88-8.74-8.75l-.95-5.86H88.17l-.93 5.85c-5.98 5.43-10.47 10.25-13.09 17.85-.24.66-.46 1.34-.67 2.04v49.47c0 4.73 10.31 8.56 23.02 8.56s23.03-3.83 23.03-8.56V59.43Zm-5.01 47.54c-1.63.76-3.59 1.42-5.81 1.93-3.54.82-7.72 1.3-12.2 1.3s-8.66-.48-12.19-1.3c-2.37-.55-4.46-1.26-6.14-2.08V67.34c4.2 1.49 10.85 2.44 18.33 2.44s13.79-.9 18.01-2.32v39.51Z" style="stroke-linecap:round;fill:#fff;stroke-width:2px;stroke-linejoin:round;stroke:#000"/><path d="M85.74 11.43h21.53c1.89 0 3.43 1.54 3.43 3.43v18.83H82.31V14.86c0-1.89 1.54-3.43 3.43-3.43Z" style="stroke-linecap:round;fill:#fce9b9;stroke-width:2px;stroke-linejoin:round;stroke:#000"/><path d="M84.99 11.43V26.5M87.3 11.43V26.5M89.61 11.43V26.5M91.92 11.43V26.5M94.23 11.43V26.5M96.54 11.43V26.5M98.85 11.43V26.5M101.16 11.43V26.5M103.47 11.43V26.5M105.78 11.43V26.5M108.09 11.43V26.5" class="cls-1"/></svg>