<svg xmlns="http://www.w3.org/2000/svg" id="Calque_1" data-name="Calque 1" viewBox="0 0 128 128"><defs><style>.cls-1{fill:#d6d6d6}.cls-1,.cls-2,.cls-3,.cls-4,.cls-6,.cls-8,.cls-9{stroke:#000}.cls-1,.cls-2,.cls-3,.cls-4,.cls-6{stroke-linecap:round;stroke-linejoin:round}.cls-2{fill:#ff6d75}.cls-3{fill:#fff}.cls-4,.cls-6,.cls-8,.cls-9{fill:none}.cls-6{stroke-width:2px}.cls-8,.cls-9{stroke-miterlimit:10}.cls-9{stroke-linecap:square;stroke-width:1.5px}</style></defs><path d="M106.24 39.31v84.57H5.76V39.31l50.27-22.64 50.21 22.64z" style="stroke-miterlimit:10;stroke-width:2px;fill:none;stroke:#000"/><path d="M46.01 77.39H66v46.35H46.01z" class="cls-6"/><path d="M53.38 101.27h-3.27" class="cls-4"/><path d="M11.16 80.02h28.9v35.99h-28.9zM71.59 80.02h28.9v35.99h-28.9zM31.88 64h48.88v8.18H31.88z" class="cls-6"/><path d="M123.25 35.78v.39c0 17.4-14.12 31.52-31.53 31.52-8.66 0-16.5-3.49-22.19-9.14a30.567 30.567 0 0 1-3.6-4.28 30.663 30.663 0 0 1-3.54-6.55 31.39 31.39 0 0 1-2.19-11.55c0-2.11.21-4.17.6-6.16 2.69-13.6 14.13-24.06 28.21-25.25.34-.03.68-.06 1.03-.08.55-.03 1.12-.04 1.68-.04 16.77 0 30.49 13.1 31.47 29.62.03.5.05 1.01.06 1.52Z" style="stroke-width:2px;fill:#fff;stroke-linecap:round;stroke-linejoin:round;stroke:#000"/><path d="M107.78 35.45h0a35.132 35.132 0 0 0-16.06 0h0V15.41h0a35.132 35.132 0 0 1 16.06 0h0v20.04ZM91.72 35.45h0a35.132 35.132 0 0 0-16.06 0h0V15.41h0a35.132 35.132 0 0 1 16.06 0h0v20.04Z" class="cls-2"/><path d="M106.39 33.93h0a29.39 29.39 0 0 0-14.67 0h0V13.89h0a29.39 29.39 0 0 1 14.67 0h0v20.04ZM91.72 33.93h0a29.39 29.39 0 0 0-14.67 0h0V13.89h0a29.39 29.39 0 0 1 14.67 0h0v20.04Z" class="cls-3"/><path d="M79.93 22.67h9.11M79.93 20.9h9.11M79.93 19.12h9.11M82.25 17.35h6.79M79.93 24.44h9.11M79.93 26.21h9.11M79.93 27.99h9.11M79.93 29.76h9.11M94.51 22.67h9.1M94.51 20.9h9.1M94.51 19.12h9.1M94.51 17.35h9.1M94.51 24.44h9.1M94.51 26.21h9.1M94.51 27.99h9.1M94.51 29.76h9.1" class="cls-8"/><path d="M79.92 16.13h1.53v1.75h-1.53z"/><path d="M15.76 96.3h19.71M15.76 104.47h19.71M15.76 112.2h19.71" class="cls-4"/><path d="M18.08 90.95v4.4M20.29 90.95v4.4M22.5 90.95v4.4M24.71 90.95v4.4M26.92 90.95v4.4M29.13 90.95v4.4M31.34 90.95v4.4M33.56 90.95v4.4M18.08 99.07v4.4M20.29 99.07v4.4M22.5 99.07v4.4M24.71 99.07v4.4M26.92 99.07v4.4M29.13 99.07v4.4M31.34 99.07v4.4M33.56 99.07v4.4M18.08 107.19v4.4M20.29 107.19v4.4M22.5 107.19v4.4M24.71 107.19v4.4M26.92 107.19v4.4M29.13 107.19v4.4M31.34 107.84l2.22 3.75" class="cls-9"/><path d="M76.19 96.3H95.9M76.19 104.47H95.9M76.19 112.2H95.9" class="cls-4"/><path d="M78.51 90.95v4.4M80.72 90.95v4.4M82.93 90.95v4.4M85.14 90.95v4.4M87.35 90.95v4.4M89.56 90.95v4.4M91.77 90.95v4.4M93.98 90.95v4.4M80.72 99.78l-2.21 3.69M82.93 99.07v4.4M85.14 99.07v4.4M87.35 99.07v4.4M89.56 99.07v4.4M91.77 99.07v4.4M93.98 99.07v4.4M78.51 107.19v4.4M80.72 107.19v4.4M82.93 107.19v4.4M85.14 107.19v4.4M87.35 107.19v4.4M89.56 107.19v4.4M91.77 107.19v4.4M93.98 107.19v4.4" class="cls-9"/><circle cx="97.27" cy="48.87" r=".87" class="cls-1"/><path d="M97.27 39.67c-5.08 0-9.2 4.11-9.2 9.19s4.11 9.19 9.2 9.19 9.2-4.11 9.2-9.19-4.11-9.19-9.2-9.19Zm0 11.51c-1.28 0-2.31-1.03-2.31-2.31s1.03-2.31 2.31-2.31 2.31 1.03 2.31 2.31-1.03 2.31-2.31 2.31Z" class="cls-1"/><circle cx="97.27" cy="48.87" r=".87" class="cls-4"/><circle cx="97.27" cy="48.87" r=".87" class="cls-4"/><path d="M76.99 39.09h20.28v20.28H76.99z" class="cls-3"/><path d="M78.78 40.88h16.69v16.69H78.78z" style="fill:#fee4cb"/><path d="M90.54 46.48c0 .05-.01.09-.02.13-.31 1.91-.63 3.83-.94 5.74-.04.26-.17.46-.37.62-.46.36-1.17.36-1.58 0-.3-.26-.37-.66-.15-.99.28-.43.7-.57 1.19-.54.26.02.48.12.69.3l.65-3.98c-1.44-.07-2.87-.14-4.32-.2 0 .05-.02.1-.02.14l-.72 4.36c-.09.53-.39.84-.91.95-.36.07-.7.03-1-.19a.754.754 0 0 1-.16-1.11c.4-.51 1.23-.62 1.74-.22.02.02.05.04.09.07.15-.89.29-1.77.44-2.65s.29-1.76.44-2.66c1.65.08 3.29.15 4.96.23Z"/><path d="M-1009.99-708.08H486.64v1236.8h-1496.63z" style="stroke:#fff;stroke-width:8px;fill:none;stroke-linecap:round;stroke-linejoin:round"/></svg>