<svg xmlns="http://www.w3.org/2000/svg" id="Calque_1" data-name="Calque 1" viewBox="0 0 128.13 128.13"><defs><style>.cls-2,.cls-3{stroke:#000;stroke-linecap:round;stroke-linejoin:round}.cls-3{stroke-width:2px}.cls-2{fill:#d6d6d6;stroke-width:.5px}.cls-3{fill:none}</style></defs><path d="m74.15 73.31-1.96 25.94-1.35 17.77a3.477 3.477 0 0 1-3.48 3.23H42.82a3.5 3.5 0 0 1-3.49-3.23l-1.34-17.77-1.96-25.94h38.1Z" style="stroke-width:2px;stroke-linecap:round;stroke-linejoin:round;stroke:#000;fill:#bfe6fc"/><path d="m36.04 73.31-1.21-16.04h40.52l-1.2 16.04M38 99.25h-.01l-1.95-25.94L38 99.25zM95.19 11.64l3.65 28.32-31.65 4.08-6.85-4.71-2.94-22.82 37.79-4.87z" class="cls-3"/><path d="m102.09 39.534-3.253.419-3.648-28.316 3.253-.42zM57.4 16.51l2.94 22.82-3.63-2.5-2.57-19.9 3.26-.42z" class="cls-3"/><circle cx="52.66" cy="46.63" r=".27" class="cls-2"/><circle cx="59.19" cy="58.37" r=".27" class="cls-2"/><circle cx="51.91" cy="65.96" r=".27" class="cls-2"/><circle cx="61.93" cy="55.95" r=".27" class="cls-2"/><circle cx="58.92" cy="66.92" r=".27" class="cls-2"/><circle cx="54.27" cy="63.45" r=".27" class="cls-2"/><circle cx="57.72" cy="64.89" r=".27" class="cls-2"/><circle cx="57.28" cy="63.62" r=".27" class="cls-2"/><circle cx="56.07" cy="61.4" r=".27" class="cls-2"/><circle cx="61.2" cy="65.16" r=".27" class="cls-2"/><circle cx="50.75" cy="63.34" r=".27" class="cls-2"/><circle cx="48.45" cy="65.43" r=".27" class="cls-2"/><circle cx="50.47" cy="58.37" r=".27" class="cls-2"/><circle cx="53.84" cy="56.84" r=".27" class="cls-2"/><circle cx="60.38" cy="61.4" r=".27" class="cls-2"/><circle cx="56.35" cy="57.6" r=".27" class="cls-2"/><circle cx="57.44" cy="55.67" r=".27" class="cls-2"/><circle cx="52.45" cy="60.85" r=".27" class="cls-2"/><circle cx="55.56" cy="59.2" r=".27" class="cls-2"/><circle cx="56.91" cy="44.04" r=".27" class="cls-2"/><circle cx="56.91" cy="48.57" r=".27" class="cls-2"/><circle cx="55.09" cy="49.12" r=".27" class="cls-2"/><circle cx="53.56" cy="54.2" r=".27" class="cls-2"/><circle cx="59.9" cy="42.79" r=".27" class="cls-2"/><circle cx="58.92" cy="45.81" r=".27" class="cls-2"/><circle cx="62.96" cy="42.89" r=".27" class="cls-2"/><circle cx="61.92" cy="45.3" r=".27" class="cls-2"/><circle cx="62.15" cy="47.57" r=".27" class="cls-2"/><circle cx="64.81" cy="46.09" r=".27" class="cls-2"/><circle cx="65.65" cy="44.04" r=".27" class="cls-2"/><circle cx="58.92" cy="51.87" r=".27" class="cls-2"/><circle cx="60.1" cy="48.85" r=".27" class="cls-2"/><circle cx="55.37" cy="52.14" r=".27" class="cls-2"/><path d="M-2876.69-2339.62h6467.34v6437.3h-6467.34z" style="stroke:#fff;stroke-width:8px;fill:none;stroke-linecap:round;stroke-linejoin:round"/></svg>