<svg xmlns="http://www.w3.org/2000/svg" id="Calque_1" data-name="Calque 1" viewBox="0 0 200.13 128.13"><defs><style>.cls-3,.cls-4,.cls-5,.cls-6{stroke-linecap:round;stroke-linejoin:round;stroke:#000}.cls-5{fill:#d6d6d6}.cls-8{stroke:#f387d5}.cls-6{fill:none}.cls-11,.cls-4,.cls-8{fill:#fff}.cls-3{fill:#f387d5}.cls-3,.cls-4,.cls-6{stroke-width:2px}.cls-5,.cls-8{stroke-width:.5px}.cls-8{stroke-miterlimit:10}</style></defs><path d="M15.15 13.38h70.88v51.64H15.15z" class="cls-4"/><path d="M24.74 22.97h70.88v51.64H24.74zM86.04 13.38l9.59 9.59H24.74l-9.59-9.59h70.89z" class="cls-4"/><path d="m95.63 74.62-9.59-9.59H15.15l9.59 9.59h70.89z" class="cls-6"/><path d="M39.9 41.45h40.57v6.48H39.9z" style="fill:#ffd4ad"/><path d="M47.1 33.03h.64v4.15h2.37v.56h-3v-4.72ZM50.82 33.03h3.42v.58h-2.8v1.43h2.59v.55h-2.59v1.6h2.85v.56h-3.47v-4.72ZM55.52 33.03l1.35 4.02 1.34-4.02h.72l-1.72 4.72h-.68l-1.72-4.72h.71ZM60.22 33.03v2.91c0 .34.06.63.19.85.19.34.52.51.97.51.55 0 .92-.19 1.11-.56.11-.2.16-.47.16-.81v-2.91h.65v2.65c0 .58-.08 1.03-.24 1.34-.29.57-.83.85-1.63.85s-1.34-.28-1.63-.85c-.16-.31-.24-.76-.24-1.34v-2.65h.65ZM64.35 33.03h2.14c.35 0 .64.05.87.16.44.2.65.57.65 1.11 0 .28-.06.51-.17.69s-.28.32-.49.43c.18.07.32.17.42.3s.15.32.16.59l.02.63c0 .18.02.31.04.4.04.15.11.25.21.29v.11h-.78s-.04-.09-.05-.16-.02-.19-.03-.37l-.04-.79c-.01-.31-.13-.51-.33-.62-.12-.06-.3-.09-.56-.09H65v2.02h-.64v-4.72Zm2.07 2.16c.29 0 .52-.06.69-.18s.25-.34.25-.65c0-.34-.12-.57-.36-.69-.13-.06-.3-.1-.51-.1h-1.52v1.61h1.44ZM69.08 33.03h3.42v.58h-2.8v1.43h2.59v.55H69.7v1.6h2.85v.56h-3.47v-4.72Z"/><path d="M95.63 52.16v22.46H24.74V52.16" class="cls-3"/><path d="M15.15 42.65V65.1l9.59 9.52V52.16" class="cls-3"/><path d="M60.19 23.9v6.44" style="stroke-miterlimit:10;stroke-width:2px;fill:none;stroke:#f387d5"/><path d="M60.19 52.16v6.44" style="stroke:#ffd4ad;stroke-miterlimit:10;stroke-width:2px;fill:none"/><path d="m77.28 56.27-5.39 9.69c-.41.74.12 1.64.97 1.64h11.05c.41 0 .78-.22.97-.58l5.26-9.69c.4-.74-.13-1.63-.97-1.63H78.25c-.4 0-.77.22-.97.57Z" class="cls-8"/><path d="m71.71 58.49-5.39 9.69c-.41.74.12 1.64.97 1.64h11.05c.41 0 .78-.22.97-.58l5.26-9.69c.4-.74-.13-1.63-.97-1.63H72.68c-.4 0-.77.22-.97.57Z" class="cls-8"/><path d="M30.83 66.41h9.44v3.24h-9.44zM41.81 66.41h4.01v3.24h-4.01z" class="cls-11"/><path d="M76.85 33.85c-.32.32-.71.48-1.16.48s-.84-.16-1.16-.48c-.32-.32-.48-.71-.48-1.17s.16-.84.48-1.16.7-.48 1.16-.48.84.16 1.16.48.48.71.48 1.16-.16.84-.48 1.17Zm-2.16-2.16c-.27.28-.41.61-.41 1s.14.73.41 1.01c.27.28.61.42 1 .42s.73-.14 1-.42.41-.61.41-1.01-.14-.72-.41-1c-.28-.28-.61-.42-1-.42s-.72.14-1 .42Zm.97.09c.22 0 .39.02.49.06.19.08.28.23.28.46 0 .16-.06.28-.18.36-.06.04-.15.07-.26.09.14.02.24.08.31.18s.1.19.1.28v.26c0 .04 0 .08.02.09v.02h-.29V33.34c0-.21-.06-.35-.17-.41-.07-.04-.18-.06-.35-.06h-.25v.71h-.32v-1.8h.63Zm.34.28a.883.883 0 0 0-.38-.07h-.27v.65h.29c.13 0 .24-.01.3-.04.12-.05.19-.14.19-.28 0-.13-.04-.22-.12-.26Z"/><path d="M24.74 22.97v51.65" class="cls-6"/><path d="M137.84 43.87h41.72v27.79h-41.72z" style="fill:none;stroke:#f387d5;stroke-linecap:round;stroke-linejoin:round" transform="rotate(-7.34 158.79 57.775)"/><path d="m181.09 35.99 4.78 37.15-41.51 5.35-8.98-6.17-3.86-29.94 49.57-6.39z" class="cls-6"/><path d="m190.14 72.58-4.274.55-4.786-37.153 4.275-.55zM131.52 42.38l3.86 29.94-4.77-3.28-3.36-26.11 4.27-.55z" class="cls-6"/><path d="M110.81 113.8h35.86l-.46-.33a55.46 55.46 0 0 1-8.72-7.69l-6.36-6.93a3.455 3.455 0 0 0-4.78 0l-6.34 6.9a55.672 55.672 0 0 1-8.65 7.65l-.55.4Z" style="fill:#d6d6d6;stroke:#000;stroke-linecap:round;stroke-linejoin:round"/><circle cx="125.3" cy="81.9" r=".36" class="cls-5"/><circle cx="133.87" cy="97.3" r=".36" class="cls-5"/><circle cx="124.31" cy="107.25" r=".36" class="cls-5"/><circle cx="120.14" cy="110.84" r=".36" class="cls-5"/><circle cx="108.32" cy="113.8" r=".36" class="cls-5"/><circle cx="112.44" cy="112.04" r=".36" class="cls-5"/><circle cx="137.47" cy="94.12" r=".36" class="cls-5"/><circle cx="128.49" cy="108.86" r=".36" class="cls-5"/><circle cx="133.51" cy="108.5" r=".36" class="cls-5"/><circle cx="135.78" cy="110.48" r=".36" class="cls-5"/><circle cx="147.57" cy="113.5" r=".36" class="cls-5"/><circle cx="127.41" cy="103.96" r=".36" class="cls-5"/><circle cx="131.93" cy="105.84" r=".36" class="cls-5"/><circle cx="131.36" cy="104.18" r=".36" class="cls-5"/><circle cx="129.78" cy="101.27" r=".36" class="cls-5"/><circle cx="136.5" cy="106.2" r=".36" class="cls-5"/><circle cx="125.77" cy="110.33" r=".36" class="cls-5"/><circle cx="122.79" cy="103.82" r=".36" class="cls-5"/><circle cx="119.78" cy="106.56" r=".36" class="cls-5"/><circle cx="128.13" cy="96.94" r=".36" class="cls-5"/><circle cx="129.21" cy="95.28" r=".36" class="cls-5"/><circle cx="130.85" cy="97.66" r=".36" class="cls-5"/><circle cx="130.14" cy="96.29" r=".36" class="cls-5"/><circle cx="131.57" cy="93.76" r=".36" class="cls-5"/><circle cx="126.84" cy="97.89" r=".36" class="cls-5"/><circle cx="129.1" cy="98.38" r=".36" class="cls-5"/><circle cx="130.88" cy="78.49" r=".36" class="cls-5"/><circle cx="130.88" cy="84.44" r=".36" class="cls-5"/><circle cx="128.49" cy="85.16" r=".36" class="cls-5"/><circle cx="126.48" cy="91.82" r=".36" class="cls-5"/><circle cx="134.8" cy="76.85" r=".36" class="cls-5"/><circle cx="133.51" cy="80.82" r=".36" class="cls-5"/><circle cx="138.81" cy="76.99" r=".36" class="cls-5"/><circle cx="137.45" cy="80.15" r=".36" class="cls-5"/><circle cx="137.74" cy="83.13" r=".36" class="cls-5"/><circle cx="141.24" cy="81.18" r=".36" class="cls-5"/><circle cx="142.34" cy="78.49" r=".36" class="cls-5"/><circle cx="133.51" cy="88.76" r=".36" class="cls-5"/><circle cx="135.06" cy="84.8" r=".36" class="cls-5"/><circle cx="128.85" cy="89.12" r=".36" class="cls-5"/><path d="M-3021.1-2339.62h6467.34v6437.3H-3021.1z" style="stroke:#fff;stroke-width:8px;fill:none;stroke-linecap:round;stroke-linejoin:round"/></svg>