<svg xmlns="http://www.w3.org/2000/svg" id="Calque_1" data-name="Calque 1" viewBox="0 0 200 128"><defs><style>.cls-1{fill:#f6e7d4}.cls-2,.cls-3{fill:#ff6d75;stroke:#000;stroke-miterlimit:10}.cls-3{fill:#fab0b4}</style></defs><path d="m168.81 114.92-.12.16.12-.16ZM168.12 115.77l-.2.21.2-.21ZM166.92 116.76l.18-.1.03-.03-.21.13zM166.1 117.21l-.17.08.17-.08ZM164.9 117.61l-.25.05.25-.05Z" class="cls-1"/><circle cx="30.87" cy="58.64" r="19.97" class="cls-3"/><path d="M30.87 64.17c2.21 0 3.99-1.79 3.99-3.99s-3.99-7.06-3.99-7.06-3.99 4.85-3.99 7.06 1.79 3.99 3.99 3.99Z" class="cls-2"/><circle cx="76.33" cy="58.64" r="19.97" class="cls-3"/><path d="M68.98 64.17c2.21 0 3.99-1.79 3.99-3.99s-3.99-7.06-3.99-7.06-3.99 4.85-3.99 7.06 1.79 3.99 3.99 3.99ZM83.69 64.17c2.21 0 3.99-1.79 3.99-3.99s-3.99-7.06-3.99-7.06-3.99 4.85-3.99 7.06 1.79 3.99 3.99 3.99Z" class="cls-2"/><circle cx="123.14" cy="58.64" r="19.97" class="cls-3"/><path d="M115.79 58.64c2.21 0 3.99-1.79 3.99-3.99s-3.99-7.06-3.99-7.06-3.99 4.85-3.99 7.06 1.79 3.99 3.99 3.99ZM130.5 58.64c2.21 0 3.99-1.79 3.99-3.99s-3.99-7.06-3.99-7.06-3.99 4.85-3.99 7.06 1.79 3.99 3.99 3.99ZM123.14 72.69c2.21 0 3.99-1.79 3.99-3.99s-3.99-7.06-3.99-7.06-3.99 4.85-3.99 7.06 1.79 3.99 3.99 3.99Z" class="cls-2"/><circle cx="169.13" cy="58.64" r="19.97" class="cls-3"/><path d="M161.77 57.15c2.21 0 3.99-1.79 3.99-3.99s-3.99-7.06-3.99-7.06-3.99 4.85-3.99 7.06 1.79 3.99 3.99 3.99ZM176.48 57.15c2.21 0 3.99-1.79 3.99-3.99s-3.99-7.06-3.99-7.06-3.99 4.85-3.99 7.06 1.79 3.99 3.99 3.99ZM161.77 71.19c2.21 0 3.99-1.79 3.99-3.99s-3.99-7.06-3.99-7.06-3.99 4.85-3.99 7.06 1.79 3.99 3.99 3.99ZM176.48 71.19c2.21 0 3.99-1.79 3.99-3.99s-3.99-7.06-3.99-7.06-3.99 4.85-3.99 7.06 1.79 3.99 3.99 3.99Z" class="cls-2"/><path d="M10.9 92.32h171.02" style="fill:none;stroke:#000;stroke-miterlimit:10"/><path d="m180.47 97.31 8.63-4.99-8.63-4.98v9.97z"/><path d="M-3169.56-3004.76h6467.34v6437.3h-6467.34z" style="fill:none;stroke:#fff;stroke-linecap:round;stroke-linejoin:round;stroke-width:8px"/></svg>