<svg xmlns="http://www.w3.org/2000/svg" id="Calque_1" viewBox="0 0 128 128"><defs><style>.cls-1,.cls-11,.cls-12,.cls-13,.cls-3,.cls-4,.cls-5,.cls-6,.cls-7,.cls-8{stroke:#000;stroke-linecap:round;stroke-linejoin:round}.cls-1,.cls-11,.cls-12,.cls-5{fill:#d6d6d6}.cls-13,.cls-3{fill:#fff}.cls-4,.cls-6,.cls-8{fill:none}.cls-5{stroke-width:.9px}.cls-12,.cls-13,.cls-6{stroke-width:.75px}.cls-7{fill:#fab0b4}.cls-8{stroke-width:.59px}.cls-11{stroke-width:.5px}</style></defs><path d="M86.92 96.75c5.89 0 23.62-3.06 23.23-1.07-.2.98-.47 1.62-.47 1.62s3.93-.41 6.55-.71c.74-.08 1.38-.41 1.9-.91 1.34-1.24 1.93-3.57 1.46-5.85-.66-3.17-7.63-10.16-10.25-15.77-2.61-5.61-7.35-10.08-9.77-11.18-2.43-1.1-12.41-4.06-12.41-4.06s0 8.89-6.07 9.04c-.87.02-1.64-.07-2.31-.26h-.07c-1.57-.17-5.82 2.98-5.82 2.98-.76-3.29.17-6.99 1.08-9.49l.5-1.41c-5.78.8-11.03 2.31-12.55 3.32-2.73 1.8-7.5 16.33-9.38 19.66-1.87 3.34-3.96 7.67-1.99 11.09.48.84 1.55 1.47 2.87 1.94 3.53 1.26 8.93 1.4 10.25 1.42-.07-.38-.14-.87-.2-1.42-.23-2.42 17.56 1.07 23.45 1.07Z" class="cls-7"/><path d="m102.04 90.04 1.82-1.42-6.32-10.57 1.25 12.51 3.25 2.36v-2.88z" class="cls-3"/><circle cx="30.26" cy="28.59" r="26.06" class="cls-4" transform="rotate(-84.43 30.265 28.593)"/><circle cx="59.47" cy="40.57" r="2.52" class="cls-1" transform="rotate(-84.43 59.465 40.574)"/><circle cx="65.65" cy="41.9" r="1.4" class="cls-1"/><path d="m117.41 100.53-11.94 4.97-8.68-3.05-4.86-2.94h-.01l-.67-.41 1-.31.62-.19 1.86-.57 7.66-2.36 1.1-.34.91.34 1.1.41c-.04.17-.08.32-.13.46-.24.76-.47 1.26-.47 1.26l4.05-.43 8.46 3.16Z" class="cls-3"/><path d="M68.24 95.67H105.61" class="cls-4"/><path d="M83.43 93.1c.7-.36.77-1.25.29-1.59-.13-.09-.39-.22-.73-.37.03-.07.04-.11.04-.11-.63-1.28-1.97-2.31-3.36-3.05" class="cls-3"/><path d="m106.99 87.83 7.85-.94M56.3 87.16l10.45 1.04" class="cls-7"/><path d="m94.32 90.77 4.47-.21-.2 4.09-1.94.14h-.01l-2.61.18-4.01.29h-.01l-2.09.14c.14-.95 1.48-2.65 3.26-4.1 1.91-1.57 3.14-.53 3.14-.53ZM103.86 88.62l3.13-.79-2.87 1.02-.26-.23zM72.89 70.56c-.76-3.29.17-6.99 1.08-9.49.21 1.99 1.11 5.51 4.74 6.51-1.57-.17-5.82 2.98-5.82 2.98Z" class="cls-3"/><path d="M64.95 77.14V87.7" class="cls-4"/><path d="M75.94 87.57s-1.93 0-1.73 1.99c0 0-1.65.27-1.32 2.47 0 0-1.22 1.35-.27 2.2 0 0-.85.19-.79 1.71M110.15 95.67c-.2.98-.47 1.62-.47 1.62l-.73.08-4.05.43s.23-.5.47-1.26c.05-.14.09-.29.13-.46.04-.13.08-.27.11-.41.24-1.01.39-2.23.13-3.31-.33-1.37-1.49-2.25-2.43-2.75h-.01c-.7-.37-1.26-.53-1.26-.53l1.82-.46 3.13-.79c.18.1.34.21.5.31 3.14 2.16 3.06 5.54 2.66 7.53Z" class="cls-3"/><path d="M105.61 95.67c-.03.14-.07.28-.11.41-.04.17-.08.32-.13.46l-1.53-.03c-1.15.82-4.75 1.11-4.75 1.11l-.5 1.68c-.97.53-2.99.24-2.99.24-.88.33-1.58.34-2.11.25-.69-.12-1.05-.43-1.05-.43-.19.07-.35.12-.51.15h-.01c-1.14.2-1.58-.64-1.58-.64s-.68.42-1.21.16c-.4-.19-.86-1.49-1.09-2.52-.07-.32-.12-.62-.14-.84v-.06c0-.06 0-.13.02-.21.14-.95 1.48-2.65 3.26-4.1 1.91-1.57 3.14-.53 3.14-.53l4.47-.21 1.98-.1 2.53-.85h.01c.94.5 2.1 1.38 2.43 2.75.26 1.08.11 2.3-.13 3.31Z" class="cls-3"/><path d="m73.57 97.67 6.19 8.7 19.8-1.67-10.21-8.24-16.07.6.29.61z" class="cls-3"/><path d="m112.38 99.99-7.99 3.08M109.49 99.25l-8.05 2.8" class="cls-6"/><path d="m94.32 103.03-12.85 1" class="cls-13"/><path d="m91.92 100.82-11.58.87" class="cls-6"/><path d="m51.99 102.98-.18-.4-.99-2.19-2.14-4.72-6.8-15.01H2.99l7.82 15.01 4.43 8.49 37.3.03-.55-1.21Zm-24.88-8.23c-.69.34-1.8-.49-2.47-1.86-.68-1.37-.66-2.75.03-3.09s1.8.49 2.47 1.86c.68 1.36.66 2.75-.03 3.09Z" class="cls-3"/><path d="M27.11 94.75c-.69.34-1.8-.49-2.47-1.86-.68-1.37-.66-2.75.03-3.09s1.8.49 2.47 1.86c.68 1.36.66 2.75-.03 3.09ZM71.13 100.49s-.09.01-.16.02c-.1 0-.24.03-.42.05-.08.01-.17.02-.27.03L52 102.98h-.01l-.18-.4-.99-2.19 20.31.1Z" class="cls-3"/><path d="m71.58 101.78-19.04 2.41-.55-1.21H52l18.28-2.39c.1 0 .19-.02.27-.03.18-.02.32-.04.42-.05.07-.01.13-.02.16-.02 1.05-.14.45 1.29.45 1.29ZM27.11 94.75c-.69.34-1.8-.49-2.47-1.86-.68-1.37-.66-2.75.03-3.09s1.8.49 2.47 1.86c.68 1.36.66 2.75-.03 3.09Z" class="cls-3"/><path d="M53.42 95.67h-4.74M10.81 95.67H-3.71" class="cls-4"/><path d="M70.78 89.02c-.53.53-2.73 2.95-2.54 6.65.01.36.05.73.12 1.11.01.07.02.13.04.2.07.41.18.83.33 1.27l-4.86-.3s-.09-.33-.2-.86c-.07-.38-.14-.87-.2-1.42-.23-2.42.02-6.08 3.28-7.47l4.15.71-.12.11Z" class="cls-3"/><path d="M134.27 95.67h-16.14M82.2 25.39s0 1.78.64 2.98h.02M85.65 29.12c1.4-.81 2.36-2.87 2.36-2.87M90.09 45.44h.02c.16-.03 1.32-.33 1.99-2.16.73-1.96 1.57-1.74 1.65-3.77.05-1.92-1.94-1.09-2.16-.98M73.82 27.91s1.38.82 2.91 1.1" class="cls-4"/><path d="M88.55 29.99c-.88.05-1.89-.16-2.91-.87-.42.26-.87.39-1.35.33-.67-.07-1.12-.52-1.44-1.08-.02.01-.03.03-.05.03-.19.18-1.41 1.25-2.91-.21-.78.94-2.02 1.04-3.17.82-.69.53-1.62.47-1.62.47-.05.08-.13.17-.16.25-2.81 3.97-3.09 6.67-3.11 6.95-.17-.71-.3-1.38-.39-2.02.15 1.19.38 2.05.43 2.23v.02l.01.03h-.02c-.04 1.13-.05 4.04.41 7.05.39 2.5 1.14 5.08 2.52 6.74 3.18 3.87 5.24 3.95 5.55 3.92.32.07 2.49.4 6.24-2.94 1.61-1.43 2.76-3.86 3.53-6.28.92-2.9 1.35-5.78 1.49-6.9h-.02c.03-.13.04-.26.03-.4-.04.11-.08.17-.08.17.04-.47.04-.93.03-1.39-.3-2.34-2.44-6.2-2.69-6.87l-.31-.06Z" class="cls-3"/><path d="M91.56 36.92c.06.44.08.85.05 1.22" class="cls-4"/><path d="M91.58 38.54s0-.02.02-.03v-.02c.1-.22.61-1.36.95-2.92v-.05c.7-3.12.72-7.82-4.45-9.92 0 0-.32-1.71-2.51-1.44 0 0-2.53-2.77-5.59-.5-2.12-.6-2.7 1.04-2.7 1.04-5.85 1.37-6.22 6.65-5.88 9.8.01.07.02.11.02.16" class="cls-4"/><path d="M74.89 30.05s-3.01 4.38-3.01 6.9M91.65 38.06v.02s-.02.19-.05.42v.05M71.86 36.95v-.03M71.88 36.46s-.01.16-.02.44M72.29 44h-.02c-.16-.06-1.25-.53-1.64-2.44-.42-2.05-1.29-1.96-1.05-3.98.24-1.91 2.08-.78 2.28-.63M78.66 26.46c.38.71.76 1.24 1.12 1.61.04.05.07.1.12.12M82.81 28.4l.03-.03" class="cls-4"/><path d="M80.78 36.69s-.67 6.05-1.99 9.09c0 0 .26.62 2.22.24" class="cls-3"/><ellipse cx="84.84" cy="39.59" class="cls-3" rx=".61" ry=".21" transform="rotate(-85.58 84.832 39.592)"/><ellipse cx="76.5" cy="38.79" class="cls-3" rx=".61" ry=".21" transform="rotate(-85.58 76.499 38.799)"/><path d="m86.71 59.21-2.21-5.88M74.89 59.66l2.48-6.33M78.78 67.59h-.07c-1.57-.17-5.82 2.98-5.82 2.98-.76-3.29.17-6.99 1.08-9.49.63-1.76 1.25-2.92 1.25-2.92-1.06 5.38 3.56 9.44 3.56 9.44ZM79.93 67.8s2.01 2.77 3.36 4.19c0 0 2.74-3.55 3.7-7.17s.17-6 .17-6-1.8 5.32-7.22 8.98Z" class="cls-3"/><path d="m83.82 96.11 2.27 2.05-1.23-2.83-1.04.78z" class="cls-13"/><path d="M82.99 91.14c-.05.16-.17.48-.34.9-.13.34-.3.74-.49 1.16l-.01.02c-.08.17-.16.34-.25.52-.15.31-.32.63-.5.94 0 .01-.01.02-.02.03-.18.33-.39.66-.59.96-.07.08-.13.17-.2.25-.08.11-.16.21-.24.31-.2.22-.39.42-.6.58-.31.26-.63.43-.96.48-1.7.28-3.53.49-5.22.37a9.91 9.91 0 0 1-1.66-.22c-1.19-.26-2.54-.4-3.51-.46-.02-.07-.03-.13-.04-.2-.07-.38-.11-.75-.12-1.11-.19-3.7 2.01-6.12 2.54-6.65l.12-.11.99.18s2.52-2.37 4.06-2.32c.28.01.66.07 1.09.18.76.2 1.67.63 2.63 1.03 1.91.81 3.35 3.09 3.32 3.16Z" class="cls-3"/><path d="M82.98 93.28s-.02 1.8-2.9 1.38-5.62-1.85-5.62-1.85" class="cls-4"/><path d="M81.39 94.72s1.17 1.78-2.26 1.52-5.55-1.16-5.55-1.16" class="cls-4"/><path d="m85 95.23-.56.42-.03.02-.74.55-.35-.49-.04-.06-.94-1.32-.44-.61-.4-.55-.17-.24-2.97-4.16h-.01l-1.31-1.84-3.76-5.25-.64-.9c.18-.85 1.13-.83 1.13-.83l.68.93 5.22 7.08 1.85 2.53 1.13 1.53.78 1.06L85 95.23Z" class="cls-13"/><path d="M75.31 90.23s5.14 2.78 6.87 3.12 2.15-1.23 1.47-1.71-4.85-1.85-5.83-3.21" class="cls-3"/><path d="M90.61 97.48s-1-1.35-.86-1.85 3.35-3.19 3.35-3.19M93.33 99.51s-1.38-2.09-.52-3.09 2.27-2.73 2.27-2.73M95.6 99.55s-1.15-1.04-.82-1.75 1.88-3.02 1.88-3.02M93.2 95.97l-1.36 1.2" class="cls-6"/><path d="m99.05 97.63-1.98.3" class="cls-4"/><path d="m104.9 97.8-1.06-1.29M68.73 98.25l1.18-1.13" class="cls-3"/><path d="M33.21 44.62s.25 2.11 3.34 2.86 4.06-.5 4.59-1.66 1.19-3.92 3.78-5.53c2.59-1.61 4.72-6.04 3.7-9.66s-3.43-5.81-6.81-6.63c-3.38-.82-8.9 1.45-10.02 6.77s1.39 6.21 1.52 9.78c.09 2.29-.08 3.3-.11 4.08Z" style="fill:#fce9b9;stroke:#000;stroke-linecap:round;stroke-linejoin:round"/><path d="m49.14 23.06 1.77-1.39M51.46 29.29l2.23-.37M44.14 20.19l.74-2.2M37.5 19.78l-.36-2.23" class="cls-4"/><path d="M35.71 47.22s1.18-5.55.97-9.07-.77-5.44-.75-6.92c.02-1.16-.16-1.47-.47-1.35s-.44.51.19.81 1.11.29 1.61.99c.42.6 0 .8-.35.67s-.46-.75.37-1.18 2.12-.69 1.99-1.1-1.2-.26-.86.17 1.68 1.67 1.6 2.4-.57.8-.73.41c-.23-.54 1.26-1 1.72-1.09s1.68-.46 1.21-.92c-.44-.42-1.25-.01-.46.92s1.39 1.32 1.06 1.94c-.22.41-1.05.02-.66-.36s1.3-.58 2.33-.56 1.23-.16 1.11-.52c-.13-.39-.54-.65-.88.11s-2.04 3.54-2.59 4.24-1.69 2.51-2.87 5.65c-1.18 3.15-1.71 5.19-1.71 5.19" style="stroke-width:.3px;fill:none;stroke:#000;stroke-linecap:round;stroke-linejoin:round"/><path d="M33.73 45.81s-.56 2.6.02 3.69c.54 1.02 1.77 1.35 2.05 1.42.6.14 2.05.17 2.77-.81.72-.98 1.05-2.65 1.05-2.65" class="cls-8"/><path d="M33.52 47.23s.58.89 2.82 1.43c2.23.54 2.98-.12 2.98-.12M33.54 48.43s.53.99 2.49 1.46c1.84.45 2.8-.22 2.8-.22" class="cls-8"/><path d="m18.17 25.23-.75.29-.56-.35c.18-.05.36-.07.56-.07.26 0 .52.04.75.12ZM18.02 29.82c-.2.06-.4.08-.61.08-.17 0-.33-.02-.49-.05l.7-.28.39.25ZM19.74 28.09c-.1.4-.3.76-.58 1.05l.13-.71.35-.36.1.02ZM15.93 25.81l-.25.61-.28.37-.25-.06c.14-.41.38-.77.7-1.05l.09.12ZM19.72 26.86l-.18.04-.45-.5-.21-.41.18-.22c.31.29.55.67.66 1.09Z" class="cls-5"/><path d="M19.81 27.51c0 .2-.03.4-.08.59-.1.4-.3.76-.58 1.05-.3.32-.7.57-1.14.68-.2.06-.4.08-.61.08-.17 0-.33-.02-.49-.05h0a2.38 2.38 0 0 1-1.3-.75c-.28-.31-.48-.7-.56-1.12-.04-.15-.05-.31-.05-.47 0-.27.05-.53.13-.76.14-.41.38-.77.7-1.05.29-.25.64-.43 1.02-.53.18-.05.36-.07.56-.07.26 0 .52.04.75.12.34.11.64.29.9.54.31.29.55.67.66 1.09.06.21.09.42.09.65Z" class="cls-12"/><circle cx="17.41" cy="27.53" r="1.26" class="cls-11"/><path d="M27.31 28.03v-.73l-1.3-.33c-.07-1.09-.62-2.98-.62-2.98l.95-.97-.4-.61-1.3.44c-.59-.9-1.34-1.67-2.21-2.3l.47-1.24-.61-.4-1.01.93s-2.02-.77-3.16-.86l-.3-1.44h-.78l-.36 1.43c-1.01.08-1.97.33-2.84.72l-.89-1.03-.64.34.33 1.33c-.89.58-1.66 1.3-2.28 2.15l-1.23-.46-.39.61.92.99c-.47.91-.78 1.92-.89 2.98l-1.27.19-.05.73 1.28.42c.06 1.08.32 2.11.76 3.05l-1.04.89.34.64 1.34-.33v-.05c.59.9 1.35 1.68 2.24 2.29l-.44 1.25.62.38.98-.95c.95.47 3.07.86 3.07.86l.29 1.33h.73l.34-1.33c1.07-.07 2.08-.33 3-.76l.88 1.01.64-.34-.33-1.32c.86-.56 1.61-1.28 2.22-2.1v.04l1.28.46.38-.62-.98-.98c.49-.93.8-1.97.91-3.06l1.33-.29Zm-5.17 4.95-2.99-3.75.02-.08c-.3.32-.7.57-1.14.68l.17.1 1.57 4.56s-2 .82-4.48-.09l1.6-4.53.04-.02a2.38 2.38 0 0 1-1.3-.75l-2.92 3.86s-1.8-1.19-2.43-3.77l4.79-1.21c-.04-.15-.05-.31-.05-.47 0-.27.05-.53.13-.76l-4.76-1.07s.35-2.13 2.43-3.77l3.03 3.8c.29-.25.64-.43 1.02-.53l-1.57-4.56s2-.82 4.48.09l-1.6 4.53c.34.11.64.29.9.54l3.01-3.81s1.77 1.23 2.35 3.81l-4.7 1.09a2.32 2.32 0 0 1 .01 1.24l4.84 1.12s-.36 2.13-2.44 3.76ZM27.58 10.48l-.49.28-.42-.19c.12-.05.25-.08.38-.1.18-.03.36-.02.53 0ZM27.93 13.68c-.13.06-.27.1-.42.12-.12.02-.23.02-.34.01l.46-.26.3.13ZM28.95 12.31c-.03.29-.13.55-.3.79l.02-.51.21-.28h.07ZM26.08 11.11l-.11.45-.16.29h-.18c.05-.31.19-.58.38-.81l.07.07ZM28.82 11.45l-.12.05-.36-.3-.19-.27.1-.17c.25.17.44.41.57.69Z" class="cls-12"/><path d="M28.94 11.9c.02.14.02.28 0 .41-.03.29-.13.55-.3.79-.18.25-.43.46-.72.58-.13.06-.27.1-.42.12-.12.02-.23.02-.34.01h0c-.36-.02-.71-.16-.97-.39-.23-.19-.4-.44-.5-.72-.04-.1-.07-.21-.08-.32-.03-.19-.02-.37.01-.54.05-.3.19-.57.38-.79.17-.2.4-.36.66-.46.12-.05.25-.08.38-.1.18-.03.36-.02.53 0 .25.04.47.14.67.28.25.17.44.41.57.69.06.14.1.29.13.44Z" class="cls-11"/><circle cx="27.28" cy="12.15" r=".88" style="stroke-width:.25px;fill:#d6d6d6;stroke:#000;stroke-linecap:round;stroke-linejoin:round"/><path d="m34.19 11.52-.07-.5-.93-.1c-.15-.75-.72-2.01-.72-2.01l.56-.77-.34-.38-.86.43a6.086 6.086 0 0 0-1.76-1.38l.2-.9-.46-.22-.61.74s-1.48-.34-2.27-.29l-.35-.97-.54.08-.11 1.03c-.69.15-1.33.42-1.9.78l-.71-.62-.41.3.36.89c-.56.49-1.02 1.07-1.36 1.71l-.9-.2-.21.46.73.6c-.24.68-.35 1.4-.32 2.15l-.86.26.04.51.93.16c.15.74.43 1.43.83 2.04l-.63.72.3.41.89-.36v-.03c.49.57 1.1 1.03 1.77 1.37l-.18.91.47.2.59-.75c.7.23 2.21.3 2.21.3l.33.89.5-.07.1-.95c.73-.15 1.41-.44 2.01-.82l.71.61.41-.3-.36-.88c.54-.47.99-1.04 1.33-1.68v.03l.93.19.21-.47-.77-.58c.25-.69.36-1.44.33-2.21l.89-.33Zm-3.09 3.93-2.44-2.3v-.06c-.18.25-.42.46-.72.58l.13.05 1.54 3s-1.3.77-3.11.38l.66-3.29h.03c-.36-.04-.71-.18-.97-.41l-1.64 2.96s-1.36-.65-2.06-2.37l3.2-1.31c-.04-.1-.07-.21-.08-.32-.03-.19-.02-.37.01-.54l-3.4-.27s.03-1.51 1.31-2.85l2.48 2.33c.17-.2.4-.36.66-.46l-1.54-3s1.3-.77 3.11-.38l-.66 3.29c.25.04.47.14.67.28l1.71-2.93s1.35.68 2 2.41l-3.15 1.22c.06.14.1.29.13.44.02.14.02.28 0 .41l3.47.3s-.04 1.51-1.32 2.85Z" class="cls-11"/></svg>