<svg xmlns="http://www.w3.org/2000/svg" id="Calque_1" viewBox="0 0 200 128"><defs><style>.cls-3{fill:#f7bf0f}.cls-4{fill:#f68f4d}.cls-5{fill:#e8ce0f}.cls-10,.cls-12,.cls-13,.cls-6,.cls-7,.cls-8,.cls-9{fill:#fff}.cls-16{fill:#fe360e}.cls-17{fill:#b88bbf}.cls-18{fill:#b82788}.cls-19{fill:#8a7817}.cls-20{fill:#bb4b9c}.cls-21{fill:#aab91b}.cls-22{fill:#bfe6fc}.cls-23{fill:#d1a01c}.cls-25{fill:#c75fad}.cls-26{fill:#0f6b3c}.cls-29{fill:#17964c}.cls-30{fill:#0c6eb7}.cls-33{fill:#537cb9}.cls-34,.cls-35{fill:#6db76e}.cls-36,.cls-37{fill:#6cbcb8}.cls-10,.cls-12,.cls-35,.cls-37,.cls-40,.cls-41,.cls-42,.cls-49,.cls-50,.cls-53,.cls-57,.cls-58,.cls-59,.cls-60,.cls-61,.cls-62,.cls-8,.cls-9{stroke-miterlimit:1.06}.cls-12,.cls-40{stroke-width:.07px}.cls-40,.cls-41,.cls-42,.cls-49,.cls-50,.cls-53,.cls-57,.cls-58,.cls-59,.cls-60,.cls-61,.cls-62,.cls-63,.cls-64,.cls-65{fill:none}.cls-40,.cls-49{stroke:#6db76e}.cls-66{fill:#d6d6d6}.cls-12,.cls-13,.cls-63,.cls-65,.cls-66,.cls-67,.cls-7{stroke:#000}.cls-13,.cls-63,.cls-64,.cls-65,.cls-66,.cls-67,.cls-7{stroke-linejoin:round}.cls-13,.cls-58,.cls-59,.cls-60,.cls-61,.cls-62,.cls-63,.cls-64,.cls-65,.cls-66,.cls-67,.cls-7{stroke-linecap:round}.cls-63,.cls-66,.cls-7{stroke-width:1.67px}.cls-8{stroke:#bb4b9c}.cls-10,.cls-8,.cls-9{stroke-width:.05px}.cls-9{stroke:#f68f4d}.cls-10{stroke:#0c6eb7}.cls-68{fill:#f088af}.cls-42,.cls-68{isolation:isolate;opacity:.94}.cls-64{stroke:#0b1994;stroke-width:.5px}.cls-41,.cls-53,.cls-57{stroke:#d1a01c}.cls-41,.cls-58,.cls-59,.cls-60,.cls-61,.cls-62{stroke-width:.05px}.cls-42{stroke:#f088af}.cls-42,.cls-49,.cls-50,.cls-53{stroke-width:.47px}.cls-35,.cls-37{stroke:#fff;stroke-width:.12px}.cls-50{stroke:#6cbcb8}.cls-57{stroke-width:.23px}.cls-13,.cls-65,.cls-67{stroke-width:.83px}.cls-67{fill:#f3d587}.cls-58{stroke:#e8ce0f}.cls-59{stroke:#fe360e}.cls-60{stroke:#17964c}.cls-61{stroke:#c75fad}.cls-62{stroke:#537cb9}</style></defs><path id="path19" d="m116.96 43.03-7.65 7.65" class="cls-50"/><path id="path21" d="M70.61 4.05H58.89c-4.61 0-4.63 0-6.53 1.9l-4.77 4.77c-2.13 2.13-2.16 2.16-2.16 4.56v33.3c0 1.19-1.57 1.29-1.57 2.43v32.88q0 1.47 1.19 2.67l6.75 6.75q1.83 1.83 1.83 3.56v7c0 1.87.02 1.9 2.48 4.35s3.56 3.56 3.56 3.56" class="cls-50"/><path id="path23" d="m28.97 56.77-3.04 3.04q-3.42 3.42-3.42 5.8v9.76q0 3.84 1.92 5.76l3.6 3.6q1.17 1.17 3.26 1.17h6.18c1.21 0 1.18 0 3.32 2.14l2.7 2.7c1.19 1.19 1.2 1.19 3.25 1.19h8.12q.38 0 1.11.73l.7.7c.52.45.63.51 1.44.51h23.63c2.09 0 2.12-.03 5.12-3.03l15.76-15.76c1.23-1.23 1.16-1.3 0-2.45s-3.77-3.77-3.77-3.77" class="cls-49"/><path id="path25" d="M22.1 90.6h5.01c1.28 0 1.26 0 2.99-1.73 1.73-1.73 3.44-3.44 4.89-3.44h7.24c1.67 0 1.65.03 3.02-1.34l3.23-3.23c1.33-1.33 1.4-1.33 2.6-1.33h5.97c4.08 0 4.08 3.46 8.51 3.42h7.82q2.74 0 4.84 2.11l1.33 1.33" class="cls-53"/><path id="path27" d="M5.15 103.28v-7.54q0-1.08 1.08-1.08h2" class="cls-53"/><path id="path29" d="M15.31 107.43V78.04q0-2.73 2.73-2.73h7.57c1.75 0 1.76 0 4.42-2.67l4.39-4.39 2.98-2.98q3.04-3.04 3.04-5.87v-2.87q0-2.14 1.77-3.91c3.45-3.36 3.37-3.36 6.55-3.36h29.11q1.98.07 4.68 2.77l3.95 3.95 11.78 11.78c.64.64.66.64 1.58.64h2.91q1.96 0 4.69-2.73l4.63-4.63c1.71-1.71 1.72-1.71 3.92-1.71h4.4" style="stroke:#aab91b;stroke-width:.47px;fill:none;stroke-miterlimit:1.06"/><g id="g31"><path id="path33" d="M73.38 113.76V76.91q0-4.77-3.47-8.24l-4.38-4.38q-.59-.59-1.43-.59h-7.02c-1.2 0-1.2-.02-1.2-1.2V44.94c0-2.35.05-2.35 2.35-2.35h19.38q1.27 0 3.7-2.43l3.02-3.02q1.57-1.57 1.57-3.49v-4.26c0-3.44.04-3.48 2.57-6.01l10.57-10.57" class="cls-42"/></g><g id="g35"><path id="path37" d="m85.26 104.78-2.04-2.04q-1.91-1.91-3.09-1.91h-5.58c-1.17 0-1.17-1.17-1.17-1.17" class="cls-42"/></g><path id="path39" d="M73.85 93.85v-.78q0-.98 2.32-3.3l5.05-5.05c2.08-2.08 2.08-2.17 2.08-4.91V62.47c0-1.12-.02-1.13 2.29-3.43.72-.72.75-.7 1.57-1.54q.76-.78-.06-1.59l-1.18-1.18L78.19 47c-1.13-1.13-1.14-1.14-1.14-2.24v-7.68c0-1.28-.01-1.26 2.02-3.3l1.57-1.57c.78-.78.77-.78 2.05-.78h5.68q.72 0 1.91 1.19l1.3 1.3c.5.5.49.49.5 1.22s0 .73 1.01.73h2.38c2.01 0 1.99.02 6.5-4.49l10.74-10.74" style="stroke:#f57928;stroke-width:.47px;fill:none;stroke-miterlimit:1.06"/><path id="path41" d="M123.81 108.65 95.23 80.07c-1.69-1.69-1.68-1.73-1.68-3.74v-6.45q0-1.43-1.43-1.43h-9.74q-.61 0-.61-.61V52.51q0-.65-.5-1.14l-1.26-1.26c-.16-.16-.74-.4-2.14-.4H62.01s-4 0-7.08 3.08l-3.73 3.73-13.1 13.1q-2.99 2.99-2.99 5.71v17.15c0 2.29-.05 2.34-3.18 5.47" style="stroke:#b88bbf;stroke-width:.47px;fill:none;stroke-miterlimit:1.06"/><path id="path43" d="M11.24 59.42h12.68c1.73 0 1.74 0 2.75-1.01l2.39-2.39 7.93-7.93c2.46-2.46 2.46-2.5 2.46-4.7v-4.3q0-1.78 4.54-6.32c1.8-1.8 1.85-1.8 5.22-1.8h39.06c.92 0 1.01 0 2.36 1.34l1.3 1.3c.6.6.6.73.6 1.65v5.16q0 1.36 1.84 3.2c1.24 1.24 2.06 2.06 4.01 4 1.59 1.59 1.49 1.47 1.49 3.28v16.94" style="stroke:#1c4b9c;stroke-width:.47px;fill:none;stroke-miterlimit:1.06"/><path id="path45" d="m120.41 78.85-7.35-7.35q-2.67-2.67-7.16-2.67h-6.04q-2.66 0-5 2.34l-2.97 2.97-2.62 2.62c-1.09 1.09-1.13 1.04-2.18 0l-3.17-3.17c-1.05-1.05-1.05-1.1-1.05-2.98q0-1.72-.6-1.72h-1.26c-4.54 0-4.54-.06-6.04-1.56l-1.73-1.73q-2.38-2.38-4.16-2.38H56.7c-2.74 0-2.74-2.79-4.96-2.79H35.29c-2.63 0-2.65 0-4.57-1.92l-3.65-3.65-21.92-21.9" style="stroke:#f7bf0f;stroke-width:.47px;fill:none;stroke-miterlimit:1.06"/><path id="path47" d="M18.24 15.21 45.83 42.8l10.9 10.9c2.43 2.43 2.46 2.42 5.86 2.42H73.9q.8 0 2.37-1.61l4.46-4.46.86-.86q.97-.97 3.21-.97h1.61c1.95 0 1.95 2.46 3.65 2.46h30.34" style="stroke:#8a7817;stroke-width:.47px;fill:none;stroke-miterlimit:1.06"/><path id="path49" d="M65.08 62.76h8.42q1.21.04 1.21-.89v-3.68q0-1.47 2.12-3.58l4.78-4.79 4.65-4.65q2.14-2.14 4.35-2.14h29.78" style="stroke:#753d0d;stroke-width:.47px;fill:none;stroke-miterlimit:1.06"/><path id="path51" d="M46.35 43.32v5.23c0 .96 1.38 1.05 1.38 2.51v6.42c0 .81 0 .82.82.82h9.76c1.84 0 1.87 0 3.34 1.47l2.61 2.61 7.18 7.18q1.45 1.45 3.76 1.45h3.26q1.12 0 1.98.87l12.69 12.69 5.04 5.04q1.47 1.47 0 2.95-4.47 4.47-7.2 4.47h-8.21" style="stroke:#450d7a;stroke-width:.47px;fill:none;stroke-miterlimit:1.06"/><path id="path53" d="M39.36 103.28v-6.32c0-2.11 0-2.08 1.41-3.5l3.82-3.82c1.01-1.01 1.03-1.01 2.15-1.01h3.67q2.14 0 2.14-1.05t-1.35-2.27l-2.83-2.83c-1.13-1.13-1.12-1.06-1.12-3.23v-28.2c0-1.36-1.37-1.36-1.37-2.51v-6.57q0-1.59 2.4-3.99l15.63-15.63.91-.91c2.28-2.28 2.28-2.25 2.28-4.35v-4.28" style="stroke:#0f6b3c;stroke-width:.47px;fill:none;stroke-miterlimit:1.06"/><path id="path55" d="m84.21 37.89 1.15-1.15c.42-.42.43-.42 2.39-.42h7.72c3.23 0 3.23 2.85 5.9 2.85h4.46" class="cls-49"/><path id="path57" d="M59.96 12.82v4.28c0 2.11 0 2.07 2.28 4.35l12.32 12.32c2.04 2.04 2.02 2.02 2.02 3.3v9.21q0 2.67-1.86 4.53l-6.35 6.35q-3.28 3.28-3.28 5.18v2.04c0 .91 0 .98-2.25 3.23l-2.49 2.49Q58 72.45 58 74.7v3.44c0 .91 0 .94-.94.94h-1.82c-.73 0-.74 0-1.53.79l-1.78 1.78q-1.5 1.5-1.49 3.87v1.82c0 1.32.07 1.39 1.02 2.34l.74.74q1.07 1.07 2.69 1.07.49 0 1.16.68l.7.7c.52.52.47.57 1.39.57h1.42q1.12 0 3.88 2.76l1.34 1.34c1.13 1.13 1.13 1.18 1.13 3.32" style="stroke:#b82788;stroke-width:.47px;fill:none;stroke-miterlimit:1.06"/><path id="path59" d="M45.43 23.1s0-2.53-1.7-4.24L32.01 7.14" class="cls-50"/><path id="path61" d="M22.1 90.48H14c-.93 0-.94.02-1.81.89l-2.64 2.64q-.54.54-1.62.54H6.68" class="cls-57"/><path id="path63" d="M22.1 90.72h-.2q-1.08 0-1.62.54l-2.64 2.64c-.87.87-.89.89-1.81.89H6.69" class="cls-57"/><path id="path65" d="M105.79 39.06q.54.02 1.31-.63c.78-.65 2.09-1.7 2.62-2.2s.53-.49 1.06 0 1.92 1.95 2.45 2.45q.53.49 0 .99c-.35.32-1.95 1.95-2.45 2.41s-.48.48-1.06 0 0 0-2.62-2.16c-.69-.57-.75-.63-1.31-.63" style="stroke-width:.23px;stroke:#6db76e;fill:none;stroke-miterlimit:1.06"/><g id="g67"><path id="path69" d="M19.7 90.81h-.78" class="cls-41"/><path id="path71" d="m19.01 90.68-.51.14.51.14v-.27Z" class="cls-23"/></g><g id="g73"><path id="path75" d="M10.85 94.44h.78" class="cls-41"/><path id="path77" d="m11.54 94.58.51-.14-.51-.14v.27Z" class="cls-23"/></g><g id="g79"><path id="path81" d="m107.53 39.75.55.55" class="cls-40"/><path id="path83" d="m107.92 40.33.45.26-.26-.45-.19.19Z" class="cls-34"/></g><g id="g85"><path id="path87" d="m111.8 37.81-.55-.55" class="cls-40"/><path id="path89" d="m111.41 37.23-.45-.26.26.45.19-.19Z" class="cls-34"/></g><path id="path92" d="M67.35 2.69c0-.38-.31-.68-.68-.68s-.68.31-.68.68c0 .34.24.62.57.67v.42a.31.31 0 0 0-.18.27.29.29 0 1 0 .4-.27v-.42c.32-.06.57-.34.57-.67Z" class="cls-12"/><path id="path94" d="M100.62 12.13a.67.67 0 0 0-.67.57h-.42a.526.526 0 0 0-1.04.12.526.526 0 0 0 1.04.12h.42c.06.32.34.57.67.57.38 0 .68-.31.68-.68s-.31-.68-.68-.68Z" class="cls-12"/><path id="path96" d="M114.32 19.94a.67.67 0 0 0-.67.57h-.42a.526.526 0 0 0-1.04.12.526.526 0 0 0 1.04.12h.42c.06.32.34.57.67.57.38 0 .68-.31.68-.68s-.31-.68-.68-.68Z" class="cls-12"/><path id="path98" d="M78.47 99.51c0-.38-.31-.68-.68-.68s-.68.31-.68.68c0 .34.24.62.57.67v.37a.31.31 0 0 0-.18.27.29.29 0 1 0 .4-.27v-.37c.32-.06.57-.34.57-.67Z" class="cls-12"/><path id="path100" d="M80.82 99.51c0-.38-.31-.68-.68-.68s-.68.31-.68.68c0 .34.24.62.57.67v.37a.31.31 0 0 0-.18.27.29.29 0 1 0 .4-.27v-.37c.32-.06.57-.34.57-.67Z" class="cls-12"/><path id="path102" d="M76.12 99.51c0-.38-.31-.68-.68-.68s-.68.31-.68.68c0 .34.24.62.57.67v.37a.31.31 0 0 0-.18.27.29.29 0 1 0 .4-.27v-.37c.32-.06.57-.34.57-.67Z" class="cls-12"/><path id="path104" d="M65.89 100.3c-.25 0-.46.18-.51.41H65a.695.695 0 0 0-.67-.57c-.38 0-.68.31-.68.68s.31.68.68.68c.34 0 .62-.24.67-.57h.38a.526.526 0 0 0 1.04-.12c0-.29-.24-.53-.53-.53Z" class="cls-12"/><path id="path106" d="M54.88 98.29a.67.67 0 0 0-.67.57h-.3a.31.31 0 0 0-.27-.18.29.29 0 1 0 .27.4h.3c.06.32.34.57.67.57.38 0 .68-.31.68-.68s-.31-.68-.68-.68Z" class="cls-12"/><path id="path108" d="M39.36 98.68c-.12 0-.22.07-.27.18h-.3a.695.695 0 0 0-.67-.57c-.38 0-.68.31-.68.68s.31.68.68.68c.34 0 .62-.24.67-.57h.3c.05.1.15.18.27.18a.29.29 0 0 0 0-.58Z" class="cls-12"/><path id="path110" d="M31.92 97.42c-.25 0-.46.18-.51.41h-.32a.695.695 0 0 0-.67-.57c-.38 0-.68.31-.68.68s.31.68.68.68c.34 0 .62-.24.67-.57h.32a.526.526 0 0 0 1.04-.12c0-.29-.24-.53-.53-.53Z" class="cls-12"/><path id="path112" d="M5.15 32.43c-.25 0-.46.18-.51.41h-.26v-.13s0-.02-.01-.02c0 0 0-.02-.01-.03 0 0 0-.02-.01-.03 0 0-.01-.02-.02-.03 0 0-.01-.02-.02-.03 0 0-.01-.02-.02-.03a.717.717 0 0 0-.76-.24c-.25.08-.44.29-.48.55H2.7a.695.695 0 0 0-.67-.57c-.38 0-.68.31-.68.68s.31.68.68.68c.34 0 .62-.24.67-.57h.35a.695.695 0 0 0 .69.58h.31s.01 0 .02-.01c0 0 .01 0 .02-.01 0 0 .02 0 .02-.02 0 0 .02-.01.02-.02 0 0 .02-.01.02-.02 0 0 .02-.01.02-.02l.02-.02c.09-.09.15-.21.18-.33h.27a.526.526 0 0 0 1.04-.12c0-.29-.24-.53-.53-.53Z" class="cls-12"/><path id="path114" d="M31.6 56.74V56.54s0-.02-.01-.02c0 0 0-.02-.01-.03 0 0 0-.02-.01-.03 0 0-.01-.02-.02-.03 0 0-.01-.02-.02-.03 0 0-.01-.02-.02-.03a.717.717 0 0 0-.76-.24c-.25.08-.44.29-.48.55h-.71a.604.604 0 0 0-.14-.26.5.5 0 0 0-.47-.14l-.12-.12a.296.296 0 0 0-.41 0c-.11.11-.11.3 0 .41l.12.12c-.03.17.02.35.14.47.21.21.54.21.74 0a.51.51 0 0 0 .14-.26h.71a.695.695 0 0 0 .69.58h.31s.01 0 .02-.01c0 0 .01 0 .02-.01 0 0 .02 0 .02-.02 0 0 .02-.01.02-.02 0 0 .02-.01.02-.02 0 0 .02-.01.02-.02l.02-.02c.12-.13.19-.3.19-.48v-.03Z" class="cls-12"/><path id="path116" d="M93.93 98.11v-.25s0-.01-.01-.02c0 0 0-.01-.01-.02 0 0 0-.02-.02-.02 0 0-.01-.02-.02-.02 0 0-.01-.02-.02-.02 0 0-.01-.02-.02-.02s-.01-.02-.02-.02a.717.717 0 0 0-.37-.18v-.41c.1-.05.18-.15.18-.27a.29.29 0 1 0-.4.27v.41h-.1s-.02 0-.02.01c0 0-.02 0-.03.01 0 0-.02 0-.03.01 0 0-.02.01-.03.02 0 0-.02.01-.03.02 0 0-.02.01-.03.02a.717.717 0 0 0-.24.76.703.703 0 0 0 1.29.12c.05-.1.08-.21.08-.33v-.06Z" class="cls-12"/><path id="path118" d="m79.77 86.19-.12-.12a.537.537 0 0 0-.14-.47.513.513 0 0 0-.74 0 .51.51 0 0 0-.14.26h-.47v-.2s0-.01-.01-.02c0 0 0-.01-.01-.02 0 0 0-.02-.02-.02 0 0-.01-.02-.02-.02 0 0-.01-.02-.02-.02 0 0-.01-.02-.02-.02s-.01-.02-.02-.02a.708.708 0 0 0-.48-.19H77.33s-.02 0-.02.01c0 0-.02 0-.03.01 0 0-.02 0-.03.01 0 0-.02.01-.03.02 0 0-.02.01-.03.02 0 0-.02.01-.03.02a.717.717 0 0 0-.24.76.703.703 0 0 0 1.29.12c.04-.07.06-.14.07-.22h.47c.02.09.07.18.14.26a.5.5 0 0 0 .47.14l.12.12c.11.11.3.11.41 0 .11-.11.11-.3 0-.41Z" class="cls-12"/><path id="path120" d="M42.39 15.35v-.25s0-.01-.01-.02c0 0 0-.01-.01-.02 0 0 0-.02-.02-.02 0 0-.01-.02-.02-.02 0 0-.01-.02-.02-.02 0 0-.01-.02-.02-.02s-.01-.02-.02-.02a.708.708 0 0 0-.48-.19H41.56s-.02 0-.02.01c0 0-.02 0-.03.01 0 0-.02 0-.03.01 0 0-.02.01-.03.02 0 0-.02.01-.03.02 0 0-.02.01-.03.02a.717.717 0 0 0-.24.76c.08.25.29.44.55.48v.46a.31.31 0 0 0-.18.27.29.29 0 1 0 .4-.27v-.46a.695.695 0 0 0 .58-.69v-.06Z" class="cls-12"/><path id="path122" d="M31.46 26.26v-.25s0-.01-.01-.02c0 0 0-.01-.01-.02 0 0 0-.02-.02-.02 0 0-.01-.02-.02-.02 0 0-.01-.02-.02-.02 0 0-.01-.02-.02-.02s-.01-.02-.02-.02a.708.708 0 0 0-.48-.19H30.63s-.02 0-.02.01c0 0-.02 0-.03.01 0 0-.02 0-.03.01 0 0-.02.01-.03.02 0 0-.02.01-.03.02 0 0-.02.01-.03.02a.717.717 0 0 0-.24.76c.08.25.29.44.55.48v.46a.31.31 0 0 0-.18.27.29.29 0 1 0 .4-.27v-.46a.695.695 0 0 0 .58-.69v-.06Z" class="cls-12"/><path id="path124" d="M21.73 47.35v-.25s0-.01-.01-.02c0 0 0-.01-.01-.02 0 0 0-.02-.02-.02 0 0-.01-.02-.02-.02 0 0-.01-.02-.02-.02 0 0-.01-.02-.02-.02s-.01-.02-.02-.02a.708.708 0 0 0-.48-.19H20.9s-.02 0-.02.01c0 0-.02 0-.03.01 0 0-.02 0-.03.01 0 0-.02.01-.03.02 0 0-.02.01-.03.02 0 0-.02.01-.03.02a.717.717 0 0 0-.24.76c.08.25.29.44.55.48v.46a.31.31 0 0 0-.18.27.29.29 0 1 0 .4-.27v-.46a.695.695 0 0 0 .58-.69v-.06Z" class="cls-12"/><path id="path126" d="M27.34 81.23v-.25s0-.01-.01-.02c0 0 0-.01-.01-.02 0 0 0-.02-.02-.02 0 0-.01-.02-.02-.02 0 0-.01-.02-.02-.02 0 0-.01-.02-.02-.02s-.01-.02-.02-.02a.708.708 0 0 0-.48-.19H26.51s-.02 0-.02.01c0 0-.02 0-.03.01 0 0-.02 0-.03.01 0 0-.02.01-.03.02 0 0-.02.01-.03.02 0 0-.02.01-.03.02a.717.717 0 0 0-.24.76c.03.09.07.17.13.24l-.33.33s-.07-.02-.11-.02a.29.29 0 1 0 .29.29c0-.04 0-.07-.02-.11l.34-.34c.11.07.23.1.37.1.27 0 .5-.15.62-.37.05-.1.08-.21.08-.33v-.06Z" class="cls-12"/><path id="path128" d="M46.37 63.79v-.25s0-.01-.01-.02c0 0 0-.01-.01-.02 0 0 0-.02-.02-.02 0 0-.01-.02-.02-.02 0 0-.01-.02-.02-.02 0 0-.01-.02-.02-.02s-.01-.02-.02-.02a.708.708 0 0 0-.48-.19H45.54s-.02 0-.02.01c0 0-.02 0-.03.01 0 0-.02 0-.03.01 0 0-.02.01-.03.02 0 0-.02.01-.03.02 0 0-.02.01-.03.02-.14.11-.23.26-.26.44h-.85a.31.31 0 0 0-.27-.18.29.29 0 1 0 .27.4h.85s.01.06.02.09a.703.703 0 0 0 1.29.12c.05-.1.08-.21.08-.33v-.06Z" class="cls-12"/><path id="path130" d="M59.4 93.09v-.57l-.5-.5h-.25v-.2s0-.01-.01-.02c0 0 0-.01-.01-.02 0 0 0-.02-.02-.02 0 0-.01-.02-.02-.02 0 0-.01-.02-.02-.02 0 0-.01-.02-.02-.02s-.01-.02-.02-.02a.708.708 0 0 0-.48-.19H57.82s-.02 0-.02.01c0 0-.02 0-.03.01 0 0-.02 0-.03.01 0 0-.02.01-.03.02 0 0-.02.01-.03.02 0 0-.02.01-.03.02a.717.717 0 0 0-.24.76.703.703 0 0 0 1.29.12c.04-.07.06-.14.07-.22h.16l.37.37v.48a.31.31 0 0 0-.18.27v.59a.29.29 0 0 0 .58 0v-.59c0-.12-.07-.22-.18-.27Z" class="cls-12"/><path id="path132" d="M59.8 77.46v-.25s0-.01-.01-.02c0 0 0-.01-.01-.02 0 0 0-.02-.02-.02 0 0-.01-.02-.02-.02 0 0-.01-.02-.02-.02 0 0-.01-.02-.02-.02s-.01-.02-.02-.02a.708.708 0 0 0-.48-.19h-.13l-.71-.71s.02-.07.02-.11a.29.29 0 1 0-.29.29c.04 0 .07 0 .11-.02l.64.64s-.02.01-.03.02c0 0-.02.01-.03.02a.717.717 0 0 0-.24.76.7.7 0 0 0 .53.48v1.07s-.07.12-.13.21h-.04a.29.29 0 1 0 .29.29c0-.06-.02-.12-.05-.17l.16-.27v-1.13c.23-.03.42-.17.53-.36.05-.1.08-.21.08-.33v-.06Z" class="cls-12"/><path id="path134" d="M79.01 36.36V36.16s0-.02-.01-.02c0 0 0-.02-.01-.03 0 0 0-.02-.01-.03 0 0-.01-.02-.02-.03 0 0-.01-.02-.02-.03 0 0-.01-.02-.02-.03a.717.717 0 0 0-.76-.24c-.25.08-.44.29-.48.55h-.26a.294.294 0 0 0-.25-.14h-.18v-4.89c.1-.05.18-.15.18-.27a.29.29 0 1 0-.4.27v4.89h-.18a.29.29 0 0 0 0 .58h.59c.13 0 .25-.09.28-.21h.22c.03.22.17.4.36.51.1.05.21.08.33.08h.31s.01 0 .02-.01c0 0 .01 0 .02-.01 0 0 .02 0 .02-.02 0 0 .02-.01.02-.02 0 0 .02-.01.02-.02 0 0 .02-.01.02-.02s.01-.02.02-.02c.12-.13.19-.3.19-.48v-.03Z" class="cls-12"/><path id="path136" d="M101.84 66.54v-.25s0-.01-.01-.02c0 0 0-.01-.01-.02 0 0 0-.02-.02-.02 0 0-.01-.02-.02-.02 0 0-.01-.02-.02-.02 0 0-.01-.02-.02-.02s-.01-.02-.02-.02a.708.708 0 0 0-.48-.19H101.01s-.02 0-.02.01c0 0-.02 0-.03.01 0 0-.02 0-.03.01 0 0-.02.01-.03.02 0 0-.02.01-.03.02 0 0-.02.01-.03.02a.717.717 0 0 0-.24.76c.02.06.05.12.08.17l-.42.42a.53.53 0 0 0-.65.07.5.5 0 0 0-.14.47l-.25.25-.12.12a.537.537 0 0 0-.47.14c-.21.21-.21.54 0 .74.21.21.54.21.74 0a.5.5 0 0 0 .14-.47l.25-.25.12-.12a.517.517 0 0 0 .54-.79l.41-.41c.12.09.27.15.43.15.27 0 .5-.15.62-.37.05-.1.08-.21.08-.33v-.06Z" class="cls-12"/><path id="path138" d="M88.9 75.99v-.25s0-.01-.01-.02c0 0 0-.01-.01-.02 0 0 0-.02-.02-.02 0 0-.01-.02-.02-.02 0 0-.01-.02-.02-.02 0 0-.01-.02-.02-.02s-.01-.02-.02-.02a.708.708 0 0 0-.48-.19H88.07s-.02 0-.02.01c0 0-.02 0-.03.01 0 0-.02 0-.03.01 0 0-.02.01-.03.02 0 0-.02.01-.03.02 0 0-.02.01-.03.02a.717.717 0 0 0-.24.76c.08.25.29.44.55.48v.56a.31.31 0 0 0-.18.27c0 .04 0 .07.02.11l-.65.65s-.07-.02-.11-.02a.29.29 0 1 0 .29.29c0-.04 0-.07-.02-.11l.65-.65s.07.02.11.02a.29.29 0 0 0 .11-.56v-.56a.695.695 0 0 0 .58-.69v-.06Z" class="cls-12"/><path id="path140" d="M67.34 61.41V61.21s0-.02-.01-.02c0 0 0-.02-.01-.03 0 0 0-.02-.01-.03 0 0-.01-.02-.02-.03 0 0-.01-.02-.02-.03 0 0-.01-.02-.02-.03a.717.717 0 0 0-.76-.24h-.02l-.55-.55s.02-.07.02-.11a.29.29 0 1 0-.29.29c.04 0 .07 0 .11-.02l.5.5c-.16.13-.26.33-.26.55 0 .1.02.19.06.27l-.62.62a.476.476 0 0 0-.29-.09c-.29 0-.53.24-.53.53 0 .18.09.34.23.44v.12l-.34.34c-.11.11-.11.3 0 .41s.3.11.41 0l.41-.41c.06-.05.1-.13.1-.22v-.24c.14-.09.23-.25.23-.43a.6.6 0 0 0-.07-.27l.59-.59c.05.06.11.11.18.14.1.05.21.08.33.08H67s.01 0 .02-.01c0 0 .01 0 .02-.01 0 0 .02 0 .02-.02 0 0 .02-.01.02-.02 0 0 .02-.01.02-.02 0 0 .02-.01.02-.02s.01-.02.02-.02c.12-.13.19-.3.19-.48v-.03Z" class="cls-12"/><path id="path142" d="M45.71 88.81c0 .1-.08.18-.18.18s-.18-.08-.18-.18.08-.18.18-.18.18.08.18.18Z" class="cls-6"/><path id="path144" d="M42.16 92.26c0 .1-.08.18-.18.18s-.18-.08-.18-.18.08-.18.18-.18.18.08.18.18Z" class="cls-6"/><path id="path146" d="M41.02 94.45c0 .1-.08.18-.18.18s-.18-.08-.18-.18.08-.18.18-.18.18.08.18.18Z" class="cls-6"/><path id="path148" d="M40.5 93.92c0 .1-.08.18-.18.18s-.18-.08-.18-.18.08-.18.18-.18.18.08.18.18Z" class="cls-6"/><path id="path150" d="M39.54 96.5c0 .1-.08.18-.18.18s-.18-.08-.18-.18.08-.18.18-.18.18.08.18.18Z" class="cls-6"/><path id="path152" d="M39.54 101.02c0 .1-.08.18-.18.18s-.18-.08-.18-.18.08-.18.18-.18.18.08.18.18Z" class="cls-6"/><path id="path154" d="m50.58 88.63-.16 3.29" class="cls-6"/><path id="path156" d="m48.79 58.93-1.3-1.43" class="cls-6"/><path id="path158" d="m88.2 77.57-1.03 1.03" class="cls-6"/><path id="path160" d="M52.74 87.58c0 .1-.08.18-.18.18s-.18-.08-.18-.18.08-.18.18-.18.18.08.18.18Z" class="cls-6"/><path id="path162" d="M49.47 83.41c0 .1-.08.18-.18.18s-.18-.08-.18-.18.08-.18.18-.18.18.08.18.18Z" class="cls-6"/><path id="path164" d="M47.43 76.97c0 .1-.08.18-.18.18s-.18-.08-.18-.18.08-.18.18-.18.18.08.18.18Z" class="cls-6"/><path id="path166" d="M47.43 71.46c0 .1-.08.18-.18.18s-.18-.08-.18-.18.08-.18.18-.18.18.08.18.18Z" class="cls-6"/><path id="path168" d="M47.43 65.96c0 .1-.08.18-.18.18s-.18-.08-.18-.18.08-.18.18-.18.18.08.18.18Z" class="cls-6"/><path id="path170" d="M47.31 39.16c0 .1-.08.18-.18.18s-.18-.08-.18-.18.08-.18.18-.18.18.08.18.18Z" class="cls-6"/><path id="path172" d="M49.79 36.66c0 .1-.08.18-.18.18s-.18-.08-.18-.18.08-.18.18-.18.18.08.18.18Z" class="cls-6"/><path id="path174" d="M52.51 33.94c0 .1-.08.18-.18.18s-.18-.08-.18-.18.08-.18.18-.18.18.08.18.18Z" class="cls-6"/><path id="path176" d="M57.8 28.66c0 .1-.08.18-.18.18s-.18-.08-.18-.18.08-.18.18-.18.18.08.18.18Z" class="cls-6"/><path id="path178" d="M60.05 26.4c0 .1-.08.18-.18.18s-.18-.08-.18-.18.08-.18.18-.18.18.08.18.18Z" class="cls-6"/><path id="path180" d="M62.11 24.34c0 .1-.08.18-.18.18s-.18-.08-.18-.18.08-.18.18-.18.18.08.18.18Z" class="cls-6"/><path id="path182" d="M67.28 17.1c0 .1-.08.18-.18.18s-.18-.08-.18-.18.08-.18.18-.18.18.08.18.18Z" class="cls-6"/><path id="path184" d="M60.13 17.1c0 .1-.08.18-.18.18s-.18-.08-.18-.18.08-.18.18-.18.18.08.18.18Z" class="cls-6"/><path id="path186" d="M67.37 26.4c0 .1-.08.18-.18.18s-.18-.08-.18-.18.08-.18.18-.18.18.08.18.18Z" class="cls-6"/><path id="path188" d="M76.75 46.79c0 .1-.08.18-.18.18s-.18-.08-.18-.18.08-.18.18-.18.18.08.18.18Z" class="cls-6"/><path id="path190" d="M67.82 57.87c0 .1-.08.18-.18.18s-.18-.08-.18-.18.08-.18.18-.18.18.08.18.18Z" class="cls-6"/><path id="path192" d="M61.81 68.79c0 .1-.08.18-.18.18s-.18-.08-.18-.18.08-.18.18-.18.18.08.18.18Z" class="cls-6"/><path id="path194" d="M53.29 80.44c0 .1-.08.18-.18.18s-.18-.08-.18-.18.08-.18.18-.18.18.08.18.18Z" class="cls-6"/><path id="path196" d="M51.57 82.16c0 .1-.08.18-.18.18s-.18-.08-.18-.18.08-.18.18-.18.18.08.18.18Z" class="cls-6"/><path id="path198" d="M50.6 86.41c0 .1-.08.18-.18.18s-.18-.08-.18-.18.08-.18.18-.18.18.08.18.18Z" class="cls-6"/><path id="path200" d="M52.06 90.09c0 .1-.08.18-.18.18s-.18-.08-.18-.18.08-.18.18-.18.18.08.18.18Z" class="cls-6"/><path id="path202" d="M62.77 95.35c0 .1-.08.18-.18.18s-.18-.08-.18-.18.08-.18.18-.18.18.08.18.18Z" class="cls-6"/><path id="path204" d="M65.16 97.73c0 .1-.08.18-.18.18s-.18-.08-.18-.18.08-.18.18-.18.18.08.18.18Z" class="cls-6"/><path id="path206" d="M55.89 107.82c0 .1-.08.18-.18.18s-.18-.08-.18-.18.08-.18.18-.18.18.08.18.18Z" class="cls-6"/><path id="path208" d="M53.81 103.55c0 .1-.08.18-.18.18s-.18-.08-.18-.18.08-.18.18-.18.18.08.18.18Z" class="cls-6"/><path id="path210" d="M53.67 95.33c0 .1-.08.18-.18.18s-.18-.08-.18-.18.08-.18.18-.18.18.08.18.18Z" class="cls-6"/><path id="path212" d="M52.12 93.45c0 .1-.08.18-.18.18s-.18-.08-.18-.18.08-.18.18-.18.18.08.18.18Z" class="cls-6"/><path id="path214" d="M44.04 78.19c0 .1-.08.18-.18.18s-.18-.08-.18-.18.08-.18.18-.18.18.08.18.18Z" class="cls-6"/><path id="path216" d="M44.04 70.02c0 .1-.08.18-.18.18s-.18-.08-.18-.18.08-.18.18-.18.18.08.18.18Z" class="cls-6"/><path id="path218" d="M45.61 36.26c0 .1-.08.18-.18.18s-.18-.08-.18-.18.08-.18.18-.18.18.08.18.18Z" class="cls-6"/><path id="path220" d="M43.9 18.86c0 .1-.08.18-.18.18s-.18-.08-.18-.18.08-.18.18-.18.18.08.18.18Z" class="cls-6"/><path id="path222" d="M39.21 14.17c0 .1-.08.18-.18.18s-.18-.08-.18-.18.08-.18.18-.18.18.08.18.18Z" class="cls-6"/><path id="path224" d="M36.87 11.83c0 .1-.08.18-.18.18s-.18-.08-.18-.18.08-.18.18-.18.18.08.18.18Z" class="cls-6"/><path id="path226" d="M34.52 9.48c0 .1-.08.18-.18.18s-.18-.08-.18-.18.08-.18.18-.18.18.08.18.18Z" class="cls-6"/><path id="path228" d="M45.61 16.36c0 .1-.08.18-.18.18s-.18-.08-.18-.18.08-.18.18-.18.18.08.18.18Z" class="cls-6"/><path id="path230" d="M46.45 12.08c0 .1-.08.18-.18.18s-.18-.08-.18-.18.08-.18.18-.18.18.08.18.18Z" class="cls-6"/><path id="path232" d="M49.9 8.58c0 .1-.08.18-.18.18s-.18-.08-.18-.18.08-.18.18-.18.18.08.18.18Z" class="cls-6"/><path id="path234" d="M53.09 5.39c0 .1-.08.18-.18.18s-.18-.08-.18-.18.08-.18.18-.18.18.08.18.18Z" class="cls-6"/><path id="path236" d="M57.54 4.05c0 .1-.08.18-.18.18s-.18-.08-.18-.18.08-.18.18-.18.18.08.18.18Z" class="cls-6"/><path id="path238" d="M61.89 4.05c0 .1-.08.18-.18.18s-.18-.08-.18-.18.08-.18.18-.18.18.08.18.18Z" class="cls-6"/><path id="path240" d="M86.09 27.46c0 .1-.08.18-.18.18s-.18-.08-.18-.18.08-.18.18-.18.18.08.18.18Z" class="cls-6"/><path id="path242" d="M87.41 24.62c0 .1-.08.18-.18.18s-.18-.08-.18-.18.08-.18.18-.18.18.08.18.18Z" class="cls-6"/><path id="path244" d="M89.76 22.26c0 .1-.08.18-.18.18s-.18-.08-.18-.18.08-.18.18-.18.18.08.18.18Z" class="cls-6"/><path id="path246" d="M92.12 19.9c0 .1-.08.18-.18.18s-.18-.08-.18-.18.08-.18.18-.18.18.08.18.18Z" class="cls-6"/><path id="path248" d="M94.48 17.54c0 .1-.08.18-.18.18s-.18-.08-.18-.18.08-.18.18-.18.18.08.18.18Z" class="cls-6"/><path id="path250" d="M96.83 15.18c0 .1-.08.18-.18.18s-.18-.08-.18-.18.08-.18.18-.18.18.08.18.18Z" class="cls-6"/><path id="path252" d="M70.61 42.58c0 .1-.08.18-.18.18s-.18-.08-.18-.18.08-.18.18-.18.18.08.18.18Z" class="cls-6"/><path id="path254" d="M64.25 42.58c0 .1-.08.18-.18.18s-.18-.08-.18-.18.08-.18.18-.18.18.08.18.18Z" class="cls-6"/><path id="path256" d="M60.09 42.58c0 .1-.08.18-.18.18s-.18-.08-.18-.18.08-.18.18-.18.18.08.18.18Z" class="cls-6"/><path id="path258" d="M62.7 63.69c0 .1-.08.18-.18.18s-.18-.08-.18-.18.08-.18.18-.18.18.08.18.18Z" class="cls-6"/><path id="path260" d="M69.68 68.26c0 .1-.08.18-.18.18s-.18-.08-.18-.18.08-.18.18-.18.18.08.18.18Z" class="cls-6"/><path id="path262" d="M73.49 73.92c0 .1-.08.18-.18.18s-.18-.08-.18-.18.08-.18.18-.18.18.08.18.18Z" class="cls-6"/><path id="path264" d="M73.56 92.27c0 .1-.08.18-.18.18s-.18-.08-.18-.18.08-.18.18-.18.18.08.18.18Z" class="cls-6"/><path id="path266" d="M73.56 89.28c0 .1-.08.18-.18.18s-.18-.08-.18-.18.08-.18.18-.18.18.08.18.18Z" class="cls-6"/><path id="path268" d="M73.56 86.44c0 .1-.08.18-.18.18s-.18-.08-.18-.18.08-.18.18-.18.18.08.18.18Z" class="cls-6"/><path id="path270" d="M73.56 97.01c0 .1-.08.18-.18.18s-.18-.08-.18-.18.08-.18.18-.18.18.08.18.18Z" class="cls-6"/><path id="path272" d="M73.56 110.23c0 .1-.08.18-.18.18s-.18-.08-.18-.18.08-.18.18-.18.18.08.18.18Z" class="cls-6"/><path id="path274" d="M73.56 106.71c0 .1-.08.18-.18.18s-.18-.08-.18-.18.08-.18.18-.18.18.08.18.18Z" class="cls-6"/><path id="path276" d="M73.56 103.18c0 .1-.08.18-.18.18s-.18-.08-.18-.18.08-.18.18-.18.18.08.18.18Z" class="cls-6"/><path id="path278" d="M83.14 102.49c0 .1-.08.18-.18.18s-.18-.08-.18-.18.08-.18.18-.18.18.08.18.18Z" class="cls-6"/><path id="path280" d="M53.81 97.15c0 .1-.08.18-.18.18s-.18-.08-.18-.18.08-.18.18-.18.18.08.18.18Z" class="cls-6"/><path id="path282" d="M52.06 91.93c0 .1-.08.18-.18.18s-.18-.08-.18-.18.08-.18.18-.18.18.08.18.18Z" class="cls-6"/><path id="path284" d="M98.35 89.61c0 .1-.08.18-.18.18s-.18-.08-.18-.18.08-.18.18-.18.18.08.18.18Z" class="cls-6"/><path id="path286" d="M103.48 73.32c0 .1-.08.18-.18.18s-.18-.08-.18-.18.08-.18.18-.18.18.08.18.18Z" class="cls-6"/><path id="path288" d="M100.82 77.05c0 .1-.08.18-.18.18s-.18-.08-.18-.18.08-.18.18-.18.18.08.18.18Z" class="cls-6"/><path id="path290" d="M94.91 82.97c0 .1-.08.18-.18.18s-.18-.08-.18-.18.08-.18.18-.18.18.08.18.18Z" class="cls-6"/><path id="path292" d="M87.05 90.83c0 .1-.08.18-.18.18s-.18-.08-.18-.18.08-.18.18-.18.18.08.18.18Z" class="cls-6"/><path id="path294" d="M84.18 93.45c0 .1-.08.18-.18.18s-.18-.08-.18-.18.08-.18.18-.18.18.08.18.18Z" class="cls-6"/><path id="path296" d="M79.78 93.86c0 .1-.08.18-.18.18s-.18-.08-.18-.18.08-.18.18-.18.18.08.18.18Z" class="cls-6"/><path id="path298" d="M71.02 93.86c0 .1-.08.18-.18.18s-.18-.08-.18-.18.08-.18.18-.18.18.08.18.18Z" class="cls-6"/><path id="path300" d="M64.02 93.86c0 .1-.08.18-.18.18s-.18-.08-.18-.18.08-.18.18-.18.18.08.18.18Z" class="cls-6"/><path id="path302" d="M67.64 93.86c0 .1-.08.18-.18.18s-.18-.08-.18-.18.08-.18.18-.18.18.08.18.18Z" class="cls-6"/><path id="path304" d="M41.98 89.04c0 .1-.08.18-.18.18s-.18-.08-.18-.18.08-.18.18-.18.18.08.18.18Z" class="cls-6"/><path id="path306" d="M39.6 86.69c0 .1-.08.18-.18.18s-.18-.08-.18-.18.08-.18.18-.18.18.08.18.18Z" class="cls-6"/><path id="path308" d="M27.85 84.36c0 .1-.08.18-.18.18s-.18-.08-.18-.18.08-.18.18-.18.18.08.18.18Z" class="cls-6"/><path id="path310" d="M23.11 79.38c0 .1-.08.18-.18.18s-.18-.08-.18-.18.08-.18.18-.18.18.08.18.18Z" class="cls-6"/><path id="path312" d="M24.43 61.51c0 .1-.08.18-.18.18s-.18-.08-.18-.18.08-.18.18-.18.18.08.18.18Z" class="cls-6"/><path id="path314" d="M22.69 67.77c0 .1-.08.18-.18.18s-.18-.08-.18-.18.08-.18.18-.18.18.08.18.18Z" class="cls-6"/><path id="path316" d="M19.78 59.42c0 .1-.08.18-.18.18s-.18-.08-.18-.18.08-.18.18-.18.18.08.18.18Z" class="cls-6"/><path id="path318" d="M32.9 52.36c0 .1-.08.18-.18.18s-.18-.08-.18-.18.08-.18.18-.18.18.08.18.18Z" class="cls-6"/><path id="path320" d="M38.02 47.23c0 .1-.08.18-.18.18s-.18-.08-.18-.18.08-.18.18-.18.18.08.18.18Z" class="cls-6"/><path id="path322" d="M39.63 41.94c0 .1-.08.18-.18.18s-.18-.08-.18-.18.08-.18.18-.18.18.08.18.18Z" class="cls-6"/><path id="path324" d="M42.83 34.11c0 .1-.08.18-.18.18s-.18-.08-.18-.18.08-.18.18-.18.18.08.18.18Z" class="cls-6"/><path id="path326" d="M50.52 30.96c0 .1-.08.18-.18.18s-.18-.08-.18-.18.08-.18.18-.18.18.08.18.18Z" class="cls-6"/><path id="path328" d="M63.71 30.96c0 .1-.08.18-.18.18s-.18-.08-.18-.18.08-.18.18-.18.18.08.18.18Z" class="cls-6"/><path id="path330" d="M92.71 39.64c0 .1-.08.18-.18.18s-.18-.08-.18-.18.08-.18.18-.18.18.08.18.18Z" class="cls-6"/><path id="path332" d="M96.28 45.35c0 .1-.08.18-.18.18s-.18-.08-.18-.18.08-.18.18-.18.18.08.18.18Z" class="cls-6"/><path id="path334" d="M98.7 47.77c0 .1-.08.18-.18.18s-.18-.08-.18-.18.08-.18.18-.18.18.08.18.18Z" class="cls-6"/><path id="path336" d="M100.04 55.23c0 .1-.08.18-.18.18s-.18-.08-.18-.18.08-.18.18-.18.18.08.18.18Z" class="cls-6"/><path id="path338" d="M100.04 59.69c0 .1-.08.18-.18.18s-.18-.08-.18-.18.08-.18.18-.18.18.08.18.18Z" class="cls-6"/><path id="path340" d="M100.04 64.14c0 .1-.08.18-.18.18s-.18-.08-.18-.18.08-.18.18-.18.18.08.18.18Z" class="cls-6"/><path id="path342" d="M116.75 75.02c0 .1-.08.18-.18.18s-.18-.08-.18-.18.08-.18.18-.18.18.08.18.18Z" class="cls-6"/><path id="path344" d="M112.68 70.95c0 .1-.08.18-.18.18s-.18-.08-.18-.18.08-.18.18-.18.18.08.18.18Z" class="cls-6"/><path id="path346" d="M107.4 68.84c0 .1-.08.18-.18.18s-.18-.08-.18-.18.08-.18.18-.18.18.08.18.18Z" class="cls-6"/><path id="path348" d="M74.95 67.13c0 .1-.08.18-.18.18s-.18-.08-.18-.18.08-.18.18-.18.18.08.18.18Z" class="cls-6"/><path id="path350" d="M58.83 63.23c0 .1-.08.18-.18.18s-.18-.08-.18-.18.08-.18.18-.18.18.08.18.18Z" class="cls-6"/><path id="path352" d="M53.94 61.54c0 .1-.08.18-.18.18s-.18-.08-.18-.18.08-.18.18-.18.18.08.18.18Z" class="cls-6"/><path id="path354" d="M34.51 60.43c0 .1-.08.18-.18.18s-.18-.08-.18-.18.08-.18.18-.18.18.08.18.18Z" class="cls-6"/><path id="path356" d="M25.18 52.8c0 .1-.08.18-.18.18s-.18-.08-.18-.18.08-.18.18-.18.18.08.18.18Z" class="cls-6"/><path id="path358" d="M17.24 44.86c0 .1-.08.18-.18.18s-.18-.08-.18-.18.08-.18.18-.18.18.08.18.18Z" class="cls-6"/><path id="path360" d="M13.27 40.89c0 .1-.08.18-.18.18s-.18-.08-.18-.18.08-.18.18-.18.18.08.18.18Z" class="cls-6"/><path id="path362" d="M9.3 36.92c0 .1-.08.18-.18.18s-.18-.08-.18-.18.08-.18.18-.18.18.08.18.18Z" class="cls-6"/><path id="path364" d="M33.83 30.8c-.07.07-.18.07-.25 0s-.07-.18 0-.25.18-.07.25 0 .07.18 0 .25Z" class="cls-6"/><path id="path366" d="M36.92 33.89c-.07.07-.18.07-.25 0s-.07-.18 0-.25.18-.07.25 0 .07.18 0 .25Z" class="cls-6"/><path id="path368" d="M40.13 37.1c-.07.07-.18.07-.25 0s-.07-.18 0-.25.18-.07.25 0 .07.18 0 .25Z" class="cls-6"/><path id="path370" d="M42.85 39.64c0 .1-.08.18-.18.18s-.18-.08-.18-.18.08-.18.18-.18.18.08.18.18Z" class="cls-6"/><path id="path372" d="M58.02 54.79c0 .1-.08.18-.18.18s-.18-.08-.18-.18.08-.18.18-.18.18.08.18.18Z" class="cls-6"/><path id="path374" d="M61.99 56.12c0 .1-.08.18-.18.18s-.18-.08-.18-.18.08-.18.18-.18.18.08.18.18Z" class="cls-6"/><path id="path376" d="M66.31 56.12c0 .1-.08.18-.18.18s-.18-.08-.18-.18.08-.18.18-.18.18.08.18.18Z" class="cls-6"/><path id="path378" d="M78.26 52.7c0 .1-.08.18-.18.18s-.18-.08-.18-.18.08-.18.18-.18.18.08.18.18Z" class="cls-6"/><path id="path380" d="M88.61 49.59c0 .1-.08.18-.18.18s-.18-.08-.18-.18.08-.18.18-.18.18.08.18.18Z" class="cls-6"/><path id="path382" d="M94.49 50.68c0 .1-.08.18-.18.18s-.18-.08-.18-.18.08-.18.18-.18.18.08.18.18Z" class="cls-6"/><path id="path384" d="M117.26 50.68c0 .1-.08.18-.18.18s-.18-.08-.18-.18.08-.18.18-.18.18.08.18.18Z" class="cls-6"/><path id="path386" d="M111.86 48.31c0 .1-.08.18-.18.18s-.18-.08-.18-.18.08-.18.18-.18.18.08.18.18Z" class="cls-6"/><path id="path388" d="M114.61 45.55c0 .1-.08.18-.18.18s-.18-.08-.18-.18.08-.18.18-.18.18.08.18.18Z" class="cls-6"/><path id="path390" d="M116.6 59.31c0 .1-.08.18-.18.18s-.18-.08-.18-.18.08-.18.18-.18.18.08.18.18Z" class="cls-6"/><path id="path392" d="M112.9 60.39c0 .1-.08.18-.18.18s-.18-.08-.18-.18.08-.18.18-.18.18.08.18.18Z" class="cls-6"/><path id="path394" d="M110.76 62.53c0 .1-.08.18-.18.18s-.18-.08-.18-.18.08-.18.18-.18.18.08.18.18Z" class="cls-6"/><path id="path396" d="M108.6 64.69c0 .1-.08.18-.18.18s-.18-.08-.18-.18.08-.18.18-.18.18.08.18.18Z" class="cls-6"/><path id="path398" d="M105.98 67.27c0 .1-.08.18-.18.18s-.18-.08-.18-.18.08-.18.18-.18.18.08.18.18Z" class="cls-6"/><path id="path400" d="M97.26 66.54c0 .1-.08.18-.18.18s-.18-.08-.18-.18.08-.18.18-.18.18.08.18.18Z" class="cls-6"/><path id="path402" d="M94.46 63.74c0 .1-.08.18-.18.18s-.18-.08-.18-.18.08-.18.18-.18.18.08.18.18Z" class="cls-6"/><path id="path404" d="M91.66 60.94c0 .1-.08.18-.18.18s-.18-.08-.18-.18.08-.18.18-.18.18.08.18.18Z" class="cls-6"/><path id="path406" d="M88.85 58.14c0 .1-.08.18-.18.18s-.18-.08-.18-.18.08-.18.18-.18.18.08.18.18Z" class="cls-6"/><path id="path408" d="M40.69 54.93c0 .1-.08.18-.18.18s-.18-.08-.18-.18.08-.18.18-.18.18.08.18.18Z" class="cls-6"/><path id="path410" d="M37.18 65.66c0 .1-.08.18-.18.18s-.18-.08-.18-.18.08-.18.18-.18.18.08.18.18Z" class="cls-6"/><path id="path412" d="M30.83 72.01c0 .1-.08.18-.18.18s-.18-.08-.18-.18.08-.18.18-.18.18.08.18.18Z" class="cls-6"/><path id="path414" d="M17.92 75.3c0 .1-.08.18-.18.18s-.18-.08-.18-.18.08-.18.18-.18.18.08.18.18Z" class="cls-6"/><path id="path416" d="M15.49 82.02c0 .1-.08.18-.18.18s-.18-.08-.18-.18.08-.18.18-.18.18.08.18.18Z" class="cls-6"/><path id="path418" d="M15.49 86.19c0 .1-.08.18-.18.18s-.18-.08-.18-.18.08-.18.18-.18.18.08.18.18Z" class="cls-6"/><path id="path420" d="M15.49 97.31c0 .1-.08.18-.18.18s-.18-.08-.18-.18.08-.18.18-.18.18.08.18.18Z" class="cls-6"/><path id="path422" d="M15.49 99.84c0 .1-.08.18-.18.18s-.18-.08-.18-.18.08-.18.18-.18.18.08.18.18Z" class="cls-6"/><path id="path424" d="M15.49 102.37c0 .1-.08.18-.18.18s-.18-.08-.18-.18.08-.18.18-.18.18.08.18.18Z" class="cls-6"/><path id="path426" d="M15.49 104.9c0 .1-.08.18-.18.18s-.18-.08-.18-.18.08-.18.18-.18.18.08.18.18Z" class="cls-6"/><path id="path428" d="M5.33 97.04c0 .1-.08.18-.18.18s-.18-.08-.18-.18.08-.18.18-.18.18.08.18.18Z" class="cls-6"/><path id="path430" d="M10.98 92.68c0 .05-.04.09-.09.09s-.09-.04-.09-.09.04-.09.09-.09c.05 0 .09.04.09.09Z" class="cls-6"/><path id="path432" d="M20.59 91.03c0 .05-.04.09-.09.09s-.09-.04-.09-.09.04-.09.09-.09.09.04.09.09Z" class="cls-6"/><path id="path434" d="M17.35 94.27c0 .05-.04.09-.09.09s-.09-.04-.09-.09.04-.09.09-.09c.05 0 .09.04.09.09Z" class="cls-6"/><path id="path436" d="M18.49 90.48c0 .05-.04.09-.09.09s-.09-.04-.09-.09.04-.09.09-.09.09.04.09.09Z" class="cls-6"/><path id="path438" d="M111.01 36.35c0 .05-.04.09-.09.09s-.09-.04-.09-.09.04-.09.09-.09.09.04.09.09Z" class="cls-6"/><path id="path440" d="M31.35 87.81c0 .1-.08.18-.18.18s-.18-.08-.18-.18.08-.18.18-.18.18.08.18.18Z" class="cls-6"/><path id="path442" d="M29.06 90.04c0 .1-.08.18-.18.18s-.18-.08-.18-.18.08-.18.18-.18.18.08.18.18Z" class="cls-6"/><path id="path444" d="M40.27 85.43c0 .1-.08.18-.18.18s-.18-.08-.18-.18.08-.18.18-.18.18.08.18.18Z" class="cls-6"/><path id="path446" d="M45.54 83.98c0 .1-.08.18-.18.18s-.18-.08-.18-.18.08-.18.18-.18.18.08.18.18Z" class="cls-6"/><path id="path448" d="M51.11 79.53c0 .1-.08.18-.18.18s-.18-.08-.18-.18.08-.18.18-.18.18.08.18.18Z" class="cls-6"/><path id="path450" d="M63.25 82.49c0 .1-.08.18-.18.18s-.18-.08-.18-.18.08-.18.18-.18.18.08.18.18Z" class="cls-6"/><path id="path452" d="M67.89 82.95c0 .1-.08.18-.18.18s-.18-.08-.18-.18.08-.18.18-.18.18.08.18.18Z" class="cls-6"/><path id="path454" d="M75.83 90.29c0 .1-.08.18-.18.18s-.18-.08-.18-.18.08-.18.18-.18.18.08.18.18Z" class="cls-6"/><path id="path456" d="M78.02 88.09c0 .1-.08.18-.18.18s-.18-.08-.18-.18.08-.18.18-.18.18.08.18.18Z" class="cls-6"/><path id="path458" d="M83.48 76.28c0 .1-.08.18-.18.18s-.18-.08-.18-.18.08-.18.18-.18.18.08.18.18Z" class="cls-6"/><path id="path460" d="M83.48 65.39c0 .1-.08.18-.18.18s-.18-.08-.18-.18.08-.18.18-.18.18.08.18.18Z" class="cls-6"/><path id="path462" d="M84.26 60.57c0 .1-.08.18-.18.18s-.18-.08-.18-.18.08-.18.18-.18.18.08.18.18Z" class="cls-6"/><path id="path464" d="M78.83 47.47c0 .1-.08.18-.18.18s-.18-.08-.18-.18.08-.18.18-.18.18.08.18.18Z" class="cls-6"/><path id="path466" d="M98.13 35.17c0 .1-.08.18-.18.18s-.18-.08-.18-.18.08-.18.18-.18.18.08.18.18Z" class="cls-6"/><path id="path468" d="M110.54 22.96c0 .1-.08.18-.18.18s-.18-.08-.18-.18.08-.18.18-.18.18.08.18.18Z" class="cls-6"/><path id="path470" d="M112.89 20.62c0 .1-.08.18-.18.18s-.18-.08-.18-.18.08-.18.18-.18.18.08.18.18Z" class="cls-6"/><path id="path472" d="M108.2 25.31c0 .1-.08.18-.18.18s-.18-.08-.18-.18.08-.18.18-.18.18.08.18.18Z" class="cls-6"/><path id="path474" d="M105.86 27.65c0 .1-.08.18-.18.18s-.18-.08-.18-.18.08-.18.18-.18.18.08.18.18Z" class="cls-6"/><path id="path476" d="M103.51 29.99c0 .1-.08.18-.18.18s-.18-.08-.18-.18.08-.18.18-.18.18.08.18.18Z" class="cls-6"/><path id="path478" d="M101.17 32.33c0 .1-.08.18-.18.18s-.18-.08-.18-.18.08-.18.18-.18.18.08.18.18Z" class="cls-6"/><path id="path480" d="M98.49 37.45c0 .1-.08.18-.18.18s-.18-.08-.18-.18.08-.18.18-.18.18.08.18.18Z" class="cls-6"/><path id="path482" d="M101.87 39.17c0 .1-.08.18-.18.18s-.18-.08-.18-.18.08-.18.18-.18.18.08.18.18Z" class="cls-6"/><path id="path484" d="M105.66 39.17c0 .1-.08.18-.18.18s-.18-.08-.18-.18.08-.18.18-.18.18.08.18.18Z" class="cls-6"/><path id="path486" d="M113.72 43.03c0 .1-.08.18-.18.18s-.18-.08-.18-.18.08-.18.18-.18.18.08.18.18Z" class="cls-6"/><path id="path488" d="M103.93 43.03c0 .1-.08.18-.18.18s-.18-.08-.18-.18.08-.18.18-.18.18.08.18.18Z" class="cls-6"/><path id="path490" d="M97.54 43.03c0 .1-.08.18-.18.18s-.18-.08-.18-.18.08-.18.18-.18.18.08.18.18Z" class="cls-6"/><path id="path492" d="M87.53 44.11c0 .1-.08.18-.18.18s-.18-.08-.18-.18.08-.18.18-.18.18.08.18.18Z" class="cls-6"/><path id="path494" d="M74.89 60.86c0 .1-.08.18-.18.18s-.18-.08-.18-.18.08-.18.18-.18.18.08.18.18Z" class="cls-6"/><path id="path496" d="M121.5 106.16c0-.1-.08-.18-.18-.18s-.18.08-.18.18.08.18.18.18.18-.08.18-.18Z" class="cls-6"/><path id="path498" d="M119.01 103.67c0-.1-.08-.18-.18-.18s-.18.08-.18.18.08.18.18.18.18-.08.18-.18Z" class="cls-6"/><path id="path500" d="M116.52 101.18c0-.1-.08-.18-.18-.18s-.18.08-.18.18.08.18.18.18.18-.08.18-.18Z" class="cls-6"/><path id="path502" d="M114.03 98.69c0-.1-.08-.18-.18-.18s-.18.08-.18.18.08.18.18.18.18-.08.18-.18Z" class="cls-6"/><path id="path504" d="M111.54 96.2c0-.1-.08-.18-.18-.18s-.18.08-.18.18.08.18.18.18.18-.08.18-.18Z" class="cls-6"/><path id="path506" d="M109.05 93.71c0-.1-.08-.18-.18-.18s-.18.08-.18.18.08.18.18.18.18-.08.18-.18Z" class="cls-6"/><path id="path508" d="M106.56 91.22c0-.1-.08-.18-.18-.18s-.18.08-.18.18.08.18.18.18.18-.08.18-.18Z" class="cls-6"/><path id="path510" d="M104.07 88.74c0-.1-.08-.18-.18-.18s-.18.08-.18.18.08.18.18.18.18-.08.18-.18Z" class="cls-6"/><path id="path512" d="M101.58 86.25c0-.1-.08-.18-.18-.18s-.18.08-.18.18.08.18.18.18.18-.08.18-.18Z" class="cls-6"/><path id="path514" d="M99.1 83.76c0-.1-.08-.18-.18-.18s-.18.08-.18.18.08.18.18.18.18-.08.18-.18Z" class="cls-6"/><path id="path516" d="M93.84 78.04c0-.1-.08-.18-.18-.18s-.18.08-.18.18.08.18.18.18.18-.08.18-.18Z" class="cls-6"/><path id="path518" d="M93.72 69.52c0-.1-.08-.18-.18-.18s-.18.08-.18.18.08.18.18.18.18-.08.18-.18Z" class="cls-6"/><path id="path520" d="M89.07 68.45c0-.1-.08-.18-.18-.18s-.18.08-.18.18.08.18.18.18.18-.08.18-.18Z" class="cls-6"/><path id="path522" d="M81.95 64.95c0-.1-.08-.18-.18-.18s-.18.08-.18.18.08.18.18.18.18-.08.18-.18Z" class="cls-6"/><path id="path524" d="M81.95 60.03c0-.1-.08-.18-.18-.18s-.18.08-.18.18.08.18.18.18.18-.08.18-.18Z" class="cls-6"/><path id="path526" d="M81.95 56.81c0-.1-.08-.18-.18-.18s-.18.08-.18.18.08.18.18.18.18-.08.18-.18Z" class="cls-6"/><path id="path528" d="M35.28 78.88c0-.1-.08-.18-.18-.18s-.18.08-.18.18.08.18.18.18.18-.08.18-.18Z" class="cls-6"/><path id="path530" d="M36.71 71.21c0-.1-.08-.18-.18-.18s-.18.08-.18.18.08.18.18.18.18-.08.18-.18Z" class="cls-6"/><path id="path532" d="M35.28 88.02c0-.1-.08-.18-.18-.18s-.18.08-.18.18.08.18.18.18.18-.08.18-.18Z" class="cls-6"/><path id="path534" d="M35.28 91.35c0-.1-.08-.18-.18-.18s-.18.08-.18.18.08.18.18.18.18-.08.18-.18Z" class="cls-6"/><path id="path536" d="M35.22 93.85c0-.1-.08-.18-.18-.18s-.18.08-.18.18.08.18.18.18.18-.08.18-.18Z" class="cls-6"/><path id="path538" d="M33.85 96.16c0-.1-.08-.18-.18-.18s-.18.08-.18.18.08.18.18.18.18-.08.18-.18Z" class="cls-6"/><path id="path540" d="M39.36 102.75c-.29 0-.53.24-.53.53s.24.53.53.53.53-.24.53-.53-.24-.53-.53-.53Z" class="cls-12"/><path id="path542" d="M39.7 103.28c0 .19-.15.34-.34.34s-.34-.15-.34-.34.15-.34.34-.34.34.15.34.34Z" class="cls-26"/><path id="path544" d="M43.21 90.74a.29.29 0 1 1 .58 0 .29.29 0 0 1-.58 0Z" class="cls-12"/><path id="path546" d="M50.88 88.63a.29.29 0 0 0-.58 0c0 .11.07.21.16.26l-.13 2.76c-.11.04-.19.15-.19.27a.29.29 0 0 0 .58 0c0-.11-.07-.21-.16-.26l.13-2.76c.11-.04.19-.15.19-.27Z" class="cls-12"/><path id="path548" d="M43.68 85.22a.29.29 0 1 1 .58 0 .29.29 0 0 1-.58 0Z" class="cls-12"/><path id="path550" d="M47.35 81.7a.29.29 0 1 1 .58 0 .29.29 0 0 1-.58 0Z" class="cls-12"/><path id="path552" d="M73.09 82.95a.29.29 0 1 1 .58 0 .29.29 0 0 1-.58 0Z" class="cls-12"/><path id="path554" d="M92.84 84.57a.29.29 0 1 1 .58 0 .29.29 0 0 1-.58 0Z" class="cls-12"/><path id="path556" d="M96.14 81.27a.29.29 0 1 1 .58 0 .29.29 0 0 1-.58 0Z" class="cls-12"/><path id="path558" d="M93.26 72.49a.29.29 0 1 1 .58 0 .29.29 0 0 1-.58 0Z" class="cls-12"/><path id="path560" d="M43.57 60.44a.29.29 0 1 1 .58 0 .29.29 0 0 1-.58 0Z" class="cls-12"/><path id="path562" d="M43.57 51.01a.29.29 0 1 1 .58 0 .29.29 0 0 1-.58 0Z" class="cls-12"/><path id="path564" d="M40.14 60.44a.29.29 0 1 1 .58 0 .29.29 0 0 1-.58 0Z" class="cls-12"/><path id="path566" d="M39.72 36.98a.29.29 0 1 1 .58 0 .29.29 0 0 1-.58 0Z" class="cls-12"/><path id="path568" d="M45.14 31.48a.29.29 0 1 1 .58 0 .29.29 0 0 1-.58 0Z" class="cls-12"/><path id="path570" d="M55.02 30.96a.29.29 0 1 1 .58 0 .29.29 0 0 1-.58 0Z" class="cls-12"/><path id="path572" d="M63.24 22.74a.29.29 0 1 1 .58 0 .29.29 0 0 1-.58 0Z" class="cls-12"/><path id="path574" d="M71.46 30.96a.29.29 0 1 1 .58 0 .29.29 0 0 1-.58 0Z" class="cls-12"/><path id="path576" d="M93.49 43.03a.29.29 0 1 1 .58 0 .29.29 0 0 1-.58 0Z" class="cls-12"/><path id="path578" d="M99.57 50.68a.29.29 0 1 1 .58 0 .29.29 0 0 1-.58 0Z" class="cls-12"/><path id="path580" d="M69.1 56.12a.29.29 0 1 1 .58 0 .29.29 0 0 1-.58 0Z" class="cls-12"/><path id="path582" d="M55.58 58.3a.29.29 0 1 1 .58 0 .29.29 0 0 1-.58 0Z" class="cls-12"/><path id="path584" d="M15.02 90.48a.29.29 0 1 1 .58 0 .29.29 0 0 1-.58 0Z" class="cls-12"/><path id="path586" d="M15.02 94.78a.29.29 0 1 1 .58 0 .29.29 0 0 1-.58 0Z" class="cls-12"/><path id="path588" d="M55.85 92.69c-.11.11-.3.11-.41 0s-.11-.3 0-.41l.41-.41c.11-.11.3-.11.41 0s.11.3 0 .41l-.41.41Z" class="cls-12"/><path id="path590" d="M35.4 86a.29.29 0 0 1-.58 0v-.59a.29.29 0 0 1 .58 0V86Z" class="cls-12"/><path id="path592" d="M22.22 75.37a.29.29 0 1 1 .58 0 .29.29 0 0 1-.58 0Z" class="cls-12"/><path id="path594" d="M56.55 79.62a.29.29 0 0 1-.58 0v-.59a.29.29 0 0 1 .58 0v.59Z" class="cls-12"/><path id="path596" d="M46.97 60.45a.29.29 0 1 1 .58 0 .29.29 0 0 1-.58 0Z" class="cls-12"/><path id="path598" d="M48.79 58.63s-.06 0-.09.02l-.8-.88c.11-.04.18-.15.18-.27a.29.29 0 0 0-.29-.29h-.59a.29.29 0 0 0 0 .58h.4l.92 1.01s-.03.08-.03.12a.29.29 0 1 0 .29-.29Z" class="cls-12"/><path id="path600" d="M55.58 49.24a.29.29 0 1 1 .58 0 .29.29 0 0 1-.58 0Z" class="cls-12"/><path id="path602" d="M71.67 49.74a.29.29 0 0 1-.58 0v-.59a.29.29 0 0 1 .58 0v.59Z" class="cls-12"/><path id="path604" d="M75.99 49.86c-.11.11-.3.11-.41 0a.296.296 0 0 1 0-.41l.41-.41c.11-.11.3-.11.41 0 .11.11.11.3 0 .41l-.41.41Z" class="cls-12"/><path id="path606" d="M67.06 49.74a.29.29 0 0 1-.58 0v-.59a.29.29 0 0 1 .58 0v.59Z" class="cls-12"/><path id="path608" d="M62.44 49.74a.29.29 0 0 1-.58 0v-.59a.29.29 0 0 1 .58 0v.59Z" class="cls-12"/><path id="path610" d="M80.1 50.73a.296.296 0 0 1 0-.41l.72-.72c.11-.11.3-.11.41 0l.26.26c.11.11.11.3 0 .41l-.72.72c-.11.11-.3.11-.41 0l-.26-.26Z" class="cls-12"/><path id="path612" d="M76.29 55.24c.11.11.11.3 0 .41-.11.11-.3.11-.41 0l-.41-.41a.296.296 0 0 1 0-.41c.11-.11.3-.11.41 0l.41.41Z" class="cls-12"/><path id="path614" d="M85.83 55.38c-.11.11-.3.11-.41 0a.296.296 0 0 1 0-.41l.41-.41c.11-.11.3-.11.41 0 .11.11.11.3 0 .41l-.41.41Z" class="cls-12"/><path id="path616" d="M57.22 63.75a.29.29 0 0 1-.58 0v-.59a.29.29 0 0 1 .58 0v.59Z" class="cls-12"/><path id="path618" d="M82.8 69.43c-.11.11-.3.11-.41 0a.296.296 0 0 1 0-.41l.79-.79c.11-.11.3-.11.41 0 .11.11.11.3 0 .41l-.79.79Z" class="cls-12"/><path id="path620" d="M77.09 42.29a.29.29 0 0 1 0 .58h-.59a.29.29 0 0 1 0-.58h.59Z" class="cls-12"/><path id="path622" d="M86.17 31.49a.29.29 0 0 1-.58 0v-.59a.29.29 0 0 1 .58 0v.59Z" class="cls-12"/><path id="path624" d="M92.26 36.45c-.11.11-.3.11-.41 0a.296.296 0 0 1 0-.41l.41-.41c.11-.11.3-.11.41 0 .11.11.11.3 0 .41l-.41.41Z" class="cls-12"/><path id="path626" d="M109.98 42.48a.29.29 0 0 1 .58 0v.59a.29.29 0 0 1-.58 0v-.59Z" class="cls-12"/><path id="path628" d="M73.85 93.33a.54.54 0 0 0-.44.23h-.18a.29.29 0 0 0 0 .58h.18a.534.534 0 0 0 .97-.3c0-.29-.24-.53-.53-.53Z" class="cls-12"/><path id="path630" d="M74.26 93.85c0 .23-.18.41-.41.41s-.41-.18-.41-.41.18-.41.41-.41.41.18.41.41Z" style="stroke:#fff;stroke-width:.12px;stroke-miterlimit:1.06;fill:#f57928"/><path id="path632" d="M29.26 57.06a.41.41 0 1 1-.58-.58.41.41 0 0 1 .58.58Z" class="cls-35"/><path id="path634" d="M78.84 85.67a.41.41 0 1 1 .58.58.41.41 0 0 1-.58-.58Z" style="stroke:#fff;stroke-width:.12px;stroke-miterlimit:1.06;fill:#d1a01c"/><path id="path636" d="M98.58 69.13a.41.41 0 1 1 .58-.58.41.41 0 0 1-.58.58Z" class="cls-35"/><path id="path638" d="M99.57 68.12a.41.41 0 1 1 .58-.58.41.41 0 0 1-.58.58Z" style="stroke:#fff;stroke-width:.12px;stroke-miterlimit:1.06;fill:#1c4b9c"/><path id="path640" d="M109.3 49.95a.5.5 0 0 0-.14.47l-.12.12c-.11.11-.11.3 0 .41.11.11.3.11.41 0l.12-.12c.17.03.35-.02.47-.14.21-.21.21-.54 0-.74a.513.513 0 0 0-.74 0Z" class="cls-12"/><path id="path642" d="M109.96 50.03a.41.41 0 1 1-.58.58.41.41 0 0 1 .58-.58Z" class="cls-37"/><path id="path644" d="M116.97 43.77a.5.5 0 0 0 .14-.47l.12-.12c.11-.11.11-.3 0-.41a.296.296 0 0 0-.41 0l-.12.12a.537.537 0 0 0-.47.14c-.21.21-.21.54 0 .74.21.21.54.21.74 0Z" class="cls-12"/><path id="path646" d="M116.3 43.69a.41.41 0 1 1 .58-.58.41.41 0 0 1-.58.58Z" class="cls-37"/><path id="path648" d="M84.58 37.51a.5.5 0 0 0-.47-.14l-.12-.12a.296.296 0 0 0-.41 0c-.11.11-.11.3 0 .41l.12.12c-.03.17.02.35.14.47.21.21.54.21.74 0 .21-.21.21-.54 0-.74Z" class="cls-12"/><path id="path650" d="M84.5 38.18a.41.41 0 1 1-.58-.58.41.41 0 0 1 .58.58Z" class="cls-35"/><path id="path652" d="M46.64 43.63a.41.41 0 1 1-.58-.58.41.41 0 0 1 .58.58Z" style="stroke:#fff;stroke-width:.12px;stroke-miterlimit:1.06;fill:#450d7a"/><path id="path654" d="M32.26 97.95c0 .19-.15.34-.34.34s-.34-.15-.34-.34.15-.34.34-.34.34.15.34.34Z" class="cls-17"/><path id="path656" d="M15.31 106.9c-.29 0-.53.24-.53.53s.24.53.53.53.53-.24.53-.53-.24-.53-.53-.53Z" class="cls-12"/><path id="path658" d="M15.65 107.43c0 .19-.15.34-.34.34s-.34-.15-.34-.34.15-.34.34-.34.34.15.34.34Z" class="cls-21"/><path id="path660" d="M5.15 102.75c-.29 0-.53.24-.53.53s.24.53.53.53.53-.24.53-.53-.24-.53-.53-.53Z" class="cls-12"/><path id="path662" d="M5.49 103.28c0 .19-.15.34-.34.34s-.34-.15-.34-.34.15-.34.34-.34.34.15.34.34Z" class="cls-23"/><path id="path664" d="M11.24 58.89c-.29 0-.53.24-.53.53s.24.53.53.53.53-.24.53-.53-.24-.53-.53-.53Z" class="cls-12"/><path id="path666" d="M11.58 59.42c0 .19-.15.34-.34.34s-.34-.15-.34-.34.15-.34.34-.34.34.15.34.34Z" style="fill:#1c4b9c"/><path id="path668" d="M5.49 32.96c0 .19-.15.34-.34.34s-.34-.15-.34-.34.15-.34.34-.34.34.15.34.34Z" class="cls-3"/><path id="path670" d="M18.24 14.68c-.29 0-.53.24-.53.53s.24.53.53.53.53-.24.53-.53-.24-.53-.53-.53Z" class="cls-12"/><path id="path672" d="M18.57 15.21c0 .19-.15.34-.34.34s-.34-.15-.34-.34.15-.34.34-.34.34.15.34.34Z" class="cls-19"/><path id="path674" d="M32 6.61c-.29 0-.53.24-.53.53s.24.53.53.53.53-.24.53-.53-.24-.53-.53-.53Z" class="cls-12"/><path id="path676" d="M32.34 7.14c0 .19-.15.34-.34.34s-.34-.15-.34-.34.15-.34.34-.34.34.15.34.34Z" class="cls-36"/><path id="path678" d="M70.61 3.52c-.29 0-.53.24-.53.53s.24.53.53.53.53-.24.53-.53-.24-.53-.53-.53Z" class="cls-12"/><path id="path680" d="M70.95 4.05c0 .19-.15.34-.34.34s-.34-.15-.34-.34.15-.34.34-.34.34.15.34.34Z" class="cls-36"/><path id="path682" d="M59.96 12.29c-.29 0-.53.24-.53.53s.24.53.53.53.53-.24.53-.53-.24-.53-.53-.53Z" class="cls-12"/><path id="path684" d="M60.29 12.82c0 .19-.15.34-.34.34s-.34-.15-.34-.34.15-.34.34-.34.34.15.34.34Z" class="cls-18"/><path id="path686" d="M66.22 100.83c0 .19-.15.34-.34.34s-.34-.15-.34-.34.15-.34.34-.34.34.15.34.34Z" class="cls-18"/><path id="path688" d="M67.11 12.29c-.29 0-.53.24-.53.53s.24.53.53.53.53-.24.53-.53-.24-.53-.53-.53Z" class="cls-12"/><path id="path690" d="M67.45 12.82c0 .19-.15.34-.34.34s-.34-.15-.34-.34.15-.34.34-.34.34.15.34.34Z" class="cls-26"/><path id="path692" d="M59.67 111.25c-.29 0-.53.24-.53.53s.24.53.53.53.53-.24.53-.53-.24-.53-.53-.53Z" class="cls-12"/><path id="path694" d="M60.01 111.78c0 .19-.15.34-.34.34s-.34-.15-.34-.34.15-.34.34-.34.34.15.34.34Z" class="cls-36"/><path id="path696" d="M123.81 108.12c-.29 0-.53.24-.53.53s.24.53.53.53.53-.24.53-.53-.24-.53-.53-.53Z" class="cls-12"/><path id="path698" d="M124.15 108.65c0 .19-.15.34-.34.34s-.34-.15-.34-.34.15-.34.34-.34.34.15.34.34Z" class="cls-17"/><path id="path700" d="M85.26 104.25c-.29 0-.53.24-.53.53s.24.53.53.53.53-.24.53-.53-.24-.53-.53-.53Z" class="cls-12"/><g id="g702"><path id="path704" d="M85.6 104.78c0 .19-.15.34-.34.34s-.34-.15-.34-.34.15-.34.34-.34.34.15.34.34Z" class="cls-68"/></g><path id="path706" d="M73.38 113.24c-.29 0-.53.24-.53.53s.24.53.53.53.53-.24.53-.53-.24-.53-.53-.53Z" class="cls-12"/><g id="g708"><path id="path710" d="M73.72 113.76c0 .19-.15.34-.34.34s-.34-.15-.34-.34.15-.34.34-.34.34.15.34.34Z" class="cls-68"/></g><g id="g712"><path id="path714" d="M99.35 12.82c0 .19-.15.34-.34.34s-.34-.15-.34-.34.15-.34.34-.34.34.15.34.34Z" class="cls-68"/></g><path id="path716" d="M113.05 20.62c0 .19-.15.34-.34.34s-.34-.15-.34-.34.15-.34.34-.34.34.15.34.34Z" style="fill:#f57928"/><path id="path718" d="M113 37.92c-.29 0-.53.24-.53.53s.24.53.53.53.53-.24.53-.53-.24-.53-.53-.53Z" class="cls-12"/><path id="path720" d="M113.33 38.44c0 .19-.15.34-.34.34s-.34-.15-.34-.34.15-.34.34-.34.34.15.34.34Z" class="cls-34"/><path id="path722" d="M65.08 62.36c.23 0 .41.18.41.41s-.18.41-.41.41-.41-.18-.41-.41.18-.41.41-.41Z" style="stroke:#fff;stroke-width:.12px;stroke-miterlimit:1.06;fill:#753d0d"/><path id="path724" d="M120.41 50.15c-.29 0-.53.24-.53.53s.24.53.53.53.53-.24.53-.53-.24-.53-.53-.53Z" class="cls-12"/><path id="path726" d="M120.74 50.68c0 .19-.15.34-.34.34s-.34-.15-.34-.34.15-.34.34-.34.34.15.34.34Z" class="cls-19"/><path id="path728" d="M120.41 42.5c-.29 0-.53.24-.53.53s.24.53.53.53.53-.24.53-.53-.24-.53-.53-.53Z" class="cls-12"/><path id="path730" d="M120.74 43.03c0 .19-.15.34-.34.34s-.34-.15-.34-.34.15-.34.34-.34.34.15.34.34Z" style="fill:#753d0d"/><path id="path732" d="M120.41 58.78c-.29 0-.53.24-.53.53s.24.53.53.53.53-.24.53-.53-.24-.53-.53-.53Z" class="cls-12"/><path id="path734" d="M120.74 59.31c0 .19-.15.34-.34.34s-.34-.15-.34-.34.15-.34.34-.34.34.15.34.34Z" class="cls-21"/><path id="path736" d="M120.41 78.33c-.29 0-.53.24-.53.53s.24.53.53.53.53-.24.53-.53-.24-.53-.53-.53Z" class="cls-12"/><path id="path738" d="M120.74 78.85c0 .19-.15.34-.34.34s-.34-.15-.34-.34.15-.34.34-.34.34.15.34.34Z" class="cls-3"/><path id="path740" d="M45.14 23.1a.29.29 0 1 1 .58 0 .29.29 0 0 1-.58 0Z" class="cls-12"/><path id="path742" d="M73.09 99.65a.29.29 0 1 1 .58 0 .29.29 0 0 1-.58 0Z" class="cls-12"/><path id="path744" d="M82.75 96.5c-.29 0-.53.24-.53.53s.24.53.53.53.53-.24.53-.53-.24-.53-.53-.53Z" class="cls-12"/><path id="path746" d="M83.09 97.02c0 .19-.15.34-.34.34s-.34-.15-.34-.34.15-.34.34-.34.34.15.34.34Z" style="fill:#450d7a"/><path id="path748" d="M22.83 90.6a.29.29 0 1 1 .58 0 .29.29 0 0 1-.58 0Z" class="cls-12"/><path id="path750" d="M81 40.16a.29.29 0 1 1 .58 0 .29.29 0 0 1-.58 0Z" class="cls-12"/><path id="path752" d="M70.18 63.33a.29.29 0 0 1-.58 0v-.59a.29.29 0 0 1 .58 0v.59Z" class="cls-12"/><path id="path754" d="M21.45 18.43c-.07.07-.18.07-.25 0a.175.175 0 0 1 0-.25c.07-.07.18-.07.25 0s.07.18 0 .25Z" class="cls-6"/><path id="path756" d="M27.64 24.61c-.07.07-.18.07-.25 0s-.07-.18 0-.25.18-.07.25 0 .07.18 0 .25Z" class="cls-6"/><path id="path758" d="M24.55 21.52c-.07.07-.18.07-.25 0a.175.175 0 0 1 0-.25c.07-.07.18-.07.25 0s.07.18 0 .25Z" class="cls-6"/><path id="path762" d="m65.59 60.12.84.84" class="cls-6"/><path id="path766" d="M76.79 36.38h1.5" class="cls-6"/><g id="use2682"><path id="path8268" d="M62.89 77.52c0 .38-.31.69-.69.69s-.69-.31-.69-.69.31-.69.69-.69.69.31.69.69Z" class="cls-58"/><path id="path8270" d="M62.46 77.21v.11s-.07-.06-.11-.07c-.04-.02-.08-.02-.12-.02a.24.24 0 0 0-.19.08c-.05.05-.07.13-.07.22s.02.17.07.22c.05.05.11.08.19.08.04 0 .08 0 .12-.02.04-.02.07-.04.11-.07v.1s-.07.04-.11.05c-.04.01-.08.02-.12.02-.11 0-.2-.03-.27-.1-.06-.07-.1-.16-.1-.28s.03-.21.1-.28c.06-.07.15-.1.27-.1.04 0 .09 0 .13.02.04.01.08.03.11.05" class="cls-5"/></g><g id="use2682-2"><path id="path8268-2" d="M46.36 65.43c0 .38-.31.69-.69.69s-.69-.31-.69-.69.31-.69.69-.69c.38 0 .69.31.69.69Z" class="cls-58"/><path id="path8270-2" d="M45.94 65.11v.11s-.07-.06-.11-.07c-.04-.02-.08-.02-.12-.02a.24.24 0 0 0-.19.08c-.05.05-.07.13-.07.22s.02.17.07.22c.05.05.11.08.19.08.04 0 .08 0 .12-.02.04-.02.07-.04.11-.07v.1s-.07.04-.11.05c-.04.01-.08.02-.12.02-.11 0-.2-.03-.27-.1-.06-.07-.1-.16-.1-.28s.03-.21.1-.28c.06-.07.15-.1.27-.1.04 0 .09 0 .13.02.04.01.08.03.11.05" class="cls-5"/></g><g id="use2682-3"><path id="path8268-3" d="M28.98 81.34c0 .38-.31.69-.69.69s-.69-.31-.69-.69.31-.69.69-.69.69.31.69.69Z" class="cls-58"/><path id="path8270-3" d="M28.55 81.02v.11s-.07-.06-.11-.07c-.04-.02-.08-.02-.12-.02a.24.24 0 0 0-.19.08c-.05.05-.07.13-.07.22s.02.17.07.22c.05.05.11.08.19.08.04 0 .08 0 .12-.02.04-.02.07-.04.11-.07v.1s-.07.04-.11.05c-.04.01-.08.02-.12.02-.11 0-.2-.03-.27-.1-.06-.07-.1-.16-.1-.28s.03-.21.1-.28c.06-.07.15-.1.27-.1.04 0 .09 0 .13.02.04.01.08.03.11.05" class="cls-5"/></g><g id="use2682-4"><path id="path8268-4" d="M17.31 79.38c0 .38-.31.69-.69.69s-.69-.31-.69-.69.31-.69.69-.69c.38 0 .69.31.69.69Z" class="cls-58"/><path id="path8270-4" d="M16.88 79.06v.11s-.07-.06-.11-.07c-.04-.02-.08-.02-.12-.02a.24.24 0 0 0-.19.08c-.05.05-.07.13-.07.22s.02.17.07.22c.05.05.11.08.19.08.04 0 .08 0 .12-.02.04-.02.07-.04.11-.07v.1s-.07.04-.11.05c-.04.01-.08.02-.12.02-.11 0-.2-.03-.27-.1-.06-.07-.1-.16-.1-.28s.03-.21.1-.28c.06-.07.15-.1.27-.1.04 0 .09 0 .13.02.04.01.08.03.11.05" class="cls-5"/></g><g id="use2682-5"><path id="path8268-5" d="M23.35 47.41c0 .38-.31.69-.69.69s-.69-.31-.69-.69.31-.69.69-.69.69.31.69.69Z" class="cls-58"/><path id="path8270-5" d="M22.93 47.1v.11s-.07-.06-.11-.07c-.04-.02-.08-.02-.12-.02a.24.24 0 0 0-.19.08c-.05.05-.07.13-.07.22s.02.17.07.22c.05.05.11.08.19.08.04 0 .08 0 .12-.02.04-.02.07-.04.11-.07v.1s-.07.04-.11.05c-.04.01-.08.02-.12.02-.11 0-.2-.03-.27-.1-.06-.07-.1-.16-.1-.28s.03-.21.1-.28c.06-.07.15-.1.27-.1.04 0 .09 0 .13.02.04.01.08.03.11.05" class="cls-5"/></g><g id="use2682-6"><path id="path8268-6" d="M76.58 85.96c0 .38-.31.69-.69.69s-.69-.31-.69-.69.31-.69.69-.69c.38 0 .69.31.69.69Z" class="cls-58"/><path id="path8270-6" d="M76.15 85.65v.11s-.07-.06-.11-.07c-.04-.02-.08-.02-.12-.02a.24.24 0 0 0-.19.08c-.05.05-.07.13-.07.22s.02.17.07.22c.05.05.11.08.19.08.04 0 .08 0 .12-.02.04-.02.07-.04.11-.07v.1s-.07.04-.11.05c-.04.01-.08.02-.12.02-.11 0-.2-.03-.27-.1-.06-.07-.1-.16-.1-.28s.03-.21.1-.28c.06-.07.15-.1.27-.1.04 0 .09 0 .13.02.04.01.08.03.11.05" class="cls-5"/></g><g id="use2682-7"><path id="path8268-7" d="M95.5 98.17c0 .38-.31.69-.69.69s-.69-.31-.69-.69.31-.69.69-.69.69.31.69.69Z" class="cls-58"/><path id="path8270-7" d="M95.07 97.86v.11s-.07-.06-.11-.07c-.04-.02-.08-.02-.12-.02a.24.24 0 0 0-.19.08c-.05.05-.07.13-.07.22s.02.17.07.22c.05.05.11.08.19.08.04 0 .08 0 .12-.02.04-.02.07-.04.11-.07v.1s-.07.04-.11.05c-.04.01-.08.02-.12.02-.11 0-.2-.03-.27-.1-.06-.07-.1-.16-.1-.28s.03-.21.1-.28c.06-.07.15-.1.27-.1.04 0 .09 0 .13.02.04.01.08.03.11.05" class="cls-5"/></g><g id="use2596"><path id="path9667" d="M51.4 51.72c0 .39-.31.7-.7.7s-.7-.31-.7-.7.31-.7.7-.7.7.31.7.7Z" class="cls-61"/><path id="path9669" d="M50.46 51.34h.48v.09h-.37v.22h.36v.09h-.36v.27h.38v.09h-.49v-.75" class="cls-25"/></g><path id="path9671" d="M55.96 51.68h-.41c-.14 0-.14 0-.25.12l-.21.21s-.05.06-.06.1c-.83-.1-2.14-.26-2.2-.26-.02-.02-.72-.79-1.57-1.72l.96-.64s.1.05.16.05a.29.29 0 1 0-.29-.29v.05l-.99.66a667.96 667.96 0 0 0-2.96-3.23l-1.39-3.03s.01-.02.02-.03a.52.52 0 0 0-.05-.69.542.542 0 0 0-.46-.15l-.85-.84a.296.296 0 0 0-.41 0c-.11.11-.11.3 0 .41l.71.71.12.12c-.03.17.02.35.14.47.16.16.39.19.58.11.25.54 1.29 2.81 1.34 2.92-.08.09-1.64 1.97-2.16 2.6-.03 0-.05-.01-.08-.01a.29.29 0 1 0 .26.16l2.12-2.55 2.87 3.13-1.47.98a.763.763 0 0 0-.27-.05c-.39 0-.7.31-.7.7s.31.7.7.7.7-.31.7-.7c0-.2-.08-.38-.22-.51l1.42-.95 1.65 1.81 2.32.28s.03.06.06.08l.65.65c.05.07.14.11.23.11.16 0 .29-.13.29-.29v-.91a.29.29 0 0 0-.29-.29Z" class="cls-12"/><path id="path9673" d="M48.85 51.73s.02 0 .02.01l.02.04.08.15h-.09l-.05-.11v-.01c-.01-.03-.03-.05-.05-.05h-.03v.17h-.08v-.42h.12c.05 0 .09 0 .12.03.02.02.04.05.04.09 0 .03 0 .05-.02.07-.01.02-.03.03-.06.03m-.11-.15v.11h.04s.04 0 .05-.01c0 0 .01-.02.01-.04s0-.04-.01-.04c0 0-.03-.01-.05-.01h-.04m.53.35h-.26v-.42h.26v.07h-.18v.09h.16v.07h-.16v.11h.18v.07m.26-.2s.02 0 .02.01l.02.04.08.15h-.09l-.05-.11v-.01c-.01-.03-.03-.05-.05-.05h-.03v.17h-.08v-.42h.12c.05 0 .09 0 .12.03.02.02.04.05.04.09 0 .03 0 .05-.02.07-.01.02-.03.03-.06.03m-.11-.15v.11h.04s.04 0 .05-.01c0 0 .01-.02.01-.04s0-.04-.01-.04c0 0-.03-.01-.05-.01h-.04"/><g id="use2581"><path id="path9676" d="M49.85 53.23c0 .38-.31.69-.69.69s-.69-.31-.69-.69.31-.69.69-.69.69.31.69.69Z" class="cls-59"/><path id="path9678" d="m49.16 52.96-.14.37h.27l-.14-.37m-.06-.1h.11l.28.74h-.1l-.07-.19h-.33l-.07.19h-.11l.28-.74" class="cls-16"/></g><g id="use2581-2"><path id="path8020" d="M33.12 56.74c0 .38-.31.69-.69.69s-.69-.31-.69-.69.31-.69.69-.69c.38 0 .69.31.69.69Z" class="cls-59"/><path id="path9682" d="m32.43 56.47-.14.37h.27l-.14-.37m-.06-.1h.11l.28.74h-.1l-.07-.19h-.33l-.07.19h-.11l.28-.74" class="cls-16"/></g><path id="path9684" d="M30.58 56.78s.02 0 .02.01l.02.04.08.15h-.09l-.05-.11v-.01c-.01-.03-.03-.05-.05-.05h-.03v.17h-.08v-.42h.12c.05 0 .09 0 .12.03.02.02.04.05.04.09 0 .03 0 .05-.02.07-.01.02-.03.03-.06.03m-.11-.15v.11h.04s.04 0 .05-.01c0 0 .01-.02.01-.04s0-.04-.01-.04c0 0-.03-.01-.05-.01h-.04m.53.35h-.26v-.42h.26v.07h-.18v.09H31v.07h-.16v.11h.18v.07m.26-.2s.02 0 .02.01l.02.04.08.15h-.09l-.05-.11v-.01c-.01-.03-.03-.05-.05-.05h-.03v.17h-.08v-.42h.12c.05 0 .09 0 .12.03.02.02.04.05.04.09 0 .03 0 .05-.02.07-.01.02-.03.03-.06.03m-.11-.15v.11h.04s.04 0 .05-.01c0 0 .01-.02.01-.04s0-.04-.01-.04c0 0-.03-.01-.05-.01h-.04"/><path id="path9686" d="M3.37 32.94s.02 0 .02.01l.02.04.08.15H3.4l-.05-.11v-.01c-.01-.03-.03-.05-.05-.05h-.03v.17h-.08v-.42h.12c.05 0 .09 0 .12.03.02.02.04.05.04.09 0 .03 0 .05-.02.07-.01.02-.03.03-.06.03m-.11-.15v.11h.04s.04 0 .05-.01c0 0 .01-.02.01-.04s0-.04-.01-.04c0 0-.03-.01-.05-.01h-.04m.53.35h-.26v-.42h.26v.07h-.18v.09h.16v.07h-.16v.11h.18v.07m.26-.2s.02 0 .02.01l.02.04.08.15H4.1l-.05-.11v-.01c-.01-.03-.03-.05-.05-.05h-.03v.17h-.08v-.42h.12c.05 0 .09 0 .12.03.02.02.04.05.04.09 0 .03 0 .05-.02.07-.01.02-.03.03-.06.03m-.11-.15v.11h.04s.04 0 .05-.01c0 0 .01-.02.01-.04s0-.04-.01-.04c0 0-.03-.01-.05-.01h-.04"/><path id="path9688" d="M66.32 61.45s.02 0 .02.01l.02.04.08.15h-.09l-.05-.11v-.01c-.01-.03-.03-.05-.05-.05h-.03v.17h-.08v-.42h.12c.05 0 .09 0 .12.03.02.02.04.05.04.09 0 .03 0 .05-.02.07-.01.02-.03.03-.06.03m-.11-.15v.11h.04s.04 0 .05-.01c0 0 .01-.02.01-.04s0-.04-.01-.04c0 0-.03-.01-.05-.01h-.04m.53.35h-.26v-.42h.26v.07h-.18v.09h.16v.07h-.16v.11h.18v.07m.26-.2s.02 0 .02.01l.02.04.08.15h-.09l-.05-.11v-.01c-.01-.03-.03-.05-.05-.05h-.03v.17h-.08v-.42h.12c.05 0 .09 0 .12.03.02.02.04.05.04.09 0 .03 0 .05-.02.07-.01.02-.03.03-.06.03m-.11-.15v.11h.04s.04 0 .05-.01c0 0 .01-.02.01-.04s0-.04-.01-.04c0 0-.03-.01-.05-.01h-.04"/><path id="path9690" d="M78 36.39s.02 0 .02.01l.02.04.08.15h-.09l-.05-.11v-.01c-.01-.03-.03-.05-.05-.05h-.03v.17h-.08v-.42h.12c.05 0 .09 0 .12.03.02.02.04.05.04.09 0 .03 0 .05-.02.07-.01.02-.03.03-.06.03m-.11-.15v.11h.04s.04 0 .05-.01c0 0 .01-.02.01-.04s0-.04-.01-.04c0 0-.03-.01-.05-.01h-.04m.53.35h-.26v-.42h.26v.07h-.18v.09h.16v.07h-.16v.11h.18v.07m.26-.2s.02 0 .02.01l.02.04.08.15h-.09l-.05-.11v-.01c-.01-.03-.03-.05-.05-.05h-.03v.17h-.08v-.42h.12c.05 0 .09 0 .12.03.02.02.04.05.04.09 0 .03 0 .05-.02.07-.01.02-.03.03-.06.03m-.11-.15v.11h.04s.04 0 .05-.01c0 0 .01-.02.01-.04s0-.04-.01-.04c0 0-.03-.01-.05-.01h-.04"/><path id="path9692" d="M20.72 47.43s.02 0 .02.01l.02.04.08.15h-.09l-.05-.11v-.01c-.01-.03-.03-.05-.05-.05h-.03v.17h-.08v-.42h.12c.05 0 .09 0 .12.03.02.02.04.05.04.09 0 .03 0 .05-.02.07-.01.02-.03.03-.06.03m-.11-.15v.11h.04s.04 0 .05-.01c0 0 .01-.02.01-.04s0-.04-.01-.04c0 0-.03-.01-.05-.01h-.04m.53.35h-.26v-.42h.26v.07h-.18v.09h.16v.07h-.16v.11h.18v.07m.26-.2s.02 0 .02.01l.02.04.08.15h-.09l-.05-.11v-.01c-.01-.03-.03-.05-.05-.05h-.03v.17h-.08v-.42h.12c.05 0 .09 0 .12.03.02.02.04.05.04.09 0 .03 0 .05-.02.07-.01.02-.03.03-.06.03m-.11-.15v.11h.04s.04 0 .05-.01c0 0 .01-.02.01-.04s0-.04-.01-.04c0 0-.03-.01-.05-.01h-.04"/><path id="path9694" d="M17.32 77.75v-.25s0-.01-.01-.02c0 0 0-.01-.01-.02 0 0 0-.02-.02-.02 0 0-.01-.02-.02-.02 0 0-.01-.02-.02-.02 0 0-.01-.02-.02-.02s-.01-.02-.02-.02a.708.708 0 0 0-.48-.19H16.49s-.02 0-.02.01c0 0-.02 0-.03.01 0 0-.02 0-.03.01 0 0-.02.01-.03.02 0 0-.02.01-.03.02 0 0-.02.01-.03.02-.14.11-.23.26-.26.44h-.35a.31.31 0 0 0-.27-.18.29.29 0 1 0 .27.4h.35s.01.06.02.09a.703.703 0 0 0 1.29.12c.05-.1.08-.21.08-.33v-.06Z" class="cls-12"/><path id="path9696" d="M16.31 77.82s.02 0 .02.01l.02.04.08.15h-.09l-.05-.11v-.01c-.01-.03-.03-.05-.05-.05h-.03v.17h-.08v-.42h.12c.05 0 .09 0 .12.03.02.02.04.05.04.09 0 .03 0 .05-.02.07-.01.02-.03.03-.06.03m-.11-.15v.11h.04s.04 0 .05-.01c0 0 .01-.02.01-.04s0-.04-.01-.04c0 0-.03-.01-.05-.01h-.04m.53.35h-.26v-.42h.26v.07h-.18v.09h.16v.07h-.16v.11h.18v.07m.26-.2s.02 0 .02.01l.02.04.08.15h-.09l-.05-.11v-.01c-.01-.03-.03-.05-.05-.05h-.03v.17h-.08v-.42h.12c.05 0 .09 0 .12.03.02.02.04.05.04.09 0 .03 0 .05-.02.07-.01.02-.03.03-.06.03m-.11-.15v.11h.04s.04 0 .05-.01c0 0 .01-.02.01-.04s0-.04-.01-.04c0 0-.03-.01-.05-.01h-.04"/><path id="path9698" d="M26.32 81.3s.02 0 .02.01l.02.04.08.15h-.09l-.05-.11v-.01c-.01-.03-.03-.05-.05-.05h-.03v.17h-.08v-.42h.12c.05 0 .09 0 .12.03.02.02.04.05.04.09 0 .03 0 .05-.02.07-.01.02-.03.03-.06.03m-.11-.15v.11h.04s.04 0 .05-.01c0 0 .01-.02.01-.04s0-.04-.01-.04c0 0-.03-.01-.05-.01h-.04m.53.35h-.26v-.42h.26v.07h-.18v.09h.16v.07h-.16v.11h.18v.07m.26-.2s.02 0 .02.01l.02.04.08.15h-.09l-.05-.11v-.01c-.01-.03-.03-.05-.05-.05h-.03v.17h-.08v-.42h.12c.05 0 .09 0 .12.03.02.02.04.05.04.09 0 .03 0 .05-.02.07-.01.02-.03.03-.06.03m-.11-.15v.11h.04s.04 0 .05-.01c0 0 .01-.02.01-.04s0-.04-.01-.04c0 0-.03-.01-.05-.01h-.04"/><path id="path9700" d="M45.36 63.86s.02 0 .02.01l.02.04.08.15h-.09l-.05-.11v-.01c-.01-.03-.03-.05-.05-.05h-.03v.17h-.08v-.42h.12c.05 0 .09 0 .12.03.02.02.04.05.04.09 0 .03 0 .05-.02.07-.01.02-.03.03-.06.03m-.11-.15v.11h.04s.04 0 .05-.01c0 0 .01-.02.01-.04s0-.04-.01-.04c0 0-.03-.01-.05-.01h-.04m.53.35h-.26v-.42h.26v.07h-.18v.09h.16v.07h-.16v.11h.18v.07m.26-.2s.02 0 .02.01l.02.04.08.15h-.09l-.05-.11v-.01c-.01-.03-.03-.05-.05-.05h-.03v.17h-.08v-.42H46c.05 0 .09 0 .12.03.02.02.04.05.04.09 0 .03 0 .05-.02.07-.01.02-.03.03-.06.03m-.11-.15v.11h.04s.04 0 .05-.01c0 0 .01-.02.01-.04s0-.04-.01-.04c0 0-.03-.01-.05-.01h-.04"/><path id="path9702" d="M58.79 77.53s.02 0 .02.01l.02.04.08.15h-.09l-.05-.11v-.01c-.01-.03-.03-.05-.05-.05h-.03v.17h-.08v-.42h.12c.05 0 .09 0 .12.03.02.02.04.05.04.09 0 .03 0 .05-.02.07-.01.02-.03.03-.06.03m-.11-.15v.11h.04s.04 0 .05-.01c0 0 .01-.02.01-.04s0-.04-.01-.04c0 0-.03-.01-.05-.01h-.04m.53.35h-.26v-.42h.26v.07h-.18v.09h.16v.07h-.16v.11h.18v.07m.26-.2s.02 0 .02.01l.02.04.08.15h-.09l-.05-.11v-.01c-.01-.03-.03-.05-.05-.05h-.03v.17h-.08v-.42h.12c.05 0 .09 0 .12.03.02.02.04.05.04.09 0 .03 0 .05-.02.07-.01.02-.03.03-.06.03m-.11-.15v.11h.04s.04 0 .05-.01c0 0 .01-.02.01-.04s0-.04-.01-.04c0 0-.03-.01-.05-.01h-.04"/><path id="path9704" d="M77.15 85.97s.02 0 .02.01l.02.04.08.15h-.09l-.05-.11v-.01c-.01-.03-.03-.05-.05-.05h-.03v.17h-.08v-.42h.12c.05 0 .09 0 .12.03.02.02.04.05.04.09 0 .03 0 .05-.02.07-.01.02-.03.03-.06.03m-.11-.15v.11h.04s.04 0 .05-.01c0 0 .01-.02.01-.04s0-.04-.01-.04c0 0-.03-.01-.05-.01h-.04m.53.35h-.26v-.42h.26v.07h-.18v.09h.16v.07h-.16v.11h.18v.07m.26-.2s.02 0 .02.01l.02.04.08.15h-.09l-.05-.11v-.01c-.01-.03-.03-.05-.05-.05h-.03v.17h-.08v-.42h.12c.05 0 .09 0 .12.03.02.02.04.05.04.09 0 .03 0 .05-.02.07-.01.02-.03.03-.06.03m-.11-.15v.11h.04s.04 0 .05-.01c0 0 .01-.02.01-.04s0-.04-.01-.04c0 0-.03-.01-.05-.01h-.04"/><path id="path9706" d="M92.92 98.18s.02 0 .02.01l.02.04.08.15h-.09l-.05-.11v-.01c-.01-.03-.03-.05-.05-.05h-.03v.17h-.08v-.42h.12c.05 0 .09 0 .12.03.02.02.04.05.04.09 0 .03 0 .05-.02.07-.01.02-.03.03-.06.03m-.11-.15v.11h.04s.04 0 .05-.01c0 0 .01-.02.01-.04s0-.04-.01-.04c0 0-.03-.01-.05-.01h-.04m.53.35h-.26v-.42h.26v.07h-.18v.09h.16v.07h-.16v.11h.18v.07m.26-.2s.02 0 .02.01l.02.04.08.15h-.09l-.05-.11v-.01c-.01-.03-.03-.05-.05-.05h-.03v.17h-.08v-.42h.12c.05 0 .09 0 .12.03.02.02.04.05.04.09 0 .03 0 .05-.02.07-.01.02-.03.03-.06.03m-.11-.15v.11h.04s.04 0 .05-.01c0 0 .01-.02.01-.04s0-.04-.01-.04c0 0-.03-.01-.05-.01h-.04"/><path id="path9708" d="M87.89 76.06s.02 0 .02.01l.02.04.08.15h-.09l-.05-.11v-.01c-.01-.03-.03-.05-.05-.05h-.03v.17h-.08v-.42h.12c.05 0 .09 0 .12.03.02.02.04.05.04.09 0 .03 0 .05-.02.07-.01.02-.03.03-.06.03m-.11-.15v.11h.04s.04 0 .05-.01c0 0 .01-.02.01-.04s0-.04-.01-.04c0 0-.03-.01-.05-.01h-.04m.53.35h-.26v-.42h.26v.07h-.18v.09h.16v.07h-.16v.11h.18v.07m.26-.2s.02 0 .02.01l.02.04.08.15h-.09l-.05-.11v-.01c-.01-.03-.03-.05-.05-.05h-.03v.17h-.08v-.42h.12c.05 0 .09 0 .12.03.02.02.04.05.04.09 0 .03 0 .05-.02.07-.01.02-.03.03-.06.03m-.11-.15v.11h.04s.04 0 .05-.01c0 0 .01-.02.01-.04s0-.04-.01-.04c0 0-.03-.01-.05-.01h-.04"/><path id="path9710" d="M100.83 66.61s.02 0 .02.01l.02.04.08.15h-.09l-.05-.11v-.01c-.01-.03-.03-.05-.05-.05h-.03v.17h-.08v-.42h.12c.05 0 .09 0 .12.03.02.02.04.05.04.09 0 .03 0 .05-.02.07-.01.02-.03.03-.06.03m-.11-.15v.11h.04s.04 0 .05-.01c0 0 .01-.02.01-.04s0-.04-.01-.04c0 0-.03-.01-.05-.01h-.04m.53.35h-.26v-.42h.26v.07h-.18v.09h.16v.07h-.16v.11h.18v.07m.26-.2s.02 0 .02.01l.02.04.08.15h-.09l-.05-.11v-.01c-.01-.03-.03-.05-.05-.05h-.03v.17h-.08v-.42h.12c.05 0 .09 0 .12.03.02.02.04.05.04.09 0 .03 0 .05-.02.07-.01.02-.03.03-.06.03m-.11-.15v.11h.04s.04 0 .05-.01c0 0 .01-.02.01-.04s0-.04-.01-.04c0 0-.03-.01-.05-.01h-.04"/><path id="path9712" d="M57.64 92.15s.02 0 .02.01l.02.04.08.15h-.09l-.05-.11v-.01c-.01-.03-.03-.05-.05-.05h-.03v.17h-.08v-.42h.12c.05 0 .09 0 .12.03.02.02.04.05.04.09 0 .03 0 .05-.02.07-.01.02-.03.03-.06.03m-.11-.15v.11h.04s.04 0 .05-.01c0 0 .01-.02.01-.04s0-.04-.01-.04c0 0-.03-.01-.05-.01h-.04m.53.35h-.26v-.42h.26v.07h-.18v.09h.16v.07h-.16v.11h.18v.07m.26-.2s.02 0 .02.01l.02.04.08.15h-.09l-.05-.11v-.01c-.01-.03-.03-.05-.05-.05h-.03v.17h-.08v-.42h.12c.05 0 .09 0 .12.03.02.02.04.05.04.09 0 .03 0 .05-.02.07-.01.02-.03.03-.06.03m-.11-.15v.11h.04s.04 0 .05-.01c0 0 .01-.02.01-.04s0-.04-.01-.04c0 0-.03-.01-.05-.01h-.04"/><g id="g9716"><g id="g9718"><path id="path8020-2" d="M4.38 34.53c0 .38-.31.69-.69.69S3 34.91 3 34.53s.31-.69.69-.69.69.31.69.69Z" style="stroke:#fe360e;stroke-width:.05px;stroke-linecap:round;stroke-miterlimit:1.06;fill:#fff"/></g><path id="path9721" d="m3.68 34.25-.14.37h.27l-.14-.37m-.06-.1h.11l.28.74h-.1l-.07-.19H3.5l-.07.19h-.11l.28-.74" class="cls-16"/></g><g id="use2581-3"><path id="path8020-3" d="M68.91 61.44c0 .38-.31.69-.69.69s-.69-.31-.69-.69.31-.69.69-.69.69.31.69.69Z" class="cls-59"/><path id="path9725" d="m68.22 61.17-.14.37h.27l-.14-.37m-.06-.1h.11l.28.74h-.1l-.07-.19h-.33l-.07.19h-.11l.28-.74" class="cls-16"/></g><g id="use2581-4"><path id="path8020-4" d="M88.9 73.04c0 .38-.31.69-.69.69s-.69-.31-.69-.69.31-.69.69-.69.69.31.69.69Z" class="cls-59"/><path id="path9729" d="m88.21 72.77-.14.37h.27l-.14-.37m-.06-.1h.11l.28.74h-.1l-.07-.19h-.33l-.07.19h-.11l.28-.74" class="cls-16"/></g><g id="use2581-5"><path id="path8020-5" d="M103.49 66.6c0 .38-.31.69-.69.69s-.69-.31-.69-.69.31-.69.69-.69.69.31.69.69Z" class="cls-59"/><path id="path9733" d="m102.8 66.33-.14.37h.27l-.14-.37m-.06-.1h.11l.28.74h-.1l-.07-.19h-.33l-.07.19h-.11l.28-.74" class="cls-16"/></g><g id="use2667"><path id="path9736" d="M70.39 61.44c0 .38-.31.68-.68.68s-.68-.31-.68-.68.31-.68.68-.68.68.31.68.68Z" class="cls-62"/><path id="path9738" d="M69.55 61.45v.27h.16c.05 0 .09-.01.12-.03.03-.02.04-.06.04-.1s-.01-.08-.04-.1c-.03-.02-.06-.03-.12-.03h-.16m0-.3v.22h.15s.08 0 .11-.03c.02-.02.04-.05.04-.08s-.01-.06-.04-.08c-.02-.02-.06-.03-.11-.03h-.15m-.1-.08h.25c.08 0 .13.02.17.05.04.03.06.08.06.13 0 .04-.01.08-.03.11-.02.03-.05.04-.09.05.05.01.09.03.11.07.03.03.04.07.04.12 0 .07-.02.12-.07.15-.04.04-.11.05-.19.05h-.26v-.73" class="cls-33"/></g><g id="use2667-2"><path id="path8012" d="M80.55 36.41c0 .38-.31.68-.68.68s-.68-.31-.68-.68.31-.68.68-.68c.38 0 .68.31.68.68Z" class="cls-62"/><path id="path9742" d="M79.71 36.43v.27h.16c.05 0 .09-.01.12-.03.03-.02.04-.06.04-.1s-.01-.08-.04-.1c-.03-.02-.06-.03-.12-.03h-.16m0-.3v.22h.15s.08 0 .11-.03c.02-.02.04-.05.04-.08s-.01-.06-.04-.08c-.02-.02-.06-.03-.11-.03h-.15m-.1-.08h.25c.08 0 .13.02.17.05.04.03.06.08.06.13 0 .04-.01.08-.03.11-.02.03-.05.04-.09.05.05.01.09.03.11.07.03.03.04.07.04.12 0 .07-.02.12-.07.15-.04.04-.11.05-.19.05h-.26v-.73" class="cls-33"/></g><g id="use2667-3"><path id="path8012-2" d="M61.36 77.52c0 .38-.31.68-.68.68s-.68-.31-.68-.68.31-.68.68-.68c.38 0 .68.31.68.68Z" class="cls-62"/><path id="path9746" d="M60.52 77.54v.27h.16c.05 0 .09-.01.12-.03.03-.02.04-.06.04-.1s-.01-.08-.04-.1c-.03-.02-.06-.03-.12-.03h-.16m0-.3v.22h.15s.08 0 .11-.03c.02-.02.04-.05.04-.08s-.01-.06-.04-.08c-.02-.02-.06-.03-.11-.03h-.15m-.1-.08h.25c.08 0 .13.02.17.05.04.03.06.08.06.13 0 .04-.01.08-.03.11-.02.03-.05.04-.09.05.05.01.09.03.11.07.03.03.04.07.04.12 0 .07-.02.12-.07.15-.04.04-.11.05-.19.05h-.26v-.73" class="cls-33"/></g><g id="use2667-4"><path id="path8012-3" d="M58.64 90.54c0 .38-.31.68-.68.68s-.68-.31-.68-.68.31-.68.68-.68c.38 0 .68.31.68.68Z" class="cls-62"/><path id="path9750" d="M57.79 90.56v.27h.16c.05 0 .09-.01.12-.03.03-.02.04-.06.04-.1s-.01-.08-.04-.1c-.03-.02-.06-.03-.12-.03h-.16m0-.3v.22h.15s.08 0 .11-.03c.02-.02.04-.05.04-.08s-.01-.06-.04-.08c-.02-.02-.06-.03-.11-.03h-.15m-.1-.08h.25c.08 0 .13.02.17.05.04.03.06.08.06.13 0 .04-.01.08-.03.11-.02.03-.05.04-.09.05.05.01.09.03.11.07.03.03.04.07.04.12 0 .07-.02.12-.07.15-.04.04-.11.05-.19.05h-.26v-.73" class="cls-33"/></g><path id="path9752" d="M30.45 26.33s.02 0 .02.01l.02.04.08.15h-.09l-.05-.11v-.01c-.01-.03-.03-.05-.05-.05h-.03v.17h-.08v-.42h.12c.05 0 .09 0 .12.03.02.02.04.05.04.09 0 .03 0 .05-.02.07-.01.02-.03.03-.06.03m-.11-.15v.11h.04s.04 0 .05-.01c0 0 .01-.02.01-.04s0-.04-.01-.04c0 0-.03-.01-.05-.01h-.04m.53.35h-.26v-.42h.26v.07h-.18v.09h.16v.07h-.16v.11h.18v.07m.26-.2s.02 0 .02.01l.02.04.08.15h-.09l-.05-.11v-.01c-.01-.03-.03-.05-.05-.05h-.03v.17h-.08v-.42h.12c.05 0 .09 0 .12.03.02.02.04.05.04.09 0 .03 0 .05-.02.07-.01.02-.03.03-.06.03m-.11-.15v.11h.04s.04 0 .05-.01c0 0 .01-.02.01-.04s0-.04-.01-.04c0 0-.03-.01-.05-.01h-.04"/><g id="use2682-8"><path id="path8268-8" d="M33.08 26.32c0 .38-.31.69-.69.69s-.69-.31-.69-.69.31-.69.69-.69c.38 0 .69.31.69.69Z" class="cls-58"/><path id="path8270-8" d="M32.66 26.01v.11s-.07-.06-.11-.07c-.04-.02-.08-.02-.12-.02a.24.24 0 0 0-.19.08c-.05.05-.07.13-.07.22s.02.17.07.22c.05.05.11.08.19.08.04 0 .08 0 .12-.02.04-.02.07-.04.11-.07v.1s-.07.04-.11.05c-.04.01-.08.02-.12.02-.11 0-.2-.03-.27-.1-.06-.07-.1-.16-.1-.28s.03-.21.1-.28c.06-.07.15-.1.27-.1.04 0 .09 0 .13.02.04.01.08.03.11.05" class="cls-5"/></g><path id="path9757" d="M41.38 15.42s.02 0 .02.01l.02.04.08.15h-.09l-.05-.11v-.01c-.01-.03-.03-.05-.05-.05h-.03v.17h-.08v-.42h.12c.05 0 .09 0 .12.03.02.02.04.05.04.09 0 .03 0 .05-.02.07-.01.02-.03.03-.06.03m-.11-.15v.11h.04s.04 0 .05-.01c0 0 .01-.02.01-.04s0-.04-.01-.04c0 0-.03-.01-.05-.01h-.04m.53.35h-.26v-.42h.26v.07h-.18v.09h.16v.07h-.16v.11h.18v.07m.26-.2s.02 0 .02.01l.02.04.08.15h-.09l-.05-.11v-.01c-.01-.03-.03-.05-.05-.05h-.03v.17h-.08v-.42h.12c.05 0 .09 0 .12.03.02.02.04.05.04.09 0 .03 0 .05-.02.07-.01.02-.03.03-.06.03m-.11-.15v.11h.04s.04 0 .05-.01c0 0 .01-.02.01-.04s0-.04-.01-.04c0 0-.03-.01-.05-.01h-.04"/><g id="use2682-9"><path id="path8268-9" d="M44.01 15.41c0 .38-.31.69-.69.69s-.69-.31-.69-.69.31-.69.69-.69.69.31.69.69Z" class="cls-58"/><path id="path8270-9" d="M43.58 15.09v.11s-.07-.06-.11-.07c-.04-.02-.08-.02-.12-.02a.24.24 0 0 0-.19.08c-.05.05-.07.13-.07.22s.02.17.07.22c.05.05.11.08.19.08.04 0 .08 0 .12-.02.04-.02.07-.04.11-.07v.1s-.07.04-.11.05c-.04.01-.08.02-.12.02-.11 0-.2-.03-.27-.1-.06-.07-.1-.16-.1-.28s.03-.21.1-.28c.06-.07.15-.1.27-.1.04 0 .09 0 .13.02.04.01.08.03.11.05" class="cls-5"/></g><g id="g9762"><path id="path9764" d="M71.89 61.44c0 .38-.31.69-.69.69s-.69-.31-.69-.69.31-.69.69-.69.69.31.69.69Z" class="cls-60"/><path id="path9766" d="M71.02 61.15v.58h.12c.1 0 .18-.02.23-.07.05-.05.07-.12.07-.22s-.02-.17-.07-.22c-.05-.05-.12-.07-.23-.07h-.12m-.1-.08h.21c.14 0 .25.03.32.09s.1.15.1.28-.03.22-.1.28c-.07.06-.17.09-.32.09h-.21v-.74" class="cls-29"/></g><g id="g9768"><path id="path2656" d="M82.09 36.41c0 .38-.31.69-.69.69s-.69-.31-.69-.69.31-.69.69-.69.69.31.69.69Z" class="cls-60"/><path id="path9771" d="M81.22 36.12v.58h.12c.1 0 .18-.02.23-.07.05-.05.07-.12.07-.22s-.02-.17-.07-.22c-.05-.05-.12-.07-.23-.07h-.12m-.1-.08h.21c.14 0 .25.03.32.09s.1.15.1.28-.03.22-.1.28c-.07.06-.17.09-.32.09h-.21v-.74" class="cls-29"/></g><g id="g9773"><path id="path2656-2" d="M88.86 74.53c0 .38-.31.69-.69.69s-.69-.31-.69-.69.31-.69.69-.69.69.31.69.69Z" class="cls-60"/><path id="path9776" d="M87.99 74.24v.58h.12c.1 0 .18-.02.23-.07.05-.05.07-.12.07-.22s-.02-.17-.07-.22c-.05-.05-.12-.07-.23-.07h-.12m-.1-.08h.21c.14 0 .25.03.32.09s.1.15.1.28-.03.22-.1.28c-.07.06-.17.09-.32.09h-.21v-.74" class="cls-29"/></g><g id="use2596-2"><path id="path8046" d="M80.57 37.97c0 .39-.31.7-.7.7s-.7-.31-.7-.7.31-.7.7-.7.7.31.7.7Z" class="cls-61"/><path id="path8048" d="M79.63 37.59h.48v.09h-.37v.22h.36v.09h-.36v.27h.38v.09h-.49v-.75" class="cls-25"/></g><path id="path9781" d="M2.3 32.59h-.62s-.06.03-.06.06.03.06.06.06h.24v.62c0 .04.03.07.07.07.03 0 .06-.03.07-.06v-.63h.25s.06-.03.06-.06-.03-.06-.06-.06Z"/><path id="path9783" d="M67 2.36h-.62s-.06.03-.06.06.03.06.06.06h.24v.62c0 .04.03.07.07.07.03 0 .06-.03.07-.06v-.63h.25s.06-.03.06-.06-.03-.06-.06-.06Z"/><path id="path9785" d="M100.93 12.48h-.62s-.06.03-.06.06.03.06.06.06h.24v.62c0 .04.03.07.07.07.03 0 .06-.03.07-.06v-.63h.25s.06-.03.06-.06-.03-.06-.06-.06Z"/><path id="path9787" d="M114.65 20.29h-.62s-.06.03-.06.06.03.06.06.06h.24v.62c0 .04.03.07.07.07.03 0 .06-.03.07-.06v-.63h.25s.06-.03.06-.06-.03-.06-.06-.06Z"/><path id="path9789" d="M80.47 99.18h-.62s-.06.03-.06.06.03.06.06.06h.24v.62c0 .04.03.07.07.07.03 0 .06-.03.07-.06v-.63h.25s.06-.03.06-.06-.03-.06-.06-.06Z"/><path id="path9791" d="M78.12 99.18h-.62s-.06.03-.06.06.03.06.06.06h.24v.62c0 .04.03.07.07.07.03 0 .06-.03.07-.06v-.63h.25s.06-.03.06-.06-.03-.06-.06-.06Z"/><path id="path9793" d="M75.76 99.18h-.62s-.06.03-.06.06.03.06.06.06h.24v.62c0 .04.03.07.07.07.03 0 .06-.03.07-.06v-.63h.25s.06-.03.06-.06-.03-.06-.06-.06Z"/><path id="path9795" d="M64.65 100.5h-.62s-.06.03-.06.06.03.06.06.06h.24v.62c0 .04.03.07.07.07.03 0 .06-.03.07-.06v-.63h.25s.06-.03.06-.06-.03-.06-.06-.06Z"/><path id="path9797" d="M55.21 98.64h-.62s-.06.03-.06.06.03.06.06.06h.24v.62c0 .04.03.07.07.07.03 0 .06-.03.07-.06v-.63h.25s.06-.03.06-.06-.03-.06-.06-.06Z"/><path id="path9799" d="M38.45 98.64h-.62s-.06.03-.06.06.03.06.06.06h.24v.62c0 .04.03.07.07.07.03 0 .06-.03.07-.06v-.63h.25s.06-.03.06-.06-.03-.06-.06-.06Z"/><path id="path9801" d="M30.75 97.61h-.62s-.06.03-.06.06.03.06.06.06h.24v.62c0 .04.03.07.07.07.03 0 .06-.03.07-.06v-.63h.25s.06-.03.06-.06-.03-.06-.06-.06Z"/><g id="layer1"><path id="path14141" d="M102.87 12.82c0 .38-.31.69-.69.69s-.69-.31-.69-.69.31-.69.69-.69.69.31.69.69Z" class="cls-10"/><path id="path10" d="M102.12 13.2v-.6s-.1.06-.13.07l-.04.02-.05-.12.05-.02a.79.79 0 0 0 .2-.12h.13v.76h-.16" class="cls-30"/></g><g id="layer1-2"><path id="path14141-2" d="M68.92 2.69c0 .38-.31.69-.69.69s-.69-.31-.69-.69.31-.69.69-.69.69.31.69.69Z" class="cls-10"/><path id="path10-2" d="M68.16 3.07v-.6s-.1.06-.13.07l-.04.02-.05-.12.05-.02a.79.79 0 0 0 .2-.12h.13v.76h-.16" class="cls-30"/></g><g id="layer1-3"><path id="path14141-3" d="M116.52 20.62c0 .38-.31.69-.69.69s-.69-.31-.69-.69.31-.69.69-.69.69.31.69.69Z" class="cls-10"/><path id="path10-3" d="M115.77 21v-.6s-.1.06-.13.07l-.04.02-.05-.12.05-.02a.79.79 0 0 0 .2-.12h.13v.76h-.16" class="cls-30"/></g><g id="layer1-4"><path id="path14141-4" d="M2.67 34.53c0 .39-.31.7-.7.7s-.7-.31-.7-.7.31-.7.7-.7.7.31.7.7Z" class="cls-8"/><path id="path3429" d="M1.73 34.9v-.1c.02-.09.11-.17.21-.26.05-.04.11-.1.11-.17s-.04-.12-.13-.12c-.07 0-.11.05-.13.07l-.08-.11c.07-.06.14-.09.25-.09.14 0 .26.08.26.23 0 .13-.08.19-.18.28-.04.04-.12.1-.13.15h.32v.13h-.5" class="cls-20"/></g><g id="layer1-5"><path id="path14141-5" d="M38.82 100.49c0 .39-.31.7-.7.7s-.7-.31-.7-.7.31-.7.7-.7.7.31.7.7Z" class="cls-8"/><path id="path3429-2" d="M37.88 100.87v-.1c.02-.09.11-.17.21-.26.05-.04.11-.1.11-.17s-.04-.12-.13-.12c-.07 0-.11.05-.13.07l-.08-.11c.07-.06.14-.09.25-.09.14 0 .26.08.26.23 0 .13-.08.19-.18.28-.04.04-.12.1-.13.15h.32v.13h-.5" class="cls-20"/></g><g id="layer1-6"><path id="path14141-6" d="M38.82 102.07c0 .39-.32.7-.7.7s-.7-.32-.7-.7.32-.7.7-.7.7.32.7.7Z" class="cls-9"/><path id="path3707" d="M38.08 102.49c-.11 0-.18-.03-.23-.06l.06-.12s.09.05.16.05c.09 0 .15-.05.15-.12 0-.09-.07-.12-.15-.12h-.08v-.13h.08c.08 0 .13-.04.13-.1 0-.05-.04-.1-.12-.1-.07 0-.12.03-.15.06l-.06-.12c.07-.04.14-.07.24-.07.16 0 .25.1.25.2 0 .08-.04.15-.13.18.09.02.15.09.15.2 0 .14-.13.26-.31.26Z" class="cls-4"/></g><g id="layer1-7"><path id="path14141-7" d="M29.58 97.95c0 .39-.32.7-.7.7s-.7-.32-.7-.7.32-.7.7-.7c.39 0 .7.32.7.7Z" class="cls-9"/><path id="path3707-2" d="M28.83 98.36c-.11 0-.18-.03-.23-.06l.06-.12s.09.05.16.05c.09 0 .15-.05.15-.12 0-.09-.07-.12-.15-.12h-.08v-.13h.08c.08 0 .13-.04.13-.1 0-.05-.04-.1-.12-.1-.07 0-.12.03-.15.06l-.06-.12c.07-.04.14-.07.24-.07.16 0 .25.1.25.2 0 .08-.04.15-.13.18.09.02.15.09.15.2 0 .14-.13.26-.31.26Z" class="cls-4"/></g><g id="layer1-8"><path id="path14141-8" d="M57.16 98.97c0 .39-.32.7-.7.7s-.7-.32-.7-.7.32-.7.7-.7.7.32.7.7Z" class="cls-9"/><path id="path3707-3" d="M56.41 99.38c-.11 0-.18-.03-.23-.06l.06-.12s.09.05.16.05c.09 0 .15-.05.15-.12 0-.09-.07-.12-.15-.12h-.08v-.13h.08c.08 0 .13-.04.13-.1 0-.05-.04-.1-.12-.1-.07 0-.12.03-.15.06l-.06-.12c.07-.04.14-.07.24-.07.16 0 .25.1.25.2 0 .08-.04.15-.13.18.09.02.15.09.15.2 0 .14-.13.26-.31.26Z" class="cls-4"/></g><g id="layer1-9"><path id="path14141-9" d="M63.45 100.83c0 .39-.32.7-.7.7s-.7-.32-.7-.7.32-.7.7-.7.7.32.7.7Z" class="cls-9"/><path id="path3707-4" d="M62.71 101.24c-.11 0-.18-.03-.23-.06l.06-.12s.09.05.16.05c.09 0 .15-.05.15-.12 0-.09-.07-.12-.15-.12h-.08v-.13h.08c.08 0 .13-.04.13-.1 0-.05-.04-.1-.12-.1-.07 0-.12.03-.15.06l-.06-.12c.07-.04.14-.07.24-.07.16 0 .25.1.25.2 0 .08-.04.15-.13.18.09.02.15.09.15.2 0 .14-.13.26-.31.26Z" class="cls-4"/></g><g id="layer1-10"><path id="path14141-10" d="M78.49 97.94c0 .39-.32.7-.7.7s-.7-.32-.7-.7.32-.7.7-.7.7.32.7.7Z" class="cls-9"/><path id="path3707-5" d="M77.74 98.35c-.11 0-.18-.03-.23-.06l.06-.12s.09.05.16.05c.09 0 .15-.05.15-.12 0-.09-.07-.12-.15-.12h-.08v-.13h.08c.08 0 .13-.04.13-.1 0-.05-.04-.1-.12-.1-.07 0-.12.03-.15.06l-.06-.12c.07-.04.14-.07.24-.07.16 0 .25.1.25.2 0 .08-.04.15-.13.18.09.02.15.09.15.2 0 .14-.13.26-.31.26Z" class="cls-4"/></g><g id="layer1-11"><path id="path14141-11" d="M80.84 97.94c0 .39-.32.7-.7.7s-.7-.32-.7-.7.32-.7.7-.7.7.32.7.7Z" class="cls-9"/><path id="path3707-6" d="M80.1 98.35c-.11 0-.18-.03-.23-.06l.06-.12s.09.05.16.05c.09 0 .15-.05.15-.12 0-.09-.07-.12-.15-.12h-.08v-.13h.08c.08 0 .13-.04.13-.1 0-.05-.04-.1-.12-.1-.07 0-.12.03-.15.06l-.06-.12c.07-.04.14-.07.24-.07.16 0 .25.1.25.2 0 .08-.04.15-.13.18.09.02.15.09.15.2 0 .14-.13.26-.31.26Z" class="cls-4"/></g><g id="layer1-12"><path id="path14141-12" d="M76.14 97.94c0 .39-.32.7-.7.7s-.7-.32-.7-.7.32-.7.7-.7.7.32.7.7Z" class="cls-9"/><path id="path3707-7" d="M75.39 98.35c-.11 0-.18-.03-.23-.06l.06-.12s.09.05.16.05c.09 0 .15-.05.15-.12 0-.09-.07-.12-.15-.12h-.08v-.13h.08c.08 0 .13-.04.13-.1 0-.05-.04-.1-.12-.1-.07 0-.12.03-.15.06l-.06-.12c.07-.04.14-.07.24-.07.16 0 .25.1.25.2 0 .08-.04.15-.13.18.09.02.15.09.15.2 0 .14-.13.26-.31.26Z" class="cls-4"/></g><path id="path10534" d="M25.98 56.35c0-.45.36-.81.81-.81s.81.36.81.81-.36.81-.81.81-.81-.36-.81-.81Z" class="cls-34"/><g id="g10536"><g id="g10538"><path id="path10540" d="m26.89 55.84.09.1c-.07.04-.13.08-.19.14-.06.06-.09.12-.12.17.05-.02.09-.03.12-.03.09 0 .17.03.23.09s.09.14.09.24-.03.18-.09.24-.13.09-.22.09c-.23 0-.35-.15-.35-.44 0-.12.05-.25.14-.37.09-.13.19-.2.3-.23Zm-.25.7c0 .12.05.18.16.18.04 0 .08-.02.1-.05s.04-.07.04-.13-.01-.1-.04-.13-.06-.05-.1-.05c-.1 0-.15.06-.15.17Z"/></g><g id="g10542"><path id="path10544" d="m26.89 55.84.09.1c-.07.04-.13.08-.19.14-.06.06-.09.12-.12.17.05-.02.09-.03.12-.03.09 0 .17.03.23.09s.09.14.09.24-.03.18-.09.24-.13.09-.22.09c-.23 0-.35-.15-.35-.44 0-.12.05-.25.14-.37.09-.13.19-.2.3-.23Zm-.25.7c0 .12.05.18.16.18.04 0 .08-.02.1-.05s.04-.07.04-.13-.01-.1-.04-.13-.06-.05-.1-.05c-.1 0-.15.06-.15.17Z"/></g></g><path d="m112.44 125.9 51.15-46.77-55.67-.76-69.99 40.69" class="cls-7"/><path d="M138.4 48.66H69.81c0-9.04 15.35-13.49 34.29-13.49l5.65.14h.34c8.38.46 15.71 1.87 20.81 4.25 4.7 2.21 7.51 5.24 7.51 9.1Z" class="cls-66"/><path d="m109.75 35.31-5.65-.14c1.92 0 3.82.05 5.65.14ZM138.4 87.44V48.66M128.77 95.74h9.63v-8.3" class="cls-63"/><path d="M190.63 52.57 148.42 87.2l-10.03 8.23V48.66l47.52-5.21c2.18 2.75 3.8 5.83 4.72 9.12Z" class="cls-66"/><path d="M179.2 37.15 135.69 36c5.82-3.59 13.05-5.71 20.88-5.71 8.63 0 16.53 2.58 22.63 6.86Z" class="cls-63"/><path d="m185.92 43.45-47.52 5.21c0-3.86-2.81-6.89-7.51-9.1-5.1-2.38-12.43-3.79-20.81-4.24l25.6.68 43.51 1.15c2.6 1.81 4.87 3.93 6.72 6.3Z" class="cls-63"/><path d="m185.92 43.45-47.52 5.21c0-3.86-2.81-6.89-7.51-9.1-5.1-2.38-12.43-3.79-20.81-4.24l25.6.68 43.51 1.15c2.6 1.81 4.87 3.93 6.72 6.3Z" class="cls-63"/><path d="m185.92 43.45-47.52 5.21c0-3.86-2.81-6.89-7.51-9.1-5.1-2.38-12.43-3.79-20.81-4.24l25.6.68 43.51 1.15c2.6 1.81 4.87 3.93 6.72 6.3Z" class="cls-66"/><path d="m148.43 87.2 42.21-34.63c.6 2.12.92 4.31.92 6.58v19.98H163.6l-9.61 8.78M191.55 93.56V79.13" class="cls-63"/><path d="M138.4 95.74H69.81V48.66h68.59v46.77l-.38.31" class="cls-66"/><path d="m135.58 95.74-28.08 25.43M128.77 95.74l-29.56 25.44M86.62 95.74l-38.45 23.32" class="cls-63"/><rect width="16.77" height="39.68" x="93.76" y="52.36" class="cls-7" rx="2.06" ry="2.06"/><rect width="16.77" height="19.39" x="73.73" y="52.36" class="cls-7" rx="1.44" ry="1.44"/><rect width="16.77" height="19.39" x="116.45" y="52.36" class="cls-7" rx="1.44" ry="1.44"/><rect width="9.8" height="19.55" x="97.25" y="55.58" class="cls-65" rx="1.1" ry="1.1"/><path d="m141.3 55.44 9.87-2.42v14.32l-9.87 5.32V55.44zM153.99 52.83l7.53-1.85v10.93l-7.53 4.07V52.83zM164.52 50.75l6-1.39v8.24l-6 3.06v-9.91zM173.52 49.49l5.23-1.78v14l-5.23 4.61V49.49z" class="cls-7"/><path d="M166.43 36.86s8.27.86 11.5 2.81c3.37 2.03 3.82 4.23 3.82 4.23v15.95" class="cls-63"/><path d="M77.72 101.84h43.82M72.02 104.99h45.38M63.29 110.55h48.02M58.01 113.7h48.76M75.69 71.74v24M132.4 71.74v24" class="cls-65"/><rect width="25.03" height="7.64" x="91.58" y="38.19" rx="2.52" ry="2.52" style="stroke-width:.95px;stroke-linecap:round;stroke-linejoin:round;stroke:#000;fill:#fff"/><circle cx="84.2" cy="43.54" r="2.63" class="cls-13"/><circle cx="123.29" cy="43.54" r="2.63" class="cls-13"/><rect width="9.09" height="7" x="80.59" y="83.36" class="cls-67" rx="2" ry="2"/><rect width="9.09" height="7" x="116.11" y="83.36" class="cls-67" rx="2" ry="2"/><path d="M83.47 83.36v6.68M122.33 83.36v6.49" class="cls-65"/><path d="M76.12 66.39V54.88h11.05v2.86s-4.68-.46-6.96 2.9c-2.28 3.35-1.59 5.75-1.59 5.75h-2.51ZM118.94 66.39V54.88h11.05v2.86s-4.68-.46-6.96 2.9-1.59 5.75-1.59 5.75h-2.51Z" class="cls-22"/><circle cx="101.19" cy="42.05" r="2.56" class="cls-64"/><path d="M102.31 43.28v-2.54l-1.12 2.11-1.11-2.11v2.54" class="cls-64"/><circle cx="106.88" cy="42.01" r="2.71" style="fill:#ffc900"/><path d="M105.84 41.11s.56-.27.95-.53h.48v2.87h-.59V41.2l-.64.36-.2-.45Z"/></svg>