<svg xmlns="http://www.w3.org/2000/svg" viewBox="0 0 128 128.13"><defs><style>.cls-4,.cls-5,.cls-7{stroke-linecap:round;stroke-linejoin:round;stroke:#000}.cls-7{stroke-width:2px;fill:none}.cls-4{fill:#fff}.cls-5{fill:#b2f0e9}</style></defs><g style="isolation:isolate"><g id="Calque_1"><path d="M-568.22-68.32h2655.08v1511.77H-568.22z" style="fill:none;stroke:#e30613;stroke-width:8px;stroke-linecap:round;stroke-linejoin:round"/><path d="m46.19 66.19-1.9-1.9L55.78 52.8l1.9 1.9c.37.37.37.97 0 1.33L47.53 66.18c-.37.37-.97.37-1.34 0Z" class="cls-4"/><path d="m45.41 65.41 3.99 3.99c.37.37.97.37 1.33 0l10.15-10.15c.37-.37.37-.97 0-1.33l-3.99-3.99L45.4 65.42ZM51.86 68.28l2.74 2.74c.25.25.66.25.92 0l6.98-6.98c.25-.25.25-.66 0-.92l-2.74-2.74-7.9 7.9Z" class="cls-4"/><path d="m54.77 71.19 8.13 2.85c.38.15.77.15 1.02-.1l1.47-1.47c.25-.25.27-.65.13-1.05l-2.85-8.13-7.9 7.9Z" class="cls-5"/><path d="M35.78 67.2 4.33 35.75a3.95 3.95 0 0 1 0-5.59l17.31-17.31a3.941 3.941 0 0 1 5.59 0L58.68 44.3a3.96 3.96 0 0 1 0 5.59l-17.3 17.3a3.941 3.941 0 0 1-5.59 0Z" style="mix-blend-mode:multiply;fill:#b2f0e9;stroke:#000;stroke-linecap:round;stroke-linejoin:round"/><path d="M8.495 35.231 26.717 17.01 50.18 40.471 31.957 58.693z" class="cls-4"/><path d="M35.2 45.12c-1.21-.1-2.32-.31-3.4-.55l-.8-.18-.78-.21c-.53-.13-1.02-.29-1.52-.45-1.01-.31-1.97-.66-2.87-1.07-.9-.41-1.76-.87-2.49-1.46a6.644 6.644 0 0 1-.99-9.35 6.644 6.644 0 0 1 10.34 0c.59.73 1.04 1.59 1.45 2.49.41.9.77 1.86 1.07 2.87.15.5.32 1 .45 1.52l.21.78.18.8c.24 1.08.45 2.18.55 3.39.06.72-.47 1.35-1.19 1.41h-.22Z" class="cls-5"/><path d="M72.35 84.1c0 4.35.84 8.51 2.35 12.32.89 2.24 2.02 4.35 3.35 6.32 1.26 1.88 2.71 3.62 4.31 5.19l42.46-24.06s-18.51-2.88-35.84-13.59c-3.55-2.19-6.76-4.46-9.61-6.66a34.966 34.966 0 0 0-2.9 4.38 34.55 34.55 0 0 0-2.78 6.66c-.88 2.99-1.35 6.16-1.35 9.44Z" class="cls-7"/><path d="M72.35 84.1c0 4.35.84 8.51 2.35 12.32.89 2.24 2.02 4.35 3.35 6.32 5.55-3.19 9.33-9.6 9.33-16.97 0-8.04-4.51-14.93-10.91-17.77a34.55 34.55 0 0 0-2.78 6.66c-.88 2.99-1.35 6.16-1.35 9.44Z" style="stroke-width:2px;stroke:#000;stroke-linecap:round;stroke-linejoin:round;fill:#a07637"/><path d="m65.47 117.51 16.89-9.57 42.46-24.06S106.31 81 88.98 70.29c-3.55-2.19-6.76-4.46-9.61-6.66-11.8-9.17-10.01-17.57-10.01-17.57" class="cls-7"/><path d="M73.23 84.55c0 3 .58 5.86 1.62 8.5 2.47-1.33 4.17-4.12 4.17-7.35 0-3.52-2.03-6.51-4.86-7.66-.61 2.06-.93 4.24-.93 6.51Z" style="stroke-width:2px;stroke:#000;stroke-linecap:round;stroke-linejoin:round"/><path d="M89.9 70.58c-1.73-1.56-5.43-4.37-7.44-8.97-2.19-5.02-2.7-9.69-2.59-12.06M100.63 76.26a22.862 22.862 0 0 1-5.98-7.57 22.982 22.982 0 0 1-2.33-10.08" class="cls-7"/><path d="M65.78 76.26c-.19-.36-.47 7.23 2.96 5.52 3.78-1.89-2.96-5.64-2.96-5.52Z" class="cls-5"/></g></g></svg>