<svg xmlns="http://www.w3.org/2000/svg" id="Calque_1" data-name="Calque 1" viewBox="0 0 128 128"><defs><style>.cls-1,.cls-2,.cls-3{stroke:#000;stroke-linecap:round;stroke-linejoin:round}.cls-1,.cls-3{fill:none}.cls-2{fill:#a07637}.cls-2,.cls-3{stroke-width:2px}</style></defs><path d="M66.14 46.05a4.09 4.09 0 0 0 1.97-3.5c0-2.27-1.85-4.12-4.12-4.12s-4.11 1.85-4.11 4.12c0 1.48.78 2.79 1.96 3.5" class="cls-2"/><path d="M67.18 45.93v26.51c0 1.6-1.32 2.92-2.92 2.92h-.53c-1.6 0-2.92-1.32-2.92-2.92V45.93h6.37Z" class="cls-2"/><path d="m67.19 49.12 9.76-7.44V29.22l10.61-17.6M60.81 49.12l-9.76-7.44V29.22l-10.61-17.6M60.81 58.53l-6.56 7.8v17.16l-15.06 35.38M60.81 55.71l-10.19 2.82-4.81 15.78L29.9 94.03M67.19 58.53l6.56 7.8v17.16l15.06 35.38M67.19 55.71l10.18 2.82 4.82 15.78L98.1 94.03M67.19 53.09c-.15-1.21 5.13-1.66 19.05-4.18 5.46-.99 16.73-3.43 17.67.38.37 1.52-1.46 2.78-5.93 4.22-1.72.56-7.97 1.55-15.62 1.35-3.86-.1-14.99-.38-15.17-1.77ZM60.81 53.09c.15-1.21-5.13-1.66-19.05-4.18-5.46-.99-16.73-3.43-17.67.38-.37 1.52 1.46 2.78 5.93 4.22 1.72.56 7.97 1.55 15.62 1.35 3.86-.1 14.99-.38 15.17-1.77ZM63.99 38.43V20.72" class="cls-3"/><path d="M60.82 53.64h6.36M60.82 60.72h6.36M60.82 67.79h6.36" class="cls-1"/></svg>