<svg xmlns="http://www.w3.org/2000/svg" id="Calque_1" viewBox="0 0 200 128"><defs><style>.cls-1{fill:#d6d6d6}.cls-1,.cls-2,.cls-3,.cls-4,.cls-5{stroke:#000}.cls-1,.cls-2,.cls-3,.cls-4,.cls-5,.cls-6{stroke-linecap:round;stroke-linejoin:round}.cls-2{fill:#87ccf3}.cls-3{fill:#fff}.cls-4,.cls-6{fill:none}.cls-5{fill:#fab0b4}.cls-6{stroke:#ff6d75;stroke-width:3px}</style></defs><path d="M66.85 48.2c-.09.83-1.25 3.79-1.25 3.79h0c-.02-.08-.05-.16-.09-.24-.44-.96-3.39-1.86-5.04-1.92 0 0-.04 0-.1.04 0-.69.5-.88.5-.88l-2.33-6.34-.76 7.23c-.14-.58-.31-1.15-.54-1.67-.6-1.41-1.84-6.36-2.17-7.49-.33-1.12-.29-2.13-1.17-2.18-.87-.04-3.39.51-5.77.59-2.38.09-4.72-.08-6.16-.43-1.44-.35-2.05-.04-2.07.43-.03.48-.63 3.23-1.16 4.34-.54 1.1-1.76 5.09-2.2 6.22l-.33-4.64-1.8 8.36c-.18-.09-.36-.17-.53-.23 0 0-.02-.02-.03-.02-.31-.19-.67-.34-1-.45-.67-.22-2.56-.55-3.56-.49h-.54s2-18.59 2.64-20.92c.64-2.33.86-2.05 3.17-3.44 2.32-1.39 7.23-2.26 7.23-2.26s.23-.62.63-.67c.39-.04.77.28.77.28l7.19-.25c.97-.74 1.5.44 1.5.44 6 1.75 9.03 3.2 10.06 3.87 1.02.66 1.72 4.08 2.61 7.22.89 3.13 2.39 10.88 2.29 11.71Z" class="cls-1"/><path d="M36.95 26.84s.66 6.05 4.1 11.59l3.45.55s-1.81-2.83-3.27-6.32c-1.45-3.49-2.27-6.48-2.27-6.48l-2 .66ZM57 26.96s-.98 4.62-1.8 7.06c-.53 1.57-1.41 3.18-2.2 4.48l-2.95.44s1.22-1.97 2.67-5.47c1.45-3.49 2.28-7.26 2.28-7.26l2 .75Z" class="cls-2"/><path d="M33.94 55.06c.09.46.18 1.11-.54 1-.09-.02-.19-.03-.28-.06-.65-.14-1.41-.4-2.1-.52-.7-.13-1.57-.21-2.09-.25-.21-.02-.36-.03-.42-.03-.2 0-.49-.29-.29-.7.2-.42.46-.92.36-1.26-.1-.34-.22-.94.49-1.02.07 0 .15-.02.22 0 1-.06 2.89.26 3.56.49.32.11.68.26 1 .45.01 0 .02 0 .03.02.39.23.68.5.67.74-.03.43-.7.69-.61 1.16Z" class="cls-1"/><path d="M34.38 70.23c-.34-.59-.6-.26-1.26.15-.2.13-.93.6-1.86 1.21 0-.43-.19-.89-.29-1.21-.04-.14-.04-.32-.03-.53.87-.54 1.46-.9 1.51-.92.29-.13 1.32.25 1.7.45.47.23.23.85.23.85Z" class="cls-4"/><path d="M18.09 94.36c-.21-.63-.36-1.87-.49-2.87 0-.11-.03-.23-.05-.39.33 1.9.43 2.81.54 3.26ZM22.8 76.25c-.09.46-.15.91-.19 1.21-.03.21-.12 1-.21 1.96-.2 1.87-.45 4.4-.46 4.59 0 .03-.02.1-.04.18l-4.61-.34V83.18c.06-1.6.35-2.54.65-3.09 0-.03.03-.07.05-.1.15-.24.28-.4.4-.5.05-.04.09-.07.12-.09.03-.02.06-.03.09-.04h0l4.19-3.11ZM29.17 84.73l.12-.25v.26h-.12ZM34.87 74.89v.87l-6.41 4.53c-.31-.23-.85-.36-1.82-.5-.68-.09-1.58-.18-2.54-.24.18-.91.34-1.7.46-2.08.38-1.19.3-1.56.88-2 .16-.12.77-.54 1.59-1.08l7.84.51Z" class="cls-1"/><path d="M22.4 79.42c-.2 1.87-.45 4.4-.46 4.59 0 .03-.02.1-.04.18l-4.61-.34h-.02s.01-.19.03-.48v-.04c.06-.79.22-2.32.65-3.24 0-.03.03-.07.05-.1.11-.22.25-.39.4-.5.05-.04.09-.07.12-.09.03-.02.06-.03.09-.04h0c.24-.08 1.92-.04 3.79.06ZM29.28 84.47h0l-.12.26-2-.15-3.8-.28c-.02-.11-.04-.19-.04-.2 0-.14.39-2.61.77-4.56.96.07 1.85.16 2.54.24.98.14 1.51.26 1.82.5.47.33.44.87.62 1.9.18 1 .2 1.87.2 2.28ZM29.28 84.48v.26h-.12l.12-.26Z" class="cls-1"/><path d="M30.96 70.38c.11.32.28.78.29 1.21 0 .11 0 .21-.04.32-.13.51.12 1.38-.44 1.45-.35.05-.72-.35-.96-.83-.15-.28-.24-.6-.24-.85 0-.39-.07-.72-.11-.93-.03-.16-.06-.24-.06-.24l-1.69.75.08.51-1.33.82s-.53-.53-.81-1.27c-.27-.74-.02-1.28.41-1.96.44-.69 1.5-2.64 1.63-2.89.13-.24 1.18-10.8 1.23-11.25.52.04 1.39.13 2.09.25.68.12 1.44.38 2.1.52l-2.57 10.75c-.07.29.26 1.29.41 1.8.1.35 0 .87-.03 1.31-.01.2-.01.39.03.53Z" class="cls-4"/><path d="M29.82 72.54c-.98.63-1.98 1.31-2.79 1.84-.82.55-1.43.97-1.59 1.08-.58.44-.5.81-.88 2-.12.38-.28 1.17-.46 2.08-.38 1.94-.77 4.42-.77 4.56 0 .02.02.1.04.2.09.49.28 1.68.11 2.44-.21.94-1.48 1.08-1.92.31-.38-.68.2-2.3.34-2.87.02-.08.04-.15.04-.18 0-.19.26-2.71.46-4.59.1-.96.19-1.75.21-1.96.04-.3.1-.75.19-1.21.12-.62.28-1.26.53-1.52.26-.27 3.58-2.37 6.15-3.97.04.2.1.54.11.93 0 .25.1.57.24.85Z" class="cls-1"/><path d="m29.28 84.74-.18 1.1h0c-.11.71-.28 1.87-.58 3.77-.66 4.28-1.38 5.45-1.54 5.69l-.03.03h0s-.03.02-.05.02c-.07 0-4.17-.08-6.1-.28-.11 0-.21-.02-.32-.03-.58-.07-1.06-.13-1.41-.17-.47-.08-.79-.17-.88-.24v-.02c0-.02-.02-.05-.03-.08a3.25 3.25 0 0 1-.06-.17c-.11-.45-.2-1.36-.54-3.26v-.05c-.15-1.38-.35-4.36-.27-7.21l4.61.34c-.15.57-.72 2.19-.34 2.87.44.77 1.71.62 1.92-.31.18-.76-.02-1.95-.11-2.44l3.8.28 2 .15h.12Z" class="cls-1"/><path d="M17.56 91.05c-.62-3.51-.29-7.21-.29-7.21h.02c-.08 2.85.13 5.83.27 7.21ZM19.07 94.87l-.5-.06c-.19-.02-.3-.05-.38-.19.09.08.41.17.88.24ZM29.17 84.73l.12-.25v.26h-.12ZM34.87 75.76v4.19l-.94.76c-.21-.28-.58-.23-.58-.23l-1.17.81c.31.18.44.3.46.47l-3.36 2.72c0-.41-.02-1.28-.2-2.28-.19-1.03-.16-1.57-.62-1.9l6.41-4.53Z" class="cls-1"/><path d="m34.92 90.19-7.93 5.11s-.19.08-.09.05c.02 0 .05 0 .06-.02s.02-.02.03-.03c.17-.23.88-1.4 1.54-5.69.29-1.89.47-3.05.58-3.76h0l.18-1.11v-.26h0l3.36-2.73v.08c0 .15-.08 1.27-.05 2.02 0 .32.03.58.09.66.2.3 1.09-.31 1.2-.47.05-.07.11-.51.16-1.03l.83-.48v3.4h0c0 1.46.03 2.89.04 4.25Z" class="cls-1"/><path d="m29.17 84.73.12-.25v.26h-.12ZM34.05 83.01c-.05.53-.11.97-.16 1.03-.11.16-1 .77-1.2.47-.06-.09-.09-.34-.09-.66-.03-.75.05-1.87.05-2.02v-.08c-.02-.17-.15-.29-.46-.47l1.17-.81s.36-.05.58.23c.09.1.15.24.17.45.04.43.01 1.22-.05 1.85ZM65.37 52.77c-.21.12-.58.46-.59 1.13 0 .55-.28.6-.83.34-.12-.05-.25-.12-.41-.2-.61-.35-2.21-.85-3.19-1.13-.3-.09-.56-.17-.68-.2-.56-.18.23-1.34.28-1.41.05-.08.05-.34.11-.86.03-.34.2-.51.3-.57h0c.06-.04.1-.05.1-.05 1.66.06 4.61.97 5.04 1.92.04.09.07.17.09.23.14.44-.02.69-.21.8Z" class="cls-1"/><path d="M63.95 54.24c-.51 1.09-1.54 3.39-2.01 5-.45 1.52-1.56 3.03-2.18 3.8-.26.33-.44.52-.44.52-1.77-.85-1.56-4.66-1.56-4.66s.4-.52.76-.97h0c.26-.32.51-.6.58-.63.19-.11 1.23-4.29 1.23-4.29l.02-.09c.98.28 2.58.78 3.19 1.13.16.09.29.16.41.2Z" class="cls-4"/><path d="M58.22 56.49s-.02.03-.03.04c-.46.65-3.89 2.84-7.87 3.15-4.08.33-7.41.05-10.76-.97-1.48-.45-2.4-.67-2.94-.94-.67-.34-.76-.72-.64-1.68.21-1.71.31-5.79.57-6.42.44-1.13 1.66-5.12 2.2-6.22.53-1.11 1.13-3.86 1.16-4.34.02-.47.62-.78 2.07-.43 1.43.35 3.78.52 6.16.43 2.38-.08 4.9-.62 5.77-.59.88.05.84 1.05 1.17 2.18.32 1.13 1.56 6.08 2.17 7.49.22.52.4 1.09.54 1.67.24 1 .38 1.99.46 2.75.13 1.21.34 3.27 0 3.87Z" class="cls-2"/><path d="M58.95 94.34c.03 1.12.55 20.23.55 21.4 0 1.17-.1 1.42-1.2 1.8-1.1.38-6.6.37-6.6.37-1.04-5.72-1.29-12.43-1.43-17.19-.15-4.75-1.31-16.17-1.42-19.59-.1-3-1.23-9.98-1.51-11.68h0l-.06-.38s-.01.04-.02.13c-.22 1.65-2.69 19.35-3.01 21.62-.34 2.39-.23 3.74-.27 5.33-.04 1.6-.04 21.22-.04 21.22s-.61.71-3.32.7c-2.69 0-4.31-.14-4.51-.56-.84-1.81-.71-14.42-.92-16.74-.13-1.42-.2-5.58-.26-10.59 0-1.37-.03-2.79-.04-4.24h0V74.88c0-3.88.05-7.07.12-8.55.22-5.05 1.53-8.56 1.53-8.56h.1c.54.25 1.45.48 2.94.93 3.35 1.01 6.68 1.3 10.76.97 3.98-.31 7.41-2.5 7.87-3.15l.33 1.39h0c-.36.46-.76.98-.76.98s-.21 3.81 1.56 4.66c0 0 .18-.19.44-.52l.02.09s-.02 1.56.11 3.32c.12 1.76-.5 11.24-.63 13.86-.14 2.61-.34 12.91-.3 14.04Z" class="cls-2"/><path d="M46.19 66.95s.69.75 1.35 3.21" class="cls-4"/><path d="m39.86 124.58-9.13.12c-.67 0-1.23-.53-1.25-1.2h0c-.01-.47.24-.9.65-1.12l7.77-4.16c.18-.1.38-.15.58-.15h3.97c.58 0 1.08.4 1.2.96l.76 3.41c.02.08.03.16.03.24l.02.59c.02.69-.53 1.26-1.22 1.26l-1.57.02-1.81.02ZM56.03 124.59l9.13.12c.67 0 1.23-.53 1.25-1.2h0c.01-.47-.24-.9-.65-1.12l-7.77-4.16c-.18-.1-.38-.15-.58-.15h-3.97c-.58 0-1.08.4-1.2.96l-.76 3.41c-.02.08-.03.16-.03.24l-.02.59c-.02.69.53 1.26 1.22 1.26l1.57.02 1.81.02Z" class="cls-1"/><path d="m49.66 26.26-2.67 2.39-3.03-2.39.89-2.28h4.45l.36 2.28z" class="cls-3"/><path d="M46.29 6.56s0 1.11-.4 1.86h-.01M44.14 8.88c-.88-.51-1.47-1.79-1.47-1.79M41.18 18.74h-.01c-.1-.02-.82-.21-1.24-1.34-.46-1.23-.98-1.08-1.03-2.35-.03-1.2 1.21-.68 1.34-.61M51.52 8.13s-.86.51-1.81.68" class="cls-4"/><path d="M42.33 9.42c.55.03 1.18-.1 1.81-.54.26.16.54.24.84.21.42-.04.7-.33.9-.67.01 0 .02.02.03.02.12.11.88.78 1.82-.13.49.59 1.26.65 1.98.51.43.33 1.01.29 1.01.29.03.05.08.1.1.15 1.75 2.48 1.93 4.16 1.94 4.34.11-.44.19-.86.25-1.26-.09.74-.23 1.28-.27 1.39h0v.03h0c.02.7.03 2.52-.25 4.4-.24 1.56-.71 3.17-1.57 4.21-1.98 2.41-3.27 2.46-3.46 2.45-.2.05-1.55.25-3.89-1.84-1.01-.89-1.72-2.41-2.2-3.91-.57-1.81-1.18-4.14-.91-5.31.19-1.46 1.52-3.87 1.68-4.28l.19-.04Z" class="cls-3"/><path d="M39.75 12.43c-.43-1.94-.36-4.43 2.87-5.74 0 0 .2-1.06 1.56-.9 0 0 1.58-1.73 3.49-.31 1.32-.37 1.68.65 1.68.65 3.65.86 3.88 4.15 3.67 6.11 0 .04-.01.07-.01.1" class="cls-3"/><path d="M50.85 9.46s1.88 2.73 1.88 4.3M52.74 13.76v-.02" class="cls-4"/><path d="M52.73 13.46s0 .1.01.27M52.47 18.88h.01c.1-.04.78-.33 1.02-1.52.26-1.28.8-1.22.66-2.48-.15-1.19-1.3-.48-1.42-.39M48.5 7.22c-.24.44-.47.77-.7 1-.03.03-.05.06-.07.08M45.91 8.43l-.02-.02" class="cls-4"/><path d="M47.18 13.61s.42 3.77 1.24 5.67c0 0-.16.39-1.39.15" class="cls-3"/><ellipse cx="44.65" cy="15.41" class="cls-3" rx=".13" ry=".38" transform="rotate(-4.42 44.688 15.479)"/><ellipse cx="49.84" cy="14.91" class="cls-3" rx=".13" ry=".38" transform="rotate(-4.42 49.9 14.901)"/><path d="M54.64 13.19c-.16.11-1.07-.25-2.38-.69-1.56-.51-3.68-1.12-5.73-1.12-2.35 0-4.77.73-6.35 1.19-.97.29-1.62.5-1.76.39-.37-.29-.73-2.24.84-5.5 1.58-3.27 4.76-4.06 7.08-4.06s4.78.39 6.84 2.96c2.06 2.56 1.8 6.59 1.45 6.83Z" class="cls-2"/><rect width="3.09" height="6.04" x="44.92" y="2.98" class="cls-2" rx=".5" ry=".5"/><path d="M52.26 12.46c-.48.51-1.88 1.51-5.49 1.51-4.82 0-6.59-1.43-6.59-1.43 1.58-.5 4-1.27 6.35-1.27 2.05 0 4.17.64 5.73 1.19Z" class="cls-2"/><path d="M42.01 25.6s-.16 1.18.39 2.73.95 4.1 1.47 3.71.63-1.73.97-2.43c.38-.78 1.56-1.3 2.23-.92 0 0-.02-.32-1.82-1.01s-2.23-2.01-2.42-2.38M51.5 25.37s.03 5.5-.47 6.38-1.65-1.51-2.12-2.06-.9-.93-1.73-1.12c0 0 3.36-1.65 3.56-3.51" class="cls-4"/><path d="M160.49 100.73c5.61 0 22.5-2.92 22.12-1.02-.19.93-.45 1.54-.45 1.54s3.74-.39 6.24-.68c.7-.08 1.31-.39 1.81-.87 1.28-1.18 1.84-3.4 1.39-5.57-.63-3.02-7.27-9.68-9.76-15.02s-7-9.6-9.3-10.65c-2.31-1.05-11.82-3.87-11.82-3.87s0 8.47-5.78 8.61c-.83.02-1.56-.07-2.2-.25h-.07c-1.5-.16-5.54 2.84-5.54 2.84-.72-3.13.16-6.66 1.03-9.04l.47-1.34c-5.5.76-10.5 2.2-11.95 3.16-2.6 1.71-7.14 15.55-8.93 18.72-1.78 3.18-3.77 7.3-1.9 10.56.46.8 1.48 1.4 2.73 1.85 3.36 1.2 8.5 1.33 9.76 1.35-.07-.36-.13-.83-.19-1.35-.22-2.3 16.73 1.02 22.34 1.02Z" class="cls-5"/><path d="m174.89 94.34 1.73-1.35-6.01-10.06 1.18 11.91 3.1 2.24v-2.74zM189.52 104.34l-11.37 4.73-8.27-2.9-4.63-2.8h0l-.64-.39.95-.3.59-.18 1.77-.54 7.3-2.25 1.05-.32.87.32 1.05.39c-.04.16-.08.3-.12.44-.23.72-.45 1.2-.45 1.2l3.86-.41 8.06 3.01Z" class="cls-3"/><path d="M142.69 99.71H178.29" class="cls-4"/><path d="M157.16 97.26c.67-.34.73-1.19.28-1.51-.12-.09-.37-.21-.7-.35.03-.07.04-.1.04-.1-.6-1.22-1.88-2.2-3.2-2.9" class="cls-3"/><path d="m179.6 92.24 7.48-.9M131.32 91.6l9.96.99" class="cls-5"/><path d="m167.53 95.04 4.26-.2-.19 3.9-1.85.13h0l-2.49.17-3.82.28h0l-1.99.13c.13-.9 1.41-2.52 3.1-3.9 1.82-1.5 2.99-.5 2.99-.5ZM176.62 92.99l2.98-.75-2.73.97-.25-.22zM147.12 75.79c-.72-3.13.16-6.66 1.03-9.04.2 1.9 1.06 5.25 4.51 6.2-1.5-.16-5.54 2.84-5.54 2.84Z" class="cls-3"/><path d="M139.56 82.06v10.05" class="cls-4"/><path d="M150.04 91.98s-1.83 0-1.65 1.89c0 0-1.57.26-1.26 2.35 0 0-1.16 1.28-.26 2.1 0 0-.81.18-.75 1.63M182.61 99.71c-.19.93-.45 1.54-.45 1.54l-.7.08-3.86.41s.22-.48.45-1.2c.05-.13.09-.28.12-.44.04-.12.08-.26.1-.39.23-.96.37-2.12.12-3.15-.31-1.3-1.42-2.14-2.31-2.62h0c-.67-.35-1.2-.5-1.2-.5l1.73-.44 2.98-.75c.17.1.32.2.48.3 2.99 2.06 2.91 5.28 2.53 7.17Z" class="cls-3"/><path d="M178.29 99.71c-.03.13-.07.27-.1.39-.04.16-.08.3-.12.44l-1.46-.03c-1.1.78-4.52 1.06-4.52 1.06l-.48 1.6c-.92.5-2.85.23-2.85.23-.84.31-1.5.32-2.01.24-.66-.11-1-.41-1-.41-.18.07-.33.11-.49.14h0c-1.09.19-1.5-.61-1.5-.61s-.65.4-1.15.15c-.38-.18-.82-1.42-1.04-2.4-.07-.3-.11-.59-.13-.8v-.06c0-.06 0-.12.02-.2.13-.9 1.41-2.52 3.1-3.9 1.82-1.5 2.99-.5 2.99-.5l4.26-.2 1.89-.1 2.41-.81h0c.9.48 2 1.31 2.31 2.62.25 1.03.1 2.19-.12 3.15Z" class="cls-3"/><path d="m147.77 101.61 5.9 8.28 18.86-1.59-9.73-7.84-15.3.56.27.59z" class="cls-3"/><path d="m184.74 103.82-7.61 2.93M181.98 103.11l-7.66 2.67" class="cls-4"/><path d="m167.54 106.71-12.24.96" class="cls-3"/><path d="m165.26 104.61-11.04.83" class="cls-4"/><path d="m127.22 106.67-.17-.38-.94-2.09-2.04-4.5-6.48-14.3H80.55L88 99.7l4.22 8.09 35.52.03-.52-1.15Zm-23.7-7.84c-.66.32-1.71-.47-2.35-1.77-.65-1.3-.63-2.62.03-2.94s1.71.47 2.35 1.77c.65 1.3.63 2.62-.03 2.94Z" class="cls-3"/><path d="M103.52 98.83c-.66.32-1.71-.47-2.35-1.77-.65-1.3-.63-2.62.03-2.94s1.71.47 2.35 1.77c.65 1.3.63 2.62-.03 2.94ZM145.45 104.3s-.09 0-.15.02c-.1 0-.23.03-.4.05-.08 0-.16.02-.26.03l-17.41 2.28h0l-.17-.38-.94-2.09 19.34.1Z" class="cls-3"/><path d="m145.88 105.53-18.13 2.3-.52-1.15h0l17.41-2.28c.1 0 .18-.02.26-.03.17-.02.3-.04.4-.05.07 0 .12-.02.15-.02 1-.13.43 1.23.43 1.23ZM103.52 98.83c-.66.32-1.71-.47-2.35-1.77-.65-1.3-.63-2.62.03-2.94s1.71.47 2.35 1.77c.65 1.3.63 2.62-.03 2.94Z" class="cls-3"/><path d="M128.58 99.71h-4.51M88 99.71H74.17" class="cls-4"/><path d="M145.11 93.37c-.5.5-2.6 2.81-2.42 6.33 0 .34.05.7.11 1.06 0 .07.02.12.04.19.07.39.17.79.31 1.21l-4.63-.29s-.09-.31-.19-.82c-.07-.36-.13-.83-.19-1.35-.22-2.3.02-5.79 3.12-7.11l3.95.68-.11.1Z" class="cls-3"/><path d="M199.83 99.71h-9.62M155.99 32.77s0 1.69.61 2.83h.02M159.28 36.32c1.34-.77 2.24-2.74 2.24-2.74M163.51 51.86h.02c.16-.03 1.26-.32 1.9-2.05.7-1.87 1.5-1.65 1.57-3.59.05-1.83-1.84-1.04-2.05-.93M148.02 35.17s1.31.78 2.77 1.05" class="cls-4"/><path d="M162.04 37.15c-.83.04-1.8-.15-2.77-.83-.4.25-.83.37-1.29.32-.64-.07-1.07-.5-1.37-1.03-.02.01-.03.03-.05.03-.18.17-1.34 1.19-2.77-.2-.75.9-1.92.99-3.02.78-.65.5-1.54.45-1.54.45-.05.07-.12.16-.16.23-2.68 3.78-2.94 6.35-2.96 6.62-.16-.67-.28-1.32-.37-1.92.14 1.14.36 1.95.41 2.13v.02l.01.03h-.01c-.04 1.07-.05 3.84.39 6.71.37 2.38 1.09 4.84 2.4 6.42 3.03 3.68 4.99 3.76 5.29 3.74.3.07 2.37.38 5.95-2.8 1.54-1.36 2.63-3.68 3.36-5.98.88-2.77 1.29-5.51 1.42-6.57h-.01c.02-.12.03-.24.03-.38-.04.1-.07.16-.07.16.03-.44.04-.89.02-1.32-.29-2.22-2.32-5.91-2.56-6.54l-.3-.06Z" class="cls-3"/><path d="M164.91 43.75c.06.42.08.81.05 1.16" class="cls-4"/><path d="M164.93 45.29s0-.02.02-.03v-.02c.09-.21.58-1.3.91-2.78v-.05c.66-2.97.69-7.45-4.24-9.44 0 0-.31-1.63-2.39-1.37 0 0-2.41-2.64-5.32-.47-2.02-.57-2.57.99-2.57.99-5.57 1.31-5.93 6.33-5.6 9.33.01.06.02.11.02.16" class="cls-4"/><path d="M149.03 37.21s-2.86 4.17-2.86 6.57M164.99 44.83v.02s-.02.18-.05.4v.05M146.15 43.77v-.03M146.17 43.31s-.01.15-.02.41M146.55 50.49h-.02c-.15-.06-1.19-.51-1.56-2.32-.4-1.96-1.23-1.87-1-3.79.23-1.81 1.98-.74 2.17-.6M152.62 33.79c.36.67.72 1.18 1.07 1.53.04.05.07.1.11.12M156.57 35.63l.03-.03" class="cls-4"/><path d="M154.64 43.53s-.64 5.76-1.9 8.66c0 0 .24.59 2.12.23" class="cls-3"/><ellipse cx="158.5" cy="46.29" class="cls-3" rx=".58" ry=".2" transform="rotate(-85.58 158.493 46.296)"/><ellipse cx="150.57" cy="45.53" class="cls-3" rx=".58" ry=".2" transform="rotate(-85.58 150.557 45.54)"/><path d="m160.29 64.98-2.1-5.61M149.03 65.41l2.36-6.04M152.73 72.96h-.07c-1.5-.16-5.54 2.84-5.54 2.84-.72-3.13.16-6.66 1.03-9.04.6-1.68 1.19-2.78 1.19-2.78-1.01 5.12 3.39 8.99 3.39 8.99ZM153.83 73.16s1.92 2.64 3.2 3.99c0 0 2.61-3.38 3.52-6.83.87-3.28.16-5.71.16-5.71s-1.72 5.06-6.88 8.55ZM157.53 100.12l2.16 1.95-1.16-2.69-1 .74zM156.74 95.39c-.05.15-.16.46-.32.86-.12.32-.29.7-.47 1.1v.02c-.08.16-.15.32-.24.5-.14.3-.3.6-.48.9 0 0 0 .02-.02.03-.17.31-.37.63-.56.91-.07.08-.12.16-.19.24-.08.1-.15.2-.23.3-.19.21-.37.4-.57.55-.3.25-.6.41-.91.46-1.62.27-3.36.47-4.97.35-.54-.03-1.08-.1-1.58-.21-1.13-.25-2.42-.38-3.34-.44a6.465 6.465 0 0 1-.15-1.25c-.18-3.52 1.91-5.83 2.42-6.33l.11-.1.94.17s2.4-2.26 3.87-2.21c.27 0 .63.07 1.04.17.72.19 1.59.6 2.5.98 1.82.77 3.19 2.94 3.16 3.01Z" class="cls-3"/><path d="M156.73 97.42s-.02 1.72-2.76 1.31c-2.75-.41-5.36-1.76-5.36-1.76" class="cls-4"/><path d="M155.22 98.8s1.12 1.7-2.15 1.45-5.29-1.11-5.29-1.11" class="cls-4"/><path d="m158.66 99.29-.53.4-.03.02-.7.52-.33-.47-.04-.06-.9-1.26-.42-.58-.38-.52-.16-.23-2.83-3.96h0l-1.25-1.75-3.58-5-.61-.86c.17-.81 1.08-.79 1.08-.79l.65.89 4.97 6.74 1.76 2.41 1.08 1.46.74 1.01 1.5 2.03Z" class="cls-3"/><path d="M149.43 94.52s4.89 2.65 6.54 2.97c1.65.33 2.04-1.17 1.4-1.63-.65-.45-4.62-1.76-5.56-3.06" class="cls-3"/><path d="M164.01 101.42s-.95-1.29-.82-1.76 3.19-3.04 3.19-3.04M166.6 103.36s-1.31-1.99-.49-2.94 2.16-2.6 2.16-2.6M168.75 103.4s-1.09-.99-.78-1.67c.31-.67 1.79-2.88 1.79-2.88M166.47 99.99l-1.29 1.14M172.04 101.57l-1.88.28" class="cls-4"/><path d="m177.61 101.74-1.01-1.23M143.16 102.16l1.13-1.07" class="cls-3"/><path d="m18.23 15.8 156.17 98.46M174.4 15.8 18.23 114.26" class="cls-6"/></svg>