<svg xmlns="http://www.w3.org/2000/svg" id="Calque_1" viewBox="0 0 128 128"><defs><style>.cls-1,.cls-2{fill:none;stroke:#87ccf3;stroke-width:2px;stroke-linecap:round;stroke-miterlimit:10}.cls-2{fill:#fff;stroke:#000;stroke-width:3px}</style></defs><path d="M97.05 37.49c-2.59-10.44-12.02-18.2-23.28-18.2-8.1 0-15.28 4.03-19.61 10.17-1.41-.33-2.88-.49-4.39-.49-9.45 0-17.4 6.39-19.75 15.09-6.97 3.26-11.8 10.35-11.8 18.54 0 11.32 9.17 20.47 20.47 20.47l47.1-.42c13.24 0 23.98-10.74 23.98-23.98 0-9.19-5.16-17.16-12.73-21.19Z" class="cls-2"/><path d="M64.98 43v28.93M50.52 57.46h28.93M54.75 47.24l20.46 20.45M54.75 67.69l20.46-20.45M58.24 45.07l1.72 7.38-7.37-1.73M72.2 70.33l-1.73-7.37 7.38 1.72M52.59 64.68l7.37-1.72-1.72 7.37M77.85 50.73l-7.38 1.72 1.72-7.38M61.22 71.56l4-6.43 4 6.44M69.22 43.84l-4 6.43-4-6.43M79.08 61.7l-6.43-4 6.43-3.99M51.35 53.7l6.44 4-6.44 4" class="cls-1"/><circle cx="40.04" cy="92.73" r="3.96" class="cls-2"/><circle cx="64.98" cy="92.73" r="3.96" class="cls-2"/><circle cx="89.93" cy="92.73" r="3.96" class="cls-2"/><circle cx="53.11" cy="105.37" r="3.96" class="cls-2"/><circle cx="76.86" cy="105.37" r="3.96" class="cls-2"/></svg>