<svg xmlns="http://www.w3.org/2000/svg" id="Calque_1" data-name="Calque 1" viewBox="0 0 200.13 128.13"><defs><style>.cls-1{fill:#d6d6d6}.cls-1,.cls-2,.cls-3,.cls-4{stroke-linecap:round;stroke-linejoin:round}.cls-1,.cls-2,.cls-3,.cls-4,.cls-5{stroke:#000}.cls-2{fill:#f3d587}.cls-3{fill:#e9cb61}.cls-4{fill:none}.cls-5{fill:#fff;stroke-miterlimit:10}</style></defs><path d="M29.28 109.72c-.54 0-1.07-.23-1.44-.68l-2.61-3.14c-.53-.64-.58-1.55-.11-2.24l1.82-3.47c.58-.86 2.53-1.5 3.39-.92.86.58.76 3.3.18 4.16l-1.49 1.15 1.71 2.07a1.873 1.873 0 0 1-1.45 3.07ZM34.05 109.72c.54 0 1.07-.23 1.44-.68l2.61-3.14c.53-.64.58-1.55.11-2.24l-1.82-3.47c-.58-.86-2.53-1.5-3.39-.92-.86.58-.76 3.3-.18 4.16l1.49 1.15-1.71 2.07a1.873 1.873 0 0 0 1.45 3.07Z" class="cls-5"/><path d="M40.98 99.73c-.34.37-.8.56-1.27.56-.42 0-.83-.15-1.16-.46l-2.37-2.18v1.58h-9.21V97.7l-2.31 2.12c-.33.31-.75.46-1.16.46-.47 0-.93-.19-1.27-.56-.64-.7-.6-1.78.1-2.43l5-4.6c.5-.46 1.19-.57 1.78-.34h4.98c.59-.23 1.28-.12 1.78.34l5 4.6c.7.64.74 1.73.1 2.43Z" class="cls-5"/><path d="M36.28 99.23v.95l-3.56 3.25H30.5l-3.57-3.25v-.95h9.35z" class="cls-2"/><circle cx="31.61" cy="88.15" r="5.13" class="cls-5"/><path d="M59.95 79.99c-.51 0-1.03-.22-1.38-.65l-2.49-3c-.51-.61-.55-1.48-.11-2.14l1.74-3.31c.55-.82 2.42-1.43 3.24-.88.82.55.72 3.15.17 3.97l-1.42 1.1 1.63 1.97c.63.76.53 1.89-.24 2.52-.33.28-.74.41-1.14.41ZM64.5 79.99c.51 0 1.03-.22 1.38-.65l2.49-3c.51-.61.55-1.48.11-2.14l-1.74-3.31c-.55-.82-2.42-1.43-3.24-.88-.82.55-.72 3.15-.17 3.97l1.42 1.1-1.63 1.97c-.63.76-.53 1.89.24 2.52.33.28.74.41 1.14.41Z" class="cls-5"/><path d="M71.12 70.45c-.32.35-.76.53-1.21.53-.4 0-.79-.14-1.11-.44l-2.26-2.08v1.51h-8.79v-1.46l-2.21 2.03c-.32.29-.71.44-1.11.44-.44 0-.89-.18-1.21-.53-.61-.67-.57-1.7.1-2.32l4.77-4.39c.47-.44 1.14-.54 1.7-.32h4.76c.56-.22 1.22-.11 1.7.32l4.77 4.39c.67.61.71 1.65.1 2.32Z" class="cls-5"/><path d="M66.64 69.98v.91l-3.41 3.1h-2.12l-3.4-3.1v-.91h8.93z" class="cls-3"/><circle cx="62.17" cy="59.4" r="4.9" class="cls-5"/><path d="M59.95 109.65c-.51 0-1.03-.22-1.38-.65l-2.49-3c-.51-.61-.55-1.48-.11-2.14l1.74-3.31c.55-.82 2.42-1.43 3.24-.88.82.55.72 3.15.17 3.97l-1.42 1.1 1.63 1.97c.63.76.53 1.89-.24 2.52-.33.28-.74.41-1.14.41ZM64.5 109.65c.51 0 1.03-.22 1.38-.65l2.49-3c.51-.61.55-1.48.11-2.14l-1.74-3.31c-.55-.82-2.42-1.43-3.24-.88-.82.55-.72 3.15-.17 3.97l1.42 1.1-1.63 1.97c-.63.76-.53 1.89.24 2.52.33.28.74.41 1.14.41Z" class="cls-5"/><path d="M71.12 100.1c-.32.35-.76.53-1.21.53-.4 0-.79-.14-1.11-.44l-2.26-2.08v1.51h-8.79v-1.46l-2.21 2.03c-.32.29-.71.44-1.11.44-.44 0-.89-.18-1.21-.53-.61-.67-.57-1.7.1-2.32l4.77-4.39c.47-.44 1.14-.54 1.7-.32h4.76c.56-.22 1.22-.11 1.7.32l4.77 4.39c.67.61.71 1.65.1 2.32Z" class="cls-5"/><path d="M66.64 99.63v.91l-3.41 3.1h-2.12l-3.4-3.1v-.91h8.93z" class="cls-2"/><circle cx="62.17" cy="89.06" r="4.9" class="cls-5"/><path d="M90.09 51.58c-.5 0-1-.22-1.35-.63l-2.44-2.94c-.5-.6-.54-1.45-.11-2.1l1.7-3.24c.54-.8 2.36-1.4 3.17-.86.8.54.71 3.09.17 3.89l-1.39 1.08 1.6 1.93c.62.74.51 1.85-.23 2.47-.33.27-.72.4-1.12.4ZM94.54 51.58c.5 0 1-.22 1.35-.63l2.44-2.94c.5-.6.54-1.45.11-2.1l-1.7-3.24c-.54-.8-2.36-1.4-3.17-.86-.8.54-.71 3.09-.17 3.89l1.39 1.08-1.6 1.93c-.62.74-.51 1.85.23 2.47.33.27.72.4 1.12.4Z" class="cls-5"/><path d="M101.02 42.24c-.32.34-.75.52-1.18.52-.39 0-.78-.14-1.09-.43l-2.21-2.04v1.48h-8.6v-1.42l-2.16 1.98c-.31.29-.7.43-1.09.43a1.61 1.61 0 0 1-1.09-2.79l4.67-4.3c.46-.43 1.11-.53 1.66-.32h4.65c.55-.21 1.2-.11 1.66.32l4.67 4.3c.65.6.69 1.61.09 2.27Z" class="cls-5"/><path d="M96.63 41.78v.89l-3.32 3.03h-2.08l-3.33-3.03v-.89h8.73z" class="cls-1"/><circle cx="92.27" cy="31.43" r="4.8" class="cls-5"/><path d="M90.09 51.58c-.5 0-1-.22-1.35-.63l-2.44-2.94c-.5-.6-.54-1.45-.11-2.1l1.7-3.24c.54-.8 2.36-1.4 3.17-.86.8.54.71 3.09.17 3.89l-1.39 1.08 1.6 1.93c.62.74.51 1.85-.23 2.47-.33.27-.72.4-1.12.4ZM94.54 51.58c.5 0 1-.22 1.35-.63l2.44-2.94c.5-.6.54-1.45.11-2.1l-1.7-3.24c-.54-.8-2.36-1.4-3.17-.86-.8.54-.71 3.09-.17 3.89l1.39 1.08-1.6 1.93c-.62.74-.51 1.85.23 2.47.33.27.72.4 1.12.4Z" class="cls-5"/><path d="M101.02 42.24c-.32.34-.75.52-1.18.52-.39 0-.78-.14-1.09-.43l-2.21-2.04v1.48h-8.6v-1.42l-2.16 1.98c-.31.29-.7.43-1.09.43a1.61 1.61 0 0 1-1.09-2.79l4.67-4.3c.46-.43 1.11-.53 1.66-.32h4.65c.55-.21 1.2-.11 1.66.32l4.67 4.3c.65.6.69 1.61.09 2.27Z" class="cls-5"/><path d="M96.63 41.78v.89l-3.32 3.03h-2.08l-3.33-3.03v-.89h8.73z" class="cls-3"/><circle cx="92.27" cy="31.43" r="4.8" class="cls-5"/><path d="M89.67 80.59c-.5 0-1-.22-1.35-.63l-2.44-2.94c-.5-.6-.54-1.45-.11-2.1l1.7-3.24c.54-.8 2.36-1.4 3.17-.86.8.54.71 3.09.17 3.89l-1.39 1.08 1.6 1.93c.62.74.51 1.85-.23 2.47-.33.27-.72.4-1.12.4ZM94.12 80.59c.5 0 1-.22 1.35-.63l2.44-2.94c.5-.6.54-1.45.11-2.1l-1.7-3.24c-.54-.8-2.36-1.4-3.17-.86-.8.54-.71 3.09-.17 3.89l1.39 1.08-1.6 1.93c-.62.74-.51 1.85.23 2.47.33.27.72.4 1.12.4Z" class="cls-5"/><path d="M100.6 71.25c-.32.34-.75.52-1.18.52-.39 0-.78-.14-1.09-.43l-2.21-2.04v1.48h-8.6v-1.42l-2.16 1.98c-.31.29-.7.43-1.09.43a1.61 1.61 0 0 1-1.09-2.79l4.67-4.3c.46-.43 1.11-.53 1.66-.32h4.65c.55-.21 1.2-.11 1.66.32l4.67 4.3c.65.6.69 1.61.09 2.27Z" class="cls-5"/><path d="M96.21 70.79v.89l-3.32 3.03h-2.08l-3.33-3.03v-.89h8.73z" class="cls-1"/><circle cx="91.85" cy="60.45" r="4.8" class="cls-5"/><path d="M89.67 80.59c-.5 0-1-.22-1.35-.63l-2.44-2.94c-.5-.6-.54-1.45-.11-2.1l1.7-3.24c.54-.8 2.36-1.4 3.17-.86.8.54.71 3.09.17 3.89l-1.39 1.08 1.6 1.93c.62.74.51 1.85-.23 2.47-.33.27-.72.4-1.12.4ZM94.12 80.59c.5 0 1-.22 1.35-.63l2.44-2.94c.5-.6.54-1.45.11-2.1l-1.7-3.24c-.54-.8-2.36-1.4-3.17-.86-.8.54-.71 3.09-.17 3.89l1.39 1.08-1.6 1.93c-.62.74-.51 1.85.23 2.47.33.27.72.4 1.12.4Z" class="cls-5"/><path d="M100.6 71.25c-.32.34-.75.52-1.18.52-.39 0-.78-.14-1.09-.43l-2.21-2.04v1.48h-8.6v-1.42l-2.16 1.98c-.31.29-.7.43-1.09.43a1.61 1.61 0 0 1-1.09-2.79l4.67-4.3c.46-.43 1.11-.53 1.66-.32h4.65c.55-.21 1.2-.11 1.66.32l4.67 4.3c.65.6.69 1.61.09 2.27Z" class="cls-5"/><path d="M96.21 70.79v.89l-3.32 3.03h-2.08l-3.33-3.03v-.89h8.73z" class="cls-3"/><circle cx="91.85" cy="60.45" r="4.8" class="cls-5"/><path d="M89.66 109.52c-.5 0-1-.22-1.35-.63l-2.44-2.94c-.5-.6-.54-1.45-.11-2.1l1.7-3.24c.54-.8 2.36-1.4 3.17-.86.8.54.71 3.09.17 3.89l-1.39 1.08 1.6 1.93c.62.74.51 1.85-.23 2.47-.33.27-.72.4-1.12.4ZM94.12 109.52c.5 0 1-.22 1.35-.63l2.44-2.94c.5-.6.54-1.45.11-2.1l-1.7-3.24c-.54-.8-2.36-1.4-3.17-.86-.8.54-.71 3.09-.17 3.89l1.39 1.08-1.6 1.93c-.62.74-.51 1.85.23 2.47.33.27.72.4 1.12.4Z" class="cls-5"/><path d="M100.59 100.18c-.32.34-.75.52-1.18.52-.39 0-.78-.14-1.09-.43l-2.21-2.04v1.48h-8.6v-1.42l-2.16 1.98c-.31.29-.7.43-1.09.43a1.61 1.61 0 0 1-1.09-2.79l4.67-4.3c.46-.43 1.11-.53 1.66-.32h4.65c.55-.21 1.2-.11 1.66.32l4.67 4.3c.65.6.69 1.61.09 2.27Z" class="cls-5"/><path d="M96.21 99.72v.89l-3.33 3.03H90.8l-3.33-3.03v-.89h8.74z" class="cls-1"/><circle cx="91.84" cy="89.37" r="4.8" class="cls-5"/><path d="M89.66 109.52c-.5 0-1-.22-1.35-.63l-2.44-2.94c-.5-.6-.54-1.45-.11-2.1l1.7-3.24c.54-.8 2.36-1.4 3.17-.86.8.54.71 3.09.17 3.89l-1.39 1.08 1.6 1.93c.62.74.51 1.85-.23 2.47-.33.27-.72.4-1.12.4ZM94.12 109.52c.5 0 1-.22 1.35-.63l2.44-2.94c.5-.6.54-1.45.11-2.1l-1.7-3.24c-.54-.8-2.36-1.4-3.17-.86-.8.54-.71 3.09-.17 3.89l1.39 1.08-1.6 1.93c-.62.74-.51 1.85.23 2.47.33.27.72.4 1.12.4Z" class="cls-5"/><path d="M100.59 100.18c-.32.34-.75.52-1.18.52-.39 0-.78-.14-1.09-.43l-2.21-2.04v1.48h-8.6v-1.42l-2.16 1.98c-.31.29-.7.43-1.09.43a1.61 1.61 0 0 1-1.09-2.79l4.67-4.3c.46-.43 1.11-.53 1.66-.32h4.65c.55-.21 1.2-.11 1.66.32l4.67 4.3c.65.6.69 1.61.09 2.27Z" class="cls-5"/><path d="M96.21 99.72v.89l-3.33 3.03H90.8l-3.33-3.03v-.89h8.74z" class="cls-2"/><circle cx="91.84" cy="89.37" r="4.8" class="cls-5"/><path d="M119.23 33.49c-.44 0-.88-.19-1.18-.55l-2.13-2.57c-.43-.52-.47-1.27-.09-1.83l1.49-2.83c.47-.7 2.07-1.22 2.77-.75.7.47.62 2.7.14 3.4l-1.22.94 1.4 1.69c.54.65.45 1.62-.2 2.16-.29.24-.63.35-.98.35ZM123.12 33.49c.44 0 .88-.19 1.18-.55l2.13-2.57c.43-.52.47-1.27.09-1.83l-1.49-2.83c-.47-.7-2.07-1.22-2.77-.75-.7.47-.62 2.7-.14 3.4l1.22.94-1.4 1.69c-.54.65-.45 1.62.2 2.16.29.24.63.35.98.35Z" class="cls-5"/><path d="M128.78 25.33c-.28.3-.65.45-1.03.45-.34 0-.68-.12-.95-.37l-1.94-1.78v1.29h-7.52v-1.25l-1.89 1.73c-.27.25-.61.37-.95.37-.38 0-.76-.15-1.03-.45-.53-.57-.49-1.46.08-1.98l4.08-3.76c.41-.37.97-.46 1.45-.28h4.07c.48-.19 1.05-.1 1.45.28l4.08 3.76c.57.53.61 1.41.08 1.98Z" class="cls-5"/><path d="M124.95 24.92v.78l-2.91 2.65h-1.82l-2.91-2.65v-.78h7.64z" class="cls-1"/><circle cx="121.13" cy="15.88" r="4.19" class="cls-5"/><path d="M119.23 33.49c-.44 0-.88-.19-1.18-.55l-2.13-2.57c-.43-.52-.47-1.27-.09-1.83l1.49-2.83c.47-.7 2.07-1.22 2.77-.75.7.47.62 2.7.14 3.4l-1.22.94 1.4 1.69c.54.65.45 1.62-.2 2.16-.29.24-.63.35-.98.35ZM123.12 33.49c.44 0 .88-.19 1.18-.55l2.13-2.57c.43-.52.47-1.27.09-1.83l-1.49-2.83c-.47-.7-2.07-1.22-2.77-.75-.7.47-.62 2.7-.14 3.4l1.22.94-1.4 1.69c-.54.65-.45 1.62.2 2.16.29.24.63.35.98.35Z" class="cls-5"/><path d="M128.78 25.33c-.28.3-.65.45-1.03.45-.34 0-.68-.12-.95-.37l-1.94-1.78v1.29h-7.52v-1.25l-1.89 1.73c-.27.25-.61.37-.95.37-.38 0-.76-.15-1.03-.45-.53-.57-.49-1.46.08-1.98l4.08-3.76c.41-.37.97-.46 1.45-.28h4.07c.48-.19 1.05-.1 1.45.28l4.08 3.76c.57.53.61 1.41.08 1.98Z" class="cls-5"/><path d="M124.95 24.92v.78l-2.91 2.65h-1.82l-2.91-2.65v-.78h7.64z" class="cls-3"/><circle cx="121.13" cy="15.88" r="4.19" class="cls-5"/><path d="M119.23 58.86c-.44 0-.88-.19-1.18-.55l-2.13-2.57c-.43-.52-.47-1.27-.09-1.83l1.49-2.83c.47-.7 2.07-1.22 2.77-.75.7.47.62 2.7.14 3.4l-1.22.94 1.4 1.69c.54.65.45 1.62-.2 2.16-.29.24-.63.35-.98.35ZM123.12 58.86c.44 0 .88-.19 1.18-.55l2.13-2.57c.43-.52.47-1.27.09-1.83l-1.49-2.83c-.47-.7-2.07-1.22-2.77-.75-.7.47-.62 2.7-.14 3.4l1.22.94-1.4 1.69c-.54.65-.45 1.62.2 2.16.29.24.63.35.98.35Z" class="cls-5"/><path d="M128.78 50.69c-.28.3-.65.45-1.03.45-.34 0-.68-.12-.95-.37l-1.94-1.78v1.29h-7.52v-1.25l-1.89 1.73c-.27.25-.61.37-.95.37-.38 0-.76-.15-1.03-.45-.53-.57-.49-1.46.08-1.98l4.08-3.76c.41-.37.97-.46 1.45-.28h4.07c.48-.19 1.05-.1 1.45.28l4.08 3.76c.57.53.61 1.41.08 1.98Z" class="cls-5"/><path d="M124.95 50.29v.78l-2.91 2.65h-1.82l-2.91-2.65v-.78h7.64z" class="cls-1"/><circle cx="121.13" cy="41.24" r="4.19" class="cls-5"/><path d="M119.23 58.86c-.44 0-.88-.19-1.18-.55l-2.13-2.57c-.43-.52-.47-1.27-.09-1.83l1.49-2.83c.47-.7 2.07-1.22 2.77-.75.7.47.62 2.7.14 3.4l-1.22.94 1.4 1.69c.54.65.45 1.62-.2 2.16-.29.24-.63.35-.98.35ZM123.12 58.86c.44 0 .88-.19 1.18-.55l2.13-2.57c.43-.52.47-1.27.09-1.83l-1.49-2.83c-.47-.7-2.07-1.22-2.77-.75-.7.47-.62 2.7-.14 3.4l1.22.94-1.4 1.69c-.54.65-.45 1.62.2 2.16.29.24.63.35.98.35Z" class="cls-5"/><path d="M128.78 50.69c-.28.3-.65.45-1.03.45-.34 0-.68-.12-.95-.37l-1.94-1.78v1.29h-7.52v-1.25l-1.89 1.73c-.27.25-.61.37-.95.37-.38 0-.76-.15-1.03-.45-.53-.57-.49-1.46.08-1.98l4.08-3.76c.41-.37.97-.46 1.45-.28h4.07c.48-.19 1.05-.1 1.45.28l4.08 3.76c.57.53.61 1.41.08 1.98Z" class="cls-5"/><path d="M124.95 50.29v.78l-2.91 2.65h-1.82l-2.91-2.65v-.78h7.64z" class="cls-3"/><circle cx="121.13" cy="41.24" r="4.19" class="cls-5"/><path d="M119.23 84.15c-.44 0-.88-.19-1.18-.55l-2.13-2.57c-.43-.52-.47-1.27-.09-1.83l1.49-2.83c.47-.7 2.07-1.22 2.77-.75.7.47.62 2.7.14 3.4l-1.22.94 1.4 1.69c.54.65.45 1.62-.2 2.16-.29.24-.63.35-.98.35ZM123.12 84.15c.44 0 .88-.19 1.18-.55l2.13-2.57c.43-.52.47-1.27.09-1.83l-1.49-2.83c-.47-.7-2.07-1.22-2.77-.75-.7.47-.62 2.7-.14 3.4l1.22.94-1.4 1.69c-.54.65-.45 1.62.2 2.16.29.24.63.35.98.35Z" class="cls-5"/><path d="M128.78 75.99c-.28.3-.65.45-1.03.45-.34 0-.68-.12-.95-.37l-1.94-1.78v1.29h-7.52v-1.25l-1.89 1.73c-.27.25-.61.37-.95.37-.38 0-.76-.15-1.03-.45-.53-.57-.49-1.46.08-1.98l4.08-3.76c.41-.37.97-.46 1.45-.28h4.07c.48-.19 1.05-.1 1.45.28l4.08 3.76c.57.53.61 1.41.08 1.98Z" class="cls-5"/><path d="M124.95 75.58v.78l-2.91 2.65h-1.82l-2.91-2.65v-.78h7.64z" class="cls-1"/><circle cx="121.13" cy="66.53" r="4.19" class="cls-5"/><path d="M119.23 84.15c-.44 0-.88-.19-1.18-.55l-2.13-2.57c-.43-.52-.47-1.27-.09-1.83l1.49-2.83c.47-.7 2.07-1.22 2.77-.75.7.47.62 2.7.14 3.4l-1.22.94 1.4 1.69c.54.65.45 1.62-.2 2.16-.29.24-.63.35-.98.35ZM123.12 84.15c.44 0 .88-.19 1.18-.55l2.13-2.57c.43-.52.47-1.27.09-1.83l-1.49-2.83c-.47-.7-2.07-1.22-2.77-.75-.7.47-.62 2.7-.14 3.4l1.22.94-1.4 1.69c-.54.65-.45 1.62.2 2.16.29.24.63.35.98.35Z" class="cls-5"/><path d="M128.78 75.99c-.28.3-.65.45-1.03.45-.34 0-.68-.12-.95-.37l-1.94-1.78v1.29h-7.52v-1.25l-1.89 1.73c-.27.25-.61.37-.95.37-.38 0-.76-.15-1.03-.45-.53-.57-.49-1.46.08-1.98l4.08-3.76c.41-.37.97-.46 1.45-.28h4.07c.48-.19 1.05-.1 1.45.28l4.08 3.76c.57.53.61 1.41.08 1.98Z" class="cls-5"/><path d="M124.95 75.58v.78l-2.91 2.65h-1.82l-2.91-2.65v-.78h7.64z" class="cls-3"/><circle cx="121.13" cy="66.53" r="4.19" class="cls-5"/><path d="M119.23 109.59c-.44 0-.88-.19-1.18-.55l-2.13-2.57c-.43-.52-.47-1.27-.09-1.83l1.49-2.83c.47-.7 2.07-1.22 2.77-.75.7.47.62 2.7.14 3.4l-1.22.94 1.4 1.69c.54.65.45 1.62-.2 2.16-.29.24-.63.35-.98.35ZM123.12 109.59c.44 0 .88-.19 1.18-.55l2.13-2.57c.43-.52.47-1.27.09-1.83l-1.49-2.83c-.47-.7-2.07-1.22-2.77-.75-.7.47-.62 2.7-.14 3.4l1.22.94-1.4 1.69c-.54.65-.45 1.62.2 2.16.29.24.63.35.98.35Z" class="cls-5"/><path d="M128.78 101.43c-.28.3-.65.45-1.03.45-.34 0-.68-.12-.95-.37l-1.94-1.78v1.29h-7.52v-1.25l-1.89 1.73c-.27.25-.61.37-.95.37-.38 0-.76-.15-1.03-.45-.53-.57-.49-1.46.08-1.98l4.08-3.76c.41-.37.97-.46 1.45-.28h4.07c.48-.19 1.05-.1 1.45.28l4.08 3.76c.57.53.61 1.41.08 1.98Z" class="cls-5"/><path d="M124.95 101.02v.78l-2.91 2.65h-1.82l-2.91-2.65v-.78h7.64z" class="cls-1"/><circle cx="121.13" cy="91.98" r="4.19" class="cls-5"/><path d="M119.23 109.59c-.44 0-.88-.19-1.18-.55l-2.13-2.57c-.43-.52-.47-1.27-.09-1.83l1.49-2.83c.47-.7 2.07-1.22 2.77-.75.7.47.62 2.7.14 3.4l-1.22.94 1.4 1.69c.54.65.45 1.62-.2 2.16-.29.24-.63.35-.98.35ZM123.12 109.59c.44 0 .88-.19 1.18-.55l2.13-2.57c.43-.52.47-1.27.09-1.83l-1.49-2.83c-.47-.7-2.07-1.22-2.77-.75-.7.47-.62 2.7-.14 3.4l1.22.94-1.4 1.69c-.54.65-.45 1.62.2 2.16.29.24.63.35.98.35Z" class="cls-5"/><path d="M128.78 101.43c-.28.3-.65.45-1.03.45-.34 0-.68-.12-.95-.37l-1.94-1.78v1.29h-7.52v-1.25l-1.89 1.73c-.27.25-.61.37-.95.37-.38 0-.76-.15-1.03-.45-.53-.57-.49-1.46.08-1.98l4.08-3.76c.41-.37.97-.46 1.45-.28h4.07c.48-.19 1.05-.1 1.45.28l4.08 3.76c.57.53.61 1.41.08 1.98Z" class="cls-5"/><path d="M124.95 101.02v.78l-2.91 2.65h-1.82l-2.91-2.65v-.78h7.64z" class="cls-2"/><circle cx="121.13" cy="91.98" r="4.19" class="cls-5"/><path d="M46.53 3.35v118.36M76.37 3.35v118.36M106.21 3.35v118.36M136.05 3.35v118.36M165.89 3.35v118.36M195.73 3.35v118.36M16.69 3.35v118.36" class="cls-4"/><path d="M149.4 46.81c-.36 0-.73-.16-.98-.46l-1.76-2.12c-.36-.43-.39-1.05-.08-1.51l1.23-2.34c.39-.58 1.71-1.01 2.29-.62.58.39.51 2.23.12 2.81l-1.01.78 1.16 1.39c.45.54.37 1.34-.17 1.78-.24.2-.52.29-.81.29ZM152.62 46.81c.36 0 .73-.16.98-.46l1.76-2.12c.36-.43.39-1.05.08-1.51l-1.23-2.34c-.39-.58-1.71-1.01-2.29-.62-.58.39-.51 2.23-.12 2.81l1.01.78-1.16 1.39c-.45.54-.37 1.34.17 1.78.24.2.52.29.81.29Z" class="cls-5"/><path d="M157.3 40.06c-.23.25-.54.38-.85.38-.28 0-.56-.1-.79-.31l-1.6-1.47v1.07h-6.22V38.7l-1.56 1.43c-.22.21-.5.31-.79.31a1.166 1.166 0 0 1-.78-2.02l3.38-3.11c.34-.31.8-.38 1.2-.23h3.36c.4-.15.87-.08 1.2.23l3.38 3.11c.47.43.5 1.17.07 1.64Z" class="cls-5"/><path d="M154.13 39.72v.65l-2.41 2.19h-1.5l-2.41-2.19v-.65h6.32z" class="cls-1"/><circle cx="150.97" cy="32.24" r="3.47" class="cls-5"/><path d="M149.4 46.81c-.36 0-.73-.16-.98-.46l-1.76-2.12c-.36-.43-.39-1.05-.08-1.51l1.23-2.34c.39-.58 1.71-1.01 2.29-.62.58.39.51 2.23.12 2.81l-1.01.78 1.16 1.39c.45.54.37 1.34-.17 1.78-.24.2-.52.29-.81.29ZM152.62 46.81c.36 0 .73-.16.98-.46l1.76-2.12c.36-.43.39-1.05.08-1.51l-1.23-2.34c-.39-.58-1.71-1.01-2.29-.62-.58.39-.51 2.23-.12 2.81l1.01.78-1.16 1.39c-.45.54-.37 1.34.17 1.78.24.2.52.29.81.29Z" class="cls-5"/><path d="M157.3 40.06c-.23.25-.54.38-.85.38-.28 0-.56-.1-.79-.31l-1.6-1.47v1.07h-6.22V38.7l-1.56 1.43c-.22.21-.5.31-.79.31a1.166 1.166 0 0 1-.78-2.02l3.38-3.11c.34-.31.8-.38 1.2-.23h3.36c.4-.15.87-.08 1.2.23l3.38 3.11c.47.43.5 1.17.07 1.64Z" class="cls-5"/><path d="M154.13 39.72v.65l-2.41 2.19h-1.5l-2.41-2.19v-.65h6.32z" class="cls-3"/><circle cx="150.97" cy="32.24" r="3.47" class="cls-5"/><path d="M149.4 25.83c-.36 0-.73-.16-.98-.46l-1.76-2.12c-.36-.43-.39-1.05-.08-1.51l1.23-2.34c.39-.58 1.71-1.01 2.29-.62.58.39.51 2.23.12 2.81l-1.01.78 1.16 1.39c.45.54.37 1.34-.17 1.78-.24.2-.52.29-.81.29ZM152.62 25.83c.36 0 .73-.16.98-.46l1.76-2.12c.36-.43.39-1.05.08-1.51l-1.23-2.34c-.39-.58-1.71-1.01-2.29-.62-.58.39-.51 2.23-.12 2.81l1.01.78-1.16 1.39c-.45.54-.37 1.34.17 1.78.24.2.52.29.81.29Z" class="cls-5"/><path d="M157.3 19.08c-.23.25-.54.38-.85.38-.28 0-.56-.1-.79-.31l-1.6-1.47v1.07h-6.22v-1.03l-1.56 1.43c-.22.21-.5.31-.79.31a1.166 1.166 0 0 1-.78-2.02l3.38-3.11c.34-.31.8-.38 1.2-.23h3.36c.4-.15.87-.08 1.2.23l3.38 3.11c.47.43.5 1.17.07 1.64Z" class="cls-5"/><path d="M154.13 18.75v.64l-2.41 2.2h-1.5l-2.41-2.2v-.64h6.32z" class="cls-1"/><circle cx="150.97" cy="11.27" r="3.47" class="cls-5"/><path d="M149.4 25.83c-.36 0-.73-.16-.98-.46l-1.76-2.12c-.36-.43-.39-1.05-.08-1.51l1.23-2.34c.39-.58 1.71-1.01 2.29-.62.58.39.51 2.23.12 2.81l-1.01.78 1.16 1.39c.45.54.37 1.34-.17 1.78-.24.2-.52.29-.81.29ZM152.62 25.83c.36 0 .73-.16.98-.46l1.76-2.12c.36-.43.39-1.05.08-1.51l-1.23-2.34c-.39-.58-1.71-1.01-2.29-.62-.58.39-.51 2.23-.12 2.81l1.01.78-1.16 1.39c-.45.54-.37 1.34.17 1.78.24.2.52.29.81.29Z" class="cls-5"/><path d="M157.3 19.08c-.23.25-.54.38-.85.38-.28 0-.56-.1-.79-.31l-1.6-1.47v1.07h-6.22v-1.03l-1.56 1.43c-.22.21-.5.31-.79.31a1.166 1.166 0 0 1-.78-2.02l3.38-3.11c.34-.31.8-.38 1.2-.23h3.36c.4-.15.87-.08 1.2.23l3.38 3.11c.47.43.5 1.17.07 1.64Z" class="cls-5"/><path d="M154.13 18.75v.64l-2.41 2.2h-1.5l-2.41-2.2v-.64h6.32z" class="cls-3"/><circle cx="150.97" cy="11.27" r="3.47" class="cls-5"/><path d="M149.4 67.78c-.36 0-.73-.16-.98-.46l-1.76-2.12c-.36-.43-.39-1.05-.08-1.51l1.23-2.34c.39-.58 1.71-1.01 2.29-.62.58.39.51 2.23.12 2.81l-1.01.78 1.16 1.39c.45.54.37 1.34-.17 1.78-.24.2-.52.29-.81.29ZM152.62 67.78c.36 0 .73-.16.98-.46l1.76-2.12c.36-.43.39-1.05.08-1.51l-1.23-2.34c-.39-.58-1.71-1.01-2.29-.62-.58.39-.51 2.23-.12 2.81l1.01.78-1.16 1.39c-.45.54-.37 1.34.17 1.78.24.2.52.29.81.29Z" class="cls-5"/><path d="M157.3 61.03c-.23.25-.54.38-.85.38-.28 0-.56-.1-.79-.31l-1.6-1.47v1.07h-6.22v-1.03l-1.56 1.43c-.22.21-.5.31-.79.31a1.166 1.166 0 0 1-.78-2.02l3.38-3.11c.34-.31.8-.38 1.2-.23h3.36c.4-.15.87-.08 1.2.23l3.38 3.11c.47.43.5 1.17.07 1.64Z" class="cls-5"/><path d="M154.13 60.69v.65l-2.41 2.19h-1.5l-2.41-2.19v-.65h6.32z" class="cls-1"/><circle cx="150.97" cy="53.22" r="3.47" class="cls-5"/><path d="M149.4 67.78c-.36 0-.73-.16-.98-.46l-1.76-2.12c-.36-.43-.39-1.05-.08-1.51l1.23-2.34c.39-.58 1.71-1.01 2.29-.62.58.39.51 2.23.12 2.81l-1.01.78 1.16 1.39c.45.54.37 1.34-.17 1.78-.24.2-.52.29-.81.29ZM152.62 67.78c.36 0 .73-.16.98-.46l1.76-2.12c.36-.43.39-1.05.08-1.51l-1.23-2.34c-.39-.58-1.71-1.01-2.29-.62-.58.39-.51 2.23-.12 2.81l1.01.78-1.16 1.39c-.45.54-.37 1.34.17 1.78.24.2.52.29.81.29Z" class="cls-5"/><path d="M157.3 61.03c-.23.25-.54.38-.85.38-.28 0-.56-.1-.79-.31l-1.6-1.47v1.07h-6.22v-1.03l-1.56 1.43c-.22.21-.5.31-.79.31a1.166 1.166 0 0 1-.78-2.02l3.38-3.11c.34-.31.8-.38 1.2-.23h3.36c.4-.15.87-.08 1.2.23l3.38 3.11c.47.43.5 1.17.07 1.64Z" class="cls-5"/><path d="M154.13 60.69v.65l-2.41 2.19h-1.5l-2.41-2.19v-.65h6.32z" class="cls-3"/><circle cx="150.97" cy="53.22" r="3.47" class="cls-5"/><path d="M149.4 88.69c-.36 0-.73-.16-.98-.46l-1.76-2.12c-.36-.43-.39-1.05-.08-1.51l1.23-2.34c.39-.58 1.71-1.01 2.29-.62.58.39.51 2.23.12 2.81l-1.01.78 1.16 1.39c.45.54.37 1.34-.17 1.78-.24.2-.52.29-.81.29ZM152.62 88.69c.36 0 .73-.16.98-.46l1.76-2.12c.36-.43.39-1.05.08-1.51l-1.23-2.34c-.39-.58-1.71-1.01-2.29-.62-.58.39-.51 2.23-.12 2.81l1.01.78-1.16 1.39c-.45.54-.37 1.34.17 1.78.24.2.52.29.81.29Z" class="cls-5"/><path d="M157.3 81.94c-.23.25-.54.38-.85.38-.28 0-.56-.1-.79-.31l-1.6-1.47v1.07h-6.22v-1.03l-1.56 1.43c-.22.21-.5.31-.79.31a1.166 1.166 0 0 1-.78-2.02l3.38-3.11c.34-.31.8-.38 1.2-.23h3.36c.4-.15.87-.08 1.2.23l3.38 3.11c.47.43.5 1.17.07 1.64Z" class="cls-5"/><path d="M154.13 81.6v.65l-2.41 2.19h-1.5l-2.41-2.19v-.65h6.32z" class="cls-1"/><circle cx="150.97" cy="74.12" r="3.47" class="cls-5"/><path d="M149.4 88.69c-.36 0-.73-.16-.98-.46l-1.76-2.12c-.36-.43-.39-1.05-.08-1.51l1.23-2.34c.39-.58 1.71-1.01 2.29-.62.58.39.51 2.23.12 2.81l-1.01.78 1.16 1.39c.45.54.37 1.34-.17 1.78-.24.2-.52.29-.81.29ZM152.62 88.69c.36 0 .73-.16.98-.46l1.76-2.12c.36-.43.39-1.05.08-1.51l-1.23-2.34c-.39-.58-1.71-1.01-2.29-.62-.58.39-.51 2.23-.12 2.81l1.01.78-1.16 1.39c-.45.54-.37 1.34.17 1.78.24.2.52.29.81.29Z" class="cls-5"/><path d="M157.3 81.94c-.23.25-.54.38-.85.38-.28 0-.56-.1-.79-.31l-1.6-1.47v1.07h-6.22v-1.03l-1.56 1.43c-.22.21-.5.31-.79.31a1.166 1.166 0 0 1-.78-2.02l3.38-3.11c.34-.31.8-.38 1.2-.23h3.36c.4-.15.87-.08 1.2.23l3.38 3.11c.47.43.5 1.17.07 1.64Z" class="cls-5"/><path d="M154.13 81.6v.65l-2.41 2.19h-1.5l-2.41-2.19v-.65h6.32z" class="cls-3"/><circle cx="150.97" cy="74.12" r="3.47" class="cls-5"/><path d="M149.4 109.72c-.36 0-.73-.16-.98-.46l-1.76-2.12c-.36-.43-.39-1.05-.08-1.51l1.23-2.34c.39-.58 1.71-1.01 2.29-.62.58.39.51 2.23.12 2.81l-1.01.78 1.16 1.39c.45.54.37 1.34-.17 1.78-.24.2-.52.29-.81.29ZM152.62 109.72c.36 0 .73-.16.98-.46l1.76-2.12c.36-.43.39-1.05.08-1.51l-1.23-2.34c-.39-.58-1.71-1.01-2.29-.62-.58.39-.51 2.23-.12 2.81l1.01.78-1.16 1.39c-.45.54-.37 1.34.17 1.78.24.2.52.29.81.29Z" class="cls-5"/><path d="M157.3 102.97c-.23.25-.54.38-.85.38-.28 0-.56-.1-.79-.31l-1.6-1.47v1.07h-6.22v-1.03l-1.56 1.43c-.22.21-.5.31-.79.31a1.166 1.166 0 0 1-.78-2.02l3.38-3.11c.34-.31.8-.38 1.2-.23h3.36c.4-.15.87-.08 1.2.23l3.38 3.11c.47.43.5 1.17.07 1.64Z" class="cls-5"/><path d="M154.13 102.64v.64l-2.41 2.19h-1.5l-2.41-2.19v-.64h6.32z" class="cls-1"/><circle cx="150.97" cy="95.16" r="3.47" class="cls-5"/><path d="M149.4 109.72c-.36 0-.73-.16-.98-.46l-1.76-2.12c-.36-.43-.39-1.05-.08-1.51l1.23-2.34c.39-.58 1.71-1.01 2.29-.62.58.39.51 2.23.12 2.81l-1.01.78 1.16 1.39c.45.54.37 1.34-.17 1.78-.24.2-.52.29-.81.29ZM152.62 109.72c.36 0 .73-.16.98-.46l1.76-2.12c.36-.43.39-1.05.08-1.51l-1.23-2.34c-.39-.58-1.71-1.01-2.29-.62-.58.39-.51 2.23-.12 2.81l1.01.78-1.16 1.39c-.45.54-.37 1.34.17 1.78.24.2.52.29.81.29Z" class="cls-5"/><path d="M157.3 102.97c-.23.25-.54.38-.85.38-.28 0-.56-.1-.79-.31l-1.6-1.47v1.07h-6.22v-1.03l-1.56 1.43c-.22.21-.5.31-.79.31a1.166 1.166 0 0 1-.78-2.02l3.38-3.11c.34-.31.8-.38 1.2-.23h3.36c.4-.15.87-.08 1.2.23l3.38 3.11c.47.43.5 1.17.07 1.64Z" class="cls-5"/><path d="M154.13 102.64v.64l-2.41 2.19h-1.5l-2.41-2.19v-.64h6.32z" class="cls-2"/><circle cx="150.97" cy="95.16" r="3.47" class="cls-5"/><path d="M1.74 114.94h199.41" class="cls-4"/><path d="M180.34 56.44c-.31 0-.61-.13-.83-.39l-1.49-1.8c-.3-.37-.33-.89-.06-1.28l1.04-1.98c.33-.49 1.45-.86 1.94-.53.49.33.43 1.89.1 2.38l-.85.66.98 1.18a1.076 1.076 0 0 1-.82 1.76ZM183.07 56.44c.31 0 .61-.13.83-.39l1.49-1.8c.3-.37.33-.89.06-1.28l-1.04-1.98c-.33-.49-1.45-.86-1.94-.53-.49.33-.43 1.89-.1 2.38l.85.66-.98 1.18a1.076 1.076 0 0 0 .82 1.76Z" class="cls-5"/><path d="M187.03 50.73a.98.98 0 0 1-.72.32c-.24 0-.48-.09-.66-.26l-1.35-1.25v.9h-5.26v-.87l-1.32 1.21c-.19.18-.43.26-.66.26-.27 0-.53-.11-.72-.32a.982.982 0 0 1 .06-1.39l2.86-2.63c.28-.26.68-.32 1.02-.19h2.85c.34-.13.73-.07 1.02.19l2.86 2.63c.4.37.43.99.06 1.39Z" class="cls-5"/><path d="M184.35 50.44v.55l-2.04 1.86h-1.27L179 50.99v-.55h5.35z" class="cls-1"/><circle cx="181.67" cy="44.11" r="2.94" class="cls-5"/><path d="M180.34 56.44c-.31 0-.61-.13-.83-.39l-1.49-1.8c-.3-.37-.33-.89-.06-1.28l1.04-1.98c.33-.49 1.45-.86 1.94-.53.49.33.43 1.89.1 2.38l-.85.66.98 1.18a1.076 1.076 0 0 1-.82 1.76ZM183.07 56.44c.31 0 .61-.13.83-.39l1.49-1.8c.3-.37.33-.89.06-1.28l-1.04-1.98c-.33-.49-1.45-.86-1.94-.53-.49.33-.43 1.89-.1 2.38l.85.66-.98 1.18a1.076 1.076 0 0 0 .82 1.76Z" class="cls-5"/><path d="M187.03 50.73a.98.98 0 0 1-.72.32c-.24 0-.48-.09-.66-.26l-1.35-1.25v.9h-5.26v-.87l-1.32 1.21c-.19.18-.43.26-.66.26-.27 0-.53-.11-.72-.32a.982.982 0 0 1 .06-1.39l2.86-2.63c.28-.26.68-.32 1.02-.19h2.85c.34-.13.73-.07 1.02.19l2.86 2.63c.4.37.43.99.06 1.39Z" class="cls-5"/><path d="M184.35 50.44v.55l-2.04 1.86h-1.27L179 50.99v-.55h5.35z" class="cls-3"/><circle cx="181.67" cy="44.11" r="2.94" class="cls-5"/><path d="M180.34 38.68c-.31 0-.61-.13-.83-.39l-1.49-1.8c-.3-.37-.33-.89-.06-1.28l1.04-1.98c.33-.49 1.45-.86 1.94-.53.49.33.43 1.89.1 2.38l-.85.66.98 1.18a1.076 1.076 0 0 1-.82 1.76ZM183.07 38.68c.31 0 .61-.13.83-.39l1.49-1.8c.3-.37.33-.89.06-1.28l-1.04-1.98c-.33-.49-1.45-.86-1.94-.53-.49.33-.43 1.89-.1 2.38l.85.66-.98 1.18a1.076 1.076 0 0 0 .82 1.76Z" class="cls-5"/><path d="M187.03 32.97a.98.98 0 0 1-.72.32c-.24 0-.48-.09-.66-.26l-1.35-1.25v.9h-5.26v-.87l-1.32 1.21c-.19.18-.43.26-.66.26-.27 0-.53-.11-.72-.32a.982.982 0 0 1 .06-1.39l2.86-2.63c.28-.26.68-.32 1.02-.19h2.85c.34-.13.73-.07 1.02.19l2.86 2.63c.4.37.43.99.06 1.39Z" class="cls-5"/><path d="M184.35 32.68v.55l-2.04 1.86h-1.27L179 33.23v-.55h5.35z" class="cls-1"/><circle cx="181.67" cy="26.35" r="2.94" class="cls-5"/><path d="M180.34 38.68c-.31 0-.61-.13-.83-.39l-1.49-1.8c-.3-.37-.33-.89-.06-1.28l1.04-1.98c.33-.49 1.45-.86 1.94-.53.49.33.43 1.89.1 2.38l-.85.66.98 1.18a1.076 1.076 0 0 1-.82 1.76ZM183.07 38.68c.31 0 .61-.13.83-.39l1.49-1.8c.3-.37.33-.89.06-1.28l-1.04-1.98c-.33-.49-1.45-.86-1.94-.53-.49.33-.43 1.89-.1 2.38l.85.66-.98 1.18a1.076 1.076 0 0 0 .82 1.76Z" class="cls-5"/><path d="M187.03 32.97a.98.98 0 0 1-.72.32c-.24 0-.48-.09-.66-.26l-1.35-1.25v.9h-5.26v-.87l-1.32 1.21c-.19.18-.43.26-.66.26-.27 0-.53-.11-.72-.32a.982.982 0 0 1 .06-1.39l2.86-2.63c.28-.26.68-.32 1.02-.19h2.85c.34-.13.73-.07 1.02.19l2.86 2.63c.4.37.43.99.06 1.39Z" class="cls-5"/><path d="M184.35 32.68v.55l-2.04 1.86h-1.27L179 33.23v-.55h5.35z" class="cls-3"/><circle cx="181.67" cy="26.35" r="2.94" class="cls-5"/><path d="M180.34 74.2c-.31 0-.61-.13-.83-.39l-1.49-1.8c-.3-.37-.33-.89-.06-1.28l1.04-1.98c.33-.49 1.45-.86 1.94-.53.49.33.43 1.89.1 2.38l-.85.66.98 1.18a1.076 1.076 0 0 1-.82 1.76ZM183.07 74.2c.31 0 .61-.13.83-.39l1.49-1.8c.3-.37.33-.89.06-1.28l-1.04-1.98c-.33-.49-1.45-.86-1.94-.53-.49.33-.43 1.89-.1 2.38l.85.66-.98 1.18a1.076 1.076 0 0 0 .82 1.76Z" class="cls-5"/><path d="M187.03 68.49a.98.98 0 0 1-.72.32c-.24 0-.48-.09-.66-.26l-1.35-1.25v.9h-5.26v-.87l-1.32 1.21c-.19.18-.43.26-.66.26-.27 0-.53-.11-.72-.32a.982.982 0 0 1 .06-1.39l2.86-2.63c.28-.26.68-.32 1.02-.19h2.85c.34-.13.73-.07 1.02.19l2.86 2.63c.4.37.43.99.06 1.39Z" class="cls-5"/><path d="M184.35 68.2v.55l-2.04 1.85h-1.27L179 68.75v-.55h5.35z" class="cls-1"/><circle cx="181.67" cy="61.87" r="2.94" class="cls-5"/><path d="M180.34 74.2c-.31 0-.61-.13-.83-.39l-1.49-1.8c-.3-.37-.33-.89-.06-1.28l1.04-1.98c.33-.49 1.45-.86 1.94-.53.49.33.43 1.89.1 2.38l-.85.66.98 1.18a1.076 1.076 0 0 1-.82 1.76ZM183.07 74.2c.31 0 .61-.13.83-.39l1.49-1.8c.3-.37.33-.89.06-1.28l-1.04-1.98c-.33-.49-1.45-.86-1.94-.53-.49.33-.43 1.89-.1 2.38l.85.66-.98 1.18a1.076 1.076 0 0 0 .82 1.76Z" class="cls-5"/><path d="M187.03 68.49a.98.98 0 0 1-.72.32c-.24 0-.48-.09-.66-.26l-1.35-1.25v.9h-5.26v-.87l-1.32 1.21c-.19.18-.43.26-.66.26-.27 0-.53-.11-.72-.32a.982.982 0 0 1 .06-1.39l2.86-2.63c.28-.26.68-.32 1.02-.19h2.85c.34-.13.73-.07 1.02.19l2.86 2.63c.4.37.43.99.06 1.39Z" class="cls-5"/><path d="M184.35 68.2v.55l-2.04 1.85h-1.27L179 68.75v-.55h5.35z" class="cls-3"/><circle cx="181.67" cy="61.87" r="2.94" class="cls-5"/><path d="M180.34 91.91c-.31 0-.61-.13-.83-.39l-1.49-1.8c-.3-.37-.33-.89-.06-1.28l1.04-1.98c.33-.49 1.45-.86 1.94-.53.49.33.43 1.89.1 2.38l-.85.66.98 1.18a1.076 1.076 0 0 1-.82 1.76ZM183.07 91.91c.31 0 .61-.13.83-.39l1.49-1.8c.3-.37.33-.89.06-1.28l-1.04-1.98c-.33-.49-1.45-.86-1.94-.53-.49.33-.43 1.89-.1 2.38l.85.66-.98 1.18a1.076 1.076 0 0 0 .82 1.76Z" class="cls-5"/><path d="M187.03 86.19a.98.98 0 0 1-.72.32c-.24 0-.48-.09-.66-.26L184.3 85v.9h-5.26v-.87l-1.32 1.21c-.19.18-.43.26-.66.26-.27 0-.53-.11-.72-.32a.982.982 0 0 1 .06-1.39l2.86-2.63c.28-.26.68-.32 1.02-.19h2.85c.34-.13.73-.07 1.02.19l2.86 2.63c.4.37.43.99.06 1.39Z" class="cls-5"/><path d="M184.35 85.91v.55l-2.04 1.85h-1.27L179 86.46v-.55h5.35z" class="cls-1"/><circle cx="181.67" cy="79.58" r="2.94" class="cls-5"/><path d="M180.34 91.91c-.31 0-.61-.13-.83-.39l-1.49-1.8c-.3-.37-.33-.89-.06-1.28l1.04-1.98c.33-.49 1.45-.86 1.94-.53.49.33.43 1.89.1 2.38l-.85.66.98 1.18a1.076 1.076 0 0 1-.82 1.76ZM183.07 91.91c.31 0 .61-.13.83-.39l1.49-1.8c.3-.37.33-.89.06-1.28l-1.04-1.98c-.33-.49-1.45-.86-1.94-.53-.49.33-.43 1.89-.1 2.38l.85.66-.98 1.18a1.076 1.076 0 0 0 .82 1.76Z" class="cls-5"/><path d="M187.03 86.19a.98.98 0 0 1-.72.32c-.24 0-.48-.09-.66-.26L184.3 85v.9h-5.26v-.87l-1.32 1.21c-.19.18-.43.26-.66.26-.27 0-.53-.11-.72-.32a.982.982 0 0 1 .06-1.39l2.86-2.63c.28-.26.68-.32 1.02-.19h2.85c.34-.13.73-.07 1.02.19l2.86 2.63c.4.37.43.99.06 1.39Z" class="cls-5"/><path d="M184.35 85.91v.55l-2.04 1.85h-1.27L179 86.46v-.55h5.35z" class="cls-3"/><circle cx="181.67" cy="79.58" r="2.94" class="cls-5"/><path d="M180.34 109.72c-.31 0-.61-.13-.83-.39l-1.49-1.8c-.3-.37-.33-.89-.06-1.28l1.04-1.98c.33-.49 1.45-.86 1.94-.53.49.33.43 1.89.1 2.38l-.85.66.98 1.18a1.076 1.076 0 0 1-.82 1.76ZM183.07 109.72c.31 0 .61-.13.83-.39l1.49-1.8c.3-.37.33-.89.06-1.28l-1.04-1.98c-.33-.49-1.45-.86-1.94-.53-.49.33-.43 1.89-.1 2.38l.85.66-.98 1.18a1.076 1.076 0 0 0 .82 1.76Z" class="cls-5"/><path d="M187.03 104.01a.98.98 0 0 1-.72.32c-.24 0-.48-.09-.66-.26l-1.35-1.25v.9h-5.26v-.87l-1.32 1.21c-.19.18-.43.26-.66.26-.27 0-.53-.11-.72-.32a.982.982 0 0 1 .06-1.39l2.86-2.63c.28-.26.68-.32 1.02-.19h2.85c.34-.13.73-.07 1.02.19l2.86 2.63c.4.37.43.99.06 1.39Z" class="cls-5"/><path d="M184.35 103.72v.55l-2.04 1.85h-1.27l-2.04-1.85v-.55h5.35z" class="cls-1"/><circle cx="181.67" cy="97.39" r="2.94" class="cls-5"/><path d="M180.34 109.72c-.31 0-.61-.13-.83-.39l-1.49-1.8c-.3-.37-.33-.89-.06-1.28l1.04-1.98c.33-.49 1.45-.86 1.94-.53.49.33.43 1.89.1 2.38l-.85.66.98 1.18a1.076 1.076 0 0 1-.82 1.76ZM183.07 109.72c.31 0 .61-.13.83-.39l1.49-1.8c.3-.37.33-.89.06-1.28l-1.04-1.98c-.33-.49-1.45-.86-1.94-.53-.49.33-.43 1.89-.1 2.38l.85.66-.98 1.18a1.076 1.076 0 0 0 .82 1.76Z" class="cls-5"/><path d="M187.03 104.01a.98.98 0 0 1-.72.32c-.24 0-.48-.09-.66-.26l-1.35-1.25v.9h-5.26v-.87l-1.32 1.21c-.19.18-.43.26-.66.26-.27 0-.53-.11-.72-.32a.982.982 0 0 1 .06-1.39l2.86-2.63c.28-.26.68-.32 1.02-.19h2.85c.34-.13.73-.07 1.02.19l2.86 2.63c.4.37.43.99.06 1.39Z" class="cls-5"/><path d="M184.35 103.72v.55l-2.04 1.85h-1.27l-2.04-1.85v-.55h5.35z" class="cls-2"/><circle cx="181.67" cy="97.39" r="2.94" class="cls-5"/><path d="M180.34 20.13c-.31 0-.61-.13-.83-.39l-1.49-1.8c-.3-.37-.33-.89-.06-1.28l1.04-1.98c.33-.49 1.45-.86 1.94-.53.49.33.43 1.89.1 2.38l-.85.66.98 1.18a1.076 1.076 0 0 1-.82 1.76ZM183.07 20.13c.31 0 .61-.13.83-.39l1.49-1.8c.3-.37.33-.89.06-1.28l-1.04-1.98c-.33-.49-1.45-.86-1.94-.53-.49.33-.43 1.89-.1 2.38l.85.66-.98 1.18a1.076 1.076 0 0 0 .82 1.76Z" class="cls-5"/><path d="M187.03 14.41a.98.98 0 0 1-.72.32c-.24 0-.48-.09-.66-.26l-1.35-1.25v.9h-5.26v-.87l-1.32 1.21c-.19.18-.43.26-.66.26-.27 0-.53-.11-.72-.32a.982.982 0 0 1 .06-1.39l2.86-2.63c.28-.26.68-.32 1.02-.19h2.85c.34-.13.73-.07 1.02.19l2.86 2.63c.4.37.43.99.06 1.39Z" class="cls-5"/><path d="M184.35 14.13v.54l-2.04 1.86h-1.27L179 14.67v-.54h5.35z" class="cls-1"/><circle cx="181.67" cy="7.79" r="2.94" class="cls-5"/><path d="M180.34 20.13c-.31 0-.61-.13-.83-.39l-1.49-1.8c-.3-.37-.33-.89-.06-1.28l1.04-1.98c.33-.49 1.45-.86 1.94-.53.49.33.43 1.89.1 2.38l-.85.66.98 1.18a1.076 1.076 0 0 1-.82 1.76ZM183.07 20.13c.31 0 .61-.13.83-.39l1.49-1.8c.3-.37.33-.89.06-1.28l-1.04-1.98c-.33-.49-1.45-.86-1.94-.53-.49.33-.43 1.89-.1 2.38l.85.66-.98 1.18a1.076 1.076 0 0 0 .82 1.76Z" class="cls-5"/><path d="M187.03 14.41a.98.98 0 0 1-.72.32c-.24 0-.48-.09-.66-.26l-1.35-1.25v.9h-5.26v-.87l-1.32 1.21c-.19.18-.43.26-.66.26-.27 0-.53-.11-.72-.32a.982.982 0 0 1 .06-1.39l2.86-2.63c.28-.26.68-.32 1.02-.19h2.85c.34-.13.73-.07 1.02.19l2.86 2.63c.4.37.43.99.06 1.39Z" class="cls-5"/><path d="M184.35 14.13v.54l-2.04 1.86h-1.27L179 14.67v-.54h5.35z" class="cls-3"/><circle cx="181.67" cy="7.79" r="2.94" class="cls-5"/><path d="M29.59 120.05v-.75c.7-.07 1.2-.18 1.47-.34s.49-.54.62-1.14h.77v7.73h-1.04v-5.49h-1.83ZM59.47 123.83c.24-.49.71-.94 1.41-1.35l1.04-.6c.47-.27.79-.5.98-.69.3-.3.44-.64.44-1.03 0-.45-.14-.81-.41-1.08s-.63-.4-1.08-.4c-.67 0-1.13.25-1.39.76-.14.27-.21.65-.23 1.13h-.99c.01-.68.14-1.23.37-1.65.42-.75 1.17-1.13 2.24-1.13.89 0 1.54.24 1.95.72s.61 1.01.61 1.6c0 .62-.22 1.15-.66 1.59-.25.26-.71.57-1.36.93l-.74.41c-.35.2-.63.38-.83.56-.36.31-.59.66-.68 1.05h4.24v.92h-5.33c.04-.67.17-1.25.41-1.74ZM89.75 124.92c-.41-.5-.62-1.12-.62-1.84h1.02c.04.5.14.87.28 1.09.25.41.71.61 1.37.61.51 0 .92-.14 1.24-.41s.47-.63.47-1.06c0-.53-.16-.91-.49-1.12s-.78-.32-1.36-.32h-.4v-.86c.1.01.19.02.25.02h.22c.36 0 .66-.06.9-.17.41-.2.62-.56.62-1.08 0-.39-.14-.68-.41-.89s-.59-.31-.96-.31c-.65 0-1.1.22-1.35.65-.14.24-.21.58-.23 1.02h-.96c0-.58.12-1.07.35-1.47.4-.72 1.1-1.08 2.1-1.08.79 0 1.4.18 1.84.53s.65.86.65 1.53c0 .48-.13.86-.38 1.16-.16.18-.36.33-.62.43.41.11.73.33.96.65s.34.71.34 1.17c0 .74-.24 1.34-.73 1.81s-1.18.7-2.08.7-1.58-.25-2-.76ZM121.4 125.57v-1.9H118v-.95l3.55-4.93h.82v5.03h1.14v.85h-1.14v1.9h-.98Zm-.02-2.75v-3.52l-2.49 3.52h2.49ZM149 123.42c.07.56.32.94.77 1.15.23.11.5.16.8.16.58 0 1.01-.18 1.28-.55s.42-.78.42-1.22c0-.54-.17-.96-.5-1.26s-.73-.44-1.19-.44c-.34 0-.62.07-.86.2s-.45.31-.61.54l-.85-.05.59-4.18h4.03v.94h-3.3l-.33 2.16c.18-.14.35-.24.51-.31.29-.12.62-.18 1-.18.71 0 1.31.23 1.81.69s.74 1.04.74 1.74-.23 1.38-.68 1.94-1.18.84-2.17.84c-.63 0-1.19-.18-1.68-.53s-.76-.9-.82-1.64h1.01ZM182.79 118.36c.34.45.51.91.51 1.39h-.96c-.06-.31-.15-.55-.28-.72-.23-.33-.59-.49-1.07-.49-.55 0-.98.25-1.3.76s-.5 1.23-.54 2.16c.22-.33.51-.57.85-.74.31-.14.66-.22 1.04-.22.65 0 1.22.21 1.7.62s.73 1.03.73 1.86c0 .7-.23 1.33-.69 1.87s-1.11.82-1.96.82c-.73 0-1.35-.28-1.88-.83s-.79-1.48-.79-2.78c0-.96.12-1.78.35-2.45.45-1.29 1.28-1.93 2.48-1.93.87 0 1.47.22 1.81.67Zm-.73 5.93c.25-.34.38-.75.38-1.22 0-.4-.11-.78-.34-1.14s-.64-.54-1.24-.54c-.42 0-.79.14-1.1.42s-.47.7-.47 1.26c0 .49.14.9.43 1.24s.69.5 1.19.5.9-.17 1.15-.52ZM10.6 118.91c.35.65.53 1.53.53 2.65 0 1.06-.16 1.95-.48 2.64-.46 1-1.21 1.5-2.25 1.5-.94 0-1.64-.41-2.1-1.23-.38-.68-.57-1.6-.57-2.75 0-.89.11-1.65.34-2.29.43-1.19 1.21-1.78 2.34-1.78 1.01 0 1.75.42 2.2 1.25Zm-.99 5.22c.3-.45.45-1.29.45-2.53 0-.89-.11-1.62-.33-2.2-.22-.57-.64-.86-1.28-.86-.58 0-1.01.27-1.27.82-.27.55-.4 1.35-.4 2.41 0 .8.09 1.44.26 1.93.26.74.71 1.11 1.35 1.11.51 0 .92-.23 1.22-.68Z"/></svg>