<svg xmlns="http://www.w3.org/2000/svg" id="Calque_1" data-name="Calque 1" viewBox="0 0 128 128"><defs><style>.cls-4{stroke:#000;stroke-linecap:round;stroke-linejoin:round;fill:none;stroke-width:3px}</style></defs><path d="M114.02 38.77v30.41c0 10.36-7.72 18.83-17.15 18.83H62.63l-25.42 20.05V88.01h-4.43c-9.43 0-17.15-8.46-17.15-18.83V38.77c0-10.35 7.72-18.83 17.15-18.83h64.09c9.43 0 17.15 8.48 17.15 18.83Z" style="fill:#fab0b4;stroke:#000;stroke-linecap:round;stroke-linejoin:round;stroke-width:2px"/><rect width="45.06" height="45.06" x="42.29" y="31.47" rx="4.14" ry="4.14" style="fill:#ff6d75"/><path d="M87.36 50.43V70.2c0 3.48-2.85 6.33-6.33 6.33H48.62c-3.48 0-6.33-2.85-6.33-6.33V37.79c0-3.48 2.85-6.33 6.33-6.33h32.41" style="fill:none;stroke:#000;stroke-linecap:round;stroke-linejoin:round;stroke-width:2px"/><path d="M78.75 67.95 51.31 40.13M51.31 67.95l27.44-27.82" class="cls-4"/></svg>