<svg xmlns="http://www.w3.org/2000/svg" id="Calque_1" data-name="Calque 1" viewBox="0 0 200.13 128"><defs><style>.cls-3{stroke:#000;stroke-linecap:round;stroke-linejoin:round;fill:none;stroke-width:2px}</style></defs><path d="M21.52 72.73h107.93v13.08c0 5.72-4.65 10.37-10.37 10.37h-87.2c-5.72 0-10.37-4.65-10.37-10.37V72.73h0Z" style="stroke-width:2px;fill:#d6d6d6;stroke-linecap:round;stroke-linejoin:round;stroke:#000"/><path d="M27.89 82.36s.3 3.24 2.23 4.93c1.93 1.69 5.01 2.28 5.01 2.28" style="fill:none;stroke-linecap:round;stroke-linejoin:round;stroke:#000"/><path d="M129.45 72.73h51.64v8.47h-51.64z" style="fill:#fab0b4;stroke-width:2px;stroke-linecap:round;stroke-linejoin:round;stroke:#000"/><path d="M129.45 72.73h10.17v8.47h-10.17zM61.54 25.04l-1.9 2.92a7.094 7.094 0 0 0 .23 8.07h0c1.7 2.31 1.84 5.42.35 7.88l-.79 1.3a7.095 7.095 0 0 0 .35 7.88l.06.08a7.079 7.079 0 0 1 .3 7.95l-1.39 2.23M74.57 25.04l-1.9 2.92a7.094 7.094 0 0 0 .23 8.07h0c1.7 2.31 1.84 5.42.35 7.88l-.79 1.3a7.095 7.095 0 0 0 .35 7.88l.06.08a7.079 7.079 0 0 1 .3 7.95l-1.39 2.23M87.61 25.04l-1.9 2.92a7.094 7.094 0 0 0 .23 8.07h0c1.7 2.31 1.84 5.42.35 7.88l-.79 1.3a7.095 7.095 0 0 0 .35 7.88l.06.08a7.079 7.079 0 0 1 .3 7.95l-1.39 2.23" class="cls-3"/><path d="M-5243.13-200.44h6562.35v1176.7h-6562.35z" style="stroke:#fff;stroke-width:8px;fill:none;stroke-linecap:round;stroke-linejoin:round"/></svg>