<svg xmlns="http://www.w3.org/2000/svg" id="Calque_1" data-name="Calque 1" viewBox="0 0 304.08 239.01"><defs><style>.cls-1{fill:#f3d587}.cls-1,.cls-2,.cls-3,.cls-4{stroke-miterlimit:10;stroke:#fff;stroke-width:.5px}.cls-2{fill:#ff6d75}.cls-3{fill:#87ccf3}.cls-4{fill:#53bb9b}</style></defs><path d="m274.56 70.81-.62-.11 1.08-.97v-.67l.72-.67-.1-.46-1.18.98h-.62l-.82.97-.88-.46-.82.51h-.93l-.56 1.13.97.83.31-.62.93.15.26-.46.77.05.05.52 1.8-.26.46-.77-.2-.41-.62.72zM268.64 72.97l-1.54.36-1.23 1.08-.11.71-.71.26v.88l1.18.62 1.59.15.57-.36.92.15.98-.56-.36-2.01-1.29-1.28z" class="cls-2"/><path d="m236.09 82.45.1-.57-.34-.56-.07.54.31.59zM234.13 70.31l-.71-.44-.34.59.28.23.85-.02-.08-.36zM228.23 64.55l.36.95h.54l.33-.54.49.26.46-.33-.03-.85-.31-.46.23-.64-.41-.51-.18.33-.02.54-.49.16-.33-.28-.05-1.28s-.51-.54-.49-.51l-.36 1.51.28.85-.03.82ZM234.21 63.5l-.38-1.25.12 1.2-.15.75.41-.7zM229.95 67.02l.13.41.38.03.34.35-.21.47-.15 1.03.1.53.92-.48.62-.18-.36-.47-.54-.94-.02-.65-.52-.46h-.61l-.08.36zM235.73 79.68l.1-1.13-.44-.54-.3.26.1.74.54.67zM232.93 74.21l.62.57.64-.34v-.64l-.49-.54-.82.36.05.59zM232.47 68.77l.41.3.41.06.23-.23h.41l.02-.52-.33-.15-.2-.49-.9.64-.05.39zM233.13 64.2l.13-.33-.85.28s-.28.36-.31.38l.46.15.57-.49ZM233.8 66.71l.31.03-.05-.59-.03-.72-.28-.28-.13.79.18.77Z" class="cls-4"/><path d="m195.03 28.43-.84.85.71-.36.13-.49zM193.08 30.41l.52.36-.16-.49-.36.13zM199.63 37.78l.46-.16.08-.54-.76-.1.01.41.21.39zM195.63 34.44l.22-.38-.82-.66-.07.55.27.42v.28l.4-.21zM198.32 34.86l-.35-.17-.45.39-.23.81.45.05.49.06.15.56.49.2.39.04.06-.71-.23-.45-.6-.33-.17-.45zM197.83 36.83l-.38-.22-.27.27.52.14.13-.19zM227.22 46.3l.55-.5-.23-.34h-.6l-.55.4.15.29.68.15zM194.57 29.87l.57.92 1.17.82.72.7.83.2h.71l-.15-.43-.74-.67-.54-.26-.08-.43-.56-.36-1.11-.16-.05-.61-.44-.13-.33.41zM209.28 36.91l-.1.43.39.62.23 1.1 1.43 1.23.57.18.1.72.54.18.15-.79-.69-.77-.54-.26-.33-.57-.9-1.23.15-.59-.71-.8-.83-.05.03.29.51.31zM204.04 35.44l.69.54.39.41.13.46.36-.44.51.36-.26-.46.28-.33-1.31-1.39-1.13-.51-.95-.8-1.23-.18.85.64 1.67 1.69ZM208.41 39.29l-.03-.51-.77-.11.16.47.64.15zM211.83 43.73l-.75-.07.39.62.05.5.97.9 1.13.44.9-.05-.26-.26.08-.43-.44-.64-1.33-.29-.74-.72zM205.64 39.78l-.13.72.77 1.05.92.36.8-.15.62.74.72-.07.23-.72-.11-.47-.43-.02-.47-.52-1.05-.51h-.9l-.59-.62-.38.21zM206.95 48.38l-.75-.03.03.47.33.3.59-.05.59.23.52-.25-.72-.28-.59-.39zM196.63 34.27l-.4.27.01.36.33.26.64-.09.08-.37-.67-.43Z" class="cls-1"/><path d="m187.3 21.53-.23.51-.43.13.13.33.56.05.39-.51-.42-.51zM187.85 23.73l-.18.34.3.43.03.67.44-.56-.06-.7-.53-.18zM168.51 39.15l-.4-.4-.45-.01-.27.24-.56-.14-.38.01-.63-.67-.13-.98-.54-.27-.65-1.58-.33-.14-.19-.53h-.77l-.52-.28-.38-.77-.78-.79-.16-.84-.54-.45-.42-.74.08-.29 1.47.13 1.27-.66.37-.63-.06-.75-1.03-1.07-.74-.14-.33.22-.8-.39-1.27-.53-.63-.68-.72.08-1.73-.61-.17-.49.47-.81.08-.63-.45-.58-1.29-1.35-.3.04-.43.19-.27-.57-.64-.46-.21-.52-.75-.14-.39-.51-.3.09-.65-.35-.79-.06-.75-.57-.81-.19-1.31-.8-1.93-.18-.74-.31-.38-.47h-.34l-.25.13-1.39-.56-.32-.34-.69-.27-1.17-.49-.63-.04-.45 13.38-.21 1.01-.01.57.15.3-.28 8.66 1.22.02.39.23.64-.18 1.9.08.46-.13.18.44.44.46.56.15.77-.46 1.26-.36.1-.33.31.25.33-.38-.05-1-.92-.72-1.03-.43-.87-.15-.38-.32-.53-.19-.23.01-.37-.3-.17-.85-.6-.81-.67-.31-.14-.48-.4-.4.49.31.18.52.42.1.8.52.12.61.09.7.27.03.9.26.49.45.37-.08.85.04.99-.25.7.05.59-.19-.18-.3-.51-.34-.26-.49-.48.06-.26-.49.41.36.69-.18.54.61.66.13-.32-.4.01-.5.34-.25.05-.39-.07-.55-.52-.49v-.24l.6.28.25.44.69.64.53.13.04-.35-.13-.47.18.15.18.63.29-.04.02-.49-.21-.41.21-.74.31.38.87.29.21.51.46.1.44-.03.23.19.33-.42-.05.49.03.44.35.1.46.46 1.94.45.59.32.53.66.29.98.96 1.21.15.49.67.18.37.56.13.4 1.66 1.7.04.54.64.44 1 .34.39-.16h.37l.56.24 1.09-.17.75.3.63-.06 1.09.2.52.31.79-.13.35.44.73-.04.12.23-.4.31.69.18.83.47.79-.21.22-.44-.87-.52-.29-.02.02-.31.63-.22.56.24.63-.42-1.35-.26-1.53-.2-.94-.49-.33-.4.82-.37.52.04.32-.26-.49-.29h-1.2l-1.17-.18-.45-.39-.01-.53.4-.45.21-.46zM190.95 27.17l-.95-.3-.25-1.01-.39-.51-.77.05-.13.67.15.59v1.13l.72.36.67 1.23-.21.39.42.56h.53l.49.18.88-.1.15-.31.49-.15.07-.95-.71-.9-1.16-.93zM185.05 47.8l.01.2.35.07.58-.08.11-.43-.62-.14-.43.38zM182.56 22.42l.33-.69-.03-.62-.38-.12-.28-1.52-.49-.03-.62-1.02-.82-.39-.54-.61-1-.21-1.31-1.1-1.1-.31-1.6-.95.11.49.43.44 2.47 1.43 1.28.72.85.08 1.26 1.31.51 1.82-.26.59.21.77.72.8.26-.88zM180.36 38.54l-.18.54.2.39.27-.09.78.54-.06-.45-1.01-.93zM183.85 48.39l-.6.02-.75-.54-.42.01.83.89.45-.01.42.19.22-.17-.15-.39zM173.24 14.75l-.49-.31-.82.31.05.56.54.33.72-.2v-.69z" class="cls-3"/><path d="m153.32 34.11.23.35s-.01-.51 0-.53l-.23.18ZM171.7 23.12l-.13.36.71.71.39-.43-.46-.7-.51.06zM175.44 37.82l.1-.57-.12-.95-.39.09-.15.27.26.5.16-.03.07.48-.07.21h.14zM157.73 22.22l-.8.31.23.51.49-.39.08-.43zM170.85 10.61l.02-.43-.41-.62-.64-.03.13.49.9.59zM162.01 12.51l-.54.13-.44-.31-.59.18-.56-.05-.23.18.23.51.56.08.31.28.9-.05.77-.65-.41-.31ZM174.65 42.25l-.27-.09-.05-.18-.3-.31-.47-.08.03.16.26.12.3.59.18.09-.04.43.49.13.38-.12.09-.29.33-.24-.06-.36-.32.01-.46.36-.09-.22zM164.27 26.87l.18-.34-.18-.64-.56-.46-.44.49.39.56.61.39zM172.24 40.8l.27.08.03-.48-.39-.59-.41-.22-.35.24.25.63.3-.03.3.37zM173.75 40.45h-.28l-.41-.08-.15.09.14.62.33.17.48-.04.15.21.19-.24-.2-.31h-.22l.09-.13-.12-.29zM160.94 25.09l.31.44.43-.1v-.62l-.43-.31-.31.59z" class="cls-3"/><path d="m179.58 25.04-.77-.72-.05-.48.48-.29.39.21.85-.8-.03-1.61-.8-.7-.43.31-.26.31-.46-.36-.85-.03-.36.54.36 1.54.26.29-.36.38-.7-.02-1.35 1.1-.26.69-.44.34-.36-.16-.51.34-.46-.52-.44.03-.51.64-.46-.11-.21-.89.15-.57-.54-.28-.36.36.11.49-.54.36-.72-.08-.82.34-.62-.03-.49-.26h-.64l-.87.21-.69-.41-.52.95.59.74.77.08 1.16.92.13.41.51-.38 1.18.05.36.67.85.12.56-.1 1.31-.25.69.2.6-.25.87.36.28-.39-.02-.51.92-.03 1.26-1.57v-.51l.51-.13.46.36.88-.25.41-.65zM148.45 38.16l-.46-.54s-1.02-.42-1-.42l1.47.97ZM149.29 34.01l.3.58.26.08-.23-.4-.33-.26zM147.24 36.89l.43.21.18-.23-.61.02zM151.03 33.78l-.05.39.43.07-.06-.22-.32-.24zM149.22 35.01l-.22-.74-.4.35-.03.34.29.36.26-.03.1-.29ZM148.05 37.29l.29.21-.09-.32-.2.11zM147.98 35.45l.11.22.36.07.15-.17-.62-.12zM149.07 36.47l-.55-.03-.41.41.77-.06.2-.32ZM151.6 33.24l-.19.39.46.48-.05-.31.14-.5-.36-.06zM152.11 34.07l.19-.32-.3.05.11.27z" class="cls-3"/><path d="m226.46 86.4-.13-.41h-.44l-.07.52-.44.51.67.05.41-.67zM227.82 88.74l.82.39.29-.31-.65-.54.21-.54-.03-.69-.28-.16-.67.49.1.31-.13.44.34.61zM217.42 85.99l.95 1.93.75.44v.61l.36.62.54.02.1.49.95.72.38 1.05.31-.18.41.03.31.97.85.11.15.72.67.54.72-.31.61.59.36-.16.57.39-.06-1.16-.51-.13-1.25-.92-.88-1.51-.62-.49-.48.2-.59-1.31-1.44-1.84-.36-.11-.39-.69-.95-.62-.15-.54-.41-.51-.23.54-.98-1.28-.13.69.36.36.08.74zM231.08 91.38l.03-.76-.54-.34-.93.13.1.72.62.61.36-.36h.36z" class="cls-2"/><path d="M128.14 197.48s0 0 0 0" style="fill:none;stroke-linecap:round;stroke-linejoin:round;stroke:#fff;stroke-width:.5px"/><path d="m121.09 59.16.57-.22.94.15.2-.55-.25-.12-.3.07-.15-.18.59-.57-.08-.16-.59.17-.01-.57-.4.2-.12.32-.55-.03.15.19-.12.15.24.8-.37.31.25.04z" class="cls-3"/><path d="m174.25 118.22.08-.86-.51-1.35-.22-.44-.03-.72.25-.32.02-.84.62-1.08-.05-.32-.06-2.08.41-.7-.3-.4-.19-.73.03-1.4-.3-.11.38-.78-.7-.29-.35-.71.03-.8-.81-.71-.51-1.02-.22-.99-.46-.87-.45-.03-.54.24-.49-.45-.11-.92-.35-.16-.08-.51-.86-.76-.41-.38.19-.53-.48-.87.67-.86.16-1.07-.21-.52.11-.7-.49-.27-.13.38.21.32-.27.38-1.59-1.45-.35-.84-.3.16v.49l-.18.53.37 1.11-.78-.95-.38.44v-.67l-.29-.57-.13-2 .21-.21v-.49l-.67-.43.26-.59-.51-.4.17-.63-1.16-.99-.33-.7-.05-.84.65.16v-.7l-.57-1.02-.3.16-.62-.08-.7-1-.54-.03-.64-.56-.38.4-.3-.4-.78-.27-.48.46.4-.65.7-.19.06-.51-.22-.4-.81.08-.62-.06-.19-.43h-.35l-1.48-.83-.65-1.3-.13-1.29-.43-.84.02-.67.36-.14.29-1.42-.4-1.89-.43-.86.37-.19-.45-.43h-.54l-.68-1.41-.02-1.74.26-.22.03-.38-.32-.4-.16-2.21.19-.59-.19-.71.24-.21.08-.52-1.24-1.18-.76-.46.22-.32-.81-.81-.72.49-.36-.25-.4.78-.59.03-.73-1.1.08-.6-.46-1 .27-1.32-.16-1.58-.29.13-.28-.65.33-.62-.54-.72-.03-.62-.37-.25.02-.89.43-.43-.48-.27-.6.14-.46-.43.28-1.7-.22-.38-.21-.99-.76-.17.03-.46-.84.33-.4.56v1.27l-.38 1.08v.3l-.16.72-.41-.05-.45 1.16-.62.86.54.51.67.54-.43.3-.46-.08-.3.7-.37.7.51.83.08.6-.54-.22-.4.3-.33 1.75.33 1.19-.25 1.29.35.91-.08 1.06-.67.62v.59l-.73 1.37-.13 2.02-.62.7.21.73-.4 1.11-.65.64-.08 1.35-1.1.84-2.27.89-.91-.65-.95-.08-.46-.62-.89-.7-.02-.43-.24-.33-.22-.78-.84-.13-.7-.3-1.1-.08-1.03-.65-.18-.59-.79-1-.94-.08-.83-.54-.06-.46-.46-.05-.4-.32-.78.03-.65-.17.19-.3-.89-.72-.16-.7-.92-.95-.59-.08-.78-.91-.03-.89.67-1.08.16-.86.7-.49.22-.99.3-.65-.62.46-.51-.97.73-.49-.14-.75.38.03.43-.19.18.27.65.13.89-.4.3-.81-.62-.51.48-.38.52.13.35-1.21.46-.24.48-.65.03-.35-.73-.35-.46.54-.46-.19-.1-1.21-.6.27-.83.99.43.19v.49l-.59.29-.57-.34-.13-.44-.3-.4-.25.45-.48.14.03-.45.4-.44.16-.35-.51.22-.38.43-.81.27-.1.3-.43.08-.22-.3-.67-.06-.03-.32-.54-.75-.3-.08-.83.46-.59-.25-.35.22-.27-.51-.33-.08-.4-.76-.81.38-.86-.14-.78-.35.05-.51-.54-.67-.32.08.08.29-1.08.33-.27-.65-.59-.21-.95-.54-.13.27-.49-.36-.59.46.7.54-.21.19.67.16.59-.27 1.03.86-.08.49.21 1.13-.73.06-.27.81-.24-.49-.54-.16-.56.37-2.05.11-.78-.67-.11.3-.81.29.08.68-.67-.14.22.94-.25-.35-.83-.27-.33.49.33.46-.06.3-.89-.28-.45.46.35.38-.38.19-.59.34.05.44.54.55.14.4-.63-.36-.51.43h-.62l-.62 1-.56 1.13-.46.14-.22.94-.57.35.49.51 1.21.22-.45.14-.27.51 1.45.48-.56.24-.92-.1-.3-.44.03.44.59.45-.02.79.62.83-.92-.73-.57-1.05-.67-.08-.03.43-.27.49-.08-.57-1.51-.96-1.1.21.35.4-.38.38-.38-.33H91l-.33.44.51.67-.13.41-.11-.3-.35.08v.35l-.7.4-1.02.19.81-.37.53-.73-.05-1.11.57-.69-.35-.46-.6-.09-1.02-1.86-.54-.81-1-.24-.67-.43-.43.27.35.35-.41.14-.48.72-.49-.08.17-.4-.65.19-.16.43-.49-1.03-.4-.1-.11.59.51.3-.7.51-.24.72.24.43-.73.44-.32-.52-.4-.02-.14-.38.51-.59-.54.02-.27.76-.75.19-.31.43-.13.78 1.09.31-.92.77-.7-.38-.84.57.16.51 1 .14-.35.56-.48.11-.7-.84-.6.68-.71.11.15.52.14.49.05.46.43-.16-.51.71.35.51-.6.29-.37.49 1.24.21-.79.41-.16.32-.67-.16-.38-.51-.56-.38-.54.46-.25-.51-.67-.43-.48.4.88.62-.32.16-.38.7.73.65.73-.03-.32.6-.03.64-.3-.27h-.37l.13.76-.3.81-.1.89-1.14-2.43-.75-1.48-.4-.57.18-.86-.26.4-.76.57-.19.94-.57.14-.08.4-.7-.05-.4.54-.59.51.13.92v1.86l.35.18v.65l-.65.35-.37.7-.97.27.08.4-.84.54.03.92-.46.43-1.11 1.54-2.12 1.27-1.86.16-.73.27-1.08.08-.86.21-.86-.21-1.11.43-.13.65-.73.35-2.32-.09-.59.35-.19.63-1.45.59h-1.11l-.59-.25-.57.06-.22-.4-.59.29-.56.86-1.51.28-.14.32h-.4l-1.19 1.05-1.53.72-2.02.63-.89 1.23-.03 1.14-.81.7-.56-.38.26-.41-.1-.56.37-.89-.02-.65-1.14.87-.27 1.05-.8 1.53.54 1.08-.38.89.05 1.64-1.37 1.73-.54 2.34.38 1.22-.19 1.7 1.24 2.1.05.81.51.59-.45 1.05.26.94-.75.3-.32-.57-.06-1.23-.46.67-.21-.24.05-1.14-.73-1.56-.45.78.16 1.57.97.97.67 1.34-.99.16-.81-1.07-.19-1.27-.32.54-.41.22.62 1.18 1.24 1.54.73 2.02-.14 3.61.51.67.38 2.02 1.08 2.67-.38.94.11 3.99-.16.54.38 1.11-.03 1.24.75 1.75.03.86-.67.49.35.37-.25.95-.13 1.56-.62.57.19.45-.19.95-.62.45.14.92-1.16.89-.52-.46-.88 1.35.05 2.21.48.43.54.03 1.51 1.53-.02.57.27.33.78.13.35.43 1.02.16.41-.08.21.3.78.1.92-.18.24.51.4-.33.22.17 1.02-.19.89-.08.11-.43.54-.11.59-.89 1.06.14v-.62l.67-.38h.54l.54.56.56-.78.3.13.35-.18.19-.86 1.97-1.22.75.11.49.3.64-.43 1.89-.41.24.38 1.21-.27.36.24.56.06.73-.27.27.75h.43l.57-.3.32.38.56-.38h1.41l-.09.6.25.11.78-.76.78.22.94-.65.35-.86.36-.11.75-.75.43-1.27.86-.68 1.03-.29.37.24 1.49-.51 1.88-1.16 1.16-1.08.54-.21.51.02.62-.02 1.05.45.97.06.68-.24 1.43.07 1.96-.69 1.16-.27.87-.62h.53l1-.73 1.48-.11 3.91-.3 1.27.35.86.03 1.08-.38.86.11 1.08 1.03.84 1.42.64.22.46-.38.43-.16.33.35.4-.19.75.19.68.89.91.16.38-.24 1.56 1.11-.13.67.48.03.54.56-.21.51h-.59l-.14.49.62 1.38.65.05.72.78.25.99-.14.76.78 1.73-.27.78.33.43-.14.91-.3.54-.43-.27-.21.22.56.73.54.29.27.73.6-.21.62.48.02-.62-.35-.57.41-.43.35-.7.56-.1.33-.6.62-.27.19-.62.64-.83 1.51-.76.16-.45h.3l1.19-.57.29-1 .95-1.45 1.02-.22.4-.59-.27-.76.17-.86.43 1 .02.91v.89l-.43.57-.21 1.8-1.48.98-.22.78-.43.56.05.81-.86 1.21.27.36-.62 1.72-1.7-.19-.35.95-.43.75v.27l1.05-.27 1.03-.46 1.21.43 1.18-1.99.33-1.84.99-1.02.27.32.03 1.7.38 1-.32.11.1 1.69-.78 1.46-1.35.54.22.48.86-.11.92.03.41-.42.62-.15.75-.61.6.17.46-.07-.36.62-.35.58-.65-.04-.17.38.63.92.27.78.46 1.13.05 1.32-.14 1.65-.88.94.16.46-.14 1.24.62.54.54.94.16 1.16 1.27 1.7.97.24.67.48.33.87.72.05.17-.32.46-.16.91.29.75.92.81.08.89.83.11.73.7.24.73.87h.54l.24-.49 1.38-.65.42-.61.86-.03.91-.91.66.13.3-.35-.18-.36-.78-.21.26-.48 1.4-.92 1.17.82-.04.78-1.43.78.34.67.44.11.52-.56.58-.44.73.4-.07.69-.43-.01-.57.56.95 1.1.18 1.22.35-.22.49.05.05.73.51.75.52-.88-.06-.97-.56.43-.14-.41.43-.48 1.75.05.22.35.24-.4.89-1.21 1.83-1.11 1.03-.91h-.54l-.41.24.17-.22-.63-.21.68-.06h.92l1.34-.4 2.75-.54 2.21.43.92-.54v-.59h.65l.67-.46.62-1.27-.27-1.4-.03-.75 1.21-1.21v-2.11l.57-.81.25-1.42.7-.32-.06-.7 2.16-2.7.6-.11.38-1.46.86-1.13.54-1.51.86-.87-.09-.77.62-.33.57-1.37-.46-.43 1.1-.51.76-1.13.46-.46.53-1.16 1.05-.32.65-.33h-1.07l.26-.35 1.27-.08 1.13-.81.24-.83-.16-.44.16-.72 1.16-.89.03-.76.81-.32.78-1.32-.11-.67.41-1.08-.3-.35.11-.57 1-2.31.24-1.25 1.29-2.31-.05-.87.67-1.67.97-.81.35-.97-.27-1.04.6-.73-.54-1.62z" class="cls-3"/><path d="m134.62 169.21-.24-.32-.37.15.43.41.18-.24zM140.48 180.18l-.41.27.22.45 1.08.06.54.22.1-.41-.72-.67-.81.08zM121.7 47.87l.47.22.13-.54.62-.57-.28-.34-.73.79-.21.44zM130.92 70.9l.37-.2-.05-.39-.53.26.21.33zM121.34 48.68l-.05-.38-.35.17.4.21zM122.97 65.08l-.4-.53-.23.58.26.45.37-.5zM131.83 68.28l-.92-.22-.87.5s-.19.49-.15.47l.31.32.42-.15.42-.54.78-.11v-.26ZM128.61 179.64l-.19.55.48.28.23-.48-.03-.62-.49.27zM120.81 48.72h-.42l.2.28.22-.28zM129.25 181.48l.45.14.34-.34-.46-.44-.45.1.12.54zM142.18 44.91l.01.87.33-.19.36-.02-.25-.59-.45-.07zM138.24 171.43l-.62.05.38.26.24-.31zM129.78 179.46l-.36.17.03.52.4-.04-.07-.65z" class="cls-3"/><path d="m139.45 182.87-.4.65-.19-.13-.4-.03-.49.38-.38.24-2.13-.14-.46.3.03.65-.54-.51-.7.03-.46.35-.67-.48-.97-.89-1.24-.67.03-1.05-.3.35-.11.38-.54-.43-.65-.33-.7-.5-.23.34-.05.82-.22.16v.74l.16 1.4-.18.9.09 1.57.16 1.26-.19 1 .32.21.03.46.65.65-.76-.06-.6-.67-.29.7.05 1.24.49.4-.16.38.03 1.99.38.3-.16.29.16.92.67.24-.4.46v.75l.3.14.65-.14.48.48.57-.75v.59l.35.65h.57l.67-1.02.08-.65.32-1.16.48.46.21-.38.65-.51.27-.75v.75l.46.16.35-.62.59-.11.4.35-.09.6-.73-.3.04 1.05.63-.31.29.1.81-1.16v-.43l-.56-.38.51-.65-.02-.81h.57l.3-.29.08-1.54.46-.32.38-.68.21 1.03.13.51.35-.78-.03-.65.19-.32-.19-.89.51-.76.05-1.32.62-.75.32-1.83.24-.62-.84-.6h-.32Z" class="cls-3"/><path d="M132.85 196.16v.62l-.51.81.46.27.24-1.03.32-.45-.16-.38-.35.16zM127.78 177.27l.47-.75-.24-.5.16-1.03-.41-.35-.41.32-.48.6.09.61-.47.61.16.59-.08.51.5.24.58-.46.13-.39zM136.89 193.65l.41-.21-.41-.38v.59zM167.94 92.66l-.08-.39-.29.29.37.1zM119.51 49.09l-.41.31.41.04v-.35zM175.7 103.33l-.2.56.2.49-.38.77-.62.72-.08.64-.12.72.33 1.05.41.13-.21-.69.18-1.44.8-1.08.15-1-.12-.82-.34-.05zM140.34 177.48l.22.59-.27.65.24.43.22.49 1.26-.57v-.62l-1.15-1.16-.52.19zM118.13 50.02l.07.42.37-.38.61-.07.22-.38-.6.02-.67.39zM117.34 50.91l.63-.26-.05-.22-.87.27.29.21zM107.6 47.11l.4.71.05-.66.22-.66-.54.11-.13.5zM174.5 117.21l.41-.51-.17-.8-.24 1.31zM169.35 97.76l-.33-.23-.16.18.65.89.35.63.14-.63-.26-.33.05-.46-.44-.05zM80.24 60.2l.08-.39-.3-.04-.2.38.42.05zM140.75 182.15l.16-.57-.51.16.35.41zM142.68 43.08l.19.46.3-.39-.49-.07zM154.7 77.33l.3-.71-.09-1.17-.24.13-.58.16.52.59-.24.58.33.42zM119.99 57.74l.19-.13.1.35.4-.45-.35-.49-.41.38.07.34zM31.36 104.51l.44 1.41.28-1.05-.38-1.18-.34.82zM42.48 84.66l.38-.49.08-.79-.67.92.21.36zM102.26 50.03l1.21-1.27.31.05.05-.37.34-.29-.29-.23-.2-.46h-.31l-.44.22-.96.01-.4.5-.43-.22-.09-.23-.42-.06-.44-.47h-.2l.11.23.09.86.58.68.5.65.99.4zM111.65 153.36l-.64-.02.24-.3h-.43l-.16-.34.12-.57-.56.18-.63-.06-1.9.52-.85.44-.04.42.52.36.82.02.25-.05.64.1.44-.16.27.36.34-.02.08-.22.37-.01.25-.33 1.28.18.45-.42-.49-.24-.37.16zM32.21 102.61l-.08-.97-.28 1.54.36-.57ZM77.09 62.98l.26.36.58-.12-.5-.63s-.37.41-.33.39ZM77.25 65.43l-.07-.76-.35-.53.06 1.05.36.24z" class="cls-3"/><path d="m100.02 49.15.81.18-.08-.22-.6-.21-.29-1.28-.5.25.09.12-.03.38.17.08v.19l-.35-.1-.23.04-.03.4.75.19.29-.02z" class="cls-3"/><path d="m240.23 170.61.32.06.02-.37-.5.05.16.26zM194.56 218.81l.26-.07v-.41l-.59-.04-.13.25.11.08.35.19z" class="cls-1"/><path d="M229.78 193.69h-.19l-.03-.41-.51-.12-.44.82.17.18.3.09-.65.45-.35-.36.08-.41-.31.01-.43-.12-.45.29-.48.66-.46-.23-.34-1.02.3-.22.35-.41.11-.35-.19-.08.04-.29-.22-.22-.36.28-.26-.14-.3-.36.08-.46.43-.6-.58-.07-.95.63-.48.19-.63.51-.12.89-.64 1.62-.64.86-.31.11-.81.99-.25.54-.6.24-.72-.07-.58.43-.19.64-.04.71-.39.2-.57.63-.03.77-.33.44-.07.56-1.29 1.51-1.44 1.03-.75.11-.89.46-.1.51-.57-.03-1.33.67-1.15 1.09-.7.16-1.25.77-.11.4.24.56.09.73-.6-.57-.27-.12-.59.19-.63.15-.31-.26-.54.04-1.12.96-.41.53-.87.7-.55.17-.62.78-.15.84-.1-.44-.31-.25-.45.41-.43.28.02.85-.31.35-.33-.23-1.04 1.15h-.29l-.32.44-.07 1.23-.27.35-.27-.62-.28-.15-.26.44-.24.17-.62 1.03.05.44.54.51.26.34-.26.22-.59-.01-.73.1-.84.94.42.06.34.09-.39.23-.1.67.49.51.32.16.9.08.08.2.28.04.09-.42.36-.05.54.26.22.57-.19.24.37.34.58-.02.26.3.09.66.68.59.47.35-.69.41.35.07.94-.44v.37l.57.15.88-.11 1.23-.51 1.02-.88.67-.29.06-.36-.16-.58.43.36-.13.48.84-.35.25-.78.45-.68 1.04-.44.92.02.32-.23-.08-.2-.6.11.37-.23.12-.23-.15-.11.76-.89.56-1.02.26-1.05.51-.59 1.54-1.11.36-.61.13-.74.69-1.16.38-.57.03-.61.62-.72.54-.26.15-.64.49.39h.41l.2-.54.6-.03.38-.1.43-.59-.05-.54-.46-.49.59.26.26.72.26.07.43-.15.03-.31.46-.33.49.18v.28l-.64.26.74.02.54.21.21-.33-.03-.52.18-.23.21.18-.08.72.23.18.33-.26.1-.95-.3-.49-.49-.1.21-.31-.08-.82.25-1.13.52-.2.97-.31 1.05-.67.16-.41.8-.95.1-.67.75-.77.56.06-.08-.29 1.26-1.28.1-.41 1.85-1.6.65-.39-.36-.11-.08-.7-.29-.69.05-.63.18-.59.23.07.67-.92-.55.16-.5.07.75-.44.41-.75zM250.08 175.7l-.31-.41.27-.09.05-.2-.81-.16-.74.49-1.31 1.36-.84.07-.46.24-.65-.29-1.43-1.48-.44.07-.54-.77-.21-.49.36-.38.13-.8-.54-1.1v-.56l-.23-.39.08-.7.18-.48-.36-.08-.1-.79-.18-.44-.26.18-.56-.34-.18.29.51.51-.03.7.11.25-.54.51.02.49.47.59v.41l-.57.18-.41-.46-.08-.59-.72-.1v-.34l-.56-.25-.44.07-.05-.35.54-.31.21-.49-.57-.46.41-.8.54-.13.16-.72-.24-.54.16-.38-.23-.59.05-.8-.75-.54.08-.36.44.26.59-.13.13-.77.25-.25v-1.01l-.25-.92.1-.59-.31.13-.85.36-.64-.65.39-.33-.39-.36-.28-.05.26-.41.56-.26-.1-.38-.67-.15-.44-.42-.43.18-.1-.61h.28l.23-.41-.36-.06-.36.26.01.37-.3.51-.46-.21.19-.56-.28-.48-.18-.92.04-.61v-.22l.19-.08-.32-.36-.36.24-.95-.06-.03.22.45.5.76 1.85.11.65-.11 1.19-.28.29h-.27l-.13.2.41 1.48.21.2.54-.38h.73l-.5.15-.5.61.18.86.42.98.17 1.8-.02 1.09.03.74.37-.18.16-.63-.18-.44.21-.19.26.4v.6l.39-.05.06-.29-.09-.22.21-.05.06.5-.38.68-.18.57-.04.34-.26.08-.27-.41h-.29l.15 1.07.49 1.38.29.1.25-.13.26.47.06.33.32.25-.71.47-.01.26.25.24-.22.49-.41 1.23.01.62-.2.22.37.37-.15.26-.48.04-.31.55-.02.35.4.4-.41.22-.44.03-.3.78-.48 2.52-.08.61-.5.37-.51.04-.61-.23-.67.09-1.35.64-.61.68-.2.82.16 1.11.6.52 1.02.62.49.93.94.31.39.38.15 1.54.08.15-.18.18v.83l-.3.67-1.41 1.77-1 1.05-1.05.95-.38.46.11.35.72.17.15-.4.31.02.02.5-.06.36.19.09.29-.09.2.25-.04.57.16.21.54-.07 1.3-.95 1.14-.92 1.06-1.1.98-1.13 1.22-1.51.65-.43.44-.04.3-.37.05-.57.27-.36.69-.28.46-1.39.72-1.08v-.3l.36-.34-.54-.51-.59-.1-.46.07.48-.41.44-.13 1.59-1.69.7-.26 1.15.18.59.06-.11.45.07.49.6-.58.42-.23-.84-.35.09-.7.45-1.11.4-.44.59.02.17.24.31-.3.37-.56.93-1.48-.01-.49-.03-.49.27-.84.55-.64.62-.39-.1-.16-.85-.29zM198.69 226.68l.08-.32-.4.24.32.08zM197 226.68l.39-.08.04-.15-.11-.23-.31-.75-.62-.63-.62.18-.1.49.05.68-.19.65-.53.1v.45l-.28.18-.7.71.11.31.33.02.53-.62.23-.05.21.14.37.03.37-.27.76-.25.26.09.22-.28-.05-.28-.33-.15-.28-.28-.23-.05.32-.13.16.17z" class="cls-1"/><path d="m229.24 192.18.13-.34-.56-.15-.4.55-.04.52-.08.19.17-.03.32-.48.46-.26zM208.03 218.4l-.3-.02-.16.13.29.25.37-.04.26-.46-.23-.22-.23.36zM228.76 193.28l-.32.09-.3.33.33-.01.29-.41zM228.28 193.37l.02-.2-.72.38.38-.03.32-.15zM242.39 167.49l-.09-.34.22-.16-.22-.32-.05-.55-.42.95.42.52.14-.1zM241.2 166.95l-.28.13.16.22.12-.35z" class="cls-1"/></svg>