<svg xmlns="http://www.w3.org/2000/svg" id="Calque_1" viewBox="0 0 128 128"><defs><style>.cls-1,.cls-2{fill:none;stroke-linecap:round;stroke-linejoin:round}.cls-1,.cls-2,.cls-3{stroke:#000}.cls-2{stroke-width:2px}.cls-3{stroke-miterlimit:10;stroke-width:.25px}</style></defs><rect width="12.95" height="12.95" x="56.38" y="55.24" rx="6.48" ry="6.48" style="fill:#87ccf3"/><path d="M47.68 48.07s8.37-4.68 12.56 5.46" class="cls-1"/><path d="M50.24 50.22s3.06-2.49 6.68.57M56.65 54.1s-.87-.1-2.51.06c-2.96.28-4.4-1.32-4.4-1.32l.05-.53s3.89-3.42 7.94 1.39M59.83 59.57s-2.57 2.61 0 4.53M60.01 62.73s1.07.93 1.9 1.27" class="cls-1"/><path d="M52.94 26.18s2.47 6.63 6.44 6.49c3.97-.14 4.49-7.25 4.49-7.25" class="cls-2"/><path d="M46.85 31.44s4.88 3.53 10.06.43" class="cls-2"/><path d="M45.37 34.97s5.03.04 7.12-1.82M44.53 48.5s-4-2.28-4.17 1.52 1.43 3.49 2.51 7.24 3.42 4.32 3.42 4.32M13 112.39s.59-14.46 15.93-16.65c15.33-2.18 23.2-11.16 22.55-22.47" class="cls-2"/><path d="M38.88 96.77s19.64 1.38 22.21 6.28M62.16 25.65s-.61 2.62-1.8 4.45" class="cls-1"/><circle cx="53.42" cy="52.78" r="1.34" class="cls-1"/><circle cx="53.84" cy="52.76" r=".66" class="cls-3"/><path d="M78.23 47.95s-8.37-4.68-12.56 5.46" class="cls-1"/><path d="M75.67 50.09s-3.06-2.49-6.68.57M66.08 59.45s2.57 2.61 0 4.53" class="cls-1"/><path d="M79.06 31.32s-8.21 4.03-11.34-.35" class="cls-2"/><path d="M80.54 34.84s-5.09.18-7.18-1.69" class="cls-2"/><path d="M76.79 35.15s4.94 8.55 4.59 13.24c0 0 7.19-18.56-8.32-23.52 0 0-.84-3.14-4.89-2.33-5.33-4.65-10.44.12-10.44.12-4.05-.81-4.89 2.33-4.89 2.33-15.51 4.97-8.32 23.52-8.32 23.52-.35-4.68 4.59-14.14 4.59-14.14" class="cls-2"/><path d="M81.44 47.49S81.05 66.33 74 73.62c-7.05 7.29-10.96 6.48-10.96 6.48l.12.02s-4.19.92-11.24-6.37-7.44-26.13-7.44-26.13" class="cls-2"/><path d="M81.38 48.38s4-2.28 4.17 1.52c.17 3.79-1.43 3.49-2.51 7.24-1.08 3.75-3.42 4.32-3.42 4.32M112.91 112.26s-.59-14.46-15.93-16.65c-15.33-2.18-23.2-11.16-22.55-22.47" class="cls-2"/><path d="M87.03 96.65s-19.64 1.38-22.21 6.28" class="cls-1"/><path d="M62.22 30.85s3.43 4.35 8.07-2.93" class="cls-2"/><path d="M57.09 67.58h11.26s-5.63 4.69-11.26 0ZM58.38 70.28s4.27 2.54 8.84-.08M69.24 53.95s.87-.1 2.51.06c2.96.28 4.4-1.32 4.4-1.32l-.05-.53s-3.89-3.42-7.94 1.39" class="cls-1"/><circle cx="72.46" cy="52.63" r="1.34" class="cls-1"/><path d="M65.9 62.73s-1.07.93-1.9 1.27" class="cls-1"/><circle cx="73" cy="52.63" r=".66" class="cls-3"/></svg>