<svg xmlns="http://www.w3.org/2000/svg" id="Calque_1" data-name="Calque 1" viewBox="0 0 128 128"><defs><style>.cls-1{fill:#d6d6d6}.cls-6{stroke-miterlimit:10;stroke:#000;fill:none}</style></defs><ellipse cx="95.58" cy="88.16" class="cls-1" rx="18.85" ry="8.6"/><ellipse cx="40.89" cy="89.81" class="cls-1" rx="27.39" ry="8.6"/><path d="M16.12 39.8c-.87.63-2.1 1.49-2.82 2.3-2.19 2.49-3.31 5.87-3.05 9.18a12.58 12.58 0 0 0 4.18 8.39v.01c.91.67 1.73 1.22 2.62 1.76.02.01.03.02.05.04h.02c.08.05.15.09.23.14a.3.3 0 0 1 .08.04c0 .34 0 .68.03 1.02.24 3.14 1.73 6.12 4.1 8.2 2.59 2.28 5.6 2.99 8.96 2.99.36 0 .72-.02 1.07-.06h.07c.35-.04.7-.11 1.04-.19h.04c.56-.13 1.11-.32 1.64-.54.48-.21 1.03-.2 1.5.02 1.83.86 3.82 1.16 5.97 1.16 1.69 0 3.28-.47 4.68-1.27.47-.27 1.02-.33 1.53-.16 1.51.52 3.13.72 4.85.72 6.27 0 11.03-6.47 10.58-12.35-.1-1.34-.45-2.65-1-3.87-.28-.62-.23-1.32.15-1.88 1.65-2.43 2.54-5.4 2.32-8.24-.25-3.27-1.81-6.37-4.27-8.53-.28-.25-.56-.47-.85-.68-.47-.34-.73-.88-.77-1.45-.34-4.42-4.08-7.09-8.27-7.09-.17 0-.33 0-.5.02-.63.05-1.23-.27-1.61-.77-.17-.21-.34-.42-.52-.63-.03-.03-.06-.07-.09-.1-.3-.33-.6-.64-.94-.93-2.51-2.21-5.41-2.89-8.66-2.89s-6.01 1.65-7.97 4.04c-.42.52-1.08.78-1.74.7a18.6 18.6 0 0 0-2.27-.13c-5.78 0-10.26 5.63-10.38 11.09Z" style="fill:#76ac75;stroke:#000;stroke-miterlimit:10"/><path d="m46.04 66.27-.37-.37-3.81 2.61-.84-8.35h-1.26l-1.42 14.22-2.23-1.53-.38.38 2.37 3.46-1.5 15.08h7.58L42.2 71.9l3.84-5.63z" style="fill:#a07637;stroke:#000;stroke-miterlimit:10"/><path d="m11.08 76.4 12.65 11.23"/><path d="m11.08 76.4 11.75 10.43" class="cls-6"/><path d="M14.53 85.88c.04-.27.3-.46.57-.41l7.55 1.21-2.1-7.36c-.08-.27.08-.54.34-.62s.54.08.62.34l2.32 8.11c.05.16 0 .34-.11.47-.11.13-.29.19-.45.16l-8.33-1.33a.501.501 0 0 1-.41-.57Z"/><path d="M95.58 59.8v-.08" style="stroke-miterlimit:1;fill:none;stroke:#000"/><path d="M95.58 42.19S83.95 47.65 83.4 59.72h-5.36c0-9.69 7.85-17.53 17.53-17.53Z" style="fill:#fab0b4;stroke-linecap:round;stroke-miterlimit:1;stroke:#000"/><path d="M95.58 42.19v17.53H83.4c.54-12.07 12.18-17.53 12.18-17.53Z" style="fill:#8987f3;stroke-linecap:round;stroke-miterlimit:1;stroke:#000"/><path d="M113.11 59.72h-5.36c-.54-12.07-12.18-17.53-12.18-17.53 9.68 0 17.53 7.85 17.53 17.53Z" style="stroke-linecap:round;stroke-miterlimit:1;fill:#f3d587;stroke:#000"/><path d="M107.76 59.72H95.58V42.19s11.63 5.46 12.18 17.53Z" style="fill:#b2f0e9;stroke-linecap:round;stroke-miterlimit:1;stroke:#000"/><path d="M94.86 42.19v-.99c0-.39.32-.72.72-.72.39 0 .72.32.72.72v.99" style="stroke:#000;stroke-miterlimit:10;fill:#d6d6d6"/><path d="M94.61 59.72h1.94v28.44h-1.94z" style="fill:#baa584;stroke:#000;stroke-miterlimit:10"/><path d="m71.72 73.37 12.65 11.22"/><path d="m71.72 73.37 11.75 10.42" class="cls-6"/><path d="M75.18 82.85c.04-.27.3-.46.57-.41l7.55 1.21-2.1-7.36c-.08-.27.08-.54.34-.62s.54.08.62.34l2.32 8.11c.05.16 0 .34-.11.47-.11.13-.29.19-.45.16l-8.33-1.33a.501.501 0 0 1-.41-.57Z"/></svg>