<svg xmlns="http://www.w3.org/2000/svg" id="Calque_1" data-name="Calque 1" viewBox="0 0 128 128"><defs><style>.cls-3{fill:#87f3b9}.cls-4{stroke-linecap:round;stroke-linejoin:round}.cls-3,.cls-4{stroke:#000}.cls-4{fill:none;stroke-width:2px}.cls-3{stroke-miterlimit:10}</style></defs><path d="m110.92 109.94-26.38 13.09L66.8 89.16s-5.35-.24-10.76-3.74c-5.42-3.5-11.28-13.75-11.28-13.75l-8.87-14.36s-1.28-1.82-.71-4.24c.23-.95.74-1.99 1.73-3.04 1.98-2.09 4.16-1.88 5.69-1.28 1.2.46 2 1.16 2 1.16l3.27 3.75-3.32-6.67-9.35-18.83c-.6-1.23-.65-2.6-.25-3.81s1.27-2.28 2.5-2.88c2.46-1.22 5.47-.21 6.69 2.25l-3.19-6.42a5.012 5.012 0 0 1-.26-3.81 5.064 5.064 0 0 1 2.51-2.88 4.96 4.96 0 0 1 4.09-.14c1.09.43 2.04 1.26 2.59 2.39l3.18 6.41a5.012 5.012 0 0 1-.26-3.81c.4-1.21 1.28-2.27 2.5-2.88 2.46-1.22 5.47-.21 6.69 2.25l5.62 11.31a5.012 5.012 0 0 1-.26-3.81 4.96 4.96 0 0 1 2.51-2.88c2.45-1.22 5.46-.21 6.68 2.25l15.85 31.91s3.38 5.86 2.66 11.44c-.71 5.59-2.59 9.61-2.59 9.61l18.44 35.27Z" class="cls-4"/><path d="m47.87 53.65 5.39 9.68 2.54 4.55M67.63 26.14l8.43 16.98M53.08 19.27l14.04 28.28M58.19 51.99 44.14 23.71" class="cls-4"/><path d="M70.27 24.88c-.49-1.02-.06-2.24.96-2.73s2.25-.06 2.74.96l.53 1.11L70.81 26l-.53-1.11ZM55.59 18.56a2.445 2.445 0 0 1 1.14-3.27c1.22-.59 2.69-.08 3.27 1.14l.64 1.32-4.42 2.13-.64-1.32ZM43.29 16.41a2.445 2.445 0 0 1 1.14-3.27c1.22-.59 2.69-.08 3.27 1.14l.64 1.32-4.42 2.13-.64-1.32ZM37.66 27.3a2.445 2.445 0 0 1 1.14-3.27c1.22-.59 2.69-.08 3.27 1.14l.64 1.32-4.42 2.13-.64-1.32ZM38.54 56.14c-.86-1.38-.43-3.19.94-4.04 1.38-.86 3.19-.43 4.05.94l.93 1.49-4.99 3.1-.93-1.49Z" class="cls-3"/><path d="m15.7 47.55 22.33-20.23" style="fill:#87f3b9"/><path d="m15.7 47.55 20.72-18.78" style="stroke:#ff6d75;stroke-miterlimit:10;fill:none;stroke-width:2px"/><path d="m37 39.28-1.99-.16.84-9.83-9.86-.12.03-2.01 12.01.16L37 39.28z" style="fill:#ff6d75"/></svg>