<svg xmlns="http://www.w3.org/2000/svg" id="Calque_1" data-name="Calque 1" viewBox="0 0 128 128"><defs><style>.cls-2{stroke-linecap:round;fill:#b2f0e9;stroke-miterlimit:10;stroke:#000;stroke-width:3px}</style></defs><path d="M85.8 74.64c13.24 0 23.98-10.74 23.98-23.98 0-9.19-5.16-17.16-12.73-21.19-2.59-10.44-12.02-18.2-23.28-18.2-8.1 0-15.28 4.03-19.61 10.17-1.41-.33-2.88-.49-4.39-.49-9.45 0-17.4 6.39-19.75 15.09-6.97 3.26-11.8 10.35-11.8 18.54 0 11.32 9.17 20.47 20.47 20.47" style="fill:#87ccf3;stroke:#000;stroke-width:3px;stroke-miterlimit:10;stroke-linecap:round"/><path d="M40.47 94.37c-.44 2.48-2.8 4.49-5.28 4.49s-4.13-2.01-3.7-4.49 5.92-8.12 5.92-8.12 3.49 5.64 3.06 8.12ZM86.66 105.27c-.44 2.48-2.8 4.49-5.28 4.49s-4.13-2.01-3.7-4.49 5.92-8.12 5.92-8.12 3.49 5.64 3.06 8.12Z" class="cls-2"/><path d="M58.19 64.87 49.6 91.39h11.13L49.6 119.36l32.56-38.14H65.88l5.11-16.35h-12.8z" style="fill:#f3d587;stroke:#000;stroke-width:3px;stroke-linejoin:round;stroke-linecap:round"/><path d="M-2948.76-619.33h6562.35v1176.7h-6562.35z" style="stroke-linejoin:round;stroke-linecap:round;fill:none;stroke:#fff;stroke-width:8px"/></svg>