<svg xmlns="http://www.w3.org/2000/svg" id="Calque_1" data-name="Calque 1" viewBox="0 0 200 128"><defs><style>.cls-1,.cls-2{fill:#bfe6fc;stroke:#000;stroke-linecap:round;stroke-linejoin:round}.cls-2{fill:#d6d6d6;stroke-width:2px}</style></defs><path d="M152.76 9.88H46.11c-1.48 0-2.69 1.21-2.69 2.69v71.08h112.03V12.57c0-1.48-1.21-2.69-2.69-2.69Z" class="cls-2"/><path d="M51.36 15.87h96.14v61.77H51.36z" class="cls-1"/><path d="M99.91 13.54c0 .26-.21.48-.48.48s-.48-.21-.48-.48.21-.48.48-.48.48.21.48.48Z"/><path d="M89.24 107.77h20.63v4H89.24z" style="fill:#d6d6d6"/><path d="M109.88 108.94v1.26c0 .87-.52 1.58-1.15 1.58H90.06c-.63 0-1.15-.71-1.15-1.58v-1.26h-66.2l1.97 5.88h149.66l1.81-5.88h-66.27Z" class="cls-2"/><path d="M22.71 109.19h153.44l-20.71-25.55H43.42l-20.71 25.55z" class="cls-2"/><path d="m96.08 89.98 6.45-.03 2.05 5.06h-10.3l1.8-5.03zM84.08 97.69l30.93-.04 2.05 5.07H82.28l1.8-5.03zM92.7 89.98h-.03l-1.81 5.03h-6.42l1.8-5.03 6.45-.03.01.03zM82.8 89.98h-.04l-1.8 5.03h-6.42l1.79-5.03 6.46-.03.01.03zM72.9 89.98h-.04l-1.81 5.03h-6.42l1.8-5.03 6.46-.03.01.03zM62.99 89.98h-.03l-1.81 5.03h-6.42l1.8-5.03 6.45-.03.01.03zM53.14 89.98h-.03l-1.81 5.03h-8.61l3.98-5.03 6.46-.03.01.03zM106.13 89.98h.04l1.8 5.03h6.42l-1.79-5.03-6.46-.03-.01.03zM116.03 89.98h.04l1.81 5.03h6.42l-1.8-5.03-6.45-.03-.02.03zM125.94 89.98h.03l1.81 5.03h6.42l-1.8-5.03-6.45-.03-.01.03zM135.84 89.98h.04l1.8 5.03h6.42l-1.79-5.03-6.46-.03-.01.03zM145.69 89.98h.04l1.8 5.03h8.62l-3.99-5.03-6.46-.03-.01.03zM118.61 97.68h.04l1.81 5.03h6.42l-1.8-5.03-6.46-.02-.01.02zM128.52 97.68h.03l1.81 5.03h6.42l-1.8-5.03-6.45-.02-.01.02zM138.42 97.68h.03l1.81 5.03h6.42l-1.79-5.03-6.46-.02-.01.02zM148.27 97.68h.04l1.8 5.03 12.23.01-3.99-5.04-10.07-.02-.01.02z" class="cls-1"/><path d="m150.11 102.71 12.23.01-3.99-5.04-10.07-.02 1.83 5.05zM48.96 102.71H36.73l3.99-5.03 10.07-.03-1.83 5.06zM80.45 97.68h-.04l-1.81 5.03h-6.42l1.8-5.03 6.45-.02.02.02zM70.54 97.68h-.03l-1.81 5.03h-6.42l1.79-5.03 6.46-.02.01.02zM60.64 97.68h-.04l-1.8 5.03h-6.42l1.79-5.03 6.46-.02.01.02z" class="cls-1"/><path d="M-3824.32-5758h6467.34V679.3h-6467.34z" style="fill:none;stroke:#fff;stroke-width:8px;stroke-linecap:round;stroke-linejoin:round"/></svg>