<svg xmlns="http://www.w3.org/2000/svg" id="Calque_1" viewBox="0 0 200.13 128.13"><defs><style>.cls-1{fill:#d6d6d6}.cls-1,.cls-2,.cls-3,.cls-4,.cls-5,.cls-6,.cls-8{stroke:#000}.cls-1,.cls-2,.cls-3,.cls-4,.cls-5,.cls-6{stroke-linecap:round;stroke-linejoin:round}.cls-2{fill:#afaff9}.cls-3{fill:#8987f3}.cls-4{fill:#87ccf3}.cls-5{fill:#fff}.cls-6,.cls-8{fill:none}.cls-8{stroke-miterlimit:10}</style></defs><path d="m143.16 32.67 3.04-4.79c-.51.29-2.82.82-4.93.72-2.24-.12-1.96-1.7-2.22-4.04-.26-2.32-1.34-2.49-1.38-3.08-.03-.6 1.98-1.67 1.92-4.22-.01-.28 0-.53.03-.79.19-2.09 1.34-3.37 2.04-4.02 0 0 2.36 4.2 2.86 4.87.5.67 2.16 2.65 3.42 2.21 1.15-.41 2.14-1.26 3.11-.62.97.64 1.03 2.72-.12 3.39 0 0 1.12 2.07 1.55 3.5l2.06 5.29" class="cls-5"/><path d="M139.42 18.58s-1.6-2.93-1.18-5.2a3.161 3.161 0 0 1 2.99-2.76c1.37-2.16 7.22-3.34 12.56-.32 3.9 2.21 3.19 5.95 1.89 8.21" class="cls-6"/><path d="M156.61 16.52s.87 2.68-.56 4.76c-1.24 1.81-2.71 3.73-2.98 5.84M7.95 120.35H193.4" class="cls-6"/><rect width="34.17" height="47.74" x="81.93" y="6.13" class="cls-8" rx="5.11" ry="5.11"/><path d="M96.26 18.58h5.57l8.34 23.56h-5.34l-1.55-4.84H94.6L93 42.14h-5.15l8.41-23.56Zm-.33 14.66h6.04l-2.98-9.27-3.06 9.27Z"/><path d="m114.22 18.68 4.8 9.55-3.12 2.14s-.75-2.48-.98-2.52c-1.63-.28-1.92-3.31-1.92-3.31l-1.81.31-1.16.56s-1.04-.06-.76-.71c.28-.64 1.34-1.29 1.34-1.29l2-.82-2.13-.19s-2.04.89-2.43.57c-.39-.32-.24-.97-.24-.97s-.96-.49-.86-1c.1-.5 2.96-1.79 2.96-1.79l1.83-.12-2.16-.97c-.84-.38-1.32-1.31-1.08-2.2v-.03l5.73 2.77Z" class="cls-5"/><path d="m115.63 24.66-3.98-4.02s-.32.69-.18 1.34c.14.65 1.28 1.89 1.26 2-.11.62.24 2.06 1.07 3.07" class="cls-5"/><path d="m118.97 27.51 9.17 13.02 20.43-5.5 1.46 9.33s-20.34 5.27-23.03 5.53c-3.08.3-4.71-2.99-5.25-3.98-.22-.39-8.55-13.94-8.55-13.94l5.77-4.47Z" class="cls-4"/><path d="m88.78 87.9 3.66-3.17 5.92 5.81-3.3 3.41-6.28-6.05z" class="cls-5"/><path d="M95.16 92.43c.56.56.85 1.34.78 2.13-.09 1.03-.14 2.62-1.53 4.04h0c-.59.96-1.73 1.44-2.83 1.19-.49-.11-1.02-.28-1.56-.54-1.79-.88-3-2.7-6.1-3.35-3.1-.65-7.09-2.33-8.92-4.64-1.83-2.32-1.55-3.61-1.55-3.61h0c1.52-.76 3.26-.97 4.91-.55 1.07.27 2.49.53 4.19.58 3.98.13 7.2-.66 7.2-.66l5.42 5.41Z" class="cls-1"/><path d="m104.16 111.79.93-4.74 8.25.94-.5 4.71-8.68-.91z" class="cls-5"/><path d="M113.26 112.54c.45.8 1.75 2.03 1.72 4.17 0 .23.04.47.15.67h0c.32.58.15 1.32-.4 1.7-.68.48-1.67 1.05-2.72 1.31-1.94.47-4.03-.14-6.83 1.35-2.8 1.49-6.93 2.77-9.82 2.17-2.89-.6-3.5-1.77-3.5-1.77h0a7.08 7.08 0 0 1 3.41-3.58c1-.48 2.25-1.2 3.58-2.24 2.28-1.79 3.95-3.7 4.68-4.6.27-.33.69-.51 1.11-.47l7.58.64c.43.04.82.28 1.03.66ZM119.84 97.16l-4.52 23.29h3.33l8.07-25.75-6.88 2.46zM172.4 97.84l4.45 22.56h-3.34l-8-25.02 6.89 2.46z" class="cls-1"/><path d="m179.35 52.29-5.61 36.47v7.38c0 2.16-1.8 3.9-3.96 3.82l-49.38-1.71c-2.21-.08-3.9-2-3.68-4.2l.86-8.82c.2-2.02 1.94-3.54 3.97-3.46l40.1 1.66 5.11-32.92a2.72 2.72 0 0 1 3.02-2.28l7.23.89a2.72 2.72 0 0 1 2.34 3.17Z" class="cls-1"/><path d="m143.16 32.67 6.48-2.86a4.56 4.56 0 0 1 4.46.89c1.2 1.03 2.54 2.66 3.32 5.08 2.05 6.35 2.45 12.57 2.45 12.57s2.24 21.52 1.11 23.62l-.85 1.24-21.1-2.34 3.88-11.3" class="cls-4"/><path d="M142.91 59.57c-3.76-18.19-1.63-25.36.25-26.9" class="cls-4"/><path d="M146.87 42.11c.39 1.52 3.89 18.16 3.89 18.16l-15.29 6.61 8.82 1.8s11.57-2.19 14.52-4.19c1.6-1.09.59-4.96.37-7.55s-3.08-17.59-3.54-19.5c-.74-3.15-5.09-6.29-7.74-3.34-2.77 3.08-1.04 8.03-1.04 8.03Z" class="cls-4"/><path d="m135.94 65.21-19.55-3.38-.29 1.83 19.63 3.19.21-1.64z" class="cls-5"/><path d="M90.67 84.92c.56-.65 16.72-19.64 21-21.3 4.28-1.66 40.96 6.98 40.96 6.98l7.87-3.63s6.31 13.71-2.12 18c-8.43 4.29-24.52-3.85-24.52-3.85l-19.64-6.52-16.54 18.2-7-7.88Z" class="cls-3"/><path d="M115.53 75.04c-2.22-.74-7.24 3.07-7.76 5.4-.51 2.33-2.64 24.43-3.01 25.59l-.29 1.89 9.07 1.07s1.91-10.1 3.12-14.28c1.21-4.18 2.51-9.07 2.51-9.07l22.72-1.75s-24.14-8.11-26.36-8.85Z" class="cls-3"/><path d="m107.8 22.01 2.06-1.01" class="cls-5"/><ellipse cx="142.48" cy="19.4" rx=".34" ry=".75" style="stroke-linecap:round;stroke-linejoin:round;stroke:#000" transform="rotate(-4.12 142.524 19.463)"/><path d="m150.09 20.44-.56.22" class="cls-5"/><path d="M173.74 88.76h-55.42" class="cls-1"/><path d="M44.51 36.54c9.85 1.31 6.31-10.28 5.36-11.81-.95-1.54.11-1.25-1.85-4.32-1.96-3.07-5-1.97-5-1.97-1.59-.74-7.19-.86-8.52 2.21-1.33 3.07-2.57 4.81-4.05 7.69 0 0-2.9 7.24 7.97 9.52M65.08 105.29s2.27 9.27 3.97 10.73c1.69 1.46 7.22 4.24 5.77 4.54-1.45.3-12.15.55-11.85-1.24.29-1.78.6-2.92.6-2.92l-2.83-6.62 4.34-4.49ZM40.13 113.06s-.24 2.35-.24 3.38c0 1.03.96 3.95.52 4.39-.45.45-13.19.39-13.19-.03s2.25-1.69 5.31-2.57c3.06-.87 4.1-4.26 3.31-6.21l4.29 1.03Z" class="cls-5"/><path d="m53.97 73.87 2.29 2.03s2.57 6.97 2.72 7.43c.21.64 8.54 27.5 8.54 27.5l-5.81 2.09S55.95 101.7 55 97.81c-.95-3.9-10.49-20.19-10.49-20.19l9.46-3.74ZM43.87 78l-2.78 35.6h-6.44s-2.31-26.64-1.51-36l10.73.4Z" class="cls-5"/><path d="M32.58 42.15s4.09-1.07 8.75-1.33c2.41-.13 5.64.38 5.64.38s2.94 6.6 3.82 12c.87 5.41 5.64 22.74 5.64 22.74s-9.7 7.47-23.85 2.54V42.15Z" class="cls-5"/><path d="M43.6 36.24s-.13 4.22.27 4.62c.4.4.95 1.05.37 2.06s-3.11.36-4.29-.21c-1.13-.55-1.86-1.58-1.86-1.58l.59-6.69 4.93 1.8Z" class="cls-5"/><path d="M46.73 34.17c-2.01 3.66-4.58 2.75-5.65 2.39-1.06-.38-3.14-1.19-4.21-4.61-.09-.3-.18-.63-.23-.99-.08.4-.3.77-.82.82-1.26.13-2.43-3.62-.91-4.1.99-.31 1.38.6 1.55 1.3 0-3.61 1.53-7.95 6.14-7.41 0 0 2.38-.05 3.6 1.8 1.22 1.86 2.54 7.15.53 10.81ZM32.58 42.15s-1.86.16-2.07 3.78c-.08 1.43-3.72 22.12 2.15 26.87l-.08-30.64Z" class="cls-5"/><path d="m34.2 117.38 5.69-.94M63.57 116.4l4.62-1.64" class="cls-2"/><path d="M46.97 41.19s8.41 2.78 7.8 28.56" class="cls-6"/><path d="M78.8 25.94c-.78 5.94-5.75 10.63-11.73 11.1-2.73.21-5.3-.42-7.45-1.67l-2.68 1.51c-.55.31-1.2-.2-1.03-.81l.83-2.95c-2.6-2.7-4.03-6.51-3.49-10.66.74-5.71 5.35-10.32 11.07-11.06 8.47-1.09 15.6 6.06 14.49 14.54Z" class="cls-1"/><path d="M64.77 18.66h2.66l3.99 11.27h-2.55l-.74-2.32h-4.15l-.76 2.32h-2.46l4.02-11.27Zm-.16 7.01h2.89l-1.42-4.44-1.46 4.44Z"/><ellipse cx="40.17" cy="27.67" rx=".54" ry=".78"/><ellipse cx="45.35" cy="27.67" rx=".54" ry=".78"/><path d="M42.87 28.45c.35 0 .63.28.63.63s-.28.63-.63.63" style="stroke-width:.5px;fill:none;stroke-linecap:round;stroke-linejoin:round;stroke:#000"/><path d="M44.81 33.24c0 .14-.02.29-.06.42-1.23-.68-2.56-.34-3.4.01a1.54 1.54 0 0 1-.06-.43c0-.97.79-1.76 1.76-1.76s1.76.79 1.76 1.76Z" style="fill:#fab0b4"/><path d="M44.75 33.66c-.18.78-.87 1.35-1.7 1.35s-1.52-.57-1.7-1.34c.84-.35 2.17-.69 3.4-.01Z" style="fill:#ff6d75"/><circle cx="43.05" cy="33.24" r="1.76" class="cls-8"/><path d="M139.04 24.57s1.28-1.25 2.96-.31.55 2.53-2.82 1.87" class="cls-6"/></svg>