<svg xmlns="http://www.w3.org/2000/svg" id="Calque_1" data-name="Calque 1" viewBox="0 0 200 128"><defs><style>.cls-10,.cls-11,.cls-12,.cls-4,.cls-5,.cls-8,.cls-9{stroke:#000}.cls-12,.cls-4,.cls-5{stroke-linecap:round;stroke-linejoin:round}.cls-10{fill:#87ccf3}.cls-12,.cls-4,.cls-8{fill:#fff}.cls-11,.cls-5{fill:none}.cls-10,.cls-11,.cls-8,.cls-9{stroke-miterlimit:10}.cls-9{fill:#ffd4ad}.cls-12{stroke-width:.75px}</style></defs><path d="M118.78 101.61h64.49v4.98h-64.49z" style="fill:#f3d587;stroke-linecap:round;stroke-linejoin:round;stroke:#000" transform="rotate(-180 151.025 104.095)"/><path d="M183.21 106.21h-64.43V81.35h64.43z" class="cls-5"/><path d="M183.21 84.76h-64.43v-3.41h64.43zM115.47 79.23h3.31v41.31h-3.31zM183.21 114.2h-64.43v-8h64.43z" class="cls-4"/><circle cx="117.13" cy="76.86" r="2.74" class="cls-4"/><path d="M183.27 79.23h3.31v41.31h-3.31zM173.27 84.75h3.31v21.45h-3.31zM163.7 84.75h3.31v21.45h-3.31zM154.13 84.75h3.31v21.45h-3.31zM144.55 84.75h3.31v21.45h-3.31zM134.98 84.75h3.31v21.45h-3.31zM125.41 84.75h3.31v21.45h-3.31z" class="cls-4"/><circle cx="184.93" cy="76.86" r="2.74" class="cls-4"/><path d="M184.93 74.12V58.44h-13.8v4.72l8.58 5.01M171.08 58.44v4.72l-8.58 5.01M171.13 63.16v4.51" class="cls-5"/><path d="M169.85 67.77h2.56v2.56h-2.56z" style="fill:#87ccf3;stroke-linecap:round;stroke-linejoin:round;stroke:#000" transform="rotate(135 171.128 69.05)"/><path d="M178.45 67.77h2.56v2.56h-2.56z" style="fill:#b4eac3;stroke-linecap:round;stroke-linejoin:round;stroke:#000" transform="rotate(90 179.735 69.055)"/><rect width="3.03" height="3.03" x="160.98" y="67.84" rx=".82" ry=".82" style="fill:#fab0b4;stroke-linecap:round;stroke-linejoin:round;stroke:#000" transform="rotate(135 162.497 69.353)"/><path d="M83.4 63.94V91.9c-33.69-9.99-58.01-3.39-66.65-.23v-30.4c0-1.55 1.27-2.8 2.82-2.8s2.8 1.25 2.8 2.8v2.68H77.7v-2.68c0-1.55 1.27-2.8 2.82-2.8s2.81 1.25 2.81 2.8v2.68h.07Z" class="cls-9"/><path d="M42.94 91.9c-5.61.61-11.27.61-16.98.03-2.04 2.45-4.59.75-3-2.45-.15-.83-.27-1.66-.35-2.49a29.2 29.2 0 0 1 .4-8.49c-1.78-3.44 1.2-5.21 3.3-2.09 5.48-.3 10.91-.3 16.31.01 2.11-3.15 5.01-1.14 3.17 2.36.85 3.48.87 6.95.05 10.43 1.86 3.38-.79 5.25-2.89 2.68ZM74.18 91.9c-5.61.61-11.27.61-16.98.03-2.04 2.45-4.59.75-3-2.45-.15-.83-.27-1.66-.35-2.49a29.2 29.2 0 0 1 .4-8.49c-1.78-3.44 1.2-5.21 3.3-2.09 5.48-.3 10.91-.3 16.31.01 2.11-3.15 5.01-1.14 3.17 2.36.85 3.48.87 6.95.05 10.43 1.86 3.38-.79 5.25-2.89 2.68Z" class="cls-8"/><path d="M13.28 96.37h73.44v17.79H13.28z" class="cls-9"/><path d="M18.22 102.45h63.4v5.63h-63.4zM13.28 93.1v27.44H7.65V93.1c0-1.55 1.25-2.82 2.8-2.82s2.82 1.27 2.82 2.82ZM92.35 92.94v27.44h-5.63V92.94c0-1.55 1.27-2.8 2.82-2.8s2.8 1.25 2.8 2.8Z" class="cls-9"/><path d="M86.72 92.94v3.43H13.28V93.1s1.2-.59 3.47-1.43c8.65-3.16 32.96-9.75 66.65.23v.02c1.09.32 2.2.66 3.32 1.02Z" class="cls-10"/><path d="M100 35.42v85.12" style="stroke-miterlimit:10;stroke-width:5px;fill:none;stroke:#000"/><path d="M71.27 32.41s-16.48 5.84-18.74 19.22" class="cls-11"/><path d="m49.34 47.52.87-.51 2.48 4.26 4.07-2.79.57.82-4.96 3.4-3.03-5.18z"/><path d="M128.73 32.41s16.48 5.84 18.74 19.22" class="cls-11"/><path d="m142.67 49.3.57-.82 4.06 2.79 2.49-4.26.86.51-3.03 5.18-4.95-3.4z"/><path d="M3.07 120.54h191.74" class="cls-11"/><path d="M127.25 30.16c0 15.05-12.2 27.25-27.25 27.25-.94 0-1.87-.05-2.78-.14-7.07-.72-13.34-4.14-17.76-9.21a27.08 27.08 0 0 1-6.71-17.9c0-15.05 12.2-27.25 27.25-27.25s27.25 12.2 27.25 27.25Z" class="cls-8"/><path d="M89.5 23.64s.11-.16.31-.35c.88-.83 2.66-1.04 3.24.91.39 1.33-1.31 4.25-1.1 4.83 0 0-4.54-2.31-2.45-5.39ZM112.37 33.05s.02-.2-.02-.47c-.15-1.2-1.39-2.5-3.07-1.36-1.15.78-1.69 4.12-2.22 4.43 0 0 4.97 1.11 5.31-2.6Z" class="cls-8"/><path d="M107.28 53.61c-5.2 2.26-7.28-.64-7.88-1.84-.04-.09-.17-.06-.17.04 0 1.67-.96 3.71-2 5.46-7.07-.72-13.34-4.14-17.76-9.21 1.07-1.92 2.6-3.89 3.44-4.94.07-.09-.04-.19-.13-.13-1.91 1.3-2.71-.3-4.04-1.77-1.41-1.57-1.04-9.06-.99-9.84 0-.04.03-.07.07-.08l3.84-.97s.06 0 .09.02c1.32 1.12 2.21 4.94 2.5 6.37.02.1.16.09.19 0 .16-.54.57-.97 1.04-1.31.91-.63 2.05-.84 3.15-.74 7.7.73 11.58 4.56 11.58 4.56 5.52 3.77 5.11 7.37 4.76 8.56-.02.09.08.16.15.09 1.29-1.07 5.22-2.08 5.75-2.2.04-.01.07 0 .09.04l2.26 3.4.02.04c.03.2.06 1.82-5.95 4.44Z" class="cls-10"/><path d="M78.36 27.94s-1.05-3.54-1.16-1.45c-.11 2.09.05 3.74.54 4.84l3.96-.99s.9-1.64.42-2.49c-.14-.24-.5-.21-.61.05-.14.34-.31.8-.31 1.12 0 0 .74-2.67.1-3.56-.18-.25-.58-.17-.65.14-.15.61-.37 1.73-.22 2.43 0 0 .02-1.86-.32-2.84-.1-.29-.5-.28-.6 0-.21.65-.43 1.75.03 2.65 0 0-.55-2.87-.88-2.84-.71.07-.32 2.95-.32 2.95ZM115.25 46.24s3.29-1.67 1.85-.16c-1.44 1.52-2.75 2.54-3.89 2.93l-2.23-3.38s.81-1.97 1.75-2.2c.27-.07.5.22.39.48-.15.33-.37.77-.61.99 0 0 1.43-2.37 2.52-2.52.31-.04.52.31.35.57-.34.53-1 1.46-1.61 1.82 0 0 1.34-1.29 2.28-1.72.28-.13.55.17.41.44-.33.6-.98 1.52-1.95 1.8 0 0 2.46-1.58 2.67-1.31.44.57-1.92 2.26-1.92 2.26Z" class="cls-12"/><path d="M101.23 38.42s-2.75 4.35-7.04 1.38c0 0-3.47-1.98-1.21-4.84l8.25 3.47Z" class="cls-8"/><path d="M91.46 23.27c-1.12 4.57-3.43 8.58.16 10.82 3.25 2.03 10.83 6.87 13.26 5.33 3.72-2.36 16.04-16.66.75-22.47-.18-.07-4.89-2.15-6.78-1.95-3.18.34-6.09 2.95-7.4 8.27Z" class="cls-8"/><path d="M98.8 32.08c-.12 0-.25-.05-.32-.15-.24-.35-.33-.74-.26-1.07.05-.24.19-.44.39-.55.21-.13.42-.15.59-.16.19-.02.3-.03.41-.12.16-.13.26-.52.28-.75.02-.19.19-.34.39-.33.2.02.34.19.33.39 0 .09-.08.89-.55 1.25-.28.22-.57.25-.79.27-.12.01.04.22 0 .29 0 .01-.34-.2-.35-.13-.02.1 0 .29.15.51.11.16.07.39-.09.5a.3.3 0 0 1-.18.06Z"/><path d="M94.63 25.96s1.19 1.83 2.79 1.57M106.2 32.07s-2.18-.14-2.73-1.67M96.03 33.29s.7 1.67 3 1.32M92.22 20.9s3.32 2.34 11.32.84" class="cls-5"/><path d="M103.47 18.94s-1.49 7.67 8.29 12.39" class="cls-5"/><path d="m95.05 10.4 2.72-3.44h-2.65v-.94h4.03v.89l-2.76 3.49h2.76v.94h-4.11v-.94ZM99.52 10.64l2.04-2.58h-1.99v-.71h3.02v.67l-2.07 2.62h2.07v.7h-3.08v-.7ZM102.88 10.76l1.7-2.15h-1.66v-.59h2.52v.56l-1.72 2.18h1.73v.59h-2.57v-.59ZM105.75 9.41v-.52h1.94v.54l-1.21 1.4h1.25v.53h-2.07v-.5l1.22-1.43h-1.13Z"/><path d="M-5156.6-5566.62h6467.34v6437.3H-5156.6z" style="stroke:#fff;stroke-width:8px;fill:none;stroke-linecap:round;stroke-linejoin:round"/></svg>