<svg xmlns="http://www.w3.org/2000/svg" data-name="Calque 1" viewBox="0 0 128 128"><path d="M114.02 34.84v30.41c0 10.36-7.72 18.83-17.15 18.83H62.63l-25.42 20.05V84.08h-4.43c-9.43 0-17.15-8.46-17.15-18.83V34.84c0-10.35 7.72-18.83 17.15-18.83h64.09c9.43 0 17.15 8.48 17.15 18.83Z" style="stroke:#000;stroke-linecap:round;stroke-linejoin:round;stroke-width:2px;fill:#bbfedb"/><rect width="44.85" height="44.85" x="39.1" y="29.64" rx="4.14" ry="4.14" style="fill:#87f3b9"/><path d="M83.95 48.51v19.68c0 3.46-2.83 6.3-6.3 6.3H45.4c-3.46 0-6.3-2.83-6.3-6.3V35.94c0-3.46 2.83-6.3 6.3-6.3h32.25" style="fill:none;stroke:#000;stroke-linecap:round;stroke-linejoin:round;stroke-width:2px"/><path d="m45.3 42.89 16.22 23.26L88.9 29.64" style="stroke-width:3px;fill:none;stroke:#000;stroke-linecap:round;stroke-linejoin:round"/><path d="M-2989-183.98h6562.35v1176.7H-2989z" style="stroke:#fff;stroke-width:8px;fill:none;stroke-linecap:round;stroke-linejoin:round"/></svg>