<svg xmlns="http://www.w3.org/2000/svg" id="Calque_1" viewBox="0 0 128 128"><defs><style>.cls-1,.cls-2{fill:none;stroke-linecap:round;stroke-linejoin:round}.cls-1,.cls-2,.cls-3{stroke:#000}.cls-4{fill:#87ccf3}.cls-2{stroke-width:2px}.cls-3{stroke-miterlimit:10;stroke-width:.25px}</style></defs><rect width="21.45" height="21.45" x="73.36" y="42.81" class="cls-4" rx="10.73" ry="10.73"/><rect width="21.45" height="21.45" x="32.47" y="42.81" class="cls-4" rx="10.73" ry="10.73"/><path d="M48.73 48.07s8.37-4.68 12.56 5.46" class="cls-1"/><path d="M51.28 50.22s3.06-2.49 6.68.57M57.69 54.1s-.87-.1-2.51.06c-2.96.28-4.4-1.32-4.4-1.32l.05-.53s3.89-3.42 7.94 1.39M60.87 59.57s-2.57 2.61 0 4.53M61.05 62.73s1.07.93 1.9 1.27" class="cls-1"/><path d="M53.98 26.18s2.47 6.63 6.44 6.49c3.97-.14 4.49-7.25 4.49-7.25" class="cls-2"/><path d="M47.89 31.44s4.88 3.53 10.06.43" class="cls-2"/><path d="M46.41 34.97s5.03.04 7.12-1.82M45.57 48.5s-4-2.28-4.17 1.52c-.17 3.79 1.43 3.49 2.51 7.24s3.42 4.32 3.42 4.32M14.04 112.39s.59-14.46 15.93-16.65c15.33-2.18 23.2-11.16 22.55-22.47" class="cls-2"/><path d="M39.92 96.77s19.64 1.38 22.21 6.28M63.2 25.65s-.61 2.62-1.8 4.45" class="cls-1"/><circle cx="54.47" cy="52.78" r="1.34" class="cls-1"/><circle cx="54.88" cy="52.76" r=".66" class="cls-3"/><path d="M79.27 47.95s-8.37-4.68-12.56 5.46" class="cls-1"/><path d="M76.72 50.09s-3.06-2.49-6.68.57M67.13 59.45s2.57 2.61 0 4.53" class="cls-1"/><path d="M80.11 31.32s-8.21 4.03-11.34-.35" class="cls-2"/><path d="M81.59 34.84s-5.09.18-7.18-1.69" class="cls-2"/><path d="M77.84 35.15s4.94 8.55 4.59 13.24c0 0 7.19-18.56-8.32-23.52 0 0-.84-3.14-4.89-2.33-5.33-4.65-10.44.12-10.44.12-4.05-.81-4.89 2.33-4.89 2.33-15.51 4.97-8.32 23.52-8.32 23.52-.35-4.68 4.59-14.14 4.59-14.14" class="cls-2"/><path d="M82.48 47.49s-.39 18.84-7.44 26.13c-7.05 7.29-10.96 6.48-10.96 6.48l.12.02s-4.19.92-11.24-6.37-7.44-26.13-7.44-26.13" class="cls-2"/><path d="M82.43 48.38s4-2.28 4.17 1.52c.17 3.79-1.43 3.49-2.51 7.24s-3.42 4.32-3.42 4.32M113.96 112.26s-.59-14.46-15.93-16.65c-15.33-2.18-23.2-11.16-22.55-22.47" class="cls-2"/><path d="M88.08 96.65s-19.64 1.38-22.21 6.28" class="cls-1"/><path d="M63.26 30.85s3.43 4.35 8.07-2.93" class="cls-2"/><path d="M58.13 67.58h11.26s-5.63 4.69-11.26 0ZM59.42 70.28s4.27 2.54 8.84-.08M70.28 53.95s.87-.1 2.51.06c2.96.28 4.4-1.32 4.4-1.32l-.05-.53s-3.89-3.42-7.94 1.39" class="cls-1"/><circle cx="73.51" cy="52.63" r="1.34" class="cls-1"/><path d="M66.95 62.73s-1.07.93-1.9 1.27" class="cls-1"/><circle cx="74.04" cy="52.63" r=".66" class="cls-3"/><path d="M92.84 48.02c3.25 3.25 3.25 8.58 0 11.83" class="cls-1"/><path d="M95.59 45.14c4.84 4.84 4.84 12.75 0 17.59" class="cls-1"/><path d="M98.54 42.18c6.49 6.49 6.49 17.1 0 23.59M34.45 59.93c-3.25-3.25-3.25-8.58 0-11.83" class="cls-1"/><path d="M31.7 62.81c-4.84-4.84-4.84-12.75 0-17.59" class="cls-1"/><path d="M28.74 65.77c-6.49-6.49-6.49-17.1 0-23.59" class="cls-1"/></svg>