<svg xmlns="http://www.w3.org/2000/svg" id="Calque_1" data-name="Calque 1" viewBox="0 0 128 128"><defs><style>.cls-1{fill:#d6d6d6}.cls-1,.cls-3,.cls-5,.cls-8{stroke:#000;stroke-linecap:round;stroke-linejoin:round}.cls-3{fill:#b2f0e9}.cls-5,.cls-8{fill:#fff}.cls-8{stroke-width:2px}</style></defs><path d="m4.172 60.707 49.262-11.382 14.109 61.06-49.262 11.383z" class="cls-8"/><path d="M10.58 54.21h50.56v62.67H10.58z" class="cls-8"/><path d="M43.3 84.31c-.2.56-.53 1.06-.94 1.48h0l-6.37 6.33a.16.16 0 0 1-.11.05h-.02a.16.16 0 0 1-.11-.05l-6.14-6.1a4.158 4.158 0 0 1-1.2-1.74 3.97 3.97 0 0 1-.23-1.34c0-2.22 1.81-4.03 4.03-4.03 1.62 0 3.02.96 3.65 2.34a4.037 4.037 0 0 1 3.66-2.34c2.22 0 4.03 1.81 4.03 4.03 0 .48-.08.94-.24 1.37Z" style="stroke-width:2px;fill:#ff6d75;stroke-linecap:round;stroke-linejoin:round;stroke:#000"/><path d="M22.37 66.51c-.7.58-1.7.87-2.99.87h-2.49v4.29h-2.48V59.73h5.13c1.18 0 2.12.31 2.83.92s1.06 1.57 1.06 2.86c0 1.41-.35 2.41-1.05 2.99Zm-1.91-4.3c-.31-.27-.76-.4-1.33-.4h-2.25v3.52h2.25c.57 0 1.01-.14 1.33-.43.32-.29.47-.74.47-1.36s-.16-1.07-.47-1.33ZM27.61 59.74h2.82l4.23 11.94h-2.71l-.79-2.46h-4.4l-.81 2.46h-2.61l4.26-11.94Zm-.17 7.43h3.06l-1.51-4.7-1.55 4.7ZM37.32 60.98c.96-.98 2.18-1.47 3.67-1.47 1.99 0 3.44.66 4.36 1.98.51.74.78 1.48.82 2.23h-2.49c-.16-.57-.36-1-.61-1.3-.44-.52-1.1-.78-1.98-.78s-1.59.37-2.1 1.1-.77 1.77-.77 3.11.27 2.34.81 3.01 1.23 1 2.06 1 1.51-.29 1.96-.86c.25-.3.45-.77.62-1.38h2.48c-.21 1.3-.76 2.36-1.64 3.18s-2 1.22-3.38 1.22c-1.7 0-3.04-.55-4.01-1.65-.97-1.1-1.46-2.62-1.46-4.55 0-2.09.55-3.69 1.66-4.82ZM49.96 67.99c.08.55.23.96.45 1.22.41.49 1.12.74 2.13.74.6 0 1.09-.06 1.46-.19.71-.25 1.07-.71 1.07-1.39 0-.4-.17-.7-.52-.91-.35-.21-.9-.4-1.66-.56l-1.29-.28c-1.27-.28-2.14-.59-2.62-.92-.8-.55-1.21-1.41-1.21-2.58 0-1.07.39-1.96 1.18-2.67s1.94-1.06 3.47-1.06c1.27 0 2.36.33 3.26 1 .9.67 1.37 1.64 1.42 2.9h-2.4c-.05-.72-.37-1.23-.97-1.53-.4-.2-.89-.3-1.49-.3-.66 0-1.18.13-1.58.39-.39.26-.59.62-.59 1.08 0 .43.19.75.58.96.25.14.78.3 1.58.49l2.1.49c.92.22 1.61.51 2.07.87.71.56 1.07 1.37 1.07 2.44s-.42 2-1.26 2.72c-.85.72-2.03 1.08-3.57 1.08s-2.81-.36-3.71-1.07-1.35-1.68-1.35-2.93h2.38ZM16.63 99.73h38.44v1.83H16.63zM16.63 103.95h38.44v1.83H16.63zM16.63 108.17h38.44V110H16.63z"/><circle cx="93.25" cy="35.59" r="31.58" class="cls-8"/><path d="M108.32 30.49v5.1H97.75l.06-.07 3.23-4.28.57-.75h6.71zM87.36 35.59H76.74v-5.1h6.76l.59.78 3.23 4.26.04.06z" class="cls-1"/><path d="M108.32 35.61v22.33H76.74V35.61h5.62v-6.86h20.4v6.86h5.56z" class="cls-5"/><path d="M104.21 28.7H80.92l3.78-7.79h15.72l3.79 7.79z" class="cls-1"/><path d="M84.08 31.18h3.23v5.04h-3.23zM90.95 31.18h3.23v5.04h-3.23zM97.81 31.18h3.23v5.04h-3.23z" class="cls-3"/><path d="M84.39 43.34h1.42v10.93h-1.42zM99.42 43.34h1.26v10.93h-1.26zM76.74 55.48h5.66v2.45h-5.66zM102.69 55.48h5.63v2.45h-5.63zM76.74 56.53v-1.05M82.4 55.48v1.05" class="cls-5"/><rect width="18.65" height="3.8" x="83.25" y="39.77" class="cls-1" rx="1.84" ry="1.84"/><path d="M83.01 54.27h19.11v1.21H83.01z" class="cls-1"/><path d="M82.4 55.48h20.32v1.21H82.4zM81.66 56.69h21.8v1.24h-21.8z" class="cls-1"/><path d="M95.37 12.46h3.43v5.24h-3.43z" style="fill:#87ccf3;stroke-linecap:round;stroke-linejoin:round;stroke:#000"/><path d="M102.22 12.46h3.43v5.24h-3.43z" style="fill:#ff6d75;stroke-linecap:round;stroke-linejoin:round;stroke:#000"/><path d="M98.79 12.46h3.43v5.24h-3.43z" class="cls-5"/><path d="M95.37 17.7v5.57" style="fill:none;stroke-linecap:round;stroke-linejoin:round;stroke:#000"/><path d="M98.79 12.46h3.43v5.24h-3.43z" class="cls-5"/><path d="M88.39 40.59h.63v2.11h-.41V40.93l-.4 1.77h-.43l-.4-1.77v1.77h-.41v-2.11h.64l.38 1.66.38-1.66ZM90.33 40.59h.5l.75 2.11h-.48l-.14-.43h-.78l-.14.43h-.46l.75-2.11Zm-.03 1.31h.54l-.27-.83-.27.83ZM92.54 42.7h-.44v-2.11h.44v2.11ZM94.6 40.64c.08.03.14.08.2.15.04.05.08.11.11.18s.04.14.04.22c0 .1-.03.2-.08.3s-.13.17-.25.21c.1.04.17.09.21.17s.06.18.06.33v.14c0 .1 0 .16.01.2a.2.2 0 0 0 .08.12v.05h-.49c-.01-.05-.02-.08-.03-.11-.01-.06-.02-.12-.02-.18v-.2c0-.13-.03-.22-.07-.27-.04-.04-.13-.07-.25-.07h-.43v.83h-.43V40.6h1.01c.14 0 .26.02.33.05Zm-.91.31v.57h.47c.09 0 .16-.01.21-.03.08-.04.13-.12.13-.24 0-.13-.04-.21-.12-.26a.502.502 0 0 0-.2-.04h-.49ZM96.06 42.7h-.44v-2.11h.44v2.11ZM98.33 40.96h-1.12v.45h1.03v.37h-1.03v.54h1.17v.38h-1.6v-2.11h1.55v.37Z"/><path d="M-958.15-80.55H508.29V918.5H-958.15z" style="stroke:#fff;stroke-width:8px;fill:none;stroke-linecap:round;stroke-linejoin:round"/></svg>