<svg xmlns="http://www.w3.org/2000/svg" id="Calque_1" data-name="Calque 1" viewBox="0 0 128 128.13"><defs><style>.cls-1{stroke:#000;stroke-linecap:round;stroke-linejoin:round;fill:none}</style></defs><path d="M92.51 97.3 17.33 52.12a4.429 4.429 0 0 1-1.86-5.37l1.38-3.6a53.759 53.759 0 0 1 9.7-16.14l2.53-2.91a4.421 4.421 0 0 1 5.62-.88l75.18 45.17a4.429 4.429 0 0 1 1.86 5.37h0A53.681 53.681 0 0 1 98.13 96.4h0a4.421 4.421 0 0 1-5.62.88Z" style="fill:#fab0b4;stroke-width:2px;stroke-linecap:round;stroke-linejoin:round;stroke:#000"/><rect width="43.83" height="20.55" x="41.74" y="50.02" rx="3.29" ry="3.29" style="stroke-width:2px;fill:#fff;stroke-linecap:round;stroke-linejoin:round;stroke:#000" transform="rotate(31 63.652 60.303)"/><circle cx="33.85" cy="31.38" r=".42" class="cls-1"/><circle cx="38.83" cy="34.37" r=".42" class="cls-1"/><circle cx="30.72" cy="36.59" r=".42" class="cls-1"/><circle cx="35.7" cy="39.59" r=".42" class="cls-1"/><circle cx="27.58" cy="41.81" r=".42" class="cls-1"/><circle cx="32.57" cy="44.8" r=".42" class="cls-1"/><circle cx="24.45" cy="47.02" r=".42" class="cls-1"/><circle cx="29.43" cy="50.02" r=".42" class="cls-1"/><circle cx="43.78" cy="37.34" r=".42" class="cls-1"/><circle cx="40.64" cy="42.56" r=".42" class="cls-1"/><circle cx="37.51" cy="47.77" r=".42" class="cls-1"/><circle cx="34.38" cy="52.99" r=".42" class="cls-1"/><circle cx="93.04" cy="66.94" r=".42" class="cls-1"/><circle cx="98.03" cy="69.94" r=".42" class="cls-1"/><circle cx="89.91" cy="72.16" r=".42" class="cls-1"/><circle cx="94.89" cy="75.15" r=".42" class="cls-1"/><circle cx="86.78" cy="77.37" r=".42" class="cls-1"/><circle cx="91.76" cy="80.37" r=".42" class="cls-1"/><circle cx="83.64" cy="82.59" r=".42" class="cls-1"/><circle cx="88.63" cy="85.58" r=".42" class="cls-1"/><circle cx="102.97" cy="72.91" r=".42" class="cls-1"/><circle cx="99.84" cy="78.12" r=".42" class="cls-1"/><circle cx="96.7" cy="83.34" r=".42" class="cls-1"/><circle cx="93.57" cy="88.55" r=".42" class="cls-1"/><path d="M-3453.91-2339.62h6467.34v6437.3h-6467.34z" style="stroke:#fff;stroke-width:8px;fill:none;stroke-linecap:round;stroke-linejoin:round"/></svg>