<svg xmlns="http://www.w3.org/2000/svg" id="Calque_1" data-name="Calque 1" viewBox="0 0 128 128.13"><defs><style>.cls-1{fill:none;stroke:#000;stroke-linecap:round;stroke-linejoin:round}</style></defs><path d="M92.91 97.3 17.73 52.12a4.429 4.429 0 0 1-1.86-5.37l1.38-3.6a53.759 53.759 0 0 1 9.7-16.14l2.53-2.91a4.421 4.421 0 0 1 5.62-.88l75.18 45.17a4.429 4.429 0 0 1 1.86 5.37h0A53.681 53.681 0 0 1 98.53 96.4h0a4.421 4.421 0 0 1-5.62.88Z" style="fill:#fab0b4;stroke-width:2px;stroke:#000;stroke-linecap:round;stroke-linejoin:round"/><rect width="43.83" height="20.55" x="42.14" y="50.02" rx="3.29" ry="3.29" style="stroke-width:2px;fill:#fff;stroke:#000;stroke-linecap:round;stroke-linejoin:round" transform="rotate(31 64.056 60.288)"/><circle cx="34.25" cy="31.38" r=".42" class="cls-1"/><circle cx="39.24" cy="34.37" r=".42" class="cls-1"/><circle cx="31.12" cy="36.59" r=".42" class="cls-1"/><circle cx="36.1" cy="39.59" r=".42" class="cls-1"/><circle cx="27.98" cy="41.81" r=".42" class="cls-1"/><circle cx="32.97" cy="44.8" r=".42" class="cls-1"/><circle cx="24.85" cy="47.02" r=".42" class="cls-1"/><circle cx="29.84" cy="50.02" r=".42" class="cls-1"/><circle cx="44.18" cy="37.34" r=".42" class="cls-1"/><circle cx="41.04" cy="42.56" r=".42" class="cls-1"/><circle cx="37.91" cy="47.77" r=".42" class="cls-1"/><circle cx="34.78" cy="52.99" r=".42" class="cls-1"/><circle cx="93.44" cy="66.94" r=".42" class="cls-1"/><circle cx="98.43" cy="69.94" r=".42" class="cls-1"/><circle cx="90.31" cy="72.16" r=".42" class="cls-1"/><circle cx="95.3" cy="75.15" r=".42" class="cls-1"/><circle cx="87.18" cy="77.37" r=".42" class="cls-1"/><circle cx="92.16" cy="80.37" r=".42" class="cls-1"/><circle cx="84.04" cy="82.59" r=".42" class="cls-1"/><circle cx="89.03" cy="85.58" r=".42" class="cls-1"/><circle cx="103.37" cy="72.91" r=".42" class="cls-1"/><circle cx="100.24" cy="78.12" r=".42" class="cls-1"/><circle cx="97.1" cy="83.34" r=".42" class="cls-1"/><circle cx="93.97" cy="88.55" r=".42" class="cls-1"/></svg>