<svg xmlns="http://www.w3.org/2000/svg" id="Calque_1" data-name="Calque 1" viewBox="0 0 200.13 128"><defs><style>.cls-2{fill:none}.cls-2,.cls-4,.cls-5,.cls-6,.cls-7{stroke:#000;stroke-linecap:round;stroke-linejoin:round}.cls-4{fill:#d6d6d6}.cls-5{fill:#baa584}.cls-6{fill:#ff6d75}.cls-7{fill:#fab0b4}</style></defs><ellipse cx="106.32" cy="105.57" rx="88.71" ry="12.87" style="fill:#76ac75"/><path d="M60.4 43.7h53.97v3.05H60.4z" class="cls-5"/><path d="m65.5 45.56-3.3 13.87-9.75 40.86H49.3l13.23-55.44.34.08 2.63.63zM125.37 100.29h-3.13l-9.64-40.37-3.42-14.36 2.72-.65.25-.06 13.22 55.44z" class="cls-5"/><path d="M66.04 42.39 63.5 96.58h-3.05l1.73-37.11.02-.04.67-14.5.12-2.68 3.05.14zM114.32 96.58h-3.05l-2.55-54.19 3.06-.14.12 2.66.7 15.01v.02l1.72 36.64z" class="cls-5"/><path d="M62.47 43.7h3.57v3.05h-3.57zM108.72 43.7h3.57v3.05h-3.57z" class="cls-4"/><path d="M71.76 43.7v38.72M81.24 82.42V43.7M93.87 43.7v38.72M103.34 43.7v38.72" class="cls-2"/><path d="M71.17 82.42h10.67v2.2H71.17z" class="cls-7"/><path d="M71.17 84.62h10.67v1.83H71.17z" class="cls-6"/><path d="M93.34 82.42h10.67v2.2H93.34z" class="cls-7"/><path d="M93.34 84.62h10.67v1.83H93.34z" class="cls-6"/><path d="M154.77 73.98v.63c-.48.79-1.03 1.64-1.65 2.56-2.18 3.21-5.27 7.15-9.5 11.45-6.4 6.5-14.11 9.91-18.47 11.45 2.05-.95 4.4-2.26 7-4.05 5.72-3.94 20.39-22.6 20.39-22.6l1.69.43.55.13Z" style="fill:#ff6d75"/><path d="M154.77 73.85h4.48v22.26h-4.48zM154.77 73.85v.13l-.54-.13h.54zM153.12 77.17c.62-.92 1.17-1.77 1.65-2.56v21.5l-1.65-1.58V77.18Z" class="cls-5"/><path d="m168.52 83.7-10.69-2.33v-2.46l10.69 2.33v2.46zM168.52 89.15l-10.69-2.33v-2.46l10.69 2.33v2.46zM168.52 94.71l-10.69-2.33v-2.45l10.69 2.33v2.45z" class="cls-5"/><path d="M166.29 76.3h4.48v25.43h-4.48zM164.64 76.3h1.65v25.43l-1.65-1.59V76.3z" class="cls-5"/><path d="M161.53 73.96h-6.13l-.22-.04-.4-.08h0l-2.24-.43s-14.67 18.67-20.39 22.6c-2.59 1.79-4.95 3.1-7 4.05-1.21.57-2.31 1.01-3.29 1.35-1 .36-1.88.6-2.61.77-2.63.62-10.34 1.7-10.34 1.7l2.45-3.52c.68-.97 1.66-1.7 2.8-2.05 3.72-1.15 12.86-4.55 20.23-12.04 9.5-9.65 13.2-17.45 13.9-19.3.43-1.17 1-3.92 1.37-5.81a3.062 3.062 0 0 1 2.3-2.39c2.21-.52 4.02 1.7 5.1 3.25.61.89 1.13 1.81 1.57 2.76 1.37 2.89 2.09 6.02 2.9 9.16Z" class="cls-6"/><path d="M170.77 76.3h-6.13l-2.88-.55s-.97 1.24-2.51 3.15c-.08.09-.15.18-.23.28-.37.45-.77.94-1.19 1.45-.92 1.12-1.96 2.38-3.06 3.69-.54.64-1.09 1.29-1.65 1.94-4.24 4.97-9.01 10.21-11.74 12.09-5.72 3.94-10.27 5.56-12.9 6.17-2.62.62-10.35 1.7-10.35 1.7l2.45-3.52c.35-.51.78-.94 1.27-1.29.46-.33.97-.59 1.53-.77.5-.15 1.09-.35 1.76-.59 4.36-1.54 12.07-4.95 18.47-11.45 4.24-4.3 7.32-8.24 9.5-11.45.62-.92 1.17-1.77 1.65-2.56.11-.19.22-.37.33-.55.02-.05.06-.09.08-.14.02-.02.03-.06.05-.08 1.31-2.23 2.02-3.81 2.29-4.53.34-.92.77-2.83 1.11-4.51l.26-1.29a3.023 3.023 0 0 1 2.29-2.39c2.21-.53 4.03 1.7 5.1 3.25 2.48 3.59 3.4 7.74 4.48 11.92Z" class="cls-6"/><path d="M121.86 101.42c-.49.35-.92.78-1.27 1.29l-2.45 3.52-9.23-2.33s7.72-1.08 10.34-1.7c.73-.17 1.6-.42 2.61-.77Z" class="cls-6"/><path d="m161.76 75.74-2.51-.63-4.15-1.04-.33-.09" style="fill:none"/><path d="M35.05 46.21H26.2l.16 43.7c-.1 5.41-1.17 8.76-3.16 13.79h14.86c-1.99-5.03-3.06-8.38-3.16-13.79l.16-43.7Z" class="cls-5"/><path d="M47.75 49.2c.06.46.09.93.09 1.41 0 6.4-5.19 11.58-11.58 11.58-5.33 0-9.82-3.59-11.17-8.48-1.9 1.38-4.24 2.19-6.77 2.19-6.39 0-11.58-5.19-11.58-11.59 0-5.03 3.21-9.31 7.69-10.91-.86-1.62-1.34-3.45-1.34-5.4 0-6.4 5.18-11.59 11.58-11.59 2.56 0 4.93.83 6.85 2.25.78-.17 1.59-.26 2.41-.26 5.1 0 9.42 3.29 10.97 7.86.25-.02.49-.03.74-.03 6.39 0 11.58 5.19 11.58 11.59 0 5.67-4.08 10.39-9.47 11.38Z" style="fill:#76ac75;stroke:#000;stroke-linecap:round;stroke-linejoin:round"/></svg>