<svg xmlns="http://www.w3.org/2000/svg" id="Calque_1" data-name="Calque 1" viewBox="0 0 128 128"><defs><style>.cls-1,.cls-3{fill:#f3d587;stroke:#000;stroke-linecap:round;stroke-linejoin:round}.cls-3{fill:none}.cls-5{fill:#fab0b4}</style></defs><path d="M71.8 94.42c2.61-.27.74-3.11-3.19-5.58s-4.92-5.92-7.93-15.14c-3-9.22-5.5-10.5-5.5-10.5-5.05-3.23-9.75-5.97-2.88-7.88 6.87-1.91 2.88-10.51 2.88-10.51s1.31-2.59-.33-2.7c-1.65-.11-2.01-1.85-2.01-1.85s3.9-10.97-9.33-14.2C30.29 22.83 24 33.57 23.03 40.42c-.97 6.85 2.66 13.75 13.6 15.92 0 0 1.42.57.48 3.04s-7.43 1.45-10.91 9.74c0 0-6.13 18.07 2.36 24.91 0 0 6.62 2.99 9.27 5.67 2.65 2.68 6.75 5.92 5.99 3.81-.76-2.11-1.86-2.77-1.86-2.77" class="cls-3"/><path d="M49.05 102.25c-.79-.59-1.55-2.24-3.61-3.19M48.51 99.04s-.02-.02-.03-.02M34.43 70.26s.64 11.99.05 17.14c0 0 .92-.24 4.52 3.12.11.1.22.21.33.32M44.31 100.74s1.92 1.27 2.53 2.28h0M47.03 103.65c-.17.97-3.89-1.76-4.11-1.91h0M46.85 103.03h0" class="cls-3"/><path d="M59.82 108.8c.35.19.74.45 1.16.75.27.18.54.39.85.62 5.46 4.15 3.19 10.2-2.8 6.15-5.98-4.06-30.05-.41-34.09-9.59-4.04-9.18 3.62-12.7 3.62-12.7M41.6 93.35h-.01" class="cls-3"/><path d="M58.41 91.56s-4.25 3.83-16.81 1.79c-.68-.82-1.43-1.68-2.27-2.5.72.04 15.3.7 18.15-1.81l.7 1.91.23.62Z" class="cls-1"/><path d="M39.33 90.84h-.03" class="cls-3"/><path d="M59.82 108.8c-3.4-2.01-3.57-.07-7.82-2.42l-4.97-2.73c.04-.18-.04-.4-.18-.62.18.13 2.6 1.8 2.2-.78.36.27.72.31 1.22 0 1.5-.98-1.45-3.01-1.76-3.21 1.93.93 3.57-1.45-.83-1.19-2.43.15-4.01-2.02-6.08-4.5 12.56 2.04 16.81-1.79 16.81-1.79s5.38 11.12 1.41 17.24Z" class="cls-1"/><path d="M53.19 66.16s5.11 14.66 4.29 22.87" class="cls-3"/><path d="m57.39 82.65 4.16 6.28s-.76 7.88.91 5.83 1.04-5.07 3.28-2.56c2.24 2.51 1.83 4.17 2.7 2.53.88-1.64-.83-3.73-.83-3.73" class="cls-3"/><path d="M68.59 92.87s4.16 4.57 2.31.38L69.44 91M58.18 90.94l3.18-1.03M60.98 109.56s1.79-1.5 3.32-3.71M63.18 110.9s-.69-.96 2.42-1.38" class="cls-3"/><path d="M67.87 88.3s11-2.79 9.95 5.09c-1.05 7.88-4.94 14.87-4.94 14.87M69.43 108.81s8.18-1.11 9.65-.15c1.05.69 3.02 8.99-14.04 6.67M64.03 109.76s.11-2.01.54-7.42c.43-5.41.63-5.61.63-5.61" class="cls-3"/><path d="M68.06 96.96s-1.94-.55-3.44 6M37.12 46.98s-3.7 1.24-1.57 4.28 4.01.36 4.01.36" class="cls-3"/><circle cx="50.13" cy="42.14" r=".86"/><path d="M47.58 40.23s.24-2.22 2.55-2.08M39.56 72.08h1.12M50.14 71.15l1.1-.26M37.22 49.84l.74-.34" class="cls-3"/><path d="M52.94 48.63zM53.87 49.84h-.03.03Z" class="cls-5"/><path d="M50.99 30.12s-3.27 7.47-10.31 8.03c0 0 1.43 4.32-3.8 5.73" class="cls-3"/><path d="M101.9 18.47v12.56c0 4.28-3.19 7.78-7.08 7.78H80.67l-10.5 8.28v-8.28h-1.83c-3.9 0-7.08-3.5-7.08-7.78V18.47c0-4.27 3.19-7.78 7.08-7.78h26.48c3.9 0 7.08 3.5 7.08 7.78Z" style="fill:#fff;stroke-linecap:round;stroke-linejoin:round;stroke:#000"/><path d="m52.94 49.85 3.4-.18M71.37 19.05h20.39M71.37 25.47h20.39M71.38 31.65h20.39" class="cls-3"/><path d="M-5291.16-3043.9h6467.34v6437.3h-6467.34z" style="stroke:#fff;stroke-width:8px;fill:none;stroke-linecap:round;stroke-linejoin:round"/></svg>