<svg xmlns="http://www.w3.org/2000/svg" id="Calque_1" data-name="Calque 1" viewBox="0 0 128 128"><defs><style>.cls-1,.cls-2{stroke:#000}.cls-1,.cls-2,.cls-4{fill:none;stroke-linecap:round;stroke-linejoin:round}.cls-2{stroke-width:2px}.cls-4{stroke:#ff6d75;stroke-width:3px}</style></defs><path d="M41.41 65.83S8.07 53.21 14.64 38.97c7.98-17.3 44.5 1.16 44.5 1.16l-2.55 2.84-2.65 2.95S29.8 34.47 25.52 41.68c-3.65 6.13 19.98 16.6 19.98 16.6l-4.09 7.55Z" class="cls-2"/><path d="M84.29 59.64c6.46-13.74 7.29-26.13 1.19-30.28-7.8-5.31-23.97 4.86-36.12 22.71C37.21 69.92 33.69 88.69 41.49 94c6.6 4.49 19.21-2.11 30.3-15.08" class="cls-2"/><path d="M84.33 59.65c6.06-12.68 7.18-23.83 2.02-27.35-6.71-4.57-21.51 5.48-33.05 22.43-11.54 16.96-15.45 34.41-8.74 38.98 5.63 3.83 16.94-2.61 27.25-14.78" class="cls-1"/><path d="M72.53 54.3c-.99-.99-5.97 3.87-6.59 4.61-2.89 3.45-4.14 7.79-3.72 12.25 0-.1 3.35.78 4.91 1.55 5.14 2.53 4.75 9.18 7.05 13.78 2.62 5.24 5.81 8.24 10.21 10.51 7.55 3.9 17.38 2 23.66-3.72 3.35-3.05 5.81-7.11 6.73-11.55 1.27-6.05-.47-12.66-4.54-17.31-4.08-4.65-10.4-7.23-16.57-6.76-4.11.31-8.32 2.43-12.45 2.2-3.57-.2-6.31-3.16-8.69-5.56Z" class="cls-2"/><path d="M90.55 64.94s4.76-.77 8.75 1.21 7.05 4.76 7.74 6.29M76.39 47.39c-1.02-.54-.94-2.69.17-4.82 1.12-2.12 2.85-3.41 3.87-2.87.51.27.75.94.71 1.81M50.45 84.73c-1.02-.54-.94-2.69.17-4.82 1.12-2.12 2.85-3.41 3.87-2.87.51.27.75.94.71 1.81" class="cls-1"/><path d="m17.37 14.27 94.22 98.46M111.59 14.27l-94.22 98.46" class="cls-4"/><path d="M-2073.53-1884.35h6467.34v6437.3h-6467.34z" style="stroke:#fff;stroke-width:8px;fill:none;stroke-linecap:round;stroke-linejoin:round"/></svg>