<svg xmlns="http://www.w3.org/2000/svg" id="Calque_1" data-name="Calque 1" viewBox="0 0 128 128"><defs><style>.cls-2{stroke-width:2px;fill:none}.cls-2,.cls-4{stroke-linecap:round;stroke-linejoin:round;stroke:#000}</style></defs><path d="M114.02 38.77v30.41c0 10.36-7.72 18.83-17.15 18.83H62.63l-25.42 20.05V88.01h-4.43c-9.43 0-17.15-8.46-17.15-18.83V38.77c0-10.35 7.72-18.83 17.15-18.83h64.09c9.43 0 17.15 8.48 17.15 18.83Z" class="cls-2"/><circle cx="64.83" cy="54.42" r="20.82" style="fill:#ff6d75"/><path d="M85.64 54.42c0 11.5-9.32 20.82-20.82 20.82S44 65.92 44 54.42 53.32 33.6 64.82 33.6c3.57 0 6.93.9 9.87 2.48" class="cls-2"/><path d="M56.24 65.03c2.12-2.33 5.18-3.78 8.58-3.78s6.46 1.46 8.58 3.79" class="cls-2"/><circle cx="56.68" cy="50.39" r="2.6" class="cls-4"/><circle cx="72.97" cy="50.39" r="2.6" class="cls-4"/><path d="M-340.55-403.85h1496.63v629.76H-340.55z" style="stroke:#fff;stroke-width:8px;stroke-linecap:round;stroke-linejoin:round;fill:none"/></svg>