<svg xmlns="http://www.w3.org/2000/svg" id="Calque_1" data-name="Calque 1" viewBox="0 0 200 128"><defs><style>.cls-2,.cls-5,.cls-9{stroke-linecap:round}.cls-2,.cls-5{stroke:#000}.cls-2,.cls-5,.cls-9{stroke-linejoin:round}.cls-2{fill:#bfe6fc;stroke-width:.57px}.cls-5,.cls-9{stroke-width:2px;fill:none}.cls-9{stroke:#ff6d75;stroke-width:3px}</style></defs><path d="M7.23 10.13h99.13v55.86H7.23z" style="stroke-width:2px;fill:#bfe6fc;stroke-linejoin:round;stroke:#000;stroke-linecap:round"/><circle cx="56.79" cy="66.05" r=".48" style="fill:#fff"/><path d="M54.27 66.65h5.06v2.8h-5.06z"/><path d="m42.18 69.45-.61 1.97h30.45l-.66-1.97H42.18z" style="stroke-width:.55px;stroke-linejoin:round;stroke:#000;stroke-linecap:round"/><path d="M41.57 71.69h30.45" style="stroke-width:.55px;fill:none;stroke-linejoin:round;stroke:#000;stroke-linecap:round"/><path d="M179.37 46.37h-61.08c-.85 0-1.54.69-1.54 1.54v40.71h64.16V47.91c0-.85-.69-1.54-1.54-1.54Z" class="cls-5"/><path d="M121.3 49.8h55.06v35.38H121.3z" style="stroke-width:.75px;fill:#bfe6fc;stroke-linejoin:round;stroke:#000;stroke-linecap:round"/><path d="M149.11 48.47c0 .15-.12.27-.27.27s-.27-.12-.27-.27.12-.27.27-.27.27.12.27.27ZM143 102.26h11.82v2.29H143z"/><path d="M154.82 103.1v.72c0 .5-.3.9-.66.9h-10.69c-.36 0-.66-.41-.66-.9v-.72H104.9l1.13 4.78h85.71l1.04-4.78h-37.95Z" class="cls-5"/><path d="M104.89 103.24h87.88l-11.86-14.62h-64.16l-11.86 14.62z" class="cls-5"/><path d="m146.92 92.24 3.69-.01 1.17 2.9h-5.9l1.04-2.89zM140.04 96.66l17.72-.02 1.17 2.9h-19.92l1.03-2.88zM144.98 92.24h-.02l-1.04 2.88h-3.67l1.03-2.88 3.69-.01.01.01zM139.31 92.24h-.02l-1.04 2.88h-3.67l1.02-2.88 3.7-.01.01.01zM133.64 92.24h-.02l-1.04 2.88h-3.68l1.03-2.88 3.7-.01.01.01zM127.97 92.24h-.02l-1.04 2.88h-3.68l1.03-2.88 3.7-.01.01.01zM122.32 92.24h-.02l-1.03 2.88-4.93.01 2.28-2.89 3.7-.01v.01zM152.67 92.24h.02l1.04 2.88h3.67l-1.03-2.88-3.69-.01-.01.01zM158.34 92.24h.02l1.04 2.88h3.67l-1.02-2.88-3.7-.01-.01.01zM164.01 92.24h.02l1.04 2.88h3.68l-1.03-2.88-3.7-.01-.01.01zM169.68 92.24h.03l1.03 2.88h3.68l-1.03-2.88-3.7-.01-.01.01zM175.33 92.24h.02l1.03 2.88 4.94.01-2.29-2.89-3.7-.01v.01zM159.82 96.65h.02l1.03 2.88h3.68l-1.03-2.88-3.69-.01-.01.01zM165.49 96.65h.02l1.04 2.88h3.67l-1.03-2.88-3.69-.01-.01.01zM171.16 96.65h.02l1.04 2.88h3.67l-1.02-2.88-3.7-.01-.01.01zM176.8 96.65h.02l1.04 2.88 7 .01-2.28-2.89-5.77-.01-.01.01z" class="cls-2"/><path d="m177.86 99.53 7 .01-2.28-2.89-5.77-.01M119.93 99.53l-7.01.01 2.29-2.89 5.77-.01M137.96 96.65h-.02l-1.04 2.88h-3.67l1.03-2.88 3.69-.01.01.01zM132.29 96.65h-.02l-1.04 2.88h-3.67l1.02-2.88 3.7-.01.01.01zM126.62 96.65h-.02l-1.04 2.88h-3.68l1.03-2.88 3.7-.01.01.01z" class="cls-2"/><path d="M75.45 76.43h13.56a3.07 3.07 0 0 1 3.07 3.07v35.31a3.07 3.07 0 0 1-3.07 3.07H75.45a3.07 3.07 0 0 1-3.07-3.07V79.5a3.07 3.07 0 0 1 3.07-3.07Z" style="stroke-miterlimit:10;fill:none;stroke:#000"/><path d="M74.11 82.09h16.25v30.3H74.11z" style="fill:#bfe6fc;stroke-linejoin:round;stroke:#000;stroke-linecap:round"/><path d="M83.61 114.83c0 .76-.62 1.38-1.38 1.38s-1.38-.62-1.38-1.38.62-1.38 1.38-1.38 1.38.62 1.38 1.38Z"/><path d="M81.1 80.07h2.26" style="stroke-miterlimit:10;fill:none;stroke:#000;stroke-linecap:round"/><path d="m21.92 14.77 156.16 98.46M178.08 14.77 21.92 113.23" class="cls-9"/><path d="M-894.71-443.29h2244.45v5948.74H-894.71z" style="stroke:#fff;stroke-width:8px;fill:none;stroke-linejoin:round;stroke-linecap:round"/></svg>