<svg xmlns="http://www.w3.org/2000/svg" id="Calque_1" data-name="Calque 1" viewBox="0 0 260 128"><defs><style>.cls-1,.cls-2{stroke:#1a2e35}.cls-1,.cls-2,.cls-3{stroke-linecap:round;stroke-linejoin:round}.cls-1,.cls-4{fill:#fff}.cls-2,.cls-3,.cls-5{fill:none}.cls-3{stroke:#ff6d75;stroke-width:2px}.cls-4,.cls-5{stroke:#000;stroke-miterlimit:10}</style></defs><path d="m80.59 39.9-.15.65-6.22 2.37.01-.03-22.59 8.61.02.02-.87.33-10.13-9.69.14-.64-.65-.46.18-.78-.65-.46.18-.77-.65-.47.18-.77-.65-.46.17-.78-.65-.46.18-.78-.65-.46.18-.78-.65-.46.18-.77-.65-.47.18-.77-.65-.46.17-.78-.65-.46.18-.78-.65-.46.18-.78-.65-.46.18-.77-.65-.46.18-.78-.65-.46.18-.78-.65-.46.17-.77-.64-.47.17-.77-.65-.46.18-.78-.65-.46.15-.64 6.22-2.37-.01.02 22.59-8.61-.02-.01 6.19-2.36.59.42-.17.78.65.46-.18.78.65.46-.18.78.65.46-.18.77.65.47-.17.77.65.47-.18.77.65.47-.18.77.65.46-.18.78.65.46-.17.78.65.46-.18.78.65.46-.18.78.65.46-.18.78.65.46-.18.77.65.47-.17.77.65.46-.18.78.65.46-.18.78.65.46-.18.78.65.46-.18.77.65.47-.17.77.65.46-.18.78.65.46-.18.78.65.46-.18.77.65.47-.18.77.65.46-.18.78.65.46-.17.78.65.46-.18.77.65.46-.18.78.65.46z" class="cls-2"/><path d="m64.752 11.382 10.242 26.864-27.312 10.413L37.44 21.795z" class="cls-2"/><path d="M55.28 19.87c1.28-.12 2.54.01 3.74.36M46.19 31.88c-.54-2.91.22-5.86 1.97-8.12M56.37 40.21c-3.01.05-5.91-1.25-7.88-3.53M64.44 24.01c.52.72.96 1.51 1.29 2.38 2 5.26-.63 11.15-5.89 13.15-1.14.43-2.31.65-3.47.67M65.7 13.89s-.98 1.25-1.81 2.15M65.24 17.28s-1.17 1.91-1.54 2.48M48.82 43.55l-1.98 3.23M48.49 38.85s-.83.9-1.76 2.28M38.2 23.35s2.11.95 3.3 1.37M73.74 35.36s-2.88-.66-4.19-1.03M71.54 33.42s-2.53-.5-3.44-.59" class="cls-2"/><path d="M93.66 93.67v.23s0 .04-.01.05v.15s0 .09-.01.13v.02c-.01.05-.01.1-.02.15v.02l-.03.13v.05s-.01.07-.02.11v.06l-.03.11c0 .02 0 .03-.01.06s-.02.07-.02.1c-.01.02-.02.04-.02.07-.01.03-.02.07-.03.11 0 .01-.01.04-.01.05-.02.04-.02.08-.04.12 0 .02-.01.04-.02.06 0 .04-.02.08-.03.13 0 .01-.01.03-.02.05-.02.04-.03.09-.04.14-.01.01-.02.02-.02.03-.04.12-.08.25-.13.37-.01.01-.01.03-.02.04l-.06.15c-.01.02-.02.04-.02.06-.02.04-.04.09-.06.13 0 .02-.02.04-.02.07l-.06.12c-.01.02-.03.05-.03.07-.02.05-.04.09-.06.13-.01.02-.02.05-.03.07-.02.04-.04.09-.07.13l-.03.07s-.04.09-.07.13c0 .03-.02.05-.03.07-.02.05-.05.1-.08.15 0 .02-.01.04-.02.05-.03.06-.07.13-.1.2h-.01c-.03.07-.08.14-.11.21-.04.08-.07.15-.11.21l-.03.06-.09.15c-.01.03-.03.05-.05.07-.02.05-.05.1-.08.14-.01.03-.03.05-.04.08-.03.04-.06.09-.09.13-.02.03-.03.06-.05.09-.03.04-.05.09-.08.13-.02.03-.04.05-.05.08-.03.05-.07.09-.1.14-.01.03-.03.05-.05.08-.03.04-.06.1-.09.15-.02.02-.03.04-.05.06-.04.06-.07.12-.11.17-.01.02-.03.04-.04.05-.1.16-.2.3-.31.45a.21.21 0 0 1-.04.06c-.03.04-.08.1-.12.16-.02.02-.04.05-.06.07-.03.05-.06.1-.1.15l-.06.09-.11.14c-.02.02-.04.05-.07.09l-.1.13c-.02.03-.05.06-.07.09-.03.05-.07.09-.11.14a.55.55 0 0 1-.07.09c-.04.04-.07.09-.11.13-.02.03-.05.06-.06.09-.05.05-.09.1-.13.15-.02.03-.04.05-.06.08-.05.06-.1.12-.15.17-.01.02-.03.04-.04.05-.06.08-.12.15-.19.23-.02.02-.03.04-.05.05-.04.06-.09.12-.14.18-.03.03-.05.05-.07.08-.05.04-.09.1-.13.14-.03.03-.05.06-.08.09-.04.05-.08.09-.12.14l-.09.09c-.04.05-.08.09-.12.13-.03.04-.06.07-.09.1-.04.04-.08.09-.12.13-.03.03-.06.07-.09.1-.04.04-.08.09-.12.13-.03.03-.06.07-.09.09-.04.05-.08.1-.13.14l-.09.09s-.09.1-.15.15a.5.5 0 0 1-.07.08c-.07.07-.14.15-.22.22a33.314 33.314 0 0 1-3.77 3.27c-.39.29-.77.57-1.15.82-.15.1-.3.2-.45.29-.3.19-.59.37-.88.54-.15.08-.29.16-.43.24-.43.23-.85.43-1.25.6-.19.08-.39.16-.58.23l-.19.07c-.13.04-.25.08-.37.12-.12.03-.24.06-.35.09-.06.02-.12.03-.18.05l-.33.06c-.56.09-1.06.09-1.47-.03-.16 0-.32-.06-.45-.18-.12-.07-.23-.16-.34-.26a.634.634 0 0 1-.1-.12c-.01 0-.01-.01-.02-.02-.03-.04-.06-.09-.09-.13l-3.48-3.33L21 58.66c-4.15-3.98-5.03-10.15-2.53-15.03l-.12-.11c-.4-.39-.69-.84-.88-1.33-.48-1.27-.23-2.78.77-3.83 1.38-1.44 3.7-1.5 5.15-.11l.12.11c4.77-2.7 10.97-2.11 15.12 1.86l2.03 1.94 10.13 9.69 38.49 36.83 3.56 3.41s.03.01.05.03c.09.05.16.12.24.19.03.04.07.07.1.12l.02.02c.04.05.06.09.1.13s.05.09.07.14c.01.01.01.02.02.03l.06.15c.03.07.06.15.07.23l.02.03s.01.05.01.08c0 .02.01.03.01.05.01.02.01.05.01.07.01.02.01.04.01.05.01.03.01.05.01.08 0 .02 0 .03.01.05v.09s.01.03.01.04Z" class="cls-5"/><path d="M81.4 113.08c2.64-1.28 5.57-3.46 8.25-6.14 2.44-2.44 4.43-5.02 5.75-7.48 1.67-3.09 2.11-5.71 1.33-7.78-.26-.69-.65-1.29-1.16-1.8-.82-.82-2.3-1.74-4.71-1.5-.5.05-1.03.15-1.58.3l3.57 3.41s.03.02.05.03c.09.06.17.12.24.19s.07.08.1.12c0 0 .02.02.02.03.03.04.06.08.09.13.03.04.05.09.07.13 0 .01.01.02.02.03l.06.15c.03.07.05.15.07.22v.04c0 .03.01.05.02.08v.05c0 .02 0 .05.01.08V94.09c0 .04 0 .09-.01.13v.02c0 .05-.01.1-.02.16v.01c0 .05-.01.09-.02.14v.04c0 .04-.01.08-.02.12 0 .02 0 .04-.01.05 0 .04-.01.07-.02.11 0 .02 0 .04-.01.06 0 .04-.02.07-.03.11 0 .02 0 .04-.02.06 0 .04-.02.07-.03.11 0 .02-.01.04-.02.06l-.03.12c0 .02-.01.04-.02.06-.01.04-.03.08-.04.12 0 .02-.01.03-.02.05-.02.05-.03.1-.05.15 0 .01 0 .02-.01.03-.04.12-.09.25-.14.37 0 .01 0 .02-.01.03-.02.05-.04.1-.06.16 0 .02-.01.04-.02.06-.02.04-.04.09-.06.13 0 .02-.02.04-.03.06-.02.04-.04.09-.06.13 0 .02-.02.04-.03.07-.02.04-.04.09-.06.13-.01.02-.02.05-.03.07-.02.04-.04.09-.06.13-.01.02-.02.05-.03.07-.02.05-.05.09-.07.14l-.03.06c-.03.05-.05.1-.08.15 0 .02-.02.03-.03.05-.03.07-.07.13-.1.2l-.12.21c-.04.07-.07.13-.11.2l-.03.06-.09.15c-.01.02-.03.05-.04.07-.03.05-.06.09-.08.14-.02.03-.03.05-.05.08-.03.05-.06.09-.08.14-.02.03-.03.05-.05.08-.03.04-.06.09-.09.14-.02.03-.03.05-.05.08-.03.05-.06.09-.09.14-.02.03-.03.05-.05.08-.03.05-.06.1-.1.15-.02.02-.03.05-.05.07l-.11.17c-.01.02-.02.03-.04.05-.1.15-.2.3-.31.44-.01.02-.03.04-.04.05-.04.06-.08.11-.12.17-.02.03-.04.05-.05.08-.04.05-.07.1-.11.15-.02.03-.04.06-.06.08-.03.05-.07.09-.1.14a.55.55 0 0 1-.07.09c-.03.05-.07.09-.1.14-.02.03-.05.06-.07.09l-.11.14c-.02.03-.05.06-.07.09l-.11.14c-.02.03-.05.06-.07.09l-.12.15c-.02.03-.04.05-.06.08l-.15.18c-.01.02-.03.03-.04.05-.06.08-.13.15-.19.23-.01.02-.03.03-.04.05-.05.06-.1.12-.15.17-.02.03-.05.05-.07.08-.04.05-.09.1-.13.15-.03.03-.05.06-.08.09-.04.05-.08.09-.12.14-.03.03-.06.06-.08.09-.04.04-.08.09-.12.13-.03.03-.06.06-.09.1-.04.04-.08.09-.12.13-.03.03-.06.06-.09.1-.04.04-.08.09-.13.13l-.09.09c-.04.05-.09.09-.13.14-.03.03-.06.06-.08.09l-.15.15-.07.07-.22.22a35.449 35.449 0 0 1-3.77 3.28c-.39.29-.77.56-1.15.81-.15.1-.3.2-.45.29-.3.19-.59.37-.88.53-.15.08-.29.16-.43.24-.43.23-.84.43-1.24.6-.2.09-.39.16-.59.23-.07.02-.13.05-.2.07l-.36.12c-.12.04-.24.07-.36.1-.06.01-.12.03-.17.04-.11.03-.23.05-.34.06-.56.09-1.05.08-1.46-.03-.16 0-.33-.07-.46-.19-.12-.07-.23-.15-.33-.25-.04-.04-.07-.08-.1-.12 0 0-.02-.02-.02-.03-.03-.04-.06-.08-.09-.13l-3.48-3.33c-.4 1.6-.36 3.01.1 4.24.26.69.65 1.29 1.16 1.8.82.82 2.3 1.74 4.71 1.5 1.23-.12 2.61-.55 4.1-1.27Z" class="cls-5"/><path d="m186.76 96.013 19.248-66.772a5.335 5.335 0 0 1 6.598-3.645l23.955 6.905a5.335 5.335 0 0 1 3.645 6.598l-19.248 66.771a5.335 5.335 0 0 1-6.597 3.646l-23.955-6.905a5.335 5.335 0 0 1-3.645-6.598Z" class="cls-2"/><path d="M195.39 94.42c-1.19-.34-2.43.34-2.78 1.53s.34 2.43 1.53 2.78 2.43-.34 2.78-1.53-.34-2.43-1.53-2.78ZM204.46 97.09c-1.19-.34-2.43.34-2.78 1.53s.34 2.43 1.53 2.78 2.43-.34 2.78-1.53-.34-2.43-1.53-2.78ZM197.41 87.42a2.25 2.25 0 0 0-2.78 1.53c-.34 1.19.34 2.43 1.53 2.78s2.43-.34 2.78-1.53-.34-2.43-1.53-2.78ZM199.43 80.41c-1.19-.34-2.43.34-2.78 1.53s.34 2.43 1.53 2.78c1.19.34 2.43-.34 2.78-1.53s-.34-2.43-1.53-2.78ZM201.45 73.41a2.25 2.25 0 0 0-2.78 1.53 2.25 2.25 0 0 0 1.53 2.78c1.19.34 2.43-.34 2.78-1.53s-.34-2.43-1.53-2.78ZM203.46 66.41a2.25 2.25 0 0 0-2.78 1.53c-.34 1.19.34 2.43 1.53 2.78s2.43-.34 2.78-1.53a2.25 2.25 0 0 0-1.53-2.78ZM205.48 59.41c-1.19-.34-2.43.34-2.78 1.53s.34 2.43 1.53 2.78 2.43-.34 2.78-1.53a2.25 2.25 0 0 0-1.53-2.78ZM207.5 52.41c-1.19-.34-2.43.34-2.78 1.53s.34 2.43 1.53 2.78a2.25 2.25 0 0 0 2.78-1.53 2.25 2.25 0 0 0-1.53-2.78ZM209.52 45.4a2.25 2.25 0 0 0-2.78 1.53c-.34 1.19.34 2.43 1.53 2.78s2.43-.34 2.78-1.53-.34-2.43-1.53-2.78ZM211.54 38.4a2.25 2.25 0 0 0-2.78 1.53c-.34 1.19.34 2.43 1.53 2.78s2.43-.34 2.78-1.53-.34-2.43-1.53-2.78ZM213.56 31.4c-1.19-.34-2.43.34-2.78 1.53s.34 2.43 1.53 2.78 2.43-.34 2.78-1.53-.34-2.43-1.53-2.78ZM212.9 99.47a2.25 2.25 0 0 0-2.78 1.53c-.34 1.19.34 2.43 1.53 2.78s2.43-.34 2.78-1.53-.34-2.43-1.53-2.78ZM214.91 92.46c-1.19-.34-2.43.34-2.78 1.53s.34 2.43 1.53 2.78 2.43-.34 2.78-1.53-.34-2.43-1.53-2.78ZM216.93 85.46c-1.19-.34-2.43.34-2.78 1.53s.34 2.43 1.53 2.78 2.43-.34 2.78-1.53-.34-2.43-1.53-2.78ZM218.95 78.46a2.25 2.25 0 0 0-2.78 1.53c-.34 1.19.34 2.43 1.53 2.78s2.43-.34 2.78-1.53-.34-2.43-1.53-2.78ZM220.97 71.46c-1.19-.34-2.43.34-2.78 1.53s.34 2.43 1.53 2.78 2.43-.34 2.78-1.53-.34-2.43-1.53-2.78ZM222.99 64.45c-1.19-.34-2.43.34-2.78 1.53s.34 2.43 1.53 2.78 2.43-.34 2.78-1.53-.34-2.43-1.53-2.78ZM225.01 57.45c-1.19-.34-2.43.34-2.78 1.53s.34 2.43 1.53 2.78 2.43-.34 2.78-1.53a2.25 2.25 0 0 0-1.53-2.78ZM227.03 50.45a2.25 2.25 0 0 0-2.78 1.53 2.25 2.25 0 0 0 1.53 2.78c1.19.34 2.43-.34 2.78-1.53s-.34-2.43-1.53-2.78ZM229.04 43.45a2.25 2.25 0 0 0-2.78 1.53c-.34 1.19.34 2.43 1.53 2.78s2.43-.34 2.78-1.53-.34-2.43-1.53-2.78ZM231.06 36.44c-1.19-.34-2.43.34-2.78 1.53s.34 2.43 1.53 2.78 2.43-.34 2.78-1.53-.34-2.43-1.53-2.78Z" class="cls-2"/><rect width="61.94" height="3.64" x="183.02" y="63.74" class="cls-2" rx="1.82" ry="1.82" transform="rotate(-73.92 213.989 65.563)"/><path d="M243.2 58.41c-1.19-.34-2.43.34-2.78 1.53s.34 2.43 1.53 2.78 2.43-.34 2.78-1.53-.34-2.43-1.53-2.78ZM245.46 67.14c-1.19-.34-2.43.34-2.78 1.53s.34 2.43 1.53 2.78a2.25 2.25 0 0 0 2.78-1.53 2.25 2.25 0 0 0-1.53-2.78ZM250.12 60.86c-1.19-.34-2.43.34-2.78 1.53s.34 2.43 1.53 2.78 2.43-.34 2.78-1.53-.34-2.43-1.53-2.78Z" class="cls-2"/><path d="m32.46 39.47 55.23 57.72M87.69 39.47 32.46 97.19M184.94 39.47l55.23 57.72M240.17 39.47l-55.23 57.72" class="cls-3"/><path d="M161.35 31.96c-1.58-1.54-4.03-2.36-6.02-3.2-.13-.15-2.87-1.41-3.07-1.48-1.84-.56-16.64-4.97-20.63-4.57-4.53.43-6.95 6.57-7.05 6.83-.02.05-.03.09-.04.14h-.17s-.02-.09-.04-.14c-.1-.26-2.53-6.4-7.05-6.83-3.99-.39-18.79 4.02-20.63 4.57-.21.06-2.94 1.32-3.07 1.48-1.99.84-4.44 1.65-6.02 3.2-1.67 1.62-1.38 4.13 1.3 4.16 5.02.04 5.98-4.76 9.58-6.91.1-.06.19-.11.29-.17 5.99-1.72 15.82-4.35 18.34-4.1 1.28.12 2.41 1.07 3.3 2.18.29.79 1.93 5.36 2.04 6.14.12.86 0 2.83 0 2.83h3.81s-.12-2.7.37-3.93 1.23-3.69 1.23-3.69l.61-1.18c.91-1.17 2.09-2.21 3.42-2.34 2.52-.24 12.35 2.38 18.34 4.1.1.06.19.11.29.17 3.59 2.16 4.56 6.96 9.58 6.91 2.69-.02 2.97-2.53 1.3-4.16Z" class="cls-1"/><path d="M127.6 38.73h-6.32l.63-3.29h5.06l.63 3.29zM126.3 93.58h.05s-.47-1.17-.12-2.34l-3.51-.12s.23 1.05-.12 2.46c0 0-1.07 1.46-1.07 2.49v4.55c0 1.68 1.36 3.04 3.04 3.04s3.04-1.36 3.04-3.04v-4.55c0-1.03-.52-1.94-1.3-2.49Zm-1.73 7.02c-.84 0-1.52-1.02-1.52-2.28s.68-2.28 1.52-2.28 1.52 1.02 1.52 2.28-.68 2.28-1.52 2.28Z" class="cls-1"/><path d="M121.28 88.07h6.32l-.63 3.29h-5.06l-.63-3.29z" class="cls-1"/><path d="M121.62 38.48h5.89c.47 0 .85.38.85.85v48.15c0 .47-.38.85-.85.85h-5.89a.85.85 0 0 1-.85-.85V39.33c0-.47.38-.85.85-.85Z" class="cls-1"/><path d="M124.57 100.6v14.35M155.83 50.99l24.24 44.05c.29.52-.37 1.44-1.47 2.05-1.1.61-2.23.67-2.52.15l-24.24-44.05 3.99-2.2Z" class="cls-4"/><ellipse cx="153.75" cy="51.92" class="cls-4" rx="2.27" ry="1.08" transform="rotate(-28.86 153.73 51.926)"/><path d="m102.02 34.56 44.85 46.87M146.87 34.56l-44.85 46.87M150.78 58.8l30.43 31.8M181.21 58.8l-30.43 31.8" class="cls-3"/></svg>