<svg xmlns="http://www.w3.org/2000/svg" id="Calque_1" data-name="Calque 1" viewBox="0 0 128 128"><defs><style>.cls-10,.cls-11,.cls-12,.cls-13,.cls-2,.cls-4,.cls-5,.cls-7{stroke:#000;stroke-linecap:round}.cls-10,.cls-11,.cls-12,.cls-13,.cls-2,.cls-4,.cls-5{stroke-linejoin:round}.cls-2{fill:#b2f0e9}.cls-11,.cls-4{fill:#fff}.cls-10,.cls-12,.cls-13,.cls-5{fill:none}.cls-7{fill:#fce9b9}.cls-14{fill:#fab0b4}.cls-15{fill:#1d1d1b}.cls-7{stroke-miterlimit:10}.cls-11,.cls-12,.cls-7{stroke-width:.86px}.cls-10{stroke-width:.52px}.cls-13{stroke-width:.43px}</style></defs><path d="m60.08 125.95-9.36.12c-.69 0-1.26-.54-1.28-1.23h0c-.01-.48.25-.92.67-1.15l7.96-4.26c.18-.1.39-.15.6-.15h4.06c.59 0 1.1.41 1.23.99l.78 3.49c.02.08.03.16.03.24l.02.61c.02.7-.54 1.29-1.25 1.29l-1.61.02-1.85.02Z" class="cls-2"/><path d="M58.25 111.67h5.5v7.62h-5.5zM76.26 111.67h-5.5l.38 7.61h5.5l-.38-7.61z" class="cls-4"/><path d="M74.45 56.93c.36 3.82 2.9 59.43 2.9 59.43h-7.43L66.66 66.4l-1.34.03-.87 49.93h-7.42s-.41-51.96.03-59.31l17.39-.12Z" style="stroke-linejoin:round;stroke:#000;stroke-linecap:round;fill:#87ccf3"/><path d="m74.8 125.96 9.36.12c.69 0 1.26-.54 1.28-1.23h0c.01-.48-.25-.92-.67-1.15l-7.96-4.26c-.18-.1-.39-.15-.6-.15h-4.06c-.59 0-1.1.41-1.23.99l-.78 3.49c-.02.08-.03.16-.03.24l-.02.61c-.02.7.54 1.29 1.25 1.29l1.61.02 1.85.02ZM72.34 28.41v28.82H58.99V29.65l2.2-4.11 2.36 4.11 2.37-2.41 2.37 2.41 1.9-4.11 2.15 2.87z" class="cls-2"/><path d="m65.92 27.24-2.37 2.41-2.36-4.11 1.6-.96 1.12.96 2.01 1.7z" class="cls-2"/><path d="m70.19 25.54-1.9 4.11-2.37-2.41 1.69-1.7.98-1 1.6 1z" class="cls-2"/><path d="M78.26 48.62c.56.76.74 1.69.78 2.31l-.78-2.31Z" class="cls-4"/><path d="m82.83 39.26-4.8 7.69-.11.1-.16.15-.05-.15-1.74-5.06.15 5.06v.43l-.57-.05-.32 1.5-.54 2.54-.49 2.32 2.12.15.79 27.27h-7.96l.58-31.2.03-1.92-.29 1.22.11-2.83v-.25l.14-3.46.26-7.15.19-10.07 4.82 2.03c.95.22 4.31 1.46 6.66 7.92.17.48.34.97.5 1.51.23.77.44 1.51.66 2.25ZM55.01 81.2l.41-27.12-2.13 14.04-1.86-.05h-.13L48.72 68h-.01l-2.02-.05s2.45-19.73 3.54-29.47c1.05-9.4 5.59-10.67 5.59-10.67l5.37-2.27.76 23.76h0l1.02 31.91h-7.96Z" class="cls-4"/><path d="m61.06 25.68-3.64 3.97 2.53 1.69-1.7 1.98 3.7 15.98" style="stroke-width:1.06px;fill:none;stroke-linejoin:round;stroke:#000;stroke-linecap:round"/><path d="m85.62 34.76-2.79 4.5-4.8 7.69-.11.09-.16.15-.05-.15h-1.59l.01.44-.58-.06-.32 1.51-2.13.38-3.5-2.83-.05-.03.06-.22.6-2.66 3.05-6.52 8.41-1.55 3.95-.74z" style="fill:#f3d587;stroke-linejoin:round;stroke:#000;stroke-linecap:round"/><path d="M77.71 47.04h-1.59l-.57.38-.32 1.5-.54 2.54-.49 2.32 2.12.15 6.27.46c.26.04.51.04.75-.01 1.68-.37 2.29-2.99 1.97-4.67-.44-2.37-1.23-6-2.49-10.46l-4.8 7.69-.11.1h-.21Z" class="cls-4"/><path d="m72.96 47.15 2.6.28-.32 1.5-.54 2.54c-2.18-.3-3.5-.83-3.5-.83L69.75 50l-1.66-.72c-.76-.4-1.24-1.19-1.24-2.04v-.61c0-.48.15-.95.43-1.35l.63-1.37c.44-.6 1.09-1.03 1.83-1.15.02 0 .04-.01.06-.01l.82-.08-.4.9c4.03.42 2.74 3.58 2.74 3.58Z" class="cls-4"/><path d="M65.12 3.62s0 1.14-.41 1.9h-.01M62.91 6c-.9-.52-1.51-1.84-1.51-1.84M60.07 16.44h-.01c-.11-.02-.84-.21-1.27-1.38-.47-1.26-1.01-1.11-1.05-2.41-.03-1.23 1.24-.7 1.38-.62M70.47 5.23s-.88.52-1.86.7" class="cls-5"/><path d="M61.06 6.56c.56.03 1.21-.1 1.86-.56.27.17.56.25.86.21.43-.04.72-.33.92-.69.01 0 .02.02.03.02.12.11.9.8 1.86-.13.5.6 1.29.66 2.03.53.44.34 1.04.3 1.04.3.03.05.08.11.11.16 1.8 2.54 1.97 4.26 1.99 4.45.11-.45.19-.88.25-1.29-.1.76-.24 1.31-.27 1.43h0v.03h.01c.03.72.03 2.58-.26 4.51-.25 1.6-.73 3.25-1.61 4.31-2.03 2.47-3.35 2.52-3.55 2.51-.2.05-1.59.26-3.99-1.88-1.03-.91-1.76-2.47-2.25-4.01-.59-1.86-.86-3.7-.95-4.41h.01c-.02-.08-.02-.16-.02-.26.03.07.05.11.05.11-.02-.3-.03-.6-.02-.89.19-1.49 1.56-3.96 1.72-4.39l.2-.04Z" class="cls-4"/><path d="M59.13 10.99c-.04.28-.05.54-.03.78" class="cls-5"/><path d="M59.12 12.02s0-.01-.01-.02h0c-.06-.15-.39-.88-.61-1.88v-.03c-.45-1.99-.46-5 2.85-6.34 0 0 .2-1.09 1.6-.92 0 0 1.62-1.77 3.57-.32 1.36-.38 1.73.66 1.73.66 3.74.88 3.98 4.25 3.76 6.26 0 .04-.01.07-.01.1" class="cls-5"/><path d="M69.79 6.6s1.92 2.8 1.92 4.41M59.08 11.72h0s0 .13.03.28h0v.03M71.72 11.01v-.02" class="cls-5"/><path d="M71.71 10.7s0 .1.01.28M71.45 15.51h.01c.1-.04.8-.34 1.05-1.56.27-1.31.82-1.25.67-2.54-.16-1.22-1.33-.5-1.46-.4M67.38 4.3c-.24.45-.49.79-.72 1.03-.03.03-.05.07-.08.08M64.73 5.54l-.02-.02" class="cls-5"/><path d="M66.03 10.85s.43 3.87 1.27 5.81c0 0-.16.4-1.42.15" class="cls-4"/><ellipse cx="63.43" cy="12.7" class="cls-4" rx=".13" ry=".39" transform="rotate(-4.42 63.48 12.7)"/><ellipse cx="68.76" cy="12.19" class="cls-4" rx=".13" ry=".39" transform="rotate(-4.42 68.817 12.258)"/><path d="m62.79 24.58.85-3.1M68.59 24.54l-.39-3.06M71.64 32.16h5.14v1.53h-5.14z" class="cls-4"/><path d="m47.57 67.96-.89 3.93M53.01 74.14s-.44-.5.47-1.3c.91-.8 2.98-2.19 3.17-3.1.18-.9-1.04-1.25-2.3-.6-1.27.65-3.96 3.08-5.29 2.96s-1.13-.69-2.18-2.07c-1.05-1.38-3.5-1.41-3.72-2s-2.23-5.38-4.62-6.91-3.59-1.14-2.96.37 4.62 4.38 5.07 5.2c.44.83 1.35 1.71.62 2.21-.73.49-1.3 1.15-1.5 1.59s-1.98-.5-3-1.89-3.54-4.37-4.68-4.05-.36 2.73.96 4.05 4.45 2.77 5.41 3.25.81.62 1.18 2.14 2.22 2.95 3.39 3.17c1.17.22 1.58.97.88 2.59-.7 1.63-1.26 3.02-1.35 4.37-.09 1.35.67 1.75 1.37 1.28s1.89-3.12 2.38-4.88c0 0 3.82 3.81 6.91 5.9 3.08 2.09 6.12 4.27 7.44 3.77 1.31-.5 1.16-1.77.02-2.7s-4.91-2.95-3.74-4.79c1.17-1.84 6.54 3.94 7.91 1.66 1.36-2.28-5.68-5.8-6.52-6.26s-4.29-2.66-5.28-3.95Z" class="cls-7"/><path d="M45.67 76.84s1.83-.74 2.32-3.26" class="cls-13"/><ellipse cx="41.74" cy="73.31" class="cls-15" rx=".29" ry=".39" transform="rotate(-52.2 41.73 73.307)"/><ellipse cx="43.43" cy="71.31" class="cls-15" rx=".29" ry=".39" transform="rotate(-52.2 43.432 71.305)"/><ellipse cx="43.56" cy="73.35" rx=".43" ry=".31" transform="rotate(-55.31 43.551 73.342)"/><path d="M44.93 73.11c-.35.59-1.26.31-1.26.31s.42.79.05 1.25" class="cls-13"/><path d="m51.3 68.07-.2 3.24" class="cls-7"/><path d="M98.98 125.44c2.8-1.9 14.06-.2 15.95-4.49 1.89-4.29-1.69-6.15-1.69-6.15s-.61.81-1.78 1.48c-1.17.67-2.16 1.05-2.69 1.49-1.34 1.12-3.02 2.63-2.67 1.67.09-.25.52-.79.62-.95l-.81.55s0 0 0 0c-.47.31-1.06.64-1.25.55-.45.22-.91.43-1.36.64-1.46.67-2.9 1.22-3.92 1.27-.11 0-.45.21-.77.42-.24.15-.45.3-.54.36-.12.09-.25.18-.4.29-2.56 1.94-1.5 4.77 1.31 2.88ZM113.34 114.58c3.97-3.2 1.01-11.23 1.01-11.23-1.63-3.88-4.66-3.4-5.11-4.56-.44-1.15.22-1.42.22-1.42 5.12-1.01 6.82-4.24 6.36-7.45-.45-3.21-3.4-8.23-9.58-6.72-6.19 1.51-4.36 6.64-4.36 6.64s-.17.81-.94.87c-.77.05-.16 1.26-.16 1.26s-1.87 4.03 1.35 4.92c1.17.32 1.63.7 1.61 1.12v.05c0 .02-.01.05-.01.07-.17.71-1.52 1.53-2.94 2.44 0 0 0 0 0 0-.01.01-.07.04-.15.11-.03.03-.06.06-.1.09-.42.42-1.31 1.6-2.32 4.7-.86 2.65-1.37 4.28-2.06 5.41-.43.71-.94 1.23-1.65 1.67-1.84 1.15-2.71 2.48-1.49 2.61" class="cls-11"/><path d="M105.34 117.36c-.97.45-1.32 1.22-1.69 1.5" class="cls-12"/><path d="M103.9 117.35h.01M110.49 103.88s-.3 5.61-.02 8.02c0 0-.43-.11-2.12 1.46-.05.05-.1.1-.16.15" class="cls-10"/><path d="M105.87 118.15s-.9.59-1.18 1.07h0" class="cls-12"/><path d="M104.68 119.22h0M107.14 114.69h0M108.2 113.52h.01" class="cls-10"/><path d="M99.57 110.7s-.07.99-.3 3.15c0 0-2.51 5.19-.67 8.06v.01c1.59-.94 1.67-.04 3.66-1.13.41-.22.74-.41 1.02-.56l1.31-.72c-.02-.09.02-.19.08-.29-.08.06-1.21.84-1.03-.37-.17.12-.34.15-.57 0-.7-.46.68-1.41.82-1.5-.9.43-1.56.13.39-.56.87-.31 1.33-.75 2.35-1.51l.78.61 1.88 1.44s2.43-1.07 3.38-1.95c0 0 .99-.99 1.59-1.75 2.81-3.47.2-11.42-1.07-12.63-1.27-1.2-3.96-2.22-3.96-2.22-5.32 1.12-5.6-.13-5.52-.65 0-.02.01-.05.01-.07.01-.05.03-.09.04-.11l-.03.06c-.44.8-.7.98-2.96 2.56 0 0 0 0 0 0-.05.04-.1.07-.15.11-.03.03-.06.06-.1.09-2.25 2.04-4.5 9.98-4.5 9.98.02.04.06.09.12.14.52.47 2.42 1.4 2.42 1.4l1-1.61Z" class="cls-11"/><path d="M97.8 112.62s.36 3.69-.43 2.73c-.78-.96-.49-2.37-1.53-1.2s-.85 1.95-1.26 1.18.39-1.75.39-1.75" class="cls-12"/><path d="M94.51 114.47s-1.95 2.14-1.08.18l.68-1.05" class="cls-10"/><path d="M95.91 122.15c.82.25 1.13.76 1.13.76-.45.51-.94 1.49-.87 2.07.14 1.3-7.36-.45-5.94-2.86.72-1.22 3.88-.46 3.88-.46" class="cls-11"/><path d="M94.75 116.38s1.5-.34 1.61 2.81c.03.79 0 3.16 0 3.16s-2-.79-3.86-.91c0 0-1.83-3.04-2.32-6.73-.49-3.69 3.7-2.6 3.7-2.6l5.38 1.68s-2.36 4.83-.66 8.13l-.54.36s-.84-.7-1.55-1.74" class="cls-11"/><path d="M109.24 92.99s1.73.58.73 2-1.88.17-1.88.17" class="cls-12"/><circle cx="103.02" cy="91.09" r=".4"/><path d="M104.34 90.44s-.11-1.04-1.19-.97" class="cls-13"/><path d="m109.19 94.33-.35-.16" style="stroke-width:.58px;fill:none;stroke-linejoin:round;stroke:#000;stroke-linecap:round"/><path d="M103.02 94.75zM101.39 94.33h.01-.01Z" class="cls-14"/><path d="M102.74 85.1s1.53 3.5 4.83 3.76c0 0-.67 2.02 1.78 2.68" class="cls-12"/><path d="M99.57 110.7c.32-1.28.49-2.45 1.11-4.06" style="stroke-width:.58px;fill:#fce9b9;stroke-linejoin:round;stroke:#000;stroke-linecap:round"/><path d="M111.4 109.55c-.3 2.81-5.11 5.48-5.11 5.48l1.13.87" class="cls-12"/></svg>