<svg xmlns="http://www.w3.org/2000/svg" id="Calque_1" data-name="Calque 1" viewBox="0 0 128 128"><defs><style>.cls-1{fill:#f3d587}</style></defs><path d="M38.01 117.68c-6.34 0-11.51-5.16-11.51-11.51l-.11-84.28c0-6.34 5.14-11.51 11.45-11.51l12.23-.06c6.07 0 11.12 4.79 11.49 10.79H41.7c-1.33 0-2.37 1.04-2.37 2.37s1.04 2.37 2.37 2.37h19.88v4.89H41.7c-1.33 0-2.37 1.04-2.37 2.37s1.09 2.37 2.37 2.37h19.89l.04 4.84H41.7c-1.33 0-2.37 1.04-2.37 2.37s1.04 2.37 2.37 2.37h19.94v4.89H41.7c-1.33 0-2.37 1.04-2.37 2.37s1.09 2.37 2.37 2.37h19.94v4.84H41.7c-1.33 0-2.37 1.04-2.37 2.37s1.04 2.37 2.37 2.37h19.94l.05 4.84H41.7c-1.29 0-2.37 1.09-2.37 2.37s1.06 2.43 2.37 2.43h19.99v4.84H41.7c-1.33 0-2.37 1.04-2.37 2.37s1.04 2.37 2.37 2.37h19.99v4.84H41.7c-1.29 0-2.37 1.09-2.37 2.37s1.04 2.37 2.37 2.37h20.05v13c0 6.35-5.16 11.51-11.51 11.51l-12.23.05Zm6.12-15.92c-2.1 0-3.8 1.71-3.8 3.81s1.71 3.75 3.8 3.75 3.81-1.68 3.81-3.75-1.71-3.81-3.81-3.81Z" class="cls-1"/><path d="M50.08 10.82c5.63 0 10.34 4.31 10.94 9.79H41.7c-1.61 0-2.87 1.26-2.87 2.87s1.26 2.87 2.87 2.87h19.38v3.89H41.7c-1.61 0-2.87 1.26-2.87 2.87s1.29 2.87 2.87 2.87h19.39l.04 3.84H41.7c-1.61 0-2.87 1.26-2.87 2.87s1.26 2.87 2.87 2.87h19.44v3.89H41.7c-1.61 0-2.87 1.26-2.87 2.87s1.29 2.87 2.87 2.87h19.44v3.84H41.7c-1.61 0-2.87 1.26-2.87 2.87s1.26 2.87 2.87 2.87h19.45l.04 3.84H41.71c-1.58 0-2.87 1.29-2.87 2.87s1.29 2.93 2.87 2.93H61.2v3.84H41.71c-1.61 0-2.87 1.26-2.87 2.87s1.26 2.87 2.87 2.87H61.2v3.84H41.71c-1.58 0-2.87 1.29-2.87 2.87s1.26 2.87 2.87 2.87h19.55v12.5c0 6.07-4.94 11.01-11.01 11.01l-12.23.05c-6.07 0-11.01-4.94-11.01-11.01l-.11-84.28c0-6.07 4.91-11.01 10.96-11.01l12.22-.06m-5.95 98.99c2.37 0 4.31-1.91 4.31-4.25s-1.93-4.31-4.31-4.31-4.3 1.93-4.3 4.31 1.93 4.25 4.3 4.25m5.95-99.99-12.23.06c-6.61 0-11.95 5.34-11.95 12.01l.11 84.28c0 6.61 5.4 12.01 12.01 12.01l12.23-.05c6.66 0 12.01-5.4 12.01-12.01v-13.5H41.71c-1.05 0-1.87-.83-1.87-1.87 0-.99.83-1.87 1.87-1.87H62.2v-5.84H41.71c-1.05 0-1.87-.83-1.87-1.87s.83-1.87 1.87-1.87H62.2v-5.84H41.71c-1.05 0-1.87-.88-1.87-1.93 0-.99.83-1.87 1.87-1.87H62.2l-.06-5.84H41.7c-1.05 0-1.87-.83-1.87-1.87s.83-1.87 1.87-1.87h20.44v-5.84H41.7c-1.05 0-1.87-.88-1.87-1.87 0-1.05.83-1.87 1.87-1.87h20.44v-5.89H41.7c-1.05 0-1.87-.83-1.87-1.87s.83-1.87 1.87-1.87h20.44l-.06-5.84H41.7c-1.05 0-1.87-.88-1.87-1.87 0-1.05.83-1.87 1.87-1.87h20.38v-5.89H41.7c-1.05 0-1.87-.83-1.87-1.87s.83-1.87 1.87-1.87h20.38c-.11-6.56-5.45-11.79-12.01-11.79Zm-5.95 98.99c-1.82 0-3.3-1.49-3.3-3.25s1.49-3.31 3.3-3.31 3.31 1.49 3.31 3.31-1.49 3.25-3.31 3.25Z"/><path d="M96.17 93.5a.6.6 0 0 1-1.2 0c0-.32.27-.6.6-.6s.6.27.6.6Z" class="cls-1"/><path d="M96.17 93.5a.6.6 0 0 1-1.2 0c0-.32.27-.6.6-.6s.6.27.6.6Z" style="fill:#fff"/><path d="M92.59 11.23h5.96c.08 0 .14.06.14.14V74.4c0 .08-.06.14-.14.14h-5.96c-.08 0-.14-.06-.14-.14V11.37c0-.08.06-.14.14-.14Z" style="fill:#baa584"/><path d="M98.19 11.73v62.3h-5.24v-62.3h5.24m.36-1h-5.96c-.35 0-.64.29-.64.64V74.4c0 .35.29.64.64.64h5.96c.35 0 .64-.29.64-.64V11.37c0-.35-.29-.64-.64-.64Z"/><path d="M91.02 120.02c-.08 0-.14-.06-.14-.14V74.73c0-2.35 1.91-4.26 4.26-4.26h.85c2.35 0 4.26 1.91 4.26 4.26v45.15c0 .08-.06.14-.14.14h-9.1Z" style="fill:#a07637"/><path d="M96 70.97c2.07 0 3.76 1.69 3.76 3.76v44.79h-8.38V74.73c0-2.07 1.69-3.76 3.76-3.76h.85m0-1h-.85c-2.63 0-4.76 2.13-4.76 4.76v45.15c0 .35.29.64.64.64h9.1c.35 0 .64-.29.64-.64V74.73c0-2.63-2.13-4.76-4.76-4.76ZM79.65 14.62h31.85v1.21H79.65zM79.65 19.55h31.85v1.21H79.65zM79.65 24.47h31.85v1.21H79.65zM79.65 29.39h31.85v1.21H79.65zM79.65 34.31h31.85v1.21H79.65zM79.65 39.24h31.85v1.21H79.65zM79.65 49.08h31.85v1.21H79.65zM79.65 44.16h31.85v1.21H79.65zM79.65 54h31.85v1.21H79.65zM79.65 58.93h31.85v1.21H79.65zM79.65 63.85h31.85v1.21H79.65zM79.65 16.25h31.85v1.21H79.65zM79.65 21.18h31.85v1.21H79.65zM79.65 26.1h31.85v1.21H79.65zM79.65 31.02h31.85v1.21H79.65zM79.65 35.94h31.85v1.21H79.65zM79.65 40.86h31.85v1.21H79.65zM79.65 50.71h31.85v1.21H79.65zM79.65 45.79h31.85V47H79.65zM79.65 55.63h31.85v1.21H79.65zM79.65 60.55h31.85v1.21H79.65zM79.65 65.48h31.85v1.21H79.65z"/><path d="M-1617.14-2320.85H4850.2v6437.3h-6467.34z" style="fill:none;stroke:#fff;stroke-linecap:round;stroke-linejoin:round;stroke-width:8px"/></svg>