<svg xmlns="http://www.w3.org/2000/svg" id="Calque_1" viewBox="0 0 128 128"><defs><style>.cls-3,.cls-4,.cls-6{stroke:#000;stroke-linecap:round;stroke-linejoin:round}.cls-3,.cls-4{fill:#a07637;stroke-width:2px}.cls-4{fill:#baa584}</style></defs><circle cx="40.36" cy="27.45" r="8.24" class="cls-3"/><circle cx="85.53" cy="27.45" r="8.24" class="cls-3"/><path d="M46.95 56.52s-21.97 7.79-22.59 17.17c-.62 9.38 2.7 10.62 2.7 10.62h14.1l5.8-27.79ZM79.64 56.52s21.97 7.79 22.59 17.17c.62 9.38-2.7 10.62-2.7 10.62h-14.1l-5.8-27.79ZM36.89 111.26l15.68-5.64-11.45-11.35-4.23 16.99zM90.97 111.26l-15.68-5.64 11.45-11.35 4.23 16.99z" class="cls-4"/><path d="M92.18 82.86c0-15.84-12.84-33.09-28.68-33.09S34.82 67.03 34.82 82.86s12.84 24.26 28.68 24.26 28.68-8.42 28.68-24.26Z" class="cls-4"/><path d="M80.8 81.11c0-9.56-7.75-19.97-17.3-19.97S46.2 71.55 46.2 81.11s7.75 14.64 17.3 14.64 17.3-5.08 17.3-14.64Z" style="fill:#a07637;stroke-linecap:round;stroke-linejoin:round;stroke:#000"/><rect width="17.48" height="28.2" x="24.27" y="83.6" class="cls-4" rx="8.74" ry="8.74" transform="rotate(-15.95 33 97.71)"/><rect width="17.48" height="28.2" x="85.03" y="83.6" class="cls-4" rx="8.74" ry="8.74" transform="rotate(-164.05 93.77 97.702)"/><path d="M88.89 45.45s-2.38 21.19-24.36 20.79c-.54-.01-1.06-.05-1.55-.12-.49.07-1.01.11-1.55.12-21.98.4-24.36-20.79-24.36-20.79s-.82-4.88 6.18-16.75c7-11.87 19.73-10.65 19.73-10.65s12.73-1.22 19.73 10.65c7 11.87 6.18 16.75 6.18 16.75Z" class="cls-4"/><circle cx="48.6" cy="38.8" r="2.41" class="cls-6"/><circle cx="77.29" cy="38.8" r="2.41" class="cls-6"/><ellipse cx="62.98" cy="43" rx="6.51" ry="3.13" style="fill:#fff;stroke-linecap:round;stroke-linejoin:round;stroke:#000"/><path d="M62.98 66.12V46.13" style="fill:none;stroke-miterlimit:10;stroke-width:2px;stroke:#000"/></svg>