<svg xmlns="http://www.w3.org/2000/svg" id="Calque_1" data-name="Calque 1" viewBox="0 0 128 128"><defs><style>.cls-1{stroke-width:.54px}.cls-1,.cls-11,.cls-13,.cls-15,.cls-16,.cls-17,.cls-18,.cls-2,.cls-3,.cls-5,.cls-9{stroke:#000}.cls-1,.cls-11,.cls-13,.cls-15,.cls-16,.cls-17,.cls-18,.cls-2,.cls-3{stroke-linecap:round;stroke-linejoin:round}.cls-1,.cls-11,.cls-17,.cls-20,.cls-3,.cls-5,.cls-9{fill:none}.cls-2,.cls-3{stroke-width:.64px}.cls-16,.cls-18,.cls-2{fill:#fff}.cls-11{stroke-width:.94px}.cls-5{stroke-dasharray:0 0 1 1}.cls-20,.cls-5,.cls-9{stroke-miterlimit:10}.cls-5,.cls-9{stroke-width:.75px}.cls-13{fill:#d6d6d6}.cls-13,.cls-15,.cls-16,.cls-17{stroke-width:.85px}.cls-20{stroke:#87f3b9;stroke-width:2px}.cls-15{fill:#a07637}.cls-18{stroke-width:.71px}</style></defs><path d="m89.73 15.58.18-.03c.07-.03.41-.22.58-1.1.2-.95.6-.91.49-1.84-.11-.88-.96-.36-1.06-.29" class="cls-2"/><ellipse cx="64.42" cy="93.94" class="cls-20" rx="32.94" ry="7.32"/><ellipse cx="64.42" cy="93.94" class="cls-20" rx="48.29" ry="14.78"/><ellipse cx="64.42" cy="93.94" class="cls-20" rx="61.24" ry="21.84"/><path d="M96.71 57.04s1.51-.54 1.46-4.05c-.02-.92-1.58-2.68-1.58-2.68" class="cls-2"/><path d="M94.57 45.78s-.45 4.17-.57 5.17c-.17 1.38.42 2.07.48 2.68.15 1.56.2 2.27.65 2.37.79.18.64-2.66.64-2.66s.69 1.07.54 1.92-.38 3.7.46 2.09.9-4.53.9-4.53-.38-1.53-.84-2.22.08-3.6.08-3.6" class="cls-18"/><path d="M82.62 57.08s-5.8 29.21-5.63 32.5c0 0-4.06 1.12-5.53-.52 0 0 .74-21.81 2.57-24.08 1.83-2.27-2.69-12.94.37-20.49 4.78 3.25 9.95 4.36 15.57 3.06l1.23 19.63-7.82 19.43c-4.54.4-5.44-.83-5.44-.83l4.94-16.88-.26-11.81Z" style="fill:#8987f3;stroke-width:.94px;stroke-linecap:round;stroke-linejoin:round;stroke:#000"/><path d="m67.14 24.29 7.66 10.5M64 27.05l8.5 11.11" class="cls-16"/><path d="M92.13 38.03c.25 1.54.44 3.3.44 3.3l.33 7.64 3.85-.54.55-.08c.95-2.95-1.2-24.29-2.74-25.44s-3.29-1.84-3.29-1.84l-2.53-.84s1.03 3.22-.49 4.09c-1.52.88-1.81 1.88-1.81 1.88s-.84-1.42-1.84-1.8-1.13-1.76-1.13-1.76l.22-2.65-6.42 2.18c-1.53 0-4.39 4.6-6.3 6.97-.89 1.07-1.77 2.16-2.5 3.35-1.28 2.06-2.2 4.67-.97 6.97.74 1.37 1.95 2.43 3.14 3.41 1.41 1.15 2.97 2.19 4.64 2.96.47.22 1.02.05 1.29-.39.33-.54.61-1.1.85-1.68.03-.05.05-.11.07-.16.17-.38.14-.82-.07-1.18-.33-.58-.69-1.15-1.07-1.71-.91-1.35-1.98-2.65-3.2-3.92.6-.57 1.19-1.15 1.76-1.75l3.99-6.73-3.12 10.62-2.02 6.26-.69 2.27c4.33 1.56 17.45 1.45 17.45 1.45l.33-7.3c1.45-2.02 2.49-12.56 2.49-12.56" style="fill:#76ac75;stroke-width:.94px;stroke-linecap:round;stroke-linejoin:round;stroke:#000"/><path d="m86.45 26.21-1.3 22.67M88.44 41.88s-4.63.82-6.85-.6" class="cls-11"/><path d="M82.61 88.49v-1.68l-4.09-.51-.12 2.37" class="cls-16"/><path d="M88.47 94.83c-.73-.19-7.73-1.39-9.95-1.76-.47-.08-.86-.43-.98-.9-.2-.79-.24-2.09.87-3.5.75.68 4.21-.19 4.21-.19s3.27 2.57 5.6 3.44c2.33.88 1.13 3.12.26 2.9Z" class="cls-15"/><path d="M61.64 91.19s7.51 4.41 5.17 5.24-2.38 1.24-6.13-1.01c-3.76-2.25-5-.4-4.96-4.33M49.03 91.15s.59 2.45 1.26 3.54 1.66 2.75-.63 2.92c-2.29.17-5.72.67-5.8-1.92s1.24-3.03 1.08-4.81" class="cls-13"/><path d="M65.26 47.17s-2.1 37.5-3.28 43.92c0 0-2.99 1-6.25 0 0 0 .07-19.03 1.07-22.2 0 0-1.14-9.1-1.07-10.68l-5.74 32.88s-5.04.42-6.13-.75l3.52-43.17h17.88Z" style="fill:#87ccf3;stroke-width:.85px;stroke-linecap:round;stroke-linejoin:round;stroke:#000"/><path d="m64.92 28.57.44 11.06.65 7.22s-7.6 7.26-18.99 0c0 0 1.12-8.76 1.52-13.7 0 0-5.82-1.8-5.82-1.81 1.74-6.44 4.87-10.83 5.84-11.41 1.18-.7 4.36-2.41 4.36-2.41s5.15 4.34 6.47 4.11c0 0 .88-3.11.54-3.95 0 0 3.82-.14 5.39 1.87 1.81 2.31 3.37 5.34 3.37 5.34s-2.81 3.64-3.79 3.67Z" style="fill:#d6d6d6;stroke-width:.94px;stroke-linecap:round;stroke-linejoin:round;stroke:#000"/><path d="M54.97 11.78c-.76-.46-.71-1.9-.06-2.32.66-.42 1.31.16 2.08.45.84.31 1.98-.99 2.32-1.44.35-.45 1.98-3.23 1.98-3.23.46.45 1.22 1.32 1.32 2.72.02.17.02.35.01.53-.07 1.71.26 3.59.06 5.14-.2 1.56-.3 2.24-1.8 2.3-1.42.05-2.48-.21-2.82-.41.17.16.96 1.61 2.1 2.14 0 0-.29 3.86-1.03 3.99-1.44.24-6.18-4.13-6.18-4.13s.53-.31 1.46-1.7c-.16-1.41-2.07-3.61-2.88-4.84-.93-1.41-.31-3.19-.31-3.19-1.08-.71-.13-3.12 1.97-4.14 3.7-1.79 7.52-1.1 8.41.37 0 0 1.66.04 1.97 1.89.25 1.53-.9 2.05-.9 2.05" style="stroke-width:.94px;fill:#fff;stroke-linecap:round;stroke-linejoin:round;stroke:#000"/><path d="M62.57 9.67c0-.3-.18-.54-.39-.54-.21 0-.38.25-.38.55 0 .3.17.54.38.54s.39-.25.39-.54ZM60.06 10.25c0-.3-.18-.54-.39-.54-.21 0-.38.25-.38.55 0 .3.17.54.38.54s.39-.25.39-.54Z"/><path d="M62.73 8.82s-.33-.46-.97-.15M58.81 9.23s.45-.48 1.11-.22" class="cls-3"/><path d="M54.58 11.35s.5.79 1.57.86" class="cls-11"/><path d="m64.69 24.14.51 11.79M51.97 26.13l-1.91 7.51-3.45-1.11" class="cls-17"/><path d="M81.06 13.05v-.01h0c-.05-.11-.28-.64-.44-1.36v-.02c-.32-1.44-.33-3.62 2.06-4.6 0 0 .15-.79 1.16-.67 0 0 1.17-1.28 2.59-.23.98-.28 1.25.48 1.25.48 2.71.64 2.88 3.08 2.73 4.54 0 .03-.01.05 0 .08" class="cls-13"/><path d="m83.58 21.23.22-1.71.02-.32 4.42-.85.11.92.39 1.73s.68 1.96.04 2.84-2.34 2.37-2.34 2.37-1.23-1.87-1.84-1.8-1.24-1.48-1.02-3.18Z" class="cls-16"/><path d="M85.4 6.96s0 .82-.3 1.38h0" class="cls-1"/><path d="M83.81 8.69c-.65-.38-1.09-1.33-1.09-1.33" class="cls-17"/><path d="M81.67 15.69h0c-.08-.02-.61-.15-.92-1-.34-.91-1.35-.94-.76-1.75.45-.62 1.75.68 1.86.73l-.17 2.02h0Z" class="cls-16"/><path d="M89.28 8.13s-.64.38-1.35.51" class="cls-17"/><path d="M90.19 12.29h0l-.67.18s.67-.16.68-.16c.02.52.02 1.87-.19 3.27-.18 1.16-.53 2.36-1.17 3.12-1.47 1.79-2.43 1.83-2.57 1.82-.15.03-1.15.19-2.89-1.36-.75-.66-1.28-1.79-1.63-2.91-.43-1.35-.63-2.68-.69-3.2h0c-.01-.06-.02-.12-.01-.19.02.05.02-.35.02-.56.14-1.08 1.13-2.87 1.25-3.18l.14-.03c.41.02.88-.08 1.35-.4.2.12.4.18.63.15.31-.03.52-.24.67-.5l.02.01c.09.08.65.58 1.35-.1.36.44.94.48 1.47.38.32.25.75.22.75.22.03.04.06.08.08.11 1.3 1.84 1.43 3.09 1.44 3.22" class="cls-2"/><path d="M81.07 12.3c-.03.2-.04.39-.02.56M88.79 9.12s1.39 2.03 1.39 3.2M81.02 12.83h0s0 .1.02.2h0v.02" class="cls-17"/><path d="M87.04 7.46c-.18.33-.35.57-.52.74-.02.02-.03.05-.06.06M85.12 8.36h-.02" class="cls-1"/><path d="M86.09 12.44s.29 2.56.9 3.97c0 0-.12.29-1.03.11" class="cls-2"/><path d="M61.08 9.3s.4 1.66 1.02 3.08c0 0-.12.29-1.04.11" class="cls-3"/><ellipse cx="84.18" cy="13.54" class="cls-2" rx=".1" ry=".28" transform="rotate(-4.42 84.34 13.506)"/><ellipse cx="88.04" cy="13.17" class="cls-2" rx=".1" ry=".28" transform="rotate(-4.42 88.117 13.132)"/><circle cx="84.22" cy="13.61" r="1.35" class="cls-3"/><circle cx="88.2" cy="13.2" r="1.35" class="cls-3"/><path d="M85.23 12.7s.93-.73 1.79-.18M84.67 10.83l2.22-.29M84.45 9.95l2.22-.3M87.08 18.25c-.37.17-.95.27-1.7-.19M62.49 13.78c-.34.23-.9.42-1.72.09M84.54 18.33s-.34-.35.13-.89M87.7 17.6s.46.18.25.86" class="cls-3"/><path d="m82.76 13.44-2.11-.59" class="cls-16"/><path d="m44.06 31.75 5 1.58-4.44 18s.33 5.01-.51 6-.64-2.55-.64-2.55-1.23 3.37-1.76 3.37.48-3.45.48-3.45-1.32 4.37-2.01 4.21 1.07-4.29 1.07-4.29-1.97 4.22-2.43 3.24c-.27-.57 1.62-3.86 1.62-3.86s-1.4 2.75-1.83 2.55 1.98-4.81 2.71-5.46 2.73-19.36 2.73-19.36Z" class="cls-18"/><path d="m72.86 93.13.02-3.22h3.44l.29 2.44s-2.03 3.14-3.75.78Z" class="cls-16"/><path d="m84.9 45.17-2.3-.36c-.34-.05-.68-.08-1.02-.15-.17-.03-.34-.08-.5-.14-.15-.06-.35-.13-.13-.23.14-.06.31-.08.46-.12.24-.05.5-.11.71-.23a.46.46 0 0 0 .24-.32c.02-.18-.12-.34-.29-.41h-.02c-.17-.06-.37-.05-.55-.03-.59.07-1.19.21-1.78.23-.34.01-.67-.04-1.01 0-.28.04-.55.11-.82.2l-.48-.29v-.04c-.15-.09-.3-.19-.45-.28-.24.85-.49 1.71-.73 2.56.35.14.57.22.58.21v-.01c.5.95 1.51 1.77 2.49 2.04.1.03.2.05.29.1.07.04.13.09.19.15.34.32.67.65.98.99.2.21.53.76.88.67.24-.06.33-.38.16-.56-.31-.33-.63-.65-.95-.97-.12-.12-.25-.23-.35-.36-.03-.04-.12-.14-.11-.2.07-.31.59.08.72.16.24.15.47.3.71.44.34.21.68.41 1.02.61.21.13.52.4.77.19.17-.14.15-.43-.04-.54-.11-.06-.22-.13-.33-.19-.02-.03-.05-.05-.09-.08-.37-.24-.74-.48-1.1-.74l-.54-.39c-.07-.05-.47-.22-.39-.35.09-.16.55.11.66.15.31.1.61.19.92.29.41.13.82.27 1.23.4.26.08.73.33.91 0 .1-.17.02-.41-.16-.49-.02-.01-.04-.03-.06-.04-.56-.29-1.15-.5-1.73-.73-.29-.11-.58-.22-.86-.34-.15-.06-.29-.13-.43-.2-.06-.03-.22-.07-.19-.16s.21-.06.28-.06c.18.01.35.09.52.1.29.02.59.03.88.05.41.03.82.05 1.23.08.25.02.65.16.81-.11.12-.19 0-.49-.23-.53Z" class="cls-18"/><path d="M69.46 41.85c1.41 1.15 2.93 2.68 4.6 3.45.47.22 2.2 1.07 2.46.63.33-.54.64-1.59.89-2.17.03-.05.05-.11.07-.16.17-.38.14-.82-.07-1.18-.33-.58-1.86-2.18-2.24-2.73-.91-1.35-1.98-2.65-3.2-3.92" style="stroke-width:.85px;fill:#76ac75;stroke-linecap:round;stroke-linejoin:round;stroke:#000"/><path d="M74.55 36.13c-.26.06-.52.14-.76.24-.3.13-.53.32-.82.48-.49.27-.46.44-.96.67-.16.07-.32.15-.43.29l-.01.01c-.1.13-.13.32-.03.45.08.1.22.14.35.13.23 0 .47-.09.68-.16.14-.05.28-.11.43-.13.22-.03.1.28 0 .39-.1.12-.22.24-.34.34-.24.21-.5.4-.75.6l-1.67 1.37c-.17.13-.12.42.07.51.26.13.52-.18.71-.31.32-.22.63-.44.95-.65.23-.15.46-.31.69-.46.13-.09.24-.23.37-.32.05-.03.18-.29.25-.24.07.05-.19.17-.22.22-.08.12-.16.24-.25.36-.17.23-.34.45-.52.67-.36.45-.73.9-1.04 1.38l-.03.06c-.11.14-.05.37.11.45.31.15.56-.26.73-.44.27-.29.52-.6.79-.89l.6-.66c.07-.08.46-.5.61-.43.13.06-.11.38-.14.46-.08.18-1.14 1.75-1.14 1.79-.06.1-.11.2-.17.3-.1.18.03.41.24.43.3.04 1.63-1.97 1.75-2.19.06-.12.29-.67.5-.46.04.04-.65 1.45-.73 1.85-.05.22.08.42.31.36.33-.1.46-.61.72-1.02.22-.36.62-1.49.68-1.56.65-.67.26-4.06-.91-4.77l-.61.91Z" class="cls-2"/><path d="M79.27 98.12c-1.58.96-5.14.34-6.71-2.32l.11-2.95c.33.34 1.01.87 1.57.29 1.01-1.05 2.37-.79 2.37-.79s4.47 4.67 2.67 5.77Z" class="cls-15"/><path d="m59.83 101.35-.08.49" class="cls-9"/><path d="m59.61 102.82-2.01 13.13" style="stroke-dasharray:0 0 .98 .98;stroke-width:.75px;stroke-miterlimit:10;fill:none;stroke:#000"/><path d="m57.53 116.44-.08.49" class="cls-9"/><path d="m55.52 115.13.93 8.37 3.38-7.71-4.31-.66z"/><path d="m43.55 108.65 4.69-8.05" class="cls-5"/><path d="m46.19 108.46-5.98 5.94 2.21-8.13 3.77 2.19z"/><path d="m33.12 100.86 6.39-2.65" class="cls-5"/><path d="m35.33 102.31-8.35 1.1 6.67-5.13 1.68 4.03z"/><path d="M112.04 117.6c-29.66 9.09-67.11 9.05-96.66-.48 31.7 6.87 64.89 6.92 96.66.48Z" style="fill:#87f3b9"/><path d="M-626.47-59.99H820.6v727.52H-626.47z" style="stroke:#fff;stroke-width:8px;fill:none;stroke-linecap:round;stroke-linejoin:round"/></svg>