<svg xmlns="http://www.w3.org/2000/svg" id="Calque_1" data-name="Calque 1" viewBox="0 0 128 128"><defs><style>.cls-2,.cls-4,.cls-5,.cls-8{stroke-linecap:round;stroke-linejoin:round}.cls-2,.cls-4,.cls-5,.cls-8,.cls-9{stroke:#000}.cls-2{fill:#87ccf3}.cls-4{fill:#fff}.cls-5,.cls-9{fill:none}.cls-9{stroke-miterlimit:10}.cls-8{fill:#f3d587;stroke-width:.75px}</style></defs><path d="M42.09 99.05c-.1-.09-.19-.18-.29-.27-.36-.49-.35-1.29.12-1.68.57-.48-.17-.52-1.31-.82-1.15-.3 1.34-1.75 1.34-1.75s.15-.11.39-.29c.87-.66 2.14-1.75 3.27-1.84.99-.1 1.87.3 2.83.42 1.09.12 2.11-.17 3.16-.44 1.91-.52 3.57-2.37 4.89-3.72 2.08-2.12 3.97-4.38 5.84-6.67 1.77-2.18 3.38-4.51 5.31-6.56 1.18-1.25 2.91-2.25 2.7-4.21 0 0-.78-6.2-.44-11.68.01-.16.02-.33.04-.49 0 0 3.8 1.55 8.95.35.8 1.63 1.51 3.31 2.12 4.98-.03.35-.07.69-.11 1.03-.18 1.42-.39 2.9-.58 4.11-.03.19-.06.37-.09.55-.15.91-.32 1.81-.5 2.71 0 .01-.01.02-.01.03-.24 1.24-.35 2.55-.62 3.8-.18.89-.46 1.75-.92 2.55-.61 1.06-1.46 1.94-2.33 2.78-.78.76-1.79 1.44-2.46 2.27-.1.12-.21.26-.28.42" class="cls-2"/><path d="M81.21 61.47c0 .7-.06 1.71-.19 2.83v.07l-.12 1.04c-.18 1.42-.39 2.9-.58 4.11-.03.19-.06.37-.09.55-.19 1.23-.34 2.06-.34 2.06s-.03.12-.07.33c0 .05-.02.1-.04.16v.04c-.01.04-.03.08-.04.12 0 .01-.01.02-.01.03-.2.61-.29 1.24-.38 1.89-.08.63-.14 1.28-.24 1.91-.04.3-.1.59-.17.88-.09.33-.19.66-.31.97-.01 0-.02.03-.03.04-.03.08-.05.15-.09.23-.09.18-.17.36-.3.54-.03.05-.06.11-.1.16-.02.05-.05.08-.08.12-.72 1.09-1.76 2.1-2.62 2.97-.71.73-1.52 1.38-2.25 2.08h-.01l-.03.03c-.39.37-.79.74-1.21 1.11-2.08 1.9-4.39 3.8-6.43 5.08-4.93 3.11-11.33 8.3-12.18 8.91-.82.59-2.99 2.72-4.47 3.27-.03.01-.06.03-.09.03-1.48.51-2.32-.78-3.37-.84-1.05-.06-1.38-.57-2.23-1.18-.84-.61-.4-1.55-1.04-1.96-.1-.09-.19-.18-.29-.27-.36-.49-.35-1.29.12-1.68.57-.48-.17-.52-1.31-.82-1.15-.3 1.34-1.75 1.34-1.75s.15-.11.39-.29c.87-.66 2.14-1.75 3.27-1.84.99-.1 1.87.3 2.83.42 1.09.12 2.11-.17 3.16-.44 1.91-.52 3.57-2.37 4.89-3.72 2.08-2.12 3.97-4.38 5.84-6.67 1.77-2.18 3.38-4.51 5.31-6.56 1.18-1.25 2.91-2.25 2.7-4.21 0 0-.78-6.2-.44-11.68.01-.16.02-.33.04-.49 0 0 3.8 1.55 8.95.35.74-.17 1.52-.4 2.31-.7v.94c0 .61 0 1.23.02 1.83ZM46.56 19.19s-.44 3.41 2.6 8.2c3.04 4.79 2.56 5.67 2.56 6.55s1.87 0 1.87 0 4.7 4.04 7.67 2.4c.66-.36 1.22-1 1.64-2.01.2-.48.32-.97.37-1.48.42.15.85.28 1.29.42 1.92 4.07-1.91 8.1-1.91 8.1h-.01c-.36-.14-8.24-3.25-11.93-6.6-3.72-3.39-10.13-9.01-4.9-20.59.08-.17.16-.35.25-.53 2.58-5.44 9.22-7.79 14.92-7.33 9.75.79 11.62 8.95 14.87 16.44 1.61 3.71 3.37 7.36 5.45 10.84.18.3.34.6.5.89 5.44 10.25-.5 20.76-.5 20.76" class="cls-4"/><path d="M81.29 55.23s-.07 1.57-.09 3.47c-.79.3-1.57.53-2.31.7-5.15 1.2-8.95-.35-8.95-.35-.02.16-.03.33-.04.49-.34 5.48.44 11.68.44 11.68.21 1.96-1.52 2.96-2.7 4.21-1.93 2.05-3.54 4.38-5.31 6.56-1.87 2.29-3.76 4.55-5.84 6.67-1.32 1.35-2.98 3.2-4.89 3.72-1.05.27-2.07.56-3.16.44-.96-.12-1.84-.52-2.83-.42-1.13.09-2.4 1.18-3.27 1.84-.24.18-.39.29-.39.29s-2.49 1.45-1.34 1.75c1.14.3 1.88.34 1.31.82-.47.39-.48 1.19-.12 1.68-29.12-17.86 7.32-37.66 7.32-37.66l.23-.63s.01-.02.01-.03c.47-1.07.72-2.1.64-3 .74-4.26 3.31-7.78 6.64-9.84 1.89-2.02 3.77-3.97 4.91-5.14h.02c.28.09 3.7 1.17 6.22 0 .42 1.77 1.01 3.56 1.82 5.21h.01c2.07 4.19 5.62 7.51 11.65 7.53h.02Z" class="cls-2"/><path d="M67.79 42.48c-2.52 1.18-5.94.1-6.22 0h-.02c.68-.7 1.1-1.12 1.1-1.12s3.96-4.16 1.81-8.29l-1.24.14c-.06.38-.17.75-.32 1.12-.42 1.01-.98 1.64-1.65 2.01-2.97 1.63-7.66-2.4-7.66-2.4s-1.87.88-1.87 0 .47-1.75-2.57-6.55-2.6-8.19-2.6-8.19c2.84-5.19 1.02 5.14 10.07.46.31-.16.54.44.83.64 1.83 1.24 2.2 11.17 9.39 10.43 0 0-.47 5.8.95 11.75Z" class="cls-4"/><path d="M38.88 114.79h39.83v7.66H38.88z" style="stroke:#000;stroke-linecap:round;stroke-linejoin:round;fill:#d6d6d6"/><path d="m78.29 97.02-5.71-1.38.53-11.01.03-.03h.01c.73-.7 1.54-1.35 2.25-2.08.86-.87 1.9-1.88 2.62-2.97.03-.04.06-.07.08-.12.04-.05.07-.11.1-.16v16.88s.04.26.08.73c0 .04.01.09.01.14Z" class="cls-4"/><path d="M38.88 114.79h27.57c12-3.27 12.07-14.55 11.84-17.77l-5.71-1.38.53-11.01c-.39.37-.79.74-1.21 1.11-2.08 1.9-4.39 3.8-6.43 5.08-4.93 3.11-11.33 8.3-12.18 8.91-.82.59-2.99 2.72-4.47 3.27-.03.01-.06.03-.09.03-1.48.51-2.32-.78-3.37-.84-1.05-.06-1.38-.57-2.23-1.18l-14.08 4.33s-3.52 1.19-1.44 14.81h11.27v-5.36Z" class="cls-2"/><path d="M78.34 97.03h-.05c0-.06-.01-.11-.01-.15l.06.15Z" class="cls-2"/><path d="M67.79 42.48c-2.52 1.18-5.94.1-6.22 0h-.02" class="cls-4"/><path d="m88.38 90.09-8.86-1.16" class="cls-9"/><path d="m119.94 96.4-25.96-3.65a4.702 4.702 0 0 0 .53-3.74l25.96 3.65-.53 3.74Z" class="cls-5"/><path d="m103 94.02-9.02-1.27a4.702 4.702 0 0 0 .53-3.74l9.02 1.27-.53 3.74Z" style="fill:#fce9b9;stroke:#000;stroke-linecap:round;stroke-linejoin:round"/><path d="m94.24 92.25-1.86-.26-1.33-.79-2.77-1.16 2.98-.34 1.5-.4 1.86.26c.15.92.01 1.86-.38 2.69ZM120.9 90.31l-1.19 8.47" class="cls-5"/><path d="M105.67 92.52h9.14v1.23h-9.14z" style="stroke:#000;stroke-linecap:round;stroke-linejoin:round" transform="rotate(98.01 110.244 93.122)"/><path d="m100.12 91.71-.26 1.87M98.1 91.42l-.27 1.87M96.05 91.13 95.79 93" class="cls-9"/><circle cx="75.71" cy="88.27" r=".94" style="stroke-miterlimit:10;stroke:#fce9b9;fill:#fce9b9"/><path d="m22.09 58.44 3.89 6.53 3.14-1.87 4.5 6.09-3.46-10.96-3.58.87-2.27-3.81-2.22 3.15zM21.81 72.22l3.78 2.02.69-1.78 3.89 1.63-5.06-4.26-1.2 1.43-2.21-1.17.11 2.13z" class="cls-8"/><path d="M54.68 27.05s-.71 1.75-2.62 1.33" class="cls-4"/><path d="M-3001.09-3875.04h6467.34v6437.3h-6467.34z" style="stroke:#fff;stroke-width:8px;fill:none;stroke-linecap:round;stroke-linejoin:round"/></svg>