<svg xmlns="http://www.w3.org/2000/svg" id="Calque_1" data-name="Calque 1" viewBox="0 0 128 128"><defs><style>.cls-2{stroke-linecap:round;stroke-linejoin:round}.cls-2,.cls-6{stroke:#000}.cls-2{fill:#fff}.cls-6{fill:none}.cls-9{fill:#222221}.cls-6{stroke-miterlimit:10}</style></defs><path d="m86.29 93.56.38 8.65H39.36c.77-4.1 1.78-8.1 1.78-8.1-3.43-2.17-7.3-5.59-10.79-9l7.36-8.84c3.98 1.6 7.9 2.81 10.59 3.24.79.12 1.47.18 2.01.15l26.95.38c.54-.18 1.3-.42 2.23-.73 2.73-.91 6.85-2.38 11.02-4.09l5.76 10.25c-3.3 3.11-6.84 6.12-9.96 8.09Z" style="stroke:#000;stroke-linecap:round;stroke-linejoin:round;fill:#87ccf3"/><path d="M90.86 66.64c.06 1.72-1.07 3.42-2.68 4.03-.98.37-2.08.32-3.05-.07-.95 2.7-2.4 5.22-4.31 7.35-5.96 6.67-16.1 9.04-24.57 6.15-6.54-2.23-11.88-7.38-14.79-13.66-.9.3-1.89.32-2.78-.02-1.61-.61-2.74-2.31-2.67-4.04.01-.51.13-1.01.26-1.51.09-.35.2-.71.38-1.03.57-.96 1.78-1.36 2.89-1.22.06-1.67.27-4.22.95-7.07.36-1.53.86-3.15 1.55-4.76 2.77-6.54 8.59-12.98 20.69-13.18 0 0 13.53-1.42 20.22 9.83.61 1.03 1.13 2.1 1.57 3.21a25.97 25.97 0 0 1 1.43 5.07c.45 2.42.59 4.92.48 7.38.18-.07.35-.12.51-.16 1.21-.3 2.64.09 3.27 1.16.18.32.29.67.38 1.03.14.49.25 1 .27 1.51ZM30.35 85.11c-5.81-5.68-10.56-11.36-10.56-11.36a9.908 9.908 0 0 1-3.15-3.13c-.4-.63-.73-1.43-.46-2.14.03-.08.07-.16.15-.19.14-.06.28.08.36.21l.85 1.24c-.33-.47-.67-.96-.81-1.53-.14-.57-.04-1.26.39-1.64.28.51.62.98 1.01 1.39-.54-.57-.77-1.45-.58-2.25.04-.16.1-.34.24-.42.23-.13.5.07.68.28.42.48.79 1.03 1.08 1.61-.33-.51-.56-1.11-.65-1.73-.04-.27-.05-.57.06-.82s.36-.45.62-.4c.13.03.25.12.35.22.74.71 1.11 1.76 1.71 2.6.08.11.18.22.3.22.1 0 .19-.07.25-.16.27-.33.34-.79.52-1.18.18-.39.62-.74.97-.53.25.14.32.48.36.78.09.81.22 1.54.04 2.34 2.45 2.54 8.07 5.5 13.61 7.73l-7.35 8.85ZM96.25 85.47l-5.76-10.25c5.51-2.25 11.06-4.95 13.41-7.4-.18-.79-.04-1.52.04-2.34.04-.3.11-.64.35-.77.37-.2.8.14.98.53.19.39.26.86.53 1.18.07.08.15.15.24.15.14 0 .23-.11.31-.22.6-.84.96-1.9 1.71-2.61.09-.1.22-.18.35-.22.24-.04.5.15.61.41.11.26.1.54.05.83-.05.42-.19.84-.38 1.24.24-.39.52-.77.81-1.13.19-.2.45-.41.69-.29.14.08.2.26.24.42.18.8-.05 1.68-.58 2.25.39-.42.73-.88 1-1.4.43.38.53 1.07.39 1.64-.09.43-.31.81-.56 1.17.19-.3.39-.58.6-.88.1-.12.23-.27.37-.22.07.04.11.12.15.2.27.71-.07 1.51-.46 2.13-.81 1.29-1.9 2.38-3.15 3.14 0 0-5.55 6.41-11.97 12.42Z" class="cls-2"/><path d="M50.56 64.13c0 .81-.56 1.47-1.24 1.47s-1.24-.66-1.24-1.47.56-1.47 1.24-1.47 1.24.66 1.24 1.47ZM78.78 64.13c0 .81-.56 1.47-1.24 1.47s-1.24-.66-1.24-1.47.56-1.47 1.24-1.47 1.24.66 1.24 1.47Z" class="cls-9"/><path d="M63.89 68.92c.66-.32 1.13-1.03 1.11-1.76-.02-.73-.59-1.43-1.31-1.54-.4-.06-.8.04-1.19.14" style="fill:none;stroke:#222221;stroke-linecap:round;stroke-linejoin:round"/><path d="M104.57 42.67c-3.48 12.39-13.06 14.01-18.62 13.05-.22-.04-.42-.08-.62-.12-9.3 2.26-17.34 3.02-23.98 3.02-11.56 0-18.81-2.32-20.86-3.07.36-1.53.86-3.15 1.55-4.76 1.86.69 17.51 6.01 42.48-.14.07-.02.14-.03.21-.05l.63-.16.63.17c1.05.28 10.48 2.41 13.76-9.3l4.82 1.36Z" style="stroke-miterlimit:10;fill:#f3d587;stroke:#000"/><path d="m43.7 51.33-1.26 4.86M46.77 52.35l-.95 4.93M49.85 52.7l-.82 4.95M52.99 53.44l-.5 4.99M56.31 53.48l-.4 5M59.51 53.95l-.09 5.02M63.16 53.41l.13 5.02M66.38 53.55l.46 4.99M69.83 53.31l.59 4.98M73.05 53.14l.91 4.93M76.5 52.26l.6 4.98M79.02 52.09l.91 4.94M81.85 51.06l.59 4.98M85.07 50.9l.91 4.93" class="cls-6"/><path d="M84.54 53.55c-9.3 1.91-16.86 3.54-23.49 3.18-11.72-.65-17.42-2.31-19.47-2.95.36-1.3-.02-1.01.67-2.37 1.86.58 17.14 5.51 41.17 0" style="fill:#f3d587"/><path d="M88.12 55.94v-1.87M91.14 55.64l-.19-1.85M94.31 54.97l-.49-1.8M97.13 53.74l-.78-1.69M99.9 51.71l-1.28-1.36M101.54 49.26l-1.37-.88M103.23 46.41l-1.69-.78M81.41 41.44c5.37.68 8.74 1.67 8.74 2.76 0 2.06-11.96 3.74-26.72 3.74s-26.72-1.67-26.72-3.74c0-1.09 3.34-2.07 8.66-2.75" class="cls-6"/><path d="m83.15 43.43-1.45-1.92 1.92-1.44-1.42-.2-1.92 1.44 1.44 1.91 1.43.21zM43.64 43.44l1.44-1.92-1.91-1.44 1.42-.2 1.92 1.44-1.44 1.91-1.43.21z"/><path d="M57.34 26.09c.31-.2.68-.3 1.13-.3.59 0 1.08.14 1.47.42s.58.7.58 1.25c0 .34-.08.62-.25.86-.1.14-.29.32-.57.54l-.28.21c-.15.12-.25.25-.3.41-.03.1-.05.25-.05.46h-1.06c.02-.44.06-.74.12-.91.07-.17.24-.36.52-.58l.28-.22c.09-.07.17-.15.23-.23.1-.14.16-.3.16-.47 0-.2-.06-.38-.17-.54-.12-.16-.33-.24-.63-.24s-.52.1-.64.3c-.13.2-.19.41-.19.62h-1.13c.03-.74.29-1.27.78-1.58Zm.65 4.39h1.17v1.13h-1.17v-1.13Z" style="fill:#d6d6d6"/><path d="M64.03 28.87a.937.937 0 0 0-.16-.43c-.13-.17-.32-.26-.58-.26-.38 0-.63.19-.77.56-.07.2-.11.46-.11.79s.04.56.11.75c.13.35.38.53.75.53.26 0 .45-.07.56-.21.11-.14.18-.32.2-.55h1.14c-.03.34-.15.66-.37.96-.35.49-.87.73-1.55.73s-1.19-.2-1.51-.61c-.32-.41-.48-.93-.48-1.58 0-.73.18-1.3.54-1.71.36-.41.85-.61 1.48-.61.53 0 .97.12 1.31.36.34.24.54.66.6 1.27h-1.14ZM71.25 27.36c.18.07.35.2.5.38.12.15.2.33.24.55.03.14.04.35.04.63v2.68h-1.15v-2.71c0-.16-.03-.29-.08-.4-.1-.2-.28-.3-.55-.3-.31 0-.52.13-.64.38-.06.14-.09.3-.09.49v2.54H68.4v-2.54c0-.25-.03-.44-.08-.55-.09-.21-.28-.31-.55-.31-.32 0-.53.1-.64.31-.06.12-.09.29-.09.52v2.56h-1.13v-4.25h1.08v.62c.14-.22.27-.38.39-.47.22-.17.5-.25.84-.25.33 0 .59.07.79.21.16.13.28.3.37.51.15-.25.33-.43.54-.55.23-.12.48-.18.77-.18.19 0 .37.04.55.11Z"/><path d="M-2337.44-4096.59H4129.9v6437.3h-6467.34z" style="stroke:#fff;stroke-width:8px;fill:none;stroke-linecap:round;stroke-linejoin:round"/></svg>