<svg xmlns="http://www.w3.org/2000/svg" viewBox="0 0 200 128"><defs><style>.cls-2,.cls-3,.cls-4,.cls-7,.cls-9{stroke:#000}.cls-2{stroke-linecap:round;stroke-linejoin:round}.cls-2,.cls-3{fill:#fff}.cls-3,.cls-4{stroke-width:2px}.cls-3,.cls-4,.cls-7,.cls-9{stroke-miterlimit:10}.cls-4{fill:#87ccf3}.cls-9{fill:none}.cls-7{fill:#d6d6d6}</style></defs><g style="isolation:isolate"><g id="Calque_1" data-name="Calque 1"><path d="M67.44 20.55c.27-.48.72-.84 1.22-1.07.75-.35 1.61-.44 2.42-.26.65.15 1.25.47 1.87.72.61.25 1.25.44 1.9.58.65.14 1.32.23 1.92.52.6.29 1.13.83 1.19 1.49.05.59-.29 1.16-.71 1.57-.32.31-.71.57-1.15.63-.47.07-.95-.1-1.4-.26-1.88-.66-3.79-1.2-5.73-1.64-.49-.11-1.19-.23-1.53-.65-.35-.44-.24-1.18 0-1.64Z" class="cls-3"/><path d="M91.85 26.77s-4.09 6.07-10.33 3.75c-6.24-2.32-12.17-10.28-20.44-7.37-8.27 2.9-12.34 10.16-10.01 17.71 2.32 7.54 8.56 10.88 14.51 10.74 5.95-.15 14.41-2.73 18.38-3.91 3.97-1.17 8.91.26 10.36 2.44 1.45 2.19 18.72 1.46 18.72 1.46l42.67.11 1.6-26.68-2.61-8.71-18.43 3.34-27.43 2.58-16.98 4.53Z" class="cls-3"/><path d="M91.58 36.05s.2-4.31-.89-8.01c0 0 2.03-6.13 2.25-7.95.22-1.81 2.68-7.04 7.62-7.4 4.93-.36 9.8.05 14.69 1.47 4.9 1.41 12.28 4.74 16.11 5.17 3.83.43 19.95-2.4 19.95-2.4s-9.32 2.51-16.65 5.85c-7.33 3.34-26.91 7.33-30.8 9.07-3.89 1.74-12.28 4.21-12.28 4.21Z" class="cls-4"/><path d="M91.58 36.05s-.07 10 0 12.69c.07 2.69 1.96 5.75 5.88 6.36 3.92.61 23.81.04 27.51-.18 3.7-.22 34.67 2.08 29.16-2.84 0 0-24.63-3.05-31.29-3.48-6.66-.44-18.49-3.05-23.06-5.01s-8.2-7.55-8.2-7.55Z" class="cls-4"/><path d="M151.31 54.93c.24-1.12 1.59-7.12 1.73-8.37.38-3.47.37-7.36.17-11.13v-.23c-.03-.63-.07-1.24-.12-1.85l-.02-.03c-.59-8.53-2.04-16.03-2.08-16.31l-.02-.02.02-.02h.05l.02-.02c.99-.45 2.02-.91 2.93-1.31 1.73-.73 3.58-1.12 5.46-1.1 4.53.03 7.74.94 9.96 2.01v38.37" class="cls-4"/><path d="M15.94 25.08v85.91H7.43V25.08c0-2.35 1.91-4.25 4.25-4.25 1.17 0 2.24.48 3.01 1.25.05.05.11.11.16.17.68.75 1.09 1.75 1.09 2.84ZM169.42 54.93v17.55H15.98V66.5c0-3.89 1.92-7.33 4.85-9.42a11.5 11.5 0 0 1 6.72-2.15h141.87ZM15.94 86.49h153.47v6.02H15.94z" class="cls-7"/><circle cx="11.68" cy="115.38" r="8.87" class="cls-7"/><circle cx="11.68" cy="115.38" r="5" style="mix-blend-mode:multiply;opacity:.8;fill:#d6d6d6;stroke-miterlimit:10;stroke:#000"/><path d="M15.98 72.47h153.44v13.69H15.98z" class="cls-7"/><rect width="63.97" height="8.51" x="27.57" y="46.7" rx="4.26" ry="4.26" style="fill:#b2f0e9;stroke-miterlimit:10;stroke:#000"/><path d="M62.96 22.63s7.89-2.59 14.31 2.97 9.26 14.22 4.92 20.04H53.42s-2.47-.13-2.57-5.58c0 0-1.17 1.13-1.17 3.38 0 0-7.83-19.47 13.28-20.81Z" style="stroke-width:2px;fill:#fff;stroke-linecap:round;stroke-linejoin:round;stroke:#000"/><ellipse cx="145.08" cy="36.36" rx="1.44" ry="1.62" style="fill:#ff6d75"/><path d="m155.66 30.22-10.07 5.49" class="cls-9"/><path d="m193.16 12.92-29.68 15.83c-.02-.24-.05-.48-.1-.71-.22-1.16-.8-2.24-1.64-3.08-.17-.17-.35-.33-.54-.48l29.68-15.83 2.28 4.27Z" class="cls-2"/><path d="m173.79 23.24-10.32 5.5c-.02-.24-.05-.48-.1-.71-.22-1.16-.8-2.24-1.64-3.08-.17-.17-.35-.33-.54-.48l10.32-5.5 2.28 4.27Z" style="stroke-linecap:round;stroke-linejoin:round;stroke:#000;fill:#ffd4ad"/><path d="m163.38 28.03-2.12 1.13-1.98.18-3.75.89 2.83-2.61 1.26-1.54 2.12-1.13c.84.84 1.42 1.92 1.64 3.08Z" class="cls-2"/><path d="m189.56 5.88 5.16 9.68" style="fill:none;stroke-width:2px;stroke-linecap:round;stroke-linejoin:round;stroke:#000"/><path d="m178.577 11.3 5.52 10.35-1.395.743-5.52-10.35z"/><path d="m169.06 23.02 1.14 2.14M166.75 24.26l1.14 2.14M164.41 25.5l1.14 2.14" class="cls-9"/><path d="M-2732.68-3875.04h6467.34v6437.3h-6467.34z" style="stroke:#fff;stroke-width:8px;fill:none;stroke-linecap:round;stroke-linejoin:round"/></g></g></svg>