<svg xmlns="http://www.w3.org/2000/svg" id="Calque_1" data-name="Calque 1" viewBox="0 0 128 128"><defs><style>.cls-1,.cls-2{fill:#fff}.cls-6{stroke-linecap:round}.cls-2,.cls-6{stroke-linejoin:round;stroke:#000;stroke-width:2px}.cls-6{fill:#a07637}</style></defs><path d="M61.93 29.66c-1.6 0-3.16-.3-4.63-.89-3.76-1.51-6.64-4.9-7.52-8.85-.9-4.06.35-8.42 3.25-11.39a12.59 12.59 0 0 1 8.95-3.75c.79 0 1.58.08 2.35.23 3.97.77 7.43 3.57 9.04 7.3 1.65 3.83 1.23 8.37-1.1 11.84-2.29 3.4-6.25 5.52-10.34 5.52Z" style="fill:#87f3b9"/><path d="M61.97 5.78c.73 0 1.45.07 2.16.21 3.65.71 6.84 3.28 8.31 6.71 1.52 3.53 1.13 7.7-1.01 10.89-2.1 3.13-5.75 5.08-9.51 5.08-1.47 0-2.91-.28-4.26-.82-3.46-1.39-6.11-4.51-6.91-8.14-.82-3.73.32-7.75 2.99-10.47 2.14-2.19 5.14-3.45 8.23-3.45m0-2c-3.59 0-7.12 1.44-9.66 4.05-3.14 3.22-4.48 7.91-3.51 12.3.95 4.29 4.04 7.93 8.12 9.57 1.59.64 3.3.96 5.01.96 4.45 0 8.69-2.27 11.17-5.96 2.51-3.75 2.97-8.64 1.18-12.79-1.74-4.04-5.45-7.04-9.77-7.89-.84-.16-1.7-.24-2.54-.24Z"/><path d="M77.54 64.65s-.01.09-.06.24c-.01.05-.05.11-.06.17-.01-.11.06-.33.12-.41Z" style="fill:#afaff9"/><path d="M77.54 64.65c-.06.08-.14.3-.12.41.02-.06.05-.12.06-.17.05-.15.06-.23.06-.24Z"/><path d="M87.2 54.81c-.03 2.02-.08 4.02-.29 6.04-.24 3.92-1.05 4.11-1.05 4.11a3.999 3.999 0 0 1-4.49 1.34c-2.64-.73-2.64-3.49-2.64-3.49-.02-.09-.02-.18-.02-.29v-.21c.02-.94.05-1.9.02-2.85-.06-1.4-.14-2.78-.26-4.18-.2-1.43-.33-2.9-.73-4.28-.44-1.97-1.09-3.93-2.05-5.71l-.35-.65-.38-.62c-.21-.36-.46-.7-.7-1.03l-1.49 75.66c-.01.32-.06.64-.14.94-.56 2.2-2.7 3.69-4.93 3.49-2.29-.21-4.11-2.14-4.24-4.42l-1.53-45.63-1.47 45.61c-.03.32-.08.64-.15.94-.55 2.19-2.69 3.69-4.93 3.49-2.28-.21-4.11-2.14-4.22-4.42l-1.47-75.81c-.26.39-.56.76-.79 1.17l-.39.62-.33.65c-.96 1.78-1.61 3.74-2.05 5.71-.39 1.38-.55 2.85-.73 4.28-.12 1.4-.2 2.78-.26 4.18-.03.96 0 1.91.02 2.85v.2c.01 2.1-1.65 3.89-3.75 4.02-2.1.12-3.96-1.47-4.21-3.55-.12-1.14-.27-2.28-.35-3.42-.11-1.59-.15-3.16-.18-4.75.06-1.81.09-3.63.36-5.41.35-2.78 1-5.56 2.06-8.15l.41-1.03c.5-1.03 1-2.02 1.56-3.01 1.17-1.91 2.52-3.66 4.11-5.22.53-.47 1.05-.96 1.58-1.38.53-.44 1.08-.82 1.59-1.2.55-.35 1.06-.7 1.59-.99.18-.11.38-.21.56-.32 2.32 2.55 5.47 4.3 8.87 4.87 5.18.88 10.54-.96 14.07-4.83.71.38 1.38.82 2.07 1.26.53.38 1.08.76 1.59 1.2.55.43 1.05.91 1.58 1.38 1.59 1.56 2.95 3.33 4.11 5.22.56.99 1.08 1.97 1.56 3.01l.41 1.03c1.05 2.6 1.72 5.37 2.07 8.15.29 1.78.3 3.6.36 5.41Z" style="stroke:#000;stroke-width:2px;stroke-linejoin:round;stroke-linecap:round;fill:#87f3b9"/><path d="M81.37 66.3c-.14.32-.21.65-.23 1-.02.27-.02.52-.09.77-.14.47-.46.88-.87 1.15-.93.59-2.19.33-2.82-.56-1-1.7.06-3.61.06-3.61.02-.06.05-.12.06-.17.29-.77.73-1.47 1.25-2.08 0 0 0 2.76 2.64 3.49ZM91.34 67.49v52.11c0 1.14-.94 2.08-2.06 2.08s-2.06-.94-2.06-2.08V67.49c0-1.05-.53-1.97-1.35-2.52 0 0 .8-.2 1.05-4.11a7.183 7.183 0 0 1 4.43 6.64Z" class="cls-6"/><path d="M56.97 21.16c-1.78 0-3.23-1.45-3.23-3.23s1.45-3.23 3.23-3.23 3.23 1.45 3.23 3.23-1.45 3.23-3.23 3.23Z" class="cls-1"/><path d="M56.97 15.69c1.23 0 2.23 1 2.23 2.23s-1 2.23-2.23 2.23-2.23-1-2.23-2.23 1-2.23 2.23-2.23m0-2c-2.34 0-4.23 1.9-4.23 4.23s1.9 4.23 4.23 4.23 4.23-1.9 4.23-4.23-1.9-4.23-4.23-4.23Z"/><path d="M66.89 21.16c-1.78 0-3.23-1.45-3.23-3.23s1.45-3.23 3.23-3.23 3.23 1.45 3.23 3.23-1.45 3.23-3.23 3.23Z" class="cls-1"/><path d="M66.89 15.69c1.23 0 2.23 1 2.23 2.23s-1 2.23-2.23 2.23-2.23-1-2.23-2.23 1-2.23 2.23-2.23m0-2c-2.34 0-4.23 1.9-4.23 4.23s1.9 4.23 4.23 4.23 4.23-1.9 4.23-4.23-1.9-4.23-4.23-4.23Z"/><path d="M60.52 17.93h3.11" style="fill:none;stroke:#000;stroke-width:2px;stroke-linejoin:round;stroke-linecap:round"/><path d="m53.96 18.06-4.15-2.89M69.96 18.06l4.15-2.89" class="cls-2"/><path d="M-841.16-314.74H815.22v875.1H-841.16z" style="stroke:#fff;stroke-width:8px;fill:none;stroke-linejoin:round;stroke-linecap:round"/></svg>