<svg xmlns="http://www.w3.org/2000/svg" id="Calque_1" data-name="Calque 1" viewBox="0 0 200 128"><defs><style>.cls-3,.cls-4{fill:#fff}.cls-5{fill:#afaff9}.cls-8,.cls-9{stroke-linecap:round}.cls-4,.cls-8,.cls-9{stroke-linejoin:round;stroke:#000;stroke-width:2px}.cls-8{fill:#a07637}.cls-9{fill:none}</style></defs><path d="M75.95 32.31c-1.5 0-2.96-.28-4.34-.83-3.52-1.41-6.21-4.59-7.03-8.28-.84-3.8.33-7.88 3.04-10.65 2.17-2.23 5.23-3.51 8.37-3.51.74 0 1.48.07 2.2.21 3.71.72 6.95 3.34 8.46 6.83 1.54 3.59 1.15 7.83-1.03 11.07-2.14 3.18-5.84 5.16-9.67 5.16Z" style="fill:#f3d587"/><path d="M75.99 10.03c.68 0 1.35.07 2.01.19 3.39.66 6.36 3.05 7.73 6.24 1.41 3.28 1.05 7.16-.94 10.12-1.96 2.91-5.34 4.72-8.84 4.72-1.37 0-2.7-.26-3.96-.76-3.22-1.29-5.68-4.19-6.43-7.57-.77-3.47.3-7.2 2.78-9.74 1.99-2.04 4.78-3.2 7.66-3.2m0-2c-3.38 0-6.7 1.36-9.09 3.81-2.96 3.03-4.21 7.44-3.3 11.57.89 4.04 3.8 7.46 7.64 9 1.5.6 3.1.91 4.71.91 4.18 0 8.17-2.13 10.5-5.61 2.36-3.52 2.79-8.13 1.11-12.03-1.64-3.8-5.13-6.62-9.18-7.41-.79-.15-1.59-.23-2.39-.23Z"/><path d="M90.63 65.26s-.01.09-.06.23c-.01.04-.04.1-.06.16-.01-.1.06-.31.11-.39Z" class="cls-5"/><path d="M90.63 65.26c-.06.07-.13.29-.11.39.01-.06.04-.11.06-.16.04-.14.06-.21.06-.23Z"/><path d="M99.7 56.02c-.03 1.9-.06 3.78-.27 5.68-.23 3.68-.97 3.87-.97 3.87-.99 1.28-2.71 1.8-4.23 1.26-2.48-.69-2.48-3.28-2.48-3.28-.01-.09-.01-.17-.01-.27v-.2c.01-.89.03-1.78.01-2.68-.06-1.31-.14-2.61-.26-3.93-.17-1.34-.3-2.73-.69-4.03-.41-1.86-1.01-3.7-1.91-5.37l-.34-.61-.36-.59c-.19-.34-.41-.66-.66-.97l-.02 18.72 5.93 38.84H86.4l-.27 13.58c0 .3-.04.6-.11.89-.54 2.07-2.54 3.47-4.64 3.28-2.17-.2-3.87-2.01-3.98-4.15l-.46-13.59h-1.93l-.44 13.58c-.03.3-.07.6-.16.89-.5 2.06-2.53 3.47-4.64 3.28-2.14-.2-3.87-2.01-3.95-4.15l-.27-13.59h-8.23l7.12-38.82-.02-18.88c-.23.37-.51.71-.74 1.1l-.36.59-.33.61c-.88 1.67-1.51 3.51-1.93 5.37-.36 1.3-.51 2.68-.67 4.03-.11 1.31-.2 2.61-.26 3.93-.03.9 0 1.8.03 2.68v.19c0 1.97-1.56 3.65-3.54 3.78-1.96.11-3.71-1.38-3.95-3.34-.11-1.07-.24-2.14-.33-3.21-.09-1.5-.14-2.97-.16-4.47.04-1.7.07-3.41.34-5.08.33-2.61.94-5.23 1.93-7.67l.39-.97c.49-.97.96-1.9 1.48-2.83 1.1-1.8 2.36-3.44 3.87-4.91.5-.44.99-.9 1.48-1.3.5-.41 1.01-.77 1.5-1.13.5-.33 1-.66 1.5-.93.16-.1.36-.2.51-.3 2.2 2.4 5.15 4.04 8.35 4.58 4.85.83 9.91-.9 13.22-4.54.69.36 1.3.77 1.96 1.18.49.36 1.01.71 1.48 1.13.53.4.99.86 1.5 1.3 1.48 1.47 2.76 3.13 3.86 4.91.54.93 1.01 1.86 1.48 2.83l.37.97c1 2.44 1.63 5.05 1.96 7.67.27 1.67.29 3.38.33 5.08Z" style="stroke:#000;stroke-width:2px;stroke-linejoin:round;stroke-linecap:round;fill:#f3d587"/><path d="M94.23 66.82c-.13.3-.2.61-.21.94-.01.26-.01.49-.09.73-.13.44-.43.83-.81 1.09-.87.56-2.06.31-2.66-.53-.94-1.6.06-3.4.06-3.4.01-.06.04-.11.06-.16.27-.73.69-1.38 1.17-1.96 0 0 0 2.6 2.48 3.28ZM103.61 67.93v49c0 1.07-.88 1.96-1.94 1.96s-1.94-.88-1.94-1.96v-49c0-.99-.5-1.86-1.27-2.37 0 0 .76-.19.99-3.87a6.766 6.766 0 0 1 4.17 6.24Z" class="cls-8"/><path d="M137.3 32.31c-1.5 0-2.96-.28-4.34-.83-3.52-1.41-6.21-4.59-7.03-8.28-.84-3.8.33-7.88 3.04-10.65 2.17-2.23 5.23-3.51 8.37-3.51.74 0 1.48.07 2.2.21 3.71.72 6.95 3.34 8.46 6.83 1.54 3.59 1.15 7.83-1.03 11.07-2.14 3.18-5.84 5.16-9.67 5.16Z" style="fill:#87f3b9"/><path d="M137.34 10.03c.68 0 1.35.07 2.01.19 3.39.66 6.36 3.05 7.73 6.24 1.41 3.28 1.05 7.16-.94 10.12-1.96 2.91-5.34 4.72-8.84 4.72-1.37 0-2.7-.26-3.96-.76-3.22-1.29-5.68-4.19-6.43-7.57-.77-3.47.3-7.2 2.78-9.74 1.99-2.04 4.78-3.2 7.66-3.2m0-2c-3.38 0-6.7 1.36-9.09 3.81-2.96 3.03-4.21 7.44-3.3 11.57.89 4.04 3.8 7.46 7.64 9 1.5.6 3.1.91 4.71.91 4.18 0 8.17-2.13 10.5-5.61 2.36-3.52 2.79-8.13 1.11-12.03-1.64-3.8-5.13-6.62-9.18-7.41-.79-.15-1.59-.23-2.39-.23Z"/><path d="M151.98 65.27s-.01.09-.06.23c-.01.04-.04.1-.06.16-.01-.1.06-.31.11-.39Z" class="cls-5"/><path d="M151.98 65.27c-.06.07-.13.29-.11.39.01-.06.04-.11.06-.16.04-.14.06-.21.06-.23Z"/><path d="M161.06 56.01c-.03 1.9-.07 3.78-.27 5.68-.23 3.68-.99 3.87-.99 3.87-.99 1.29-2.7 1.8-4.23 1.26-2.48-.69-2.48-3.28-2.48-3.28-.01-.09-.01-.17-.01-.27v-.2c.01-.88.04-1.78.01-2.68-.06-1.31-.13-2.61-.24-3.93-.19-1.34-.31-2.73-.69-4.03-.41-1.86-1.03-3.7-1.93-5.37l-.33-.61-.36-.59c-.2-.34-.43-.66-.66-.97l-1.4 71.14c-.01.3-.06.6-.13.88-.53 2.07-2.54 3.47-4.64 3.28-2.16-.2-3.87-2.01-3.98-4.15l-1.44-42.9-1.39 42.89c-.03.3-.07.6-.14.88-.51 2.06-2.53 3.47-4.64 3.28-2.14-.2-3.87-2.01-3.97-4.15l-1.39-71.28c-.24.37-.53.71-.74 1.1l-.37.59-.31.61c-.9 1.67-1.51 3.51-1.93 5.37-.37 1.3-.51 2.68-.68 4.03-.11 1.31-.19 2.61-.24 3.93-.03.9 0 1.8.01 2.68v.19c.01 1.97-1.56 3.65-3.53 3.78-1.97.11-3.73-1.38-3.95-3.34-.11-1.07-.26-2.14-.33-3.21-.1-1.5-.14-2.97-.17-4.47.06-1.7.09-3.41.34-5.08.33-2.61.94-5.23 1.94-7.67l.39-.97c.47-.97.94-1.9 1.47-2.83 1.1-1.8 2.37-3.44 3.87-4.91.5-.44.99-.9 1.48-1.3.5-.41 1.01-.77 1.5-1.13.51-.33 1-.66 1.5-.93.17-.1.36-.2.53-.3 2.18 2.4 5.14 4.04 8.34 4.58 4.87.83 9.91-.9 13.23-4.54.67.36 1.3.77 1.94 1.19.5.36 1.01.71 1.5 1.13.51.4.99.86 1.48 1.3 1.5 1.47 2.77 3.13 3.87 4.91.53.93 1.01 1.86 1.47 2.83l.38.97c.99 2.44 1.61 5.05 1.94 7.67.27 1.67.29 3.38.34 5.08Z" style="stroke:#000;stroke-width:2px;stroke-linejoin:round;stroke-linecap:round;fill:#87f3b9"/><path d="M155.58 66.82c-.13.3-.2.61-.21.94-.01.26-.01.49-.09.73-.13.44-.43.83-.81 1.09-.87.56-2.06.31-2.66-.53-.94-1.6.06-3.4.06-3.4.01-.06.04-.11.06-.16.27-.73.69-1.38 1.17-1.96 0 0 0 2.6 2.48 3.28ZM164.96 67.94v49c0 1.07-.88 1.96-1.94 1.96s-1.94-.88-1.94-1.96v-49c0-.99-.5-1.86-1.27-2.37 0 0 .76-.19.99-3.87a6.766 6.766 0 0 1 4.17 6.24Z" class="cls-8"/><path d="M71.28 24.32c-1.64 0-2.98-1.34-2.98-2.98s1.34-2.98 2.98-2.98 2.98 1.34 2.98 2.98-1.34 2.98-2.98 2.98Z" class="cls-3"/><path d="M71.28 19.35c1.09 0 1.98.89 1.98 1.98s-.89 1.98-1.98 1.98-1.98-.89-1.98-1.98.89-1.98 1.98-1.98m0-2c-2.2 0-3.98 1.78-3.98 3.98s1.78 3.98 3.98 3.98 3.98-1.78 3.98-3.98-1.78-3.98-3.98-3.98Z"/><path d="M80.61 24.32c-1.64 0-2.98-1.34-2.98-2.98s1.34-2.98 2.98-2.98 2.98 1.34 2.98 2.98-1.34 2.98-2.98 2.98Z" class="cls-3"/><path d="M80.61 19.35c1.09 0 1.98.89 1.98 1.98s-.89 1.98-1.98 1.98-1.98-.89-1.98-1.98.89-1.98 1.98-1.98m0-2c-2.2 0-3.98 1.78-3.98 3.98s1.78 3.98 3.98 3.98 3.98-1.78 3.98-3.98-1.78-3.98-3.98-3.98Z"/><path d="M74.63 21.33h2.91" class="cls-9"/><path d="m68.45 21.46-3.9-2.72M83.5 21.46l3.9-2.72" class="cls-4"/><circle cx="132.64" cy="21.34" r="2.98" class="cls-3"/><path d="M132.64 19.36c1.09 0 1.98.89 1.98 1.98s-.89 1.98-1.98 1.98-1.98-.89-1.98-1.98.89-1.98 1.98-1.98m0-2c-2.2 0-3.98 1.78-3.98 3.98s1.78 3.98 3.98 3.98 3.98-1.78 3.98-3.98-1.78-3.98-3.98-3.98Z"/><path d="M141.96 24.32c-1.64 0-2.98-1.34-2.98-2.98s1.34-2.98 2.98-2.98 2.98 1.34 2.98 2.98-1.34 2.98-2.98 2.98Z" class="cls-3"/><path d="M141.96 19.36c1.09 0 1.98.89 1.98 1.98s-.89 1.98-1.98 1.98-1.98-.89-1.98-1.98.89-1.98 1.98-1.98m0-2c-2.2 0-3.98 1.78-3.98 3.98s1.78 3.98 3.98 3.98 3.98-1.78 3.98-3.98-1.78-3.98-3.98-3.98Z"/><path d="M135.98 21.34h2.91" class="cls-9"/><path d="m129.8 21.46-3.9-2.72M144.85 21.46l3.9-2.72" class="cls-4"/><path d="M-67.61-603.76h1656.38v875.1H-67.61z" style="stroke:#fff;stroke-width:8px;fill:none;stroke-linejoin:round;stroke-linecap:round"/></svg>