<svg xmlns="http://www.w3.org/2000/svg" id="Calque_1" viewBox="0 0 200.13 128.13"><defs><style>.cls-2,.cls-6,.cls-8,.cls-9{stroke:#000;stroke-miterlimit:10}.cls-2{fill:none}.cls-8{fill:#fff}.cls-6{fill:#ff6d75}.cls-9{fill:#f3d587}</style></defs><path d="M-534.98-269.94H2120.1v1511.77H-534.98z" style="fill:none;stroke:#e30613;stroke-linecap:round;stroke-linejoin:round;stroke-width:8px"/><path d="M10.66 52.99h174.91v51.22H10.66z" style="fill:#a1c8e1;stroke-miterlimit:10;stroke:#000"/><path d="m15.53 110.97-4.78-6.76h174.82l4.08 6.76H15.53z" style="fill:#fff;stroke-miterlimit:1;stroke:#000"/><path d="m10.684 52.985 24.98-.035.071 51.22-24.98.035z" class="cls-8"/><path d="m35.664 52.95 24.98-.035.071 51.22-24.98.035zM60.654 52.925l24.98-.035.071 51.22-24.98.035zM85.634 52.88l24.98-.035.071 51.22-24.98.035zM110.624 52.845l24.98-.034.071 51.22-24.98.034z" class="cls-8"/><path d="m135.604 52.82 24.98-.034.071 51.22-24.98.035zM160.594 52.776l24.98-.035.071 51.22-24.98.035z" class="cls-8"/><path d="m50.92 74.77-.87-4.98 7.49-1.3.87 4.98a3.803 3.803 0 0 1-3.09 4.39c-1.03.18-2.04-.08-2.84-.64-.8-.56-1.38-1.42-1.56-2.45Z" class="cls-6"/><path d="m50.05 69.79-.87-4.98c-.36-2.06 1.03-4.04 3.1-4.4s4.03 1.03 4.39 3.1l.87 4.98-7.49 1.3Z" class="cls-9"/><circle cx="48.59" cy="91.84" r="6.26" class="cls-8" transform="rotate(-74.5 48.581 91.839)"/><path d="m51.59 97.33-5.88-11.04" class="cls-9"/><circle cx="45" cy="78.59" r="3.41" class="cls-8" transform="rotate(-74.5 44.991 78.586)"/><path d="m46.63 81.59-3.21-6.03" class="cls-9"/><path d="m73.87 84.93 2.55 4.36-6.56 3.84-2.55-4.36c-1.05-1.8-.44-4.14 1.36-5.19.9-.53 1.94-.64 2.88-.39.94.24 1.79.85 2.32 1.75Z" style="fill:#77eddf;stroke-miterlimit:10;stroke:#000"/><path d="m76.42 89.29 2.55 4.36c1.06 1.81.44 4.15-1.37 5.21-1.8 1.05-4.14.44-5.2-1.37l-2.55-4.36 6.56-3.84Z" class="cls-8"/><circle cx="75.51" cy="63.01" r="6.26" class="cls-8"/><path d="m70.78 58.91 9.36 8.3" class="cls-9"/><circle cx="67.7" cy="75.56" r="3.41" class="cls-8"/><path d="m65.12 73.32 5.11 4.53" class="cls-9"/><path d="m98.8 97.45-.87-4.98 7.49-1.3.87 4.98a3.803 3.803 0 0 1-3.09 4.39c-1.03.18-2.04-.08-2.84-.64-.8-.56-1.38-1.42-1.56-2.45Z" class="cls-6"/><path d="m97.94 92.47-.87-4.98c-.36-2.06 1.03-4.04 3.1-4.4s4.03 1.03 4.39 3.1l.87 4.98-7.49 1.3Z" class="cls-9"/><circle cx="95.64" cy="65.9" r="6.26" class="cls-8" transform="rotate(-4.05 95.51 65.818)"/><path d="m89.43 66.57 12.45-1.21" class="cls-9"/><circle cx="92.77" cy="91.81" r="3.41" class="cls-8" transform="rotate(-74.5 92.77 91.808)"/><path d="m94.41 94.81-3.21-6.03" class="cls-9"/><path d="m124.07 81.19-.87-4.98 7.49-1.3.87 4.98a3.803 3.803 0 0 1-3.09 4.39c-1.03.18-2.04-.08-2.84-.64-.8-.56-1.38-1.42-1.56-2.45Z" class="cls-6"/><path d="m123.2 76.21-.87-4.98c-.36-2.06 1.03-4.04 3.1-4.4s4.03 1.03 4.39 3.1l.87 4.98-7.49 1.3Z" class="cls-9"/><circle cx="122.28" cy="93.13" r="6.26" class="cls-8" transform="rotate(-74.5 122.27 93.122)"/><path d="m125.28 98.61-5.88-11.04" class="cls-9"/><circle cx="116.48" cy="78.08" r="3.41" class="cls-8" transform="rotate(-74.5 116.474 78.077)"/><path d="m118.12 81.08-3.21-6.03" class="cls-9"/><path d="m147.81 97.45-.87-4.98 7.49-1.3.87 4.98a3.803 3.803 0 0 1-3.09 4.39c-1.03.18-2.04-.08-2.84-.64-.8-.56-1.38-1.42-1.56-2.45Z" class="cls-6"/><path d="m146.95 92.47-.87-4.98a3.812 3.812 0 0 1 3.1-4.4c2.06-.36 4.03 1.03 4.39 3.1l.87 4.98-7.49 1.3Z" class="cls-9"/><circle cx="144.66" cy="65.89" r="6.26" class="cls-8" transform="rotate(-74.5 144.65 65.89)"/><path d="m147.66 71.38-5.88-11.05" class="cls-9"/><circle cx="143.03" cy="78.59" r="3.41" class="cls-8" transform="rotate(-74.5 143.012 78.592)"/><path d="m144.66 81.59-3.2-6.03" class="cls-9"/><path d="m170.27 86.22 4.63 1.95-3.2 6.83-4.63-1.95c-1.91-.8-2.76-3-1.88-4.88a3.88 3.88 0 0 1 2.16-1.98c.92-.36 1.97-.38 2.92.02Z" style="stroke-miterlimit:10;stroke:#000;fill:#b2f0e9"/><path d="m174.9 88.16 4.63 1.95c1.92.81 2.76 3 1.88 4.89s-3.16 2.75-5.08 1.95L171.7 95l3.2-6.83Z" class="cls-8"/><circle cx="169.49" cy="63.02" r="6.26" class="cls-8" transform="rotate(-54.75 169.492 63.015)"/><path d="m167.9 69.07 3.32-12.06" class="cls-9"/><circle cx="177.91" cy="76.15" r="3.41" class="cls-8" transform="rotate(-74.5 177.901 76.149)"/><path d="m179.55 79.14-3.21-6.02" class="cls-9"/><path d="m185.57 104.21-.01-51.45 4.09 6.15v52.06" style="stroke-miterlimit:1;fill:none;stroke:#000"/><path d="m40.29 110.97-4.78-6.76M65.33 110.97l-4.78-6.76M90.79 110.97l-4.78-6.76M115.31 110.97l-4.78-6.76M140.56 110.97l-4.78-6.76M165.45 110.97l-4.78-6.76" class="cls-2"/><path d="M112.68 24.22h-8.2V16h-8.84v8.22h-8.2v8.81h8.2v8.22h8.84v-8.22h8.2v-8.81z" class="cls-6"/><path d="m30.06 98.5-24.98.03 5.58-45.55 24.99-.04-5.59 45.56z" class="cls-8"/></svg>