<svg xmlns="http://www.w3.org/2000/svg" id="Calque_1" data-name="Calque 1" viewBox="0 0 128 128"><defs><style>.cls-1{fill:#fff;stroke:#1a2e35;stroke-linecap:round;stroke-linejoin:round}</style></defs><path d="M11.53 41.44h90.94c2.94 0 5.33 2.39 5.33 5.33v34.46c0 2.94-2.39 5.33-5.33 5.33H11.53c-2.94 0-5.33-2.39-5.33-5.33V46.77c0-2.94 2.39-5.33 5.33-5.33Z" style="fill:#fab0b4;stroke:#1a2e35;stroke-linecap:round;stroke-linejoin:round" transform="rotate(-73.92 57 63.996)"/><path d="M34.05 98.06c-1.51-.43-3.08.44-3.52 1.94-.43 1.51.44 3.08 1.94 3.52 1.51.43 3.08-.44 3.52-1.94.43-1.51-.44-3.08-1.94-3.52ZM45.56 101.44c-1.51-.43-3.08.44-3.52 1.94-.43 1.51.44 3.08 1.94 3.52s3.08-.44 3.52-1.94c.43-1.51-.44-3.08-1.94-3.52ZM36.61 89.18c-1.51-.43-3.08.44-3.52 1.94s.44 3.08 1.94 3.52c1.51.43 3.08-.44 3.52-1.94.43-1.51-.44-3.08-1.94-3.52ZM39.17 80.31c-1.51-.43-3.08.44-3.52 1.94-.43 1.51.44 3.08 1.94 3.52 1.51.43 3.08-.44 3.52-1.94.43-1.51-.44-3.08-1.94-3.52ZM41.73 71.43c-1.51-.43-3.08.44-3.52 1.94-.43 1.51.44 3.08 1.94 3.52 1.51.43 3.08-.44 3.52-1.94.43-1.51-.44-3.08-1.94-3.52ZM44.29 62.55c-1.51-.43-3.08.44-3.52 1.94s.44 3.08 1.94 3.52 3.08-.44 3.52-1.94c.43-1.51-.44-3.08-1.94-3.52ZM46.85 53.68c-1.51-.43-3.08.44-3.52 1.94-.43 1.51.44 3.08 1.94 3.52 1.51.43 3.08-.44 3.52-1.94s-.44-3.08-1.94-3.52ZM49.41 44.8c-1.51-.43-3.08.44-3.52 1.94-.43 1.51.44 3.08 1.94 3.52 1.51.43 3.08-.44 3.52-1.94s-.44-3.08-1.94-3.52ZM51.97 35.93c-1.51-.43-3.08.44-3.52 1.94s.44 3.08 1.94 3.52 3.08-.44 3.52-1.94-.44-3.08-1.94-3.52ZM54.52 27.05c-1.51-.43-3.08.44-3.52 1.94s.44 3.08 1.94 3.52 3.08-.44 3.52-1.94-.44-3.08-1.94-3.52ZM57.08 18.18c-1.51-.43-3.08.44-3.52 1.94-.43 1.51.44 3.08 1.94 3.52s3.08-.44 3.52-1.94c.43-1.51-.44-3.08-1.94-3.52ZM56.25 104.45c-1.51-.43-3.08.44-3.52 1.94-.43 1.51.44 3.08 1.94 3.52s3.08-.44 3.52-1.94c.43-1.51-.44-3.08-1.94-3.52ZM58.8 95.58c-1.51-.43-3.08.44-3.52 1.94-.43 1.51.44 3.08 1.94 3.52s3.08-.44 3.52-1.94c.43-1.51-.44-3.08-1.94-3.52ZM61.36 86.7c-1.51-.43-3.08.44-3.52 1.94-.43 1.51.44 3.08 1.94 3.52 1.51.43 3.08-.44 3.52-1.94s-.44-3.08-1.94-3.52ZM63.92 77.83c-1.51-.43-3.08.44-3.52 1.94-.43 1.51.44 3.08 1.94 3.52 1.51.43 3.08-.44 3.52-1.94s-.44-3.08-1.94-3.52ZM66.48 68.95c-1.51-.43-3.08.44-3.52 1.94s.44 3.08 1.94 3.52 3.08-.44 3.52-1.94-.44-3.08-1.94-3.52ZM69.04 60.08c-1.51-.43-3.08.44-3.52 1.94s.44 3.08 1.94 3.52 3.08-.44 3.52-1.94-.44-3.08-1.94-3.52ZM71.6 51.2c-1.51-.43-3.08.44-3.52 1.94s.44 3.08 1.94 3.52 3.08-.44 3.52-1.94-.44-3.08-1.94-3.52ZM74.16 42.32c-1.51-.43-3.08.44-3.52 1.94s.44 3.08 1.94 3.52 3.08-.44 3.52-1.94c.43-1.51-.44-3.08-1.94-3.52ZM76.71 33.45c-1.51-.43-3.08.44-3.52 1.94s.44 3.08 1.94 3.52c1.51.43 3.08-.44 3.52-1.94s-.44-3.08-1.94-3.52ZM79.27 24.57c-1.51-.43-3.08.44-3.52 1.94s.44 3.08 1.94 3.52c1.51.43 3.08-.44 3.52-1.94.43-1.51-.44-3.08-1.94-3.52Z" class="cls-1"/><rect width="78.52" height="4.62" x="18.37" y="59.17" rx="1.82" ry="1.82" style="fill:#fee4cb;stroke:#1a2e35;stroke-linecap:round;stroke-linejoin:round" transform="rotate(-73.92 57.636 61.477)"/><path d="M94.66 52.42c-1.51-.43-3.08.44-3.52 1.94s.44 3.08 1.94 3.52c1.51.43 3.08-.44 3.52-1.94.43-1.51-.44-3.08-1.94-3.52ZM97.52 63.48c-1.51-.43-3.08.44-3.52 1.94-.43 1.51.44 3.08 1.94 3.52 1.51.43 3.08-.44 3.52-1.94s-.44-3.08-1.94-3.52ZM103.43 55.52c-1.51-.43-3.08.44-3.52 1.94-.43 1.51.44 3.08 1.94 3.52 1.51.43 3.08-.44 3.52-1.94.43-1.51-.44-3.08-1.94-3.52Z" class="cls-1"/></svg>