<svg xmlns="http://www.w3.org/2000/svg" id="Calque_1" data-name="Calque 1" viewBox="0 0 128 128.13"><defs><style>.cls-1,.cls-2,.cls-3{stroke:#000;stroke-linecap:round;stroke-linejoin:round}.cls-1,.cls-3{fill:none}.cls-2{fill:#fff}.cls-2,.cls-3{stroke-width:2px}</style></defs><path d="M46.37 36.09h9.38v94.86h-9.38z" style="fill:#ffbeed" transform="rotate(43.13 51.061 83.527)"/><path d="m100.734 24 7.356 7.008-86.052 90.333-7.357-7.008z" class="cls-3"/><path d="m24.81 104.55-4.08 4.22c-1.32 1.39-.92 3.91.88 5.63h0c1.81 1.72 4.35 2 5.67.61l4.08-4.22" class="cls-1"/><path d="m108.778 17.635 5.271 5.022-7.007 7.356-5.272-5.021z" class="cls-2"/><path d="m108.104 12.422 11.186 10.656-2.283 2.397-11.186-10.657z" class="cls-2"/><path d="M113.27 35.94 95.56 19.06" class="cls-3"/><path d="m99.73 34.48-5.02-4.78M94.28 37.05l-3.44-3.22M89.9 41.73l-3.44-3.22M85.55 46.38l-3.44-3.23M77.58 54.88l-3.44-3.22M73.19 59.56l-3.44-3.22M68.84 64.21l-3.44-3.23M60.87 72.71l-3.44-3.22M56.49 77.39l-3.44-3.22M52.14 82.04l-3.44-3.23M44.17 90.55l-3.44-3.23M39.79 95.22 36.34 92M35.43 99.87l-3.44-3.22M83.11 52.21l-5.01-4.78M66.5 69.95l-5.02-4.78M49.89 87.68l-5.02-4.78M33.27 105.42l-5.02-4.78" class="cls-1"/></svg>