<?xml version="1.0" encoding="UTF-8"?>
<svg id="Calque_1" data-name="Calque 1" xmlns="http://www.w3.org/2000/svg" viewBox="0 0 128 128.13">
  <defs>
    <style>
      .cls-1, .cls-2, .cls-3 {
        stroke: #000;
        stroke-linecap: round;
        stroke-linejoin: round;
      }

      .cls-1, .cls-3 {
        fill: none;
      }

      .cls-4 {
        fill: #ffbeed;
      }

      .cls-2 {
        fill: #fff;
      }

      .cls-2, .cls-3 {
        stroke-width: 2px;
      }
    </style>
  </defs>
  <rect class="cls-4" x="46.37" y="36.09" width="9.38" height="94.86" transform="translate(70.9 -12.34) rotate(43.13)"/>
  <rect class="cls-3" x="56.31" y="10.29" width="10.16" height="124.76" transform="translate(67.06 -22.29) rotate(43.61)"/>
  <path class="cls-1" d="m24.81,104.55l-4.08,4.22c-1.32,1.39-.92,3.91.88,5.63h0c1.81,1.72,4.35,2,5.67.61l4.08-4.22"/>
  <rect class="cls-2" x="104.28" y="18.74" width="7.28" height="10.16" transform="translate(46.2 -67.86) rotate(43.61)"/>
  <rect class="cls-2" x="104.84" y="17.29" width="15.45" height="3.31" transform="translate(44.12 -72.41) rotate(43.61)"/>
  <line class="cls-3" x1="113.27" y1="35.94" x2="95.56" y2="19.06"/>
  <line class="cls-1" x1="99.73" y1="34.48" x2="94.71" y2="29.7"/>
  <line class="cls-1" x1="94.28" y1="37.05" x2="90.84" y2="33.83"/>
  <line class="cls-1" x1="89.9" y1="41.73" x2="86.46" y2="38.51"/>
  <line class="cls-1" x1="85.55" y1="46.38" x2="82.11" y2="43.15"/>
  <line class="cls-1" x1="77.58" y1="54.88" x2="74.14" y2="51.66"/>
  <line class="cls-1" x1="73.19" y1="59.56" x2="69.75" y2="56.34"/>
  <line class="cls-1" x1="68.84" y1="64.21" x2="65.4" y2="60.98"/>
  <line class="cls-1" x1="60.87" y1="72.71" x2="57.43" y2="69.49"/>
  <line class="cls-1" x1="56.49" y1="77.39" x2="53.05" y2="74.17"/>
  <line class="cls-1" x1="52.14" y1="82.04" x2="48.7" y2="78.81"/>
  <line class="cls-1" x1="44.17" y1="90.55" x2="40.73" y2="87.32"/>
  <line class="cls-1" x1="39.79" y1="95.22" x2="36.34" y2="92"/>
  <line class="cls-1" x1="35.43" y1="99.87" x2="31.99" y2="96.65"/>
  <line class="cls-1" x1="83.11" y1="52.21" x2="78.1" y2="47.43"/>
  <line class="cls-1" x1="66.5" y1="69.95" x2="61.48" y2="65.17"/>
  <line class="cls-1" x1="49.89" y1="87.68" x2="44.87" y2="82.9"/>
  <line class="cls-1" x1="33.27" y1="105.42" x2="28.25" y2="100.64"/>
</svg>