<svg xmlns="http://www.w3.org/2000/svg" id="Calque_1" data-name="Calque 1" viewBox="0 0 128 128.13"><defs><style>.cls-1,.cls-2,.cls-3{stroke:#000;stroke-linecap:round;stroke-linejoin:round}.cls-1,.cls-3{fill:none}.cls-2{fill:#fff}.cls-2,.cls-3{stroke-width:2px}</style></defs><path d="M45.96 36.09h9.38v94.86h-9.38z" style="fill:#ffbeed" transform="rotate(43.13 50.652 83.527)"/><path d="m100.334 23.994 7.357 7.008-86.053 90.333-7.356-7.008z" class="cls-3"/><path d="m24.41 104.55-4.08 4.22c-1.32 1.39-.92 3.91.88 5.63h0c1.81 1.72 4.35 2 5.67.61l4.08-4.22" class="cls-1"/><path d="m108.379 17.64 5.27 5.02-7.007 7.357-5.271-5.021z" class="cls-2"/><path d="m107.704 12.426 11.187 10.656-2.283 2.397-11.187-10.656z" class="cls-2"/><path d="M112.87 35.94 95.16 19.06" class="cls-3"/><path d="m99.33 34.48-5.02-4.78M93.88 37.05l-3.44-3.22M89.5 41.73l-3.44-3.22M85.15 46.38l-3.45-3.23M77.18 54.88l-3.44-3.22M72.79 59.56l-3.44-3.22M68.44 64.21 65 60.98M60.47 72.71l-3.44-3.22M56.09 77.39l-3.44-3.22M51.74 82.04l-3.44-3.23M43.77 90.55l-3.44-3.23M39.38 95.22 35.94 92M35.03 99.87l-3.44-3.22M82.71 52.21l-5.02-4.78M66.1 69.95l-5.02-4.78M49.48 87.68l-5.01-4.78M32.87 105.42l-5.02-4.78" class="cls-1"/><path d="M-3088.28-1872.09h6467.34v6437.3h-6467.34z" style="stroke:#fff;stroke-width:8px;fill:none;stroke-linecap:round;stroke-linejoin:round"/></svg>