<svg xmlns="http://www.w3.org/2000/svg" data-name="Calque 1" viewBox="0 0 128 128"><path d="M114.02 38.77v30.41c0 10.36-7.72 18.83-17.15 18.83H62.63l-25.42 20.05V88.01h-4.43c-9.43 0-17.15-8.46-17.15-18.83V38.77c0-10.35 7.72-18.83 17.15-18.83h64.09c9.43 0 17.15 8.48 17.15 18.83Z" style="stroke:#000;stroke-width:2px;stroke-linecap:round;stroke-linejoin:round;fill:#fff"/><path d="M55.92 39.58c2.01-2.14 4.77-3.21 8.28-3.21 3.25 0 5.85.92 7.8 2.75 1.95 1.83 2.93 4.17 2.93 7.02 0 1.73-.35 3.12-1.06 4.2s-2.16 2.65-4.35 4.74c-1.6 1.51-2.63 2.79-3.12 3.85-.31.68-.53 1.58-.64 2.69s-1.04 1.96-2.16 1.96c-1.28 0-2.29-1.11-2.16-2.39.13-1.26.37-2.34.72-3.24.55-1.42 1.78-3.06 3.69-4.9l1.99-1.93c.6-.55 1.08-1.13 1.45-1.73.68-1.06 1.01-2.16 1.01-3.3 0-1.59-.49-2.98-1.46-4.15-.97-1.17-2.58-1.76-4.82-1.76-2.77 0-4.69 1.01-5.76 3.03-.41.77-.7 1.77-.87 3a2.166 2.166 0 0 1-2.15 1.86c-1.34 0-2.37-1.2-2.16-2.52.38-2.37 1.32-4.36 2.82-5.96Zm7.74 29.04c1.34 0 2.43 1.09 2.43 2.43v.22c0 1.34-1.09 2.43-2.43 2.43s-2.43-1.09-2.43-2.43v-.22c0-1.34 1.09-2.43 2.43-2.43Z" style="stroke-miterlimit:10;stroke:#000;stroke-width:2px"/><path d="M-2812.11-183.98h6562.35v1176.7h-6562.35z" style="fill:none;stroke:#fff;stroke-width:8px;stroke-linecap:round;stroke-linejoin:round"/></svg>