<svg xmlns="http://www.w3.org/2000/svg" id="Calque_1" data-name="Calque 1" viewBox="0 0 200.13 128"><defs><style>.cls-1,.cls-2{stroke:#000;stroke-linecap:round;stroke-linejoin:round}.cls-1{fill:none}.cls-2{fill:#d6d6d6;stroke-width:2px}</style></defs><path d="M176.77 66.62c.89-.66 2.63-.7 3.73-.56 1.16.15 1.55-1.2.74-1.73-4.6-3.06-18.05-10.58-30.24-13-14.29-2.83-24.81-5.17-38.08-4.59-1.21.05-2.44.13-3.7.23-1.65.13-3.3.32-4.94.55-1.53.21-3.04.45-4.51.71a148.494 148.494 0 0 0-10.87 2.39c-5.5 1.43-9.21 2.7-9.21 2.7s-12.5 4.08-19.76 3.78c-4-.16-8.53-.15-11.79-.1-2.8.04-5.53-.79-7.84-2.37-2.5-1.71-6.05-3.89-9.42-5.04-4.35-1.48-9.28-2.2-11.77-2.5-.73-.08-1.3.63-1.06 1.33 1.03 3.01 2.97 12.2 2.75 17.79-.23 5.78-3.33 13.29-4.72 17.14a1 1 0 0 0 1.14 1.32c3.74-.71 12.57-2.62 16.85-5.4 2.35-1.52 4.64-2.89 6.51-3.95 2.67-1.53 5.39-4.5 8.47-4.5h2.85a16.527 16.527 0 0 1 7.42 1.77c.58.27 1.14.58 1.68.93.27.17.55.35.85.54 2.28 1.39 5.46 3.07 9.61 4.72 3.99 1.58 8.89 3.12 14.75 4.32.2-.41.6-.72 1.07-.82l5.5-1.2c1.16-.25 2.37-.13 3.45.35l3.28 1.46c.77.49 1.15 1.34 1.09 2.17 6.53.5 13.88.54 22.09-.07 16.57-1.24 28.82-3.5 37.73-5.9 12.88-3.46 18.76-7.2 20.59-8.55.37-.27.39-.8.04-1.09-.62-.52-1.61-1.19-2.54-1.2-1.69 0-3.72.73-3.84.77.06-.15.62-1.31 2.1-2.4Zm-34.31 13.31c-.85.52-1.83.8-2.83.8h-2.12c-1.07 0-2.12-.32-3.01-.92l-5.96-4c-.84-.55-.8-1.79.07-2.29l1.96-1.12c.28-.16.61-.22.93-.15l6 1.22 3.67.75h.01l4.32.89 3.6.73-6.64 4.09Z" class="cls-2"/><path d="m149.1 75.84-6.64 4.09c-.85.52-1.83.8-2.83.8h-2.12c-1.07 0-2.12-.32-3.01-.92l-5.96-4c-.84-.55-.8-1.79.07-2.29l1.96-1.12c.28-.16.61-.22.93-.15l6 1.22 3.67.75h.01l4.32.89 3.6.73Z" style="stroke-width:2px;fill:none;stroke-linecap:round;stroke-linejoin:round;stroke:#000"/><path d="M171.67 63.49c0 1.04-.85 1.89-1.9 1.89s-1.89-.85-1.89-1.89.85-1.9 1.89-1.9 1.9.85 1.9 1.9Z"/><path d="M158.09 56.5c-7.23-.26-13.55 6.81-10.32 13.83 1.66 3.61 5.67 7.91 9.77 8.52 1.01.15 2.29.32 2.88.24" class="cls-1"/><path d="M100.6 85.06c-.03.57-.27 1.13-.73 1.57l-9.56 7.69a3.22 3.22 0 0 1-3.8.48 3.182 3.182 0 0 1-1.63-2.78c0-.15.01-.31.03-.46l1.11-7.93c.03-.19.09-.37.19-.53.2-.41.6-.72 1.07-.82l5.5-1.2c1.16-.25 2.37-.13 3.45.35l3.28 1.46c.77.49 1.15 1.34 1.09 2.17ZM149.1 75.84l-6.64 4.09c-.85.52-1.83.8-2.83.8h-2.12c-1.07 0-2.12-.32-3.01-.92l-5.96-4c-.84-.55-.8-1.79.07-2.29l1.96-1.12c.28-.16.61-.22.93-.15l6 1.22 3.67.75h.01l4.32.89 3.6.73ZM71.86 79.03 60.71 89.57c-.57.54-1.3.82-2.04.84-.6.01-1.21-.14-1.74-.49a3.072 3.072 0 0 1-1.41-2.72l.17-3.97v-.36c-.03-1.12-.38-2.2-1.02-3.13-1.58-2.27-2.18-5.1-1.64-7.82l.07-.38c2.24.08 4.46.63 6.49 1.59.59.26 1.15.55 1.7.89.27.16.56.34.86.52 2.31 1.34 5.53 2.94 9.72 4.5ZM112.57 46.04c-1.21.08-2.44.19-3.69.32-1.65.17-3.29.4-4.93.66-1.52.25-3.03.52-4.49.81-1.06.21-2.09.44-3.11.67-2.8.64-5.41 1.32-7.71 1.97l-.76-.22a2.773 2.773 0 0 1-1.99-2.6c-.03-1.1.59-2.11 1.59-2.58l1.77-.85a9.634 9.634 0 0 0 4.39-4.17l1.42-5.36c.84-1.57 2.87-2.06 4.35-1.05l.79.43c4.5 2.46 8.34 5.98 11.2 10.24l1.16 1.73Z" class="cls-2"/><path d="m21.92 50 12.44 5.12M22.76 53.36l10.34 3.27M22.85 56.55l9.32 1.85M23.52 59.15l8.4.75M23.6 62.1l7.23.16M21.96 76.56l12.44-5.12M22.8 73.2l10.34-3.28M22.89 70.01l9.32-1.85M23.56 67.4l8.4-.74M23.64 64.46l7.23-.16M21.24 80.92l14.4-7.63M100.06 37.58l9.16 9.39M104.28 47.52l-5.44-6.7M99.77 48.23l-2.12-4.83M96.65 48.83l-.62-2.68M138.68 78.33l5.71-2.96M140.06 74.48l-3.28 1.82M134.68 74.71l1.71-.97M96.88 83.75l-.9.88M95.97 84.63l-6.41 6.22M90.48 87.04l4.03-3.52M89 85.28l3.49-1.99M60.54 84.88l7.22-7.69M60.43 80.95l4.62-5.09M59.41 77.62l2.44-3.57M58.28 74.86l1.05-2.29" class="cls-1"/><path d="M-1469.31-1054.38h3385.57v2571.67h-3385.57z" style="stroke:#fff;stroke-width:8px;fill:none;stroke-linecap:round;stroke-linejoin:round"/></svg>