<svg xmlns="http://www.w3.org/2000/svg" id="Calque_1" data-name="Calque 1" viewBox="0 0 200 128"><defs><style>.cls-2,.cls-3,.cls-4,.cls-5,.cls-6,.cls-7,.cls-8,.cls-9{stroke:#000}.cls-4,.cls-8,.cls-9{fill:none}.cls-13,.cls-2,.cls-5{fill:#fff}.cls-15{fill:#ff6d75}.cls-16{fill:#333}.cls-17,.cls-6{fill:#d6d6d6}.cls-18,.cls-3,.cls-7{fill:#435e7d}.cls-19{fill:#424243}.cls-2{stroke-width:1.01px}.cls-2,.cls-3,.cls-4,.cls-5,.cls-6,.cls-7,.cls-8,.cls-9{stroke-miterlimit:10}.cls-3{stroke-linecap:round}.cls-4{stroke-width:1.03px}.cls-8{stroke-width:2px}</style></defs><path d="M137.78 51.54h36.17v51.65h-36.17z" class="cls-9"/><path d="m92.75 29.15 6.8-3.57 6.79 3.57-1.3-7.56 5.5-5.36-7.6-1.1-3.39-6.89-3.4 6.89-7.6 1.1 5.5 5.36-1.3 7.56z" style="fill:#edd661"/><path d="M138.06 23.37H116.3V22.2c0-9.29-7.55-16.84-16.84-16.84S82.62 12.91 82.62 22.2v1.17H61.14v31.24l76.93.64V23.36ZM96.05 15.2l3.4-6.88 3.4 6.88 7.6 1.1-5.5 5.36 1.3 7.57-6.8-3.57-6.8 3.57 1.3-7.57-5.5-5.36 7.6-1.1Z" class="cls-5"/><path d="M137.7 59.6h.08v17.64h-.08z" class="cls-18"/><path d="M86.79 40.45h-.56v1.38h.56c.38 0 .69-.31.69-.68s-.31-.69-.69-.69ZM92.77 40.45c-1.15 0-2.08.93-2.08 2.07s.93 2.08 2.08 2.08 2.07-.93 2.07-2.08-.93-2.07-2.07-2.07Z" class="cls-13"/><path d="M108.3 82.4h13.34V100H108.3zM77.61 82.4h13.34V100H77.61zM77.61 59.6h13.34v17.64H77.61z" class="cls-5"/><path d="M137.7 82.4h.08V100h-.08z" class="cls-18"/><path d="M108.3 59.6h13.34v17.64H108.3z" class="cls-5"/><path d="M140.12 49.2h35.11v-1.95h-35.11v1.95zM150.32 82.57h3.15v17.3h-3.15zM154.48 82.57h3.16v17.3h-3.16zM146.87 82.57h2.82v17.3h-2.82zM158.26 82.57h3.46v17.3h-3.46zM162.04 82.57h2.92v17.3h-2.92z" class="cls-17"/><path d="M144.7 79.08h22.34v1.49H144.7z"/><path d="M60.87 59.44h14.74v17.97H60.87zM92.96 59.44h13.34v17.97H92.96zM106.3 101.04V82.23H92.96v18.81M123.65 77.41h14.05V59.44h-14.05v17.97zM137.7 82.23h-14.05V101.17h14.06V82.23Z" class="cls-5"/><path d="M60.81 56.28h77.3v1.49h-77.3z" style="fill:#f5ec5b"/><path d="M172.09 113.25h-3.18c-.7 0-1.27.57-1.27 1.27s.57 1.27 1.27 1.27h3.18c.7 0 1.27-.57 1.27-1.27s-.57-1.27-1.27-1.27Z" class="cls-19" style="opacity:.48"/><path d="M108.3 59.44h13.34v.17H108.3zM137.7 59.44h.08v.17h-.08zM77.61 59.44h13.34v.17H77.61zM61.14 54.45h76.64v.17H61.14zM77.61 82.23h13.34v.17H77.61zM137.7 82.23h.08v.17h-.08zM108.3 82.23h13.34v.17H108.3zM137.7 77.24h.08v.17h-.08zM108.3 77.24h13.34v.17H108.3zM77.61 77.24h13.34v.17H77.61zM154.48 82.23h2.78v.33h-2.78zM158.26 82.23h2.78v.33h-2.78zM150.69 82.23h2.78v.33h-2.78z" class="cls-16"/><path d="M90.95 100H77.61M106.31 100.89H92.95M75.62 100.89H61.15v1.45h76.64V100h-.08v1.17h-14.06c-.07.49-.48.87-.99.87-.55 0-1-.45-1-1V100h-13.34" class="cls-9"/><path d="M177.57 44.91h-39.79v6.62h39.79v-6.62Zm-2.34 4.29h-35.12v-1.95h35.12v1.95Z" class="cls-5"/><path d="M24.33 49.2H59.45v-1.95H24.33v1.95z" class="cls-17"/><path d="M62.04 44.91H22.25v6.62h39.79v-6.62ZM59.7 49.2H24.58v-1.95H59.7v1.95Z" class="cls-5"/><path d="M166.86 82.15h1.01c.46 0 .83-.37.83-.83v-3.15c0-.46-.37-.83-.83-.83h-24.01c-.46 0-.83.37-.83.83v3.15c0 .46.37.83.83.83h22.99Z" class="cls-9"/><path d="M75.61 77.41h2V59.44h-2v17.97zM90.95 77.24v.17h2.01V59.44h-2.01v17.8zM106.3 77.41h2V59.44h-2v17.97zM121.64 77.24v.17h2.01V59.44h-2.01v17.8z" class="cls-5"/><path d="M77.61 82.23h-2v19.23c.07.5.48.88.99.88.55 0 1-.46 1-1.02v-19.1ZM92.96 82.23h-2v19.1c0 .56.45 1.02 1 1.02.51 0 .93-.38.99-.88V82.24ZM108.3 82.23h-2v19.23c.07.5.48.88.99.88.55 0 1-.46 1-1.02v-19.1ZM123.65 82.23h-2v19.1c0 .56.45 1.02 1 1.02.51 0 .93-.38.99-.88V82.24Z" class="cls-2"/><path d="M25.31 51.54v50.8h36.18v-50.8H25.31z" class="cls-5"/><path d="M32.23 79.08h22.34v1.49H32.23z"/><path d="M42.01 82.23h2.78v.33h-2.78zM38.23 82.23h2.78v.33h-2.78zM45.79 82.23h2.78v.33h-2.78z" class="cls-16"/><path d="M54.39 82.15h1.01c.46 0 .83-.37.83-.83v-3.15c0-.46-.37-.83-.83-.83H31.39c-.46 0-.83.37-.83.83v3.15c0 .46.37.83.83.83H54.38Z" class="cls-9"/><path d="M165.74 82.21v18.87M146.06 82.21v18.3" class="cls-8"/><path d="M150 82.07v14.08M153.93 82.07v14.08M157.87 82.07v14.08M161.8 82.07v14.08" class="cls-9"/><path d="M176.97 116.9h-69.85c-.43 0-.78-.35-.78-.78v-7.8c0-1.99 1.5-3.65 3.48-3.85l10.24-1.02 6.57-10.18s.03-.04.04-.06c1.65-2.13 4.05-3.35 6.58-3.35h21.32c2.53 0 4.93 1.22 6.58 3.35.01.02.02.03.03.05l6.54 9.92h5.82c2.31 0 4.2 1.88 4.2 4.2v8.73c0 .43-.35.78-.78.78Z" class="cls-5"/><path d="M118.87 116.12a2.3 2.3 0 1 0 4.6 0 2.3 2.3 0 0 0-4.6 0Z" style="fill:#eeefef"/><path d="M121.16 119.19c-1.69 0-3.07-1.38-3.07-3.07s1.38-3.07 3.07-3.07 3.07 1.38 3.07 3.07-1.38 3.07-3.07 3.07Zm0-4.59a1.52 1.52 0 1 0-.001 3.039 1.52 1.52 0 0 0 .001-3.039Z" class="cls-19"/><path d="M86.76 39.06h-1.91v6.92h1.38v-2.76h.57c1.36 0 2.41-1.32 1.96-2.74-.27-.86-1.1-1.41-2-1.41Zm.03 2.76h-.56v-1.38h.56c.38 0 .69.31.69.69s-.31.68-.69.68ZM93.69 39.18a3.473 3.473 0 0 0-4.26 4.26 3.387 3.387 0 0 0 2.42 2.42c2.61.68 4.93-1.65 4.26-4.26a3.387 3.387 0 0 0-2.42-2.42Zm-1.61 5.31c-.6-.2-1.07-.67-1.27-1.27-.55-1.66.97-3.19 2.65-2.66.61.19 1.09.68 1.28 1.28.53 1.68-1 3.2-2.66 2.65ZM98.25 39.06h-1.38v6.92h3.9v-1.39h-2.52v-5.53zM101.4 45.98h1.38v-6.92h-1.38v6.92zM106.88 40.45c.54 0 1.04.21 1.41.56l.98-.99a3.465 3.465 0 0 0-3.14-.88 3.457 3.457 0 0 0-2.61 2.57 3.472 3.472 0 0 0 3.37 4.27c.92 0 1.76-.36 2.38-.96l-.98-.98c-.59.55-1.54.76-2.43.28-.46-.25-.81-.67-.96-1.17a2.08 2.08 0 0 1 1.98-2.71ZM109.9 45.98h4.17v-1.39h-2.79v-1.37h2.79v-1.39h-2.79v-1.38h2.79v-1.39h-4.17v6.92z"/><path d="M59.14 54.61v4.82h80.64v-4.82H59.14ZM123.65 77.41H59.14v4.82h80.64v-4.82h-16.14Z" class="cls-5"/><circle cx="164.61" cy="116.21" r="6.69" class="cls-6"/><path d="M138.88 106.81h2.6M158.11 106.81h2.61" class="cls-3"/><path d="M162.71 104.05v5.76M125.41 104.33v6.61" class="cls-7"/><circle cx="121.11" cy="116.21" r="6.69" class="cls-6"/><circle cx="121.13" cy="116.11" r="2.29" class="cls-5"/><circle cx="164.62" cy="116.11" r="2.29" class="cls-5"/><path d="M163.28 104.05h-38.42s4.43-6.51 5.45-8.1c1.02-1.59 2.55-2.47 5.37-2.52 2.39-.04 15.09-.09 16.87 0 2.14.11 3.33.53 4.46 1.87s6.27 8.74 6.27 8.74Z" style="fill:#fff;stroke-linejoin:round;stroke:#000"/><path d="M143.98 93.12v23.78" class="cls-7"/><path d="M176.6 109.32h-3.87c-.55 0-1-.45-1-1s.45-1 1-1h3.87c.55 0 1 .45 1 1s-.45 1-1 1Z" class="cls-17"/><path d="M176.6 112.42h-3.87c-.55 0-1-.45-1-1s.45-1 1-1h3.87c.55 0 1 .45 1 1s-.45 1-1 1Z" class="cls-15"/><path d="M111.35 109.32h-3.87c-.55 0-1-.45-1-1s.45-1 1-1h3.87c.55 0 1 .45 1 1s-.45 1-1 1Z" class="cls-17"/><path d="M111.35 112.42h-3.87c-.55 0-1-.45-1-1s.45-1 1-1h3.87c.55 0 1 .45 1 1s-.45 1-1 1Z" class="cls-15"/><path d="M37.87 82.6h3.15v19.73h-3.15zM42.03 82.6h3.16v19.73h-3.16zM34.43 82.6h2.82v19.73h-2.82zM45.81 82.6h3.46v19.73h-3.46zM49.6 82.6h2.92v19.73H49.6z" class="cls-17"/><path d="M53.29 82.22v20.01M33.62 82.22v19.97" class="cls-8"/><path d="M37.55 82.07v20.32M41.49 82.07v20.32M45.42 82.07v20.32M49.36 82.07v20.32" class="cls-4"/><path d="M136.98 86.62h5.67v4.03h-5.67z" style="fill:#87ccf3"/><path d="M145.85 86.62h5.67v4.03h-5.67z" class="cls-15"/><path d="M142.36 86.62h3.47v4.03h-3.47z" class="cls-17"/><path d="M136.98 86.62h14.18v4.03h-14.18z" style="stroke-linejoin:round;fill:none;stroke:#000"/><path d="M142.51 86.72v3.73M145.81 86.72v3.73M25.31 102.34h36.18" class="cls-5"/></svg>