<svg xmlns="http://www.w3.org/2000/svg" id="Calque_1" data-name="Calque 1" viewBox="0 0 200.13 128.13"><defs><style>.cls-1,.cls-2,.cls-3{fill:#fce9b9;stroke:#000;stroke-linecap:round;stroke-linejoin:round}.cls-2,.cls-3{fill:none}.cls-5{fill:#ff6d75}.cls-3{stroke-width:2px}</style></defs><path d="M176.4 77.27 71.07 73.89V50.48L176.4 47.1v30.17zM176.4 47.1h9.26v30.17h-9.26z" class="cls-3"/><path d="M64.78 50.48h6.29V73.9h-6.29zM64.78 67.33H52.67V57.04h12.11z" class="cls-3"/><path d="M56.41 57.04v10.29M60.59 57.04v10.29M177.29 51.18h8.37M177.29 54.84h8.37M177.29 58.51h8.37M177.29 62.18h8.37M177.29 65.85h8.37M177.29 69.52h8.37M177.29 73.19h8.37" class="cls-2"/><path d="M52.1 57.43v9.9s-6.18 2.69-10.67 3.42c-4.49.74-8.61-2.8-11.42-3.17s-7.75 1.1-9.63 1.85c-1.87.75-4.61.4-4.61.4-.01 0-.04-.01-.03-.04 1.02-.33 1.82-2.78 1.82-5.77s-.79-5.4-1.79-5.77v-.05c3.11.47 5.28-.32 7.41-.92 2.78-.78 5.73-1.44 8.57-.6 1.63.48 3.09 1.4 4.68 1.95 2.96 1.03 6.13.68 9.1-.08.58-.15 5.43-.87 6.57-1.13Z" class="cls-1"/><path d="M17.56 64.02c0 2.98-.8 5.43-1.82 5.77-.08.03-.16.04-.24.04-1.14 0-2.06-2.59-2.06-5.81s.92-5.82 2.06-5.82c.09 0 .17.01.27.05 1 .36 1.79 2.8 1.79 5.77Z" class="cls-1"/><path d="M153.94 53.52H160v17.33h-6.06z" class="cls-5"/><path d="M148.31 65.21v-6.05h17.33v6.05z" class="cls-5"/><path d="M-3598.2-2339.62h6467.34v6437.3H-3598.2z" style="stroke:#fff;stroke-width:8px;fill:none;stroke-linecap:round;stroke-linejoin:round"/></svg>