<svg xmlns="http://www.w3.org/2000/svg" id="Calque_1" data-name="Calque 1" viewBox="0 0 200 128"><defs><style>.cls-1{fill:#bfe6fc}.cls-1,.cls-2{stroke:#000;stroke-linecap:round;stroke-linejoin:round}.cls-4{fill:#f7c09e}.cls-5{fill:#f9c8aa}.cls-7{fill:#fee4cb}.cls-8{fill:#fff}.cls-9{fill:#ffd4ad}.cls-10{fill:#fcebe0}.cls-11{fill:#fce9b9}.cls-12{fill:#a07637}.cls-13{fill:#baa584}.cls-2{stroke-width:2px;fill:none}</style></defs><path d="M154.16 11.01H47.51c-1.48 0-2.69 1.21-2.69 2.69v71.08h112.03V13.69c0-1.48-1.21-2.69-2.69-2.69Z" class="cls-2"/><path d="M52.77 17h96.14v61.77H52.77z" class="cls-1"/><path d="M101.31 14.67c0 .26-.21.48-.48.48s-.48-.21-.48-.48.21-.48.48-.48.48.21.48.48ZM90.65 108.9h20.63v4H90.65z"/><path d="M111.28 110.06v1.26c0 .87-.52 1.58-1.15 1.58H91.46c-.63 0-1.15-.71-1.15-1.58v-1.26H24.12l1.97 5.88h149.66l1.81-5.88h-66.27Z" class="cls-2"/><path d="M24.12 110.31h153.44l-20.71-25.54H44.82l-20.7 25.54z" class="cls-2"/><path d="m97.49 91.11 6.45-.04 2.05 5.07h-10.3l1.8-5.03zM85.48 98.81l30.94-.03 2.04 5.06H83.68l1.8-5.03zM94.11 91.1h-.03l-1.81 5.03h-6.42l1.79-5.03 6.46-.02.01.02zM84.21 91.1h-.04l-1.8 5.03h-6.43l1.8-5.03 6.46-.02.01.02zM74.31 91.1h-.04l-1.81 5.03h-6.42l1.8-5.03 6.45-.02.02.02zM64.4 91.1h-.03l-1.81 5.03h-6.42l1.79-5.03 6.46-.02.01.02zM54.55 91.1h-.04l-1.8 5.03-8.62.01 3.99-5.04 6.46-.02.01.02zM107.54 91.1h.03l1.81 5.03h6.42l-1.79-5.03-6.46-.02-.01.02zM117.44 91.1h.04l1.8 5.03h6.42l-1.79-5.03-6.46-.02-.01.02zM127.34 91.1h.04l1.81 5.03h6.42l-1.8-5.03-6.45-.02-.02.02zM137.25 91.1h.03l1.81 5.03h6.42l-1.79-5.03-6.46-.02-.01.02zM147.1 91.1h.03l1.81 5.03 8.62.01-3.99-5.04-6.46-.02-.01.02zM120.02 98.81h.04l1.8 5.03h6.42l-1.79-5.03-6.46-.03-.01.03zM129.92 98.81h.04l1.81 5.03h6.42l-1.8-5.03-6.45-.03-.02.03zM139.83 98.81h.03l1.81 5.03h6.42l-1.8-5.03-6.45-.03-.01.03zM149.68 98.81h.03l1.81 5.03h12.23l-3.99-5.03-10.07-.03-.01.03z" class="cls-1"/><path d="M151.52 103.84h12.23l-3.99-5.03-10.07-.03 1.83 5.06zM50.36 103.83l-12.22.01 3.99-5.04 10.07-.02-1.84 5.05zM81.85 98.81h-.03l-1.81 5.03h-6.42l1.8-5.03 6.45-.03.01.03zM71.95 98.81h-.04l-1.8 5.03h-6.42l1.79-5.03 6.46-.03.01.03zM62.05 98.81h-.04l-1.81 5.03h-6.42l1.8-5.03 6.46-.03.01.03z" class="cls-1"/><path d="M77.79 17.84h7.52v7.52h-7.52zM122.89 17.84h7.52v7.52h-7.52z" class="cls-13"/><path d="M107.86 17.84h7.52v7.52h-7.52zM100.34 17.84h7.52v7.52h-7.52z" class="cls-12"/><path d="M70.27 25.36h7.52v7.52h-7.52z" class="cls-11"/><path d="M77.79 25.36h7.52v7.52h-7.52z" class="cls-7"/><path d="M122.89 25.36h7.52v7.52h-7.52zM115.37 25.36h7.52v7.52h-7.52z" class="cls-10"/><path d="M107.86 25.36h7.52v7.52h-7.52z" class="cls-4"/><path d="M100.34 25.36h7.52v7.52h-7.52z" class="cls-12"/><path d="M92.82 25.36h7.52v7.52h-7.52z" class="cls-10"/><path d="M92.82 32.87h7.52v7.52h-7.52zM100.34 32.87h7.52v7.52h-7.52zM107.86 32.87h7.52v7.52h-7.52z" class="cls-11"/><path d="M115.37 32.87h7.52v7.52h-7.52z" class="cls-7"/><path d="M122.89 32.87h7.52v7.52h-7.52z" class="cls-11"/><path d="M77.79 32.87h7.52v7.52h-7.52z" class="cls-12"/><path d="M70.27 32.87h7.52v7.52h-7.52z" class="cls-9"/><path d="M85.31 32.87h7.52v7.52h-7.52zM115.37 40.39h7.52v7.52h-7.52z" class="cls-10"/><path d="M107.86 40.39h7.52v7.52h-7.52z" class="cls-5"/><path d="M100.34 40.39h7.52v7.52h-7.52z" class="cls-12"/><path d="M85.31 70.46h7.52v7.52h-7.52z" class="cls-4"/><path d="M92.82 40.39h7.52v7.52h-7.52z" class="cls-9"/><path d="M85.31 40.39h7.52v7.52h-7.52z" class="cls-7"/><path d="M77.79 40.39h7.52v7.52h-7.52zM70.27 40.39h7.52v7.52h-7.52zM122.89 47.91h7.52v7.52h-7.52zM115.37 47.91h7.52v7.52h-7.52zM100.34 70.46h7.52v7.52h-7.52z" class="cls-12"/><path d="M107.86 47.91h7.52v7.52h-7.52z" class="cls-11"/><path d="M100.34 47.91h7.52v7.52h-7.52z" class="cls-10"/><path d="M92.82 47.91h7.52v7.52h-7.52z" class="cls-11"/><path d="M85.31 47.91h7.52v7.52h-7.52z" style="fill:#f28c4c"/><path d="M77.79 47.91h7.52v7.52h-7.52z" class="cls-7"/><path d="M70.27 47.91h7.52v7.52h-7.52z" class="cls-11"/><path d="M70.27 55.42h7.52v7.52h-7.52z" class="cls-9"/><path d="M77.79 55.42h7.52v7.52h-7.52z" class="cls-12"/><path d="M85.31 55.42h7.52v7.52h-7.52z" class="cls-4"/><path d="M92.82 55.42h7.52v7.52h-7.52z" class="cls-11"/><path d="M100.34 55.42h7.52v7.52h-7.52z" class="cls-9"/><path d="M107.86 55.42h7.52v7.52h-7.52z" class="cls-7"/><path d="M115.37 55.42h7.52v7.52h-7.52z" class="cls-12"/><path d="M122.89 55.42h7.52v7.52h-7.52z" class="cls-9"/><path d="M77.79 62.94h7.52v7.52h-7.52z" class="cls-5"/><path d="M85.31 62.94h7.52v7.52h-7.52z" class="cls-12"/><path d="M92.82 62.94h7.52v7.52h-7.52z" class="cls-10"/><path d="M100.34 62.94h7.52v7.52h-7.52zM115.37 62.94h7.52v7.52h-7.52z" class="cls-13"/><path d="m63.557 43.379 70.528-5.08 1.018 14.143-70.527 5.08z"/><path d="m87.6 50.79-.09-1.2 3.11-.23-.24-3.14 1.22-.09.24 3.14 3.11-.23.09 1.2-3.11.23.24 3.13-1.22.09-.24-3.13-3.11.23ZM96.58 45.98l-.07-.99c.92-.16 1.56-.36 1.91-.6s.59-.76.71-1.57l1.01-.08.77 10.19-1.37.1-.55-7.24-2.41.18ZM104.8 46.62c-.4-.35-.63-.83-.68-1.44-.06-.76.17-1.44.68-2.03.51-.59 1.27-.92 2.29-1s1.77.13 2.36.6c.59.47.92 1.06.97 1.75.05.64-.08 1.17-.37 1.59-.16.24-.43.48-.79.72.44.16.79.36 1.05.6.49.44.76 1.04.82 1.81.07.9-.18 1.69-.73 2.36s-1.39 1.05-2.49 1.13c-1 .07-1.86-.13-2.59-.62s-1.13-1.25-1.21-2.28c-.05-.6.06-1.14.32-1.6.26-.46.67-.83 1.24-1.11-.37-.13-.66-.28-.88-.47Zm4.49 4.31c.37-.35.53-.85.48-1.48s-.29-1.15-.72-1.46-.96-.44-1.6-.4-1.1.26-1.46.64-.52.88-.47 1.5c.04.53.25.98.64 1.34s.95.51 1.69.46c.6-.04 1.08-.24 1.45-.59Zm-.62-5.04c.29-.34.43-.73.39-1.17-.03-.38-.21-.72-.54-1.02-.33-.3-.8-.42-1.43-.38s-1.05.24-1.3.58c-.25.34-.36.73-.33 1.15.04.48.24.85.62 1.09.38.25.81.35 1.29.31.57-.04 1-.23 1.29-.58Z" class="cls-8"/><path d="M-377.92-5192.27h6467.34v6437.3H-377.92z" style="stroke:#fff;stroke-width:8px;fill:none;stroke-linecap:round;stroke-linejoin:round"/></svg>