<svg xmlns="http://www.w3.org/2000/svg" id="Calque_1" data-name="Calque 1" viewBox="0 0 128.13 128"><defs><style>.cls-1,.cls-3,.cls-4{fill:#d6d6d6;stroke-linecap:round;stroke-linejoin:round;stroke:#000}.cls-3,.cls-4{fill:#fff;stroke-width:2px}.cls-4{fill:none}</style></defs><path d="M61.38 52.33c.03-.29.06-.57.09-.87.64-5.84 3.38-6.26 3.47-7.75.07-1.5-4.99-4.21-4.84-10.63.03-.7 0-1.36-.07-2-.49-5.26-3.4-8.48-5.15-10.14 0 0-5.94 10.59-7.21 12.28-1.26 1.7-5.44 6.68-8.6 5.55-2.9-1.03-5.41-3.17-7.85-1.56-2.43 1.6-2.58 6.85.31 8.53 0 0-2.83 5.21-3.91 8.82l-5.18 13.33M60.88 57.2c-.46 2.61-1.51 4.24-5.02 4.42-5.31.27-11.14-1.07-12.43-1.8l7.66 12.04M56.58 106.22c12.89 2.75 27.12 5.68 30.64 6.03 7.76.76 12.6-7.26 13.23-10.01 1.48-6.49 4.55-35.93 4.55-35.93l-4.55-.04c-1.09-.01-2.17.04-3.25.16l-6.54.69-.9.09-7.68 22.62-26.27-7.07c1.04 5.47 1.49 13.13.77 23.47ZM12.03 124.18c2.27-13.49 6.74-36.63 7.62-40.34 1.87-7.93 12.81-15.83 19.48-8.42.97 1.08 1.71 2.24 2.28 3.45 3.58 7.52.34 16.77.34 16.77-.22.83-.8 3.45-1.58 7.06-1.26 5.77-3.02 14.06-4.59 21.48" class="cls-3"/><path d="M54.51 124.18c1.04-6.73 1.71-12.7 2.07-17.96.72-10.34.27-18-.77-23.47-1.13-6.05-2.97-9.44-4.72-10.88l-16.33-7.19c-3.88-1.3-8.14-.45-11.24 2.23-3.01 2.61-6.4 6.69-8.37 12.79-5.15 16-6.16 31.65-6.16 31.65s-.56 5.34-1.23 12.83" class="cls-3"/><path d="M35.58 124.18c1.57-7.42 3.33-15.71 4.59-21.48.78-3.61 1.36-6.23 1.58-7.06 0 0 3.24-9.25-.34-16.77-.57-1.21-1.31-2.37-2.28-3.45-6.67-7.41-17.61.49-19.48 8.42-.88 3.71-5.35 26.85-7.62 40.34" class="cls-3"/><path d="M60.51 36.39s4.04-7.38 2.98-13.11c-1.28-6.91-7.52-6.96-7.52-6.96-3.44-5.45-18.19-8.42-31.64-.81-9.82 5.56-8.04 14.99-4.76 20.68" class="cls-4"/><path d="M17.2 31.19s-2.19 6.75 1.4 11.98c3.13 4.56 6.81 9.39 7.51 14.7" class="cls-4"/><ellipse cx="52.8" cy="38.45" rx="1.88" ry=".87" style="stroke:#000;stroke-linecap:round;stroke-linejoin:round" transform="rotate(-85.88 52.802 38.458)"/><path d="m33.63 41.07 1.41.54" style="fill:#fff;stroke:#000;stroke-linecap:round;stroke-linejoin:round"/><path d="M61.38 52.33c-.83.06-1.53.19-2.07.31-1.2.29-2.31.56-2.48 1.24-.17.76.91 1.61 1.48 2.05.9.7 1.83 1.07 2.57 1.26" class="cls-4"/><path d="M67.58 52.36s.08-.03.13-.03c.71 0 1.41 0 2.12.01h2.24c.63 0 1.26.01 1.89.01h2.24c.51 0 1.02.02 1.52.01.55 0 1.07.12 1.55.36.55.26.99.63 1.32 1.1.39.57.91.97 1.62 1.16.39.1.79.11 1.18.12.45.01.9.05 1.36.06.58.01 1.16.06 1.74.09l3.29.15 2.07.09 3.26.15c.7.03 1.39.06 2.09.1l3.24.15c.71.03 1.42.06 2.13.1.95.05 6.94.32 7.89.37.96.06 1.72.79 1.74 1.65.02.87-.7 1.6-1.67 1.66-.46.03-5.96-.3-6.42-.34l-1.09-.12c-.9-.09-1.79-.17-2.69-.26l-3.91-.39c-.96-.1-1.91-.19-2.87-.29l-3-.3-2.97-.3c-.98-.1-1.96-.19-2.94-.3-.67-.07-1.34-.15-2.02-.2-.88-.06-1.62.21-2.18.83-.62.67-1.38 1.09-2.34 1.2-.47.05-.93-.04-1.39-.09l-1.12-.15c-.68-.09-1.36-.19-2.04-.28-.5-.07-1-.13-1.49-.2-.68-.09-1.37-.19-2.05-.28-.49-.07-.99-.13-1.48-.2-.36-.05-.71-.1-1.07-.14-.21-.02-.32-.13-.37-.3-.08-.28.37-5.12.52-5.22ZM67.48 56.08l8.2.59M67.62 54.06l8.21.59" class="cls-1"/><path d="M84.83 56.67c.28.19.57.49.86.94.23.39.46.73.67 1.06.5.74.96 1.34 1.43 1.94.24.31.51.63.8.91.74.76 1.58 1.41 2.51 1.91l.6.31c.76.23 1.17.6 1.38.86.6.7.49 1.01.48 2.01l8.27-.35c.14-.73.33-1.54.6-2.4.31-1.06.6-1.71.9-2.34.26-.59.5-1.13.77-1.91l-6.96-.37-1.68-.09h-.03l-1.17-.07h-.01c-.16-.03-.3-.09-.44-.16-.7-.34-1.78-.57-2.87-1.94-.78-.98-2.38-2.27-4.19-2.92-.4-.16-.97-.26-1.56-.3-1.03-.07-2.04.07-2.1.51-.31 2.37.61 1.58 1.76 2.4Z" class="cls-3"/><path d="M89.04 54.18c-.04.85.62 1.6 1.45 1.63l8.94.49 5.23.28c.83.05 1.53-.62 1.57-1.48l.06-1.4.02-.46h0c.04-.87-.62-1.6-1.45-1.65l-14.16-.76c-.83-.05-1.52.62-1.57 1.46h0l-.08 1.9Z" class="cls-3"/><path d="M-1640.9-368.22h3385.57v2571.67H-1640.9z" style="stroke:#fff;stroke-width:8px;fill:none;stroke-linecap:round;stroke-linejoin:round"/></svg>