<svg xmlns="http://www.w3.org/2000/svg" id="Calque_1" viewBox="0 0 128 128.13"><defs><style>.cls-1,.cls-2{fill:#76ac75;stroke:#000;stroke-linecap:round;stroke-linejoin:round}.cls-2{fill:#d6d6d6}</style></defs><path d="m95.74 31.47-.8 7.85-.16.08c-2.86 1.33-12.17 4.8-30.78 4.46-18.96.35-28.27-3.27-30.94-4.54l-.8-7.9c.72 3.76 14.67 6.97 31.74 6.97h.02c17 0 30.87-3.18 31.72-6.92ZM65.32 106.72c-.46.01-.9.02-1.32.02h0c-.42 0-.86 0-1.32-.02-6.93-.18-18.69-1.77-24.28-6.82v3.43c5.96 5.39 18.95 6.84 25.6 6.84h0c6.65 0 19.64-1.45 25.6-6.84V99.9c-5.58 5.05-17.35 6.64-24.28 6.82Z" class="cls-1"/><path d="M64 43.86h0c-18.97.34-28.28-3.27-30.94-4.54L38.4 99.9c5.59 5.05 17.35 6.64 24.28 6.82.46.01.9.02 1.32.02h0c.42 0 .86 0 1.32-.02 6.93-.18 18.69-1.77 24.28-6.82l5.34-60.58c-1.56.83-10.74 5.23-30.94 4.54ZM40.88 98.91l-3.91-54.95 4.74.99 3.7 56.27-4.53-2.32Zm10.43 3.75-1.96-56.38 4.63.5 1.85 57.05-4.52-1.16Zm14.95 1.99h-4.52V46.84h4.52v57.81Zm10.43-1.99-4.52 1.16 1.85-57.05 4.63-.5-1.96 56.38Zm10.43-3.75-4.52 2.32 3.7-56.27 4.75-.99-3.92 54.95ZM64 43.86h0z" class="cls-2"/><path d="M64 43.86c20.2.69 29.38-3.71 30.94-4.54-2.66 1.27-11.97 4.88-30.94 4.54Z" class="cls-2"/><path d="m95.78 31.11-.03.31s-.01.04-.01.05c-.85 3.74-14.72 6.92-31.72 6.92H64c-17.07 0-31.02-3.21-31.74-6.97h0c-.02-.11-.03-.21-.03-.31 0-3.9 14.22-7.07 31.77-7.07s31.78 3.17 31.78 7.07Z" class="cls-1"/><path d="M73.06 29.95v-3.49H57.58v3.49h-2.82v2.32h5.15v-3.48h10.82v3.48h5.15v-2.32h-2.82zM64 46.84h-2.26v57.81h4.52V46.84H64zM49.35 46.28l1.96 56.38 4.52 1.16-1.84-57.04-4.64-.5zM36.97 43.97l3.91 54.94 4.53 2.32-3.7-56.27-4.74-.99zM78.65 46.28l-4.64.5-1.85 57.04 4.53-1.16 1.96-56.38zM91.03 43.97l-4.74.99-3.7 56.27 4.53-2.32 3.91-54.94z" class="cls-2"/></svg>