<svg xmlns="http://www.w3.org/2000/svg" id="Calque_1" viewBox="0 0 128 128"><defs><style>.cls-1{fill:#d6d6d6}.cls-1,.cls-2,.cls-3,.cls-4{stroke:#000;stroke-linecap:round;stroke-linejoin:round}.cls-2{fill:#ff6d75}.cls-3{fill:#fff}.cls-4{fill:#fab0b4}</style></defs><path d="M64.5 76.97c-1.51.92-3.1 1.35-4.83 1.53-1.12.12-1.41-1.52-.31-1.79.4-.14 2.06-.45 3.71-1.82 2.11-1.72 3.39-4.36 4.12-7.02.49-1.78.7-3.66.69-4.06-.04-1.29.98-2.37 2.27-2.41a2.35 2.35 0 0 1 2.38 2.75c-.15.88-3.66 10.21-8.03 12.82ZM58.39 107.91c0 6.65-5.39 12.04-12.04 12.04s-12.04-5.39-12.04-12.04c0-6.65 5.39-12.04 12.04-12.04s12.04 5.39 12.04 12.04Z" class="cls-1"/><path d="M54.18 107.91c0 4.32-3.5 7.82-7.82 7.82s-7.82-3.5-7.82-7.82 3.5-7.82 7.82-7.82 7.82 3.5 7.82 7.82Z" class="cls-3"/><ellipse cx="86.95" cy="112.63" class="cls-1" rx="7.84" ry="7.38"/><path d="m78.36 100.54 17.06 1.95 6.53-15.32-35.86-2.72 12.27 16.09z" class="cls-4"/><path d="M46.36 110.03c-.26 0-.52-.06-.75-.2a1.544 1.544 0 0 1-.59-2.11l14.94-26.63c.42-.74 1.36-1.01 2.11-.59.75.42 1.01 1.36.59 2.11l-14.94 26.63c-.28.51-.81.79-1.35.79ZM86.08 112.18l2.09-10.24 4.55.85-4.62 10.24c-.43.95-1.41.6-1.34.6-.52-.22-.81-.84-.69-1.45Z" class="cls-1"/><path d="M98.72 102.58c-.04.5-.47.88-.95.88-.03 0-.07 0-.1-.01l-19.8-1.99-.26-.31-54.37-67.29a.967.967 0 0 1-.2-.49c-3.5 1.55-5.69 3.33-5.73 3.36-.22.19-.51.26-.78.21a.887.887 0 0 1-.58-.33.979.979 0 0 1 .12-1.37c.38-.31 9.41-7.67 20.82-5.75.52.09.88.59.79 1.12-.09.52-.59.88-1.11.79-4.43-.74-8.54.07-11.8 1.27l54.07 66.95 19 1.91c.53.06.92.53.87 1.06Z" class="cls-1"/><path d="M38.54 53.46h70.94l-1.68 6.39a6.216 6.216 0 0 1-6.01 4.63H47.42c-2.47 0-4.7-1.46-5.69-3.72l-3.19-7.3Z" class="cls-3"/><path d="m103.58 53.46-.67 2.54a6.207 6.207 0 0 1-6.01 4.63H42.53c-.3 0-.6-.02-.89-.06l.08.19a6.209 6.209 0 0 0 5.69 3.72h54.37c2.82 0 5.29-1.9 6.01-4.63l1.68-6.39h-5.9Z" class="cls-1"/><path d="m79.71 9.7 2.51.65-1.74 45.43h-.77V9.7z" class="cls-2"/><path d="m82.22 10.35 24.56 9.81-26.3 35.62 1.74-45.43zM113.45 42.4l-6.67-22.24-26.3 35.62 32.97-13.38zM109.48 53.46l-29 2.32 32.97-13.38-3.97 11.06zM38.54 53.46s6.98-7.6 17.49-9.34c10.5-1.74 13.21-1.72 13.21-1.72l10.37 11.18-41.07-.12Z" class="cls-4"/><path d="m72.14 38.76-2.9 3.63 10.37 11.18s-2.89-14.81-7.47-14.81Z" class="cls-2"/><path d="M82.22 55.78a1.741 1.741 0 0 1-3.48 0 1.741 1.741 0 0 1 3.48 0Z" class="cls-1"/></svg>