<svg xmlns="http://www.w3.org/2000/svg" id="Calque_1" viewBox="0 0 128 128"><defs><style>.cls-1,.cls-2{fill:#76ac75;stroke:#000;stroke-linecap:round;stroke-linejoin:round;stroke-width:2px}.cls-2{fill:none}</style></defs><path d="M63.28 53.22h-1.91c-3.11 0-5.66-2.55-5.66-5.66v-6.72c0-3.11 2.55-5.66 5.66-5.66h1.91c1.27 0 2.44.42 3.39 1.13a5.639 5.639 0 0 1 2.27 4.52v6.72c0 3.11-2.55 5.66-5.66 5.66Z" class="cls-1"/><path d="M60.5 31.58h3.61v3.61H60.5zM62.54 16.15h0c2.7 0 4.89 2.19 4.89 4.89v10.54h-9.79V21.04c0-2.7 2.19-4.89 4.89-4.89Z" class="cls-1"/><path d="M67.9 36.71s1.42-2.69 3.76-3.53 6.73-.52 6.73-.52-1.28-1.96-1.24-3.8.7-3.17.7-3.17M69.5 39.27s2.7-2.67 5.81-2.8 8.21 1.91 8.21 1.91-.79-2.82-.05-4.98 2.02-3.51 2.02-3.51M69.5 41.55s3.42 1.52 6.52 1.64c3.1.13 7.5-.75 7.5-.75s-.79 2.82-.05 4.98c.74 2.17 2.02 3.51 2.02 3.51M56.86 36.71s-1.42-2.69-3.76-3.53-6.73-.52-6.73-.52 1.28-1.96 1.24-3.8c-.05-1.84-.7-3.17-.7-3.17M55.26 39.27s-2.7-2.67-5.81-2.8-8.21 1.91-8.21 1.91.79-2.82.05-4.98c-.74-2.17-2.02-3.51-2.02-3.51M55.26 41.55s-3.42 1.52-6.52 1.64c-3.1.13-7.5-.75-7.5-.75s.79 2.82.05 4.98c-.74 2.17-2.02 3.51-2.02 3.51M58.72 18l-5.3-2.48V8.83M66.85 18l5.3-2.48V8.83" class="cls-2"/><path d="M88.42 73.93c0 16.24-11.69 40.56-26.11 40.56S36.2 90.17 36.2 73.93s11.69-29.41 26.11-29.41 26.11 13.17 26.11 29.41Z" class="cls-1"/></svg>