<svg xmlns="http://www.w3.org/2000/svg" id="Calque_1" data-name="Calque 1" viewBox="0 0 200 128"><defs><style>.cls-1{fill:#d6d6d6}.cls-1,.cls-2,.cls-3,.cls-4,.cls-5{stroke:#000;stroke-linecap:round;stroke-linejoin:round}.cls-2{fill:#87ccf3}.cls-3{fill:#b2f0e9}.cls-4{fill:#ff6d75}.cls-5{fill:#fff}</style></defs><path d="m4.24 53.36 25.74-9.98 41.99-3.08v13.06H4.24zM195.76 53.36l-25.48-9.98-41.58-3.08v13.06h67.06zM7.45 53.36h185.2v60.97H7.45z" class="cls-1"/><path d="M4.24 53.36H46.5v1.96H4.24zM153.49 53.36h42.26v1.96h-42.26z" class="cls-1"/><path d="M44.31 53.36h108.71v1.96H44.31z" class="cls-1"/><path d="M80.14 101.95H70.01l1.73-50.73h6.68l1.72 50.73z" class="cls-5"/><rect width="15.81" height="4.62" x="67.18" y="101.95" class="cls-5" rx="2.31" ry="2.31"/><path d="M130.15 101.95h-10.13l1.73-50.73h6.67l1.73 50.73z" class="cls-5"/><rect width="15.81" height="4.62" x="117.19" y="101.95" class="cls-5" rx="2.31" ry="2.31"/><path d="M156.93 109.64h-10.12l1.72-58.42h6.68l1.72 58.42z" class="cls-5"/><rect width="15.81" height="4.62" x="143.97" y="109.64" class="cls-5" rx="2.31" ry="2.31"/><path d="M68.71 106.57H133v1.94H68.71zM67.14 108.51h67.44v1.94H67.14zM65.38 110.45h70.97v1.94H65.38zM64.19 112.39h73.34v1.94H64.19z" class="cls-1"/><path d="M86.91 85.39h26.29v21.18H86.91z" class="cls-5"/><path d="M88.45 86.86h10.84v19.71H88.45zM100.96 86.86h10.54v19.71h-10.54z" class="cls-1"/><path d="M53.37 109.64H43.24l1.72-58.42h6.68l1.73 58.42z" class="cls-5"/><rect width="15.81" height="4.62" x="40.4" y="109.64" class="cls-5" rx="2.31" ry="2.31"/><path d="M12.71 60.42h8.72V73.7h-8.72zM27.63 60.42h8.72V73.7h-8.72zM27.63 82.97h8.72v13.28h-8.72zM57.24 59.7h9.95v14.7h-9.95zM57.85 82.97h8.72v13.28h-8.72zM12.71 82.97h8.72v13.28h-8.72zM163.76 60.42h8.72V73.7h-8.72zM178.68 60.42h8.72V73.7h-8.72zM178.68 82.97h8.72v13.28h-8.72zM163.76 82.97h8.72v13.28h-8.72zM134.12 60.42h8.72V73.7h-8.72zM105.93 60.42h8.72V73.7h-8.72zM84.89 59.7h9.95v14.7h-9.95zM134.12 82.97h8.72v13.28h-8.72z" class="cls-3"/><path d="M156.5 51.77H43.64V40.03l56.43-26.36 56.43 26.36v11.74z" class="cls-1"/><path d="M163.14 42.88h-6.68l-56.39-23.61-56.43 23.61h-6.68l63.07-29.19.02-.01.02.01 63.07 29.19z" class="cls-1"/><path d="M100.07 13.67v.02l-.02-.01.02-.01zM100.05 13.68l-.02.01v-.02l.02.01z" class="cls-1"/><rect width="10.1" height="4.19" x="43.26" y="55.96" class="cls-5" rx="2.09" ry="2.09"/><path d="M54.76 51.76v2.39c0 1-.81 1.8-1.81 1.8h-9.29c-1 0-1.8-.81-1.8-1.8v-2.39h12.89Z" class="cls-5"/><rect width="10.1" height="4.19" x="70.04" y="55.96" class="cls-5" rx="2.09" ry="2.09"/><path d="M81.54 51.76v2.39c0 1-.81 1.8-1.81 1.8h-9.28c-1 0-1.81-.81-1.81-1.8v-2.39h12.9Z" class="cls-5"/><rect width="10.1" height="4.19" x="146.83" y="55.96" class="cls-5" rx="2.09" ry="2.09"/><path d="M158.33 51.76v2.39c0 1-.81 1.8-1.8 1.8h-9.28c-1 0-1.81-.81-1.81-1.8v-2.39h12.89Z" class="cls-5"/><rect width="10.1" height="4.19" x="120.04" y="55.96" class="cls-5" rx="2.09" ry="2.09"/><path d="M131.54 51.76v2.39c0 1-.81 1.8-1.8 1.8h-9.28c-1 0-1.81-.81-1.81-1.8v-2.39h12.89Z" class="cls-5"/><path d="M163.15 42.88v6.11h-1.57v4.37H38.57v-4.37h-1.61v-6.11h126.19zM100.96 94.69h.1c1.05 0 1.9.85 1.9 1.9h0a1.9 1.9 0 0 1-1.9 1.9h-.1v-3.81h0ZM99.34 98.5h-.1a1.9 1.9 0 0 1-1.9-1.9h0c0-1.05.85-1.9 1.9-1.9h.1v3.81h0ZM127.99 20.24h7.18v10.97h-7.18z" class="cls-5"/><path d="M117.22 19.99h7.18v10.97h-7.18z" class="cls-2"/><path d="M131.58 19.99h7.18v10.97h-7.18z" class="cls-4"/><path d="M117.23 30.97v11.66M124.4 19.99h7.18v10.97h-7.18z" class="cls-5"/><path d="M64.31 19.99h7.18v10.97h-7.18z" class="cls-2"/><path d="M78.67 19.99h7.18v10.97h-7.18z" class="cls-4"/><path d="M71.49 19.99h7.18v10.97h-7.18zM85.85 30.97v11.66" class="cls-5"/><path d="M71.49 19.99h7.18v10.97h-7.18z" class="cls-5"/><path d="M78.35 48.66c-.29.24-.71.36-1.25.36h-1.03v1.79h-1.03v-4.97h2.13c.49 0 .88.13 1.18.38.29.26.44.65.44 1.19 0 .59-.15 1-.44 1.24Zm-.79-1.79c-.13-.11-.32-.17-.55-.17h-.94v1.46h.94c.24 0 .42-.06.55-.18s.2-.31.2-.57-.07-.44-.2-.55ZM83.49 45.97c.18.08.34.19.46.35.11.13.19.27.25.42s.09.33.09.52c0 .24-.06.47-.18.7s-.32.39-.59.48c.23.09.39.22.49.39s.14.43.14.78v.33c0 .23 0 .38.03.46.03.13.09.22.19.28v.12h-1.15c-.03-.11-.05-.2-.07-.27-.03-.14-.04-.28-.04-.43v-.46c-.01-.32-.07-.53-.17-.63-.11-.11-.3-.16-.59-.16h-1.01v1.95h-1.01v-4.97h2.38c.34 0 .6.05.78.13Zm-2.15.74v1.34h1.12c.22 0 .39-.03.5-.08.2-.09.29-.28.29-.56 0-.3-.09-.5-.28-.61-.11-.06-.27-.09-.48-.09h-1.15ZM89.66 46.72h-2.63v1.06h2.41v.86h-2.41v1.28h2.75v.89h-3.77v-4.97h3.65v.88Zm-.65-2.29-1.03 1.01h-.69l.65-1.01h1.07ZM91.28 45.85h3.54v.87h-2.51v1.14h2.2v.86h-2.2v2.08h-1.03v-4.96ZM99.87 46.72h-2.63v1.06h2.41v.86h-2.41v1.28h2.75v.89h-3.77v-4.97h3.65v.88ZM101.96 46.36c.4-.41.91-.61 1.53-.61.83 0 1.43.27 1.82.82.21.31.32.62.34.93h-1.04c-.07-.24-.15-.42-.25-.54-.18-.22-.46-.32-.82-.32s-.66.15-.88.46-.32.74-.32 1.29.11.98.34 1.25.51.42.86.42.63-.12.81-.36c.1-.13.19-.32.26-.58h1.03c-.09.54-.32.98-.68 1.32s-.83.51-1.41.51c-.71 0-1.26-.23-1.67-.69-.4-.46-.61-1.09-.61-1.9 0-.87.23-1.54.69-2.01ZM110.78 45.84v.88h-1.49v4.09h-1.05v-4.09h-1.49v-.88h4.03ZM112.08 45.84h1.06v3.05c0 .34.04.59.12.75.13.28.4.42.82.42s.69-.14.82-.42c.08-.16.12-.41.12-.75v-3.05h1.06v3.05c0 .53-.08.94-.25 1.23-.31.54-.89.81-1.75.81s-1.44-.27-1.75-.81c-.16-.29-.25-.71-.25-1.23v-3.05ZM120.94 45.97c.18.08.34.19.46.35.11.13.19.27.25.42s.09.33.09.52c0 .24-.06.47-.18.7s-.32.39-.59.48c.23.09.39.22.49.39s.14.43.14.78v.33c0 .23 0 .38.03.46.03.13.09.22.19.28v.12h-1.15c-.03-.11-.05-.2-.07-.27-.03-.14-.04-.28-.04-.43v-.46c-.01-.32-.07-.53-.17-.63-.11-.11-.3-.16-.59-.16h-1.01v1.95h-1.01v-4.97h2.38c.34 0 .6.05.78.13Zm-2.15.74v1.34h1.12c.22 0 .39-.03.5-.08.2-.09.29-.28.29-.56 0-.3-.09-.5-.28-.61-.11-.06-.27-.09-.48-.09h-1.15ZM127.11 46.72h-2.63v1.06h2.41v.86h-2.41v1.28h2.75v.89h-3.77v-4.97h3.65v.88Z"/><path d="M-603.47-47.79h889.3v495.34h-889.3z" style="fill:none;stroke:#fff;stroke-width:8px;stroke-linecap:round;stroke-linejoin:round"/></svg>