<svg xmlns="http://www.w3.org/2000/svg" id="Calque_1" data-name="Calque 1" viewBox="0 0 128 128"><defs><style>.cls-2{stroke:#1a2e35;stroke-linecap:round;stroke-linejoin:round;fill:none}.cls-4{fill:#baa584}.cls-5{fill:#fce9b9;stroke:#000;stroke-miterlimit:10}</style></defs><path d="m82.17 45.65 6.59-2.51.16-.69-.69-.49.19-.82-.69-.49.19-.82-.69-.49.19-.82-.69-.49.19-.82-.69-.49.19-.83-.69-.49.19-.82-.69-.49.19-.82-.69-.49.19-.82-.69-.49.19-.82-.69-.49.19-.83-.69-.49.19-.82-.69-.49.19-.82-.69-.49.19-.83-.69-.49.19-.82-.69-.49.19-.82-.69-.49.18-.83-.68-.49.18-.82-.69-.49.19-.82-.69-.49.19-.83-.69-.49.19-.82-.69-.49.19-.83-.69-.49.19-.82-.69-.49.19-.82-.69-.49.19-.83-.69-.49.19-.82-.69-.49.19-.83-.69-.49.18-.82-.63-.45-6.56 2.5.02.02-23.95 9.13v-.03l-6.59 2.52-.16.68.69.49-.19.82.69.49-.19.82.69.49-.19.82.69.49-.19.83.69.49-.19.82.69.49-.19.82.69.49-.19.82.69.49-.19.83.69.48-.19.83.69.49-.19.82.69.49-.19.82.69.49-.19.83.69.49-.19.82.69.49-.18.82.68.49-.18.83.68.49-.18.82.69.49-.19.82.69.49-.19.83.69.49-.19.82.69.49-.19.83.69.49-.19.82.69.49-.19.82.69.49-.19.83.69.49-.19.82.69.49-.19.83.69.49-.18.82.68.49-.18.82.63.45 6.57-2.5-.03-.01 23.95-9.14v.03z" style="stroke-linecap:round;stroke-linejoin:round;stroke:#1a2e35;fill:#ff6d75"/><path d="m72.117 12.214 10.862 28.49-28.966 11.043-10.862-28.49z" class="cls-2"/><path d="M62.08 21.21c1.35-.12 2.7.01 3.97.38M52.44 33.95c-.58-3.09.24-6.21 2.09-8.61M63.24 42.78c-3.19.05-6.27-1.33-8.36-3.75" class="cls-2"/><path d="M71.79 25.6c.55.76 1.02 1.6 1.37 2.52 2.13 5.58-.67 11.82-6.25 13.95-1.21.46-2.45.69-3.68.71M73.13 14.87s-1.04 1.33-1.92 2.28M72.64 18.46s-1.24 2.02-1.63 2.63M55.23 46.32l-2.1 3.43M54.88 41.34s-.88.95-1.87 2.42M43.97 24.9s2.24 1 3.5 1.45M81.65 37.64s-3.05-.69-4.44-1.09M79.32 35.58s-2.68-.53-3.65-.62" class="cls-2"/><path d="m86.91 117.31-.2.08c-.13.04-.26.08-.39.13-.13.03-.25.07-.38.1-.06.02-.12.03-.18.05-.12.02-.24.05-.36.07-.59.1-1.12.09-1.55-.03a.69.69 0 0 1-.48-.2c-.13-.07-.25-.16-.36-.27-.04-.04-.07-.08-.11-.12 0 0-.01-.02-.03-.03-.03-.04-.06-.09-.1-.14l-3.69-3.53-53.36-51.07c-4.4-4.22-5.33-10.76-2.67-15.94l-.13-.12c-.43-.41-.74-.89-.93-1.41-.51-1.35-.25-2.95.82-4.06 1.46-1.53 3.93-1.59 5.46-.12l.13.12c5.05-2.87 11.63-2.24 16.03 1.97l53.71 51.39 3.78 3.62s.03.02.05.03c.09.06.17.13.25.2.04.04.07.08.11.12.01.01.01.02.03.03.03.05.06.09.1.14.03.05.06.1.08.15.01.01.01.02.02.03.03.05.05.1.07.15.03.08.06.16.08.24v.03s.03.06.03.09v.05c0 .03.01.05.01.08 0 .02 0 .04.01.05V100.07c0 .06-.01.11-.02.17v.02l-.03.15v.05c0 .04-.01.08-.02.12 0 .02 0 .04-.02.06 0 .04-.01.08-.02.11 0 .02 0 .04-.01.06 0 .04-.02.07-.02.11 0 .02-.01.04-.02.07 0 .03-.02.07-.03.12 0 .02 0 .04-.02.06-.01.04-.02.08-.03.13 0 .02-.01.04-.02.06 0 .04-.03.09-.04.13 0 .02 0 .03-.02.05-.02.05-.03.1-.05.15-.01.01-.01.03-.02.04-.04.13-.09.26-.14.39 0 0 0 .02-.02.04-.02.05-.04.11-.07.16 0 .02-.01.04-.02.06-.02.05-.04.1-.06.14 0 .02-.02.05-.03.07-.02.05-.04.09-.06.14-.01.02-.03.05-.03.07-.02.05-.04.09-.06.14-.01.02-.03.05-.04.07-.02.05-.04.09-.07.14l-.03.07s-.05.09-.07.14c0 .02-.02.05-.03.07-.03.05-.05.1-.08.16 0 .02-.02.04-.03.05-.03.07-.07.14-.11.21-.04.08-.08.15-.12.23-.04.08-.08.15-.12.22 0 .02-.02.04-.03.06-.03.06-.06.11-.1.16-.01.03-.03.05-.05.08l-.09.15c-.02.03-.03.06-.05.09-.03.04-.06.09-.09.14l-.06.09c-.03.05-.05.1-.09.15-.02.02-.04.05-.05.08-.03.05-.07.1-.1.15-.01.03-.03.05-.05.08-.03.05-.06.11-.1.16-.02.02-.03.05-.05.07-.04.06-.07.12-.12.18-.01.01-.03.03-.04.05-.1.16-.21.31-.32.47-.01.02-.03.04-.04.06-.04.05-.08.11-.13.18-.02.02-.04.05-.06.08-.03.05-.07.1-.11.16l-.06.09-.12.15a.55.55 0 0 1-.07.09c-.04.04-.08.1-.11.14-.03.03-.05.06-.08.1-.03.05-.08.1-.11.15-.03.03-.05.06-.08.1-.04.05-.08.1-.12.14a.55.55 0 0 0-.07.09l-.13.16c-.02.02-.04.05-.07.08-.05.06-.1.13-.15.19-.01.02-.03.03-.04.05l-.21.24c-.02.01-.03.03-.05.05-.05.06-.1.12-.15.19a.55.55 0 0 0-.07.09c-.05.05-.1.1-.14.15a.7.7 0 0 0-.08.1c-.04.05-.09.09-.13.14-.03.03-.06.07-.09.1-.04.05-.08.09-.13.14-.03.03-.06.07-.1.1-.04.05-.08.09-.13.14-.03.03-.06.07-.1.1-.04.05-.08.09-.13.14-.03.03-.06.07-.09.09-.05.06-.09.1-.14.15l-.09.09c-.05.05-.1.11-.16.16-.03.03-.05.06-.07.08-.08.07-.16.16-.23.23-1.32 1.33-2.68 2.5-4 3.48-.42.31-.82.6-1.22.86-.16.11-.32.21-.48.31-.32.2-.63.39-.94.57-.15.09-.31.18-.46.26-.46.24-.89.45-1.32.64-.21.09-.41.17-.62.24Z" class="cls-5"/><path d="M89.78 120.06c2.8-1.36 5.91-3.67 8.75-6.52 2.59-2.59 4.69-5.33 6.1-7.93 1.77-3.28 2.24-6.06 1.41-8.25-.28-.73-.69-1.37-1.23-1.91-.87-.87-2.44-1.85-4.99-1.59-.53.05-1.09.16-1.67.32l3.78 3.62s.03.02.05.03c.09.06.18.13.25.21s.07.08.11.12c0 0 .02.02.02.03.03.04.07.09.09.13.03.04.05.09.08.14 0 .01.01.02.02.04.02.05.05.1.07.15.03.08.05.16.07.24v.04c0 .03.01.06.02.09v.05c0 .03.01.05.01.08v.05c0 .03 0 .05.01.08V99.94c0 .05 0 .09-.01.14v.02c0 .05-.01.11-.02.16v.02c0 .05-.01.1-.02.15v.05c0 .04-.01.08-.02.12 0 .02 0 .04-.01.06 0 .04-.02.08-.02.11 0 .02 0 .04-.01.06 0 .04-.02.08-.03.11 0 .02-.01.04-.02.06 0 .04-.02.08-.03.12 0 .02-.01.04-.02.06-.01.04-.02.08-.04.12 0 .02-.01.04-.02.06-.01.04-.03.09-.04.13 0 .02-.01.04-.02.05-.02.05-.03.1-.05.15 0 .01 0 .02-.01.03-.04.13-.09.26-.14.39 0 .01 0 .02-.01.03-.02.05-.04.11-.07.16 0 .02-.02.04-.02.06-.02.05-.04.09-.06.14 0 .02-.02.04-.03.07-.02.05-.04.09-.06.14-.01.02-.02.05-.03.07-.02.05-.04.09-.06.14-.01.02-.02.05-.03.07-.02.05-.04.09-.07.14-.01.02-.02.05-.03.07-.02.05-.05.1-.07.15-.01.02-.02.04-.03.07-.03.05-.05.11-.08.16 0 .02-.02.04-.03.05-.04.07-.07.14-.11.21-.04.08-.08.15-.12.23l-.12.21-.03.06c-.03.05-.06.11-.09.16-.01.02-.03.05-.04.07l-.09.15c-.02.03-.03.05-.05.08-.03.05-.06.1-.09.14-.02.03-.04.06-.05.08-.03.05-.06.1-.09.14-.02.03-.04.06-.05.08-.03.05-.06.1-.1.15-.02.03-.03.05-.05.08-.03.05-.07.1-.1.16-.02.02-.03.05-.05.07l-.12.18a.21.21 0 0 1-.04.06c-.11.16-.22.31-.33.47-.01.02-.03.04-.04.06-.04.06-.08.12-.13.18-.02.03-.04.05-.06.08-.04.05-.08.1-.12.16a.55.55 0 0 1-.07.09c-.04.05-.07.1-.11.15-.02.03-.05.06-.07.09-.04.05-.07.1-.11.14-.02.03-.05.06-.07.09-.04.05-.08.1-.11.15-.02.03-.05.06-.07.09l-.12.15c-.02.03-.05.06-.07.09l-.13.16a.5.5 0 0 1-.07.08l-.16.19c-.01.02-.03.03-.04.05-.07.08-.14.16-.2.24-.02.02-.03.04-.05.06-.05.06-.11.12-.16.18-.02.03-.05.06-.07.09-.05.05-.09.1-.14.16-.03.03-.06.06-.08.09-.04.05-.09.1-.13.15-.03.03-.06.07-.09.1-.04.05-.08.09-.13.14-.03.03-.06.07-.09.1-.04.05-.09.09-.13.14-.03.03-.06.07-.09.1-.04.05-.09.09-.13.14-.03.03-.06.07-.09.1-.05.05-.09.1-.14.15l-.09.09c-.05.05-.1.11-.16.16-.02.03-.05.05-.07.08l-.24.24c-1.33 1.33-2.68 2.5-4 3.47-.41.31-.82.59-1.22.86-.16.11-.32.21-.48.31-.32.2-.63.39-.94.57-.15.09-.31.17-.46.25-.45.24-.89.46-1.32.64-.21.09-.42.17-.62.25-.07.03-.14.05-.21.07-.13.04-.26.09-.38.12-.13.04-.25.07-.38.1-.06.02-.12.03-.18.04-.12.03-.24.05-.36.07-.59.1-1.11.09-1.55-.03a.69.69 0 0 1-.48-.2c-.13-.08-.25-.16-.35-.27-.04-.04-.07-.08-.11-.12 0-.01-.02-.02-.02-.03l-.1-.13-3.69-3.53c-.42 1.69-.39 3.2.11 4.5.28.73.69 1.37 1.23 1.91.87.87 2.44 1.85 4.99 1.59 1.31-.13 2.77-.58 4.35-1.35Z" class="cls-5"/><path d="M73.56 93.22c-.68-.42-1.43-.67-2.17-.92-.37-.12-.73-.25-1.08-.39-.35-.14-.69-.31-.98-.51-.15-.1-.29-.22-.41-.34-.06-.06-.12-.13-.18-.19-.06-.07-.12-.14-.17-.22a6.41 6.41 0 0 1-.58-.94c-.34-.66-.57-1.37-.79-2.11-.22-.74-.42-1.5-.75-2.27-.17-.38-.37-.76-.63-1.12a4.502 4.502 0 0 0-1.44-1.29c.22-1.16-.37-2.68-1.62-3.88-1.67-1.6-3.88-2-4.94-.89-1.06 1.11-.56 3.3 1.11 4.9 1.59 1.52 3.68 1.96 4.78 1.04.14.07.28.14.41.23.27.17.52.39.74.64.22.25.41.55.58.86.34.64.6 1.36.88 2.09.28.73.59 1.48 1.02 2.18.21.35.45.68.72.99.07.08.14.15.21.23.07.08.15.15.23.22.16.14.34.26.52.37.36.21.74.36 1.12.48.38.12.76.21 1.14.31.75.19 1.5.37 2.18.72.34.17.66.39.94.65.28.26.52.57.71.91-.16-.35-.38-.68-.64-.98-.26-.29-.57-.54-.91-.75ZM39.84 63.37c-.5-.31-1.06-.5-1.6-.68-.27-.09-.54-.18-.8-.29-.26-.11-.51-.23-.72-.38-.11-.08-.21-.16-.3-.25-.05-.05-.09-.09-.13-.14l-.13-.16c-.16-.22-.3-.45-.43-.69-.25-.49-.42-1.01-.58-1.56-.16-.54-.31-1.11-.56-1.68-.12-.28-.27-.56-.46-.83a3.32 3.32 0 0 0-.69-.71c-.12-.09-.24-.17-.37-.24.16-.85-.27-1.98-1.2-2.86-1.23-1.18-2.87-1.47-3.65-.66-.78.82-.41 2.43.82 3.61 1.18 1.12 2.71 1.45 3.53.76a2.45 2.45 0 0 1 .85.65c.16.19.3.4.43.64.25.47.44 1 .65 1.54.21.54.44 1.09.75 1.61.16.26.33.5.53.73.05.06.1.11.15.17.05.06.11.11.17.16.12.1.25.19.38.27.27.16.55.26.83.35.28.09.56.16.84.23.55.14 1.11.27 1.61.53.25.13.49.29.69.48.21.19.38.42.52.67-.12-.26-.28-.51-.47-.72-.19-.22-.42-.4-.67-.56ZM59.36 67.64c-.5-.31-1.06-.5-1.6-.68-.27-.09-.54-.18-.8-.29-.26-.11-.51-.23-.72-.38-.11-.08-.21-.16-.3-.25-.05-.05-.09-.09-.13-.14l-.13-.16c-.16-.22-.3-.45-.43-.69-.25-.49-.42-1.01-.58-1.56-.16-.54-.31-1.11-.56-1.68-.12-.28-.27-.56-.46-.83-.19-.26-.43-.51-.69-.71-.12-.09-.24-.17-.37-.24.16-.85-.27-1.98-1.2-2.86-1.23-1.18-2.87-1.47-3.65-.66-.78.82-.41 2.43.82 3.61 1.18 1.13 2.71 1.45 3.53.77a2.45 2.45 0 0 1 .85.65c.16.19.3.4.43.64.25.47.44 1 .65 1.54.21.54.44 1.09.75 1.61.16.26.33.5.53.73.05.06.1.11.15.17.05.06.11.11.17.16.12.1.25.19.38.27.27.16.55.26.83.35.28.09.56.16.84.23.56.14 1.11.28 1.61.53.25.13.49.29.69.48.21.19.38.42.52.67-.12-.26-.28-.51-.47-.72-.19-.22-.42-.4-.67-.55Z" class="cls-4"/><path d="M-982.74-3004.76H5484.6v6437.3H-982.74z" style="stroke:#fff;stroke-width:8px;fill:none;stroke-linecap:round;stroke-linejoin:round"/></svg>