<svg xmlns="http://www.w3.org/2000/svg" id="Calque_1" viewBox="0 0 128 128"><defs><style>.cls-1,.cls-6{fill:#b4eac3;stroke-width:2px;stroke:#000;stroke-linecap:round;stroke-linejoin:round}.cls-6{fill:none;stroke-width:3px}</style></defs><path d="M5.38 18.87h117.24v15.84H5.38z" style="fill:#ff6d75;stroke:#000;stroke-linecap:round;stroke-linejoin:round;stroke-width:2px"/><path d="M5.38 34.7h117.24v81.12H5.38z" style="fill:#fff;stroke:#000;stroke-linecap:round;stroke-linejoin:round;stroke-width:2px"/><path d="M18.29 12.17v12.92M109.7 12.17v12.92M48.76 12.17v12.92M79.23 12.17v12.92" class="cls-6"/><path d="M83.2 82.81c.89 1.64 1.38 3.52 1.38 5.52 0 6.49-5.25 11.74-11.74 11.74-3.31 0-6.31-1.38-8.45-3.59a11.74 11.74 0 0 1-8.45 3.59c-6.48 0-11.74-5.25-11.74-11.74 0-1.94.47-3.77 1.3-5.38a11.714 11.714 0 0 1-7.87-11.08c0-6.48 5.25-11.74 11.74-11.74 1.1 0 2.15.15 3.16.43.75-5.77 5.67-10.22 11.63-10.22s10.89 4.45 11.64 10.22c1.01-.28 2.06-.43 3.16-.43 6.48 0 11.74 5.26 11.74 11.74 0 5-3.11 9.25-7.5 10.94Z" style="fill:#fab0b4;stroke:#000;stroke-linecap:round;stroke-linejoin:round;stroke-width:2px"/><circle cx="64.17" cy="77.35" r="7.59" style="fill:#f3d587;stroke:#000;stroke-linecap:round;stroke-linejoin:round;stroke-width:2px"/><path d="M92.84 95.33s2.23-17.08 19.9-11.12c0 0-4.06 16.22-19.9 11.12ZM34.19 96.92s-16.8 3.81-17.3-14.83c0 0 16.63-1.79 17.3 14.83Z" class="cls-1"/></svg>