<svg xmlns="http://www.w3.org/2000/svg" id="Calque_1" data-name="Calque 1" viewBox="0 0 128 128"><defs><style>.cls-1,.cls-4,.cls-6,.cls-7{stroke:#000}.cls-1,.cls-6,.cls-7{stroke-linecap:round}.cls-1,.cls-7{stroke-linejoin:round}.cls-1,.cls-4{fill:#d6d6d6}.cls-8{fill:#546885}.cls-6{stroke-width:2px}.cls-4,.cls-6{stroke-miterlimit:10}.cls-6,.cls-7{fill:none}.cls-7{stroke-width:.5px}</style></defs><path d="M90.22 52.21h3.91v2.63h-3.91z" class="cls-4"/><path d="M19.06 6.92s17.8 7.45 20.91 35.61c0 0 18.22 30.43 21.95 48.24M88 122.24s-.73-1.5-1.9-3.76" class="cls-6"/><path d="M60.59 85.58s12.49 11.63 16.23 16.99c2.66 3.81 5.52 8.85 7.67 12.87M12.22 57.99s12.5 27.81 35.82 41.06" class="cls-6"/><path d="M40.2 94.26s7.77 20.25 13.57 28.32" class="cls-6"/><path d="m59.08 79.32-.59.34-8.53 4.93-3.06 1.76-9.27 5.35-1.26.73c-1.24.72-2.82.39-3.67-.75L13.79 66.3c-.95-1.29-.65-3.08.63-3.98.07-.06.14-.11.22-.15l27.51-15.88h.01c1.4-.81 3.2-.27 3.92 1.18l2.64 5.27 1.39 2.77 4.38 8.74 1.39 2.78s0 0 0 0l4.31 8.58c.67 1.33.18 2.96-1.11 3.7Z" style="stroke-width:2px;fill:#87ccf3;stroke-linejoin:round;stroke-linecap:round;stroke:#000"/><path d="M46.36 76.02c.18.03.36.06.54.08-.18-.02-.36-.05-.54-.08Z" class="cls-8"/><circle cx="44.3" cy="63.9" r="12" class="cls-1"/><circle cx="44.3" cy="63.9" r="10.2" style="stroke-miterlimit:10;fill:#fff;stroke-width:.25px;stroke:#000"/><path d="m40.66 74.72.39.12-.39-.12ZM41.04 74.84c.22.06.43.12.65.17-.22-.05-.44-.11-.65-.17ZM41.7 75.01c.18.04.35.08.53.11-.18-.03-.35-.07-.53-.11Z" class="cls-8"/><path d="M40.87 59.23s8.62 10.38 8.47 10.51-9.02-10.04-9.02-10.04c-.13-.15-.1-.37.05-.5s.38-.12.5.03Z"/><path d="M44.93 63.54c.07.08.12.18.14.28.04.16.01.33-.06.47-.04.07-.09.13-.15.19s-.13.09-.21.12c-.09.03-.18.04-.27.04-.07 0-.13-.02-.2-.05-.09-.04-.18-.1-.25-.18s-.12-.18-.14-.28a.691.691 0 0 1 .06-.47c.04-.07.09-.13.15-.19s.13-.09.21-.12c.09-.03.18-.04.27-.04.07 0 .14.02.2.05.09.04.18.1.25.18ZM40.32 57.75c-.09-.04-.2-.06-.3-.07-.14-.01-.29 0-.42.05-.11.04-.22.1-.32.19s-.18.18-.23.29c-.12.22-.15.48-.1.72.03.16.11.3.22.43s.24.22.39.28c.09.04.2.07.3.07.14.01.29 0 .42-.05.11-.04.22-.1.32-.19s.18-.18.23-.29c.12-.22.15-.48.1-.72-.03-.16-.11-.3-.22-.43s-.24-.22-.39-.28Zm.26.79c.03.16.01.32-.06.47-.04.07-.09.13-.15.19s-.13.09-.21.12c-.09.03-.18.04-.27.04-.07 0-.13-.02-.2-.05-.09-.04-.18-.1-.25-.18s-.12-.18-.14-.28a.764.764 0 0 1 .06-.47.634.634 0 0 1 .36-.31c.09-.03.18-.04.27-.04.07 0 .13.02.2.05.09.04.18.1.25.18s.12.18.14.28Z"/><path d="m48.29 71.91-.33-.67M40.65 56.58l-.33-.67M36.3 67.9l.68-.34M51.63 60.26l.68-.34M41.47 72.39l.24-.71M46.91 56.15l.24-.72M52.79 66.75l-.72-.24M36.54 61.31l-.71-.24" class="cls-7"/><circle cx="36.75" cy="59.15" r=".15"/><circle cx="38.36" cy="57.18" r=".15"/><circle cx="43.57" cy="72.84" r=".15"/><circle cx="46.12" cy="72.74" r=".15"/><circle cx="45" cy="55.03" r=".15"/><circle cx="42.45" cy="55.14" r=".15"/><circle cx="51.83" cy="68.73" r=".15"/><circle cx="50.21" cy="70.7" r=".15"/><circle cx="39.5" cy="71.48" r=".15"/><circle cx="37.53" cy="69.86" r=".15"/><circle cx="53.19" cy="64.65" r=".15"/><circle cx="53.09" cy="62.11" r=".15"/><circle cx="35.38" cy="63.22" r=".15"/><circle cx="35.49" cy="65.77" r=".15"/><circle cx="49.08" cy="56.4" r=".15"/><circle cx="51.05" cy="58.02" r=".15"/><path d="M95.49 111.61c-2.28 2.88-5.65 5.24-9.39 6.87-6.6 2.9-14.38 3.54-19.5.82-5.3-2.82-7.58-9.18-8.63-12.11-2.03-5.67-.58-10.02-3.47-14.38-2.31-3.49-5.04-5.2-7.6-6.46l3.06-1.76c2.2 1.24 5.5 3.43 7.48 6.87 2.48 4.29 1.48 7.14 3.22 12.72.9 2.88 2.86 9.13 7.41 11.91 4.31 2.63 10.83 2.06 16.42-.65 3.34-1.62 6.35-4 8.37-6.92 2.47-3.56 2.74-6.9 2.25-26.56-.16-6.45-.34-21.23-.51-26.17h2.82c.23 5.51.48 21.21.7 28.83.56 19.97.24 23.36-2.63 26.99Z" class="cls-1"/><path d="M102.13 41.4c-1.12 1.96-2.57 3.36-3.47 6.57-.31 1.13-.47 2.19-.55 3.12h-4.33c-.01-.97-.13-2.09-.44-3.27-.83-3.2-2.37-4.47-3.67-6.64-2.93-4.9-2.51-13.38-.62-17.89.48-1.14 2.83-5.75 6.63-5.85 4.01-.11 6.73 4.96 7.16 5.94 2.01 4.51 2.14 13.05-.71 18.02Z" style="stroke-miterlimit:10;fill:#87ccf3;stroke:#000"/><rect width="5.82" height="6.92" x="93.13" y="50.16" class="cls-4" rx="1.38" ry="1.38"/><path d="M90.82 52.11v3.02c0 .82-.67 1.49-1.49 1.49s-1.48-.67-1.48-1.49v-3.02c0-.82.67-1.49 1.48-1.49s1.49.67 1.49 1.49Z" class="cls-4"/></svg>