<svg xmlns="http://www.w3.org/2000/svg" id="Calque_1" viewBox="0 0 128 128"><defs><style>.cls-1{fill:#fff}.cls-1,.cls-10,.cls-2,.cls-5,.cls-6{stroke-linecap:round}.cls-1,.cls-2,.cls-5,.cls-6{stroke-linejoin:round}.cls-1,.cls-10,.cls-12,.cls-2,.cls-5,.cls-6{stroke:#000}.cls-10,.cls-12,.cls-2,.cls-6{fill:none}.cls-10,.cls-5,.cls-6{stroke-width:2px}.cls-5{fill:#ff6d75}.cls-10,.cls-12{stroke-miterlimit:10}</style></defs><path d="M19.06 6.92s17.8 7.45 20.91 35.61c0 0 18.22 30.43 21.95 48.24" class="cls-10"/><path d="M60.59 85.58s12.48 11.63 16.23 16.99C82.04 110.04 88 122.24 88 122.24M17.2 66.34s10.77 22.15 30.85 32.71" class="cls-10"/><path d="M40.2 94.26s7.77 20.25 13.57 28.32" class="cls-10"/><path d="M59.43 14.77h9.09v39.4c0 2.51-2.04 4.54-4.54 4.54h0c-2.51 0-4.54-2.04-4.54-4.54v-39.4h0Z" class="cls-6"/><path d="M59.43 27.42h9.09v26.75c0 2.51-2.04 4.54-4.54 4.54h0c-2.51 0-4.54-2.04-4.54-4.54V27.42h0ZM74.45 27.42h9.09v26.75c0 2.51-2.04 4.54-4.54 4.54h0c-2.51 0-4.54-2.04-4.54-4.54V27.42h0ZM89.48 27.42h9.09v26.75c0 2.51-2.04 4.54-4.54 4.54h0c-2.51 0-4.54-2.04-4.54-4.54V27.42h0Z" class="cls-5"/><path d="M59 8.48h9.94v6.29H59z" style="fill:#fab0b4;stroke-width:2px;stroke:#000;stroke-linejoin:round;stroke-linecap:round"/><path d="M74.45 14.77h9.09v39.4c0 2.51-2.04 4.54-4.54 4.54h0c-2.51 0-4.54-2.04-4.54-4.54v-39.4h0Z" class="cls-6"/><path d="M74.03 8.48h9.94v6.29h-9.94z" style="fill:#8987f3;stroke-width:2px;stroke:#000;stroke-linejoin:round;stroke-linecap:round"/><path d="M61.96 8.48v6.29M63.97 8.48v6.29M65.99 8.48v6.29M76.98 8.48v6.29M79 8.48v6.29M81.01 8.48v6.29" class="cls-2"/><path d="M89.48 14.77h9.09v39.4c0 2.51-2.04 4.54-4.54 4.54h0c-2.51 0-4.54-2.04-4.54-4.54v-39.4h0Z" class="cls-6"/><path d="M89.05 8.48h9.94v6.29h-9.94z" style="stroke-width:2px;fill:#76ac75;stroke:#000;stroke-linejoin:round;stroke-linecap:round"/><path d="M92.01 8.48v6.29M94.02 8.48v6.29M96.03 8.48v6.29" class="cls-2"/><path d="M62.01 20.82h3.92v31.02h-3.92zM77.04 20.82h3.92v31.02h-3.92zM92.06 20.82h3.92v31.02h-3.92z" class="cls-1"/><path d="m71.99 91.6-13.2 7.46" class="cls-12"/><path d="m121.17 67.96-38.9 21.53a7.844 7.844 0 0 0-2.37-4.97c-.22-.22-.46-.43-.72-.62l38.9-21.53 3.1 5.6Z" class="cls-6"/><path d="m95.8 82.01-13.52 7.48a7.844 7.844 0 0 0-2.37-4.97c-.22-.22-.46-.43-.72-.62l13.52-7.48 3.1 5.6Z" class="cls-5"/><path d="m82.13 88.55-2.78 1.54-2.62.28-4.93 1.26 3.69-3.51 1.63-2.07 2.78-1.54a7.844 7.844 0 0 1 2.23 4.03Z" class="cls-6"/><path d="m116.27 58.73 7.03 12.69" style="stroke-width:3px;fill:none;stroke:#000;stroke-linejoin:round;stroke-linecap:round"/><path d="M96.96 72.38h15.5v2.08h-15.5z" style="stroke-width:3px;stroke:#000;stroke-linejoin:round;stroke-linecap:round" transform="rotate(61.04 104.713 73.42)"/><path d="m89.54 81.81 1.55 2.8M86.51 83.49l1.55 2.8M83.44 85.19l1.55 2.8" class="cls-12"/><circle cx="57.01" cy="100.13" r=".22" style="stroke:#ff6d75;stroke-width:2px;fill:none;stroke-linejoin:round;stroke-linecap:round"/></svg>