<svg xmlns="http://www.w3.org/2000/svg" id="Calque_1" data-name="Calque 1" viewBox="0 0 128 128"><defs><style>.cls-1{fill:#d6d6d6}.cls-1,.cls-2,.cls-3,.cls-4,.cls-5{stroke:#000;stroke-linecap:round;stroke-linejoin:round}.cls-2{fill:#baa584}.cls-3{fill:#a07637}.cls-4{fill:#fff}.cls-5{fill:none}</style></defs><path d="M7.23 75.49h29.62v46.53H7.23z" class="cls-1"/><path d="m47.1 77.76-.31.81-1.4 3.67c-.1.25-.37.38-.62.3-.21-.07-.35-.26-.35-.48s0-.08.02-.13l.11-.43h0l.47-1.8 2.07-1.95Z" class="cls-4"/><path d="m51.89 43.07-.09 6.73-.1 1.43-.1 1.55-.3 4.37-1.53 14.51c0 .09-.02.18-.06.26l.08.68s.87 2.36-.2 4.53c-.02.04-.04.07-.06.11-.62 1.29-.83 2.23-.89 2.74-.04.27-.26.48-.54.49h-.02c-.29 0-.53-.21-.56-.5-.05-.57-.07-1.54.18-2.57l-.91 1.19.31-.81-2.07 1.95-.47 1.79h0l-.41.54c-.16.2-.46.23-.65.07a.477.477 0 0 1-.14-.33c0-.06 0-.11.04-.17l2.38-6.38s.87-2.29 1.31-3.93c0-.02 0-.05.02-.07l-.35-20.95s-.56-5.33-.56-10.46h5.23l-.07-.52c.18 1.25.36 2.52.56 3.76Z" class="cls-4"/><path d="m47.1 77.76-.31.82-2.24 2.92.48-1.79 2.07-1.95zM75.06 78.62l.31.81 1.4 3.67c.1.25.37.38.62.3.21-.07.35-.26.35-.48 0-.05 0-.08-.02-.13l-.11-.43h0l-.47-1.8-2.07-1.95Z" class="cls-4"/><path d="m70.26 43.92.09 6.73.1 1.43.1 1.55.3 4.37 1.53 14.51c0 .09.02.18.06.26l-.08.68s-.87 2.36.2 4.53c.02.04.04.07.06.11.62 1.29.83 2.23.89 2.74.04.27.26.48.54.49h.02c.29 0 .53-.21.56-.5.05-.57.07-1.54-.18-2.57l.91 1.19-.31-.81 2.07 1.95.47 1.79h0l.41.54c.16.2.46.23.65.07.08-.08.14-.2.14-.33 0-.06 0-.11-.04-.17l-2.38-6.38s-.87-2.29-1.31-3.93c0-.02 0-.05-.02-.07l.35-20.95s.56-5.33.56-10.46h-5.23l.07-.52c-.18 1.25-.36 2.52-.56 3.76Z" class="cls-4"/><path d="m75.06 78.62.3.81 2.24 2.92-.48-1.79-2.06-1.94zM57.42 116.13l.98-17.24-5.65.53.4 16.61 4.27.1zM62.1 116.36v-3.82l.65-10.78 5-2.61-1.05 16.88-4.6.33z" class="cls-4"/><path d="m71.06 69.17-3.84 40.53h-6.05l.03-45.26-.94-.13-1.93 45.39h-6.05s-.75-16.68-1.67-31.62c-.16-2.65-.33-5.26-.49-7.7-.37-5.44-.03-9.45.61-12.39.4-1.86.91-3.29 1.43-4.37 1.07-2.26 2.13-2.98 2.13-2.98 6.99-4.04 13.12 0 13.12 0 1.09 1.59 1.89 3.33 2.47 5.06.25.75.46 1.52.63 2.26.11.49.21.98.29 1.45.94 5.26.25 9.76.25 9.76Z" class="cls-2"/><path d="m54.46 122.23-8.72.11c-.64 0-1.17-.5-1.19-1.14h0c-.01-.44.23-.86.62-1.07l7.42-3.97c.17-.09.36-.14.55-.14h3.79c.55 0 1.03.38 1.15.92l.73 3.25c.02.07.03.15.03.23v.57c.03.66-.49 1.2-1.15 1.21l-1.5.02-1.73.02ZM65.38 122.24l8.72.11c.64 0 1.17-.5 1.19-1.14h0c.01-.44-.23-.86-.62-1.07l-7.42-3.97c-.17-.09-.36-.14-.55-.14h-3.79c-.55 0-1.03.38-1.15.92l-.73 3.25c-.02.07-.03.15-.03.23v.57c-.03.66.49 1.2 1.15 1.21l1.5.02 1.73.02Z" class="cls-3"/><path d="m71.1 37.37.16 4.45 5.49-.25c.05-10.14-4.34-11.36-5.58-11.5l-4.77-1.11h-.02l-2.56-.61h-5.45l-2.79.75-4.45 1.2v.05c-1.45.25-5.44 1.8-5.39 11.48l5.21.24-.22 13.01-.63 2.76v.13h1.76l16.47-.03h3.2l-.91-2.96.48-17.62Z" class="cls-2"/><path d="M7.23 2.57h112.68v3.4H7.23zM7.23 122.02h112.68v3.4H7.23z" class="cls-1"/><path d="m63.82 28.36-.52 1.11c-.89 1.91-3.61 1.88-4.46-.05l-.47-1.06.86-2.18h4.25l.34 2.18Z" class="cls-4"/><path d="M60.61 9.55s0 1.06-.38 1.77h0M58.55 11.77c-.84-.48-1.4-1.71-1.4-1.71M55.91 21.49h0c-.1-.02-.79-.2-1.19-1.28-.44-1.17-.94-1.03-.98-2.24-.03-1.14 1.15-.65 1.28-.58M65.59 11.05s-.82.49-1.73.65" class="cls-5"/><path d="M56.82 12.29c.52.03 1.13-.1 1.73-.52.25.15.52.23.8.2.4-.04.67-.31.86-.64.01 0 .02.02.03.02.11.11.84.74 1.73-.12.47.56 1.2.62 1.89.49.41.31.97.28.97.28.03.05.07.1.1.15 1.68 2.36 1.84 3.97 1.85 4.14.1-.42.18-.82.23-1.2-.09.71-.22 1.22-.25 1.33h0v.03h0c.02.67.03 2.4-.24 4.2-.23 1.49-.68 3.03-1.5 4.02-1.89 2.3-3.12 2.35-3.3 2.34-.19.04-1.48.24-3.72-1.75-.96-.85-1.64-2.3-2.1-3.74-.55-1.73-.81-3.44-.89-4.11h0c-.02-.08-.02-.15-.02-.24.02.07.05.1.05.1-.02-.28-.02-.56-.02-.83.18-1.39 1.45-3.69 1.6-4.09l.19-.03Z" class="cls-4"/><path d="M55.03 16.41c-.04.26-.05.5-.03.72" class="cls-5"/><path d="m55.02 17.38-.01-.02h0c-.06-.14-.36-.82-.57-1.75v-.03c-.42-1.86-.43-4.66 2.65-5.9 0 0 .19-1.02 1.49-.86 0 0 1.51-1.65 3.33-.3 1.26-.36 1.61.62 1.61.62 3.48.82 3.7 3.96 3.5 5.83 0 .04-.01.07-.01.1" class="cls-5"/><path d="M64.96 12.32s1.79 2.61 1.79 4.11M54.98 17.09h0s0 .12.03.26h0v.03M66.76 16.43v-.02M66.75 16.14s0 .1.01.26M66.51 20.63h0c.09-.04.75-.32.98-1.45.25-1.22.77-1.17.63-2.37-.15-1.13-1.24-.46-1.36-.38M62.72 10.19c-.23.42-.45.74-.67.96-.03.03-.04.06-.07.07M60.24 11.34l-.02-.02" class="cls-5"/><path d="M61.45 16.28s.4 3.6 1.19 5.41c0 0-.15.37-1.32.14" class="cls-4"/><ellipse cx="59.04" cy="18" class="cls-4" rx=".12" ry=".36" transform="rotate(-4.42 59.124 17.982)"/><ellipse cx="64" cy="17.53" class="cls-4" rx=".12" ry=".36" transform="rotate(-4.42 64.073 17.524)"/><path d="M7.23 5.98v116.04M19.75 5.98v116.04M32.27 5.98v116.04M44.79 5.98v116.04M57.31 5.98v116.04M69.83 5.98v116.04M82.35 5.98v116.04M94.87 5.98v116.04M107.39 5.98v116.04M119.91 5.98v116.04" class="cls-5"/></svg>