<svg xmlns="http://www.w3.org/2000/svg" id="Calque_1" data-name="Calque 1" viewBox="0 0 128 128.13"><defs><style>.cls-1{fill:#fff}.cls-1,.cls-2,.cls-6,.cls-8{stroke-linecap:round;stroke-linejoin:round}.cls-1,.cls-13,.cls-2,.cls-6,.cls-8{stroke:#000}.cls-13,.cls-2,.cls-8{fill:none}.cls-6,.cls-8{stroke-width:2px}.cls-6{fill:#ff6d75}.cls-13{stroke-miterlimit:10}</style></defs><path d="m42.16 87.13-15.03-1.98" class="cls-13"/><path d="m95.67 97.82-44.02-6.19c.17-.27.32-.55.45-.84.67-1.42.89-3.01.64-4.57a7.72 7.72 0 0 0-.2-.93l44.02 6.19-.89 6.34Z" class="cls-8"/><path d="m66.95 93.78-15.3-2.15c.17-.27.32-.55.45-.84.67-1.42.89-3.01.64-4.57a7.72 7.72 0 0 0-.2-.93l15.3 2.15-.89 6.34Z" class="cls-6"/><path d="m52.1 90.79-3.15-.44L46.69 89l-4.7-1.96 5.06-.58 2.54-.67 3.15.44c.25 1.55.02 3.15-.64 4.57Z" class="cls-8"/><path d="m97.31 87.49-2.02 14.36" style="stroke-width:3px;fill:none;stroke:#000;stroke-linecap:round;stroke-linejoin:round"/><path d="M71.49 91.23h15.5v2.08h-15.5z" style="stroke-width:3px;stroke:#000;stroke-linecap:round;stroke-linejoin:round" transform="rotate(98.01 79.24 92.27)"/><path d="m62.08 89.86-.45 3.17M58.64 89.38l-.45 3.17M55.17 88.89l-.44 3.17" class="cls-13"/><path d="M30.6 24.42c-5.16 2.27-11.74 5.92-16.12 16.36 0 0-6.55 13.74-3.47 28.26 0 1.68.04 3.3.19 4.97-1.46 8.51 2.18 15.94 8.42 20.96 0 0 14.39 6.5 20.17 12.33 5.77 5.83 14.68 12.87 13.03 8.29-1.64-4.58-4.05-6.02-4.05-6.02M64.17 112.84c-1.72-1.28-3.36-4.87-7.85-6.95M62.99 105.85s-.04-.04-.06-.04" class="cls-8"/><path d="M32.37 43.25s2.57 18.94-.59 25.12c0 1.83.05 3.13 0 4.83 1.75 2.72.93 5.32.69 7.34 0 0 2-.52 9.83 6.79.24.22.48.46.72.7M53.86 109.55s4.19 2.76 5.51 4.97l.02.02M59.77 115.88c-.38 2.1-8.47-3.82-8.93-4.17l-.02-.02M59.39 114.54l-.02-.02" class="cls-8"/><path d="M47.97 93.47c-1.48-1.78-3.1-3.66-4.95-5.45" style="fill:#f3d587;stroke-width:2px;stroke:#000;stroke-linecap:round;stroke-linejoin:round"/><path d="M59.77 115.88c.08-.4-.08-.86-.38-1.34.38.28 5.65 3.93 4.79-1.7.78.58 1.56.68 2.64 0 3.26-2.12-3.16-6.55-3.83-6.99 4.21 2.02 7.77-3.16-1.8-2.58-5.29.32-8.73-4.39-13.22-9.79" class="cls-8"/><path d="m31.78 73.2-20.59.8-.19-4.96 20.78-.67v4.83z" style="fill:#d6d6d6;stroke-width:2px;stroke:#000;stroke-linecap:round;stroke-linejoin:round"/><path d="M72.65 24.42h9.09v39.4c0 2.51-2.04 4.54-4.54 4.54h0c-2.51 0-4.54-2.04-4.54-4.54v-39.4h0Z" class="cls-8"/><path d="M72.65 37.07h9.09v26.75c0 2.51-2.04 4.54-4.54 4.54h0c-2.51 0-4.54-2.04-4.54-4.54V37.07h0ZM87.67 37.07h9.09v26.75c0 2.51-2.04 4.54-4.54 4.54h0c-2.51 0-4.54-2.04-4.54-4.54V37.07h0ZM102.7 37.07h9.09v26.75c0 2.51-2.04 4.54-4.54 4.54h0c-2.51 0-4.54-2.04-4.54-4.54V37.07h0Z" class="cls-6"/><path d="M72.22 18.13h9.94v6.29h-9.94z" style="fill:#fab0b4;stroke-width:2px;stroke:#000;stroke-linecap:round;stroke-linejoin:round"/><path d="M87.67 24.42h9.09v39.4c0 2.51-2.04 4.54-4.54 4.54h0c-2.51 0-4.54-2.04-4.54-4.54v-39.4h0Z" class="cls-8"/><path d="M87.25 18.13h9.94v6.29h-9.94z" style="fill:#8987f3;stroke-width:2px;stroke:#000;stroke-linecap:round;stroke-linejoin:round"/><path d="M75.18 18.13v6.29M77.19 18.13v6.29M79.21 18.13v6.29M90.2 18.13v6.29M92.22 18.13v6.29M94.23 18.13v6.29" class="cls-2"/><path d="M102.7 24.42h9.09v39.4c0 2.51-2.04 4.54-4.54 4.54h0c-2.51 0-4.54-2.04-4.54-4.54v-39.4h0Z" class="cls-8"/><path d="M102.27 18.13h9.94v6.29h-9.94z" style="stroke-width:2px;fill:#76ac75;stroke:#000;stroke-linecap:round;stroke-linejoin:round"/><path d="M105.23 18.13v6.29M107.24 18.13v6.29M109.25 18.13v6.29" class="cls-2"/><path d="M75.23 30.47h3.92v31.02h-3.92zM90.26 30.47h3.92v31.02h-3.92zM105.28 30.47h3.92v31.02h-3.92z" class="cls-1"/><circle cx="25.07" cy="84.93" r=".22" style="stroke:#ff6d75;stroke-width:2px;fill:none;stroke-linecap:round;stroke-linejoin:round"/></svg>