<svg xmlns="http://www.w3.org/2000/svg" viewBox="0 0 128 128"><defs><style>.cls-1{fill:#f3d587}.cls-3{fill:#ff6d75}.cls-3,.cls-5,.cls-7{stroke-miterlimit:10}.cls-3,.cls-5{stroke:#000}.cls-5{fill:#d6d6d6}.cls-7{stroke:#1d1d1b;fill:#87f3b9}</style></defs><g style="isolation:isolate"><g id="Calque_1" data-name="Calque 1"><path d="M33.85 38.76c.93-.72 5-.65 7.54-.53 1.21.06 2.07.13 2.07.13s2.17 1.69.72 4.58-2.03 3.51-.58 5.68c1.45 2.17 2.57 1.61-.32 5.79-.8 1.15-.22 3.54 1.87 4.93 3.87 2.59 13.33 6.4 14.95 8.44 5.55 6.99 2.53 40-.72 41.48-3.47 1.57-18.61 5.44-31.96.78-2.12-.74-3.46-4.08-4.17-8.95-2.62-17.97 3.36-56.76 10.6-62.33Z" style="mix-blend-mode:multiply;fill:#d6d6d6;stroke:#000;stroke-miterlimit:10"/><path d="M52.66 20.54v4.65h4.02l1.61-1.25v-2.06l-1.73-1.34h-3.9zM45.12 26.63c.07-.17.08-.08.04-.02l5.04-4.32c-.15 2.69-1.75 6.66.08 8.93 1 1.24 7.77 6.86 7.23 7.02-1.97.91-8.8-5.14-9.56-5.94-.91-.96-2.59-4.44-2.83-5.67Z" class="cls-7"/><path d="M27.55 28.71 34.84 30l.11 2.25 7.4.11v-1.5l2.4-1.15 8.75-4.21-.11-5.14-5.48-.04-10.81-.07s-5.89 1.06-9.86 6.11c-1.18 1.5.32 2.36.32 2.36Z" style="stroke:#1d1d1b;fill:#d6d6d6;stroke-miterlimit:10"/><path d="M47.35 65.34c2.57 1.16 7.56 2.97 10.21 5.39 2.65 2.41 2.89 29.74-.8 35.37-3.02 4.6-27.76 2.9-28.62.48-1.45-4.1-3.42-26.44 1.21-42.69 2.05-7.18 6.75-13.5 8.68-5.31 1.26 5.36 4.34 4.5 9.33 6.75Z" class="cls-3"/><path d="M28.92 94.99h27.09L42.46 71.53 28.91 94.99Zm24.76-1.35H31.25l11.21-19.42 11.21 19.42Z"/><path d="M31.26 93.64h22.42L42.47 74.22 31.26 93.64z" class="cls-1"/><path d="M39.21 82.86c-.2-.96-.13-1.85.58-2.61.6-.64 1.47-.93 2.3-1.02.15-.01.28-.02.38-.02.1 0 .23 0 .38.02.83.08 1.7.37 2.3 1.02.71.77.78 1.66.58 2.61-.11.5-.26.84-.19 1.37.06.45.31.76.2 1.13-.29.96-1.29.65-1.53.91-.33.36.2 1.29-.36 1.45 0-.6-.51-.45-.38.12-.09.03-.34.07-.42.06.03-.26.06-.71-.2-.65-.08.02-.13.08-.15.15v.38c0 .06.01.13.02.18-.06.02-.15.03-.25.03-.09 0-.19 0-.25-.03 0-.05 0-.12.02-.18v-.38c-.02-.08-.06-.13-.15-.15-.26-.06-.23.39-.2.65-.08 0-.33-.03-.42-.06.13-.58-.39-.72-.38-.12-.56-.16-.03-1.09-.36-1.45-.23-.26-1.24.04-1.53-.91-.11-.37.14-.68.2-1.13.07-.53-.08-.87-.19-1.37Z"/><path d="M40 83.55c-.44 1.52.82 2.11 1.38 1.63.35-.29.82-.71.8-1.23-.04-.97-2.05-.88-2.18-.4ZM44.94 83.55c.44 1.52-.82 2.11-1.39 1.63-.35-.29-.82-.71-.8-1.23.04-.97 2.05-.88 2.18-.4ZM42.06 86.02s.08-.55.3-.66c.03-.02.07-.02.1-.02s.06 0 .1.03c.22.11.3.66.3.66.01.04.02.09 0 .13-.07.13-.18.04-.25-.02-.08-.06-.1-.11-.15-.11s-.07.05-.15.11c-.08.06-.19.15-.25.02-.02-.04-.01-.09 0-.13Z" class="cls-1"/><path d="m38.606 88.04.438-.865 7.532 3.807-.437.865z"/><path d="M38.62 87.42c.36.18.51.62.32.99a.73.73 0 0 1-.99.32.73.73 0 0 1-.32-.99.73.73 0 0 1 .99-.32Z"/><path d="M39.23 86.22c.36.18.51.62.32.99a.73.73 0 0 1-.99.32.73.73 0 0 1-.32-.99.73.73 0 0 1 .99-.32ZM46.37 91.41c.36.18.51.62.32.99a.73.73 0 0 1-.99.32.73.73 0 0 1-.32-.99.73.73 0 0 1 .99-.32Z"/><path d="M46.98 90.21c.36.18.51.62.32.99a.73.73 0 0 1-.99.32.73.73 0 0 1-.32-.99.73.73 0 0 1 .99-.32ZM38.352 90.983l7.534-3.804.437.866-7.534 3.804z"/><path d="M46.32 87.42a.73.73 0 0 0-.32.99c.18.36.62.51.99.32a.73.73 0 0 0 .32-.99.73.73 0 0 0-.99-.32Z"/><path d="M45.71 86.22a.73.73 0 0 0-.32.99c.18.36.62.51.99.32a.73.73 0 0 0 .32-.99.73.73 0 0 0-.99-.32ZM38.57 91.41a.73.73 0 0 0-.32.99c.18.36.62.51.99.32a.73.73 0 0 0 .32-.99.73.73 0 0 0-.99-.32Z"/><path d="M37.96 90.21a.73.73 0 0 0-.32.99c.18.36.62.51.99.32a.73.73 0 0 0 .32-.99.73.73 0 0 0-.99-.32ZM92.57 24.03c0 1.02.83 1.85 1.85 1.85s1.85-.83 1.85-1.85v-8.37c0-1.02-.83-1.85-1.85-1.85s-1.85.83-1.85 1.85v8.37Z"/><path d="M92.57 24.03c0 1.02.83 1.85 1.85 1.85s1.85-.83 1.85-1.85v-8.37c0-1.02-.83-1.85-1.85-1.85s-1.85.83-1.85 1.85v8.37Z" style="fill:none;stroke:#000;stroke-miterlimit:10"/><path d="M93.69 16.23c0 .4.32.72.72.72s.72-.32.72-.72-.32-.72-.72-.72-.72.32-.72.72Z" style="fill:#fff"/><rect width="12.31" height="9.65" x="88.44" y="19.55" class="cls-5" rx="4.44" ry="4.44"/><path d="M83.68 29.92v77.99c0 1.78 2.09 3.22 4.67 3.22h12.37c2.58 0 4.67-1.44 4.67-3.22V29.92c0-.09 0-.18-.02-.27-.17-1.42-1.67-2.57-3.64-2.87-.33-.05-.66-.08-1.01-.08H88.35c-.35 0-.69.03-1.01.08-1.97.3-3.47 1.45-3.64 2.87-.01.09-.02.18-.02.27Z" class="cls-3"/><path d="M85.8 25.34c0 .8.65 1.45 1.45 1.45h14.71a1.451 1.451 0 0 0 0-2.9H87.25c-.8 0-1.45.65-1.45 1.45Z" class="cls-5"/><path d="M83.68 48.44v41.53c3.16 1.73 6.76 2.71 10.58 2.71 4.05 0 7.84-1.1 11.13-3.02V48.75a21.984 21.984 0 0 0-11.13-3.02c-3.82 0-7.42.98-10.58 2.71Z" style="fill:#b2f0e9;stroke:#000;stroke-miterlimit:10"/><path d="M85.47 76.58h18.12l-9.06-15.69-2.84 4.92-6.22 10.77Zm1.56-.9 4.73-8.2 2.76-4.79 7.5 12.99h-15Z"/><path d="M87.03 75.68h15l-7.5-12.99-7.5 12.99z" class="cls-1"/><path d="M92.35 68.47c-.13-.64-.09-1.23.39-1.75.4-.43.98-.62 1.54-.68.1-.01.19-.02.25-.02.07 0 .15 0 .26.02.56.06 1.14.25 1.54.68.48.51.52 1.11.39 1.75-.07.34-.17.56-.13.92.04.3.21.51.13.76-.19.64-.87.44-1.02.61-.22.24.14.86-.24.97 0-.4-.34-.3-.26.08-.06.02-.23.05-.28.04.02-.18.04-.48-.13-.44-.06.01-.08.05-.1.1v.26c0 .04 0 .08.01.12-.04.01-.1.02-.17.02-.06 0-.12 0-.16-.02 0-.04 0-.08.01-.12v-.26c-.01-.05-.04-.09-.1-.1-.17-.04-.15.26-.13.44-.05 0-.22-.02-.28-.04.09-.38-.26-.48-.26-.08-.38-.1-.02-.73-.24-.97-.16-.17-.83.03-1.02-.61-.08-.25.09-.45.13-.76.05-.35-.06-.58-.13-.92Z"/><path d="M92.87 68.93c-.29 1.02.55 1.41.93 1.09.24-.2.55-.48.53-.82-.03-.65-1.37-.59-1.46-.27ZM96.18 68.93c.29 1.02-.55 1.41-.93 1.09-.24-.2-.55-.48-.53-.82.03-.65 1.37-.59 1.46-.27ZM94.26 70.58s.05-.37.2-.44c.02-.01.05-.02.07-.02s.04 0 .07.02c.15.07.2.44.2.44 0 .03.02.06 0 .09-.04.08-.12.03-.17-.02-.05-.04-.07-.07-.1-.07s-.05.03-.1.07c-.05.04-.12.1-.17.02-.01-.02 0-.06 0-.09Z" class="cls-1"/><path d="m91.955 71.93.293-.58 5.034 2.543-.293.58z"/><path d="M91.96 71.52c.24.12.34.42.22.66-.12.24-.42.34-.66.22a.496.496 0 0 1-.22-.66c.12-.24.42-.34.66-.22Z"/><path d="M92.36 70.72c.24.12.34.42.22.66-.12.24-.42.34-.66.22a.496.496 0 0 1-.22-.66c.12-.24.42-.34.66-.22ZM97.14 74.18c.24.12.34.42.22.66-.12.24-.42.34-.66.22a.496.496 0 0 1-.22-.66c.12-.24.42-.34.66-.22Z"/><path d="M97.55 73.38c.24.12.34.42.22.66-.12.24-.42.34-.66.22a.496.496 0 0 1-.22-.66c.12-.24.42-.34.66-.22ZM91.778 73.903l5.034-2.543.293.58-5.034 2.544z"/><path d="M97.1 71.52c-.24.12-.34.42-.22.66.12.24.42.34.66.22.24-.12.34-.42.22-.66a.496.496 0 0 0-.66-.22Z"/><path d="M96.7 70.72c-.24.12-.34.42-.22.66.12.24.42.34.66.22.24-.12.34-.42.22-.66a.496.496 0 0 0-.66-.22ZM91.92 74.18c-.24.12-.34.42-.22.66.12.24.42.34.66.22.24-.12.34-.42.22-.66a.496.496 0 0 0-.66-.22Z"/><path d="M91.51 73.38c-.24.12-.34.42-.22.66.12.24.42.34.66.22.24-.12.34-.42.22-.66a.496.496 0 0 0-.66-.22Z"/><path d="M33.13 32.86c.07-.36.23-.69.46-.94.24-.27.56-.46.91-.52.08-.01.17-.02.26-.02h7.95c.09 0 .17 0 .26.02.35.06.67.25.91.52.23.25.39.58.46.94.03.13.04.27.04.4v6.24H33.09v-6.24c0-.14.01-.27.04-.4Z" class="cls-7"/><path d="M-5090.97-979.45h6467.34v6437.3h-6467.34z" style="fill:none;stroke:#fff;stroke-linecap:round;stroke-linejoin:round;stroke-width:8px"/></g></g></svg>