<svg xmlns="http://www.w3.org/2000/svg" id="Calque_1" data-name="Calque 1" viewBox="0 0 128 128"><defs><clipPath id="clippath"><path d="M91.79 45.85a.786.786 0 0 0-.95.52c-.06.19-.03.39.07.56.1.18.26.3.45.36.4.12.8-.1.92-.5a.75.75 0 0 0-.5-.94Zm-3.72-2.78v7h7v-7h-7Zm5.15 2.81c-.09.29-.21.55-.37.76a1.783 1.783 0 0 1-1.43.75c-.28 0-.53-.06-.76-.13a3.31 3.31 0 0 1-.8-.33c-.09-.05-.17-.12-.25-.18l-.29-1.2c.24-.51.6-.91 1.05-1.16.38-.2.79-.31 1.21-.31.23 0 .47.03.69.1.18.05.36.13.55.24l.49 1.02c-.02.15-.05.3-.1.45Z" class="cls-1"/></clipPath><clipPath id="clippath-1"><path d="M91.79 45.85a.786.786 0 0 0-.95.52c-.06.19-.03.39.07.56.1.18.26.3.45.36.4.12.8-.1.92-.5a.75.75 0 0 0-.5-.94Zm-3.72-2.78v7h7v-7h-7Zm5.15 2.81c-.09.29-.21.55-.37.76a1.783 1.783 0 0 1-1.43.75c-.28 0-.53-.06-.76-.13a3.31 3.31 0 0 1-.8-.33c-.09-.05-.17-.12-.25-.18l-.29-1.2c.24-.51.6-.91 1.05-1.16.38-.2.79-.31 1.21-.31.23 0 .47.03.69.1.18.05.36.13.55.24l.49 1.02c-.02.15-.05.3-.1.45Z" class="cls-1"/></clipPath><clipPath id="clippath-2"><path d="M88.66 39.65v10.2h10.2v-10.2h-10.2Zm3.92 5.74c.04.07.08.12.13.18l-.12 1.37c-.2.18-.41.3-.64.37-.15.05-.32.07-.5.07-.22 0-.41-.04-.56-.07l-.64-.47s-.05-.06-.08-.12a4.08 4.08 0 0 1-.43-2.67c.11-.08.21-.16.34-.23.74-.4 1.58-.49 2.39-.26.08.02.14.06.22.09l.05.23c-.13.15-.21.31-.26.48-.1.35-.06.71.11 1.03Zm-.78.46a.786.786 0 0 0-.95.52c-.06.19-.03.39.07.56.1.18.26.3.45.36.4.12.8-.1.92-.5a.75.75 0 0 0-.5-.94Z" class="cls-1"/></clipPath><clipPath id="clippath-3"><path d="M92.21 42.19v7.6h6.66v-7.6h-6.66Zm4.95 4.42c-.17.25-.42.41-.71.46-.07.01-.14.02-.21.02-.22 0-.44-.07-.62-.2-.25-.17-.41-.42-.46-.71-.05-.29 0-.59.18-.83.04-.06.11-.11.16-.16l.56-.23c.42.11.76.37.98.55l.07.07.09.09-.06.05.11.73c-.02.05-.03.11-.07.15Z" class="cls-1"/></clipPath><style>.cls-1,.cls-2,.cls-3,.cls-7{fill:none}.cls-8{fill:#76ac75}.cls-12,.cls-14,.cls-15,.cls-2,.cls-7,.cls-8,.cls-9{stroke:#000}.cls-12,.cls-2,.cls-8,.cls-9{stroke-linecap:round;stroke-linejoin:round}.cls-9{fill:#d6d6d6}.cls-12,.cls-14,.cls-15{fill:#fff}.cls-14,.cls-15,.cls-3,.cls-7{stroke-miterlimit:10}.cls-3{stroke:#baa584}.cls-15,.cls-3{stroke-width:.75px}</style></defs><path d="M45.5 128.46c-.07-3.05 0-7.04.26-9.57.88-8.69 4.75-15.8 7.41-20.55 1.68 1.41 4.47 2.56 6.56 3.07 3.45.86 4.86.99 8.33.86.55-.05 1.11-.09 1.61-.15 5.02-.57 8.24-1.13 8.24-1.13s6.98 15.47 9.79 24.75c.23.74.46 1.66.71 2.72" style="fill:#87ccf3;stroke-linecap:round;stroke-linejoin:round;stroke:#000"/><path d="M99.02 53.91c-2.08-1.37-2.84-6.97-3.38-9.12-.54-2.16-2.1-3.02-2.1-3.02l2.64-.16s1.09 1.1 2.07 2.55c.98 1.45 2.72.98 2.72.98v9.07l-1.95-.3Z" class="cls-14"/><path d="M100.4 40.64s.37-1.08 1.39 1.27 2.41 5.45 2.41 5.45" class="cls-7"/><path d="M75.54 51.79c-.52.23-1.06.41-1.6.54-4.53 1.08-9.68-.85-11.44-1.58l.54-7.7.06-.87 11.9-2.3.31 2.47 1 8.37c-.06.15-.1.33-.15.46-.04.1-.15.39-.15.39l-.46.21Z" class="cls-12"/><path d="M67.37 9.21s.01 2.22-.8 3.72h-.02M63.06 13.87c-1.75-1.02-2.94-3.59-2.94-3.59M57.51 34.24h-.02c-.21-.04-1.65-.42-2.49-2.69-.92-2.45-1.96-2.17-2.06-4.71-.06-2.4 2.42-1.36 2.69-1.22M77.83 12.36s-1.72 1.02-3.63 1.37" class="cls-2"/><path d="M59.43 14.95c1.09.06 2.37-.2 3.63-1.09.53.32 1.09.48 1.69.41.84-.09 1.4-.65 1.79-1.35.02.02.04.04.06.04.24.22 1.76 1.56 3.63-.26.98 1.18 2.52 1.3 3.96 1.03.86.66 2.02.59 2.02.59.07.1.16.21.21.31 3.51 4.96 3.86 8.32 3.88 8.68.21-.88.37-1.72.49-2.52-.19 1.49-.47 2.56-.53 2.79v.02l-.01.04h.02c.05 1.41.07 5.04-.51 8.8-.49 3.13-1.43 6.35-3.14 8.42-3.97 4.83-6.54 4.93-6.93 4.9-.4.09-3.11.5-7.8-3.68-2.02-1.78-3.44-4.82-4.4-7.84-1.15-3.63-1.69-7.22-1.86-8.62h.02c-.03-.16-.04-.32-.04-.5.05.14.1.21.1.21-.05-.58-.05-1.17-.03-1.73.38-2.92 3.04-7.74 3.36-8.58l.39-.07Z" class="cls-12"/><path d="M55.68 23.6c-.08.55-.1 1.06-.06 1.52" class="cls-2"/><path d="M55.65 25.62s0-.02-.02-.04v-.02c-.12-.27-.76-1.7-1.19-3.64v-.06c-.87-3.89-.9-9.76 5.56-12.38 0 0 .4-2.13 3.13-1.8 0 0 3.17-3.46 6.98-.62 2.65-.75 3.37 1.29 3.37 1.29 7.3 1.72 7.77 8.3 7.35 12.23-.01.08-.03.14-.02.2" class="cls-2"/><path d="M76.5 15.03s3.75 5.46 3.76 8.61M55.57 25.03v.02c0 .06.02.24.06.52v.06M80.27 23.64v-.04" class="cls-2"/><path d="M80.25 23.03s.02.2.02.54M79.74 32.44h.02c.2-.08 1.56-.67 2.05-3.05.53-2.56 1.61-2.45 1.31-4.97-.31-2.38-2.6-.97-2.85-.79M71.79 10.55c-.48.88-.95 1.55-1.4 2.01-.06.06-.09.13-.15.15M66.61 12.97l-.04-.04" class="cls-2"/><path d="M69.14 23.32s.84 7.55 2.49 11.35c0 0-.32.77-2.78.3" class="cls-12"/><ellipse cx="64.08" cy="26.94" class="cls-12" rx=".26" ry=".76" transform="rotate(-4.42 64.096 26.998)"/><ellipse cx="74.48" cy="25.95" class="cls-12" rx=".26" ry=".76" transform="rotate(-4.42 74.516 25.972)"/><path d="M107.6 59.55c-.14-1.73-.54-3.93-.7-4.19-.01-.01-.29-.01-.29-.01s-.11.23-.5.53c-.54.44-1.61 1.03-3.68 1.43-1.9.37-3.04.24-3.68.03-.57-.18-.76-.42-.76-.42-.61 1-.86 4.35-.97 5.58-.13 1.24.19 13.69.19 13.69s-5.5-19.18-11.75-21.76c-2.65-1.09-9.01-3.24-9.01-3.24-.22.13-.92.6-.92.6-.51.22-1.05.4-1.59.54-4.53 1.08-9.69-.85-11.44-1.59-.41-.17-.61-.28-.61-.28-2.84.36-5.64.97-8.36 1.89-2.97.99-5.57 2.17-8.04 4.14-2.49 2.03-4.71 4.38-6.81 6.81-1.02 1.17-2 2.37-2.99 3.59-.48.58-.97 1.16-1.44 1.75-2.38 2.87-4.75 5.79-6.7 8.95-3.41 5.5-5.88 12.5-2.58 18.64 1.96 3.65 5.2 6.49 8.38 9.09 3.78 3.09 7.95 5.87 12.41 7.94.81.37 1.73.31 2.46-.09.4-.23.74-.54 1-.96.88-1.44 1.61-2.95 2.27-4.49.07-.13.13-.3.19-.43.08-.17.14-.35.18-.53l.41.46c.76-.03 1.51 0 2.26.11.91.15 1.71.52 2.59.76 1.55.38 3.18.46 4.75.75.48.09.98.19 1.38.5.02.01.03.02.05.03.18.16.33.37.42.61 4.59.25 9.23-.15 13.72-1.18 1.72-.39 3.52-.95 4.58-2.43.96-1.35.86-29.85.86-29.85 2.11 1.96 4.24 5.56 7.68 11.41 3.46 5.85 6.9 7.3 8.94 7.65 2.04.34 5.04-4.38 6.99-8.91 1.95-4.52 2.29-12.91 2.4-16.36.13-3.44-.99-7.23-1.29-10.76ZM49.54 83.73c-.19 4.76-.64 11.53-.9 15.83-2.43-3.61-5.29-7.08-8.55-10.5a115.4 115.4 0 0 0 4.71-4.68c1.73-1.83 3.35-3.76 4.82-5.76.07.86.03 2.73-.08 5.11Z" class="cls-8"/><path d="M106.61 55.35v-.01" class="cls-2"/><path d="M51.5 107.72c.07.04.13.06.21.07 3.89 1.24 7.94 1.97 12.01 2.18M48.64 99.56c1.02 1.48 1.96 3.03 2.86 4.57.32.55.48 1.16.48 1.77a3.123 3.123 0 0 1 0 0c0-.61-.16-1.22-.48-1.77-.89-1.54-1.84-3.09-2.86-4.57" class="cls-8"/><path d="m71.02 53.13-1.61 56.45M68.21 58.77h6.27" class="cls-9"/><path d="M69.68 41.89c1.59.08 2.19-1.72 2.93-3.78 0 0-3.71.37-6.67-.05-1.51-.22 1.96 3.74 3.73 3.83Z" class="cls-2"/><path d="M69.28 118.03c-.62.56-1.54-.11-2.16-.35-1.03-.39-2.06-.76-3.09-1.15-.74-.27-1.48-.54-2.23-.8-.44-.16-.82-.48-1.27-.65-.16-.06-.6-.26-.75-.06-.15.2.23.45.36.56.32.29.63.57.96.84.63.53 1.29 1.03 1.94 1.52 1.33 1.02 2.68 2.01 3.89 3.18.05.05.09.1.13.15.4.34.42 1.01.04 1.37-.72.67-1.74-.32-2.33-.71-.97-.64-1.89-1.32-2.86-1.96-.71-.48-1.42-.97-2.13-1.44-.25-.16-1.23-1.2-1.57-.87-.32.28.59 1.01.73 1.21.36.47.72.93 1.08 1.39.73.93 1.47 1.84 2.25 2.73.08.08.13.17.17.26.22.24.45.49.68.73.42.44.24 1.19-.3 1.42-.79.35-1.37-.59-1.83-1.08-.72-.77-1.43-1.55-2.14-2.34-.5-.56-.99-1.12-1.48-1.69-.25-.29-1.3-1.7-1.71-.95-.08.14.08.46.13.59.16.43.42.8.63 1.2.58 1.07 1.14 2.13 1.69 3.21.29.6-.17 1.34-.84 1.32-.98-.03-1.41-1.69-1.76-2.39-.54-1.12-1.13-2.22-1.76-3.28-.11-.18-.21-.37-.37-.52-.19-.19-.44-.33-.66-.48-1.95-1.21-3.68-3.5-4.48-5.86.4-.22.74-.54 1-.96.88-1.44 1.62-2.95 2.28-4.49.07-.13.13-.29.19-.43.07-.17.13-.36.17-.53l.42.46c.75-.03 1.5 0 2.26.11.91.14 1.71.52 2.59.75 1.54.39 3.18.47 4.75.75.49.09.99.19 1.38.5.02.01.03.02.05.03.18.16.34.38.42.61.08.21.09.45 0 .66-.14.34-.49.55-.84.64-.64.16-1.35.1-1.99.05-.42-.03-.86-.1-1.27-.05-.63.08-.18.43.15.68.38.28.77.52 1.19.73.81.43 1.67.76 2.5 1.15 0 0 5.61 2.66 5.62 2.67.55.25.64 1.12.2 1.52Z" class="cls-12"/><path d="M46.1 19.02H9.7L27.91 6.71 46.1 19.02z" style="fill:#ff6d75;stroke-linecap:round;stroke-linejoin:round;stroke:#000"/><path d="M9.7 19.02h36.41v26.54H9.7z" class="cls-12"/><path d="M24.76 35.23h6.28v10.33h-6.28z" class="cls-2"/><path d="M16.21 24.48h4.88v7.1h-4.88zM34.7 24.48h4.88v7.1H34.7z" class="cls-7"/><path d="M92.65 46.9c-.17.59-.79.93-1.38.76s-.95-.79-.78-1.39.81-.94 1.41-.77.92.81.75 1.4Z" class="cls-15"/><path d="M92.65 46.9c-.17.59-.79.93-1.38.76s-.95-.79-.78-1.39.81-.94 1.41-.77.92.81.75 1.4Z" class="cls-15"/><path d="M96.37 45.52c-.06.21-.15.41-.25.59-.09.17-.21.32-.33.46-.17.19-.37.36-.59.49-.64.4-1.43.53-2.21.31-1.44-.42-2.27-1.94-1.85-3.38s1.94-2.27 3.38-1.85 2.27 1.94 1.85 3.38Z" class="cls-3"/><path d="M90.74 59.28c-.19.65-.84.46-.84.46l-1.29-.38v.02s-.17 1.07-.98.83-.43-1.24-.43-1.24l2.93-10.08c.19.14.42.25.68.33.18.05.36.08.55.1l-1.83 6.24 1.5.44s.6.22.43.81-.71.44-.79.41l-1.41-.41-.35 1.21 1.38.49s.63.14.44.77Z" class="cls-15"/><path d="M92.36 43.93c-1.46-.43-3 .41-3.43 1.88-.35 1.21.16 2.46 1.2 3.08.19.14.42.25.68.33.18.05.36.08.55.1 1.28.12 2.48-.69 2.85-1.96.43-1.47-.39-3-1.86-3.42Zm-1.09 3.72c-.59-.17-.95-.79-.78-1.39s.81-.94 1.41-.77.92.81.75 1.4-.79.93-1.38.76Z" class="cls-15"/><path d="M92.65 46.9c-.17.59-.79.93-1.38.76s-.95-.79-.78-1.39.81-.94 1.41-.77.92.81.75 1.4Z" class="cls-15" style="clip-path:url(#clippath)"/><path d="M92.65 46.9c-.17.59-.79.93-1.38.76s-.95-.79-.78-1.39.81-.94 1.41-.77.92.81.75 1.4Z" class="cls-15" style="clip-path:url(#clippath-1)"/><path d="M96.37 45.52c-.06.21-.15.41-.25.59-.09.17-.21.32-.33.46-.17.19-.37.36-.59.49-.64.4-1.43.53-2.21.31-1.44-.42-2.27-1.94-1.85-3.38s1.94-2.27 3.38-1.85 2.27 1.94 1.85 3.38Z" class="cls-3" style="clip-path:url(#clippath-2)"/><path d="M96.12 46.11c-.09.17-.21.32-.33.46-.17.19-.37.36-.59.49" style="stroke-width:.75px;stroke-miterlimit:10;stroke:#000;fill:none"/><path d="m99.37 49.09.47 3.22-1.76.26-1.31.19-1.78.25-.62-3.3 2.2-2.67 2.8 2.05z" style="stroke-miterlimit:10;stroke-width:.5px;fill:#ff6d75;stroke:#000"/><path d="M96.44 44.26c.27 1.47-.7 2.89-2.17 3.16" class="cls-3"/><circle cx="96.24" cy="45.99" r=".81" style="stroke-width:.59px;stroke-miterlimit:10;stroke:#000;fill:none"/><path d="M96.44 44.26c.27 1.47-.7 2.89-2.17 3.16" class="cls-3" style="clip-path:url(#clippath-3)"/><path d="M95.28 39.65s-1.49-.15-2.75 1-2.25 2.01-1.12 2.09c1.13.08 2.83-1.38 4.77-1.14s2.98.09 2.98.09-1.51-.34-3.08-1.52-3.21-1.44-3.91-2.56.91-.96 2.11-.61c1.2.35 3.47 1 3.47 1" class="cls-14"/><path d="M106.11 55.88c-.54.44-1.61 1.03-3.68 1.43-1.9.37-3.04.24-3.68.03-.02-.9.03-2.12.27-3.43.1-.54.23-1.1.41-1.67.91-2.81.89-4.97.43-7.08-.07-.36-.16-.72-.26-1.08-.69-2.48-.38-3-.38-3s-1.37-2.03-1.47-3.06c-.09-1.04-.3-2.51.63-1.61.91.89 2.04 3.36 3.05 4.29 1 .93 2.67 2.67 2.87 3.56.16.67 1.21 7.63 1.73 11.08.03.2.05.38.08.54Z" class="cls-14"/><path d="M99.17 41.2c.18-.77.56-1.62 1.23-.56s2.03 7.38 2.03 7.38" class="cls-7"/><path d="M-1021.42-4551.15h2244.45v5948.74h-2244.45z" style="stroke:#fff;stroke-width:8px;stroke-linecap:round;stroke-linejoin:round;fill:none"/></svg>