<svg xmlns="http://www.w3.org/2000/svg" id="Calque_1" viewBox="0 0 128 128.13"><defs><style>.cls-2,.cls-3,.cls-4,.cls-6{stroke:#000;stroke-linecap:round;stroke-linejoin:round}.cls-7{fill:#bfe6fc}.cls-2,.cls-3{fill:none}.cls-3{fill-rule:evenodd}.cls-8{fill:#ff6d75}.cls-4{fill:#d6d6d6;stroke-width:2px}</style></defs><path d="M9.02 16.12h107.09V112H9.02z" style="stroke-width:2px;fill:none;stroke:#000;stroke-linecap:round;stroke-linejoin:round"/><path d="M16.08 78.51h32.96v33.5H16.08z" class="cls-4"/><path d="M16.08 78.51h16.48v33.5H16.08z" class="cls-4"/><path d="M16.08 33.34h12.7v12.7h-12.7zM36.34 33.34h12.7v12.7h-12.7zM56.14 33.34h12.7v12.7h-12.7zM76.1 33.34h12.7v12.7H76.1zM96.04 33.34h12.7v12.7h-12.7zM56.14 51.36h12.7v12.7h-12.7zM76.1 51.36h12.7v12.7H76.1zM96.04 51.36h12.7v12.7h-12.7zM56.14 69.39h12.7v12.7h-12.7zM76.1 69.39h12.7v12.7H76.1zM96.04 69.39h12.7v12.7h-12.7z" class="cls-2"/><path d="M9.02 16.12h107.09v9.73H9.02z" class="cls-4"/><path d="M29.11 94.02v4.29M36.01 94.02v4.29" class="cls-2"/><path d="M17.76 41.27v-6.44h8.42v2.13s-3.03-1-4.77.88-1.74 3.43-1.74 3.43h-1.91ZM38.25 41.27v-6.44h8.42v2.13s-3.03-1-4.77.88-1.74 3.43-1.74 3.43h-1.91ZM57.74 41.27v-6.44h8.42v2.13s-3.03-1-4.77.88-1.74 3.43-1.74 3.43h-1.91ZM77.85 41.27v-6.44h8.42v2.13s-3.03-1-4.77.88-1.74 3.43-1.74 3.43h-1.91ZM97.82 41.27v-6.44h8.42v2.13s-3.03-1-4.77.88-1.74 3.43-1.74 3.43h-1.91ZM57.74 59.41v-6.44h8.42v2.13s-3.03-1-4.77.88c-1.74 1.88-1.74 3.43-1.74 3.43h-1.91ZM77.85 59.41v-6.44h8.42v2.13s-3.03-1-4.77.88c-1.74 1.88-1.74 3.43-1.74 3.43h-1.91ZM97.82 59.41v-6.44h8.42v2.13s-3.03-1-4.77.88c-1.74 1.88-1.74 3.43-1.74 3.43h-1.91ZM57.74 77.54V71.1h8.42v2.13s-3.03-1-4.77.88c-1.74 1.88-1.74 3.43-1.74 3.43h-1.91ZM77.85 77.54V71.1h8.42v2.13s-3.03-1-4.77.88c-1.74 1.88-1.74 3.43-1.74 3.43h-1.91ZM97.82 77.54V71.1h8.42v2.13s-3.03-1-4.77.88c-1.74 1.88-1.74 3.43-1.74 3.43h-1.91Z" class="cls-7"/><path d="M56.14 87.67h12.7v12.7h-12.7zM76.1 87.67h12.7v12.7H76.1zM96.04 87.67h12.7v12.7h-12.7z" class="cls-2"/><path d="M57.74 95.83v-6.44h8.42v2.13s-3.03-1-4.77.88c-1.74 1.88-1.74 3.43-1.74 3.43h-1.91ZM77.85 95.83v-6.44h8.42v2.13s-3.03-1-4.77.88c-1.74 1.88-1.74 3.43-1.74 3.43h-1.91ZM97.82 95.83v-6.44h8.42v2.13s-3.03-1-4.77.88c-1.74 1.88-1.74 3.43-1.74 3.43h-1.91Z" class="cls-7"/><path d="M17.78 50.87h5.49c1.08 0 1.96.31 2.62.92.66.61 1 1.47 1 2.58 0 .95-.3 1.78-.89 2.49-.59.71-1.5 1.06-2.73 1.06h-3.83v5.15h-1.65V50.88Zm6.44 1.68c-.37-.17-.87-.26-1.5-.26h-3.29v4.23h3.29c.74 0 1.34-.16 1.81-.47s.69-.87.69-1.67c0-.9-.33-1.51-1-1.83ZM29.77 50.87h2.37l3.5 10.31 3.48-10.31h2.34v12.19h-1.57v-7.2c0-.25 0-.66.02-1.24s.02-1.19.02-1.85l-3.48 10.28h-1.64l-3.5-10.28v.37c0 .3 0 .75.02 1.37.01.61.02 1.06.02 1.35v7.2h-1.58V50.87ZM45.2 50.87h1.67v12.19H45.2V50.87Z" class="cls-6"/><circle cx="99.33" cy="29.8" r="23.65" style="fill:#bfe6fc;stroke:#000;stroke-linecap:round;stroke-linejoin:round"/><path d="M104.57 6.99s.74 2.89-.84 4.67c-.64.72-.51 3.25-.89 3.62s-1.77-.16-1.77-.16-1.57 1.39-2.01 1.45c-.72.09-.48 1.53-1.57 1.45-1.09-.08-2.66-1.01-2.98-1.73" class="cls-3"/><path d="M113.29 20.95c.68.99-.35 6.78-.3 7.53s-.75 4.08-2.36 6.98c-1.61 2.9-7.08 9.71-8.16 10.3s-1.82.21-2.84-.48-1.77-.86-7.78-6.65-8.33-10.98-8-14.65c.27-3.05 1.02-2.84 3.33-5.58s2.79-5.37 2.79-5.37-1.05-3.5.93-5.33" class="cls-3"/><path d="M89.16 22.26s3.06.91 6.12 6.92 5.26 8.32 5.26 8.32 2.63-1.07 4.24-2.2c1.61-1.13 4.23-3.62 4.29-5.47.01-.42-.43-4.2-.35-4.92M103.01 23.01s-.21-.91-.97-1.72.16-1.88.16-1.88-.11-.59.27-1.02.29-1.25.4-1.38c.13-.17 1.59.04 1.91-.17s1.99-2.15 4.99-.59c3.01 1.56 3.68 4.02 2.9 5.74-.73 1.6-2.45 2.18-2.45 2.18" class="cls-3"/><path d="M103.88 23.7s-.9-.46-1.6.19-2.07 1.81-2.07 1.81-.91-2.22-.59-3.81c.11-.54-.16-1.38-.96-1.41s-1.51-.1-1.83.9.11 1.34.13 1.93.72 5.02 2.98 5.02c1.91 0 2.71-.48 2.71-.48M101.24 28.32s.4.51.48 1.37.03 3.57.8 4.56M86.02 31.54s4.58 10.93 2.17 18.56M107.62 44.01s1.56 4.27.06 7.75M105.17 34.91s-3.04-1.17-6.33.37M110.55 35.87s2.22 4.12 1.07 5.87c-1 1.52-3.36 2.19-4 2.27s-1.32-.4-1.32-.4" class="cls-3"/><path d="M30.57 65.58h3.45v9.85h-3.45z" class="cls-8"/><path d="M27.36 72.23v-3.44h9.85v3.44z" class="cls-8"/><path d="M97.49 18.02s2.17 1.92 4.71 1.4" class="cls-3"/></svg>