<svg xmlns="http://www.w3.org/2000/svg" id="Calque_1" viewBox="0 0 128 128"><defs><style>.cls-2{fill:none}.cls-2,.cls-3,.cls-6,.cls-7{stroke:#000;stroke-miterlimit:10}.cls-3{fill:#bbfedb}.cls-6{stroke-width:2px;fill:#b2f0e9}.cls-7{fill:#f3d587}</style></defs><path d="M-1740.29-816.91H914.79V694.86h-2655.08z" style="fill:none;stroke:#e30613;stroke-linecap:round;stroke-linejoin:round;stroke-width:8px"/><path d="M112.28 58.34a37.8 37.8 0 0 1-.33 3.72c-.2 1.42-.44 2.75-.67 3.85a53.82 53.82 0 0 1-.66 2.92c-16.71-1.66-25.04 5.06-29.09 13.3-20.56-6.28-30.18 0-30.18 0-4.06-8.24-12.39-14.96-29.1-13.3 0 0-.31-1.16-.66-2.91-.23-1.1-.48-2.44-.67-3.86a37.8 37.8 0 0 1-.33-3.72c-.17-4.02.46-7.79 3.22-8.39 1.29-.29 2.48-.24 3.61 0 1.56.31 3.01.98 4.42 1.62 1.44.65 2.86 1.26 4.39 1.47 1.17.17 2.39.11 3.72-.36 6.04-2.15 13.44-7.21 26.48-5.84 13.04-1.37 20.43 3.69 26.47 5.84 1.33.47 2.55.53 3.72.36 1.53-.21 2.95-.82 4.39-1.47 1.42-.64 2.85-1.31 4.41-1.62 1.13-.24 2.32-.29 3.61 0 2.76.6 3.39 4.37 3.22 8.39Z" style="stroke-width:2px;fill:#fff;stroke:#000;stroke-miterlimit:10"/><path d="M54.57 106.99C27.5 97.46 22.25 68.83 22.25 68.83c16.71-1.66 25.04 5.06 29.1 13.3 5.45 11.06 3.22 24.86 3.22 24.86Z" class="cls-6"/><path d="M20.93 62.06s6.57-1.51 13 0" class="cls-3"/><path d="m20.37 66.23-1.7-7.43c1.71-.52 8.92-2.14 16.13-.44l-1.75 7.42c-5.44-1.28-11.22 0-12.68.45Z" class="cls-3"/><path d="m31.85 51.55-2.1 6.1M36.24 53.03l-1.44 5.32" class="cls-2"/><path d="M110.62 68.83s-5.25 28.63-32.32 38.16c0 0-2.23-13.8 3.23-24.86 4.05-8.24 12.38-14.96 29.09-13.3Z" class="cls-6"/><path d="M111.94 62.06s-6.57-1.51-13 0" class="cls-3"/><path d="m112.5 66.23 1.7-7.43c-1.71-.52-8.92-2.14-16.13-.44l1.75 7.42c5.44-1.28 11.22 0 12.68.45Z" class="cls-3"/><path d="m105.44 49.95 1.97 7.2M101.02 51.55l2.1 6.1M96.63 53.03l1.44 5.32" class="cls-2"/><path d="M78.3 106.99c-11.13 14.33-23.73 0-23.73 0s2.23-13.8-3.22-24.86c0 0 9.62-6.28 30.18 0-5.46 11.06-3.23 24.86-3.23 24.86Z" style="fill:#fff;stroke:#000;stroke-miterlimit:10"/><path d="M62.89 33.05a3.93 3.93 0 0 1-7.86 0c0-2.17 3.93-13.06 3.93-13.06s3.93 10.88 3.93 13.06ZM75.59 36.83a3.93 3.93 0 0 1-7.86 0c0-2.17 3.93-13.06 3.93-13.06s3.93 10.88 3.93 13.06ZM67.88 17.01a2.5 2.5 0 0 1-5 0c0-1.38 2.5-8.28 2.5-8.28s2.5 6.9 2.5 8.28Z" class="cls-7"/></svg>