<svg xmlns="http://www.w3.org/2000/svg" id="Calque_1" data-name="Calque 1" viewBox="0 0 200.13 128.13"><defs><style>.cls-10,.cls-11,.cls-13,.cls-15,.cls-3,.cls-4,.cls-6{stroke:#000}.cls-15,.cls-3,.cls-4,.cls-6{stroke-linecap:round}.cls-15,.cls-3,.cls-4{stroke-linejoin:round}.cls-11{fill:#d6d6d6}.cls-15,.cls-3{fill:#fff}.cls-4,.cls-6{fill:none}.cls-10,.cls-11,.cls-13,.cls-6{stroke-miterlimit:10}.cls-10{fill:#ffd4ad}.cls-13{fill:#baa584}.cls-15{stroke-width:.75px}</style></defs><ellipse cx="109.72" cy="101.62" rx="65.05" ry="18.46" style="stroke-width:.75px;fill:#b2f0e9;stroke-miterlimit:10;stroke:#000"/><path d="M164.45 82c5.09-6 12.32-12.73 12.82-13.96.43.88 3.75 5.16 3.95 10.48.04 1.19-.29 2.43-.87 3.57-1.42 2.78-4.01 5.07-4.01 5.07s.65 1.29 1.6 3c.7 1.27.73 4.99.31 7.06-.14.74-.34 1.27-.59 1.39-.94.47-3.76.47-8.45 3.57-4.69 3.09-10.6 5.63-15.39 7.97-4.79 2.35-10.23 1.97-13.42.94-3.19-1.03-3.29-4.41-3.29-4.41-3.19.38-4.04-.59-5.82-3-1.77-2.41-2.25-5.63 3.01-14.93 5.25-9.29 15.08-16.68 15.08-16.68.57.64 5.07 2.33 6.62 3.1.56.28 2.23.64 4.42.83-.67.98-1.07 1.63-1.07 1.76 0 .21.16.37.42.52.5.3 1.37.58 2.07 1.25.87.83 1.23 1.75 1.6 2.24.27.36.54.49 1.01.23" class="cls-3"/><path d="M176.34 87.16s-8.25 6.78-12.01 9.57-12.86 7.13-13.61 8.82M137.11 106.68c-.94-4.04 2.91-9.29 2.91-9.29 3.94-4.41 10-11.87 13.23-15.04" class="cls-4"/><path d="M185.45 101.42c-1.77 2.49-2.32 3.59-4.41 2.54-2.09-1.05-1.86-1.26-2.16-4.32-.12-1.11-.36-1.88-.63-2.42.42-2.07.39-5.79-.31-7.06-.95-1.71-1.6-3-1.6-3s2.59-2.29 4.01-5.07c.39-.01 2.38.06 2.66 2.25.3 2.44 1.03 6.95 2.53 9.2s1.67 5.4-.09 7.88Z" style="fill:#d6d6d6;stroke-linejoin:round;stroke-linecap:round;stroke:#000"/><path d="m150.24 86.5 3.44-2.38c.51-.35 1.04-.66 1.53-1.04.25-.19.49-.39.7-.61.2-.21.46-.49.03-.47-.28.01-.56.11-.83.17-.42.1-.89.22-1.32.18-.25-.02-.5-.12-.63-.33-.17-.27-.07-.64.14-.89 0 0 .02-.02.02-.03.23-.24.55-.37.87-.48 1.01-.36 2.08-.59 3.06-1.02.56-.25 1.04-.59 1.64-.78.48-.15.98-.26 1.48-.32l.55-.85-.04-.05.51-.81c1.06 1.19 2.12 2.37 3.18 3.56-.47.5-.76.81-.77.79l-.01-.02c-.06 1.92-1.06 4.05-2.42 5.24-.14.12-.28.24-.39.39-.08.12-.13.25-.19.38-.3.78-.57 1.57-.81 2.37-.15.5-.26 1.65-.9 1.77-.44.09-.83-.35-.7-.78.24-.78.5-1.55.77-2.31.1-.29.23-.56.29-.86.02-.09.09-.32.02-.41-.35-.45-.89.59-1.03.82-.26.43-.53.85-.8 1.27-.38.6-.77 1.19-1.17 1.78-.25.37-.53 1.06-1.09.91-.39-.1-.59-.58-.36-.91l.38-.56c.02-.06.04-.13.08-.19.42-.67.81-1.36 1.19-2.05.19-.35.38-.7.56-1.05.08-.15.59-.72.36-.88-.27-.18-.8.61-.95.75-.42.4-.84.79-1.26 1.19-.57.53-1.11 1.08-1.67 1.61-.35.33-.92 1.1-1.46.73-.29-.2-.35-.65-.12-.91.02-.04.04-.08.07-.11.67-.91 1.46-1.72 2.23-2.53.38-.4.76-.8 1.12-1.22.19-.22.37-.44.54-.66.07-.09.3-.29.18-.41s-.39.07-.49.12c-.27.16-.5.42-.77.57-.46.26-.93.52-1.39.78-.64.37-1.28.73-1.92 1.1-.38.22-.92.76-1.39.46-.34-.22-.37-.8-.03-1.03ZM119.96 58.94l4.17.34c.61.05 1.22.15 1.84.17.31.01.62 0 .93-.03.28-.03.66-.09.32-.34-.22-.17-.5-.28-.76-.39-.39-.19-.82-.39-1.14-.7-.18-.17-.31-.41-.28-.66.04-.32.36-.54.67-.59h.03c.33-.04.66.07.97.18 1.01.36 1.98.86 3.01 1.15.59.17 1.18.21 1.76.44.47.19.92.42 1.35.69l.97-.31v-.07l.9-.3c.06 1.59.13 3.18.2 4.77-.68.09-1.1.14-1.1.13v-.02c-1.27 1.44-3.39 2.46-5.2 2.51-.18 0-.37 0-.55.05-.14.04-.26.11-.39.18-.73.41-1.44.85-2.13 1.31-.44.29-1.25 1.11-1.82.8-.4-.21-.42-.8-.05-1.05.68-.44 1.37-.88 2.06-1.3.26-.16.54-.29.77-.48.07-.06.27-.19.28-.3.01-.57-1.06-.11-1.32-.02-.48.16-.95.32-1.43.48-.68.22-1.35.43-2.03.64-.43.13-1.08.48-1.42.01-.24-.32-.09-.82.3-.93.22-.06.43-.13.65-.19.05-.04.11-.07.18-.1.75-.26 1.49-.53 2.23-.83.37-.15.73-.3 1.1-.45.15-.06.92-.18.83-.45-.09-.31-1.01-.04-1.21-.02l-1.73.12c-.77.05-1.54.13-2.32.18-.48.03-1.4.27-1.59-.37-.1-.34.14-.72.48-.78.04-.02.08-.03.13-.04 1.09-.27 2.22-.4 3.33-.54.55-.07 1.1-.14 1.64-.23.28-.05.56-.1.84-.17.11-.03.42-.04.4-.21-.02-.17-.35-.2-.46-.22-.31-.05-.65 0-.95-.05-.52-.09-1.04-.19-1.57-.28-.73-.12-1.46-.25-2.19-.37-.44-.07-1.2 0-1.37-.53-.12-.38.22-.85.63-.82ZM117.11 82.44l-2.71-1.75c-.4-.26-.82-.49-1.21-.76-.2-.14-.39-.29-.56-.46-.16-.15-.36-.36-.03-.36.22 0 .44.07.65.11.33.07.69.14 1.03.11.19-.02.38-.11.48-.28.12-.22.04-.5-.13-.68l-.02-.02c-.18-.18-.44-.27-.68-.35-.79-.25-1.62-.4-2.38-.71-.44-.18-.82-.43-1.28-.56-.38-.11-.76-.18-1.15-.21l-.44-.65.03-.04c-.14-.2-.27-.41-.41-.61-.79.95-1.58 1.89-2.38 2.84.37.37.6.6.61.59l.01-.01c.09 1.48.91 3.1 1.99 3.99.11.09.23.18.31.29.07.09.11.19.15.29.25.59.48 1.2.68 1.81.13.38.24 1.27.74 1.35.34.06.64-.29.52-.62-.21-.59-.42-1.18-.65-1.77-.08-.22-.19-.43-.24-.66-.02-.07-.08-.24-.03-.31.26-.36.7.43.81.61a109.917 109.917 0 0 0 1.59 2.31c.2.28.43.8.86.68.3-.09.44-.46.26-.71l-.3-.42a.34.34 0 0 0-.07-.15c-.34-.51-.66-1.03-.97-1.56-.15-.26-.31-.53-.46-.79-.06-.11-.48-.54-.3-.67.2-.15.63.45.75.56l1 .88c.45.4.88.81 1.33 1.2.28.24.73.82 1.15.52a.49.49 0 0 0 .07-.71c-.02-.03-.03-.06-.06-.09-.54-.68-1.17-1.29-1.78-1.9-.3-.3-.6-.6-.89-.91-.15-.16-.29-.33-.43-.5-.06-.07-.24-.22-.15-.31s.3.04.38.08c.22.12.39.31.61.42.36.19.73.38 1.09.56.5.27 1.01.53 1.51.8.3.16.73.57 1.09.32.26-.18.27-.63 0-.8ZM124.57 45.81l-2.77 1.65c-.41.24-.8.52-1.22.74-.21.11-.43.22-.66.3-.21.07-.49.16-.34-.13.1-.19.26-.36.39-.53.21-.26.44-.55.55-.87.06-.18.07-.39-.03-.55-.14-.21-.43-.26-.67-.18h-.03c-.24.09-.43.27-.61.46-.57.59-1.08 1.27-1.69 1.82-.35.32-.75.55-1.07.9-.26.29-.5.61-.7.94l-.78.11-.02-.05c-.24.03-.48.06-.73.1.5 1.13.99 2.26 1.48 3.39.5-.17.81-.27.8-.28v-.02c1.37.57 3.18.56 4.46-.02.13-.06.26-.12.4-.15.11-.02.22-.01.33 0 .64.04 1.28.1 1.92.19.4.05 1.24.35 1.53-.06.2-.28.02-.7-.32-.74-.62-.08-1.25-.15-1.87-.2-.23-.02-.47-.02-.7-.07-.07-.02-.25-.04-.29-.11-.2-.39.7-.44.91-.46l1.15-.15c.54-.08 1.08-.16 1.63-.25.34-.06.91-.03.99-.47.06-.31-.22-.6-.52-.55l-.51.09a.43.43 0 0 0-.16 0c-.61.08-1.21.13-1.82.18l-.91.06c-.13 0-.7.19-.73-.03-.04-.25.69-.37.83-.43.41-.17.83-.34 1.24-.51.55-.23 1.11-.43 1.67-.66.34-.14 1.06-.29.98-.8-.04-.27-.34-.45-.6-.38-.03 0-.07 0-.1.01-.85.18-1.67.47-2.49.75-.4.14-.81.28-1.22.39-.21.06-.42.12-.64.17-.09.02-.3.12-.35 0-.04-.12.17-.25.25-.31.2-.14.45-.22.64-.36.33-.24.66-.48.99-.73.46-.33.92-.67 1.39-1 .28-.2.83-.4.77-.83-.04-.31-.44-.52-.72-.35Z" class="cls-15"/><path d="M90.46 46.21c-2.55 2.76-3.65 1.37-6.03 1.92-.33.08-.67.16-.95.35-.8.56-.77 1.74-.66 2.71.19 1.58.5 3.35 1.82 4.25 1.09.74 2.57.61 3.78.09s2.23-1.38 3.33-2.1c1.1-.72 1.99-2.01 3.3-1.92" class="cls-3"/><path d="M106.67 48.35c-.76 1.66-.2 3.22-.54 3.6-.42.46-1.4-.11-3.13 1.59-1.75 1.72-2.56 3.16-4.45 1.8-1.78-1.31-3.28-3.26-3.51-3.82" class="cls-4"/><path d="M91.36 45.7c1.29-.87 3.55-1.8 3.55-1.8-.48-1.3.93-2.94 2.13-2.81 1.2.12 1.45 1.45 2.1 2.53.72 1.2 3.36.69 4.2.47.86-.21 5.51-2.05 5.51-2.05.13.99.22 2.77-1 4.59-.14.23-.29.44-.5.66-.3.35-.52.71-.67 1.06 0 0 3.17-1.21 4.33-3.31 1.39-2.55-.59-4.19-.59-4.19.31-2.64-3.63-7.45-9.92-8.51-3.34-.57-5.25 1.11-6.21 3.1 0 0-2.62 1.65-2.84 4.26-.12 1.47-.05 3.06-.3 4.53h0c-.12.71-.32 1.37-.67 1.98l.9-.51Zm2.9-10.2-.54 1.52c.13-.49.31-1.02.54-1.52Z" class="cls-3"/><ellipse cx="103.62" cy="47.11" class="cls-3" rx=".78" ry=".36" transform="rotate(-46.71 103.608 47.102)"/><path d="m96.8 42.95.31.54" class="cls-4"/><path d="M106.22 79.1c-1.3-.94-2.23-1.93-3.4-2.91L87.03 62.92c-1.3-1.09-2.72-2.46-2.56-4.15.18-1.96 2.4-3.06 4.36-3.27 2.26-.24 4.5.57 5.87 2.21 5.03 6.02 10.07 12.04 15.1 18.06l-3.58 3.33Z" class="cls-11"/><path d="M98.35 71.28c-3.05-8.67-12.23-14.97-23.08-14.97-13.34 0-24.15 9.52-24.15 21.25 0 5.42 2.3 10.36 6.1 14.11 4.42 4.39 10.87 7.15 18.05 7.15 13.34 0 24.16-9.52 24.16-21.26 0-2.19-.38-4.3-1.07-6.28Z" style="fill:#ff6d75;stroke-miterlimit:10;stroke:#000"/><path d="M14.98 44.76c-.37-.3-.77-.62-1.24-.66-.97-.1-1.65.89-2.08 1.76a58.28 58.28 0 0 0-3.06 7.47c-.18.55-.36 1.15-.18 1.7.27.86 1.32 1.28 2.2 1.1.88-.18 1.6-.82 2.17-1.52.57-.7 1.05-1.47 1.7-2.1.65-.62 1.54-1.09 2.43-.95.83.13 1.54.75 2.37.81.92.07 1.82-.67 1.94-1.57.12-.91-4.44-4.57-6.25-6.04ZM23.58 87.91c-.44.19-.9.4-1.16.8-.53.81.04 1.87.61 2.66 1.59 2.17 3.34 4.23 5.22 6.16.41.42.86.85 1.43.95.89.16 1.75-.58 1.99-1.45s0-1.8-.35-2.63-.83-1.61-1.08-2.47c-.25-.86-.26-1.86.27-2.59.49-.68 1.37-1.02 1.81-1.74.48-.78.25-1.92-.5-2.45-.75-.53-6.1 1.84-8.24 2.76Z" class="cls-13"/><path d="M55.88 50.31c-6.21 2.13-10.66 5-17.13 3.86-5.98-1.06-13.36-5.56-19.35-6.45-.29-.04-.6.06-.8.27-1.01 1.06-1.61 3.52-.86 4.84.83 1.47 14.59 9.11 16.02 10.01 4.55 2.88 15.15 2.69 19.05 2.03 3.9-.65 5.07-12.77 3.07-14.56Z" class="cls-10"/><path d="M56.02 51.14c-6.91 3.16-8.41 14.03-13.53 21.14-2.78 3.85-13.95 10.23-14.95 11.49-1 1.25 3.37 6.61 4.89 6.38 1.53-.23 13.27-6.87 18.04-11.79 4.89-5.04 8.37-11.6 11.81-17.73-1.62-3.32-3.37-7-6.26-9.49Z" class="cls-10"/><path d="M117.18 54.79c-.33.47-.88.72-1.41.94a69.046 69.046 0 0 1-27.11 5.28c-.25 0-.5 0-.74-.01-1.13-.19-2.27-.34-3.42-.44-6.4-.62-12.91 0-19.09 1.8-1.32.39-2.84.81-4.01.06-.59-.37-.97-.99-1.34-1.58l-5.22-8.49c-.29-.47-.59-1-.48-1.54.13-.65.78-1.03 1.37-1.32 9.46-4.63 21.51-5.59 31.76-2.74.78.22 1.3.96 1.21 1.77-.12 1.08-.24 2.66-.2 4.3.17.05.34.09.51.14 4.44 1.2 9.17 1 13.67.09 4.08-.82 8.01-2.21 11.92-3.65.57-.21 1.19.11 1.38.69.2.6.57 1.18.89 1.75.52.91.91 2.09.31 2.95Z" class="cls-11"/><path d="M88.66 61.01c-.23.04-.46.03-.68 0-.02 0-.04-.01-.06-.01.24.01.49.01.74.01Z" style="fill:#b4eac3;stroke-miterlimit:10;stroke:#000"/><path d="M87.92 61c-.5 0-.99-.02-1.49-.04-.59-.02-1.27-.15-1.93-.4 1.15.1 2.29.25 3.42.44Z" style="stroke-miterlimit:10;fill:#fff;stroke:#000"/><path d="M8.34 44.09s1.62-5.33 6.44-2.65M18.26 89.54s-.45-5.55 5.02-4.83" class="cls-6"/><path d="M159.01 16.6c-.67 1.83-1.62 4.75-1.84 7.06-.27-.35-.53-.74-.78-1.14-.87-1.43-2.67-3.36-2.67-3.36 1.06-1.05.41-3.29-.82-3.71-1.23-.42-2.07.78-3.2 1.55-1.24.84-3.6-.84-4.33-1.43-.74-.59-4.48-4.48-4.48-4.48-.54.86-1.36 2.44-1.13 4.57-.85-.23-2.19-.86-2.31-2.6-.23-3.12 2.46-3.84 2.46-3.84.87-2.73 6.89-5.66 13.53-3.89 3.38.9 4.55 3.24 4.68 5.53 0 0 1.85 3.09.89 5.74Z" style="fill:#fff"/><path d="M177.27 68.04s4.49-5.19 3.86-8.29c-.63-3.09-3.24-14.99-5.21-19.78-1.97-4.78-4.15-10.44-8.37-11.19-4.23-.75-6.97-1.55-6.97-1.55-.02.06-.04.12-.06.17-.24.72-.45 1.28-1.27 2.57-1.72 2.71-4.61 5.02-7.49 4.65-2.51-.33-2.79-3.06-2.72-4.64.02-.62.33-1.14.33-1.14s-3.91 1.15-5.05 2.12c-1.85 1.58-1.63 24.11-1.92 24.46-.07.09-8.75 2.37-8.7 2.95.06 1.05.8 5.87.96 5.99.56.43 12.18-2.64 13.72-5.28 1.71 2.96 3.41 6.08 3.05 7.78-.5 2.33-2.61 4.58-2.05 5.21.57.64 5.07 2.33 6.62 3.1.56.28 2.23.64 4.42.83-.67.98-1.07 1.63-1.07 1.76 0 .21.16.37.42.52.5.3 1.37.58 2.07 1.25.87.83 1.23 1.75 1.6 2.24.27.36.54.49 1.01.23l12.82-13.96Z" style="fill:#87ccf3;stroke-linejoin:round;stroke-linecap:round;stroke:#000"/><path d="M139.66 16.22s-2.08-.39-2.27-2.98c-.22-3.12 2.46-3.84 2.46-3.84.87-2.73 6.89-5.66 13.54-3.89 3.3.88 4.48 3.13 4.67 5.36M158.22 11.47s1.7 2.66.74 5.32c-.84 2.31-1.88 4.81-1.59 7.17" class="cls-4"/><path d="M160.52 27.4c-.24.72-.45 1.28-1.27 2.57-1.72 2.71-4.61 5.02-7.49 4.65-2.51-.33-2.79-3.06-2.72-4.64l.03-.09c.49-1.54.84-2.84 1.05-3.16-.47.46-2.83 1.69-5.15 2.17-2.46.5-2.61-1.29-3.55-3.75-.93-2.44-2.16-2.32-2.36-2.95-.2-.64 1.68-2.37.89-5.12-.09-.3-.15-.58-.19-.87-.38-2.32.51-4.03 1.08-4.94 0 0 3.74 3.89 4.48 4.48.73.59 3.09 2.27 4.33 1.43 1.13-.77 1.97-1.97 3.2-1.55 1.23.42 1.88 2.66.82 3.71 0 0 1.8 1.93 2.67 3.36 1.72 2.8 4.08 4.59 4.08 4.59l.1.11Z" class="cls-4"/><path d="M141.96 18.55c-.23-.45-.16-.94.16-1.11.32-.16.75.07.98.53.23.44.15.93-.15 1.1-.32.16-.76-.07-.99-.51Z"/><path d="M152.38 17.47s-.84.54-.94 1.55" style="stroke-width:.7px;fill:none;stroke-linejoin:round;stroke-linecap:round;stroke:#000"/><path d="M145.3 35.19s-.26 8.45-.14 11.4c.07 1.69 1.38 7.65 3.22 12.48M165.36 36.03s-.77 3.94.14 6.62 6.97 17.46 6.97 17.46" class="cls-4"/><path d="M160.42 76c2.88-3.96 9.78-13.36 11.07-14.84 2.39-2.74 5.21-.84 5.21-.84" class="cls-4"/><path d="M154.13 18.58s-.5 1.48-2.22 2.02" style="stroke-width:1.05px;fill:none;stroke-linejoin:round;stroke-linecap:round;stroke:#000"/><path d="M155.05 80.64h.02-.02Z" style="fill:#fab0b4"/><path d="M142.4 55.42s1.06.84 2.96.56" class="cls-4"/><path d="M105.9 62.51s5.5.79 9.76-3.44" class="cls-6"/></svg>