<svg xmlns="http://www.w3.org/2000/svg" id="Calque_1" viewBox="0 0 200 128"><defs><style>.cls-2{fill:#a07637}.cls-2,.cls-5,.cls-6,.cls-7{stroke-linecap:round;stroke-linejoin:round}.cls-2,.cls-5,.cls-6,.cls-7,.cls-8{stroke:#000}.cls-6,.cls-7{stroke-width:2px}.cls-5,.cls-7,.cls-8{fill:none}.cls-8{stroke-miterlimit:10}.cls-6{fill:#d6d6d6}</style></defs><path d="M3.27 110.11h193.46" class="cls-6"/><rect width="178.85" height="22.79" x="13.86" y="77.18" class="cls-6" rx="8.22" ry="8.22"/><path d="M187.12 98.85H17.96c-.39 0-.7-.31-.7-.7V51.53c0-.39-.31-.7-.7-.7h-4.18c-.39 0-.7.31-.7.7v58.02c0 .39.31.7.7.7h4.18c.39 0 .7-.31.7-.7v-5.19c0-.39.31-.7.7-.7h168.46c.39 0 .7.31.7.7v5.19c0 .39.31.7.7.7H192c.39 0 .7-.31.7-.7v-10c0-.39-.31-.7-.7-.7h-4.88Z" style="stroke-width:2px;stroke:#000;stroke-linecap:round;stroke-linejoin:round;fill:#a07637"/><path d="M55.84 76.47a2.43 2.43 0 0 1-1.72 2.98 2.43 2.43 0 0 1-2.4-.68l-2.36 1.08a62.059 62.059 0 0 1-19.77 5.34l-2.54.25c-.2.84-.84 1.55-1.73 1.79a2.43 2.43 0 0 1-2.98-1.72c-.23-.87.03-1.74.61-2.33a54.142 54.142 0 0 1-4.82-17.86c-.8-.22-1.47-.84-1.7-1.71a2.43 2.43 0 0 1 1.72-2.98c.89-.24 1.8.05 2.4.67l2.29-1.05a61.988 61.988 0 0 1 19.77-5.34l2.45-.24a2.43 2.43 0 0 1 4.71-.05c.22.82 0 1.66-.53 2.25 1.32 2.83 2.4 5.77 3.21 8.77s1.35 6.02 1.64 9.1c.83.2 1.54.84 1.78 1.73Z" style="fill:#fff;stroke-width:2px;stroke:#000;stroke-linecap:round;stroke-linejoin:round"/><path d="M25.23 76.27c-1.13-2.98-1.81-6.1-2.03-9.3M48.96 70.46c.23 1.86-.39 3.57-1.85 5.09" class="cls-7"/><path d="M155.11 30.15c-.24.06-.48.22-.87.49-.4.28-1.29.81-1.31 1.03h0c-.34-.17-.67-.31-.98-.4.63.06 1.32-1.06 1.54-2.32h0c.03-.16.05-.32.08-.49.23-1.36-1.12-2.83-1.92-2.86.33-.11.8-.19 1.46-.21 1.06-.05 2.14-.06 3.22-.03.18.5.31 1.08.24 1.58-.16 1.14-.89 2.64-1.46 3.21Z" class="cls-2"/><path d="M174.83 34.83s-1.07.62-2.73 1.15c-.56.18-1.19.35-1.87.49a13.066 13.066 0 0 1-5.29 0c-.81-.15-1.59-.34-2.33-.55-1.23-.34-2.37-.75-3.35-1.14h0c-.05-.12-.1-.24-.16-.37-.19-.41-.43-.83-.64-1.02-.36-.36-.71-.88-1.1-1.3-.1-.11-.35-.1-.43.02-.1.15-.4.46-.66.57-.33.14-.76.07-1.1.04-.1 0-.19.03-.24.08-.34-.19-.69-.4-1.03-.6.46-.12 1.07-.34 1.55-.44.58-.12.87-.18 1.02-.35.27-.33-.09-.75-.14-.81-.02-.02-.06-.07-.12-.12-.16-.15-.47-.36-.86-.35a.71.71 0 0 0-.21.03c.58-.57 1.3-2.07 1.46-3.21.07-.5-.06-1.08-.24-1.58.98.03 1.97.1 2.92.22s1.83.26 2.65.41c1.22.22 2.31.47 3.28.74 1.02.28 1.91.59 2.69.9.87.35 1.6.7 2.23 1.05.6.34 1.09.67 1.51.98.05.04.11.08.16.13.58.48 1.11 1.2 1.56 1.94.91 1.5 1.5 3.09 1.5 3.09ZM151.96 31.27h0c-1.05-.1-2.47-.24-2.63-.26-.18-.02-.36-.05-.54-.08.13-.1.15-.24.04-.35l-1.44-1.52c-.12-.13-.38-.18-.58-.1-.12.04-.2.12-.23.21v.1l.3 1.27c-.69-.17-1.36-.37-2.03-.58l.05-.36c.02-.13-.12-.25-.32-.27-.16-.02-.32.03-.4.13l-.2.23c-.3-.1-.6-.2-.91-.31.3-.33.49-.64.62-.86.37-.61.65-1.08.31-1.41a.977.977 0 0 0-.43-.22l.02-.08c.1-.34 3.06-.89 3.52-.97 1.49-.27 3.01-.3 4.53-.23h0c.8.04 2.15 1.5 1.92 2.86-.03.16-.06.32-.08.49h0c-.22 1.27-.9 2.38-1.54 2.32Z" class="cls-2"/><path d="M143.7 28.52c-.13.21-.32.52-.62.86-.33.37-.79.76-1.44 1.09h0l-.71.3c-.64.22-1.25.43-1.72.27a.904.904 0 0 1-.5-.42c-.34-.57-.2-1.56.35-2.29.15-.2.85-1.07 2.33-1.39.56-.12 1.55-.23 2.19-.05.18.05.33.12.43.22.34.33.06.8-.31 1.41Z" class="cls-2"/><path d="M141.64 30.47c-.21.11-.45.21-.71.3l.71-.3ZM145.16 35.17c.08-.03.09-.11 0-.15-.1-.04-.22-.1-.28-.16a.74.74 0 0 1-.19-.3s-1.16.39-1.49.53c-.22.09-.57.29-.79.41-.11.06-.12.16-.04.24h0c.06.05.15.08.24.07.28-.02.88-.08 1.32-.22.42-.13.95-.32 1.23-.43Z" class="cls-5"/><path d="M148.79 30.93h-.01l-.18.13c-.32.23-.79.32-1.24.27-.18-.02-.33-.12-.35-.25l-.13-.55-.3-1.27v-.1c.03-.09.11-.16.23-.21.2-.07.46-.03.58.1l1.44 1.52c.1.11.09.26-.04.35ZM148.37 31.76h0l.46-.18c.07-.03.16-.02.21.03.28.23.97.79 1.28 1.15.64.77.83 1.41.78 1.6-.04.15-.04.29-.22.38h0c-.22.11-.53.09-.72-.05-.37-.27-.97-.73-1.3-1.14-.3-.39-.67-.95-.92-1.33-.13-.21.08-.44.42-.46ZM164.25 37.45c-.1.16-.36.25-.6.21h-.01c-.43-.06-1.11-.18-1.65-.34-.09-.02-.18-.05-.26-.08-.53-.19-1.26-.48-1.74-.69-.27-.11-.27-.36 0-.49l.24-.29s.12-.07.19-.06c.4.08 1.38.26 1.9.43.06.02.12.04.17.06.99.34 1.56.73 1.66.88.08.12.19.23.11.36ZM144.68 31.14c-.02.12-.15.21-.32.23l-.22.02c-.13.01-.27.01-.4 0-.25-.03-.48-.12-.66-.25-.11-.08-.13-.2-.05-.29l.95-1.15.2-.23c.08-.09.24-.15.4-.13.2.02.33.14.32.27l-.05.36-.17 1.17ZM144.42 32.08h0l.39-.15c.06-.02.14-.01.18.02.24.2.83.68 1.1.99.55.66.71 1.21.67 1.37-.03.13-.03.25-.19.33h0c-.19.09-.46.07-.62-.04-.32-.23-.83-.62-1.11-.98-.26-.33-.58-.81-.79-1.14-.12-.18.07-.38.37-.39ZM152.14 34.32c-.13-.05-.3.02-.3.12 0 .13-.02.28-.07.38-.1.21-.42.42-.42.42s1.75.7 2.31.87c.36.11 1.05.26 1.48.35.21.04.43-.03.51-.17h0c.05-.09.03-.2-.07-.27-.28-.23-.91-.71-1.55-.98-.61-.26-1.44-.56-1.89-.72ZM164.14 40.53c-.05.07-.15.12-.27.13-.18.02-.34-.06-.37-.17-.06-.23-.16-.61-.17-.82-.02-.32.09-1.4.09-1.4s.36.07.62.04c.03 0 .06 0 .09-.01.12-.02.25-.06.36-.1.11-.04.24.01.24.09 0 .27-.03.77-.08 1.15-.06.4-.36.88-.5 1.1ZM159.37 35.36c-.05.19-.23.35-.49.45-.24.09-.52.1-.76.05-.12-.03-.24-.07-.33-.13-.49-.29-1.1-.9-1.55-1.29-.54-.47-1.07-1.03-1.33-1.51-.03-.05-.02-.1.02-.14.05-.05.14-.09.24-.08.34.03.77.1 1.1-.04.26-.11.56-.42.66-.57.08-.12.32-.13.43-.02.39.42.74.95 1.1 1.3.2.2.45.62.64 1.02.06.13.11.25.16.37h0c.05.12.09.24.12.34.02.08.02.16 0 .24ZM156.46 31.4c-.14.17-.44.24-1.02.35-.48.1-1.08.32-1.55.44-.28.07-.5.1-.62.04-.26-.13-.36-.37-.34-.56h0c.02-.22.91-.75 1.31-1.03.39-.27.63-.43.87-.49.07-.02.14-.03.21-.03.4 0 .7.21.86.35.06.06.11.1.12.12.05.05.41.48.14.81Z" class="cls-2"/><path d="m141.4 31.37-.47-.6.71-.3h.01l-.25.9zM139.82 31.14l.45.49.21-.58-.66.09z" class="cls-8"/><path d="M138.7 30.62s-1.15.23-2.01.72-1.49 1.24-1.49 1.24M138.99 30.98s-1 .58-1.53 1.37c-.53.78-.67 1.78-.67 1.78M156.19 30.47c1.04-.01 2.41-.29 3.32-.61.33-.11.59-.32.8-.55.5-.54.7-1.23.7-1.23l.9-2.1M160.73 31.1s1.51-.34 2.46-.87c.28-.15.5-.32.63-.51.36-.52.98-1.99 1.37-2.99M167.87 27.63c-.4.99-1.03 2.52-1.4 3.05-.14.21-.41.4-.73.57-.64.34-1.48.59-1.96.72M170.1 28.69c-.39.96-.91 2.15-1.22 2.61-.08.12-.21.23-.37.34-.66.46-1.84.81-2.4.96M171.77 29.8c-.35.87-.81 1.93-1.12 2.45h0c-.03.05-.06.09-.09.13-.29.42-1.11.78-1.83 1.02h0M173.33 31.73c-.23.37-.44.69-.6.87-.07.08-.15.15-.26.22-.39.28-1.01.49-1.58.65" class="cls-5"/><path d="M162.61 35.92c.41-.94.85-2.04 1.08-2.86.11-.37.13-.74.09-1.09-.07-.69-.35-1.31-.6-1.74M160.31 29.32c.24.61.61 1.89-.02 3.11-.3.58-.74 1.3-1.2 1.99M165.74 31.25c.17.38.33.85.36 1.35.03.33 0 .68-.09 1.03-.23.81-.67 1.9-1.07 2.84M168.51 31.64c.19.51.32 1.13.21 1.76h0c-.02.1-.04.21-.07.31-.25.86-.73 2.05-1.15 3.02M170.64 32.25h0c.15.38.25.8.25 1.23 0 .14 0 .29-.03.43-.12.72-.37 1.68-.63 2.55" class="cls-5"/><path d="M170.7 30.31c.15.71.22 1.53.06 2.37-.09.5-.23 1.08-.38 1.68" class="cls-5"/><path d="M-354.52-1078.66h2655.08V433.11H-354.52z" style="fill:none;stroke:#e30613;stroke-width:8px;stroke-linecap:round;stroke-linejoin:round"/><circle cx="156.22" cy="32.48" r="26.43" class="cls-5"/><circle cx="61.94" cy="85.16" r="1.55" class="cls-2"/><circle cx="84.18" cy="84.62" r="1.01" class="cls-2"/><circle cx="104.28" cy="91.02" r="1.01" class="cls-2"/><circle cx="117.94" cy="91.02" r="1.01" class="cls-2"/><circle cx="117.94" cy="82.61" r="1.01" class="cls-2"/><path d="m142.37 35.74 1.4 2.44M155.65 36.3l-.91 3.12M163.87 40.66l2.25 2.35" class="cls-5"/><path d="m130.27 54.11-22.65 12.94" style="fill:#d6d6d6"/><path d="m130.27 54.11-21.71 12.4" class="cls-5"/><path d="m109.41 61.31.96.3-1.47 4.71 4.8 1.12-.23.98-5.85-1.37 1.79-5.74z"/></svg>