<svg xmlns="http://www.w3.org/2000/svg" id="Calque_1" viewBox="0 0 128 128"><defs><style>.cls-2{fill:#b4eac3}</style></defs><path d="M36.33 71.17c-.17 0-.34-.07-.47-.19l-8.22-7.83-.16-.02c-.08-.01-.16-.02-.24-.02-.72 0-1.33.45-1.53 1.11-.28.98-.78 1.85-1.49 2.58-1.2 1.25-2.83 1.93-4.58 1.93-2.56 0-5.91-1.58-6.9-6.05-.06-.29-.07-.58-.03-.86.42-2.88 2.04-4.99 4.43-5.8.72-.24 1.15-.95 1.06-1.71l-.02-.18-8.18-7.8a.655.655 0 0 1-.06-.9l.24-.36 6.89-7.17c.34-.5.41-1.06.23-1.55-.18-.49-.56-.86-1.06-1.01a6.765 6.765 0 0 1-2.72-1.59c-1.33-1.27-2.08-2.97-2.1-4.79a6.28 6.28 0 0 1 1.85-4.56c1.23-1.34 2.89-2.07 4.71-2.07s3.39.67 4.66 1.89c.77.74 1.36 1.65 1.7 2.64.23.66.84 1.08 1.55 1.08.36 0 .69-.11.97-.32l6.99-7.32.23-.16c.17-.15.32-.21.48-.21.17 0 .34.07.46.19l8.16 7.83.29.02c.73 0 1.35-.46 1.54-1.14.7-2.43 2.74-4.14 5.59-4.69.15-.03.3-.04.45-.04.14 0 .28.01.41.04 3 .53 5.19 2.29 6.03 4.85.75 2.28.21 4.75-1.4 6.45-.7.74-1.54 1.27-2.51 1.6-.74.25-1.17 1.01-1.01 1.81l.03.16 8.19 7.86c.13.13.21.3.21.48 0 .17-.06.32-.17.44l-7.3 7.62-.11.08-.07.08c-.14.15-.3.18-.41.18-.25 0-.57-.17-.67-.54-.79-3.04-3.31-5.26-6.73-5.93a7.375 7.375 0 0 0-2.18.13c-1.55.42-2.82 1.15-3.82 2.16-.98 1.06-1.65 2.36-1.99 3.89a7.39 7.39 0 0 0-.05 2.15c.84 3.45 3.17 5.87 6.24 6.52.31.07.49.3.55.49.04.12.07.36-.13.58l-.09.1-.1.14-7.23 7.58c-.12.12-.28.19-.45.19Z" style="fill:#ff6d75"/><path d="M34.58 20.43s.08 0 .12.05l8.03 7.7.26.25.36.02h.15c.95 0 1.76-.6 2.02-1.5.65-2.24 2.54-3.82 5.21-4.34.11-.02.23-.03.35-.03.11 0 .22 0 .33.03 2.81.49 4.86 2.14 5.64 4.51.69 2.11.2 4.38-1.29 5.94-.65.68-1.42 1.17-2.31 1.47-.98.33-1.54 1.33-1.34 2.38l.06.32.23.22 8.08 7.75c.05.05.06.1.06.13 0 .05-.02.07-.03.08l-7.25 7.56-.07.06-.06.04-.05.05-.05.05s-.04.03-.05.03c-.04 0-.15-.03-.19-.17-.84-3.23-3.5-5.58-7.12-6.3h-.06l-.06-.02c-.2-.01-.4-.02-.6-.02-.56 0-1.12.06-1.66.17h-.03l-.03.01c-1.6.44-2.95 1.21-4.03 2.31-1.03 1.11-1.74 2.5-2.1 4.12v.06c-.13.74-.14 1.51-.05 2.27v.06l.02.06c.88 3.59 3.35 6.14 6.61 6.83.13.03.17.12.18.15.02.05 0 .07-.01.08l-.04.05-.06.06-.05.07-.05.07-7.22 7.58s-.05.03-.09.03c-.03 0-.08 0-.13-.05l-8.1-7.72-.23-.22-.32-.04c-.1-.01-.2-.02-.31-.02-.95 0-1.75.59-2.01 1.47-.26.9-.72 1.7-1.37 2.37-1.1 1.15-2.6 1.78-4.22 1.78-2.38 0-5.48-1.48-6.42-5.66-.05-.23-.06-.46-.02-.69.39-2.68 1.89-4.65 4.1-5.39.94-.32 1.52-1.24 1.39-2.24l-.04-.35-.26-.25-8.05-7.68c-.07-.07-.07-.16-.03-.21l.04-.05.04-.05.15-.23 6.88-7.17.06-.06.05-.07c.38-.56.46-1.28.23-1.93-.23-.64-.73-1.12-1.38-1.32a6.37 6.37 0 0 1-2.52-1.47c-1.24-1.18-1.93-2.75-1.95-4.43-.02-1.6.59-3.09 1.73-4.24 1.11-1.22 2.65-1.89 4.33-1.89s3.13.62 4.31 1.75c.72.69 1.25 1.51 1.58 2.45.3.85 1.11 1.42 2.02 1.42.46 0 .9-.14 1.27-.42l.07-.05.06-.06 6.86-7.2.22-.16.06-.04.05-.05s.05-.03.08-.03m0-1c-.28 0-.56.1-.78.31l-.3.22-6.92 7.27c-.2.15-.44.22-.68.22-.46 0-.91-.27-1.08-.75a7.262 7.262 0 0 0-1.83-2.84c-1.41-1.35-3.22-2.03-5-2.03s-3.72.74-5.07 2.22c-2.77 2.76-2.64 7.31.26 10.07.86.82 1.86 1.38 2.92 1.7.75.23 1.02 1.12.61 1.74l-6.95 7.24-.2.31c-.39.46-.36 1.16.09 1.59l8.05 7.67c.06.49-.2 1-.72 1.17-2.32.79-4.27 2.84-4.76 6.2-.05.34-.04.7.04 1.05.96 4.3 4.21 6.45 7.39 6.45 1.81 0 3.61-.7 4.94-2.09.78-.81 1.31-1.77 1.61-2.79.14-.49.58-.75 1.05-.75.06 0 .11 0 .17.01l8.1 7.72c.23.22.53.33.82.33s.59-.12.81-.35l7.27-7.63.1-.14.04-.05c.62-.65.23-1.71-.67-1.9-2.6-.55-4.99-2.57-5.85-6.09-.08-.66-.06-1.33.05-1.98.34-1.51 1-2.73 1.86-3.65.88-.9 2.07-1.61 3.56-2.02.48-.1.97-.15 1.46-.15.18 0 .35 0 .53.02 3.55.7 5.68 3 6.35 5.57.15.57.65.92 1.15.92.28 0 .56-.11.78-.34l.04-.05.13-.1 7.3-7.61c.43-.45.41-1.18-.06-1.63l-8.07-7.75c-.1-.52.14-1.06.68-1.25 1-.34 1.93-.91 2.71-1.73 3.66-3.84 1.91-10.93-4.91-12.13-.16-.03-.33-.04-.5-.04-.19 0-.37.02-.55.05-3.33.64-5.29 2.68-5.97 5.04-.14.5-.59.78-1.06.78h-.08l-8.03-7.7c-.23-.22-.52-.33-.81-.33Z"/><path d="M35.67 115.44c-.35 0-.63-.3-.63-.67l-.05-11.35-.09-.13c-.31-.43-.8-.69-1.31-.69-.25 0-.48.06-.71.18-.9.47-1.88.71-2.89.71-2.34 0-4.5-1.31-5.63-3.43-1.27-2.37-1.03-5.18.65-7.71.16-.24.37-.46.6-.62 1.42-1.01 2.89-1.52 4.38-1.52 1.01 0 1.97.24 2.87.7.23.12.47.18.72.18.48 0 .93-.22 1.24-.6l.11-.14-.05-11.3c0-.36.26-.65.6-.66l.44-.08h9.94c.6-.1 1.04-.43 1.28-.91.23-.47.23-1 0-1.46a6.86 6.86 0 0 1-.73-3.06c0-1.82.68-3.51 1.95-4.78 1.21-1.21 2.8-1.88 4.49-1.88h.33c3.54 0 6.43 2.97 6.43 6.63 0 1.09-.25 2.12-.72 3.06-.23.46-.23 1 0 1.46.24.47.69.81 1.2.9l10.12-.04.27.06c.23.01.41.1.52.25-.04.16-.06.33-.06.49l.02 12.09 1.09-.21a1.539 1.539 0 0 0 1.2-.09l.06-.03c.29 0 .59.03.87.07h.25l.1-.02c.36-.07.7-.13 1-.13 2.92 0 5.42 2.28 5.79 5.28.03.26.06.52.06.79 0 1.12-.31 2.27-.92 3.41-.14.27-.28.52-.45.78-.12.18-.28.35-.45.47-1.29.91-2.63 1.38-3.99 1.38-.32 0-.66-.03-.98-.08h-.08l-.17-.02s-.58.1-.68.11c-.13-.05-.25-.1-.36-.17-.22-.12-.45-.17-.69-.17s-.47.06-.69.16l-.92-.19.02 12.27c0 .11 0 .22.03.35-.12.16-.29.25-.48.25H60.02l-.13-.01h-.1c-.3 0-.45-.19-.51-.3-.1-.18-.14-.46.03-.73 1.64-2.67 1.5-6.02-.39-8.96a7.25 7.25 0 0 0-1.61-1.48c-1.37-.82-2.78-1.24-4.21-1.26-1.43.02-2.83.45-4.18 1.26-.62.43-1.14.91-1.59 1.46-1.91 3-2.03 6.35-.37 9.01.17.27.12.56.02.74-.06.11-.21.3-.51.3h-.13l-.17.03-10.48.04Z" class="cls-2"/><path d="M53.16 66.72c3.27 0 5.93 2.75 5.93 6.13 0 1.01-.23 1.97-.67 2.84-.3.6-.3 1.3 0 1.91.31.61.89 1.05 1.56 1.16l.09.02h.09l9.94-.05.27.05h.06c0 .09-.01.17-.01.25l.02 11.49v1.22l1.19-.24.37-.07c.17.04.35.07.52.07.3 0 .59-.07.87-.2.24 0 .47.03.71.07h.09l.15.03.15-.03.11-.02c.34-.06.65-.12.91-.12 2.67 0 4.95 2.09 5.3 4.85.04.27.05.5.05.72 0 1.04-.29 2.11-.86 3.18l-.02.05c-.13.24-.25.47-.39.69-.09.13-.2.25-.33.34-1.2.85-2.45 1.28-3.69 1.29-.3 0-.61-.03-.87-.07l-.09-.02-.18-.04-.18.03-.09.02-.27.05-.17.03c-.07-.03-.13-.06-.2-.1-.29-.15-.6-.23-.92-.23-.25 0-.51.05-.75.14l-.16-.03-1.2-.24v1.22l.02 11.66v.1H59.78s-.05 0-.07-.05a.239.239 0 0 1 .02-.23c1.75-2.84 1.6-6.39-.4-9.49l-.03-.05-.04-.05c-.48-.58-1.04-1.1-1.67-1.53l-.02-.02-.03-.02c-1.42-.85-2.92-1.29-4.46-1.31-1.51.02-2.99.47-4.42 1.33l-.03.02-.03.02c-.63.44-1.19.95-1.67 1.54l-.04.05-.03.05c-1.98 3.11-2.11 6.66-.34 9.5.07.11.03.2.01.23-.03.05-.05.05-.07.05h-.21l-.1.02-10.47.05c-.07 0-.13-.08-.13-.17l-.05-11.19v-.32l-.19-.26c-.41-.56-1.05-.89-1.71-.89-.33 0-.64.08-.94.23-.83.44-1.73.66-2.67.66-2.15 0-4.14-1.21-5.19-3.16-1.18-2.2-.95-4.82.62-7.2.13-.19.3-.37.48-.5 1.33-.95 2.7-1.43 4.09-1.43.93 0 1.81.22 2.64.65.3.15.62.23.95.23.63 0 1.22-.29 1.63-.78l.23-.28v-.36l-.05-11.13c0-.09.06-.16.12-.16h.07l.07-.02.27-.05h10.03l.09-.02a2.163 2.163 0 0 0 1.55-3.08c-.45-.89-.68-1.84-.68-2.83 0-1.68.63-3.26 1.8-4.43a5.78 5.78 0 0 1 4.13-1.73h.33m0-1h-.32c-3.84 0-6.95 3.21-6.93 7.17 0 1.18.29 2.3.79 3.28.36.7-.1 1.51-.83 1.64H35.85l-.37.08c-.6.03-1.08.54-1.08 1.16l.04 11.12c-.21.26-.52.42-.86.42-.16 0-.33-.04-.49-.12-.93-.48-1.98-.76-3.1-.76-1.49 0-3.09.49-4.67 1.61-.28.2-.54.46-.73.75-3.83 5.77.09 11.92 5.4 11.92 1.12 0 2.18-.28 3.12-.77.16-.08.32-.12.47-.12.35 0 .69.19.9.48l.05 11.19c0 .64.51 1.16 1.13 1.16l10.54-.05.17-.02h.06c.9 0 1.39-1.02.91-1.8-1.4-2.26-1.6-5.38.34-8.43.42-.52.92-.97 1.46-1.35 1.33-.8 2.66-1.17 3.92-1.19 1.26.01 2.6.37 3.93 1.17.55.38 1.04.82 1.47 1.34 1.96 3.05 1.78 6.17.39 8.43-.48.78.01 1.8.91 1.8h.07l.16.02h10.55c.45 0 .83-.28 1.01-.67a2.12 2.12 0 0 1-.06-.44l-.02-11.66.5.1c.18-.12.39-.19.6-.19.15 0 .31.04.46.11.17.09.35.16.53.24.21-.02.44-.07.73-.12l.09-.02.09.02c.35.05.7.09 1.06.09 1.35 0 2.8-.42 4.28-1.47.23-.16.43-.37.59-.6.18-.27.32-.55.47-.82.67-1.25.98-2.49.98-3.65 0-.29-.02-.57-.06-.85-.4-3.23-3.07-5.71-6.29-5.72-.34 0-.69.06-1.09.14l-.09.02h-.09c-.36-.06-.71-.09-1.05-.09l-.19.09c-.15.08-.31.12-.47.12s-.31-.04-.45-.1l-.63.12-.02-11.49c0-.2.04-.38.1-.56a1.14 1.14 0 0 0-.97-.67l-.36-.07-10.04.05c-.73-.13-1.19-.94-.84-1.64.5-.98.78-2.1.78-3.29 0-3.94-3.11-7.13-6.93-7.13Z"/><path d="m72.52 65.95-.09-.13c-.31-.43-.8-.69-1.31-.69-.25 0-.48.06-.7.17-.91.47-1.88.71-2.89.71-2.35 0-4.5-1.31-5.64-3.43-1.27-2.37-1.03-5.18.65-7.71.16-.24.37-.46.6-.62 1.42-1.01 2.89-1.52 4.38-1.52 1.01 0 1.97.24 2.87.7.23.12.47.18.72.18.48 0 .93-.22 1.25-.6l.11-.14-.05-11.3c0-.35.27-.65.6-.66l.44-.08h9.94c.6-.09 1.04-.43 1.28-.9.23-.47.23-1 0-1.46-.48-.95-.73-1.97-.74-3.06 0-1.82.68-3.51 1.94-4.78 1.21-1.21 2.8-1.88 4.49-1.88h.33c3.54 0 6.43 2.97 6.43 6.63 0 1.08-.25 2.11-.73 3.06-.23.46-.23 1 0 1.46.24.47.69.8 1.2.89l10.12-.04.27.06c.41.02.67.31.67.67v11.3l.13.14c.31.38.77.59 1.24.59.25 0 .5-.06.73-.18.9-.47 1.88-.71 2.9-.71 1.48 0 2.95.5 4.35 1.5.23.16.44.38.61.62 1.69 2.52 1.94 5.33.68 7.7-1.13 2.12-3.28 3.44-5.62 3.45-1.04 0-2-.24-2.89-.7-.22-.12-.46-.17-.7-.17-.51 0-1 .26-1.31.7l-.09.13v11c-.13-.04-.28-.06-.43-.07-.15-.04-.29-.07-.45-.07l-9.86.02v-.19c.55-1.12.84-2.35.85-3.62 0-.78-.11-1.52-.36-2.38-1.02-3.52-4.09-5.89-7.65-5.89h-.32c-3.51 0-6.66 2.42-7.66 5.89-.24.85-.36 1.59-.36 2.32 0 1.3.29 2.54.86 3.7l.03.11-9.9.04c-.18 0-.33.04-.45.07-.15 0-.3.03-.44.07l-.04-10.91Z" class="cls-2"/><path d="M90.7 29.26c3.27 0 5.93 2.75 5.93 6.13 0 1.01-.23 1.96-.67 2.84-.31.61-.3 1.3 0 1.91.31.61.89 1.04 1.56 1.16h.08l.09.01 9.94-.04.27.05h.07l.07.02c.06 0 .13.07.13.16V52.98l.23.28c.41.49 1 .77 1.62.77.34 0 .66-.08.96-.24.83-.44 1.73-.66 2.67-.66 1.38 0 2.74.47 4.07 1.41.18.12.35.3.48.49 1.59 2.37 1.83 4.99.66 7.19-1.04 1.96-3.02 3.18-5.21 3.19-.92 0-1.81-.22-2.63-.65a2 2 0 0 0-.93-.23c-.67 0-1.32.34-1.72.91l-.18.26v10.55c-.1-.02-.23-.04-.38-.04l-9.17.02c.31-.76.52-1.55.61-2.36h.06v-1c0-.77-.12-1.55-.38-2.45-1.08-3.74-4.34-6.25-8.14-6.25h-.32c-3.72 0-7.07 2.57-8.13 6.25-.26.9-.38 1.68-.38 2.47 0 1.16.22 2.28.66 3.35l-9.17-.02c-.15 0-.28.02-.39.04l-.04-10.15v-.32l-.19-.26c-.41-.56-1.05-.89-1.71-.89-.33 0-.64.08-.94.23-.83.44-1.73.66-2.66.66-2.15 0-4.14-1.21-5.19-3.16-1.18-2.2-.95-4.82.62-7.19.13-.2.3-.37.48-.5 1.33-.95 2.7-1.43 4.09-1.43.93 0 1.82.22 2.64.65.3.15.62.23.95.23.63 0 1.22-.29 1.63-.78l.23-.28v-.36l-.05-11.12c0-.1.07-.16.13-.17h.07l.07-.02.27-.05h10.03l.09-.02c.67-.12 1.25-.56 1.56-1.17.3-.61.3-1.31 0-1.91-.45-.88-.68-1.83-.68-2.83 0-1.68.63-3.25 1.8-4.43a5.787 5.787 0 0 1 4.14-1.73h.33m0-1H90.4c-3.84 0-6.95 3.21-6.94 7.17 0 1.18.29 2.3.79 3.28.36.7-.1 1.51-.83 1.64H73.39l-.36.08c-.6.03-1.08.54-1.08 1.16L72 52.71c-.21.26-.53.42-.86.42-.16 0-.33-.04-.49-.12-.93-.48-1.99-.76-3.1-.76-1.49 0-3.09.49-4.67 1.61-.28.2-.53.46-.73.75-3.83 5.77.09 11.92 5.4 11.92 1.12 0 2.18-.28 3.12-.77.16-.08.32-.12.47-.12.35 0 .69.19.9.48l.05 11.19.06.31c.26-.2.58-.32.93-.34.12-.03.24-.07.39-.07l9.96.02c.25-.05.46-.31.46-.56l-.06-.24v-.02l-.03-.06a7.83 7.83 0 0 1-.81-3.46v-.02c0-.78.14-1.5.34-2.18.92-3.17 3.75-5.53 7.17-5.53H90.83c3.42 0 6.25 2.35 7.17 5.53.19.68.34 1.4.34 2.18v.06c0 1.23-.3 2.39-.81 3.41v.03l-.03.03v.03l-.07.24c0 .25.2.51.45.56l9.96-.02c.14 0 .27.04.39.07.35.01.67.13.93.32.04-.13.08-.26.08-.4V66.01c.2-.3.54-.49.9-.49.16 0 .31.04.47.12.93.48 1.98.76 3.09.76h.04c5.31-.02 9.2-6.19 5.35-11.94-.2-.29-.45-.55-.73-.75-1.57-1.11-3.16-1.59-4.64-1.59-1.13 0-2.19.28-3.13.77a1 1 0 0 1-.49.13c-.33 0-.64-.16-.85-.41V41.49c0-.63-.49-1.14-1.09-1.16l-.36-.07-10.04.04c-.73-.12-1.19-.94-.84-1.63.5-.98.78-2.1.78-3.29 0-3.94-3.11-7.13-6.93-7.13Z"/><path d="M97.23 114.48c.79-1.29 1.2-2.79 1.2-4.32 0-1.76-.55-3.56-1.6-5.2l-.07-.1c-.49-.6-1.06-1.12-1.7-1.55-1.48-.89-2.98-1.34-4.51-1.37-1.57.03-3.07.48-4.49 1.34l-.07.03v.03c-.62.41-1.19.93-1.67 1.52l-.06.08c-1.06 1.67-1.62 3.46-1.62 5.22 0 1.53.42 3.03 1.2 4.32l.04.15-.11.06h-.04l-.2.03H73.09s-.06-.02-.06-.08l-.02-9.72h.24c.38 0 .69-.06.94-.11l.14-.03c.42.06.77.09 1.11.09 1.7 0 3.45-.57 5.05-1.66l.16-.1c.43-.3.76-.65 1.03-1.05.6-.9 1.05-1.86 1.35-2.86.09-.3.15-.6.21-.89.11-.6.17-1.13.17-1.63 0-2.38-1.01-4.63-2.76-6.2-1.33-1.18-2.99-1.89-4.73-2v-.02h-.99v.03c-.25.03-.49.07-.7.1h-.04c-.41-.04-.78-.07-1.12-.07h-.06v-9.6h.02l.08-.09h.08l.27-.07 10.03.03.09-.02c.99-.18 1.72-.98 1.81-2l.02-.11v-.31h.08l-.29-.74-.06-.11c-.4-.82-.62-1.75-.62-2.71 0-.54.09-1.09.27-1.74.75-2.59 3-4.34 5.58-4.34h.34c1.17 0 2.32.38 3.31 1.1 1.09.79 1.89 1.94 2.26 3.24.09.31.16.63.21.98.04.24.07.48.07.73 0 .98-.22 1.91-.66 2.79l-.07.16c-.04.09-.07.18-.1.27l-.03.09a2.2 2.2 0 0 0-.06.5l.04.23c.08.97.81 1.78 1.81 1.96l.14.02 10.08-.02.08.03.16.04c.1 0 .14.03.14.1l-.02 11.5.24.3c.43.51 1.04.8 1.68.8.35 0 .69-.09 1-.25.82-.42 1.7-.64 2.61-.64 1.37 0 2.72.47 4.03 1.4.18.13.34.29.46.47.91 1.36 1.37 2.77 1.37 4.19 0 3.34-2.62 6.06-5.84 6.07-.93 0-1.81-.22-2.63-.64-.3-.16-.64-.24-.97-.24-.69 0-1.35.35-1.77.93l-.2.29-.02 11.53c0 .07-.04.09-.06.09l-10.5-.02-.13-.03h-.08l-.1.07.08-.28Z" class="cls-2"/><path d="M90.34 67.22H90.7c1.07 0 2.11.35 3.01 1 1 .73 1.73 1.78 2.08 2.98.08.28.15.58.2.92.03.21.06.43.06.67 0 .88-.2 1.74-.6 2.52l-.04.07-.03.09-.33.8.1.06c0 .08-.01.16-.01.24v.09l.02.09.02.09a2.747 2.747 0 0 0 2.26 2.41l.09.02h.09l9.96-.02-.02 10.98v.36l.22.28.14.17c.52.62 1.27.98 2.06.98.43 0 .86-.11 1.22-.3.75-.39 1.55-.59 2.39-.59 1.26 0 2.52.44 3.75 1.31.13.09.25.21.33.34.85 1.27 1.28 2.59 1.28 3.91 0 3.06-2.4 5.56-5.35 5.57-.84 0-1.64-.2-2.39-.59-.37-.19-.79-.3-1.2-.3-.85 0-1.67.43-2.18 1.14l-.11.15-.19.26v.32l-.02 10.97-9.58-.02c.65-1.25.98-2.64.98-4.06 0-1.86-.58-3.75-1.68-5.47l-.03-.04-.05-.07-.03-.04a8.71 8.71 0 0 0-1.79-1.64l-.04-.03-.04-.02c-1.51-.91-3.09-1.38-4.71-1.41h-.06c-1.6.03-3.17.49-4.66 1.38l-.08.04-.08.06c-.66.46-1.25 1-1.79 1.65l-.04.05-.02.02-.02.02v.02c-1.12 1.73-1.7 3.62-1.7 5.47 0 1.42.34 2.81.98 4.06l-9.58.02-.02-8.82c.31-.02.57-.07.78-.11h.05c.41.06.76.08 1.1.08 1.8 0 3.65-.6 5.29-1.72l.18-.11.03-.02.03-.02c.44-.32.82-.71 1.12-1.16.63-.94 1.1-1.95 1.41-3 .08-.28.15-.58.22-.94.12-.63.18-1.19.18-1.72 0-2.52-1.07-4.91-2.93-6.57a8.381 8.381 0 0 0-4.57-2.08v-.06h-1.99v.09c-.09.01-.17.03-.26.04a8.74 8.74 0 0 0-.67-.06v-8.77l9.94.02h.09l.09-.02h.05a2.74 2.74 0 0 0 2.22-2.4s.33-.01.33-.01l-.45-1.16s-.03-.09-.05-.13l-.03-.07-.02-.06-.06-.14-.03-.03c-.38-.78-.57-1.62-.57-2.49 0-.47.08-.98.25-1.58.69-2.38 2.74-3.98 5.08-3.98m.35-1H90.3c-2.87 0-5.27 1.98-6.06 4.7-.18.61-.29 1.23-.29 1.86v.02c0 1.08.26 2.09.71 2.99v.02l.04.06c.11.23.17.48.17.72l-.03.15c-.07.76-.62 1.41-1.41 1.55H73.3l-.17.03-.08.03h-.09l-.04.01c-.27.03-.49.26-.49.58v10.13c.2-.02.39-.03.57-.03.38 0 .76.04 1.13.08.37-.06.77-.14 1.23-.14 1.88 0 3.59.72 4.9 1.89a7.776 7.776 0 0 1 2.59 5.82c0 .5-.06 1.02-.16 1.53-.05.28-.12.56-.2.85-.27.91-.68 1.83-1.28 2.73-.24.35-.54.66-.87.9l-.18.11c-1.6 1.08-3.23 1.57-4.77 1.57-.38 0-.76-.04-1.12-.09-.29.05-.63.14-1.06.15-.26 0-.5-.02-.74-.05l.02 10.27c0 .34.26.59.56.59l10.51-.02.13-.02h.14c.17 0 .28-.06.37-.16.09-.1.15-.25.15-.41l-.1-.35a7.79 7.79 0 0 1-1.16-4.12c0-1.59.47-3.29 1.52-4.93l.02-.03.02-.03c.46-.56.99-1.05 1.59-1.45h.02l.01-.02c1.41-.85 2.84-1.24 4.21-1.27h.02c1.36.02 2.8.42 4.21 1.27h.01l.01.02c.59.41 1.13.89 1.59 1.45l.02.02.02.03c1.05 1.65 1.53 3.34 1.53 4.93s-.43 2.93-1.16 4.12l-.1.35c0 .16.06.31.15.41.1.1.2.16.37.16h.1l.17.02 10.5.02c.3 0 .56-.25.56-.59l.02-11.38.11-.15a1.7 1.7 0 0 1 1.37-.72c.25 0 .5.06.74.18.86.45 1.82.7 2.85.7h.01c3.49 0 6.34-2.93 6.34-6.57 0-1.41-.43-2.94-1.45-4.47-.15-.23-.36-.44-.58-.6-1.49-1.06-2.97-1.5-4.32-1.5a6.1 6.1 0 0 0-2.85.7c-.24.13-.51.19-.76.19-.51 0-.98-.24-1.29-.62l-.13-.16.02-11.33c0-.33-.25-.58-.53-.59h-.09l-.08-.03-.09-.02-.08-.02-10.08.02h-.05a1.75 1.75 0 0 1-1.41-1.57l-.03-.14c0-.24.06-.48.16-.71s.01-.04.01-.04v-.03l.02-.03c.45-.9.71-1.91.71-2.99v-.02c0-.27-.03-.54-.07-.8-.05-.35-.12-.7-.23-1.05a6.634 6.634 0 0 0-2.45-3.5 6.065 6.065 0 0 0-3.61-1.2Z"/></svg>