<svg xmlns="http://www.w3.org/2000/svg" id="Calque_1" data-name="Calque 1" viewBox="0 0 128 128.13"><defs><style>.cls-3{stroke-linecap:round;stroke-linejoin:round}.cls-3,.cls-4{stroke:#000}.cls-3{fill:#fff}.cls-6{fill:#87ccf3}.cls-7{stroke-dasharray:0 0 .99 .99}.cls-4,.cls-7,.cls-8{fill:none;stroke-miterlimit:10}.cls-7,.cls-8{stroke:#d6d6d6}</style></defs><path d="M35.5 43.49a8.807 8.807 0 0 1 2.34 5.99v66.77c0 5.72-7.33 8.27-16.38 8.27S5.1 121.97 5.1 116.25V49.48c0-2.22.84-4.36 2.35-5.99l.89-.97a8.817 8.817 0 0 0 2.35-5.99V31.5h21.56v5.04c0 2.22.85 4.35 2.35 5.97l.9.97Z" style="fill:#bfe6fc;stroke:#000;stroke-linecap:round;stroke-linejoin:round"/><path d="M28.48 19.53v4.75H14.46v-4.75c0-.47.13-.92.36-1.3.79-1.33 2.59-2.68 2.97-4.17.34-1.36.51-2.76.51-4.16 0-.53-.02-1.07-.08-1.6-.02-.23-.05-.46-.08-.69 0-1.79 1.49-3.25 3.32-3.25s3.32 1.45 3.32 3.25c-.03.23-.06.46-.08.69-.19 2.13 0 4.27.59 6.32.37 1.3 2.12 2.46 2.82 3.62.23.38.36.82.36 1.29Z" style="stroke:#000;stroke-linecap:round;stroke-linejoin:round;fill:#a07637"/><path d="m34.47 27.25-2.47-.2c-6.94-.56-13.91-.57-20.85-.01l-2.68.21v6.7l2.61-.21c6.94-.55 13.91-.55 20.85 0l2.54.2v-6.7Z" class="cls-3"/><path d="M33.14 27.15h-.01c-7.72-.69-15.49-.7-23.21-.01H9.8v-3.68h.13c7.72-.7 15.49-.69 23.21 0h0v3.69Z" class="cls-3"/><path d="M10.14 53.62h5.9M10.14 62.95h5.9M10.14 72.28h5.9M10.14 81.61h5.9M10.14 90.94h5.9M10.14 100.27h5.9M10.14 109.6h5.9" class="cls-4"/><path d="M24.74 43.33h4.83c.75 0 1.69 3.12 1.86 3.69.5 1.61.59 3.17.64 4.84 0 .22.25 3.38.08 3.38H27.8c.11 0-.34-6.31-.42-6.81-.18-1.05-.48-2.09-.99-3.02-.26-.48-1.02-2.09-1.66-2.09Z" style="fill:#fff"/><path d="M43.32 34.62h.5" class="cls-8"/><path d="M44.81 34.62h76.57" class="cls-7"/><path d="M121.87 34.62h.5" class="cls-8"/><path d="M89.01 35.52c-.3 0-.58-.15-.74-.4-.13-.19-.18-.43-.13-.67.05-.23.18-.44.38-.57l5.89-3.91a.881.881 0 0 1 1.23.25c.13.2.18.43.13.67-.05.23-.18.43-.38.57l-5.89 3.91c-.15.1-.32.15-.49.15Z" class="cls-6"/><path d="M94.9 30.32c.13 0 .25.06.33.17.12.18.07.42-.11.54l-5.89 3.91a.44.44 0 0 1-.22.07c-.13 0-.25-.06-.33-.18a.388.388 0 0 1 .11-.54l5.89-3.91c.07-.04.14-.06.22-.06m0-1c-.27 0-.54.08-.76.23l-5.9 3.91c-.64.42-.81 1.29-.39 1.93.26.39.69.62 1.16.62.27 0 .54-.08.77-.23l5.89-3.91c.64-.42.81-1.29.39-1.93-.26-.39-.69-.62-1.16-.62Z"/><path d="M88.44 39.54c-.7 0-1.35-.35-1.74-.93l-1.62-2.45 3.99-2.65 1.62 2.45c.63.96.37 2.25-.58 2.89l-.51.34c-.34.23-.74.35-1.15.35Z" class="cls-6"/><path d="m88.93 34.21 1.35 2.03c.48.73.29 1.71-.44 2.19l-.52.34c-.27.18-.57.26-.87.26-.51 0-1.02-.25-1.32-.71l-1.35-2.03 3.15-2.09m.28-1.39-.83.55-3.15 2.09-.83.55.55.83 1.35 2.03c.48.72 1.28 1.15 2.15 1.15.51 0 1-.15 1.43-.43l.52-.34c.57-.38.97-.96 1.1-1.64s0-1.36-.38-1.94l-1.35-2.03-.55-.83Z"/><path d="M97.44 35.52c-.3 0-.58-.15-.74-.4a.877.877 0 0 1-.13-.67c.05-.23.18-.43.38-.57l5.89-3.91a.881.881 0 0 1 1.23.25c.13.2.18.43.13.67-.05.23-.18.43-.38.57l-5.89 3.91c-.15.1-.32.15-.49.15Z" class="cls-6"/><path d="M103.33 30.32c.13 0 .25.06.33.17.12.18.07.42-.11.54l-5.89 3.91a.44.44 0 0 1-.22.07c-.13 0-.25-.06-.33-.18a.388.388 0 0 1 .11-.54l5.89-3.91c.07-.04.14-.06.22-.06m0-1c-.27 0-.54.08-.76.23l-5.9 3.91c-.31.21-.52.52-.59.88-.07.36 0 .74.2 1.05a1.385 1.385 0 0 0 1.92.39l5.9-3.91c.64-.42.81-1.29.39-1.93-.26-.39-.69-.62-1.16-.62Z"/><path d="M96.87 39.54c-.7 0-1.35-.35-1.74-.93l-1.62-2.45 3.99-2.65 1.62 2.45c.63.96.37 2.25-.58 2.89l-.51.34c-.34.23-.74.35-1.15.35Z" class="cls-6"/><path d="m97.35 34.21 1.35 2.03c.48.73.29 1.71-.44 2.19l-.52.34c-.27.18-.57.26-.87.26-.51 0-1.02-.25-1.32-.71l-1.35-2.03 3.15-2.09m.28-1.39-.83.55-3.15 2.09-.83.55.55.83 1.35 2.03c.48.72 1.28 1.15 2.15 1.15.51 0 1-.15 1.43-.43l.52-.34a2.58 2.58 0 0 0 .72-3.58l-1.35-2.03-.55-.83Z"/><path d="M105.86 35.52c-.3 0-.58-.15-.75-.4a.877.877 0 0 1-.13-.67.88.88 0 0 1 .38-.56l5.89-3.91a.881.881 0 0 1 1.23.25c.13.2.18.44.13.67-.05.23-.18.43-.38.57l-5.89 3.91c-.15.1-.32.15-.49.15Z" class="cls-6"/><path d="M111.75 30.32c.13 0 .25.06.33.17.12.18.07.42-.11.54l-5.89 3.91a.44.44 0 0 1-.22.07c-.13 0-.25-.06-.33-.18a.388.388 0 0 1 .11-.54l5.89-3.91c.07-.04.14-.06.22-.06m0-1c-.27 0-.54.08-.76.23l-5.9 3.91c-.64.42-.81 1.29-.39 1.93a1.385 1.385 0 0 0 1.92.39l5.9-3.91c.31-.21.52-.52.59-.88.07-.36 0-.74-.2-1.05-.26-.39-.69-.62-1.16-.62Z"/><path d="M105.29 39.54c-.7 0-1.35-.35-1.74-.93l-1.62-2.45 3.99-2.65 1.62 2.45c.63.96.37 2.25-.58 2.89l-.52.34c-.34.23-.74.35-1.15.35Z" class="cls-6"/><path d="m105.77 34.21 1.35 2.03c.48.73.28 1.71-.44 2.19l-.52.34c-.27.18-.57.26-.87.26-.51 0-1.02-.25-1.32-.71l-1.35-2.03 3.15-2.09m.28-1.39-.83.55-3.15 2.09-.83.55.55.83 1.35 2.03c.48.72 1.28 1.15 2.15 1.15.51 0 1-.15 1.43-.43l.52-.34a2.58 2.58 0 0 0 .72-3.58l-1.35-2.03-.55-.83Z"/><path d="M114.28 35.52c-.3 0-.58-.15-.74-.4a.885.885 0 0 1 .25-1.23l5.89-3.91a.881.881 0 0 1 1.23.25c.13.2.18.44.13.67-.05.23-.18.43-.38.57l-5.89 3.91c-.15.1-.32.15-.49.15Z" class="cls-6"/><path d="M120.18 30.32c.13 0 .25.06.33.17.12.18.07.42-.11.54l-5.89 3.91a.44.44 0 0 1-.22.07c-.13 0-.25-.06-.33-.18a.388.388 0 0 1 .11-.54l5.89-3.91c.07-.04.14-.06.22-.06m0-1c-.27 0-.54.08-.76.23l-5.9 3.91c-.64.42-.81 1.29-.39 1.93.26.39.69.62 1.16.62.27 0 .54-.08.77-.23l5.89-3.91c.64-.42.81-1.29.39-1.93-.26-.39-.69-.62-1.16-.62Z"/><path d="M113.71 39.54c-.7 0-1.35-.35-1.74-.93l-1.62-2.45 3.98-2.65 1.62 2.45c.63.96.37 2.25-.58 2.89l-.52.34c-.34.23-.74.35-1.15.35Z" class="cls-6"/><path d="m114.2 34.21 1.35 2.03c.48.73.28 1.71-.44 2.19l-.52.34c-.27.18-.57.26-.87.26-.51 0-1.02-.25-1.32-.71l-1.35-2.03 3.15-2.09m.28-1.39-.83.55-3.15 2.09-.83.55.55.83 1.35 2.03c.48.72 1.28 1.15 2.15 1.15.51 0 1-.15 1.43-.43l.52-.34a2.58 2.58 0 0 0 .72-3.58l-1.35-2.03-.55-.83Z"/><path d="M72.16 35.52c-.3 0-.58-.15-.74-.4a.887.887 0 0 1 .25-1.23l5.89-3.91a.881.881 0 0 1 1.23.25c.13.2.18.44.13.67-.05.23-.18.43-.38.57l-5.89 3.91c-.15.1-.32.15-.49.15Z" class="cls-6"/><path d="M78.05 30.32c.13 0 .25.06.33.17.12.18.07.42-.11.54l-5.89 3.91a.44.44 0 0 1-.22.07c-.13 0-.25-.06-.33-.18a.388.388 0 0 1 .11-.54l5.89-3.91c.07-.04.14-.06.22-.06m0-1c-.27 0-.54.08-.76.23l-5.9 3.91c-.64.42-.81 1.29-.39 1.93.26.39.69.62 1.16.62.27 0 .54-.08.77-.23l5.9-3.91c.64-.43.81-1.29.39-1.93-.26-.39-.69-.62-1.16-.62Z"/><path d="M71.59 39.54c-.7 0-1.35-.35-1.74-.93l-1.62-2.45 3.99-2.65 1.62 2.45c.63.96.37 2.25-.58 2.89l-.52.34c-.34.23-.74.35-1.15.35Z" class="cls-6"/><path d="m72.08 34.21 1.35 2.03c.48.73.28 1.71-.44 2.19l-.52.34c-.27.18-.57.26-.87.26-.51 0-1.02-.25-1.32-.71l-1.35-2.03 3.15-2.09m.28-1.39-.83.55-3.15 2.09-.83.55.55.83 1.35 2.03c.48.72 1.28 1.15 2.15 1.15.51 0 1-.15 1.43-.43l.52-.34a2.58 2.58 0 0 0 .72-3.58l-1.35-2.03-.55-.83Z"/><path d="M80.59 35.52c-.3 0-.58-.15-.74-.4a.885.885 0 0 1-.13-.67c.05-.23.18-.43.38-.57l5.89-3.91a.881.881 0 0 1 1.23.25c.13.2.18.44.13.67-.05.23-.18.43-.38.57l-5.89 3.91c-.15.1-.32.15-.49.15Z" class="cls-6"/><path d="M86.48 30.32c.13 0 .25.06.33.17.12.18.07.42-.11.54l-5.89 3.91a.44.44 0 0 1-.22.07c-.13 0-.25-.06-.33-.18a.388.388 0 0 1 .11-.54l5.89-3.91c.07-.04.14-.06.22-.06m0-1c-.27 0-.54.08-.76.23l-5.9 3.91c-.31.21-.52.52-.59.88-.07.36 0 .74.2 1.05.26.39.69.62 1.16.62.27 0 .54-.08.77-.23l5.89-3.91c.64-.42.81-1.29.39-1.93-.26-.39-.69-.62-1.16-.62Z"/><path d="M80.02 39.54c-.7 0-1.35-.35-1.74-.93l-1.62-2.45 3.98-2.65 1.62 2.45c.63.96.37 2.25-.58 2.89l-.52.34c-.34.23-.74.35-1.15.35Z" class="cls-6"/><path d="m80.5 34.21 1.35 2.03c.48.73.28 1.71-.44 2.19l-.52.34c-.27.18-.57.26-.87.26-.51 0-1.02-.25-1.32-.71l-1.35-2.03 3.15-2.09m.28-1.39-.83.55-3.15 2.09-.83.55.55.83 1.35 2.03c.48.72 1.28 1.15 2.15 1.15.51 0 1-.15 1.43-.43l.52-.34a2.58 2.58 0 0 0 .72-3.58l-1.35-2.03-.55-.83Z"/><path d="M63.74 35.52c-.3 0-.58-.15-.74-.4a.885.885 0 0 1 .25-1.23l5.89-3.91a.881.881 0 0 1 1.23.25c.27.41.16.96-.25 1.23l-5.89 3.91c-.15.1-.32.15-.49.15Z" class="cls-6"/><path d="M69.63 30.32c.13 0 .25.06.33.17.12.18.07.42-.11.54l-5.89 3.91a.44.44 0 0 1-.22.07c-.13 0-.25-.06-.33-.18a.388.388 0 0 1 .11-.54l5.89-3.91c.07-.04.14-.06.22-.06m0-1c-.27 0-.54.08-.77.23l-5.9 3.91c-.64.42-.81 1.29-.39 1.93.26.39.69.62 1.16.62.27 0 .54-.08.77-.23l5.9-3.91c.64-.42.81-1.29.39-1.93-.26-.39-.69-.62-1.16-.62Z"/><path d="M63.17 39.54c-.7 0-1.35-.35-1.74-.93l-1.62-2.45 3.99-2.65 1.62 2.45c.63.96.37 2.25-.58 2.89l-.51.34c-.34.23-.74.35-1.15.35Z" class="cls-6"/><path d="M63.65 34.21 65 36.24c.48.73.29 1.71-.44 2.19l-.52.34c-.27.18-.57.26-.87.26-.51 0-1.02-.25-1.32-.71l-1.35-2.03 3.15-2.09m.28-1.39-.83.55-3.15 2.09-.83.55.55.83 1.35 2.03c.48.72 1.28 1.15 2.15 1.15.51 0 1-.15 1.43-.43l.52-.34c.57-.38.97-.96 1.1-1.64s0-1.36-.38-1.94l-1.35-2.03-.55-.83ZM53.92 31.71c-.25.25-.6.69-1.05 1.33-.45.64-.83 1.29-1.13 1.97-.24.53-.46 1.18-.65 1.95s-.29 1.4-.29 1.89h-1.75c.05-1.54.56-3.13 1.51-4.79.62-1.03 1.14-1.74 1.55-2.15h-4.27l.02-1.51h6.05v1.32Z"/><path d="M43.32 50.3h.5" class="cls-8"/><path d="M44.81 50.3h76.57" class="cls-7"/><path d="M121.87 50.3h.5" class="cls-8"/><path d="M63.74 51.2c-.3 0-.58-.15-.74-.4a.898.898 0 0 1 .25-1.24l5.89-3.91a.881.881 0 0 1 1.23.25.9.9 0 0 1-.25 1.24l-5.89 3.91c-.15.1-.32.15-.49.15Z" class="cls-6"/><path d="M69.63 46c.13 0 .25.06.33.17.12.18.07.42-.11.54l-5.89 3.91a.44.44 0 0 1-.22.07c-.13 0-.25-.06-.33-.18a.388.388 0 0 1 .11-.54l5.89-3.91c.07-.04.14-.06.22-.06m0-1c-.27 0-.54.08-.77.23l-5.89 3.91c-.64.42-.81 1.29-.39 1.93.26.39.69.62 1.16.62.27 0 .54-.08.77-.23l5.89-3.91c.64-.42.81-1.29.39-1.93-.26-.39-.69-.62-1.16-.62Z"/><path d="M63.17 55.22c-.7 0-1.35-.35-1.74-.93l-1.62-2.45 3.99-2.64 1.62 2.45c.31.46.42 1.02.31 1.56-.11.55-.43 1.02-.89 1.32l-.51.34c-.34.23-.74.35-1.15.35Z" class="cls-6"/><path d="M63.65 49.89 65 51.92c.48.73.29 1.71-.44 2.19l-.52.34c-.27.18-.57.26-.87.26-.51 0-1.02-.25-1.32-.71l-1.35-2.03 3.15-2.09m.28-1.39-.83.55-3.15 2.09-.83.55.55.83 1.35 2.03c.48.72 1.28 1.15 2.15 1.15.51 0 1-.15 1.43-.43l.52-.34c.57-.38.97-.96 1.1-1.64s0-1.36-.38-1.94l-1.35-2.03-.55-.83Z"/><path d="M72.16 51.2c-.3 0-.58-.15-.74-.4a.9.9 0 0 1 .25-1.24l5.89-3.91a.881.881 0 0 1 1.23.25.9.9 0 0 1-.25 1.24l-5.89 3.91c-.15.1-.32.15-.49.15Z" class="cls-6"/><path d="M78.05 46c.13 0 .25.06.33.17.12.18.07.42-.11.54l-5.89 3.91a.44.44 0 0 1-.22.07c-.13 0-.25-.06-.33-.18a.388.388 0 0 1 .11-.54l5.89-3.91c.07-.04.14-.06.22-.06m0-1c-.27 0-.54.08-.77.23l-5.89 3.91c-.64.42-.81 1.29-.39 1.93.26.39.69.62 1.16.62.27 0 .54-.08.77-.23l5.89-3.91c.64-.43.81-1.29.39-1.93-.26-.39-.69-.62-1.16-.62Z"/><path d="M71.59 55.22c-.7 0-1.35-.35-1.74-.93l-1.62-2.45 3.99-2.65 1.62 2.45c.63.96.37 2.25-.58 2.89l-.52.34c-.34.23-.74.35-1.15.35Z" class="cls-6"/><path d="m72.08 49.89 1.35 2.03c.48.73.28 1.71-.44 2.19l-.52.34c-.27.18-.57.26-.87.26-.51 0-1.02-.25-1.32-.71l-1.35-2.03 3.15-2.09m.28-1.39-.83.55-3.15 2.09-.83.55.55.83 1.35 2.03c.48.72 1.28 1.15 2.15 1.15.51 0 1-.15 1.43-.43l.52-.34a2.58 2.58 0 0 0 .72-3.58l-1.35-2.03-.55-.83Z"/><path d="M80.59 51.2c-.3 0-.58-.15-.74-.4a.898.898 0 0 1 .25-1.24l5.89-3.91a.881.881 0 0 1 1.23.25c.27.41.16.97-.25 1.24l-5.89 3.91c-.15.1-.32.15-.49.15Z" class="cls-6"/><path d="M86.48 46c.13 0 .25.06.33.17.12.18.07.42-.11.54l-5.89 3.91a.44.44 0 0 1-.22.07c-.13 0-.25-.06-.33-.18a.388.388 0 0 1 .11-.54l5.89-3.91c.07-.04.14-.06.22-.06m0-1c-.27 0-.54.08-.77.23l-5.89 3.91c-.31.21-.52.52-.59.88-.07.36 0 .74.2 1.05.26.39.69.62 1.16.62.27 0 .54-.08.77-.23l5.89-3.91c.64-.42.81-1.29.39-1.93-.26-.39-.69-.62-1.16-.62Z"/><path d="M80.02 55.22c-.7 0-1.35-.35-1.74-.93l-1.62-2.45 3.98-2.65 1.62 2.45c.31.46.42 1.02.31 1.56-.11.55-.43 1.02-.89 1.32l-.52.34c-.34.23-.74.35-1.15.35Z" class="cls-6"/><path d="m80.5 49.89 1.35 2.03c.48.73.28 1.71-.44 2.19l-.52.34c-.27.18-.57.26-.87.26-.51 0-1.02-.25-1.32-.71l-1.35-2.03 3.15-2.09m.28-1.39-.83.55-3.15 2.09-.83.55.55.83 1.35 2.03c.48.72 1.28 1.15 2.15 1.15.51 0 1-.15 1.43-.43l.52-.34a2.58 2.58 0 0 0 .72-3.58l-1.35-2.03-.55-.83Z"/><path d="M89.01 51.2c-.3 0-.58-.15-.74-.4a.9.9 0 0 1 .25-1.24l5.89-3.91a.881.881 0 0 1 1.23.25.9.9 0 0 1-.25 1.24l-5.89 3.91c-.15.1-.32.15-.49.15Z" class="cls-6"/><path d="M94.9 46c.13 0 .25.06.33.17.12.18.07.42-.11.54l-5.89 3.91a.44.44 0 0 1-.22.07c-.13 0-.25-.06-.33-.18a.388.388 0 0 1 .11-.54l5.89-3.91c.07-.04.14-.06.22-.06m0-1c-.27 0-.54.08-.77.23l-5.89 3.91c-.64.42-.81 1.29-.39 1.93.26.39.69.62 1.16.62.27 0 .54-.08.77-.23l5.89-3.91c.64-.42.81-1.29.39-1.93-.26-.39-.69-.62-1.16-.62Z"/><path d="M88.44 55.22c-.7 0-1.35-.35-1.74-.93l-1.62-2.45 3.99-2.64 1.62 2.45c.31.46.42 1.02.31 1.56-.11.55-.43 1.02-.89 1.32l-.51.34c-.34.23-.74.35-1.15.35Z" class="cls-6"/><path d="m88.93 49.89 1.35 2.03c.48.73.29 1.71-.44 2.19l-.52.34c-.27.18-.57.26-.87.26-.51 0-1.02-.25-1.32-.71l-1.35-2.03 3.15-2.09m.28-1.39-.83.55-3.15 2.09-.83.55.55.83 1.35 2.03c.48.72 1.28 1.15 2.15 1.15.51 0 1-.15 1.43-.43l.52-.34c.57-.38.97-.96 1.1-1.64s0-1.36-.38-1.94l-1.35-2.03-.55-.83Z"/><path d="M97.44 51.2c-.3 0-.58-.15-.74-.4a.9.9 0 0 1 .25-1.24l5.89-3.91a.881.881 0 0 1 1.23.25.9.9 0 0 1-.25 1.24l-5.89 3.91c-.15.1-.32.15-.49.15Z" class="cls-6"/><path d="M103.33 46c.13 0 .25.06.33.17.12.18.07.42-.11.54l-5.89 3.91a.44.44 0 0 1-.22.07c-.13 0-.25-.06-.33-.18a.388.388 0 0 1 .11-.54l5.89-3.91c.07-.04.14-.06.22-.06m0-1c-.27 0-.54.08-.77.23l-5.89 3.91c-.31.21-.52.52-.59.88-.07.36 0 .74.2 1.05a1.385 1.385 0 0 0 1.92.39l5.9-3.91c.64-.42.81-1.29.39-1.93-.26-.39-.69-.62-1.16-.62Z"/><path d="M96.87 55.22c-.7 0-1.35-.35-1.74-.93l-1.62-2.45 3.99-2.64 1.62 2.45c.31.46.42 1.02.31 1.56-.11.55-.43 1.02-.89 1.32l-.51.34c-.34.23-.74.35-1.15.35Z" class="cls-6"/><path d="m97.35 49.89 1.35 2.03c.48.73.29 1.71-.44 2.19l-.52.34c-.27.18-.57.26-.87.26-.51 0-1.02-.25-1.32-.71l-1.35-2.03 3.15-2.09m.28-1.39-.83.55-3.15 2.09-.83.55.55.83 1.35 2.03c.48.72 1.28 1.15 2.15 1.15.51 0 1-.15 1.43-.43l.52-.34a2.58 2.58 0 0 0 .72-3.58l-1.35-2.03-.55-.83Z"/><path d="M105.86 51.2c-.3 0-.58-.15-.74-.4a.9.9 0 0 1 .25-1.24l5.89-3.91a.881.881 0 0 1 1.23.25.9.9 0 0 1-.25 1.24l-5.89 3.91c-.15.1-.32.15-.49.15Z" class="cls-6"/><path d="M111.75 46c.13 0 .25.06.33.17.12.18.07.42-.11.54l-5.89 3.91a.44.44 0 0 1-.22.07c-.13 0-.25-.06-.33-.18a.388.388 0 0 1 .11-.54l5.89-3.91c.07-.04.14-.06.22-.06m0-1c-.27 0-.54.08-.77.23l-5.9 3.91c-.64.42-.81 1.29-.39 1.93.26.39.69.62 1.16.62.27 0 .54-.08.77-.23l5.9-3.91c.31-.21.52-.52.59-.88.07-.36 0-.74-.2-1.05-.26-.39-.69-.62-1.16-.62Z"/><path d="M105.29 55.22c-.7 0-1.35-.35-1.74-.93l-1.62-2.45 3.99-2.65 1.62 2.45c.63.96.37 2.25-.58 2.89l-.52.34c-.34.23-.74.35-1.15.35Z" class="cls-6"/><path d="m105.77 49.89 1.35 2.03c.48.73.28 1.71-.44 2.19l-.52.34c-.27.18-.57.26-.87.26-.51 0-1.02-.25-1.32-.71l-1.35-2.03 3.15-2.09m.28-1.39-.83.55-3.15 2.09-.83.55.55.83 1.35 2.03c.48.72 1.28 1.15 2.15 1.15.51 0 1-.15 1.43-.43l.52-.34a2.58 2.58 0 0 0 .72-3.58l-1.35-2.03-.55-.83ZM51.98 48.11c0-.14-.05-.29-.16-.45-.18-.27-.46-.4-.82-.4-.55 0-.94.31-1.17.92-.13.34-.21.84-.26 1.5.21-.25.45-.43.73-.54.28-.11.59-.17.94-.17.76 0 1.38.26 1.87.77.49.52.73 1.18.73 1.98s-.24 1.5-.71 2.11c-.48.61-1.22.92-2.22.92-1.08 0-1.87-.45-2.39-1.35-.4-.71-.6-1.61-.6-2.73 0-.65.03-1.18.08-1.59.1-.73.29-1.33.57-1.82.24-.41.56-.75.96-1 .4-.25.87-.38 1.42-.38.8 0 1.43.2 1.9.61s.74.95.8 1.63h-1.68Zm-2 4.82c.25.29.56.44.94.44s.67-.14.88-.42.32-.65.32-1.1c0-.5-.12-.88-.37-1.15-.24-.27-.54-.4-.9-.4-.29 0-.54.09-.76.26-.33.26-.5.67-.5 1.24 0 .46.12.84.37 1.13Z"/><path d="M43.32 65.28h.5" class="cls-8"/><path d="M44.81 65.28h76.57" class="cls-7"/><path d="M121.87 65.28h.5" class="cls-8"/><path d="M63.74 66.18c-.3 0-.58-.15-.74-.4a.885.885 0 0 1 .25-1.23l5.89-3.91a.881.881 0 0 1 1.23.25.9.9 0 0 1-.25 1.24l-5.89 3.91c-.15.1-.32.15-.49.15Z" class="cls-6"/><path d="M69.63 60.99c.13 0 .25.06.33.17.12.18.07.42-.11.54l-5.89 3.91a.44.44 0 0 1-.22.07c-.13 0-.25-.06-.33-.18a.388.388 0 0 1 .11-.54l5.89-3.91c.07-.04.14-.06.22-.06m0-1c-.27 0-.54.08-.77.23l-5.9 3.91c-.64.42-.81 1.29-.39 1.93.26.39.69.62 1.16.62.27 0 .54-.08.77-.23l5.9-3.91c.64-.42.81-1.29.39-1.93-.26-.39-.69-.62-1.16-.62Z"/><path d="M63.17 70.2c-.7 0-1.35-.35-1.74-.93l-1.62-2.45 3.99-2.65 1.62 2.45c.63.96.37 2.25-.58 2.89l-.51.34c-.34.23-.74.35-1.15.35Z" class="cls-6"/><path d="M63.65 64.87 65 66.9c.48.73.29 1.71-.44 2.19l-.52.34c-.27.18-.57.26-.87.26-.51 0-1.02-.25-1.32-.71l-1.35-2.03 3.15-2.09m.28-1.39-.83.55-3.15 2.09-.83.55.55.83 1.35 2.03c.48.72 1.28 1.15 2.15 1.15.51 0 1-.15 1.43-.43l.52-.34c.57-.38.97-.96 1.1-1.64s0-1.36-.38-1.94l-1.35-2.03-.55-.83Z"/><path d="M72.16 66.18c-.3 0-.58-.15-.74-.4a.887.887 0 0 1 .25-1.23l5.89-3.91a.881.881 0 0 1 1.23.25c.13.2.18.44.13.67-.05.23-.18.43-.38.57l-5.89 3.91c-.15.1-.32.15-.49.15Z" class="cls-6"/><path d="M78.05 60.99c.13 0 .25.06.33.17.12.18.07.42-.11.54l-5.89 3.91a.44.44 0 0 1-.22.07c-.13 0-.25-.06-.33-.18a.388.388 0 0 1 .11-.54l5.89-3.91c.07-.04.14-.06.22-.06m0-1c-.27 0-.54.08-.76.23l-5.9 3.91c-.64.42-.81 1.29-.39 1.93.26.39.69.62 1.16.62.27 0 .54-.08.77-.23l5.9-3.91c.64-.43.81-1.29.39-1.93-.26-.39-.69-.62-1.16-.62Z"/><path d="M71.59 70.2c-.7 0-1.35-.35-1.74-.93l-1.62-2.45 3.99-2.65 1.62 2.45c.63.96.37 2.25-.58 2.89l-.52.34c-.34.23-.74.35-1.15.35Z" class="cls-6"/><path d="m72.08 64.87 1.35 2.03c.48.73.28 1.71-.44 2.19l-.52.34c-.27.18-.57.26-.87.26-.51 0-1.02-.25-1.32-.71l-1.35-2.03 3.15-2.09m.28-1.39-.83.55-3.15 2.09-.83.55.55.83 1.35 2.03c.48.72 1.28 1.15 2.15 1.15.51 0 1-.15 1.43-.43l.52-.34a2.58 2.58 0 0 0 .72-3.58l-1.35-2.03-.55-.83Z"/><path d="M80.59 66.18c-.3 0-.58-.15-.74-.4a.885.885 0 0 1-.13-.67c.05-.23.18-.43.38-.57l5.89-3.91a.881.881 0 0 1 1.23.25c.13.2.18.44.13.67-.05.23-.18.43-.38.57l-5.89 3.91c-.15.1-.32.15-.49.15Z" class="cls-6"/><path d="M86.48 60.99c.13 0 .25.06.33.17.12.18.07.42-.11.54l-5.89 3.91a.44.44 0 0 1-.22.07c-.13 0-.25-.06-.33-.18a.388.388 0 0 1 .11-.54l5.89-3.91c.07-.04.14-.06.22-.06m0-1c-.27 0-.54.08-.76.23l-5.9 3.91c-.31.21-.52.52-.59.88-.07.36 0 .74.2 1.05.26.39.69.62 1.16.62.27 0 .54-.08.77-.23l5.89-3.91c.64-.42.81-1.29.39-1.93-.26-.39-.69-.62-1.16-.62Z"/><path d="M80.02 70.2c-.7 0-1.35-.35-1.74-.93l-1.62-2.45 3.98-2.65 1.62 2.45c.63.96.37 2.25-.58 2.89l-.52.34c-.34.23-.74.35-1.15.35Z" class="cls-6"/><path d="m80.5 64.87 1.35 2.03c.48.73.28 1.71-.44 2.19l-.52.34c-.27.18-.57.26-.87.26-.51 0-1.02-.25-1.32-.71l-1.35-2.03 3.15-2.09m.28-1.39-.83.55-3.15 2.09-.83.55.55.83 1.35 2.03c.48.72 1.28 1.15 2.15 1.15.51 0 1-.15 1.43-.43l.52-.34a2.58 2.58 0 0 0 .72-3.58l-1.35-2.03-.55-.83Z"/><path d="M89.01 66.18c-.3 0-.58-.15-.74-.4-.13-.19-.18-.43-.13-.67.05-.23.18-.44.38-.57l5.89-3.91a.881.881 0 0 1 1.23.25c.13.2.18.44.13.67-.05.23-.18.43-.38.57l-5.89 3.91c-.15.1-.32.15-.49.15Z" class="cls-6"/><path d="M94.9 60.99c.13 0 .25.06.33.17.12.18.07.42-.11.54l-5.89 3.91a.44.44 0 0 1-.22.07c-.13 0-.25-.06-.33-.18a.388.388 0 0 1 .11-.54l5.89-3.91c.07-.04.14-.06.22-.06m0-1c-.27 0-.54.08-.76.23l-5.9 3.91c-.64.42-.81 1.29-.39 1.93.26.39.69.62 1.16.62.27 0 .54-.08.77-.23l5.89-3.91c.64-.42.81-1.29.39-1.93-.26-.39-.69-.62-1.16-.62Z"/><path d="M88.44 70.2c-.7 0-1.35-.35-1.74-.93l-1.62-2.45 3.99-2.65 1.62 2.45c.63.96.37 2.25-.58 2.89l-.51.34c-.34.23-.74.35-1.15.35Z" class="cls-6"/><path d="m88.93 64.87 1.35 2.03c.48.73.29 1.71-.44 2.19l-.52.34c-.27.18-.57.26-.87.26-.51 0-1.02-.25-1.32-.71l-1.35-2.03 3.15-2.09m.28-1.39-.83.55-3.15 2.09-.83.55.55.83 1.35 2.03c.48.72 1.28 1.15 2.15 1.15.51 0 1-.15 1.43-.43l.52-.34c.57-.38.97-.96 1.1-1.64s0-1.36-.38-1.94l-1.35-2.03-.55-.83Z"/><path d="M97.44 66.18c-.3 0-.58-.15-.74-.4a.887.887 0 0 1 .25-1.23l5.89-3.91a.881.881 0 0 1 1.23.25c.13.2.18.44.13.67-.05.23-.18.43-.38.57l-5.89 3.91c-.15.1-.32.15-.49.15Z" class="cls-6"/><path d="M103.33 60.99c.13 0 .25.06.33.17.12.18.07.42-.11.54l-5.89 3.91a.44.44 0 0 1-.22.07c-.13 0-.25-.06-.33-.18a.388.388 0 0 1 .11-.54l5.89-3.91c.07-.04.14-.06.22-.06m0-1c-.27 0-.54.08-.76.23l-5.9 3.91c-.31.21-.52.52-.59.88-.07.36 0 .74.2 1.05a1.385 1.385 0 0 0 1.92.39l5.9-3.91c.64-.42.81-1.29.39-1.93-.26-.39-.69-.62-1.16-.62Z"/><path d="M96.87 70.2c-.7 0-1.35-.35-1.74-.93l-1.62-2.45 3.99-2.65 1.62 2.45c.63.96.37 2.25-.58 2.89l-.51.34c-.34.23-.74.35-1.15.35Z" class="cls-6"/><path d="m97.35 64.87 1.35 2.03c.48.73.29 1.71-.44 2.19l-.52.34c-.27.18-.57.26-.87.26-.51 0-1.02-.25-1.32-.71l-1.35-2.03 3.15-2.09m.28-1.39-.83.55-3.15 2.09-.83.55.55.83 1.35 2.03c.48.72 1.28 1.15 2.15 1.15.51 0 1-.15 1.43-.43l.52-.34a2.58 2.58 0 0 0 .72-3.58l-1.35-2.03-.55-.83ZM49.6 67.11c.07.37.19.65.38.85.19.2.46.3.83.3.42 0 .73-.15.95-.44.22-.29.33-.66.33-1.11s-.1-.81-.31-1.11-.52-.45-.95-.45c-.2 0-.38.02-.53.08-.26.09-.46.27-.6.53l-1.51-.07.6-4.73h4.71v1.43H50l-.31 1.87c.26-.17.46-.28.61-.34.24-.09.54-.14.89-.14.71 0 1.33.24 1.85.71.53.48.79 1.17.79 2.08 0 .79-.25 1.5-.76 2.12s-1.27.93-2.28.93c-.81 0-1.48-.22-2.01-.65s-.81-1.06-.87-1.86h1.68Z"/><path d="M43.32 78.24h.5" class="cls-8"/><path d="M44.81 78.24h76.57" class="cls-7"/><path d="M121.87 78.24h.5" class="cls-8"/><path d="M63.74 79.13c-.3 0-.58-.15-.74-.4a.898.898 0 0 1 .25-1.24l5.89-3.91a.881.881 0 0 1 1.23.25.9.9 0 0 1-.25 1.24l-5.89 3.91c-.15.1-.32.15-.49.15Z" class="cls-6"/><path d="M69.63 73.94c.13 0 .25.06.33.17.12.18.07.42-.11.54l-5.89 3.91a.44.44 0 0 1-.22.07c-.13 0-.25-.06-.33-.18a.388.388 0 0 1 .11-.54L69.41 74c.07-.04.14-.06.22-.06m0-1c-.27 0-.54.08-.77.23l-5.89 3.91c-.64.42-.81 1.29-.39 1.93.26.39.69.62 1.16.62.27 0 .54-.08.77-.23l5.89-3.91c.64-.42.81-1.29.39-1.93-.26-.39-.69-.62-1.16-.62Z"/><path d="M63.17 83.16c-.7 0-1.35-.35-1.74-.93l-1.62-2.45 3.99-2.65 1.62 2.45c.63.96.37 2.25-.58 2.89l-.51.34c-.34.23-.74.35-1.15.35Z" class="cls-6"/><path d="M63.65 77.83 65 79.86c.48.73.29 1.71-.44 2.19l-.52.34c-.27.18-.57.26-.87.26-.51 0-1.02-.25-1.32-.71l-1.35-2.03 3.15-2.09m.28-1.39-.83.55-3.15 2.09-.83.55.55.83 1.35 2.03c.48.72 1.28 1.15 2.15 1.15.51 0 1-.15 1.43-.43l.52-.34c.57-.38.97-.96 1.1-1.64s0-1.36-.38-1.94l-1.35-2.03-.55-.83Z"/><path d="M72.16 79.13c-.3 0-.58-.15-.74-.4a.9.9 0 0 1 .25-1.24l5.89-3.91a.881.881 0 0 1 1.23.25.902.902 0 0 1-.25 1.24l-5.89 3.91c-.15.1-.32.15-.49.15Z" class="cls-6"/><path d="M78.05 73.94c.13 0 .25.06.33.17.12.18.07.42-.11.54l-5.89 3.91a.44.44 0 0 1-.22.07c-.13 0-.25-.06-.33-.18a.388.388 0 0 1 .11-.54L77.83 74c.07-.04.14-.06.22-.06m0-1c-.27 0-.54.08-.77.23l-5.89 3.91c-.64.42-.81 1.29-.39 1.93.26.39.69.62 1.16.62.27 0 .54-.08.77-.23l5.89-3.91c.64-.43.81-1.29.39-1.93-.26-.39-.69-.62-1.16-.62Z"/><path d="M71.59 83.16c-.7 0-1.35-.35-1.74-.93l-1.62-2.45 3.99-2.65 1.62 2.45c.63.96.37 2.25-.58 2.89l-.52.34c-.34.23-.74.35-1.15.35Z" class="cls-6"/><path d="m72.08 77.83 1.35 2.03c.48.73.28 1.71-.44 2.19l-.52.34c-.27.18-.57.26-.87.26-.51 0-1.02-.25-1.32-.71l-1.35-2.03 3.15-2.09m.28-1.39-.83.55-3.15 2.09-.83.55.55.83 1.35 2.03c.48.72 1.28 1.15 2.15 1.15.51 0 1-.15 1.43-.43l.52-.34a2.58 2.58 0 0 0 .72-3.58l-1.35-2.03-.55-.83Z"/><path d="M80.59 79.13c-.3 0-.58-.15-.74-.4a.898.898 0 0 1 .25-1.24l5.89-3.91a.881.881 0 0 1 1.23.25.902.902 0 0 1-.25 1.24l-5.89 3.91c-.15.1-.32.15-.49.15Z" class="cls-6"/><path d="M86.48 73.94c.13 0 .25.06.33.17.12.18.07.42-.11.54l-5.89 3.91a.44.44 0 0 1-.22.07c-.13 0-.25-.06-.33-.18a.388.388 0 0 1 .11-.54L86.26 74c.07-.04.14-.06.22-.06m0-1c-.27 0-.54.08-.77.23l-5.89 3.91c-.31.21-.52.52-.59.88-.07.36 0 .74.2 1.05.26.39.69.62 1.16.62.27 0 .54-.08.77-.23l5.89-3.91c.64-.42.81-1.29.39-1.93-.26-.39-.69-.62-1.16-.62Z"/><path d="M80.02 83.16c-.7 0-1.35-.35-1.74-.93l-1.62-2.45 3.98-2.65 1.62 2.45c.63.96.37 2.25-.58 2.89l-.52.34c-.34.23-.74.35-1.15.35Z" class="cls-6"/><path d="m80.5 77.83 1.35 2.03c.48.73.28 1.71-.44 2.19l-.52.34c-.27.18-.57.26-.87.26-.51 0-1.02-.25-1.32-.71l-1.35-2.03 3.15-2.09m.28-1.39-.83.55-3.15 2.09-.83.55.55.83 1.35 2.03c.48.72 1.28 1.15 2.15 1.15.51 0 1-.15 1.43-.43l.52-.34a2.58 2.58 0 0 0 .72-3.58l-1.35-2.03-.55-.83Z"/><path d="M89.01 79.13c-.3 0-.58-.15-.74-.4a.885.885 0 0 1-.13-.67c.05-.23.18-.43.38-.57l5.89-3.91a.881.881 0 0 1 1.23.25.9.9 0 0 1-.25 1.24l-5.89 3.91c-.15.1-.32.15-.49.15Z" class="cls-6"/><path d="M94.9 73.94c.13 0 .25.06.33.17.12.18.07.42-.11.54l-5.89 3.91a.44.44 0 0 1-.22.07c-.13 0-.25-.06-.33-.18a.388.388 0 0 1 .11-.54L94.68 74c.07-.04.14-.06.22-.06m0-1c-.27 0-.54.08-.77.23l-5.89 3.91c-.64.42-.81 1.29-.39 1.93.26.39.69.62 1.16.62.27 0 .54-.08.77-.23l5.89-3.91c.64-.42.81-1.29.39-1.93-.26-.39-.69-.62-1.16-.62Z"/><path d="M88.44 83.16c-.7 0-1.35-.35-1.74-.93l-1.62-2.45 3.99-2.65 1.62 2.45c.63.96.37 2.25-.58 2.89l-.51.34c-.34.23-.74.35-1.15.35Z" class="cls-6"/><path d="m88.93 77.83 1.35 2.03c.48.73.29 1.71-.44 2.19l-.52.34c-.27.18-.57.26-.87.26-.51 0-1.02-.25-1.32-.71l-1.35-2.03 3.15-2.09m.28-1.39-.83.55-3.15 2.09-.83.55.55.83 1.35 2.03c.48.72 1.28 1.15 2.15 1.15.51 0 1-.15 1.43-.43l.52-.34c.57-.38.97-.96 1.1-1.64s0-1.36-.38-1.94l-1.35-2.03-.55-.83ZM53.89 80.65h-.97v1.84h-1.65v-1.84h-3.39v-1.47l3.15-5.2h1.89v5.35h.97v1.32Zm-2.62-1.32v-3.69l-2.14 3.69h2.14Z"/><path d="M43.32 92.01h.5" class="cls-8"/><path d="M44.81 92.01h76.57" class="cls-7"/><path d="M121.87 92.01h.5" class="cls-8"/><path d="M63.74 92.9c-.3 0-.58-.15-.74-.4a.898.898 0 0 1 .25-1.24l5.89-3.91a.881.881 0 0 1 1.23.25.9.9 0 0 1-.25 1.24l-5.89 3.91c-.15.1-.32.15-.49.15Z" class="cls-6"/><path d="M69.63 87.71c.13 0 .25.06.33.17.12.18.07.42-.11.54l-5.89 3.91a.44.44 0 0 1-.22.07c-.13 0-.25-.06-.33-.18a.388.388 0 0 1 .11-.54l5.89-3.91c.07-.04.14-.06.22-.06m0-1c-.27 0-.54.08-.77.23l-5.89 3.91c-.64.42-.81 1.29-.39 1.93.26.39.69.62 1.16.62.27 0 .54-.08.77-.23l5.89-3.91c.64-.42.81-1.29.39-1.93-.26-.39-.69-.62-1.16-.62Z"/><path d="M63.17 96.93c-.7 0-1.35-.35-1.74-.93l-1.62-2.45 3.99-2.65 1.62 2.45c.63.96.37 2.25-.58 2.89l-.51.34c-.34.23-.74.35-1.15.35Z" class="cls-6"/><path d="M63.65 91.6 65 93.63c.48.73.29 1.71-.44 2.19l-.52.34c-.27.18-.57.26-.87.26-.51 0-1.02-.25-1.32-.71l-1.35-2.03 3.15-2.09m.28-1.39-.83.55-3.15 2.09-.83.55.55.83 1.35 2.03c.48.72 1.28 1.15 2.15 1.15.51 0 1-.15 1.43-.43l.52-.34c.57-.38.97-.96 1.1-1.64s0-1.36-.38-1.94l-1.35-2.03-.55-.83Z"/><path d="M72.16 92.9c-.3 0-.58-.15-.74-.4a.9.9 0 0 1 .25-1.24l5.89-3.91a.881.881 0 0 1 1.23.25.902.902 0 0 1-.25 1.24l-5.89 3.91c-.15.1-.32.15-.49.15Z" class="cls-6"/><path d="M78.05 87.71c.13 0 .25.06.33.17.12.18.07.42-.11.54l-5.89 3.91a.44.44 0 0 1-.22.07c-.13 0-.25-.06-.33-.18a.388.388 0 0 1 .11-.54l5.89-3.91c.07-.04.14-.06.22-.06m0-1c-.27 0-.54.08-.77.23l-5.89 3.91c-.64.42-.81 1.29-.39 1.93.26.39.69.62 1.16.62.27 0 .54-.08.77-.23l5.89-3.91c.64-.43.81-1.29.39-1.93-.26-.39-.69-.62-1.16-.62Z"/><path d="M71.59 96.93c-.7 0-1.35-.35-1.74-.93l-1.62-2.45 3.99-2.65 1.62 2.45c.63.96.37 2.25-.58 2.89l-.52.34c-.34.23-.74.35-1.15.35Z" class="cls-6"/><path d="m72.08 91.6 1.35 2.03c.48.73.28 1.71-.44 2.19l-.52.34c-.27.18-.57.26-.87.26-.51 0-1.02-.25-1.32-.71l-1.35-2.03 3.15-2.09m.28-1.39-.83.55-3.15 2.09-.83.55.55.83 1.35 2.03c.48.72 1.28 1.15 2.15 1.15.51 0 1-.15 1.43-.43l.52-.34a2.58 2.58 0 0 0 .72-3.58l-1.35-2.03-.55-.83Z"/><path d="M80.59 92.9c-.3 0-.58-.15-.74-.4a.898.898 0 0 1 .25-1.24l5.89-3.91a.881.881 0 0 1 1.23.25.902.902 0 0 1-.25 1.24l-5.89 3.91c-.15.1-.32.15-.49.15Z" class="cls-6"/><path d="M86.48 87.71c.13 0 .25.06.33.17.12.18.07.42-.11.54l-5.89 3.91a.44.44 0 0 1-.22.07c-.13 0-.25-.06-.33-.18a.388.388 0 0 1 .11-.54l5.89-3.91c.07-.04.14-.06.22-.06m0-1c-.27 0-.54.08-.77.23l-5.89 3.91c-.31.21-.52.52-.59.88-.07.36 0 .74.2 1.05.26.39.69.62 1.16.62.27 0 .54-.08.77-.23l5.89-3.91c.64-.42.81-1.29.39-1.93-.26-.39-.69-.62-1.16-.62Z"/><path d="M80.02 96.93c-.7 0-1.35-.35-1.74-.93l-1.62-2.45 3.98-2.65 1.62 2.45c.63.96.37 2.25-.58 2.89l-.52.34c-.34.23-.74.35-1.15.35Z" class="cls-6"/><path d="m80.5 91.6 1.35 2.03c.48.73.28 1.71-.44 2.19l-.52.34c-.27.18-.57.26-.87.26-.51 0-1.02-.25-1.32-.71l-1.35-2.03 3.15-2.09m.28-1.39-.83.55-3.15 2.09-.83.55.55.83 1.35 2.03c.48.72 1.28 1.15 2.15 1.15.51 0 1-.15 1.43-.43l.52-.34a2.58 2.58 0 0 0 .72-3.58l-1.35-2.03-.55-.83ZM49.58 93.58c0 .34.05.63.17.85.2.41.57.62 1.11.62.33 0 .62-.11.86-.34.25-.23.37-.55.37-.98 0-.56-.23-.94-.68-1.13-.26-.11-.67-.16-1.22-.16v-1.2c.55 0 .93-.06 1.14-.16.37-.17.56-.5.56-1 0-.33-.1-.59-.29-.8-.19-.2-.46-.31-.8-.31-.4 0-.69.13-.88.38-.19.25-.28.59-.27 1.01h-1.57c.02-.42.09-.83.22-1.21.14-.33.35-.64.65-.93.22-.2.48-.35.78-.46.3-.11.67-.16 1.11-.16.82 0 1.48.21 1.98.64.5.42.75.99.75 1.7 0 .5-.15.93-.45 1.27-.19.22-.39.36-.59.44.15 0 .37.13.66.39.43.4.64.94.64 1.63 0 .72-.25 1.36-.75 1.91-.5.55-1.24.82-2.23.82-1.21 0-2.05-.4-2.52-1.19-.25-.42-.39-.97-.41-1.65h1.65Z"/><path d="M43.32 105.21h.5" class="cls-8"/><path d="M44.81 105.21h76.57" class="cls-7"/><path d="M121.87 105.21h.5" class="cls-8"/><path d="M63.74 106.1c-.3 0-.58-.15-.74-.4a.898.898 0 0 1 .25-1.24l5.89-3.91a.881.881 0 0 1 1.23.25.9.9 0 0 1-.25 1.24l-5.89 3.91c-.15.1-.32.15-.49.15Z" class="cls-6"/><path d="M69.63 100.91c.13 0 .25.06.33.17.12.18.07.42-.11.54l-5.89 3.91a.44.44 0 0 1-.22.07c-.13 0-.25-.06-.33-.18a.388.388 0 0 1 .11-.54l5.89-3.91c.07-.04.14-.06.22-.06m0-1c-.27 0-.54.08-.77.23l-5.89 3.91c-.64.42-.81 1.29-.39 1.93.26.39.69.62 1.16.62.27 0 .54-.08.77-.23l5.9-3.91c.64-.42.81-1.29.39-1.93-.26-.39-.69-.62-1.16-.62Z"/><path d="M63.17 110.13c-.7 0-1.35-.35-1.74-.93l-1.62-2.45 3.99-2.64 1.62 2.45c.31.46.42 1.02.31 1.56-.11.55-.43 1.02-.89 1.32l-.51.34c-.34.23-.74.35-1.15.35Z" class="cls-6"/><path d="m63.65 104.8 1.35 2.03c.48.73.29 1.71-.44 2.19l-.52.34c-.27.18-.57.26-.87.26-.51 0-1.02-.25-1.32-.71l-1.35-2.03 3.15-2.09m.28-1.39-.83.55-3.15 2.09-.83.55.55.83 1.35 2.03c.48.72 1.28 1.15 2.15 1.15.51 0 1-.15 1.43-.43l.52-.34c.57-.38.97-.96 1.1-1.64s0-1.36-.38-1.94l-1.35-2.03-.55-.83Z"/><path d="M72.16 106.1c-.3 0-.58-.15-.74-.4a.9.9 0 0 1 .25-1.24l5.89-3.91a.881.881 0 0 1 1.23.25.9.9 0 0 1-.25 1.24l-5.89 3.91c-.15.1-.32.15-.49.15Z" class="cls-6"/><path d="M78.05 100.91c.13 0 .25.06.33.17.12.18.07.42-.11.54l-5.89 3.91a.44.44 0 0 1-.22.07c-.13 0-.25-.06-.33-.18a.388.388 0 0 1 .11-.54l5.89-3.91c.07-.04.14-.06.22-.06m0-1c-.27 0-.54.08-.77.23l-5.89 3.91c-.64.42-.81 1.29-.39 1.93.26.39.69.62 1.16.62.27 0 .54-.08.77-.23l5.9-3.91c.64-.43.81-1.29.39-1.93-.26-.39-.69-.62-1.16-.62Z"/><path d="M71.59 110.13c-.7 0-1.35-.35-1.74-.93l-1.62-2.45 3.99-2.65 1.62 2.45c.63.96.37 2.25-.58 2.89l-.52.34c-.34.23-.74.35-1.15.35Z" class="cls-6"/><path d="m72.08 104.8 1.35 2.03c.48.73.28 1.71-.44 2.19l-.52.34c-.27.18-.57.26-.87.26-.51 0-1.02-.25-1.32-.71l-1.35-2.03 3.15-2.09m.28-1.39-.83.55-3.15 2.09-.83.55.55.83 1.35 2.03c.48.72 1.28 1.15 2.15 1.15.51 0 1-.15 1.43-.43l.52-.34a2.58 2.58 0 0 0 .72-3.58l-1.35-2.03-.55-.83ZM48.35 107.83c.24-.57.81-1.18 1.7-1.81.78-.56 1.28-.95 1.51-1.19.35-.37.53-.78.53-1.23 0-.36-.1-.66-.3-.9-.2-.24-.49-.36-.86-.36-.51 0-.86.19-1.05.57-.11.22-.17.57-.19 1.05h-1.64c.03-.73.16-1.32.4-1.77.45-.85 1.25-1.28 2.39-1.28.91 0 1.63.25 2.16.75.54.5.8 1.17.8 1.99 0 .63-.19 1.2-.57 1.69-.25.33-.66.69-1.22 1.09l-.67.48c-.42.3-.71.51-.87.65s-.29.29-.39.47h3.74v1.48h-5.86c.02-.61.15-1.17.4-1.68Z"/><path d="M43.32 118.59h.5" class="cls-8"/><path d="M44.81 118.59h76.57" class="cls-7"/><path d="M121.87 118.59h.5" class="cls-8"/><path d="M63.74 119.48c-.3 0-.58-.15-.74-.4a.885.885 0 0 1 .25-1.23l5.89-3.91a.881.881 0 0 1 1.23.25c.27.41.16.96-.25 1.23l-5.89 3.91c-.15.1-.32.15-.49.15Z" class="cls-6"/><path d="M69.63 114.29c.13 0 .25.06.33.17.12.18.07.42-.11.54l-5.89 3.91a.44.44 0 0 1-.22.07c-.13 0-.25-.06-.33-.18a.388.388 0 0 1 .11-.54l5.89-3.91c.07-.04.14-.06.22-.06m0-1c-.27 0-.54.08-.77.23l-5.9 3.91c-.64.42-.81 1.29-.39 1.93.26.39.69.62 1.16.62.27 0 .54-.08.77-.23l5.89-3.91c.64-.42.81-1.29.39-1.93-.26-.39-.69-.62-1.16-.62Z"/><path d="M63.17 123.51c-.7 0-1.35-.35-1.74-.93l-1.62-2.45 3.99-2.65 1.62 2.45c.63.96.37 2.25-.58 2.89l-.51.34c-.34.23-.74.35-1.15.35Z" class="cls-6"/><path d="m63.65 118.18 1.35 2.03c.48.73.29 1.71-.44 2.19l-.52.34c-.27.18-.57.26-.87.26-.51 0-1.02-.25-1.32-.71l-1.35-2.03 3.15-2.09m.28-1.39-.83.55-3.15 2.09-.83.55.55.83 1.35 2.03c.48.72 1.28 1.15 2.15 1.15.51 0 1-.15 1.43-.43l.52-.34c.57-.38.97-.96 1.1-1.64.14-.68 0-1.36-.38-1.94l-1.35-2.03-.55-.83ZM49.01 116.96v-1.15c.53-.02.9-.06 1.12-.1.34-.07.61-.22.83-.45.15-.15.26-.36.33-.61.04-.15.07-.27.07-.34h1.41l-.02 8.57h-1.72l.01-5.91h-2.01Z"/></svg>