<svg xmlns="http://www.w3.org/2000/svg" id="Calque_1" data-name="Calque 1" viewBox="0 0 128 128"><defs><style>.cls-4{stroke:#000;stroke-miterlimit:10;stroke-width:2px;fill:none}</style></defs><path d="M68.72 90.54V11.87c0-4.04-3.27-7.31-7.31-7.31s-7.31 3.27-7.31 7.31v78.68c-5.97 2.77-10.12 8.8-10.12 15.81 0 9.63 7.81 17.43 17.43 17.43s17.44-7.81 17.44-17.43c0-7.01-4.15-13.05-10.12-15.81Z" style="stroke:#000;stroke-miterlimit:10;stroke-width:2px;fill:#fff"/><path d="M68.21 12.52h6.12M68.21 18.23h6.12M68.21 23.94h6.12M68.21 29.64h6.12M68.21 35.35h6.12M68.21 46.76h6.12M68.21 41.06h6.12M68.21 52.47h6.12M68.21 58.18h6.12M68.21 63.89h6.12M68.21 69.59h6.12M68.21 75.3h6.12M68.21 81.01h6.12M68.21 86.71h6.12" class="cls-4"/><path d="M57.77 12.89h7.28v34.68h-7.28z" style="fill:#d6d6d6;stroke:#000;stroke-miterlimit:10;stroke-width:2px"/><path d="M74 106.24c0 6.95-5.64 12.58-12.59 12.58s-12.58-5.63-12.58-12.58c0-5.68 3.77-10.5 8.94-12.06v-46.6h7.28v46.61c5.18 1.56 8.94 6.37 8.94 12.05Z" style="fill:#87ccf3;stroke:#000;stroke-miterlimit:10;stroke-width:2px"/><path d="M90.12 25.6c2.01-2.14 4.77-3.21 8.28-3.21 3.25 0 5.85.92 7.8 2.75 1.95 1.83 2.93 4.17 2.93 7.02 0 1.73-.35 3.12-1.06 4.2s-2.16 2.65-4.35 4.74c-1.6 1.51-2.63 2.79-3.12 3.85-.31.68-.53 1.58-.64 2.69s-1.04 1.96-2.16 1.96c-1.28 0-2.29-1.11-2.16-2.39.13-1.26.37-2.34.72-3.24.55-1.42 1.78-3.06 3.69-4.9l1.99-1.93c.6-.55 1.08-1.13 1.45-1.73.68-1.06 1.01-2.16 1.01-3.3 0-1.59-.49-2.98-1.46-4.15-.97-1.17-2.58-1.76-4.82-1.76-2.77 0-4.69 1.01-5.76 3.03-.41.77-.7 1.77-.87 3a2.166 2.166 0 0 1-2.15 1.86c-1.34 0-2.37-1.2-2.16-2.52.38-2.37 1.32-4.36 2.82-5.96Zm7.74 29.04c1.34 0 2.43 1.09 2.43 2.43v.22c0 1.34-1.09 2.43-2.43 2.43s-2.43-1.09-2.43-2.43v-.22c0-1.34 1.09-2.43 2.43-2.43Z" style="stroke:#000;stroke-miterlimit:10;stroke-width:2px"/><path d="M-50.41-78.92h1215v875.1h-1215z" style="stroke:#fff;stroke-linecap:round;stroke-linejoin:round;stroke-width:8px;fill:none"/></svg>