<svg xmlns="http://www.w3.org/2000/svg" id="Calque_1" viewBox="0 0 200 128"><defs><style>.cls-2,.cls-3,.cls-4{stroke-linecap:round;stroke-linejoin:round;stroke:#000}.cls-3{fill:#d6d6d6}.cls-2,.cls-3{stroke-width:2px}.cls-2{fill:#fff}.cls-4{fill:#bfe6fc}</style></defs><path d="M-1753.01-462.51H902.07v1511.77h-2655.08z" style="fill:none;stroke-linecap:round;stroke-linejoin:round;stroke:#e30613;stroke-width:8px"/><path d="M144.83 11.9H38.18c-1.48 0-2.69 1.21-2.69 2.69v71.08h112.03V14.59c0-1.48-1.21-2.69-2.69-2.69Z" class="cls-3"/><path d="M43.43 17.89h96.14v61.77H43.43z" class="cls-4"/><path d="M91.98 15.56c0 .26-.21.48-.48.48s-.48-.21-.48-.48.21-.48.48-.48.48.21.48.48Z"/><path d="M81.31 109.79h20.63v4H81.31z" style="fill:#d6d6d6"/><path d="M101.95 110.96v1.26c0 .87-.52 1.58-1.15 1.58H82.13c-.63 0-1.15-.71-1.15-1.58v-1.26h-66.2l1.97 5.88h149.66l1.81-5.88h-66.27Z" class="cls-3"/><path d="M14.78 111.21h153.44l-20.7-25.55H35.49l-20.71 25.55z" class="cls-3"/><path d="m88.16 92 6.44-.03 2.05 5.06h-10.3L88.16 92zM76.15 99.7l30.93-.03 2.05 5.06H74.35l1.8-5.03zM84.78 91.99h-.04l-1.81 5.03h-6.42l1.8-5.03 6.45-.02.02.02zM74.87 91.99h-.03l-1.81 5.03h-6.42l1.8-5.03 6.45-.02.01.02zM64.97 91.99h-.04l-1.8 5.03h-6.42l1.79-5.03 6.46-.02.01.02zM55.07 91.99h-.04l-1.81 5.03H46.8l1.8-5.03 6.46-.02.01.02zM45.22 91.99h-.04l-1.81 5.03-8.61.01 3.99-5.04 6.45-.02.02.02zM98.2 91.99h.04l1.81 5.03h6.42l-1.8-5.03-6.45-.02-.02.02zM108.11 91.99h.03l1.81 5.03h6.42l-1.8-5.03-6.45-.02-.01.02zM118.01 91.99h.04l1.8 5.03h6.42l-1.79-5.03-6.46-.02-.01.02zM127.91 91.99h.04l1.81 5.03h6.42l-1.8-5.03-6.46-.02-.01.02zM137.76 91.99h.04l1.81 5.03 8.61.01-3.99-5.04-6.45-.02-.02.02zM110.69 99.7h.03l1.81 5.03h6.42l-1.8-5.03-6.45-.02-.01.02zM120.59 99.7h.03l1.81 5.03h6.42l-1.79-5.03-6.46-.02-.01.02zM130.49 99.7h.04l1.8 5.03h6.43l-1.8-5.03-6.46-.02-.01.02zM140.34 99.7h.04l1.81 5.03h12.22l-3.99-5.03-10.06-.02-.02.02z" class="cls-4"/><path d="M142.19 104.73h12.22l-3.99-5.03-10.06-.02 1.83 5.05zM41.03 104.73H28.8l3.99-5.03 10.07-.03-1.83 5.06zM72.52 99.7h-.04l-1.8 5.03h-6.42l1.79-5.03 6.46-.02.01.02zM62.62 99.7h-.04l-1.81 5.03h-6.42l1.8-5.03 6.45-.02.02.02zM52.71 99.7h-.03l-1.81 5.03h-6.42l1.79-5.03 6.46-.02.01.02z" class="cls-4"/><circle cx="175.48" cy="47.56" r="18.76" style="fill:#fff;stroke-miterlimit:10;stroke:#000"/><path d="M167.63 40.19c.74-1.66 2.13-2.84 4.18-3.55 1.89-.66 3.6-.65 5.11.02 1.51.67 2.56 1.84 3.13 3.5.35 1.01.43 1.89.23 2.66-.19.77-.72 1.99-1.58 3.65-.62 1.21-.97 2.17-1.04 2.88-.04.46.01 1.03.18 1.7s-.21 1.35-.86 1.58c-.75.26-1.56-.18-1.75-.95-.18-.76-.26-1.44-.24-2.03.03-.94.42-2.14 1.16-3.61l.77-1.53c.24-.44.4-.88.5-1.31.18-.75.15-1.46-.08-2.13-.32-.93-.89-1.64-1.69-2.12-.8-.49-1.86-.5-3.17-.05-1.62.56-2.53 1.54-2.74 2.93-.08.53-.05 1.17.1 1.93.13.65-.25 1.3-.88 1.52-.78.27-1.63-.22-1.77-1.03-.26-1.46-.11-2.81.44-4.05Zm10.41 15.37c.78-.27 1.64.14 1.91.92l.04.13c.27.78-.14 1.64-.92 1.91s-1.64-.14-1.91-.92l-.04-.13c-.27-.78.14-1.64.92-1.91Z" style="stroke-miterlimit:10;stroke:#000"/><path d="M56.75 30.3h70.51v41.1H56.75z" class="cls-2"/><path d="m56.75 30.3 35.26 26.82 35.25-26.82" style="stroke-width:2px;stroke:#000;fill:none;stroke-linecap:round;stroke-linejoin:round"/><path d="m56.75 71.4 16.38-28.64M127.26 71.4l-15.68-28.39" class="cls-2"/><path d="M86.03 46.27c-.99-1.14-1.48-2.46-1.48-3.95 0-1.78.6-3.29 1.8-4.53 1.33-1.39 3.12-2.08 5.36-2.08 1.94 0 3.47.49 4.58 1.47 1.04.93 1.56 2.13 1.56 3.61 0 1.24-.37 2.31-1.12 3.19s-1.58 1.32-2.5 1.32c-.54 0-.94-.13-1.19-.39s-.38-.57-.38-.94c0-.06 0-.12.02-.19s.02-.13.04-.2c-.29.63-.65 1.07-1.1 1.33s-.9.39-1.37.39c-.67 0-1.21-.24-1.63-.73s-.63-1.11-.63-1.87c0-1.09.36-2.04 1.07-2.87s1.48-1.24 2.29-1.24c.56 0 1.02.16 1.38.48s.55.71.58 1.16l.41-1.37h1.2l-1.09 3.58c-.08.28-.14.5-.18.67s-.06.32-.06.45c0 .25.07.42.22.54s.32.17.51.17c.62 0 1.18-.32 1.67-.97s.74-1.5.74-2.54c0-1.27-.44-2.26-1.33-2.98-.88-.72-2.07-1.08-3.57-1.08-2.07 0-3.66.61-4.75 1.82-.94 1.03-1.41 2.33-1.41 3.89 0 1.36.45 2.51 1.34 3.44 1.05 1.1 2.54 1.64 4.47 1.64.91 0 1.75-.14 2.53-.43s1.49-.67 2.14-1.16l.54.74c-.49.44-1.22.85-2.2 1.23-.98.38-2.05.57-3.22.57-2.28 0-4.04-.71-5.27-2.14Zm6.56-6.43c-.23-.27-.54-.4-.94-.4-.62 0-1.16.37-1.62 1.1s-.68 1.46-.68 2.19c0 .53.12.94.35 1.22s.53.42.88.42c.74 0 1.31-.43 1.72-1.29.41-.86.62-1.63.62-2.33 0-.34-.11-.64-.34-.91Z"/></svg>