<svg xmlns="http://www.w3.org/2000/svg" id="Calque_1" data-name="Calque 1" viewBox="0 0 128 128"><defs><style>.cls-1{fill:#d6d6d6}.cls-1,.cls-4,.cls-5{stroke:#000}.cls-1,.cls-4,.cls-8{stroke-linecap:round;stroke-linejoin:round}.cls-11,.cls-4,.cls-8{fill:#fff}.cls-5{stroke-miterlimit:10}.cls-8{stroke:#ff6d75;stroke-width:2px}</style></defs><path d="M39.21 3.91 9.87 18.17c-2.97 1.44-4.22 5.04-2.77 8.01l36.05 74.17c1.44 2.97 5.04 4.21 8.01 2.76L80.5 88.85a5.993 5.993 0 0 0 2.77-8.01L47.22 6.68c-1.44-2.97-5.04-4.22-8.01-2.77Zm43.86 77.04c1.39 2.86.19 6.31-2.67 7.7l-29.34 14.26a5.771 5.771 0 0 1-7.7-2.66L7.31 26.08c-1.39-2.86-.2-6.32 2.66-7.71L39.31 4.11c2.86-1.39 6.32-.19 7.71 2.67l36.05 74.17Z" class="cls-5"/><path d="m47.02 6.78 36.05 74.17c1.39 2.86.19 6.31-2.67 7.7l-29.34 14.26a5.771 5.771 0 0 1-7.7-2.66L7.31 26.08c-1.39-2.86-.2-6.32 2.66-7.71L39.31 4.11c2.86-1.39 6.32-.19 7.71 2.67Z" class="cls-5"/><path d="m46.03 8.02 35.45 72.95c1.23 2.53.18 5.57-2.35 6.8l-27.98 13.6a5.09 5.09 0 0 1-6.8-2.35L8.89 26.07a5.091 5.091 0 0 1 2.35-6.8l.81-.39c2.52-1.22 5.06-2.4 7.55-3.67.01.01 0 .06.02.08.64-.44 1.85-.66 2.59-.41 1.17.41 2.62 1.04 3.89.58 1.32-.48 1.83-1.99 2.25-3.2.48-1.36 1.64-2.1 2.89-2.7l7.97-3.88a5.083 5.083 0 0 1 6.8 2.35Z" style="fill:#bfe6fc"/><circle cx="25.48" cy="13.58" r=".9" style="stroke-width:.5px;stroke:#fff;fill:#cfb999;stroke-miterlimit:10"/><path d="m56.39 25.83-5.13-10.55a.8.8 0 0 1 1.07.37l4.42 9.1a.8.8 0 0 1-.37 1.07ZM60.8 34.92l-2.56-5.26a.8.8 0 0 1 1.07.37l1.86 3.82a.8.8 0 0 1-.37 1.07Z" class="cls-5"/><path d="M37.71 8h2.59v2.13h-2.59z" style="fill:#87f3b9" transform="rotate(-25.92 39 9.067)"/><path d="m39.702 7.542 1.16-.563.93 1.915-1.16.564z" class="cls-11"/><path d="m41.128 7.518.495-.24.41.845-.494.24zM10.207 22.604l.638-.31.534 1.097-.639.31zM11.03 21.733l.64-.31.72 1.483-.638.31zM11.817 20.781l.639-.31.944 1.942-.639.31z"/><path d="M37.64 7.72h3.89v2.13h-3.89z" style="fill:none;stroke-width:.5px;stroke-miterlimit:10;stroke:#000" transform="rotate(-25.92 39.59 8.79)"/><circle cx="49.01" cy="85.07" r="7.82" style="fill:#ff6d75;stroke-linecap:round;stroke-linejoin:round;stroke:#000" transform="rotate(-62.82 49.016 85.08)"/><path d="M44.99 86.64c.09-.17.17-.34.26-.51 1.22-2.18 3.07-3.38 5.59-3.47.79-.03 1.57.1 2.32.36.17.06.29.17.36.34.13.34.26.67.4 1.01.12.31.03.53-.28.67l-2.1.9c-.3.13-.52.04-.66-.25-.19-.41-.39-.82-.58-1.23-.03-.06-.06-.08-.12-.09-.55-.05-1.06.1-1.54.37-.36.2-.66.46-.89.8-.04.06-.05.11-.01.18.21.4.41.8.61 1.21.15.29.07.52-.21.67-.67.37-1.34.73-2.01 1.1-.29.16-.51.09-.68-.19l-.51-.87c-.08-.13-.14-.25-.14-.4l.2-.59Z" class="cls-4"/><circle cx="67.22" cy="76.23" r="7.82" style="fill:#87f3b9;stroke-linecap:round;stroke-linejoin:round;stroke:#000" transform="rotate(-62.82 67.227 76.226)"/><path id="JKa6IG.tif" d="M70.83 78.4c-.18.06-.36.12-.55.18-2.41.68-4.56.22-6.4-1.5a6.383 6.383 0 0 1-1.39-1.9c-.08-.17-.09-.32 0-.49.15-.33.29-.66.43-.99.13-.31.36-.4.67-.27.71.28 1.41.57 2.12.85.3.12.4.34.29.64-.15.43-.31.86-.46 1.28-.02.06-.02.1.02.15.36.42.82.68 1.35.83.39.11.79.14 1.19.06.07-.01.11-.04.14-.12.14-.43.28-.86.42-1.28.1-.31.31-.42.63-.33.73.21 1.47.43 2.2.65.31.09.43.3.34.62-.09.33-.17.65-.25.98-.04.14-.08.28-.18.38l-.56.27Z" class="cls-4"/><path d="M32.7 27.06c-8.45 4.11-11.97 14.29-7.86 22.74 1.8 3.71 4.78 6.47 8.26 8.05-2.58-6.36.17-13.71 6.43-16.75 6.26-3.04 13.74-.67 17.15 5.29.91-3.71.58-7.76-1.23-11.47-4.11-8.45-14.29-11.98-22.74-7.87Zm6.17 12.69a5.328 5.328 0 0 1-7.12-2.46c-1.29-2.65-.19-5.84 2.46-7.12s5.84-.19 7.13 2.47c1.29 2.65.18 5.83-2.47 7.12Z" style="fill:#87ccf3"/><path d="M56.67 46.4c-1.17 4.75-4.35 8.97-9.1 11.27-4.74 2.3-10.02 2.2-14.48.19-2.58-6.36.17-13.71 6.43-16.75 6.26-3.04 13.74-.67 17.15 5.29ZM41.33 32.63c1.29 2.65.18 5.83-2.47 7.12a5.328 5.328 0 0 1-7.12-2.46c-1.29-2.65-.19-5.84 2.46-7.12s5.84-.19 7.13 2.47ZM39.906 66.3l19.715-9.581 1.447 2.977-19.715 9.581z" class="cls-11"/><path d="M106.87 101.98c-.43-.28-1.42-1.27-2.63-2.53-.36-.38-.75-.78-1.14-1.2s-.8-.85-1.2-1.28c-1.22-1.29-2.45-2.6-3.44-3.62h0c-.77-.79-1.41-1.4-1.78-1.69-.38-.3-.96-.67-1.62-1.08-.31-.19-.63-.38-.97-.58-.49-.29-1-.58-1.51-.86-1.72-.96-3.36-1.82-3.75-2.02-.76-.38-2.14-1.05-3.04-.47-.9.58-.95 1.51-.95 1.51s-.63-.42-1.14-.73c-.17-.1-.11.03-.23-.03-1.15-.6-2.08-.6-2.92.03-.04.03-.09.06-.13.1a2.638 2.638 0 0 0-.75 1.09c-.12.33-.14.57-.14.57s-.41-.24-1-.43h0s0 0 0 0c-.9-.28-2.23-.43-3.2.62-1.72 1.86-.09 3.81.3 4.29.86 1.07 2.48 3.14 2.48 3.14s-.63.31-1.16.47c-.23.06-.48.1-.73.11-.51 0-.88-.15-.88-.15s.04.02.09.05c-1.52-.36-5.66-1.86-7.94-2.93-2.53-1.17-9.07-4.06-11.17-4.93-2.1-.88-4.31-1.46-5.16.49-.92 2.1 1.35 3.17 2.44 3.93 1.1.76 7.34 3.78 9.77 5.06 1.91 1.01 9.33 5.16 12.34 6.88 1.96 1.12 5.02 3.49 5.02 3.49s-.57-.18-1.46-.43c-.01 0-.03 0-.04-.01h-.04c-1.76-.48-4.71-1.21-7.17-1.39h-.03s0 0 0 0c-.65-.05-1.27-.06-1.82-.01-3.76.3-5.48 4.23-4.89 5.26.47.82 2.2.19 3.97 0 .26-.03.51-.05.77-.05h.04c.25 0 .5 0 .74.04 1.22.16 7.15 1.95 11.6 4.2.27.14 1.85.57 3.76 1.04.29.07.6.15.9.22.46.11.93.22 1.4.33.16.04.31.07.47.11.31.07.62.14.92.2 1.65.35 3.11.62 3.79.64 1.44.04 4.7.27 6.81.32 1.12.03 3.42 1.6 5.33 3.07.56.43 1.09.86 1.54 1.23.36.3.68.56.93.77l.59.51 2.56-3.24 4.59-5.85 4.61-6.45s-12.36-6.94-13.74-7.84ZM79.51 89.21l4.13 3.22M84.83 88.18l3.75 2.38" class="cls-4"/><path d="m45.3 109.77.24 1.74c-4.59.77-8.77-2.58-9.21-6.98l1.74-.24c.85 3.9 3.26 5.71 7.23 5.47Z" class="cls-1"/><path d="M44.78 106.12c.09.63.17 1.21.25 1.79-2.77.49-4.8-1.01-5.09-3.86.58-.08 1.16-.16 1.79-.24.19 1.83 1.22 2.62 3.06 2.32Z" class="cls-1"/><path d="M97.18 7.73C86.5 6.12 76.54 13.48 74.94 24.16c-.68 4.53.25 8.92 2.37 12.61h0l-2.05 6.48 6.07-1.54h0c2.73 2.42 6.16 4.1 10.04 4.69 10.68 1.61 20.64-5.75 22.24-16.43 1.61-10.68-5.75-20.64-16.43-22.24Z" class="cls-4"/><path d="m101.57 29.66.49-5.29c.31-3.32-1.7-6.32-4.69-7.4a1.823 1.823 0 0 0-3.63-.34c-3.14.52-5.66 3.1-5.97 6.42l-.49 5.29s-3.56 1.53-2.94 6.26l6.6.61c-.15 1.59 1.02 3 2.62 3.15s3-1.03 3.15-2.62l6.6.61c1.47-4.54-1.74-6.7-1.74-6.7Z" style="fill:#f3d587;stroke-miterlimit:10;stroke:#000"/><path d="m21.32 88.77 10.11 10.11M21.32 98.89l10.11-10.12" class="cls-8"/><path d="M-541.54-359.81H905.53v727.52H-541.54z" style="fill:none;stroke-width:8px;stroke:#fff;stroke-linecap:round;stroke-linejoin:round"/></svg>