<svg xmlns="http://www.w3.org/2000/svg" id="Calque_1" data-name="Calque 1" viewBox="0 0 128 128"><defs><style>.cls-1,.cls-2{fill:#76ac75;stroke:#000;stroke-linecap:round;stroke-linejoin:round;stroke-width:2px}.cls-2{fill:#8987f3}</style></defs><path d="M76.39 27.88c-1.07-.27-2.29-.49-3.29-.64.65 4.4.72 9.69.67 13.32-.15-.06-.3-.11-.46-.15-1.03-.3-2.06-.41-3.07-.34-.12-3.59-.32-8.82-.72-11.66-.64-4.63-4.89-13.84-4.89-13.84l4.79-1.42s1.06 3.39 3.01 10.78l.12.48c1.29.34 3.08.84 4.62 1.42 1.49.56 3.03 1.35 4.13 1.95-.03.57-.02.93-.02.93s-.4.35-.98.91c-1.21-.67-2.76-1.44-3.92-1.74Z" class="cls-1"/><path d="M105.87 40.66s-3.19.54-5.2 1.51-4.09 1.78-5.52 1c-1.38-.77-4.02-4.01-4.19-4.21.06.23.7 2.73.81 3.93.1 1.25-.19 2.49.08 3.08.28.59.43.88.43.88s-4.41-.27-6.93-2.68c-2.53-2.41-2.63-3.45-2.63-3.45s-.4.56-.39.97c.02.41.27 1.27.27 1.27s-2.34-1.03-3.5-2.52c-1.17-1.5-3.11-4.11-2.06-6.55.68-1.57 2.23-3.25 3.27-4.26.57-.56.98-.91.98-.91s0-.36.02-.93c.11-2.34.94-8.33 6.34-8.4 6.71-.09 7.27 1.22 7.27 1.22s-1.43.3-1.82.46c-.38.16-.81.65-.81.65s3.95-.24 6 1.46c2.05 1.68 1.87 2.23 3.35 3.39.24.18.45.4.45.4s-.83.41-1.56 1.18c-.73.76-1.28 1.46-2.74 1.71-1.47.25-2.74.76-2.74.76s4.63.06 6.15.92c1.52.85 1.58 4.24 2.77 6.07 1.2 1.85 1.89 3.07 1.89 3.07Z" class="cls-1"/><path d="M67.79 59.53a8.58 8.58 0 0 0-1.54 2.99 8.537 8.537 0 0 0-.31 3.35h0c-.42.54-.88 1-1.39 1.42-1.99 1.6-4.62 2.33-7.26 1.82h0-.05a8.852 8.852 0 0 1-6.75-5.95c-.07-.22-.14-.45-.2-.67-.35-1.47-.34-3.06.11-4.61a8.947 8.947 0 0 1 2.39-3.94c2.23-2.12 5.48-3.03 8.65-2.1.38.11.76.25 1.12.41.33.15.66.32.97.5a8.942 8.942 0 0 1 3.69 4.35c.31.78.51 1.59.6 2.44h0Z" class="cls-2"/><path d="M83.34 67.52a8.919 8.919 0 0 1-2.93 4.41 8.879 8.879 0 0 1-8.1 1.63c-.31-.09-.6-.2-.89-.31-.03 0-.05-.02-.07-.03h0a8.89 8.89 0 0 1-4.98-5.39c-.21-.63-.35-1.28-.42-1.96h0c-.12-1.11-.02-2.23.31-3.36.33-1.12.85-2.13 1.54-2.99h0c.52-.68 1.14-1.27 1.83-1.76h0a8.916 8.916 0 0 1 6.36-1.58c.07.01.13.02.19.03a8.891 8.891 0 0 1 7.24 6.56c.29 1.11.37 2.27.21 3.46-.06.43-.16.86-.28 1.28Z" class="cls-2"/><path d="M98.01 71.82c-1.38 4.72-6.33 7.42-11.04 6.04a8.867 8.867 0 0 1-5.91-5.63c-.08-.22-.15-.45-.21-.68a8.919 8.919 0 0 0 2.49-4.03c.12-.42.22-.85.28-1.28.16-1.18.08-2.35-.21-3.46 2.23-2.06 5.44-2.93 8.56-2.01a8.907 8.907 0 0 1 6.04 11.05ZM50.37 57.86a8.925 8.925 0 0 0-.11 4.61 8.859 8.859 0 0 1-8.65 2.1c-4.72-1.38-7.42-6.32-6.04-11.04a8.906 8.906 0 0 1 11.05-6.05l.09.03c3.12.95 5.35 3.45 6.06 6.41-.74.71-1.38 1.57-1.84 2.52-.23.45-.41.92-.55 1.42Z" class="cls-2"/><path d="M62.54 52.23c-.36-.16-.74-.3-1.12-.41-3.17-.93-6.42-.02-8.65 2.1a8.868 8.868 0 0 0-6.06-6.41c.05-.4.14-.8.26-1.21 1.38-4.72 6.33-7.42 11.05-6.04 2.26.66 4.08 2.15 5.18 4.06-.4.64-.71 1.36-.93 2.11a8.93 8.93 0 0 0 .27 5.79ZM93.55 59.94c-.12.42-.28.84-.45 1.23a8.93 8.93 0 0 0-9.68 1.6c-.77-2.93-3-5.4-6.11-6.31-.37-.11-.75-.19-1.13-.25.02-.07.03-.14.04-.21a8.78 8.78 0 0 0 3.14-4.57c.1-.35.19-.72.24-1.08a8.906 8.906 0 0 1 13.95 9.58Z" class="cls-2"/><path d="M79.36 51.44a8.78 8.78 0 0 1-3.14 4.57c-.07.06-.15.12-.23.17-2.3-.31-4.57.3-6.36 1.59h0a8.37 8.37 0 0 1-1.3-.28c-.38-.11-.76-.25-1.12-.41a8.89 8.89 0 0 0-3.69-4.35c-.31-.18-.64-.35-.97-.5-.71-1.78-.86-3.8-.27-5.79.22-.76.53-1.47.93-2.11a8.89 8.89 0 0 1 7.05-4.26c1.01-.07 2.04.04 3.07.34.15.04.31.09.46.15a8.887 8.887 0 0 1 5.83 9.81c-.05.36-.14.72-.24 1.08ZM71.42 78.52a8.776 8.776 0 0 1-2.89 4.38c-.06.06-.12.1-.19.14a8.835 8.835 0 0 1-6.89 1.78c-.36-.05-.72-.14-1.08-.24-.08-.02-.16-.05-.24-.08a8.863 8.863 0 0 1-5.69-5.58c0-.04-.03-.09-.04-.14h0c-.54-1.66-.6-3.47-.08-5.25s1.55-3.28 2.9-4.37c.02-.02.03-.02.03-.04h0c2.64.52 5.27-.21 7.26-1.82.29.04.57.12.85.2.34.1.66.21.96.34a8.915 8.915 0 0 0 4.98 5.39h0s.02.05.02.07c.54 1.65.59 3.46.07 5.24ZM58.41 93.25c-.07.08-.14.17-.22.25-.03-.11-.05-.23-.07-.34l.29.09ZM63.92 104.13a8.902 8.902 0 0 1-11.04 6.04c-4.72-1.38-7.43-6.33-6.05-11.05a8.972 8.972 0 0 1 1.85-3.38c.18.06.35.12.53.18 3.32.97 6.74-.08 8.97-2.43.59 3.09 2.81 5.77 5.99 6.8.2 1.25.12 2.55-.26 3.83Z" class="cls-2"/><path d="M85.56 82.66c-1.3 4.44-5.76 7.11-10.22 6.24-.92-2.62-3.04-4.78-5.9-5.61-.28-.08-.56-.15-.84-.19-.02-.06-.05-.13-.07-.2 1.34-1.09 2.36-2.59 2.89-4.38a8.82 8.82 0 0 0-.07-5.24c.02-.02.03-.02.05-.04.29.12.58.22.89.31 2.91.85 5.92.15 8.1-1.63.22.09.43.19.65.3a8.903 8.903 0 0 0 4.37 5.02c.59 1.69.67 3.57.13 5.42ZM54.33 73.52c-.52 1.79-.46 3.6.08 5.24h0s-.08.07-.12.09l-.07-.02a8.882 8.882 0 0 0-8.05 1.58C41.5 79 38.83 74.07 40.2 69.38a8.93 8.93 0 0 1 3.03-4.49c2.34.24 4.62-.47 6.39-1.87.27.03.55.07.83.13.88 2.69 3.03 4.9 5.95 5.76.27.08.53.14.8.19 0 .01.01.03.02.05a8.92 8.92 0 0 0-2.9 4.37Z" class="cls-2"/><path d="M58.12 93.16c.02.11.04.23.07.34-2.23 2.35-5.65 3.4-8.97 2.43-.18-.05-.35-.11-.53-.18-4.39-1.59-6.84-6.34-5.52-10.87a8.815 8.815 0 0 1 3.01-4.46 8.853 8.853 0 0 1 8.05-1.58l.07.02c.06.02.11.03.16.06.88 2.57 2.93 4.7 5.69 5.58.14.4.25.81.33 1.23-.94.98-1.67 2.21-2.08 3.61a8.901 8.901 0 0 0-.26 3.82Z" class="cls-2"/><path d="M58.41 93.25c-.07.08-.14.17-.22.25-.03-.11-.05-.23-.07-.34l.29.09Z" class="cls-2"/><path d="M75.48 94.34c-1.38 4.71-6.33 7.42-11.04 6.04-.09-.03-.17-.05-.26-.09a8.883 8.883 0 0 1-5.99-6.8c.08-.08.15-.16.22-.25-.09-.04-.19-.07-.29-.09a9.06 9.06 0 0 1 .26-3.82c.41-1.4 1.13-2.63 2.08-3.61.3-.33.63-.64.99-.91 2.51.41 4.99-.29 6.89-1.78.09.02.17.03.26.05.28.04.56.11.84.19 2.86.84 4.98 2.99 5.9 5.61.59 1.69.68 3.59.14 5.44Z" class="cls-2"/><path d="M58.41 93.25c-.07.08-.14.17-.22.25-.03-.11-.05-.23-.07-.34l.29.09Z" class="cls-2"/></svg>