<svg xmlns="http://www.w3.org/2000/svg" id="Calque_1" viewBox="0 0 128 128"><defs><style>.cls-1{stroke-linecap:round;stroke-linejoin:round}.cls-1,.cls-2{stroke:#000}.cls-1{fill:none}.cls-5{fill:#002395}.cls-6{fill:#ed2939}.cls-2,.cls-7{fill:#fff}.cls-2{stroke-miterlimit:10}</style></defs><path d="M97.97 68.83c1.95 2.57 3.69 4.53 3.9 4.77v26.28H27.56c-.73 0-1.33-.33-1.33-.74V73.67s1.7-2.1 3.79-4.84c2.09-2.74.65-6.92-1.3-7.57-1.47-.49-1.62 1.16-2.49 2.73V43.53c0-.41.6-.74 1.33-.74h74.32v21.4c-.97-1.62-1.06-3.44-2.6-2.93-1.96.65-3.39 4.83-1.31 7.57Z" style="fill:#d6d6d6;stroke-miterlimit:10;stroke:#000"/><path d="M48.49 62.68H31.86c-.13 0-.23-.24-.23-.55 0-.3.1-.55.23-.55h16.63c.13 0 .23.24.23.55 0 .3-.1.55-.23.55ZM48.49 72.22H31.86c-.13 0-.23-.24-.23-.55 0-.3.1-.55.23-.55h16.63c.13 0 .23.24.23.55 0 .3-.1.55-.23.55ZM48.49 76.99H31.86c-.13 0-.23-.24-.23-.55 0-.3.1-.55.23-.55h16.63c.13 0 .23.24.23.55 0 .3-.1.55-.23.55ZM48.49 67.45H31.86c-.13 0-.23-.24-.23-.55 0-.3.1-.55.23-.55h16.63c.13 0 .23.24.23.55 0 .3-.1.55-.23.55ZM48.49 81.67H31.86c-.13 0-.23-.24-.23-.55 0-.3.1-.55.23-.55h16.63c.13 0 .23.24.23.55 0 .3-.1.55-.23.55ZM48.49 86.44H31.86c-.13 0-.23-.24-.23-.55 0-.3.1-.55.23-.55h16.63c.13 0 .23.24.23.55 0 .3-.1.55-.23.55ZM48.49 91.2H31.86c-.13 0-.23-.24-.23-.55 0-.3.1-.55.23-.55h16.63c.13 0 .23.24.23.55 0 .3-.1.55-.23.55Z"/><path d="M124.53 116.25h-24.28c-1.24-3.88-2.98-8.29-5.12-11.19-1.23-1.38-3.01-3.39-4.63-5.17h11.38V85.07h.02V73.63l-.02-.02c-.21-.24-1.95-2.2-3.9-4.77-2.09-2.74-.65-6.92 1.31-7.57 1.53-.51 1.63 1.3 2.6 2.93.27.45.6.88 1.06 1.25 2.09 1.7 4.7 2.87 5.48 4.96.78 2.09 3.26 5.61 4.37 7.48 1.11 1.87 1.37 13.54 1.37 13.54h-.05l.6 2.34c.18.64 5.91 13.63 9.83 22.49ZM37.51 99.88c-1.62 1.78-3.41 3.79-4.63 5.17-2.15 2.89-3.88 7.31-5.12 11.19H3.47c3.92-8.86 9.65-21.85 9.83-22.49s.6-2.35.6-2.35h-.05s.27-11.66 1.37-13.53c1.11-1.87 3.59-5.39 4.37-7.48.78-2.09 3.39-3.26 5.48-4.96.52-.42.88-.93 1.17-1.45.87-1.57 1.01-3.22 2.49-2.73 1.96.65 3.39 4.83 1.3 7.57s-3.78 4.84-3.78 4.84v11.35h-.01v14.12c0 .41.6.74 1.33.74h9.94ZM26.24 85.03v4.96-4.96z" class="cls-2"/><path d="m92.88 64.64-.36 1.25.05 1.03.62.38.33.71-1.16.36-.65-.08-.21-.46-.83.05-.46.57.75.38.13.68-.64.28-.71.91-.54.21-.94 1.48-.15 1.09.01.7-.42-.03-.41.2.07.58.77.08.89-.37-.34-.88.49-.44 1.07.05.36.68.26.88.42.33.1.6-.05-.02-.31.37.1.88.67.62-.2 1.2-.84.1-.51.57.88.94.16 1.87 1.14.77h1.08l-.46 1.1.25.77-.13.01-2.26 1.69-.63.79.14.35-.68.58-1.61-.09-.59-.51-2.17-1.36-.53.06-.54.43h-.59l-.88-.52-.48-.06V57.22l.23-.15h.44l.31.36.46.11.83 1.04.73.05.64.46.32-.2h.57l.42.67.9.18.52-.13.67.52v.44l.62.52.6-.21h.63l.46.18.64-.2.86.39h.67l.7.46-.8.83-.39 1.09v.54l-.49.47z" class="cls-6"/><path d="M82.34 57.22V86.4l-.33-.05-.41-.29-.41.02-1.25 1.33-.82.73-.08.61-.27 1.22.27 1.03.03.35-.44-.15-1.2-.72-1.67.15-1.04-.57-.99.1-.62-.33-1.64.05-.62.65-.49-.26-.98.02-.81-.83-.72.34-.12-.13V60.3l.59.07 1.04-.21.84-.6-.63-.22-.24-.43.33-.62 1.35-.75.66.22.6-.02 1.14-.33v-.43l1.03-1.01.22-1.33-.16-.84.24-.71 1.03-.6.31.24 1.27-.43.11-.2.42.31.15 1.24.83.31.13.6 1.01.83.44-.03.44.37.49.22.05.99.76.39.16-.11z" class="cls-7"/><path d="M67.73 60.3v29.37l-.56-.6-1.43-.57-1.05.13.1-.57-.13-.75-.44-.07-.08-.19-.61-.34.83-.5.64-2.11.19-2.46.47-.34-.57-.39-.03-1.3.35-1.8.35-.24.74.38.24.86.93.9-.84-2.03-1.09-.85-.6-.13.16-.63.17-.08.27-.71-.33-.51.03-.63-.84-.49-.87-.14-.9-1.11-.6-.08-.14-.47.33-.59-.13-.71-.39-.16.41-.57.66-.03.56.32-.46-.62-.73-.08-.68.43-.44-.02-.32-.52.27-.71-.35-.35-.6.35-.2-.24.14-.41-.36-.09-.56.53-.79-.53h-.46l-.25-.4-1.14-.46-.44.08-.51-.14-.74.49.08-.43-.27-.76h-.62l-.03-.2.65-.24.41-.17-.11-.46-.43-.16-.22.52-.24-.68.4-.05.68.13-.16-.25-.63-.19-.63.22-.27-.46.49-.57 1.1-.08.46-.46.73-.09.35.24.41-.37.36.19.67-.63.85-.19.57.19 1.01 1.34.79-.66.24.25.63-.17.52.14.54-.19 1.25.16-.08-.62-.39-.49.14-.55-.16-.54.22-.35-1.2-1.12.14-.35-.25-.82.38.16.85.03.59-.22.57.27-.21.58.45.35.22.49.53-.3.62.33.82.11z" class="cls-5"/><path d="M34.68 50.04c-.17 0-.4 0-.64.04-1.33.22-2.04 1.2-2.18 2.23h.03c.3-.4.82-.72 1.52-.72 1.11 0 1.89.8 1.89 2.03 0 1.15-.78 2.21-2.09 2.21s-2.22-1.04-2.22-2.68c0-1.24.44-2.21 1.06-2.83.52-.51 1.22-.83 2.01-.93.25-.04.46-.05.62-.05v.7Zm-.24 3.62c0-.9-.51-1.44-1.29-1.44-.51 0-.99.32-1.22.77-.06.1-.1.22-.1.38.02 1.03.49 1.8 1.38 1.8.73 0 1.23-.61 1.23-1.51ZM43.88 52.86c-.05-.91-.11-2-.1-2.81h-.03c-.22.76-.49 1.57-.82 2.47l-1.15 3.16h-.64l-1.05-3.1c-.31-.92-.57-1.76-.75-2.53h-.02c-.02.81-.07 1.9-.13 2.88l-.17 2.79h-.8l.45-6.51h1.07l1.11 3.15c.27.8.49 1.52.66 2.19h.03c.16-.66.4-1.37.69-2.19l1.16-3.15h1.07l.41 6.51h-.82l-.16-2.86ZM51.73 52.4c0 2.24-1.36 3.43-3.02 3.43s-2.93-1.33-2.93-3.3c0-2.07 1.28-3.42 3.02-3.42s2.93 1.36 2.93 3.29Zm-5.05.11c0 1.39.75 2.64 2.08 2.64s2.09-1.23 2.09-2.7c0-1.29-.68-2.65-2.08-2.65s-2.09 1.28-2.09 2.71ZM53.66 49.21v6.51h-.84v-6.51h.84ZM55.01 54.7c.38.23.93.43 1.51.43.86 0 1.36-.45 1.36-1.11 0-.61-.35-.96-1.23-1.29-1.06-.38-1.72-.93-1.72-1.84 0-1.01.84-1.77 2.11-1.77.67 0 1.15.15 1.44.32l-.23.69a2.55 2.55 0 0 0-1.24-.31c-.89 0-1.23.53-1.23.98 0 .61.4.91 1.29 1.26 1.1.42 1.66.96 1.66 1.91 0 1-.74 1.87-2.28 1.87-.63 0-1.31-.18-1.66-.42l.21-.71Z"/><rect width="17.02" height="17.02" x="55.56" y="19.78" rx="2.71" ry="2.71" style="fill:#87f3b9"/><path d="M72.58 26.95v7.47c0 1.31-1.08 2.39-2.39 2.39H57.95c-1.31 0-2.39-1.08-2.39-2.39V22.18c0-1.31 1.08-2.39 2.39-2.39h12.24" class="cls-1"/><path d="m57.91 24.81 6.16 8.83 10.39-13.86" class="cls-1"/><path d="M97.12 43.3h4.24v4.99h-4.24z" class="cls-6"/><path d="M92.88 43.3h4.24v4.99h-4.24z" class="cls-7"/><path d="M88.64 43.3h4.24v4.99h-4.24z" class="cls-5"/><path d="M101.37 48.3H88.64v-5" style="stroke-miterlimit:10;fill:none;stroke:#000"/></svg>