<svg xmlns="http://www.w3.org/2000/svg" id="Calque_1" data-name="Calque 1" viewBox="0 0 128 128.13"><defs><style>.cls-1{stroke:#000;fill:none;stroke-linecap:round;stroke-linejoin:round}</style></defs><path d="M100.16 109.11c4.04-.42 1.15-4.81-4.93-8.63-6.08-3.82-7.61-9.15-12.26-23.42-4.65-14.27-8.5-16.24-8.5-16.24-7.82-5-15.08-9.23-4.45-12.18 10.63-2.95 4.45-16.26 4.45-16.26s2.03-4-.52-4.18-3.11-2.86-3.11-2.86S76.87 8.38 56.41 3.38C35.96-1.61 26.23 14.99 24.73 25.6c-1.5 10.6 4.11 21.28 21.03 24.62 0 0 2.2.89.74 4.71-1.46 3.82-11.49 2.24-16.88 15.06 0 0-9.49 27.95 3.65 38.53 0 0 10.24 4.62 14.34 8.77 4.11 4.14 10.44 9.15 9.27 5.9S54 118.91 54 118.91" class="cls-1"/><path d="M64.13 116.25s-.03-.03-.04-.03M42.36 71.74s1 18.54.07 26.51c0 0 1.42-.37 6.99 4.83.17.16.34.33.51.5M57.63 118.89s2.98 1.97 3.92 3.53h.01M61.84 123.39c-.27 1.5-6.02-2.72-6.35-2.96h-.01M61.56 122.43h-.01M53.45 107.45h-.02M49.93 103.58h-.04" class="cls-1"/><path d="M61.84 123.39c.06-.28-.06-.61-.27-.95.27.2 4.02 2.79 3.4-1.21.56.41 1.11.48 1.88 0 2.32-1.51-2.25-4.66-2.72-4.97 2.99 1.44 5.53-2.25-1.28-1.84-3.76.23-6.21-3.12-9.4-6.96M71.37 65.4s7.9 22.67 6.64 35.38h0c-4.41 3.88-26.97 2.86-28.08 2.8 1.31 1.27 2.46 2.61 3.52 3.87" class="cls-1"/><path d="m77.87 90.91 6.44 9.72s-1.17 12.18 1.41 9.01 1.6-7.85 5.07-3.96c3.46 3.89 2.82 6.45 4.18 3.92s-1.29-5.78-1.29-5.78" class="cls-1"/><path d="M95.19 106.72s6.44 7.07 3.57.58l-2.26-3.48M46.51 35.73s-5.72 1.91-2.43 6.62c3.29 4.71 6.21.56 6.21.56" class="cls-1"/><circle cx="66.64" cy="28.25" r="1.33"/><path d="M66.64 22.06s-.37 3.43-3.95 3.22M50.29 74.55h1.73M66.66 73.11l1.69-.4M46.67 40.16l1.14-.53" class="cls-1"/><path d="M67.06 41.57z" style="fill:#fab0b4"/><path d="M69.94 41.65s4.02.38 4.14-1.98c0 0-.13-.72-.79-1.32-.48-.43-1.22-.79-2.43-.76-1.47.03-2.5.85-2.88 1.73-.02.01 0 .03 0 .03-.47 1.09.06 2.29 1.96 2.29Z" style="fill:#fff;stroke-miterlimit:10;stroke:#000"/><path d="M67.97 9.65S62.91 21.2 52.02 22.07c0 0 2.22 6.68-5.88 8.86" class="cls-1"/><path d="M81.22 64.58c-.5 0-.82-.49-.93-.97l-.21-.96c-.12-.52-.23-1.04-.33-1.57-.35-1.85-.86-3.76-1.61-6.03-.22-.67-.45-1.35-.7-2.02 0 .22-.03.44-.09.67-.06.24-.27.5-.6.5-.04 0-.1 0-.13-.02-.36-.09-.61-.37-.7-.77-.05-.21-.14-.42-.24-.65-.08-.18-.16-.35-.22-.53-.31-.89-.63-1.81-1-2.71-.57-1.39-1.27-2.82-2.26-4.64-.24-.44-.46-.88-.67-1.33-.21-.3-.46-.7-.68-1.13-.23-.45-.47-1.05-.38-1.72.06-.45.49-.96 1.02-.97.78 0 1.46.56 1.96.97l.09.08c.58.47 1.08.97 1.5 1.5.57.73 1.06 1.5 1.47 2.27.1-.26.27-.48.55-.62.07-.04.22-.07.3-.07.5 0 1.09.59 1.2.71.45.48.87 1.01 1.17 1.51.64 1.06 1.37 2.27 1.81 3.6l.05.14c.23.7.55 1.66.05 2.45-.12.19-.31.3-.52.3-.05 0-.12-.01-.17-.03.67 1.99 1.19 3.81 1.5 5.72.02.13.05.29.09.45.17.8.37 1.8-.08 2.54-.14.22-.35.35-.58.35.06.44.1.8.1 1.17 0 .06.02.15.03.24.07.39.17.99-.23 1.34a.83.83 0 0 1-.54.22Z" style="fill:#fce9b9"/><path d="M71.51 40.23c.61 0 1.27.57 1.72.94.52.42 1 .9 1.42 1.42.91 1.15 1.59 2.45 2.21 3.77.03-.66-.15-1.69.42-1.99.02-.01.04-.02.07-.02.25 0 .72.43.84.56.4.42.8.92 1.1 1.42.68 1.12 1.35 2.25 1.76 3.5.21.65.56 1.53.15 2.17-.02.03-.06.07-.1.07h-.03c-.29-.11-.46-.13-.65-.41-.13-.19-.34-.4-.54-.58.85 2.37 1.64 4.76 2.05 7.26.12.74.51 1.94.08 2.65-.05.08-.1.11-.15.11-.24 0-.54-.63-.7-.92-.05.44.15 1.11.2 1.48.05.37.1.74.09 1.11 0 .29.24.97-.03 1.22-.08.07-.15.09-.21.09-.23 0-.39-.35-.44-.57-.18-.84-.38-1.67-.54-2.51-.39-2.07-.96-4.1-1.63-6.09-.6-1.8-1.21-3.61-2.25-5.19.02.33.16.82.22 1.03.09.33.16.66.21 1 .09.61.23 1.24.07 1.85-.01.04-.06.13-.11.13h-.01c-.19-.05-.29-.2-.34-.39-.1-.43-.34-.82-.48-1.23-.32-.92-.64-1.84-1.01-2.74-.67-1.61-1.45-3.15-2.28-4.69-.23-.43-.45-.86-.66-1.3-.24-.37-.48-.75-.68-1.15-.22-.44-.4-.93-.33-1.43.03-.23.29-.53.53-.54h.02m0-1h-.04c-.79.02-1.41.74-1.5 1.4-.11.82.19 1.54.43 2.02.22.43.46.82.7 1.18.2.42.41.84.65 1.29.98 1.81 1.67 3.22 2.23 4.59.36.87.68 1.8.99 2.69.07.19.15.38.24.57.09.2.18.39.21.55.13.58.53 1.01 1.07 1.15.08.02.18.03.26.03.24 0 .47-.08.66-.23.08.25.17.5.25.74.73 2.21 1.26 4.16 1.59 5.96.1.53.22 1.06.34 1.58.07.32.14.64.21.95.14.68.64 1.37 1.42 1.37.22 0 .55-.06.87-.35.61-.54.47-1.36.39-1.8-.01-.07-.02-.13-.03-.18 0-.27-.02-.53-.05-.79.18-.1.34-.25.46-.45.55-.91.32-2.06.14-2.9-.03-.15-.06-.3-.08-.43-.29-1.76-.74-3.43-1.33-5.23.18-.09.34-.24.45-.42.63-.99.25-2.13 0-2.88l-.05-.14c-.46-1.39-1.2-2.62-1.86-3.7-.4-.67-.89-1.23-1.23-1.59-.25-.26-.9-.87-1.56-.87-.19 0-.37.04-.53.13-.09.05-.18.1-.25.16-.34-.57-.71-1.13-1.14-1.68-.44-.56-.97-1.09-1.57-1.58l-.09-.07c-.53-.43-1.33-1.09-2.26-1.09Z"/><path d="M64.97 121.22s-2.39-3.46-5.58-4.94M42.43 98.25l-2.55-1.09" class="cls-1"/><path d="M-2589.13-5543.56h6467.34v6437.3h-6467.34z" style="stroke:#fff;stroke-width:8px;fill:none;stroke-linecap:round;stroke-linejoin:round"/></svg>