<svg xmlns="http://www.w3.org/2000/svg" id="Calque_1" viewBox="0 0 200 128"><defs><style>.cls-1{fill:#bfe6fc}.cls-1,.cls-2,.cls-3{stroke:#000;stroke-linecap:round;stroke-linejoin:round}.cls-2,.cls-5{fill:#fff}.cls-6{fill:#fdfdfd}.cls-7{fill:#7a7a7a}.cls-3{fill:none;stroke-width:2px}</style></defs><path d="M152.76 9.88H46.11c-1.48 0-2.69 1.21-2.69 2.69v71.07h112.03V12.57c0-1.48-1.21-2.69-2.69-2.69Z" class="cls-3"/><path d="M51.36 15.87h96.14v61.77H51.36z" class="cls-1"/><path d="M99.91 13.54c0 .26-.21.48-.48.48s-.48-.21-.48-.48.21-.48.48-.48.48.21.48.48ZM89.24 107.77h20.63v4H89.24z"/><path d="M109.88 108.94v1.26c0 .87-.52 1.58-1.15 1.58H90.06c-.63 0-1.15-.71-1.15-1.58v-1.26h-66.2l1.97 5.88h149.66l1.81-5.88h-66.27Z" class="cls-3"/><path d="M22.71 109.19h153.44l-20.71-25.55H43.42l-20.71 25.55z" class="cls-3"/><path d="m96.08 89.98 6.45-.03 2.05 5.06h-10.3l1.8-5.03zM84.08 97.69l30.93-.04 2.05 5.07H82.28l1.8-5.03zM92.7 89.98h-.03l-1.81 5.03h-6.42l1.8-5.03 6.45-.03.01.03zM82.8 89.98h-.04l-1.8 5.03h-6.42l1.79-5.03 6.46-.03.01.03zM72.9 89.98h-.04l-1.81 5.03h-6.42l1.8-5.03 6.46-.03.01.03zM62.99 89.98h-.03l-1.81 5.03h-6.42l1.8-5.03 6.45-.03.01.03zM53.14 89.98h-.03l-1.81 5.03h-8.61l3.98-5.03 6.46-.03.01.03zM106.13 89.98h.04l1.8 5.03h6.42l-1.79-5.03-6.46-.03-.01.03zM116.03 89.98h.04l1.81 5.03h6.42l-1.8-5.03-6.45-.03-.02.03zM125.94 89.98h.03l1.81 5.03h6.42l-1.8-5.03-6.45-.03-.01.03zM135.84 89.98h.04l1.8 5.03h6.42l-1.79-5.03-6.46-.03-.01.03zM145.69 89.98h.04l1.8 5.03h8.62l-3.99-5.03-6.46-.03-.01.03zM118.61 97.68h.04l1.81 5.03h6.42l-1.8-5.03-6.46-.02-.01.02zM128.52 97.68h.03l1.81 5.03h6.42l-1.8-5.03-6.45-.02-.01.02zM138.42 97.68h.03l1.81 5.03h6.42l-1.79-5.03-6.46-.02-.01.02zM148.27 97.68h.04l1.8 5.03 12.23.01-3.99-5.04-10.07-.02-.01.02z" class="cls-1"/><path d="m150.11 102.71 12.23.01-3.99-5.04-10.07-.02 1.83 5.05zM48.96 102.71H36.73l3.99-5.03 10.07-.03-1.83 5.06zM80.45 97.68h-.04l-1.81 5.03h-6.42l1.8-5.03 6.45-.02.02.02zM70.54 97.68h-.03l-1.81 5.03h-6.42l1.79-5.03 6.46-.02.01.02zM60.64 97.68h-.04l-1.8 5.03h-6.42l1.79-5.03 6.46-.02.01.02z" class="cls-1"/><circle cx="68.66" cy="60.94" r="12.93" transform="rotate(-76.99 68.662 60.94)"/><path d="M68.35 57.36c-.03.82 0 1.66 0 2.55h3.21c-.14 1.06-.25 2.04-.41 3.01 0 .1-.25.22-.39.23-.77.02-1.55 0-2.39 0v10.72c-1.19-.02-2.32-.21-3.41-.53V63.17h-2.81v-3.23h2.75c0-.24.03-.44.03-.63.02-.85 0-1.7.07-2.55.18-1.85 1.31-3.15 3.14-3.41 1.14-.16 2.32-.03 3.52-.03v2.94h-1.27c-.37 0-.76 0-1.13.08-.52.12-.88.47-.9 1.02Z" class="cls-6"/><circle cx="131.81" cy="32.21" r="10.99" style="stroke-width:.85px;fill:#fff;stroke:#000;stroke-linecap:round;stroke-linejoin:round" transform="rotate(-76.85 131.819 32.204)"/><path d="M138.36 28.59c0-1.78-1.12-2.94-2.89-2.96-2.45-.02-4.9-.03-7.34 0-1.73.02-2.85 1.16-2.88 2.89-.02 1.22 0 2.44 0 3.67v3.59c.02 1.82 1.13 2.99 2.93 3.01 2.42.03 4.84.03 7.26 0 1.77-.02 2.9-1.18 2.91-2.95.01-2.42.01-4.83 0-7.25Zm-1.17 7.27c-.01 1.13-.62 1.75-1.75 1.76-2.42.02-4.84.02-7.26 0-1.13 0-1.75-.63-1.75-1.75-.01-2.44-.01-4.88 0-7.33 0-1.12.63-1.76 1.75-1.77 2.42-.02 4.84-.02 7.26 0 1.12 0 1.74.65 1.76 1.76.01 1.22 0 2.44 0 3.66s.01 2.44 0 3.66Z"/><path d="M131.82 28.77c-1.87 0-3.4 1.51-3.42 3.39-.02 1.9 1.45 3.43 3.33 3.46 1.92.04 3.48-1.46 3.49-3.38.02-1.92-1.5-3.47-3.4-3.48Zm-.04 5.71c-1.22-.02-2.23-1.05-2.25-2.26-.01-1.25 1.02-2.28 2.28-2.28s2.3 1.03 2.28 2.27c-.01 1.24-1.08 2.28-2.32 2.26ZM136.26 28.69c-.04.48-.34.73-.82.71-.52-.02-.78-.34-.75-.85.04-.48.35-.7.83-.73.49.08.77.36.74.87Z"/><circle cx="130.48" cy="65.02" r="8.74" class="cls-2" transform="rotate(-76.53 130.48 65.026)"/><path d="M127.22 68.37v-6.7l8 3.35-8 3.35z"/><circle cx="115.4" cy="51.02" r="9.07"/><g id="QfoS7x.tif"><path d="M118.04 47.31c.05.09.1.17.16.25l.01.01a1.87 1.87 0 0 1-.17-.26Zm.17.26c.03.02.06.04.09.07-.03-.02-.06-.05-.1-.07Zm1.54 1.65v-.71l-.28-.06c-.16-.05-.31-.1-.46-.18-.14-.08-.28-.16-.41-.27-.07-.06-.13-.11-.19-.17l-.03-.03s-.02-.02-.02-.03c-.05-.06-.11-.12-.15-.19-.02 0-.05-.03-.07-.05-.1-.09-.2-.18-.28-.29-.13-.16-.24-.33-.33-.52a3.1 3.1 0 0 1-.21-.58c-.02-.07-.03-.15-.05-.22v-.02h-1.38c-.03 0-.04 0-.04.04v7.14c0 .11-.01.22-.02.33-.01.14-.04.27-.07.41-.02.06-.05.11-.08.17-.08.14-.18.26-.29.37-.08.08-.18.15-.28.2-.14.08-.29.13-.44.16-.06.01-.11.02-.17.02h-.17c-.2 0-.38-.04-.56-.12-.13-.05-.25-.12-.36-.21-.12-.1-.22-.21-.29-.35 0 0-.07-.14-.12-.32.03.1.06.2.11.3v.01a.444.444 0 0 1-.11-.08 1.162 1.162 0 0 1-.37-.52c-.03-.09-.06-.18-.08-.27l-.03-.22v-.13c0-.16.03-.31.07-.47.05-.16.12-.3.22-.43.11-.15.24-.26.39-.36.14-.09.3-.14.46-.18.07-.02.14-.03.21-.03.11-.01.22-.01.33-.01.08 0 .16 0 .23.02.03 0 .04 0 .04-.03v-1.51h-.35c-.13 0-.27.02-.4.05-.15.03-.3.06-.44.11-.1.03-.2.07-.3.12-.15.07-.3.15-.44.24-.1.07-.19.14-.29.22-.09.08-.18.16-.26.25a3.506 3.506 0 0 0-.57.83c-.06.12-.11.25-.16.38-.06.18-.11.37-.15.56-.02.09-.03.18-.04.27-.02.18-.03.35-.02.53a3.225 3.225 0 0 0 .11.79c.04.17.1.33.17.49.08.18.17.35.28.51.03.04.05.08.07.12 0 0 .14.17.22.25-.06-.06-.11-.13-.17-.2v-.02s.02 0 .03.02c.02.02.04.04.06.05.09.07.19.14.29.21.13.08.26.16.4.22.17.08.35.15.53.21.09.03.19.04.28.06.08.02.17.03.25.04.04 0 .08 0 .12.01.13 0 .25.02.38.02.11 0 .22 0 .33-.02l.38-.06c.19-.04.37-.1.55-.18.21-.09.4-.21.58-.34.15-.11.28-.23.4-.37a3.102 3.102 0 0 0 .55-.82c.09-.19.17-.4.22-.6.03-.11.06-.23.08-.35.02-.09.03-.17.04-.26 0-.05.01-.1.01-.14.04-.66.01-1.31.02-1.97v-2.01s.05.04.07.06c.11.09.22.17.34.24.11.07.22.12.33.18a4.363 4.363 0 0 0 1.05.34l.35.06c.07 0 .14.02.22.02h.14c.03 0 .03 0 .03-.03v-.68Zm-8.06 6.07Zm.02.02Zm.18.22.02.02-.02-.02Zm4.52-9.64h.86-.86Zm.86 0v.02-.02Z" class="cls-6"/><path d="M120.19 50.36s0 .03-.03.03c-.1 0-.2-.01-.31-.02-.08 0-.16-.02-.24-.03-.09-.01-.18-.03-.27-.05a5.259 5.259 0 0 1-.94-.31c-.17-.08-.33-.17-.48-.27-.09-.06-.17-.12-.25-.19v3.75c0 .1 0 .2-.02.3 0 .07-.01.13-.03.2-.01.09-.03.19-.05.28-.03.13-.06.26-.11.38-.05.15-.11.3-.18.44-.08.17-.18.34-.29.5-.05.07-.11.14-.17.21-.05.06-.11.12-.16.18-.08.08-.16.15-.25.22-.08.06-.16.12-.25.18-.14.09-.3.17-.46.24-.14.06-.28.11-.43.14-.09.02-.18.04-.27.05-.09.01-.18.02-.27.04h-.46c-.1 0-.2-.02-.3-.03-.08-.01-.16-.03-.23-.04-.17-.03-.34-.08-.5-.14-.1-.04-.19-.08-.29-.12a3.099 3.099 0 0 1-1.02-.73s0-.01-.02-.02c-.08-.09-.23-.25-.22-.25.02 0 .05.03.08.06.02.02.05.04.06.05.09.07.19.14.29.21.13.08.26.16.4.22.17.08.35.15.53.21.09.03.19.04.28.06.08.02.17.03.25.04.04 0 .08 0 .12.01.13 0 .25.02.38.02.11 0 .22 0 .33-.02l.38-.06c.19-.04.37-.1.55-.18.21-.09.4-.21.58-.34.15-.11.28-.23.4-.37a3.102 3.102 0 0 0 .55-.82c.09-.19.17-.4.22-.6.03-.11.06-.23.08-.35.02-.09.03-.17.04-.26 0-.05.01-.1.01-.14.04-.66.01-1.31.02-1.97v-2.01s.05.04.07.06c.11.09.22.17.34.24.11.07.22.12.33.18a4.363 4.363 0 0 0 1.05.34l.35.06c.07 0 .14.02.22.02h.14c.03 0 .03 0 .03-.03V48.54c.04.01.08.02.13.02.07.01.13.02.2.02h.08c.02 0 .02 0 .02.02v1.78ZM114.45 49.8h-.35c-.13 0-.27.02-.4.05-.15.03-.3.06-.44.11-.1.03-.2.07-.3.12-.15.07-.3.15-.44.24-.1.07-.19.14-.29.22-.09.08-.18.16-.26.25a3.506 3.506 0 0 0-.57.83c-.06.12-.11.25-.16.38-.06.18-.11.37-.15.56-.02.09-.03.18-.04.27-.02.18-.03.35-.02.53a3.225 3.225 0 0 0 .11.79c.04.17.1.33.17.49.08.18.17.35.28.51.03.04.05.08.07.12-.02-.02-.05-.04-.07-.06a3.8 3.8 0 0 1-.33-.37c-.1-.13-.19-.27-.27-.42-.1-.18-.18-.38-.24-.58-.05-.15-.08-.3-.11-.45l-.03-.27c0-.04 0-.07-.01-.11v-.45c0-.09.01-.17.02-.25.02-.17.06-.34.1-.5.04-.15.09-.3.15-.44.1-.24.22-.46.37-.67.06-.09.13-.18.21-.27a3.07 3.07 0 0 1 1.85-1.04l.26-.03c.14-.01.28-.01.41 0 .11 0 .22.01.33.03.04 0 .07 0 .11.01.02 0 .03.01.03.03v.38Z" class="cls-7"/><path d="M117.27 45.88H115.89c-.03 0-.04 0-.04.04v7.14c0 .11-.01.22-.02.33-.01.14-.04.27-.07.41-.02.06-.05.11-.08.17-.08.14-.18.26-.29.37-.08.08-.18.15-.28.2-.14.08-.29.13-.44.16-.06.01-.11.02-.17.02h-.17c-.2 0-.38-.04-.56-.12-.13-.05-.25-.12-.36-.21-.12-.1-.22-.21-.29-.35.03.01.05.02.07.04.13.07.26.12.4.15.16.04.31.04.47.03.2-.01.4-.07.58-.16.1-.05.19-.11.28-.19.13-.11.23-.24.32-.38.07-.12.12-.24.14-.37.01-.09.03-.19.04-.28 0-.06.01-.11.01-.17V45.45c0-.02 0-.02.02-.02h1.74s.05 0 .05.05c0 .12.01.25.04.37v.04Z" class="cls-7"/><path d="M114.89 50.22v1.56s0 .04-.04.03c-.04 0-.08-.01-.12-.01h-.18c-.16 0-.31 0-.47.04-.15.03-.29.08-.42.15-.09.05-.17.11-.25.17-.13.11-.23.24-.31.39-.07.13-.12.27-.15.41l-.03.18v.23c0 .1.02.19.04.29 0 .02.01.05.02.07.05.17.12.31.12.32a.502.502 0 0 1-.12-.08 1.162 1.162 0 0 1-.37-.52c-.03-.09-.06-.18-.08-.27l-.03-.22v-.13c0-.16.03-.31.07-.47.05-.16.12-.3.22-.43.11-.15.24-.26.39-.36.14-.09.3-.14.46-.18.07-.02.14-.03.21-.03.11-.01.22-.01.33-.01.08 0 .16 0 .23.02.03 0 .04 0 .04-.03v-1.51h.04c.1 0 .21.01.31.03h.06c.02 0 .02 0 .02.02v.35ZM118.21 47.57s-.05-.03-.07-.05c-.1-.09-.2-.18-.28-.29-.13-.16-.24-.33-.33-.52a3.1 3.1 0 0 1-.21-.58c-.02-.07-.03-.15-.05-.22v-.02h.37c.02 0 .02 0 .02.02 0 .11.01.22.03.32.02.17.06.35.11.51.05.15.1.29.17.43.02.05.05.09.07.13.08.14.15.24.17.26Z" class="cls-7"/><path d="M119.76 48.13v.38l-.28-.06c-.16-.05-.31-.1-.46-.18-.14-.08-.28-.16-.41-.27-.07-.06-.13-.11-.19-.17l-.03-.03c-.06-.07-.12-.14-.17-.22.03.02.06.05.1.07l.01.01c.11.08.23.15.36.2.08.04.17.07.25.1.16.05.31.09.48.11.11.02.22.03.33.04.02 0 .02 0 .02.02Z"/></g><circle cx="93.71" cy="38.05" r="12.93" class="cls-2" transform="rotate(-76.36 93.717 38.05)"/><path d="M85.46 46.31c.36-1.29.68-2.49 1.03-3.67.11-.39.08-.69-.1-1.06-2.5-5.03.82-11.11 6.41-11.79 5.14-.63 9.49 3.25 9.38 8.36-.09 4.19-3.65 7.8-7.85 7.99-1.44.06-2.8-.19-4.11-.78-.23-.1-.54-.12-.79-.06-1.29.31-2.57.65-3.96 1.01Zm2.01-1.95c.82-.21 1.51-.41 2.22-.56.23-.05.52-.01.73.09 1.05.55 2.16.85 3.34.87 4.27.08 7.71-3.89 6.9-8.05-.56-2.88-2.33-4.76-5.19-5.42-2.93-.67-5.42.27-7.19 2.69-1.73 2.37-1.78 4.92-.36 7.5.12.23.16.56.1.81-.14.67-.34 1.32-.55 2.06Z"/><path d="M90.22 34.6c.56-.76 1.32-.61 1.71.23.15.33.19.44.34.81.23.56.18.94-.23 1.31-.3.27-.27.5-.06.8.64.95 1.47 1.66 2.52 2.12.32.14.53.11.76-.17.73-.87.74-.86 1.77-.38.12.06.24.11.35.17.79.38.91 1.09.27 1.71-.66.64-1.45.78-2.32.56-2.22-.56-3.81-1.96-5.04-3.83-.37-.57-.65-1.17-.63-1.88.07-.65.25-1.06.56-1.48Z"/><circle cx="136.86" cy="50.02" r="4.77"/><path id="K0pxJE" d="M136.78 46.7c.5 0 .89.1 1.23.35.31.22.52.52.63.88.04.13.05.26.06.39.01.19 0 .39 0 .58 0 .16-.02.32-.03.48 0 .07 0 .08.06.1.09.04.19.03.28 0 .05-.01.1-.03.14-.06.11-.05.28-.02.36.08.06.07.06.15 0 .22a.69.69 0 0 1-.27.17c-.08.03-.17.05-.25.09-.05.02-.1.05-.14.08-.12.09-.16.21-.12.36.05.17.14.31.23.46.18.27.4.51.68.68.18.11.37.19.58.22.07.01.09.06.06.12s-.08.1-.13.13c-.14.08-.29.12-.45.16-.09.02-.17.04-.26.05-.05 0-.08.03-.09.08-.03.09-.04.19-.07.28-.03.1-.05.12-.15.11-.12-.01-.24-.04-.37-.05-.31-.03-.59.04-.84.23-.13.1-.26.19-.39.27-.22.13-.46.18-.72.17-.29 0-.53-.11-.76-.27-.13-.09-.26-.19-.39-.27a.942.942 0 0 0-.44-.13c-.2-.02-.4.01-.6.05-.14.02-.16 0-.19-.12l-.06-.24c-.01-.06-.05-.1-.12-.11-.22-.04-.45-.08-.65-.18a.673.673 0 0 1-.11-.07c-.03-.03-.06-.06-.07-.1-.02-.05 0-.1.06-.11.15-.03.3-.08.44-.15.28-.14.5-.34.69-.58.13-.17.25-.35.33-.55.02-.05.04-.1.04-.15.02-.14-.04-.24-.15-.31-.08-.06-.17-.09-.26-.12-.11-.04-.22-.08-.31-.15-.02-.02-.05-.04-.07-.06-.06-.08-.06-.18.03-.24.1-.07.2-.1.32-.04.1.05.2.08.31.08.06 0 .12-.01.17-.05.02-.01.03-.03.03-.05-.01-.22-.03-.44-.04-.66v-.5c.01-.13.02-.26.07-.38.2-.51.55-.88 1.07-1.06.23-.08.47-.12.62-.11Z" class="cls-5"/><path d="M85.9 64.56c.54 5.21 5.21 8.99 10.42 8.45a9.393 9.393 0 0 0 5.43-2.45l4.75.7-2.37-4.1c.58-1.4.82-2.96.65-4.57-.54-5.21-5.21-8.99-10.42-8.45-5.21.54-8.99 5.21-8.45 10.42Z" class="cls-2"/><path d="M88.74 56.72a9.614 9.614 0 0 1 3.66-2.24c1.37-.46 2.85-.59 4.29-.4 1.44.19 2.84.7 4.05 1.52 1.21.81 2.24 1.9 2.97 3.16 1.47 2.52 1.73 5.75.58 8.45v-.16l2.35 4.11.17.3-.34-.05-4.74-.73.11-.03c-1.31 1.19-2.96 2-4.69 2.32a8.2 8.2 0 0 1-1.31.14c-.44.04-.88 0-1.32-.03-.87-.1-1.74-.27-2.55-.61-.81-.32-1.59-.74-2.29-1.27-.36-.25-.67-.56-1-.85-.29-.33-.61-.63-.86-.99-1.08-1.38-1.72-3.08-1.91-4.81-.31-2.86.74-5.84 2.84-7.83Z" class="cls-2"/><path d="M90.05 63.86a1.15 1.15 0 1 0 2.3 0 1.15 1.15 0 0 0-2.3 0ZM94.17 63.86a1.15 1.15 0 1 0 2.3 0 1.15 1.15 0 0 0-2.3 0ZM98.28 63.86a1.15 1.15 0 1 0 2.3 0 1.15 1.15 0 0 0-2.3 0Z"/><circle cx="75.47" cy="25.64" r="6.13"/><path d="M78.3 23.95a1.24 1.24 0 1 1-2.48 0 1.24 1.24 0 0 1 2.48 0Z" class="cls-6"/><path d="M79.21 27.38v.45h-4.3v-.45c0-1.18.96-2.14 2.15-2.14s2.14.96 2.14 2.14ZM75.12 24.7a1.24 1.24 0 1 1-2.48 0 1.24 1.24 0 0 1 2.48 0Z" class="cls-6"/><path d="M76.03 28.12v.45h-4.3v-.45c0-1.18.96-2.14 2.15-2.14s2.14.96 2.14 2.14Z" class="cls-6"/><circle cx="112.54" cy="27.32" r="6.5" transform="rotate(-76.65 112.543 27.315)"/><path d="M110.04 29.49h-.53c-.33 0-.6-.26-.6-.6s.26-.6.6-.6h.74l.35-2h-.67c-.32 0-.6-.28-.6-.6s.28-.6.6-.6h.88l.23-1.37c.05-.3.3-.49.6-.49.38 0 .65.35.6.7l-.21 1.16h1.8l.23-1.37c.05-.3.3-.49.61-.49.37 0 .64.35.59.7l-.2 1.16h.53c.32 0 .6.26.6.6s-.28.6-.6.6h-.74l-.35 2h.65c.33 0 .6.26.6.6s-.26.6-.6.6h-.86l-.24 1.41c-.04.29-.3.49-.6.49a.61.61 0 0 1-.6-.7l.22-1.21h-1.81l-.24 1.41c-.04.26-.26.49-.61.49a.59.59 0 0 1-.59-.7l.21-1.21Zm3.23-1.2.35-2h-1.8l-.35 2h1.8Z" class="cls-5"/><circle cx="67.99" cy="39.15" r="6.41" transform="rotate(-12.31 68.007 39.182)"/><path d="M67.49 34.95a4.23 4.23 0 0 0-3.71 4.7 4.24 4.24 0 0 0 5.72 3.46.342.342 0 0 0 .22-.47.302.302 0 0 0-.14-.19.393.393 0 0 0-.32-.02c-.26.11-.52.15-.85.19a3.495 3.495 0 0 1-3.88-3.06c-.23-1.9 1.15-3.64 3.06-3.86a3.47 3.47 0 0 1 3.86 3.04c.07.58 0 1.14-.19 1.62-.03.1-.24.51-.55.63h-.08c-.11.02-.14 0-.14-.01a.84.84 0 0 1-.1-.22c-.1-.41-.2-1.7-.2-1.72l-.02-.15c-.15-1.26-1.24-2.17-2.43-2.02-1.21.14-2.07 1.28-1.92 2.54.15 1.27 1.25 2.19 2.46 2.05.54-.06 1.01-.32 1.36-.75l.02.19c.02.2.12.4.28.59.11.12.36.31.78.26.07 0 .16-.02.25-.06.41-.17.74-.51.98-1.01 0-.02.01-.03.02-.03v-.02c.24-.61.31-1.27.23-1.97-.27-2.31-2.38-3.97-4.69-3.7Zm.68 5.72c-.79.09-1.49-.5-1.59-1.36-.1-.85.45-1.61 1.23-1.7.77-.09 1.5.53 1.6 1.37.1.84-.46 1.6-1.24 1.7Z" class="cls-5"/></svg>