<svg xmlns="http://www.w3.org/2000/svg" id="Calque_1" data-name="Calque 1" viewBox="0 0 200.13 128.13"><defs><style>.cls-2,.cls-3,.cls-4,.cls-6{stroke-linecap:round;stroke-linejoin:round}.cls-2,.cls-3,.cls-4,.cls-6,.cls-7{stroke:#000}.cls-2{fill:#fff}.cls-3,.cls-4{fill:none}.cls-4,.cls-7{stroke-width:2px}.cls-7{stroke-miterlimit:10}</style></defs><path d="m103.32 36.9 2.05.08c9.02-9.29 22.4-26.88 31.33-25.32 5.36.93 6.01 8.04 8.29 14.51 2.28 6.48 2.84 10.11 6.26 16.81l1.63 2.62c1.33 2.13 3.22 3.89 5.54 4.88.63.27 1.32.5 2.05.65 3.92.83 4.7.59 4.65 2.75-.05 2.15-14.71 1.31-16.54 1.27-.75-.02-.86-1.3-.72-2.81.31-3.47-.59-6.93-2.65-9.73-.48-.66-1.02-1.39-1.62-2.2-3.76-5.09-6.81-7.33-8.72-14.46-.61-2.7-.05-4.12-.05-4.12-2.12 2.46-9.44 22.24-25.61 32.73l-5.89-17.66" class="cls-3"/><path d="M88.51 30.07c2.38.25 4.67 1.7 6.68 2.9 2.11 1.27 3.3 3.64 5.76 3.88 2.13.21 2.08.08 2.37.04 2.48-.36 3.88-1.84 4.14-2.13l2.67-2.92 4.1 18.78s-3.07 4.37-7.82 5.38c-2.76.58-11.68 1.08-15.41-1.13l-2.11-.99h-.03c-.23-.09-.49.08-.66.22-.56.46-1.03 1.16-1.55 1.69-.57.59-1.18 1.17-1.89 1.59-1.3.76-2.9.76-4.36 1.06-1.59.33-3.21.57-4.82.77-.3.04-.6.07-.9.11-4.74-1.72-10.42-4.4-11.46-7.63-1.83-5.71 6.74-13.52 6.74-13.52.62.05 1.32-.12 2.05-.43 0 0 .01-.01.02-.01 2.69-1.14 4.61-3.47 7.05-5.03.13-.07.25-.15.38-.23 2.7-1.58 5.91-2.7 9.07-2.38Z" style="stroke:#000;stroke-linecap:round;stroke-linejoin:round;fill:#bfe6fc"/><path d="M74.67 59.31h-.05.05ZM53.16 47.21c.1.29.19.58.29.88 2.78 1.31 5.52-1.31 5.52-1.31s8.08-8.9 10.98-8.62c0 0-8.54 7.8-6.74 13.5.77.1 3.19.69 6.6.22 4.01-.55 9.53.15 9.53.15 1.34.15 2.02-1.03 2.88-1.83 1.4-1.32 2.98-2.42 4.47-3.63 1.56-1.28 3.11-2.56 4.55-3.98.92-.9 2.19-2.03 2.54-3.33.19-.72.39-1.41.3-2.16-.08-.65-.35-1.26-.29-1.93.07-.78.8-1.63 1.26-2.23l.2-.26s.99-1.71 1.2-.92.23 1.29.56.9c.32-.39 1.06-.32 1.33.12.28.43.92.14 1.34.71.42.58.76.8.81 1.52.04.71.92 1.28.57 2.3 0 .02-.01.04-.02.06-.38 1.01-1.83 2.48-2.23 3.05-.42.57-3.96 4.95-6.08 8.31-1.05 1.67-2.72 3.61-4.24 5.23-.48.5-.92 1.05-1.41 1.53-.6.59-1.28 1.3-2.03 1.79-.03.03-.05.04-.09.05-.03.03-.07.05-.11.07-.13.08-.25.14-.37.2-.05.03-.1.05-.15.07 0 0-.02.01-.03.01-.21.09-.44.15-.66.21-.62.15-1.27.21-1.9.29-.48.06-.94.14-1.39.29h-.03c-.04 0-.07.01-.11.02-.15.03-.23.05-.23.05s-2.98.52-5.29.77h-.05c-.76.09-1.45.14-1.93.13-1.93-.05-4.26.05-4.26.05s-6.49 1.24-9.46.54c-.96-.22-2.13-.58-3.28-1.08-.47-.2-.94-.43-1.38-.68-.93-.52-1.77-1.16-2.38-1.9-.15-.18-.28-.36-.4-.56-.35-.58-.56-1.22-.56-1.92 0-2.48-.34-5.2.96-6.74-3.39-.61-6.94-4.54-6.94-4.54s-5.25-4.56-1.14-6.8c0 0 2.32-.3 5.59 1.77s3.87 1.75 4.47 1.75 0 1.28 0 1.28 2.75 3.2 1.63 5.23c-.25.45-.68.83-1.37 1.12-.33.13-.66.21-1.01.25" class="cls-2"/><path d="M68.42 59.49s-6.49 1.24-9.46.55c-1.35-.32-3.13-.9-4.67-1.77h0C54.05 44.1 43.83 35.8 43.83 35.8s2.32-.3 5.59 1.77 3.87 1.75 4.47 1.75 0 1.28 0 1.28 2.75 3.2 1.64 5.23c-.24.45-.68.83-1.37 1.12-.33.14-.66.22-1.01.25.1.29.19.58.28.88 2.78 1.31 5.52-1.3 5.52-1.3s0 0 0 0c-.1-.25-2.21-5.62-4.5-8.14-2.31-2.54-6.14-6.91-14.05-3.34-.12.05-.24.11-.36.17-3.71 1.76-5.32 6.29-5 10.18.54 6.65 6.11 7.93 11.21 10.14 2.53 1.1 5.02 2.3 7.39 3.72.2.12.41.24.61.34 6.99 3.71 14.16-.34 14.16-.34Z" class="cls-2"/><path d="M49.39 41.76s1.27-.21 1.28-1.54" class="cls-2"/><path d="m136.64 51.94 4.93-4.27-4.93-4.27v8.54z" class="cls-6"/><path d="M136.64 47.6h-13.58" class="cls-3"/><path d="M29.26 112.71h141.61" class="cls-7"/><circle cx="29.26" cy="92.76" r="11.89" style="fill:#ff6d75"/><path d="M41.15 92.76c0 6.57-5.32 11.89-11.89 11.89s-11.89-5.32-11.89-11.89 5.32-11.89 11.89-11.89c2.04 0 3.96.51 5.64 1.42" class="cls-4"/><path d="M24.36 98.83c1.21-1.33 2.96-2.16 4.9-2.16s3.69.83 4.9 2.16" class="cls-4"/><circle cx="24.6" cy="90.47" r="1.49" class="cls-6"/><circle cx="33.91" cy="90.47" r="1.49" class="cls-6"/><circle cx="123.66" cy="92.76" r="11.89" style="fill:#b4eac3"/><path d="M135.55 92.76c0 6.57-5.32 11.89-11.89 11.89s-11.89-5.32-11.89-11.89 5.32-11.89 11.89-11.89c2.04 0 3.96.51 5.64 1.42" class="cls-4"/><path d="M128.56 97.24c-1.21 1.33-2.96 2.16-4.9 2.16s-3.69-.83-4.9-2.16" class="cls-4"/><circle cx="119.01" cy="90.47" r="1.49" class="cls-6"/><circle cx="128.32" cy="90.47" r="1.49" class="cls-6"/><circle cx="170.87" cy="92.76" r="11.89" style="fill:#87f3b9"/><path d="M182.76 92.76c0 6.57-5.32 11.89-11.89 11.89s-11.89-5.32-11.89-11.89 5.32-11.89 11.89-11.89c2.04 0 3.96.51 5.64 1.42" class="cls-4"/><circle cx="166.23" cy="90.47" r="1.49" class="cls-6"/><circle cx="175.54" cy="90.47" r="1.49" class="cls-6"/><path d="M175.44 95.91c0 2.52-2.04 4.56-4.56 4.56s-4.56-2.04-4.56-4.56h9.11Z" class="cls-4"/><circle cx="76.46" cy="92.76" r="11.89" style="fill:#f3d587"/><path d="M88.35 92.76c0 6.57-5.32 11.89-11.89 11.89s-11.89-5.32-11.89-11.89 5.32-11.89 11.89-11.89c2.04 0 3.96.51 5.64 1.42" class="cls-4"/><circle cx="71.81" cy="90.47" r="1.49" class="cls-6"/><circle cx="81.11" cy="90.47" r="1.49" class="cls-6"/><path d="M70.94 98.05h10.17" class="cls-4"/><path d="M29.26 109.4v7.17M76.46 109.4v7.17M123.66 109.4v7.17M170.87 109.4v7.17" class="cls-7"/><path d="M-2464.14-3875.04H4003.2v6437.3h-6467.34z" style="stroke:#fff;stroke-width:8px;fill:none;stroke-linecap:round;stroke-linejoin:round"/></svg>