<svg xmlns="http://www.w3.org/2000/svg" id="Calque_1" viewBox="0 0 128 128"><defs><style>.cls-1,.cls-2,.cls-3,.cls-5,.cls-6{stroke:#000;stroke-miterlimit:10}.cls-2,.cls-3{fill:#fce9b9;stroke-width:2px}.cls-3{fill:#ff6d75}.cls-5{fill:#fff}.cls-6{fill:#d6d6d6}</style></defs><path d="M37.7 115.98a5.379 5.379 0 0 1-4.89-7.59l5.6-12.36c1.22-2.7 4.4-3.9 7.11-2.68 2.7 1.22 3.9 4.41 2.68 7.11l-5.6 12.36a5.382 5.382 0 0 1-4.9 3.16ZM85.15 114.94c-2.05 0-4-1.18-4.9-3.16l-5.6-12.36c-1.22-2.7-.03-5.89 2.68-7.11 2.71-1.22 5.89-.03 7.11 2.68l5.6 12.36c1.22 2.7.03 5.89-2.68 7.11-.72.33-1.47.48-2.21.48Z" class="cls-2"/><path d="m26.11 51.42 4.22 3.94 12.52-12.49-4.55-3.34-12.19 11.89z" class="cls-3"/><path d="M22.67 56.53c-5.65-5.57-5.72-14.67-.15-20.32 5.57-5.65 14.67-5.72 20.32-.15L22.66 56.53Z" class="cls-2"/><path d="m95.54 52.51-3.92 3.83-12.29-11.52 5.81-4.48 10.4 12.17z" class="cls-3"/><path d="M99.92 56.87c5.5-5.72 5.32-14.82-.4-20.32-5.72-5.5-14.82-5.32-20.32.4l20.72 19.92Z" class="cls-2"/><circle cx="60.59" cy="72.34" r="36.01" class="cls-3"/><circle cx="61.02" cy="72.34" r="28.57" class="cls-6"/><path d="M99.52 37.63c-.45 0-.88-.29-1.02-.75-.28-.86-7.15-21.06-37.11-21.06S23.61 36.38 23.53 36.58c-.21.56-.83.83-1.39.63-.55-.21-.84-.83-.63-1.38.08-.22 8.72-22.16 39.87-22.16S100.47 36 100.54 36.23c.18.56-.13 1.17-.69 1.35-.11.03-.22.05-.33.05Z" class="cls-6"/><circle cx="99.94" cy="36.33" r="2.37" class="cls-6" transform="rotate(-22.38 99.947 36.318)"/><circle cx="22.2" cy="36.33" r="2.37" class="cls-6" transform="rotate(-22.38 22.203 36.33)"/><path d="M59.95 43.77h2.15v6.07h-2.15zM59.95 94.84h2.15v6.07h-2.15zM83.53 71.81h6.07v2.15h-6.07zM32.45 71.81h6.07v2.15h-6.07zM35.37 85.779l5.211-3.112 1.103 1.846-5.212 3.112zM80.377 84.521l1.102-1.846 5.212 3.112-1.102 1.846zM46.083 47.926l1.777-1.21 3.416 5.019-1.778 1.21zM35.843 59.028l1.103-1.846 5.211 3.111-1.102 1.846zM80.366 61.24l5.212-3.112 1.102 1.846-5.211 3.112zM46.047 96.698l3.494-4.963 1.758 1.237-3.494 4.964zM72.26 91.875l1.757-1.238 3.496 4.963-1.758 1.238zM72.259 52.688l3.495-4.962 1.758 1.238-3.496 4.962z" class="cls-5"/><rect width="2.15" height="19.04" x="61.02" y="55.36" class="cls-1" rx="1.07" ry="1.07"/><rect width="2.15" height="12.11" x="66" y="66.83" class="cls-1" rx=".97" ry=".97" transform="rotate(90 67.08 72.89)"/><circle cx="62.1" cy="72.89" r="2.91" style="fill:#ff6d75;stroke:#000;stroke-miterlimit:10"/></svg>