<svg xmlns="http://www.w3.org/2000/svg" id="Calque_1" data-name="Calque 1" viewBox="0 0 200 128"><defs><style>.cls-1{fill:#b4eac3}.cls-1,.cls-2,.cls-3,.cls-4{stroke:#000}.cls-1,.cls-2,.cls-3{stroke-linecap:round;stroke-linejoin:round}.cls-2{fill:#fff}.cls-3,.cls-4{fill:none}.cls-4{stroke-miterlimit:10}</style></defs><path d="m140.31 93.92 1.97 33.6h4.6l-2.16-39.23 2.16 39.23 11.54.18 7.79-49.18-25.9 15.4zM31.35 40.77l-.58.17-.22-.26c.26.03.53.06.8.08Z" class="cls-2"/><path d="m39.33 41.63-.16.07c-2.38-.31-5.13-.64-7.83-.93h.03s.19-.85.46-1.67c.53 0 3.2.07 4.33.71 1.26.71 3.16 1.82 3.16 1.82ZM43.13 31.7c-1.42 1.95-2.21 3.48-.63 4.84 0 0-1.86.28-2.9-1.21.42-1.26.69-2.64.79-3.31.21-1.37 1.42-1.95 1.53-2.48.1-.53-.58-.79-1.32-1.42-.74-.63-.21-2.16.27-4.21.47-2.06.05-4.27-.27-5.22-.31-.95-1.2-1.75-2.31-.68-1.12 1.06-3.06 4.89-5.17 6.47-2.1 1.58-4.37.53-5.1.16-.74-.37-2.43-1-3.37.48-.95 1.47.84 3.31.84 3.31-.74 2.01-2.48 3.01-2.48 3.01s-4.15-1.9-4.91-6.62c-.01-.09-.03-.18-.04-.28-.24-1.89.06-3.9.77-5.77l.08.03-.06-.09c.36-.93.82-1.83 1.37-2.65h0c1.19-1.83 2.8-3.31 4.64-4.11 4.37-1.9 10-.89 12.16.95 2.16 1.84 2.9 1.28 3.95 1.47 1.05.2 3.74 1.79 3.74 7.96s-.16 7.42-1.58 9.37Z" class="cls-2"/><path d="m18.91 18.8-.08-.03s.01-.04.02-.06l.06.09ZM79.85 90.24c-.86.34-2.26.58-2.86.44 0 0-.14 1.02-2.67-.14 0 0-.81 1.02-2.42.63 0 0-.14.91-2.46-.07-.75-.32-1.3-.59-1.71-.82-.85-.49-1.09-.83-1.28-1.14-.28-.46-3.79-5.83-3.79-5.83h-.08c-.33-.1-1.58-.46-3.31-.95-3.17-.9-7.97-2.22-11.69-3.14h-.01c-3.81-1.04-7.02-1.92-7.67-2.1-.26-.07-.64-.28-1.1-.58-2.55-1.67-7.6-6.22-8.36-6.91 1.05-.29 2.56-.78 4.2-1.61 1.59-.8 3.31-1.92 4.85-3.45l.49.46 3.63 3.36s11.27 5.79 14.11 6.95c2.84 1.16 6.32 3.05 7.58 2.63 1.26-.42 4.55.03 6.53 1.05.59.3 1.18.53 1.77.73l.54.18c1.22.4 2.43.78 3.59 1.62.4.29.79.58 1.14.85 1.31 1.02 2.06 1.84.65 1.68-1.79-.21-3.16-1.37-3.16-1.37l-2.95.21 1.94 2.77 2.27 3.23s2.7.18 2.95.74c.09.2-.23.42-.72.61Z" class="cls-2"/><path d="M62.58 83.28c-.34-.09-1.65-.45-3.48-.95h.16c1.73.49 2.98.85 3.31.95ZM83.78 82.38v7.85c-1.32 0-2.63 0-3.94.01.49-.19.81-.41.72-.61-.25-.55-2.95-.74-2.95-.74l-2.27-3.23-1.94-2.77 2.95-.21s1.37 1.16 3.16 1.37c1.41.17.66-.65-.65-1.68h4.92ZM108.01 82.41v7.74c-7.08.02-14.61.04-22.01.07v-7.84l22.01.03ZM144.4 90.05c-.23 0-3.06 0-7.66.02-6.26.02-15.79.05-26.51.08v-7.73c11.44.02 21.56.03 27.8.04h6.62c1.94.21 1.16 7.58-.25 7.58Z" class="cls-2"/><path d="m15.64 48.34.38.55c.03-.87.29-1.73.72-2.76.23-.54.58-1.2 1-1.89-1.88-2.73-13.07-18.92-14.66-21.02a2.62 2.62 0 0 0-1.43-.98l.34 18.7C14.69 59.4 35.7 89.89 35.7 89.89s.79.47 2.05.47c.44 0 13.32-.04 29.98-.09-.85-.49-1.09-.83-1.28-1.14-.28-.46-3.79-5.83-3.79-5.83h-.08c-.34-.09-1.65-.45-3.48-.95-10.98-.02-18.81-.03-19.81-.03h-.11l-.18-.26-8.62-12.44c-.88.24-1.42.32-1.42.32l-.98-1.35c-2.37-3.26-8.32-11.52-10.08-14.45-.81-1.36-1.34-2.43-1.63-3.38a5.7 5.7 0 0 1-.26-1.87l-.38-.55S7.4 36.35 1.94 28.43" class="cls-2"/><path d="M83.78 50.44v28.21c-.57.16-1.22.3-1.9.42-1.63.17-3.28.35-4.78.51-1.46.09-2.75.13-3.5.14-.59-.2-1.18-.43-1.77-.73-1.98-1.02-5.27-1.47-6.53-1.05-1.26.42-4.74-1.47-7.58-2.63s-14.11-6.95-14.11-6.95L39.98 65l.37-1.38c-.28.32-.57.63-.86.92-1.54 1.53-3.25 2.65-4.85 3.45-1.64.83-3.15 1.33-4.2 1.61-.02 0-.03 0-.05.01-.88.24-1.42.32-1.42.32l-.98-1.35c-2.37-3.26-8.32-11.52-10.08-14.45-.81-1.36-1.34-2.43-1.63-3.38a5.7 5.7 0 0 1-.26-1.87c.03-.87.29-1.73.72-2.76.23-.54.58-1.2 1-1.89 1.67-2.81 4.38-6.32 4.38-6.32s.12.17.4.41h0c.71.64 2.42 1.81 5.6 2.11.79.08 1.61.16 2.44.24l.8.08c2.7.29 5.45.61 7.83.93 1.12.15 2.15.29 3.06.43 3.62.55 3.79 3.58 3.79 3.58s5.37-2.53 14.32-.32 10.95 9.27 10.95 9.27c6.74-4.85 12.32-5.37 12.32-5.37s.06.42.16 1.15Z" class="cls-3"/><path d="M81.88 79.07c-1.53.26-3.25.42-4.78.51 1.51-.16 3.15-.34 4.78-.51ZM39.51 80.92c-.02.49-.1.95-.23 1.39h-.11l-.18-.26-8.62-12.44s.03 0 .05-.01c.76.69 5.81 5.24 8.36 6.91.5 1.55.8 3.07.73 4.41Z" class="cls-2"/><path d="M62.58 83.28c-.34-.09-1.65-.45-3.48-.95-10.98-.02-18.81-.03-19.81-.03h-.11l-.18-.26c.16-.37.33-.76.52-1.13.74-1.46 1.71-2.77 2.82-2.77.73 0 2.74.43 5.22 1.04h.01c3.72.92 8.52 2.25 11.69 3.14 1.73.49 2.98.85 3.31.95Z" class="cls-2"/><path d="M62.58 83.28c-.34-.09-1.65-.45-3.48-.95-3.07-.84-7.62-2.08-11.53-3.14 3.72.92 8.52 2.25 11.69 3.14 1.73.49 2.98.85 3.31.95ZM30.25 48.34l10.09 15.27M42.02 48.66s1.58-2.11 4-2.95M20.22 16.06c-.55.82-1.01 1.72-1.37 2.65l.06.09-.08-.03c-.71 1.87-1.01 3.88-.77 5.77.01.1.03.19.04.28-.01.03-.03.06-.04.09-.52 1-2.58 1.89-4.26-.85-1.69-2.74-.37-4.26-.37-4.26-.95-2.32.84-2.79.84-2.79s-.42-2.11 2.53-2.53c2.82-.4 3.37 1.41 3.42 1.57h0Z" class="cls-2"/><path d="M13.42 19.8s1-2.69 4.32-.26M14.27 17.01s3.23-.56 4.58 1.7l.06.09-.08-.03M39.18 17.48s2.32-1.21 4 3.42c1.69 4.63 1.16 8.32.79 9.37M27.06 29.17s-.68 0-1.58-.74M25.85 25.96s.9.42.9 1.16M83.78 78.86v6.55c-3.23.09-6.11.18-8.43.24l-1.94-2.77 2.95-.21s1.37 1.16 3.16 1.37c1.41.17.66-.65-.65-1.68-.35-.27-.74-.56-1.14-.85-1.16-.84-2.37-1.22-3.59-1.62.88-.09 1.88-.2 2.96-.32 1.51-.16 3.15-.34 4.78-.51.64-.07 1.28-.14 1.9-.2ZM108.01 79.05v5.66c-7.67.23-15.45.45-22.01.64v-6.72c1.29-.14 2.47-.26 3.42-.36 1.21-.12 2.05-.21 2.32-.23.45-.03 2.37.06 4.79.21 2.23.14 4.89.32 7.27.49 1.62.12 3.1.22 4.21.3ZM145.66 80.47c0 .73-.48 1.44-1.02 2.01-.63.65-1.34 1.1-1.51 1.15-.05.02-1.94.08-5.09.18-6.03.19-16.67.51-27.82.84V79.2c1.13 0 8.02-.03 15.16-.05 1.93 0 3.88-.01 5.74-.02h.02c1.73 0 3.38-.01 4.86-.02h1.97c2.35 0 4.02-.01 4.52-.01 2.42 0 3.16-.21 3.16 1.37ZM76.57 90.25l-3.79-3.94M73.97 90.26l-3.56-2.9M71.9 91.17l-3.39-2.75" class="cls-2"/><path d="M153.72 67.3c.07-.03 1.49-.68 1.26.55-.24 1.26-1.98 1.58-1.98 1.58s1.66 0 .16 1.18-4.5 2.29-6.16 2.68c-1.66.4-6.24 3.71-6.48 4.19-.16.32-1.13 1.27-2.55 1.6-.02 0-.04.01-.06.01h0H136h0c-.15-.03-.3-.07-.45-.12a9.84 9.84 0 0 1-.97-.37c-1.93-.85-2.63-1.97-3.46-2.79-.95-.95-5.53-3.08-9.4-3.24-3.76-.15-9.31-1.13-11.5-2.77V57.83c-.12-.15-.23-.29-.34-.43.12-.91.24-1.72.34-2.34.12-.8.21-1.29.21-1.29s1.74 1.19 4.17 2.84c5.28 3.6 13.8 9.39 14.63 9.88.17.1.36.2.58.3 1.36.61 3.56 1.17 4.79 1.44.89.2 1.81.3 2.65.18.5-.07.97-.23 1.38-.49 1.11-.71 7.03-4.42 8.93-4.98 1.9-.55 3.4-2.45 4.03-3.63s1.74-1.5 2.61-.4c.87 1.11.32 2.92-.08 3.16 0 0 1.11-.24 1.26.79.16 1.03-.87 1.66-.87 1.66s1.26.39.79 1.18c-.46.76-1.51 1.53-1.58 1.58ZM137.91 79.11c-.57.13-1.22.16-1.91 0h1.91Z" class="cls-2"/><path d="m134.58 78.62-.06.45-3.38.06h-.02l-5.68.1s-.02-.03-.06-.08c-.23-.32-1.11-1.55-2-2.37-1.03-.95-6.08-2.69-8.53-2.84-1.46-.09-3.35-.75-4.63-1.27v-2.85c2.2 1.65 7.75 2.62 11.5 2.77 3.87.16 8.45 2.29 9.4 3.24.82.82 1.53 1.94 3.46 2.79Z" class="cls-2"/><path d="M167.7 93.76h-32.39l1.42-3.69 1.35-3.5-.04-2.76-.02-1.35-.05-3.35h0c1.42-.35 2.39-1.3 2.55-1.62.24-.47 4.82-3.79 6.48-4.19 1.66-.39 4.66-1.5 6.16-2.68 1.5-1.18-.16-1.18-.16-1.18s1.74-.32 1.98-1.58c.23-1.23-1.19-.59-1.26-.55.07-.05 1.12-.81 1.58-1.58.47-.79-.79-1.18-.79-1.18s1.03-.63.87-1.66c-.16-1.03-1.26-.79-1.26-.79.39-.24.95-2.05.08-3.16-.87-1.11-1.97-.79-2.61.4s-2.13 3.08-4.03 3.63c-1.9.55-7.82 4.27-8.93 4.98-.41.27-.88.42-1.38.49-.88-.81-2.44-2.36-2.73-3.26 0 0-1.7 1.09-4.71 1.64-.22-.1-.42-.2-.58-.3-.83-.49-9.35-6.28-14.63-9.88-2.43-1.65-4.17-2.84-4.17-2.84l-.21 1.29v-3.87l.52-.66s9.72-4.74 10.59-5.29c.87-.55 1.82-1.34 2.68-2.21.7-.7 3.22-2.86 4.15-3.65.3 1.03.71 2.03 1.38 2.78 1.44 1.62 3.32.76 5.95-.66.66.38 1.11.76 1.16 1.14l.21 1.63s6.85-3.12 8.87-7.32c0 0 7.98.71 9.8 4.27 1.82 3.56 5.29 12.01 6.08 15.64.79 3.63.79 5.21 1.11 6 .32.79 4.11 7.66 5.37 16.27 1.26 8.61-.4 14.61-.4 14.61Z" class="cls-1"/><path d="M154.82 44.23s-2.29 13.43-20.3 20.93M142.03 42.57s-5.61 4.42-9.16 7.58-5.37 3.55-5.37 3.55-2.53 0-3.63 2.05l-9.26.87" class="cls-3"/><path d="M134.28 47s-2.11 3.83-3.93 5.25" class="cls-3"/><path d="M136.6 40.92c-.38.21-.75.41-1.11.6-2.62 1.42-4.51 2.28-5.95.66-.67-.75-1.08-1.75-1.38-2.78-.43-1.5-.62-3.07-.99-4.06-.63-1.69.05-1.79.42-2.53.37-.74.89-1.58.89-1.58s2.58 2 5.16 2.63c1.75.43 3.25.3 4.4.7.55.19 1.02.5 1.39 1.04 1.16 1.69.37 3.58-2.84 5.32Z" class="cls-2"/><path d="M128.91 24.33s-1.32 2.37-.16 7.03" class="cls-2"/><path d="M140.36 29.81c-.78.3-2.04.73-2.7.63-1-.16-1.95-1.32-1.95-1.32s-2.42.58-4.05-.48c-1.64-1.05-1.59-4-2.01-4.73 0 0-.37.13-.74.76-.17.28-.33.65-.46 1.16l-.02.11c-.12.48-.21 1.08-.25 1.81 0 0-1.48-.05-2.48-3.53-.76-2.66 1.41-3.66 2.46-3.98.6 1.01 2.51 3.95 5.23 5.51 1.94 1.1 4.58 2.58 6.97 4.06ZM147.12 33.64c-.23-.16-.48-.36-.72-.62.28.18.51.34.68.47.01 0 .02.02.04.03v.13ZM141.69 30.04s-.05.03-.07.04c-.09-.09-.17-.16-.24-.23.1.06.21.13.31.19ZM146.4 33.02c-.44-.29-.99-.64-1.61-1.04.01-.08.01-.15.02-.23.65.43 1.19.83 1.48 1.16l.11.11ZM144.59 32.75s.08.07.13.11c1.13.97 1.89 1.5 2.42 1.73h0l-1.4 2.37s-1.09-1.43-1.86-3.15" class="cls-2"/><path d="M127.81 22.38s1.26-.63 1.84 1.53M134.13 26.38s.11.9 1.58 2.74" class="cls-2"/><path d="m141.4 29.8-.03.04M141.07 30.26l-3.01 4.29-.03.05M139.87 37.81l3.95-3.69" class="cls-3"/><path d="M144.58 32.75c-.15.38-.39.75-.71 1.06-.42.41-1 .74-1.74.89" class="cls-2"/><path d="M141.62 30.08c-.07.06-.12.09-.12.09" class="cls-3"/><path d="M141.84 29.95c-.06.03-.11.06-.15.09-.1-.06-.21-.13-.31-.19h-.01c-.21-.2-.34-.31-.34-.31s-.03.01-.09.04c-.11.05-.32.13-.58.23-2.39-1.48-5.03-2.96-6.97-4.06-2.72-1.56-4.63-4.5-5.23-5.51-.12-.21-.19-.34-.19-.34.89-2.1 1.84-1.52 1.84-1.52s1.01 3.09 1.06 3.16c.73 1.15 6.47 5.47 8.63 6.95.68.46 1.5.96 2.34 1.46ZM148.35 34.23c-.24.44-.54.65-1.21.36-.53-.23-1.29-.76-2.42-1.73-.05-.04-.09-.07-.13-.11.1-.25.16-.51.2-.77.62.4 1.17.75 1.61 1.04.25.26.49.46.72.62.68.48 1.23.59 1.23.59Z" class="cls-2"/><path d="m141.37 29.84-.3.42c-.23-.15-.47-.3-.71-.45.26-.1.47-.18.58-.23.06-.03.09-.04.09-.04s.13.11.34.3ZM141.69 30.04s-.05.03-.07.04c-.09-.09-.17-.16-.24-.23.1.06.21.13.31.19ZM146.4 33.02c-.44-.29-.99-.64-1.61-1.04.01-.08.01-.15.02-.23.65.43 1.19.83 1.48 1.16l.11.11Z" class="cls-2"/><path d="M153.67 29.8c-2.04 4.35-4.39 5.22-6.55 3.72l-.03-.03c-.18-.13-.41-.28-.69-.47l-.11-.11c-.29-.33-.83-.73-1.48-1.16.03-.67-.17-1.33-.57-1.79-.73-.84-1.85-.35-2.4-.01-.84-.5-1.66-1-2.34-1.46-2.16-1.48-7.9-5.8-8.63-6.95-.05-.07-1.06-3.16-1.06-3.16s-.47-1.64 3.06-3.59c3.52-1.94 6.79-2.1 10.16-.52s5 4.37 6.21 5.26c1.22.9 6.48 5.9 4.43 10.27Z" class="cls-1"/><path d="M141.37 29.84c-.14-.09-.29-.17-.43-.26.06-.03.09-.04.09-.04s.13.11.34.3ZM146.4 33.02c-.44-.29-.99-.64-1.61-1.04.01-.08.01-.15.02-.23.65.43 1.19.83 1.48 1.16l.11.11ZM64.3 91l-6.17 28.28M117.06 90.52l6.96 29.86M83.78 6.63h2.21v85.31h-2.21zM108.01 6.63h2.21v85.31h-2.21z" class="cls-2"/><path d="M108.01 6.63v80.06c-3.15.27-16.37.46-22.01-.62V6.63s1.71 1.9 3 1.9 1.16-1.16 2.84-1.16 2.32 1.9 4.32 1.9 2.53-1.9 4.32-1.9 1.79 1.47 3.48 1.47 2.04-2.21 4.06-2.21ZM89.42 10.74v71.09M96.53 10.74v71.09M103.79 10.74v71.09M38.86 34.44c-.06.14-.13.25-.21.32-.52.5-1.35-.4-1.95-.59-.81-.25-2.12.37-2.52-.36a.836.836 0 0 1-.1-.33c-.06-.67.74-1.4 2.26-1.36 1.79.05 3 1.21 2.52 2.32Zm1.74-6.32c-.74-.63-.21-2.16.27-4.21.47-2.06.05-4.27-.27-5.22-.31-.95-1.2-1.75-2.31-.68-1.12 1.06-3.06 4.89-5.17 6.47-2.1 1.58-4.37.53-5.1.16-.74-.37-2.43-1-3.37.48-.95 1.47.84 3.31.84 3.31-.74 2.01-2.48 3.01-2.48 3.01l-.52 6.84.03.05c.36.32.96.77 1.87 1.18.92.41 2.14.78 3.73.93.79.08 1.61.16 2.44.24l.79.09h.04s.19-.86.46-1.67c.25-.78.57-1.53.85-1.5.58.05 3.74.58 5.16.31.72-.13 1.31-1.29 1.74-2.58.42-1.26.69-2.64.79-3.31.21-1.37 1.42-1.95 1.53-2.48.1-.53-.58-.79-1.32-1.42Z" class="cls-2"/><path d="M39.44 25.33s.11-1.11-1.11-1c-1.21.11-1.63-.16-1.9-.9M37.91 25.54s1.05.68 1.11 1.63c0 0-1.11-.95-2.48-.42M38.86 34.44c-.06.14-.13.25-.21.33-.52.49-1.35-.41-1.95-.59-.81-.25-2.12.36-2.53-.37a.748.748 0 0 1-.1-.32c-.06-.67.74-1.41 2.26-1.36 1.79.05 3 1.21 2.53 2.32Z" class="cls-2"/><path d="m142.82 31.48-.43.77" class="cls-3"/><ellipse cx="130.64" cy="31.34" rx=".63" ry=".94"/><path d="m154.11 62.09-1.51.67M154.51 64.54l-1.35.77" class="cls-4"/><path d="m164 27.46-3.71 6.6 7.06 2.72-3.35-9.32z" style="stroke-linecap:round;stroke-linejoin:round;stroke:#000"/><path d="m165.7 32.19 22.48-7.11" class="cls-3"/></svg>