<svg xmlns="http://www.w3.org/2000/svg" id="Calque_1" data-name="Calque 1" viewBox="0 0 128 128"><defs><style>.cls-1{fill:#baa584}.cls-1,.cls-3,.cls-4,.cls-5{stroke:#000;stroke-linecap:round;stroke-linejoin:round;stroke-width:2px}.cls-3{fill:#fff}.cls-4{fill:#f3d587}.cls-5{fill:none}</style></defs><circle cx="104.54" cy="64.08" r="10.58" class="cls-4"/><path d="M104.54 82.93v-5.96M91.22 77.41l4.21-4.21M85.7 64.08h5.95M91.22 50.76l4.21 4.21M104.54 45.24v5.95M117.87 50.76l-4.22 4.21M123.39 64.08h-5.96M117.87 77.41l-4.22-4.21M117.87 77.41l-4.22-4.21M104.54 82.93v-5.96M91.22 77.41l4.21-4.21M85.7 64.08h5.95M91.22 50.76l4.21 4.21M104.54 45.24v5.95M117.87 50.76l-4.22 4.21M123.39 64.08h-5.96" class="cls-5"/><path d="M76.35 29.46a6.794 6.794 0 0 1-6 9.99c-1.92 0-3.66-.8-4.89-2.08a6.787 6.787 0 0 1-4.89 2.08 6.8 6.8 0 0 1-6.8-6.8c0-1.12.27-2.18.75-3.11a6.778 6.778 0 0 1-4.56-6.42 6.8 6.8 0 0 1 8.63-6.55c.43-3.34 3.28-5.92 6.73-5.92s6.31 2.58 6.74 5.92a6.807 6.807 0 0 1 8.63 6.55c0 2.89-1.8 5.35-4.34 6.34Z" style="fill:#fab0b4;stroke:#000;stroke-linecap:round;stroke-linejoin:round;stroke-width:2px"/><circle cx="65.33" cy="26.3" r="4.39" class="cls-4"/><path d="M57.68 95.36s-10.86-.92-7.34 11.47 15.13 10.4 15.13 10.4-5.34-4.59-2.9-13.46c2.45-8.87-4.89-8.41-4.89-8.41Z" class="cls-1"/><path d="M65.47 117.23s-15.57-10.05-4.72-29.48" class="cls-5"/><path d="m55.27 114.62 2.72-7.3 3.97 1.83M50.34 106.83l6.58-6.61 5.65 3.55" class="cls-5"/><path d="M72.98 86.43s10.86-.92 7.34 11.47-15.13 10.4-15.13 10.4 5.34-4.59 2.9-13.46c-2.45-8.87 4.89-8.41 4.89-8.41Z" class="cls-1"/><path d="M65.19 108.3s15.57-10.05 4.72-29.48" class="cls-5"/><path d="m75.38 105.7-2.71-7.31-3.97 1.83M80.31 97.9l-6.58-6.61-5.65 3.55" class="cls-5"/><circle cx="13.58" cy="75.77" r="1.63" class="cls-3"/><circle cx="23.84" cy="75.77" r="1.63" class="cls-3"/><circle cx="34.09" cy="75.77" r="1.63" class="cls-3"/><circle cx="18.95" cy="80.96" r="1.63" class="cls-3"/><circle cx="28.72" cy="80.96" r="1.63" class="cls-3"/><path d="M37.02 53.06a9.86 9.86 0 0 0-17.63-3.3c-.58-.14-1.19-.2-1.8-.2-3.89 0-7.15 2.63-8.12 6.21a8.402 8.402 0 0 0-4.85 7.62 8.42 8.42 0 0 0 8.42 8.42l19.36-.17c5.44 0 9.86-4.41 9.86-9.86 0-3.78-2.12-7.06-5.23-8.71Z" style="fill:#bfe6fc;stroke:#000;stroke-linecap:round;stroke-linejoin:round;stroke-width:2px"/><path d="M28.72 37.95s1.05-8.25 12.83-11.09" class="cls-5"/><path d="m37.7 36.85-1.74-1 4.92-8.55-8.89-4.27.87-1.81 10.82 5.21-5.98 10.42z"/><path d="M88.2 24.71s8.25 1.05 11.09 12.83" class="cls-5"/><path d="m89.31 33.69.99-1.73 8.55 4.91 4.28-8.89 1.8.87-5.21 10.82-10.41-5.98z"/><path d="M99.72 90.04s-1.05 8.25-12.83 11.09" class="cls-5"/><path d="m90.74 91.15 1.74.99-4.91 8.55 8.88 4.28-.86 1.8-10.83-5.21 5.98-10.41z"/><path d="M40.24 103.28s-8.25-1.05-11.09-12.83" class="cls-5"/><path d="m39.13 94.3-.99 1.74-8.55-4.91-4.28 8.88-1.8-.86 5.21-10.83 10.41 5.98z"/></svg>