<svg xmlns="http://www.w3.org/2000/svg" id="Calque_1" data-name="Calque 1" viewBox="0 0 200 128"><defs><style>.cls-1,.cls-2,.cls-3,.cls-5,.cls-6,.cls-7{stroke:#000;stroke-linecap:round;stroke-linejoin:round}.cls-1,.cls-5{fill:#b4eac3}.cls-2,.cls-6{fill:#bfe6fc}.cls-3,.cls-7{fill:none}.cls-5,.cls-6,.cls-7{stroke-width:2px}</style></defs><path d="M59.86 40.82V27.58h17.33v4.39s-6.24-2.06-9.82 1.8c-3.58 3.86-3.58 7.05-3.58 7.05h-3.93Z" style="fill:#bfe6fc"/><path d="M11.53 81.1v9.56c0 5.04 2.35 9.52 6.03 12.42.92.73 1.93 1.36 3.01 1.87 2.05.98 4.35 1.53 6.78 1.53h42.47c2.06 0 4.03-.4 5.84-1.12 1.12-.44 2.17-1 3.14-1.67 4.13-2.86 6.84-7.62 6.84-13.02v-9.56H11.53Z" class="cls-6"/><path d="M16.39 89.03c0 7.24 5.87 13.11 13.11 13.11" class="cls-3"/><rect width="82.8" height="5.49" x="7.23" y="75.61" class="cls-6" rx="2.75" ry="2.75" transform="rotate(-180 48.625 78.355)"/><path d="M43.1 44.54c0-4.01-4.21-7.26-9.4-7.26s-9.41 3.25-9.41 7.26H43.1ZM75.67 105.36l4.32 6.33c.55.8 1.66 1.02 2.46.46a1.755 1.755 0 0 0 .46-2.45l-4.1-6.01c-.97.67-2.02 1.24-3.14 1.67ZM12.74 110.69c0 .57.27 1.12.77 1.46.81.56 1.91.34 2.46-.46l4.6-6.74c-1.08-.51-2.09-1.14-3.01-1.87l-4.51 6.61c-.21.31-.31.65-.31.99Z" class="cls-6"/><path d="M34.09 63.46v-4M34.09 51.59v-4M27.65 63.46v-4M27.65 51.59v-4M40.1 63.46v-4M40.1 51.59v-4M37.1 67.59v-4M37.1 55.72v-4M30.96 67.59v-4M30.96 55.72v-4" class="cls-3"/><path d="M11.52 33.51v42.1M33.69 33.51v3.13M33.69 33.51c0-4.33-3.55-7.88-7.88-7.88H19.4c-2.16 0-4.13.89-5.56 2.32a7.839 7.839 0 0 0-2.32 5.56" class="cls-7"/><path d="M136.87 64.93v3.36c0 4.19-3.4 7.59-7.59 7.59h-20.45c-4.19 0-7.59-3.4-7.59-7.59v-3.36h35.64Z" class="cls-6"/><rect width="39.86" height="2.98" x="99.12" y="61.95" class="cls-6" rx="1.36" ry="1.36"/><path d="M112.63 59.14v2.81h-4.34v-2.81z" class="cls-2"/><path d="M111.75 57.21v1.93h-2.57v-1.93z" class="cls-3"/><path d="M114.05 57.21h-7.17" class="cls-7"/><path d="M128.63 59.14v2.81h-4.34v-2.81z" class="cls-2"/><path d="M127.75 57.21v1.93h-2.57v-1.93z" class="cls-3"/><path d="M130.05 57.21h-7.17" class="cls-7"/><path d="M129.13 42.76v-.09c-.05-2.48-2.07-4.47-4.56-4.47s-4.52 1.99-4.57 4.47v.09" class="cls-3"/><path d="M129.13 42.76v-.09c-.05-2.48-2.07-4.47-4.56-4.47s-4.52 1.99-4.57 4.47v.09" class="cls-3"/><path d="M132.02 42.67v4.65h-2.9v-4.65c-.05-2.48-2.07-4.47-4.56-4.47s-4.52 1.99-4.57 4.47v19.28h-2.9V42.67a7.46 7.46 0 0 1 14.92 0Z" class="cls-6"/><path d="M127.98 47.32h5.19v2.3h-5.19zM122.88 79.78v3.51c0 2.08-1.7 3.77-3.77 3.77h-.1a3.78 3.78 0 0 1-3.77-3.77v-3.51" class="cls-6"/><path d="M124.94 75.88v2.85c0 .58-.47 1.05-1.05 1.05h-9.68c-.58 0-1.05-.47-1.05-1.05v-2.85h11.78Z" class="cls-7"/><path d="M117.1 75.88h3.92v3.9h-3.92z" class="cls-3"/><path d="M130.64 51.72s-1.35 2.75-.03 2.76.03-2.76.03-2.76Z" style="fill:#87ccf3;stroke:#87ccf3;stroke-width:.75px;stroke-linecap:round;stroke-linejoin:round"/><path d="M151.15 37.66c.24 2.22 2.01 3.96 4.13 3.96h31.28c2.12 0 3.88-1.74 4.12-3.96M152.35 35.02c0 .89-.72 1.62-1.61 1.64h-.04c-.91 0-1.63-.74-1.63-1.64s.73-1.64 1.63-1.64c.04 0 .06 0 .09.01.86.04 1.55.76 1.55 1.63ZM192.77 35.02c0 .91-.74 1.64-1.64 1.64h-.04c-.89-.02-1.6-.75-1.6-1.64s.68-1.6 1.54-1.63c.04-.01.06-.01.1-.01.91 0 1.64.74 1.64 1.64Z" class="cls-7"/><path d="M158.3 39.64h24.83c2.26 0 4.09 1.83 4.09 4.09v41.13c0 .39-.32.71-.71.71h-31.57c-.39 0-.71-.32-.71-.71V43.73c0-2.26 1.83-4.09 4.09-4.09Z" style="stroke-width:2px;fill:#afaff9;stroke-linecap:round;stroke-linejoin:round;stroke:#000"/><path d="M154.22 81.28h33M156.59 81.28v4.29M158.48 81.28v4.29M160.36 81.28v4.29M162.24 81.28v4.29M164.13 81.28v4.29M166.01 81.28v4.29M167.89 81.28v4.29M169.78 81.28v4.29M171.66 81.28v4.29M173.54 81.28v4.29M175.43 81.28v4.29M177.31 81.28v4.29M179.19 81.28v4.29M181.08 81.28v4.29M182.96 81.28v4.29M184.84 81.28v4.29" class="cls-3"/><path d="M57.89 25.63H97.5v17.13H57.89z" class="cls-7"/><path d="M71.02 25.63v17.13M84.37 25.63v17.13M97.5 34.19H57.89" class="cls-3"/><path d="M131.16 106.48v5.45h-11.61v-.67c0-2.62 2.16-4.78 4.78-4.78h6.83Z" class="cls-1"/><path d="M120.04 111.93h18.09" class="cls-5"/><path d="M108.35 106.48v5.45H96.74v-.67c0-2.62 2.16-4.78 4.78-4.78h6.83Z" class="cls-1"/><path d="M97.24 111.93h18.09" class="cls-5"/><path d="M-1082.66-1718.48h2244.45v5948.74h-2244.45z" style="stroke:#fff;stroke-width:8px;fill:none;stroke-linecap:round;stroke-linejoin:round"/></svg>