<svg xmlns="http://www.w3.org/2000/svg" id="Calque_1" data-name="Calque 1" viewBox="0 0 128 128"><defs><linearGradient id="Dégradé_sans_nom_20" x1="-4.14" x2="45.38" y1="-56.77" y2="-56.77" data-name="Dégradé sans nom 20" gradientTransform="translate(25.06 95.32)" gradientUnits="userSpaceOnUse"><stop offset="0" stop-color="#dfb6c8"/><stop offset=".17" stop-color="#d4bbce"/><stop offset=".46" stop-color="#b9cade"/><stop offset=".56" stop-color="#aed0e5"/><stop offset=".57" stop-color="#afcfe3"/><stop offset=".73" stop-color="#c8c1d4"/><stop offset=".88" stop-color="#d6b9cb"/><stop offset="1" stop-color="#dcb7c8"/></linearGradient><linearGradient id="Dégradé_sans_nom_30" x1="-4.07" x2="35.62" y1="-73.24" y2="-73.24" data-name="Dégradé sans nom 30" gradientTransform="rotate(-17.47 343.302 -90.654)" gradientUnits="userSpaceOnUse"><stop offset="0" stop-color="#dc87a1"/><stop offset=".08" stop-color="#d587a1"/><stop offset=".19" stop-color="#c487a4"/><stop offset=".32" stop-color="#a787a8"/><stop offset=".46" stop-color="#7f87ae"/><stop offset=".61" stop-color="#4c87b6"/><stop offset=".77" stop-color="#0e87bf"/><stop offset=".78" stop-color="#0987c0"/><stop offset="1" stop-color="#dc87a1"/></linearGradient><linearGradient id="Dégradé_sans_nom_4" x1="36.65" x2="36.65" y1="73.61" y2="95.09" data-name="Dégradé sans nom 4" gradientUnits="userSpaceOnUse"><stop offset="0" stop-color="#cfffd1"/><stop offset="1" stop-color="#bfdadc"/></linearGradient><style>.cls-1{stroke-width:.69px}.cls-1,.cls-10,.cls-11,.cls-3,.cls-4,.cls-5,.cls-6,.cls-7{stroke:#000}.cls-1,.cls-10,.cls-11,.cls-17,.cls-3,.cls-4,.cls-5,.cls-6{stroke-linejoin:round}.cls-1,.cls-17,.cls-3,.cls-4,.cls-5,.cls-6{stroke-linecap:round}.cls-1,.cls-10,.cls-11,.cls-17,.cls-5,.cls-6{fill:none}.cls-19,.cls-3,.cls-4{fill:#fff}.cls-22{fill:#c4708c}.cls-23{fill:#175365}.cls-25{fill:#2f6294}.cls-26{fill:#5f485a}.cls-10,.cls-11,.cls-3,.cls-4,.cls-5,.cls-6{stroke-width:.52px}.cls-7{fill:#e5e5e5;stroke-miterlimit:10}.cls-32{font-family:IBMPlexSerif,IBMPlexSerif;font-size:1.35px}.cls-17{stroke:#ff6d75;stroke-width:3px}.cls-33{letter-spacing:-.01em}</style></defs><rect width="53.44" height="37.33" x="18.66" y="19.07" class="cls-7" rx="3.04" ry="3.04" transform="rotate(-17.47 45.397 37.754)"/><path d="m64.29 15.58 9.28 29.49c.3.94-.23 1.94-1.17 2.24L28.71 61.06c-.94.3-1.94-.23-2.24-1.17L17.19 30.4c-.04-.13-.06-.26-.08-.38l.56 1.77 37.85-11.92-.98-3.11 7.5-2.36c.94-.3 1.94.23 2.24 1.17Z" style="fill:#e3d3dc"/><path d="M20.92 23.71h49.44v29.68H20.92z" style="fill:url(#Dégradé_sans_nom_20)" transform="rotate(-17.47 45.64 38.557)"/><path d="M72.4 47.31 28.61 61.1c-.94.3-1.89-.24-2.19-1.18l13.63-3.35 19.42-6.44 14.1-5.05c.3.94-.23 1.94-1.17 2.24Z" class="cls-19"/><path d="m40.56 56.07-14.14 3.81-5.7-18.15 13.94-4.38 5.9 18.72z" class="cls-19"/><path d="m64.8 21.52.3-.36.05.15-.23.27.34.09.04.14-.45-.13-.32.38-.05-.15.25-.28-.37-.09-.04-.14.47.13ZM65.02 22.22l.3-.36.05.15-.23.27.34.09.04.14-.45-.13-.32.38-.05-.15.25-.28-.37-.09-.04-.14.47.13ZM65.25 22.93l.3-.36.05.15-.23.27.34.09.04.14-.45-.13-.32.38-.05-.15.25-.28-.37-.09-.04-.14.47.13ZM65.47 23.64l.3-.36.05.15-.23.27.34.09.04.14-.45-.13-.32.38-.05-.15.25-.28-.37-.09-.04-.14.47.13ZM65.69 24.35l.3-.36.05.15-.23.27.34.09.04.14-.45-.13-.32.38-.05-.15.25-.28-.37-.09-.04-.14.47.13ZM65.92 25.06l.3-.36.05.15-.23.27.34.09.04.14-.45-.13-.32.38-.05-.15.25-.28-.37-.09-.04-.14.47.13ZM66.14 25.76l.3-.36.05.15-.23.27.34.09.04.14-.45-.13-.32.38-.05-.15.25-.28-.37-.09-.04-.14.47.13ZM66.36 26.47l.3-.36.05.15-.23.27.34.09.04.14-.45-.13-.32.38-.05-.15.25-.28-.37-.09-.04-.14.47.13ZM66.58 27.18l.3-.36.05.15-.23.27.34.09.04.14-.45-.13-.32.38-.05-.15.25-.28-.37-.09-.04-.14.47.13ZM66.81 27.89l.3-.36.05.15-.23.27.34.09.04.14-.45-.13-.32.38-.05-.15.25-.28-.37-.09-.04-.14.47.13ZM66.83 28.39l.12-.04.1.31-.12.04-.1-.31ZM67.15 28.96l.3-.36.05.15-.23.27.34.09.04.14-.45-.13-.32.38-.05-.15.25-.28-.37-.09-.04-.14.47.13ZM67.37 29.67l.3-.36.05.15-.23.27.34.09.04.14-.45-.13-.32.38-.05-.15.25-.28-.37-.09-.04-.14.47.13ZM66.94 30.29h1.08l.03.1h-1.08l-.03-.1ZM67.74 30.84l.3-.36.05.15-.23.27.34.09.04.14-.45-.13-.32.38-.05-.15.25-.28-.37-.09-.04-.14.47.13ZM67.96 31.55l.3-.36.05.15-.23.27.34.09.04.14-.45-.13-.32.38-.05-.15.25-.28-.37-.09-.04-.14.47.13ZM67.54 32.17h1.08l.03.1h-1.08l-.03-.1ZM68.33 32.72l.3-.36.05.15-.23.27.34.09.04.14-.45-.13-.32.38-.05-.15.25-.28-.37-.09-.04-.14.47.13ZM68.55 33.43l.3-.36.05.15-.23.27.34.09.04.14-.45-.13-.32.38-.05-.15.25-.28-.37-.09-.04-.14.47.13ZM68.77 34.13l.3-.36.05.15-.23.27.34.09.04.14-.45-.13-.32.38-.05-.15.25-.28-.37-.09-.04-.14.47.13ZM69 34.84l.3-.36.05.15-.23.27.34.09.04.14-.45-.13-.32.38-.05-.15.25-.28-.37-.09-.04-.14.47.13ZM36.29 28.42l.13-.53-.37-.33.11-.03.2.18.09.09c0-.03.01-.07.02-.11l.07-.27.1-.03-.12.48.41.37-.11.04-.27-.25-.05-.05c0 .04-.01.06-.01.07l-.08.35-.11.03ZM36.98 28.2l.13-.53-.37-.33.11-.03.2.18.09.09c0-.03.01-.07.02-.11l.07-.27.1-.03-.12.48.41.37-.11.04-.27-.25-.05-.05c0 .04-.01.06-.01.07l-.08.35-.11.04ZM37.67 27.98l.13-.53-.37-.33.11-.03.2.18.09.09c0-.03.01-.07.03-.11l.07-.27.1-.03-.12.48.41.37-.11.04-.27-.25-.05-.05c0 .04-.01.06-.01.07l-.08.35-.11.04ZM38.36 27.77l.13-.53-.37-.33.11-.03.2.18.09.09c0-.03.01-.07.03-.11l.07-.27.1-.03-.12.48.41.37-.11.04-.27-.25-.05-.05c0 .04-.01.06-.01.07l-.08.35-.11.04ZM39.05 27.55l.13-.53-.37-.33.11-.03.2.18.09.09c0-.03.01-.07.03-.11l.07-.27.1-.03-.12.48.41.37-.11.04-.27-.25-.05-.05c0 .04-.01.06-.01.07l-.08.35-.11.04ZM39.74 27.33l.13-.53-.37-.33.11-.04.2.18.09.09c0-.03.01-.07.02-.11l.07-.27.1-.03-.12.48.41.37-.11.04-.27-.25-.05-.05c0 .04-.01.06-.01.07l-.08.35-.11.04ZM40.42 27.12l.13-.53-.37-.33.11-.03.2.18.09.09c0-.03.01-.07.02-.11l.07-.27.1-.03-.12.48.41.37-.11.04-.27-.25-.05-.05c0 .04-.01.06-.01.07l-.08.35-.11.04ZM41.11 26.9l.13-.53-.37-.33.11-.03.2.18.09.09c0-.03.01-.07.03-.11l.07-.27.1-.03-.12.48.41.37-.11.04-.27-.25-.05-.05c0 .04-.01.06-.01.08l-.08.35-.11.04ZM41.8 26.68l.13-.53-.37-.33.11-.03.2.18.09.09c0-.03.01-.07.03-.11l.07-.27.1-.03-.12.48.41.37-.11.04-.27-.25-.05-.05c0 .04-.01.06-.01.07l-.08.35-.11.04ZM42.49 26.47l.13-.53-.37-.33.11-.03.2.18.09.09c0-.03.01-.07.03-.11l.07-.27.1-.03-.12.48.41.37-.11.04-.27-.25-.05-.05c0 .04-.01.06-.01.07l-.08.35-.11.04ZM56.61 18.22l.13-.53-.37-.33.11-.03.2.18.09.09c0-.03.01-.07.03-.11l.07-.27.1-.03-.12.48.41.37-.11.04-.27-.25-.05-.05c0 .04-.01.06-.01.08l-.08.35-.11.04ZM57.3 18l.13-.53-.37-.33.11-.03.2.18.09.09c0-.03.01-.07.03-.11l.07-.27.1-.03-.12.48.41.37-.11.04-.27-.25-.05-.05c0 .04-.01.06-.01.08l-.08.35-.11.04ZM57.99 17.78l.13-.53-.37-.33.11-.03.2.18.09.09c0-.03.01-.07.02-.11l.07-.27.1-.03-.12.48.41.37-.11.04-.27-.25-.05-.05c0 .04-.01.06-.01.08l-.08.35-.11.04ZM58.68 17.57l.13-.53-.37-.33.11-.03.2.18.09.09c0-.03.01-.07.02-.11l.07-.27.1-.03-.12.48.41.37-.11.04-.27-.25-.05-.05c0 .04-.01.06-.01.08l-.08.35-.11.04ZM59.37 17.35l.13-.53-.37-.33.11-.03.2.18.09.09c0-.03.01-.07.02-.11l.07-.27.1-.03-.12.48.41.37-.11.04-.27-.25-.05-.05c0 .04-.01.06-.01.08l-.08.35-.11.04ZM60.06 17.13l.13-.53-.37-.33.11-.03.2.18.09.09c0-.03.01-.07.03-.11l.07-.27.1-.03-.12.48.41.37-.11.04-.27-.25-.05-.05c0 .04-.01.06-.01.08l-.08.35-.11.04ZM60.75 16.92l.13-.53-.37-.33.11-.03.2.18.09.09c0-.03.01-.07.03-.11l.07-.27.1-.03-.12.48.41.37-.11.04-.27-.25-.05-.05c0 .04-.01.06-.01.08l-.08.35-.11.04ZM61.44 16.7l.13-.53-.37-.33.11-.03.2.18.09.09c0-.03.01-.07.02-.11l.07-.27.1-.03-.12.48.41.37-.11.04-.27-.25-.05-.05c0 .04-.01.06-.01.08l-.08.35-.11.04ZM62.12 16.48l.13-.53-.37-.33.11-.04.2.18.09.09c0-.03.01-.07.02-.11l.07-.27.1-.03-.12.48.41.37-.11.04-.27-.25-.05-.05c0 .04-.01.06-.01.08l-.08.35-.11.04Z"/><path d="m33.25 29.38-.27-.86.14-.04.47.48-.18-.57.13-.04.27.86-.14.04-.46-.47.18.56-.13.04ZM33.83 28.73c-.03-.1-.04-.19-.03-.27 0-.07.03-.14.07-.18.04-.05.09-.08.16-.1.1-.03.19-.02.28.04.09.06.15.16.2.3.04.14.05.27 0 .37-.04.09-.1.15-.21.18-.1.03-.19.02-.27-.03a.517.517 0 0 1-.2-.3Zm.14-.05c.03.1.07.17.13.2.05.04.11.05.16.03.06-.02.09-.06.12-.12.02-.06.02-.14-.02-.24-.03-.1-.07-.17-.12-.2-.05-.04-.1-.04-.16-.03a.18.18 0 0 0-.12.12.4.4 0 0 0 .01.24ZM34.79 28.89l-.27-.86.21-.07.31.54-.06-.62.21-.07.27.86-.13.04-.21-.67.07.72-.14.04-.35-.63.21.67-.13.04ZM35.77 28.08l-.05-.16.13-.04.05.16-.13.04Zm.14.46-.05-.16.13-.04.05.16-.13.04Z" class="cls-25"/><path d="m39.37 30.05.13-.53-.37-.33.11-.03.2.18.09.09c0-.03.01-.07.03-.11l.07-.27.1-.03-.12.48.41.37-.11.04-.27-.25-.05-.05c0 .04-.01.06-.01.08l-.08.35-.11.04ZM40.06 29.83l.13-.53-.37-.33.11-.04.2.18.09.09c0-.03.01-.07.03-.11l.07-.27.1-.03-.12.48.41.37-.11.04-.27-.25-.05-.05c0 .04-.01.06-.01.08l-.08.35-.11.03ZM40.75 29.61l.13-.53-.37-.33.11-.03.2.18.09.09c0-.03.01-.07.03-.11l.07-.27.1-.03-.12.48.41.37-.11.04-.27-.25-.05-.05c0 .04-.01.06-.01.08l-.08.35-.11.04ZM41.44 29.39l.13-.53-.37-.33.11-.03.2.18.09.09c0-.03.01-.07.02-.11l.07-.27.1-.03-.12.48.41.37-.11.04-.27-.25-.05-.05c0 .04-.01.06-.01.08l-.08.35-.11.04ZM42.13 29.18l.13-.53-.37-.33.11-.03.2.18.09.09c0-.03.01-.07.02-.11l.07-.27.1-.03-.12.48.41.37-.11.04-.27-.25-.05-.05c0 .04-.01.06-.01.08l-.08.35-.11.04ZM42.82 28.96l.13-.53-.37-.33.11-.03.2.18.09.09c0-.03.01-.07.02-.11l.07-.27.1-.03-.12.48.41.37-.11.04-.27-.25-.05-.05c0 .04-.01.06-.01.08l-.08.35-.11.04ZM43.51 28.74l.13-.53-.37-.33.11-.04.2.18.09.09c0-.03.01-.07.03-.11l.07-.27.1-.03-.12.48.41.37-.11.04-.27-.25-.05-.05c0 .04-.01.06-.01.08l-.08.35-.11.04ZM44.2 28.53l.13-.53-.37-.33.11-.03.2.18.09.09c0-.03.01-.07.03-.11l.07-.27.1-.03-.12.48.41.37-.11.04-.27-.25-.05-.05c0 .04-.01.06-.01.08l-.08.35-.11.04ZM44.89 28.31l.13-.53-.37-.33.11-.03.2.18.09.09c0-.03.01-.07.02-.11l.07-.27.1-.03-.12.48.41.37-.11.04-.27-.25-.05-.05c0 .04-.01.06-.01.08l-.08.35-.11.04ZM45.58 28.09l.13-.53-.37-.33.11-.03.2.18.09.09c0-.03.01-.07.02-.11l.07-.27.1-.03-.12.48.41.37-.11.04-.27-.25-.05-.05c0 .04-.01.06-.01.08l-.08.35-.11.04Z"/><path d="m34.06 31.72-.27-.85.23-.07c.08-.03.14-.04.17-.04.05 0 .09.02.13.05.04.03.07.09.09.15.02.06.02.12.01.17-.01.05-.03.09-.06.11-.03.03-.09.06-.17.08l-.09.03.1.32-.14.04Zm-.08-.75.08.24.08-.02c.05-.02.09-.03.1-.04s.03-.03.03-.05v-.08c0-.03-.02-.05-.04-.07s-.04-.02-.06-.02c-.02 0-.06 0-.12.03l-.07.02ZM34.75 31.5l-.27-.85.3-.09c.08-.02.13-.03.17-.03.04 0 .07.02.11.05.03.03.06.07.08.13.02.07.02.12 0 .18s-.06.09-.11.12c.04.01.07.03.1.05.03.02.07.06.12.11l.14.14-.17.05-.16-.15c-.06-.06-.1-.09-.11-.1-.02-.01-.04-.02-.05-.02-.02 0-.04 0-.07.01h-.03l.11.37-.14.04Zm-.01-.54.11-.03c.06-.02.1-.04.12-.05.02-.01.03-.03.03-.05v-.07c0-.03-.02-.05-.04-.06-.02-.01-.03-.02-.05-.02-.01 0-.05 0-.12.03l-.11.04.07.22ZM35.49 31.27l-.27-.85.52-.16.05.14-.38.12.06.19.35-.11.05.14-.35.11.07.23.39-.12.05.14-.53.17Zm-.11-.97v-.19l.16-.05-.08.22-.09.03ZM36.18 31.05l-.27-.85.14-.04.47.48-.18-.57.13-.04.27.85-.14.04-.46-.47.18.56-.13.04ZM36.76 30.4c-.03-.1-.04-.19-.03-.27 0-.07.03-.14.07-.18.04-.05.09-.08.16-.1.1-.03.19-.02.28.04.09.06.15.16.2.3.04.14.05.27 0 .37-.04.09-.1.15-.21.18-.1.03-.19.02-.27-.03a.517.517 0 0 1-.2-.3Zm.14-.05c.03.1.07.17.13.2s.11.05.16.03c.06-.02.09-.06.12-.12.02-.06.02-.14-.02-.24-.03-.1-.07-.17-.12-.2-.05-.04-.1-.04-.16-.03s-.1.06-.12.12c-.02.06-.02.14.02.24ZM37.72 30.57l-.27-.85.21-.07.31.54-.06-.62.21-.07.27.85-.13.04-.21-.67.07.72-.14.04-.35-.63.21.67-.13.04ZM38.7 29.76l-.05-.16.13-.04.05.16-.13.04Zm.14.46-.05-.16.13-.04.05.16-.13.04Z" class="cls-25"/><path d="m35.24 35.59.13-.53-.37-.33.11-.03.2.18.09.09c0-.03.01-.07.03-.11l.07-.27.1-.03-.12.48.41.37-.11.04-.27-.25-.05-.05c0 .04-.01.06-.01.07l-.08.35-.11.04ZM35.93 35.37l.13-.53-.37-.33.11-.03.2.18.09.09c0-.03.01-.07.03-.11l.07-.27.1-.03-.12.48.41.37-.11.04-.27-.25-.05-.05c0 .04-.01.06-.01.07l-.08.35-.11.04ZM36.62 35.16l.13-.53-.37-.33.11-.03.2.18.09.09c0-.03.01-.07.03-.11l.07-.27.1-.03-.12.48.41.37-.11.04-.27-.25-.05-.05c0 .04-.01.06-.01.07l-.08.35-.11.04ZM37.31 34.94l.13-.53-.37-.33.11-.04.2.18.09.09c0-.03.01-.07.02-.11l.07-.27.1-.03-.12.48.41.37-.11.04-.27-.25-.05-.05c0 .04-.01.06-.01.07l-.08.35-.11.04ZM38 34.72l.13-.53-.37-.33.11-.03.2.18.09.09c0-.03.01-.07.02-.11l.07-.27.1-.03-.12.48.41.37-.11.04-.27-.25-.05-.05c0 .04-.01.06-.01.07l-.08.35-.11.04ZM38.69 34.51l.13-.53-.37-.33.11-.03.2.18.09.09c0-.03.01-.07.02-.11l.07-.27.1-.03-.12.48.41.37-.11.04-.27-.25-.05-.05c0 .04-.01.06-.01.07l-.08.35-.11.04ZM39.38 34.29l.13-.53-.37-.33.11-.03.2.18.09.09c0-.03.01-.07.03-.11l.07-.27.1-.03-.12.48.41.37-.11.04-.27-.25-.05-.05c0 .04-.01.06-.01.07l-.08.35-.11.04ZM40.06 34.07l.13-.53-.37-.33.11-.03.2.18.09.09c0-.03.01-.07.03-.11l.07-.27.1-.03-.12.48.41.37-.11.04-.27-.25-.05-.05c0 .04-.01.06-.01.07l-.08.35-.11.04ZM40.75 33.86l.13-.53-.37-.33.11-.03.2.18.09.09c0-.03.01-.07.02-.11l.07-.27.1-.03-.12.48.41.37-.11.04-.27-.25-.05-.05c0 .04-.01.06-.01.07l-.08.35-.11.04ZM41.44 33.64l.13-.53-.37-.33.11-.03.2.18.09.09c0-.03.01-.07.02-.11l.07-.27.1-.03-.12.48.41.37-.11.04-.27-.25-.05-.05c0 .04-.01.06-.01.07l-.08.35-.11.04Z"/><path d="m34.95 33.93-.52-.78.15-.05.38.58-.03-.69.15-.05.02.93-.15.05ZM36.02 33.59l-.15.05-.12-.17-.28.09v.21l-.15.05v-.94l.15-.05.55.77Zm-.37-.26-.2-.29v.35l.2-.06ZM36.14 33.55l-.27-.85.14-.04.22.7.35-.11.05.14-.49.16ZM37.4 33.15l-.15.05-.12-.17-.28.09v.21l-.15.05v-.94l.15-.05.55.77Zm-.37-.26-.2-.29v.35l.2-.06ZM37.24 32.27l.28-.09c.08-.02.13-.03.17-.03.04 0 .07.02.1.05.03.03.06.07.07.11.01.04.02.08 0 .12 0 .04-.02.07-.05.1.05 0 .09.02.12.05.04.03.06.07.08.12.02.06.02.12 0 .17-.02.05-.04.09-.08.11-.03.02-.09.04-.19.07l-.24.07-.27-.85Zm.19.1.06.2.09-.03c.06-.02.09-.03.1-.04a.12.12 0 0 0 .05-.05v-.07c0-.03-.02-.04-.04-.06s-.03-.02-.05-.02c-.02 0-.06.01-.14.04l-.08.03Zm.11.34.07.23.13-.04c.06-.02.09-.03.11-.04.01-.01.02-.03.03-.05v-.07c0-.03-.02-.05-.04-.06-.02-.01-.04-.02-.06-.02-.02 0-.06 0-.12.03l-.11.04ZM38.26 32.89l-.27-.85.14-.04.22.7.35-.11.05.14-.49.16ZM38.89 32.69l-.27-.85.52-.16.04.14-.38.12.06.19.35-.11.04.14-.35.11.07.23.39-.12.05.14-.53.17ZM39.87 31.44l.14-.04.17.54c.03.09.04.16.04.2 0 .05-.02.09-.05.12a.36.36 0 0 1-.12.08c-.07.02-.13.01-.18-.02s-.09-.1-.12-.19l.13-.06.05.1c.02.02.05.03.08.02s.05-.03.06-.05c0-.03 0-.07-.02-.15l-.17-.55ZM40.19 31.34l.14-.04.15.46c.02.07.04.12.05.14.02.04.04.06.07.07.03.01.06.01.1 0 .03-.01.06-.03.07-.05.02-.02.02-.05.02-.07a.61.61 0 0 0-.04-.17l-.15-.47.14-.04.14.45c.04.11.06.2.06.25s-.01.11-.04.15c-.03.05-.08.08-.15.1-.07.02-.13.03-.18.01a.2.2 0 0 1-.12-.08c-.03-.04-.07-.13-.11-.25l-.14-.46ZM41.08 31.69l.13-.06c.05.1.12.14.2.12a.16.16 0 0 0 .09-.07c.02-.03.02-.06.01-.09 0-.02-.02-.04-.03-.05a.076.076 0 0 0-.05-.02h-.14c-.07 0-.12 0-.15-.02a.18.18 0 0 1-.09-.06.207.207 0 0 1-.06-.1c-.01-.05-.02-.09 0-.14 0-.04.03-.08.06-.11s.07-.05.13-.07c.08-.03.15-.02.21 0 .06.03.1.09.13.17l-.14.05s-.04-.07-.07-.08a.17.17 0 0 0-.1 0c-.04.01-.07.03-.08.05s-.02.05-.01.07.02.04.05.05c.02 0 .07.01.15.01.08 0 .14 0 .17.02.04.01.07.04.1.07.03.03.05.07.07.12.02.07.02.14 0 .21-.03.07-.09.11-.19.14-.17.05-.3-.01-.38-.2ZM42.43 31.45s.09.03.14.04v.14s-.06 0-.09-.01l-.12-.05c-.04.04-.09.07-.15.09-.1.03-.19.02-.28-.04-.09-.06-.15-.16-.2-.3-.04-.14-.05-.26 0-.36.04-.1.11-.16.21-.19.1-.03.19-.02.28.04s.15.16.2.3c.02.07.03.13.04.19s0 .11-.02.16Zm-.14-.06a.4.4 0 0 0-.01-.24.416.416 0 0 0-.12-.21.16.16 0 0 0-.16-.03.18.18 0 0 0-.12.12c-.02.06-.02.14.02.24.03.1.07.17.13.21.05.04.1.05.16.03.02 0 .04-.02.05-.03-.04-.01-.07-.02-.1-.03v-.11c.06 0 .12.02.17.05ZM42.42 30.63l.14-.04.15.46c.02.07.04.12.05.14.02.04.04.06.07.07.03.01.06.01.1 0 .03-.01.06-.03.07-.05.02-.02.02-.05.02-.07a.61.61 0 0 0-.04-.17l-.15-.47.14-.04.14.45c.04.11.06.2.06.25s-.01.1-.04.15c-.03.05-.08.08-.16.1-.07.02-.13.03-.18.01a.2.2 0 0 1-.12-.08c-.03-.04-.07-.13-.11-.25l-.14-.46ZM43.16 30.4l.13-.04.04.12c.02.07.03.12.02.16 0 .05-.03.09-.07.12l-.05-.06s.04-.04.04-.06v-.08l-.06.02-.05-.16ZM44.38 30.96l-.15.05-.12-.17-.28.09v.21l-.15.05v-.94l.15-.05.55.77Zm-.37-.26-.2-.29v.35l.2-.06ZM44.22 30.07l.14-.04.15.46c.02.07.04.12.05.14.02.04.04.06.07.07.03.01.06.01.1 0 .03-.01.06-.03.07-.05.02-.02.02-.05.02-.07 0-.03-.01-.09-.04-.17l-.15-.47.14-.04.14.45c.04.11.06.2.06.25s-.01.11-.04.15c-.03.04-.08.08-.15.1-.07.02-.13.03-.18.01s-.09-.04-.12-.08-.07-.13-.11-.25l-.14-.46ZM45.36 30.15l-.05-.16.13-.04.05.16-.13.04Zm.14.46-.05-.16.13-.04.05.16-.13.04Z" class="cls-25"/><path d="m36.26 38.83.13-.53-.37-.33.11-.03.2.18.09.09c0-.03.01-.07.03-.11l.07-.27.1-.03-.12.48.41.37-.11.04-.27-.25-.05-.05c0 .04-.01.06-.01.08l-.08.35-.11.04ZM36.95 38.61l.13-.53-.37-.33.11-.03.2.18.09.09c0-.03.01-.07.03-.11l.07-.27.1-.03-.12.48.41.37-.11.04-.27-.25-.05-.05c0 .04-.01.06-.01.08l-.08.35-.11.04ZM37.64 38.41l-.08-.95.07-.02.07.95-.07.02ZM37.95 38.3l.13-.53-.37-.33.11-.03.2.18.09.09c0-.03.01-.07.02-.11l.07-.27.1-.03-.12.48.41.37-.11.04-.27-.25-.05-.05c0 .04-.01.06-.01.08l-.08.35-.11.04ZM38.63 38.08l.13-.53-.37-.33.11-.03.2.18.09.09c0-.03.01-.07.02-.11l.07-.27.1-.03-.12.48.41.37-.11.04-.27-.25-.05-.05c0 .04-.01.06-.01.08l-.08.35-.11.04ZM39.32 37.88l-.08-.95.07-.02.07.95-.07.02ZM39.63 37.76l.13-.53-.37-.33.11-.04.2.18.09.09c0-.03.01-.07.03-.11l.07-.27.1-.03-.12.48.41.37-.11.04-.27-.25-.05-.05c0 .04-.01.06-.01.08l-.08.35-.11.03ZM40.32 37.55l.13-.53-.37-.33.11-.03.2.18.09.09c0-.03.01-.07.02-.11l.07-.27.1-.03-.12.48.41.37-.11.04-.27-.25-.05-.05c0 .04-.01.06-.01.08l-.08.35-.11.04ZM41.01 37.33l.13-.53-.37-.33.11-.03.2.18.09.09c0-.03.01-.07.02-.11l.07-.27.1-.03-.12.48.41.37-.11.04-.27-.25-.05-.05c0 .04-.01.06-.01.08l-.08.35-.11.04ZM41.7 37.11l.13-.53-.37-.33.11-.04.2.18.09.09c0-.03.01-.07.03-.11l.07-.27.1-.03-.12.48.41.37-.11.04-.27-.25-.05-.05c0 .04-.01.06-.01.08l-.08.35-.11.04ZM36.75 40.4l.13-.53-.37-.33.11-.03.2.18.09.09c0-.03.01-.07.02-.11l.07-.27.1-.03-.12.48.41.37-.11.04-.27-.25-.05-.05c0 .04-.01.06-.01.08l-.08.35-.11.04ZM37.44 40.18l.13-.53-.37-.33.11-.03.2.18.09.09c0-.03.01-.07.03-.11l.07-.27.1-.03-.12.48.41.37-.11.04-.27-.25-.05-.05c0 .04-.01.06-.01.08l-.08.35-.11.04ZM38.13 39.97l.13-.53-.37-.33.11-.03.2.18.09.09c0-.03.01-.07.03-.11l.07-.27.1-.03-.12.48.41.37-.11.04-.27-.25-.05-.05c0 .04-.01.06-.01.08l-.08.35-.11.04ZM38.82 39.75l.13-.53-.37-.33.11-.04.2.18.09.09c0-.03.01-.07.03-.11l.07-.27.1-.03-.12.48.41.37-.11.04-.27-.25-.05-.05c0 .04-.01.06-.01.08l-.08.35-.11.03ZM39.51 39.53l.13-.53-.37-.33.11-.03.2.18.09.09c0-.03.01-.07.02-.11l.07-.27.1-.03-.12.48.41.37-.11.04-.27-.25-.05-.05c0 .04-.01.06-.01.08l-.08.35-.11.04ZM40.2 39.32l.13-.53-.37-.33.11-.03.2.18.09.09c0-.03.01-.07.02-.11l.07-.27.1-.03-.12.48.41.37-.11.04-.27-.25-.05-.05c0 .04-.01.06-.01.08l-.08.35-.11.03ZM40.89 39.1l.13-.53-.37-.33.11-.03.2.18.09.09c0-.03.01-.07.02-.11l.07-.27.1-.03-.12.48.41.37-.11.04-.27-.25-.05-.05c0 .04-.01.06-.01.08l-.08.35-.11.04ZM41.58 38.88l.13-.53-.37-.33.11-.03.2.18.09.09c0-.03.01-.07.03-.11l.07-.27.1-.03-.12.48.41.37-.11.04-.27-.25-.05-.05c0 .04-.01.06-.01.08l-.08.35-.11.04ZM42.27 38.66l.13-.53-.37-.33.11-.03.2.18.09.09c0-.03.01-.07.03-.11l.07-.27.1-.03-.12.48.41.37-.11.04-.27-.25-.05-.05c0 .04-.01.06-.01.08l-.08.35-.11.04ZM42.96 38.45l.13-.53-.37-.33.11-.03.2.18.09.09c0-.03.01-.07.02-.11l.07-.27.1-.03-.12.48.41.37-.11.04-.27-.25-.05-.05c0 .04-.01.06-.01.08l-.08.35-.11.04Z"/><path d="m35.52 36.36.26-.08c.06-.02.12-.03.15-.02.04 0 .08.02.12.05.04.03.07.06.11.11.03.05.06.12.09.2.02.07.04.14.04.2s0 .11-.02.15a.36.36 0 0 1-.07.1c-.03.03-.07.05-.13.07l-.27.08-.27-.86Zm.19.1.18.57L36 37s.08-.03.1-.04c.02-.02.03-.03.04-.06 0-.02.01-.05 0-.09 0-.04-.01-.09-.03-.15-.02-.06-.04-.11-.06-.15-.02-.03-.04-.06-.07-.07-.03-.02-.05-.02-.08-.02-.02 0-.06.01-.12.03l-.06.02ZM37.16 36.78l-.15.05-.12-.17-.28.09v.21l-.15.05v-.94l.15-.05.55.77Zm-.37-.26-.2-.29v.35l.2-.06ZM37.36 36.72l-.22-.71-.21.07-.05-.14.56-.18.05.14-.21.07.22.71-.14.04ZM37.84 36.57l-.27-.86.52-.16.04.14-.38.12.06.19.35-.11.05.14-.35.11.07.23.39-.12.05.14-.53.17ZM38.84 36.26l-.27-.86.52-.16.05.14-.38.12.06.19.35-.11.04.14-.35.11.07.23.39-.12.05.14-.53.17ZM39.68 35.99l-.22-.71-.21.07-.05-.14.56-.18.05.14-.21.07.22.71-.14.04ZM40.47 35.74l-.27-.85.14-.04.22.7.35-.11.05.14-.49.16ZM41.1 35.54l-.27-.86.14-.04.27.86-.14.04ZM41.41 35.45l-.27-.86.52-.16.04.14-.38.12.06.19.35-.11.04.14-.35.11.07.23.39-.12.05.14-.53.17ZM41.83 34.37l.14-.04.15.46c.02.07.04.12.05.14.02.04.04.06.07.07.03.01.06.01.1 0 .03-.01.06-.03.07-.05.02-.02.02-.05.02-.07 0-.03-.01-.09-.04-.17l-.15-.47.14-.04.14.45c.04.11.06.2.06.25s-.01.11-.04.15c-.03.04-.08.08-.16.1-.07.02-.13.03-.18.01a.2.2 0 0 1-.12-.08c-.03-.04-.07-.13-.11-.25l-.14-.46ZM42.88 34.04l.26-.08c.07-.02.12-.03.15-.03.04 0 .08.02.11.05.04.03.08.06.11.11s.06.12.09.2c.02.07.04.14.04.2s0 .11-.02.15a.36.36 0 0 1-.07.1.4.4 0 0 1-.13.07l-.27.08-.27-.86Zm.19.1.18.57.11-.03s.08-.03.09-.04c.02-.01.03-.03.04-.05v-.09c0-.04-.01-.09-.03-.15-.02-.06-.04-.11-.06-.15-.02-.03-.04-.06-.07-.07-.02-.02-.05-.02-.08-.02-.02 0-.06.01-.12.03l-.06.02ZM43.89 34.66l-.27-.86.52-.16.05.14-.38.12.06.19.35-.11.04.14-.35.11.07.23.39-.12.05.14-.53.17ZM44.62 33.5l.26-.08c.06-.02.12-.03.15-.02.04 0 .08.02.11.05.04.03.08.06.11.11s.06.12.09.2c.02.07.04.14.04.2s0 .11-.02.15a.36.36 0 0 1-.07.1.4.4 0 0 1-.13.07l-.27.08-.27-.86Zm.19.1.18.57.11-.03s.08-.03.1-.04.03-.03.04-.06c0-.02.01-.05 0-.09 0-.04-.01-.09-.03-.15-.02-.06-.04-.11-.06-.15s-.04-.06-.07-.07c-.02-.02-.05-.02-.08-.02-.02 0-.06.01-.12.03l-.06.02ZM45.63 34.12l-.27-.86.52-.16.04.14-.38.12.06.19.35-.11.05.14-.35.11.07.23.39-.12.05.14-.53.17Zm-.11-.97v-.2l.16-.05-.08.22-.09.03ZM46.33 33.9l-.27-.85.14-.04.22.7.35-.11.05.14-.49.16ZM46.95 33.7l-.27-.86.14-.04.27.86-.14.04ZM47.44 33.55l-.52-.78.15-.05.38.58-.03-.69.15-.05.02.93-.15.05ZM47.95 33.39l-.27-.86.3-.09c.08-.02.13-.03.17-.03.04 0 .07.02.1.05.03.03.06.07.07.13.02.07.02.12 0 .18-.02.05-.06.09-.11.12.04.01.07.03.1.05.03.02.07.06.12.11l.14.14-.17.05-.16-.15c-.06-.06-.1-.09-.11-.1-.02-.01-.04-.02-.05-.02-.02 0-.04 0-.07.01h-.03l.11.37-.14.04Zm-.01-.54.1-.03c.06-.02.1-.04.12-.05.02-.01.03-.03.03-.05v-.07c0-.03-.02-.05-.04-.06-.02-.01-.03-.02-.06-.02-.01 0-.05 0-.12.03l-.11.04.07.22ZM49.33 32.95l-.15.05-.12-.17-.28.09v.21l-.15.05v-.94l.15-.05.55.77Zm-.37-.26-.2-.29v.35l.2-.06ZM49.44 32.92l-.27-.86.14-.04.47.48-.18-.57.13-.04.27.86-.14.04-.46-.47.18.56-.13.04ZM50.53 32.23h.15c0 .11 0 .19-.04.25s-.09.1-.16.12c-.09.03-.18.02-.26-.04a.517.517 0 0 1-.2-.3c-.05-.15-.05-.27 0-.37a.3.3 0 0 1 .2-.18c.08-.02.15-.02.22.02.05.03.09.07.14.14l-.13.08s-.05-.07-.09-.09c-.03-.02-.07-.02-.11 0-.05.02-.09.05-.11.11-.02.06-.01.14.02.24.03.11.07.18.12.22.05.04.09.04.15.03.04-.01.06-.04.08-.07.02-.04.02-.09.02-.16ZM50.93 32.45l-.27-.86.52-.16.05.14-.38.12.06.19.35-.11.04.14-.35.11.07.23.39-.12.05.14-.53.17ZM51.74 31.69l-.05-.16.13-.04.05.16-.13.04Zm.14.46-.05-.16.13-.04.05.16-.13.04Z" class="cls-25"/><path d="m37.75 43.55.13-.53-.37-.33.11-.03.2.18.09.09c0-.03.01-.07.02-.11l.07-.27.1-.03-.12.48.41.37-.11.04-.27-.25-.05-.05c0 .04-.01.06-.01.08l-.08.35-.11.04ZM38.43 43.33l.13-.53-.37-.33.11-.03.2.18.09.09c0-.03.01-.07.02-.11l.07-.27.1-.03-.12.48.41.37-.11.04-.27-.25-.05-.05c0 .04-.01.06-.01.08l-.08.35-.11.04ZM39.12 43.12l.13-.53-.37-.33.11-.03.2.18.09.09c0-.03.01-.07.02-.11l.07-.27.1-.03-.12.48.41.37-.11.04-.27-.25-.05-.05c0 .04-.01.06-.01.08l-.08.35-.11.04ZM39.81 42.9l.13-.53-.37-.33.11-.04.2.18.09.09c0-.03.01-.07.03-.11l.07-.27.1-.03-.12.48.41.37-.11.04-.27-.25-.05-.05c0 .04-.01.06-.01.08l-.08.35-.11.03ZM40.5 42.68l.13-.53-.37-.33.11-.03.2.18.09.09c0-.03.01-.07.03-.11l.07-.27.1-.03-.12.48.41.37-.11.04-.27-.25-.05-.05c0 .04-.01.06-.01.08l-.08.35-.11.04ZM41.19 42.46l.13-.53-.37-.33.11-.03.2.18.09.09c0-.03.01-.07.03-.11l.07-.27.1-.03-.12.48.41.37-.11.04-.27-.25-.05-.05c0 .04-.01.06-.01.08l-.08.35-.11.03ZM41.88 42.25l.13-.53-.37-.33.11-.03.2.18.09.09c0-.03.01-.07.02-.11l.07-.27.1-.03-.12.48.41.37-.11.04-.27-.25-.05-.05c0 .04-.01.06-.01.08l-.08.35-.11.04ZM42.57 42.03l.13-.53-.37-.33.11-.03.2.18.09.09c0-.03.01-.07.02-.11l.07-.27.1-.03-.12.48.41.37-.11.04-.27-.25-.05-.05c0 .04-.01.06-.01.08l-.08.35-.11.04ZM43.26 41.81l.13-.53-.37-.33.11-.03.2.18.09.09c0-.03.01-.07.03-.11l.07-.27.1-.03-.12.48.41.37-.11.04-.27-.25-.05-.05c0 .04-.01.06-.01.08l-.08.35-.11.04ZM43.95 41.6l.13-.53-.37-.33.11-.03.2.18.09.09c0-.03.01-.07.03-.11l.07-.27.1-.03-.12.48.41.37-.11.04-.27-.25-.05-.05c0 .04-.01.06-.01.08l-.08.35-.11.04Z"/><path d="m37.28 41.94-.27-.85.14-.04.47.48-.18-.57.13-.04.27.85-.14.04-.46-.47.18.56-.13.04ZM38.65 41.51l-.15.05-.12-.17-.28.09v.21l-.15.05v-.94l.15-.05.55.77Zm-.37-.26-.2-.29v.35l.2-.06ZM38.85 41.45l-.22-.71-.21.07-.05-.14.56-.18.05.14-.21.07.22.71-.14.04ZM39.05 40.44l.14-.04.15.46c.02.07.04.12.05.14.02.04.04.06.07.07.03.01.06.01.1 0 .03-.01.06-.03.07-.05.02-.02.02-.05.02-.07 0-.03-.01-.09-.04-.17l-.15-.47.14-.04.14.45c.04.11.06.2.06.25 0 .05-.01.11-.04.15-.03.05-.08.08-.16.1-.07.02-.13.03-.18.01a.2.2 0 0 1-.12-.08c-.03-.04-.07-.13-.11-.25l-.14-.46ZM40.07 41.06l-.27-.85.3-.09c.08-.02.13-.03.17-.03.04 0 .07.02.11.05.03.03.06.07.07.13.02.07.02.13 0 .18-.02.05-.06.09-.11.12.04.01.07.03.1.05.03.02.07.06.12.11l.14.14-.17.05-.16-.15c-.06-.06-.1-.09-.11-.1-.02-.01-.04-.02-.05-.02-.02 0-.04 0-.07.01h-.03l.11.37-.14.04Zm-.01-.54.1-.03c.06-.02.1-.04.12-.05.02-.01.03-.03.03-.05v-.07c0-.03-.02-.05-.04-.06-.02-.01-.03-.02-.06-.02-.02 0-.05 0-.12.03l-.11.03.07.22ZM40.81 40.83l-.27-.85.52-.16.05.14-.38.12.06.19.35-.11.04.14-.35.11.07.23.39-.12.04.14-.53.17ZM41.54 39.66l.26-.08c.07-.02.12-.03.15-.02.04 0 .08.02.12.05.04.03.08.06.11.11s.06.12.09.2c.02.08.04.14.04.2s0 .11-.02.15a.36.36 0 0 1-.07.1.4.4 0 0 1-.13.07l-.27.08-.27-.85Zm.19.1.18.57.11-.03s.08-.03.09-.04c.02-.01.03-.03.04-.05v-.09c0-.04-.01-.09-.03-.15-.02-.06-.04-.11-.06-.15-.02-.03-.04-.06-.07-.07-.02-.02-.05-.02-.08-.02-.02 0-.06.01-.12.03l-.06.02ZM42.28 39.43l.14-.04.15.46c.02.07.04.12.05.14.02.04.04.06.07.07.03.01.06.01.1 0 .03-.01.06-.03.07-.05.02-.02.02-.05.02-.07 0-.03-.01-.09-.04-.17l-.15-.47.14-.04.14.45c.04.11.06.2.06.25s-.01.11-.04.15c-.03.05-.08.08-.16.1-.07.02-.13.03-.18.01a.2.2 0 0 1-.12-.08c-.03-.04-.07-.13-.11-.25l-.14-.46ZM43.76 39.9l-.22-.71-.21.07-.05-.14.56-.18.04.14-.21.07.22.71-.14.04ZM44.23 39.75l-.27-.85.14-.04.27.85-.14.04ZM44.7 39.6l-.22-.71-.21.07-.05-.14.56-.18.05.14-.21.07.22.71-.14.04ZM45.18 39.45l-.27-.85.3-.09c.08-.02.13-.03.17-.03.04 0 .07.02.11.05.03.03.06.07.07.13.02.07.02.13 0 .18-.02.05-.06.09-.11.12.04.01.07.03.1.05.03.02.07.06.12.11l.14.14-.17.05-.16-.15c-.06-.06-.1-.09-.11-.1-.02-.01-.04-.02-.05-.02-.02 0-.04 0-.07.01h-.03l.11.37-.14.04Zm-.01-.54.1-.03c.06-.02.1-.04.12-.05.02-.01.03-.03.03-.05v-.07c0-.03-.02-.05-.04-.06-.02-.01-.03-.02-.06-.02-.02 0-.05.01-.12.03l-.11.03.07.22ZM45.92 39.22l-.27-.85.52-.16.05.14-.38.12.06.19.35-.11.04.14-.35.11.07.23.39-.12.05.14-.53.17ZM46.74 38.46l-.05-.16.13-.04.05.16-.13.04Zm.14.46-.05-.16.13-.04.05.16-.13.04Z" class="cls-25"/><path d="m38.8 46.91.13-.53-.37-.33.11-.03.2.18.09.09c0-.03.01-.07.02-.11l.07-.27.1-.03-.12.48.41.37-.11.04-.27-.25-.05-.05c0 .04-.01.06-.01.07l-.08.35-.11.04ZM39.49 46.69l.13-.53-.37-.33.11-.04.2.18.09.09c0-.03.01-.07.03-.11l.07-.27.1-.03-.12.48.41.37-.11.04-.27-.25-.05-.05c0 .04-.01.06-.01.07l-.08.35-.11.04ZM40.18 46.48l.13-.53-.37-.33.11-.03.2.18.09.09c0-.03.01-.07.03-.11l.07-.27.1-.03-.12.48.41.37-.11.04-.27-.25-.05-.05c0 .04-.01.06-.01.07l-.08.35-.11.04ZM40.87 46.26l.13-.53-.37-.33.11-.03.2.18.09.09c0-.03.01-.07.03-.11l.07-.27.1-.03-.12.48.41.37-.11.04-.27-.25-.05-.05c0 .04-.01.06-.01.07l-.08.35-.11.04ZM41.56 46.04l.13-.53-.37-.33.11-.03.2.18.09.09c0-.03.01-.07.02-.11l.07-.27.1-.03-.12.48.41.37-.11.04-.27-.25-.05-.05c0 .04-.01.06-.01.07l-.08.35-.11.04ZM42.25 45.83l.13-.53-.37-.33.11-.03.2.18.09.09c0-.03.01-.07.02-.11l.07-.27.1-.03-.12.48.41.37-.11.04-.27-.25-.05-.05c0 .04-.01.06-.01.07l-.08.35-.11.04ZM42.94 45.61l.13-.53-.37-.33.11-.03.2.18.09.09c0-.03.01-.07.02-.11l.07-.27.1-.03-.12.48.41.37-.11.04-.27-.25-.05-.05c0 .04-.01.06-.01.07l-.08.35-.11.04ZM43.63 45.39l.13-.53-.37-.33.11-.03.2.18.09.09c0-.03.01-.07.03-.11l.07-.27.1-.03-.12.48.41.37-.11.04-.27-.25-.05-.05c0 .04-.01.06-.01.07l-.08.35-.11.04ZM44.32 45.18l.13-.53-.37-.33.11-.03.2.18.09.09c0-.03.01-.07.03-.11l.07-.27.1-.03-.12.48.41.37-.11.04-.27-.25-.05-.05c0 .04-.01.06-.01.07l-.08.35-.11.04ZM45.01 44.96l.13-.53-.37-.33.11-.03.2.18.09.09c0-.03.01-.07.02-.11l.07-.27.1-.03-.12.48.41.37-.11.04-.27-.25-.05-.05c0 .04-.01.06-.01.07l-.08.35-.11.04ZM45.7 44.74l.13-.53-.37-.33.11-.03.2.18.09.09c0-.03.01-.07.02-.11l.07-.27.1-.03-.12.48.41.37-.11.04-.27-.25-.05-.05c0 .04-.01.06-.01.07l-.08.35-.11.04ZM46.39 44.52l.13-.53-.37-.33.11-.04.2.18.09.09c0-.03.01-.07.02-.11l.07-.27.1-.03-.12.48.41.37-.11.04-.27-.25-.05-.05c0 .04-.01.06-.01.07l-.08.35-.11.04ZM47.07 44.31l.13-.53-.37-.33.11-.03.2.18.09.09c0-.03.01-.07.02-.11l.07-.27.1-.03-.12.48.41.37-.11.04-.27-.25-.05-.05c0 .04-.01.06-.01.07l-.08.35-.11.04ZM39.26 48.37l.13-.53-.37-.33.11-.03.2.18.09.09c0-.03.01-.07.02-.11l.07-.27.1-.03-.12.48.41.37-.11.04-.27-.25-.05-.05c0 .04-.01.06-.01.08l-.08.35-.11.04ZM39.95 48.15l.13-.53-.37-.33.11-.03.2.18.09.09c0-.03.01-.07.03-.11l.07-.27.1-.03-.12.48.41.37-.11.04-.27-.25-.05-.05c0 .04-.01.06-.01.08l-.08.35-.11.04ZM40.64 47.94l.13-.53-.37-.33.11-.03.2.18.09.09c0-.03.01-.07.03-.11l.07-.27.1-.03-.12.48.41.37-.11.04-.27-.25-.05-.05c0 .04-.01.06-.01.08l-.08.35-.11.04ZM41.33 47.72l.13-.53-.37-.33.11-.04.2.18.09.09c0-.03.01-.07.03-.11l.07-.27.1-.03-.12.48.41.37-.11.04-.27-.25-.05-.05c0 .04-.01.06-.01.08l-.08.35-.11.04ZM42.02 47.5l.13-.53-.37-.33.11-.03.2.18.09.09c0-.03.01-.07.02-.11l.07-.27.1-.03-.12.48.41.37-.11.04-.27-.25-.05-.05c0 .04-.01.06-.01.08l-.08.35-.11.04ZM42.71 47.29l.13-.53-.37-.33.11-.03.2.18.09.09c0-.03.01-.07.02-.11l.07-.27.1-.03-.12.48.41.37-.11.04-.27-.25-.05-.05c0 .04-.01.06-.01.08l-.08.35-.11.04ZM43.4 47.07l.13-.53-.37-.33.11-.03.2.18.09.09c0-.03.01-.07.02-.11l.07-.27.1-.03-.12.48.41.37-.11.04-.27-.25-.05-.05c0 .04-.01.06-.01.08l-.08.35-.11.04ZM44.09 46.85l.13-.53-.37-.33.11-.03.2.18.09.09c0-.03.01-.07.03-.11l.07-.27.1-.03-.12.48.41.37-.11.04-.27-.25-.05-.05c0 .04-.01.06-.01.08l-.08.35-.11.04ZM44.78 46.63l.13-.53-.37-.33.11-.03.2.18.09.09c0-.03.01-.07.03-.11l.07-.27.1-.03-.12.48.41.37-.11.04-.27-.25-.05-.05c0 .04-.01.06-.01.08l-.08.35-.11.04ZM45.47 46.42l.13-.53-.37-.33.11-.03.2.18.09.09c0-.03.01-.07.02-.11l.07-.27.1-.03-.12.48.41.37-.11.04-.27-.25-.05-.05c0 .04-.01.06-.01.08l-.08.35-.11.04ZM46.16 46.2l.13-.53-.37-.33.11-.03.2.18.09.09c0-.03.01-.07.02-.11l.07-.27.1-.03-.12.48.41.37-.11.04-.27-.25-.05-.05c0 .04-.01.06-.01.08l-.08.35-.11.04ZM39.75 49.9l.13-.53-.37-.33.11-.03.2.18.09.09c0-.03.01-.07.03-.11l.07-.27.1-.03-.12.48.41.37-.11.04-.27-.25-.05-.05c0 .04-.01.06-.01.08l-.08.35-.11.04ZM40.43 49.69l.13-.53-.37-.33.11-.03.2.18.09.09c0-.03.01-.07.03-.11l.07-.27.1-.03-.12.48.41.37-.11.04-.27-.25-.05-.05c0 .04-.01.06-.01.08l-.08.35-.11.04ZM41.12 49.47l.13-.53-.37-.33.11-.03.2.18.09.09c0-.03.01-.07.03-.11l.07-.27.1-.03-.12.48.41.37-.11.04-.27-.25-.05-.05c0 .04-.01.06-.01.08l-.08.35-.11.04ZM41.81 49.25l.13-.53-.37-.33.11-.04.2.18.09.09c0-.03.01-.07.03-.11l.07-.27.1-.03-.12.48.41.37-.11.04-.27-.25-.05-.05c0 .04-.01.06-.01.08l-.08.35-.11.03ZM42.5 49.04l.13-.53-.37-.33.11-.03.2.18.09.09c0-.03.01-.07.03-.11l.07-.27.1-.03-.12.48.41.37-.11.04-.27-.25-.05-.05c0 .04-.01.06-.01.08l-.08.35-.11.04ZM43.19 48.82l.13-.53-.37-.33.11-.03.2.18.09.09c0-.03.01-.07.03-.11l.07-.27.1-.03-.12.48.41.37-.11.04-.27-.25-.05-.05c0 .04-.01.06-.01.08l-.08.35-.11.03ZM43.88 48.6l.13-.53-.37-.33.11-.03.2.18.09.09c0-.03.01-.07.03-.11l.07-.27.1-.03-.12.48.41.37-.11.04-.27-.25-.05-.05c0 .04-.01.06-.01.08l-.08.35-.11.04ZM44.57 48.39l.13-.53-.37-.33.11-.03.2.18.09.09c0-.03.01-.07.03-.11l.07-.27.1-.03-.12.48.41.37-.11.04-.27-.25-.05-.05c0 .04-.01.06-.01.08l-.08.35-.11.04ZM45.26 48.17l.13-.53-.37-.33.11-.03.2.18.09.09c0-.03.01-.07.03-.11l.07-.27.1-.03-.12.48.41.37-.11.04-.27-.25-.05-.05c0 .04-.01.06-.01.08l-.08.35-.11.04ZM45.95 47.95l.13-.53-.37-.33.11-.03.2.18.09.09c0-.03.01-.07.03-.11l.07-.27.1-.03-.12.48.41.37-.11.04-.27-.25-.05-.05c0 .04-.01.06-.01.08l-.08.35-.11.04Z"/><path d="m38.34 45.3-.27-.85.3-.09c.08-.02.13-.03.17-.03.04 0 .07.02.1.05.03.03.06.07.08.13.02.07.02.13 0 .18-.02.05-.06.09-.11.12.04.01.07.03.1.05.03.02.07.06.12.11l.14.14-.17.05-.16-.15c-.06-.06-.1-.09-.11-.1s-.04-.02-.05-.02-.04 0-.07.01h-.03l.11.37-.14.04Zm-.01-.54.1-.03c.06-.02.1-.04.12-.05.02-.01.03-.03.03-.05v-.07c0-.03-.02-.05-.04-.06-.02-.01-.03-.02-.05-.02-.01 0-.05.01-.12.03l-.11.03.07.22ZM39.08 45.07l-.27-.85.52-.16.05.14-.38.12.06.19.35-.11.05.14-.35.11.07.23.39-.12.05.14-.53.17ZM39.76 44.85l-.27-.85.21-.07.31.54-.06-.62.21-.07.27.85-.13.04-.21-.67.07.72-.14.04-.35-.63.21.67-.13.04ZM41.25 44.38l-.15.05-.12-.17-.28.09v.21l-.15.05v-.94l.15-.05.55.77Zm-.37-.26-.2-.29v.35l.2-.06ZM41.36 44.35l-.27-.85.3-.09c.08-.02.13-.03.17-.03.04 0 .07.02.11.05.03.03.06.07.08.13.02.07.02.12 0 .18-.02.05-.06.09-.11.12.04.01.07.03.1.05.03.02.07.06.12.11l.14.14-.17.05-.16-.15c-.06-.06-.1-.09-.11-.1-.02-.01-.04-.02-.05-.02-.02 0-.04 0-.07.01h-.03l.11.37-.14.04Zm-.01-.54.11-.03c.06-.02.1-.04.12-.05.02-.01.03-.03.03-.05v-.07c0-.03-.02-.05-.04-.06-.02-.01-.03-.02-.05-.02-.01 0-.05 0-.12.03l-.11.04.07.22ZM42.64 43.83s.09.03.14.04v.14s-.06 0-.09-.01c0 0-.04-.02-.12-.05-.04.04-.09.07-.15.09-.1.03-.19.02-.28-.04-.09-.06-.15-.16-.2-.3-.05-.14-.05-.26 0-.36.04-.1.11-.16.21-.19.1-.03.19-.02.28.04.09.06.15.16.2.3.02.07.03.13.04.19s0 .11-.02.16Zm-.15-.06a.4.4 0 0 0-.01-.24.416.416 0 0 0-.12-.21.157.157 0 0 0-.16-.03.18.18 0 0 0-.12.12c-.02.06-.02.14.02.24.03.1.07.17.13.21.05.04.1.05.16.03.02 0 .04-.02.05-.03-.04-.01-.07-.02-.1-.02v-.11c.06 0 .12.02.17.05ZM42.63 43.01l.14-.04.15.46c.02.07.04.12.05.14.02.04.04.06.07.07.03.01.06.01.1 0 .03-.01.06-.03.07-.05.02-.02.02-.05.02-.07 0-.03-.01-.09-.04-.17l-.15-.47.14-.04.14.45c.04.11.06.2.06.25 0 .06-.01.11-.04.15-.03.04-.08.08-.16.1-.07.02-.13.03-.18.01a.2.2 0 0 1-.12-.08c-.03-.04-.07-.13-.11-.25l-.14-.46ZM43.65 43.63l-.27-.85.52-.16.04.14-.38.12.06.19.35-.11.04.14-.35.11.07.23.39-.12.05.14-.53.17ZM44.21 43.15l.13-.06c.05.1.12.14.2.12.04-.01.07-.04.09-.06.02-.03.02-.06.01-.09 0-.02-.02-.04-.03-.04a.076.076 0 0 0-.05-.02h-.14c-.07 0-.12 0-.15-.02a.18.18 0 0 1-.09-.06.207.207 0 0 1-.06-.1c-.01-.05-.02-.09 0-.14 0-.04.03-.08.06-.11s.07-.06.13-.07c.08-.03.15-.02.21 0s.1.09.13.17l-.14.05s-.04-.07-.07-.08a.17.17 0 0 0-.1 0c-.04.01-.07.03-.08.05-.02.02-.02.05-.01.07 0 .02.02.04.05.05.02.01.07.01.15.01.08 0 .14 0 .17.02.04.01.07.03.1.07.03.03.05.07.07.12.02.07.02.14 0 .21-.03.07-.09.11-.19.14-.17.05-.3-.01-.38-.2ZM45.15 42.66l-.05-.16.13-.04.05.16-.13.04Zm.14.46-.05-.16.13-.04.05.16-.13.04Z" class="cls-25"/><path d="m58.17 45.83.12-.06c.05.1.11.13.19.11.04-.01.07-.03.08-.06.02-.03.02-.06 0-.09 0-.02-.01-.03-.03-.04a.076.076 0 0 0-.05-.02h-.13c-.06 0-.11 0-.14-.02a.236.236 0 0 1-.09-.06c-.03-.03-.04-.06-.06-.1-.01-.04-.02-.09 0-.13 0-.04.03-.08.06-.1.03-.03.07-.05.12-.07.08-.02.14-.02.2 0 .06.03.1.08.13.16l-.13.05s-.04-.07-.07-.08c-.02-.01-.05-.01-.09 0-.04.01-.06.03-.08.05-.01.02-.02.04-.01.06 0 .02.02.04.04.05.02 0 .07.01.14.01s.13 0 .16.02c.04.01.07.03.09.06.03.03.05.07.06.11.02.07.02.13 0 .2-.03.06-.09.1-.18.13-.16.05-.28-.01-.35-.19ZM58.92 45.88l-.25-.8.13-.04.25.8-.13.04ZM59.43 45.4l-.04-.13.29-.09.1.32s-.05.08-.09.13c-.04.04-.09.07-.15.09-.06.02-.13.02-.19 0s-.11-.05-.16-.11-.09-.12-.11-.21c-.03-.09-.04-.17-.03-.24 0-.07.03-.13.07-.18.04-.05.09-.08.15-.1.08-.02.15-.02.21 0 .06.03.11.07.15.15l-.12.07s-.05-.06-.08-.08a.17.17 0 0 0-.1 0c-.06.02-.09.05-.12.11s-.02.13.01.22c.03.1.07.16.12.2.05.03.1.04.15.02.03 0 .05-.02.07-.04.02-.02.04-.04.06-.07l-.03-.1-.15.05ZM59.96 45.55l-.25-.8.13-.04.44.45-.17-.53.12-.04.25.8-.13.04-.43-.44.16.52-.12.04ZM61.24 45.15l-.14.04-.11-.16-.26.08v.2l-.14.04v-.88l.14-.04.51.72Zm-.34-.24-.18-.27v.32l.18-.06ZM61.43 45.09l-.21-.66-.19.06-.04-.14.52-.16.04.14-.19.06.21.66-.13.04ZM61.62 44.15l.13-.04.14.43c.02.07.04.11.05.13.02.03.04.06.07.07.03.01.06.01.1 0 .03 0 .05-.02.07-.04.02-.02.02-.04.02-.07 0-.03-.01-.08-.04-.16l-.14-.44.13-.04.13.42c.03.11.05.19.06.24 0 .05 0 .1-.04.14-.03.04-.08.07-.14.09-.07.02-.13.02-.17.01-.05-.01-.08-.04-.12-.08s-.07-.12-.1-.24l-.13-.43ZM62.57 44.73l-.25-.8.28-.09c.07-.02.12-.03.16-.03.04 0 .07.02.1.05.03.03.05.07.07.12.02.06.02.12 0 .17-.02.05-.05.08-.1.11.03.01.06.03.09.04.03.02.07.05.12.11l.13.13-.16.05-.15-.14c-.05-.05-.09-.08-.11-.1-.02-.01-.03-.02-.05-.02-.02 0-.04 0-.07.01h-.03l.1.34-.13.04Zm-.01-.5.1-.03c.06-.02.1-.03.11-.04.02-.01.02-.03.03-.04v-.07c0-.02-.02-.04-.03-.06-.02-.01-.03-.02-.05-.02-.01 0-.05 0-.11.03l-.1.03.06.2ZM63.26 44.51l-.25-.8.49-.15.04.14-.35.11.06.18.33-.1.04.13-.33.1.07.22.37-.12.04.13-.5.16ZM63.94 43.42l.24-.08c.06-.02.11-.03.14-.02.04 0 .07.02.11.04.04.02.07.06.1.11s.06.11.08.19c.02.07.03.13.03.19s0 .1-.02.14a.16.16 0 0 1-.07.09c-.03.03-.07.05-.12.06l-.25.08-.25-.8Zm.17.09.17.53.1-.03s.07-.03.09-.04c.02-.01.03-.03.04-.05v-.09a.44.44 0 0 0-.03-.14.645.645 0 0 0-.06-.14c-.02-.03-.04-.05-.06-.07s-.05-.02-.08-.02c-.02 0-.06 0-.11.03l-.06.02ZM64.88 44l-.25-.8.49-.15.04.14-.35.11.06.18.33-.1.04.13-.33.1.07.22.37-.12.04.13-.5.16ZM65.82 43.71l-.25-.79.13-.04.21.66.33-.1.04.13-.46.15ZM66.1 42.74l.13-.04.03.11c.02.06.03.11.02.15 0 .04-.03.08-.06.11l-.04-.06s.03-.04.04-.06v-.08l-.06.02-.05-.15ZM67.23 43.26l-.14.04-.11-.16-.26.08v.2l-.14.04v-.88l.14-.04.51.72Zm-.34-.24-.18-.27v.32l.18-.06ZM67.09 42.43l.13-.04.14.43c.02.07.04.11.05.13.02.03.04.06.07.07s.06.01.1 0c.03 0 .05-.02.07-.04.01-.02.02-.04.02-.07 0-.03-.01-.08-.04-.16l-.14-.44.13-.04.13.42c.03.11.05.19.06.24 0 .05-.01.1-.04.14-.03.04-.08.07-.14.09-.07.02-.13.02-.17.01-.05-.01-.08-.04-.12-.08a.705.705 0 0 1-.1-.24l-.13-.43ZM68.18 42.96l-.21-.66-.19.06-.04-.14.52-.16.04.14-.19.06.21.66-.13.04ZM68.46 42.44c-.03-.09-.04-.18-.03-.25 0-.07.03-.13.07-.17.04-.04.09-.08.15-.1.09-.03.18-.02.26.04.08.05.14.15.18.28.04.13.04.25 0 .34-.03.08-.1.14-.19.17s-.18.02-.26-.03a.486.486 0 0 1-.19-.28Zm.13-.05c.03.09.07.15.12.19.05.03.1.04.15.03.05-.02.09-.05.11-.11.02-.06.02-.13-.01-.23a.412.412 0 0 0-.11-.19c-.05-.03-.1-.04-.15-.03s-.09.05-.11.11-.02.13.01.22ZM69.35 42.59l-.25-.8.28-.09c.07-.02.12-.03.16-.03.04 0 .07.02.1.05.03.03.05.07.07.12.02.06.02.12 0 .17-.02.05-.05.08-.1.11.03.01.06.03.09.04.03.02.07.05.12.11l.13.13-.16.05-.15-.14c-.05-.05-.09-.08-.11-.1-.02-.01-.03-.02-.05-.02-.02 0-.04 0-.07.01h-.03l.1.34-.13.04Zm-.01-.5.1-.03c.06-.02.1-.03.11-.04.02-.01.02-.03.03-.04v-.07c0-.02-.02-.04-.03-.06-.02-.01-.03-.02-.05-.02-.01 0-.05 0-.11.03l-.1.03.06.2ZM70.04 42.38l-.25-.8.13-.04.25.8-.13.04ZM70.48 42.24l-.21-.66-.19.06-.04-.14.52-.16.04.14-.19.06.21.66-.13.04ZM70.93 42.1l-.25-.8.49-.15.04.14-.35.11.06.18.33-.1.04.13-.33.1.07.22.37-.12.04.13-.5.16Zm-.1-.9v-.18l.15-.04-.07.2-.08.02Z" class="cls-22"/><path d="m54.55 16.78.97 3.09-37.85 11.92-.56-1.77c-.07-.82.43-1.6 1.24-1.86l36.18-11.39h.02Z" style="fill:url(#Dégradé_sans_nom_30)"/><path d="M58.98 39.84s2 3.33.48 3.15-1.73-1.29-1.1-1.63 2.49.68 3.37-.03 1.3-2.17.55-2.23.41 2.22 1.39 1.84-4.44-.58-7.39.78" style="stroke-width:.07px;stroke-miterlimit:10;fill:none;stroke:#000"/><path d="m33.38 24.4-.3.09-.08-.27.89-.28.08.27-.3.1.5 1.6-.29.09-.5-1.6ZM34.41 23.78l.59 1.87-.29.09-.59-1.87.29-.09ZM35.03 23.88l-.3.09-.08-.27.89-.28.08.27-.3.09.5 1.6-.29.09-.5-1.6ZM36.39 24.29l.26.83-.29.09-.59-1.87.4-.13c.28-.09.49-.03.59.31l.02.07c.09.29 0 .4-.07.45.12.02.21.08.29.33.05.16.14.46.2.57l-.28.09c-.06-.1-.15-.41-.19-.55-.07-.23-.12-.27-.28-.22l-.07.02Zm-.07-.24.07-.02c.15-.05.19-.12.13-.33l-.02-.06c-.05-.14-.1-.22-.27-.17l-.08.03.18.56ZM37.96 23.77l-.41.13.18.59.47-.15.05.28-.72.23-.59-1.87.72-.23.08.27-.43.14.15.48.41-.13.08.27ZM38.65 22.44l.4-.13c.4-.12.56.05.67.4l.23.72c.09.28.14.61-.3.75l-.4.13-.59-1.87Zm.8 1.53.09-.03c.19-.06.18-.19.12-.38l-.25-.78c-.05-.17-.12-.27-.31-.21l-.09.03.43 1.37ZM40.88 22.86l-.41.13.18.59.47-.15.05.28-.72.23-.59-1.87.72-.23.08.27-.43.14.15.48.41-.13.08.27ZM42.18 22.78l.04.12c.04.14.11.2.22.17.11-.04.11-.15.07-.27-.06-.2-.13-.25-.38-.34-.25-.1-.39-.16-.48-.44-.08-.25-.08-.52.26-.62.34-.11.48.12.54.32l.03.1-.29.09-.03-.09c-.04-.13-.09-.2-.18-.17s-.09.12-.05.24c.04.13.09.19.29.26.34.12.47.21.57.52.08.26.07.54-.28.65-.35.11-.5-.08-.58-.33l-.04-.11.29-.09ZM43.64 21.99l-.41.13.19.59.47-.15.05.28-.72.23-.59-1.87.72-.23.08.27-.43.14.15.48.41-.13.08.27Zm-.31-1.46-.27.4-.27.08.18-.37.35-.11ZM44.57 22.16c.08.25.11.46-.22.56-.04.01-.1.03-.15.03l-.08-.24s.05 0 .09-.02c.1-.03.13-.07.09-.2l-.46-1.48.29-.09.45 1.44ZM45.5 20.83l.27.87c.11.36.01.57-.3.67-.3.1-.5-.03-.6-.38l-.28-.88c-.11-.36.02-.58.29-.66.28-.09.5.02.61.38Zm-.62.17.3.94c.05.15.13.21.23.18.11-.04.14-.12.09-.28l-.29-.94c-.05-.15-.12-.22-.23-.18-.1.03-.14.12-.09.28ZM45.94 20.15l.45 1.42c.04.14.11.2.22.16.11-.04.12-.13.08-.26l-.45-1.42.29-.09.44 1.41c.09.3.02.52-.29.62-.3.09-.49-.02-.59-.34l-.45-1.42.29-.09ZM47.5 20.79l.26.83-.29.09-.59-1.87.4-.13c.28-.09.49-.03.59.31l.02.07c.09.29 0 .4-.07.45.12.02.21.08.29.33.05.16.14.46.2.57l-.28.09c-.06-.1-.15-.41-.19-.55-.07-.23-.12-.27-.28-.22l-.07.02Zm-.08-.24.07-.02c.15-.05.19-.12.13-.33l-.02-.06c-.05-.14-.1-.22-.27-.17l-.08.03.17.56ZM44.93 53.24c-2.57 1.39-4.85 2.16-10.25 3.18-5.07.97-8.48 2.71-8.48 2.71l.29.77 2.21 1.15 16.85-5.83-.63-1.99s3.08-1.95 8.48-2.71 7.05-1.26 10.24-3.22c2.27-1.39 6.86-2.84 9.76-2.86l.16.62-1.17 2.24-26.85 7.93" class="cls-19"/><path d="m31.9 25.74.35 1.1-4.1 1.29-.35-1.1 1.42-.45c.15.27.48.4.78.31s.49-.39.47-.7l1.42-.45ZM31.45 24.32l.35 1.11-1.44.45c-.16-.24-.47-.36-.76-.27s-.47.36-.47.65l-1.44.45-.35-1.11 4.1-1.29Z" class="cls-26"/><path d="M30.14 26.15s.02.1.01.14c-.02.13-.1.24-.24.28s-.27 0-.36-.1c-.03-.04-.06-.08-.07-.13a.308.308 0 0 1 0-.19.346.346 0 0 1 .55-.18c.05.04.09.1.11.16Z" style="stroke:#5f485a;stroke-width:.05px;stroke-miterlimit:10;fill:#5f485a"/><path d="m23.44 29.81-.86-2.74 2.04-.64.21.67-1.14.36.11.37 1.15-.36.21.66-1.15.36.33 1.03-.9.29z" style="fill:#dba9be;stroke:#c97195;stroke-width:.06px;stroke-miterlimit:10"/><path d="M34.07 56.58c-1.46.82-3.28-.25-3.28-.25l-.64-2.69-.07-.3 3.83-2.07.37.81 1.25 2.76v.32s-.42.85-1.44 1.43Z" class="cls-4"/><path d="M27.98 41.57s.24.76.13 1.36h0M27 43.63c-.71-.16-1.39-.91-1.39-.91M27.3 51.21h0c-.08 0-.61.04-1.14-.65-.58-.74-.91-.53-1.21-1.39-.28-.81.68-.73.79-.71" class="cls-5"/><path d="M31.9 41.52s-.48.54-1.1.86" class="cls-1"/><path d="M25.88 44.39c.38-.1.79-.32 1.13-.76.22.05.42.05.62-.04.28-.12.41-.38.47-.66h.03c.11.05.77.34 1.22-.48.46.3 1 .17 1.47-.08.37.13.76-.02.76-.02.03.03.08.05.1.08 1.74 1.32 2.22 2.44 2.27 2.56-.02-.33-.06-.63-.1-.92.1.53.12.93.12 1.01h0v.02h0c.17.47.57 1.72.77 3.07.17 1.12.2 2.33-.17 3.22-.84 2.08-1.71 2.39-1.85 2.42-.13.07-1.01.51-3.07-.42-.88-.39-1.7-1.28-2.35-2.21-.78-1.12-1.36-2.29-1.57-2.75h0c-.03-.05-.05-.11-.07-.17.03.04.06.06.06.06-.08-.19-.14-.39-.2-.59-.18-1.04.21-2.98.23-3.3l.13-.07Z" class="cls-4"/><path d="M25.53 47.76c.03.2.08.37.14.53" class="cls-1"/><path d="m25.74 48.46-.01-.01h0c-.07-.09-.44-.51-.8-1.13v-.02c-.72-1.24-1.37-3.25.56-4.84 0 0-.09-.77.88-.95 0 0 .71-1.52 2.32-.97.83-.54 1.29.08 1.29.08 2.69-.2 3.56 2.01 3.84 3.4 0 .03 0 .05.01.07" class="cls-5"/><path d="M31.73 42.58s1.88 1.47 2.22 2.55" class="cls-5"/><path d="M25.64 48.26h0s.03.09.08.18h0v.02M33.95 45.12h0M33.88 44.92s.03.07.07.18" class="cls-1"/><path d="M34.72 48.19h0c.06-.05.46-.4.37-1.27-.1-.94.29-1.01-.09-1.84-.36-.78-.99-.05-1.06.04M29.64 41.55c-.07.35-.16.63-.26.84-.01.03-.02.05-.03.07" class="cls-5"/><path d="M28.12 42.94h-.02" class="cls-1"/><path d="M30.11 46.22s1.1 2.5 2.08 3.62c0 0-.03.3-.92.4" class="cls-4"/><ellipse cx="28.76" cy="48" class="cls-4" rx=".09" ry=".27" transform="rotate(-21.9 28.756 48.005)"/><ellipse cx="32.22" cy="46.54" class="cls-4" rx=".09" ry=".27" transform="rotate(-21.9 32.206 46.527)"/><path d="M39.86 53.85s-3.04.69-4.34.97M30.76 56.33s-3.68 1.88-4.74 2.22" class="cls-10"/><path d="m86.22 31.93 30.74 5.16c1.19.18 1.91 1.47 1.55 2.62l-2.13 6.76-30.16-14.54Z" style="stroke-linejoin:bevel;fill:#fff;stroke:#000"/><path d="M119.44 42.4 86.22 31.93l-16.4 52.06 33.22 10.47c1.58.5 3.27-.38 3.77-1.96l14.6-46.33c.5-1.58-.38-3.27-1.96-3.77Z" style="stroke-linejoin:bevel;fill:#735645;stroke:#000"/><path d="M86.63 69.87c-.09.3-.23.49-.41.59-.18.1-.43.1-.74 0l-.41-.13-.24.76-.5-.16.77-2.45.92.29c.28.09.47.22.58.4.11.18.12.41.03.7Zm-.52-.16c.04-.14.04-.25-.02-.34-.06-.09-.18-.16-.38-.22l-.25-.08-.26.82.2.06c.18.06.31.08.39.08.08 0 .14-.03.19-.08.05-.05.09-.13.13-.25ZM86.12 71.5l1.58-2.19.65.2.04 2.71-.51-.16v-.55l-.95-.3-.32.45-.5-.16Zm1.09-.68.66.21v-1.12l-.66.91ZM90.69 72.16c-.08.25-.22.41-.42.49-.2.08-.46.07-.77-.03a1.35 1.35 0 0 1-.53-.29.903.903 0 0 1-.28-.47l.48-.17c.03.1.07.18.1.23.04.06.09.11.15.15.06.04.14.08.23.11.14.04.25.05.34.03.09-.02.15-.08.18-.18.02-.05.02-.1 0-.15a.28.28 0 0 0-.09-.13c-.04-.04-.13-.1-.25-.18-.12-.07-.23-.15-.33-.22s-.18-.15-.25-.23a.678.678 0 0 1-.13-.27c-.02-.1-.01-.21.03-.34.07-.23.21-.39.41-.47.2-.08.44-.08.74.02.42.13.68.37.76.72l-.47.18a.58.58 0 0 0-.16-.29c-.07-.07-.16-.13-.28-.16s-.22-.05-.3-.03c-.09.02-.14.07-.17.16-.02.08 0 .15.06.22s.18.15.35.25c.1.06.19.12.28.18.09.06.17.14.23.22.06.08.1.17.12.28.02.11 0 .23-.04.37ZM92.86 72.84c-.08.25-.22.41-.42.49-.2.08-.46.07-.77-.03a1.35 1.35 0 0 1-.53-.29.903.903 0 0 1-.28-.47l.48-.17c.03.1.07.18.1.23.04.06.09.11.15.15.06.04.14.08.23.11.14.04.25.05.34.03.09-.02.15-.08.18-.18.02-.05.02-.1 0-.15a.28.28 0 0 0-.09-.13c-.04-.04-.13-.1-.25-.18-.12-.07-.23-.15-.33-.22s-.18-.15-.25-.23a.678.678 0 0 1-.13-.27c-.02-.1-.01-.21.03-.34.07-.23.21-.39.41-.47.2-.08.44-.08.74.02.42.13.68.37.76.72l-.47.18a.58.58 0 0 0-.16-.29c-.07-.07-.16-.13-.28-.16s-.22-.05-.3-.03c-.09.02-.14.07-.17.16-.02.08 0 .15.06.22s.18.15.35.25c.1.06.19.12.28.18.09.06.17.14.23.22.06.08.1.17.12.28.02.11 0 .23-.04.37ZM95.36 72.62c-.09.3-.23.49-.41.59-.18.1-.43.1-.74 0l-.41-.13-.24.76-.5-.16.77-2.45.92.29c.28.09.47.22.58.4.11.18.12.41.03.7Zm-.52-.16c.04-.14.04-.25-.02-.34-.06-.09-.18-.16-.38-.22l-.25-.08-.26.82.2.06c.18.06.31.08.39.08.08 0 .14-.03.19-.08.05-.05.09-.13.13-.25ZM97.63 73.78c-.13.43-.32.72-.57.87-.25.16-.54.18-.89.07-.36-.11-.59-.31-.69-.59-.1-.28-.09-.62.04-1.02s.31-.69.55-.86c.24-.17.54-.2.9-.08s.6.31.7.59c.1.28.08.62-.04 1.02Zm-.52-.16c.09-.29.12-.51.08-.67-.04-.16-.16-.27-.35-.33s-.36-.04-.48.07c-.12.11-.23.31-.32.6s-.12.51-.08.67c.04.16.16.27.35.33s.36.04.48-.07c.12-.11.23-.31.32-.6ZM99.04 75.57l-.33-1.12-.25-.08-.29.93-.5-.16.77-2.45.89.28c.32.1.53.23.64.39.11.16.12.37.04.63-.07.21-.16.36-.29.46-.13.1-.28.14-.45.12l.34 1.19-.57-.18Zm.45-1.73c.04-.12.03-.22-.02-.28a.597.597 0 0 0-.29-.16l-.39-.12-.21.65.37.12c.11.04.2.05.27.05s.12-.02.16-.06c.04-.04.08-.1.11-.19ZM101.58 74.18l-.63 1.99-.5-.16.63-1.99-.76-.24.15-.46 2.01.64-.15.45-.75-.23z" class="cls-19"/><path d="M92.24 78.22c-.12.39-.54.6-.92.48s-.6-.54-.48-.92.54-.6.92-.48.6.54.48.92Z" style="opacity:.9;fill:#fff"/><path d="M91.17 79.17a1.22 1.22 0 0 1-.85-1.13l-1.8-.57-.47 1.5 5.79 1.83.47-1.5-1.8-.57c-.3.4-.84.6-1.34.44ZM89.24 75.2l-.47 1.5 1.8.57c.3-.4.83-.6 1.34-.44s.83.62.85 1.13l1.8.57.47-1.5-5.79-1.83ZM105.85 54.98s-.22-.54-.2-.51c-2.08-4.76-7.75-6.54-12.18-3.83s-.49.31-.46.29c-3.41 2.38-4.81 6.86-3.36 10.75s.22.54.21.51c1.99 4.71 7.85 6.5 12.12 3.82s.49-.31.46-.29c3.43-2.37 4.84-6.82 3.41-10.73Zm-9.66 11.6c1-.57 2.57-1.6 3.92-3.07a8.13 8.13 0 0 1 1.62 2.01c-1.67 1.01-3.62 1.4-5.53 1.06Zm-5.84-4.64c.77-.37 1.59-.61 2.48-.72.26 1.98.95 3.72 1.45 4.77-1.82-.85-3.16-2.32-3.93-4.04Zm-.39-5.8 3.11.98c-.33 1.19-.4 2.4-.3 3.55-.88.11-1.82.37-2.62.76-.64-1.75-.66-3.6-.19-5.29Zm3.31-4.72c.4.72 1 1.49 1.72 2.14-.72.87-1.35 1.88-1.75 3.04l-3.11-.98c.6-1.73 1.7-3.17 3.15-4.2Zm6.03-1.39c-1.01.58-2.6 1.61-3.96 3.12a8.051 8.051 0 0 1-1.62-2.03c1.66-1.02 3.63-1.43 5.57-1.08Zm5.86 4.69c-.8.39-1.66.63-2.49.74-.25-2.01-.96-3.77-1.46-4.82 1.83.85 3.18 2.33 3.95 4.08Zm.37 5.76-3.11-.98c.33-1.17.39-2.36.3-3.49.89-.12 1.84-.38 2.63-.77.62 1.72.65 3.54.17 5.24Zm-3.35 4.74c-.41-.72-1-1.47-1.72-2.12.74-.88 1.38-1.91 1.79-3.08l3.11.98a8.592 8.592 0 0 1-3.18 4.22Zm-5.05-4.08.78-2.49 3.8 1.2c-.38 1.09-.99 2.05-1.69 2.88a9.56 9.56 0 0 0-2.9-1.59Zm.95-3.01.77-2.43c1.12.32 2.25.43 3.31.36.09 1.06.03 2.18-.27 3.27l-3.8-1.2Zm.93-2.95 1.49-4.72c.46.91 1.32 2.84 1.6 5.05-1.04.07-2.08-.05-3.09-.34Zm-.52-.16a9.12 9.12 0 0 1-2.72-1.49c1.5-1.65 3.31-2.74 4.21-3.22l-1.49 4.72Zm-.16.52-.77 2.43-3.8-1.2c.38-1.07.97-2.01 1.65-2.84a9.69 9.69 0 0 0 2.92 1.6Zm-.93 2.95-.78 2.49c-1.05-.3-2.16-.43-3.29-.36-.09-1.08-.04-2.22.27-3.33l3.8 1.2Zm-.95 3.01-1.47 4.66c-.46-.9-1.3-2.8-1.59-4.99 1.02-.06 2.03.05 3.06.34Zm.52.16c1.03.36 1.93.87 2.7 1.48-1.5 1.63-3.28 2.7-4.17 3.18l1.47-4.66Z" class="cls-19"/><rect width="54.16" height="37.83" x="9.57" y="69.07" class="cls-7" rx="3.08" ry="3.08"/><rect width="50.04" height="34.95" x="11.63" y="70.51" class="cls-23" rx="1.81" ry="1.81"/><path d="M11.6 73.81h50.1v22.51H11.6z" style="fill:url(#Dégradé_sans_nom_4)"/><text style="font-family:IBMPlexSans-ExtraLight,&quot;IBM Plex Sans&quot;;font-size:32.24px;font-weight:200;fill:#fff" transform="translate(24.07 96.33)"><tspan x="0" y="0">RF</tspan></text><path d="M11.63 96.32h50.04v7.33c0 1-.81 1.81-1.81 1.81H13.44c-1 0-1.81-.81-1.81-1.81v-7.33Z" class="cls-19"/><path d="M11.6 76.43h14.81v19.89H11.6zM13.69 72.84h.16v-1.28h-.16v-.1h.69c.13 0 .23.03.31.1s.11.16.11.29c0 .1-.03.18-.08.25-.06.07-.14.11-.24.13l.25.46a.27.27 0 0 0 .23.15h.02v.1h-.14s-.08 0-.1-.01c-.03 0-.05-.02-.07-.04l-.06-.06c-.02-.02-.03-.05-.05-.08l-.26-.49h-.25v.58h.16v.1h-.5v-.1Zm.34-.69h.33c.08 0 .13-.02.18-.07.04-.05.06-.11.06-.17v-.1c0-.07-.02-.13-.06-.18s-.1-.07-.18-.07h-.33v.59ZM16.2 72.84h.16v-1.28h-.16v-.1h1.09v.36h-.15v-.25h-.6v.56h.42v-.17h.13v.44h-.13v-.17h-.42v.61h.62v-.27h.15v.37H16.2v-.1Zm.52-1.54.16-.37.16.08-.27.32-.06-.03ZM18.63 72.84h.16v-1.28h-.16v-.1h.69c.13 0 .24.03.31.1s.11.17.11.3-.04.23-.11.3c-.07.07-.18.11-.31.11h-.34v.58h.2v.1h-.54v-.1Zm.34-.68h.33c.08 0 .13-.02.17-.07s.06-.11.06-.18v-.1c0-.07-.02-.13-.06-.18s-.1-.07-.17-.07h-.33v.59ZM21.71 72.96c-.1 0-.18-.01-.25-.03s-.12-.06-.17-.1a.524.524 0 0 1-.1-.18c-.02-.07-.03-.17-.03-.28v-.81H21v-.1h.5v.1h-.16v.84c0 .07 0 .14.02.19.01.06.03.1.06.14.03.04.07.06.11.08.05.02.1.03.17.03.14 0 .24-.04.29-.11.06-.07.09-.18.09-.33v-.84h-.16v-.1h.43v.1h-.16v.78c0 .11 0 .2-.03.28a.48.48 0 0 1-.09.19c-.04.05-.09.09-.16.11a.8.8 0 0 1-.24.04ZM23.67 72.84h.16v-1.28h-.16v-.1h.71c.12 0 .22.03.29.1s.1.15.1.25c0 .05 0 .1-.02.14-.02.04-.04.08-.06.11a.55.55 0 0 1-.09.07c-.03.02-.07.03-.1.04s.07.02.11.03c.04.02.08.04.11.07a.334.334 0 0 1 .11.26c0 .06 0 .12-.03.17s-.05.09-.08.13c-.03.04-.08.06-.12.08s-.1.03-.16.03h-.77v-.1Zm.34-.72h.33c.08 0 .13-.02.18-.07.04-.04.06-.1.06-.17v-.09c0-.07-.02-.12-.06-.17a.248.248 0 0 0-.18-.07h-.33v.56Zm0 .71h.36c.08 0 .15-.02.19-.07.05-.05.07-.11.07-.19v-.09c0-.07-.02-.14-.07-.18a.249.249 0 0 0-.19-.07h-.36v.61ZM26.16 72.84h.16v-1.28h-.16v-.1h.5v.1h-.16v1.28h.54v-.27h.15v.37h-1.03v-.1ZM28.5 72.84h.16v-1.28h-.16v-.1h.5v.1h-.16v1.28H29v.1h-.5v-.1ZM31.28 73.3h-.11c-.03 0-.06-.01-.08-.03a.265.265 0 0 1-.06-.05.18.18 0 0 1-.05-.07l-.14-.2a.528.528 0 0 1-.22-.08.517.517 0 0 1-.17-.16.703.703 0 0 1-.11-.23 1.073 1.073 0 0 1 .01-.61c.03-.09.08-.17.13-.24s.13-.12.21-.15c.08-.04.17-.05.27-.05s.19.02.27.05c.08.04.15.09.21.15s.1.15.13.24.05.2.05.32c0 .11-.01.21-.04.3s-.06.17-.11.23a.69.69 0 0 1-.18.16c-.07.04-.15.06-.23.07l.1.13s.03.04.04.06c.01.02.03.03.04.04.01 0 .03.02.05.02h.12v.1h-.11Zm-.33-.45c.07 0 .14-.01.19-.04.06-.03.1-.06.14-.11s.07-.1.09-.17a.71.71 0 0 0 .03-.21v-.24c0-.08 0-.15-.03-.21-.02-.06-.05-.12-.09-.17s-.08-.08-.14-.11c-.06-.03-.12-.04-.19-.04s-.14.01-.19.04c-.06.03-.1.06-.14.11s-.07.1-.09.17a.71.71 0 0 0-.03.21v.24c0 .08 0 .15.03.21.02.06.05.12.09.17s.08.08.14.11c.06.03.12.04.19.04ZM33.58 72.96c-.1 0-.18-.01-.25-.03s-.12-.06-.17-.1a.524.524 0 0 1-.1-.18c-.02-.07-.03-.17-.03-.28v-.81h-.16v-.1h.5v.1h-.16v.84c0 .07 0 .14.02.19.01.06.03.1.06.14.03.04.07.06.11.08.05.02.1.03.17.03.14 0 .24-.04.29-.11.06-.07.09-.18.09-.33v-.84h-.16v-.1h.43v.1h-.16v.78c0 .11 0 .2-.03.28a.48.48 0 0 1-.09.19c-.04.05-.09.09-.16.11a.8.8 0 0 1-.24.04ZM35.54 72.84h.16v-1.28h-.16v-.1h1.09v.36h-.15v-.25h-.6v.56h.42v-.17h.13v.44h-.13v-.17h-.42v.61h.62v-.27h.15v.37h-1.11v-.1ZM39.54 72.84h.16v-1.28h-.16v-.1h1.09v.36h-.15v-.25h-.6v.59h.42v-.17h.13v.44h-.13v-.17h-.42v.58h.2v.1h-.54v-.1ZM41.94 72.84h.16v-1.28h-.16v-.1h.69c.13 0 .23.03.31.1s.11.16.11.29c0 .1-.03.18-.08.25-.06.07-.14.11-.24.13l.25.46a.27.27 0 0 0 .23.15h.02v.1h-.14s-.08 0-.1-.01c-.03 0-.05-.02-.07-.04l-.06-.06c-.02-.02-.03-.05-.05-.08l-.26-.49h-.25v.58h.16v.1h-.5v-.1Zm.34-.69h.33c.08 0 .13-.02.18-.07.04-.05.06-.11.06-.17v-.1c0-.07-.02-.13-.06-.18s-.1-.07-.18-.07h-.33v.59ZM44.38 72.84h.11l.48-1.38h.2l.48 1.38h.11v.1h-.5v-.1h.19l-.13-.38h-.58l-.13.38h.19v.1h-.43v-.1Zm.4-.48h.51l-.25-.74h-.01l-.25.74ZM47 72.84h.16v-1.28H47v-.1h.36l.79 1.18v-1.09h-.16v-.1h.43v.1h-.16v1.38h-.14l-.85-1.27v1.17h.16v.1H47v-.1ZM50.35 73.37c-.05 0-.09 0-.12-.03-.03-.02-.05-.04-.07-.05l.04-.04s.03.03.05.04c.02 0 .04.01.07.01.03 0 .06 0 .08-.02s.03-.04.03-.07c0-.02 0-.04-.02-.06-.02-.02-.05-.03-.1-.04h-.06l.03-.15c-.09 0-.17-.03-.24-.06a.655.655 0 0 1-.18-.15c-.05-.07-.09-.14-.12-.24s-.04-.19-.04-.31.01-.23.04-.33c.03-.09.07-.17.12-.24s.12-.11.19-.15c.07-.03.16-.05.25-.05s.17.02.23.05c.06.03.1.07.12.11v-.13h.15v.43h-.15v-.11c0-.07-.03-.13-.09-.17a.427.427 0 0 0-.24-.06.38.38 0 0 0-.32.15c-.03.05-.06.1-.08.17-.02.06-.02.13-.02.2v.26c0 .08.01.15.03.21a.417.417 0 0 0 .23.26c.06.02.12.04.19.04a.426.426 0 0 0 .4-.28l.08.04s-.03.08-.06.12c-.03.04-.06.08-.1.12-.04.04-.09.07-.14.09s-.12.04-.19.04l-.02.11h.08c.05 0 .08.01.11.03.03.02.04.06.04.1 0 .03 0 .05-.02.08a.12.12 0 0 1-.05.05c-.02.01-.05.02-.07.03-.03 0-.06.01-.09.01ZM52.06 72.84h.11l.48-1.38h.2l.48 1.38h.11v.1h-.5v-.1h.19l-.13-.38h-.58l-.13.38h.19v.1h-.43v-.1Zm.4-.48h.51l-.25-.74h-.01l-.25.74ZM54.67 72.84h.16v-1.28h-.16v-.1h.5v.1h-.16v1.28h.16v.1h-.5v-.1ZM56.99 72.96c-.09 0-.16-.01-.22-.04a.258.258 0 0 1-.12-.11h-.01v.13h-.15v-.43h.15v.1s0 .07.02.1c.01.03.03.06.05.08.02.02.06.04.1.05s.09.02.15.02c.12 0 .21-.03.27-.08s.08-.12.08-.21a.28.28 0 0 0-.06-.18.416.416 0 0 0-.2-.1l-.12-.03c-.13-.03-.23-.08-.3-.15s-.11-.16-.11-.28c0-.06.01-.11.03-.16.02-.05.05-.09.1-.12a.53.53 0 0 1 .34-.11c.08 0 .15.01.2.04.05.02.09.06.11.1h.01v-.11h.15v.41h-.15v-.1s0-.07-.02-.1-.03-.05-.05-.07c-.03-.02-.06-.04-.1-.05a.605.605 0 0 0-.15-.02c-.1 0-.17.02-.22.07-.05.04-.07.1-.07.18s.02.14.07.18.11.08.21.1l.11.03c.13.03.23.08.3.15.07.07.1.16.1.27 0 .06-.01.12-.03.18s-.05.1-.09.14c-.04.04-.09.07-.15.09-.06.02-.13.03-.21.03ZM58.81 72.84h.16v-1.28h-.16v-.1h1.09v.36h-.15v-.25h-.6v.56h.42v-.17h.13v.44h-.13v-.17h-.42v.61h.62v-.27h.15v.37h-1.11v-.1Z" class="cls-19"/><text class="cls-32" transform="translate(34.06 75.85)"><tspan x="0" y="0" class="cls-33">XXXXXXXXX</tspan><tspan x="6.78" y="0">X</tspan></text><text class="cls-32" transform="translate(31.27 78.39)"><tspan x="0" y="0" class="cls-33">XXXXXXXXX</tspan><tspan x="6.78" y="0">X</tspan></text><text class="cls-32" transform="translate(34.4 82.19)"><tspan x="0" y="0" class="cls-33">XXXXXXXXX</tspan><tspan x="6.78" y="0">X</tspan></text><text class="cls-32" transform="translate(31.27 85.92)"><tspan x="0" y="0" class="cls-33">XXXXXXXXX</tspan><tspan x="6.78" y="0">X</tspan></text><text class="cls-32" transform="translate(29.41 87.95)"><tspan x="0" y="0" class="cls-33">XXXXXXXXX</tspan><tspan x="6.78" y="0">X</tspan></text><text class="cls-32" transform="translate(45.99 85.92)"><tspan x="0" y="0" class="cls-33">XXXXXXXXX</tspan><tspan x="6.78" y="0">X</tspan></text><text class="cls-32" transform="translate(31.86 89.73)"><tspan x="0" y="0" class="cls-33">XXXXXXXXX</tspan><tspan x="6.78" y="0">X</tspan></text><path d="M13.14 75.52c0-.28.13-.43.35-.43.14 0 .24.06.3.19l-.11.06c-.03-.08-.09-.13-.18-.13-.13 0-.21.09-.21.25v.13c0 .15.08.25.21.25.1 0 .16-.06.19-.14l.11.07c-.06.12-.16.19-.3.19-.22 0-.35-.15-.35-.43ZM14.44 75.93l-.07-.23h-.31l-.07.23h-.14l.28-.83h.17l.28.83h-.14Zm-.23-.71-.12.37h.25l-.12-.37ZM14.84 75.93h-.13v-.83h.36c.15 0 .24.1.24.25 0 .12-.06.2-.16.23l.18.35h-.15l-.17-.34h-.17v.34Zm.21-.45c.07 0 .11-.04.11-.1v-.06c0-.07-.04-.1-.11-.1h-.21v.26h.21ZM15.63 75.22h-.25v-.12h.63v.12h-.25v.71h-.13v-.71ZM16.14 75.93v-.83h.53v.12h-.4v.23h.36v.12h-.36v.24h.4v.12h-.53ZM17.34 75.47l-.09-.18v.64h-.13v-.83h.15l.27.46.09.18v-.64h.13v.83h-.15l-.27-.46ZM18.48 75.93l-.07-.23h-.31l-.07.23h-.14l.28-.83h.17l.28.83h-.14Zm-.23-.71-.12.37h.25l-.12-.37ZM18.85 75.22h-.25v-.12h.63v.12h-.25v.71h-.13v-.71ZM19.31 75.93v-.11h.11v-.61h-.11v-.11h.36v.11h-.11v.61h.11v.11h-.36ZM19.8 75.52c0-.28.14-.43.36-.43s.36.15.36.43-.14.43-.36.43-.36-.15-.36-.43Zm.57.07v-.13c0-.15-.09-.24-.21-.24s-.21.09-.21.24v.13c0 .15.09.24.21.24s.21-.09.21-.24ZM20.91 75.47l-.09-.18v.64h-.13v-.83h.15l.27.46.09.18v-.64h.13v.83h-.15l-.27-.46ZM22.05 75.93l-.07-.23h-.31l-.07.23h-.14l.28-.83h.17l.28.83h-.14Zm-.23-.71-.12.37h.25l-.12-.37ZM22.31 75.93v-.83h.13v.71h.34v.12h-.47ZM22.92 75.93v-.83h.53v.12h-.4v.23h.36v.12h-.36v.24h.4v.12h-.53ZM23.9 75.1h.29c.21 0 .35.14.35.42s-.14.42-.35.42h-.29v-.83Zm.29.71c.12 0 .21-.08.21-.23v-.13c0-.15-.08-.23-.21-.23h-.16v.59h.16ZM24.85 75.12v.02c0 .07-.05.17-.12.22h-.09s.08-.09.1-.15c-.04 0-.06-.04-.06-.07v-.02s.03-.08.09-.08.09.03.09.08ZM24.99 75.93v-.11h.11v-.61h-.11v-.11h.36v.11h-.11v.61h.11v.11h-.36ZM25.52 75.1h.29c.21 0 .35.14.35.42s-.14.42-.35.42h-.29v-.83Zm.29.71c.12 0 .21-.08.21-.23v-.13c0-.15-.08-.23-.21-.23h-.16v.59h.16ZM26.33 75.93v-.83h.53v.12h-.4v.23h.36v.12h-.36v.24h.4v.12h-.53ZM27.26 75.47l-.09-.18v.64h-.13v-.83h.15l.27.46.09.18v-.64h.13v.83h-.15l-.27-.46ZM28.05 75.22h-.25v-.12h.63v.12h-.25v.71h-.13v-.71ZM28.52 75.93v-.11h.11v-.61h-.11v-.11h.36v.11h-.11v.61h.11v.11h-.36ZM29.21 75.22h-.25v-.12h.63v.12h-.25v.71h-.13v-.71ZM29.72 75.93v-.83h.53v.12h-.4v.23h.36v.12h-.36v.24h.4v.12h-.53Zm.28-.89-.08-.04.11-.21.11.05-.14.2ZM30.93 75.47l-.09-.18v.64h-.13v-.83h.15l.27.46.09.18v-.64h.13v.83h-.15l-.27-.46ZM31.52 75.3c0-.12.09-.21.21-.21s.21.09.21.21-.09.21-.21.21-.21-.09-.21-.21Zm.32 0c0-.07-.04-.12-.11-.12s-.11.05-.11.12.04.12.11.12.11-.05.11-.12ZM32.38 75.4v-.02s.03-.08.09-.08.09.03.09.08v.02s-.03.08-.09.08-.09-.03-.09-.08Zm0 .47v-.02s.03-.08.09-.08.09.03.09.08v.02s-.03.08-.09.08-.09-.03-.09-.08Z" class="cls-23"/><path d="M13.93 99.29v-.16h.16v-.87h-.16v-.16h.52v.16h-.16v.87h.16v.16h-.52ZM14.68 98.11h.42c.3 0 .5.2.5.59s-.2.59-.5.59h-.42v-1.18Zm.42 1.01c.18 0 .29-.11.29-.33v-.19c0-.21-.12-.33-.29-.33h-.23v.84h.23ZM15.84 99.29v-1.18h.74v.17h-.55v.33h.49v.17h-.49v.51h-.19ZM16.99 99.29h-.19v-1.18h.51c.21 0 .34.14.34.36 0 .17-.08.28-.23.33l.26.5h-.21l-.24-.48h-.24v.48Zm.31-.64c.1 0 .15-.05.15-.15v-.08c0-.09-.06-.15-.15-.15h-.31v.38h.31ZM18.65 99.29l-.11-.32h-.44l-.1.32h-.19l.4-1.18h.24l.4 1.18h-.2Zm-.32-1.01-.17.52h.35l-.17-.52ZM19.31 98.68l-.37-.58h.23l.27.44.27-.44h.21l-.37.58.39.61h-.23l-.29-.47-.28.47h-.21l.38-.6ZM20.39 98.68l-.37-.58h.23l.27.44.27-.44H21l-.37.58.39.61h-.23l-.29-.47-.28.47h-.21l.38-.6ZM21.48 98.68l-.37-.58h.23l.27.44.27-.44h.21l-.37.58.39.61h-.23l-.29-.47-.28.47h-.21l.38-.6ZM22.56 98.68l-.37-.58h.23l.27.44.27-.44h.21l-.37.58.39.61h-.23l-.29-.47-.28.47h-.21l.38-.6ZM23.64 98.68l-.37-.58h.23l.27.44.27-.44h.21l-.37.58.39.61h-.23l-.29-.47-.28.47h-.21l.38-.6ZM24.72 98.68l-.37-.58h.23l.27.44.27-.44h.21l-.37.58.39.61h-.23l-.29-.47-.28.47h-.21l.38-.6ZM25.8 98.68l-.37-.58h.23l.27.44.27-.44h.21l-.37.58.39.61h-.23l-.29-.47-.28.47h-.21l.38-.6ZM27.03 98.87v-.14l.69-.43v.19l-.51.3.51.32v.19l-.69-.43ZM28.04 98.87v-.14l.69-.43v.19l-.51.3.51.32v.19l-.69-.43ZM29.06 98.87v-.14l.69-.43v.19l-.51.3.51.32v.19l-.69-.43ZM30.07 98.87v-.14l.69-.43v.19l-.51.3.51.32v.19l-.69-.43ZM31.09 98.87v-.14l.69-.43v.19l-.51.3.51.32v.19l-.69-.43ZM32.11 98.87v-.14l.69-.43v.19l-.51.3.51.32v.19l-.69-.43ZM33.12 98.87v-.14l.69-.43v.19l-.51.3.51.32v.19l-.69-.43ZM34.14 98.87v-.14l.69-.43v.19l-.51.3.51.32v.19l-.69-.43ZM35.15 98.87v-.14l.69-.43v.19l-.51.3.51.32v.19l-.69-.43ZM36.17 98.87v-.14l.69-.43v.19l-.51.3.51.32v.19l-.69-.43ZM37.18 98.87v-.14l.69-.43v.19l-.51.3.51.32v.19l-.69-.43ZM38.2 98.87v-.14l.69-.43v.19l-.51.3.51.32v.19l-.69-.43ZM39.21 98.87v-.14l.69-.43v.19l-.51.3.51.32v.19l-.69-.43ZM40.23 98.87v-.14l.69-.43v.19l-.51.3.51.32v.19l-.69-.43ZM41.25 98.87v-.14l.69-.43v.19l-.51.3.51.32v.19l-.69-.43ZM42.26 98.87v-.14l.69-.43v.19l-.51.3.51.32v.19l-.69-.43ZM43.28 98.87v-.14l.69-.43v.19l-.51.3.51.32v.19l-.69-.43ZM44.29 98.87v-.14l.69-.43v.19l-.51.3.51.32v.19l-.69-.43ZM45.31 98.87v-.14l.69-.43v.19l-.51.3.51.32v.19l-.69-.43ZM46.32 98.87v-.14l.69-.43v.19l-.51.3.51.32v.19l-.69-.43ZM47.34 98.87v-.14l.69-.43v.19l-.51.3.51.32v.19l-.69-.43ZM48.36 98.87v-.14l.69-.43v.19l-.51.3.51.32v.19l-.69-.43ZM49.37 98.87v-.14l.69-.43v.19l-.51.3.51.32v.19l-.69-.43ZM50.39 98.87v-.14l.69-.43v.19l-.51.3.51.32v.19l-.69-.43ZM51.4 98.87v-.14l.69-.43v.19l-.51.3.51.32v.19l-.69-.43ZM52.42 98.87v-.14l.69-.43v.19l-.51.3.51.32v.19l-.69-.43ZM53.43 98.87v-.14l.69-.43v.19l-.51.3.51.32v.19l-.69-.43ZM54.45 98.87v-.14l.69-.43v.19l-.51.3.51.32v.19l-.69-.43ZM55.46 98.87v-.14l.69-.43v.19l-.51.3.51.32v.19l-.69-.43ZM56.48 98.87v-.14l.69-.43v.19l-.51.3.51.32v.19l-.69-.43ZM57.5 98.87v-.14l.69-.43v.19l-.51.3.51.32v.19l-.69-.43ZM14.25 101.98l-.37-.58h.23l.27.44.27-.44h.21l-.37.58.39.61h-.23l-.29-.47-.28.47h-.21l.38-.6ZM15.33 101.98l-.37-.58h.23l.27.44.27-.44h.21l-.37.58.39.61h-.23l-.29-.47-.28.47h-.21l.38-.6ZM16.41 101.98l-.37-.58h.23l.27.44.27-.44h.21l-.37.58.39.61h-.23l-.29-.47-.28.47h-.21l.38-.6ZM17.49 101.98l-.37-.58h.23l.27.44.27-.44h.21l-.37.58.39.61h-.23l-.29-.47-.28.47h-.21l.38-.6ZM18.58 101.98l-.37-.58h.23l.27.44.27-.44h.21l-.37.58.39.61h-.23l-.29-.47-.28.47h-.21l.38-.6ZM19.66 101.98l-.37-.58h.23l.27.44.27-.44h.21l-.37.58.39.61h-.23l-.29-.47-.28.47h-.21l.38-.6ZM20.74 101.98l-.37-.58h.23l.27.44.27-.44h.21l-.37.58.39.61h-.23l-.29-.47-.28.47h-.21l.38-.6ZM21.82 101.98l-.37-.58h.23l.27.44.27-.44h.21l-.37.58.39.61h-.23l-.29-.47-.28.47h-.21l.38-.6ZM22.9 101.98l-.37-.58h.23l.27.44.27-.44h.21l-.37.58.39.61h-.23l-.29-.47-.28.47h-.21l.38-.6ZM23.98 101.98l-.37-.58h.23l.27.44.27-.44h.21l-.37.58.39.61h-.23l-.29-.47-.28.47h-.21l.38-.6ZM25.07 101.98l-.37-.58h.23l.27.44.27-.44h.21l-.37.58.39.61h-.23l-.29-.47-.28.47h-.21l.38-.6ZM26.15 101.98l-.37-.58h.23l.27.44.27-.44h.21l-.37.58.39.61h-.23l-.29-.47-.28.47h-.21l.38-.6ZM27.23 101.98l-.37-.58h.23l.27.44.27-.44h.21l-.37.58.39.61h-.23l-.29-.47-.28.47h-.21l.38-.6ZM28.05 102.17v-.14l.69-.43v.19l-.51.3.51.32v.19l-.69-.43ZM29.07 102.17v-.14l.69-.43v.19l-.51.3.51.32v.19l-.69-.43ZM30.09 102.17v-.14l.69-.43v.19l-.51.3.51.32v.19l-.69-.43ZM31.1 102.17v-.14l.69-.43v.19l-.51.3.51.32v.19l-.69-.43ZM32.12 102.17v-.14l.69-.43v.19l-.51.3.51.32v.19l-.69-.43ZM33.13 102.17v-.14l.69-.43v.19l-.51.3.51.32v.19l-.69-.43ZM34.15 102.17v-.14l.69-.43v.19l-.51.3.51.32v.19l-.69-.43ZM35.16 102.17v-.14l.69-.43v.19l-.51.3.51.32v.19l-.69-.43ZM36.18 102.17v-.14l.69-.43v.19l-.51.3.51.32v.19l-.69-.43ZM37.2 102.17v-.14l.69-.43v.19l-.51.3.51.32v.19l-.69-.43ZM38.21 102.17v-.14l.69-.43v.19l-.51.3.51.32v.19l-.69-.43ZM39.23 102.17v-.14l.69-.43v.19l-.51.3.51.32v.19l-.69-.43ZM40.24 102.17v-.14l.69-.43v.19l-.51.3.51.32v.19l-.69-.43ZM41.26 102.17v-.14l.69-.43v.19l-.51.3.51.32v.19l-.69-.43ZM42.27 102.17v-.14l.69-.43v.19l-.51.3.51.32v.19l-.69-.43ZM43.29 102.17v-.14l.69-.43v.19l-.51.3.51.32v.19l-.69-.43ZM44.3 102.17v-.14l.69-.43v.19l-.51.3.51.32v.19l-.69-.43ZM45.32 102.17v-.14l.69-.43v.19l-.51.3.51.32v.19l-.69-.43ZM46.34 102.17v-.14l.69-.43v.19l-.51.3.51.32v.19l-.69-.43ZM47.35 102.17v-.14l.69-.43v.19l-.51.3.51.32v.19l-.69-.43ZM48.62 101.98l-.37-.58h.23l.27.44.27-.44h.21l-.37.58.39.61h-.23l-.29-.47-.28.47h-.21l.38-.6ZM49.7 101.98l-.37-.58h.23l.27.44.27-.44h.21l-.37.58.39.61h-.23l-.29-.47-.28.47h-.21l.38-.6ZM50.79 101.98l-.37-.58h.23l.27.44.27-.44h.21l-.37.58.39.61h-.23l-.29-.47-.28.47h-.21l.38-.6ZM51.87 101.98l-.37-.58h.23l.27.44.27-.44h.21l-.37.58.39.61h-.23l-.29-.47-.28.47h-.21l.38-.6ZM52.95 101.98l-.37-.58h.23l.27.44.27-.44h.21l-.37.58.39.61h-.23l-.29-.47-.28.47h-.21l.38-.6ZM54.03 101.98l-.37-.58h.23l.27.44.27-.44h.21l-.37.58.39.61h-.23l-.29-.47-.28.47h-.21l.38-.6ZM55.11 101.98l-.37-.58h.23l.27.44.27-.44h.21l-.37.58.39.61h-.23l-.29-.47-.28.47h-.21l.38-.6ZM56.19 101.98l-.37-.58h.23l.27.44.27-.44h.21l-.37.58.39.61h-.23l-.29-.47-.28.47h-.21l.38-.6ZM57.28 101.98l-.37-.58h.23l.27.44.27-.44h.21l-.37.58.39.61h-.23l-.29-.47-.28.47h-.21l.38-.6ZM58.36 101.98l-.37-.58h.23l.27.44.27-.44h.21l-.37.58.39.61h-.23l-.29-.47-.28.47h-.21l.38-.6Z"/><path d="m27.95 77.93-.09-.18v.64h-.13v-.83h.15l.27.46.09.18v-.64h.13v.83h-.15l-.27-.46ZM28.52 78.08c0-.2.11-.32.28-.32s.28.13.28.32-.11.32-.28.32-.28-.13-.28-.32Zm.43.05v-.1c0-.11-.06-.16-.15-.16s-.15.05-.15.16v.1c0 .11.06.16.15.16s.15-.05.15-.16ZM29.23 78.39v-.62h.13v.1c.02-.06.07-.12.17-.12.08 0 .15.04.18.13.02-.07.09-.13.19-.13.12 0 .2.09.2.24v.39h-.13V78c0-.1-.04-.14-.11-.14s-.13.03-.13.11v.42h-.13v-.38c0-.1-.04-.14-.11-.14-.06 0-.13.03-.13.11v.42h-.13ZM30.56 77.85v-.02s.03-.08.09-.08.09.03.09.08v.02s-.03.08-.09.08-.09-.03-.09-.08Zm0 .47v-.02s.03-.08.09-.08.09.03.09.08v.02s-.03.08-.09.08-.09-.03-.09-.08ZM49.36 75.39l-.09-.18v.64h-.13v-.83h.15l.27.46.09.18v-.64h.13v.83h-.15l-.27-.46ZM50.43 75.85c-.07 0-.1-.04-.11-.1-.02.08-.09.12-.18.12-.13 0-.2-.07-.2-.18 0-.12.09-.19.26-.19h.11v-.05c0-.08-.04-.12-.13-.12-.07 0-.12.04-.15.08l-.08-.07c.04-.07.11-.12.23-.12.16 0 .25.08.25.22v.31h.07v.11h-.07Zm-.12-.18v-.09h-.11c-.09 0-.13.03-.13.08v.02c0 .05.04.08.1.08.08 0 .14-.04.14-.1ZM50.79 75.85c-.09 0-.14-.05-.14-.13v-.38h-.1v-.11h.05s.06-.02.06-.06v-.11h.12v.17h.13v.11h-.13v.41h.12v.11h-.11ZM51.04 75.05v-.02s.02-.07.08-.07.08.03.08.07v.02s-.02.07-.08.07-.08-.03-.08-.07Zm.01.18h.13v.62h-.13v-.62ZM51.33 75.54c0-.2.11-.32.28-.32s.28.13.28.32-.11.32-.28.32-.28-.13-.28-.32Zm.43.05v-.1c0-.11-.06-.16-.15-.16s-.15.05-.15.16v.1c0 .11.06.16.15.16s.15-.05.15-.16ZM52.04 75.85v-.62h.13v.1c.03-.07.08-.12.17-.12.13 0 .2.09.2.24v.39h-.13v-.38c0-.1-.04-.15-.12-.15-.07 0-.13.03-.13.11v.41h-.13ZM53.18 75.85c-.07 0-.1-.04-.11-.1-.02.08-.09.12-.18.12-.13 0-.2-.07-.2-.18 0-.12.09-.19.26-.19h.11v-.05c0-.08-.04-.12-.13-.12-.07 0-.12.04-.15.08l-.08-.07c.04-.07.11-.12.23-.12.16 0 .25.08.25.22v.31h.07v.11h-.07Zm-.12-.18v-.09h-.11c-.09 0-.13.03-.13.08v.02c0 .05.04.08.1.08.08 0 .14-.04.14-.1ZM53.51 75.85c-.09 0-.13-.05-.13-.13v-.75h.13v.77h.09v.11h-.08ZM53.7 75.05v-.02s.02-.07.08-.07.08.03.08.07v.02s-.02.07-.08.07-.08-.03-.08-.07Zm.01.18h.13v.62h-.13v-.62ZM54.2 75.85c-.09 0-.14-.05-.14-.13v-.38h-.1v-.11h.05s.06-.02.06-.06v-.11h.12v.17h.13v.11h-.13v.41h.12v.11h-.11ZM54.41 75.54c0-.2.11-.32.28-.32s.27.14.27.31v.05h-.42v.02c0 .1.06.16.16.16.08 0 .13-.04.16-.09l.08.07c-.05.08-.14.12-.25.12-.18 0-.28-.13-.28-.32Zm.13-.06h.29c0-.11-.05-.17-.14-.17s-.15.07-.15.16Zm.16-.32-.08-.04.11-.21.11.05-.14.2ZM55.4 75.85v-.83h.52v.12h-.38v.23h.34v.12h-.34v.36h-.13ZM56.04 75.85v-.62h.13v.12c.02-.06.07-.12.17-.12h.03v.12h-.05c-.1 0-.16.03-.16.1v.4h-.13ZM56.94 75.85c-.07 0-.1-.04-.11-.1-.02.08-.09.12-.18.12-.13 0-.2-.07-.2-.18 0-.12.09-.19.26-.19h.11v-.05c0-.08-.04-.12-.13-.12-.07 0-.12.04-.15.08l-.08-.07c.04-.07.11-.12.23-.12.16 0 .25.08.25.22v.31h.07v.11h-.07Zm-.12-.18v-.09h-.11c-.09 0-.13.03-.13.08v.02c0 .05.04.08.1.08.08 0 .14-.04.14-.1ZM57.14 75.85v-.62h.13v.1c.03-.07.08-.12.17-.12.13 0 .2.09.2.24v.39h-.13v-.38c0-.1-.04-.15-.12-.15-.07 0-.13.03-.13.11v.41h-.13ZM58.3 75.37l-.11.05c-.02-.06-.06-.09-.13-.09-.1 0-.14.07-.14.16v.11c0 .1.05.16.14.16.08 0 .12-.04.15-.1l.1.05c-.04.09-.12.15-.22.16v.05h.05c.05 0 .08.03.08.08 0 .07-.07.1-.14.1s-.11-.03-.13-.05l.05-.06s.04.03.08.03c.03 0 .05-.01.05-.03 0-.02-.02-.04-.08-.05h-.03l.02-.08c-.15-.02-.23-.14-.23-.32 0-.2.1-.32.28-.32.12 0 .2.06.24.15ZM58.88 75.85c-.07 0-.1-.04-.11-.1-.02.08-.09.12-.18.12-.13 0-.2-.07-.2-.18 0-.12.09-.19.26-.19h.11v-.05c0-.08-.04-.12-.13-.12-.07 0-.12.04-.15.08l-.08-.07c.04-.07.11-.12.23-.12.16 0 .25.08.25.22v.31h.07v.11h-.07Zm-.12-.18v-.09h-.11c-.09 0-.13.03-.13.08v.02c0 .05.04.08.1.08.08 0 .14-.04.14-.1ZM59.07 75.05v-.02s.02-.07.08-.07.08.03.08.07v.02s-.02.07-.08.07-.08-.03-.08-.07Zm.01.18h.13v.62h-.13v-.62ZM59.34 75.74l.08-.08c.04.05.1.09.17.09s.11-.03.11-.08c0-.04-.02-.07-.09-.08h-.06c-.13-.02-.2-.08-.2-.19 0-.12.09-.19.23-.19.11 0 .17.04.23.1l-.08.08s-.08-.07-.15-.07c-.07 0-.1.03-.1.08s.03.07.1.08h.06c.14.03.2.09.2.19 0 .12-.1.2-.25.2-.12 0-.19-.04-.25-.12ZM59.94 75.54c0-.2.11-.32.28-.32s.27.14.27.31v.05h-.42v.02c0 .1.06.16.16.16.08 0 .13-.04.16-.09l.08.07c-.05.08-.14.12-.25.12-.18 0-.28-.13-.28-.32Zm.13-.06h.29c0-.11-.05-.17-.14-.17s-.15.07-.15.16ZM27.56 82.19v-.83h.36c.15 0 .24.1.24.25s-.09.25-.24.25h-.22v.33h-.13Zm.13-.45h.21c.07 0 .11-.04.11-.1v-.06c0-.07-.04-.1-.11-.1h-.21v.26ZM28.28 82.19v-.62h.13v.12c.02-.06.07-.12.17-.12h.03v.12h-.05c-.1 0-.16.03-.16.1v.4h-.13ZM28.69 81.88c0-.2.11-.32.28-.32s.27.14.27.31v.05h-.42v.02c0 .1.06.16.16.16.08 0 .13-.04.16-.09l.08.07c-.05.08-.14.12-.25.12-.18 0-.28-.13-.28-.32Zm.13-.06h.29c0-.11-.05-.17-.14-.17s-.15.07-.15.16Zm.16-.32-.08-.04.11-.21.11.05-.14.2ZM29.39 82.19v-.62h.13v.1c.03-.07.08-.12.17-.12.13 0 .2.09.2.24v.39h-.13v-.38c0-.1-.04-.15-.12-.15-.07 0-.13.03-.13.11v.41h-.13ZM30.03 81.88c0-.2.11-.32.28-.32s.28.13.28.32-.11.32-.28.32-.28-.13-.28-.32Zm.43.05v-.1c0-.11-.06-.16-.15-.16s-.15.05-.15.16v.1c0 .11.06.16.15.16s.15-.05.15-.16ZM30.74 82.19v-.62h.13v.1c.02-.06.07-.12.17-.12.08 0 .15.04.18.13.02-.07.09-.13.19-.13.12 0 .2.09.2.24v.39h-.13v-.38c0-.1-.04-.14-.11-.14s-.13.03-.13.11v.42h-.13v-.38c0-.1-.04-.14-.11-.14-.06 0-.13.03-.13.11v.42h-.13ZM31.98 81.29h.12c-.13.12-.21.31-.21.49v.1c0 .18.08.37.21.49h-.12c-.12-.1-.21-.3-.21-.53s.09-.43.21-.53ZM32.13 82.09l.08-.08c.04.05.1.09.17.09s.11-.03.11-.08c0-.04-.02-.07-.09-.08h-.06c-.13-.02-.2-.08-.2-.19 0-.12.09-.19.23-.19.11 0 .17.04.23.1l-.08.08s-.08-.07-.15-.07c-.07 0-.1.03-.1.08s.03.07.1.08h.06c.14.03.2.09.2.19 0 .12-.1.2-.25.2-.12 0-.19-.04-.25-.12ZM32.79 82.36h-.12c.13-.12.21-.31.21-.49v-.1c0-.18-.08-.37-.21-.49h.12c.12.1.21.3.21.53s-.09.43-.21.53ZM33.45 81.66v-.02s.03-.08.09-.08.09.03.09.08v.02s-.03.08-.09.08-.09-.03-.09-.08Zm0 .47v-.02s.03-.08.09-.08.09.03.09.08v.02s-.03.08-.09.08-.09-.03-.09-.08ZM27.51 85.88l.09-.09c.06.07.13.11.22.11.11 0 .16-.05.16-.13 0-.06-.03-.1-.13-.12h-.07c-.16-.04-.24-.12-.24-.25 0-.15.11-.24.29-.24.12 0 .22.05.28.13l-.09.08c-.04-.06-.1-.09-.19-.09s-.15.04-.15.11.04.1.13.12l.07.02c.17.03.24.11.24.24 0 .15-.11.26-.3.26-.14 0-.23-.05-.3-.14ZM28.22 85.69c0-.2.11-.32.28-.32s.27.14.27.31v.05h-.42v.02c0 .1.06.16.16.16.08 0 .13-.04.16-.09l.08.07c-.05.08-.14.12-.25.12-.18 0-.28-.13-.28-.32Zm.13-.06h.29c0-.11-.05-.17-.14-.17s-.15.07-.15.16ZM29.05 85.69l-.21-.31h.15l.14.22.14-.22h.14l-.21.3.22.31h-.15l-.14-.23-.15.23h-.14l.22-.31ZM29.47 85.69c0-.2.11-.32.28-.32s.27.14.27.31v.05h-.42v.02c0 .1.06.16.16.16.08 0 .13-.04.16-.09l.08.07c-.05.08-.14.12-.25.12-.18 0-.28-.13-.28-.32Zm.13-.06h.29c0-.11-.05-.17-.14-.17s-.15.07-.15.16ZM30.46 85.47v-.02s.03-.08.09-.08.09.03.09.08v.02s-.03.08-.09.08-.09-.03-.09-.08Zm0 .47v-.02s.03-.08.09-.08.09.03.09.08v.02s-.03.08-.09.08-.09-.03-.09-.08ZM27.73 89.01h-.25v-.12h.63v.12h-.25v.71h-.13v-.71ZM28.6 89.73c-.07 0-.1-.04-.11-.1-.02.08-.09.12-.18.12-.13 0-.2-.07-.2-.18 0-.12.09-.19.26-.19h.11v-.05c0-.08-.04-.12-.13-.12-.07 0-.12.04-.15.08l-.08-.07c.04-.07.11-.12.23-.12.16 0 .25.08.25.22v.31h.07v.11h-.07Zm-.12-.18v-.09h-.11c-.09 0-.13.03-.13.08v.02c0 .05.04.08.1.08.08 0 .14-.04.14-.1ZM28.79 88.93v-.02s.02-.07.08-.07.08.03.08.07v.02s-.02.07-.08.07-.08-.03-.08-.07Zm.01.18h.13v.62h-.13v-.62ZM29.25 89.73c-.09 0-.13-.05-.13-.13v-.75h.13v.77h.09v.11h-.08ZM29.58 89.73c-.09 0-.13-.05-.13-.13v-.75h.13v.77h.09v.11h-.08ZM29.74 89.42c0-.2.11-.32.28-.32s.27.14.27.31v.05h-.42v.02c0 .1.06.16.16.16.08 0 .13-.04.16-.09l.08.07c-.05.08-.14.12-.25.12-.18 0-.28-.13-.28-.32Zm.13-.06h.29c0-.11-.05-.17-.14-.17s-.15.07-.15.16ZM27.51 91.46l.09-.09c.06.07.13.11.22.11.11 0 .16-.05.16-.13 0-.06-.03-.1-.13-.12h-.07c-.16-.04-.24-.12-.24-.25 0-.15.11-.24.29-.24.12 0 .22.05.28.13l-.09.08c-.04-.06-.1-.09-.19-.09s-.15.04-.15.11.04.1.13.12l.07.02c.17.03.24.11.24.24 0 .15-.11.26-.3.26-.14 0-.23-.05-.3-.14ZM28.25 90.79v-.02s.02-.07.08-.07.08.03.08.07v.02s-.02.07-.08.07-.08-.03-.08-.07Zm.01.18h.13v.62h-.13v-.62ZM28.8 91.84c-.2 0-.28-.05-.28-.15 0-.07.04-.1.11-.12s-.07-.06-.07-.11c0-.06.05-.09.11-.11a.204.204 0 0 1-.11-.19c0-.13.09-.21.25-.21.04 0 .08 0 .11.02v-.02c0-.05.03-.09.08-.09h.1v.1h-.13v.02c.06.04.09.1.09.17 0 .12-.09.21-.25.21h-.08c-.03.01-.06.03-.06.06s.03.05.09.05h.15c.15 0 .22.06.22.17 0 .13-.09.19-.31.19Zm.08-.25h-.21s-.04.04-.04.07c0 .05.04.08.13.08h.08c.1 0 .15-.03.15-.09 0-.04-.03-.07-.11-.07Zm.04-.41v-.02c0-.07-.04-.1-.12-.1s-.12.03-.12.1v.02c0 .07.04.1.12.1s.12-.03.12-.1ZM29.21 91.59v-.62h.13v.1c.03-.07.08-.12.17-.12.13 0 .2.09.2.24v.39h-.13v-.38c0-.1-.04-.15-.12-.15-.07 0-.13.03-.13.11v.41h-.13ZM30.35 91.59c-.07 0-.1-.04-.11-.1-.02.08-.09.12-.18.12-.13 0-.2-.07-.2-.18 0-.12.09-.19.26-.19h.11v-.05c0-.08-.04-.12-.13-.12-.07 0-.12.04-.15.08l-.08-.07c.04-.07.11-.12.23-.12.16 0 .25.08.25.22v.31h.07v.11h-.07Zm-.12-.18v-.09h-.11c-.09 0-.13.03-.13.08v.02c0 .05.04.08.1.08.08 0 .14-.04.14-.1ZM30.71 91.59c-.09 0-.14-.05-.14-.13v-.38h-.1v-.11h.05s.06-.02.06-.06v-.11h.12v.17h.13v.11h-.13v.41h.12v.11h-.11ZM31.35 91.48c-.02.06-.07.12-.17.12-.13 0-.2-.09-.2-.24v-.39h.13v.38c0 .09.04.14.12.14.07 0 .13-.03.13-.11v-.41h.13v.62h-.13v-.1ZM31.66 91.59v-.62h.13v.12c.02-.06.07-.12.17-.12h.03v.12h-.05c-.1 0-.16.03-.16.1v.4h-.13ZM32.07 91.28c0-.2.11-.32.28-.32s.27.14.27.31v.05h-.42v.02c0 .1.06.16.16.16.08 0 .13-.04.16-.09l.08.07c-.05.08-.14.12-.25.12-.18 0-.28-.13-.28-.32Zm.13-.06h.29c0-.11-.05-.17-.14-.17s-.15.07-.15.16ZM27.94 92.91c-.03.07-.09.12-.17.12-.16 0-.25-.12-.25-.32s.09-.32.25-.32c.08 0 .15.04.17.12v-.36h.13v.88h-.13v-.1Zm0-.1v-.21c0-.06-.06-.11-.14-.11-.09 0-.15.06-.15.16v.11c0 .1.06.16.15.16.08 0 .14-.04.14-.11ZM28.63 92.91c-.02.06-.07.12-.17.12-.13 0-.2-.09-.2-.24v-.39h.13v.38c0 .09.04.14.12.14.07 0 .13-.03.13-.11v-.41h.13v.62h-.13v-.1ZM29.39 93.01c-.09 0-.14-.05-.14-.13v-.38h-.1v-.11h.05s.06-.02.06-.06v-.11h.12v.17h.13v.11h-.13v.41h.12v.11h-.11ZM29.64 92.21v-.02s.02-.07.08-.07.08.03.08.07v.02s-.02.07-.08.07-.08-.03-.08-.07Zm.01.18h.13v.62h-.13v-.62ZM30.14 93.01c-.09 0-.14-.05-.14-.13v-.38h-.1v-.11h.05s.06-.02.06-.06v-.11h.12v.17h.13v.11h-.13v.41h.12v.11h-.11ZM30.77 92.91c-.02.06-.07.12-.17.12-.13 0-.2-.09-.2-.24v-.39h.13v.38c0 .09.04.14.12.14.07 0 .13-.03.13-.11v-.41h.13v.62h-.13v-.1ZM31.22 93.01c-.09 0-.13-.05-.13-.13v-.75h.13v.77h.09v.11h-.08ZM31.88 93.01c-.07 0-.1-.04-.11-.1-.02.08-.09.12-.18.12-.13 0-.2-.07-.2-.18 0-.12.09-.19.26-.19h.11v-.05c0-.08-.04-.12-.13-.12-.07 0-.12.04-.15.08l-.08-.07c.04-.07.11-.12.23-.12.16 0 .25.08.25.22v.31h.07v.11h-.07Zm-.12-.18v-.09h-.11c-.09 0-.13.03-.13.08v.02c0 .05.04.08.1.08.08 0 .14-.04.14-.1ZM32.06 92.21v-.02s.02-.07.08-.07.08.03.08.07v.02s-.02.07-.08.07-.08-.03-.08-.07Zm.01.18h.13v.62h-.13v-.62ZM32.39 93.01v-.62h.13v.12c.02-.06.07-.12.17-.12h.03v.12h-.05c-.1 0-.16.03-.16.1v.4h-.13ZM32.79 92.7c0-.2.11-.32.28-.32s.27.14.27.31v.05h-.42v.02c0 .1.06.16.16.16.08 0 .13-.04.16-.09l.08.07c-.05.08-.14.12-.25.12-.18 0-.28-.13-.28-.32Zm.13-.06h.29c0-.11-.05-.17-.14-.17s-.15.07-.15.16ZM33.78 92.47v-.02s.03-.08.09-.08.09.03.09.08v.02s-.03.08-.09.08-.09-.03-.09-.08Zm0 .47v-.02s.03-.08.09-.08.09.03.09.08v.02s-.03.08-.09.08-.09-.03-.09-.08ZM28 87.95c-.07 0-.1-.04-.11-.1-.02.08-.09.12-.18.12-.13 0-.2-.07-.2-.18 0-.12.09-.19.26-.19h.11v-.05c0-.08-.04-.12-.13-.12-.07 0-.12.04-.15.08l-.08-.07c.04-.07.11-.12.23-.12.16 0 .25.08.25.22v.31h.07v.11H28Zm-.39-.89.11-.05.11.21-.08.04-.14-.2Zm.27.71v-.09h-.11c-.09 0-.13.03-.13.08v.02c0 .05.04.08.1.08.08 0 .14-.04.14-.1ZM28.49 87.41v-.02s.03-.08.09-.08.09.03.09.08v.02s-.03.08-.09.08-.09-.03-.09-.08Zm0 .47v-.02s.03-.08.09-.08.09.03.09.08v.02s-.03.08-.09.08-.09-.03-.09-.08Z" class="cls-23"/><text style="font-family:IBMPlexSans-Medium,&quot;IBM Plex Sans&quot;;font-size:1.18px;font-weight:500;fill:#175365" transform="translate(40.66 85.92)"><tspan x="0" y="0">Né(e) le :</tspan></text><path d="M41.56 91.24s1.1 4.57-.59 3.81-1.52-2.12-.68-2.28 2.62 1.69 3.89 1.18 2.28-2.03 1.44-2.37-.34 2.71.93 2.62-4.91-2.28-8.8-1.78" style="stroke-width:.08px;stroke-miterlimit:10;fill:none;stroke:#000"/><path d="M59.93 105.53h-46.5c-1 0-1.75-.81-1.75-1.81l14.19.9 20.72-.31 15.16-.59c0 1-.81 1.81-1.81 1.81Z" class="cls-19"/><path d="M18.47 87.84h-.02" style="stroke-width:.7px;fill:none;stroke-linecap:round;stroke-linejoin:round;stroke:#000"/><path d="M22.47 80.49s-.62.37-1.32.5" style="stroke-width:.48px;fill:none;stroke-linecap:round;stroke-linejoin:round;stroke:#000"/><path d="M20 95.69c-1.66.35-3.1-1.25-3.1-1.25l.2-2.8.02-.32 4.33-.83.11.9.36 3.04c-.02.06-.03.12-.06.17-.01.04-.02.07-.03.1 0 .01 0 .03-.01.04 0 0-.66.7-1.82.94Z" class="cls-3"/><path d="M18.67 79.34s0 .81-.29 1.35h0M17.1 81.03c-.64-.37-1.07-1.31-1.07-1.31M15.08 88.45h0c-.07-.02-.6-.15-.91-.98-.33-.89-.71-.79-.75-1.71-.02-.87.88-.49.98-.44" class="cls-6"/><path d="M15.78 81.43c.4.02.86-.07 1.32-.4.19.12.4.18.61.15.31-.03.51-.24.65-.49l.02.01c.09.08.64.57 1.32-.09.36.43.92.47 1.44.37.31.24.74.21.74.21.02.03.06.08.07.11 1.28 1.8 1.4 3.03 1.41 3.16.08-.32.14-.63.18-.92-.07.54-.17.93-.19 1.01h0v.02h0c.02.51.02 1.83-.19 3.2-.18 1.14-.52 2.31-1.14 3.06-1.44 1.76-2.38 1.79-2.52 1.78-.14.03-1.13.18-2.84-1.34-.73-.65-1.25-1.75-1.6-2.85-.42-1.32-.61-2.63-.68-3.13h0c-.01-.06-.02-.12-.01-.18.02.05.04.08.04.08-.02-.21-.02-.42-.01-.63.14-1.06 1.11-2.82 1.22-3.12l.14-.03Z" class="cls-3"/><path d="M14.41 85.31v-.01h0c-.04-.11-.28-.62-.43-1.33v-.02c-.32-1.42-.33-3.55 2.02-4.5 0 0 .15-.78 1.14-.65 0 0 1.15-1.26 2.54-.23.96-.27 1.23.47 1.23.47 2.66.62 2.83 3.02 2.67 4.45 0 .03-.01.05 0 .07M23.17 87.79h0c.07-.03.57-.24.74-1.11.19-.93.58-.89.48-1.81-.11-.87-.95-.35-1.04-.29" class="cls-6"/><path d="M20.28 79.83c-.17.32-.35.56-.51.73-.02.02-.03.05-.05.06" class="cls-6"/><path d="M19.31 84.48s.31 2.75.9 4.13c0 0-.12.28-1.01.11" class="cls-3"/><ellipse cx="17.47" cy="85.79" class="cls-3" rx=".1" ry=".28" transform="rotate(-4.42 17.445 85.924)"/><ellipse cx="21.26" cy="85.43" class="cls-3" rx=".1" ry=".28" transform="rotate(-4.42 21.223 85.55)"/><path d="M26.41 94.82s-3.14-.26-4.49-.38M16.87 94.45s-4.13.7-5.25.7" class="cls-11"/><path d="m19.34 18.45 87.06 90.99M106.4 18.45l-87.06 90.99" class="cls-17"/><path d="m13.81 119.21 3.47 2.04 3.49-2.04v-3.84l-3.48-2.08-3.48 2.08v3.84z" style="stroke-width:.25px;stroke-miterlimit:10;fill:none;stroke:#000"/><path d="M-765.08-755.64h1509.9v999.05h-1509.9z" style="stroke:#fff;stroke-width:8px;fill:none;stroke-linecap:round;stroke-linejoin:round"/></svg>