<svg xmlns="http://www.w3.org/2000/svg" id="Calque_1" viewBox="0 0 128 128"><defs><style>.cls-2,.cls-3,.cls-4,.cls-5,.cls-6,.cls-7{stroke-linecap:round;stroke-linejoin:round}.cls-5{fill:none}.cls-2{fill:#77eddf}.cls-2,.cls-3,.cls-4,.cls-5,.cls-6,.cls-7{stroke:#000}.cls-3{fill:#fff}.cls-4,.cls-7{fill:#afaff9}.cls-6{fill:#87ccf3}.cls-7{stroke-width:1.03px}</style></defs><path d="M-1953.06-1040.06H702.02V471.71h-2655.08z" style="fill:none;stroke-linecap:round;stroke-linejoin:round;stroke:#e30613;stroke-width:8px"/><path d="m49.43 76.36-.32.85-1.46 3.85c-.11.26-.39.4-.65.31a.525.525 0 0 1-.37-.5c0-.05 0-.09.02-.14l.12-.45h.01l.5-1.88 2.17-2.04Z" class="cls-3"/><path d="m54.46 39.98-.09 7.05-.11 1.49-.11 1.63-.32 4.58-.4 3.79-4.21-.51-.18-10.46s-.59-5.58-.59-10.96h5.48c.16 1.14.34 2.28.51 3.4Z" class="cls-2"/><path d="M52.26 70.93s.91 2.47-.22 4.74c-.02.03-.03.08-.05.12-.66 1.35-.87 2.33-.94 2.86-.03.28-.27.51-.57.52h-.02c-.3 0-.55-.23-.58-.54-.05-.59-.08-1.61.19-2.69l-.96 1.25.33-.85-2.17 2.04-.49 1.88h-.01l-.43.57c-.18.21-.48.24-.69.07a.494.494 0 0 1-.14-.34c0-.07 0-.12.03-.17l2.49-6.7s.91-2.39 1.38-4.12c.01-.02.01-.04.02-.07l-.2-11.51 4.21.51-1.2 11.42c-.01.1-.02.19-.05.27l.09.72Z" class="cls-3"/><path d="m49.43 76.36-.33.84-2.34 3.07.5-1.87 2.17-2.04zM78.57 76.36l.32.85 1.46 3.85c.11.26.39.4.65.31.22-.07.37-.27.37-.5 0-.05 0-.09-.02-.14l-.12-.45h-.01l-.5-1.88-2.17-2.04Z" class="cls-3"/><path d="M79.53 36.59c0 5.38-.59 10.96-.59 10.96l-.2 11.94-4.04.37-.55-5.14-.32-4.58-.11-1.63-.1-1.49-.1-7.05c.21-1.3.4-2.64.59-3.96l-.07.56h5.47Z" class="cls-2"/><path d="M82.51 80.57c0 .12-.07.25-.15.34-.2.18-.51.14-.68-.07l-.44-.56h-.01l-.49-1.89-2.16-2.04.32.85-.96-1.25c.27 1.08.24 2.1.19 2.69a.58.58 0 0 1-.58.54h-.02c-.3-.01-.52-.24-.57-.52-.07-.54-.28-1.51-.94-2.86a.433.433 0 0 0-.05-.12c-1.13-2.27-.22-4.74-.22-4.74l.09-.72c-.03-.09-.04-.17-.05-.27l-1.06-10.07 4.04-.37-.18 10.02s.01.04.02.07c.47 1.73 1.38 4.12 1.38 4.12l2.49 6.7c.03.05.04.11.04.17Z" class="cls-3"/><path d="m78.57 76.36.32.84 2.34 3.07-.5-1.87-2.16-2.04z" class="cls-3"/><path d="M53.85 29.11s-6.26-.31-6.2 12.08l5.75.26.45-12.34Z" class="cls-4"/><path d="m67.92 119.36-1.03-18.08 5.92.56-.41 17.4-4.48.12zM63.01 119.6v-4.01l-.69-11.3-5.24-2.73 1.11 17.69 4.82.35z" class="cls-3"/><path d="m53.61 70.12 4.02 42.49h6.34l-.03-47.45.99-.14 2.02 47.59h6.34s.79-17.49 1.75-33.15c.17-2.78.34-5.52.52-8.08.39-5.7.03-9.91-.63-12.99-.42-1.95-.96-3.45-1.49-4.58-1.12-2.37-2.24-3.12-2.24-3.12-7.32-4.24-13.76 0-13.76 0-1.14 1.67-1.98 3.49-2.59 5.3-.26.79-.48 1.59-.66 2.37-.12.52-.22 1.03-.3 1.52-.99 5.52-.26 10.23-.26 10.23ZM71.02 125.75l9.14.12c.67 0 1.23-.53 1.25-1.2h0c.01-.47-.24-.9-.65-1.12l-7.78-4.16c-.18-.1-.38-.15-.58-.15h-3.97c-.58 0-1.08.4-1.2.96l-.76 3.41c-.02.08-.03.16-.03.24l-.02.6c-.02.69.53 1.26 1.22 1.26l1.57.02 1.81.02ZM59.57 125.76l-9.14.12c-.67 0-1.23-.53-1.25-1.2h0c-.01-.47.24-.9.65-1.12l7.78-4.16c.18-.1.38-.15.58-.15h3.97c.58 0 1.08.4 1.2.96l.76 3.41c.02.08.03.16.03.24l.02.6c.02.69-.53 1.26-1.22 1.26l-1.57.02-1.81.02Z" class="cls-4"/><path d="M53.12 74.98h3.36l17.27.03h1.86V58.26l-.66-2.9-.44-25.83h0c0-.09.02-.14.02-.14l-4.67-1.26-2.92-.79 2.07 1.84-4.84 4.44-4.92-4.44 1.98-1.84-2.69.62h-.02l-5.14 1.2h0l.71 26.09-.95 19.72Z" class="cls-4"/><path d="m59.22 29.18 4.92 4.44-3.07-6.08-1.85 1.64z" class="cls-6"/><path d="m64.14 33.62 4.85-4.44-1.95-1.73-2.9 6.17z" class="cls-6"/><path d="m64.14 33.62 4.85-4.44-1.95-1.73-2.9 6.17z" class="cls-6"/><path d="m59.22 29.18 4.92 4.44-3.07-6.08-1.85 1.64z" class="cls-6"/><path d="m64.14 33.62 4.85-4.44-1.95-1.73-2.9 6.17z" class="cls-7"/><path d="m59.22 29.18 4.92 4.44-3.07-6.08-1.85 1.64z" class="cls-7"/><path d="m61.2 27.34 2.94 6.28 2.77-6.28-.89-2.28h-4.46l-.36 2.28z" class="cls-3"/><path d="M69.5 20.13h.01c.1-.02.82-.21 1.24-1.35.46-1.23.98-1.08 1.03-2.35.03-1.2-1.21-.68-1.35-.61" class="cls-5"/><path d="M68.54 10.49c-.55.03-1.18-.1-1.81-.54-.26.16-.54.24-.84.21-.42-.04-.7-.33-.9-.68-.01 0-.02.02-.03.02-.12.11-.88.78-1.82-.13-.49.59-1.26.65-1.98.51-.43.33-1.01.3-1.01.3-.03.05-.08.1-.1.15-1.76 2.48-1.93 4.16-1.94 4.34-.11-.44-.19-.86-.25-1.26.09.74.23 1.28.27 1.39h0v.03h0c-.02.7-.03 2.52.25 4.4.24 1.56.71 3.17 1.57 4.21 1.98 2.41 3.27 2.46 3.46 2.45.2.05 1.56.25 3.9-1.84 1.01-.89 1.72-2.41 2.2-3.92.57-1.81.84-3.61.93-4.31h0c.02-.08.02-.16.02-.25-.03.07-.05.11-.05.11.02-.29.02-.58.02-.87-.19-1.46-1.52-3.87-1.68-4.29l-.19-.04Z" class="cls-3"/><path d="M70.42 14.81c.04.28.05.53.03.76" class="cls-5"/><path d="M70.43 15.82s0-.01.01-.02h0c.06-.15.38-.86.6-1.83v-.03c.44-1.94.45-4.88-2.78-6.19 0 0-.2-1.07-1.57-.9 0 0-1.58-1.73-3.49-.31-1.32-.37-1.69.65-1.69.65-3.65.86-3.88 4.15-3.67 6.11 0 .04.01.07.01.1" class="cls-5"/><path d="M60.01 10.53s-1.88 2.73-1.88 4.31M70.47 15.52h0s0 .13-.03.27h0v.03M58.12 14.83v-.02" class="cls-5"/><path d="M58.14 14.53s0 .1-.01.27M58.39 19.23h-.01c-.1-.04-.78-.33-1.02-1.52-.26-1.28-.8-1.22-.66-2.48.15-1.19 1.3-.48 1.42-.39" class="cls-5"/><path d="M63.69 14.67s-.42 3.78-1.24 5.67c0 0 .16.39 1.39.15" class="cls-3"/><ellipse cx="66.22" cy="16.48" class="cls-3" rx=".38" ry=".13" transform="rotate(-85.58 66.216 16.482)"/><ellipse cx="61.02" cy="15.98" class="cls-3" rx=".38" ry=".13" transform="rotate(-85.58 61.02 15.984)"/><path d="M57.46 36.74h3.62v1.5h-3.62z" class="cls-3"/><path d="M73.95 29.39s6.26-.31 6.2 12.08l-5.75.26-.45-12.34Z" class="cls-4"/><path d="m53.52 62.58-.09-.01" class="cls-5"/><path d="M65.92 36.86h5.66v3.61c0 1.56-1.27 2.83-2.83 2.83h0c-1.56 0-2.83-1.27-2.83-2.83v-3.61h0Z" class="cls-4"/></svg>