<svg xmlns="http://www.w3.org/2000/svg" id="Calque_1" data-name="Calque 1" viewBox="0 0 200 128"><defs><style>.cls-2{fill:#005c2f}.cls-3,.cls-4{fill:#e9cb61}.cls-7{fill:#c2524d}.cls-10{fill:#e6e3d4}.cls-10,.cls-11,.cls-12,.cls-13,.cls-14,.cls-15,.cls-16,.cls-17,.cls-2,.cls-4,.cls-7{stroke:#000;stroke-miterlimit:10;stroke-width:2px}.cls-11{fill:#eecac3}.cls-12{fill:#b8b21c}.cls-13{fill:#96c522}.cls-14{fill:#3f3a31}.cls-15{fill:#876b68}.cls-16{fill:#c8b6b9}.cls-17{fill:none}</style></defs><path d="M38.95 57.34c0 .87-.35 1.66-.93 2.23-.57.58-1.36.93-2.24.93H9.01c-1.75 0-3.16-1.41-3.16-3.16 0-.88.35-1.67.93-2.24.57-.58 1.36-.93 2.24-.93h3.13a3.16 3.16 0 0 1-3.16-3.16c0-.87.35-1.66.93-2.23.58-.58 1.37-.93 2.24-.93h5.78a3.16 3.16 0 0 1-3.16-3.16c0-.88.35-1.66.93-2.23.57-.58 1.36-.93 2.23-.93h6.04c.97 0 1.9-.38 2.6-1.06.67-.65 1.64-1.56 2.77-2.51 1.91-1.62 1.33 6.73 1.33 6.73 0 1.75-1.41 3.16-3.16 3.16h4.87a3.16 3.16 0 0 1 3.16 3.16c0 .88-.35 1.67-.93 2.24-.57.58-1.36.93-2.23.93h3.42c1.75 0 3.16 1.41 3.16 3.16ZM12.14 54.17H25.7M17.92 47.85h5.77M27.89 47.85H25.7M32.37 54.17h-1.9" class="cls-15"/><path d="M38.95 87.1c0 .87-.35 1.66-.93 2.23-.57.58-1.36.93-2.24.93H9.01c-1.75 0-3.16-1.41-3.16-3.16 0-.88.35-1.67.93-2.24.57-.58 1.36-.93 2.24-.93h3.13a3.16 3.16 0 0 1-3.16-3.16c0-.87.35-1.66.93-2.23.58-.58 1.37-.93 2.24-.93h5.78a3.16 3.16 0 0 1-3.16-3.16c0-.88.35-1.66.93-2.23.57-.58 1.36-.93 2.23-.93h6.04c.97 0 1.9-.38 2.6-1.06.67-.65 1.64-1.56 2.77-2.51 1.91-1.62 1.33 6.73 1.33 6.73 0 1.75-1.41 3.16-3.16 3.16h4.87a3.16 3.16 0 0 1 3.16 3.16c0 .88-.35 1.67-.93 2.24-.57.58-1.36.93-2.23.93h3.42c1.75 0 3.16 1.41 3.16 3.16Z" style="fill:#3f3a32"/><path d="M38.95 87.1c0 .87-.35 1.66-.93 2.23-.57.58-1.36.93-2.24.93H9.01c-1.75 0-3.16-1.41-3.16-3.16 0-.88.35-1.67.93-2.24.57-.58 1.36-.93 2.24-.93h3.13a3.16 3.16 0 0 1-3.16-3.16c0-.87.35-1.66.93-2.23.58-.58 1.37-.93 2.24-.93h5.78a3.16 3.16 0 0 1-3.16-3.16c0-.88.35-1.66.93-2.23.57-.58 1.36-.93 2.23-.93h6.04c.97 0 1.9-.38 2.6-1.06.67-.65 1.64-1.56 2.77-2.51 1.91-1.62 1.33 6.73 1.33 6.73 0 1.75-1.41 3.16-3.16 3.16h4.87a3.16 3.16 0 0 1 3.16 3.16c0 .88-.35 1.67-.93 2.24-.57.58-1.36.93-2.23.93h3.42c1.75 0 3.16 1.41 3.16 3.16ZM12.14 83.93H25.7M17.92 77.61h5.77M32.37 83.93h-1.9M27.89 77.61H25.7" class="cls-17"/><path d="M194.15 87.1c0 .87-.35 1.66-.93 2.23-.57.58-1.36.93-2.24.93H164.2c-1.75 0-3.16-1.41-3.16-3.16 0-.88.35-1.67.93-2.24.57-.58 1.36-.93 2.24-.93h3.13a3.16 3.16 0 0 1-3.16-3.16c0-.87.35-1.66.93-2.23.58-.58 1.37-.93 2.24-.93h5.78a3.16 3.16 0 0 1-3.16-3.16c0-.88.35-1.66.93-2.23.57-.58 1.36-.93 2.23-.93h6.04c.97 0 1.9-.38 2.6-1.06.67-.65 1.64-1.56 2.77-2.51 1.91-1.62 1.33 6.73 1.33 6.73 0 1.75-1.41 3.16-3.16 3.16h4.87a3.16 3.16 0 0 1 3.16 3.16c0 .88-.35 1.67-.93 2.24-.57.58-1.36.93-2.23.93H191c1.75 0 3.16 1.41 3.16 3.16ZM167.34 83.93h13.55M173.12 77.61h5.77M187.57 83.93h-1.9M183.09 77.61h-2.2" class="cls-10"/><path d="M194.15 57.34c0 .87-.35 1.66-.93 2.23-.57.58-1.36.93-2.24.93H164.2c-1.75 0-3.16-1.41-3.16-3.16 0-.88.35-1.67.93-2.24.57-.58 1.36-.93 2.24-.93h3.13a3.16 3.16 0 0 1-3.16-3.16c0-.87.35-1.66.93-2.23.58-.58 1.37-.93 2.24-.93h5.78a3.16 3.16 0 0 1-3.16-3.16c0-.88.35-1.66.93-2.23.57-.58 1.36-.93 2.23-.93h6.04c.97 0 1.9-.38 2.6-1.06.67-.65 1.64-1.56 2.77-2.51 1.91-1.62 1.33 6.73 1.33 6.73 0 1.75-1.41 3.16-3.16 3.16h4.87a3.16 3.16 0 0 1 3.16 3.16c0 .88-.35 1.67-.93 2.24-.57.58-1.36.93-2.23.93H191c1.75 0 3.16 1.41 3.16 3.16Z" style="fill:#005c2f"/><path d="M194.15 57.34c0 .87-.35 1.66-.93 2.23-.57.58-1.36.93-2.24.93H164.2c-1.75 0-3.16-1.41-3.16-3.16 0-.88.35-1.67.93-2.24.57-.58 1.36-.93 2.24-.93h3.13a3.16 3.16 0 0 1-3.16-3.16c0-.87.35-1.66.93-2.23.58-.58 1.37-.93 2.24-.93h5.78a3.16 3.16 0 0 1-3.16-3.16c0-.88.35-1.66.93-2.23.57-.58 1.36-.93 2.23-.93h6.04c.97 0 1.9-.38 2.6-1.06.67-.65 1.64-1.56 2.77-2.51 1.91-1.62 1.33 6.73 1.33 6.73 0 1.75-1.41 3.16-3.16 3.16h4.87a3.16 3.16 0 0 1 3.16 3.16c0 .88-.35 1.67-.93 2.24-.57.58-1.36.93-2.23.93H191c1.75 0 3.16 1.41 3.16 3.16ZM167.34 54.17h13.55M173.12 47.85h5.77M187.57 54.17h-1.9M183.09 47.85h-2.2" class="cls-17"/><path d="M155.35 57.34c0 .87-.35 1.66-.93 2.23-.57.58-1.36.93-2.24.93H125.4c-1.75 0-3.16-1.41-3.16-3.16 0-.88.35-1.67.93-2.24.57-.58 1.36-.93 2.24-.93h3.13a3.16 3.16 0 0 1-3.16-3.16c0-.87.35-1.66.93-2.23.58-.58 1.37-.93 2.24-.93h5.78a3.16 3.16 0 0 1-3.16-3.16c0-.88.35-1.66.93-2.23.57-.58 1.36-.93 2.23-.93h6.04c.97 0 1.9-.38 2.6-1.06.67-.65 1.64-1.56 2.77-2.51 1.91-1.62 1.33 6.73 1.33 6.73 0 1.75-1.41 3.16-3.16 3.16h4.87a3.16 3.16 0 0 1 3.16 3.16c0 .88-.35 1.67-.93 2.24-.57.58-1.36.93-2.23.93h3.42c1.75 0 3.16 1.41 3.16 3.16Z" style="fill:#97c722"/><path d="M155.35 57.34c0 .87-.35 1.66-.93 2.23-.57.58-1.36.93-2.24.93H125.4c-1.75 0-3.16-1.41-3.16-3.16 0-.88.35-1.67.93-2.24.57-.58 1.36-.93 2.24-.93h3.13a3.16 3.16 0 0 1-3.16-3.16c0-.87.35-1.66.93-2.23.58-.58 1.37-.93 2.24-.93h5.78a3.16 3.16 0 0 1-3.16-3.16c0-.88.35-1.66.93-2.23.57-.58 1.36-.93 2.23-.93h6.04c.97 0 1.9-.38 2.6-1.06.67-.65 1.64-1.56 2.77-2.51 1.91-1.62 1.33 6.73 1.33 6.73 0 1.75-1.41 3.16-3.16 3.16h4.87a3.16 3.16 0 0 1 3.16 3.16c0 .88-.35 1.67-.93 2.24-.57.58-1.36.93-2.23.93h3.42c1.75 0 3.16 1.41 3.16 3.16ZM128.54 54.17h13.55M134.32 47.85h5.77M148.77 54.17h-1.9M144.29 47.85h-2.2" class="cls-17"/><path d="M116.55 57.34c0 .87-.35 1.66-.93 2.23-.57.58-1.36.93-2.24.93H86.6c-1.75 0-3.16-1.41-3.16-3.16 0-.88.35-1.67.93-2.24.57-.58 1.36-.93 2.24-.93h3.13a3.16 3.16 0 0 1-3.16-3.16c0-.87.35-1.66.93-2.23.58-.58 1.37-.93 2.24-.93h5.78a3.16 3.16 0 0 1-3.16-3.16c0-.88.35-1.66.93-2.23.57-.58 1.36-.93 2.23-.93h6.04c.97 0 1.9-.38 2.6-1.06.67-.65 1.64-1.56 2.77-2.51 1.91-1.62 1.33 6.73 1.33 6.73 0 1.75-1.41 3.16-3.16 3.16h4.87a3.16 3.16 0 0 1 3.16 3.16c0 .88-.35 1.67-.93 2.24-.57.58-1.36.93-2.23.93h3.42c1.75 0 3.16 1.41 3.16 3.16ZM89.74 54.17h13.56M95.52 47.85h5.77M105.49 47.85h-2.19M109.97 54.17h-1.9" class="cls-12"/><path d="M155.35 87.1c0 .87-.35 1.66-.93 2.23-.57.58-1.36.93-2.24.93H125.4c-1.75 0-3.16-1.41-3.16-3.16 0-.88.35-1.67.93-2.24.57-.58 1.36-.93 2.24-.93h3.13a3.16 3.16 0 0 1-3.16-3.16c0-.87.35-1.66.93-2.23.58-.58 1.37-.93 2.24-.93h5.78a3.16 3.16 0 0 1-3.16-3.16c0-.88.35-1.66.93-2.23.57-.58 1.36-.93 2.23-.93h6.04c.97 0 1.9-.38 2.6-1.06.67-.65 1.64-1.56 2.77-2.51 1.91-1.62 1.33 6.73 1.33 6.73 0 1.75-1.41 3.16-3.16 3.16h4.87a3.16 3.16 0 0 1 3.16 3.16c0 .88-.35 1.67-.93 2.24-.57.58-1.36.93-2.23.93h3.42c1.75 0 3.16 1.41 3.16 3.16ZM128.54 83.93h13.55M134.32 77.61h5.77M144.29 77.61h-2.2M148.77 83.93h-1.9" class="cls-4"/><path d="M155.35 87.1c0 .87-.35 1.66-.93 2.23-.57.58-1.36.93-2.24.93H125.4c-1.75 0-3.16-1.41-3.16-3.16 0-.88.35-1.67.93-2.24.57-.58 1.36-.93 2.24-.93h3.13a3.16 3.16 0 0 1-3.16-3.16c0-.87.35-1.66.93-2.23.58-.58 1.37-.93 2.24-.93h5.78a3.16 3.16 0 0 1-3.16-3.16c0-.88.35-1.66.93-2.23.57-.58 1.36-.93 2.23-.93h6.04c.97 0 1.9-.38 2.6-1.06.67-.65 1.64-1.56 2.77-2.51 1.91-1.62 1.33 6.73 1.33 6.73 0 1.75-1.41 3.16-3.16 3.16h4.87a3.16 3.16 0 0 1 3.16 3.16c0 .88-.35 1.67-.93 2.24-.57.58-1.36.93-2.23.93h3.42c1.75 0 3.16 1.41 3.16 3.16ZM128.54 83.93h13.55M134.32 77.61h5.77M144.29 77.61h-2.2M148.77 83.93h-1.9" class="cls-13"/><path d="M155.35 87.1c0 .87-.35 1.66-.93 2.23-.57.58-1.36.93-2.24.93H125.4c-1.75 0-3.16-1.41-3.16-3.16 0-.88.35-1.67.93-2.24.57-.58 1.36-.93 2.24-.93h3.13a3.16 3.16 0 0 1-3.16-3.16c0-.87.35-1.66.93-2.23.58-.58 1.37-.93 2.24-.93h5.78a3.16 3.16 0 0 1-3.16-3.16c0-.88.35-1.66.93-2.23.57-.58 1.36-.93 2.23-.93h6.04c.97 0 1.9-.38 2.6-1.06.67-.65 1.64-1.56 2.77-2.51 1.91-1.62 1.33 6.73 1.33 6.73 0 1.75-1.41 3.16-3.16 3.16h4.87a3.16 3.16 0 0 1 3.16 3.16c0 .88-.35 1.67-.93 2.24-.57.58-1.36.93-2.23.93h3.42c1.75 0 3.16 1.41 3.16 3.16ZM128.54 83.93h13.55M134.32 77.61h5.77M144.29 77.61h-2.2M148.77 83.93h-1.9" class="cls-2"/><path d="M155.35 87.1c0 .87-.35 1.66-.93 2.23-.57.58-1.36.93-2.24.93H125.4c-1.75 0-3.16-1.41-3.16-3.16 0-.88.35-1.67.93-2.24.57-.58 1.36-.93 2.24-.93h3.13a3.16 3.16 0 0 1-3.16-3.16c0-.87.35-1.66.93-2.23.58-.58 1.37-.93 2.24-.93h5.78a3.16 3.16 0 0 1-3.16-3.16c0-.88.35-1.66.93-2.23.57-.58 1.36-.93 2.23-.93h6.04c.97 0 1.9-.38 2.6-1.06.67-.65 1.64-1.56 2.77-2.51 1.91-1.62 1.33 6.73 1.33 6.73 0 1.75-1.41 3.16-3.16 3.16h4.87a3.16 3.16 0 0 1 3.16 3.16c0 .88-.35 1.67-.93 2.24-.57.58-1.36.93-2.23.93h3.42c1.75 0 3.16 1.41 3.16 3.16ZM128.54 83.93h13.55M134.32 77.61h5.77M144.29 77.61h-2.2M148.77 83.93h-1.9" class="cls-14"/><path d="M155.35 87.1c0 .87-.35 1.66-.93 2.23-.57.58-1.36.93-2.24.93H125.4c-1.75 0-3.16-1.41-3.16-3.16 0-.88.35-1.67.93-2.24.57-.58 1.36-.93 2.24-.93h3.13a3.16 3.16 0 0 1-3.16-3.16c0-.87.35-1.66.93-2.23.58-.58 1.37-.93 2.24-.93h5.78a3.16 3.16 0 0 1-3.16-3.16c0-.88.35-1.66.93-2.23.57-.58 1.36-.93 2.23-.93h6.04c.97 0 1.9-.38 2.6-1.06.67-.65 1.64-1.56 2.77-2.51 1.91-1.62 1.33 6.73 1.33 6.73 0 1.75-1.41 3.16-3.16 3.16h4.87a3.16 3.16 0 0 1 3.16 3.16c0 .88-.35 1.67-.93 2.24-.57.58-1.36.93-2.23.93h3.42c1.75 0 3.16 1.41 3.16 3.16ZM128.54 83.93h13.55M134.32 77.61h5.77M144.29 77.61h-2.2M148.77 83.93h-1.9" class="cls-7"/><path d="M155.35 87.1c0 .87-.35 1.66-.93 2.23-.57.58-1.36.93-2.24.93H125.4c-1.75 0-3.16-1.41-3.16-3.16 0-.88.35-1.67.93-2.24.57-.58 1.36-.93 2.24-.93h3.13a3.16 3.16 0 0 1-3.16-3.16c0-.87.35-1.66.93-2.23.58-.58 1.37-.93 2.24-.93h5.78a3.16 3.16 0 0 1-3.16-3.16c0-.88.35-1.66.93-2.23.57-.58 1.36-.93 2.23-.93h6.04c.97 0 1.9-.38 2.6-1.06.67-.65 1.64-1.56 2.77-2.51 1.91-1.62 1.33 6.73 1.33 6.73 0 1.75-1.41 3.16-3.16 3.16h4.87a3.16 3.16 0 0 1 3.16 3.16c0 .88-.35 1.67-.93 2.24-.57.58-1.36.93-2.23.93h3.42c1.75 0 3.16 1.41 3.16 3.16ZM128.54 83.93h13.55M134.32 77.61h5.77M144.29 77.61h-2.2M148.77 83.93h-1.9" class="cls-16"/><path d="M155.35 87.1c0 .87-.35 1.66-.93 2.23-.57.58-1.36.93-2.24.93H125.4c-1.75 0-3.16-1.41-3.16-3.16 0-.88.35-1.67.93-2.24.57-.58 1.36-.93 2.24-.93h3.13a3.16 3.16 0 0 1-3.16-3.16c0-.87.35-1.66.93-2.23.58-.58 1.37-.93 2.24-.93h5.78a3.16 3.16 0 0 1-3.16-3.16c0-.88.35-1.66.93-2.23.57-.58 1.36-.93 2.23-.93h6.04c.97 0 1.9-.38 2.6-1.06.67-.65 1.64-1.56 2.77-2.51 1.91-1.62 1.33 6.73 1.33 6.73 0 1.75-1.41 3.16-3.16 3.16h4.87a3.16 3.16 0 0 1 3.16 3.16c0 .88-.35 1.67-.93 2.24-.57.58-1.36.93-2.23.93h3.42c1.75 0 3.16 1.41 3.16 3.16ZM128.54 83.93h13.55M134.32 77.61h5.77M144.29 77.61h-2.2M148.77 83.93h-1.9" class="cls-11"/><path d="M116.55 87.1c0 .87-.35 1.66-.93 2.23-.57.58-1.36.93-2.24.93H86.6c-1.75 0-3.16-1.41-3.16-3.16 0-.88.35-1.67.93-2.24.57-.58 1.36-.93 2.24-.93h3.13a3.16 3.16 0 0 1-3.16-3.16c0-.87.35-1.66.93-2.23.58-.58 1.37-.93 2.24-.93h5.78a3.16 3.16 0 0 1-3.16-3.16c0-.88.35-1.66.93-2.23.57-.58 1.36-.93 2.23-.93h6.04c.97 0 1.9-.38 2.6-1.06.67-.65 1.64-1.56 2.77-2.51 1.91-1.62 1.33 6.73 1.33 6.73 0 1.75-1.41 3.16-3.16 3.16h4.87a3.16 3.16 0 0 1 3.16 3.16c0 .88-.35 1.67-.93 2.24-.57.58-1.36.93-2.23.93h3.42c1.75 0 3.16 1.41 3.16 3.16Z" style="fill:#c9b5b9"/><path d="M116.55 87.1c0 .87-.35 1.66-.93 2.23-.57.58-1.36.93-2.24.93H86.6c-1.75 0-3.16-1.41-3.16-3.16 0-.88.35-1.67.93-2.24.57-.58 1.36-.93 2.24-.93h3.13a3.16 3.16 0 0 1-3.16-3.16c0-.87.35-1.66.93-2.23.58-.58 1.37-.93 2.24-.93h5.78a3.16 3.16 0 0 1-3.16-3.16c0-.88.35-1.66.93-2.23.57-.58 1.36-.93 2.23-.93h6.04c.97 0 1.9-.38 2.6-1.06.67-.65 1.64-1.56 2.77-2.51 1.91-1.62 1.33 6.73 1.33 6.73 0 1.75-1.41 3.16-3.16 3.16h4.87a3.16 3.16 0 0 1 3.16 3.16c0 .88-.35 1.67-.93 2.24-.57.58-1.36.93-2.23.93h3.42c1.75 0 3.16 1.41 3.16 3.16ZM89.74 83.93h13.56M95.52 77.61h5.77M109.97 83.93h-1.9M105.49 77.61h-2.19" class="cls-17"/><path d="M77.75 87.1c0 .87-.35 1.66-.93 2.23-.57.58-1.36.93-2.24.93H47.8c-1.75 0-3.16-1.41-3.16-3.16 0-.88.35-1.67.93-2.24.57-.58 1.36-.93 2.24-.93h3.13a3.16 3.16 0 0 1-3.16-3.16c0-.87.35-1.66.93-2.23.58-.58 1.37-.93 2.24-.93h5.78a3.16 3.16 0 0 1-3.16-3.16c0-.88.35-1.66.93-2.23.57-.58 1.36-.93 2.23-.93h6.04c.97 0 1.9-.38 2.6-1.06.67-.65 1.64-1.56 2.77-2.51 1.91-1.62 1.33 6.73 1.33 6.73 0 1.75-1.41 3.16-3.16 3.16h4.87a3.16 3.16 0 0 1 3.16 3.16c0 .88-.35 1.67-.93 2.24-.57.58-1.36.93-2.23.93h3.42c1.75 0 3.16 1.41 3.16 3.16Z" style="fill:#c2524d"/><path d="M77.75 87.1c0 .87-.35 1.66-.93 2.23-.57.58-1.36.93-2.24.93H47.8c-1.75 0-3.16-1.41-3.16-3.16 0-.88.35-1.67.93-2.24.57-.58 1.36-.93 2.24-.93h3.13a3.16 3.16 0 0 1-3.16-3.16c0-.87.35-1.66.93-2.23.58-.58 1.37-.93 2.24-.93h5.78a3.16 3.16 0 0 1-3.16-3.16c0-.88.35-1.66.93-2.23.57-.58 1.36-.93 2.23-.93h6.04c.97 0 1.9-.38 2.6-1.06.67-.65 1.64-1.56 2.77-2.51 1.91-1.62 1.33 6.73 1.33 6.73 0 1.75-1.41 3.16-3.16 3.16h4.87a3.16 3.16 0 0 1 3.16 3.16c0 .88-.35 1.67-.93 2.24-.57.58-1.36.93-2.23.93h3.42c1.75 0 3.16 1.41 3.16 3.16ZM50.94 83.93H64.5M56.72 77.61h5.77M71.17 83.93h-1.9M66.69 77.61H64.5" class="cls-17"/><path d="M77.75 57.34c0 .87-.35 1.66-.93 2.23-.57.58-1.36.93-2.24.93H47.8c-1.75 0-3.16-1.41-3.16-3.16 0-.88.35-1.67.93-2.24.57-.58 1.36-.93 2.24-.93h3.13a3.16 3.16 0 0 1-3.16-3.16c0-.87.35-1.66.93-2.23.58-.58 1.37-.93 2.24-.93h5.78a3.16 3.16 0 0 1-3.16-3.16c0-.88.35-1.66.93-2.23.57-.58 1.36-.93 2.23-.93h6.04c.97 0 1.9-.38 2.6-1.06.67-.65 1.64-1.56 2.77-2.51 1.91-1.62 1.33 6.73 1.33 6.73 0 1.75-1.41 3.16-3.16 3.16h4.87a3.16 3.16 0 0 1 3.16 3.16c0 .88-.35 1.67-.93 2.24-.57.58-1.36.93-2.23.93h3.42c1.75 0 3.16 1.41 3.16 3.16ZM50.94 54.17H64.5M56.72 47.85h5.77M66.69 47.85H64.5M71.17 54.17h-1.9" class="cls-4"/><path d="M77.75 57.34c0 .87-.35 1.66-.93 2.23-.57.58-1.36.93-2.24.93H47.8c-1.75 0-3.16-1.41-3.16-3.16 0-.88.35-1.67.93-2.24.57-.58 1.36-.93 2.24-.93h3.13a3.16 3.16 0 0 1-3.16-3.16c0-.87.35-1.66.93-2.23.58-.58 1.37-.93 2.24-.93h5.78a3.16 3.16 0 0 1-3.16-3.16c0-.88.35-1.66.93-2.23.57-.58 1.36-.93 2.23-.93h6.04c.97 0 1.9-.38 2.6-1.06.67-.65 1.64-1.56 2.77-2.51 1.91-1.62 1.33 6.73 1.33 6.73 0 1.75-1.41 3.16-3.16 3.16h4.87a3.16 3.16 0 0 1 3.16 3.16c0 .88-.35 1.67-.93 2.24-.57.58-1.36.93-2.23.93h3.42c1.75 0 3.16 1.41 3.16 3.16Z" class="cls-3"/><path d="M77.75 57.34c0 .87-.35 1.66-.93 2.23-.57.58-1.36.93-2.24.93H47.8c-1.75 0-3.16-1.41-3.16-3.16 0-.88.35-1.67.93-2.24.57-.58 1.36-.93 2.24-.93h3.13a3.16 3.16 0 0 1-3.16-3.16c0-.87.35-1.66.93-2.23.58-.58 1.37-.93 2.24-.93h5.78a3.16 3.16 0 0 1-3.16-3.16c0-.88.35-1.66.93-2.23.57-.58 1.36-.93 2.23-.93h6.04c.97 0 1.9-.38 2.6-1.06.67-.65 1.64-1.56 2.77-2.51 1.91-1.62 1.33 6.73 1.33 6.73 0 1.75-1.41 3.16-3.16 3.16h4.87a3.16 3.16 0 0 1 3.16 3.16c0 .88-.35 1.67-.93 2.24-.57.58-1.36.93-2.23.93h3.42c1.75 0 3.16 1.41 3.16 3.16ZM50.94 54.17H64.5M56.72 47.85h5.77M66.69 47.85H64.5M71.17 54.17h-1.9" class="cls-17"/><path d="M77.75 57.34c0 .87-.35 1.66-.93 2.23-.57.58-1.36.93-2.24.93H47.8c-1.75 0-3.16-1.41-3.16-3.16 0-.88.35-1.67.93-2.24.57-.58 1.36-.93 2.24-.93h3.13a3.16 3.16 0 0 1-3.16-3.16c0-.87.35-1.66.93-2.23.58-.58 1.37-.93 2.24-.93h5.78a3.16 3.16 0 0 1-3.16-3.16c0-.88.35-1.66.93-2.23.57-.58 1.36-.93 2.23-.93h6.04c.97 0 1.9-.38 2.6-1.06.67-.65 1.64-1.56 2.77-2.51 1.91-1.62 1.33 6.73 1.33 6.73 0 1.75-1.41 3.16-3.16 3.16h4.87a3.16 3.16 0 0 1 3.16 3.16c0 .88-.35 1.67-.93 2.24-.57.58-1.36.93-2.23.93h3.42c1.75 0 3.16 1.41 3.16 3.16Z" class="cls-3"/><path d="M77.75 57.34c0 .87-.35 1.66-.93 2.23-.57.58-1.36.93-2.24.93H47.8c-1.75 0-3.16-1.41-3.16-3.16 0-.88.35-1.67.93-2.24.57-.58 1.36-.93 2.24-.93h3.13a3.16 3.16 0 0 1-3.16-3.16c0-.87.35-1.66.93-2.23.58-.58 1.37-.93 2.24-.93h5.78a3.16 3.16 0 0 1-3.16-3.16c0-.88.35-1.66.93-2.23.57-.58 1.36-.93 2.23-.93h6.04c.97 0 1.9-.38 2.6-1.06.67-.65 1.64-1.56 2.77-2.51 1.91-1.62 1.33 6.73 1.33 6.73 0 1.75-1.41 3.16-3.16 3.16h4.87a3.16 3.16 0 0 1 3.16 3.16c0 .88-.35 1.67-.93 2.24-.57.58-1.36.93-2.23.93h3.42c1.75 0 3.16 1.41 3.16 3.16ZM50.94 54.17H64.5M56.72 47.85h5.77M66.69 47.85H64.5M71.17 54.17h-1.9" class="cls-17"/><path d="M77.75 57.34c0 .87-.35 1.66-.93 2.23-.57.58-1.36.93-2.24.93H47.8c-1.75 0-3.16-1.41-3.16-3.16 0-.88.35-1.67.93-2.24.57-.58 1.36-.93 2.24-.93h3.13a3.16 3.16 0 0 1-3.16-3.16c0-.87.35-1.66.93-2.23.58-.58 1.37-.93 2.24-.93h5.78a3.16 3.16 0 0 1-3.16-3.16c0-.88.35-1.66.93-2.23.57-.58 1.36-.93 2.23-.93h6.04c.97 0 1.9-.38 2.6-1.06.67-.65 1.64-1.56 2.77-2.51 1.91-1.62 1.33 6.73 1.33 6.73 0 1.75-1.41 3.16-3.16 3.16h4.87a3.16 3.16 0 0 1 3.16 3.16c0 .88-.35 1.67-.93 2.24-.57.58-1.36.93-2.23.93h3.42c1.75 0 3.16 1.41 3.16 3.16Z" class="cls-3"/><path d="M77.75 57.34c0 .87-.35 1.66-.93 2.23-.57.58-1.36.93-2.24.93H47.8c-1.75 0-3.16-1.41-3.16-3.16 0-.88.35-1.67.93-2.24.57-.58 1.36-.93 2.24-.93h3.13a3.16 3.16 0 0 1-3.16-3.16c0-.87.35-1.66.93-2.23.58-.58 1.37-.93 2.24-.93h5.78a3.16 3.16 0 0 1-3.16-3.16c0-.88.35-1.66.93-2.23.57-.58 1.36-.93 2.23-.93h6.04c.97 0 1.9-.38 2.6-1.06.67-.65 1.64-1.56 2.77-2.51 1.91-1.62 1.33 6.73 1.33 6.73 0 1.75-1.41 3.16-3.16 3.16h4.87a3.16 3.16 0 0 1 3.16 3.16c0 .88-.35 1.67-.93 2.24-.57.58-1.36.93-2.23.93h3.42c1.75 0 3.16 1.41 3.16 3.16ZM50.94 54.17H64.5M56.72 47.85h5.77M66.69 47.85H64.5M71.17 54.17h-1.9" class="cls-17"/><path d="M77.75 57.34c0 .87-.35 1.66-.93 2.23-.57.58-1.36.93-2.24.93H47.8c-1.75 0-3.16-1.41-3.16-3.16 0-.88.35-1.67.93-2.24.57-.58 1.36-.93 2.24-.93h3.13a3.16 3.16 0 0 1-3.16-3.16c0-.87.35-1.66.93-2.23.58-.58 1.37-.93 2.24-.93h5.78a3.16 3.16 0 0 1-3.16-3.16c0-.88.35-1.66.93-2.23.57-.58 1.36-.93 2.23-.93h6.04c.97 0 1.9-.38 2.6-1.06.67-.65 1.64-1.56 2.77-2.51 1.91-1.62 1.33 6.73 1.33 6.73 0 1.75-1.41 3.16-3.16 3.16h4.87a3.16 3.16 0 0 1 3.16 3.16c0 .88-.35 1.67-.93 2.24-.57.58-1.36.93-2.23.93h3.42c1.75 0 3.16 1.41 3.16 3.16Z" class="cls-3"/><path d="M77.75 57.34c0 .87-.35 1.66-.93 2.23-.57.58-1.36.93-2.24.93H47.8c-1.75 0-3.16-1.41-3.16-3.16 0-.88.35-1.67.93-2.24.57-.58 1.36-.93 2.24-.93h3.13a3.16 3.16 0 0 1-3.16-3.16c0-.87.35-1.66.93-2.23.58-.58 1.37-.93 2.24-.93h5.78a3.16 3.16 0 0 1-3.16-3.16c0-.88.35-1.66.93-2.23.57-.58 1.36-.93 2.23-.93h6.04c.97 0 1.9-.38 2.6-1.06.67-.65 1.64-1.56 2.77-2.51 1.91-1.62 1.33 6.73 1.33 6.73 0 1.75-1.41 3.16-3.16 3.16h4.87a3.16 3.16 0 0 1 3.16 3.16c0 .88-.35 1.67-.93 2.24-.57.58-1.36.93-2.23.93h3.42c1.75 0 3.16 1.41 3.16 3.16ZM50.94 54.17H64.5M56.72 47.85h5.77M66.69 47.85H64.5M71.17 54.17h-1.9" class="cls-17"/><path d="M77.75 57.34c0 .87-.35 1.66-.93 2.23-.57.58-1.36.93-2.24.93H47.8c-1.75 0-3.16-1.41-3.16-3.16 0-.88.35-1.67.93-2.24.57-.58 1.36-.93 2.24-.93h3.13a3.16 3.16 0 0 1-3.16-3.16c0-.87.35-1.66.93-2.23.58-.58 1.37-.93 2.24-.93h5.78a3.16 3.16 0 0 1-3.16-3.16c0-.88.35-1.66.93-2.23.57-.58 1.36-.93 2.23-.93h6.04c.97 0 1.9-.38 2.6-1.06.67-.65 1.64-1.56 2.77-2.51 1.91-1.62 1.33 6.73 1.33 6.73 0 1.75-1.41 3.16-3.16 3.16h4.87a3.16 3.16 0 0 1 3.16 3.16c0 .88-.35 1.67-.93 2.24-.57.58-1.36.93-2.23.93h3.42c1.75 0 3.16 1.41 3.16 3.16Z" class="cls-3"/><path d="M77.75 57.34c0 .87-.35 1.66-.93 2.23-.57.58-1.36.93-2.24.93H47.8c-1.75 0-3.16-1.41-3.16-3.16 0-.88.35-1.67.93-2.24.57-.58 1.36-.93 2.24-.93h3.13a3.16 3.16 0 0 1-3.16-3.16c0-.87.35-1.66.93-2.23.58-.58 1.37-.93 2.24-.93h5.78a3.16 3.16 0 0 1-3.16-3.16c0-.88.35-1.66.93-2.23.57-.58 1.36-.93 2.23-.93h6.04c.97 0 1.9-.38 2.6-1.06.67-.65 1.64-1.56 2.77-2.51 1.91-1.62 1.33 6.73 1.33 6.73 0 1.75-1.41 3.16-3.16 3.16h4.87a3.16 3.16 0 0 1 3.16 3.16c0 .88-.35 1.67-.93 2.24-.57.58-1.36.93-2.23.93h3.42c1.75 0 3.16 1.41 3.16 3.16ZM50.94 54.17H64.5M56.72 47.85h5.77M66.69 47.85H64.5M71.17 54.17h-1.9" class="cls-17"/><path d="M77.75 57.34c0 .87-.35 1.66-.93 2.23-.57.58-1.36.93-2.24.93H47.8c-1.75 0-3.16-1.41-3.16-3.16 0-.88.35-1.67.93-2.24.57-.58 1.36-.93 2.24-.93h3.13a3.16 3.16 0 0 1-3.16-3.16c0-.87.35-1.66.93-2.23.58-.58 1.37-.93 2.24-.93h5.78a3.16 3.16 0 0 1-3.16-3.16c0-.88.35-1.66.93-2.23.57-.58 1.36-.93 2.23-.93h6.04c.97 0 1.9-.38 2.6-1.06.67-.65 1.64-1.56 2.77-2.51 1.91-1.62 1.33 6.73 1.33 6.73 0 1.75-1.41 3.16-3.16 3.16h4.87a3.16 3.16 0 0 1 3.16 3.16c0 .88-.35 1.67-.93 2.24-.57.58-1.36.93-2.23.93h3.42c1.75 0 3.16 1.41 3.16 3.16Z" class="cls-3"/><path d="M77.75 57.34c0 .87-.35 1.66-.93 2.23-.57.58-1.36.93-2.24.93H47.8c-1.75 0-3.16-1.41-3.16-3.16 0-.88.35-1.67.93-2.24.57-.58 1.36-.93 2.24-.93h3.13a3.16 3.16 0 0 1-3.16-3.16c0-.87.35-1.66.93-2.23.58-.58 1.37-.93 2.24-.93h5.78a3.16 3.16 0 0 1-3.16-3.16c0-.88.35-1.66.93-2.23.57-.58 1.36-.93 2.23-.93h6.04c.97 0 1.9-.38 2.6-1.06.67-.65 1.64-1.56 2.77-2.51 1.91-1.62 1.33 6.73 1.33 6.73 0 1.75-1.41 3.16-3.16 3.16h4.87a3.16 3.16 0 0 1 3.16 3.16c0 .88-.35 1.67-.93 2.24-.57.58-1.36.93-2.23.93h3.42c1.75 0 3.16 1.41 3.16 3.16ZM50.94 54.17H64.5M56.72 47.85h5.77M66.69 47.85H64.5M71.17 54.17h-1.9" class="cls-17"/></svg>