<svg xmlns="http://www.w3.org/2000/svg" id="Calque_1" data-name="Calque 1" viewBox="0 0 200 128"><defs><style>.cls-2{fill:#005c2f}.cls-3,.cls-4{fill:#e9cb61}.cls-7{fill:#c2524d}.cls-10{fill:#e6e3d4}.cls-10,.cls-11,.cls-12,.cls-13,.cls-14,.cls-15,.cls-16,.cls-17,.cls-2,.cls-4,.cls-7{stroke:#000;stroke-miterlimit:10;stroke-width:2px}.cls-11{fill:#eecac3}.cls-12{fill:#b8b21c}.cls-13{fill:#96c522}.cls-14{fill:#3f3a31}.cls-15{fill:#876b68}.cls-16{fill:#c8b6b9}.cls-17{fill:none}</style></defs><path d="M37.12 56.61c0 .87-.35 1.66-.93 2.23-.57.58-1.36.93-2.24.93H7.18c-1.75 0-3.16-1.41-3.16-3.16 0-.88.35-1.67.93-2.24.57-.58 1.36-.93 2.24-.93h3.13a3.16 3.16 0 0 1-3.16-3.16c0-.87.35-1.66.93-2.23.58-.58 1.37-.93 2.24-.93h5.78a3.16 3.16 0 0 1-3.16-3.16c0-.88.35-1.66.93-2.23.57-.58 1.36-.93 2.23-.93h6.04c.97 0 1.9-.38 2.6-1.06.67-.65 1.64-1.56 2.77-2.51 1.91-1.62 1.33 6.73 1.33 6.73 0 1.75-1.41 3.16-3.16 3.16h4.87a3.16 3.16 0 0 1 3.16 3.16c0 .88-.35 1.67-.93 2.24-.57.58-1.36.93-2.23.93h3.42c1.75 0 3.16 1.41 3.16 3.16ZM10.31 53.44h13.56M16.09 47.12h5.77M26.06 47.12h-2.19M30.54 53.44h-1.9" class="cls-15"/><path d="M37.12 86.37c0 .87-.35 1.66-.93 2.23-.57.58-1.36.93-2.24.93H7.18c-1.75 0-3.16-1.41-3.16-3.16 0-.88.35-1.67.93-2.24.57-.58 1.36-.93 2.24-.93h3.13a3.16 3.16 0 0 1-3.16-3.16c0-.87.35-1.66.93-2.23.58-.58 1.37-.93 2.24-.93h5.78a3.16 3.16 0 0 1-3.16-3.16c0-.88.35-1.66.93-2.23.57-.58 1.36-.93 2.23-.93h6.04c.97 0 1.9-.38 2.6-1.06.67-.65 1.64-1.56 2.77-2.51 1.91-1.62 1.33 6.73 1.33 6.73 0 1.75-1.41 3.16-3.16 3.16h4.87a3.16 3.16 0 0 1 3.16 3.16c0 .88-.35 1.67-.93 2.24-.57.58-1.36.93-2.23.93h3.42c1.75 0 3.16 1.41 3.16 3.16Z" style="fill:#3f3a32"/><path d="M37.12 86.37c0 .87-.35 1.66-.93 2.23-.57.58-1.36.93-2.24.93H7.18c-1.75 0-3.16-1.41-3.16-3.16 0-.88.35-1.67.93-2.24.57-.58 1.36-.93 2.24-.93h3.13a3.16 3.16 0 0 1-3.16-3.16c0-.87.35-1.66.93-2.23.58-.58 1.37-.93 2.24-.93h5.78a3.16 3.16 0 0 1-3.16-3.16c0-.88.35-1.66.93-2.23.57-.58 1.36-.93 2.23-.93h6.04c.97 0 1.9-.38 2.6-1.06.67-.65 1.64-1.56 2.77-2.51 1.91-1.62 1.33 6.73 1.33 6.73 0 1.75-1.41 3.16-3.16 3.16h4.87a3.16 3.16 0 0 1 3.16 3.16c0 .88-.35 1.67-.93 2.24-.57.58-1.36.93-2.23.93h3.42c1.75 0 3.16 1.41 3.16 3.16ZM10.31 83.2h13.56M16.09 76.88h5.77M30.54 83.2h-1.9M26.06 76.88h-2.19" class="cls-17"/><path d="M192.32 86.37c0 .87-.35 1.66-.93 2.23-.57.58-1.36.93-2.24.93h-26.78c-1.75 0-3.16-1.41-3.16-3.16 0-.88.35-1.67.93-2.24.57-.58 1.36-.93 2.24-.93h3.13a3.16 3.16 0 0 1-3.16-3.16c0-.87.35-1.66.93-2.23.58-.58 1.37-.93 2.24-.93h5.78a3.16 3.16 0 0 1-3.16-3.16c0-.88.35-1.66.93-2.23.57-.58 1.36-.93 2.23-.93h6.04c.97 0 1.9-.38 2.6-1.06.67-.65 1.64-1.56 2.77-2.51 1.91-1.62 1.33 6.73 1.33 6.73 0 1.75-1.41 3.16-3.16 3.16h4.87a3.16 3.16 0 0 1 3.16 3.16c0 .88-.35 1.67-.93 2.24-.57.58-1.36.93-2.23.93h3.42c1.75 0 3.16 1.41 3.16 3.16ZM165.51 83.2h13.55M171.29 76.88h5.77M185.74 83.2h-1.9M181.26 76.88h-2.2" class="cls-10"/><path d="M192.32 56.61c0 .87-.35 1.66-.93 2.23-.57.58-1.36.93-2.24.93h-26.78c-1.75 0-3.16-1.41-3.16-3.16 0-.88.35-1.67.93-2.24.57-.58 1.36-.93 2.24-.93h3.13a3.16 3.16 0 0 1-3.16-3.16c0-.87.35-1.66.93-2.23.58-.58 1.37-.93 2.24-.93h5.78a3.16 3.16 0 0 1-3.16-3.16c0-.88.35-1.66.93-2.23.57-.58 1.36-.93 2.23-.93h6.04c.97 0 1.9-.38 2.6-1.06.67-.65 1.64-1.56 2.77-2.51 1.91-1.62 1.33 6.73 1.33 6.73 0 1.75-1.41 3.16-3.16 3.16h4.87a3.16 3.16 0 0 1 3.16 3.16c0 .88-.35 1.67-.93 2.24-.57.58-1.36.93-2.23.93h3.42c1.75 0 3.16 1.41 3.16 3.16Z" style="fill:#005c2f"/><path d="M192.32 56.61c0 .87-.35 1.66-.93 2.23-.57.58-1.36.93-2.24.93h-26.78c-1.75 0-3.16-1.41-3.16-3.16 0-.88.35-1.67.93-2.24.57-.58 1.36-.93 2.24-.93h3.13a3.16 3.16 0 0 1-3.16-3.16c0-.87.35-1.66.93-2.23.58-.58 1.37-.93 2.24-.93h5.78a3.16 3.16 0 0 1-3.16-3.16c0-.88.35-1.66.93-2.23.57-.58 1.36-.93 2.23-.93h6.04c.97 0 1.9-.38 2.6-1.06.67-.65 1.64-1.56 2.77-2.51 1.91-1.62 1.33 6.73 1.33 6.73 0 1.75-1.41 3.16-3.16 3.16h4.87a3.16 3.16 0 0 1 3.16 3.16c0 .88-.35 1.67-.93 2.24-.57.58-1.36.93-2.23.93h3.42c1.75 0 3.16 1.41 3.16 3.16ZM165.51 53.44h13.55M171.29 47.12h5.77M185.74 53.44h-1.9M181.26 47.12h-2.2" class="cls-17"/><path d="M153.52 56.61c0 .87-.35 1.66-.93 2.23-.57.58-1.36.93-2.24.93h-26.78c-1.75 0-3.16-1.41-3.16-3.16 0-.88.35-1.67.93-2.24.57-.58 1.36-.93 2.24-.93h3.13a3.16 3.16 0 0 1-3.16-3.16c0-.87.35-1.66.93-2.23.58-.58 1.37-.93 2.24-.93h5.78a3.16 3.16 0 0 1-3.16-3.16c0-.88.35-1.66.93-2.23.57-.58 1.36-.93 2.23-.93h6.04c.97 0 1.9-.38 2.6-1.06.67-.65 1.64-1.56 2.77-2.51 1.91-1.62 1.33 6.73 1.33 6.73 0 1.75-1.41 3.16-3.16 3.16h4.87a3.16 3.16 0 0 1 3.16 3.16c0 .88-.35 1.67-.93 2.24-.57.58-1.36.93-2.23.93h3.42c1.75 0 3.16 1.41 3.16 3.16Z" style="fill:#97c722"/><path d="M153.52 56.61c0 .87-.35 1.66-.93 2.23-.57.58-1.36.93-2.24.93h-26.78c-1.75 0-3.16-1.41-3.16-3.16 0-.88.35-1.67.93-2.24.57-.58 1.36-.93 2.24-.93h3.13a3.16 3.16 0 0 1-3.16-3.16c0-.87.35-1.66.93-2.23.58-.58 1.37-.93 2.24-.93h5.78a3.16 3.16 0 0 1-3.16-3.16c0-.88.35-1.66.93-2.23.57-.58 1.36-.93 2.23-.93h6.04c.97 0 1.9-.38 2.6-1.06.67-.65 1.64-1.56 2.77-2.51 1.91-1.62 1.33 6.73 1.33 6.73 0 1.75-1.41 3.16-3.16 3.16h4.87a3.16 3.16 0 0 1 3.16 3.16c0 .88-.35 1.67-.93 2.24-.57.58-1.36.93-2.23.93h3.42c1.75 0 3.16 1.41 3.16 3.16ZM126.71 53.44h13.55M132.49 47.12h5.77M146.94 53.44h-1.9M142.46 47.12h-2.2" class="cls-17"/><path d="M114.72 56.61c0 .87-.35 1.66-.93 2.23-.57.58-1.36.93-2.24.93H84.77c-1.75 0-3.16-1.41-3.16-3.16 0-.88.35-1.67.93-2.24.57-.58 1.36-.93 2.24-.93h3.13a3.16 3.16 0 0 1-3.16-3.16c0-.87.35-1.66.93-2.23.58-.58 1.37-.93 2.24-.93h5.78a3.16 3.16 0 0 1-3.16-3.16c0-.88.35-1.66.93-2.23.57-.58 1.36-.93 2.23-.93h6.04c.97 0 1.9-.38 2.6-1.06.67-.65 1.64-1.56 2.77-2.51 1.91-1.62 1.33 6.73 1.33 6.73 0 1.75-1.41 3.16-3.16 3.16h4.87a3.16 3.16 0 0 1 3.16 3.16c0 .88-.35 1.67-.93 2.24-.57.58-1.36.93-2.23.93h3.42c1.75 0 3.16 1.41 3.16 3.16ZM87.91 53.44h13.55M93.69 47.12h5.77M103.66 47.12h-2.2M108.14 53.44h-1.9" class="cls-12"/><path d="M153.52 86.37c0 .87-.35 1.66-.93 2.23-.57.58-1.36.93-2.24.93h-26.78c-1.75 0-3.16-1.41-3.16-3.16 0-.88.35-1.67.93-2.24.57-.58 1.36-.93 2.24-.93h3.13a3.16 3.16 0 0 1-3.16-3.16c0-.87.35-1.66.93-2.23.58-.58 1.37-.93 2.24-.93h5.78a3.16 3.16 0 0 1-3.16-3.16c0-.88.35-1.66.93-2.23.57-.58 1.36-.93 2.23-.93h6.04c.97 0 1.9-.38 2.6-1.06.67-.65 1.64-1.56 2.77-2.51 1.91-1.62 1.33 6.73 1.33 6.73 0 1.75-1.41 3.16-3.16 3.16h4.87a3.16 3.16 0 0 1 3.16 3.16c0 .88-.35 1.67-.93 2.24-.57.58-1.36.93-2.23.93h3.42c1.75 0 3.16 1.41 3.16 3.16ZM126.71 83.2h13.55M132.49 76.88h5.77M142.46 76.88h-2.2M146.94 83.2h-1.9" class="cls-4"/><path d="M153.52 86.37c0 .87-.35 1.66-.93 2.23-.57.58-1.36.93-2.24.93h-26.78c-1.75 0-3.16-1.41-3.16-3.16 0-.88.35-1.67.93-2.24.57-.58 1.36-.93 2.24-.93h3.13a3.16 3.16 0 0 1-3.16-3.16c0-.87.35-1.66.93-2.23.58-.58 1.37-.93 2.24-.93h5.78a3.16 3.16 0 0 1-3.16-3.16c0-.88.35-1.66.93-2.23.57-.58 1.36-.93 2.23-.93h6.04c.97 0 1.9-.38 2.6-1.06.67-.65 1.64-1.56 2.77-2.51 1.91-1.62 1.33 6.73 1.33 6.73 0 1.75-1.41 3.16-3.16 3.16h4.87a3.16 3.16 0 0 1 3.16 3.16c0 .88-.35 1.67-.93 2.24-.57.58-1.36.93-2.23.93h3.42c1.75 0 3.16 1.41 3.16 3.16ZM126.71 83.2h13.55M132.49 76.88h5.77M142.46 76.88h-2.2M146.94 83.2h-1.9" class="cls-13"/><path d="M153.52 86.37c0 .87-.35 1.66-.93 2.23-.57.58-1.36.93-2.24.93h-26.78c-1.75 0-3.16-1.41-3.16-3.16 0-.88.35-1.67.93-2.24.57-.58 1.36-.93 2.24-.93h3.13a3.16 3.16 0 0 1-3.16-3.16c0-.87.35-1.66.93-2.23.58-.58 1.37-.93 2.24-.93h5.78a3.16 3.16 0 0 1-3.16-3.16c0-.88.35-1.66.93-2.23.57-.58 1.36-.93 2.23-.93h6.04c.97 0 1.9-.38 2.6-1.06.67-.65 1.64-1.56 2.77-2.51 1.91-1.62 1.33 6.73 1.33 6.73 0 1.75-1.41 3.16-3.16 3.16h4.87a3.16 3.16 0 0 1 3.16 3.16c0 .88-.35 1.67-.93 2.24-.57.58-1.36.93-2.23.93h3.42c1.75 0 3.16 1.41 3.16 3.16ZM126.71 83.2h13.55M132.49 76.88h5.77M142.46 76.88h-2.2M146.94 83.2h-1.9" class="cls-2"/><path d="M153.52 86.37c0 .87-.35 1.66-.93 2.23-.57.58-1.36.93-2.24.93h-26.78c-1.75 0-3.16-1.41-3.16-3.16 0-.88.35-1.67.93-2.24.57-.58 1.36-.93 2.24-.93h3.13a3.16 3.16 0 0 1-3.16-3.16c0-.87.35-1.66.93-2.23.58-.58 1.37-.93 2.24-.93h5.78a3.16 3.16 0 0 1-3.16-3.16c0-.88.35-1.66.93-2.23.57-.58 1.36-.93 2.23-.93h6.04c.97 0 1.9-.38 2.6-1.06.67-.65 1.64-1.56 2.77-2.51 1.91-1.62 1.33 6.73 1.33 6.73 0 1.75-1.41 3.16-3.16 3.16h4.87a3.16 3.16 0 0 1 3.16 3.16c0 .88-.35 1.67-.93 2.24-.57.58-1.36.93-2.23.93h3.42c1.75 0 3.16 1.41 3.16 3.16ZM126.71 83.2h13.55M132.49 76.88h5.77M142.46 76.88h-2.2M146.94 83.2h-1.9" class="cls-14"/><path d="M153.52 86.37c0 .87-.35 1.66-.93 2.23-.57.58-1.36.93-2.24.93h-26.78c-1.75 0-3.16-1.41-3.16-3.16 0-.88.35-1.67.93-2.24.57-.58 1.36-.93 2.24-.93h3.13a3.16 3.16 0 0 1-3.16-3.16c0-.87.35-1.66.93-2.23.58-.58 1.37-.93 2.24-.93h5.78a3.16 3.16 0 0 1-3.16-3.16c0-.88.35-1.66.93-2.23.57-.58 1.36-.93 2.23-.93h6.04c.97 0 1.9-.38 2.6-1.06.67-.65 1.64-1.56 2.77-2.51 1.91-1.62 1.33 6.73 1.33 6.73 0 1.75-1.41 3.16-3.16 3.16h4.87a3.16 3.16 0 0 1 3.16 3.16c0 .88-.35 1.67-.93 2.24-.57.58-1.36.93-2.23.93h3.42c1.75 0 3.16 1.41 3.16 3.16ZM126.71 83.2h13.55M132.49 76.88h5.77M142.46 76.88h-2.2M146.94 83.2h-1.9" class="cls-7"/><path d="M153.52 86.37c0 .87-.35 1.66-.93 2.23-.57.58-1.36.93-2.24.93h-26.78c-1.75 0-3.16-1.41-3.16-3.16 0-.88.35-1.67.93-2.24.57-.58 1.36-.93 2.24-.93h3.13a3.16 3.16 0 0 1-3.16-3.16c0-.87.35-1.66.93-2.23.58-.58 1.37-.93 2.24-.93h5.78a3.16 3.16 0 0 1-3.16-3.16c0-.88.35-1.66.93-2.23.57-.58 1.36-.93 2.23-.93h6.04c.97 0 1.9-.38 2.6-1.06.67-.65 1.64-1.56 2.77-2.51 1.91-1.62 1.33 6.73 1.33 6.73 0 1.75-1.41 3.16-3.16 3.16h4.87a3.16 3.16 0 0 1 3.16 3.16c0 .88-.35 1.67-.93 2.24-.57.58-1.36.93-2.23.93h3.42c1.75 0 3.16 1.41 3.16 3.16ZM126.71 83.2h13.55M132.49 76.88h5.77M142.46 76.88h-2.2M146.94 83.2h-1.9" class="cls-16"/><path d="M153.52 86.37c0 .87-.35 1.66-.93 2.23-.57.58-1.36.93-2.24.93h-26.78c-1.75 0-3.16-1.41-3.16-3.16 0-.88.35-1.67.93-2.24.57-.58 1.36-.93 2.24-.93h3.13a3.16 3.16 0 0 1-3.16-3.16c0-.87.35-1.66.93-2.23.58-.58 1.37-.93 2.24-.93h5.78a3.16 3.16 0 0 1-3.16-3.16c0-.88.35-1.66.93-2.23.57-.58 1.36-.93 2.23-.93h6.04c.97 0 1.9-.38 2.6-1.06.67-.65 1.64-1.56 2.77-2.51 1.91-1.62 1.33 6.73 1.33 6.73 0 1.75-1.41 3.16-3.16 3.16h4.87a3.16 3.16 0 0 1 3.16 3.16c0 .88-.35 1.67-.93 2.24-.57.58-1.36.93-2.23.93h3.42c1.75 0 3.16 1.41 3.16 3.16ZM126.71 83.2h13.55M132.49 76.88h5.77M142.46 76.88h-2.2M146.94 83.2h-1.9" class="cls-11"/><path d="M114.72 86.37c0 .87-.35 1.66-.93 2.23-.57.58-1.36.93-2.24.93H84.77c-1.75 0-3.16-1.41-3.16-3.16 0-.88.35-1.67.93-2.24.57-.58 1.36-.93 2.24-.93h3.13a3.16 3.16 0 0 1-3.16-3.16c0-.87.35-1.66.93-2.23.58-.58 1.37-.93 2.24-.93h5.78a3.16 3.16 0 0 1-3.16-3.16c0-.88.35-1.66.93-2.23.57-.58 1.36-.93 2.23-.93h6.04c.97 0 1.9-.38 2.6-1.06.67-.65 1.64-1.56 2.77-2.51 1.91-1.62 1.33 6.73 1.33 6.73 0 1.75-1.41 3.16-3.16 3.16h4.87a3.16 3.16 0 0 1 3.16 3.16c0 .88-.35 1.67-.93 2.24-.57.58-1.36.93-2.23.93h3.42c1.75 0 3.16 1.41 3.16 3.16Z" style="fill:#c9b5b9"/><path d="M114.72 86.37c0 .87-.35 1.66-.93 2.23-.57.58-1.36.93-2.24.93H84.77c-1.75 0-3.16-1.41-3.16-3.16 0-.88.35-1.67.93-2.24.57-.58 1.36-.93 2.24-.93h3.13a3.16 3.16 0 0 1-3.16-3.16c0-.87.35-1.66.93-2.23.58-.58 1.37-.93 2.24-.93h5.78a3.16 3.16 0 0 1-3.16-3.16c0-.88.35-1.66.93-2.23.57-.58 1.36-.93 2.23-.93h6.04c.97 0 1.9-.38 2.6-1.06.67-.65 1.64-1.56 2.77-2.51 1.91-1.62 1.33 6.73 1.33 6.73 0 1.75-1.41 3.16-3.16 3.16h4.87a3.16 3.16 0 0 1 3.16 3.16c0 .88-.35 1.67-.93 2.24-.57.58-1.36.93-2.23.93h3.42c1.75 0 3.16 1.41 3.16 3.16ZM87.91 83.2h13.55M93.69 76.88h5.77M108.14 83.2h-1.9M103.66 76.88h-2.2" class="cls-17"/><path d="M75.92 86.37c0 .87-.35 1.66-.93 2.23-.57.58-1.36.93-2.24.93H45.97c-1.75 0-3.16-1.41-3.16-3.16 0-.88.35-1.67.93-2.24.57-.58 1.36-.93 2.24-.93h3.13a3.16 3.16 0 0 1-3.16-3.16c0-.87.35-1.66.93-2.23.58-.58 1.37-.93 2.24-.93h5.78a3.16 3.16 0 0 1-3.16-3.16c0-.88.35-1.66.93-2.23.57-.58 1.36-.93 2.23-.93h6.04c.97 0 1.9-.38 2.6-1.06.67-.65 1.64-1.56 2.77-2.51 1.91-1.62 1.33 6.73 1.33 6.73 0 1.75-1.41 3.16-3.16 3.16h4.87a3.16 3.16 0 0 1 3.16 3.16c0 .88-.35 1.67-.93 2.24-.57.58-1.36.93-2.23.93h3.42c1.75 0 3.16 1.41 3.16 3.16Z" style="fill:#c2524d"/><path d="M75.92 86.37c0 .87-.35 1.66-.93 2.23-.57.58-1.36.93-2.24.93H45.97c-1.75 0-3.16-1.41-3.16-3.16 0-.88.35-1.67.93-2.24.57-.58 1.36-.93 2.24-.93h3.13a3.16 3.16 0 0 1-3.16-3.16c0-.87.35-1.66.93-2.23.58-.58 1.37-.93 2.24-.93h5.78a3.16 3.16 0 0 1-3.16-3.16c0-.88.35-1.66.93-2.23.57-.58 1.36-.93 2.23-.93h6.04c.97 0 1.9-.38 2.6-1.06.67-.65 1.64-1.56 2.77-2.51 1.91-1.62 1.33 6.73 1.33 6.73 0 1.75-1.41 3.16-3.16 3.16h4.87a3.16 3.16 0 0 1 3.16 3.16c0 .88-.35 1.67-.93 2.24-.57.58-1.36.93-2.23.93h3.42c1.75 0 3.16 1.41 3.16 3.16ZM49.11 83.2h13.56M54.89 76.88h5.77M69.34 83.2h-1.9M64.86 76.88h-2.19" class="cls-17"/><path d="M75.92 56.61c0 .87-.35 1.66-.93 2.23-.57.58-1.36.93-2.24.93H45.97c-1.75 0-3.16-1.41-3.16-3.16 0-.88.35-1.67.93-2.24.57-.58 1.36-.93 2.24-.93h3.13a3.16 3.16 0 0 1-3.16-3.16c0-.87.35-1.66.93-2.23.58-.58 1.37-.93 2.24-.93h5.78a3.16 3.16 0 0 1-3.16-3.16c0-.88.35-1.66.93-2.23.57-.58 1.36-.93 2.23-.93h6.04c.97 0 1.9-.38 2.6-1.06.67-.65 1.64-1.56 2.77-2.51 1.91-1.62 1.33 6.73 1.33 6.73 0 1.75-1.41 3.16-3.16 3.16h4.87a3.16 3.16 0 0 1 3.16 3.16c0 .88-.35 1.67-.93 2.24-.57.58-1.36.93-2.23.93h3.42c1.75 0 3.16 1.41 3.16 3.16ZM49.11 53.44h13.56M54.89 47.12h5.77M64.86 47.12h-2.19M69.34 53.44h-1.9" class="cls-4"/><path d="M75.92 56.61c0 .87-.35 1.66-.93 2.23-.57.58-1.36.93-2.24.93H45.97c-1.75 0-3.16-1.41-3.16-3.16 0-.88.35-1.67.93-2.24.57-.58 1.36-.93 2.24-.93h3.13a3.16 3.16 0 0 1-3.16-3.16c0-.87.35-1.66.93-2.23.58-.58 1.37-.93 2.24-.93h5.78a3.16 3.16 0 0 1-3.16-3.16c0-.88.35-1.66.93-2.23.57-.58 1.36-.93 2.23-.93h6.04c.97 0 1.9-.38 2.6-1.06.67-.65 1.64-1.56 2.77-2.51 1.91-1.62 1.33 6.73 1.33 6.73 0 1.75-1.41 3.16-3.16 3.16h4.87a3.16 3.16 0 0 1 3.16 3.16c0 .88-.35 1.67-.93 2.24-.57.58-1.36.93-2.23.93h3.42c1.75 0 3.16 1.41 3.16 3.16Z" class="cls-3"/><path d="M75.92 56.61c0 .87-.35 1.66-.93 2.23-.57.58-1.36.93-2.24.93H45.97c-1.75 0-3.16-1.41-3.16-3.16 0-.88.35-1.67.93-2.24.57-.58 1.36-.93 2.24-.93h3.13a3.16 3.16 0 0 1-3.16-3.16c0-.87.35-1.66.93-2.23.58-.58 1.37-.93 2.24-.93h5.78a3.16 3.16 0 0 1-3.16-3.16c0-.88.35-1.66.93-2.23.57-.58 1.36-.93 2.23-.93h6.04c.97 0 1.9-.38 2.6-1.06.67-.65 1.64-1.56 2.77-2.51 1.91-1.62 1.33 6.73 1.33 6.73 0 1.75-1.41 3.16-3.16 3.16h4.87a3.16 3.16 0 0 1 3.16 3.16c0 .88-.35 1.67-.93 2.24-.57.58-1.36.93-2.23.93h3.42c1.75 0 3.16 1.41 3.16 3.16ZM49.11 53.44h13.56M54.89 47.12h5.77M64.86 47.12h-2.19M69.34 53.44h-1.9" class="cls-17"/><path d="M75.92 56.61c0 .87-.35 1.66-.93 2.23-.57.58-1.36.93-2.24.93H45.97c-1.75 0-3.16-1.41-3.16-3.16 0-.88.35-1.67.93-2.24.57-.58 1.36-.93 2.24-.93h3.13a3.16 3.16 0 0 1-3.16-3.16c0-.87.35-1.66.93-2.23.58-.58 1.37-.93 2.24-.93h5.78a3.16 3.16 0 0 1-3.16-3.16c0-.88.35-1.66.93-2.23.57-.58 1.36-.93 2.23-.93h6.04c.97 0 1.9-.38 2.6-1.06.67-.65 1.64-1.56 2.77-2.51 1.91-1.62 1.33 6.73 1.33 6.73 0 1.75-1.41 3.16-3.16 3.16h4.87a3.16 3.16 0 0 1 3.16 3.16c0 .88-.35 1.67-.93 2.24-.57.58-1.36.93-2.23.93h3.42c1.75 0 3.16 1.41 3.16 3.16Z" class="cls-3"/><path d="M75.92 56.61c0 .87-.35 1.66-.93 2.23-.57.58-1.36.93-2.24.93H45.97c-1.75 0-3.16-1.41-3.16-3.16 0-.88.35-1.67.93-2.24.57-.58 1.36-.93 2.24-.93h3.13a3.16 3.16 0 0 1-3.16-3.16c0-.87.35-1.66.93-2.23.58-.58 1.37-.93 2.24-.93h5.78a3.16 3.16 0 0 1-3.16-3.16c0-.88.35-1.66.93-2.23.57-.58 1.36-.93 2.23-.93h6.04c.97 0 1.9-.38 2.6-1.06.67-.65 1.64-1.56 2.77-2.51 1.91-1.62 1.33 6.73 1.33 6.73 0 1.75-1.41 3.16-3.16 3.16h4.87a3.16 3.16 0 0 1 3.16 3.16c0 .88-.35 1.67-.93 2.24-.57.58-1.36.93-2.23.93h3.42c1.75 0 3.16 1.41 3.16 3.16ZM49.11 53.44h13.56M54.89 47.12h5.77M64.86 47.12h-2.19M69.34 53.44h-1.9" class="cls-17"/><path d="M75.92 56.61c0 .87-.35 1.66-.93 2.23-.57.58-1.36.93-2.24.93H45.97c-1.75 0-3.16-1.41-3.16-3.16 0-.88.35-1.67.93-2.24.57-.58 1.36-.93 2.24-.93h3.13a3.16 3.16 0 0 1-3.16-3.16c0-.87.35-1.66.93-2.23.58-.58 1.37-.93 2.24-.93h5.78a3.16 3.16 0 0 1-3.16-3.16c0-.88.35-1.66.93-2.23.57-.58 1.36-.93 2.23-.93h6.04c.97 0 1.9-.38 2.6-1.06.67-.65 1.64-1.56 2.77-2.51 1.91-1.62 1.33 6.73 1.33 6.73 0 1.75-1.41 3.16-3.16 3.16h4.87a3.16 3.16 0 0 1 3.16 3.16c0 .88-.35 1.67-.93 2.24-.57.58-1.36.93-2.23.93h3.42c1.75 0 3.16 1.41 3.16 3.16Z" class="cls-3"/><path d="M75.92 56.61c0 .87-.35 1.66-.93 2.23-.57.58-1.36.93-2.24.93H45.97c-1.75 0-3.16-1.41-3.16-3.16 0-.88.35-1.67.93-2.24.57-.58 1.36-.93 2.24-.93h3.13a3.16 3.16 0 0 1-3.16-3.16c0-.87.35-1.66.93-2.23.58-.58 1.37-.93 2.24-.93h5.78a3.16 3.16 0 0 1-3.16-3.16c0-.88.35-1.66.93-2.23.57-.58 1.36-.93 2.23-.93h6.04c.97 0 1.9-.38 2.6-1.06.67-.65 1.64-1.56 2.77-2.51 1.91-1.62 1.33 6.73 1.33 6.73 0 1.75-1.41 3.16-3.16 3.16h4.87a3.16 3.16 0 0 1 3.16 3.16c0 .88-.35 1.67-.93 2.24-.57.58-1.36.93-2.23.93h3.42c1.75 0 3.16 1.41 3.16 3.16ZM49.11 53.44h13.56M54.89 47.12h5.77M64.86 47.12h-2.19M69.34 53.44h-1.9" class="cls-17"/><path d="M75.92 56.61c0 .87-.35 1.66-.93 2.23-.57.58-1.36.93-2.24.93H45.97c-1.75 0-3.16-1.41-3.16-3.16 0-.88.35-1.67.93-2.24.57-.58 1.36-.93 2.24-.93h3.13a3.16 3.16 0 0 1-3.16-3.16c0-.87.35-1.66.93-2.23.58-.58 1.37-.93 2.24-.93h5.78a3.16 3.16 0 0 1-3.16-3.16c0-.88.35-1.66.93-2.23.57-.58 1.36-.93 2.23-.93h6.04c.97 0 1.9-.38 2.6-1.06.67-.65 1.64-1.56 2.77-2.51 1.91-1.62 1.33 6.73 1.33 6.73 0 1.75-1.41 3.16-3.16 3.16h4.87a3.16 3.16 0 0 1 3.16 3.16c0 .88-.35 1.67-.93 2.24-.57.58-1.36.93-2.23.93h3.42c1.75 0 3.16 1.41 3.16 3.16Z" class="cls-3"/><path d="M75.92 56.61c0 .87-.35 1.66-.93 2.23-.57.58-1.36.93-2.24.93H45.97c-1.75 0-3.16-1.41-3.16-3.16 0-.88.35-1.67.93-2.24.57-.58 1.36-.93 2.24-.93h3.13a3.16 3.16 0 0 1-3.16-3.16c0-.87.35-1.66.93-2.23.58-.58 1.37-.93 2.24-.93h5.78a3.16 3.16 0 0 1-3.16-3.16c0-.88.35-1.66.93-2.23.57-.58 1.36-.93 2.23-.93h6.04c.97 0 1.9-.38 2.6-1.06.67-.65 1.64-1.56 2.77-2.51 1.91-1.62 1.33 6.73 1.33 6.73 0 1.75-1.41 3.16-3.16 3.16h4.87a3.16 3.16 0 0 1 3.16 3.16c0 .88-.35 1.67-.93 2.24-.57.58-1.36.93-2.23.93h3.42c1.75 0 3.16 1.41 3.16 3.16ZM49.11 53.44h13.56M54.89 47.12h5.77M64.86 47.12h-2.19M69.34 53.44h-1.9" class="cls-17"/><path d="M75.92 56.61c0 .87-.35 1.66-.93 2.23-.57.58-1.36.93-2.24.93H45.97c-1.75 0-3.16-1.41-3.16-3.16 0-.88.35-1.67.93-2.24.57-.58 1.36-.93 2.24-.93h3.13a3.16 3.16 0 0 1-3.16-3.16c0-.87.35-1.66.93-2.23.58-.58 1.37-.93 2.24-.93h5.78a3.16 3.16 0 0 1-3.16-3.16c0-.88.35-1.66.93-2.23.57-.58 1.36-.93 2.23-.93h6.04c.97 0 1.9-.38 2.6-1.06.67-.65 1.64-1.56 2.77-2.51 1.91-1.62 1.33 6.73 1.33 6.73 0 1.75-1.41 3.16-3.16 3.16h4.87a3.16 3.16 0 0 1 3.16 3.16c0 .88-.35 1.67-.93 2.24-.57.58-1.36.93-2.23.93h3.42c1.75 0 3.16 1.41 3.16 3.16Z" class="cls-3"/><path d="M75.92 56.61c0 .87-.35 1.66-.93 2.23-.57.58-1.36.93-2.24.93H45.97c-1.75 0-3.16-1.41-3.16-3.16 0-.88.35-1.67.93-2.24.57-.58 1.36-.93 2.24-.93h3.13a3.16 3.16 0 0 1-3.16-3.16c0-.87.35-1.66.93-2.23.58-.58 1.37-.93 2.24-.93h5.78a3.16 3.16 0 0 1-3.16-3.16c0-.88.35-1.66.93-2.23.57-.58 1.36-.93 2.23-.93h6.04c.97 0 1.9-.38 2.6-1.06.67-.65 1.64-1.56 2.77-2.51 1.91-1.62 1.33 6.73 1.33 6.73 0 1.75-1.41 3.16-3.16 3.16h4.87a3.16 3.16 0 0 1 3.16 3.16c0 .88-.35 1.67-.93 2.24-.57.58-1.36.93-2.23.93h3.42c1.75 0 3.16 1.41 3.16 3.16ZM49.11 53.44h13.56M54.89 47.12h5.77M64.86 47.12h-2.19M69.34 53.44h-1.9" class="cls-17"/><path d="M75.92 56.61c0 .87-.35 1.66-.93 2.23-.57.58-1.36.93-2.24.93H45.97c-1.75 0-3.16-1.41-3.16-3.16 0-.88.35-1.67.93-2.24.57-.58 1.36-.93 2.24-.93h3.13a3.16 3.16 0 0 1-3.16-3.16c0-.87.35-1.66.93-2.23.58-.58 1.37-.93 2.24-.93h5.78a3.16 3.16 0 0 1-3.16-3.16c0-.88.35-1.66.93-2.23.57-.58 1.36-.93 2.23-.93h6.04c.97 0 1.9-.38 2.6-1.06.67-.65 1.64-1.56 2.77-2.51 1.91-1.62 1.33 6.73 1.33 6.73 0 1.75-1.41 3.16-3.16 3.16h4.87a3.16 3.16 0 0 1 3.16 3.16c0 .88-.35 1.67-.93 2.24-.57.58-1.36.93-2.23.93h3.42c1.75 0 3.16 1.41 3.16 3.16Z" class="cls-3"/><path d="M75.92 56.61c0 .87-.35 1.66-.93 2.23-.57.58-1.36.93-2.24.93H45.97c-1.75 0-3.16-1.41-3.16-3.16 0-.88.35-1.67.93-2.24.57-.58 1.36-.93 2.24-.93h3.13a3.16 3.16 0 0 1-3.16-3.16c0-.87.35-1.66.93-2.23.58-.58 1.37-.93 2.24-.93h5.78a3.16 3.16 0 0 1-3.16-3.16c0-.88.35-1.66.93-2.23.57-.58 1.36-.93 2.23-.93h6.04c.97 0 1.9-.38 2.6-1.06.67-.65 1.64-1.56 2.77-2.51 1.91-1.62 1.33 6.73 1.33 6.73 0 1.75-1.41 3.16-3.16 3.16h4.87a3.16 3.16 0 0 1 3.16 3.16c0 .88-.35 1.67-.93 2.24-.57.58-1.36.93-2.23.93h3.42c1.75 0 3.16 1.41 3.16 3.16ZM49.11 53.44h13.56M54.89 47.12h5.77M64.86 47.12h-2.19M69.34 53.44h-1.9" class="cls-17"/><path d="M-1875.51-5543.63h6467.34v6437.3h-6467.34z" style="stroke:#fff;stroke-linecap:round;stroke-linejoin:round;stroke-width:8px;fill:none"/></svg>