<svg xmlns="http://www.w3.org/2000/svg" id="Calque_1" viewBox="0 0 200.13 128.13"><defs><style>.cls-1,.cls-2,.cls-3{stroke-linecap:round;stroke-linejoin:round;stroke:#000}.cls-1,.cls-5{fill:#bfe6fc}.cls-2{fill:#fff}.cls-6{fill:#fab0b4}.cls-3{fill:none;stroke-width:2px}.cls-5{stroke:#ffbeed;stroke-miterlimit:10}</style></defs><path d="M140.36 28.23h-17.68l.92-12.31v-.36c0-.93.71-1.69 1.58-1.69s1.58.76 1.58 1.69v.61c0 .93.71 1.68 1.58 1.68s1.58-.75 1.58-1.68v-.25h.03v-.36c0-.93.71-1.69 1.58-1.69s1.58.76 1.58 1.69v.61c0 .93.71 1.68 1.58 1.68s1.58-.75 1.58-1.68v-.61c0-.93.71-1.69 1.58-1.69s1.58.76 1.58 1.69v.36h.02l.92 12.31ZM159.23 28.23h-17.68l.92-12.31v-.36c0-.93.71-1.69 1.58-1.69s1.58.76 1.58 1.69v.61c0 .93.71 1.68 1.58 1.68s1.58-.75 1.58-1.68v-.25h.03v-.36c0-.93.71-1.69 1.58-1.69s1.58.76 1.58 1.69v.61c0 .93.71 1.68 1.58 1.68s1.58-.75 1.58-1.68v-.61c0-.93.71-1.69 1.58-1.69s1.58.76 1.58 1.69v.36h.02l.92 12.31ZM178.11 28.23h-17.68l.92-12.31v-.36c0-.93.71-1.69 1.58-1.69s1.58.76 1.58 1.69v.61c0 .93.71 1.68 1.58 1.68s1.58-.75 1.58-1.68v-.25h.03v-.36c0-.93.71-1.69 1.58-1.69s1.58.76 1.58 1.69v.61c0 .93.71 1.68 1.58 1.68s1.58-.75 1.58-1.68v-.61c0-.93.71-1.69 1.58-1.69s1.58.76 1.58 1.69v.36h.02l.92 12.31ZM122.08 59.62h18.88v59.07h-18.88z" class="cls-1"/><path d="M125.56 64.27h11.92v49.77h-11.92z" class="cls-2"/><path d="M123.63 47.6h15.78v12.02h-15.78zM134.27 28.23h-5.5l-2.86 7.91-2.28 6.3v5.16h15.78v-5.18l-2.27-6.25-2.87-7.94z" class="cls-1"/><rect width="11.73" height="7.51" x="125.65" y="20.72" class="cls-1" rx="2.68" ry="2.68"/><path d="M128.9 76.55v34.84M131.91 76.55v34.84" class="cls-5"/><path d="M140.96 59.62h18.88v59.07h-18.88z" class="cls-1"/><path d="M144.44 64.27h11.92v49.77h-11.92z" class="cls-2"/><path d="M142.51 47.6h15.78v12.02h-15.78zM153.14 28.23h-5.49l-2.86 7.91-2.28 6.3v5.16h15.78v-5.18l-2.27-6.25-2.88-7.94z" class="cls-1"/><rect width="11.73" height="7.51" x="144.53" y="20.72" class="cls-1" rx="2.68" ry="2.68"/><path d="M147.78 76.55v34.84M150.79 76.55v34.84" class="cls-5"/><path d="M159.83 59.62h18.88v59.07h-18.88z" class="cls-1"/><path d="M163.31 64.27h11.92v49.77h-11.92z" class="cls-2"/><path d="M161.38 47.6h15.78v12.02h-15.78zM172.02 28.23h-5.49l-2.87 7.91-2.28 6.3v5.16h15.78v-5.18l-2.27-6.25-2.87-7.94z" class="cls-1"/><rect width="11.73" height="7.51" x="163.4" y="20.72" class="cls-1" rx="2.68" ry="2.68"/><path d="M166.65 76.55v34.84M169.66 76.55v34.84" class="cls-5"/><rect width="6.07" height="1.85" x="128.48" y="23.48" class="cls-1" rx=".92" ry=".92"/><rect width="6.07" height="1.85" x="147.36" y="23.48" class="cls-1" rx=".92" ry=".92"/><rect width="6.07" height="1.85" x="166.24" y="23.48" class="cls-1" rx=".92" ry=".92"/><path d="m82.697 63.11-1.628-6.55 20.515-5.1 1.629 6.55z" class="cls-1"/><path d="m78.392 63.61-1.363-5.483 4.173-1.037 1.363 5.483zM75.22 58.58l1.8-.45 1.36 5.48-1.79.45-2.38-.25-2.99-.31-.81.2a.935.935 0 0 1-1.14-.69v-.04a.931.931 0 0 1 .68-1.15l.81-.2v-.03l2.5-1.69 1.97-1.33Z" class="cls-1"/><path d="M37.99 90.08c.71-3.67-1.5-4.33-1.5-4.33C17.61 83.88 10.33 72.77 10.87 61c.51-11.77 9.42-31 32.35-27.68 6.33.92 10.56 3.05 13.33 5.65 7.3 6.81 4.78 16.88 4.78 16.88s.91 2.88 3.72 2.81c2.8-.07 1 4.52 1 4.52s8.18 13.93-3.15 18.3c-4.14 1.58-5.64 3.11-5.45 4.63 0 .06.03.11.03.18.02.07.06.15.08.25.18.52.53 1.03 1.04 1.54" class="cls-3"/><path d="M35.79 69.8s-6.06 2.7-1.96 7.51 6.86-.04 6.86-.04" class="cls-3"/><circle cx="57.63" cy="60.77" r="1.46" transform="rotate(-75.31 57.63 60.762)"/><path d="M52.64 58.87s.04-3.8 3.98-3.94M36.44 74.64l1.19-.7" class="cls-3"/><circle cx="51.04" cy="67.78" r="3.07" class="cls-6" transform="rotate(-75.31 51.042 67.773)"/><path d="M64.6 71.91s.02.01 0 .03c-.08 1.11-.95 2.25-2.62 2.55-1.36.26-2.35-.04-3.07-.46 0 0 .01-.02.03-.05.01-.03.04-.08.08-.15.07-.12.16-.28.32-.49.06-.07.11-.14.17-.21a3.933 3.933 0 0 1 1.59-1.19c.12-.04.24-.1.38-.13.09-.04.18-.06.29-.08.75-.18 1.7-.18 2.83.17Z" style="fill:#ff6d75"/><path d="M58.92 74.03zM64.6 71.91c-1.14-.35-2.08-.35-2.83-.17-.11.01-.2.04-.29.08-.14.03-.26.09-.38.13-.48.2-.88.48-1.19.76-.16.14-.29.28-.4.43-.07.07-.13.14-.17.21-.15.2-.25.37-.32.49-.04.07-.07.12-.08.15-.01.03-.03.05-.03.05-.99-.58-1.41-1.41-1.41-1.41-.77-2.79 3.97-3.06 3.97-3.06 2.17-.33 3.24.98 3.12 2.34ZM64.65 71.92l-.05.02v-.03c.02 0 .03.01.05.01Z" class="cls-6"/><path d="M61.5 69.71s-4.75.27-3.97 3.06c0 0 .43.82 1.41 1.41.72.42 1.71.72 3.07.46 1.67-.3 2.54-1.44 2.62-2.55.01-.02 0-.03 0-.03.12-1.37-.95-2.68-3.12-2.34Z" style="stroke-miterlimit:10;fill:none;stroke-width:2px;stroke:#000"/><path d="M56.55 38.96s-4.33 13.19-16.17 15.28c0 0 3.13 7.08-5.51 10.33" class="cls-3"/></svg>