<svg xmlns="http://www.w3.org/2000/svg" id="Calque_1" data-name="Calque 1" viewBox="0 0 128 128"><defs><style>.cls-1,.cls-3,.cls-4{stroke:#000;stroke-linecap:round;stroke-linejoin:round}.cls-1,.cls-3{fill:#ffd4ad}.cls-3,.cls-4{stroke-width:2px}.cls-4{fill:#fff}</style></defs><path d="m85.21 49.54-1.37 18.29H40.38l-1.39-18.29h46.22zM85.22 44.94H39c0-12.76 10.35-23.11 23.11-23.11s23.11 10.35 23.11 23.11Z" class="cls-4"/><path d="m83.84 67.83-2.23 29.58-1.54 20.27c-.14 2.08-1.88 3.69-3.97 3.69H48.12c-2.09 0-3.82-1.61-3.98-3.69l-1.53-20.27-2.23-29.58h43.46Z" class="cls-3"/><path d="M42.61 97.41h-.01l-2.22-29.58 2.23 29.58z" class="cls-3"/><path d="m66.91 8.87-.06.74h-.03l.09-.74z" style="fill:none;stroke-width:2px;stroke-linecap:round;stroke-linejoin:round;stroke:#000"/><path d="m97.71 9.57-.48 3.84-26.53-3.32-3.2 39.45-1.49 18.29h-3.89l1.49-18.29 3.24-39.93.06-.74.25-3.05.13.01 1.47.12 2.25.28 26.7 3.34z" style="stroke-width:2px;fill:#afaff9;stroke-linecap:round;stroke-linejoin:round;stroke:#000"/><rect width="54.01" height="4.6" x="35.1" y="44.94" class="cls-4" rx="2.04" ry="2.04"/><circle cx="50.37" cy="75.39" r="1.72" class="cls-1"/><circle cx="55.36" cy="58.69" r="1.24" class="cls-1"/><circle cx="74.37" cy="77.85" r="1.68" class="cls-1"/><circle cx="54.41" cy="88.79" r="1.29" class="cls-1"/><circle cx="68.72" cy="97.31" r="1.04" class="cls-1"/><circle cx="62.05" cy="82.68" r="1.51" class="cls-1"/><circle cx="72.15" cy="62.25" r="1.07" class="cls-1"/><circle cx="49.72" cy="62.93" r="1.07" class="cls-1"/><path d="M-308.94-848.4h3385.57v2571.67H-308.94z" style="stroke:#fff;stroke-width:8px;fill:none;stroke-linecap:round;stroke-linejoin:round"/></svg>