<svg xmlns="http://www.w3.org/2000/svg" id="Calque_1" data-name="Calque 1" viewBox="0 0 128 128"><defs><style>.cls-3{stroke-linecap:round;stroke-linejoin:round;fill:none;stroke:#000;stroke-width:3px}</style></defs><circle cx="65.53" cy="63.03" r="32.04" style="stroke:#000;stroke-width:3px;fill:#f3d587;stroke-linecap:round;stroke-linejoin:round"/><path d="M65.53 120.1v-18.04M25.17 103.39l12.76-12.76M8.46 63.03H26.5M25.17 22.68l12.76 12.75M65.53 5.96V24M105.88 22.68 93.12 35.43M122.6 63.03h-18.05M105.88 103.38 93.13 90.63M105.88 103.38 93.12 90.63M65.53 120.1v-18.04M25.17 103.38l12.76-12.75M8.46 63.03H26.5M25.17 22.68l12.76 12.75M65.53 5.96V24M105.88 22.68 93.12 35.43M122.6 63.03h-18.04" class="cls-3"/><path d="M-2805.77-843.63h6562.35v1176.7h-6562.35z" style="fill:none;stroke-linecap:round;stroke-linejoin:round;stroke:#fff;stroke-width:8px"/></svg>