<svg xmlns="http://www.w3.org/2000/svg" id="Calque_1" viewBox="0 0 200 128"><defs><style>.cls-1,.cls-12,.cls-14,.cls-4,.cls-7,.cls-9{stroke-miterlimit:10}.cls-1,.cls-4,.cls-7,.cls-9{stroke:#000}.cls-15{fill:#f4ce13}.cls-16{fill:#051e60}.cls-18{fill:#8287bf}.cls-4{fill:#fff}.cls-12,.cls-14{stroke:#fff}.cls-12{stroke-width:2px}.cls-7{fill:#d6d6d6}.cls-9{fill:#b2f0e9}.cls-12,.cls-14{fill:none}</style></defs><path d="M152.9 107.69c0 1.21-1.35 4.04-3.5 4.04h-16.02c-2.15 0-4.31-1.48-7.34-1.48H37.38c-1.92 0-6.49-1.21-8.51-2.56-2.02-1.35-2.22-1.68-2.22-2.56v-5.32c0-.81 2.42-1.68 2.42-3.1V88.9c0-2.02 18.17-14.94 23.96-16.35 5.79-1.41 31.16-1.55 37.96-.94s21.4 7.81 30.62 14.6c9.89 0 20.53 2.49 25.17 5.28 4.64 2.8 6.12 7.57 6.12 9.59v6.6Z" class="cls-7"/><path d="M78.33 87.01H50.11c.3-1.71 8.4-12.7 10.62-12.99.69-.09 2.13-.13 4.39-.13s4.91.04 7.25.08c1.52.03 2.87.05 3.85.06.15.63 1.2 5.15 2.11 12.99Z" class="cls-9"/><circle cx="127.53" cy="108" r="10.6" class="cls-1"/><circle cx="127.53" cy="108" r="7.5" class="cls-4" transform="rotate(-70.01 127.519 107.992)"/><circle cx="47.98" cy="108" r="10.6" class="cls-1"/><circle cx="47.98" cy="108" r="7.5" class="cls-4" transform="rotate(-68.77 47.978 107.994)"/><path d="M147.56 94.47s1.21 1.48 1.45 2.19 0 1.51-.98 1.51h-5.72c-.91 0-2.59-1.38-3.53-2.49-.94-1.11-2.36-2.93-1.95-3.16.4-.24 5.62.44 10.73 1.95Z" style="fill:#f3d587;stroke:#000;stroke-miterlimit:10"/><path d="M146.43 105.77c.34-.67 1.15-1.21 1.82-1.21h4.64v3.13c0 .33-.11.79-.3 1.28h-6.56c-.67 0-.94-.54-.6-1.21l1-1.99Z"/><path d="M45.89 75.98c.77.33 1.84.78 2.09.89.4.17.34.84-.77 1.48s-4.68 3.63-6.09 4.95c-1.41 1.31-2.36 1.72-3.37 1.72h-4.91c3.42-2.78 8.59-6.39 13.05-9.03Z" class="cls-9"/><path d="M29.07 96.72v-7.2h5.75c.84 0 1.28.32.84 1.52-.44 1.2-2.59 4.43-3.2 4.9-.61.47-1.14.84-1.92.84h-1.49v-.07Z" style="fill:#ff6d75;stroke:#000;stroke-miterlimit:10"/><path d="M113.44 87.01h-32.9c-.89-7.68-1.92-12.2-2.11-12.99h1.66c4.68 0 10.65.2 15.33 1.83 2.7.94 6.32 2.69 10.2 4.94 4.18 2.42 6.8 4.51 7.82 6.22Z" class="cls-9"/><rect width="4.24" height="1.1" x="83.95" y="89.52" rx=".52" ry=".52"/><rect width="4.24" height="1.1" x="54.34" y="89.52" rx=".52" ry=".52"/><path d="M162.55 68.04h3.76v52.79h-3.76z" class="cls-7"/><rect width="22.76" height="22.76" x="153.05" y="63.15" rx="3.9" ry="3.9" style="fill:#243b81;stroke:#000;stroke-miterlimit:10"/><path d="M166.57 78.77a4.08 4.08 0 0 1-3.83 2.65 4.089 4.089 0 0 1-1.86-7.73" class="cls-14"/><circle cx="162.05" cy="68.83" r="1.18" style="stroke:#fff;fill:#fff;stroke-miterlimit:10"/><path d="m162.05 69.22.57 6.52h4.18l1.77 3.85 1.62-.61M162.4 73.27h3.49" class="cls-14"/><path d="M26.64 117.07H166.3v3.76H26.64z" style="fill:#1d1d1b;stroke:#1d1d1b;stroke-miterlimit:10"/><path d="M33.3 6.26h90.25v54.15H33.3z" style="fill:#ccdaf4;stroke:#000;stroke-miterlimit:10"/><path d="M33.78 6.72h40.76v38.31H33.78z" style="fill:#2c438f"/><path d="M33.78 46.44h40.76v2.27H33.78zM33.78 49.58h40.76v2.27H33.78zM33.78 52.71h40.76v2.27H33.78zM33.78 55.98h40.76v2.27H33.78z" class="cls-18"/><path d="m99.04 19.65.82 1.66 1.83.26-1.32 1.29.31 1.83-1.64-.86-1.64.86.32-1.83-1.33-1.29 1.83-.26.82-1.66zM108.01 21.69l.81 1.66 1.84.27-1.33 1.29.31 1.82-1.63-.86-1.64.86.31-1.82-1.32-1.29 1.83-.27.82-1.66zM113.91 27.9l.81 1.66 1.84.26-1.33 1.3.31 1.82-1.63-.86-1.64.86.31-1.82-1.32-1.3 1.83-.26.82-1.66zM116.04 35.69l.82 1.66 1.83.26-1.32 1.29.31 1.83-1.64-.86-1.64.86.32-1.83-1.33-1.29 1.83-.26.82-1.66zM113.91 42.9l.81 1.66 1.84.26-1.33 1.29.31 1.83-1.63-.86-1.64.86.31-1.83-1.32-1.29 1.83-.26.82-1.66zM108.01 48.38l.81 1.66 1.84.26-1.33 1.29.31 1.83-1.63-.86-1.64.86.31-1.83-1.32-1.29 1.83-.26.82-1.66zM99.04 50.61l.82 1.66 1.83.27-1.32 1.29.31 1.82-1.64-.86-1.64.86.32-1.82-1.33-1.29 1.83-.27.82-1.66zM89.94 48.38l.82 1.66 1.83.26-1.33 1.29.32 1.83-1.64-.86-1.64.86.31-1.83-1.32-1.29 1.83-.26.82-1.66zM83.81 42.9l.82 1.66 1.83.26-1.33 1.29.32 1.83-1.64-.86-1.64.86.31-1.83-1.32-1.29 1.83-.26.82-1.66zM81.95 35.69l.82 1.66 1.83.26-1.32 1.29.31 1.83-1.64-.86-1.64.86.32-1.83-1.33-1.29 1.83-.26.82-1.66zM83.81 27.9l.82 1.66 1.83.26-1.33 1.3.32 1.82-1.64-.86-1.64.86.31-1.82-1.32-1.3 1.83-.26.82-1.66zM89.94 21.69l.82 1.66 1.83.27-1.33 1.29.32 1.82-1.64-.86-1.64.86.31-1.82-1.32-1.29 1.83-.27.82-1.66zM93.33 27.27h4.92v21.1h-4.92z" class="cls-15"/><path d="M93.33 31.18v-3.9h12.35v3.9zM93.33 39.78v-3.9h12.35v3.9z" class="cls-15"/><path d="M78.22 14.27h.28v.23a.646.646 0 0 1 .53-.28c.19 0 .36.07.5.22s.2.36.2.64c0 .37-.1.64-.29.8-.12.1-.27.15-.43.15-.13 0-.24-.03-.33-.08a.675.675 0 0 1-.17-.17v.88h-.29v-2.39Zm1.08 1.35c.09-.11.13-.28.13-.51 0-.14-.02-.25-.06-.35-.07-.19-.21-.28-.41-.28s-.34.1-.41.3c-.04.11-.06.24-.06.41 0 .13.02.25.06.34.07.18.21.27.41.27.14 0 .25-.06.34-.17ZM81.32 14.44c.15.15.23.37.23.65s-.07.51-.2.69c-.14.18-.34.27-.63.27-.24 0-.42-.08-.56-.24-.14-.16-.21-.37-.21-.64 0-.29.07-.52.22-.69.15-.17.34-.26.59-.26.22 0 .41.07.56.22Zm-.18 1.14c.07-.14.11-.31.11-.48a.87.87 0 0 0-.08-.39c-.08-.16-.22-.24-.42-.24-.18 0-.31.07-.38.2-.08.13-.12.3-.12.49s.04.34.12.46c.08.12.21.18.38.18.19 0 .32-.07.39-.22ZM82.18 14.27v1.14c0 .09.01.16.04.21.05.1.15.15.29.15.2 0 .34-.09.41-.27.04-.1.06-.23.06-.4v-.84h.29v1.72H83v-.25c-.03.06-.08.12-.14.17-.11.09-.24.13-.4.13-.25 0-.41-.08-.5-.24a.728.728 0 0 1-.07-.35v-1.17h.3ZM83.73 14.27H84v.3c.02-.06.08-.13.17-.21.09-.08.19-.12.3-.12h.09v.3h-.1c-.15 0-.26.05-.34.14s-.12.2-.12.32v.99h-.29v-1.72ZM85.7 14.27h.28v.23a.646.646 0 0 1 .53-.28c.19 0 .36.07.5.22s.2.36.2.64c0 .37-.1.64-.29.8-.12.1-.27.15-.43.15-.13 0-.24-.03-.33-.08a.675.675 0 0 1-.17-.17v.88h-.29v-2.39Zm1.08 1.35c.09-.11.13-.28.13-.51 0-.14-.02-.25-.06-.35-.07-.19-.21-.28-.41-.28s-.34.1-.41.3c-.04.11-.06.24-.06.41 0 .13.02.25.06.34.07.18.21.27.41.27.14 0 .25-.06.34-.17ZM88.62 14.31c.11.06.2.13.26.22s.1.19.12.3c.02.08.02.21.02.38h-1.26c0 .17.05.31.12.42.08.11.2.16.36.16.15 0 .27-.05.36-.15a.49.49 0 0 0 .11-.2h.28c0 .06-.03.13-.07.21a.665.665 0 0 1-.46.36c-.07.02-.15.03-.24.03-.21 0-.4-.08-.54-.23-.15-.15-.22-.37-.22-.65s.07-.5.22-.67.35-.26.59-.26c.12 0 .24.03.35.09Zm.11.67a.82.82 0 0 0-.08-.3c-.08-.14-.21-.21-.4-.21-.13 0-.24.05-.33.14s-.14.22-.14.36h.95ZM89.38 14.27h.27v.3c.02-.06.08-.13.17-.21.09-.08.19-.12.3-.12h.09v.3h-.1c-.15 0-.26.05-.34.14s-.12.2-.12.32v.99h-.29v-1.72ZM90.64 15.44c0 .1.03.17.07.22.07.09.2.14.38.14.11 0 .2-.02.28-.07a.24.24 0 0 0 .12-.22c0-.07-.03-.13-.1-.17-.04-.02-.12-.05-.25-.08l-.23-.06c-.15-.04-.25-.08-.32-.12-.12-.08-.19-.19-.19-.32 0-.16.06-.29.18-.39.12-.1.27-.15.47-.15.26 0 .44.08.56.23.07.1.11.2.1.31h-.27a.34.34 0 0 0-.07-.18c-.07-.08-.18-.11-.34-.11a.44.44 0 0 0-.25.06c-.06.04-.08.1-.08.17s.04.13.11.18c.04.03.11.05.19.07l.19.05c.21.05.35.1.42.15.11.07.17.19.17.35s-.06.28-.17.4c-.12.11-.29.17-.53.17-.26 0-.44-.06-.54-.17a.66.66 0 0 1-.17-.43h.28ZM93.36 14.44c.15.15.23.37.23.65s-.07.51-.2.69c-.14.18-.34.27-.63.27-.24 0-.42-.08-.56-.24-.14-.16-.21-.37-.21-.64 0-.29.07-.52.22-.69.15-.17.34-.26.59-.26.22 0 .41.07.56.22Zm-.18 1.14c.07-.14.11-.31.11-.48a.87.87 0 0 0-.08-.39c-.08-.16-.22-.24-.42-.24-.18 0-.31.07-.38.2-.08.13-.12.3-.12.49s.04.34.12.46c.08.12.21.18.38.18.19 0 .32-.07.39-.22ZM93.94 14.27h.27v.24c.08-.1.17-.17.26-.22.09-.04.19-.07.3-.07.24 0 .41.08.49.25.05.09.07.23.07.4v1.1h-.29v-1.08c0-.1-.02-.19-.05-.25-.05-.11-.14-.16-.28-.16-.07 0-.12 0-.17.02-.08.02-.15.07-.21.14-.05.06-.08.11-.09.18-.01.06-.02.15-.02.26v.9h-.29v-1.72ZM95.76 14.27h.27v.24c.08-.1.17-.17.26-.22.09-.04.19-.07.3-.07.24 0 .41.08.49.25.05.09.07.23.07.4v1.1h-.29v-1.08c0-.1-.02-.19-.05-.25-.05-.11-.14-.16-.28-.16-.07 0-.12 0-.17.02-.08.02-.15.07-.21.14-.05.06-.08.11-.09.18-.01.06-.02.15-.02.26v.9h-.29v-1.72ZM98.66 14.31c.11.06.2.13.26.22s.1.19.12.3c.02.08.02.21.02.38H97.8c0 .17.05.31.12.42.08.11.2.16.36.16.15 0 .27-.05.36-.15a.49.49 0 0 0 .11-.2h.28c0 .06-.03.13-.07.21a.665.665 0 0 1-.46.36c-.07.02-.15.03-.24.03-.21 0-.4-.08-.54-.23-.15-.15-.22-.37-.22-.65s.07-.5.22-.67.35-.26.59-.26c.12 0 .24.03.35.09Zm.11.67a.82.82 0 0 0-.08-.3c-.08-.14-.21-.21-.4-.21-.13 0-.24.05-.33.14s-.14.22-.14.36h.95ZM99.58 15.44c0 .1.03.17.07.22.07.09.2.14.38.14.11 0 .2-.02.28-.07a.24.24 0 0 0 .12-.22c0-.07-.03-.13-.1-.17-.04-.02-.12-.05-.25-.08l-.23-.06c-.15-.04-.25-.08-.32-.12-.12-.08-.19-.19-.19-.32 0-.16.06-.29.18-.39.12-.1.27-.15.47-.15.26 0 .44.08.56.23.07.1.11.2.1.31h-.27a.34.34 0 0 0-.07-.18c-.07-.08-.18-.11-.34-.11a.44.44 0 0 0-.25.06c-.06.04-.08.1-.08.17s.04.13.11.18c.04.03.11.05.19.07l.19.05c.21.05.35.1.42.15.11.07.17.19.17.35s-.06.28-.17.4c-.12.11-.29.17-.53.17-.26 0-.44-.06-.54-.17a.66.66 0 0 1-.17-.43h.28ZM101.97 13.62h.29v.88c.07-.09.13-.15.18-.18.09-.06.21-.09.35-.09.25 0 .42.09.51.26.05.09.07.23.07.4v1.1h-.3v-1.08c0-.13-.02-.22-.05-.28-.05-.09-.15-.14-.29-.14-.12 0-.23.04-.33.12-.1.08-.15.24-.15.47v.91h-.29v-2.36ZM104.71 14.94c.07 0 .11-.04.13-.08.01-.03.02-.06.02-.11 0-.1-.04-.17-.11-.21s-.17-.07-.3-.07c-.15 0-.26.04-.32.12-.04.05-.06.11-.07.2h-.27c0-.21.07-.36.21-.44.13-.08.28-.12.46-.12.2 0 .37.04.49.12.12.08.19.2.19.36v.99s0 .05.02.07c.01.02.04.03.08.03h.09v.21s-.08.02-.1.02h-.1c-.1 0-.17-.04-.22-.11a.503.503 0 0 1-.05-.16c-.06.08-.14.14-.25.2-.11.06-.23.08-.36.08-.16 0-.29-.05-.39-.14-.1-.1-.15-.22-.15-.36 0-.16.05-.28.15-.37s.23-.14.39-.16l.46-.06Zm-.61.78c.06.05.13.07.22.07.1 0 .2-.02.3-.07.16-.08.24-.21.24-.38v-.23s-.08.04-.14.06c-.06.01-.11.03-.16.03l-.17.02c-.11.01-.18.04-.24.06-.09.05-.13.13-.13.24 0 .08.03.15.09.2ZM105.62 14.27h.27v.24c.08-.1.17-.17.26-.22.09-.04.19-.07.3-.07.24 0 .41.08.49.25.05.09.07.23.07.4v1.1h-.29v-1.08c0-.1-.02-.19-.05-.25-.05-.11-.14-.16-.28-.16-.07 0-.12 0-.17.02-.08.02-.15.07-.21.14-.05.06-.08.11-.09.18-.01.06-.02.15-.02.26v.9h-.29v-1.72ZM108.39 14.32c.05.03.11.09.18.17v-.87h.28v2.36h-.26v-.24c-.07.11-.15.18-.24.23-.09.05-.2.07-.32.07-.19 0-.36-.08-.5-.24-.14-.16-.21-.37-.21-.64 0-.25.06-.47.19-.65.13-.18.31-.27.55-.27.13 0 .24.03.33.08Zm-.65 1.29c.08.12.2.19.37.19.13 0 .24-.06.33-.17.09-.11.13-.28.13-.49s-.04-.38-.13-.48-.2-.16-.33-.16c-.15 0-.26.05-.35.17-.09.11-.14.27-.14.49 0 .18.04.34.12.46ZM109.27 13.63h.29v.33h-.29v-.33Zm0 .65h.29v1.71h-.29v-1.71ZM111.13 14.36c.12.09.19.26.22.49h-.28c-.02-.11-.06-.19-.12-.26s-.16-.11-.29-.11c-.18 0-.32.09-.39.27-.05.12-.08.26-.08.43s.04.32.11.43c.07.12.19.18.34.18.12 0 .21-.04.28-.11s.12-.17.15-.3h.28c-.03.23-.11.39-.24.5-.13.11-.29.16-.49.16-.22 0-.4-.08-.54-.25a.952.952 0 0 1-.2-.61c0-.3.07-.54.22-.7.15-.17.33-.25.56-.25.19 0 .35.05.47.14ZM112.56 14.94c.07 0 .11-.04.13-.08.01-.03.02-.06.02-.11 0-.1-.04-.17-.11-.21s-.17-.07-.3-.07c-.15 0-.26.04-.32.12-.04.05-.06.11-.07.2h-.27c0-.21.07-.36.21-.44.13-.08.28-.12.46-.12.2 0 .37.04.49.12.12.08.19.2.19.36v.99s0 .05.02.07c.01.02.04.03.08.03h.09v.21s-.08.02-.1.02h-.1c-.1 0-.17-.04-.22-.11a.503.503 0 0 1-.05-.16c-.06.08-.14.14-.25.2-.11.06-.23.08-.36.08-.16 0-.29-.05-.39-.14-.1-.1-.15-.22-.15-.36 0-.16.05-.28.15-.37s.23-.14.39-.16l.46-.06Zm-.61.78c.06.05.13.07.22.07.1 0 .2-.02.3-.07.16-.08.24-.21.24-.38v-.23s-.08.04-.14.06c-.06.01-.11.03-.16.03l-.17.02c-.11.01-.18.04-.24.06-.09.05-.13.13-.13.24 0 .08.03.15.09.2ZM113.44 14.27h.28v.23a.646.646 0 0 1 .53-.28c.19 0 .36.07.5.22s.2.36.2.64c0 .37-.1.64-.29.8-.12.1-.27.15-.43.15-.13 0-.24-.03-.33-.08a.675.675 0 0 1-.17-.17v.88h-.29v-2.39Zm1.08 1.35c.09-.11.13-.28.13-.51 0-.14-.02-.25-.06-.35-.07-.19-.21-.28-.41-.28s-.34.1-.41.3c-.04.11-.06.24-.06.41 0 .13.02.25.06.34.07.18.21.27.41.27.14 0 .25-.06.34-.17ZM116.36 14.31c.11.06.2.13.26.22s.1.19.12.3c.02.08.02.21.02.38h-1.26c0 .17.05.31.12.42.08.11.2.16.36.16.15 0 .27-.05.36-.15a.49.49 0 0 0 .11-.2h.28c0 .06-.03.13-.07.21a.665.665 0 0 1-.46.36c-.07.02-.15.03-.24.03-.21 0-.4-.08-.54-.23-.15-.15-.22-.37-.22-.65s.07-.5.22-.67.35-.26.59-.26c.12 0 .24.03.35.09Zm.11.67a.82.82 0 0 0-.08-.3c-.08-.14-.21-.21-.4-.21-.13 0-.24.05-.33.14s-.14.22-.14.36h.95Zm-.13-1.41-.43.46h-.22l.29-.46h.36ZM118.19 14.31c.11.06.2.13.26.22s.1.19.12.3c.02.08.02.21.02.38h-1.26c0 .17.05.31.12.42.08.11.2.16.36.16.15 0 .27-.05.36-.15a.49.49 0 0 0 .11-.2h.28c0 .06-.03.13-.07.21a.665.665 0 0 1-.46.36c-.07.02-.15.03-.24.03-.21 0-.4-.08-.54-.23-.15-.15-.22-.37-.22-.65s.07-.5.22-.67.35-.26.59-.26c.12 0 .24.03.35.09Zm.11.67a.82.82 0 0 0-.08-.3c-.08-.14-.21-.21-.4-.21-.13 0-.24.05-.33.14s-.14.22-.14.36h.95ZM119.12 15.44c0 .1.03.17.07.22.07.09.2.14.38.14.11 0 .2-.02.28-.07a.24.24 0 0 0 .12-.22c0-.07-.03-.13-.1-.17-.04-.02-.12-.05-.25-.08l-.23-.06c-.15-.04-.25-.08-.32-.12-.12-.08-.19-.19-.19-.32 0-.16.06-.29.18-.39.12-.1.27-.15.47-.15.26 0 .44.08.56.23.07.1.11.2.1.31h-.27a.34.34 0 0 0-.07-.18c-.07-.08-.18-.11-.34-.11a.44.44 0 0 0-.25.06c-.06.04-.08.1-.08.17s.04.13.11.18c.04.03.11.05.19.07l.19.05c.21.05.35.1.42.15.11.07.17.19.17.35s-.06.28-.17.4c-.12.11-.29.17-.53.17-.26 0-.44-.06-.54-.17a.66.66 0 0 1-.17-.43h.28Z" class="cls-16"/><path d="M78.3 10.77c.18-.18.41-.27.68-.27.37 0 .64.12.81.37.09.14.15.27.15.41h-.46a.674.674 0 0 0-.11-.24c-.08-.1-.2-.14-.37-.14s-.3.07-.39.2c-.09.14-.14.33-.14.58s.05.43.15.56.23.19.38.19.28-.05.36-.16c.05-.06.08-.14.11-.26h.46c-.04.24-.14.44-.3.59-.16.15-.37.23-.63.23-.32 0-.56-.1-.74-.31-.18-.21-.27-.49-.27-.84 0-.39.1-.69.31-.89ZM80.95 10.54h.52l.78 2.22h-.5l-.15-.46h-.82l-.15.46h-.48l.79-2.22Zm-.03 1.38h.57l-.28-.87-.29.87ZM83.96 10.6c.08.03.15.09.21.15.05.06.08.12.11.19s.04.15.04.23c0 .11-.03.21-.08.31s-.14.17-.26.22c.1.04.17.1.22.18s.06.19.06.35v.15c0 .1 0 .17.01.21.01.06.04.1.09.13v.06h-.51s-.02-.09-.03-.12c-.01-.06-.02-.13-.02-.19v-.21c0-.14-.03-.24-.08-.28s-.13-.07-.26-.07h-.45v.87h-.45v-2.22h1.06c.15 0 .27.02.35.06Zm-.96.33v.6h.5c.1 0 .17-.01.22-.04.09-.04.13-.12.13-.25s-.04-.22-.13-.27a.414.414 0 0 0-.21-.04H83ZM86.37 10.54v.39h-.66v1.82h-.47v-1.82h-.67v-.39h1.8ZM88.28 10.94h-1.17v.47h1.08v.39h-1.08v.57h1.23v.4h-1.68v-2.22h1.63v.39ZM90.85 10.59c.16.05.28.15.38.28.08.11.13.23.16.36.03.13.04.25.04.37 0 .29-.06.54-.18.75-.16.28-.41.41-.74.41h-.96v-2.22h.96c.14 0 .25.02.34.05Zm-.85.34v1.45h.43c.22 0 .37-.11.46-.32.05-.12.07-.26.07-.42 0-.23-.03-.4-.11-.52-.07-.12-.21-.18-.42-.18H90ZM93.42 10.94h-1.17v.47h1.08v.39h-1.08v.57h1.23v.4H91.8v-2.22h1.63v.39ZM95.02 12.08c.01.1.04.18.09.23.08.09.21.14.39.14.11 0 .2-.01.27-.04.13-.05.2-.13.2-.26 0-.07-.03-.13-.1-.17-.06-.04-.17-.07-.31-.1l-.24-.05c-.24-.05-.4-.11-.49-.17-.15-.1-.22-.26-.22-.48 0-.2.07-.36.22-.49s.36-.2.64-.2c.24 0 .44.06.6.19.17.12.25.3.26.54h-.45c0-.13-.07-.23-.18-.28a.58.58 0 0 0-.28-.06c-.12 0-.22.02-.29.07-.07.05-.11.12-.11.2 0 .08.04.14.11.18.05.03.14.06.29.09l.39.09c.17.04.3.09.38.16.13.1.2.26.2.45s-.08.37-.23.5c-.16.13-.38.2-.66.2s-.52-.07-.69-.2c-.17-.13-.25-.31-.25-.54H95ZM98.35 10.54v.39h-.66v1.82h-.47v-1.82h-.67v-.39h1.8ZM99.03 10.54h.52l.78 2.22h-.5l-.15-.46h-.82l-.15.46h-.48l.79-2.22ZM99 11.92h.57l-.28-.87-.29.87ZM102 10.54v.39h-.66v1.82h-.47v-1.82h-.67v-.39h1.8ZM102.7 12.76h-.46v-2.22h.46v2.22ZM104.84 12.56c-.17.17-.41.26-.73.26s-.56-.09-.73-.26c-.22-.21-.34-.52-.34-.91s.11-.71.34-.91c.17-.17.41-.26.73-.26s.56.09.73.26c.22.2.33.51.33.91s-.11.7-.33.91Zm-.29-.34c.11-.14.16-.33.16-.58s-.05-.44-.16-.58c-.11-.14-.25-.2-.44-.2s-.33.07-.44.2-.16.33-.16.58.06.44.16.58.26.2.44.2.33-.07.44-.2ZM105.52 10.54h.48l.88 1.55v-1.55h.43v2.22h-.46l-.9-1.57v1.57h-.43v-2.22ZM107.74 10.54h.48l.88 1.55v-1.55h.43v2.22h-.46l-.9-1.57v1.57h-.43v-2.22ZM111.61 10.94h-1.17v.47h1.08v.39h-1.08v.57h1.23v.4h-1.68v-2.22h1.63v.39ZM113.5 10.54h.67v2.22h-.43V10.9l-.42 1.86h-.45l-.42-1.86V12.76h-.43v-2.22h.67l.4 1.74.4-1.74ZM116.23 10.94h-1.17v.47h1.08v.39h-1.08v.57h1.23v.4h-1.68v-2.22h1.63v.39ZM116.64 10.54h.48l.88 1.55v-1.55h.43v2.22h-.46l-.9-1.57v1.57h-.43v-2.22ZM120.48 10.54v.39h-.66v1.82h-.47v-1.82h-.67v-.39h1.8Z"/><path d="M58.87 35.01a8.7 8.7 0 0 1-8.15 5.64 8.7 8.7 0 0 1-8.7-8.7c0-3.39 1.93-6.32 4.76-7.76" class="cls-12"/><circle cx="49.24" cy="13.83" r="2.51" style="stroke-width:2px;stroke:#fff;fill:#fff;stroke-miterlimit:10"/><path d="m49.24 14.67 1.21 13.9h8.92l3.77 8.19 3.45-1.3M49.99 23.31h7.44" class="cls-12"/><path d="M124.92 63.09s4.15 10.32-1.72 17.3" style="fill:none;stroke:#000;stroke-miterlimit:10"/><path d="m121.8 75.22.99-.12.55 4.9 4.85-.9.18.98-5.9 1.1-.67-5.96z"/></svg>