<svg xmlns="http://www.w3.org/2000/svg" id="Calque_1" viewBox="0 0 128 128"><defs><style>.cls-3{stroke:#1a2e35;stroke-linecap:round;stroke-linejoin:round;fill:#fff}</style></defs><path d="M107.03 21.02c-1.85-1.8-4.7-2.75-7.02-3.72-.16-.18-3.34-1.65-3.58-1.72-2.15-.65-19.4-5.79-24.05-5.33-5.28.5-8.11 7.66-8.22 7.96-.02.05-.03.11-.05.16h-.2a.428.428 0 0 0-.05-.16c-.12-.3-2.95-7.46-8.22-7.96-4.66-.46-21.9 4.68-24.05 5.33-.24.07-3.43 1.54-3.58 1.72-2.32.98-5.18 1.93-7.02 3.72-1.94 1.89-1.61 4.82 1.52 4.85 5.86.05 6.98-5.54 11.17-8.06.12-.07.23-.13.34-.2C41 15.6 52.46 12.54 55.4 12.83c1.49.14 2.8 1.25 3.84 2.54.33.92 2.25 6.24 2.38 7.16.14 1 0 3.3 0 3.3h4.44s-.14-3.15.43-4.59c.57-1.43 1.43-4.3 1.43-4.3l.71-1.38c1.06-1.37 2.43-2.58 3.99-2.73 2.94-.28 14.4 2.77 21.38 4.78.11.07.22.13.34.2 4.19 2.51 5.31 8.11 11.17 8.06 3.13-.03 3.47-2.95 1.52-4.85Z" class="cls-3"/><path d="M67.69 28.91h-7.38l.74-3.83h5.9l.74 3.83z" style="fill:#baa584;stroke:#1a2e35;stroke-linecap:round;stroke-linejoin:round"/><path d="M66.17 92.87h.05s-.55-1.36-.14-2.73L61.99 90s.27 1.23-.14 2.86c0 0-1.25 1.7-1.25 2.9v5.31c0 1.96 1.58 3.54 3.54 3.54s3.54-1.58 3.54-3.54v-5.31c0-1.2-.6-2.26-1.52-2.9Zm-2.02 8.18c-.98 0-1.77-1.19-1.77-2.66s.79-2.66 1.77-2.66 1.77 1.19 1.77 2.66-.79 2.66-1.77 2.66Z" class="cls-3"/><path d="M60.31 86.44h7.38l-.74 3.84h-5.9l-.74-3.84z" class="cls-3"/><path d="M60.57 28.62h7.15c.47 0 .85.38.85.85v56.41c0 .47-.38.85-.85.85h-7.15a.85.85 0 0 1-.85-.85V29.47c0-.47.38-.85.85-.85Z" style="stroke:#1a2e35;stroke-linecap:round;stroke-linejoin:round;fill:#a07637"/><path d="M64.15 101.04v16.74" style="fill:none;stroke:#000;stroke-miterlimit:10"/></svg>