<svg xmlns="http://www.w3.org/2000/svg" id="Calque_1" data-name="Calque 1" viewBox="0 0 200 128"><defs><style>.cls-2,.cls-3,.cls-4,.cls-5,.cls-7,.cls-8,.cls-9{stroke:#000;stroke-linecap:round;stroke-linejoin:round}.cls-2{fill:#f3d587}.cls-3{fill:#fee4cb}.cls-11,.cls-4,.cls-8{fill:#fff}.cls-5,.cls-9{fill:none}.cls-7,.cls-8,.cls-9{stroke-width:2px}.cls-7{fill:#d6d6d6}</style></defs><path d="M71.39 48.21V18.95c0-4.94 3.29-8.89 8.14-9.76.56-.1 1.14-.13 1.71-.13h55.94v39.16h-65.8Zm41.28-21.13c0-.15.01-.28 0-.39-.26-2.2-1.53-3.64-3.47-4.57-1.54-.74-3.17-.82-4.83-.75-4.05.17-6.72 2.58-7.11 6.56-.32 3.26 1.23 5.9 4.12 7.07 2.43.98 4.94.99 7.41.12 1.8-.63 3.06-1.89 3.67-3.73.15-.44.19-.92.3-1.44-1.38 0-2.65 0-3.92.02-.12 0-.3.2-.35.34-.21.69-.56 1.27-1.2 1.65-2.2 1.31-5.08.09-5.59-2.39-.12-.6-.1-1.25-.04-1.87a3.404 3.404 0 0 1 3.16-3.06c1.87-.14 3.28.41 3.7 2.35 0 .03.04.05.07.08h4.09ZM86.29 25.9v9.25H91v-9.27h5.19c0-1.23 0-2.39-.01-3.55 0-.09-.19-.24-.3-.26-.26-.04-.54-.02-.8-.02H81.8q-.72 0-.72.74v2.36q0 .74.72.74h4.51Zm40.7 9.26v-3.62h-7.29v-.71c0-2.72-.01-5.44.01-8.16 0-.51-.16-.66-.64-.63-.5.03-1 0-1.5 0h-2.37v13.11H127Z" style="fill:#ed1c24"/><path d="M112.66 27.08h-4.09s-.06-.05-.07-.08c-.42-1.95-1.83-2.5-3.7-2.35-1.67.13-3 1.41-3.16 3.06-.06.62-.08 1.27.04 1.87.51 2.49 3.39 3.7 5.59 2.39.64-.38.99-.96 1.2-1.65.04-.14.22-.34.35-.34 1.27-.03 2.54-.02 3.92-.02-.11.52-.15 1-.3 1.44-.61 1.84-1.87 3.1-3.67 3.73-2.47.87-4.98.86-7.41-.12-2.89-1.17-4.44-3.81-4.12-7.07.39-3.99 3.06-6.39 7.11-6.56 1.66-.07 3.3 0 4.83.75 1.94.93 3.21 2.37 3.47 4.57.01.12 0 .24 0 .39ZM86.28 25.9h-4.51q-.72 0-.72-.74V22.8q0-.74.72-.74h13.28c.27 0 .54-.02.8.02.12.02.3.17.3.26.02 1.16.01 2.32.01 3.55h-5.19v9.27h-4.71v-9.25ZM126.99 35.16h-11.8V22.05h2.37c.5 0 1.01.03 1.5 0 .48-.03.65.12.64.63-.02 2.72-.01 5.44-.01 8.16v.71h7.29v3.62Z" class="cls-11"/><circle cx="79.11" cy="94.79" r="5.65" class="cls-9"/><circle cx="79.11" cy="94.79" r="2.29" class="cls-9"/><circle cx="32.27" cy="94.79" r="5.65" class="cls-9"/><circle cx="32.27" cy="94.79" r="2.29" class="cls-9"/><path d="M18.81 63.63h60.55c4.64 0 8.41 3.77 8.41 8.41v16.94c0 1.12-.91 2.03-2.03 2.03H12.49V69.95a6.32 6.32 0 0 1 6.32-6.32Z" style="stroke-width:2px;fill:#76ac75;stroke-linecap:round;stroke-linejoin:round;stroke:#000"/><path d="M12.49 91.01h75.28c0 2.41-1.95 4.36-4.36 4.36H16.85c-2.41 0-4.36-1.95-4.36-4.36h0Z" class="cls-7"/><path d="M55.15 68.16h12.92v22.85H55.15zM72.78 68.16h15v12.21H84c-6.19 0-11.22-5.03-11.22-11.22v-.98h0Z" class="cls-8"/><path d="M85.47 83.68h2.31v4.62h-2.31c-1.28 0-2.31-1.04-2.31-2.31h0c0-1.28 1.04-2.31 2.31-2.31ZM12.49 82.28h4.62v2.81h-4.62z" class="cls-3"/><path d="M12.49 85.09h4.62c0 2.18-1.77 3.95-3.95 3.95h-.67v-3.95h0Z" class="cls-4"/><rect width="8.28" height="8.28" x="42.69" y="68.16" class="cls-8" rx="2.03" ry="2.03"/><rect width="8.28" height="8.28" x="30.59" y="68.16" class="cls-8" rx="2.03" ry="2.03"/><rect width="8.28" height="8.28" x="18.43" y="68.16" class="cls-8" rx="2.03" ry="2.03"/><path d="M87.78 69.6h2.56c.73 0 1.32.59 1.32 1.32v5.97" class="cls-5"/><path d="M73.43 89.72a5.65 5.65 0 1 0 .001 11.301 5.65 5.65 0 0 0-.001-11.301Zm0 7.94c-1.27 0-2.3-1.03-2.3-2.3s1.03-2.29 2.3-2.29 2.29 1.03 2.29 2.29-1.03 2.3-2.29 2.3Z" class="cls-8"/><path d="M75.72 95.37c0 1.27-1.03 2.3-2.29 2.3s-2.3-1.03-2.3-2.3 1.03-2.29 2.3-2.29 2.29 1.03 2.29 2.29Z" class="cls-8"/><path d="M75.72 95.37c0 1.27-1.03 2.3-2.29 2.3s-2.3-1.03-2.3-2.3 1.03-2.29 2.3-2.29 2.29 1.03 2.29 2.29ZM26.59 89.72a5.65 5.65 0 1 0 .001 11.301 5.65 5.65 0 0 0-.001-11.301Zm0 7.94c-1.27 0-2.3-1.03-2.3-2.3s1.03-2.29 2.3-2.29 2.29 1.03 2.29 2.29-1.02 2.3-2.29 2.3Z" class="cls-8"/><path d="M28.88 95.37c0 1.27-1.02 2.3-2.29 2.3s-2.3-1.03-2.3-2.3 1.03-2.29 2.3-2.29 2.29 1.03 2.29 2.29Z" class="cls-8"/><path d="M28.88 95.37c0 1.27-1.02 2.3-2.29 2.3s-2.3-1.03-2.3-2.3 1.03-2.29 2.3-2.29 2.29 1.03 2.29 2.29Z" class="cls-8"/><path d="M61.62 68.16v22.85" class="cls-9"/><path d="M59.59 78.7v2.51M63.52 78.7v2.51M89.72 72.22h1.94v5.84h-1.94z" class="cls-5"/><path d="M154.86 69.33h-42.89c0-5.65 9.6-8.44 21.44-8.44l3.53.09h.21c5.24.29 9.82 1.17 13.01 2.66 2.94 1.38 4.69 3.27 4.69 5.69Z" class="cls-7"/><path d="m136.94 60.98-3.53-.09c1.2 0 2.39.03 3.53.09ZM154.86 93.58V69.33M148.84 98.77H154.86V93.58" class="cls-9"/><path d="m187.52 71.77-26.39 21.66-6.27 5.14V69.32l29.71-3.26c1.36 1.72 2.37 3.65 2.95 5.7Z" class="cls-7"/><path d="m180.37 62.13-27.21-.72c3.64-2.24 8.16-3.57 13.06-3.57 5.4 0 10.34 1.61 14.15 4.29ZM184.57 66.07l-29.71 3.26c0-2.42-1.76-4.31-4.69-5.69-3.19-1.49-7.77-2.37-13.01-2.65l16.01.43 27.21.72c1.62 1.13 3.05 2.46 4.2 3.94Z" class="cls-9"/><path d="m184.57 66.07-29.71 3.26c0-2.42-1.76-4.31-4.69-5.69-3.19-1.49-7.77-2.37-13.01-2.65l16.01.43 27.21.72c1.62 1.13 3.05 2.46 4.2 3.94Z" class="cls-9"/><path d="m184.57 66.07-29.71 3.26c0-2.42-1.76-4.31-4.69-5.69-3.19-1.49-7.77-2.37-13.01-2.65l16.01.43 27.21.72c1.62 1.13 3.05 2.46 4.2 3.94Z" class="cls-7"/><path d="m161.13 93.43 26.39-21.66c.38 1.33.58 2.7.58 4.11v12.5h-17.48l-6.01 5.49M164.6 93.87l-25.97 23.76" class="cls-9"/><path d="M154.86 98.77h-42.89V69.33h42.89v29.24l-.24.2" class="cls-7"/><path d="m153.09 98.77-17.55 15.9M148.84 98.77l-18.49 15.91M122.48 98.77l-24.04 14.58M118.71 98.77l-26.68 14.58" class="cls-9"/><rect width="10.48" height="24.81" x="126.95" y="71.64" class="cls-4" rx="2.46" ry="2.46"/><rect width="10.48" height="12.12" x="114.42" y="71.64" class="cls-4" rx="1.72" ry="1.72"/><rect width="10.48" height="12.12" x="141.13" y="71.64" class="cls-4" rx="1.72" ry="1.72"/><rect width="6.13" height="12.22" x="129.12" y="73.66" class="cls-5" rx="1.32" ry="1.32"/><path d="m156.67 73.57 6.17-1.52v8.96l-6.17 3.33V73.57zM164.6 71.93l4.72-1.15v6.84l-4.72 2.54v-8.23zM171.19 70.64l3.75-.87v5.15l-3.75 1.91v-6.19zM176.82 69.85l3.27-1.11v8.75l-3.27 2.88V69.85z" class="cls-4"/><path d="M172.39 61.95s5.17.54 7.19 1.76 2.39 2.64 2.39 2.64v9.97" class="cls-9"/><path d="M116.92 102.58h27.39M113.35 104.56h28.37M107.89 108.03h30.03M104.59 110h30.49M115.64 83.76v15.01M151.1 83.76v15.01" class="cls-5"/><rect width="15.65" height="3.69" x="125.58" y="63.27" rx="1.84" ry="1.84" style="stroke-linecap:round;stroke-linejoin:round;stroke:#000;fill:#ff6d75"/><rect width="5.69" height="4.38" x="118.71" y="91.03" class="cls-2" rx="2.19" ry="2.19"/><rect width="5.69" height="4.38" x="140.92" y="91.03" class="cls-2" rx="2.19" ry="2.19"/><path d="M120.51 91.03v4.17M144.81 91.03v4.06" class="cls-5"/><path d="M-983.58-282.18h1509.9v999.05h-1509.9z" style="stroke:#fff;stroke-width:8px;fill:none;stroke-linecap:round;stroke-linejoin:round"/></svg>