<svg xmlns="http://www.w3.org/2000/svg" id="Calque_1" data-name="Calque 1" viewBox="0 0 128 128"><defs><style>.cls-3,.cls-4{stroke:#000}.cls-3{stroke-linecap:round;stroke-linejoin:round}.cls-3,.cls-9{fill:#fff}.cls-4{stroke-miterlimit:10}</style></defs><path d="M70.79 5.71H30.52c-4.08 0-7.4 3.32-7.4 7.4V114.9c0 4.08 3.32 7.39 7.4 7.39h40.27c4.08 0 7.4-3.31 7.4-7.39V13.11c0-4.08-3.32-7.4-7.4-7.4Zm7.12 109.19c0 3.92-3.19 7.11-7.12 7.11H30.52c-3.92 0-7.11-3.19-7.11-7.11V13.11c0-3.92 3.19-7.12 7.11-7.12h40.27c3.93 0 7.12 3.2 7.12 7.12V114.9Z" class="cls-4"/><path d="M77.91 13.11V114.9c0 3.92-3.19 7.11-7.12 7.11H30.52c-3.92 0-7.11-3.19-7.11-7.11V13.11c0-3.92 3.19-7.12 7.11-7.12h40.27c3.93 0 7.12 3.2 7.12 7.12Z" class="cls-4"/><path d="M76.14 13.94v100.12c0 3.47-2.81 6.28-6.28 6.28H31.45a6.279 6.279 0 0 1-6.29-6.28V13.94c0-3.47 2.81-6.28 6.28-6.28h1.12c3.45 0 6.91.06 10.36 0 0 .02-.02.06-.01.1.94-.15 2.41.26 3.09.94 1.08 1.08 2.35 2.57 4.01 2.74 1.73.18 3.1-1.22 4.23-2.33 1.26-1.25 2.95-1.44 4.66-1.44h10.94c3.47 0 6.28 2.81 6.28 6.28Z" style="fill:#bfe6fc"/><circle cx="50.33" cy="9.03" r="1.11" style="stroke-width:.5px;stroke:#fff;fill:#cfb999;stroke-miterlimit:10"/><path d="M78.03 39.31V24.84c.55 0 .99.44.99.99v12.49c0 .55-.44.99-.99.99ZM78.03 51.78v-7.22c.55 0 .99.44.99.99v5.24c0 .55-.44.99-.99.99Z" class="cls-4"/><path d="M66.18 10h3.2v2.63h-3.2z" style="fill:#87f3b9"/><path d="M69.38 10h1.59v2.63h-1.59z" class="cls-9"/><path d="M70.97 10.74h.68v1.16h-.68zM28.5 10.82h.88v1.51h-.88zM29.89 10.29h.88v2.04h-.88zM31.27 9.66h.88v2.66h-.88z"/><path d="M66.18 10h4.8v2.63h-4.8z" style="fill:none;stroke-width:.5px;stroke-miterlimit:10;stroke:#000"/><circle cx="37.88" cy="101.1" r="9.66" style="fill:#ff6d75;stroke-linecap:round;stroke-linejoin:round;stroke:#000"/><path d="M32.56 100.67c.19-.14.37-.29.57-.43 2.54-1.76 5.23-2.1 8.08-.84.9.4 1.69.96 2.38 1.65.16.16.23.34.21.57-.04.44-.07.89-.1 1.33-.03.41-.25.61-.67.59-.94-.05-1.88-.09-2.81-.13-.4-.02-.6-.23-.6-.64 0-.56.01-1.12.02-1.68 0-.08-.02-.12-.09-.16-.59-.35-1.24-.46-1.91-.42-.5.03-.98.15-1.42.41-.08.05-.11.1-.11.19l.03 1.67c0 .4-.2.61-.6.63-.94.04-1.88.09-2.83.13-.4.02-.62-.17-.65-.58-.03-.42-.06-.83-.1-1.24-.02-.18-.02-.35.06-.52l.54-.54Z" class="cls-3"/><circle cx="62.86" cy="101.1" r="9.66" style="fill:#87f3b9;stroke-linecap:round;stroke-linejoin:round;stroke:#000"/><path id="JKa6IG.tif" d="M65.69 105.47c-.23-.03-.47-.06-.7-.1-3.04-.55-5.18-2.21-6.3-5.12-.35-.91-.52-1.87-.52-2.85 0-.23.08-.41.26-.55.34-.28.68-.58 1.02-.87.31-.27.61-.25.89.06.63.7 1.26 1.39 1.89 2.08.27.3.26.59-.03.87-.4.39-.8.78-1.21 1.17-.06.05-.07.1-.05.18.17.67.55 1.2 1.05 1.65.38.34.8.58 1.29.71.09.02.15.01.21-.06.38-.4.77-.8 1.16-1.2.28-.29.57-.29.87-.02.7.63 1.4 1.27 2.09 1.9.3.27.31.56.05.87-.27.32-.54.63-.81.95-.12.14-.24.26-.41.33h-.76Z" class="cls-3"/><path d="M51.07 27.9c-11.6 0-21 9.4-21 21.01 0 5.09 1.81 9.76 4.83 13.39.56-8.45 7.59-15.13 16.17-15.13s15.62 6.68 16.18 15.13c3.01-3.63 4.83-8.3 4.83-13.39 0-11.6-9.4-21.01-21.01-21.01Zm0 17.41c-3.63 0-6.57-2.94-6.57-6.57s2.94-6.58 6.57-6.58 6.58 2.94 6.58 6.58-2.94 6.57-6.58 6.57Z" style="fill:#87ccf3"/><path d="M67.24 62.29c-3.86 4.65-9.67 7.61-16.18 7.61s-12.31-2.96-16.17-7.61c.56-8.45 7.59-15.13 16.17-15.13s15.62 6.68 16.18 15.13ZM57.65 38.73c0 3.63-2.94 6.57-6.58 6.57s-6.57-2.94-6.57-6.57 2.94-6.58 6.57-6.58 6.58 2.94 6.58 6.58ZM37.91 75.35h27.06v4.09H37.91z" class="cls-9"/><path d="M105.34 48.07C94.66 46.46 84.7 53.82 83.1 64.5c-.68 4.53.25 8.92 2.37 12.61h0l-2.05 6.48 6.07-1.54h0c2.73 2.42 6.16 4.1 10.04 4.69 10.68 1.61 20.64-5.75 22.24-16.43 1.61-10.68-5.75-20.64-16.43-22.24Z" class="cls-3"/><path d="m109.17 70 .49-5.29c.31-3.32-1.7-6.32-4.69-7.4a1.823 1.823 0 0 0-3.63-.34c-3.14.52-5.66 3.1-5.97 6.42l-.49 5.29s-3.56 1.53-2.94 6.26l6.6.61c-.15 1.59 1.02 3 2.62 3.15s3-1.03 3.15-2.62l6.6.61c1.47-4.54-1.74-6.7-1.74-6.7Z" style="fill:#f3d587;stroke-miterlimit:10;stroke:#000"/><path d="M-840.69-359.81H606.38v727.52H-840.69z" style="fill:none;stroke-width:8px;stroke:#fff;stroke-linecap:round;stroke-linejoin:round"/></svg>