<svg xmlns="http://www.w3.org/2000/svg" id="Calque_1" viewBox="0 0 128 128"><defs><style>.cls-3,.cls-5,.cls-6{stroke:#000;stroke-width:2px}.cls-3,.cls-6{stroke-miterlimit:10}.cls-3{fill:#87ccf3}.cls-5{stroke-linecap:round;stroke-linejoin:round}.cls-5,.cls-6{fill:none}</style></defs><path d="M68.72 90.54V11.87c0-4.04-3.27-7.31-7.31-7.31s-7.31 3.27-7.31 7.31v78.67c-5.97 2.77-10.12 8.8-10.12 15.81 0 9.63 7.81 17.43 17.43 17.43s17.44-7.81 17.44-17.43c0-7.01-4.15-13.05-10.12-15.81Z" style="stroke-miterlimit:10;stroke:#000;stroke-width:2px;fill:#fff"/><path d="M68.21 12.52h6.12M68.21 18.23h6.12M68.21 23.94h6.12M68.21 29.64h6.12M68.21 35.35h6.12M68.21 46.76h6.12M68.21 41.06h6.12M68.21 52.47h6.12M68.21 58.18h6.12M68.21 63.89h6.12M68.21 69.59h6.12M68.21 75.3h6.12M68.21 81.01h6.12M68.21 86.71h6.12" class="cls-6"/><path d="M57.77 12.89h7.28v34.68h-7.28z" style="fill:#d6d6d6;stroke-miterlimit:10;stroke:#000;stroke-width:2px"/><path d="M74 106.24c0 6.95-5.64 12.58-12.59 12.58s-12.58-5.63-12.58-12.58c0-5.68 3.77-10.5 8.94-12.06V34.85h7.28v59.34c5.18 1.56 8.94 6.37 8.94 12.05Z" class="cls-3"/><text style="font-family:Helvetica-Bold,Helvetica;font-size:12px;font-weight:700" transform="translate(78.02 40.19)"><tspan x="0" y="0">37°</tspan></text><rect width="23.55" height="23.55" x="15.81" y="38.34" rx="4.14" ry="4.14" style="fill:#bbfedb"/><path d="M39.36 48.25v10.33a3.32 3.32 0 0 1-3.31 3.31H19.11a3.32 3.32 0 0 1-3.31-3.31V41.64a3.32 3.32 0 0 1 3.31-3.31h16.94" class="cls-5"/><path d="m19.06 45.3 8.52 12.22 14.38-19.18" class="cls-5"/><path d="M115.88 74.02c0 7.64-6.2 13.84-13.84 13.84S88.2 81.66 88.2 74.02c0-5.64 7.54-18.29 11.49-24.53 1.09-1.73 3.61-1.73 4.7 0 3.95 6.24 11.49 18.89 11.49 24.53Z" class="cls-3"/></svg>