<svg xmlns="http://www.w3.org/2000/svg" id="Calque_1" viewBox="0 0 128 128"><defs><style>.cls-1{fill:#f3d587}.cls-1,.cls-2{stroke-linecap:round;stroke-linejoin:round}.cls-1,.cls-2,.cls-7{stroke:#000}.cls-2,.cls-7{fill:none}.cls-7{stroke-miterlimit:10}</style></defs><path d="M33.27 111.44h52.89c1.62 0 3.1-.9 3.85-2.33 3.13-5.94 12.31-21.83 25.37-31 3.29-2.31 2.08-7.44-1.91-7.91-13.07-1.55-33.44-1.46-48.35 10.21-14.29 11.2-29.09 10.98-38.59 9.04-3.68-.75-6.54 3.14-4.68 6.4l7.64 13.39a4.328 4.328 0 0 0 3.78 2.19Z" style="fill:#b2f0e9;stroke-miterlimit:10;stroke-width:2px;stroke:#000"/><path d="M31.55 96.27c-7.2 0-12.56-1-13.8-1.25a4.644 4.644 0 1 1 1.86-9.1c9.17 1.87 28.04 2.42 40.61-7.43 17.77-13.92 48.24-11.56 57.16-10.5 2.55.3 4.37 2.61 4.07 5.16a4.646 4.646 0 0 1-5.16 4.07c-16.53-1.95-38.44-.73-50.34 8.59-10.9 8.54-24.41 10.47-34.4 10.47Z" style="fill:#77eddf;stroke-miterlimit:10;stroke-width:2px;stroke:#000"/><path d="M21.27 86.22s1.2-6.08 9.71-5.23c0 0 6.13-7.15 13.28-3.23 0 0 6.47-7.85 14.47-3.16 0 0 4.41-6.55 14.55-3.06" class="cls-7"/><circle cx="53.9" cy="67.15" r="2.65" class="cls-7"/><circle cx="64.91" cy="61.73" r="1.33" class="cls-7"/><circle cx="51.25" cy="45.92" r="1.33" class="cls-7"/><path d="M106.72 59.71H95.76l-.08.05c.07-.24.12-.49.12-.75 0-1.42-1.15-2.57-2.57-2.57s-2.5 1.09-2.56 2.46l-1.51 1 1.93.52c.46.7 1.24 1.16 2.14 1.16-.02 1.05.26 5.43 6.28 5.43 8.53 0 7.22-7.3 7.22-7.3Z" class="cls-1"/><path d="M96.9 62.01h5.74s.13 2.64-2.87 2.72" class="cls-1"/><path d="M34.05 57V20a3.44 3.44 0 1 0-6.88 0v37a8.198 8.198 0 0 0 3.44 15.64c4.53 0 8.2-3.67 8.2-8.2 0-3.3-1.95-6.13-4.76-7.44Z" style="stroke-miterlimit:10;stroke-width:2px;fill:#fff;stroke:#000"/><path d="M33.81 20.31h2.88M33.81 22.99h2.88M33.81 25.68h2.88M33.81 28.36h2.88M33.81 31.05h2.88M33.81 36.41h2.88M33.81 33.73h2.88M33.81 39.1h2.88M33.81 41.78h2.88M33.81 44.46h2.88M33.81 47.15h2.88M33.81 49.83h2.88M33.81 52.52h2.88M33.81 55.2h2.88" class="cls-7"/><path d="M36.54 64.38c0 3.27-2.65 5.91-5.92 5.91s-5.91-2.65-5.91-5.91a5.92 5.92 0 0 1 4.21-5.67v-27.9h3.42v27.9c2.43.74 4.21 2.99 4.21 5.67Z" style="fill:#87ccf3"/><path d="M39.35 32.1c0 .16.03.29.08.4.1.19.27.29.52.29.15 0 .29-.05.4-.16.11-.11.17-.26.17-.46 0-.26-.11-.44-.32-.53-.12-.05-.31-.07-.57-.07v-.56c.25 0 .43-.03.53-.07.17-.08.26-.23.26-.47 0-.15-.04-.28-.13-.37-.09-.1-.21-.14-.38-.14-.19 0-.32.06-.41.18-.09.12-.13.27-.12.47h-.73c0-.2.04-.39.1-.56.06-.16.17-.3.3-.43.1-.09.22-.17.37-.22.14-.05.31-.07.52-.07.38 0 .69.1.92.3.23.2.35.46.35.79 0 .24-.07.43-.21.6-.09.1-.18.17-.28.21.07 0 .17.06.31.18.2.19.3.44.3.76 0 .34-.12.64-.35.89-.23.26-.58.38-1.04.38-.57 0-.96-.18-1.18-.55-.12-.2-.18-.45-.19-.77h.77ZM44.54 29.99c-.12.12-.28.32-.49.62s-.39.6-.53.92c-.11.25-.21.55-.3.91s-.14.65-.14.88h-.82c.02-.72.26-1.46.71-2.23.29-.48.53-.81.73-1h-1.99v-.71h2.83v.61ZM45.86 29.3c.24 0 .45.09.63.26.18.18.26.38.26.63s-.09.45-.26.63c-.18.18-.38.26-.63.26s-.45-.09-.63-.26c-.18-.18-.26-.38-.26-.63s.09-.45.26-.63c.18-.18.38-.26.63-.26Zm-.45.89c0 .12.04.23.13.32s.19.13.32.13.23-.04.32-.13.13-.19.13-.32-.04-.23-.13-.32-.19-.13-.32-.13-.23.04-.32.13-.13.19-.13.32Z"/><rect width="11.08" height="11.08" x="9.17" y="32.45" rx="4.14" ry="4.14" style="fill:#bbfedb"/><path d="M20.25 37.11v4.86c0 .86-.7 1.56-1.56 1.56h-7.97c-.86 0-1.56-.7-1.56-1.56V34c0-.86.7-1.56 1.56-1.56h7.97" class="cls-2"/><path d="m10.7 35.72 4.01 5.75 6.76-9.02" class="cls-2"/><path d="M56.23 49.23c0 3.59-2.91 6.51-6.51 6.51s-6.51-2.91-6.51-6.51c0-2.65 3.55-8.6 5.4-11.53.51-.81 1.7-.81 2.21 0 1.86 2.93 5.4 8.88 5.4 11.53Z" style="stroke-miterlimit:10;stroke-width:2px;fill:#87ccf3;stroke:#000"/></svg>