<svg xmlns="http://www.w3.org/2000/svg" id="Calque_1" data-name="Calque 1" viewBox="0 0 128 128.13"><defs><style>.cls-3,.cls-4,.cls-9{stroke:#010101}.cls-3,.cls-4{stroke-linecap:round;stroke-linejoin:round}.cls-3{fill:#fff}.cls-4,.cls-9{fill:none}.cls-11{fill:#010101}.cls-9{stroke-miterlimit:10}</style></defs><path d="M-3457.08-4080.26h6467.34v6437.3h-6467.34z" style="stroke:#fff;stroke-width:8px;fill:none;stroke-linecap:round;stroke-linejoin:round"/><g id="Cartouches"><path d="M45.1 34.05c-.03-.15-.06-.31-.07-.47 13.77 1.28 21.04 5.26 19.98 7.12-.62 1.1-4.3 2.26-9.49 3.15-1.84.32-3.88.6-6.03.84-1.5.17-3.06.31-4.66.42-1.17.09-2.37.17-3.57.23-1.76.08-3.53.11-5.29.11h-1.22c-3.95-.06-8.02-.38-11.76-.84-2.45-.31-4.78-.68-6.83-1.07-4.84-.92-8.27-1.99-8.71-2.72-.79-1.32 6.12-5.84 20.02-7.23" class="cls-4"/><path d="M49 41.68c-1.39.15-2.98.26-4.77.35-1.1.05-2.27.08-3.52.1-1.19.02-2.45.03-3.77.03-5.62 0-10.14-.19-13.34-.64.31-.74.76-1.44 1.31-2.04l.72-.78c.9-.97 1.5-2.16 1.76-3.44.04-.2.08-.4.09-.61.03-.26.05-.53.05-.8v-4.06h17.45v4.07c0 .26.03.53.06.78 0 .16.04.32.07.47.23 1.33.85 2.58 1.78 3.59l.72.79c.6.65 1.07 1.39 1.39 2.19Z" style="fill:#bfe5fb;stroke-linecap:round;stroke-linejoin:round;stroke:#010101"/><path d="M41.94 20.1v3.84H30.6V20.1c0-.38.1-.74.29-1.05.64-1.07 2.09-2.17 2.4-3.38a14.13 14.13 0 0 0 .29-5.22c0-1.45 1.2-2.63 2.68-2.63s2.68 1.17 2.68 2.63c-.02.19-.05.38-.06.55-.15 1.73 0 3.45.48 5.12.3 1.05 1.72 1.99 2.28 2.93.19.31.29.67.29 1.05h-.02Z" style="stroke-linecap:round;stroke-linejoin:round;stroke:#010101;fill:#a07636"/><path d="m46.78 26.34-2-.16c-5.61-.45-11.25-.46-16.88 0l-2.17.17v5.43l2.11-.17a105.7 105.7 0 0 1 16.88 0l2.06.17v-5.43Z" class="cls-3"/><path d="M45.71 26.27h0c-6.25-.56-12.53-.56-18.78 0h-.09v-2.98h.1c6.25-.56 12.53-.56 18.78 0h0v2.98h0Z" class="cls-3"/><path d="M27.1 46.62h4.77" class="cls-9"/><path d="M64.84 40.7v71.51s-9.65 8.09-28.88 8.09-28.29-8.09-28.29-8.09v-71.4c.44.73 3.48 1.8 8.33 2.72 2.06.39 4.38.76 6.83 1.07 3.74.46 7.81.79 11.76.84h1.22c1.76 0 3.54-.04 5.29-.11 1.2-.06 2.39-.13 3.57-.23a110.09 110.09 0 0 0 10.69-1.26c5.19-.89 8.87-2.06 9.49-3.15Z" class="cls-3"/><path d="M45.1 35.37c6.82.66 10.64 2.15 10.64 3.88 0 1.37-2.38 2.22-6.75 2.69-1.39.15-2.98.26-4.77.35-1.1.05-2.27.08-3.52.1-1.19.02-2.45.03-3.77.03-5.62 0-10.14-.19-13.34-.64-3.55-.49-5.47-1.3-5.47-2.53 0-1.6 3.31-3 9.26-3.73M44.39 105.25c0 2.2-.86 4.19-2.27 5.65a8.13 8.13 0 0 1-5.87 2.5c-4.5 0-8.15-3.64-8.15-8.15 0-3.24 1.9-6.04 4.65-7.35 1.06-.51 2.24-.79 3.5-.79 4.5 0 8.14 3.64 8.14 8.14Z" class="cls-4"/><circle cx="28.1" cy="94.29" r="1.65" class="cls-11"/><circle cx="24.1" cy="100.64" r="1.65" class="cls-11"/><circle cx="48.97" cy="100.64" r="1.65" class="cls-11"/><circle cx="44.12" cy="94.29" r="1.65" class="cls-11"/><circle cx="36.26" cy="91.85" r="1.65" class="cls-11"/><path d="M36.21 98.58v4.06M32.36 99.83l2.32 3.32M29.92 103.06l3.8 1.38M29.76 107.11l3.91-1.05M31.96 110.51l2.6-3.1M35.72 112.04l.34-4.03M39.67 111.14l-2.03-3.51M42.38 108.13l-3.67-1.71M42.89 104.11l-3.99.71M40.99 100.53l-2.86 2.86" class="cls-9"/></g><g id="Titres_catégories" data-name="Titres catégories"><path d="M96.39 89.36V33.84a5.16 5.16 0 1 0-10.32 0v55.52c-4.21 1.95-7.14 6.21-7.14 11.16 0 6.8 5.51 12.3 12.3 12.3s12.3-5.51 12.3-12.3c0-4.95-2.93-9.21-7.14-11.16Z" style="stroke-miterlimit:10;fill:#fff;stroke:#010101"/><path d="M96.03 34.3h4.32M96.03 38.33h4.32M96.03 42.36h4.32M96.03 46.38h4.32M96.03 50.41h4.32M96.03 58.46h4.32M96.03 54.44h4.32M96.03 62.5h4.32M96.03 66.52h4.32M96.03 70.55h4.32M96.03 74.58h4.32M96.03 78.6h4.32M96.03 82.64h4.32M96.03 86.65h4.32" class="cls-9"/><path d="M93.8 34.56h-5.13v24.48h5.13V34.56Z" style="fill:#d6d7d7;stroke-miterlimit:10;stroke:#010101"/><path d="M100.11 100.44c0 4.91-3.98 8.88-8.89 8.88s-8.88-3.97-8.88-8.88c0-4.01 2.66-7.41 6.31-8.51V59.04h5.13v32.9c3.65 1.1 6.31 4.5 6.31 8.5h.02Z" style="fill:#89ccf2;stroke-miterlimit:10;stroke:#010101"/><path d="M111.49 43.53c1.42-1.51 3.37-2.26 5.85-2.26 2.29 0 4.13.65 5.5 1.94 1.38 1.3 2.06 2.95 2.06 4.96 0 1.22-.24 2.21-.75 2.97-.5.76-1.52 1.87-3.07 3.34-1.13 1.07-1.86 1.97-2.21 2.71-.22.48-.38 1.12-.45 1.9s-.73 1.38-1.52 1.38c-.9 0-1.61-.78-1.52-1.69.09-.89.26-1.65.51-2.29.38-1 1.26-2.16 2.6-3.45l1.41-1.36c.42-.38.76-.8 1.02-1.22.48-.75.71-1.52.71-2.33 0-1.13-.35-2.1-1.03-2.93-.69-.83-1.82-1.24-3.4-1.24-1.95 0-3.31.71-4.06 2.14-.29.54-.5 1.25-.61 2.12-.1.75-.75 1.31-1.52 1.31-.95 0-1.67-.84-1.52-1.77.27-1.67.93-3.08 1.99-4.2h.02v-.02Zm5.45 20.49c.95 0 1.72.77 1.72 1.72v.16a1.72 1.72 0 1 1-3.44 0v-.16c0-.95.77-1.72 1.72-1.72Z" style="stroke-miterlimit:10;fill:#010101;stroke:#010101"/></g></svg>