<svg xmlns="http://www.w3.org/2000/svg" id="Calque_1" data-name="Calque 1" viewBox="0 0 128 128"><defs><style>.cls-1,.cls-2{stroke:#000;stroke-linecap:round;stroke-linejoin:round}.cls-1{fill:none}.cls-2{fill:#b2f0e9;stroke-width:2px}</style></defs><path d="M40.93 68.96S7.59 56.33 14.15 42.1c7.98-17.3 44.5 1.16 44.5 1.16L56.1 46.1l-2.65 2.95S29.31 37.6 25.03 44.81c-3.65 6.13 19.98 16.6 19.98 16.6l-4.09 7.55Z" class="cls-2"/><ellipse cx="63" cy="64.8" class="cls-2" rx="39.09" ry="17.08" transform="rotate(-55.77 62.991 64.802)"/><ellipse cx="64.97" cy="66.14" class="cls-1" rx="37.14" ry="14.7" transform="rotate(-55.77 64.96 66.134)"/><path d="M72.04 57.43c-.99-.99-5.97 3.87-6.59 4.61-2.89 3.45-4.14 7.79-3.72 12.25 0-.1 3.35.78 4.91 1.55 5.14 2.53 4.75 9.18 7.05 13.78 2.62 5.24 5.81 8.24 10.21 10.51 7.55 3.9 17.38 2 23.66-3.72 3.35-3.05 5.81-7.11 6.73-11.55 1.27-6.05-.47-12.66-4.54-17.31-4.08-4.65-10.4-7.23-16.57-6.76-4.11.31-8.32 2.43-12.45 2.2-3.57-.2-6.31-3.16-8.69-5.56Z" style="fill:#fee4cb;stroke-width:2px;stroke-linecap:round;stroke-linejoin:round;stroke:#000"/><path d="M90.07 68.07s4.76-.77 8.75 1.21 7.05 4.76 7.74 6.29M75.91 50.52c-1.02-.54-.94-2.69.17-4.82 1.12-2.12 2.85-3.41 3.87-2.87.51.27.75.94.71 1.81M49.96 87.86c-1.02-.54-.94-2.69.17-4.82 1.12-2.12 2.85-3.41 3.87-2.87.51.27.75.94.71 1.81" class="cls-1"/><path d="M-4928.44-5822H1538.9V615.3h-6467.34z" style="stroke:#fff;stroke-width:8px;fill:none;stroke-linecap:round;stroke-linejoin:round"/></svg>