<svg xmlns="http://www.w3.org/2000/svg" id="Calque_1" data-name="Calque 1" viewBox="0 0 128 128"><defs><style>.cls-1{fill:#d6d6d6}.cls-1,.cls-2,.cls-3,.cls-4{stroke-linecap:round;stroke-linejoin:round;stroke:#000}.cls-2{fill:#b2f0e9}.cls-3{fill:#fff}.cls-4{fill:none}</style></defs><path d="M49.77 34.14s.2-9.91-11.73-10.55c-11.93-.64-26.55 11.13-21.07 44.26" style="stroke-width:3px;fill:none;stroke:#000;stroke-linecap:round;stroke-linejoin:round"/><rect width="5.13" height="8.41" x="47.58" y="32.73" class="cls-1" rx="2.56" ry="2.56" transform="rotate(-5.87 50.22 36.993)"/><path d="m65.82 32.84-2.97 4.21-11.76 3.48 2.87 9.7 11.76-3.48 4.84 1.72c.91.33 1.81-.53 1.53-1.46l-4.17-13.84c-.28-.95-1.53-1.15-2.1-.34Z" class="cls-1"/><rect width="12.22" height="14.01" x="45.51" y="38.5" class="cls-2" rx="6.11" ry="6.11" transform="rotate(-5.87 51.642 45.475)"/><path d="M59.96 79.96 58 92.78a3.777 3.777 0 0 1-4.31 3.17l-18.38-2.81c-2.06-.32-3.49-2.24-3.17-4.31l1.96-12.82 25.86 3.96Z" class="cls-3"/><path d="m61.95 66.96-1.99 13L34.1 76l1.99-13.01c.15-.96.7-1.81 1.52-2.33l5.25-3.38 14.79 2.26 3.66 4.87c.55.73.77 1.65.64 2.54Z" class="cls-2"/><rect width="18.39" height="9.25" x="41.53" y="49.18" class="cls-1" rx="3.91" ry="3.91" transform="rotate(8.7 50.7 53.792)"/><path d="m42.77 50.17 16.72 2.56M41.61 52.58l18.18 2.78M41.99 55.23l16.73 2.56" class="cls-4"/><rect width="6.28" height="6.28" x="13.28" y="58.9" class="cls-1" rx="2.75" ry="2.75" transform="rotate(-4.63 16.443 62.111)"/><circle cx="17.08" cy="70.08" r="7.37" class="cls-2" transform="rotate(-63.51 17.082 70.08)"/><path d="m41.5 63.08-3.85 25.19M39.99 62.85l4.71.72M39.44 66.45l3.02.46M36.69 84.44l3.02.46M37.01 80.81l3.03.46M38.89 70.05l3.02.46M38.34 73.64l3.02.47M36.14 88.03l4.71.73" class="cls-2"/><path d="M80.24 49.63c.25 6.77 2.29 20.29 14.45 20.35 13.53.06 18.26-5.62 18.26-5.62M83.29 43.57c13.63-10.6 32.47-28.99 32.47-28.99" class="cls-4"/><path d="M80.24 49.63c-.01-.25-.02-.48-.02-.71-.02-1.09 0-1.96.02-2.48.01-.37.19-.7.49-.92.64-.47 1.3-.96 1.97-1.48.2-.15.4-.31.6-.47 0 0 .18 4.85-3.05 6.06Z" style="fill:#fab0b4;stroke:#000;stroke-linecap:round;stroke-linejoin:round"/><path d="M94.69 69.98s.38 17.36 4.09 24.26c3.7 6.89 2.68 25.15 2.68 25.15M85.83 41.56s1.62 8.69-5.39 10.91" class="cls-4"/><path d="M77.38 55.78s-3.98 6.04 0 6c2.58-.03 0-6 0-6ZM80.21 65.6s-2.58 5.92 0 6c3.08.11 0-6 0-6Z" class="cls-3"/><path d="M-3645.1-3880.11h6467.34v6437.3H-3645.1z" style="stroke:#fff;stroke-width:8px;fill:none;stroke-linecap:round;stroke-linejoin:round"/></svg>