<svg xmlns="http://www.w3.org/2000/svg" id="Calque_1" data-name="Calque 1" viewBox="0 0 128 128"><defs><style>.cls-2{stroke:#000;stroke-width:2px;fill:none;stroke-linecap:round;stroke-linejoin:round}</style></defs><path d="M66.16 28.33a4.615 4.615 0 0 0-3.8-.4 4.729 4.729 0 0 0-2.69 2.34 4.632 4.632 0 0 0-.25 3.55l2.12 6.34c-.81-2.43-3.46-3.75-5.89-2.94a4.61 4.61 0 0 0-2.68 2.34 4.675 4.675 0 0 0-.26 3.55l6.22 18.6c-.65.49-1.33.95-2.03 1.38-1.34-.75-3.32-1.23-5.42.45-1.05.85-1.66 1.74-1.99 2.59-1.95.48-3.99.73-6.09.73-14.36 0-25.99-11.64-25.99-25.99S29.04 14.88 43.4 14.88c9.8 0 18.34 5.43 22.76 13.45Z" style="fill:#87ccf3"/><path d="m105.24 110.12-26.05 8.71-5.12-15.29s-4.91-.91-9.46-4.84c-4.56-3.93-8.66-14.15-8.66-14.15L49.6 70.14s-.95-1.85-.11-4.01c.33-.85.94-1.74 1.99-2.59 2.1-1.68 4.08-1.2 5.42-.45 1.05.58 1.7 1.33 1.7 1.33l2.54 3.88-2.21-6.59-6.22-18.6c-.4-1.21-.27-2.49.26-3.55a4.61 4.61 0 0 1 2.68-2.34c2.43-.81 5.08.51 5.89 2.94l-2.12-6.34c-.41-1.21-.28-2.48.25-3.55a4.729 4.729 0 0 1 2.69-2.34c1.31-.44 2.68-.25 3.8.4.95.54 1.72 1.43 2.09 2.54l2.12 6.33c-.41-1.21-.28-2.48.25-3.55a4.644 4.644 0 0 1 2.68-2.34c2.43-.81 5.08.51 5.89 2.94l3.74 11.17c-.41-1.21-.28-2.48.25-3.55a4.633 4.633 0 0 1 2.69-2.34c2.42-.81 5.07.51 5.88 2.94l10.55 31.52s2.37 5.85.99 10.91c-1.37 5.07-3.63 8.55-3.63 8.55l5.58 16.67Z" class="cls-2"/><path d="m61.14 68.3 3.74 9.64 1.76 4.53M82.93 45.42l5.61 16.77M70.37 37.21l9.34 27.93M70.89 68.09l-9.35-27.93" class="cls-2"/><path d="M-2953.15-998.34h6467.34v6437.3h-6467.34z" style="stroke:#fff;stroke-width:8px;fill:none;stroke-linecap:round;stroke-linejoin:round"/></svg>