<svg xmlns="http://www.w3.org/2000/svg" id="Calque_1" data-name="Calque 1" viewBox="0 0 128 128"><defs><style>.cls-2{stroke:#000;stroke-width:2px;fill:none;stroke-linecap:round;stroke-linejoin:round}</style></defs><path d="M56.08 47.52c-7.81 12.58 6.9 18.44.56 22.21a26.051 26.051 0 0 1-17.77 3.28c-14.22-2.45-23.76-15.97-21.31-30.19 2.45-14.22 15.97-23.76 30.19-21.31 7.76 1.34 14.13 5.98 17.92 12.23 3.14 5.2-4.75 6-9.58 13.78Z" style="fill:#fab0b4"/><path d="m114.38 96.25-17.14 12.36-7.26-10.06s-3.82.46-8.06-1.39c-4.25-1.84-9.6-8.41-9.6-8.41l-7.97-9.13s-1.12-1.14-1-2.92c.05-.7.29-1.49.87-2.36 1.16-1.72 2.72-1.82 3.88-1.57.9.19 1.55.59 1.55.59l2.75 2.27-3.13-4.34-8.83-12.24c-.57-.8-.77-1.77-.62-2.67.14-.91.64-1.76 1.43-2.33 1.6-1.15 3.85-.79 5 .81l-3.01-4.17a3.59 3.59 0 0 1-.63-2.67c.15-.9.65-1.76 1.44-2.34.86-.62 1.91-.8 2.88-.58.82.18 1.59.66 2.12 1.39l3.01 4.17a3.59 3.59 0 0 1-.63-2.67c.14-.91.64-1.75 1.43-2.33 1.6-1.15 3.85-.79 5 .81l5.31 7.35a3.59 3.59 0 0 1-.63-2.67c.14-.91.64-1.75 1.44-2.34a3.581 3.581 0 0 1 4.99.81l14.97 20.74s3.08 3.76 3.23 7.79c.15 4.04-.71 7.11-.71 7.11l7.92 10.97Z" class="cls-2"/><path d="m72.4 75.63 4.96 6.22 2.33 2.93M83.17 53.82l7.96 11.04M72.06 50.67l13.26 18.38M79.52 73.24 66.25 54.86" class="cls-2"/><path d="M-2473.39-749.68h6467.34v6437.3h-6467.34z" style="stroke:#fff;stroke-width:8px;fill:none;stroke-linecap:round;stroke-linejoin:round"/></svg>