<svg xmlns="http://www.w3.org/2000/svg" id="Calque_1" data-name="Calque 1" viewBox="0 0 128 128"><defs><style>.cls-1{stroke-linecap:round;stroke-linejoin:round}.cls-1,.cls-5,.cls-6{stroke:#000}.cls-1,.cls-7{fill:none}.cls-6,.cls-8{fill:#fab0b4}.cls-7{stroke-width:2px}.cls-5,.cls-6,.cls-7{stroke-miterlimit:10}.cls-5{fill:#fff}.cls-7{stroke:#ff6d75}</style></defs><ellipse cx="69.71" cy="82.66" rx="13.28" ry="7.63" style="fill:#ff6d75"/><circle cx="82.64" cy="56.73" r="1.45"/><path d="M81.91 50.55s.17 3.76-3.73 4.12" class="cls-1"/><path d="M82.65 69.96zM88.51 68.42l-.05.02v-.03c.02 0 .03.02.05.02Z" class="cls-8"/><path d="M83.65 35.09s-5.53 12.62-17.42 13.56" class="cls-1"/><path d="M90.73 59.91s6.74 14.55-4.86 17.78c-4.24 1.17-5.87 2.55-5.82 4.06 0 .05.01.12.01.18.01.08.04.18.05.26.6 2.56 5.49 5.53 10.61 8.81h.03c.05.04.25.16.53.42.12.1.23.2.37.33 1.21 1.23 3.51 4.21 6.27 11.14a51.016 51.016 0 0 1-31.7 10.98c-9.56 0-18.51-2.62-26.17-7.18.89-3.46 1.7-5.69 1.7-5.69 5.88-14 16.84-12.27 18.43-16.46 1.59-4.17-.8-5.15-.8-5.15-18.49-3.65-24.62-15.3-22.98-26.89C38.03 40.92 48.67 22.78 71 28.24c22.34 5.45 15.76 23.99 15.76 23.99" style="stroke-width:2px;fill:none;stroke:#000;stroke-linecap:round;stroke-linejoin:round"/><path d="M117.46 62.62c0 16.33-7.64 30.88-19.53 40.27-2.75-6.93-5.05-9.92-6.27-11.14-.14-.12-.25-.23-.37-.33-.29-.26-.48-.38-.53-.42h-.03c-5.12-3.28-10.01-6.25-10.61-8.81-.01-.08-.04-.18-.05-.26 0-.05-.01-.12-.01-.18-.05-1.51 1.58-2.89 5.82-4.06 11.61-3.23 4.86-17.78 4.86-17.78 1.08-.4 5.53-5.6-.57-4.55-2.73.47-3.39-3.13-3.39-3.13s6.58-18.54-15.76-23.99c-22.33-5.46-32.97 12.68-34.6 24.26-1.63 11.59 4.5 23.24 22.98 26.89 0 0 2.4.98.8 5.15-1.59 4.18-12.55 2.45-18.43 16.46 0 0-.82 2.23-1.7 5.69-15.01-8.92-25.08-25.32-25.08-44.07 0-28.29 22.94-51.23 51.25-51.23s51.23 22.94 51.23 51.23Z" style="stroke-width:2px;fill:#d6d6d6;stroke:#000;stroke-linecap:round;stroke-linejoin:round"/><path d="m42.16 80.77 3.65 1.48.86-2.47 2.95 1.94M48.96 85.08l-2 .93.68 1.29-3.58.88M96.41 85.87l-3.65-1.48-.86 2.47-2.95-1.94M89.62 81.56l1.99-.93-.68-1.29 3.59-.88" class="cls-7"/><path d="M92.81 68.9c-.1 2.42-.94 3.96-.94 3.96l-2.74-.32c-1.56-.12-2.88-.9-3.61-1.98.23-.18 2.95-2.22 7.29-1.66Z" style="stroke-miterlimit:10;fill:#ff6d75;stroke:#000"/><path d="M92.81 68.9c-4.34-.56-7.06 1.48-7.29 1.65a3.28 3.28 0 0 1-.6-2.15c.16-2.09 2.31-3.63 4.79-3.43l2.62.09c.42 1.42.53 2.72.48 3.84ZM96.42 66.69l8.78-4.13M95.4 69.65l7.55 5.17M99.32 68.43l10.71-.03" class="cls-6"/><path d="M95.52 62.13s1.84-6.51 3.79-3.96c1.96 2.56-3.79 3.96-3.79 3.96ZM97.12 74.82s6.48 2.2 3.7 4.04c-2.78 1.84-3.7-4.04-3.7-4.04Z" class="cls-5"/><path d="M57.17 59.16s-6.58.24-4.59 6.19c2 5.95 6.33 2.51 6.33 2.51M55.97 63.86l1.36-.21" class="cls-1"/></svg>