<svg xmlns="http://www.w3.org/2000/svg" id="Calque_1" viewBox="0 0 200 128"><defs><style>.cls-1,.cls-10,.cls-2,.cls-3,.cls-4,.cls-5,.cls-9{stroke:#000;stroke-linecap:round;stroke-linejoin:round}.cls-1,.cls-5{fill:#d6d6d6}.cls-2{fill:#87ccf3}.cls-3,.cls-9{fill:#fff}.cls-10,.cls-4{fill:none}.cls-10,.cls-5,.cls-9{stroke-width:2px}</style></defs><path d="M198.47 86.08H11.77M6.4 88.69h192.07M3.96 95.05h192.06M3.96 97.78h192.06" class="cls-10"/><path d="m13.48 95.05 5.1-8.97h3.8l-5.13 8.97h-3.77zM30.15 95.05l5.09-8.97h3.81l-5.14 8.97h-3.76zM46.82 95.05l5.09-8.97h3.8l-5.13 8.97h-3.76zM63.48 95.05l5.1-8.97h3.8l-5.13 8.97h-3.77zM80.15 95.05l5.09-8.97h3.81l-5.14 8.97h-3.76zM96.82 95.05l5.09-8.97h3.8l-5.13 8.97h-3.76zM113.48 95.05l5.1-8.97h3.8l-5.13 8.97h-3.77zM130.15 95.05l5.09-8.97h3.81l-5.14 8.97h-3.76zM146.81 95.05l5.1-8.97h3.8l-5.13 8.97h-3.77zM163.48 95.05l5.09-8.97h3.81l-5.14 8.97h-3.76zM181.16 95.05l5.09-8.97h3.81l-5.14 8.97h-3.76z" class="cls-9"/><path d="M67.14 53.32h89.09v27.75H67.14zM133.07 49.61h16.87v3.71h-16.87z" class="cls-5"/><path d="M94.58 51.47h33.49v1.85H94.58z" style="stroke-width:2px;stroke:#000;stroke-linecap:round;stroke-linejoin:round" transform="rotate(180 111.33 52.39)"/><path d="M102.43 53.32h-7.84v-3.71h7.84zM87.02 49.61h3.78v3.71h-3.78z" class="cls-5"/><path d="M88.06 43.66h1.71v5.95h-1.71z" style="stroke-width:2px;fill:#bfe6fc;stroke:#000;stroke-linecap:round;stroke-linejoin:round"/><path d="M48.63 91.05h119.61v-9.99H33.56v9.99h8.39" class="cls-5"/><path d="M39.44 49.61h27.48v31.45H39.44z" style="stroke-width:2px;fill:#87ccf3;stroke:#000;stroke-linecap:round;stroke-linejoin:round" transform="rotate(180 53.18 65.34)"/><path d="M61.38 65.34h-6.9V54.95h6.9zM52.08 65.34h-3.45V54.95h3.45zM46.12 65.34h-3.45V54.95h3.45z" class="cls-3"/><path d="M68.36 49.62H38.01V43.4h30.35z" class="cls-5"/><path d="M67.14 68.72h97.57v12.34H67.14z" class="cls-2"/><path d="M67.14 68.72h7.97v12.34h-7.97zM90.79 81.07H75.11V68.73h15.68zM106.47 81.07H90.79V68.73h15.68z" class="cls-2"/><path d="M122.12 81.07h-15.68V68.73h15.68z" class="cls-2"/><path d="M33.56 84.24h134.69" class="cls-4"/><path d="M169.1 83.53h2.19v3.63h-2.19zM174.43 88.11h-3.14v-5.53h3.14z" class="cls-1"/><path d="M11.77 53.24h11.34v27.75H11.77zM11.77 49.53h5.28v3.71h-5.28z" class="cls-5"/><path d="M11.77 80.99h17.87v9.98H11.77z" class="cls-5"/><path d="M11.77 68.64H26.1v12.35H11.77z" class="cls-2"/><path d="M11.77 68.64h3.1v12.35h-3.1z" class="cls-2"/><path d="M29.63 84.16H11.77" class="cls-4"/><path d="M30.49 83.45h2.19v3.63h-2.19z" class="cls-1"/><path d="M48.64 91.21c0 1.85-1.5 3.35-3.35 3.35s-3.34-1.5-3.34-3.35v-.16h6.68v.16Z" class="cls-5"/><path d="M14.49 91.21c0 1.64-1.17 3-2.72 3.29v-3.45h2.71v.16Z" style="fill:#baa584;stroke-width:2px;stroke:#000;stroke-linecap:round;stroke-linejoin:round"/><path d="M75.86 91.21c0 1.85-1.5 3.35-3.35 3.35s-3.34-1.5-3.34-3.35v-.16h6.68v.16ZM103.09 91.21c0 1.85-1.5 3.35-3.35 3.35s-3.34-1.5-3.34-3.35v-.16h6.68v.16ZM130.31 91.21c0 1.85-1.5 3.35-3.35 3.35s-3.34-1.5-3.34-3.35v-.16h6.68v.16ZM157.54 91.21c0 1.85-1.5 3.35-3.35 3.35s-3.34-1.5-3.34-3.35v-.16h6.68v.16Z" class="cls-5"/><path d="M137.8 81.07h-15.68V68.73h15.68zM153.48 81.07H137.8V68.73h15.68z" class="cls-2"/><path d="M55.6 62.53v-6.11h4.35v1.52s-1.84-.24-2.74 1.54c-.9 1.78-.63 3.06-.63 3.06h-.99Z" style="fill:#bfe6fc"/><path d="M68.02 57.3h87.3v4.62h-87.3z" style="fill:#fff"/><path d="M135.55 59.2v9.52M137.76 59.2v9.52M139.98 59.2v9.52M142.19 59.2v9.52M144.4 59.2v9.52M146.62 59.2v9.52" class="cls-4"/></svg>