<svg xmlns="http://www.w3.org/2000/svg" id="Calque_1" viewBox="0 0 128 128"><defs><style>.cls-1{fill:#f3d587}.cls-1,.cls-3,.cls-4{stroke:#000;stroke-linecap:round;stroke-linejoin:round}.cls-3{fill:none}.cls-4{fill:#d6d6d6;stroke-width:2px}</style></defs><path d="M23.15 109.1h78.22v7.1H23.15zM32.21 101.99h60.11v7.1H32.21zM27.28 60.56h69.96v7.1H27.28zM35.37 67.66h12.06v34.33H35.37zM56.23 67.66h12.06v34.33H56.23zM77.1 67.66h12.06v34.33H77.1zM21.71 60.56h81.11L60.16 36.8 21.71 60.56z" class="cls-4"/><circle cx="62.26" cy="56.18" r="7.5" class="cls-4"/><circle cx="89.6" cy="31.24" r="23.95" style="fill:#fff;stroke-width:2px;stroke:#000;stroke-linecap:round;stroke-linejoin:round"/><path d="M89.24 21.26h1.07c1.04 0 1.89.85 1.89 1.89v14.77h-4.85V23.15c0-1.04.85-1.89 1.89-1.89Z" style="fill:#e9cb61;stroke:#000;stroke-linecap:round;stroke-linejoin:round"/><path d="M89.78 21.26v-2.42M74.16 23.82h31.52" class="cls-3"/><path d="M81.92 33.69c0 2.72-2.21 4.93-4.93 4.93s-4.93-2.21-4.93-4.93h9.86Z" class="cls-1"/><path d="m72.06 33.69 5.12-9.87 4.74 9.87" class="cls-3"/><path d="M107.14 33.69c0 2.72-2.21 4.93-4.93 4.93s-4.93-2.21-4.93-4.93h9.86Z" class="cls-1"/><path d="m97.28 33.69 5.12-9.87 4.74 9.87" class="cls-3"/><path d="M85.82 37.92h7.96v3.34h-7.96zM79.67 41.46h19v3.34h-19z" class="cls-1"/><path d="M88.05 17.69h3.5v1.15h-3.5z"/></svg>