<svg xmlns="http://www.w3.org/2000/svg" id="Calque_1" viewBox="0 0 200 128"><defs><style>.cls-2,.cls-3{stroke:#000;stroke-miterlimit:10;stroke-width:2px}.cls-2{fill:#ff6d75}.cls-3{fill:#d6d6d6}</style></defs><path d="M110.31 101.92c1.2 0 2.21-.88 2.4-2.07 1.25-7.74 5.87-14.64 12.76-18.76l4.84-2.89 1.3 4.91-4.06 2.44a18.679 18.679 0 0 0-9.04 16v3.76c0 1.48-1.2 2.68-2.68 2.68h-49.8v-6.09h44.28Z" class="cls-2"/><path d="M115.67 7.98c.92-.21 2.51 3.35 3.54 7.94l5.3 23.51c1.04 4.59 1.13 8.49.21 8.69-.92.21-2.51-3.35-3.54-7.94l-5.3-23.51c-1.04-4.59-1.13-8.49-.21-8.69ZM125.9 106.59c0 7.96 6.45 14.42 14.42 14.42 7.96 0 14.42-6.45 14.42-14.42 0-7.96-6.45-14.42-14.42-14.42-7.96 0-14.42 6.45-14.42 14.42Zm5.96 0c0-4.67 3.79-8.46 8.46-8.46 4.67 0 8.46 3.79 8.46 8.46s-3.79 8.46-8.46 8.46c-4.67 0-8.46-3.79-8.46-8.46Z" class="cls-3"/><path d="m141.175 96.166-7.195 1.773L121.11 45.7l7.196-1.773z" class="cls-2"/><path d="m129.502 46.116-8.428 2.077-.818-3.321 8.428-2.077z" class="cls-2"/><path d="m127.719 43.305-6.38 1.572-.583-2.37 6.38-1.57z" class="cls-3"/><rect width="16.24" height="6.35" x="102.61" y="8.94" class="cls-2" rx="3.04" ry="3.04" transform="rotate(157.4 110.728 12.116)"/><circle cx="104.27" cy="15.16" r="3.79" class="cls-2"/><path d="M125.48 110.6c-.28-1.15-.45-2.34-.45-3.58 0-8.2 6.65-14.85 14.85-14.85 6.26 0 11.6 3.87 13.79 9.35l-28.19 9.08Z" class="cls-2"/><path d="m135.95 51.7 1.89 6.77c-2.94.44-5.46-.34-5.92-2-.46-1.65 1.28-3.63 4.03-4.77Z" style="stroke:#000;stroke-miterlimit:10;stroke-width:2px;fill:#f3d587"/><path d="m120.92 45.15.85-.53-2.3-3.69a9.15 9.15 0 0 1 2.08-12.01c3.36-2.67 4.98-6.79 4.34-11.03-.65-4.24-3.43-7.69-7.43-9.24l-.36.93c3.67 1.41 6.21 4.57 6.8 8.45.59 3.88-.89 7.66-3.97 10.1a10.142 10.142 0 0 0-2.31 13.32l2.3 3.69Z"/><path d="M38.86 106.59c0 7.96 6.45 14.42 14.42 14.42 7.96 0 14.42-6.45 14.42-14.42 0-7.96-6.45-14.42-14.42-14.42-7.96 0-14.42 6.45-14.42 14.42Zm5.96 0c0-4.67 3.79-8.46 8.46-8.46 4.67 0 8.46 3.79 8.46 8.46s-3.79 8.46-8.46 8.46c-4.67 0-8.46-3.79-8.46-8.46Z" class="cls-3"/><path d="M68.15 110.11c.28-1.15.45-2.34.45-3.58 0-8.2-6.65-14.85-14.85-14.85-6.26 0-11.6 3.87-13.79 9.35l28.19 9.08Z" class="cls-2"/></svg>