<svg xmlns="http://www.w3.org/2000/svg" id="Calque_1" data-name="Calque 1" viewBox="0 0 200 128"><defs><clipPath id="clippath"><path d="M9.37 17.32h62.98V52.9H9.37z" style="fill:none"/></clipPath><style>.cls-2,.cls-3{stroke:#000;stroke-linecap:round;stroke-linejoin:round}.cls-2,.cls-4{fill:#d6d6d6}.cls-3{fill:#fff}.cls-9{fill:#8987f3}</style></defs><path d="M8.51 16.88h64.7v36.46H8.51z" style="fill:#bfe6fc"/><path d="M73.22 54.22H8.51c-.49 0-.88-.39-.88-.88V16.88c0-.49.39-.88.88-.88h64.7c.49 0 .88.39.88.88v36.46c0 .49-.39.88-.88.88ZM9.4 52.46h62.94v-34.7H9.39v34.7Z"/><path d="M7.63 52.73h66.46v4.21H7.63z"/><circle cx="68" cy="55.09" r=".83" style="fill:#ff6d75"/><circle cx="70.43" cy="55.09" r=".83" class="cls-4"/><g style="clip-path:url(#clippath)"><path d="M9.37 17.32h62.98V52.9H9.37z" style="fill:#b2f0e9"/><path d="M-24.51 69.06H119.1c.09 0 .17.07.17.17v.05c0 .09-.07.17-.17.17H-24.51c-.09 0-.17-.07-.17-.17v-.05c0-.09.07-.17.17-.17Z" class="cls-9"/><path d="M48.9 45.76H9.19V25.9c3.03-.96 6.26-1.47 9.6-1.47 3.67 0 7.2.62 10.48 1.76 5.27 1.83 9.92 5.01 13.52 9.12 2.65 3.03 4.74 6.56 6.11 10.44Z" style="fill:#87ccf3"/><path d="M25.2 44.75s.97-.51 1.27-.43c.3.08 1.51.56 1.66.78.24.34.66.89.39.92s-2.65-.08-2.92-.12c-.27-.05-.88-.37-.4-1.15Z" class="cls-9"/><path d="M44.71 45.11c-.15-.22-1.36-.7-1.66-.78-.1-.03-.28.01-.47.08-.65-.35-5.54-1.12-5.95-1.32-.41-.2-3.05-6.56-3.58-6.97v-.02s-.99-.71-3.1-.87l.06-.66c.1 0 .15-.01.15-.01.76-.13.87-2.97.72-3.97.03-.02.06-.03.06-.06.69-.18.64-1.52.64-1.59 0 0-.88-.15-1.88-.7-.81-.45-1.92-.14-2.28.01.01-.06.04-.13.1-.2 0 0-.17.1-.2.25-.02.01-.03.02-.02.02 0 0-.17-.05-.29 0 0 0 .08 0 .1.05 0 0 0 .01.01.02-1.38.52-1.69 2.59-1.31 3.11.46.63.95 1.99.95 1.99s.04-.06.09-.15c.01.04.03.08.05.11v.5c-.05.5-.22.91-.38 1.5-.75.13-1.57.32-2.47.6-.03 0-.06.02-.08.02h-.02c-.61.19-1.35.5-1.87 1-.97.92-3.95 5.57-4.81 7.26-.14.27.12.91.35 1.1.59.48 1.85.9 5.09.67l1.66-.08c.5 1.12 1.29 1.88 2.51 1.89h.35c4.57 0 5.83-1.11 5.83-1.11v-3.6.02c1 1.34 2.01 2.46 2.27 2.56.48.19 5.36.35 6.64.07.07.03.14.06.19.07.27.05 2.64.15 2.92.12.27-.03-.15-.58-.39-.92Zm-23.99-1.27s1.8-1.54 2.85-2.56c.01.98.09 1.98.26 2.9l-3.11-.34ZM52.15 42.58l-3.77-.51 3.3 5.35 3.58.48-3.11-5.32zM58.03 41.92c-.98 1.23-2.31 2.38-3.08 2.72-.11.05-.24.09-.4.12-.26-.19-.44-.46-.57-.73 1.01.22 2.88-1.42 3.21-1.74.34-.33.81-.36.83-.37Z" class="cls-9"/><path d="M64.91 43.71c-.07-.11-.14-.22-.19-.34-.13-.3-.2-.63-.19-.96v-.22c.04-1 .18-1.9.27-2.58.09-.27.16-.52.2-.73.02-.1.04-.2.04-.29.21-1.66-.58-2-.58-2-.02 0-.03-.02-.05-.02h-.01c-.12-.06-.25-.11-.39-.15-.6-.16-1.31-.16-1.31-.16-.17-.01-.35-.02-.5-.02-.25-.17-.62-.86-.78-1.94 0-.03.19-.6.54-.46.36.14.85-.33 1.02-1.08v-.01c.08-.19 1.09-2.6-.22-3.5-.89-.61-1.42-.17-1.61.07-.88-.53-1.9.4-2.46 1.06-.18-.12-.49-.19-.82.33-.51.78.16 1.99.16 1.99h.03c.14.93.6 2.48 1.1 2.46 0 0 .15-.02.37-.06.03.19.06.41.09.63.05.43.07.85 0 .95-.14.04-.23.06-.23.06-1.07.26-1.43.6-1.43.6-.14.12-.31.3-.47.54 0 0-.01 0-.01.02-.04.05-.07.1-.11.16-.01.01-.02.03-.03.04-.08.12-.16.25-.24.39-.91 1.44-1.97 3.66-2.68 4.27-.11.1-.36.21-.68.34-.32.13-.71.26-1.11.39l-.5-.86-3.76-.5 1.17 1.9c-.16 0-.29.01-.35.06-.19.15-.22 1.02.07 1.35.17.2.63-.08.95-.32l1.46 2.36 3.58.48-.64-1.1c.55-.12 1.1-.19 1.38-.22s.02 0 .04 0c.09 0 .16-.01.16-.01.33-.02.72-.05 1.15-.09.07 0 .14-.01.21-.02.29-.03.59-.07.88-.11.05.58.08.97.08.97-.11.37.93.57 2.28.63h.14c.17 0 .33.01.5.02h.7c.12 0 .24 0 .36-.01.13 0 .25 0 .37-.01h.05c1.67-.08 3.19-.34 3.25-.73.4-.93-.62-2.63-1.21-3.5Zm-11.14 1.72c.16.04.32.07.32.07-.08.02-.16.03-.26.03l-.06-.1Zm3.07-.22c-.34.14-.67.27-.94.37-.11 0-.46.04-.83.04.03 0-.45-.37-.66-.39-.34-.05-.65-.1-.83-.12l-.13-.23c.41-.01.8-.05 1.11-.11a2.007 2.007 0 0 0 .72-.29c.04-.02.08-.05.12-.08.08-.05.16-.1.25-.17.05-.03.1-.07.15-.11.08-.06.16-.12.25-.19l.18-.15c.08-.07.16-.13.24-.2.06-.06.13-.12.19-.18.08-.07.15-.14.23-.22l.2-.2c.07-.07.15-.15.22-.23.07-.07.14-.15.2-.22.07-.08.14-.15.2-.23.07-.08.13-.16.2-.24a.12.12 0 0 1 .05-.05c.05.38.1.78.15 1.19.05.47.1.94.14 1.4-.21.09-.42.19-.64.28-.23.1-.46.19-.68.28-.03.01-.05.02-.08.03Z" class="cls-9"/></g><path d="M9.37 45.76h62.98v7.14H9.37z" class="cls-4"/><path d="M126.55 77.9h28.58v40.6h-28.58zM61.92 77.9H90.5v40.6H61.92zM90.5 77.9h36.05v40.6H90.5z" class="cls-2"/><path d="M90.5 77.9h36.05v4.55H90.5zM90.5 82.81h36.05v2.91H90.5zM90.5 86.09h36.05v29.49H90.5z" class="cls-2"/><path d="M95.05 91.92H122v20.94H95.05z" class="cls-3"/><path d="M90.5 118.5h36.05v4.73H90.5zM90.5 35.11h36.05v4.73H90.5z" class="cls-2"/><path d="M94.5 89.82h28.05c.49 0 .89-.45.89-1h0c0-.55-.4-1-.89-1H94.5c-.49 0-.89.45-.89 1h0c0 .55.4 1 .89 1Z" class="cls-3"/><circle cx="100.6" cy="80.17" r=".79" class="cls-3"/><path d="M111.51 80.96h-3.94v-1.57h3.94z" class="cls-3"/><path d="M155.14 123.23h-28.58v-4.73h28.58zM62.46 118.5h27.49v4.73H62.46zM62.46 88.37h27.5M62.46 98.02h27.5M62.46 107.66h27.5M34.43 77.9h27.49v40.6H34.43zM61.92 123.23H34.43v-4.73h27.49zM6.57 77.9h27.49v40.6H6.57zM6.57 118.5h27.49v4.73H6.57zM120 29.83H97.06l-6.56 5.28H126.55L120 29.83zM35.15 75.17h-1.82v-.19l1.82.01v.18zM126.56 77.89H90.51v-1.82h36.05zM115.63 12.9H97.06v16.93H120V12.9h-4.37zM189.67 30.2H156.6c-.81.03-1.46.7-1.46 1.51v49.83h36.05V31.71c0-.84-.68-1.52-1.52-1.52ZM156.59 81.54h-1.45v39.87H191.19V81.54h-34.6z" class="cls-2"/><path d="M159.87 80.08h-1.82V52.41h1.82zM159.87 98.66h-1.82V83h1.82z" class="cls-3"/><path d="M158.5 123.23h0c-.9 0-1.64-.73-1.64-1.64v-.18h3.28v.18c0 .9-.73 1.64-1.64 1.64ZM187.82 123.23h0c-.9 0-1.64-.73-1.64-1.64v-.18h3.28v.18c0 .9-.73 1.64-1.64 1.64Z" class="cls-2"/><path d="M33.65 75.11c-.27 0-.5-.23-.5-.5v-.1c.01-1.54.04-5.28 0-6.67v-.42s0-.09.02-.13c.04-1.54.44-2.71 1.19-3.48.64-.66 1.48-.99 2.5-.99 1.73 0 3.58 1.41 3.58 5.38 0 .28-.22.5-.5.5h-1.28c-.28 0-.5-.22-.5-.5 0-1.85-.52-3.09-1.3-3.09-.51 0-.74.17-.86.3-.2.21-.54.74-.56 2.03v7.18c0 .13-.05.26-.15.35a.51.51 0 0 1-.35.15l-1.29-.01Z" class="cls-4"/><path d="M36.86 63.32c1.49 0 3.08 1.28 3.08 4.88h-1.28c0-2.22-.69-3.59-1.8-3.59-.52 0-.92.15-1.22.46-.32.33-.68 1-.71 2.37V74.63h-1.28c0-.06.04-5.12 0-6.79v-.4h.01c.02-1.45.37-2.56 1.05-3.26.54-.56 1.27-.84 2.14-.84m0-1c-1.14 0-2.13.4-2.86 1.15-.83.85-1.28 2.12-1.33 3.77-.01.06-.02.13-.02.19V67.92c.04 1.6 0 6.65 0 6.7 0 .27.1.52.29.71.19.19.44.3.7.3h1.28v.01c.26 0 .52-.1.7-.29a1 1 0 0 0 .3-.71V67.47c.02-1.18.33-1.59.42-1.69.04-.05.15-.15.5-.15.33 0 .8.9.8 2.59 0 .55.45 1 1 1h1.28c.55 0 1-.45 1-1 0-4.34-2.2-5.88-4.08-5.88Z"/><rect width="2.54" height="1.64" x="38.03" y="67.57" class="cls-4" rx=".5" ry=".5"/><path d="M40.07 68.07v.64h-1.54v-.64h1.54m0-1h-1.54c-.55 0-1 .45-1 1v.64c0 .55.45 1 1 1h1.54c.55 0 1-.45 1-1v-.64c0-.55-.45-1-1-1Z"/><path d="M52.09 76.08H16.4v-1.46h35.69zM104.33 76.08h-8.17v-.34h8.17zM94.31 67.99v5.35c0 1.32.95 2.39 2.12 2.39h7.63c1.17 0 2.12-1.07 2.12-2.39v-5.35H94.31ZM99.81 66.19h.19c-.71.01-1.38.08-2.02.2.57-.13 1.18-.2 1.82-.2Z" class="cls-2"/><path d="M106.09 67.99H94.4c.74-.73 2.02-1.31 3.59-1.6a12.8 12.8 0 0 1 2.02-.2h.23c2.56 0 4.77.73 5.85 1.8Z" class="cls-2"/><path d="M101.28 66.23H99.1v-.75h2.18z" class="cls-2"/><path d="M98.82 65.55h2.73c.09 0 .17-.08.17-.17s-.08-.17-.17-.17h-2.73c-.09 0-.17.08-.17.17 0 .09.08.17.17.17Z" class="cls-2"/><circle cx="103.64" cy="80.17" r=".79" class="cls-3"/><path d="M80.4 82.65v.98H72.03v-.98c0-.16.13-.3.3-.3h7.78c.16 0 .3.13.3.3ZM80.4 93.03v.98H72.03v-.98c0-.16.13-.3.3-.3h7.78c.16 0 .3.13.3.3ZM80.4 102.68v.98H72.03v-.98c0-.16.13-.3.3-.3h7.78c.16 0 .3.13.3.3ZM80.4 113.06v.98H72.03v-.98c0-.16.13-.3.3-.3h7.78c.16 0 .3.13.3.3ZM39.15 82.01c.16 0 .3.13.3.3v7.78a.3.3 0 0 1-.3.3h-.98V82.02h.98ZM29.34 82.01h.98V90.38h-.98a.3.3 0 0 1-.3-.3V82.3c0-.16.13-.3.3-.3ZM6.26 76.08h148.88v1.82H6.26c-.43 0-.78-.35-.78-.77v-.27c0-.43.35-.77.78-.77Z" class="cls-3"/></svg>