<svg xmlns="http://www.w3.org/2000/svg" id="Calque_1" data-name="Calque 1" viewBox="0 0 200 128"><defs><style>.cls-4,.cls-5{stroke-linecap:round}.cls-4,.cls-5,.cls-8{stroke-linejoin:round;stroke:#000}.cls-4{fill:#fff}.cls-5{fill:none}.cls-8{fill:#baa584}</style></defs><path d="M16.4 85.73h74.72v5.77H16.4z" style="fill:#f3d587;stroke:#000;stroke-linejoin:round;stroke-linecap:round"/><path d="M16.46 62.25h74.66v28.81H16.46z" class="cls-5"/><path d="M16.46 62.25h74.66v3.95H16.46z" class="cls-4"/><path d="M94.96 107.67h-3.84V59.81h3.84z" class="cls-4"/><path d="M16.46 91.06h74.66v9.27H16.46z" class="cls-4"/><circle cx="93.04" cy="57.05" r="3.17" class="cls-4"/><path d="M16.39 107.67h-3.84V59.81h3.84zM27.98 91.06h-3.84V66.2h3.84zM39.07 91.06h-3.84V66.2h3.84zM50.16 91.06h-3.84V66.2h3.84zM61.26 91.06h-3.84V66.2h3.84zM72.35 91.06h-3.84V66.2h3.84zM83.44 91.06H79.6V66.2h3.84z" class="cls-4"/><circle cx="14.48" cy="57.05" r="3.17" class="cls-4"/><path d="M14.48 53.88V35.71h15.99v5.47l-9.95 5.81M30.52 35.71v5.47l9.95 5.81M30.47 41.18v5.23" class="cls-5"/><path d="M28.98 46.52h2.97v2.97h-2.97z" style="fill:#87ccf3;stroke:#000;stroke-linejoin:round;stroke-linecap:round" transform="rotate(45 30.464 48.009)"/><path d="M19.01 46.52h2.97v2.97h-2.97z" style="fill:#b4eac3;stroke:#000;stroke-linejoin:round;stroke-linecap:round" transform="rotate(90 20.49 48.01)"/><rect width="3.51" height="3.51" x="38.71" y="46.61" rx="1.75" ry="1.75" style="fill:#fab0b4;stroke:#000;stroke-linejoin:round;stroke-linecap:round" transform="rotate(45 40.468 48.362)"/><path d="M5.57 107.78h189.61" class="cls-5"/><path d="M162.5 91.18h-21.29c-.17 0-.31-.14-.31-.31s.14-.31.31-.31h21.29c.17 0 .31.14.31.31s-.14.31-.31.31Z"/><path d="M117.21 47.83h69.3v39.05h-69.3z" style="fill:#bfe6fc"/><path d="M186.51 87.82h-69.3c-.52 0-.94-.42-.94-.94V47.83c0-.52.42-.94.94-.94h69.3c.52 0 .94.42.94.94v39.05c0 .52-.42.94-.94.94Zm-68.35-1.88h67.41V48.78h-67.41v37.16Z"/><path d="M150.09 87.34h3.53v1.96h-3.53zM141.64 89.3l-.42 1.38h21.28l-.46-1.38h-20.4z"/><path d="M162.5 90.99h-21.28c-.1 0-.19-.05-.25-.13a.31.31 0 0 1-.05-.28l.42-1.38c.04-.13.16-.22.3-.22h20.4c.13 0 .26.09.3.21l.46 1.38a.307.307 0 0 1-.29.41Zm-20.86-.63h20.42l-.25-.75h-19.94l-.23.75Z"/><path d="M118.15 48.78v37.16l21.35-37.16h-21.35z" style="fill:#87ccf3"/><path d="M115.99 90.03h71.74v17.7h-71.74z" class="cls-8"/><path d="M132.54 96.33h38.64v6.3h-38.64z" class="cls-8"/><path d="M149.3 99.18h5.11v.6h-5.11z" class="cls-8"/><path d="M-4016.72-5543.69h6467.34v6437.3h-6467.34z" style="stroke:#fff;stroke-width:8px;fill:none;stroke-linejoin:round;stroke-linecap:round"/></svg>