<svg xmlns="http://www.w3.org/2000/svg" id="Calque_1" viewBox="0 0 128 128"><defs><style>.cls-1{fill:#d6d6d6}.cls-1,.cls-2,.cls-3,.cls-4,.cls-5{stroke:#000;stroke-linecap:round;stroke-linejoin:round}.cls-2{fill:#b2f0e9}.cls-3{fill:#a07637}.cls-4{fill:#ff6d75}.cls-5{fill:#fff}</style></defs><path d="M41.57 56.19h21.44v32.98H41.57z" class="cls-1"/><path d="m52.29 50-10.72 6.19h21.44L52.29 50z" class="cls-4"/><path d="M39.17 89.16h26.24v2.06H39.17z" class="cls-5"/><path d="M46.38 58.97h5.04v5.04h-5.04zM53.17 58.97h5.04v5.04h-5.04zM53.17 65.76h5.04v5.04h-5.04zM46.38 65.76h5.04v5.04h-5.04zM53.17 72.55h5.04v5.04h-5.04zM46.38 72.55h5.04v5.04h-5.04z" class="cls-2"/><path d="M47.82 80.97h4.48v7.7h-4.48z" class="cls-3"/><path d="M52.29 80.97h4.48v7.7h-4.48z" class="cls-3"/><path d="M6.35 77.33H31.3v13.89H6.35z" class="cls-5"/><path d="m18.83 70.13 12.48 7.2H6.36l12.47-7.2z" class="cls-4"/><path d="M11.34 81.52h6.21v4.93h-6.21z" class="cls-2"/><path d="M22.35 83.21h4.48v7.7h-4.48z" class="cls-3"/><path d="M97.88 46.28h-24.6v44.94h49.19V46.28H97.88z" class="cls-1"/><path d="M93.4 83.46h4.48v7.7H93.4z" class="cls-3"/><path d="M97.88 83.46h4.48v7.7h-4.48z" class="cls-3"/><path d="M99.19 49.47h4.14v4.88h-4.14zM99.19 57.97h4.14v4.88h-4.14zM99.19 66.47h4.14v4.88h-4.14zM99.19 74.97h4.14v4.88h-4.14zM91.53 49.47h4.14v4.88h-4.14zM91.53 57.97h4.14v4.88h-4.14zM91.53 66.47h4.14v4.88h-4.14zM91.53 74.97h4.14v4.88h-4.14zM115.32 49.47h4.14v4.88h-4.14zM115.32 57.97h4.14v4.88h-4.14zM115.32 66.47h4.14v4.88h-4.14zM115.32 74.97h4.14v4.88h-4.14zM107.65 49.47h4.14v4.88h-4.14zM107.65 57.97h4.14v4.88h-4.14zM107.65 66.47h4.14v4.88h-4.14zM107.65 74.97h4.14v4.88h-4.14zM83.96 49.47h4.14v4.88h-4.14zM83.96 57.97h4.14v4.88h-4.14zM83.96 66.47h4.14v4.88h-4.14zM83.96 74.97h4.14v4.88h-4.14zM76.3 49.47h4.14v4.88H76.3zM76.3 57.97h4.14v4.88H76.3zM76.3 66.47h4.14v4.88H76.3zM76.3 74.97h4.14v4.88H76.3z" class="cls-2"/></svg>