<svg xmlns="http://www.w3.org/2000/svg" id="Calque_1" data-name="Calque 1" viewBox="0 0 128 128"><defs><style>.cls-2,.cls-3{stroke-width:1.33px;stroke-linecap:round;stroke-linejoin:round;stroke:#000}.cls-2{fill:#a07637}.cls-3{fill:#b2f0e9}</style></defs><path d="M6.35 71.51h35.41v19.71H6.35z" style="fill:#fff;stroke-width:1.42px;stroke:#000;stroke-linecap:round;stroke-linejoin:round"/><path d="m24.06 61.29 17.71 10.22H6.36l17.7-10.22z" style="fill:#ff6d75;stroke-width:1.42px;stroke:#000;stroke-linecap:round;stroke-linejoin:round"/><path d="M13.43 77.45h8.82v7h-8.82z" style="stroke-width:1.42px;fill:#b2f0e9;stroke:#000;stroke-linecap:round;stroke-linejoin:round"/><path d="M29.06 79.84h6.35v10.93h-6.35z" style="stroke-width:1.42px;fill:#a07637;stroke:#000;stroke-linecap:round;stroke-linejoin:round"/><path d="M89.67 31.28H56.86v59.94h65.61V31.28h-32.8z" style="stroke:#000;stroke-linecap:round;stroke-linejoin:round;stroke-width:1.33px;fill:#d6d6d6"/><path d="M83.7 80.87h5.97v10.27H83.7zM89.67 80.87h5.97v10.27h-5.97z" class="cls-2"/><path d="M91.42 35.54h5.52v6.5h-5.52zM91.42 46.87h5.52v6.5h-5.52zM91.42 58.2h5.52v6.5h-5.52zM91.42 69.54h5.52v6.5h-5.52zM81.2 35.54h5.52v6.5H81.2zM81.2 46.87h5.52v6.5H81.2zM81.2 58.2h5.52v6.5H81.2zM81.2 69.54h5.52v6.5H81.2zM112.93 35.54h5.52v6.5h-5.52zM112.93 46.87h5.52v6.5h-5.52zM112.93 58.2h5.52v6.5h-5.52zM112.93 69.54h5.52v6.5h-5.52zM102.7 35.54h5.52v6.5h-5.52zM102.7 46.87h5.52v6.5h-5.52zM102.7 58.2h5.52v6.5h-5.52zM102.7 69.54h5.52v6.5h-5.52zM71.11 35.54h5.52v6.5h-5.52zM71.11 46.87h5.52v6.5h-5.52zM71.11 58.2h5.52v6.5h-5.52zM71.11 69.54h5.52v6.5h-5.52zM60.89 35.54h5.52v6.5h-5.52zM60.89 46.87h5.52v6.5h-5.52zM60.89 58.2h5.52v6.5h-5.52zM60.89 69.54h5.52v6.5h-5.52z" class="cls-3"/><path d="M-1316.09-998.25H928.36v5948.74h-2244.45z" style="fill:none;stroke:#fff;stroke-width:8px;stroke-linecap:round;stroke-linejoin:round"/></svg>