<svg xmlns="http://www.w3.org/2000/svg" id="Calque_1" data-name="Calque 1" viewBox="0 0 200 128"><defs><style>.cls-2{stroke-linecap:round;stroke-linejoin:round;stroke:#000;fill:none}</style></defs><path d="M37.58 46.94c.04.07.08.14.11.21h0c-.03-.06-.07-.14-.1-.21ZM36.07 81.23h.12c.33-.4.64-.88.94-1.41l-1.06 1.42ZM37.57 46.92c-.45-.81-.93-1.49-1.4-2.04l.14-.09c.45.57.87 1.28 1.27 2.13Z" class="cls-2"/><path d="M75.03 82.04s0 .1-.02.14c-.09.96-.69 1.84-1.71 2.61-.7.56-1.62 1.06-2.71 1.49-3.81 1.57-9.74 2.42-16.36 2.11-5.46-.25-10.41-1.24-14.03-2.65-1.71-.67-3.14-1.42-4.18-2.24-.33-.26-.63-.52-.89-.81.18-.18.37-.39.55-.62.33-.44.66-.98.97-1.57l3.6-5.25c3.76-1.15 8.9-1.72 14.55-1.47 11.34.52 20.39 4.21 20.23 8.25Z" class="cls-2"/><path d="M67.28 80.75c0 .16-.06.32-.15.48-.16.3-.47.58-.9.84-2.09 1.29-6.16 2.12-11.96 1.92-4.63-.16-8.69-.91-11.13-1.92-1.09-.45-1.85-.95-2.19-1.49-.16-.24-.24-.47-.22-.71.1-2.02 6.34-3.44 13.93-3.18s12.72 2.05 12.62 4.07Z" style="stroke:#000;stroke-linecap:round;stroke-linejoin:round;fill:#d6d6d6"/><path d="M75.03 87.04c-.05 1.21-1.03 2.31-2.7 3.22-3.56 1.95-10.25 3.08-17.86 2.75-6.88-.3-12.93-1.49-16.52-3.43h0l-8.5-.63-3.66-.27 2.47-3.76 6.25.56 4.9.44h0c3.65 1.51 9.04 2.59 15.06 2.84 6.93.3 13.08-.56 16.81-2.11 1.24-.53 2.22-1.13 2.86-1.78.61.7.93 1.42.89 2.16ZM23.01 57.31v32.28H12.96V58.12h8.88l1.17-.81z" class="cls-2"/><path d="M10.7 54.81h11.14v3.31H10.7zM28.67 50.08c-.35 1.2-.65 2.52-.89 3.93l-4.76 3.3-1.17.81v-3.31l6.83-4.73ZM40.27 41.98v3.32l-2.59 1.83h0c-.03-.06-.07-.14-.1-.21v-.02c-.45-.81-.93-1.49-1.4-2.04l.14-.09 3.97-2.8Z" class="cls-2"/><path d="M36.07 81.23h.12c-.17.21-.35.4-.53.57-.32.28-.63.51-.96.64-.33.15-.66.23-1 .23-.99 0-1.94-.64-2.78-1.81-2.29-3.12-3.87-9.97-3.87-17.91 0-3.21.26-6.24.73-8.93.24-1.41.54-2.73.89-3.93 1.21-4.21 3.02-6.86 5.03-6.86.93 0 1.8.56 2.6 1.57l-.14.09c-.97-1.09-1.96-1.63-2.92-1.51-1.75.22-3.07 2.55-3.8 6.17-.22 1.11-.39 2.34-.51 3.67-.27 3.35-.18 7.33.36 11.56.83 6.53 1.78 11.14 3.14 13.79.61 1.21 1.3 2.01 2.11 2.4.19.1.39.17.59.21.3.08.61.09.94.06Z" class="cls-2"/><path d="m30.92 80.85-2.68 4.08-2.47 3.76-.6.91h-2.16V57.32l4.76-3.3c-.47 2.68-.73 5.71-.73 8.93 0 7.94 1.58 14.79 3.87 17.91ZM39.55 45.86v5.84c-.54-1.76-1.16-3.3-1.86-4.56l1.86-1.28ZM10.71 54.81l18.07-12.85 11.49.02" class="cls-2"/><ellipse cx="26.04" cy="47.25" class="cls-2" rx="2.06" ry="1.02" transform="rotate(-33.85 26.037 47.24)"/><path d="M24.57 47.25h0M27.37 47.43h0M27.37 47.25h-2.8M37.94 89.59v-.01M37.94 89.59v.03M36.07 81.23l-.41.55M70.63 108.76l.83 2.1c-.42.5-.99.97-1.69 1.42-.39.25-.83.5-1.3.72-1.13.57-2.48 1.07-4 1.5-3.69 1.06-8.43 1.68-13.58 1.68-4.53 0-8.74-.49-12.2-1.32a32.73 32.73 0 0 1-3.13-.92c-.85-.3-1.63-.63-2.32-.97l2.13-9.35.51-2.27s-2.05-1.9-4.02-4.83c-1.98-2.93-2.43-7.58-2.43-7.58l8.5.63h0c3.59 1.93 9.64 3.13 16.52 3.43 7.61.32 14.3-.8 17.86-2.75v.25c0 2.79-1.57 5.34-4.17 7.3-.45.34-.93.67-1.45.97l2.38 6.06 1.54 3.92Z" class="cls-2"/><path d="M41.89 97.69s8.32 2.67 13.77 2.6 11.05-1.51 11.05-1.51M37.13 79.81l-1.06 1.42c-.33.03-.64.02-.94-.06-.21-.04-.41-.11-.59-.21-.8-.38-1.5-1.19-2.11-2.4-1.35-2.66-2.3-7.27-3.13-13.79-.54-4.22-.63-8.21-.36-11.56.11-1.33.28-2.57.5-3.67.74-3.61 2.06-5.94 3.81-6.16.96-.12 1.95.41 2.92 1.5.48.55.95 1.23 1.4 2.04v.02c.04.07.07.15.11.22M37.69 47.14s1.84 3.69 3.04 9.54c.35 2.13.58 4.41.66 6.8.13 4.9-.52 8.92-1.14 11.78" class="cls-2"/><path d="M139.01 37.84c5.7 0 10.32-4.62 10.32-10.32S139.01 9.27 139.01 9.27s-10.32 12.54-10.32 18.25 4.62 10.32 10.32 10.32Z" style="fill:#f2e2a8;stroke-miterlimit:10;stroke-width:2px;stroke:#000"/><path d="M139.01 78.34c5.7 0 10.32-4.62 10.32-10.32s-10.32-18.25-10.32-18.25-10.32 12.54-10.32 18.25 4.62 10.32 10.32 10.32Z" style="fill:#f9a533;stroke-miterlimit:10;stroke-width:2px;stroke:#000"/><path d="M139.01 118.84c5.7 0 10.32-4.62 10.32-10.32s-10.32-18.25-10.32-18.25-10.32 12.54-10.32 18.25 4.62 10.32 10.32 10.32Z" style="fill:#d77970;stroke-miterlimit:10;stroke-width:2px;stroke:#000"/><path d="M110.75 37.84c5.7 0 10.32-4.62 10.32-10.32S110.75 9.27 110.75 9.27s-10.32 12.54-10.32 18.25 4.62 10.32 10.32 10.32Z" style="fill:#e0ebf4;stroke-miterlimit:10;stroke-width:2px;stroke:#000"/><path d="M110.75 78.34c5.7 0 10.32-4.62 10.32-10.32s-10.32-18.25-10.32-18.25-10.32 12.54-10.32 18.25 4.62 10.32 10.32 10.32Z" style="fill:#edd112;stroke-miterlimit:10;stroke-width:2px;stroke:#000"/><path d="M110.75 118.84c5.7 0 10.32-4.62 10.32-10.32s-10.32-18.25-10.32-18.25-10.32 12.54-10.32 18.25 4.62 10.32 10.32 10.32Z" style="fill:#9e8987;stroke-miterlimit:10;stroke-width:2px;stroke:#000"/><path d="M167.28 37.84c5.7 0 10.32-4.62 10.32-10.32S167.28 9.27 167.28 9.27s-10.32 12.54-10.32 18.25 4.62 10.32 10.32 10.32Z" style="stroke-miterlimit:10;stroke-width:2px;fill:#e9cb61;stroke:#000"/><path d="M167.28 78.34c5.7 0 10.32-4.62 10.32-10.32s-10.32-18.25-10.32-18.25-10.32 12.54-10.32 18.25 4.62 10.32 10.32 10.32Z" style="fill:#f37211;stroke-miterlimit:10;stroke-width:2px;stroke:#000"/><path d="M167.28 118.84c5.7 0 10.32-4.62 10.32-10.32s-10.32-18.25-10.32-18.25-10.32 12.54-10.32 18.25 4.62 10.32 10.32 10.32Z" style="fill:#c2524d;stroke-miterlimit:10;stroke-width:2px;stroke:#000"/></svg>