<svg xmlns="http://www.w3.org/2000/svg" id="Calque_1" viewBox="0 0 128 128"><defs><style>.cls-1{fill:#ff6d75}.cls-3,.cls-5,.cls-7,.cls-8{stroke:#000}.cls-3,.cls-5,.cls-7{stroke-linecap:round}.cls-3,.cls-5{stroke-linejoin:round}.cls-3,.cls-5,.cls-7{stroke-width:2px}.cls-3{fill:#fce9b9}.cls-5,.cls-7,.cls-8{fill:none}.cls-7,.cls-8{stroke-miterlimit:10}</style></defs><path d="M19.06 6.92s17.8 7.45 20.91 35.61c0 0 18.22 30.43 21.95 48.24" class="cls-7"/><path d="M60.59 85.58s12.48 11.63 16.23 16.99C82.04 110.04 88 122.24 88 122.24M17.2 66.34s10.77 22.15 30.85 32.71" class="cls-7"/><path d="M40.2 94.26s7.77 20.25 13.57 28.32" class="cls-7"/><path d="M41.63 31.1 29 29.44" class="cls-8"/><path d="m86.62 40.09-37.01-5.21c.14-.23.27-.47.38-.71.56-1.19.75-2.53.54-3.84-.04-.26-.09-.52-.17-.78l37.01 5.21-.75 5.33Z" class="cls-5"/><path d="m62.48 36.7-12.86-1.81c.14-.23.27-.47.38-.71.56-1.19.75-2.53.54-3.84-.04-.26-.09-.52-.17-.78l12.86 1.81-.75 5.33Z" class="cls-3"/><path d="m49.99 34.18-2.65-.37-1.9-1.13-3.95-1.65 4.25-.49 2.14-.56 2.65.37c.21 1.31.02 2.65-.54 3.84Z" class="cls-5"/><path d="m88 31.41-1.7 12.08" style="stroke-width:3px;fill:none;stroke-linejoin:round;stroke-linecap:round;stroke:#000"/><path d="M66.29 34.56h13.03v1.75H66.29z" style="stroke-width:3px;stroke-linejoin:round;stroke-linecap:round;stroke:#000" transform="rotate(98.01 72.804 35.427)"/><path d="M58.38 33.4 58 36.07M55.49 33l-.38 2.66M52.57 32.59l-.37 2.66" class="cls-8"/><path d="M116.06 90.5c0 2.51-5.47 4.54-12.22 4.54s-12.21-2.03-12.21-4.54V66.7c0-1.51.84-2.9 2.18-3.6.02-.01.05-.03.07-.04a4.92 4.92 0 0 0 2.65-4.36v-2.57h14.62v2.58c0 1.83 1.02 3.51 2.64 4.36l.09.05c1.34.7 2.18 2.08 2.18 3.59V90.5Z" class="cls-5"/><path d="M116.07 90.5c0 2.51-5.47 4.54-12.22 4.54s-12.22-2.03-12.22-4.54V67.63c1.82 2.5 5.47 2.84 12.22 2.84s9.89-.35 12.21-2.73V90.5Z" class="cls-3"/><path d="M110.91 66.78v20.96c-.87.4-1.9.75-3.08 1.02-1.88.43-4.09.69-6.47.69s-4.59-.25-6.47-.69c-1.26-.29-2.37-.67-3.26-1.1V66.71c2.23.79 5.75 1.3 9.72 1.3s7.31-.48 9.56-1.23Z" style="fill:#fff;stroke-width:2px;stroke-linejoin:round;stroke-linecap:round;stroke:#000"/><path d="M95.37 49.31h16.96c.78 0 1.41.63 1.41 1.41v4.01c0 .78-.63 1.41-1.41 1.41H95.37c-.78 0-1.41-.63-1.41-1.41v-4.01c0-.78.63-1.4 1.4-1.4Z" style="stroke-width:2px;stroke-linejoin:round;stroke-linecap:round;stroke:#000;fill:#d6d6d6"/><path d="M98.43 72.97h3.58v10.22h-3.58z" class="cls-1"/><path d="M95.11 79.86v-3.57h10.22v3.57z" class="cls-1"/><circle cx="25.18" cy="28.73" r=".94" style="stroke-miterlimit:10;stroke:#fce9b9;fill:#fce9b9"/></svg>