<svg xmlns="http://www.w3.org/2000/svg" id="Calque_1" data-name="Calque 1" viewBox="0 0 128 128.13"><defs><style>.cls-1,.cls-3,.cls-5,.cls-7{stroke-linecap:round;stroke-linejoin:round}.cls-1,.cls-10,.cls-3,.cls-5,.cls-7{stroke:#000}.cls-1{fill:#d6d6d6}.cls-10,.cls-3,.cls-7{fill:none}.cls-11{fill:#fab0b4}.cls-12{fill:#ff6d75}.cls-5,.cls-7{stroke-width:2px}.cls-5{fill:#fce9b9}.cls-10{stroke-miterlimit:10}</style></defs><path d="m70.38 77.54-12.63-1.67" class="cls-10"/><path d="m115.38 86.52-37.01-5.21c.14-.23.27-.47.38-.71.56-1.19.75-2.53.54-3.84-.04-.26-.09-.52-.17-.78l37.01 5.21-.75 5.33Z" class="cls-7"/><path d="m91.23 83.13-12.86-1.81c.14-.23.27-.47.38-.71.56-1.19.75-2.53.54-3.84-.04-.26-.09-.52-.17-.78l12.86 1.81-.75 5.33Z" class="cls-5"/><path d="m78.75 80.61-2.65-.37-1.9-1.13-3.95-1.65 4.25-.49 2.14-.56 2.65.37c.21 1.31.02 2.65-.54 3.84Z" class="cls-7"/><path d="m116.75 77.84-1.69 12.08" style="stroke-width:3px;fill:none;stroke:#000;stroke-linecap:round;stroke-linejoin:round"/><path d="M95.04 80.99h13.03v1.75H95.04z" style="stroke-width:3px;stroke:#000;stroke-linecap:round;stroke-linejoin:round" transform="rotate(98.01 101.562 81.855)"/><path d="m87.13 79.83-.38 2.67M84.24 79.43l-.38 2.66M81.32 79.02l-.37 2.66" class="cls-10"/><path d="M14.96 99.76c-2.61-.27-.74-3.11 3.19-5.58 3.93-2.47 4.92-5.92 7.93-15.14 3-9.22 5.5-10.5 5.5-10.5 5.05-3.23 9.75-5.97 2.88-7.88-6.87-1.91-2.88-10.51-2.88-10.51s-1.31-2.59.33-2.7c1.65-.11 2.01-1.85 2.01-1.85s-3.9-10.97 9.33-14.2 19.51 7.51 20.48 14.36c.97 6.85-2.66 13.75-13.6 15.92 0 0-1.42.57-.48 3.04s7.43 1.45 10.91 9.74c0 0 6.13 18.07-2.36 24.91 0 0-6.62 2.99-9.27 5.67-2.65 2.68-6.75 5.92-5.99 3.81.76-2.11 1.86-2.77 1.86-2.77" class="cls-3"/><path d="M37.71 107.58c.79-.59 1.55-2.24 3.61-3.19M38.25 104.37s.02-.02.03-.02M52.32 75.59s-.64 11.99-.05 17.14c0 0-.92-.24-4.52 3.12-.11.1-.22.21-.33.32M42.45 106.07s-1.92 1.27-2.53 2.28h0M39.73 108.98c.17.97 3.89-1.76 4.11-1.91h0M39.91 108.37h0" class="cls-3"/><path d="M26.93 114.14c-.35.19-.74.45-1.16.75-.27.18-.54.39-.85.62-5.46 4.15-3.19 10.2 2.8 6.15 5.98-4.06 30.05-.41 34.09-9.59 4.04-9.18-3.62-12.7-3.62-12.7M45.15 98.68h.01" class="cls-3"/><path d="M28.34 96.9s4.25 3.83 16.81 1.79c.68-.82 1.43-1.68 2.27-2.5-.72.04-15.3.7-18.15-1.81l-.7 1.91-.23.62Z" class="cls-1"/><path d="M47.43 96.18h.03" class="cls-3"/><path d="M26.93 114.14c3.4-2.01 3.57-.07 7.82-2.42l4.97-2.73c-.04-.18.04-.4.18-.62-.18.13-2.6 1.8-2.2-.78-.36.27-.72.31-1.22 0-1.5-.98 1.45-3.01 1.76-3.21-1.93.93-3.57-1.45.83-1.19 2.43.15 4.01-2.02 6.08-4.5-12.56 2.04-16.81-1.79-16.81-1.79s-5.38 11.12-1.41 17.24Z" class="cls-1"/><path d="M33.56 71.5s-5.11 14.66-4.29 22.87" class="cls-3"/><path d="m29.36 87.99-4.16 6.28s.76 7.88-.91 5.83-1.04-5.07-3.28-2.56c-2.24 2.51-1.83 4.17-2.7 2.53s.83-3.73.83-3.73" class="cls-3"/><path d="M18.17 98.21s-4.16 4.57-2.31.38l1.46-2.25M28.57 96.28l-3.18-1.04M25.78 114.89s-1.79-1.5-3.32-3.71M23.58 116.24s.69-.96-2.42-1.38" class="cls-3"/><path d="M18.89 93.63s-11-2.79-9.95 5.09c1.05 7.88 4.94 14.87 4.94 14.87M17.33 114.14s-8.18-1.11-9.65-.15c-1.05.69-3.02 8.99 14.04 6.67M22.72 115.09s-.11-2.01-.54-7.42c-.43-5.41-.63-5.61-.63-5.61" class="cls-3"/><path d="M18.7 102.3s1.94-.55 3.44 6M49.64 52.31s3.7 1.24 1.57 4.28-4.01.36-4.01.36" class="cls-3"/><circle cx="36.62" cy="47.48" r=".86"/><path d="M39.17 45.56s-.24-2.22-2.55-2.08M47.2 77.41h-1.13M36.61 76.48l-1.09-.26M49.53 55.18l-.73-.34" class="cls-3"/><path d="M32.92 54.7s-.01 0 0 .02c.01.65.48 1.35 1.45 1.58.79.2 1.38.05 1.81-.17 0 0 0-.01-.01-.03 0-.02-.02-.05-.04-.09-.04-.07-.09-.17-.17-.3-.03-.04-.06-.08-.09-.13-.06-.08-.13-.17-.22-.27-.17-.17-.39-.35-.67-.48-.07-.03-.14-.07-.22-.09-.05-.03-.11-.04-.17-.05-.44-.13-.99-.16-1.67 0Z" class="cls-12"/><path d="M33.82 53.97zM32.89 55.08c.68-.17 1.23-.14 1.67 0 .06 0 .12.03.17.05.08.02.15.06.22.09.28.14.5.31.67.48.09.09.16.17.22.27.04.04.07.09.09.13.08.12.13.23.17.3.02.04.04.07.04.09 0 .02.01.03.01.03.6-.31.87-.78.87-.78.54-1.61-2.23-1.92-2.23-1.92-1.26-.27-1.93.47-1.91 1.27ZM32.88 55.18h.03-.03Z" class="cls-11"/><path d="M35.19 56.58s-2.77-.31-2.23-1.92c0 0 .28-.47.87-.78.43-.22 1.02-.37 1.81-.17.97.23 1.44.93 1.45 1.58v.02c.03.8-.64 1.54-1.91 1.27Z" class="cls-10"/><path d="M35.76 35.45s3.27 7.47 10.31 8.03c0 0-1.43 4.32 3.8 5.73" class="cls-3"/><circle cx="56.3" cy="75.59" r=".22" style="fill:none;stroke:#f3d587;stroke-linecap:round;stroke-linejoin:round"/><path d="M109.46 57.79c0 2.51-5.47 4.54-12.22 4.54s-12.21-2.03-12.21-4.54v-23.8c0-1.51.84-2.9 2.18-3.6.02-.01.05-.03.07-.04a4.92 4.92 0 0 0 2.65-4.36v-2.57h14.62V26c0 1.83 1.02 3.51 2.64 4.36l.09.05c1.34.7 2.18 2.08 2.18 3.59v23.79Z" class="cls-7"/><path d="M109.46 57.79c0 2.51-5.47 4.54-12.22 4.54s-12.22-2.03-12.22-4.54V34.92c1.82 2.5 5.47 2.84 12.22 2.84s9.89-.35 12.21-2.73v22.76Z" class="cls-5"/><path d="M104.31 34.06v20.96c-.87.4-1.9.75-3.08 1.02-1.88.43-4.09.69-6.47.69s-4.59-.25-6.47-.69c-1.26-.29-2.37-.67-3.26-1.1V33.99c2.23.79 5.75 1.3 9.72 1.3s7.31-.48 9.56-1.23Z" style="fill:#fff;stroke-width:2px;stroke:#000;stroke-linecap:round;stroke-linejoin:round"/><path d="M88.76 16.59h16.97c.78 0 1.4.63 1.4 1.4V22c0 .78-.63 1.41-1.41 1.41H88.76c-.78 0-1.41-.63-1.41-1.41v-4.01c0-.78.63-1.4 1.4-1.4Z" style="stroke-width:2px;fill:#d6d6d6;stroke:#000;stroke-linecap:round;stroke-linejoin:round"/><path d="M91.83 40.26h3.58v10.22h-3.58z" class="cls-12"/><path d="M88.51 47.15v-3.57h10.22v3.57z" class="cls-12"/></svg>