<svg xmlns="http://www.w3.org/2000/svg" id="Calque_1" data-name="Calque 1" viewBox="0 0 260 128"><defs><style>.cls-1{stroke-linecap:round;stroke-linejoin:round}.cls-1,.cls-3{stroke:#000}.cls-1{fill:none}.cls-3{stroke-miterlimit:10;stroke-width:1.82px}.cls-5{fill:#1d1d1b}.cls-3{fill:#baa584}</style></defs><path d="M105.88 57.13h67.46c.94 0 1.71.77 1.71 1.71V75.6c0 .75-.61 1.36-1.36 1.36h-68.02c-.71 0-1.28-.57-1.28-1.28V58.62c0-.82.67-1.49 1.49-1.49Z" style="stroke-miterlimit:10;stroke-width:1.82px;fill:none;stroke:#000" transform="rotate(-180 139.725 67.04)"/><path d="M244.19 76.95h-67.46c-.94 0-1.71-.77-1.71-1.71V58.48c0-.75.61-1.36 1.36-1.36h68.02c.71 0 1.28.57 1.28 1.28v17.06c0 .82-.67 1.49-1.49 1.49Z" class="cls-3"/><path d="M158.82 69.44h-53.17c-.94 0-1.71-.77-1.71-1.71v-1.74c0-.75.61-1.36 1.36-1.36h53.73c.71 0 1.28.57 1.28 1.28v2.04c0 .82-.67 1.49-1.49 1.49Z" class="cls-5"/><path d="M105.84 57.13h24.48c.94 0 1.71.77 1.71 1.71V75.6c0 .75-.61 1.36-1.36 1.36h-25.04c-.71 0-1.28-.57-1.28-1.28V58.62c0-.82.67-1.49 1.49-1.49Z" style="fill:#1d1d1b;stroke-miterlimit:10;stroke-width:1.82px;stroke:#000" transform="rotate(-180 118.19 67.04)"/><path d="M104.54 58.41v17.05c0 .82-.67 1.49-1.49 1.49H79.14c-.75 0-1.85-.9-2.16-1.85-.03-.09-.15-.08-.17.01-.2 1.1-.9 1.91-2.29 1.83l-40.13-5.23c-.58 0-1.05-.76-1.05-1.7V63.7c0-.75.38-1.35.84-1.35l40.47-5.23c.26 0 1.56.48 1.87 1.52.09.29.5.29.58 0 .32-1.07 1.17-1.52 1.68-1.52h24.47c.7 0 1.28.58 1.28 1.28Z" class="cls-3"/><rect width="3.24" height="18.92" x="31.03" y="57.58" class="cls-5" rx="1.31" ry="1.31" transform="rotate(-180 32.645 67.04)"/><path d="M26.83 64.91c-.88-4.4-.13-8.37 2.49-12 1.09-1.5 2.25-3.04 2.65-4.85 1.07-4.83-6.19-8.46-8.61-3.7-1.01 1.99-.77 4.72 1 6.08" class="cls-1"/><path d="M21.73 58.85c.27-2.02-.36-4.06-1.31-5.87-.94-1.8-2.19-3.43-3.27-5.15-1.59-2.53-2.86-5.38-2.84-8.37.02-2.99 1.6-6.1 4.36-7.25.99-.41 2.14-.55 3.12-.13 1.48.63 2.23 2.48 1.82 4.03-.41 1.56-1.8 2.74-3.36 3.14" class="cls-1"/></svg>