<svg xmlns="http://www.w3.org/2000/svg" id="Calque_1" data-name="Calque 1" viewBox="0 0 128 128"><defs><style>.cls-1,.cls-3{stroke-linecap:round;stroke-linejoin:round;stroke:#000;fill:none}.cls-5{fill:#fab0b4}.cls-6{fill:#ff6d75}.cls-3{stroke-width:2px}</style></defs><path d="M58.07 60.85s-6.58.24-4.59 6.19c2 5.95 6.33 2.51 6.33 2.51" class="cls-3"/><circle cx="82.64" cy="56.73" r="1.45"/><path d="M81.91 50.55s.17 3.76-3.73 4.12" class="cls-1"/><path d="m56.88 65.54 1.35-.2" class="cls-3"/><path d="M82.65 69.96zM88.51 68.42l-.05.02v-.03c.02 0 .03.02.05.02Z" class="cls-5"/><path d="M83.65 35.09s-5.53 12.62-17.42 13.56" class="cls-1"/><path d="M90.73 59.91s6.74 14.55-4.86 17.78c-4.24 1.17-5.87 2.55-5.82 4.06 0 .05.01.12.01.18.01.08.04.18.05.26.6 2.56 5.49 5.53 10.61 8.81h.03c.05.04.25.16.53.42.12.1.23.2.37.33 1.21 1.23 3.51 4.21 6.27 11.14a51.016 51.016 0 0 1-31.7 10.98c-9.56 0-18.51-2.62-26.17-7.18.89-3.46 1.7-5.69 1.7-5.69 5.88-14 16.84-12.27 18.43-16.46 1.59-4.17-.8-5.15-.8-5.15-18.49-3.65-24.62-15.3-22.98-26.89C38.03 40.92 48.67 22.78 71 28.24c22.34 5.45 15.76 23.99 15.76 23.99" class="cls-3"/><path d="M117.46 62.62c0 16.33-7.64 30.88-19.53 40.27-2.75-6.93-5.05-9.92-6.27-11.14-.14-.12-.25-.23-.37-.33-.29-.26-.48-.38-.53-.42h-.03c-5.12-3.28-10.01-6.25-10.61-8.81-.01-.08-.04-.18-.05-.26 0-.05-.01-.12-.01-.18-.05-1.51 1.58-2.89 5.82-4.06 11.61-3.23 4.86-17.78 4.86-17.78 1.08-.4 5.53-5.6-.57-4.55-2.73.47-3.39-3.13-3.39-3.13s6.58-18.54-15.76-23.99c-22.33-5.46-32.97 12.68-34.6 24.26-1.63 11.59 4.5 23.24 22.98 26.89 0 0 2.4.98.8 5.15-1.59 4.18-12.55 2.45-18.43 16.46 0 0-.82 2.23-1.7 5.69-15.01-8.92-25.08-25.32-25.08-44.07 0-28.29 22.94-51.23 51.25-51.23s51.23 22.94 51.23 51.23Z" style="stroke-width:2px;fill:#d6d6d6;stroke:#000;stroke-linecap:round;stroke-linejoin:round"/><path d="M92.68 68.43s-1.89-1.52-5.96 0" style="stroke-miterlimit:10;fill:none;stroke:#000"/><path d="M68.07 56.19c-.84 0-1.53-.69-1.53-1.53s.69-1.53 1.53-1.53 1.53.69 1.53 1.53-.69 1.53-1.53 1.53Z" class="cls-6"/><path d="M68.07 53.63c.57 0 1.03.46 1.03 1.03s-.46 1.03-1.03 1.03-1.03-.46-1.03-1.03.46-1.03 1.03-1.03m0-1c-1.12 0-2.03.91-2.03 2.03s.91 2.03 2.03 2.03 2.03-.91 2.03-2.03-.91-2.03-2.03-2.03Z" class="cls-5"/><path d="M74.93 65.53c-.84 0-1.53-.69-1.53-1.53s.69-1.53 1.53-1.53 1.53.69 1.53 1.53-.69 1.53-1.53 1.53Z" class="cls-6"/><path d="M74.94 62.97c.57 0 1.03.46 1.03 1.03s-.46 1.03-1.03 1.03-1.03-.46-1.03-1.03.46-1.03 1.03-1.03m0-1c-1.12 0-2.03.91-2.03 2.03s.91 2.03 2.03 2.03 2.03-.91 2.03-2.03-.91-2.03-2.03-2.03Z" class="cls-5"/><circle cx="68.07" cy="79.29" r="1.53" class="cls-6"/><path d="M68.07 78.26c.57 0 1.03.46 1.03 1.03s-.46 1.03-1.03 1.03-1.03-.46-1.03-1.03.46-1.03 1.03-1.03m0-1c-1.12 0-2.03.91-2.03 2.03s.91 2.03 2.03 2.03 2.03-.91 2.03-2.03-.91-2.03-2.03-2.03Z" class="cls-5"/><path d="M84.09 97.62c-.84 0-1.53-.69-1.53-1.53s.69-1.53 1.53-1.53 1.53.69 1.53 1.53-.69 1.53-1.53 1.53Z" class="cls-6"/><path d="M84.09 95.06c.57 0 1.03.46 1.03 1.03s-.46 1.03-1.03 1.03-1.03-.46-1.03-1.03.46-1.03 1.03-1.03m0-1c-1.12 0-2.03.91-2.03 2.03s.91 2.03 2.03 2.03 2.03-.91 2.03-2.03-.91-2.03-2.03-2.03Z" class="cls-5"/><path d="M59.82 102.22c-.84 0-1.53-.69-1.53-1.53s.69-1.53 1.53-1.53 1.53.69 1.53 1.53-.69 1.53-1.53 1.53Z" class="cls-6"/><path d="M59.81 99.66c.57 0 1.03.46 1.03 1.03s-.46 1.03-1.03 1.03-1.03-.46-1.03-1.03.46-1.03 1.03-1.03m0-1c-1.12 0-2.03.91-2.03 2.03s.91 2.03 2.03 2.03 2.03-.91 2.03-2.03-.91-2.03-2.03-2.03Z" class="cls-5"/><circle cx="69.1" cy="95.06" r="1.53" class="cls-6"/><path d="M69.1 94.03c.57 0 1.03.46 1.03 1.03s-.46 1.03-1.03 1.03-1.03-.46-1.03-1.03.46-1.03 1.03-1.03m0-1c-1.12 0-2.03.91-2.03 2.03s.91 2.03 2.03 2.03 2.03-.91 2.03-2.03-.91-2.03-2.03-2.03Z" class="cls-5"/><path d="M75.96 108.22c-.84 0-1.53-.69-1.53-1.53s.69-1.53 1.53-1.53 1.53.69 1.53 1.53-.69 1.53-1.53 1.53Z" class="cls-6"/><path d="M75.96 105.66c.57 0 1.03.46 1.03 1.03s-.46 1.03-1.03 1.03-1.03-.46-1.03-1.03.46-1.03 1.03-1.03m0-1c-1.12 0-2.03.91-2.03 2.03s.91 2.03 2.03 2.03 2.03-.91 2.03-2.03-.91-2.03-2.03-2.03Z" class="cls-5"/><path d="M80.04 73.26c-.84 0-1.53-.69-1.53-1.53s.69-1.53 1.53-1.53 1.53.69 1.53 1.53-.69 1.53-1.53 1.53Z" class="cls-6"/><path d="M80.04 70.7c.57 0 1.03.46 1.03 1.03s-.46 1.03-1.03 1.03-1.03-.46-1.03-1.03.46-1.03 1.03-1.03m0-1c-1.12 0-2.03.91-2.03 2.03s.91 2.03 2.03 2.03 2.03-.91 2.03-2.03-.91-2.03-2.03-2.03Z" class="cls-5"/><path d="M58.23 56.81c-.84 0-1.53-.69-1.53-1.53s.69-1.53 1.53-1.53 1.53.69 1.53 1.53-.69 1.53-1.53 1.53Z" class="cls-6"/><path d="M58.23 54.25c.57 0 1.03.46 1.03 1.03s-.46 1.03-1.03 1.03-1.03-.46-1.03-1.03.46-1.03 1.03-1.03m0-1c-1.12 0-2.03.91-2.03 2.03s.91 2.03 2.03 2.03 2.03-.91 2.03-2.03-.91-2.03-2.03-2.03Z" class="cls-5"/><circle cx="66.22" cy="40.84" r="1.53" class="cls-6"/><path d="M66.22 39.81c.57 0 1.03.46 1.03 1.03s-.46 1.03-1.03 1.03-1.03-.46-1.03-1.03.46-1.03 1.03-1.03m0-1c-1.12 0-2.03.91-2.03 2.03s.91 2.03 2.03 2.03 2.03-.91 2.03-2.03-.91-2.03-2.03-2.03Z" class="cls-5"/></svg>