<svg xmlns="http://www.w3.org/2000/svg" id="Calque_1" viewBox="0 0 128 128"><defs><style>.cls-1{fill:#76ac75}.cls-3,.cls-5,.cls-9{stroke:#000}.cls-3{stroke-miterlimit:10}.cls-11,.cls-3,.cls-5{fill:none}.cls-12{fill:#ff6d75}.cls-11,.cls-5,.cls-9{stroke-linecap:round;stroke-linejoin:round}.cls-11{stroke:#ff6d75;stroke-width:3px}.cls-9{fill:#d6d6d6}</style></defs><path d="M-1849.71-1584.3h3385.57V987.37h-3385.57z" style="stroke:#fff;stroke-width:8px;stroke-linecap:round;stroke-linejoin:round;fill:none"/><rect width="33.91" height="33.91" x="91.2" y="91.55" rx="4.16" ry="4.16" style="fill:#b4eac3;stroke-width:2px;stroke-linecap:round;stroke-linejoin:round;stroke:#000"/><path d="M107.54 120.03s-.07 0-.11-.01c-1.33-.3-8.11-2.14-11.54-9.01-3.16-6.33-1.22-12.28-.55-13.96.08-.2.26-.31.46-.31.06 0 .12 0 .17.03.3.11 7.4 2.77 10.89 9.1 2.78 5.05 2.35 10.86 2.04 13.13a.51.51 0 0 1-.43.43h-.06c-.2 0-.38-.12-.46-.31-.35-.84-.69-1.68-1.02-2.52l-1.06-2.8c-.18-.45-.37-.92-.58-1.38-.21-.45-.42-.9-.66-1.35-.48-.91-1.01-1.77-1.56-2.55-.04-.06-.08-.12-.13-.18l.11.19c.48.85.94 1.73 1.37 2.64.4.85.78 1.74 1.17 2.74l.54 1.39c.19.46.37.92.57 1.38.41.94.83 1.79 1.27 2.6.09.17.08.38-.04.54-.1.13-.24.2-.4.2Z" class="cls-1"/><path d="M95.8 97.24s7.18 2.63 10.62 8.87c2.72 4.94 2.28 10.65 1.98 12.82-.35-.83-.69-1.67-1.01-2.51l-1.06-2.79c-.19-.47-.38-.94-.59-1.41-.21-.46-.44-.92-.67-1.38-.48-.9-1.01-1.77-1.6-2.6a23.455 23.455 0 0 0-4.08-4.47c1.15 1.66 2.25 3.31 3.22 5.02.49.86.94 1.73 1.36 2.61.42.89.79 1.78 1.15 2.7l.55 1.39c.19.47.38.93.58 1.4.39.9.82 1.78 1.29 2.64-.91-.21-7.77-1.87-11.2-8.74-3.24-6.49-.91-12.61-.54-13.55m0-1c-.4 0-.77.24-.93.63-.69 1.72-2.69 7.85.57 14.37 3.53 7.08 10.51 8.97 11.88 9.27.07.02.15.02.22.02a.985.985 0 0 0 .92-.61h.08c.45-.06.8-.41.86-.85.32-2.31.76-8.25-2.1-13.44-3.58-6.49-10.85-9.22-11.15-9.33-.11-.04-.23-.06-.34-.06Z"/><path d="M111.14 120.27c-.14 0-.27-.06-.37-.16a.517.517 0 0 1-.08-.57l.3-.6c.18-.38.36-.76.53-1.14l.5-1.15c.35-.81.7-1.56 1.07-2.26.11-.2.21-.4.32-.6a23.423 23.423 0 0 0-.95 1.68c-.19.37-.36.76-.53 1.14l-.98 2.3-.3.69c-.08.18-.26.3-.46.3h-.08a.509.509 0 0 1-.42-.44c-.2-1.93-.39-6.87 2.15-11.08 3.15-5.22 9.23-7.23 9.48-7.31.05-.02.1-.02.15-.02a.484.484 0 0 1 .49.41c.05.27 1.1 6.57-2.06 11.8-2.48 4.1-6.83 6.24-8.59 6.97-.06.03-.13.04-.19.04Z" class="cls-1"/><path d="M121.49 101.55s1.1 6.33-1.99 11.45c-2.39 3.95-6.57 6.03-8.35 6.77.1-.2.21-.41.31-.61.19-.38.36-.77.53-1.15l.5-1.15a32.991 32.991 0 0 1 2.29-4.38c.87-1.41 1.85-2.75 2.87-4.11a19.74 19.74 0 0 0-3.57 3.62c-.52.68-.99 1.39-1.43 2.13-.22.37-.42.75-.61 1.13-.19.38-.37.77-.54 1.16l-.98 2.31c-.1.23-.2.46-.3.68-.18-1.77-.4-6.66 2.08-10.77 3.09-5.12 9.21-7.09 9.21-7.09m0-1c-.1 0-.21.02-.31.05-.26.09-6.51 2.15-9.76 7.53-2.62 4.34-2.42 9.41-2.22 11.39.05.45.39.81.84.88.05 0 .1.01.16.01s.11 0 .16-.01c.01.02.03.03.04.05a.985.985 0 0 0 1.11.24c1.8-.75 6.27-2.95 8.83-7.18 3.25-5.38 2.17-11.87 2.12-12.14a.959.959 0 0 0-.47-.68.969.969 0 0 0-.52-.14Z"/><path d="M86.66 59.44c.32.98.56 2.06.74 2.98.11.56.23 1.09.32 1.59.42 2.18.54 3.68-.34 4.5-1.25 1.15-2.93-.49-5.74.5-2.13.75-3.38 2.46-4.41 3.87-1.19 1.63-1.39 2.58-2.49 5.09-1.02 2.33-2.23 5.07-4.06 7.56-1.87 2.53-3.79 5.14-7.03 5.79-3.48.69-6.44-1.28-7.77-2.16-.88-.58-5.99-4.14-6.23-10.47-.19-5.13 2.94-8.63 3.68-9.42 3.94-4.15 9.85-4.75 12.98-5.07 2.77-.28 4.87-.06 8.63-1.02 4.25-1.09 5.2-2.28 5.51-2.73.52-.75.87-1.74 2.08-2.69.67-.53 1.4-1.1 2.15-.98.93.15 1.55 1.3 1.99 2.66Z" style="stroke-miterlimit:10;stroke:#000;fill:#baa584"/><path d="M106.02 52.83c.83 1.97-1.27 6.65-4.14 6.5-2.88-.14-4.7-1.71-4.7-1.71l-9.44 6.39c-.09-.5-.21-1.02-.32-1.59-.19-.92-.42-2-.74-2.98l8.26-5.53s-1.13-4.96 2.25-5.71c3.37-.74 4.44 3.66 4.44 3.66s3.56-1.02 4.4.96Z" class="cls-3"/><path d="M66.3 12.12c-.06-.53.36-1.27.68-1.7a.467.467 0 0 0-.54-.74c-2.41 1.17-8.86 4.93-12.87 9.42-4.7 5.27-8.27 9.08-11.29 14.77-.28.52-.55 1.05-.82 1.6a48.66 48.66 0 0 0-1.8 4.26c-.18.49-.35.97-.52 1.45-.45 1.31-.84 2.56-1.16 3.68-.76 2.65-1.14 4.51-1.14 4.51s-1.37 6.22-3.29 9.18a105.57 105.57 0 0 0-2.94 4.9 6.556 6.556 0 0 1-2.92 2.69c-1.33.62-3.11 1.57-4.42 2.69-1.69 1.45-3.2 3.33-3.94 4.3-.21.29-.06.7.29.77 1.51.31 5.82 1.76 8.1 3.23 2.36 1.52 4.73 4.66 5.99 6.19.24.29.7.21.83-.15.62-1.74 2-5.89 1.89-8.36-.06-1.36-.06-2.65-.05-3.69.02-1.49-.55-3.36.21-4.64l.7-1.19c.08-.13.16-.27.25-.4.61-.9 1.4-1.67 2.31-2.26.26-.18.52-.33.8-.47.14-.07.28-.14.43-.22 1.14-.61 2.63-1.52 4.34-2.85 1.64-1.28 3.49-2.94 5.44-5.09a.775.775 0 0 1-.08-.65l.85-2.59c.18-.55.53-1.02 1-1.35l1.42-1.01c.39-.2.84-.15 1.17.08 1.82-2.6 3.64-5.66 5.41-9.24 3.56-7.22 5.64-12.89 6.83-17.2 1.73-6.23 1.61-9.6 1.5-10.7a.34.34 0 0 0-.45-.29c-.37.13-.89.38-1.13.76-.42.71-.61 1.73-.62 1.79-.05-.06-.39-.58-.48-1.47Zm-2.89 17.6c0 .48-.12.96-.36 1.38l-.52.89c-.26.45-.66.81-1.13 1.03l-3.14 1.5a.652.652 0 0 1-.94-.59l.02-1.09c0-.16.06-.31.17-.43l1.99-2.2 1.22-1.35h0l1.44-1.59 1.19-1.32.07 3.78Z" class="cls-9"/><path d="m63.34 25.94.07 3.78c0 .48-.12.96-.36 1.38l-.52.89c-.26.45-.66.81-1.13 1.03l-3.14 1.5a.652.652 0 0 1-.94-.59l.02-1.09c0-.16.06-.31.17-.43l1.99-2.2 1.22-1.35h0l1.44-1.59 1.19-1.32Z" class="cls-5"/><path d="M63.74 13.48c.43.26.58.82.32 1.26s-.82.58-1.25.32-.58-.82-.33-1.26.82-.58 1.26-.33Z"/><path d="M57.48 17.43c-1.89 2.95-.49 7.33 3.23 7.71 1.92.2 4.7-.42 5.96-1.98.31-.39.7-.88.81-1.15" class="cls-5"/><path d="M55.24 48.46c.23.15.41.39.48.69l.86 5.88c.16.67-.14 1.36-.74 1.7-.49.29-1.09.28-1.56 0-.06-.04-.13-.08-.18-.13l-3.04-2.42a.684.684 0 0 1-.17-.21.775.775 0 0 1-.08-.65l.85-2.59c.18-.55.53-1.02 1-1.35l1.42-1.01c.39-.2.84-.15 1.17.08ZM63.34 25.94l.07 3.78c0 .48-.12.96-.36 1.38l-.52.89c-.26.45-.66.81-1.13 1.03l-3.14 1.5a.652.652 0 0 1-.94-.59l.02-1.09c0-.16.06-.31.17-.43l1.99-2.2 1.22-1.35h0l1.44-1.59 1.19-1.32ZM45.65 58.97l1.66 7.25c.09.37.02.75-.15 1.06a1.479 1.479 0 0 1-2.11.53l-1.62-1.05-.15-.09c-.47-.26-1.01-.38-1.56-.34-1.34.1-2.67-.35-3.67-1.24l-.14-.12c.58-.92 1.36-1.71 2.26-2.32.25-.18.51-.35.79-.49.14-.07.28-.15.43-.23 1.13-.64 2.59-1.58 4.27-2.95ZM41.9 33.86c-.27.52-.52 1.06-.78 1.62-.34.73-.64 1.47-.94 2.22a49.592 49.592 0 0 0-1.25 3.54c-.42 1.32-.78 2.58-1.08 3.7l-.28.26c-.43.4-1.07.48-1.58.19-.47-.26-.74-.77-.68-1.3l.08-.95c.09-1-.14-2-.66-2.86l-1.89-1.91c-.45-.74-.15-1.71.63-2.07l.37-.22a15.45 15.45 0 0 1 7.03-2.15l1.01-.06Z" class="cls-9"/><path d="m21.23 72.67 5.2-3.93M22.84 73.15l3.91-3.51M24.19 73.9l3.07-3.44M25.45 74.26l2.38-3.32M26.7 74.95l1.85-2.97M32.33 79.2l.92-6.46M31.14 78.02l1.17-5.12M29.82 77.2l1.53-4.35M28.9 76.28l1.76-3.7M27.69 75.52l1.71-3.06M33.97 80.57l.37-7.89M35.29 36.99l6.17-1.51M40.48 37.68l-4.14.62M39.66 39.74l-2.54-.31M39.14 41.19l-1.27-.4M61.81 30.91l.17-3.11M60.54 29.38l-.04 1.82M59.31 31.69l.02-.96M53.78 49.69l.14.59M53.92 50.29l1.02 4.2M53.58 53.17l-.48-2.55M52.48 53.36l.03-1.95M45.31 65.14l-1.44-4.91M43.63 64.22l-.98-3.18M41.99 63.83l-.88-1.9M40.56 63.62l-.69-1" class="cls-5"/><path d="M28.76 44.52c.79 7.54-2.52 13.74-9.54 13.74S9.01 52.08 9.68 44.52c.69-7.81 5.26-13.74 9.54-13.74s8.67 5.34 9.54 13.74Z" style="fill:#fee4cb;stroke-linecap:round;stroke-linejoin:round;stroke:#000"/><path d="M113.73 32.06v.41c-.03.17-.07.35-.11.52-.08.26-.18.49-.32.7-.61.97-1.75 1.52-2.61 1.95-2.16 1.05-3.8.92-6.16 1.14-3.21.31-5.59 1.09-7.09 1.57-4.72 1.54-5.61 3.18-9.95 3.87-1.59.25-3.32.33-4.73-.65-.67-.46-.85-.88-1.64-2.07-2.2-3.32-3.87-5.84-6.16-7.52-.31-.23-.95-.67-1.44-1.5-.07-.11-.27-.46-.43-.93-.18-.52-.32-1.18-.15-1.83l.08-.25c.33-.87 1.3-1.33 3.22-2.22 2.14-.99 2.43-.76 3.51-1.5 1.51-1.03 1.23-1.66 2.58-2.58 1.7-1.15 3.6-1.14 4.59-1.14 1.14 0 2.26.29 4.51.86 2.46.63 2.92.94 4.22.93 1.62-.02 1.93-.51 3.22-.64 1.27-.13 2.24.21 6.59 2.72 5.01 2.89 5.74 3.59 6.37 4.37.7.88 1.85 2.3 1.9 3.8Z" style="fill:#fff;stroke-miterlimit:10;stroke:#000"/><path d="m113.72 32.48-.06 2.25-.04 1.49c-.43 1.42-1.93 2.13-3.01 2.65-2.22 1.05-3.89.92-6.31 1.14-3.3.31-5.74 1.09-7.27 1.57-4.84 1.54-5.76 3.18-10.21 3.87-1.63.25-3.41.33-4.85-.65-.68-.46-.88-.88-1.69-2.07-2.26-3.31-3.97-5.84-6.32-7.52-.32-.23-.97-.67-1.46-1.5-.15-.25-1.03-1.71-.52-3.01l.96-2.97c-.16.65-.03 1.31.15 1.83.16.46.36.82.43.93.49.83 1.13 1.27 1.44 1.5 2.29 1.69 3.96 4.2 6.16 7.52.79 1.2.98 1.61 1.64 2.07 1.41.98 3.14.9 4.73.65 4.34-.69 5.23-2.33 9.95-3.87 1.49-.48 3.88-1.26 7.09-1.57 2.36-.23 4-.1 6.16-1.14.86-.42 2-.98 2.61-1.95.14-.21.24-.45.32-.7.05-.17.08-.35.1-.52Z" style="fill:#ff6d75;stroke-miterlimit:10;stroke:#000"/><path d="M113.73 31.89v.17" class="cls-3"/><path d="M94.77 24.78c-.1-1.19-1.65-1.86-2.34-2.16-.3-.13-.87-.35-3.89-.66-1.47-.15-2.21-.23-2.58-.18-.64.08-1.42.3-3.89 1.92-2.53 1.66-2.22 1.76-3.53 2.46-2.1 1.11-3.09.93-3.47 1.86-.5 1.2.63 2.72.84 3 .79 1.06 1.83 1.48 2.34 1.68 2.45.95 4.78.05 5.33-.18.53-.22.48-.27 3.65-2.82 3.19-2.56 3.67-2.85 4.49-2.94.9-.09 1.71.12 2.4-.48.39-.34.71-.91.66-1.5ZM109.57 29.63c.18-.88-.95-1.79-2.16-2.76-1.59-1.27-3.11-1.86-4.67-2.46-1.09-.42-.45-.09-3.41-1.02-1.55-.49-2.21-.73-2.76-.36-.47.32-.73 1.01-.6 1.56.14.6.66.6.9 1.14.43.97-.61 2.49-1.44 3.29-1.07 1.04-1.73.86-2.34 1.92-.34.6-.45 1.2-.54 1.74-.15.9-.26 1.51.06 1.86.54.59 1.96.08 2.52-.12 1.51-.54 1.71-1.15 3.53-2.28 1.42-.88 2.33-1.45 3.59-1.5 1.37-.05 1.53.56 3.06.66 1.76.11 4.02-.56 4.25-1.68Z" class="cls-12"/><path d="M110.29 30.89c-1.95.65-2.17 1.23-3.47 1.62-.45.13-1.64.42-3 .12-1.3-.29-1.43-.83-2.28-.78-1.01.06-1.29.85-2.76 1.92-1.05.76-1.93 1.09-3.47 1.68-1.42.54-2.54.79-4.07 1.14-1.3.3-2.32.47-4.01.96-1.9.55-2.37.84-2.46 1.26-.13.59.54 1.29 1.14 1.62 1.15.63 2.52.15 3.77-.3.43-.15.96-.37 3.17-1.62 2.17-1.22 1.86-1.16 2.4-1.38 2.04-.84 2.79-.14 4.91-.9 1.56-.56 1.19-.95 2.76-1.5 1.71-.6 3.47-.6 4.79-.6 1.58 0 2.18.17 3-.3.11-.06 1.27-.76 1.38-1.92.01-.16.07-.78-.3-1.08-.34-.28-.88-.15-1.5.06ZM95.13 27.66c-.5 1.37-1.82 1.42-3.47 2.88-1.26 1.11-.82 1.37-2.04 2.4-.71.61-1.78 1.05-3.89 1.92-2.54 1.04-3.38 1.21-4.31 1.02-.06-.01-1.42-.3-1.44-.78-.01-.31.55-.61 3-1.44 3.63-1.22 3.93-1.09 4.73-1.74.96-.78.73-1.12 2.34-2.64.23-.21.96-.89 2.04-1.62 1.04-.71 2.56-1.73 3.06-1.32.36.3.03 1.24 0 1.32Z" class="cls-12"/><path d="M91.84 34.01c.19.35-.76 1.36-1.8 1.98-1.3.77-1.74.33-3.18.96-1.98.87-2.29 2.21-3.35 2.04-.84-.13-1.61-1.12-1.44-1.74.2-.75 1.59-.34 4.01-1.38 1.51-.64 2.06-1.26 3.89-1.74.62-.16 1.68-.43 1.86-.12Z" class="cls-12"/><path d="m18.47 12.22 69.66 72.81M88.13 12.22 18.47 85.03" class="cls-11"/></svg>