<svg xmlns="http://www.w3.org/2000/svg" id="Calque_1" viewBox="0 0 200 128"><defs><style>.cls-1,.cls-2,.cls-3,.cls-5,.cls-6,.cls-7{stroke:#000;stroke-linecap:round;stroke-linejoin:round}.cls-1,.cls-3{fill:#d6d6d6}.cls-2,.cls-6,.cls-7{fill:none}.cls-3,.cls-5,.cls-6{stroke-width:2px}.cls-5{fill:#fce9b9}.cls-7{stroke-width:.25px}</style></defs><path d="m151.86 28.39-.86 3.13-5.45-1.51.88-3.13c.15-.53.7-.84 1.23-.69l.73.2 2.06.58.74.2c.53.15.84.7.69 1.23Z" class="cls-1"/><path d="M150.66 26.54c-.05.16-.13.3-.23.43l-2.06-.58c-.01-.15-.01-.31.04-.48.18-.63.81-.99 1.44-.81.61.18.98.81.81 1.44Z" class="cls-1"/><path d="M70.16 56.42c-14.01 0-25.36 11.36-25.36 25.36s11.35 25.36 25.36 25.36 25.36-11.35 25.36-25.36-11.36-25.36-25.36-25.36Zm0 45.07c-10.89 0-19.71-8.82-19.71-19.71s8.82-19.71 19.71-19.71 19.71 8.83 19.71 19.71-8.83 19.71-19.71 19.71Z" class="cls-3"/><circle cx="70.16" cy="81.78" r="19.71" class="cls-6" transform="rotate(-22.5 70.147 81.79)"/><circle cx="70.16" cy="81.78" r="19.71" class="cls-6" transform="rotate(-22.5 70.147 81.79)"/><path d="M70.15 62.08v39.42M89.46 81.79H50.84M56.74 95.2l26.83-26.83M83.7 95.33 56.61 68.24M88.24 89.62 52.06 73.96M88.4 74.33 51.9 89.24M62.32 99.88 77.99 63.7M77.61 100.04 62.7 63.54" class="cls-2"/><path d="M164.56 56.42c-14 0-25.36 11.36-25.36 25.36s11.36 25.36 25.36 25.36 25.36-11.35 25.36-25.36-11.35-25.36-25.36-25.36Zm0 45.07c-10.88 0-19.71-8.82-19.71-19.71s8.83-19.71 19.71-19.71 19.71 8.83 19.71 19.71-8.82 19.71-19.71 19.71Z" class="cls-3"/><circle cx="164.56" cy="81.78" r="19.71" class="cls-6" transform="rotate(-22.5 164.56 81.782)"/><circle cx="164.56" cy="81.78" r="19.71" class="cls-6" transform="rotate(-22.5 164.56 81.782)"/><path d="M164.56 62.08v39.42M183.87 81.79h-38.62M151.15 95.2l26.83-26.83M178.11 95.33l-27.1-27.09M182.65 89.62l-36.18-15.66M182.81 74.33l-36.5 14.91M156.73 99.88l15.66-36.18M172.01 100.04l-14.9-36.5" class="cls-2"/><path d="M115.46 88.13c-.65.23-1.35.34-2.08.34s-1.43-.11-2.08-.34h4.15ZM122.05 72.23l-3.45 5.49a6.588 6.588 0 0 0-5.22-2.54c-3.67 0-6.64 2.98-6.64 6.64 0 .44.04.88.13 1.29h-6.34c-.04-.43-.06-.85-.06-1.29 0-3.87 1.7-7.34 4.39-9.71 1.25-1.1 2.73-1.98 4.34-2.53 1.31-.45 2.73-.7 4.19-.7 3.34 0 6.38 1.26 8.67 3.34Z" class="cls-6"/><path d="M120.02 81.83c0 .44-.04.88-.13 1.29a6.68 6.68 0 0 1-4.03 4.87c-.12.06-.26.11-.41.15h-4.15a6.639 6.639 0 0 1-4.44-5.02 6.07 6.07 0 0 1-.13-1.29c0-3.67 2.98-6.64 6.64-6.64 2.13 0 4 .99 5.22 2.54.9 1.13 1.43 2.55 1.43 4.1Z" class="cls-6"/><path d="M126.32 81.83c0 7.13-5.79 12.92-12.94 12.92-4.84 0-9.07-2.66-11.27-6.62h9.2c.65.23 1.35.34 2.08.34s1.43-.11 2.08-.34h2.75l2.26-2.59 5.57-6.38c.18.86.28 1.75.28 2.66Z" class="cls-6"/><path d="M111.3 88.13h4.15c-.65.23-1.35.34-2.08.34s-1.43-.11-2.08-.34ZM120.47 83.11v2.43l-2.26 2.59h-2.75c.15-.04.29-.09.41-.15a6.662 6.662 0 0 0 4.03-4.87h.58ZM113.38 81.82v22.21" class="cls-6"/><path d="M113.38 101.2h12.93v4.08h-12.93z" class="cls-3"/><path d="M104.49 35.37h0a2.96 2.96 0 0 1-2.96 2.96h-19.5v-7.97h12.53l7.76 2.15c1.28.36 2.17 1.52 2.17 2.86Z" class="cls-5"/><path d="m166.88 80.85-4.75 1.61-13.72-28.32-.16-.4-.35.4-21.86 25.02-5.57 6.38v-2.43h-.58c.09-.41.13-.85.13-1.29 0-1.55-.53-2.98-1.43-4.1l3.45-5.49 11.33-18.09h-31.56l7.37 15.45c-1.61.55-3.09 1.43-4.34 2.53l-9.13-19.13-12.89 16.56c-4.3 5.52-.36 13.56 6.63 13.56h17.4a6.654 6.654 0 0 0 4.44 5.02H67.34c-.18 0-.34-.01-.5-.05h-.03c-.43-.05-.85-.23-1.21-.5a2.523 2.523 0 0 1-.44-3.53l28.12-36.13-4.58-9.58h5.55l2.46 5.15 1.49 3.13h47.04l-6.08-14.5-.23-.58-6.81-1.88.95-3.5h.01l23.46 6.48-.96 3.49-10.52-2.9 21.8 47.62Z" style="fill:#8987f3;stroke-width:2px;stroke:#000;stroke-linecap:round;stroke-linejoin:round"/><path d="m167.99 35.04-.19.7-.97 3.5-.19.7-11.22-3.1.18-.7.97-3.49.2-.72 11.22 3.11zM133.3 25.47l-.19.7h-.01l-.95 3.5h-.02l-.18.7-11.23-3.1.19-.7.97-3.49.2-.7 11.22 3.09z" class="cls-5"/><path d="M148.41 54.14h-.51l.35-.4.16.4zM120.47 83.11v2.43l-2.26 2.59h-2.75c.15-.04.29-.09.41-.15a6.662 6.662 0 0 0 4.03-4.87h.58Z" class="cls-6"/><path d="M120.47 83.11v2.43l-2.26 2.59h-2.14l-.2-.15a6.662 6.662 0 0 0 4.03-4.87h.58Z" class="cls-6"/><path d="m126.31 100.36-1.35-2.11-1.13 2.11-1.43-2.11-1.24 2.11-1.31-2.11-.98 2.11-1.22-2.11-1.52 2.11-1.32-2.11-1.43 2.11" class="cls-2"/><path d="m124.25 22.97-1.36 4.9M125.45 22.97l-1.36 4.9M126.66 22.97l-1.36 4.9M127.87 22.97l-1.36 4.9M129 23.29l-1.36 4.89M130.03 23.91l-1.36 4.89M131.15 24.22l-1.36 4.89M158.81 33l-1.36 4.89M160.02 33l-1.36 4.89M161.23 33l-1.36 4.89M162.44 33l-1.36 4.89M163.56 33.31l-1.36 4.89M164.6 33.93l-1.36 4.9M165.72 34.25l-1.36 4.89" class="cls-7"/><path d="M17.23 49.58h17.19M10.68 56.43h17.19M13.34 63.28h17.19" class="cls-2"/></svg>