<svg xmlns="http://www.w3.org/2000/svg" id="Calque_1" data-name="Calque 1" viewBox="0 0 200 128"><defs><style>.cls-1,.cls-2,.cls-3,.cls-5,.cls-6,.cls-7{stroke:#000;stroke-linecap:round;stroke-linejoin:round}.cls-1,.cls-3,.cls-9{fill:#d6d6d6}.cls-2,.cls-6,.cls-7{fill:none}.cls-3,.cls-5,.cls-6{stroke-width:2px}.cls-5{fill:#fce9b9}.cls-7{stroke-width:.25px}</style></defs><path d="m129.18 38.96-.66 2.38-4.15-1.15.67-2.38c.11-.4.53-.64.93-.52l.55.15 1.57.44.56.15c.4.11.64.53.52.93ZM128.26 37.55c-.04.12-.1.23-.17.32l-1.57-.44c0-.11 0-.24.03-.36.13-.48.62-.75 1.09-.62.47.13.74.62.62 1.09Z" class="cls-1"/><path d="M67.03 60.28c-10.66 0-19.29 8.64-19.29 19.29s8.63 19.29 19.29 19.29 19.29-8.63 19.29-19.29-8.64-19.29-19.29-19.29Zm0 34.28c-8.28 0-14.99-6.71-14.99-14.99s6.71-14.99 14.99-14.99 14.99 6.72 14.99 14.99-6.72 14.99-14.99 14.99Z" class="cls-3"/><circle cx="67.03" cy="79.57" r="14.99" class="cls-6" transform="rotate(-22.5 67.033 79.577)"/><circle cx="67.03" cy="79.57" r="14.99" class="cls-6" transform="rotate(-22.5 67.033 79.577)"/><path d="M67.02 64.58v29.99M81.71 79.57H52.34M56.82 89.78l20.41-20.41M77.33 89.88 56.72 69.27M80.79 85.53 53.26 73.62M80.9 73.9 53.14 85.24M61.07 93.34l11.91-27.53M72.69 93.45 61.35 65.69" class="cls-2"/><path d="M138.83 60.28c-10.65 0-19.29 8.64-19.29 19.29s8.64 19.29 19.29 19.29 19.29-8.63 19.29-19.29-8.63-19.29-19.29-19.29Zm0 34.28c-8.28 0-14.99-6.71-14.99-14.99s6.72-14.99 14.99-14.99 14.99 6.72 14.99 14.99-6.71 14.99-14.99 14.99Z" class="cls-3"/><circle cx="138.83" cy="79.57" r="14.99" class="cls-6" transform="rotate(-22.5 138.844 79.567)"/><circle cx="138.83" cy="79.57" r="14.99" class="cls-6" transform="rotate(-22.5 138.844 79.567)"/><path d="M138.84 64.58v29.99M153.52 79.57h-29.37M128.63 89.78l20.41-20.41M149.14 89.88l-20.61-20.61M152.6 85.53l-27.53-11.91M152.72 73.9l-27.76 11.34M132.88 93.34l11.91-27.53M144.51 93.45l-11.34-27.76" class="cls-2"/><path d="M101.48 84.4c-.49.17-1.03.26-1.58.26s-1.08-.09-1.58-.26h3.16ZM106.5 72.3l-2.63 4.18a5.005 5.005 0 0 0-3.97-1.93c-2.79 0-5.05 2.26-5.05 5.05 0 .33.03.67.1.98h-4.82a9.777 9.777 0 0 1 3.29-8.36c.95-.84 2.07-1.5 3.3-1.92 1-.34 2.07-.53 3.19-.53 2.54 0 4.85.96 6.59 2.54Z" class="cls-6"/><path d="M104.96 79.6c0 .33-.03.67-.1.98a5.055 5.055 0 0 1-3.06 3.7c-.09.05-.2.09-.31.11h-3.16a5.058 5.058 0 0 1-3.38-3.82c-.07-.31-.1-.65-.1-.98 0-2.79 2.26-5.05 5.05-5.05 1.62 0 3.04.75 3.97 1.93.69.86 1.08 1.94 1.08 3.12Z" class="cls-6"/><path d="M109.75 79.6c0 5.42-4.41 9.83-9.84 9.83-3.68 0-6.9-2.03-8.57-5.03h6.99c.49.17 1.03.26 1.58.26s1.08-.09 1.58-.26h2.09l1.72-1.97 4.23-4.85c.13.66.21 1.33.21 2.03Z" class="cls-6"/><path d="M98.33 84.4h3.16c-.49.17-1.03.26-1.58.26s-1.08-.09-1.58-.26ZM105.3 80.58v1.85l-1.72 1.97h-2.09c.11-.03.22-.07.31-.11a5.055 5.055 0 0 0 3.06-3.7h.44ZM99.91 79.6v16.89" class="cls-6"/><path d="M99.91 94.34h9.83v3.1h-9.83z" class="cls-3"/><path d="M93.14 44.27h0c0 1.25-1.01 2.26-2.26 2.26H76.04v-6.06h9.53l5.91 1.63c.98.27 1.65 1.16 1.65 2.17Z" class="cls-5"/><path d="m140.6 78.86-3.62 1.23-10.44-21.54-.12-.3-.27.3-16.62 19.03-4.23 4.85v-1.85h-.44c.07-.31.1-.65.1-.98 0-1.18-.4-2.26-1.08-3.12l2.63-4.18 8.62-13.76H91.12l5.61 11.75a9.738 9.738 0 0 0-3.3 1.92l-6.95-14.55-9.8 12.6c-3.27 4.2-.28 10.32 5.04 10.32h13.24c.35 1.8 1.67 3.25 3.38 3.82H64.91c-.13 0-.26 0-.38-.04h-.02c-.32-.04-.65-.17-.92-.38a1.91 1.91 0 0 1-.33-2.68l21.39-27.48-3.48-7.29h4.23l1.87 3.92 1.13 2.38h35.78l-4.62-11.03-.18-.44-5.18-1.43.72-2.66h0l17.84 4.93-.73 2.66-8-2.21 16.58 36.22Z" style="stroke-width:2px;fill:#ff6d75;stroke-linecap:round;stroke-linejoin:round;stroke:#000"/><path d="m141.44 44.01-.14.54-.74 2.66-.14.53-8.54-2.36.14-.53.74-2.65.15-.55 8.53 2.36zM115.06 36.73l-.15.54h-.01l-.72 2.66h-.01l-.14.53-8.54-2.36.14-.53.74-2.65.15-.54 8.54 2.35z" class="cls-5"/><path d="M126.55 58.54h-.39l.27-.3.12.3zM105.3 80.58v1.85l-1.72 1.97h-2.09c.11-.03.22-.07.31-.11a5.055 5.055 0 0 0 3.06-3.7h.44Z" class="cls-6"/><path d="M105.3 80.58v1.85l-1.72 1.97h-1.63l-.15-.11a5.055 5.055 0 0 0 3.06-3.7h.44Z" class="cls-6"/><path d="m108.17 34.84-1.03 3.72M109.09 34.84l-1.03 3.72M110.01 34.84l-1.03 3.72M110.93 34.84l-1.03 3.72M111.78 35.07l-1.03 3.73M112.57 35.55l-1.03 3.72M113.42 35.79l-1.03 3.72M134.46 42.46l-1.03 3.72M135.38 42.46l-1.03 3.72M136.3 42.46l-1.03 3.72M137.22 42.46l-1.03 3.72M138.08 42.7l-1.04 3.72M138.86 43.17l-1.03 3.73M139.72 43.41l-1.04 3.72" class="cls-7"/><path d="M58.7 94.57c0 3.51-2.85 6.35-6.36 6.35s-6.36-2.84-6.36-6.35 2.85-6.36 6.36-6.36 6.36 2.85 6.36 6.36Z" style="fill:#ff6d75"/><path d="M52.34 103.75c-5.06 0-9.18-4.12-9.18-9.18s4.12-9.18 9.18-9.18 9.18 4.12 9.18 9.18-4.12 9.18-9.18 9.18Zm0-14.54c-2.96 0-5.36 2.4-5.36 5.36s2.4 5.35 5.36 5.35 5.36-2.4 5.36-5.35-2.4-5.36-5.36-5.36Z" class="cls-9"/><path d="M52.34 86.39c4.52 0 8.18 3.66 8.18 8.18s-3.66 8.18-8.18 8.18-8.18-3.66-8.18-8.18 3.66-8.18 8.18-8.18m0 14.53c3.51 0 6.36-2.84 6.36-6.35s-2.85-6.36-6.36-6.36-6.36 2.85-6.36 6.36 2.85 6.35 6.36 6.35m0-16.53c-5.61 0-10.18 4.57-10.18 10.18s4.57 10.18 10.18 10.18 10.18-4.57 10.18-10.18-4.57-10.18-10.18-10.18Zm0 14.53c-2.4 0-4.36-1.95-4.36-4.35s1.96-4.36 4.36-4.36 4.36 1.96 4.36 4.36-1.96 4.35-4.36 4.35Z"/><path d="M52.34 95.07c-.14 0-.28-.06-.38-.18a.5.5 0 0 1 .04-.69l17.75-16.62c.09-.09.21-.13.34-.13h.02c.13 0 .26.07.35.17l1.47 1.65c.09.1.14.24.12.38s-.08.26-.19.35L52.64 94.97a.51.51 0 0 1-.31.11Z" class="cls-9"/><path d="m70.09 77.95 1.47 1.65-19.22 14.97 17.75-16.62m0-1c-.25 0-.5.1-.68.27L51.66 93.84c-.39.37-.42.97-.08 1.38.2.23.48.35.76.35.22 0 .43-.07.61-.21l19.22-14.97a.97.97 0 0 0 .38-.7.968.968 0 0 0-.25-.76l-1.47-1.65c-.18-.2-.43-.32-.7-.34h-.05Z"/><path d="M-4918.67-678.71h6562.35v1176.7h-6562.35z" style="stroke:#fff;stroke-width:8px;fill:none;stroke-linecap:round;stroke-linejoin:round"/></svg>