<svg xmlns="http://www.w3.org/2000/svg" id="Calque_1" data-name="Calque 1" viewBox="0 0 128 128"><defs><style>.cls-1{fill:#d6d6d6}.cls-1,.cls-2,.cls-3,.cls-7,.cls-8{stroke:#000;stroke-linecap:round;stroke-linejoin:round}.cls-2{fill:#8987f3}.cls-3{fill:#87ccf3}.cls-7{fill:#fff}.cls-8{fill:none}.cls-7,.cls-8{stroke-width:2px}</style></defs><path d="m21.66 48.66 1.62.94-1.26.13-.36-1.07z" style="fill:#fff;stroke:#000;stroke-linecap:round;stroke-linejoin:round"/><path d="m17.45 85.68-.5 2.05.5 4.65h1.6l.25.39v1.13h12.93l.3-.61 3.3-.05 1.88-2.15-20.26-5.41z" class="cls-2"/><path d="M32.53 78.62h10.91v13.07H32.53z" class="cls-2"/><path d="M20.26 44.36c-3.43 2.66-10.73 4.26-12.28 4.58l-.63-1.9c1.57-.32 8.85-1.93 12.28-4.59l.03.09.6 1.81Z" style="fill:#ff6d75;stroke:#000;stroke-linecap:round;stroke-linejoin:round"/><path d="M19.63 42.46c-3.43 2.66-10.71 4.26-12.28 4.59l-.13-.38c-.36-1.07.23-2.23 1.3-2.59l8.55-2.83c1.04-.34 2.17.2 2.56 1.21ZM23.93 55.43 11.5 59.55l-3.51-10.6c1.55-.32 8.85-1.93 12.28-4.58l3.66 11.07Z" class="cls-1"/><path d="M22.04 49.71s1.06-.6 1.31 0 3.55 11.71 3.55 11.71l5.25 17.2h.96v13.07H20.92c-1.04 0-1.97-.67-2.29-1.67L8.56 58.85l1.94-2.6 11.54-6.53ZM9.68 54.07l-1.12 4.78 1.94-2.61-.82-2.17z" class="cls-3"/><path d="M33.11 82.25h10.33M33.11 87.37h10.33" class="cls-1"/><path d="M52.67 82.42c-.04-.43-.09-.87-.13-1.32-.97-8.86-5.13-9.51-5.26-11.76-.11-2.27 7.58-6.39 7.34-16.14-.04-1.06 0-2.06.11-3.03.74-7.99 5.16-12.87 7.82-15.4 0 0 9.01 16.07 10.94 18.65 1.91 2.58 8.25 10.14 13.06 8.43 4.4-1.56 8.21-4.81 11.92-2.36 3.68 2.43 3.92 10.4-.48 12.96 0 0 4.29 7.91 5.94 13.39l7.86 20.23M53.43 89.8c.69 3.96 2.3 6.43 7.63 6.72 8.06.41 16.92-1.62 18.87-2.73L68.3 112.07" class="cls-7"/><path d="M53.99 58.21S47.85 47 49.46 38.31c1.94-10.5 11.42-10.57 11.42-10.57 5.23-8.27 27.62-12.78 48.04-1.23 14.92 8.44 12.2 22.76 7.23 31.4" class="cls-8"/><path d="M119.75 50.33s3.32 10.25-2.12 18.19c-4.75 6.92-10.34 14.26-11.4 22.32" class="cls-8"/><ellipse cx="65.7" cy="61.35" rx="1.31" ry="2.86" style="stroke-width:2px;stroke:#000;stroke-linecap:round;stroke-linejoin:round" transform="rotate(-4.12 65.716 61.38)"/><path d="m94.8 65.32-2.14.83" class="cls-7"/><path d="M52.67 82.42c1.26.09 2.32.28 3.14.48 1.82.43 3.51.84 3.77 1.88.26 1.15-1.39 2.45-2.25 3.12a10.666 10.666 0 0 1-3.9 1.91" class="cls-8"/><path d="m33.92 21.44-6.25 18.67" style="fill:none;stroke:#000;stroke-linecap:round;stroke-linejoin:round"/><path d="m24.84 35.67.92-.41 2.03 4.49 4.33-2.36.48.88-5.27 2.87-2.49-5.47z"/></svg>