<svg xmlns="http://www.w3.org/2000/svg" id="Calque_1" data-name="Calque 1" viewBox="0 0 128 128"><defs><style>.cls-2{stroke:#000;stroke-width:2px;stroke-linecap:round;stroke-linejoin:round;fill:#fff}</style></defs><path d="M95.77 17.78h2.55c1.55 0 2.81-1.26 2.81-2.81v-.71c0-1.55-1.26-2.81-2.81-2.81H29.68c-1.55 0-2.81 1.26-2.81 2.81v.71c0 1.55 1.26 2.81 2.81 2.81h2.55M34.13 42.93l-1.91-25.15H95.77l-1.89 25.15" class="cls-2"/><path d="M93.88 42.93 90.81 83.6l-2.11 27.87a5.47 5.47 0 0 1-5.46 5.07H44.76c-2.86 0-5.25-2.21-5.47-5.07l-2.1-27.87-3.07-40.67h59.75Z" style="stroke-linecap:round;stroke-linejoin:round;stroke:#000;stroke-width:2px;fill:#bfe6fc"/><path d="M37.2 83.6h-.01l-3.06-40.67L37.2 83.6z" style="fill:none;stroke-linecap:round;stroke-linejoin:round;stroke:#000;stroke-width:2px"/><path d="M-4801.4-195.18h6562.35v1176.7H-4801.4z" style="stroke:#fff;stroke-width:8px;fill:none;stroke-linecap:round;stroke-linejoin:round"/></svg>