<svg xmlns="http://www.w3.org/2000/svg" id="Calque_1" data-name="Calque 1" viewBox="0 0 128 128.13"><defs><style>.cls-1{fill:#87ccf3}.cls-1,.cls-10,.cls-11,.cls-2,.cls-4,.cls-5,.cls-6,.cls-7{stroke:#000}.cls-1,.cls-2,.cls-4,.cls-5{stroke-linecap:round;stroke-linejoin:round}.cls-2{fill:#fce9b9}.cls-7{fill:#ff6d75}.cls-4{fill:#f3d587}.cls-11,.cls-5,.cls-6{fill:none}.cls-6{opacity:.4}.cls-10,.cls-11,.cls-6,.cls-7{stroke-miterlimit:10}.cls-7{stroke-width:.5px}.cls-10{fill:#fab0b4}</style></defs><path d="m32.79 82.93-1 22.77c-.09.53-.33 2.24-.69 4.76-.02.09-.02.16-.04.25h0c-.29 2.11-.66 4.73-1.06 7.68-.13.92-.26 1.88-.39 2.87-7.31-.56-13.12-1.75-16.88-2.72.02-.39.05-.76.09-1.15.7-8.46 1.77-16.97 3.75-25.65.02-.1.05-.19.08-.29h0c.06-.33.14-.64.23-.97.02-.08.03-.16.05-.25.04-.17.09-.34.13-.52 5.55-1.45 8.01-4.82 9.09-7.36 1.88.28 4.12.49 6.65.57Z" class="cls-1"/><path d="M49.82 119.55v1.33c-6.13.69-11.82.8-16.89.57-.06-1-.14-1.97-.2-2.9-.19-2.72-.37-5.17-.51-7.21-.02-.45-.05-.87-.09-1.27v-.02c-.16-2.29-.28-3.85-.34-4.36l1-22.77c2.55.08 5.4 0 8.48-.33.41 3.23 1.87 8.13 6.87 9.04v.02c.05.42.12.84.16 1.26 1.16 8.8 1.5 17.68 1.52 26.63Z" class="cls-1"/><path d="M32.79 82.93c-2.53-.08-4.76-.29-6.65-.57-1.08 2.54-3.54 5.9-9.09 7.36.49-2.02 1.04-4.04 1.63-6.1.04-.14.09-.28.13-.42.06-.23.14-.45.2-.68.04-.14.09-.29.14-.43h0c.11-.39.23-.75.36-1.13.24-.76.49-1.54.75-2.31 2.57.2 4.75.4 6.72.55.4.03.78.06 1.16.09.1.01.19.02.29.02l1.15.1c.99.06 1.94.13 2.87.17.16.01.31.02.47.02.21.02.43.02.66.03.17.01.34.02.51.02.49.02 1 .04 1.51.05l1.16.03h.72l1.15.01c.79 0 1.61 0 2.47-.01 1.43-.01 2.99-.04 4.73-.11.17.74.36 1.5.52 2.24.08.3.14.59.2.89.03.19.08.38.11.56.04.19.09.39.12.57.04.19.09.39.12.57.4 1.96.73 3.92 1.03 5.88.07.44.13.87.19 1.3-5-.91-6.46-5.82-6.87-9.04-3.08.33-5.93.41-8.48.33Z" class="cls-1"/><path d="M46.37 81.87c-1.75.32-3.46.57-5.1.73-3.08.33-5.93.41-8.48.33-2.53-.08-4.76-.29-6.65-.57-4.01-.55-6.42-1.33-6.63-1.4" class="cls-1"/><path d="m32.79 82.93.08-1.52.07-1.81M26.15 82.36c.18-.41.32-.81.43-1.16.38-1.18.42-2 .42-2M41.27 82.6c-.04-.32-.08-.62-.1-.9-.1-1.17-.05-1.96-.05-1.96" class="cls-5"/><path d="M58.12 40.5c-.19-.12-.39-.25-.6-.4l-.33-.21c-.18-.12-.38-.24-.57-.37-.02-.01-.04-.02-.05-.03-.28-.17-.58-.36-.89-.55-2.96-1.8-7.34-4.25-12.38-6.48-.32-.14-.64-.28-.97-.42-.39-.17-.79-.33-1.18-.5l-.39-.16c-.5.38-1.02.72-1.58 1.01-1.16.61-2.4 1-3.67 1.22-1.72.15-3.45.15-5.18.03-1.42-.2-2.84-.46-4.01-1.33-.33-.24-.61-.53-.86-.84l-.4.13c-.45.15-.89.31-1.33.48l-.99.38c-4.86 1.91-9.29 4.44-12.27 6.33-.31.2-.61.39-.89.57-.1.07-.2.13-.3.2l-.09.06-.79.54-.1.07c-1.06.74-1.66 1.21-1.66 1.26.01 0 .23.8.65 2.05.04.12.08.24.13.37.07.2.14.41.22.63.04.12.09.24.13.37.68 1.85 1.66 4.22 2.95 6.44.31.5.61 1.01.95 1.5l1.52-.75.92-.46.07-.03.47-.23.91-.45.39-.19h0l.06-.04.97-.47-.03.58v.05c-.04.73-.07 1.48-.1 2.26 0 .14-.01.28-.02.42 0 .13-.01.25-.01.39v.24l-.03 1.1h0c-.1 4.05-.1 8.51 0 12.59v.33c0 .28 0 .56.02.83 0 .09 0 .17.01.25v.02c0 .18.01.36.02.53.03.81.06 1.59.09 2.34 1.28.89 16.13 6.23 32.33.06l.1-2.38v-.03l.04-1.08c0-.25.01-.51.02-.77v-.23c.1-4.03.1-8.44 0-12.43-.01-.39-.02-.77-.04-1.14 0-.34-.02-.68-.03-1.01v-.05c0-.13-.01-.25-.02-.37v-.04c0-.18-.02-.37-.03-.55 0-.14 0-.27-.01-.4-.03-.57-.05-1.12-.08-1.65l.03.02.98.51h.02l.07.05.36.19.89.47.25.13.38.2.52.27.37.19 1.57.82c.33-.49.65-.99.94-1.5 1.3-2.24 2.29-4.6 2.96-6.46h0l.35-.99h0c.5-1.45.75-2.4.77-2.41 0-.04-.56-.46-1.56-1.12Z" class="cls-4"/><path d="M7.82 40.57s2.33 7.01 5.35 11.55M58.12 40.5s-2.47 8.55-5.03 11.66" class="cls-4"/><path d="M22.72 32.47s9.37 8.12 20.57 0M16.86 71.03s21.43 5.14 32.48-1.18" class="cls-5"/><path d="M106.5 45.15c-1.4-2.1-2.86-4.17-4.36-6.19-.23-.32-.47-.63-.71-.95v-.11c-.1-3.41-.19-7.7-.28-11.6h.02c.4-.09.79-.21 1.17-.32 1.66-.51 3.26-1.19 4.78-2.05h0c.05-.04.11-.07.17-.11l1.16-.72.14-1.54v-.26c.01 0 .03-.02.04-.02h0c.06-.04.12-.08.17-.1l1.16-.72.15-1.53c.08-1.78-.19-3.58-.77-5.26h0c-.14-.4-.29-.8-.47-1.17-.26-.58-.56-1.14-.9-1.68 0 0 0-.01-.01-.02 0-.02-.02-.04-.03-.05-.01-.02-.02-.03-.04-.05l-.54-.77s-.03-.05-.05-.07c0-.01-.01-.02-.02-.03l-.01-.02-1.26.31c-6.03 1.47-12.15 2.54-18.31 3.22l-1.22.12c-4.68.48-9.39.73-14.1.75-1.7 0-3.39-.03-5.1-.08l-1.29-.05-.52 1.15c-.19.48-.34.96-.47 1.46l-.26 1.2c-.35 2.02-.24 4.12.29 6.11h0l.48 1.47c.01 0 .03 0 .04.01l1.37.47h.04s.02.01.03 0h0c.14.05.29.09.43.12 0 .04.01.07.02.11l.48 1.47 1.29.44c.06.02.13.04.19.06h0c1.58.48 3.2.79 4.84.92.39.03.77.06 1.16.07.02.11.04.21.07.32h0c.75 3.72 1.58 7.76 2.22 11 .04.22.09.45.13.66-.07.17-.15.33-.22.5h0c-1.04 2.34-2.01 4.7-2.92 7.1-3.69 9.7-6.31 19.8-7.83 30.09l-.19 1.26h0c.38-.09.77-.1 1.16-.07.75.05 1.53.28 2.26.56.39.15.76.31 1.12.47.26.12.51.23.75.34 1.89.86 4.14 1.72 6.27.91.04-.01.06-.03.1-.04.48-.2.94-.51 1.41-.84 1.04-.73 2.08-1.53 3.38-1.24.86.2 1.6.69 2.42.98.59.21 1.22.33 1.85.31.18 0 .36 0 .53-.03.23-.03.46-.08.68-.13 1.54-.4 2.87-1.31 4.39-1.75.05-.01.1-.02.16-.03.24-.07.47-.11.7-.12h.07c.12-.03.23-.04.35-.04H94.69c.27.01.54.04.81.09 1.52.23 2.99.77 4.56.63.45-.04.89-.15 1.3-.31.34-.13.66-.3.97-.49.04-.03.09-.05.13-.09.67-.45 1.27-1.04 2.01-1.4 1.62-.77 3.22.49 4.8.89h0a4.439 4.439 0 0 0 1.4.13c1.86-.1 3.54-1.24 4.94-2.31.37-.28.77-.59 1.2-.89.32-.23.66-.46 1.01-.67.71-.41 1.46-.74 2.22-.84.41-.06.83-.06 1.25.04l-.5-1.29c-3.76-9.72-8.56-19.02-14.31-27.68Z" style="fill:#ff6d75;stroke-linecap:round;stroke-linejoin:round;stroke:#000"/><path d="m75.41 29.13-.89-6.73M101.17 26.29l-.13-4.95" class="cls-1"/><path d="M65.31 15.66s22.58 3.78 42.66-4.86M77.82 41.11s13.34 2.3 23.61-3.1" class="cls-5"/><path d="m86.48 13.44 3.66 27.85 4.13 38.05M82.23 80.12l1.83-38.53M95.59 40.26l9.69 37.28M80.46 41.44l-7.83 40.23M98.48 39.33l17.15 37.15" class="cls-5"/><path d="M40.88 17.29c-.25-3.53-1.39-7.07-4.48-9.13-1.01-.67-2.16-1.07-3.36-1.29-.15-.32-.45-.57-.79-.68-.12-.04-.24-.06-.37-.06-.11 0-.21.02-.32.04-.23.05-.42.16-.59.31a.38.38 0 0 0-.11.16h-.8c-2.19 0-4.18.73-5.59 2.44-.42.51-.8 1.19-1.13 1.96-.59 1.36-1.06 3-1.4 4.48l-.03.12c-.08.39-.17.76-.24 1.12-.01 0-.02 0-.03.01-.05.05-.11.11-.15.16-.21.22-.41.44-.61.67-1.1 1.22-2.13 2.5-3.09 3.82s-.52.72-.77 1.08l-.08.11c-.24.35.09.72.43.76 2.37.28 4.59.98 6.75 1.94 1.86.83 3.81 1.73 5.89 1.5 3.47-.39 5.5-3.24 6.94-6.16.2-.4.39-.8.57-1.2h.04c.34-.07.68-.16 1.02-.25.44-.12.87-.25 1.3-.39.36-.12.71-.24 1.05-.38-.01-.37-.03-.74-.05-1.11Z" class="cls-10"/><path d="M37.53 19.44c-12.6-.24-15.85-2.69-15.85-2.69" style="stroke:#251f2d;stroke-miterlimit:10;fill:none"/><path d="M30.87 6.64s.67.51 2.18.23" style="fill:#eb574d;stroke-miterlimit:10;stroke:#000"/><path d="M31.81 6.93s-6.91 2.51-6.86 11.09M32.21 6.95s4.61 5.36 5.35 12.47" class="cls-11"/><circle cx="33.15" cy="52.16" r="6.6" style="stroke-miterlimit:10;fill:#fce9b9;stroke:#000"/><path d="M33.15 39.8v2.55M33.15 61.96v2.55M20.79 52.16h2.55M42.95 52.16h2.55M24.41 43.42l1.8 1.8M40.08 59.09l1.81 1.81M24.39 60.88l1.83-1.79M40.24 45.39l1.83-1.78" class="cls-2"/><path d="M93.16 105.5c.04.62.11 1.24.2 1.84-.27.65-.54 1.13-.67 1.38-.38.73-.9.52-.9.52-.5-.5.69-2.68 1.37-3.75ZM94.04 100.02c-.04.13-.09.24-.13.33-.14.31-.26.62-.35.94-.43-1.36-1.04-2.73-1.63-3.89-.88-1.77-1.7-3.05-1.7-3.05-1.45 1.61-2.5 3.16-3.25 4.54-.76 1.38-1.23 2.6-1.52 3.54 0 .15-.34 2.01.49 3.17.9 1.26 2.04 3.08 1.53 3.46-.29.21-1.32-.68-1.95-2.12-.1-1.32-.18-2.45-.21-2.89 0-.15-.07-.4-.15-.73-.1-.37-.23-.84-.38-1.38.43-4.33 4.52-8.07 5.45-8.87.11-.6.34-1.04.55-.99.25.06.41.35.21.61-.1.13-.21.35-.29.54.45.51.89 1.15 1.3 1.87.76 1.31 1.42 2.87 1.9 4.38.06.18.11.37.15.55Z" class="cls-11"/><path d="M90.94 117.2c-.38.08-.74.12-1.07.12-.13 0-.25 0-.37-.02-.05 0-.1 0-.15-.01-.1 0-.21-.03-.3-.05-.11-.02-.23-.05-.33-.09-.03 0-.05-.01-.07-.02-.1-.04-.21-.07-.3-.12-.25-.11-.47-.24-.68-.4l-.21-.18c-.09-.07-.17-.15-.25-.23 0 0 0-.01-.01-.01l-.21-.24c-.07-.08-.12-.16-.18-.24 0 0 0-.01-.01-.02-.06-.09-.12-.18-.18-.28-.11-.18-.21-.38-.29-.57l-.11-.28c-.03-.08-.06-.17-.08-.25a.845.845 0 0 1-.05-.17c-.01-.04-.03-.09-.04-.13-.09-.35-.12-.66-.12-.92 0-.73-.22-3.75-.4-6.13.63 1.44 1.67 2.33 1.95 2.12.51-.38-.63-2.2-1.53-3.46-.83-1.16-.49-3.01-.49-3.17.29-.94.76-2.16 1.52-3.54s1.81-2.93 3.25-4.54c0 0 .82 1.28 1.7 3.05.59 1.16 1.2 2.53 1.63 3.89-.42 1.36-.48 2.8-.39 4.21-.68 1.07-1.87 3.25-1.37 3.75 0 0 .51.21.9-.52.12-.25.4-.73.67-1.38.15 1.09.35 2.14.48 3.07.4 2.86.82 5.97-2.9 6.78Z" class="cls-10"/><path d="M93.16 105.5c.04.62.11 1.24.2 1.84-.27.65-.54 1.13-.67 1.38-.38.73-.9.52-.9.52-.5-.5.69-2.68 1.37-3.75Z" class="cls-6"/><path d="M94.04 100.02c-.04-.18-.09-.37-.15-.55-.48-1.51-1.14-3.07-1.9-4.38-.41-.71-.85-1.35-1.3-1.87.08-.19.18-.4.29-.54.2-.26.04-.55-.21-.61-.21-.05-.44.39-.55.99-.93.8-5.03 4.53-5.45 8.87-.74-2.75-1.79-7.39.33-10.43 2.9-4.17 5.84-3.96 5.84-3.96.31 0 .6.04.87.1.01 0 .03 0 .04.01.12.03.25.07.37.12h.01c.13.05.26.12.38.19.13.07.26.15.37.25.08.06.15.12.23.2.14.13.26.28.38.43l.2.29c.23.37.42.79.57 1.23.02.07.04.13.07.2.07.21.12.44.17.67.04.14.07.28.09.43.04.24.08.48.1.73l.03.28c.02.15.03.29.04.44l.03.49c.09 2.51-.37 5.12-.84 6.4Z" class="cls-10"/><path d="M94.04 100.02c-.04.13-.09.24-.13.33-.14.31-.26.62-.35.94-.43-1.36-1.04-2.73-1.63-3.89.04-.79.06-1.56.07-2.31.76 1.31 1.42 2.87 1.9 4.38.06.18.11.37.15.55Z" class="cls-6"/><path d="M94.13 104.17c-.04 1.21-.4 2.34-.76 3.18-.27.65-.54 1.13-.67 1.38-.38.73-.9.52-.9.52-.5-.5.69-2.68 1.37-3.75.15-.22.26-.4.35-.5.35-.46.39-1.81.39-2.44.12.55.2 1.09.23 1.6Z" class="cls-7"/><path d="M90.98 92.69c-.1.13-.21.35-.29.54-.1-.11-.19-.22-.29-.32l-.19.16c.11-.6.34-1.04.55-.99.25.06.41.35.21.61Z" class="cls-11"/><path d="M94.13 104.7v-.54c-.03-.51-.1-1.05-.23-1.6-.1-.42-.21-.84-.35-1.27-.43-1.36-1.04-2.73-1.63-3.89-.88-1.77-1.7-3.05-1.7-3.05-1.45 1.61-2.5 3.16-3.25 4.54-.76 1.38-1.23 2.6-1.52 3.54-.12.29-.22.59-.29.88-.1.39-.14.76-.15 1.13 0 .06-.01.1-.01.1-.25-.88-.31-1.76-.22-2.6.43-4.33 4.52-8.07 5.45-8.87l.19-.16c.1.1.19.21.29.32.45.51.89 1.15 1.3 1.87.76 1.31 1.42 2.87 1.9 4.38.06.18.11.37.15.55.57 2.34.09 4.68.09 4.68Z" class="cls-7"/><path d="M87.47 109.06c-.29.21-1.32-.68-1.95-2.12-.32-.71-.54-1.56-.51-2.49 0-.37.05-.74.15-1.12.07-.3.17-.6.29-.89 0 .15-.34 2.01.49 3.17.9 1.26 2.04 3.08 1.53 3.46Z" class="cls-7"/><path d="M98.55 105.5c.68 1.07 1.87 3.25 1.37 3.75 0 0-.51.21-.9-.52-.13-.25-.4-.73-.67-1.38.09-.6.16-1.22.2-1.84ZM106.95 101.94c-.15.54-.29 1-.38 1.37-.09.34-.15.59-.15.74-.03.44-.12 1.58-.21 2.91-.64 1.43-1.67 2.31-1.95 2.1-.52-.38.62-2.2 1.52-3.46.84-1.17.49-3.04.49-3.17-.29-.94-.76-2.16-1.52-3.54-.32-.59-.7-1.21-1.14-1.85-.59-.87-1.29-1.77-2.12-2.69 0 0-2.25 3.5-3.34 6.96-.1-.32-.21-.64-.35-.95-.04-.1-.09-.21-.13-.33.04-.18.09-.37.15-.55.73-2.33 1.92-4.78 3.2-6.24-.08-.19-.18-.4-.28-.54-.21-.26-.04-.55.21-.61.21-.05.43.39.54.99.37.32 1.24 1.09 2.18 2.19 1.43 1.67 3.01 4.06 3.27 6.68Z" class="cls-11"/><path d="M106.2 106.96c-.18 2.38-.4 5.38-.4 6.11 0 1.48-1.31 4.94-5.02 4.13-.29-.07-.55-.14-.79-.23-.07-.03-.15-.06-.21-.09-.16-.07-.32-.14-.45-.23a.864.864 0 0 1-.16-.1c-.09-.05-.17-.11-.25-.18-.09-.07-.17-.14-.25-.22-.46-.45-.73-.99-.89-1.59-.01-.08-.04-.15-.05-.24-.01-.09-.03-.18-.04-.27-.16-1.12.01-2.41.19-3.64.13-.93.33-1.98.48-3.07.27.65.54 1.13.67 1.38.38.73.9.52.9.52.5-.5-.69-2.68-1.37-3.75.1-1.4.03-2.84-.39-4.19 1.09-3.45 3.34-6.96 3.34-6.96.83.92 1.53 1.82 2.12 2.69.44.64.82 1.26 1.14 1.85.76 1.38 1.23 2.6 1.52 3.54 0 .13.35 2-.49 3.17-.9 1.26-2.04 3.08-1.52 3.46.28.21 1.31-.68 1.95-2.1Z" class="cls-10"/><path d="M106.95 101.94c-.26-2.62-1.84-5.01-3.27-6.68-.94-1.09-1.81-1.87-2.18-2.19-.11-.6-.34-1.04-.54-.99-.26.06-.42.35-.21.61.1.13.2.35.28.54-1.28 1.47-2.46 3.92-3.2 6.24-.06.18-.11.37-.15.55-1.04-2.87-2.07-12.47 3.1-12.47 0 0 1.19-.08 2.81.93.23.15.47.32.72.51.2.15.4.32.6.51.56.52 1.14 1.18 1.71 2.01 2.12 3.04 1.07 7.68.33 10.43Z" class="cls-10"/><path d="M106.95 101.94c-.15.54-.29 1-.38 1.37-.09.34-.15.59-.15.74-.03.44-.12 1.58-.21 2.91-.64 1.43-1.67 2.31-1.95 2.1-.52-.38.62-2.2 1.52-3.46.84-1.17.49-3.04.49-3.17-.29-.94-.76-2.16-1.52-3.54-.32-.59-.7-1.21-1.14-1.85.03-.6.05-1.2.07-1.78 1.43 1.67 3.01 4.06 3.27 6.68Z" class="cls-6"/><path d="M99.92 109.25s-.51.21-.9-.52c-.13-.25-.4-.73-.67-1.38-.35-.84-.71-1.97-.76-3.18.02-.51.1-1.05.22-1.6 0 .62.04 1.98.39 2.44.08.1.2.28.35.5.68 1.07 1.87 3.25 1.37 3.75Z" class="cls-7"/><path d="m101.49 93.07-.19-.16c-.1.1-.19.21-.29.32-.08-.19-.18-.4-.28-.54-.21-.26-.04-.55.21-.61.21-.05.43.39.54.99Z" class="cls-11"/><path d="M106.73 104.54v-.1c0-.37-.05-.75-.15-1.13-.07-.29-.17-.59-.29-.88-.29-.94-.76-2.16-1.52-3.54-.32-.59-.7-1.21-1.14-1.85-.59-.87-1.29-1.77-2.12-2.69 0 0-2.25 3.5-3.34 6.96-.14.42-.25.84-.35 1.26a9.3 9.3 0 0 0-.22 1.6c0 .18-.01.36 0 .54 0 0-.47-2.34.09-4.68.04-.18.09-.37.15-.55.73-2.33 1.92-4.78 3.2-6.24.1-.11.19-.22.29-.32l.19.16c.37.32 1.24 1.09 2.18 2.19 1.43 1.67 3.01 4.06 3.27 6.68.09.84.03 1.72-.22 2.6Z" class="cls-7"/><path d="M106.72 104.45c.02.93-.2 1.79-.52 2.51-.64 1.43-1.67 2.31-1.95 2.1-.52-.38.62-2.2 1.52-3.46.84-1.17.49-3.04.49-3.17.13.29.23.59.29.87.1.38.15.76.15 1.13Z" class="cls-7"/><path d="M-862.63-5541.86h2244.45V406.88H-862.63z" style="stroke:#fff;stroke-width:8px;fill:none;stroke-linecap:round;stroke-linejoin:round"/></svg>