<svg xmlns="http://www.w3.org/2000/svg" id="Calque_1" data-name="Calque 1" viewBox="0 0 200.13 128.13"><defs><style>.cls-1,.cls-2,.cls-4,.cls-5,.cls-6,.cls-7{stroke:#000}.cls-1,.cls-2,.cls-4,.cls-5{stroke-linecap:round;stroke-linejoin:round}.cls-1,.cls-6{fill:#76ac75}.cls-2{fill:#d6d6d6}.cls-4{fill:#fff}.cls-5,.cls-7{fill:none}.cls-6,.cls-7{stroke-miterlimit:10}</style></defs><path d="M173.9 98.19a5.857 5.857 0 0 1 6.8 4.74c.37 2.08-.4 4.1-1.87 5.41" class="cls-7"/><path d="M180.74 103.81c2.84-2.37 7.06-1.99 9.42.84a6.655 6.655 0 0 1 1.2 6.42" class="cls-7"/><path d="M186.14 112.73c2.84-2.37 7.06-1.99 9.42.84a6.655 6.655 0 0 1 1.2 6.42" class="cls-7"/><path d="m79.71 50.4-5.3-7.99c-.14-.21-.46-.12-.47.12l-.25 3.35M74.09 55.99l-8.81-4.81a.257.257 0 0 1 .08-.48l3.51-.42" class="cls-1"/><path d="M99.5 20.72c.85-.19 1.7-.16 2.48.07a6.594 6.594 0 0 1 4.93-4.87c3-.68 5.98.79 7.31 3.39.52-.38 1.12-.67 1.78-.82 2.56-.58 5.1.99 5.71 3.52.59-.39 1.26-.69 1.99-.85 3.22-.74 6.43 1.27 7.16 4.48a5.964 5.964 0 0 1-4.51 7.14c-2.35.54-4.69-.39-6.07-2.17a4.908 4.908 0 0 1-3.6 3.29c-2.02.46-4.03-.39-5.14-1.98a4.906 4.906 0 0 1-3.25 2.49c-2.65.61-5.29-1.04-5.89-3.68-.05-.21-.08-.43-.1-.64-.2.07-.41.14-.62.19-2.65.61-5.29-1.04-5.89-3.68-.6-2.64 1.06-5.27 3.71-5.88ZM78.59 24.87a4.2 4.2 0 0 1-2.02.05c-.4 1.86-1.75 3.78-3.79 4.33-2.43.66-5.02-.68-6.17-2.66-.41.32-.9.53-1.43.71-4.77 1.63-6.91-3.09-3.66-5.61-2.08-4.27.72-6.15 2.14-6.54 1.64-.45 3.87.27 4.82 1.47a4.11 4.11 0 0 1 2.59-2.08c2.15-.59 4.34.59 4.9 2.63.05.17.08.33.1.5.16-.07.33-.13.51-.17 2.15-.59 4.34.59 4.9 2.63s-.73 4.16-2.88 4.75Z" class="cls-2"/><path d="M77.27 21.38a4.48 4.48 0 0 1 2.23-.76c-.39-2.36.52-4.77 2.54-6.15 2.4-1.64 5.61-1.28 7.78.68.31-.52.74-.99 1.27-1.35 2.05-1.4 4.9-.8 6.41 1.33.37-.56.86-1.05 1.44-1.45 2.58-1.76 6.19-.99 8.06 1.73 1.87 2.72 1.29 6.35-1.3 8.11-1.88 1.29-4.31 1.22-6.22.03.15 1.65-.53 3.29-1.94 4.25-1.62 1.1-3.72 1-5.31-.1-.12 1.34-.78 2.59-1.95 3.39-2.12 1.45-5.09.81-6.63-1.42-.12-.18-.23-.37-.33-.56-.15.14-.31.27-.48.38-2.12 1.45-5.09.81-6.63-1.42s-1.06-5.22 1.07-6.67Z" class="cls-2"/><path d="M90.34 34.66c-.62.24-1.26.31-1.87.22a4.99 4.99 0 0 1-3.15 4.21 5.01 5.01 0 0 1-5.88-1.72 3.632 3.632 0 0 1-5.93-1.19c-.4.36-.86.66-1.39.86-2.34.92-4.97-.23-5.89-2.56-.92-2.33.23-4.95 2.57-5.87 1.7-.67 3.32-.71 4.56.48.2-1.26 1.3-1.91 2.57-2.41 1.46-.57 3.07-.16 4.09.91.35-.99 1.11-1.82 2.16-2.23 1.92-.75 4.09.19 4.85 2.1.06.16.11.31.15.47a3.753 3.753 0 0 1 5.3 1.89c.76 1.91-.19 4.08-2.11 4.83Z" class="cls-2"/><path d="M161.73 50.1s1.03-1.21 1.73-3.55c1.24-4.19.63-10.9.63-10.9s-.36 1.58-2.39 2.64c-1.24.65-.81 1.17-1.02.85-1.43-2.19-1.26 1.25-1.26 1.25s2.67-1.44 1.26-1.25c-1.16.16-2.64-6.38-2.64-6.38s-.44-1.84-.26-3.07c.08-.53.85-3.28-1.21-5.57 0 0 .21 1.77-.31 2.26-.48.45-1.2.77-1.62 1.12-1.82 1.5-2.21 2.57-2.21 2.57s.97-1.4-1.96-4.57c-2.17-2.34-5.78-2.86-5.78-2.86s3.06 1.41.38 5.73c0 0-.41-2.28-2.03-3.01-.93-.42-2.23-1.27-2.18-2.78 0 0-3.48 3.81-1.95 8.73 0 0-1.51.41-3.13-1.97-1.37-2.02-.96-3.7-.96-3.7s-2.59 4.23-1.52 7.26c.82 2.31 1.17 3.83.48 4.82-.82 1.17-3.84-1.23-4.51-2.85-.11-.25-.48-1.05-.48-1.05s-1.21 5.98 1.45 8.09c0 0-.22-.21-1.04-.06-.91.16-1.83-1.22-1.83-1.22s3.16 13.11 8.29 13.84c5.12.73 26.06-4.41 26.06-4.41Z" style="fill:#f3d587;stroke-linecap:round;stroke-linejoin:round;stroke:#000"/><path d="M128.64 48v69.62h-26.26V60.28l3.06-4.98 4.28-1.71 1.36-3.79.7-1.8h16.86z" class="cls-2"/><path d="M116.71 51.24h3.06v2.94h-3.06zM122.35 51.24h3.06v2.94h-3.06zM111.07 56.65h3.06v2.94h-3.06zM116.71 56.65h3.06v2.94h-3.06zM122.35 56.65h3.06v2.94h-3.06zM105.44 62.07h3.06v2.94h-3.06zM111.07 62.07h3.06v2.94h-3.06zM116.71 62.07h3.06v2.94h-3.06zM122.35 62.07h3.06v2.94h-3.06zM105.44 67.48h3.06v2.94h-3.06zM111.07 67.48h3.06v2.94h-3.06zM116.71 67.48h3.06v2.94h-3.06zM122.35 67.48h3.06v2.94h-3.06zM105.44 72.9h3.06v2.94h-3.06zM111.07 72.9h3.06v2.94h-3.06zM116.71 72.9h3.06v2.94h-3.06zM122.35 72.9h3.06v2.94h-3.06zM105.44 78.31h3.06v2.94h-3.06zM111.07 78.31h3.06v2.94h-3.06zM116.71 78.31h3.06v2.94h-3.06zM122.35 78.31h3.06v2.94h-3.06zM105.44 83.73h3.06v2.94h-3.06zM111.07 83.73h3.06v2.94h-3.06zM116.71 83.73h3.06v2.94h-3.06zM122.35 83.73h3.06v2.94h-3.06zM105.44 89.14h3.06v2.94h-3.06zM111.07 89.14h3.06v2.94h-3.06zM116.71 89.14h3.06v2.94h-3.06zM122.35 89.14h3.06v2.94h-3.06zM105.44 94.56h3.06v2.94h-3.06zM111.07 94.56h3.06v2.94h-3.06zM116.71 94.56h3.06v2.94h-3.06zM122.35 94.56h3.06v2.94h-3.06zM105.44 99.97h3.06v2.94h-3.06zM111.07 99.97h3.06v2.94h-3.06zM116.71 99.97h3.06v2.94h-3.06zM122.35 99.97h3.06v2.94h-3.06zM105.44 105.39h3.06v2.94h-3.06zM111.07 105.39h3.06v2.94h-3.06zM116.71 105.39h3.06v2.94h-3.06zM122.35 105.39h3.06v2.94h-3.06zM105.44 110.8h3.06v2.94h-3.06zM111.07 110.8h3.06v2.94h-3.06zM116.71 110.8h3.06v2.94h-3.06zM122.35 110.8h3.06v2.94h-3.06z" class="cls-4"/><path d="M141.93 117.86h-28.99V76.04h28.99v41.82z" class="cls-2"/><path d="M135.1 51.7h18.25v38H135.1z" class="cls-2"/><path d="M149.1 33.01h16.16v53.48H149.1z" class="cls-2"/><path d="M153.54 49.8h23.53v68.59h-23.53z" class="cls-2"/><path d="M156.87 53.59h3.58v3.43h-3.58zM163.46 53.59h3.58v3.43h-3.58zM170.04 53.59h3.58v3.43h-3.58zM156.87 59.91h3.58v3.43h-3.58zM163.46 59.91h3.58v3.43h-3.58zM170.04 59.91h3.58v3.43h-3.58zM156.87 66.24h3.58v3.43h-3.58zM163.46 66.24h3.58v3.43h-3.58zM170.04 66.24h3.58v3.43h-3.58zM156.87 72.56h3.58v3.43h-3.58zM163.46 72.56h3.58v3.43h-3.58zM170.04 72.56h3.58v3.43h-3.58zM156.87 78.89h3.58v3.43h-3.58zM163.46 78.89h3.58v3.43h-3.58zM170.04 78.89h3.58v3.43h-3.58zM156.87 85.22h3.58v3.43h-3.58zM163.46 85.22h3.58v3.43h-3.58zM170.04 85.22h3.58v3.43h-3.58zM156.87 91.54h3.58v3.43h-3.58zM163.46 91.54h3.58v3.43h-3.58zM170.04 91.54h3.58v3.43h-3.58zM156.87 97.87h3.58v3.43h-3.58zM163.46 97.87h3.58v3.43h-3.58zM170.04 97.87h3.58v3.43h-3.58zM156.87 104.19h3.58v3.43h-3.58zM163.46 104.19h3.58v3.43h-3.58zM170.04 104.19h3.58v3.43h-3.58zM156.87 110.52h3.58v3.43h-3.58zM163.46 110.52h3.58v3.43h-3.58zM170.04 110.52h3.58v3.43h-3.58z" class="cls-4"/><path d="M127.58 86.49h27.75v31.63h-27.75z" class="cls-2"/><path d="M142.53 89.7h2.31v5.57h-2.31zM146.78 89.7h2.31v5.57h-2.31zM151.04 89.7h2.31v5.57h-2.31zM142.53 99.96h2.31v5.57h-2.31zM146.78 99.96h2.31v5.57h-2.31zM151.04 99.96h2.31v5.57h-2.31zM142.53 110.21h2.31v5.57h-2.31zM146.78 110.21h2.31v5.57h-2.31zM151.04 110.21h2.31v5.57h-2.31zM129.69 89.7H132v5.57h-2.31zM133.94 89.7h2.31v5.57h-2.31zM138.2 89.7h2.31v5.57h-2.31zM129.69 99.96H132v5.57h-2.31zM133.94 99.96h2.31v5.57h-2.31zM138.2 99.96h2.31v5.57h-2.31zM129.69 110.21H132v5.57h-2.31zM133.94 110.21h2.31v5.57h-2.31zM138.2 110.21h2.31v5.57h-2.31z" class="cls-4"/><path d="M122.35 75.84v2.47l-1.06 5.42-4.58 2.94 5.64 3.94-4.11 8.34 4.11 9.38M144.84 51.7l-4.33 10.37 4.33 4.71-2.31 8.34" class="cls-5"/><path d="M71.2 115.94c0-3.9 3.16-7.07 7.07-7.07 2.55 0 4.78 1.35 6.03 3.37" class="cls-7"/><path d="M79.33 109.01c-2.2-3.87-.86-8.79 3-11a8.025 8.025 0 0 1 7.87-.06" class="cls-7"/><path d="M91.06 104.5c-2.2-3.87-.86-8.79 3-11a8.025 8.025 0 0 1 7.87-.06" class="cls-7"/><path d="M40.74 120.1h-25.5l-6.78-3.72a4.25 4.25 0 0 1-2.21-3.74c0-1.03.48-2 1.31-2.62l.24-.18a4.28 4.28 0 0 1 2.58-.86h30.36-.31 30.36c.93 0 1.84.3 2.58.86l.24.18c.82.62 1.31 1.59 1.31 2.62 0 1.56-.85 2.99-2.21 3.74l-6.78 3.72h-25.5M67.85 107.49H12.02l8.32-5.76c.49-.34 1.08-.53 1.68-.53l16.01-.11c.76 0 1.47.34 1.94.93l.62.79h17.78l9.48 4.68Z" class="cls-6"/><path d="m88.09 85.79-2.89.79-1.12-.85-20.65 5.52.12.55c.18.8-.28 1.6-1.05 1.86l-4.39 1.45-.57 1.05-16.5 4.73s-1.3-2.17-4.23-1.3l.6-4.23 3.62-.6.06-1.19 4.3-1.25 1.28.94 4.14-1.11-.64-2.16.14-.13c.38-.36.9-.52 1.42-.44l.67 2.3 3.45-1.17 1.76.53 26.14-6.46.5-1.27 2.98-.85s-1.48 1.92.86 3.29Z" class="cls-1"/><path d="M88.09 85.79c-2.34-1.37-.86-3.29-.86-3.29s1.88.99.86 3.29Z" class="cls-1"/><path d="M6.25 120.1H79.3" class="cls-5"/><path d="M86.5 55.49 64.92 39.34s3.28 6.27 2.68 9.55l12.71 13.92 6.2-7.32Z" class="cls-1"/><path d="M89.77 65.58 86.5 55.49s-5.39 2.72-6.2 7.32l9.47 2.77ZM66.37 48.34 49.43 32.96" class="cls-1"/><path d="M62.66 36.9 45.94 23.33" class="cls-6"/><path d="M48.9 29.25 63.77 42.3" class="cls-1"/><path d="M15.15 72.56h57.74M75.8 72.56h5.03M83.26 72.56h5.03M10.9 76.81h57.74M71.56 76.81h5.03M79.01 76.81h5.04" class="cls-5"/><path d="M-5058.88-4184.37h6467.34v6437.3h-6467.34z" style="stroke:#fff;stroke-width:8px;fill:none;stroke-linecap:round;stroke-linejoin:round"/></svg>