<svg xmlns="http://www.w3.org/2000/svg" id="Calque_1" data-name="Calque 1" viewBox="0 0 128 128"><defs><style>.cls-10,.cls-2,.cls-3,.cls-4,.cls-7,.cls-8,.cls-9{stroke-linecap:round}.cls-10,.cls-2,.cls-3,.cls-7,.cls-9{stroke-linejoin:round}.cls-10,.cls-3,.cls-4,.cls-7,.cls-8,.cls-9{stroke:#000}.cls-2,.cls-3,.cls-9{fill:none}.cls-2{stroke:#231f20}.cls-4,.cls-7,.cls-9{stroke-width:2px}.cls-4,.cls-8{stroke-miterlimit:10;fill:#bfe6fc}.cls-7{fill:#fff}</style></defs><circle cx="41.92" cy="19.32" r="7.06" style="fill:#ff6d75"/><path d="M34.86 19.32c0 3.9 3.16 7.06 7.06 7.06 3.9 0 7.06-3.16 7.06-7.06 0-3.9-3.16-7.06-7.06-7.06-1.21 0-2.35.31-3.35.84" class="cls-3"/><path d="M44.83 22.92a3.926 3.926 0 0 0-2.91-1.28c-1.15 0-2.19.5-2.91 1.28" class="cls-3"/><circle cx="44.68" cy="17.95" r=".88" class="cls-10"/><circle cx="39.15" cy="17.95" r=".88" class="cls-10"/><path d="M43.92 44.31c-.11.28-.09.61.09.88.7 1.07 1.85 2.88 2.57 4.33 0 0-1.61.59-2.34 1.34-.73.75-.42 1.81-.42 1.81s-3.13 1.89-3.46 4.21c-.21 1.47.3 3.52 1.93 6.04.95 1.47 2.29 3.09 4.08 4.83l6.23-5.89-1.72-10.22c-.11-.66-.33-1.3-.66-1.88-.72-1.3-2.25-3.65-4.82-5.82a.943.943 0 0 0-1.49.38Z" style="fill:#fff;stroke-width:2px;stroke:#231f20;stroke-linejoin:round;stroke-linecap:round"/><path d="M63.73 114.74H12.86C2.52 96.72 7.24 89.09 7.29 89.04h0s0 0 0 0h0S17.38 76.99 19.17 74.6c1.8-2.39 4.87-5.21 7.95-5.56 1.86-.21 7.88.8 12.35 1.63 0 0 24.26 6.21 24.26 44.08Z" style="fill:#87ccf3;stroke-width:2px;stroke:#231f20;stroke-linejoin:round;stroke-linecap:round"/><path d="M26.96 46.13s-1.06-4.78-3.72-6.89c-3.21-2.54-5.97-.16-5.97-.16-3.6-1.06-11.2 3.29-14.17 11.79-2.17 6.2 2.23 9.65 5.85 10.88" class="cls-9"/><path d="M6 60.47s.9 6.14 4.47 7.05c3.12.8 7.33-.84 9.67 1.22" class="cls-9"/><path d="M20.04 66.97c-.91-1.99-2.18-5.62-2.18-5.62-1.92.37-3.86-1.98-3.41-3.62.45-1.64 2.37-1.67 4.03-2.32 1.82-.72 1.74-4.51 1.64-5.74-.09-1.23-1.55-8.14-1.55-8.14 1.4.05 3.91.35 6.14 2.47.28.26.54.53.8.85 2.39 2.88 5.65 2.12 6.2 2.8.53.68-.5 1.92 1.46 4.72 1.97 2.83 3.8 4.31 1.45 6.6-2.23 2.16-5.29 3.81-6.14 3.98l3.03 6.41s-3.18 7.41-11.01 3.69l-.45-6.07Z" class="cls-7"/><ellipse cx="24.38" cy="49.99" class="cls-10" rx=".5" ry="1.1" transform="rotate(-37.1 24.372 49.988)"/><path d="M23.21 114.74c-.89-4.44-3.07-19.08-11.33-26.57" class="cls-2"/><path d="m22.77 45.59-1.8 3.39M33.94 53.43s-2.91 0-4.86 3.33" class="cls-3"/><path d="M118.13 114.79H76.26s-.44-20.67-1.32-23.95c-.46-1.71-2.16-4.79-3.85-7.7-.92 1.71-2.18 3.84-3.7 5.84-2.28 3-5.15 5.68-8.32 6.17-7.68 1.17-15.08-16.38-16.78-30.35 0 0 4.57-2.11 11.24-2.91l5.54 15.8s1.89-6.66 3.53-11.81a26.57 26.57 0 0 1 4.45-8.37l1.96-2.49s9.61-6.55 15.49-6.55 18.8 4.23 18.8 4.23c5.23.82 16.38 21.48 21 31.66 1.49 3.29 2.1 6.93 1.67 10.52-.66 5.42-2.53 13.8-7.83 19.93Z" style="stroke-miterlimit:10;stroke-width:2px;fill:#ff6d75;stroke:#000"/><path d="M81.46 47.15c-.76.57-4.36 1.9-7.77 2.16-3.61.26-3.5-2.33-4.39-6.02-.88-3.66-2.66-3.72-2.83-4.66-.17-.95 2.84-3.08 2.22-7.16a8.2 8.2 0 0 1-.11-1.28c-.12-3.39 1.47-5.67 2.46-6.87 0 0 4.63 6.26 5.58 7.24.94.98 4 3.82 5.93 2.84 1.76-.89 3.18-2.46 4.86-1.63 1.68.83 2.2 4.15.49 5.46 0 0 2.22 3.09 3.2 5.3l3.38 7.84s-9.4 7.71-16.78.42l3.75-3.64Z" class="cls-7"/><path d="M76.19 44.19c-3.83-1.16-6.61.32-6.61.32v.02l-.28-1.25s1.87-2.36 5.4-1.23c1.26.41 1.7 1.27 1.5 2.14Z" class="cls-3"/><path d="M76.19 44.19c-.37 1.55-2.81 3.14-6.21 2.15l-.41-1.81v-.02s2.79-1.49 6.62-.32Z" style="fill:#ff6d75;stroke:#000;stroke-linejoin:round;stroke-linecap:round"/><path d="M59.12 79.95c.07 1.81.21 4.35.55 6.23M106.92 114.79c.02-8.76 3.78-26.28 3.78-26.28S100.81 73 98.23 66.73" class="cls-2"/><path d="M68.69 33.61s-3.17-4.37-2.96-8.11c.26-4.51 4.23-5.04 4.23-5.04 1.75-3.75 10.91-6.83 20.09-3.07 6.71 2.75 6.33 8.9 4.7 12.79" class="cls-9"/><path d="M95.85 26.8s1.94 4.12.08 7.74c-1.62 3.16-3.58 6.53-3.59 9.97" class="cls-9"/><path d="m74.69 28.17-3.87 3.84" class="cls-3"/><ellipse cx="73.76" cy="34.3" class="cls-10" rx=".56" ry="1.21" transform="rotate(-11.34 73.792 34.331)"/><path d="m86.18 34.42-.85.46" class="cls-7"/><path d="M95.23 50.45s-9.86 6.98-17.53.34" style="stroke-miterlimit:10;stroke-width:2px;fill:none;stroke:#000"/><path d="m61.75 55.54 1.37-3.31M57.38 41.38l3 1.96M56.21 49.5l2.62-.81" class="cls-4"/><path d="m65.89 49.79.61-1.47M63.96 43.52l1.33.86M63.44 47.11l1.16-.36" class="cls-8"/><path d="M25.6 14.76v10.31c0 3.51 2.62 6.39 5.82 6.39h11.61l8.62 6.8v-6.8h1.5c3.2 0 5.82-2.87 5.82-6.39V14.76c0-3.51-2.62-6.39-5.82-6.39H31.41c-3.2 0-5.82 2.88-5.82 6.39Z" class="cls-9"/></svg>