<svg xmlns="http://www.w3.org/2000/svg" id="Calque_1" viewBox="0 0 128 128"><defs><style>.cls-3,.cls-4{stroke-linecap:round;stroke-linejoin:round}.cls-4{fill:none}.cls-3,.cls-4{stroke-width:2px;stroke:#000}.cls-3{fill:#ff6d75}</style></defs><path d="M-1740.29-1040.06H914.79V471.71h-2655.08z" style="fill:none;stroke-linecap:round;stroke-linejoin:round;stroke:#e30613;stroke-width:8px"/><path d="M64.06 30.13c-6.13 0-11.11-4.98-11.11-11.11S57.93 7.91 64.06 7.91s11.11 4.98 11.11 11.11-4.98 11.11-11.11 11.11Z" style="fill:#d6d6d6"/><path d="M64.06 8.41c5.85 0 10.61 4.76 10.61 10.61s-4.76 10.61-10.61 10.61-10.61-4.76-10.61-10.61S58.21 8.41 64.06 8.41m0-1c-6.41 0-11.61 5.2-11.61 11.61s5.2 11.61 11.61 11.61 11.61-5.2 11.61-11.61-5.2-11.61-11.61-11.61Z"/><path d="M42.64 72.72s.44 3.07 3.19 2.99c.13.01.26.01.39.01 1.9-.09 3.37-1.7 3.3-3.6 0 0-.03-.61-.06-1.67-.01-1.06-.03-2.57.06-4.36.09-1.79.27-3.86.63-6s.9-4.37 1.69-6.43c.43-1.17.94-2.27 1.51-3.29l-.32 23.12c0 .36 0 .72.01 1.08l1.76 43.56c.1 2.04 1.74 3.73 3.83 3.83 2.23.1 4.1-1.61 4.2-3.83l1.29-35.22 1.31 35.22c.1 2.04 1.76 3.73 3.84 3.83 2.22.1 4.09-1.61 4.2-3.83l1.71-43.69c.01-.37.02-.75.01-1.12L74.8 50.6c.51.96.99 1.97 1.39 3.04.77 2.06 1.31 4.29 1.67 6.43.36 2.14.54 4.21.63 6 .09 1.79.07 3.3.06 4.36-.01 1.06-.04 1.67-.04 1.67-.07 1.77 1.23 3.37 3.04 3.58 1.39.16 2.71-.72 3.32-1.98l.51-1.04s.07-.64.2-1.8c.11-1.16.26-2.8.33-4.81.07-2 .07-4.37-.13-6.93-.21-2.57-.64-5.34-1.41-8.1-.79-2.76-1.93-5.52-3.44-7.94-.76-1.21-1.59-2.36-2.49-3.37-.89-1.01-1.83-1.91-2.77-2.67-1.87-1.54-3.71-2.53-5.13-3.11-.71-.3-1.31-.5-1.8-.63-2.84-.79-6.09-.67-8.8-.16-.21.04-.41.09-.66.16-.49.13-1.09.33-1.8.63-1.41.59-3.26 1.57-5.13 3.11-.94.76-1.89 1.66-2.77 2.67-.89 1.01-1.73 2.16-2.49 3.37-1.51 2.43-2.66 5.19-3.43 7.94-.79 2.76-1.21 5.53-1.41 8.1-.21 2.56-.21 4.93-.14 6.93.07 2.01.21 3.66.33 4.81.13 1.16.21 1.8.21 1.8v.04" style="stroke:#000;fill:#d6d6d6;stroke-linecap:round;stroke-linejoin:round"/><path d="m37.61 44.6 5.77-7.17 4.21 3.39s1.55-.63 3.54-.35c2 .28 5 2.42 5 2.42l4.4 2.92s.6.35.76 1.11c.06.3.05.66-.09 1.09-.29.85-.93 1.08-1.45 1.11-.4.03-.72-.07-.72-.07l-1.42-.64 1.81 1.46 5.12 4.12c.33.27.53.65.57 1.05.04.4-.06.81-.33 1.14-.54.67-1.52.77-2.19.24l1.74 1.4c.33.27.53.65.57 1.05.04.4-.07.81-.34 1.15-.29.36-.71.55-1.14.57-.37.02-.74-.09-1.05-.34l-1.74-1.4c.33.27.53.65.57 1.05.04.4-.07.81-.33 1.14-.54.67-1.52.77-2.19.24l-3.07-2.47c.33.27.53.65.57 1.05.04.4-.07.81-.34 1.15-.54.67-1.52.77-2.19.23l-8.67-6.98s-1.73-1.22-2.25-2.9c-.53-1.68-.52-3.07-.52-3.07l-4.59-3.69Z" class="cls-3"/><path d="m57.6 48.42-2.8-2.04-1.31-.96M55.59 58.82l-4.61-3.72M60.62 58.86l-7.68-6.19M54.89 50.25l7.69 6.18M95.18 72.42l-5.77-7.17-4.21 3.39s-1.55-.63-3.54-.35c-2 .28-5 2.42-5 2.42l-4.4 2.92s-.6.35-.76 1.11c-.06.3-.05.66.09 1.09.29.85.93 1.08 1.45 1.11.4.03.72-.07.72-.07l1.42-.64-1.81 1.46-5.12 4.12c-.33.27-.53.65-.57 1.05-.04.4.06.81.33 1.14.54.67 1.52.77 2.19.24l-1.74 1.4c-.33.27-.53.65-.57 1.05-.04.4.07.81.34 1.15.29.36.71.55 1.14.57.37.02.74-.09 1.05-.34l1.74-1.4c-.33.27-.53.65-.57 1.05-.04.4.07.81.33 1.14.54.67 1.52.77 2.19.24l3.07-2.47c-.33.27-.53.65-.57 1.05-.04.4.07.81.34 1.15.54.67 1.52.77 2.19.23l8.67-6.98s1.73-1.22 2.25-2.9c.53-1.68.52-3.07.52-3.07l4.59-3.69Z" class="cls-3"/><path d="m75.18 76.24 2.8-2.04 1.31-.96M77.19 86.63l4.61-3.71M72.16 86.68l7.69-6.19M77.89 78.06l-7.68 6.19" class="cls-3"/><path d="M120.88 32.7V20.82c0-4.04-3.02-7.35-6.69-7.35H89.15c-3.69 0-6.69 3.32-6.69 7.35v3.53h-5.14l5.14 4.58v3.77c0 4.04 3 7.35 6.69 7.35h25.04c3.68 0 6.69-3.32 6.69-7.35Z" style="stroke:#000;stroke-width:2px;fill:#fab0b4;stroke-linecap:round;stroke-linejoin:round"/><rect width="17.6" height="17.6" x="92.87" y="17.96" rx="4.14" ry="4.14" style="fill:#ff6d75"/><path d="M110.47 25.37v7.72c0 1.36-1.11 2.47-2.47 2.47H95.34c-1.36 0-2.47-1.11-2.47-2.47V20.43c0-1.36 1.11-2.47 2.47-2.47H108M107.11 32.21 96.39 21.34M96.39 32.21l10.72-10.87" class="cls-4"/></svg>