<svg xmlns="http://www.w3.org/2000/svg" id="Calque_1" data-name="Calque 1" viewBox="0 0 128 128"><defs><style>.cls-2,.cls-3{fill:none}.cls-2,.cls-3,.cls-5{stroke:#000}.cls-2,.cls-3{stroke-linecap:round;stroke-linejoin:round}.cls-3{stroke-width:2px}.cls-5{stroke-miterlimit:10;stroke-width:.25px}</style></defs><path d="M32.03 59.64S17.08 24.23 47.55 15.75c0 0 1.7-6.42 9.12-4.35 0 0 7.39-9.21 19.48-.23 0 0 6.81-2.2 9.12 4.35 0 0 27.97 4.66 15.52 43.89 0 0 .28-10.12-9.43-25.97 0 0-3.96-.06-6.17-2.75 0 0-6.76 1.66-9.88-3.77 0 0-5.1 4.33-10.74.46 0 0-4.21 4.58-10.99 1.45 0 0-2.2 2.43-8.4 2.18 0 0-.71 1.31-5.75 2.87 0 0-7.38 11.3-7.4 25.76Z" style="fill:none"/><path d="M37.68 59.6s15.61-8.72 23.44 10.19" class="cls-2"/><path d="M42.44 63.6s5.7-4.65 12.45 1.06M54.4 70.85s-1.62-.18-4.69.11c-5.52.52-8.2-2.47-8.2-2.47l.09-.99s7.25-6.39 14.81 2.59M60.34 81.04s-4.79 4.87 0 8.45M60.67 86.94s1.99 1.73 3.55 2.37" class="cls-2"/><path d="M47.48 18.74s4.6 12.37 12.01 12.11c7.41-.26 8.37-13.53 8.37-13.53" class="cls-3"/><path d="M36.12 28.56s9.11 6.58 18.78.8" class="cls-3"/><path d="M33.36 35.14s9.38.08 13.28-3.4M31.79 60.4s-7.46-4.25-7.78 2.83c-.32 7.08 2.66 6.5 4.68 13.5 2.01 7 6.39 8.05 6.39 8.05" class="cls-3"/><path d="M64.68 17.76s-1.14 4.88-3.36 8.31" class="cls-2"/><circle cx="48.39" cy="68.38" r="2.5" class="cls-2"/><circle cx="49.16" cy="68.35" r="1.23" class="cls-5"/><path d="M94.66 59.37s-15.61-8.72-23.44 10.19" class="cls-2"/><path d="M89.9 63.36s-5.7-4.65-12.45 1.06M72 80.82s4.79 4.87 0 8.45" class="cls-2"/><path d="M96.22 28.34s-15.31 7.52-21.15-.66" class="cls-3"/><path d="M98.98 34.91s-9.49.33-13.4-3.15" class="cls-3"/><path d="M91.99 35.48s9.22 15.96 8.56 24.69c0 0 13.41-34.62-15.52-43.89 0 0-1.57-5.85-9.12-4.35-9.95-8.68-19.48.23-19.48.23-7.55-1.5-9.12 4.35-9.12 4.35C18.38 25.78 31.79 60.4 31.79 60.4c-.66-8.74 8.56-26.39 8.56-26.39" class="cls-3"/><path d="M100.65 58.51s-.72 35.15-13.88 48.76-20.46 12.08-20.46 12.08l.23.03s-7.82 1.72-20.98-11.88C32.4 93.89 31.68 58.74 31.68 58.74" class="cls-3"/><path d="M100.55 60.17s7.46-4.25 7.78 2.83c.32 7.08-2.66 6.5-4.68 13.5-2.01 7-6.39 8.05-6.39 8.05M64.8 27.47s6.41 8.12 15.06-5.47" class="cls-3"/><path d="M55.22 96h21.01s-10.5 8.76-21.01 0ZM57.63 101.03s7.96 4.73 16.5-.15M77.89 70.57s1.62-.18 4.69.11c5.52.52 8.2-2.47 8.2-2.47l-.09-.99s-7.25-6.39-14.81 2.59" class="cls-2"/><circle cx="83.91" cy="68.1" r="2.5" class="cls-2"/><path d="M71.67 86.94s-1.99 1.73-3.55 2.37" class="cls-2"/><circle cx="84.91" cy="68.1" r="1.23" class="cls-5"/><path d="M-220-1203.44h6467.34v6437.3H-220z" style="stroke:#fff;stroke-width:8px;stroke-linecap:round;stroke-linejoin:round;fill:none"/></svg>