<svg xmlns="http://www.w3.org/2000/svg" id="Calque_1" viewBox="0 0 200.13 128.13"><defs><style>.cls-11,.cls-13,.cls-14,.cls-15,.cls-2,.cls-3,.cls-4,.cls-6{stroke:#000}.cls-14,.cls-6{stroke-linecap:round;stroke-linejoin:round}.cls-2{fill:#b2f0e9}.cls-11,.cls-13,.cls-15,.cls-17,.cls-2,.cls-3,.cls-4{stroke-miterlimit:10}.cls-17{fill:none;stroke:#fff}.cls-4{fill:#76ac75}.cls-11,.cls-6{fill:#fff}.cls-19{fill:#a07637}.cls-13,.cls-14{fill:#d6d6d6}.cls-15{fill:#f3d587}</style></defs><path d="M10.13 97.95h182.13v24.8H10.13z" class="cls-13"/><path d="M13.58 111.4h6" class="cls-17"/><path d="M31.44 111.4h136.4" style="stroke-dasharray:0 0 11.86 11.86;stroke:#fff;fill:none;stroke-miterlimit:10"/><path d="M173.77 111.4h6" class="cls-17"/><path d="M-1115.57-68.32h2655.08v1511.77h-2655.08z" style="fill:none;stroke:#e30613;stroke-width:8px;stroke-linecap:round;stroke-linejoin:round"/><path d="M134.47 97.95H97.83V37.38h36.64v60.57z" style="fill:#8987f3;stroke-linecap:round;stroke-linejoin:round;stroke:#000"/><path d="M60.64 97.95H38.68V37.38h21.96v60.57z" style="stroke-linecap:round;stroke-linejoin:round;stroke:#000;fill:#baa584"/><path d="M70.86 25.47v72.48h33.2v-88h-33.2v15.52z" class="cls-14"/><path d="M88.98 14.04h3.87v3.72h-3.87zM96.11 14.04h3.87v3.72h-3.87zM81.85 20.89h3.87v3.72h-3.87zM88.98 20.89h3.87v3.72h-3.87zM96.11 20.89h3.87v3.72h-3.87zM74.73 27.73h3.87v3.72h-3.87zM74.73 20.89h3.87v3.72h-3.87zM81.85 14.04h3.87v3.72h-3.87zM74.73 14.04h3.87v3.72h-3.87zM81.85 27.73h3.87v3.72h-3.87zM88.98 27.73h3.87v3.72h-3.87zM96.11 27.73h3.87v3.72h-3.87zM74.73 34.58h3.87v3.72h-3.87zM81.85 34.58h3.87v3.72h-3.87zM88.98 34.58h3.87v3.72h-3.87zM96.11 34.58h3.87v3.72h-3.87zM74.73 41.42h3.87v3.72h-3.87zM81.85 41.42h3.87v3.72h-3.87zM88.98 41.42h3.87v3.72h-3.87zM96.11 41.42h3.87v3.72h-3.87zM74.73 48.26h3.87v3.72h-3.87zM81.85 48.26h3.87v3.72h-3.87zM88.98 48.26h3.87v3.72h-3.87zM96.11 48.26h3.87v3.72h-3.87zM74.73 55.11h3.87v3.72h-3.87zM81.85 55.11h3.87v3.72h-3.87zM88.98 55.11h3.87v3.72h-3.87zM96.11 55.11h3.87v3.72h-3.87zM74.73 61.95h3.87v3.72h-3.87zM81.85 61.95h3.87v3.72h-3.87zM88.98 61.95h3.87v3.72h-3.87zM96.11 61.95h3.87v3.72h-3.87zM74.73 68.8h3.87v3.72h-3.87zM81.85 68.8h3.87v3.72h-3.87zM88.98 68.8h3.87v3.72h-3.87zM96.11 68.8h3.87v3.72h-3.87zM74.73 75.64h3.87v3.72h-3.87zM81.85 75.64h3.87v3.72h-3.87zM88.98 75.64h3.87v3.72h-3.87zM96.11 75.64h3.87v3.72h-3.87zM74.73 82.49h3.87v3.72h-3.87zM81.85 82.49h3.87v3.72h-3.87zM88.98 82.49h3.87v3.72h-3.87zM96.11 82.49h3.87v3.72h-3.87zM74.73 89.33h3.87v3.72h-3.87zM81.85 89.33h3.87v3.72h-3.87zM88.98 89.33h3.87v3.72h-3.87zM96.11 89.33h3.87v3.72h-3.87z" class="cls-6"/><path d="M112.23 49.92h23.08v48.03h-23.08z" style="fill:#87ccf3;stroke-linecap:round;stroke-linejoin:round;stroke:#000"/><path d="M129.92 30.35h20.42v67.6h-20.42z" style="fill:#afaff9;stroke-linecap:round;stroke-linejoin:round;stroke:#000"/><path d="M135.53 11.25h29.74v86.7h-29.74z" style="fill:#fce9b9;stroke-linecap:round;stroke-linejoin:round;stroke:#000"/><path d="M139.75 16.04h4.52v4.34h-4.52zM148.07 16.04h4.52v4.34h-4.52zM156.4 16.04h4.52v4.34h-4.52zM139.75 24.04h4.52v4.34h-4.52zM148.07 24.04h4.52v4.34h-4.52zM156.4 24.04h4.52v4.34h-4.52zM139.75 32.03h4.52v4.34h-4.52zM148.07 32.03h4.52v4.34h-4.52zM156.4 32.03h4.52v4.34h-4.52zM139.75 40.03h4.52v4.34h-4.52zM148.07 40.03h4.52v4.34h-4.52zM156.4 40.03h4.52v4.34h-4.52zM139.75 48.03h4.52v4.34h-4.52zM148.07 48.03h4.52v4.34h-4.52zM156.4 48.03h4.52v4.34h-4.52zM139.75 56.02h4.52v4.34h-4.52zM148.07 56.02h4.52v4.34h-4.52zM156.4 56.02h4.52v4.34h-4.52zM139.75 64.02h4.52v4.34h-4.52zM148.07 64.02h4.52v4.34h-4.52zM156.4 64.02h4.52v4.34h-4.52zM139.75 72.01h4.52v4.34h-4.52zM148.07 72.01h4.52v4.34h-4.52zM156.4 72.01h4.52v4.34h-4.52zM139.75 80.01h4.52v4.34h-4.52zM148.07 80.01h4.52v4.34h-4.52zM156.4 80.01h4.52v4.34h-4.52zM139.75 88h4.52v4.34h-4.52zM148.07 88h4.52v4.34h-4.52zM156.4 88h4.52v4.34h-4.52z" class="cls-6"/><path d="M102.72 57.97h35.08v39.98h-35.08z" class="cls-14"/><path d="M121.61 62.03h2.92v7.04h-2.92zM127 62.03h2.92v7.04H127zM132.38 62.03h2.92v7.04h-2.92zM121.61 74.99h2.92v7.04h-2.92zM127 74.99h2.92v7.04H127zM132.38 74.99h2.92v7.04h-2.92zM121.61 87.96h2.92V95h-2.92zM127 87.96h2.92V95H127zM132.38 87.96h2.92V95h-2.92zM105.38 62.03h2.92v7.04h-2.92zM110.77 62.03h2.92v7.04h-2.92zM116.15 62.03h2.92v7.04h-2.92zM105.38 74.99h2.92v7.04h-2.92zM110.77 74.99h2.92v7.04h-2.92zM116.15 74.99h2.92v7.04h-2.92zM105.38 87.96h2.92V95h-2.92zM110.77 87.96h2.92V95h-2.92zM116.15 87.96h2.92V95h-2.92z" class="cls-6"/><path d="M26.13 57.97h35.08v39.98H26.13z" class="cls-14"/><path d="M45.02 62.03h2.92v7.04h-2.92zM50.4 62.03h2.92v7.04H50.4zM55.78 62.03h2.92v7.04h-2.92zM45.02 74.99h2.92v7.04h-2.92zM50.4 74.99h2.92v7.04H50.4zM55.78 74.99h2.92v7.04h-2.92zM45.02 87.96h2.92V95h-2.92zM50.4 87.96h2.92V95H50.4zM55.78 87.96h2.92V95h-2.92zM28.79 62.03h2.92v7.04h-2.92zM34.17 62.03h2.92v7.04h-2.92zM39.55 62.03h2.92v7.04h-2.92zM28.79 74.99h2.92v7.04h-2.92zM34.17 74.99h2.92v7.04h-2.92zM39.55 74.99h2.92v7.04h-2.92zM28.79 87.96h2.92V95h-2.92zM34.17 87.96h2.92V95h-2.92zM39.55 87.96h2.92V95h-2.92z" class="cls-6"/><path d="M187.07 106.05c0 .39-.43 1.28-1.11 1.28h-5.09c-.69 0-1.37-.47-2.33-.47h-28.2c-.61 0-2.07-.39-2.71-.81-.64-.43-.71-.54-.71-.81v-1.69c0-.26.77-.54.77-.98v-2.48c0-.64 5.78-4.75 7.62-5.2 1.84-.45 9.91-.49 12.07-.3s6.81 2.48 9.74 4.65c3.15 0 6.53.79 8.01 1.68 1.48.89 1.95 2.41 1.95 3.05v2.1Z" class="cls-13"/><path d="M163.35 99.47h-8.98c.09-.54 2.67-4.04 3.38-4.13.22-.03.68-.04 1.4-.04s1.56.01 2.31.02c.48 0 .91.02 1.22.02.05.2.38 1.64.67 4.13Z" class="cls-2"/><circle cx="179" cy="106.14" r="3.37" class="cls-3"/><circle cx="179" cy="106.14" r="2.39" class="cls-11"/><circle cx="153.7" cy="106.14" r="3.37" class="cls-3"/><circle cx="153.7" cy="106.14" r="2.39" class="cls-11"/><path d="M185.37 101.84s.39.47.46.7 0 .48-.31.48h-1.82c-.29 0-.82-.44-1.12-.79-.3-.35-.75-.93-.62-1.01.13-.07 1.79.14 3.41.62Z" class="cls-15"/><path d="M174.52 99.47h-10.47c-.28-2.44-.61-3.88-.67-4.13h.53c1.49 0 3.39.07 4.88.58.86.3 2.01.86 3.25 1.57 1.33.77 2.16 1.43 2.49 1.98Z" class="cls-2"/><path d="M124.88 113.57c0 .39-.43 1.28-1.11 1.28h-5.09c-.69 0-1.37-.47-2.33-.47h-28.2c-.61 0-2.07-.39-2.71-.81-.64-.43-.71-.54-.71-.81v-1.69c0-.26.77-.54.77-.98v-2.48c0-.64 5.78-4.75 7.62-5.2s9.91-.49 12.07-.3 6.81 2.48 9.74 4.65c3.15 0 6.53.79 8.01 1.68 1.48.89 1.95 2.41 1.95 3.05v2.1Z" style="fill:#ff6d75;stroke-miterlimit:10;stroke:#000"/><path d="M101.16 106.99h-8.98c.09-.54 2.67-4.04 3.38-4.13.22-.03.68-.04 1.4-.04s1.56.01 2.31.02c.48 0 .91.02 1.22.02.05.2.38 1.64.67 4.13Z" class="cls-2"/><circle cx="116.81" cy="113.67" r="3.37" class="cls-3"/><circle cx="116.81" cy="113.67" r="2.39" class="cls-11"/><circle cx="91.51" cy="113.67" r="3.37" class="cls-3"/><circle cx="91.51" cy="113.67" r="2.39" class="cls-11"/><path d="M123.18 109.37s.39.47.46.7 0 .48-.31.48h-1.82c-.29 0-.82-.44-1.12-.79-.3-.35-.75-.93-.62-1.01.13-.07 1.79.14 3.41.62Z" class="cls-15"/><path d="M112.33 106.99h-10.47c-.28-2.44-.61-3.88-.67-4.13h.53c1.49 0 3.39.07 4.88.58.86.3 2.01.86 3.25 1.57 1.33.77 2.16 1.43 2.49 1.98Z" class="cls-2"/><path d="M74.63 115.34c0 .39-.43 1.28-1.11 1.28h-5.09c-.69 0-1.37-.47-2.33-.47H37.9c-.61 0-2.07-.39-2.71-.81-.64-.43-.71-.54-.71-.81v-1.69c0-.26.77-.54.77-.98v-2.48c0-.64 5.78-4.75 7.62-5.2s9.91-.49 12.07-.3 6.81 2.48 9.74 4.65c3.15 0 6.53.79 8.01 1.68 1.48.89 1.95 2.41 1.95 3.05v2.1Z" style="fill:#bbfedb;stroke-miterlimit:10;stroke:#000"/><path d="M50.91 108.76h-8.98c.09-.54 2.67-4.04 3.38-4.13.22-.03.68-.04 1.4-.04s1.56.01 2.31.02c.48 0 .91.02 1.22.02.05.2.38 1.64.67 4.13Z" class="cls-2"/><circle cx="66.56" cy="115.44" r="3.37" class="cls-3"/><circle cx="66.56" cy="115.44" r="2.39" class="cls-11"/><circle cx="41.25" cy="115.44" r="3.37" class="cls-3"/><circle cx="41.25" cy="115.44" r="2.39" class="cls-11"/><path d="M72.93 111.13s.39.47.46.7 0 .48-.31.48h-1.82c-.29 0-.82-.44-1.12-.79-.3-.35-.75-.93-.62-1.01.13-.07 1.79.14 3.41.62Z" class="cls-15"/><path d="M62.07 108.76H51.6c-.28-2.44-.61-3.88-.67-4.13h.53c1.49 0 3.39.07 4.88.58.86.3 2.01.86 3.25 1.57 1.33.77 2.16 1.43 2.49 1.98Z" class="cls-2"/><path d="m67.66 97.99.09-9.01h1.61l.04 1.55c.68-.39 1.13-1.02 1.24-1.78l.03-.17 1.11-1.07.09 1.04c.08.86-.35 2.67-2.43 3.65l.2 5.79h-1.98Z" class="cls-19"/><path d="M71.38 88.6s.2 2.23-2.45 3.28l.19 5.61h-.96l.08-8.01h.63l.04 1.8c1.23-.37 2.05-1.32 2.22-2.45l.24-.23m.81-2.16-1.5 1.44-.24.23-.24.23-.05.34c-.04.27-.14.51-.28.74l-.02-.94h-2.6v.99l-.09 8.01v1.01h2.99l-.03-1.03-.17-4.95c2.62-1.4 2.43-3.88 2.42-4l-.19-2.07Z"/><path d="M66.03 88.97c-.87-.5-1.63-1.19-2.24-1.97-1.73-2.2-2.44-4.92-1.73-7.61.35-1.32.91-2.55 1.57-3.64.69-1.14 1.38-2.29 2.25-3.18 1.04-1.06 2.35-1.7 3.64-1.19 1.27.5 2.38 2.02 3.19 3.4.86 1.47 1.63 3.2 1.79 5.09.14 1.72.01 3.51-.48 5.18-.48 1.63-1.42 3.5-3.09 4.26-.78.35-1.66.48-2.51.41a5.69 5.69 0 0 1-2.37-.75Z" class="cls-4"/><path d="m17.56 97.99.09-9.01h1.61l.04 1.55c.68-.39 1.13-1.02 1.24-1.78l.03-.17 1.11-1.07.09 1.04c.08.86-.35 2.67-2.43 3.65l.2 5.79h-1.98Z" class="cls-19"/><path d="M21.28 88.6s.2 2.23-2.45 3.28l.19 5.61h-.96l.08-8.01h.63l.04 1.8c1.23-.37 2.05-1.32 2.22-2.45l.24-.23m.81-2.16-1.5 1.44-.24.23-.24.23-.05.34c-.04.27-.14.51-.28.74l-.02-.94h-2.6v.99l-.09 8.01v1.01h2.99l-.03-1.03-.17-4.95c2.62-1.4 2.43-3.88 2.42-4l-.19-2.07Z"/><path d="M15.93 88.97c-.87-.5-1.63-1.19-2.24-1.97-1.73-2.2-2.44-4.92-1.73-7.61.35-1.32.91-2.55 1.57-3.64.69-1.14 1.38-2.29 2.25-3.18 1.04-1.06 2.35-1.7 3.64-1.19 1.27.5 2.38 2.02 3.19 3.4.86 1.47 1.63 3.2 1.79 5.09.14 1.72.01 3.51-.48 5.18-.48 1.63-1.42 3.5-3.09 4.26-.78.35-1.66.48-2.51.41a5.69 5.69 0 0 1-2.37-.75Z" class="cls-4"/></svg>