<svg xmlns="http://www.w3.org/2000/svg" id="Calque_1" viewBox="0 0 128 128.13"><defs><style>.cls-1{fill:none;stroke-linecap:round;stroke-linejoin:round;stroke:#000}.cls-4{fill:#b4eac3}.cls-5{fill:#76ac75}</style></defs><path d="M101.99 109.84c4.04-.42 1.15-4.81-4.93-8.63-6.08-3.82-7.61-9.15-12.26-23.42-4.65-14.27-8.5-16.24-8.5-16.24-7.82-5-15.08-9.23-4.45-12.18 10.63-2.95 4.45-16.26 4.45-16.26s2.03-4-.52-4.18-3.11-2.86-3.11-2.86S78.7 9.11 58.24 4.11C37.79-.88 28.06 15.73 26.56 26.33s4.11 21.28 21.03 24.62c0 0 2.2.89.74 4.71-1.46 3.82-11.49 2.24-16.88 15.06 0 0-9.49 27.95 3.65 38.53 0 0 10.24 4.62 14.34 8.77 4.11 4.14 10.44 9.15 9.27 5.9-1.17-3.26-2.88-4.28-2.88-4.28" class="cls-1"/><path d="M65.96 116.98s-.03-.03-.04-.03M44.19 72.47s1 18.54.07 26.51c0 0 1.42-.37 6.99 4.83.17.16.34.33.51.5M59.47 119.62s2.98 1.97 3.92 3.53h.01M63.67 124.12c-.27 1.5-6.02-2.72-6.35-2.96h-.01M63.4 123.16h-.01M55.28 108.18h-.02M51.76 104.31h-.04" class="cls-1"/><path d="M63.67 124.12c.06-.28-.06-.61-.27-.95.27.2 4.02 2.79 3.4-1.21.56.41 1.11.48 1.88 0 2.32-1.51-2.25-4.66-2.72-4.97 2.99 1.44 5.53-2.25-1.28-1.84-3.76.23-6.21-3.12-9.4-6.96M73.2 66.13s7.9 22.67 6.64 35.38h0c-4.41 3.88-26.97 2.86-28.08 2.8 1.31 1.27 2.46 2.61 3.52 3.87" class="cls-1"/><path d="m79.7 91.64 6.44 9.72s-1.17 12.18 1.41 9.01 1.6-7.85 5.07-3.96c3.46 3.89 2.82 6.45 4.18 3.92 1.35-2.53-1.29-5.78-1.29-5.78" class="cls-1"/><path d="M97.02 107.45s6.44 7.07 3.57.58l-2.26-3.48M48.34 36.46s-5.72 1.91-2.43 6.62c3.29 4.71 6.21.56 6.21.56" class="cls-1"/><circle cx="68.48" cy="28.98" r="1.33"/><path d="M68.48 22.8s-.37 3.43-3.95 3.22M52.12 75.28h1.73M68.49 73.84l1.69-.4M48.5 40.89l1.14-.53" class="cls-1"/><path d="M68.89 42.3z" style="fill:#fab0b4"/><path d="M71.77 42.38s4.02.38 4.14-1.98c0 0-.13-.72-.79-1.32-.48-.43-1.22-.79-2.43-.76-1.47.03-2.5.85-2.88 1.73-.02.01 0 .03 0 .03-.47 1.09.06 2.29 1.96 2.29Z" style="fill:#fff;stroke-miterlimit:10;stroke:#000"/><path d="M69.8 10.38S64.74 21.93 53.85 22.8c0 0 2.22 6.68-5.88 8.86" class="cls-1"/><path d="M83.05 65.31c-.5 0-.83-.49-.93-.97-.07-.33-.14-.65-.21-.97-.12-.51-.23-1.03-.33-1.55-.34-1.82-.87-3.79-1.61-6.03-.22-.67-.45-1.35-.7-2.02 0 .22-.03.44-.08.67-.06.24-.27.5-.6.5-.04 0-.1 0-.13-.02-.36-.09-.61-.37-.7-.77-.05-.21-.14-.42-.25-.65-.08-.17-.16-.35-.22-.53-.32-.92-.64-1.84-1-2.71-.57-1.39-1.27-2.82-2.26-4.64-.24-.44-.46-.88-.67-1.33-.25-.37-.48-.73-.68-1.13-.23-.45-.47-1.05-.38-1.73.06-.45.49-.96 1.02-.97.78 0 1.46.56 1.97.97l.09.08c.58.47 1.08.98 1.5 1.5.57.72 1.06 1.5 1.47 2.27.1-.26.27-.48.54-.62.07-.04.22-.07.3-.07.51 0 1.13.64 1.2.71.45.48.87 1.01 1.16 1.5.64 1.06 1.37 2.27 1.81 3.6l.05.15c.23.7.55 1.65.05 2.45-.12.19-.31.3-.52.3-.05 0-.12-.01-.17-.03.62 1.83 1.18 3.75 1.5 5.72.02.14.05.29.09.45.17.8.37 1.8-.08 2.54-.14.22-.35.35-.58.35l.02.12c.04.34.09.69.08 1.05 0 .06.02.15.03.24.07.39.17.98-.23 1.34a.83.83 0 0 1-.54.22Z" class="cls-4"/><path d="M73.34 40.97c.61 0 1.27.57 1.72.94.52.42 1 .9 1.42 1.42.91 1.15 1.59 2.45 2.21 3.77.03-.66-.15-1.69.42-1.99.02-.01.04-.02.07-.02.25 0 .72.43.84.56.4.42.8.92 1.1 1.42.68 1.12 1.35 2.25 1.76 3.5.21.65.56 1.53.15 2.17-.02.03-.06.07-.1.07h-.03c-.29-.11-.46-.13-.65-.41-.13-.2-.34-.4-.54-.58.85 2.37 1.64 4.76 2.05 7.26.12.74.51 1.94.08 2.65-.05.08-.1.11-.15.11-.24 0-.54-.63-.7-.92-.05.44.15 1.11.2 1.48.05.37.1.74.09 1.11 0 .29.24.97-.03 1.22-.08.07-.15.09-.21.09-.23 0-.39-.35-.44-.57-.18-.84-.38-1.67-.54-2.51-.39-2.07-.96-4.1-1.63-6.09-.6-1.8-1.21-3.61-2.25-5.19.02.33.16.82.22 1.03.09.33.16.66.21 1 .09.61.23 1.24.07 1.85-.01.04-.06.13-.11.13h-.01c-.19-.05-.29-.2-.34-.39-.1-.43-.34-.82-.48-1.23-.32-.92-.64-1.84-1.01-2.74-.67-1.61-1.45-3.15-2.28-4.69-.23-.43-.45-.86-.66-1.3-.24-.37-.48-.75-.68-1.15-.22-.44-.4-.93-.33-1.43.03-.23.29-.53.53-.54h.02m0-1h-.04c-.79.02-1.41.74-1.5 1.4-.11.82.19 1.54.43 2.02.22.43.46.82.7 1.19.2.42.41.84.65 1.29.98 1.81 1.67 3.22 2.23 4.59.36.88.68 1.8.99 2.69.07.19.15.38.24.57.09.2.18.39.21.55.13.58.53 1.01 1.07 1.15.08.02.18.03.26.03.24 0 .47-.08.66-.23.08.25.17.5.25.74.73 2.21 1.26 4.16 1.59 5.96.1.53.22 1.06.34 1.58.07.32.14.64.21.95.14.68.64 1.37 1.42 1.37.22 0 .55-.06.87-.35.61-.54.47-1.36.4-1.8-.01-.07-.02-.13-.03-.18 0-.27-.02-.53-.05-.79.18-.1.34-.25.46-.45.55-.91.32-2.06.14-2.9-.03-.15-.06-.3-.08-.43-.29-1.76-.74-3.43-1.33-5.23.18-.09.34-.24.45-.42.63-.99.25-2.13 0-2.88l-.05-.14c-.46-1.39-1.2-2.62-1.86-3.7-.4-.67-.89-1.23-1.23-1.59-.25-.26-.89-.87-1.56-.87-.19 0-.37.04-.53.13-.09.05-.18.1-.25.16-.34-.57-.71-1.13-1.14-1.68-.44-.56-.97-1.09-1.57-1.58l-.09-.07c-.53-.43-1.33-1.09-2.26-1.09Z"/><path d="M87.31 93.65c-2 0-2.63-3.67-3.07-7.11-.05-.41-.09-.73-.13-.91-.36-1.86-.76-3.71-1.16-5.51-.05.42-.2 1-.79 1.06-.15 0-.28-.03-.38-.08-.14.55-.34 1.06-.6 1.5-.15.26-.4.41-.67.41-.25 0-.51-.13-.71-.37-.38-.45-.33-1.23-.29-1.79 0-.1.01-.19.01-.26.02-.69.06-1.38.1-2.08.08-1.26.16-2.57.07-3.84-.12-1.71-.47-3.44-.82-5.11l-.18-.88c-.09-.45-.52-2.75.05-3.45.15-.18.35-.28.57-.28.14 0 .29.04.44.12.13.08.25.2.48.62.12.17.3.45.45.76.19.4.36.81.53 1.23.36.9.62 1.82.88 2.71l.12.43c.17.6.36 1.22.65 1.73.07-.27.12-.58.15-.96.03-.31.27-.63.63-.63.04 0 .09 0 .13.01.49.12.67.53.77.75.03.06.09.15.15.24.12.17.27.38.34.63.06-.15.16-.3.3-.43.21-.2.42-.24.57-.24.51 0 .83.49.95.68.47.73.8 1.54 1.01 2.47l.07.32c.18.8.39 1.7.39 2.54 0 .25.02.5.03.76.02.27.03.54.03.81 0 .24 0 .55-.18.85a.78.78 0 0 1-.31.29c.51 2.47 1.06 5.23 1.18 7.97 0 .12.02.28.03.45.1 1.46.3 4.17-1.47 4.54-.1.02-.21.03-.31.03Z" class="cls-4"/><path d="M79.32 65.45c.06 0 .12.02.19.06.08.05.28.42.28.43.16.23.31.47.43.73.19.39.35.79.51 1.2.38.97.66 1.95.95 2.95.19.66.39 1.39.74 1.99.13.22.33.47.53.47.12 0 .24-.1.32-.35.14-.41.2-.84.24-1.27 0-.06.05-.17.13-.17h.02c.23.05.33.26.43.47.12.27.42.54.47.84.04.23.12.46.21.68.03.07.26.64.43.64.06 0 .11-.07.14-.24.08-.43 0-.99.33-1.32.08-.07.15-.1.22-.1.22 0 .42.28.53.45.46.71.76 1.48.94 2.31.2.87.45 1.86.46 2.76 0 .52.06 1.05.07 1.57 0 .2 0 .41-.11.59-.06.1-.13.13-.22.13s-.19-.04-.29-.08c.58 2.8 1.17 5.64 1.3 8.5.05 1.09.48 4.16-1.04 4.47-.07.01-.14.02-.21.02-2.06 0-2.48-6.45-2.7-7.61-.53-2.71-1.13-5.42-1.75-8.11-.25.71-.28 1.53-.37 2.27-.03.23 0 .95-.38.99h-.03c-.29 0-.34-.4-.37-.63-.05-.41-.14-.8-.22-1.2-.06.62-.02 1.26-.14 1.87-.11.57-.31 1.13-.6 1.63-.07.12-.15.16-.24.16-.11 0-.23-.08-.32-.19-.31-.37-.17-1.3-.16-1.72.05-1.99.3-3.97.17-5.97-.14-2.05-.6-4.06-1.01-6.06-.06-.28-.56-3.13.13-3.13m0-1c-.37 0-.72.17-.96.46-.65.8-.38 2.77-.15 3.87l.18.87c.34 1.66.7 3.38.81 5.06.08 1.24 0 2.47-.07 3.78-.04.68-.08 1.39-.1 2.1 0 .07 0 .15-.01.24-.04.65-.1 1.54.41 2.15.29.35.69.54 1.09.54.45 0 .86-.24 1.1-.65.21-.36.38-.75.52-1.17h.08c.2-.02.38-.08.54-.17.3 1.39.6 2.8.87 4.22.03.18.07.49.12.88.48 3.82 1.16 7.54 3.56 7.54.14 0 .28-.01.41-.04 2.2-.45 1.99-3.45 1.87-5.06-.01-.16-.02-.31-.03-.43-.12-2.66-.63-5.32-1.13-7.74.07-.07.13-.15.19-.24.26-.42.25-.85.25-1.11 0-.29-.02-.57-.03-.85-.01-.24-.03-.49-.03-.73 0-.9-.22-1.82-.41-2.64l-.07-.33c-.22-.99-.58-1.85-1.08-2.63-.14-.22-.58-.91-1.37-.91-.21 0-.5.05-.78.27v-.01c-.04-.05-.08-.1-.11-.16-.1-.23-.38-.86-1.11-1.03a1.097 1.097 0 0 0-1.13.42c-.02-.08-.05-.16-.07-.24l-.04-.15-.08-.28c-.26-.9-.53-1.84-.9-2.76-.16-.4-.33-.83-.54-1.26-.16-.33-.34-.62-.48-.82-.22-.41-.38-.64-.65-.79-.22-.12-.45-.19-.68-.19Z"/><path d="M84.25 76.51c.93-.74 2.27 1.36 1.3 2.06-.83.6-2.04-1.45-1.32-2.05 0 0 .01 0 .02-.02ZM82.64 59.19c.39-.44.71.16.88.52.38.82-1.62.32-.88-.52.01-.02-.25.28 0 0ZM82 55.68c.32.45.76.85.96 1.37.23.59-.27 1.43-.94.94-.42-.3-.58-.91-.7-1.38-.09-.35.05-1.81.67-.93.07.11-.24-.34 0 0ZM77.54 48.01c.28.09.58.46.46.71-.23.48-.99-.16-.8-.57.07-.15.2-.18.34-.14ZM79.51 67.77c.15-.73 1.06.38 1.05.73 0 .78-1.17-.15-1.05-.73.05-.22-.04.21 0 0ZM81.55 73.5c.9-.39 1.72 2.9.8 3.36-.86.43-1.55-2.72-.95-3.26.05-.04.1-.07.15-.1ZM85.09 82.94c-.14-.49.23-.81.52-.31.48.83-.64.83-.52.31 0 0-.01.05 0 0ZM79.75 49.26c.62.43 1.42 1.14 1.61 1.91.18.74-.3 1.08-.94.71-.77-.45-1.66-3.31-.67-2.62.2.14-.26-.18 0 0ZM76.85 45.93s.07.15 0 0c-.23-.48.2-.63.56-.19.44.55-.22.9-.56.19ZM86.74 86.79c-.15-.38-.32-.76-.52-1.12-.1.78-.23 1.57-.06 2.35.08.4.18.81.36 1.18.13.26.67.88.82.28.06-.22.06-.45.03-.69-.03-.19-.08-.37-.11-.5-.13-.51-.35-1-.51-1.5Z" class="cls-5"/><path d="M87.93 61.27c-.5 0-.94-.52-1.05-.71-.25-.41-.4-.86-.53-1.25-.25-.79-.23-1.58-.21-2.34v-.17c0-.21.15-.4.36-.47.05-.02.1-.02.15-.02.16 0 .31.08.41.21.28.39.51.8.67 1.12.09.21.18.38.27.55.15.31.31.62.43.95.05.13.12.32.17.52.08.35.1.64.06.9-.08.52-.42.71-.72.71Z" class="cls-4"/><path d="M86.65 56.82c.24.33.45.69.64 1.06.22.48.48.94.67 1.44.05.13.11.3.16.48.05.24.08.47.04.69-.03.2-.12.28-.23.28-.22 0-.52-.3-.62-.47-.21-.35-.35-.75-.48-1.14-.24-.76-.2-1.56-.18-2.35m0-1c-.1 0-.2.01-.3.04-.41.13-.69.5-.7.93v.17c-.02.77-.05 1.64.23 2.5.13.42.3.9.58 1.36.2.33.77.94 1.47.94.52 0 1.1-.35 1.21-1.13.05-.33.03-.67-.06-1.06 0-.02 0-.04-.01-.06-.06-.21-.13-.41-.18-.55-.13-.36-.29-.68-.45-1-.08-.17-.17-.33-.24-.5 0-.02-.02-.04-.03-.06-.26-.49-.48-.85-.71-1.18a.996.996 0 0 0-.81-.42Z"/><path d="M74.46 43.86c-.04-.08.23.46 0 0-.7-1.42.08-1.83 1.01-.49 1.15 1.66.01 2.59-1.02.48Z" class="cls-5"/><path d="M66.8 121.95s-2.39-3.46-5.58-4.94M44.26 98.99l-2.54-1.1" class="cls-1"/></svg>